<svg xmlns="http://www.w3.org/2000/svg" viewBox="50 13 230.5 225"><style>.st0{fill:#FFB63E;} .st1{fill:#FCDAAE;} .st2{fill:#1669B3;} .st3{fill:#EDEDED;} .st4{fill:none;stroke:#636363;stroke-width:0.75;} .st5{fill:#636363;} .st6{fill:#1E1E1E;}</style><g id="Layer_1"><path class="st0" d="M183 169.4l-69.7-21.2c-6.3-1.9-9.9-8.7-8-15l21.2-69.7c1.9-6.3 8.7-9.9 15-8l69.7 21.2c6.3 1.9 9.9 8.7 8 15L198 161.4c-1.9 6.3-8.7 9.9-15 8z"/><path class="st1" d="M137.1 106.8c-4.2-1.3-6.6-5.8-5.3-10l6.4-20.8c1.3-4.2 5.8-6.6 10-5.3 4.2 1.3 6.6 5.8 5.3 10l-6.4 20.8c-1.3 4.2-5.8 6.5-10 5.3z"/></g><g id="clock"><circle class="st2" cx="207.9" cy="169.9" r="30.3"/><circle class="st3" cx="207.9" cy="169.9" r="25"/><ellipse class="st4" cx="207.9" cy="169.9" rx="23" ry="23.1"/><path class="st5" d="M207 146.9h1.9v5.1H207zM199.317 154.303l-1.542 1.11-2.978-4.14 1.542-1.11zM193.187 160.117l-.887 1.68-4.51-2.38.886-1.68zM219.857 149.836l1.542 1.11-2.98 4.14-1.54-1.11zM227.717 157.846l.886 1.68-4.51 2.38-.887-1.68zM196.373 189.93l-1.542-1.11 2.978-4.14 1.543 1.11zM187.902 181.21l-.886-1.68 4.51-2.38.887 1.68zM217.308 185.437l1.543-1.11 2.978 4.142-1.543 1.108zM223.364 179.198l.886-1.68 4.51 2.38-.885 1.68zM207 188.2h1.9v5.1H207zM226.1 168.9h5.1v1.9h-5.1zM184.7 168.9h5.1v1.9h-5.1z"/><circle class="st6" cx="208.3" cy="169.2" r="1.8"/></g><path class="st6" d="M208.322 170.013l.15-1.392 11.633 1.264-.15 1.392z" id="hour"/><path class="st6" d="M208.797 169.696l-1.314-.483 6.316-17.176 1.313.483z" id="minute"/></svg>