<svg xmlns="http://www.w3.org/2000/svg" viewBox="0 0 254.1 313.5"><style>.st0{fill:#519E38;} .st1{fill:#E2E2E2;} .st2{fill:#D3D3D3;} .st3{fill:#444444;} .st4{fill:#FFFFFF;} .st5{fill:#0455A4;} .st6{fill-rule:evenodd;clip-rule:evenodd;fill:#0455A4;} .st7{fill-rule:evenodd;clip-rule:evenodd;fill:#62BA47;} .st8{fill:#62BA47;} .st9{fill:#EDEDED;} .st10{fill:none;stroke:#636363;stroke-width:0.75;} .st11{fill:#636363;} .st12{fill:#1E1E1E;}</style><g id="bidon"><path class="st0" d="M165.4 81h-1.2v-7.2h5.7c1.7 0 3-1.4 3-3 0-1.7-1.4-3-3-3h-5.7v-8.1c2 0 3.7-1.6 3.7-3.7 0-2-1.6-3.7-3.7-3.7H85.9c-2 0-3.7 1.6-3.7 3.7 0 2 1.6 3.7 3.7 3.7h.8v8.1H80c-1.7 0-3 1.4-3 3 0 1.7 1.4 3 3 3h6.7V81h-2c-7.7 0-13.9 6.2-13.9 13.9v118.6c0 7.7 6.2 13.9 13.9 13.9h80.8c7.7 0 13.9-6.2 13.9-13.9V94.9c-.1-7.7-6.3-13.9-14-13.9z"/><path class="st1" d="M172.6 207.1c0 7.7-6.2 13.9-13.9 13.9H77.9c-7.7 0-13.9-6.2-13.9-13.9V88.6c0-7.7 6.2-13.9 13.9-13.9h80.8c7.7 0 13.9 6.2 13.9 13.9v118.5z"/><path class="st2" d="M79.9 53.2h77.5v21.5H79.9z"/><path class="st3" d="M161.1 49.6c0 2-1.6 3.7-3.7 3.7H79.1c-2 0-3.7-1.6-3.7-3.7 0-2 1.6-3.7 3.7-3.7h78.3c2 0 3.7 1.7 3.7 3.7zM87.6 64.4c0 1.7-1.4 3-3 3H73.2c-1.7 0-3-1.4-3-3 0-1.7 1.4-3 3-3h11.4c1.7-.1 3 1.3 3 3zM166.2 64.4c0 1.7-1.4 3-3 3h-11.4c-1.7 0-3-1.4-3-3 0-1.7 1.4-3 3-3h11.4c1.6-.1 3 1.3 3 3z"/><path class="st4" d="M83.4 100.6c0 2.5-2 4.5-4.5 4.5s-4.5-2-4.5-4.5v-9.3c0-2.5 2-4.5 4.5-4.5s4.5 2 4.5 4.5v9.3z"/><path class="st5" d="M143.3 148.9c0-14.5-11.8-26.3-26.3-26.3s-26.3 11.8-26.3 26.3 11.8 26.3 26.3 26.3c14.6 0 26.3-11.8 26.3-26.3z"/><path class="st6" d="M104.6 116.7c0 1.9-1.5 3.4-3.4 3.4s-3.4-1.5-3.4-3.4 1.5-3.4 3.4-3.4 3.4 1.5 3.4 3.4z"/><path class="st7" d="M104.7 128c0 2.4-1.9 4.3-4.3 4.3s-4.3-1.9-4.3-4.3 1.9-4.3 4.3-4.3 4.3 1.9 4.3 4.3zM93.1 121.3c0 1.4-1.2 2.6-2.6 2.6-1.4 0-2.6-1.2-2.6-2.6 0-1.4 1.2-2.6 2.6-2.6 1.5 0 2.6 1.2 2.6 2.6z"/><circle class="st8" cx="139.5" cy="124.8" r="14.5"/><path class="st4" d="M135.9 122.8c-1.2.1-1.5 1.6-1.6 2.5v.4c0 .5 0 .8-.1 1.3 0 .2-.1.6-.1.6-.4 0-.8-.6-.9-.9-.3-.7-.5-1.5-.6-2.3-.1-.8-.2-1.7-.3-2.6v-1.1-.4-.2c.1-.6-.8 0-1 .3-1 1.7-.7 3.7-.6 5.5 0 .5 0 1-.1 1.5 0 .3-.1.9-.4 1.2-.2.2-.5 0-.6 0-.2-.1-.4-.4-.4-.7 0-.3-.3-.1-.5 0-.2.2-.4.6-.4.9.1.6.7 1.2 1.4 1 1.1-.3 1.5-1.6 1.8-2.6.1-.5.2-1 .2-1.5.1.7.4 1.4.7 2.1.2.5.7 1 1.3.9.5-.1.8-.6 1-1.1.2.5.5.8 1.1.8.6 0 1.1-.7 1.3-1.2.3-.6.3-1.2.3-1.8 0-.9-.2-2.7-1.5-2.6zm.4 4.2c0 .1-.1.2-.1.4-.2 0-.4-.4-.5-.5-.2-.4-.3-.8-.3-1.3 0-.4 0-.9.1-1.4 0-.1.1-.2.1-.3.6.4.7 1.1.8 1.8 0 .3 0 .8-.1 1.3zM150.4 124.5c-1.3-.5-2 1.3-2.3 2.2-.2.9-.5 2.5.6 3 .5.2 1.2-.2 1.5-.5.4-.4.6-1 .8-1.6.3-1 .5-2.7-.6-3.1zm-.8 4.2c-.1.1-.1.2-.2.3-.2-.1-.3-.5-.3-.7-.1-.5 0-.9.1-1.3s.2-.9.4-1.3c.1-.1.1-.2.2-.3.5.6.4 1.4.2 2-.1.4-.2.9-.4 1.3zM146.8 124.7c.2-.3.5-.7.7-1 .5-.7.9-1.6.9-2.5 0-.8-1.2-.9-1.7-.6-.8.4-1.3 1.3-1.5 2.1-.3 1.1-.5 2.2-.5 3.4-.4.5-1.3 1.5-1.9 1.1-.1-.1-.3-.3-.3-.5.5-.6 1-1.1 1.4-1.8.4-.6.6-1.6-.1-2-.6-.4-1.4 0-1.8.6-.4.5-.6 1.2-.7 1.8 0 .4-.1.9 0 1.5-.4.2-.8.4-1.3.3-.5-.1-.7-.6-.8-1-.1-.6-.1-1.2 0-1.8 0-.2.1-.4.1-.6 0 0 0-.1.1-.1.3.1.4.6.5.8.1.4 1.2-.3 1.1-.7-.1-.4-.3-.9-.8-1.1-.5-.2-1.1.2-1.3.4-.8.8-.9 2-.8 3 0 .7.2 1.5.8 1.9.8.5 1.9.1 2.6-.4.2.5.6.8 1.2.8.8-.1 1.5-.5 2-1.1 0 .6.2 1.2.6 1.5.7.4 1.5-.1 2-.6.6-.7.9-1.8.6-2.7-.3-.5-.7-.7-1.1-.7zm-4.4-.5c0-.2.1-.3.2-.5.3.1.4.5.3.7-.1.5-.4 1-.7 1.4v-.2c0-.4.1-.9.2-1.4zm4.2-2.4c.1-.2.2-.3.3-.5.5.6 0 1.3-.3 1.9l-.9 1.5.3-1.5c.2-.4.4-.9.6-1.4zm-.2 6c0 .1-.1.2-.1.2h-.1c-.3-.2-.3-.9-.4-1.1v-.7c.1-.2.3-.3.4-.5.3-.2.5.2.6.5 0 .4-.2 1.1-.4 1.6z"/><g><path class="st4" d="M136.3 156.3c-1.1.2-.8-2.5-.7-3 .2-1.6.6-3.2 1-4.7.1-.5-.4-.6-.8-.5-.5.1-1 .4-1.2.8-.1.3-.1.6-.2.9-.1.3-.1.6-.2.9-.2.9-.4 1.7-.6 2.6-.2.6-.4 1.3-.8 1.8v.1c-.1-.1-.3-.2-.3-.2-.9-.7-.6-2.6-.4-3.4.2-1.3.6-2.5 1.1-3.7.2-.4 0-.7-.5-.7s-1.1.3-1.3.8c-.5 1-.8 2.1-1 3.2-.1.7-.9 3.3-1.6 2.9-.6-.4-.3-2.2-.6-3.1-.3-.9-1-1.2-1.8-1.1.4-1.5.8-2 1.1-2.3.3.1.6.4.7.4.6.6 2.4-.6 1.8-1.2-.8-.8-1.6-.9-2.3-.6-.5.1-1.1.5-1.5.9-.1.1-.1.2-.2.2 0-.9-.1-1.9-.3-2.8-.1-.3-.5-.3-1-.1-.5.2-1 .6-1 1 0 .7-.2 1.3-.8 1.7-.3.2-.9.4-1.3.3 0 0-.5-.3-.9-.2.4-.8.8-1.7 1.1-2.6.4-1.2 1.1-3 .4-4.2-.8-1.3-2.6-.4-3.4.4-1.2 1.2-1.4 3.1-1.6 4.6-.2 1.7-.1 3.4.2 5.1-.2.8-.6 1.9-1 2.6-.4-.3-.9-1.1-1-1.4-.3-1.1-.5-2.4-.5-3.6v-1.4-1.3c0-.5-.6-.4-.9-.2-.4.2-.9.7-.9 1.2 0 1.5.1 3 0 4.6 0 .7-.1 1.6-.3 2.1-1.4-.1-1.6-2.3-1.7-3.1-.1-1.3-.1-2.6.2-3.9.1-.4-.2-.7-.6-.5-.5.2-1 .7-1.1 1.2-.1.7-.2 1.5-.2 2.2-.1 3-.3 4.2-.7 4.7-.2-.1-.4-.4-.5-.5-.3-.5-.5-1.1-.7-1.6-.5-1.7-.8-3.5-1-5.3 0-.1 0-.2-.1-.2s-.1-.1-.2-.1c-.5 0-1 .6-1.2.9-.8 1.6-.5 3.5-.5 5.1 0 .8 0 1.6-.2 2.4-.7-.2-.8-1.2-.9-1.4-.1-.2-.3-.2-.6 0l-.6.6c-.1.2-.2.4-.3.7v.1c-.1.5-.2.9-.7 1h-.7c-.6-.2-1-.6-1.4-1.1-.9-1.3-1.3-3.1-1.5-4.8-.1-.9-.1-1.7 0-2.6 0-.3.1-.7.2-1 0-.1.2-.4.1-.4 0-.1.1-.1.1-.2v-.1s.1 0 .1-.1c.1-.1.5-.2.7-.2 1.2-.2 1.8 1 2.1 1.9.2.7 1.8-1 1.6-1.7-.4-1.1-1.1-2.3-2.7-2.2-1 .1-1.9.7-2.5 1.5-1.5 1.9-1.7 4.5-1.5 6.8.2 2.1.8 4.3 2.3 5.9.5.5 1.2.9 2 .7.9-.2 1.6-.8 2.1-1.6.4.6 1.1 1 2 .3.9-.7 1.2-1.9 1.4-2.9.1.2.1.4.2.6.2.6.5 1.2 1 1.6.5.4 1.6-.5 1.6-.5s.2-.1.3-.2c.4-.4.6-.8.9-1.3v-.1c.3.8.8 1.5 1.8 1.5s1.7-.6 2.3-1.5c.1.3.3.5.5.8.9 1 2.4-.1 3-.8.2-.2.4-.4.5-.7.3.9.8 1.8 1.7 1.8 1.5 0 2.5-1.4 2.9-2.7.3-.9.6-2.4.2-3.5.2-.1.3-.2.5-.2.3-.2.7-.4 1-.6 0 2.3-.2 4.7-.4 7-.1 1 1.7-.1 1.8-.7.1-.8.3-1.7.5-2.5.6.3.6 1.5.6 2.1 0 .7 0 1.5.8 1.9.8.4 1.8 0 2.4-.5.1-.1.3-.2.4-.3.1.8.5 1.5 1.2 1.8 1 .4 1.8 0 2.5-.6.2 1.2.8 2 2.2 1.7.4-.1 1-.3 1.1-.8.1-.5-.5-.7-.8-.6zm-17.4-11c.1-1.2.3-2.5.9-3.7 0 0 0-.1.1-.1.3.1.4.6.5.8.2 1.2-.4 2.6-.8 3.7-.2.5-.4 1.1-.7 1.6-.1-.8-.1-1.6 0-2.3zm1.6 7.7v.1h-.2c-.9-.3-1-2.3-1.2-3v-.1c.2-.3.4-.6.6-1 .1-.1.2-.1.4 0l.3.3c.5.5.4 1.4.4 2-.1.5-.1 1.1-.3 1.7z"/></g><g><path class="st5" d="M107.7 199.9v-1.4h.3c.8 0 1.4-.2 1.8-.5.4-.3.6-.8.6-1.5 0-.6-.2-1-.5-1.3-.3-.3-.7-.5-1.3-.5-1.2 0-1.8.8-1.8 2.4v.1h-1.5v-.3c0-1.1.3-1.9.9-2.6.6-.6 1.4-.9 2.4-.9s1.9.3 2.5.8c.6.6.9 1.3.9 2.2 0 1.3-.6 2.1-1.8 2.6.7.3 1.3.6 1.6 1.1.3.5.5 1.1.5 1.9 0 1.1-.3 1.9-1 2.6-.7.7-1.6 1-2.7 1s-2-.4-2.6-1.1c-.6-.7-1-1.7-1-3v-.1h1.5v.1c0 .9.2 1.6.6 2.1.4.5.9.7 1.5.7s1.1-.2 1.5-.6c.4-.4.6-.9.6-1.6 0-1.5-.9-2.3-2.7-2.3h-.3zM120.9 199.7c0 1.9-.3 3.4-1 4.4-.7 1-1.5 1.6-2.7 1.6-1.1 0-2-.5-2.7-1.6-.6-1.1-1-2.6-1-4.5 0-2 .3-3.5 1-4.5.6-1.1 1.5-1.6 2.7-1.6 1.2 0 2.1.5 2.7 1.6.7 1 1 2.6 1 4.6zm-3.7 4.6c.6 0 1.1-.4 1.5-1.2.4-.8.6-1.9.6-3.4 0-1.6-.2-2.8-.5-3.7-.4-.9-.9-1.3-1.5-1.3s-1.1.4-1.5 1.2c-.4.8-.6 2-.6 3.6s.2 2.7.6 3.6c.3.8.8 1.2 1.4 1.2zM132.3 198.5h-2.9v2.9c0 2.8-.8 4.2-2.4 4.2-.4 0-.7 0-1-.1v-1.4c.1 0 .2 0 .4.1s.3 0 .4 0c.4 0 .7-.2.9-.5.2-.4.3-1.2.3-2.4v-2.8h-1.2v-1.4h8.1v1.4h-1.2v5.5h1.2v1.5H131V204h1.2v-5.5z"/></g></g><g id="clock"><circle class="st0" cx="177.3" cy="209.9" r="48.5"/><circle class="st5" cx="172.4" cy="205.7" r="48.5"/><circle class="st9" cx="172.4" cy="205.7" r="40"/><ellipse class="st10" cx="172.4" cy="205.7" rx="36.7" ry="37"/><path class="st11" d="M170.8 168.9h3.1v8.1h-3.1zM151.45 175.972l2.517-1.81 4.728 6.578-2.517 1.81zM140.19 188.952l1.445-2.742 7.165 3.778-1.446 2.742zM189.024 181.977l-2.516-1.81 4.73-6.576 2.516 1.812zM198.15 192.737l-1.447-2.742 7.165-3.778 1.446 2.742zM156.17 229.365l2.518 1.81-4.728 6.577-2.517-1.81zM146.29 217.345l1.445 2.742-7.165 3.778-1.446-2.742zM194.587 235.308l-2.517 1.81-4.73-6.575 2.517-1.81zM205.616 221.633l-1.446 2.74-7.165-3.777 1.446-2.742zM170.8 235h3.1v8.1h-3.1zM201.3 204.2h8.1v3.1h-8.1zM135.3 204.2h8.1v3.1h-8.1z"/><circle class="st12" cx="172.9" cy="204.6" r="2.9"/><path class="st12" d="M181.723 177.018l2.065.76-10.106 27.5-2.065-.76z"/><path class="st12" d="M191.79 205.593l-.236 2.187-18.592-2.02.238-2.187z"/></g></svg>