<svg xmlns="http://www.w3.org/2000/svg" viewBox="0 0 236.4 172"><style>.st0{fill:#EFEFEF;} .st1{fill:#DDDDDD;} .st2{fill:#FFFFFF;} .st3{fill:#FCFCFC;} .st4{fill:#F48020;} .st5{fill-rule:evenodd;clip-rule:evenodd;fill:#F48020;} .st6{fill-rule:evenodd;clip-rule:evenodd;fill:#62BA47;} .st7{fill:#62BA47;} .st8{fill:#62BA46;}</style><g id="butylka_2"><path class="st0" d="M192.4 88.2H44.9l9.7 36c.9 3.6 6.3 6.3 12.9 6.3h102.4c7 0 12.7-3.1 13-7l9.5-35.3z"/><path class="st1" d="M169.9 88.2h-51.2v42.3h51.2c7 0 12.7-3.1 13-7l9.5-35.2h-22.5z"/><path class="st2" d="M64.2 109.5c.6 2-.5 4.1-2.5 4.7-2 .6-4.1-.5-4.7-2.5l-3-9.6c-.6-2 .5-4.1 2.5-4.7 2-.6 4.1.5 4.7 2.5l3 9.6z"/><path class="st0" d="M192.3 83.1H43.8l13-23.3h121.8z"/><path class="st3" d="M178.6 59.8L192.4 83H43.8l12.9-23.2h121.9m0-6.5H56.8c-2.4 0-4.6 1.3-5.7 3.4l-13 23.2c-1.1 2-1.1 4.5.1 6.5 1.2 2 3.3 3.2 5.6 3.2h148.5c2.4 0 4.5-1.3 5.7-3.3 1.2-2 1.1-4.6-.1-6.6l-13.8-23.2c-1.1-2-3.2-3.2-5.5-3.2z"/><g><ellipse class="st4" cx="119.1" cy="73" rx="17.5" ry="8.4"/><path class="st5" d="M110.8 62.7c0 .6-1 1.1-2.2 1.1-1.2 0-2.2-.5-2.2-1.1 0-.6 1-1.1 2.2-1.1 1.2 0 2.2.5 2.2 1.1z"/><path class="st6" d="M110.9 66.3c0 .8-1.3 1.4-2.9 1.4-1.6 0-2.9-.6-2.9-1.4 0-.8 1.3-1.4 2.9-1.4 1.6 0 2.9.7 2.9 1.4zM103.1 64.2c0 .5-.8.8-1.7.8-1 0-1.7-.4-1.7-.8 0-.5.8-.8 1.7-.8 1 0 1.7.3 1.7.8z"/><ellipse class="st7" cx="134.1" cy="65.3" rx="9.7" ry="4.6"/><path class="st2" d="M131.7 64.7c-.8 0-1 .5-1 .8v.1c0 .1 0 .3-.1.4 0 .1-.1.2-.1.2-.3 0-.5-.2-.6-.3-.2-.2-.3-.5-.4-.7-.1-.3-.2-.5-.2-.8v-.3-.1-.1c.1-.2-.5 0-.6.1-.6.5-.4 1.2-.4 1.8 0 .2 0 .3-.1.5 0 .1-.1.3-.3.4-.1.1-.3 0-.4 0-.2 0-.3-.1-.3-.2s-.2 0-.3 0c-.1.1-.3.2-.3.3.1.2.5.4.9.3.7-.1 1-.5 1.2-.8.1-.2.1-.3.1-.5.1.2.2.5.5.7.2.2.4.3.9.3.3 0 .5-.2.7-.4.1.2.4.3.7.3.4 0 .7-.2.9-.4.2-.2.2-.4.2-.6-.1-.5-.2-1.1-1-1zm.2 1.3s0 .1-.1.1c-.2 0-.3-.1-.3-.2-.1-.1-.2-.3-.2-.4v-.4s0-.1.1-.1c.4.1.5.4.5.6.1.1.1.2 0 .4zM141.3 65.2c-.9-.2-1.4.4-1.5.7-.1.3-.3.8.4 1 .4.1.8-.1 1-.2.3-.1.4-.3.5-.5.2-.3.4-.9-.4-1zm-.6 1.3l-.1.1c-.1 0-.2-.2-.2-.2V66c.1-.1.1-.3.3-.4l.1-.1c.3.2.2.4.2.7 0 .1-.1.2-.3.3zM138.9 65.3c.2-.1.3-.2.5-.3.3-.2.6-.5.6-.8 0-.3-.8-.3-1.2-.2-.5.1-.9.4-1 .7-.2.4-.3.7-.4 1.1-.3.2-.8.5-1.3.3-.1 0-.2-.1-.2-.2.4-.2.7-.4 1-.6.3-.2.4-.5-.1-.6-.4-.1-1 0-1.2.2-.3.2-.4.4-.5.6 0 .1-.1.3 0 .5-.3.1-.6.1-.9.1-.3 0-.5-.2-.5-.3-.1-.2-.1-.4 0-.6 0-.1.1-.1.1-.2.2 0 .3.2.3.3.1.1.8-.1.7-.2-.1-.1-.2-.3-.5-.3-.3-.1-.7.1-.9.1-.5.2-.6.6-.5 1 0 .2.1.5.5.6.5.2 1.2 0 1.7-.1.1.2.4.3.8.2.5 0 1-.2 1.4-.3 0 .2.1.4.4.5.5.1 1 0 1.3-.2.4-.2.6-.6.4-.9 0-.4-.2-.4-.5-.4zm-2.9-.2c0-.1.1-.1.1-.2.2 0 .2.2.2.2 0 .2-.3.3-.5.4v-.1c.1 0 .1-.1.2-.3zm2.8-.7l.2-.2c.3.2 0 .4-.2.6-.2.2-.4.3-.6.5 0-.2.1-.3.2-.5s.2-.3.4-.4zm-.2 1.8c0 .1-.1.1 0 0-.1.1-.1.1-.2.1-.2-.1-.2-.3-.2-.4v-.2c.1 0 .2-.1.3-.1.2-.1.3.1.4.2 0 .1-.1.3-.3.4zM132.1 72.8h-.2c-1.7-.1-2.4.7-2.7 1.4-.3.4-.9.8-1 .9-.1.1-.2 0-.2 0-.1 0-.1-.1-.2-.2-.1-.2-.1-.5-.1-.7 0-.6.1-1.2.3-1.8 0-.1-.2-.2-.4-.2-.4 0-.8.1-1 .3-.6.4-.9 1-1.2 1.5-.1.3-.2.5-.4.8h-.1c-.2-.1-.2-.2-.3-.2 0 0 0-.1-.1-.1h-.2c-.2 0-.5.1-.7.1-.1 0-.2.1-.2.1-.1 0-.1.1-.4.1-.3 0-.5-.1-.6-.2-.3-.2-.3-.6-.3-.8 0-.4.1-.7.4-1.1 0 0 0-.1.1-.1h.1c.3.1.4.3.5.5.1.3 1.5-.1 1.4-.4-.1-.2-.3-.5-.8-.7-.5-.2-1.2 0-1.6.1-1.1.4-1.4 1-1.4 1.6v.1c-.1.2-.3.5-.5.7 0 0-.1.1-.3.1-.1 0-.2-.1-.2-.2-.2-.3-.3-.7-.3-1.1 0-.3 0-.5.1-.7v-.3c0-.4-.7-.6-1.5-.5-.8.1-1.4.4-1.8.7-.4.3-.6.7-.6 1.1-.1.3 0 1-.4 1-.5 0-.9-.4-1-.6-.3-.4-.4-.9-.5-1.3-.1-.7-.2-1.5 0-2.2 0-.1-.3-.1-.5-.1-.3.1-.7.2-.8.3-.5.5-.7 1.1-.8 1.7v-.2c-.1-.5-.2-.9-.3-1.4 0-.3-.1-.7 0-.9.2-.4-1 0-1.2.1-1.2 1-.9 2.3-.9 3.4 0 .3 0 .6-.2.9-.1.2-.2.6-.5.7-.2.1-.6 0-.8 0-.3-.1-.4-.2-.5-.4 0-.2-.4-.1-.6 0-.3.1-.5.3-.5.5.1.4.8.8 1.7.7 1.4-.2 2-1 2.4-1.6.2-.4.3-.7.3-1.1.2.7.5 1.4.7 2.1.1.4 1.2-.2 1.2-.4 0-.5.1-1 .2-1.5.2.6.7 1.9 2.3 1.9.5 0 .9-.2 1.2-.5.1.2.3.3.7.4.6.1 1.4-.1 1.8-.3.1.1.2.2.4.3.8.3 1.8-.1 2.2-.4.1.1.2.2.4.3.6.3 1.4.2 2.1 0 .6.4 2 .2 2.6-.2l.2-.2v.2c0 .2.1.5.4.6.3.2.9.1 1.2 0 .3-.1.7-.3 1-.5 0 .4.2.8 1 1 .7.1 1.5-.1 1.9-.4.5-.3.8-.6 1-1-.1-.5.2-1.3-1-1.7zm-14.5 1.5l-.1.1h-.2c-.3 0-.4-.2-.5-.4-.3-.4-.3-.9 0-1.3.1-.1.3-.4.4-.4H117.5c.3 0 .5.1.5.2-.1.6-.1 1.2-.4 1.8zm13.1.8l-.2.2c-.3-.1-.3-.3-.4-.4-.1-.3 0-.6 0-.8.1-.3.2-.5.5-.8l.2-.2c.6.2.4 1 .3 1.2 0 .3-.2.6-.4.8z"/><g><path class="st2" d="M117.3 79.4c0 .2.7.2 1.1.1.2-.1.3-.2.3-.4.1-.2.1-.4.3-.6-.2 0-.3.1-.5.1v.6c0 .1.1.3.3.4.4.1 1.2-.3 1.3-.4.3-.1-.2-.1-.4 0s-.4.3-.6.1c-.2-.2-.2-.5-.2-.8 0-.1-.4 0-.5.1-.1.1-.2.2-.3.4 0 .1-.1.2-.1.2s0 .1-.1.1c-.1.1-.2 0-.2 0 .2-.1-.4 0-.4.1zM111.9 77.6c-.3.3-.7.5-1.1.8-.1.1.5.1.6.1.3-.2.5-.4.9-.5 0 0 .1 0 .1-.1h0v.1c-.1.3-.5.5-.8.7h.6c.2-.2.5-.4.9-.6.1 0 .1-.1.2-.1-.2.1-.1 0-.2.1 0 .1-.1.2-.2.3-.1.1-.4.3-.3.5.1.1.6.1.8.1.4 0 .2-.2-.2-.1-.1 0 0-.1 0-.2.1-.1.2-.2.3-.4.1-.1.3-.3 0-.4-.3-.1-.7.1-.9.1-.5.2-.8.4-1.1.6-.1.1.5.1.6 0 .2-.2.4-.3.6-.5.1-.1.4-.3.1-.4-.2-.1-.7 0-.9 0-.5.2-1 .4-1.3.6.2 0 .4 0 .6.1.3-.3.7-.5 1-.8.3-.1-.2-.1-.3 0z"/><path class="st2" d="M115.8 78.4c0 .3-.3.6-.4.9-.1.1.6 0 .6 0 .1-.2.3-.5.7-.7.1-.1.1 0 0 0 .1 0 .1.1.1.1 0 .1 0 .2-.1.3-.1.1-.3.3 0 .5.2.1.6.1.8 0 .3-.1.3-.2-.1-.1-.5.1-.2-.4-.2-.5 0-.1.1-.4-.3-.4-1 0-1.5.7-1.6 1h.6c.1-.3.4-.6.4-1 0-.2-.5-.1-.5-.1zM120.2 79.3c.3-.1 1.2-.8.3-.9-.6 0-.8.4-.9.5-.1.2-.1.6.6.6.8.1 1.6-.4 2-.6.2-.1 0-.2-.3-.1-.3.2-.7.4-1.3.4-.3 0-.4-.2-.5-.3-.1-.1-.1-.4.1-.5h.1c.1 0 .1.1.1.1 0 .2-.3.3-.6.5-.3.4.2.4.4.3zM126.1 78.5c.2-.2.4-.8-.3-.9-.5 0-.6.3-.6.5s.3.5.7.6c.5.1 1.1-.2 1.3-.4.1-.1.1-.1 0-.2-.1 0-.2.1-.3.1-.4.4-1 .1-1.2-.1-.1-.1-.1-.1-.1-.2v-.1s-.1 0 0 0c.5-.1.2.5.1.6-.1.3.3.2.4.1zM120.2 78.3c.1-.1.1-.1.1-.2s-.1 0-.2 0-.2.1-.2.1-.1.1 0 0c0 0-.1.1 0 .1.1.1.3 0 .3 0zM120.9 78.2c.1 0 .1-.1.1-.2s-.1 0-.2 0-.2.1-.2.2c0 0 0 .1.1.1 0 0 .1-.1.2-.1z"/><path class="st2" d="M121.3 78.5c.2.3.3.6.4.9 0 .1.5-.1.5-.2 0-.2 0-.3.3-.5s.3-.4.3-.6c0-.1-.4 0-.4.1 0 .2 0 .4.1.6.1.1.1.3.4.4.2 0 .5-.1.6-.1.4-.2.5-.4.5-.6 0-.1-.4.1-.4.1 0 .1 0 .3-.3.4-.1 0-.2-.1-.2-.1-.2-.2-.4-.5-.3-.7-.1 0-.3.1-.4.1 0 .2-.1.3-.4.5-.3.2-.3.4-.3.5.2-.1.3-.1.5-.2-.1-.3-.3-.6-.5-.9 0 .1-.4.3-.4.3zM115.1 78.2c-.6-.1-1 .2-1.2.3-.2.1-.5.6.1.7.7.1 1.2-.2 1.3-.3.2-.2.4-.6-.2-.7-.1 0-.6.1-.4.1.3.1.2.3.2.4 0 .1-.1.2-.2.2l-.1.1s-.2.1-.1.1c-.4 0-.3-.3-.2-.4 0-.1.1-.2.2-.2 0 0 .1-.1.2-.1h.1c.1-.1.6-.2.3-.2z"/><path class="st2" d="M124 78c-.5.1-.5.4-.4.6.1.2.3.6 1 .5.7-.1.7-.5.5-.7-.1-.1-.5-.5-1.1-.4-.2 0-.3.3-.1.2.3 0 .5.1.7.2l.2.2v.1s-.1.1 0 .1c-.3.1-.6-.1-.7-.2-.1-.1-.1-.2-.2-.2v-.1s0-.1 0 0c.2-.1.4-.3.1-.3z"/></g><g><path class="st8" d="M97.8 69.4c-.1 0-.2-.1-.3-.1-.4-.1-.6 0-1 0-.8 0-1.1 0-2.1-.1 0-.4.5-.7.7-1 .2-.3-.1-.6-.1-1v-.6c-.3.1-.1.5-.2.7-.1-.2-.1-.6-.3-.8-.1.2 0 .6 0 .8-.1-.2-.2-.5-.4-.7-.2.2.1.6.1.8-.2-.2-.3-.4-.5-.6-.1.3.2.5.2.7-.2-.2-.3-.4-.5-.5 0 .2.2.4.4.5-.2-.1-.3-.2-.6-.2 0 .1.2.2.3.3-.2 0-.2-.1-.4-.2 0 .1.2.2.3.3-.1 0-.2-.1-.4-.1 0 .1.3.2.2.2H93s.2.1.1.1h-.2c0 .1.1 0 .1.1h-.1c0 .1.1 0 .1.1-.7.4-.3.7-.4 1.2 0-.1-.6-.1-1.1-.2-.3-.1-.3-.2-.5-.3h.1c-.1 0-.2 0-.2-.1h.3c-.1 0-.5-.1-.4-.1.2 0 .3.1.5 0-.2 0-.6-.1-.6-.2.2 0 .4.1.6.1-.3-.1-.7-.2-.8-.3.2.1.5.2.7.2-.4-.1-.7-.2-1-.2.2.2.7.2.8.4-.3-.1-.6-.1-.8-.2.1.2.5.2.8.3-.3 0-.4-.1-.7-.1.1.1.5.1.6.2h-.4c0 .1.3.1.4.1h-.4c.1 0 .3 0 .4.1h-.2.2c.1-.1.1 0 .1 0h.1c.4.1.6.4 1.1.5-.3.1.3.2-3.1.7.1 0 1.5-.2 1.9-.2.4-.1.8-.1 1.2-.2h.3c.7 0 1.3 0 2-.2-.5 0-1.4.1-1.8-.1.5-.3.1-1.2.5-1.4.4-.2.9-.7 1.6-.3.1.1.1.2-.1.4-.3.2-.5.4-.4.9 0 .1 0 .2-.3.2 1.5.1 1.9.1 2.8 0 .3 0 .7-.1.7 0s-.3 0-.5 0c-.4 0 .2.1.4.1.1 0 .9 0 1.3-.1-.5.2-.7.2-.9.1z"/><path class="st8" d="M93.5 65.8c-3.4 0-6.1 1.3-6.1 2.9 0 1.6 2.7 2.9 6.1 2.9 3.4 0 6.1-1.3 6.1-2.9 0-1.6-2.8-2.9-6.1-2.9m0 .1c3.2 0 5.8 1.3 5.8 2.8 0 1.5-2.6 2.8-5.8 2.8-3.2 0-5.8-1.3-5.8-2.8-.1-1.5 2.6-2.8 5.8-2.8"/></g></g></g></svg>