<svg xmlns="http://www.w3.org/2000/svg" viewBox="0 0 414.7 291.2"><style>.st0{fill:#519E38;} .st1{fill:#FFFFFF;} .st2{fill:#EFE43D;} .st3{fill:#FFF8C2;} .st4{fill:#FCAC2B;} .st5{fill:#E59725;} .st6{fill:#723322;} .st7{fill:#F4F4F4;} .st8{fill:#D6D6D6;} .st9{fill:#EAEAEA;} .st10{fill:#86D2E0;} .st11{fill:#F7E8DF;} .st12{fill:#FFF8F5;} .st13{fill:#FCE5B4;} .st14{fill:#3A1305;} .st15{fill:#EACC96;} .st16{fill:#D1AF79;}</style><g id="tvorog_1_"><circle class="st0" cx="264.8" cy="172.6" r="3.1"/><path class="st0" d="M261.7 187.1c0-3.1-1.9-5.8-4.6-6.9.2-.4.3-.8.3-1.2 0-1.7-1.4-3.1-3.1-3.1-1.7 0-3.1 1.4-3.1 3.1 0 .4.1.9.3 1.2-.7.3-1.3.7-1.9 1.1-2.7-3-6.7-4.9-11-4.9h-.1c-.1-1.5-.5-2.9-1-4.2 2.6-.3 4.7-2.5 4.7-5.2 0-2.9-2.4-5.3-5.3-5.3-2.6 0-4.7 1.9-5.2 4.3-1.4-.7-2.9-1.2-4.5-1.4 1-1 1.7-2.3 1.7-3.9 0-2.9-2.4-5.3-5.3-5.3-2.2 0-4.1 1.4-4.9 3.3-2.7-2.4-6.2-3.9-10.1-3.9-5.7 0-10.7 3.2-13.2 7.9-.4-1.2-1.6-2-2.9-2-1.7 0-3.1 1.4-3.1 3.1 0 .8.3 1.5.8 2-2.2 1.1-4 2.7-5.3 4.8-.5-3.5-3.5-6.1-7.1-6.1-4 0-7.2 3.2-7.2 7.2 0 1.4.4 2.7 1.1 3.8-.4-.1-.9-.1-1.4-.1-5 0-9.3 3.5-10.4 8.2-1-.6-2.2-.9-3.5-.9-4.1 0-7.5 3.4-7.5 7.5s3.4 7.5 7.5 7.5c1.2 0 2.3-.3 3.2-.7v.7c0 8.3 6.7 15 15 15 2.6 0 5.1-.7 7.2-1.9.3 1.4 1.5 2.5 3.1 2.5 1.7 0 3.1-1.4 3.1-3.1 0-.2 0-.4-.1-.6 1.4.4 2.9.6 4.5.6s3.2-.2 4.7-.6c2.4 5.1 7.6 8.7 13.6 8.7 8.3 0 15-6.7 15-15 0-.4 0-.8-.1-1.2.5-.4.9-.7 1.4-1.2 2.8 3.3 6.9 5.4 11.5 5.4s8.6-2 11.4-5.2c1 1.3 2.6 2.2 4.4 2.2 3.1 0 5.6-2.5 5.6-5.6 0-1.7-.7-3.1-1.9-4.2 2.1-1.1 3.7-3.6 3.7-6.4zm-83.6-8l-.1-.1h.3c-.1 0-.2.1-.2.1z"/><circle class="st1" cx="163.3" cy="180.2" r="10.7"/><circle class="st1" cx="170.8" cy="165.9" r="7.2"/><circle class="st1" cx="216.6" cy="154.9" r="5.3"/><circle class="st1" cx="229.9" cy="161.1" r="5.3"/><circle class="st1" cx="247.4" cy="173" r="3.1"/><circle class="st1" cx="258" cy="166.7" r="3.1"/><circle class="st1" cx="177.9" cy="204.4" r="3.1"/><circle class="st1" cx="247.4" cy="191.9" r="5.6"/><circle class="st1" cx="185.5" cy="158" r="3.1"/><circle class="st1" cx="149.4" cy="184.4" r="7.5"/><circle class="st1" cx="247.4" cy="181.2" r="7.5"/><circle class="st1" cx="188.8" cy="171.5" r="12.8"/><circle class="st1" cx="218.8" cy="171.5" r="12.8"/><circle class="st1" cx="201.6" cy="164" r="15"/><circle class="st1" cx="209.6" cy="184.4" r="15"/><circle class="st1" cx="203.8" cy="197.4" r="15"/><circle class="st1" cx="185.5" cy="185.5" r="18.8"/><circle class="st1" cx="167.6" cy="191.9" r="15"/><circle class="st1" cx="231.6" cy="185.5" r="15"/></g><g id="maslo"><path class="st2" d="M251.7 130.5c-.3 1.1-1.4 1.8-2.6 1.6l-14.8-3.7c-1.1-.3-1.8-1.4-1.6-2.6l4-15.9c.3-1.1 1.4-1.8 2.6-1.6l14.8 3.7c1.1.3 1.8 1.4 1.6 2.6l-4 15.9z"/><path class="st3" d="M239.7 115.2c-.2.6-.8 1-1.4.8-.6-.2-1-.8-.8-1.4l.7-3c.2-.6.8-1 1.4-.8.6.2 1 .8.8 1.4l-.7 3zM238.9 118.5c-.2.6-.8 1-1.4.8h-.1c-.6-.2-1-.8-.8-1.4.1-.6.8-1 1.4-.8h.1c.6.2 1 .8.8 1.4z"/></g><g id="klukva"><path class="st0" d="M163.936 67.137l46.716-2.773 3.597 60.59-46.717 2.774zM144.5 151c1.4 6.2-2.6 12.4-8.8 13.8l-46.5 10.3c-6.2 1.4-12.4-2.6-13.8-8.8l-14.2-64.1C59.9 96 63.8 89.8 70 88.4l46.5-10.3c6.2-1.4 12.4 2.6 13.8 8.8l14.2 64.1z"/><path class="st4" d="M140.9 148.7c1.4 6.2-2.6 12.4-8.8 13.8l-46.5 10.3c-6.2 1.4-12.4-2.6-13.8-8.8L57.6 99.9c-1.4-6.2 2.6-12.4 8.8-13.8l46.5-10.3c6.2-1.4 12.4 2.6 13.8 8.8l14.2 64.1z"/><path class="st5" d="M113 75.8l-22.5 5 19.2 86.7 22.5-5c6.2-1.4 10.2-7.6 8.8-13.8l-14.2-64.1c-1.3-6.3-7.5-10.2-13.8-8.8z"/><path class="st6" d="M84.2 137.3l1.9-.4 2.4 3.5.7-4.2 1.8-.4.1.7-.6.1.9 4.1.6-.1.1.7-2.1.5v-.8l.6-.1-.9-4.1-.9 5.2h-.2l-3-4.4.9 4.1.6-.1.1.7-2 .4-.1-.7.6-.1-.9-4.1-.6.1v-.6zM92.5 141.2l-.1-.7.6-.1.5-4.4-.7.2-.1-.7 2.7-.6.1.7-.7.1 2.3 3.8.6-.1.1.7-2 .5-.1-.7.7-.1-.7-1.2-1.8.4-.1 1.3.6-.1.1.7-2 .3zm1.5-3l1.4-.3-1.1-1.9-.3 2.2zM98.6 134.8l.3 1.5 2.4-.5-.3-1.5-.6.1-.1-.7 2.1-.5.1.7-.6.1.9 4.1.6-.1.1.7-2.1.5-.1-.7.6-.1-.4-1.9-2.4.5.4 1.9.6-.1.1.7-2.1.5-.1-.7.6-.1-.9-4.1-.6.1-.1-.7 2.1-.5.1.7-.6.1zM104.2 133.6l.3 1.5 2.4-.5-.3-1.5-.6.1-.1-.7 2.1-.5.1.7-.6.1.9 4.1.6-.1.1.7-2.1.5-.1-.7.6-.1-.4-1.9-2.4.5.4 1.9.6-.1.1.7-2.1.5-.1-.7.6-.1-.9-4.1-.6.1-.1-.7 2.1-.5.1.7-.6.1zM109.4 137.4l-.1-.7.6-.1.5-4.4-.7.2-.1-.7 2.7-.6.1.7-.7.1 2.3 3.8.6-.1.1.7-2 .5-.1-.7.7-.1-.7-1.2-1.8.4-.1 1.4.6-.1.1.7-2 .2zm1.4-3l1.4-.3-1.1-1.9-.3 2.2zM117.6 133.3l-1 .2-.6 2.5-1.1.2-.1-.7.6-.1.4-1.9c-.7-.1-1.2-.5-1.4-1.2-.1-.5 0-.9.2-1.3.3-.4.7-.6 1.3-.8l2.3-.5.1.7-.6.1.9 4.1.6-.1.1.7-2.1.5-.1-.7.6-.1-.1-1.6zm-.1-.7l-.4-1.9-.8.2c-.4.1-.7.2-.8.4-.2.2-.2.4-.1.7.1.3.2.5.4.7.2.1.5.2.9.1l.8-.2zM87.5 145.3l.4 1.9 1.4-2.3-.6.1-.1-.7 2-.5.1.7-.6.1-1.4 2.2 2.3 1.9.6-.1.1.7-2.1.5-.1-.7.5-.1-2.3-1.8.5 2.2.6-.1.1.7-2.1.5-.1-.7.6-.1-.9-4.1-.6.1-.1-.7 2.1-.5.1.7-.4.1zM93.2 146.8l.3 1.4.6-.1.1.7-2.1.5-.1-.7.6-.1-.9-4.1-.6.1-.1-.7 2.2-.5c.7-.2 1.3-.1 1.7 0 .4.2.7.6.8 1.2.1.6.1 1-.2 1.4-.3.3-.8.6-1.5.8l-.8.1zm-.6-2.6l.5 2 .7-.1c.5-.1.8-.3 1-.4.2-.2.2-.5.2-.9-.1-.4-.3-.6-.5-.7-.3-.1-.6-.1-1.1 0l-.8.1zM98.2 147.3c.2 0 .3-.1.4-.2.1-.1.2-.2.2-.4l.1-.2-2.3-3.3-.7.1-.1-.7 2.1-.5.1.9-.6.1 1.7 2.5.6-3-.7.2-.1-.7 2.1-.5.1.7-.7.1-.9 4c-.1.6-.3 1-.5 1.2-.2.2-.4.3-.7.4h-.5l-.2-.7H98.2zM105.3 141.3l-2.4.5.9 4.1.6-.1.1.7-2.1.5-.1-.7.6-.1-.9-4.1-.6.1-.1-.7 5.2-1.2.1.7-.6.1.9 4.1.6-.1.1.7-2.1.5-.1-.7.6-.1-.7-4.2zM108.1 145.7l-.1-.7.6-.1.5-4.4-.7.2-.1-.7 2.7-.6.1.7-.7.1 2.3 3.8.6-.1.1.7-2 .5-.1-.7.7-.1-.7-1.2-1.8.4-.1 1.4.6-.1.1.7-2 .2zm1.4-3l1.4-.3-1.1-1.9-.3 2.2z"/><g><path class="st6" d="M90.5 125.2c-3-1.9-5.1-4.9-5.9-8.4-1.6-7.2 3-14.4 10.2-16.1 3.5-.8 7.1-.1 10.1 1.8 3 1.9 5.1 4.9 5.9 8.4 1.6 7.2-3 14.4-10.2 16.1-3.5.8-7.1.2-10.1-1.8zm14.2-22.2c-2.9-1.9-6.4-2.5-9.7-1.7-7 1.5-11.4 8.5-9.8 15.4.7 3.4 2.8 6.2 5.7 8.1 2.9 1.9 6.4 2.5 9.7 1.7 7-1.5 11.4-8.5 9.8-15.4-.8-3.4-2.8-6.2-5.7-8.1z"/><path class="st6" d="M97.5 114s-1.8-4.8-6.8-3.7c0 0 .4 5.1 6.8 3.7zM96.8 111.5s2.8-4.3-1.1-7.6c.1 0-3.8 3.3 1.1 7.6z"/><path class="st6" d="M98.5 118.5s-1.8-4.8-6.8-3.7c0 0 .4 5.1 6.8 3.7z"/><path class="st6" d="M99.5 123.2s-1.8-4.8-6.8-3.7c0 0 .4 5.1 6.8 3.7zM97.5 113.9s-.4-5.1 4.6-6.2c0 0 1.8 4.8-4.6 6.2z"/><path class="st6" d="M98.5 118.5s-.4-5.1 4.6-6.2c0 0 1.8 4.8-4.6 6.2z"/><path class="st6" d="M99.5 123.2s-.4-5.1 4.6-6.2c0 0 1.8 4.7-4.6 6.2z"/><path class="st6" d="M96.567 111.052l.488-.108 3.494 15.717-.49.11z"/></g><g><path class="st0" d="M330 219.2s6.6-38.6 10.1-59.6c3.6-21-3.8-30.5-3.8-30.5 4.5-12.6-1-17.6-1-17.6l.8-4.7 1.3.2s.9-5 1.1-6.7c.3-1.7-2.1-1.9-2.1-1.9L328 97l-.8-.1-8.5-1.5s-2.3-.6-2.6 1.1c-.3 1.7-1.1 6.7-1.1 6.7l1.4.2-.8 4.7h-.1s-6.9 2.9-6.8 16.2c0 0-10.1 6.5-13.7 27.5-3.6 21-10.1 59.6-10.1 59.6s-3.1 12.7 6.4 14.3c2.5.4 4.7.8 6.5 1.1 4.8.8 7 1.2 7 1.2l.4.1.5.1 7 1.2c1.8.3 3.9.7 6.4 1.1 9.6 1.7 10.9-11.3 10.9-11.3z"/><path class="st7" d="M326 215.4s6.6-38.6 10.1-59.6c3.6-21-3.8-30.5-3.8-30.5 4.5-12.6-1-17.6-1-17.6l.8-4.8-19.8-3.4-.8 4.8h-.1s-6.9 2.9-6.8 16.2c0 0-10.1 6.5-13.7 27.5-3.6 21-10.1 59.6-10.1 59.6s-3.1 12.7 6.4 14.3c2.5.4 4.7.8 6.5 1.1 4.8.8 7 1.2 7 1.2l1 .2 7 1.2c1.8.3 3.9.7 6.5 1.1 9.5 1.7 10.8-11.3 10.8-11.3z"/><path class="st8" d="M332.5 94.7l-8.5-1.5-.8-.1-8.5-1.5s-2.3-.6-2.6 1.1c-.3 1.7-1.1 6.7-1.1 6.7l10.9 1.8.8.1 10.9 1.8s.9-5 1.1-6.7c.2-1.5-2.2-1.7-2.2-1.7z"/><path class="st9" d="M326 215.4s6.6-38.6 10.1-59.6c3.6-21-3.8-30.5-3.8-30.5 4.5-12.6-1-17.6-1-17.6l.8-4.8-9.9-1.7-21 123.1.5.1 7 1.2c1.8.3 3.9.7 6.5 1.1 9.5 1.7 10.8-11.3 10.8-11.3z"/><circle class="st10" cx="309.7" cy="175.7" r="17.2"/><path class="st1" d="M322.2 177.7c-1.3-.7-2.3.9-2.8 1.9v.1c-.4 1-.9 1.4-.9 1.4-.3-.2-.1-.6-.1-.9.1-.4.2-.9 0-1.4-.1-.4-.5-.5-.8-.6 0-.1.1-.1.1-.2s.1-.1.1-.2c.2-.3.5-.6.8-.8.1.1.3.3.3.4.3.4 1.5 0 1.3-.4-.4-.6-.9-.8-1.4-.8-.3 0-.7.1-1 .3-.1 0-.1.1-.2.1.1-.6.3-1.2.3-1.8 0-.3-.7-.3-1.1 0-.1 0-.1.1-.2.2-.2.4-1 .5-1.5-.2-.1-.2-.3-.3-.5-.3-1.4-.4-2.2 1.2-2.5 2.2-.2.7-.8 1.6-1.2 1.7-.1-.1-.1-.2-.1-.3-.1-.4-.1-.8-.1-1.1.1-1 .2-2.1.4-3.1 0-.2-.1-.3-.4-.3-.4 0-.7.2-.9.5-.6.8-1 1.8-1.3 2.8-.1.3-.2.5-.2.8 0 .1-.1.2-.1.3-.2 0-.4-.3-.3-.5.1-.4-.4-.3-.8 0 .3-.5.4-1 .5-1.6.2-.9.2-2.8-1.1-2.9-1.3-.1-2 1.5-2.2 2.6-.2 1-.4 1.9-.5 2-.6 0-.8-.7-.9-1.1-.2-.7-.2-1.5-.1-2.3.1-1.3.2-2.6.5-3.8 0-.2-.2-.3-.4-.2-.3.1-.6.3-.8.5-.6.8-.8 1.9-1.1 2.8v-.3c0-.8 0-1.6.1-2.4 0-.5.1-1.1.2-1.5.2-.6-.8-.2-1 .1-1.2 1.6-1.3 3.7-1.5 5.7l-.3 1.5c-.1.3-.3 1-.6 1.2-.2.2-.5 0-.7-.2-.2-.2-.3-.5-.3-.8 0-.3-.3-.2-.5-.1-.3.2-.5.5-.5.8 0 .7.5 1.4 1.3 1.3 1.2-.2 2-1.5 2.4-2.5.3-.6.4-1.2.5-1.9 0 1.2.1 2.4.1 3.6 0 .6 1.1-.3 1.1-.6.1-.8.3-1.7.5-2.5 0 1-.2 3.4 1.4 3.4.6 0 1-.4 1.3-.9.1.5.4.9 1 1 .5.1 1-.3 1.4-.7 0 .4.2.7.7.9.6.1 1.2-.1 1.6-.5.2-.2.3-.4.4-.6v.3c0 .3.1.8.3 1.1.3.3.8.2 1.1.1.4-.2.7-.5 1-.8 0 .7.2 1.4.8 1.6.6.2 1.3-.2 1.7-.6.5-.5.7-1.1.9-1.7.1-.4.3-1 .2-1.7.5.1.8 0 1.1-.2-.4 1.6-.9 3.2-1.4 4.8-.1.3.2.4.4.3.3 0 .6-.2.8-.4.2-.5.4-.9.7-1.4.5.8-.2 1.7.1 2.4.2.4.9.5 1.3.3.2-.1.3-.1.4-.2 0 .5.1 1 .6 1.3.5.3 1.3 0 1.7-.3.5-.4.9-.9 1.1-1.5.4-.8 1-2.6-.2-3.2zm-15.8-.4c0 .1-.1.2-.2.3-.2-.1-.4-.5-.4-.7-.1-.4-.1-.9-.1-1.4 0-.5.1-1 .3-1.4 0-.1.1-.2.2-.3.6.2.5 1.6.5 2l-.3 1.5zm7.3 1.5c-.1.1-.1.2-.2.3-.2-.1-.3-.5-.3-.7-.1-.5 0-.9.1-1.4.1-.5.3-.9.5-1.3.1-.1.1-.2.2-.3.5.6.3 1.4.2 2.1-.1.4-.2.9-.5 1.3zm7 3.1c-.1.1-.2.2-.2.3-.2-.2-.2-.6-.2-.8 0-.5.1-1 .3-1.4.2-.4.4-.9.7-1.3.1-.1.2-.2.2-.3.3.7.1 1.5-.1 2.2-.3.4-.5.9-.7 1.3zM299.6 142.4c-.1 0-.2 0-.3-.1-1.3-.4-2.1-1.8-1.7-3.2 2.6-8.4 7.6-12.9 7.9-13.1 1-.9 2.6-.8 3.6.2.9 1 .8 2.6-.2 3.6-.1.1-4.2 3.9-6.4 10.8-.5 1.3-1.7 2.1-2.9 1.8z"/></g><g><path class="st0" d="M89.6 187.3c-10.8-9.6-16.6-6.8-18-6-1.4.8-6.6 4.5-3.5 18.6 3.1 14.1 13.6 19.6 22.8 14.2 9.2-5.4 9.5-17.2-1.3-26.8z"/><path class="st11" d="M86.6 185.7c-10.8-9.6-16.6-6.8-18-6-1.4.8-6.6 4.5-3.5 18.6 3.1 14.1 13.6 19.6 22.8 14.2 9.2-5.4 9.6-17.2-1.3-26.8z"/><path class="st12" d="M72.1 198c.3 1.1-.3 2.2-1.4 2.5-1.1.3-2.2-.3-2.5-1.4l-1.5-5.3c-.3-1.1.3-2.2 1.4-2.5 1.1-.3 2.2.3 2.5 1.4l1.5 5.3z"/></g><path class="st13" d="M159.74 63.436l46.714-2.773 3.598 60.59-46.716 2.774z"/><g><path class="st6" d="M170.5 114.3c.7.2 1.1.6 1.2 1.3 0 .5-.1.9-.4 1.1s-.7.4-1.3.5l-2.2.1v-.6h.6l-.2-4h-.6v-.7l2.1-.1c1.1-.1 1.7.4 1.7 1.2-.2.6-.4 1-.9 1.2zm-1.7-1.7l.1 1.6h.6c.7 0 1-.3 1-.8 0-.3-.1-.4-.3-.6-.2-.1-.4-.2-.8-.2h-.6zm.1 2.2l.1 1.8h.7c.4 0 .6-.1.8-.3.2-.2.3-.4.3-.7 0-.3-.1-.5-.4-.6-.2-.1-.5-.2-1-.2h-.5zM172.1 117.1v-.6h.6l1.2-4.1h-.7v-.7l2.6-.2v.7h-.6l1.6 3.9h.6v.6l-2 .1v-.6h.6l-.5-1.2-1.8.1-.3 1.2h.6v.6l-1.9.2zm1.8-2.7l1.3-.1-.8-1.9-.5 2zM178.8 112l.1 1.5 2.3-.1-.1-1.5h-.6v-.7l2-.1v.7h-.6l.2 4h.6v.6l-2 .1v-.6h.6l-.1-1.9-2.3.1.1 1.9h.6v.6l-2 .1v-.6h.6l-.2-4h-.6v-.7l2-.1v.7h-.6zM184.2 111.7l.2 3.5 2-4.3 1.4-.1v.7h-.6l.2 4h.6v.6l-2 .1v-.6h.6l-.2-3.5-2 4.2-1.5.1v-.6h.6l-.2-4h-.6v-.7l2-.1v.7h-.5zM191.9 111.2l-1.9.1.1 1.9c.1 1 0 1.7-.2 2.2-.2.5-.5.7-1 .7h-.5v-.7h.4c.2 0 .4-.2.5-.5.1-.4.2-1 .1-1.8l-.1-1.8h-.6v-.7l4.6-.3v.7h-.6l.2 4h.6v.6l-2 .1v-.6h.6l-.2-3.9zM195 111.1l.2 3.5 2-4.3 1.4-.1v.7h-.6l.2 4h.6v.6l-2 .1v-.6h.6l-.2-3.5-2 4.2-1.5.1v-.6h.6l-.2-4h-.6v-.7l2-.1v.7h-.5zM200.4 110.7l.1 1.5 2.3-.1-.1-1.5h-.6v-.7l2-.1v.7h-.6l.2 4h.6v.6l-2 .1v-.6h.6l-.1-1.9-2.3.1.1 1.9h.6v.6l-2 .1v-.6h.6l-.2-4h-.6v-.7l2-.1v.7h-.6z"/></g><g><path class="st14" d="M170.8 105.4s-1.3.9-1 1.7c.3.7 1.4 0 1.7-.8.3-.8 3.1-3.5 3.6-3.9.5-.3 6.9-9.3 6.9-9.3s11.6-16.8 12-19.4c.4-2.6 2.1-5.5 2.1-5.5l-.7-.1s-2.6 5.4-5.4 9.8c-2.8 4.3-15.2 22.4-17.4 24.8-2.3 2.4-1.8 2.7-1.8 2.7z"/><path class="st14" d="M176.4 105.8s1.1.9-.5 1.4c-1.6.6-2.6-1.4-1.8-3.3.8-1.8 2.9-4 3.7-5.3.7-1.3.9-1.8 1.9-3.9 1-2 4.1-7.3 4.1-7.3l8.8-12.9s2.9-1.5 3.7-2.9c.8-1.4 1.7-3.4-.5-2.5-2.2.9 1.6-2.4 2.3-.2.7 2.2-2.8 5.2-4.8 7-2 1.8-6.3 9.9-6.3 9.9l-1.1 2.5s-4.7 6.3-5 7.5c-.3 1.2-3.7 7-5.6 8.6-1.9 1.7.6 1.8 1.1 1.4z"/><path class="st15" d="M182.3 86.2c-.4-.3-3.6-2.8-3.6-2.8s-2-6.4-.3-7.8c0 0 3-.7 5.9 4.2l.3 6.6-.6-.3s-1.7-6.9-4.4-9.1c0 0 5 7.8 3.9 9.4l-1.2-.2zM189.1 89s6.9-1.1 9.1-4.2c0 0-5-4.5-10.4-2l-1.8 3.3s4.5-2.3 10.4-1.5c0 0-7.5-.7-10.7 2.6l3.4 1.8zM173.8 96.4s-.3-5.6 3.6-8.1l5-.2.8.1s-4.5 1.3-7.6 5.6c0 0 4.6-4.3 7.8-5.4l.7 1.8s-.4 3.5-10.3 6.2z"/><path class="st15" d="M182.4 88.4s-8.8.6-11.1-2.1c0 0 4.3-6.9 12.6-.3l-1 .8s-5.4-1.7-8.5-1.1c0 0 6.6.1 8.2 1.6l-.2 1.1zM183.5 84.6s-2.7-5.5 6.4-9.3c0 0 .2 0-.3 3.8s-3.9 8.8-3.9 8.8l-.8-1.2-.2-1s-.6-5 3.8-8.2c0 0-3.8 1.8-4.2 8l-.8-.9z"/><path class="st15" d="M182.7 89.3s-2.8.8 1.8 5.1 4 3.7 4 3.7.8 2.8 1.3-1.1.5-8.9-3.3-10l-1.6 1.3s4.1 2.9 3.9 8.3c0 0-.9-6.7-4.1-7.5l-2 .2z"/><path d="M182.9 85.7s.1.8 0 1.1c-.1.3-1 1-1 1s1.7.5 1.5 1.9c0 0 1-.9 1.9-.2 0 0-.6-1.3 1.1-2.2 0 0-2.1-1.6-1.5-2.2 0 .1-1 1-2 .6zM184.8 90.7c.1.1.1.2 0 .3-.1.1-.2.1-.3 0-.1-.1-.1-.2 0-.3 0-.1.2-.1.3 0z"/><circle cx="185.2" cy="90.6" r=".2"/><circle cx="186.3" cy="88.8" r=".2"/><path class="st16" d="M174.3 85.7s4.3-3.4 8.5 0v1.1s-5.6-1.5-8.5-1.1zM184.9 84.7s0-4.8 3.7-6.9c0 0 .9 5.2-2.6 8.8 0 0-1.1-.3-1.1-1.9zM186.8 86.9s4-3 10.9-1.7c0 0-6.5 3.8-9.1 3.3.1 0-.3-1-1.8-1.6z"/><path class="st1" d="M184.2 88.3s.7 1 .4 2.5c0 0 .1-1.6-.5-2.3-.6-.7.1-.2.1-.2z"/><path class="st1" d="M184.4 88.2s.8.9.8 2.4c0 0-.1-1.6-.9-2.2-.8-.6.1-.2.1-.2zM184.4 87.7s1 0 1.9 1.1c0 0-1.1-1.1-1.8-.9-.8.1-.1-.2-.1-.2z"/></g><g><path class="st1" d="M246.4 84.9v.5h.8v.9h-2.7v-.9h.8v-.5h-.5c-.8 0-1.5-.2-1.9-.6-.4-.4-.7-.9-.7-1.6 0-.7.2-1.3.6-1.7.4-.4 1.1-.6 1.9-.6h.5V80h-.8v-.9h2.7v.9h-.8v.4h.5c.8 0 1.5.2 1.9.6.4.4.6.9.6 1.7 0 .7-.2 1.2-.7 1.6-.4.4-1.1.6-1.9.6h-.3zm-1-.8v-2.8h-.5c-.5 0-.8.1-1.1.4-.3.2-.4.6-.4 1.1 0 .5.1.8.4 1 .3.2.6.3 1.1.3h.5zm1-2.8v2.8h.5c.5 0 .9-.1 1.1-.3.3-.2.4-.6.4-1.1 0-.5-.1-.8-.4-1.1-.3-.2-.6-.4-1.1-.4h-.5zM251.5 82c.3-.2.5-.4.7-.5.3-.1.6-.2.9-.2.7 0 1.2.2 1.7.7.4.5.7 1.1.7 1.9 0 .8-.2 1.4-.7 1.9-.4.5-1 .7-1.7.7-.6 0-1.2-.3-1.7-.8v1.4h.7v.9h-2.3v-.9h.7v-5h-.7v-.8h1.6v.7zm1.5 3.5c.4 0 .8-.2 1.1-.5.3-.3.4-.7.4-1.2s-.1-1-.4-1.3c-.3-.3-.6-.5-1.1-.5-.5 0-.8.2-1.1.4-.3.3-.4.7-.4 1.3 0 .5.1 1 .4 1.3.2.4.6.5 1.1.5zM256.6 87.9v-.8h1.2l.4-1-1.6-4h-.6v-.8h2.1v.8h-.6l1.1 2.8 1.1-2.8h-.6v-.8h2v.8h-.6l-2.2 5.8h-1.7zM263.1 82.1v3.3h.7v.9h-2.3v-.9h.7v-3.3h-.7v-.8h2.3v.8h-.7zm1.9 0h-.6v-.8h2.2v.8h-.6l-1.8 1.5 1.7 1.8h.7v.9h-1.2l-2.4-2.6 2-1.6zM267.1 81.3h4.6v2.1h-.8v-1.3h-1v3.3h.7v.9h-2.3v-.9h.7v-3.3h-1v1.3h-.8v-2.1zM277.2 83.8c0 .8-.2 1.4-.7 1.9-.5.5-1.1.7-1.8.7s-1.4-.2-1.8-.7c-.5-.5-.7-1.1-.7-1.9 0-.8.2-1.4.7-1.9.5-.5 1.1-.7 1.8-.7s1.4.2 1.8.7c.5.4.7 1.1.7 1.9zm-2.5 1.7c.4 0 .8-.2 1.1-.5.3-.3.4-.7.4-1.2s-.1-1-.4-1.3c-.3-.3-.6-.5-1.1-.5-.5 0-.8.2-1.1.4-.3.3-.4.7-.4 1.3 0 .5.1 1 .4 1.3.3.3.7.5 1.1.5zM279.3 84.1v-.8h.4c.7 0 1-.2 1-.7 0-.2-.1-.4-.2-.5-.2-.1-.4-.2-.7-.2-.3 0-.5.1-.7.3-.2.2-.3.4-.4.7h-.7v-1.7h.8v.4c.1-.2.3-.3.5-.4.2-.1.5-.2.7-.2.4 0 .8.1 1.1.4.4.3.6.6.6 1 0 .3-.1.6-.3.8-.2.2-.4.3-.7.4.3.1.6.2.8.4.2.2.4.5.4.8 0 .5-.2.9-.6 1.2-.4.2-.8.4-1.4.4-.5 0-1-.1-1.3-.3-.4-.2-.6-.6-.8-1.1l.8-.4c.1.3.2.5.4.7.2.2.5.3.8.3.3 0 .6-.1.8-.2.2-.1.3-.3.3-.5 0-.3-.1-.4-.3-.6-.2-.1-.5-.2-.8-.2h-.5zM285.7 86.3v-.5c-.5.4-1 .6-1.6.6-.5 0-.9-.1-1.2-.4-.3-.3-.5-.7-.5-1.2s.2-.9.5-1.2c.3-.3.8-.5 1.3-.5.4 0 .8.1 1.4.4v-.3c0-.9-.4-1.3-1.1-1.3-.3 0-.5 0-.7.1-.2.1-.4.3-.5.5l-.9-.2c.3-.8 1.1-1.2 2.2-1.2.7 0 1.2.2 1.5.5.3.3.4.8.4 1.6v2.2h.7v.9h-1.5zm0-1.4v-.4c-.2-.1-.5-.2-.7-.3-.2-.1-.4-.1-.6-.1-.3 0-.5.1-.7.2-.2.1-.3.3-.3.5s.1.4.2.5c.1.1.3.2.6.2.5 0 .9-.2 1.5-.6z"/><circle class="st1" cx="254.5" cy="56.7" r="1.9"/><circle class="st1" cx="253.9" cy="65.8" r="1.9"/><circle class="st1" cx="258.3" cy="61.1" r="1.9"/><circle class="st1" cx="260.2" cy="67.6" r="1.9"/><circle class="st1" cx="263.6" cy="60.1" r="1.9"/><circle class="st1" cx="263.6" cy="52" r="1.9"/><circle class="st1" cx="258.3" cy="40.3" r="1.9"/><circle class="st1" cx="274.4" cy="65.8" r="1.9"/><circle class="st1" cx="274.4" cy="40.3" r="1.9"/><circle class="st1" cx="248" cy="53" r="1.9"/></g></g></svg>