<?xml version="1.0" encoding="utf-8"?>
<!-- Generator: Adobe Illustrator 19.0.0, SVG Export Plug-In . SVG Version: 6.00 Build 0)  -->
<svg version="1.1" id="Layer_1" xmlns="http://www.w3.org/2000/svg" xmlns:xlink="http://www.w3.org/1999/xlink" x="0px" y="0px"
	 viewBox="0 0 409 327" style="enable-background:new 0 0 409 327;" xml:space="preserve">
<style type="text/css">
	.st0{fill:#FFFFFF;}
</style>
<path id="XMLID_12_" class="st0" d="M324.8,48c0,0-0.5-15.2-14.8-21.3c-14.3-6.1-30.8,3.9-31.3,18.9c-0.5,15.1,17.6,26.6,30.5,19
	c0,0-11.6,2.2-14.2-10.9c-2.6-13.1,13.8-13.6,13.6-2.9C308.6,50.8,317.3,57.5,324.8,48z"/>
<g id="XMLID_41_">
	<path id="XMLID_11_" class="st0" d="M188.2,104.3c-15-6.3-28.4-1-30.7,0c0.3,2.9,0.6,6.1,0.8,9.4c1.8,0.2,15.9,2,28.1,4.3
		C187.4,114.1,187.9,109.1,188.2,104.3z"/>
	<path id="XMLID_10_" class="st0" d="M158.4,115.4c0.1,1.7,0.2,3.4,0.3,5.2c0.3,6.5,0.5,13.8,0.4,21.6c3.8,1.6,20.7,9.4,40.6,30.5
		c3.5-2.3,20.3-12.2,52.6-11.4c0.1-10.6-0.9-20.6-2.4-29.5c-23.3-1.4-38.6-5.4-50.6-9.2C188.6,119.3,162.2,115.9,158.4,115.4z"/>
	<path id="XMLID_9_" class="st0" d="M346.9,62.9c0,0-16.7-14.4-17.3-16.5c0,0-22.8-12.4-39.9,1c0,0-4.1-7.3-4.7-7.5
		c-0.6-0.2-12.2-1.8-2.8,16.7c0,0-0.1,0-0.2,0c3.8,6,16.7,23.1,42.5,27.1c1.2-0.6,3.1-1.4,4.9-1.4c3.1,0,10.4,1,10.4,1
		S354.3,77.7,346.9,62.9z"/>
	<path id="XMLID_8_" class="st0" d="M213,168.2c-6.5,2.2-10.6,4.6-12.2,5.6c5.3,5.7,10.8,12.4,16.4,20.2c13.5-1.9,26.1-4.9,33.1-8.1
		c1.3-8,1.9-15.7,2-23C234,162.4,220.8,165.5,213,168.2z"/>
	<path id="XMLID_7_" class="st0" d="M157,120.7c-0.9-16.8-2.9-30.4-3.6-34.7c-1-0.1-1.5-0.1-1.5-0.1s-45.2-8.9-54.9,20.7
		c-9.8,29.7-2.6,30.7,2,26.2c0,0-4.9,5.7-1.2,22.8c3.7,17.1,10.6,28.5,4.7,42.3c0,0-1.6,3.9,0.2,8.5c0,0-2,1.8-0.6,18.5
		c1.4,16.7,1,31.9-0.2,33.8c0,0,0.2,2.4,4.9,2.8c0,0,0.2,7.1,0.8,8.1c0.6,1,0.2,3.9,4.9,4.1c0,0,12.6-0.4,13.8-1.2
		c0,0-1-11.4-5.5-14.8c0,0-5.5-4.1-4.1-26.4c0,0,3.9,4.5,5.3,24c0,0,1.4,1.8,4.5,1.8l0.8,5.1c0,0,0.2,3.5,4.5,3.9
		c4.3,0.4,11.8,0,12-0.8c0,0-0.2-8.3-3.1-11c-2.8-2.6-5.7-9.4-6.3-11.2c-0.6-1.8-6.7-17.5-3.5-29.7c3.3-12.2,4.1-11,3.3-12.2
		c0,0,11-4.3,16.7-16.1c0,0,0.1,0.1,0.3,0.2C157.8,165.1,158,139.1,157,120.7z"/>
	<path id="XMLID_6_" class="st0" d="M280,56.3c-3,0.1-8.4,1.8-12,11.6l-5.9,11.8c0,0-0.6,1.5-3.6,3.3c0.6,3.8,2.5,11.2,8.3,19.5
		c7.7,10.8,24,25.3,58.2,33.5c0.4-2.4,2.1-13.1-1.5-14.6c0,0,1.2-11.6-0.4-36.5C295.9,80.3,283,61.4,280,56.3z"/>
	<path id="XMLID_5_" class="st0" d="M175.8,153.7c-8.1-5.8-14.2-8.7-16.8-9.8c-0.4,14.2-2.1,29.4-6.3,42.2
		c5.2,2.8,20.9,10.5,38.5,10.2c7.6-0.1,16-0.9,24.2-2C200.3,173.4,185.5,160.7,175.8,153.7z"/>
	<path id="XMLID_4_" class="st0" d="M188.2,102.5c0.3-6.3,0.1-12,0-14.4c-14.4-0.7-27.4-1.6-33.2-2c0.4,2.8,1.3,8.7,2.2,16.5
		C160.7,101.2,173.7,96.7,188.2,102.5z"/>
	<path id="XMLID_3_" class="st0" d="M188,118.3c4.5,0.9,8.7,1.8,11.7,2.8c11.8,3.7,26.9,7.7,49.8,9.1c-3.9-21.7-10.8-37-13-41.5
		c-0.3,0-0.6,0.1-0.9,0.1c-10.7,0.8-29,0.3-45.8-0.5C190.1,92.9,190.4,108.7,188,118.3z"/>
	<path id="XMLID_2_" class="st0" d="M265.5,103.3c-5.8-8.1-7.8-15.4-8.5-19.5c-3.5,1.8-9.3,3.6-18.7,4.6
		c4.4,9.2,21.5,49.3,13.5,98.2l-0.2,0c1.3,3.6,5.8,15.2,11.4,18.8c0,0,3.9,42.3,2.4,48.4c0,0,2.6,3.9,4.7,4.3c0,0-1.4,7.9,0,12.4
		c0,0,13,4.1,18.5-0.2c0,0,2.2-4.9-7.7-16.5c0,0-4.7-13.6-4.9-19.1c-0.2-5.5,0.8-15.9,2.6-17.1l1.8,27.1c0,0,3.5,3.3,4.3,3.3
		c0,0,0.4,9.6,1.6,10.8c0,0,10.4,2.6,14.6,0.2c0,0,1.2-7.3-5.9-13.8c0,0,0-3.3-2-6.1c-2-2.8-5.1-16.7-3.1-20.9
		c2-4.3,3.1-14.4,3.1-14.4s9.2-7.1,12.6-17.3c0,0,9.4-1,14.6-14.2c4.6-11.4,4.7-29.7,4.7-34.4C305.2,132.9,279.5,123.2,265.5,103.3z
		"/>
</g>
<path id="XMLID_1_" class="st0" d="M301.7,43c0,0-3.9-16.9-21.1-20.5c-17.3-3.7-33.6,11.1-30.8,28c2.8,16.9,25.4,25.8,38.1,14.5
	c0,0-12.4,5-18.2-9.1c-5.8-14.1,12.4-18.2,14.6-6.2C284.2,49.6,295.5,55.3,301.7,43z"/>
</svg>
