<svg xmlns="http://www.w3.org/2000/svg" viewBox="101 7 331.5 237"><style>.st0{fill:#EFEFEF;} .st1{fill:#DDDDDD;} .st2{fill:#FFFFFF;} .st3{fill:#FCFCFC;} .st4{fill:#6B2A12;} .st5{fill:#62BA47;} .st6{fill:#62BA46;} .st7{fill:url(#SVGID_1_);} .st8{fill:url(#SVGID_2_);} .st9{fill:url(#SVGID_3_);} .st10{fill:url(#SVGID_4_);} .st11{fill:url(#SVGID_5_);}</style><g id="snow"><g id="butylka_2"><path class="st0" d="M343.8 135.3H196.2l9.7 36c.9 3.6 6.3 6.3 12.9 6.3h102.4c7 0 12.7-3.1 13-7l9.6-35.3z"/><path class="st1" d="M321.2 135.3H270v42.3h51.2c7 0 12.7-3.1 13-7l9.5-35.2h-22.5v-.1z"/><path class="st2" d="M215.5 156.6c.6 2-.5 4.1-2.5 4.7-2 .6-4.1-.5-4.7-2.5l-3-9.6c-.6-2 .5-4.1 2.5-4.7 2-.6 4.1.5 4.7 2.5l3 9.6z"/><path class="st0" d="M343.7 130.2H195.2l12.9-23.2h121.8z"/><path class="st3" d="M329.9 107l13.8 23.2H195.2l12.9-23.2h121.8m0-6.6H208.1c-2.4 0-4.6 1.3-5.7 3.4L189.5 127c-1.1 2-1.1 4.5.1 6.5 1.2 2 3.3 3.2 5.6 3.2h148.5c2.4 0 4.5-1.3 5.7-3.3s1.1-4.6-.1-6.6l-13.8-23.2c-1.1-2-3.3-3.2-5.6-3.2z"/><g><ellipse class="st4" cx="270.6" cy="119.9" rx="18.2" ry="8.7"/><path class="st4" d="M261.9 109.3c0 .6-1 1.1-2.3 1.1-1.3 0-2.3-.5-2.3-1.1s1-1.1 2.3-1.1c1.3 0 2.3.5 2.3 1.1z"/><path class="st5" d="M262 113c0 .8-1.3 1.4-3 1.4-1.6 0-3-.6-3-1.4s1.3-1.4 3-1.4 3 .6 3 1.4zM254 110.8c0 .5-.8.8-1.8.8s-1.8-.4-1.8-.8c0-.5.8-.8 1.8-.8 1.1 0 1.8.4 1.8.8z"/><ellipse class="st5" cx="286.1" cy="112" rx="10" ry="4.8"/><path class="st2" d="M283.6 111.3c-.8 0-1.1.5-1.1.8v.1c0 .2 0 .3-.1.4 0 .1-.1.2-.1.2-.3 0-.5-.2-.6-.3-.2-.2-.3-.5-.4-.8-.1-.3-.2-.6-.2-.8v-.5c.1-.2-.5 0-.7.1-.7.6-.5 1.2-.4 1.8 0 .2 0 .3-.1.5 0 .1-.1.3-.3.4-.1.1-.3 0-.4 0-.2 0-.3-.1-.3-.2s-.2 0-.3 0c-.1.1-.3.2-.3.3.1.2.5.4 1 .3.7-.1 1.1-.5 1.2-.9.1-.2.1-.3.2-.5.1.2.3.5.5.7s.5.3.9.3c.3 0 .5-.2.7-.4.1.2.4.3.7.3.4 0 .8-.2.9-.4.2-.2.2-.4.2-.6 0-.2-.1-.8-1-.8zm.3 1.4s0 .1-.1.1c-.2 0-.3-.1-.3-.2-.1-.1-.2-.3-.2-.4v-.5s0-.1.1-.1c.4.1.5.4.5.6v.5zM293.6 111.9c-.9-.2-1.4.4-1.6.7-.2.3-.3.8.4 1 .4.1.8-.1 1-.2.3-.1.4-.3.6-.5.2-.3.4-.9-.4-1zm-.6 1.4l-.1.1c-.1 0-.2-.2-.2-.2v-.4c.1-.1.1-.3.3-.4l.1-.1c.3.2.3.5.2.7-.1 0-.1.1-.3.3zM291.1 112c.2-.1.3-.2.5-.3.3-.2.7-.5.6-.8 0-.3-.8-.3-1.2-.2-.6.1-.9.4-1.1.7-.2.4-.3.7-.4 1.1-.3.2-.9.5-1.3.3-.1 0-.2-.1-.2-.2.4-.2.7-.4 1-.6.3-.2.4-.5-.1-.7-.4-.1-1 0-1.3.2s-.4.4-.5.6c0 .1-.1.3 0 .5-.3.1-.6.1-.9.1s-.5-.2-.5-.3c-.1-.2-.1-.4 0-.6 0-.1.1-.1.1-.2.2 0 .3.2.3.3.1.1.9-.1.8-.2-.1-.1-.2-.3-.5-.4s-.7.1-.9.1c-.5.3-.6.6-.6 1 0 .2.1.5.5.6.5.2 1.3 0 1.8-.1.1.2.4.3.8.2.5 0 1-.2 1.4-.4 0 .2.1.4.4.5.5.1 1.1 0 1.4-.2.4-.2.6-.6.4-.9 0-.1-.2-.1-.5-.1zm-3-.2c0-.1.1-.1.1-.2.2 0 .3.2.2.2 0 .2-.3.3-.5.5v-.1c.1-.1.1-.3.2-.4zm2.9-.8l.2-.2c.3.2 0 .4-.2.6s-.4.3-.6.5c0-.2.1-.3.2-.5l.4-.4zm-.2 2s-.1 0 0 0c-.1.1-.1.1-.2.1-.2-.1-.2-.3-.3-.4v-.2c.1 0 .2-.1.3-.2.2-.1.3.1.4.2.1.1-.1.3-.2.5zM284 119.7h-.3c-1.7-.1-2.5.7-2.8 1.4-.3.5-.9.9-1 1s-.2 0-.2 0c-.1 0-.2-.1-.2-.2-.1-.2-.1-.5-.2-.7 0-.6.1-1.3.3-1.9 0-.1-.2-.2-.4-.2-.4 0-.8.1-1 .3-.6.5-1 1-1.2 1.5-.1.3-.2.6-.4.8h-.1c-.2-.1-.3-.2-.3-.2s0-.1-.1-.1h-.2c-.2 0-.5.1-.7.1-.1 0-.2.1-.2.1-.1 0-.1.1-.4.1-.3 0-.5-.1-.6-.3-.3-.2-.3-.6-.3-.8 0-.4.1-.7.4-1.1 0 0 0-.1.1-.1h.1c.3.1.4.3.5.5.1.3 1.6-.1 1.5-.4-.1-.2-.3-.5-.8-.7-.6-.2-1.2 0-1.7.1-1.1.4-1.4 1.1-1.4 1.7v.1c-.1.2-.3.5-.6.7-.1 0-.1.1-.4.1-.1 0-.2-.1-.2-.2-.2-.3-.3-.7-.3-1.1 0-.3 0-.5.1-.8v-.3c0-.4-.7-.6-1.6-.5-.9.1-1.5.4-1.9.7-.4.3-.6.7-.7 1.1-.1.3 0 1.1-.4 1.1-.6 0-.9-.4-1-.6-.3-.4-.5-.9-.5-1.3-.1-.8-.2-1.5 0-2.3 0-.1-.3-.1-.5-.1-.4.1-.7.2-.8.4-.5.5-.7 1.2-.8 1.8v-.2c-.1-.5-.3-1-.3-1.4 0-.3-.1-.7 0-.9.2-.4-1 0-1.2.1-1.3 1.1-.9 2.3-.9 3.5 0 .3 0 .6-.2.9-.1.2-.2.6-.5.7-.2.1-.6 0-.8-.1-.3-.1-.5-.3-.5-.4 0-.2-.4-.1-.6 0-.3.1-.6.3-.5.5.1.4.8.8 1.7.7 1.5-.2 2.1-1 2.4-1.6.2-.4.3-.8.3-1.2.2.7.5 1.4.7 2.1.1.4 1.2-.2 1.2-.4 0-.5.1-1 .2-1.5.2.6.8 1.9 2.3 1.9.5 0 1-.3 1.3-.5.1.2.4.3.7.4.6.1 1.4-.1 1.9-.3.1.1.2.2.4.3.9.3 1.8-.1 2.3-.4.1.1.2.3.4.4.6.3 1.4.2 2.1 0 .7.5 2.1.2 2.7-.2l.2-.2v.2c0 .2.1.5.4.6.3.2 1 .1 1.3 0 .3-.1.7-.3 1-.5 0 .4.3.8 1.1 1 .7.1 1.5-.2 1.9-.4.5-.3.8-.7 1-1 .2-.5.5-1.4-.8-1.8zm-15 1.5l-.1.1h-.2c-.3 0-.4-.3-.5-.4-.3-.4-.3-.9 0-1.4.1-.1.3-.4.4-.4H268.9c.4 0 .5.1.5.3-.1.6-.1 1.2-.4 1.8zm13.6.9l-.2.2c-.3-.1-.4-.3-.4-.4-.1-.3 0-.6 0-.8.1-.3.3-.6.5-.8l.2-.2c.6.2.4 1 .3 1.3 0 .2-.2.5-.4.7z"/><g><path class="st2" d="M266.3 125.2c-.1.4-.4.7-.7 1.1-.1.1.5 0 .6 0 .1-.2.3-.3.5-.5.1-.1.3-.3.6-.2.2 0 .3-.1.5-.1-.7-.3-1.4.2-1.7.4-.1.1.1.1.2.1.5 0 .2.3.3.4.1.2.7.1.9 0 .3-.1.1-.2-.2-.1-.2.1-.2-.1-.2-.2v-.2c-.1-.1-.4-.1-.7-.1.1 0 .1 0 .2.1.1-.1.3-.4.6-.3.2.1.6-.1.5-.1-.9-.5-1.9.6-2.2.8h.6c.3-.4.6-.7.6-1.1.1-.1-.4 0-.4 0zM268.9 126.5c0 .2.7.2 1 .1.2-.1.2-.2.3-.4.1-.2.1-.4.3-.6-.1 0-.3.1-.4.1 0 .3-.1.7.3 1 .3.2 1-.2 1.2-.2.2-.2-.2-.1-.3 0-.3.2-.4.1-.5-.1-.1-.2-.1-.5-.1-.7 0-.1-.4 0-.4.1-.1.1-.2.3-.3.4 0 .1-.1.2-.1.2s0 .1-.1.1c0 .1-.2 0-.2 0-.2-.2-.7 0-.7 0z"/><path class="st2" d="M272.3 125.7c-.1-.3-.8-.1-1 .1-.3.2-.3.5-.2.7s.6.3 1 .1c.5-.3.3-.6.2-.9-.1 0-.3.1-.4.1 0 .2 0 1.2 1 .8.2-.1.2-.3-.1-.1-.1 0-.3-.2-.3-.2-.1-.3-.1-.4-.2-.6 0-.1-.4.1-.4.1v.5c0 .1 0 .2-.1.2s-.2-.1-.2-.1c-.1-.1-.1-.2-.1-.4 0-.1 0-.1.1-.2 0 0 0-.1.1-.1.1-.1.3 0 .3.1-.1.1.4 0 .3-.1zM274.3 125.5c.2.3.5.6.7.9.1.1.5-.1.4-.2-.1-.2-.1-.3.1-.5s.2-.4.1-.6-.3.1-.3.1c0 .3.2.5.5.8.1.1.2.2.3.2.3 0 .5-.2.6-.3.2-.2-.1-.2-.3 0-.1.1-.5-.2-.5-.3-.2-.2-.3-.3-.3-.5-.1 0-.2.1-.3.1.1.2 0 .4-.2.5-.2.2-.2.4-.1.6.1-.1.3-.1.4-.2-.2-.3-.5-.6-.7-.9-.2 0-.5.2-.4.3z"/><path class="st2" d="M276.4 124.8c-.5.2-.4.5-.2.7.1.2.5.6 1.1.5.6-.1.5-.5.3-.7-.2-.2-.7-.6-1.2-.5-.1 0-.2.3-.1.3.3-.1.5.1.7.2.1.1.2.2.3.2 0 0 0 .1.1.1v.1c-.2.1-.6-.1-.7-.2l-.2-.2-.1-.1s0-.1 0 0c.1-.2.2-.4 0-.4zM268.7 125.5c-.6 0-.9.3-1 .5-.1.2-.3.6.3.7.7.1 1-.3 1.1-.5s.2-.6-.4-.7c-.1 0-.5.2-.4.2.3 0 .3.2.3.3 0 .1 0 .2-.1.3 0 0 0 .1-.1.1 0 0-.2.1-.1.1-.3 0-.4-.3-.3-.3 0-.1.1-.2.1-.3l.1-.1s.1 0 0 0c.4-.1.8-.3.5-.3zM265.7 125.1c-.5-.1-1 .1-1.2.3-.2.1-.6.6 0 .7.6.2 1.1-.1 1.3-.3.1-.1.4-.6-.1-.7-.1 0-.6.1-.4.1.3.1.2.3.1.4 0 .1-.1.2-.2.3l-.1.1s-.2.1-.1.1c-.3 0-.2-.3-.2-.4.1-.1.1-.2.2-.2s.1-.1.2-.1h.1c.1-.1.6-.2.4-.3zM273.4 125.4c-.6.1-.6.4-.6.6s.2.6.8.6c.7 0 .8-.4.7-.6-.1-.2-.3-.6-.9-.6-.2 0-.4.2-.2.2.3 0 .5.2.6.3.1.1.1.2.1.3v.1s-.1.1 0 .1c-.3.1-.6-.2-.6-.3-.1-.1-.1-.2-.1-.3v-.1s.1-.1 0 0c.2-.1.4-.3.2-.3z"/><path class="st2" d="M273.6 125.6c.2.4.4.8.7 1.2 0 .1.3.5-.2.5-.8 0 .2-.7.3-.8.2-.2-.2-.1-.4 0-.4.3-.9.6-.6 1 .1.1.7.1.9 0 .6-.2.6-.5.5-.7-.2-.4-.6-.9-.8-1.3-.1-.2-.5 0-.4.1zM264 124.9c-.3.2-.5.4-.9.5-.1 0-.1 0-.2.1-.2.1-.1 0 0 0-.1 0 0-.1 0-.1.1-.3.5-.5.8-.7h-.5c-.1.1.4.1.5 0 .1-.1-.4-.1-.5 0-.3.2-.5.3-.7.5-.1.1-.4.3-.2.4.3.1.7.1 1 0 .5-.2.9-.4 1.2-.7.2-.1-.4-.1-.5 0z"/><path class="st2" d="M264 125.8c-.3 0 0-.4 0-.4.2-.2.4-.3.5-.5.1-.1-.4-.1-.5 0-.3.2-.7.5-.8.8-.1.2.5.3.9.3.4-.1.3-.3-.1-.2zM263.3 124.6c-.2.1-.4.3-.6.4-.1.1-.2.1-.3.2-.1 0-.1.1-.2.1.1 0 0 0 0-.1-.1-.1.2-.3.3-.4l.6-.3c.2-.1-.3-.1-.5-.1-.3.1-1.8.7-.9.9 1.1.3 1.7-.4 2.1-.7h-.5zM278.4 125.3c.1-.2.2-.9-.5-.9-.5 0-.5.4-.5.5.1.2.4.5.8.6.5.1 1-.2 1.2-.4 0-.1.1-.1 0-.2-.1 0-.2.1-.3.1-.3.5-1 .1-1.2-.1l-.2-.2v-.1c.5-.1.3.5.3.7s.4.1.4 0z"/></g><g><path class="st6" d="M248.5 116.2c-.1 0-.2-.1-.3-.1-.4-.1-.7 0-1 0-.9 0-1.2 0-2.2-.1 0-.4.5-.7.7-1s-.1-.6-.1-1v-.6c-.3.1-.2.5-.2.7-.1-.3-.1-.6-.3-.8-.1.2 0 .6 0 .8-.1-.2-.2-.5-.4-.7-.2.2.1.6.1.8-.2-.2-.3-.5-.5-.6-.1.3.2.5.2.7-.2-.2-.3-.4-.5-.5 0 .2.2.4.4.6-.2-.1-.3-.2-.6-.3 0 .1.2.2.3.3-.2 0-.3-.1-.5-.2 0 .1.2.2.3.3-.1 0-.2-.1-.4-.1 0 .1.3.2.2.2h-.2s.2.1.1.1h-.2c0 .1.1 0 .1.1h-.1c0 .1.1 0 .1.1-.7.4-.3.8-.4 1.2 0-.1-.6-.1-1.1-.2-.3-.1-.3-.2-.5-.3h.1c-.1 0-.2 0-.2-.1h.3c-.1 0-.5-.1-.4-.1.2 0 .4.1.5 0-.2 0-.6-.1-.6-.2.2 0 .5.1.7.1-.3-.1-.7-.2-.8-.3.2.1.5.2.7.2-.4-.1-.7-.3-1-.3.2.2.7.3.8.4-.3-.1-.6-.1-.9-.2.1.2.5.2.8.3-.3 0-.4-.1-.7-.1.1.1.5.1.7.2h-.5c0 .1.3.1.5.1h-.4c.1 0 .3 0 .4.1h-.2.3c-.1 0-.1 0-.1.1h.2-.1c.4.1.6.4 1.2.5-.3.1.3.2-3.2.8.1 0 1.5-.2 2-.2.4-.1.9-.1 1.3-.2h.3c.7 0 1.4 0 2.1-.2-.5 0-1.5.1-1.8-.1.5-.4.1-1.2.5-1.4.4-.2 1-.8 1.7-.3.1.1.1.2-.1.4-.3.3-.5.4-.5.9 0 .1 0 .2-.4.2 1.5.2 2 .1 2.9 0 .3 0 .7-.1.9 0-.1.1-.4.1-.6.1-.4 0 .2.1.4.1.1 0 .9 0 1.3-.1-.6 0-.8 0-1.1-.1z"/><path class="st6" d="M244 112.5c-3.5 0-6.3 1.3-6.3 3s2.8 3 6.3 3 6.3-1.3 6.3-3c0-1.6-2.8-3-6.3-3m0 .2c3.3 0 6.1 1.3 6.1 2.9s-2.7 2.9-6.1 2.9c-3.3 0-6.1-1.3-6.1-2.9.1-1.6 2.8-2.9 6.1-2.9"/></g></g><g><linearGradient id="SVGID_1_" gradientUnits="userSpaceOnUse" x1="351.144" y1="215.324" x2="368.92" y2="164.959" gradientTransform="matrix(1 0 0 -1 0 252)"><stop offset="0" stop-color="#404B71"/><stop offset=".604" stop-color="#3C476E"/><stop offset="1" stop-color="#354169"/></linearGradient><path class="st7" d="M355.4 82.1l-1.9-7.1 1.7-3 .2.9c.3.9 1.2 1.5 2.2 1.2.2 0 .3-.1.4-.2.7-.4 1-1.2.8-2l-1.1-4.3 2.1-3.7 2.1 3.7-1.2 4.3c-.3.9.3 1.9 1.2 2.2.5.1.9 0 1.3-.2s.7-.6.8-1.1l.2-.9 1.7 3L364 82c-.3.9.3 1.9 1.2 2.2.5.1.9 0 1.3-.2s.7-.6.8-1.1l1-3.7 2.8 4.8c.5.8 1.6 1.1 2.4.6s1.1-1.6.6-2.4l-2.8-4.8 3.7 1c.5.1.9 0 1.3-.2s.7-.6.8-1.1c.3-.9-.3-1.9-1.2-2.2l-7.1-1.9-1.7-3 .9.2c.5.1.9.1 1.3-.2.4-.2.7-.6.8-1.1.3-.9-.3-1.9-1.2-2.2l-4.3-1.1-2.1-3.7h4.2l3.1 3.1c.6.6 1.5.7 2.1.3.1-.1.3-.2.4-.3.7-.7.7-1.8 0-2.5l-.6-.6h3.5l5.2 5.2c.6.6 1.5.7 2.1.3.1-.1.3-.2.4-.3.7-.7.7-1.8 0-2.5l-2.7-2.7h5.6c.3 0 .6-.1.9-.2.5-.3.9-.9.9-1.5 0-1-.8-1.8-1.8-1.8h-5.6l2.7-2.7c.7-.7.7-1.8 0-2.5s-1.8-.7-2.5 0l-5.2 5.2h-3.5l.6-.6c.7-.7.7-1.8 0-2.5s-1.8-.7-2.5 0l-3.1 3.1h-4.2L365 55l4.3-1.1c.2 0 .3-.1.4-.2.7-.4 1-1.2.8-2-.3-.9-1.2-1.5-2.2-1.2l-.9.2 1.7-3 7.1-1.9c.2 0 .3-.1.4-.2.7-.4 1-1.2.8-2-.3-.9-1.2-1.5-2.2-1.2l-3.7 1 2.8-4.8c.5-.8.2-1.9-.6-2.4s-1.9-.2-2.4.6l-2.8 4.8-1-3.7c-.3-.9-1.2-1.5-2.2-1.2-.9.3-1.5 1.2-1.2 2.2L366 46l-1.7 3-.2-.9c-.3-.9-1.2-1.5-2.2-1.2-.9.3-1.5 1.2-1.2 2.2l1.1 4.3-2.1 3.7-2.1-3.7 1.1-4.3c.3-.9-.3-1.9-1.2-2.2-.9-.3-1.9.3-2.2 1.2l-.2.9-1.7-3 1.9-7.1c.3-.9-.3-1.9-1.2-2.2-.9-.3-1.9.3-2.2 1.2l-1 3.7-2.8-4.8c-.5-.8-1.6-1.1-2.4-.6-.8.5-1.1 1.6-.6 2.4l2.8 4.8-3.7-1c-.9-.3-1.9.3-2.2 1.2-.3.9.3 1.9 1.2 2.2l7.1 1.9 1.7 3-.9-.2c-.9-.3-1.9.3-2.2 1.2s.3 1.9 1.2 2.2l4.3 1.1 2.1 3.7h-4.2l-3.1-3.1c-.7-.7-1.8-.7-2.5 0s-.7 1.8 0 2.5l.6.6h-3.5l-5.2-5.2c-.7-.7-1.8-.7-2.5 0s-.7 1.8 0 2.5l2.7 2.7h-5.6c-1 0-1.8.8-1.8 1.8s.8 1.8 1.8 1.8h5.6l-2.7 2.7c-.7.7-.7 1.8 0 2.5.6.6 1.5.7 2.1.3.1-.1.3-.2.4-.3l5.2-5.2h3.5l-.6.6c-.7.7-.7 1.8 0 2.5.6.6 1.5.7 2.1.3.1-.1.3-.2.4-.3l3.1-3.1h4.2l-2.1 3.7-4.3 1.1c-.9.3-1.5 1.2-1.2 2.2.3.9 1.2 1.5 2.2 1.2l.9-.2-1.7 3-7.1 1.9c-.9.3-1.5 1.2-1.2 2.2.3.9 1.2 1.5 2.2 1.2l3.7-1-2.8 4.8c-.5.8-.2 1.9.6 2.4.6.3 1.2.3 1.8 0 .3-.1.5-.4.6-.6l2.8-4.8 1 3.7c.3.9 1.2 1.5 2.2 1.2.2 0 .3-.1.4-.2.7-.4 1.1-1.2.9-2z"/><linearGradient id="SVGID_2_" gradientUnits="userSpaceOnUse" x1="219.11" y1="144.314" x2="224.484" y2="129.086" gradientTransform="matrix(1 0 0 -1 0 252)"><stop offset="0" stop-color="#404B71"/><stop offset=".604" stop-color="#3C476E"/><stop offset="1" stop-color="#354169"/></linearGradient><path class="st8" d="M220.7 121.3l-.6-2.1.5-.9.1.3c.1.3.4.5.7.4 0 0 .1 0 .1-.1.2-.1.3-.4.2-.6l-.3-1.3.6-1.1.6 1.1-.3 1.3c-.1.3.1.6.4.7.1 0 .3 0 .4-.1.1-.1.2-.2.2-.3l.1-.3.5.9-.6 2.1c-.1.3.1.6.4.7.1 0 .3 0 .4-.1.1-.1.2-.2.2-.3l.3-1.1.8 1.5c.1.3.5.3.7.2.3-.1.3-.5.2-.7l-.8-1.5 1.1.3c.1 0 .3 0 .4-.1.1-.1.2-.2.2-.3.1-.3-.1-.6-.4-.7l-2.1-.6-.5-.9.3.1c.1 0 .3 0 .4-.1s.2-.2.2-.3c.1-.3-.1-.6-.4-.7l-1.3-.3-.6-1.1h1.3l.9.9c.2.2.4.2.6.1l.1-.1c.2-.2.2-.5 0-.8l-.2-.2h1.1l1.6 1.6c.2.2.4.2.6.1 0 0 .1 0 .1-.1.2-.2.2-.5 0-.8l-.8-.8h1.7c.1 0 .2 0 .3-.1.2-.1.3-.3.3-.5 0-.3-.2-.5-.5-.5h-1.7l.8-.8c.2-.2.2-.5 0-.8-.2-.2-.5-.2-.8 0l-1.6 1.6h-1.1l.2-.2c.2-.2.2-.5 0-.8-.2-.2-.5-.2-.8 0l-.9.9h-1l.6-1.1 1.3-.3s.1 0 .1-.1c.2-.1.3-.4.2-.6-.1-.3-.4-.5-.7-.4l-.3.1.5-.9 2.1-.6s.1 0 .1-.1c.2-.1.3-.4.2-.6-.1-.3-.4-.5-.7-.4l-1.1.3.8-1.5c.1-.3.1-.6-.2-.7-.3-.1-.6-.1-.7.2l-.8 1.5-.3-1.1c-.1-.3-.4-.5-.7-.4-.3.1-.5.4-.4.7l.6 2.1-.5.9-.1-.3c-.1-.3-.4-.5-.7-.4s-.5.4-.4.7l.3 1.3-.6 1.1-.6-1.1.3-1.3c.1-.3-.1-.6-.4-.7s-.6.1-.7.4l-.1.3-.5-.9.6-2.1c.1-.3-.1-.6-.4-.7-.3-.1-.6.1-.7.4l-.3 1.1-.8-1.5c-.1-.3-.5-.3-.7-.2-.3.1-.3.5-.2.7l.8 1.5-1.1-.3c-.3-.1-.6.1-.7.4s.1.6.4.7l2.1.6.5.9-.3-.1c-.3-.1-.6.1-.7.4s.1.6.4.7l1.3.3.6 1.1h-1.3l-.9-.9c-.2-.2-.5-.2-.8 0-.2.2-.2.5 0 .8l.2.2h-1.1l-1.6-1.6c-.2-.2-.5-.2-.8 0-.2.2-.2.5 0 .8l.8.8h-1.7c-.3 0-.5.2-.5.5s.2.5.5.5h1.7l-.8.8c-.2.2-.2.5 0 .8.2.2.4.2.6.1 0 0 .1 0 .1-.1l1.6-1.6h1.1l-.2.2c-.2.2-.2.5 0 .8.2.2.4.2.6.1l.1-.1.9-.9h1.3l-.6 1.1-1.3.3c-.3.1-.5.4-.4.7.1.3.4.5.7.4l.3-.1-.5.9-2.1.6c-.3.1-.5.4-.4.7.1.3.4.5.7.4l1.1-.3-.8 1.5c-.1.3-.1.6.2.7.2.1.4.1.5 0 .1 0 .1-.1.2-.2l.8-1.5.3 1.1c.1.3.4.5.7.4 0 0 .1 0 .1-.1 1 0 1.1-.3 1-.5z"/><linearGradient id="SVGID_3_" gradientUnits="userSpaceOnUse" x1="147.469" y1="117.185" x2="159.054" y2="84.359" gradientTransform="matrix(1 0 0 -1 0 252)"><stop offset="0" stop-color="#404B71"/><stop offset=".604" stop-color="#3C476E"/><stop offset="1" stop-color="#354169"/></linearGradient><path class="st9" d="M150 164.5l-1.2-4.6 1.1-2 .2.6c.2.6.8 1 1.4.8.1 0 .2-.1.3-.1.4-.3.7-.8.5-1.3l-.7-2.8 1.4-2.4 1.4 2.4-.8 2.8c-.2.6.2 1.2.8 1.4.3.1.6 0 .9-.1s.5-.4.5-.7l.2-.6 1.1 2-1.2 4.6c-.2.6.2 1.2.8 1.4.3.1.6 0 .9-.1.3-.1.5-.4.5-.7l.6-2.4 1.8 3.2c.3.5 1 .7 1.6.4.5-.3.7-1 .4-1.6l-1.8-3.2 2.4.6c.3.1.6 0 .9-.1s.5-.4.5-.7c.2-.6-.2-1.2-.8-1.4l-4.6-1.2-1.1-2 .6.2c.3.1.6 0 .9-.1.3-.1.5-.4.5-.7.2-.6-.2-1.2-.8-1.4l-2.8-.7-1.4-2.4h2.8l2 2c.4.4.9.4 1.4.2.1-.1.2-.1.2-.2.4-.4.4-1.2 0-1.6l-.4-.4h2.3l3.4 3.4c.4.4.9.4 1.4.2.1-.1.2-.1.2-.2.4-.4.4-1.2 0-1.6l-1.8-1.8h3.6c.2 0 .4-.1.6-.2.3-.2.6-.6.6-1 0-.6-.5-1.2-1.2-1.2h-3.6l1.8-1.8c.4-.4.4-1.2 0-1.6-.5-.5-1.2-.4-1.6 0l-3.4 3.4H161l.4-.4c.4-.4.4-1.2 0-1.6-.5-.4-1.2-.4-1.6 0l-2 2H155l1.4-2.4 2.8-.7c.1 0 .2-.1.3-.1.4-.3.7-.8.5-1.3-.2-.6-.8-1-1.4-.8l-.6.2 1.1-2 4.6-1.2c.1 0 .2-.1.3-.1.4-.3.7-.8.5-1.3-.2-.6-.8-1-1.4-.8l-2.4.6 1.8-3.2c.3-.6.1-1.3-.4-1.6-.5-.3-1.3-.1-1.6.4l-1.8 3.2-.6-2.4c-.2-.6-.8-1-1.4-.8-.6.2-1 .8-.8 1.4l1.2 4.6-1.1 2-.2-.6c-.2-.6-.8-1-1.4-.8-.6.2-1 .8-.8 1.4l.7 2.8-1.4 2.4-1.4-2.4.7-2.8c.2-.6-.2-1.2-.8-1.4-.6-.2-1.2.2-1.4.8l-.2.6-1.1-2 1.2-4.6c.2-.6-.2-1.2-.8-1.4-.6-.2-1.2.2-1.4.8l-.6 2.4-1.8-3.2c-.3-.5-1-.7-1.6-.4-.6.3-.7 1-.4 1.6l1.8 3.2-2.4-.6c-.6-.2-1.2.2-1.4.8s.2 1.2.8 1.4l4.6 1.2 1.1 2-.6-.2c-.6-.2-1.2.2-1.4.8-.2.6.2 1.2.8 1.4l2.8.7 1.4 2.4H148l-2-2c-.4-.5-1.2-.4-1.6 0-.4.5-.4 1.2 0 1.6l.4.4h-2.3l-3.4-3.4c-.4-.4-1.2-.4-1.6 0s-.4 1.2 0 1.6l1.8 1.8h-3.6c-.6 0-1.1.5-1.1 1.1s.5 1.1 1.1 1.1h3.6l-1.8 1.8c-.4.5-.4 1.2 0 1.6.4.4.9.4 1.4.2.1 0 .2-.1.2-.2l3.4-3.4h2.3l-.4.4c-.4.4-.4 1.2 0 1.6.4.4.9.4 1.4.2.1 0 .2-.1.2-.2l2-2h2.8l-1.4 2.4-2.8.7c-.6.2-1 .8-.8 1.4.2.6.8 1 1.4.8l.6-.2-1.1 2-4.6 1.2c-.6.2-1 .8-.8 1.4.2.6.8 1 1.4.8l2.4-.6-1.8 3.2c-.3.6-.1 1.3.4 1.6.4.2.8.2 1.2 0 .2-.1.3-.2.4-.4l1.8-3.2.6 2.4c.2.6.8 1 1.4.8.1 0 .2-.1.3-.1.5 0 .7-.6.6-1.1z"/><linearGradient id="SVGID_4_" gradientUnits="userSpaceOnUse" x1="277.61" y1="114.532" x2="309.963" y2="38.812" gradientTransform="matrix(1 0 0 -1 0 252)"><stop offset="0" stop-color="#404B71"/><stop offset=".604" stop-color="#3C476E"/><stop offset="1" stop-color="#354169"/></linearGradient><path class="st10" d="M330.3 171.4h-7l3.4-3.4c.9-.9.9-2.3 0-3.1-.9-.9-2.3-.9-3.1 0l-6.5 6.5h-4.4l1.9-1.9c.9-.9.9-2.3 0-3.1-.9-.9-2.3-.9-3.1 0l-5.1 5.1h-4.3l.1-.1c.8-.8.9-2.2.1-3-.3-1.1-1.5-1.8-2.7-1.5l-.2.1 2.1-3.7 6.9-1.9c.2 0 .4-.1.5-.2.8-.5 1.3-1.5 1-2.5-.3-1.2-1.5-1.9-2.7-1.6l-2.6.7 2.2-3.8 8.9-2.4c.2-.1.4-.1.5-.2.8-.5 1.3-1.5 1-2.5-.3-1.2-1.5-1.9-2.7-1.6l-4.6 1.2 3.5-6.1c.6-1.1.2-2.4-.8-3-1.1-.6-2.4-.2-3 .8l-3.5 6.1-1.2-4.6c-.3-1.2-1.5-1.9-2.7-1.6-1.2.3-1.9 1.5-1.6 2.7l2.4 8.9-2.2 3.8-.7-2.6c-.3-1.2-1.5-1.9-2.7-1.6-1.2.3-1.9 1.5-1.6 2.7l1.9 6.9-2.1 3.7v-.2c-.3-1.2-1.5-1.8-2.6-1.6-1.1-.2-2.3.4-2.6 1.6v.2l-2.1-3.7 1.9-6.9c.3-1.2-.4-2.4-1.6-2.7-1.2-.3-2.4.4-2.7 1.6l-.7 2.6-2.2-3.8 2.4-8.9c.3-1.2-.4-2.4-1.6-2.7s-2.4.4-2.7 1.6l-1.2 4.6-3.5-6.1c-.6-1.1-2-1.4-3-.8-1.1.6-1.4 2-.8 3l3.5 6.1-4.6-1.2c-1.2-.3-2.4.4-2.7 1.6-.3 1.2.4 2.4 1.6 2.7l8.9 2.4 2.2 3.8-2.6-.7c-1.2-.3-2.4.4-2.7 1.6-.3 1.2.4 2.4 1.6 2.7l6.9 1.9 2.1 3.7h-.2c-1.1-.3-2.3.3-2.6 1.4-.9.9-.8 2.3 0 3.1l.1.1h-4.3l-5.1-5.1c-.9-.9-2.3-.9-3.1 0-.9.9-.9 2.3 0 3.1l1.9 1.9h-4.4l-6.5-6.5c-.9-.9-2.3-.9-3.1 0-.9.9-.9 2.3 0 3.1l3.4 3.4h-7c-1.2 0-2.2 1-2.2 2.2s1 2.2 2.2 2.2h7l-3.4 3.4c-.9.9-.9 2.3 0 3.1.7.7 1.8.8 2.7.4.2-.1.3-.2.5-.4l6.5-6.5h4.4l-1.9 1.9c-.9.9-.9 2.3 0 3.1.7.7 1.8.8 2.7.4.2-.1.3-.2.5-.4l5.1-5.1h4.3l-.1.1c-.8.8-.9 2.2-.1 3 .3 1.1 1.5 1.8 2.7 1.5h.2l-2.1 3.7-6.9 1.9c-1.2.3-1.9 1.5-1.6 2.7s1.5 1.9 2.7 1.6l2.6-.7-2.2 3.8-8.9 2.4c-1.2.3-1.9 1.5-1.6 2.7.3 1.2 1.5 1.9 2.7 1.6l4.6-1.2-3.5 6.1c-.6 1.1-.2 2.4.8 3 .7.4 1.6.4 2.2 0 .3-.2.6-.5.8-.8l3.5-6.1 1.2 4.6c.3 1.2 1.5 1.9 2.7 1.6.2-.1.4-.1.5-.2.8-.5 1.3-1.5 1-2.5l-2.4-8.9 2.2-3.8.7 2.6c.3 1.2 1.5 1.9 2.7 1.6.2 0 .4-.1.5-.2.8-.5 1.3-1.5 1-2.5l-1.9-6.9 2.1-3.7v.2c.3 1.2 1.5 1.8 2.6 1.6.6.1 1.1 0 1.6-.2.5-.3.9-.8 1-1.3v-.2l2.1 3.7-1.9 6.9c-.3 1.2.4 2.4 1.6 2.7.6.2 1.2.1 1.7-.2s.9-.8 1-1.3l.7-2.6 2.2 3.8-2.4 8.9c-.3 1.2.4 2.4 1.6 2.7.6.2 1.2.1 1.7-.2s.9-.8 1-1.3l1.2-4.6 3.5 6.1c.6 1.1 2 1.4 3 .8 1.1-.6 1.4-2 .8-3l-3.5-6.1 4.6 1.2c.6.2 1.2.1 1.7-.2s.9-.8 1-1.3c.3-1.2-.4-2.4-1.6-2.7l-8.9-2.4-2.2-3.8 2.6.7c.6.2 1.2.1 1.7-.2s.9-.8 1-1.3c.3-1.2-.4-2.4-1.6-2.7l-6.9-1.9-2.1-3.7h.2c.6.2 1.2.1 1.7-.2.4-.3.8-.7 1-1.2.9-.9.8-2.3 0-3.1l-.1-.1h4.3l5.1 5.1c.7.7 1.8.8 2.7.4.2-.1.3-.2.5-.4.9-.9.9-2.3 0-3.1l-1.9-1.9h4.4l6.5 6.5c.7.7 1.8.8 2.7.4.2-.1.3-.2.5-.4.9-.9.9-2.3 0-3.1l-3.4-3.4h7c.4 0 .8-.1 1.1-.3.7-.4 1.1-1.1 1.1-1.9-.1-1.8-1.1-2.8-2.3-2.8zm-35.9 4.7c-1.4.8-3.1.3-3.9-1-.8-1.4-.3-3.1 1-3.9 1.4-.8 3.1-.3 3.9 1 .8 1.4.3 3.1-1 3.9z"/><linearGradient id="SVGID_5_" gradientUnits="userSpaceOnUse" x1="232.643" y1="208.403" x2="246.01" y2="177.113" gradientTransform="matrix(1 0 0 -1 0 252)"><stop offset="0" stop-color="#404B71"/><stop offset=".604" stop-color="#3C476E"/><stop offset="1" stop-color="#354169"/></linearGradient><path class="st11" d="M256.4 59.7h-1.1l.4-.6c.3-.4.2-.9-.2-1.1-.4-.3-.9-.2-1.1.2l-1 1.5h-1.6l2.2-3.2c.3-.4.2-.9-.2-1.1-.4-.3-.9-.2-1.1.2l-2.8 4.1h-1.5l1.3-1.9c.3-.4.2-.9-.2-1.1-.4-.3-.9-.2-1.1.2l-1.9 2.8h-1l.4-.6c.3-.4.2-.9-.2-1.1-.4-.3-.9-.2-1.1.2l-1 1.5h-.4L242 58l.2-.3 1.8-.2c.4 0 .8-.4.7-.9 0-.4-.4-.8-.9-.7l-.7.1.5-.9 3.4-.3c.4 0 .8-.4.7-.9 0-.4-.4-.8-.9-.7l-2.3.2.7-1.3 5-.4c.4 0 .8-.4.7-.9 0-.4-.4-.8-.9-.7l-3.8.3.8-1.4 1.8-.2c.4 0 .8-.4.7-.9 0-.4-.4-.8-.9-.7l-.7.1.6-1c.2-.4.1-.9-.3-1.1-.4-.2-.9-.1-1.1.3l-.6 1-.3-.6c-.2-.4-.7-.6-1.1-.4-.4.2-.6.7-.4 1.1l.8 1.7-.8 1.4-1.6-3.5c-.2-.4-.7-.6-1.1-.4-.4.2-.6.7-.4 1.1l2.1 4.5-.7 1.3-1-2.1c-.2-.4-.7-.6-1.1-.4-.4.2-.6.7-.4 1.1l1.4 3.1-.5.9-.3-.6c-.2-.4-.7-.6-1.1-.4-.4.2-.6.7-.4 1.1l.8 1.7-.2.3h-1.9l-.2-.3.8-1.7c.2-.4 0-.9-.4-1.1-.4-.2-.9 0-1.1.4l-.3.6-.5-.9 1.4-3.1c.2-.4 0-.9-.4-1.1-.4-.2-.9 0-1.1.4l-1 2.1-.7-1.3 2.1-4.5c.2-.4 0-.9-.4-1.1-.4-.2-.9 0-1.1.4l-1.6 3.5-.8-1.4.8-1.7c.2-.4 0-.9-.4-1.1-.4-.2-.9 0-1.1.4l-.3.6-.6-1c-.2-.4-.7-.5-1.1-.3-.4.2-.5.7-.3 1.1l.6 1-.7-.1c-.4 0-.8.3-.9.7 0 .4.3.8.7.9l1.8.2.8 1.4-3.8-.3c-.4 0-.8.3-.9.7 0 .4.3.8.7.9l5 .4.7 1.3-2.3-.2c-.4 0-.8.3-.9.7 0 .4.3.8.7.9l3.4.3.5.9-.7-.1c-.4 0-.8.3-.9.7 0 .4.3.8.7.9l1.8.2.2.3-.9 1.6h.4l-1-1.5c-.3-.4-.8-.5-1.1-.2-.4.3-.5.8-.2 1.1l.4.6h-1l-1.9-2.8c-.3-.4-.8-.5-1.1-.2-.4.3-.5.8-.2 1.1l1.3 1.9h-1.5l-2.8-4.1c-.3-.4-.8-.5-1.1-.2-.4.3-.5.8-.2 1.1l2.2 3.2H226l-1-1.5c-.3-.4-.8-.5-1.1-.2-.4.3-.5.8-.2 1.1l.4.6H223c-.4 0-.8.4-.8.8s.4.8.8.8h1.1l-.4.6c-.3.4-.2.9.2 1.1.1.1.3.1.5.1.3 0 .5-.1.7-.3l1-1.5h1.6l-2.2 3.2c-.3.4-.2.9.2 1.1.1.1.3.1.5.1.3 0 .5-.1.7-.3l2.8-4.1h1.5l-1.3 1.9c-.3.4-.2.9.2 1.1.1.1.3.1.5.1.3 0 .5-.1.7-.3l1.9-2.8h1l-.4.6c-.3.4-.2.9.2 1.1.1.1.3.1.5.1.3 0 .5-.1.7-.3l1-1.5h.4l.9 1.6-.2.3-1.8.2c-.4 0-.8.4-.7.9 0 .4.4.7.8.7h.1l.7-.1-.5.9-3.4.3c-.4 0-.8.4-.7.9 0 .4.4.7.8.7h.1l2.3-.2-.7 1.3-5 .4c-.4 0-.8.4-.7.9 0 .4.4.7.8.7h.1l3.8-.3-.8 1.4-1.8.2c-.4 0-.8.4-.7.9 0 .4.4.7.8.7h.1l.7-.1-.6 1c-.2.4-.1.9.3 1.1.1.1.3.1.4.1.3 0 .6-.1.7-.4l.6-1 .3.6c.1.3.4.5.7.5.1 0 .2 0 .3-.1.4-.2.6-.7.4-1.1l-.8-1.7.8-1.4 1.6 3.5c.1.3.4.5.7.5.1 0 .2 0 .3-.1.4-.2.6-.7.4-1.1l-2.1-4.5.7-1.3 1 2.1c.1.3.4.5.7.5.1 0 .2 0 .3-.1.4-.2.6-.7.4-1.1l-1.4-3.1.5-.9.3.6c.1.3.4.5.7.5.1 0 .2 0 .3-.1.4-.2.6-.7.4-1.1l-.8-1.7.2-.3h1.9l.2.3-.8 1.7c-.2.4 0 .9.4 1.1.1.1.2.1.3.1.3 0 .6-.2.7-.5l.3-.6.5.9-1.4 3.1c-.2.4 0 .9.4 1.1.1.1.2.1.3.1.3 0 .6-.2.7-.5l1-2.1.7 1.3-2.1 4.5c-.2.4 0 .9.4 1.1.1.1.2.1.3.1.3 0 .6-.2.7-.5l1.6-3.5.8 1.4-.8 1.7c-.2.4 0 .9.4 1.1.1.1.2.1.3.1.3 0 .6-.2.7-.5l.3-.6.6 1c.2.3.4.4.7.4.1 0 .3 0 .4-.1.4-.2.5-.7.3-1.1l-.6-1 .7.1h.1c.4 0 .8-.3.8-.7 0-.4-.3-.8-.7-.9l-1.8-.2-.8-1.4 3.8.3h.1c.4 0 .8-.3.8-.7s-.3-.8-.7-.9l-5-.4-.7-1.3 2.3.2h.1c.4 0 .8-.3.8-.7 0-.4-.3-.8-.7-.9l-3.4-.3-.5-.9.7.1h.1c.4 0 .8-.3.8-.7 0-.4-.3-.8-.7-.9l-1.8-.2-.2-.3.9-1.6h.4l1 1.5c.2.2.4.3.7.3.2 0 .3 0 .5-.1.4-.3.5-.8.2-1.1l-.4-.6h1l1.9 2.8c.2.2.4.3.7.3.2 0 .3 0 .5-.1.4-.3.5-.8.2-1.1l-1.3-1.9h1.5l2.8 4.1c.2.2.4.3.7.3.2 0 .3 0 .5-.1.4-.3.5-.8.2-1.1l-2.2-3.2h1.6l1 1.5c.2.2.4.3.7.3.2 0 .3 0 .5-.1.4-.3.5-.8.2-1.1l-.4-.6h1.1c.4 0 .8-.4.8-.8-.3-.4-.7-.7-1.1-.7zm-17.7 2.4l-.9-1.6.9-1.6h1.9l.9 1.6-.9 1.6h-1.9z"/><circle class="st2" cx="270.5" cy="39.7" r="3.8"/><circle class="st2" cx="130.7" cy="111.1" r="3.8"/><circle class="st2" cx="136.2" cy="125.7" r="1.7"/><circle class="st2" cx="123.1" cy="134.4" r="1.7"/><circle class="st2" cx="257.2" cy="35.9" r="1.7"/><circle class="st2" cx="287.8" cy="75.8" r="4.2"/><circle class="st2" cx="320" cy="213.3" r="4.2"/><circle class="st2" cx="311.1" cy="86.7" r="3.1"/><circle class="st2" cx="305.1" cy="96.2" r="1.7"/><circle class="st2" cx="276" cy="85.1" r="1.7"/><circle class="st2" cx="364.4" cy="111.1" r="1.7"/><circle class="st2" cx="330" cy="86.7" r="1.7"/><circle class="st2" cx="323.4" cy="99.5" r="1.7"/><circle class="st2" cx="321.7" cy="86.6" r="1.7"/><circle class="st2" cx="330" cy="75.8" r="1.7"/><circle class="st2" cx="374.7" cy="88.4" r="1.7"/><circle class="st2" cx="379.7" cy="81.7" r="1.7"/><circle class="st2" cx="326.7" cy="203.9" r="1.7"/><circle class="st2" cx="339.3" cy="202.2" r="1.7"/><circle class="st2" cx="331.7" cy="211.7" r="1.7"/><circle class="st2" cx="296.2" cy="74.1" r="1.7"/><circle class="st2" cx="303.4" cy="81.7" r="1.7"/></g></g></g></svg>