<svg xmlns="http://www.w3.org/2000/svg" viewBox="0 0 331.5 231"><style>.st0{fill:#D6D6D6;} .st1{fill:#E2E2E2;} .st2{fill:#303030;} .st3{fill:#969696;} .st4{fill:#62BA47;} .st5{fill:#FFFFFF;}</style><g id="masloboika"><path class="st0" d="M250.7 108.6c0 14.3-11.6 26-26 26H109.2c-14.4 0-26-11.6-26-26V55.4c0-14.3 11.6-26 26-26h115.5c14.4 0 26 11.6 26 26v53.2z"/><path class="st1" d="M66.6 32.9h8.1v163.2h-8.1zM258.7 32.9h10.4v163.2h-10.4z"/><path class="st2" d="M74.7 79.8h8.6v6.4h-8.6zM250.2 79.8h8.6v6.4h-8.6z"/><path class="st3" d="M136.2 21.5h59.9v7.9h-59.9z"/><path class="st1" d="M115.9 47.6c0 2.8-2.3 5.1-5.1 5.1H103c-2.8 0-5.1-2.3-5.1-5.1s2.3-5.1 5.1-5.1h7.8c2.9 0 5.1 2.2 5.1 5.1z"/><path class="st4" d="M192.4 82c0 14.3-11.6 25.9-25.9 25.9-14.3 0-25.9-11.6-25.9-25.9 0-14.3 11.6-25.9 25.9-25.9 14.3 0 25.9 11.6 25.9 25.9z"/><path class="st5" d="M160.1 78.4c-2.1.2-2.7 2.8-2.8 4.6v.8c0 .8 0 1.5-.1 2.3 0 .3-.1 1-.2 1-.8.1-1.4-1.1-1.6-1.6-.5-1.3-.9-2.7-1.1-4.1-.3-1.5-.4-3.1-.5-4.6 0-.6-.1-1.3 0-1.9v-.8-.4c.2-1.1-1.4-.1-1.7.5-1.7 3-1.2 6.6-1.1 9.9 0 .9 0 1.8-.2 2.7-.1.6-.2 1.7-.7 2.2-.3.3-.9.1-1.2-.1-.4-.2-.7-.7-.7-1.2-.1-.5-.6-.2-.9.1-.4.4-.8 1-.7 1.5.2 1.2 1.3 2.2 2.5 1.8 1.9-.6 2.8-2.9 3.2-4.7.2-.9.3-1.8.4-2.6.3 1.3.7 2.5 1.2 3.7.4.9 1.2 1.8 2.3 1.5.8-.2 1.4-1 1.8-2 .4.9 1 1.5 1.9 1.4 1.1-.1 2-1.3 2.4-2.1.5-1 .6-2.2.6-3.3-.2-1.7-.6-4.9-2.8-4.6zm.6 7.4c0 .2-.1.4-.2.6-.4-.1-.7-.7-.9-1-.3-.7-.5-1.5-.6-2.3-.1-.8-.1-1.6.1-2.4 0-.2.1-.4.2-.6 1.1.7 1.3 2 1.4 3.2.2.9.2 1.7 0 2.5zM185.8 81.4c-2.3-.9-3.6 2.3-4.1 4-.4 1.6-.9 4.5 1.1 5.3 1 .4 2.1-.3 2.7-1 .7-.8 1.1-1.8 1.4-2.9.6-1.6 1-4.6-1.1-5.4zm-1.4 7.4c-.1.2-.2.4-.3.5-.4-.2-.5-1-.5-1.3-.1-.8 0-1.6.1-2.4.2-.8.4-1.6.7-2.3.1-.2.2-.4.3-.5.9 1 .6 2.5.4 3.7-.1.8-.3 1.6-.7 2.3zM179.5 81.8l1.2-1.8c.9-1.3 1.7-2.8 1.6-4.4-.1-1.5-2.1-1.6-3.1-1.1-1.5.7-2.3 2.3-2.8 3.8-.6 2-.9 4-1 6.1-.7.9-2.2 2.7-3.4 1.9-.3-.2-.4-.6-.6-.9 1-1 1.8-2 2.6-3.2.7-1 1.1-2.8-.1-3.6-1.1-.6-2.6.1-3.3 1-.7.9-1.1 2.1-1.2 3.3-.1.6-.1 1.7 0 2.7-.7.4-1.5.7-2.3.5-.9-.2-1.2-1.1-1.4-1.8-.2-1.1-.2-2.2 0-3.3.1-.3.1-.7.3-1 0-.1.1-.2.1-.2.6.2.8 1.1.9 1.5.2.8 2.2-.5 2-1.2-.2-.8-.5-1.5-1.4-1.9-.8-.4-1.9.3-2.4.8-1.4 1.4-1.6 3.5-1.5 5.3.1 1.2.3 2.7 1.4 3.3 1.4.9 3.3.1 4.7-.7.4.9 1 1.5 2.1 1.3 1.4-.2 2.6-1 3.7-1.9.1 1 .3 2.2 1 2.7 1.2.7 2.7-.1 3.5-1.1 1.1-1.3 1.6-3.2 1-4.9-.2-.9-.9-1.2-1.6-1.2zm-7.8-.9c.1-.3.2-.6.4-.8.6.1.6.9.6 1.3-.1.9-.7 1.7-1.3 2.5v-.4c-.1-.9 0-1.8.3-2.6zm7.5-4.3c.2-.3.3-.6.6-.9.9 1 .1 2.4-.4 3.3-.5.9-1 1.8-1.7 2.7.1-.9.3-1.8.5-2.6.3-.8.6-1.6 1-2.5zm-.5 10.7c0 .1-.2.3-.2.4h-.2c-.6-.3-.6-1.5-.7-2 0-.4-.1-.9-.1-1.3.2-.3.5-.6.7-.8.5-.3.9.3 1 .8.3.8-.1 2-.5 2.9z"/></g></svg>