<svg xmlns="http://www.w3.org/2000/svg" viewBox="87 14 304 224"><style>.st0{fill:#EFEFEF;} .st1{fill:#DDDDDD;} .st2{fill:#FFFFFF;} .st3{fill:#FCFCFC;} .st4{fill:#F48020;} .st5{fill:#62BA47;} .st6{fill:#62BA46;} .st7{fill:url(#SVGID_1_);} .st8{fill:url(#SVGID_2_);} .st9{fill:url(#SVGID_3_);} .st10{fill:url(#SVGID_4_);} .st11{fill:url(#SVGID_5_);}</style><g id="Layer_1"><g id="butylka_2"><path class="st0" d="M315 124.5H167.5l9.7 36c.9 3.6 6.3 6.3 12.9 6.3h102.4c7 0 12.7-3.1 13-7l9.5-35.3z"/><path class="st1" d="M292.5 124.5h-51.2v42.3h51.2c7 0 12.7-3.1 13-7l9.5-35.2h-22.5v-.1z"/><path class="st2" d="M186.7 145.7c.6 2-.5 4.1-2.5 4.7-2 .6-4.1-.5-4.7-2.5l-3-9.6c-.6-2 .5-4.1 2.5-4.7 2-.6 4.1.5 4.7 2.5l3 9.6z"/><path class="st0" d="M314.9 119.4H166.4l12.9-23.3h121.9z"/><path class="st3" d="M301.2 96.1l13.8 23.2H166.4l12.9-23.2h121.9m0-6.5H179.3c-2.4 0-4.6 1.3-5.7 3.4l-12.9 23.2c-1.1 2-1.1 4.5.1 6.5s3.3 3.2 5.6 3.2h148.5c2.4 0 4.5-1.3 5.7-3.3 1.2-2 1.1-4.6-.1-6.6l-13.8-23.2c-1.1-2-3.2-3.2-5.5-3.2z"/><g><ellipse class="st4" cx="241.7" cy="109.3" rx="17.5" ry="8.4"/><path class="st4" d="M233.3 99c0 .6-1 1.1-2.2 1.1s-2.2-.5-2.2-1.1 1-1.1 2.2-1.1 2.2.5 2.2 1.1z"/><path class="st5" d="M233.4 102.6c0 .8-1.3 1.4-2.9 1.4s-2.9-.6-2.9-1.4 1.3-1.4 2.9-1.4 2.9.6 2.9 1.4zM225.7 100.5c0 .5-.8.8-1.7.8-1 0-1.7-.4-1.7-.8 0-.5.8-.8 1.7-.8 1-.1 1.7.3 1.7.8z"/><ellipse class="st5" cx="256.6" cy="101.6" rx="9.7" ry="4.6"/><path class="st2" d="M254.2 100.9c-.8 0-1 .5-1 .8v.1c0 .1 0 .3-.1.4 0 .1-.1.2-.1.2-.3 0-.5-.2-.6-.3-.2-.2-.3-.5-.4-.7-.1-.3-.2-.5-.2-.8v-.5c.1-.2-.5 0-.6.1-.6.5-.4 1.2-.4 1.8 0 .2 0 .3-.1.5 0 .1-.1.3-.3.4-.1.1-.3 0-.4 0-.2 0-.3-.1-.3-.2s-.2 0-.3 0c-.1.1-.3.2-.3.3.1.2.5.4.9.3.7-.1 1-.5 1.2-.8.1-.2.1-.3.1-.5.1.2.2.5.5.7.2.2.4.3.9.3.3 0 .5-.2.7-.4.1.2.4.3.7.3.4 0 .7-.2.9-.4.2-.2.2-.4.2-.6 0-.4-.1-1-1-1zm.3 1.4s0 .1-.1.1c-.2 0-.3-.1-.3-.2-.1-.1-.2-.3-.2-.4v-.4s0-.1.1-.1c.4.1.5.4.5.6 0 .1.1.2 0 .4zM263.9 101.5c-.9-.2-1.4.4-1.5.7-.1.3-.3.8.4 1 .4.1.8-.1 1-.2.3-.1.4-.3.5-.5.2-.3.3-.9-.4-1zm-.6 1.3c-.2.1-.3-.1-.3-.1v-.4c.1-.1.1-.3.3-.4l.1-.1c.3.2.2.4.2.7-.1 0-.1.2-.3.3zM261.5 101.5c.2-.1.3-.2.5-.3.3-.2.6-.5.6-.8s-.8-.3-1.2-.2c-.5.1-.9.4-1 .7-.2.4-.3.7-.4 1.1-.3.2-.8.5-1.3.3-.1 0-.2-.1-.2-.2.4-.2.7-.4 1-.6.3-.2.4-.5-.1-.6-.4-.1-1 0-1.2.2-.3.2-.4.4-.5.6 0 .1-.1.3 0 .5-.3.1-.6.1-.9.1-.3 0-.5-.2-.5-.3-.1-.2-.1-.4 0-.6 0-.1.1-.1.1-.2.2 0 .3.2.3.3.1.1.8-.1.7-.2s-.2-.3-.5-.3c-.3-.1-.7.1-.9.1-.5.2-.6.6-.5 1 0 .2.1.5.5.6.5.2 1.2 0 1.7-.1.1.2.4.3.8.2.5 0 1-.2 1.4-.3 0 .2.1.4.4.5.5.1 1 0 1.3-.2.4-.2.6-.6.4-.9 0-.3-.2-.4-.5-.4zm-2.9-.1c0-.1.1-.1.1-.2.2 0 .2.2.2.2 0 .2-.3.3-.5.4v-.1s.1-.2.2-.3zm2.8-.8l.2-.2c.3.2 0 .4-.2.6s-.4.3-.6.5c0-.2.1-.3.2-.5l.4-.4zm-.2 1.9s-.1.1 0 0c-.1.1-.1.1-.2.1-.2-.1-.2-.3-.2-.4v-.2c.1 0 .2-.1.3-.1.2-.1.3.1.4.2 0 .1-.2.3-.3.4zM254.6 109.1h-.2c-1.7-.1-2.4.7-2.7 1.4-.3.4-.9.8-1 .9s-.2 0-.2 0c-.1 0-.1-.1-.2-.2-.1-.2-.1-.5-.1-.7 0-.6.1-1.2.3-1.8 0-.1-.2-.2-.4-.2-.4 0-.8.1-1 .3-.6.4-.9 1-1.2 1.5-.1.3-.2.5-.4.8h-.1c-.2-.1-.2-.2-.3-.2 0 0 0-.1-.1-.1h-.2c-.2 0-.5.1-.7.1-.1 0-.2.1-.2.1-.1 0-.1.1-.4.1-.3 0-.5-.1-.6-.2-.3-.2-.3-.6-.3-.8 0-.4.1-.7.4-1.1 0 0 0-.1.1-.1h.1c.3.1.4.3.5.5.1.3 1.5-.1 1.4-.4-.1-.2-.3-.5-.8-.7s-1.2 0-1.6.1c-1.1.4-1.4 1-1.4 1.6v.1c-.1.2-.3.5-.5.7 0 0-.1.1-.3.1-.1 0-.2-.1-.2-.2-.2-.3-.3-.7-.3-1.1 0-.3 0-.5.1-.7v-.3c0-.4-.7-.6-1.5-.5s-1.4.4-1.8.7c-.4.3-.6.7-.6 1.1-.1.3 0 1-.4 1-.5 0-.9-.4-1-.6-.3-.4-.4-.9-.5-1.3-.1-.7-.2-1.5 0-2.2 0-.1-.3-.1-.5-.1-.3.1-.7.2-.8.3-.5.5-.7 1.1-.8 1.7v-.2c-.1-.5-.2-.9-.3-1.4 0-.3-.1-.7 0-.9.2-.4-1 0-1.2.1-1.2 1-.9 2.3-.9 3.4 0 .3 0 .6-.2.9-.1.2-.2.6-.5.7-.2.1-.6 0-.8 0-.3-.1-.4-.2-.5-.4 0-.2-.4-.1-.6 0-.3.1-.5.3-.5.5.1.4.8.8 1.7.7 1.4-.2 2-1 2.4-1.6.2-.4.3-.7.3-1.1.2.7.5 1.4.7 2.1.1.4 1.2-.2 1.2-.4 0-.5.1-1 .2-1.5.2.6.7 1.9 2.3 1.9.5 0 .9-.2 1.2-.5.1.2.3.3.7.4.6.1 1.4-.1 1.8-.3.1.1.2.2.4.3.8.3 1.8-.1 2.2-.4.1.1.2.2.4.3.6.3 1.4.2 2.1 0 .6.4 2 .2 2.6-.2l.2-.2v.2c0 .2.1.5.4.6.3.2.9.1 1.2 0s.7-.3 1-.5c0 .4.2.8 1 1 .7.1 1.5-.1 1.9-.4.5-.3.8-.6 1-1 0-.5.3-1.3-1-1.7zm-14.4 1.4l-.1.1h-.2c-.3 0-.4-.2-.5-.4-.3-.4-.3-.9 0-1.3.1-.1.3-.4.4-.4H240.1c.3 0 .5.1.5.2-.1.7-.1 1.3-.4 1.8zm13.1.9l-.2.2c-.3-.1-.3-.3-.4-.4-.1-.3 0-.6 0-.8.1-.3.2-.5.5-.8l.2-.2c.6.2.4 1 .3 1.2 0 .3-.2.6-.4.8z"/><g><path class="st2" d="M239.9 115.7c0 .2.7.2 1.1.1.2-.1.3-.2.3-.4.1-.2.1-.4.3-.6-.2 0-.3.1-.5.1v.6c0 .1.1.3.3.4.4.1 1.2-.3 1.3-.4.3-.1-.2-.1-.4 0s-.4.3-.6.1c-.2-.2-.2-.5-.2-.8 0-.1-.4 0-.5.1s-.2.2-.3.4c0 .1-.1.2-.1.2s0 .1-.1.1c-.1.1-.2 0-.2 0 .2-.1-.4 0-.4.1zM234.5 113.9c-.3.3-.7.5-1.1.8-.1.1.5.1.6.1.3-.2.5-.4.9-.5 0 0 .1 0 .1-.1h0v.1c-.1.3-.5.5-.8.7h.6c.2-.2.5-.4.9-.6.1 0 .1-.1.2-.1-.2.1-.1 0-.2.1 0 .1-.1.2-.2.3-.1.1-.4.3-.3.5.1.1.6.1.8.1.4 0 .2-.2-.2-.1-.1 0 0-.1 0-.2.1-.1.2-.2.3-.4.1-.1.3-.3 0-.4s-.7.1-.9.1c-.5.2-.8.4-1.1.6-.1.1.5.1.6 0 .2-.2.4-.3.6-.5.1-.1.4-.3.1-.4-.2-.1-.7 0-.9-.1-.5.3-1 .5-1.3.7.2 0 .4 0 .6.1.3-.3.7-.5 1-.8.3-.1-.2-.1-.3 0z"/><path class="st2" d="M238.3 114.7c0 .3-.3.6-.4.9-.1.1.6 0 .6 0 .1-.2.3-.5.7-.7.1-.1.1 0 0 0 .1 0 .1.1.1.1 0 .1 0 .2-.1.3-.1.1-.3.3 0 .5.2.1.6.1.8 0 .3-.1.3-.2-.1-.1-.5.1-.2-.4-.2-.5s.1-.4-.3-.4c-1 0-1.5.7-1.6 1h.6c.1-.3.4-.6.4-1 .1-.3-.4-.2-.5-.1zM242.8 115.6c.3-.1 1.2-.8.3-.9-.6 0-.8.4-.9.5-.1.2-.1.6.6.6.8.1 1.6-.4 2-.6.2-.1 0-.2-.3-.1-.3.2-.7.4-1.3.4-.3 0-.4-.2-.5-.3-.1-.1-.1-.4.1-.5h.1l.1.1c0 .2-.3.3-.6.5-.3.4.2.4.4.3zM248.7 114.8c.2-.2.4-.8-.3-.9-.5 0-.6.3-.6.5s.3.5.7.6c.5.1 1.1-.2 1.3-.4.1-.1.1-.1 0-.2-.1 0-.2.1-.3.1-.4.4-1 .1-1.2-.1-.1-.1-.1-.1-.1-.2v-.1s-.1 0 0 0c.5-.1.2.5.1.6-.1.3.3.2.4.1zM242.8 114.6c.1-.1.1-.1.1-.2s-.1 0-.2 0-.2.1-.2.1-.1.1 0 0c0 0-.1.1 0 .1.1.1.3 0 .3 0zM243.5 114.4c.1 0 .1-.1.1-.2s-.1 0-.2 0-.2.1-.2.2c0 0 0 .1.1.1 0 .1.1 0 .2-.1z"/><path class="st2" d="M243.9 114.8c.2.3.3.6.4.9 0 .1.5-.1.5-.2 0-.2 0-.3.3-.5s.3-.4.3-.6c0-.1-.4 0-.4.1 0 .2 0 .4.1.6.1.1.1.3.4.4.2 0 .5-.1.6-.1.4-.2.5-.4.5-.6 0-.1-.4.1-.4.1 0 .1 0 .3-.3.4-.1 0-.2-.1-.2-.1-.2-.2-.4-.5-.3-.7-.1 0-.3.1-.4.1 0 .2-.1.3-.4.5-.3.2-.3.4-.3.5.2-.1.3-.1.5-.2-.1-.3-.3-.6-.5-.9 0 .1-.4.2-.4.3zM237.7 114.4c-.6-.1-1 .2-1.2.3-.2.1-.5.6.1.7.7.1 1.2-.2 1.3-.3.2-.1.4-.5-.2-.7-.1 0-.6.1-.4.1.3.1.2.3.2.4s-.1.2-.2.2l-.1.1s-.2.1-.1.1c-.4 0-.3-.3-.2-.4 0-.1.1-.2.2-.2 0 0 .1-.1.2-.1h.1c.1 0 .6-.1.3-.2z"/><path class="st2" d="M246.6 114.3c-.5.1-.5.4-.4.6s.3.6 1 .5.7-.5.5-.7c-.1-.1-.5-.5-1.1-.4-.2 0-.3.3-.1.2.3 0 .5.1.7.2l.2.2v.1s-.1.1 0 .1c-.3.1-.6-.1-.7-.2-.1-.1-.1-.2-.2-.2v-.1s0-.1 0 0c.2-.1.3-.4.1-.3z"/></g><g><path class="st6" d="M220.4 105.7c-.1 0-.2-.1-.3-.1-.4-.1-.6 0-1 0-.8 0-1.1 0-2.1-.1 0-.4.5-.7.7-1s-.1-.6-.1-1v-.6c-.3.1-.1.5-.2.7-.1-.2-.1-.6-.3-.8-.1.2 0 .6 0 .8-.1-.2-.2-.5-.4-.7-.2.2.1.6.1.8-.2-.2-.3-.4-.5-.6-.1.3.2.5.2.7-.2-.2-.3-.4-.5-.5 0 .2.2.4.4.5-.2-.1-.3-.2-.6-.2 0 .1.2.2.3.3-.2 0-.2-.1-.4-.2 0 .1.2.2.3.3-.1 0-.2-.1-.4-.1 0 .1.3.2.2.2h-.2s.2.1.1.1h-.2c0 .1.1 0 .1.1h-.1c0 .1.1 0 .1.1-.7.4-.3.7-.4 1.2 0-.1-.6-.1-1.1-.2-.3-.1-.3-.2-.5-.3h.1c-.1 0-.2 0-.2-.1h.3c-.1 0-.5-.1-.4-.1.2 0 .3.1.5 0-.2 0-.6-.1-.6-.2.2 0 .4.1.6.1-.3-.1-.7-.2-.8-.3.2.1.5.2.7.2-.4-.1-.7-.2-1-.2.2.2.7.2.8.4-.3-.1-.6-.1-.8-.2.1.2.5.2.8.3-.3 0-.4-.1-.7-.1.1.1.5.1.6.2h-.4c0 .1.3.1.4.1h-.4c.1 0 .3 0 .4.1h-.2.2c-.1 0-.1 0-.1.1h.2-.1c.4.1.6.4 1.1.5-.3.1.3.2-3.1.7.1 0 1.5-.2 1.9-.2.4-.1.8-.1 1.2-.2h.3c.7 0 1.3 0 2-.2-.5 0-1.4.1-1.8-.1.5-.3.1-1.2.5-1.4.4-.2.9-.7 1.6-.3.1.1.1.2-.1.4-.3.2-.5.4-.4.9 0 .1 0 .2-.3.2 1.5.1 1.9.1 2.8 0 .3 0 .7-.1.7 0s-.3 0-.5 0c-.4 0 .2.1.4.1.1 0 .9 0 1.3-.1h-.7z"/><path class="st6" d="M216.1 102.1c-3.4 0-6.1 1.3-6.1 2.9s2.7 2.9 6.1 2.9 6.1-1.3 6.1-2.9c0-1.6-2.8-2.9-6.1-2.9m0 .1c3.2 0 5.8 1.3 5.8 2.8s-2.6 2.8-5.8 2.8-5.8-1.3-5.8-2.8c-.1-1.5 2.6-2.8 5.8-2.8"/></g></g></g></g><g id="snow"><g id="clock"><linearGradient id="SVGID_1_" gradientUnits="userSpaceOnUse" x1="620.91" y1="200.851" x2="636.898" y2="155.554" gradientTransform="rotate(180 388.2 127)"><stop offset="0" stop-color="#404B71"/><stop offset=".604" stop-color="#3C476E"/><stop offset="1" stop-color="#354169"/></linearGradient><path class="st7" d="M151.9 94.1l1.7-6.4L152 85l-.2.8c-.2.8-1.1 1.3-1.9 1.1-.1 0-.3-.1-.4-.2-.6-.3-.9-1.1-.7-1.8l1-3.9-1.9-3.3-1.9 3.4 1 3.9c.2.8-.3 1.7-1.1 1.9-.4.1-.9 0-1.2-.2-.4-.2-.6-.5-.7-1l-.3-.7-1.6 2.7 1.7 6.4c.2.8-.3 1.7-1.1 1.9-.4.1-.9 0-1.2-.2-.4-.2-.6-.5-.7-1l-.9-3.3-2.5 4.4c-.4.8-1.4 1-2.2.6s-1-1.4-.6-2.2l2.5-4.4-3.3.9c-.4.1-.9 0-1.2-.2-.4-.2-.6-.5-.7-1-.2-.8.3-1.7 1.1-1.9l6.4-1.7 1.6-2.7-.8.2c-.4.1-.9 0-1.2-.2-.4-.2-.6-.5-.7-1-.2-.8.3-1.7 1.1-1.9l3.8-1 1.9-3.3h-3.8l-2.8 2.9c-.5.5-1.3.6-1.9.3l-.3-.3c-.6-.6-.6-1.6 0-2.2l.6-.6h-3.1l-4.8 4.7c-.5.5-1.3.6-1.9.3l-.3-.3c-.6-.6-.6-1.6 0-2.2l2.4-2.4h-5c-.3 0-.6-.1-.8-.2-.5-.3-.8-.8-.8-1.4 0-.9.7-1.6 1.6-1.6h5l-2.4-2.4c-.6-.6-.6-1.6 0-2.2.6-.6 1.6-.6 2.2 0l4.7 4.7h3.1l-.6-.6c-.6-.6-.6-1.6 0-2.2.6-.6 1.6-.6 2.2 0l2.8 2.8h3.8l-1.9-3.3-3.9-1c-.1 0-.3-.1-.4-.2-.6-.3-.9-1.1-.7-1.8.2-.8 1.1-1.3 1.9-1.1l.8.2-1.6-2.7-6.2-1.9c-.1 0-.3-.1-.4-.2-.6-.4-.9-1.1-.7-1.8.2-.8 1.1-1.3 1.9-1.1l3.3.9-2.5-4.4c-.4-.8-.2-1.7.6-2.2.8-.4 1.7-.2 2.2.6l2.5 4.4.9-3.3c.2-.8 1.1-1.3 1.9-1.1s1.4 1.1 1.1 1.9l-1.7 6.4 1.6 2.7.2-.8c.2-.8 1.1-1.3 1.9-1.1s1.3 1.1 1.1 1.9l-1 3.9 1.9 3.3 1.9-3.3-1-3.9c-.2-.8.3-1.7 1.1-1.9s1.7.3 1.9 1.1l.2.8 1.6-2.7-1.7-6.4c-.2-.8.3-1.7 1.1-1.9.8-.2 1.7.3 1.9 1.1l.9 3.3 2.5-4.4c.4-.8 1.4-1 2.2-.6.8.4 1 1.4.6 2.2l-2.5 4.4 3.3-.9c.8-.2 1.7.3 1.9 1.1s-.3 1.7-1.1 1.9l-6.4 1.7-1.6 2.7.8-.2c.8-.2 1.7.3 1.9 1.1.2.8-.3 1.7-1.1 1.9l-3.8 1-1.8 3.5h3.8l2.8-2.8c.6-.6 1.6-.6 2.2 0 .6.6.6 1.6 0 2.2l-.5.6h3.1l4.7-4.7c.6-.6 1.6-.6 2.2 0 .6.6.6 1.6 0 2.2l-2.3 2.5h5c.9 0 1.6.7 1.6 1.6s-.7 1.6-1.6 1.6h-5l2.4 2.4c.6.6.6 1.6 0 2.2-.5.5-1.3.6-1.9.3l-.3-.3-4.7-4.7H159l.6.6c.6.6.6 1.6 0 2.2-.5.5-1.3.6-1.9.3l-.3-.3-2.8-2.8h-3.8l1.9 3.3 3.9 1c.8.2 1.3 1.1 1.1 1.9-.2.8-1.1 1.3-1.9 1.1l-.8-.2 1.6 2.7 6.4 1.7c.8.2 1.3 1.1 1.1 1.9-.2.8-1.1 1.3-1.9 1.1l-3.6-.6 2.5 4.4c.4.8.2 1.7-.6 2.2-.5.3-1.1.3-1.6 0-.2-.1-.4-.3-.6-.6l-2.5-4.4-.8 3.3c-.2.8-1.1 1.3-1.9 1.1-.1 0-.3-.1-.4-.2-.7-.3-1-1-.8-1.7z"/><linearGradient id="SVGID_2_" gradientUnits="userSpaceOnUse" x1="502.199" y1="137" x2="507.033" y2="123.304" gradientTransform="rotate(180 388.2 127)"><stop offset="0" stop-color="#404B71"/><stop offset=".604" stop-color="#3C476E"/><stop offset="1" stop-color="#354169"/></linearGradient><path class="st8" d="M273 129.3l.5-1.9-.5-.8-.1.2c-.1.3-.3.4-.6.3h-.1c-.2-.1-.3-.3-.2-.5l.3-1.2-.6-1-.6 1 .3 1.2c.1.3-.1.5-.3.6h-.4c-.1-.1-.2-.2-.2-.3l-.1-.2-.5.8.5 1.9c.1.3-.1.5-.3.6h-.4c-.1-.1-.2-.2-.2-.3l-.3-1-.8 1.3c-.1.2-.4.3-.7.2-.2-.1-.3-.4-.2-.7l.8-1.3-1 .3h-.4c-.1-.1-.2-.2-.2-.3-.1-.3.1-.5.3-.6l1.9-.5.5-.8-.2.1h-.4c-.1-.1-.2-.2-.2-.3-.1-.3.1-.5.3-.6l1.2-.3.6-1h-1.2l-.9.9c-.2.2-.4.2-.6.1 0 0-.1 0-.1-.1-.2-.2-.2-.5 0-.7l.2-.2h-.9l-1.4 1.4c-.2.2-.4.2-.6.1 0 0-.1 0-.1-.1-.2-.2-.2-.5 0-.7l.7-.7h-1.5c-.1 0-.2 0-.2-.1-.1-.1-.2-.2-.2-.4 0-.3.2-.5.5-.5h1.5l-.7-.7c-.2-.2-.2-.5 0-.7s.5-.2.7 0l1.4 1.4h.9l-.2-.2c-.2-.2-.2-.5 0-.7s.5-.2.7 0l.9.9h1.2l-.6-1-1.2-.3h-.1c-.2-.1-.3-.3-.2-.5.1-.3.3-.4.6-.3l.2.1-.5-.8-1.9-.5h-.1c-.2-.1-.3-.3-.2-.5.1-.3.3-.4.6-.3l1 .3-.8-1.3c-.1-.2-.1-.5.2-.7.2-.1.5-.1.7.2l.8 1.3.3-1c.1-.3.3-.4.6-.3.3.1.4.3.3.6l-.5 1.9.5.8.1-.2c.1-.3.3-.4.6-.3s.4.3.3.6l-.3 1.2.6 1 .6-1-.3-1.2c-.1-.3.1-.5.3-.6.3-.1.5.1.6.3l.1.2.5-.8-.5-1.9c-.1-.3.1-.5.3-.6.3-.1.5.1.6.3l.3 1 .8-1.3c.1-.2.4-.3.7-.2.2.1.3.4.2.7l-.8 1.3 1-.3c.3-.1.5.1.6.3.1.3-.1.5-.3.6l-1.9.5-.5.8.2-.1c.3-.1.5.1.6.3.1.3-.1.5-.3.6l-1.2.3-.6 1h1.2l.9-.9c.2-.2.5-.2.7 0s.2.5 0 .7l-.2.2h.9l1.4-1.4c.2-.2.5-.2.7 0s.2.5 0 .7l-.7.7h1.5c.3 0 .5.2.5.5s-.2.5-.5.5h-1.5l.7.7c.2.2.2.5 0 .7s-.4.2-.6.1c0 0-.1 0-.1-.1l-1.4-1.4h-.9l.2.2c.2.2.2.5 0 .7-.2.2-.4.2-.6.1 0 0-.1 0-.1-.1l-.9-.9h-1.2l.6 1 1.2.3c.3.1.4.3.3.6-.1.3-.3.4-.6.3l-.2-.1.5.8 1.9.5c.3.1.4.3.3.6-.1.3-.3.4-.6.3l-1-.3.8 1.3c.1.2.1.5-.2.7-.2.1-.3.1-.5 0-.1 0-.1-.1-.2-.2l-.8-1.3-.3 1c-.1.3-.3.4-.6.3h-.1c-.3-.4-.4-.6-.3-.9z"/><linearGradient id="SVGID_3_" gradientUnits="userSpaceOnUse" x1="437.257" y1="112.42" x2="447.677" y2="82.896" gradientTransform="rotate(180 388.2 127)"><stop offset="0" stop-color="#404B71"/><stop offset=".604" stop-color="#3C476E"/><stop offset="1" stop-color="#354169"/></linearGradient><path class="st9" d="M336.6 168.2l1.1-4.2-1-1.8-.1.5c-.1.6-.7.9-1.3.7-.1 0-.2-.1-.2-.1-.4-.2-.6-.7-.5-1.2l.7-2.5-1.2-2.2-1.2 2.2.7 2.5c.1.6-.2 1.1-.7 1.3-.3.1-.6 0-.8-.1s-.4-.4-.5-.6l-.1-.5-1 1.8 1.1 4.2c.1.6-.2 1.1-.7 1.3-.3.1-.6 0-.8-.1s-.4-.4-.5-.6l-.6-2.2-1.6 2.8c-.3.5-.9.7-1.4.4s-.7-.9-.4-1.4l1.6-2.8-2.2.6c-.3.1-.6 0-.8-.1s-.4-.4-.5-.6c-.1-.6.2-1.1.7-1.3l4.2-1.1 1-1.8-.5.1c-.3.1-.6 0-.8-.1-.2-.1-.4-.4-.5-.6-.1-.6.2-1.1.7-1.3l2.5-.7 1.2-2.2h-2.5l-1.8 1.8c-.3.3-.9.4-1.2.2-.1 0-.1-.1-.2-.2-.4-.4-.4-1.1 0-1.5l.4-.4h-2l-3 3c-.3.3-.9.4-1.2.2-.1 0-.1-.1-.2-.2-.4-.4-.4-1.1 0-1.5l1.6-1.6h-3.3c-.2 0-.4 0-.5-.1-.3-.2-.5-.5-.5-.9 0-.6.5-1 1-1h3.3l-1.6-1.6c-.4-.4-.4-1.1 0-1.5s1.1-.4 1.5 0l3 3h2l-.4-.4c-.4-.4-.4-1.1 0-1.5s1.1-.4 1.5 0l1.8 1.8h2.5l-1.2-2.2-2.5-.7c-.1 0-.2-.1-.2-.1-.4-.2-.6-.7-.5-1.2.1-.6.7-.9 1.3-.7l.5.1-1-1.8-4.2-1.1c-.1 0-.2-.1-.2-.1-.4-.2-.6-.7-.5-1.2.1-.6.7-.9 1.3-.7l2.2.6-1.6-2.8c-.3-.5-.1-1.1.4-1.4.5-.3 1.1-.1 1.4.4l1.6 2.8.6-2.2c.1-.6.7-.9 1.3-.7.5.1.9.7.7 1.3l-1.1 4.2 1 1.8.1-.5c.1-.6.7-.9 1.3-.7.6.2.9.7.7 1.3l-.7 2.5 1.2 2.2 1.2-2.2-.7-2.5c-.1-.6.2-1.1.7-1.3.6-.1 1.1.2 1.3.7l.1.5 1-1.8-1.1-4.2c-.1-.6.2-1.1.7-1.3.6-.1 1.1.2 1.3.7l.6 2.2 1.6-2.8c.3-.5.9-.7 1.4-.4.5.3.7.9.4 1.4l-1.6 2.8 2.2-.6c.6-.1 1.1.2 1.3.7.1.6-.2 1.1-.7 1.3l-4.2 1.1-1 1.8.5-.1c.6-.1 1.1.2 1.3.7.1.6-.2 1.1-.7 1.3l-2.5.7-1.2 2.2h2.5l1.8-1.8c.4-.4 1.1-.4 1.5 0 .4.4.4 1.1 0 1.5l-.4.4h2l3-3c.4-.4 1.1-.4 1.5 0s.4 1.1 0 1.5l-1.6 1.6h3.3c.6 0 1 .5 1 1 0 .6-.5 1-1 1h-3.3l1.6 1.6c.4.4.4 1.1 0 1.5-.3.3-.9.4-1.2.2-.1 0-.1-.1-.2-.2l-3-3h-2l.4.4c.4.4.4 1.1 0 1.5-.3.3-.9.4-1.2.2-.1 0-.2-.1-.2-.2l-1.8-1.8h-2.5l1.2 2.2 2.5.7c.5.2.9.7.7 1.3-.1.6-.7.9-1.3.7l-.5-.1 1 1.8 4.2 1.1c.5.2.9.7.7 1.3-.1.6-.7.9-1.3.7l-2.2-.6 1.6 2.8c.3.5.1 1.1-.4 1.4-.3.2-.7.2-1 0-.2-.1-.3-.2-.4-.4l-1.6-2.8-.6 2.2c-.1.6-.7.9-1.3.7-.1 0-.2-.1-.3-.1-.7-.3-.9-.7-.8-1.2z"/><linearGradient id="SVGID_4_" gradientUnits="userSpaceOnUse" x1="554.578" y1="110.131" x2="583.677" y2="42.029" gradientTransform="rotate(180 388.2 127)"><stop offset="0" stop-color="#404B71"/><stop offset=".604" stop-color="#3C476E"/><stop offset="1" stop-color="#354169"/></linearGradient><path class="st10" d="M172.4 176.4c0 .7.4 1.4 1 1.7.3.2.6.3 1 .3h6.3l-3 3c-.8.8-.8 2 0 2.8.1.1.3.2.4.3.8.4 1.8.3 2.4-.3l5.9-5.9h3.9l-1.7 1.7c-.8.8-.8 2 0 2.8.1.1.3.2.4.3.8.4 1.8.3 2.4-.3l4.6-4.6h3.8l-.1.1c-.8.8-.8 2 0 2.8.2.5.5.8.9 1.1s1 .3 1.5.2h.2l-1.9 3.3-6.2 1.7c-1.1.3-1.7 1.4-1.4 2.4.1.5.5 1 .9 1.2.4.3 1 .3 1.5.2l2.4-.6-2 3.4-8 2.1c-1.1.3-1.7 1.4-1.4 2.4.1.5.5 1 .9 1.2.4.3 1 .3 1.5.2l4.2-1.1-3.2 5.5c-.5 1-.2 2.2.7 2.7 1 .5 2.2.2 2.7-.7l3.2-5.5 1.1 4.2c.1.5.5 1 .9 1.2.4.3 1 .3 1.5.2 1.1-.3 1.7-1.4 1.4-2.4l-2.1-8 2-3.4.6 2.4c.1.5.5 1 .9 1.2.4.3 1 .3 1.5.2 1.1-.3 1.7-1.4 1.4-2.4l-1.7-6.2 1.9-3.3v.2c.1.5.5 1 .9 1.2.4.2.9.3 1.4.2 1 .2 2.1-.4 2.4-1.4v-.2l1.9 3.3-1.7 6.2c-.2.9.2 1.8.9 2.2.1.1.3.2.5.2 1.1.3 2.2-.3 2.4-1.4l.6-2.4 2 3.4-2.1 8c-.2.9.2 1.8.9 2.2.1.1.3.2.5.2 1.1.3 2.2-.3 2.4-1.4l1.1-4.2 3.2 5.5c.2.3.4.6.7.7.6.3 1.4.4 2 0 1-.5 1.3-1.8.7-2.7l-3.2-5.5 4.2 1.1c1.1.3 2.2-.3 2.4-1.4.3-1.1-.4-2.1-1.4-2.4l-8-2.1-2-3.4 2.4.6c1.1.3 2.2-.3 2.4-1.4.3-1.1-.4-2.2-1.4-2.4l-6.2-1.7-1.9-3.3h.2c1 .3 2.1-.3 2.4-1.3.7-.8.7-2-.1-2.7l-.1-.1h3.8l4.6 4.6c.1.1.3.2.4.3.8.4 1.8.3 2.4-.3.8-.8.8-2 0-2.8l-1.7-1.7h3.9l5.9 5.9c.1.1.3.2.4.3.8.4 1.8.3 2.4-.3.8-.8.8-2 0-2.8l-3-3h6.3c1.1 0 2-.9 2-2s-.9-2-2-2h-6.3l3-3c.8-.8.8-2 0-2.8s-2-.8-2.8 0l-5.9 5.9h-3.9l1.7-1.7c.8-.8.8-2 0-2.8s-2-.8-2.8 0l-4.6 4.6H216l.1-.1c.8-.8.8-2 0-2.8-.3-1-1.4-1.5-2.4-1.3h-.2l1.9-3.3 6.2-1.7c1.1-.3 1.7-1.4 1.4-2.4-.3-1.1-1.4-1.7-2.4-1.4l-2.4.6 2-3.4 8-2.1c1.1-.3 1.7-1.4 1.4-2.4-.3-1.1-1.4-1.7-2.4-1.4l-4.2 1.1 3.2-5.5c.5-1 .2-2.2-.7-2.7-1-.5-2.2-.2-2.7.7l-3.2 5.5-1.1-4.2c-.3-1.1-1.4-1.7-2.4-1.4-1.1.3-1.7 1.4-1.4 2.4l2.1 8-2 3.4-.6-2.4c-.3-1.1-1.4-1.7-2.4-1.4-1.1.3-1.7 1.4-1.4 2.4l1.7 6.2-1.9 3.3v-.2c-.3-1-1.3-1.6-2.3-1.4-1-.2-2.1.4-2.4 1.4v.2l-1.9-3.3 1.7-6.2c.3-1.1-.4-2.2-1.4-2.4-1.1-.3-2.2.3-2.4 1.4l-.6 2.4-2-3.4 2.1-8c.3-1.1-.4-2.1-1.4-2.4-1.1-.3-2.2.3-2.4 1.4l-1.1 4.2-3.2-5.5c-.6-1-1.8-1.3-2.7-.7-1 .5-1.3 1.8-.7 2.7l3.2 5.5-4.2-1.1c-1.1-.3-2.2.3-2.4 1.4-.2.9.2 1.8.9 2.2.1.1.3.2.5.2l8 2.1 2 3.4-2.4-.6c-1.1-.3-2.2.3-2.4 1.4-.2.9.2 1.8.9 2.2.1.1.3.2.5.2l6.2 1.7 1.9 3.3h-.2c-1-.3-2.1.3-2.4 1.3-.7.8-.7 2 .1 2.7l.1.1H196l-4.6-4.6c-.8-.8-2-.8-2.8 0-.8.8-.8 2 0 2.8l1.7 1.7h-3.9l-5.9-5.9c-.8-.8-2-.8-2.8 0-.8.8-.8 2 0 2.8l3 3h-6.3c-1.1 0-2 .9-2 2zm33.4-1.3c.7-1.2 2.3-1.6 3.5-.9 1.2.7 1.6 2.3.9 3.5-.7 1.2-2.3 1.6-3.5.9-1.2-.7-1.6-2.2-.9-3.5z"/><linearGradient id="SVGID_5_" gradientUnits="userSpaceOnUse" x1="513.908" y1="194.462" x2="525.93" y2="166.32" gradientTransform="rotate(180 388.2 127)"><stop offset="0" stop-color="#404B71"/><stop offset=".604" stop-color="#3C476E"/><stop offset="1" stop-color="#354169"/></linearGradient><path class="st11" d="M240.2 74.6c0 .4.3.7.7.7h1l-.4.5c-.2.3-.1.8.2 1 .1.1.3.1.4.1.2 0 .5-.1.6-.3l.9-1.3h1.5l-2 2.8c-.2.3-.1.8.2 1 .1.1.3.1.4.1.2 0 .5-.1.6-.3l2.6-3.7h1.3l-1.2 1.7c-.2.3-.1.8.2 1 .1.1.3.1.4.1.2 0 .5-.1.6-.3l1.7-2.5h.9l-.4.5c-.2.3-.1.8.2 1 .1.1.3.1.4.1.2 0 .5-.1.6-.3l.9-1.3h.3l.8 1.5-.2.3-1.6.1c-.4 0-.7.4-.7.8s.4.7.7.7h.1l.6-.1-.4.8-3 .3c-.4 0-.7.4-.7.8s.4.7.7.7h.1l2-.2-.7 1.1-4.5.4c-.4 0-.7.4-.7.8s.4.7.7.7h.1l3.4-.3-.7 1.3-1.6.1c-.4 0-.7.4-.7.8s.4.7.7.7h.1l.6-.1-.5.9c-.2.3-.1.8.3 1 .1.1.2.1.4.1.3 0 .5-.1.6-.4l.5-.9.3.6c.1.3.4.4.7.4.1 0 .2 0 .3-.1.4-.2.5-.6.4-1l-.7-1.5.7-1.3 1.5 3.1c.1.3.4.4.7.4.1 0 .2 0 .3-.1.4-.2.5-.6.4-1l-1.9-4.1.7-1.1.9 1.8c.1.3.4.4.7.4.1 0 .2 0 .3-.1.4-.2.5-.6.4-1l-1.3-2.8.4-.8.3.6c.1.3.4.4.7.4.1 0 .2 0 .3-.1.4-.2.5-.6.4-1l-.7-1.5.2-.3h1.7l.2.3-.7 1.5c-.2.4 0 .8.4 1 .1 0 .2.1.3.1.3 0 .5-.2.7-.4l.3-.6.4.8-1.3 2.8c-.2.4 0 .8.4 1 .1 0 .2.1.3.1.3 0 .5-.2.7-.4l.9-1.8.7 1.1-1.9 4.1c-.2.4 0 .8.4 1 .1 0 .2.1.3.1.3 0 .5-.2.7-.4l1.5-3.1.7 1.3-.7 1.5c-.2.4 0 .8.4 1 .1 0 .2.1.3.1.3 0 .5-.2.7-.4l.3-.6.5.9c.1.2.4.4.6.4.1 0 .2 0 .4-.1.3-.2.5-.6.3-1l-.5-.9.6.1h.1c.4 0 .7-.3.7-.7 0-.4-.3-.8-.7-.8l-1.6-.1-.7-1.3 3.4.3h.1c.4 0 .7-.3.7-.7 0-.4-.3-.8-.7-.8l-4.5-.4-.7-1.1 2 .2h.1c.4 0 .7-.3.7-.7 0-.4-.3-.8-.7-.8l-3-.3-.4-.8.6.1h.1c.4 0 .7-.3.7-.7 0-.4-.3-.8-.7-.8l-1.6-.1-.2-.3.8-1.5h.3l.9 1.3c.1.2.4.3.6.3.1 0 .3 0 .4-.1.3-.2.4-.7.2-1l-.4-.5h.9l1.7 2.5c.1.2.4.3.6.3.1 0 .3 0 .4-.1.3-.2.4-.7.2-1l-1.2-1.7h1.3l2.6 3.7c.1.2.4.3.6.3.1 0 .3 0 .4-.1.3-.2.4-.7.2-1l-2-2.8h1.5l.9 1.3c.1.2.4.3.6.3.1 0 .3 0 .4-.1.3-.2.4-.7.2-1l-.4-.5h1c.4 0 .7-.3.7-.7s-.3-.7-.7-.7h-1l.4-.5c.2-.3.1-.8-.2-1-.3-.2-.8-.1-1 .2l-.9 1.3H267l2-2.8c.2-.3.1-.8-.2-1-.3-.2-.8-.1-1 .2l-2.6 3.7h-1.3l1.2-1.7c.2-.3.1-.8-.2-1-.3-.2-.8-.1-1 .2l-1.7 2.5h-.9l.4-.5c.2-.3.1-.8-.2-1s-.8-.1-1 .2l-.9 1.3h-.3l-.8-1.5.2-.3 1.6-.1c.4 0 .7-.4.7-.8s-.4-.7-.8-.7l-.6.1.4-.8 3-.3c.4 0 .7-.4.7-.8s-.4-.7-.8-.7l-2 .2.7-1.1 4.5-.4c.4 0 .7-.4.7-.8s-.4-.7-.8-.7l-3.4.3.7-1.3 1.6-.1c.4 0 .7-.4.7-.8s-.4-.7-.8-.7l-.6.1.5-.9c.2-.3.1-.8-.3-1-.3-.2-.8-.1-1 .3l-.5.9-.3-.6c-.2-.4-.6-.5-1-.4-.4.2-.5.6-.4 1l.7 1.5-.7 1.3-1.5-3.1c-.2-.4-.6-.5-1-.4-.4.2-.5.6-.4 1l1.9 4.1-.7 1.1-.9-1.8c-.2-.4-.6-.5-1-.3s-.5.6-.4 1l1.3 2.8-.4.8-.3-.6c-.2-.4-.6-.5-1-.3s-.5.6-.4 1l.7 1.5-.2.3h-1.7l-.2-.3.7-1.5c.2-.4 0-.8-.4-1-.4-.2-.8 0-1 .3l-.3.6-.4-.8 1.3-2.8c.2-.4 0-.8-.4-1s-.8 0-1 .4l-.9 1.8-.7-1.1 1.9-4.1c.2-.4 0-.8-.4-1s-.8 0-1 .3l-1.5 3.1-.7-1.3.7-1.5c.2-.4 0-.8-.4-1s-.8 0-1 .4l-.3.6-.5-.9c-.2-.3-.6-.5-1-.3-.3.2-.5.6-.3 1l.5.9-.6-.1c-.4 0-.8.3-.8.7s.3.8.7.8l1.6.1.7 1.3-3.4-.3c-.4 0-.8.3-.8.7 0 .4.3.8.7.8l4.5.4.7 1.1-2-.2c-.4 0-.8.3-.8.7s.3.8.7.8l3 .3.4.8-.6-.1c-.4 0-.8.3-.8.7s.3.8.7.8l1.6.1.2.3-.8 1.5h-.3l-.9-1.3c-.2-.3-.7-.4-1-.2s-.4.7-.2 1l.4.5h-.9l-1.7-2.5c-.2-.3-.7-.4-1-.2-.3.2-.4.7-.2 1l1.2 1.7H247l-2.6-3.7c-.2-.3-.7-.4-1-.2s-.4.7-.2 1l2 2.8h-1.5l-.9-1.3c-.2-.3-.7-.4-1-.2-.3.2-.4.7-.2 1l.4.5h-1c-.4 0-.8.3-.8.7zm15 1.5l-.8-1.5.8-1.5h1.7l.8 1.5-.8 1.5h-1.7z"/><circle class="st2" cx="228.3" cy="55.9" r="3.4"/><circle class="st2" cx="353.9" cy="120.2" r="3.4"/><circle class="st2" cx="349" cy="133.3" r="1.5"/><circle class="st2" cx="360.8" cy="141.1" r="1.5"/><circle class="st2" cx="240.2" cy="52.5" r="1.5"/><circle class="st2" cx="212.6" cy="88.4" r="3.8"/><circle class="st2" cx="183.7" cy="212.1" r="3.8"/><circle class="st2" cx="191.8" cy="98.3" r="2.8"/><circle class="st2" cx="197.2" cy="106.7" r="1.5"/><circle class="st2" cx="223.3" cy="96.7" r="1.5"/><circle class="st2" cx="143.8" cy="120.2" r="1.5"/><circle class="st2" cx="174.7" cy="98.3" r="1.5"/><circle class="st2" cx="180.7" cy="109.8" r="1.5"/><circle class="st2" cx="182.2" cy="98.1" r="1.5"/><circle class="st2" cx="174.7" cy="88.4" r="1.5"/><circle class="st2" cx="134.5" cy="99.8" r="1.5"/><circle class="st2" cx="130" cy="93.7" r="1.5"/><circle class="st2" cx="177.7" cy="203.6" r="1.5"/><circle class="st2" cx="166.3" cy="202.1" r="1.5"/><circle class="st2" cx="173.2" cy="210.6" r="1.5"/><circle class="st2" cx="205.2" cy="86.9" r="1.5"/><circle class="st2" cx="198.7" cy="93.7" r="1.5"/></g></g></svg>