<?xml version="1.0" encoding="utf-8"?>
<!-- Generator: Adobe Illustrator 19.0.0, SVG Export Plug-In . SVG Version: 6.00 Build 0)  -->
<svg version="1.1" id="Layer_1" xmlns="http://www.w3.org/2000/svg" xmlns:xlink="http://www.w3.org/1999/xlink" x="0px" y="0px"
	 viewBox="0 0 281 307" style="enable-background:new 0 0 281 307;" xml:space="preserve">
<style type="text/css">
	.st0{fill:#FFFFFF;}
</style>
<g id="XMLID_46_">
	<path id="XMLID_5_" class="st0" d="M125.3,107.7C125.3,107.7,125.3,107.7,125.3,107.7c0-0.1,0-0.2,0-0.4c0-0.3,0-0.5-0.1-0.8
		c0-0.6-0.1-1-0.1-1.4c0,0,0,0,0,0c-3.1-34.3-18.9-46.8-18.9-46.8s6.1-6.2,5.5-6.9c-0.5-0.7-6.3,1.9-6.9,1.4c-0.6-0.5,2-7.3,1.4-7.7
		c-0.6-0.4-5.5,4.6-6,4.3c-0.5-0.4,0.8-6.6-0.3-7.2c-1.1-0.5-3.1,6.4-4.1,6.3c-1-0.2-2.9-7-3.9-7c-1.7,0-0.6,6.9-1.6,6.9
		c-1,0-4.9-3.8-5.8-3.4c-0.9,0.4,2.5,6.4,2.5,6.4s-3.9,4.7-4,7.4c-0.1,2.7-10.2,5.4-9.6,7.2c0.6,1.7,8.8,0.1,8.8,0.1
		s-2.6,7.4,0.5,11.1c3.6,4.1,6.1,1.6,5.9-1.3c2,14.3-4.7,28.1-10.9,43.3l-0.7,1.8c26.5-1,44.7-8.5,48.4-10.2
		C125.4,109.6,125.4,108.6,125.3,107.7z"/>
	<path id="XMLID_4_" class="st0" d="M159,191.2c-3.2-4.5-8.6-6.6-16.2-6.3c-7.8,0.3-13.2,2.9-16,7.6c-6.4,10.8,2.3,30,3.7,32.8
		l2.6,0.2c0,0.1,0.1,0.2,0.1,0.4c0.9,0,2.3,0,3.5-0.1h3c1.2,5.2,4,19.5-0.2,25.5c-4.3,4.4-19,2.9-22.2,2.9c-3.2,0-0.6,3.3,1.8,3.3
		c2.4,0,13.5-0.4,14.1,0.8c0.6,1.2-4,3.3-6.4,3.7c-2.4,0.5-4,0.8-2.4,1.8c1.6,1,28.7-1.4,25.9-14.7c2.8,0.2,5.7,1.9,7.5,2.7
		c1.8,0.8,2.9-1.4,1.1-2.7c-1.8-1.3-11.3-7.5-11.3-7.5l0.6-15.8c1.6,0,3.1,0,4.5-0.1h5.4C159.8,221.4,166.3,201.5,159,191.2z"/>
	<path id="XMLID_3_" class="st0" d="M214.1,96.7c-3.9-12.6-29.5-3.5-37.9,14c-8.4,17.5-30,20.1-37.3,17c-7.4-3-8.9-10.9-13.2-11.2
		c0-1.3-0.1-2.6-0.1-3.8c-5.2,2.2-23.4,9.2-49.3,10.1c-0.6,1.6-1.2,3.2-1.8,4.9l-0.1,0.3l0,0c-2.8,7.8-5,16-5.5,24.8
		c-1.2,21.2,21.7,40.4,36.7,51.2c12-6.3,17.1-34.6,18-40.7c-12.2-5-16.5-11.3-17.9-16.1c-1.6-5.5,0-11.3,4.1-16.1
		c2.5-2.8,6.6-4.3,11.8-4.3c9.9,0,22,5.7,25,15.2c3.6,11.3,15.1,14,15.6,14.1l2.7,0.6l-1.5,2.4c-1,1.6-2.3,2.9-3.8,4
		c6.6,3.8,28.2,17.2,33.9,29.7c0.6-1.1,1.5-2.5,2.3-4c0,0,0,0.1,0.1,0.1c0.5-1,1-2,1.3-2.9c0.2-0.5,0.4-0.9,0.5-1.3c0,0,0-0.1,0-0.1
		c1.8-5.2,1.6-9.6-0.2-16.7c11.1-14.5,8.9-29.5,6-28.7C219.5,131.2,218,109.3,214.1,96.7z"/>
	<path id="XMLID_2_" class="st0" d="M157.7,164.4c-3.5,1.9-8.2,2.9-14,2.9c-7.2,0-13.5-1.5-13.8-1.6l0,0l0,0c-1.6-0.5-3.1-1-4.5-1.5
		c-1.1,7-6,33.8-18.2,41.2c3.7,2.6,6.7,4.6,8.7,5.9c1.2,0.9,2.3,1.8,3.1,2.6c2.2,2.7,4.8,7.5,8.7,10.2c-2.7-6.1-8.7-22.4-2.7-32.6
		c3.1-5.3,9.1-8.2,17.6-8.5c8.3-0.3,14.3,2.1,17.9,7.1c7,9.8,2.6,26.8,0.3,34l2.7-2l0,0c7.5-4.5,20.7-14.5,28.6-27
		C187.7,182.3,162.8,167.4,157.7,164.4z"/>
	<path id="XMLID_1_" class="st0" d="M143.8,165.3c6.9,0,14.5-1.5,18-7.2c0,0-13.1-2.8-17.1-15.4c-2.7-8.6-14-13.8-23.1-13.8
		c-4.3,0-8.1,1.2-10.3,3.7c-6.9,7.9-8.4,22.9,19.2,31.2C130.5,163.8,136.7,165.3,143.8,165.3z"/>
</g>
</svg>
