<?xml version="1.0" encoding="utf-8"?>
<!-- Generator: Adobe Illustrator 19.0.0, SVG Export Plug-In . SVG Version: 6.00 Build 0)  -->
<svg version="1.1" id="Layer_1" xmlns="http://www.w3.org/2000/svg" xmlns:xlink="http://www.w3.org/1999/xlink" x="0px" y="0px"
	 viewBox="0 0 130 250" style="enable-background:new 0 0 130 250;" xml:space="preserve">
<style type="text/css">
	.st0{fill:#519E38;}
	.st1{fill:#F4F4F4;}
	.st2{fill:#D6D6D6;}
	.st3{fill:#EAEAEA;}
	.st4{fill:#FFFFFF;}
	.st5{fill:#99C5E9;}
	.st6{fill:#62BA47;}
	.st7{fill:#62BA46;}
	.st8{fill:#DA1B51;}
	.st9{fill:#F1788A;}
</style>
<g>
	<path class="st0" d="M106.1,216c0,0,0-64.5,0-99.6S91.5,68,91.5,68C95.4,46.3,85,39.8,85,39.8V32h2.2c0,0,0-8.4,0-11.2
		s-3.9-2.5-3.9-2.5H69h-1.3H53.4c0,0-3.9-0.3-3.9,2.5s0,11.2,0,11.2h2.3v7.8h-0.1c0,0-10.4,6.5-6.5,28.2c0,0-14.6,13.4-14.6,48.4
		c0,35.1,0,99.6,0,99.6s-1.5,21.4,14.3,21.4c4.3,0,7.8,0,10.8,0c8.1,0,11.8,0,11.8,0h0.7H69h0.1H81h0.1c3,0,6.5,0,10.8,0
		c0,0,0,0,0.1,0C107.6,237.4,106.1,216,106.1,216z"/>
	<path class="st1" d="M98.5,211c0,0,0-64.5,0-99.6S83.9,63,83.9,63c3.9-21.7-6.5-28.2-6.5-28.2v-8h-33v8h-0.1c0,0-10.4,6.5-6.5,28.2
		c0,0-14.6,13.4-14.6,48.4c0,35.1,0,99.6,0,99.6s-1.5,21.4,14.3,21.4c4.3,0,7.8,0,10.8,0c8.1,0,11.8,0,11.8,0h1.6h11.8
		c3,0,6.6,0,10.8,0C100,232.4,98.5,211,98.5,211z"/>
	<path class="st2" d="M75.7,13.3H61.4h-1.3H45.8c0,0-3.9-0.3-3.9,2.5s0,11.2,0,11.2H60h1.3h18.1c0,0,0-8.4,0-11.2
		C79.6,13,75.7,13.3,75.7,13.3z"/>
	<path class="st3" d="M98.4,211c0,0,0-64.5,0-99.6S83.8,63,83.8,63c3.9-21.7-6.5-28.2-6.5-28.2v-8H60.7v205.6h0.8h11.8
		c3,0,6.6,0,10.8,0C99.9,232.4,98.4,211,98.4,211z"/>
	<path class="st4" d="M35.5,99.9c-0.2,0-0.4,0-0.5,0c-2.3-0.3-3.9-2.4-3.6-4.7c1.9-14.4,8.8-23.1,9.1-23.5c1.4-1.8,4.1-2.1,5.9-0.6
		c1.8,1.4,2.1,4.1,0.6,5.8c-0.1,0.1-5.8,7.4-7.4,19.3C39.3,98.3,37.5,99.9,35.5,99.9z"/>
</g>
<g>
	<circle class="st5" cx="62.4" cy="144.7" r="20"/>
	<circle class="st6" cx="46.4" cy="162.5" r="6.3"/>
	<path class="st5" d="M52.9,120.3c0,1.4-1.1,2.5-2.6,2.5c-1.4,0-2.6-1.1-2.6-2.5s1.1-2.6,2.6-2.6C51.8,117.7,52.9,118.9,52.9,120.3
		L52.9,120.3z"/>
	<path class="st6" d="M53,128.9c0,1.8-1.5,3.3-3.3,3.3s-3.3-1.5-3.3-3.3s1.5-3.3,3.3-3.3S53,127.1,53,128.9L53,128.9z"/>
	<path class="st6" d="M44.2,123.8c0,1.1-0.9,1.9-1.9,1.9c-1.1,0-2-0.9-2-1.9c0-1.1,0.9-2,2-2C43.4,121.9,44.2,122.8,44.2,123.8
		L44.2,123.8z"/>
	<g>
		<circle class="st6" cx="79.4" cy="126.5" r="11"/>
		<g>
			<path class="st4" d="M76.7,124.9c-0.9,0.1-1.2,1.2-1.2,1.9l0,0l0,0c0,0.1,0,0.2,0,0.3c0,0.4,0,0.6-0.1,1c0,0.1-0.1,0.4-0.1,0.4
				c-0.3,0-0.6-0.5-0.7-0.7c-0.2-0.6-0.4-1.2-0.5-1.7c-0.1-0.6-0.2-1.3-0.2-1.9c0-0.3,0-0.5,0-0.8c0-0.1,0-0.2,0-0.3s0-0.2,0-0.2
				c0.1-0.5-0.6,0-0.7,0.2c-0.7,1.3-0.5,2.8-0.5,4.2c0,0.4,0,0.8-0.1,1.1c0,0.3-0.1,0.7-0.3,0.9c-0.1,0.1-0.4,0-0.5,0
				c-0.2-0.1-0.3-0.3-0.3-0.5s-0.3-0.1-0.4,0c-0.2,0.2-0.3,0.4-0.3,0.6c0.1,0.5,0.5,0.9,1,0.8c0.8-0.2,1.2-1.2,1.4-2
				c0.1-0.4,0.1-0.7,0.2-1.1c0.1,0.5,0.3,1.1,0.5,1.6c0.2,0.4,0.5,0.7,1,0.7c0.3-0.1,0.6-0.4,0.8-0.8c0.2,0.4,0.4,0.6,0.8,0.6
				c0.5,0,0.8-0.5,1-0.9s0.3-0.9,0.3-1.4C77.8,126.2,77.7,124.8,76.7,124.9z M77,128.1c0,0.1,0,0.2-0.1,0.3c-0.2,0-0.3-0.3-0.4-0.4
				c-0.1-0.3-0.2-0.6-0.2-1c0-0.3,0-0.7,0-1c0-0.1,0-0.2,0.1-0.3c0.5,0.3,0.6,0.9,0.6,1.4C77.1,127.4,77.1,127.8,77,128.1z"/>
			<path class="st4" d="M87.6,126.2c-1-0.4-1.5,1-1.7,1.7s-0.4,1.9,0.5,2.3c0.4,0.2,0.9-0.1,1.2-0.4c0.3-0.3,0.5-0.8,0.6-1.2
				C88.4,127.9,88.5,126.6,87.6,126.2z M87.1,129.4c0,0.1-0.1,0.2-0.1,0.2c-0.2-0.1-0.2-0.4-0.2-0.5c-0.1-0.3,0-0.7,0-1
				c0.1-0.3,0.2-0.7,0.3-1c0-0.1,0.1-0.2,0.1-0.2c0.4,0.4,0.3,1,0.2,1.6C87.3,128.8,87.2,129.1,87.1,129.4z"/>
			<path class="st4" d="M85,126.4c0.2-0.2,0.4-0.5,0.5-0.8c0.4-0.5,0.7-1.2,0.7-1.9c0-0.6-0.9-0.7-1.3-0.5c-0.6,0.3-1,1-1.2,1.6
				c-0.2,0.9-0.4,1.7-0.4,2.6l0,0c-0.3,0.4-1,1.1-1.5,0.8c-0.1-0.1-0.2-0.2-0.2-0.4c0.4-0.4,0.8-0.9,1.1-1.4
				c0.3-0.4,0.5-1.2-0.1-1.5c-0.5-0.3-1.1,0-1.4,0.4s-0.5,0.9-0.5,1.4c0,0.3-0.1,0.7,0,1.1c-0.3,0.2-0.6,0.3-1,0.2s-0.5-0.5-0.6-0.8
				c-0.1-0.5-0.1-0.9,0-1.4c0-0.1,0.1-0.3,0.1-0.4v-0.1c0.2,0.1,0.3,0.5,0.4,0.6c0.1,0.3,0.9-0.2,0.8-0.5s-0.2-0.7-0.6-0.8
				c-0.3-0.2-0.8,0.1-1,0.3c-0.6,0.6-0.7,1.5-0.6,2.3c0,0.5,0.1,1.1,0.6,1.4c0.6,0.4,1.4,0,2-0.3c0.2,0.4,0.4,0.6,0.9,0.6
				c0.6-0.1,1.1-0.4,1.6-0.8c0,0.4,0.1,0.9,0.4,1.1c0.5,0.3,1.2,0,1.5-0.5c0.4-0.6,0.7-1.4,0.4-2.1C85.5,126.5,85.3,126.4,85,126.4z
				 M81.7,126c0-0.1,0.1-0.3,0.2-0.4l0,0c0.2,0.1,0.3,0.4,0.3,0.6c-0.1,0.4-0.3,0.7-0.6,1.1c0-0.1,0-0.1,0-0.2
				C81.5,126.7,81.5,126.4,81.7,126z M84.8,124.2c0.1-0.1,0.1-0.3,0.2-0.4l0,0c0.4,0.4,0,1-0.2,1.4s-0.4,0.8-0.7,1.2
				c0.1-0.4,0.1-0.8,0.2-1.1C84.5,124.9,84.7,124.6,84.8,124.2z M84.6,128.7c0,0-0.1,0.1-0.1,0.2h-0.1c-0.2-0.1-0.3-0.7-0.3-0.9
				s0-0.4,0-0.6c0.1-0.1,0.2-0.2,0.3-0.4c0.2-0.1,0.4,0.1,0.4,0.4C84.9,127.9,84.8,128.4,84.6,128.7z"/>
		</g>
	</g>
	<g>
		<path class="st4" d="M51.3,161.2c-0.6,1-1.3,1.8-2,2.7c-0.3,0.4,0.2,0.4,0.4,0.1c0.7-0.9,1.5-1.9,2.1-2.9
			C52.1,160.7,51.5,160.9,51.3,161.2L51.3,161.2z"/>
		<path class="st4" d="M50.3,160.9c-0.4,0-0.6,0.3-0.7,0.7c-0.1,0.3,0.1,0.6,0.4,0.6C50.7,162.2,51.1,160.9,50.3,160.9
			c-0.2,0-0.4,0.4-0.2,0.4s0.3,0.2,0.3,0.3s0,0.1,0,0.2l0,0h-0.1c-0.2,0-0.3-0.1-0.3-0.3c0-0.1,0-0.1,0-0.2l0,0h0.1
			C50.2,161.3,50.5,160.9,50.3,160.9z"/>
		<path class="st4" d="M51.3,162.9c-0.4,0-0.6,0.3-0.7,0.7c-0.1,0.3,0.1,0.6,0.4,0.6C51.7,164.2,52.1,163,51.3,162.9
			c-0.2,0-0.4,0.4-0.2,0.4s0.3,0.2,0.3,0.3s0,0.1,0,0.2l0,0h-0.1c-0.2,0-0.3-0.1-0.3-0.3c0-0.1,0-0.1,0-0.2l0,0h0.1
			C51.2,163.3,51.5,162.9,51.3,162.9z"/>
	</g>
	<g>
		<g>
			<g>
				<path class="st4" d="M77.7,148.3c-0.2,0-0.4,0.1-0.5,0.2c-0.3-1.1,0-2.2,0.3-3.1l0,0c0.1-0.5-0.3-0.9-0.8-1s-1,0.2-1.3,0.5
					c-0.4,0.4-0.7,1.1-0.8,1.7c-0.1,0.5-0.4,0.8-0.5,0.8c-0.3-0.1-0.2-0.5-0.2-0.7c0-0.4,0-0.8-0.2-1.1c-0.1-0.3-0.4-0.3-0.7-0.3
					c0.3-0.9,0.5-1,0.6-1.1c0.2,0.1,0.3,0.2,0.3,0.2c0.3,0.3,1.2-0.2,0.9-0.5c-0.3-0.4-0.7-0.5-1.1-0.4c-0.3,0-0.5,0.2-0.7,0.4
					l-0.1,0.1c0-0.5,0-1,0-1.4s-1,0-1,0.4c0,0.2,0.1,0.5,0.1,0.7c0,1-0.3,2.1-1.1,2.9c0-0.1,0-0.2,0-0.3c0-0.7,0.2-1.3,0.2-2
					c0-0.4,0.1-1-0.2-1.4s-1,0-1.2,0.2l-0.1,0.1c0-0.2-0.1-0.5-0.3-0.7s-0.6-0.1-0.8,0s-0.3,0.2-0.4,0.3c0-0.1,0-0.2,0-0.2
					c0-0.2,0-0.3-0.1-0.3c-0.2,0-0.3,0-0.4,0.1c-0.2,0.1-0.2,0.2-0.3,0.3s-0.2,0.1-0.4,0.1c-0.7-0.1-0.7-0.7-1.3-0.7
					c-1-0.1-1.4,1.1-1.5,2l0,0c-0.1,0.4-0.3,1-0.7,1.3c0.2-0.5,0.2-1,0.2-1.5c0-0.6-0.1-1.6-0.8-1.8c-0.4-0.2-0.8,0-1.1,0.2
					c0-0.3-0.1-0.8-0.1-0.9c0-0.1-0.2-0.1-0.3-0.1c-0.3,0.1-0.5,0.3-0.6,0.5s-0.1,0.6-0.5,0.5c-0.3,0-0.5-0.3-1-0.3
					c-1.1,0.3-1.3,1.5-1.3,2.5c0,0.7,0.1,2.2,1.1,2.1c0.5,0,0.9-0.6,1.1-1c0.2-0.5,0.3-1,0.3-1.5c0-0.3,0-0.7-0.1-1.2
					c0.2-0.1,0.4-0.2,0.5-0.4c0.1,0.3,0.1,0.7,0.1,1l0,0c0,0,0,0,0,0.1c0.1,0.8,0.1,1.5,0.1,2.3c0,1,0,2,0,3.1
					c0,0.2,0.3,0.2,0.4,0.1c0.2-0.1,0.4-0.3,0.4-0.6c0.1-0.7,0.1-1.5,0.1-2.2c0.9,0,1.7-0.6,2.1-1.1c0.1,0.6,0.3,1.2,0.9,1.3
					c0.5,0.1,1-0.4,1.2-0.8c0.3-0.5,0.4-1,0.4-1.5c0-0.2,0-0.5,0-0.8c0.2,0,0.4-0.1,0.6-0.2c-0.1,1.1-0.2,2.2-0.2,3.3
					c0,0.5,0.9,0,0.9-0.3c0.1-1,0.2-2.1,0.7-3c0.2,0.2,0.1,1.2,0.1,1.7c0,0.3-0.1,0.6-0.1,0.9c0,0.3-0.1,0.5-0.1,0.8
					c0,0.5,0.8,0,0.9-0.3c0-0.3,0.1-0.5,0.1-0.8c0.1-0.5,0.3-2,0.7-2.1c0.2,0.1,0.1,1,0,1.3c0,0.6-0.2,1.3-0.1,1.9
					c0.1,1,1.1,0.3,1.5-0.1c0.1-0.1,0.2-0.2,0.3-0.3c-0.1,0.3-0.1,0.6-0.2,0.9c-0.1,0.5,0.8,0.1,0.9-0.2c0.1-0.4,0.2-0.8,0.3-1.2
					c0.5,0.3,0,1.5,0.4,1.9c0.3,0.3,0.8,0.2,1.1,0.1c0.1,0,0.2-0.1,0.3-0.2c0,0.3,0.1,0.5,0.3,0.7c0.4,0.3,0.9,0.2,1.2,0
					c0,0,0.1,0,0.1-0.1c0,0.1,0,0.2,0,0.2c0.2,1,1.4,0.5,1.7,0C78,148.4,77.9,148.3,77.7,148.3z M59.4,145.6c0,0.1,0,0.2-0.1,0.3
					c-0.2,0-0.3-0.3-0.4-0.5c-0.2-0.3-0.2-0.7-0.2-1.1c0-0.4,0-0.8,0.1-1.2c0-0.1,0-0.2,0.1-0.3c0,0,0,0,0.1,0l0,0l0.1,0.1
					c0.3,0.3,0.4,1.2,0.4,1.4C59.5,144.8,59.4,145.2,59.4,145.6z M61.8,145.2c0-0.6,0-1.3-0.1-1.9c0-0.4,0.1-0.4,0.1-0.5
					c0.2,0,0.3,0.1,0.4,0.2c0.3,0.3,0.4,0.9,0.4,1.3c0,0.5-0.1,1.3-0.2,1.5C62,145.8,61.9,145.5,61.8,145.2z M65.4,145.6
					c0,0.1-0.1,0.2-0.1,0.3c-0.2-0.1-0.3-0.4-0.4-0.5c-0.1-0.4-0.1-0.7-0.1-1.1c0-0.4,0-0.8,0.2-1.1c0-0.1,0.1-0.2,0.1-0.3
					c0.5,0.2,0.5,1.3,0.5,1.6C65.6,144.8,65.5,145.2,65.4,145.6z M75.7,147.9c0,0-0.1,0-0.1-0.1c-0.2-0.1-0.2-0.4-0.2-0.6
					c-0.1-0.6,0.1-1.3,0.4-1.8c0.1-0.2,0.3-0.4,0.4-0.5c0,0,0.1,0,0.2,0c0.2,0.1,0.3,0.3,0.2,0.5c-0.2,0.8-0.3,1.6-0.7,2.3
					C75.8,147.8,75.8,147.9,75.7,147.9z"/>
				<path class="st4" d="M56.9,143.4c-0.2-0.1-0.4-0.1-0.6,0c0.1-0.4,0.3-0.8,0.4-1.3c0.1-0.6,0.4-1.5,0-2.1s-1.2,0-1.5,0.4
					c-0.5,0.7-0.5,1.5-0.5,2.3c0,0.9,0.1,1.7,0.3,2.6c-0.1,0.3-0.2,1-0.5,1.4c-0.2,0-0.3-0.4-0.3-0.6c-0.3-0.9-0.4-2-0.2-2.9
					c0-0.2-0.1-0.3-0.3-0.2s-0.5,0.4-0.5,0.6c0,0.2-0.1,0.8-0.4,0.9c-0.2,0.1-0.4,0.1-0.7,0s-0.8,0.1-1.1,0.4
					c-0.1-0.4-0.1-0.8-0.3-1.1c-0.1-0.2-0.4,0.1-0.5,0.2c-0.1,0.1-0.2,0.3-0.3,0.5c0,0.5,0.1,1.6-0.2,2.9c-0.1,0.2-0.3,0.7-0.6,0.8
					c-0.4,0.1-0.7-0.2-0.9-0.5c-0.6-0.9-0.8-2-0.8-3.1c0-0.4,0.1-1,0.3-1.3c0,0,0,0,0-0.1l0,0l0,0c0,0,0.4-0.1,0.6-0.1
					c0.4,0,0.5,0.5,0.6,0.8c0.1,0.5,0.9-0.4,0.8-0.7c-0.1-0.6-0.4-1.2-1.2-1.1c-0.5,0.1-1,0.4-1.3,0.9c-0.6,1-0.7,2.2-0.6,3.3
					c0.1,1,0.4,2.2,1.2,2.8c0.9,0.7,2-0.5,2.3-1.3c0.1-0.2,0.1-0.4,0.2-0.6c0.1,0.7,0.5,1.4,1.3,1.2c0.9-0.2,1.3-1.5,1.2-2.2
					c0-0.2-0.1-0.5-0.2-0.8c0.1-0.1,0.2-0.2,0.3-0.3c0,0.2,0,0.4,0.1,0.5c0.1,0.6,0.2,1.3,0.4,1.8c0.2,0.4,0.6,0.4,1,0.1
					c0.3-0.3,0.5-0.6,0.7-1c0.2,0.5,0.5,0.9,1,0.8c0.7-0.1,1.2-0.8,1.3-1.5C57.6,145,57.6,143.7,56.9,143.4z M52.1,146.9
					c0,0.1,0,0.1,0,0.2c0,0,0,0-0.1,0c-0.5,0.1-0.8-0.5-0.9-0.8v-0.1l0,0c0-0.1,0-0.1,0-0.2c0-0.1,0-0.3,0-0.5c0,0,0-0.1,0-0.2
					c0,0,0,0,0.1,0c0.5-0.1,0.8,0.5,0.9,0.8C52.1,146.4,52.2,146.7,52.1,146.9z M55.5,142.4c0-0.6,0.2-1.8,0.2-1.8l0,0l0,0
					c0.2,0,0.2,0.3,0.3,0.4c0.1,0.6-0.1,1.3-0.2,1.9c-0.1,0.2-0.1,0.5-0.2,0.7C55.5,143.3,55.5,142.9,55.5,142.4z M56.6,146.1
					C56.6,146.2,56.6,146.2,56.6,146.1C56.6,146.2,56.6,146.2,56.6,146.1c-0.3,0-0.4-0.2-0.5-0.4c-0.2-0.3-0.3-0.6-0.4-1
					c0.1-0.2,0.1-0.3,0.2-0.5c0,0,0,0,0-0.1l0,0c0.1,0,0.2,0,0.3,0.1c0.3,0.2,0.3,0.6,0.3,0.9C56.7,145.5,56.7,145.8,56.6,146.1z"/>
			</g>
		</g>
	</g>
	<g>
		<path class="st4" d="M42.2,160.8c-0.7,0.1-1,0.9-1,1.5c-0.1,0.5-0.1,1.7,0.7,1.8s1.1-0.9,1.1-1.5C43,162.1,42.9,160.9,42.2,160.8
			c-0.2,0-0.6,0.6-0.4,0.6c0.4,0,0.5,0.6,0.5,0.9c0,0.2,0,0.5,0,0.8c0,0.1,0,0.2-0.1,0.3c0,0.1-0.1,0.3,0,0.2
			c-0.4,0.2-0.5-0.7-0.5-0.9s0-0.5,0-0.8c0-0.1,0-0.3,0.1-0.4c0-0.1,0.1-0.1,0-0.1C42.1,161.4,42.5,160.8,42.2,160.8z"/>
		<path class="st4" d="M45.5,160.8c-0.7,0.1-1,0.9-1,1.5c-0.1,0.5-0.1,1.7,0.7,1.8s1.1-0.9,1.1-1.5
			C46.3,162.1,46.3,160.9,45.5,160.8c-0.2,0-0.6,0.6-0.4,0.6c0.4,0,0.5,0.6,0.5,0.9c0,0.2,0,0.5,0,0.8c0,0.1,0,0.2-0.1,0.3
			c0,0.1-0.1,0.3,0,0.2c-0.4,0.2-0.5-0.7-0.5-0.9s0-0.5,0-0.8c0-0.1,0-0.3,0.1-0.4c0-0.1,0.1-0.1,0-0.1
			C45.4,161.4,45.8,160.8,45.5,160.8z"/>
		<path class="st4" d="M46.6,163.5c0.4,1.3,2.4,0.4,2.1-0.8c-0.2-0.6-0.8-0.5-1.3-0.7c-0.3-0.1-0.3-0.3-0.3-0.5
			c0.1-0.3,0.1-0.3-0.1-0.1c0.1,0,0.1,0,0.2-0.1c0.4-0.1,0.9-0.1,1.2,0.1c0.2,0.1,0.6-0.4,0.4-0.5c-0.5-0.2-1.1-0.2-1.6-0.1
			c-0.5,0.1-0.6,0.6-0.6,1c0,0.6,0.5,0.6,1,0.7c0.3,0.1,0.6,0.1,0.7,0.5c0.1,0.6-0.6,0.5-0.9,0.4c-0.1-0.1-0.2-0.3-0.3-0.4
			C47,162.9,46.5,163.3,46.6,163.5L46.6,163.5z"/>
		<path class="st4" d="M43.5,164.7c0.3-0.2,0.4-0.6,0.5-0.9c0-0.1,0-0.2-0.1-0.3s-0.3,0-0.5,0c-0.1,0.1-0.3,0.2-0.3,0.4
			s0.2,0.1,0.3,0.1l0,0l0,0v0.1c0,0.1,0,0.1-0.1,0.2c0,0,0,0,0,0.1l0,0l0,0c0.1-0.1,0,0,0,0c-0.1,0.1-0.2,0.3-0.1,0.4
			C43.2,165,43.4,164.8,43.5,164.7L43.5,164.7z"/>
	</g>
	<g>
		<path class="st7" d="M38.1,136.3c-0.1,0-0.2-0.2-0.3-0.2c-0.4-0.2-0.7,0.1-1.1,0.1c-0.9,0-1.3,0-2.4-0.3c0-1,0.6-1.6,0.8-2.4
			c0.2-0.7-0.1-1.5-0.1-2.3c0-0.5,0-0.9,0-1.4c-0.3,0.3-0.2,1.2-0.2,1.6c-0.1-0.6-0.1-1.4-0.3-1.9c-0.1,0.6,0,1.3,0,1.9
			c-0.2-0.5-0.2-1.2-0.4-1.6c-0.3,0.5,0.2,1.3,0.1,1.8c-0.2-0.5-0.3-1-0.5-1.5c-0.1,0.6,0.2,1.2,0.2,1.6c-0.2-0.4-0.3-0.8-0.6-1.1
			c0,0.4,0.3,0.9,0.4,1.3c-0.3-0.1-0.4-0.5-0.6-0.6c0,0.3,0.3,0.5,0.4,0.8c-0.2-0.1-0.3-0.3-0.5-0.4c0,0.3,0.3,0.4,0.3,0.6
			c-0.1-0.1-0.3-0.2-0.4-0.3c0,0.2,0.3,0.4,0.3,0.5c0,0-0.2-0.1-0.2,0c0,0,0.2,0.1,0.1,0.2c-0.1,0-0.1,0-0.2,0
			c0,0.2,0.2,0.1,0.1,0.3c-0.1,0-0.1-0.1-0.1,0s0.1,0.1,0.1,0.2c-0.8,0.8-0.4,1.8-0.5,2.8c0.1-0.1-0.7-0.3-1.2-0.5
			c-0.3-0.1-0.4-0.5-0.6-0.6c0-0.1,0.1,0,0.1-0.1c-0.1,0-0.2-0.1-0.2-0.2c0.1,0,0.3,0.1,0.3,0c-0.1-0.1-0.5-0.2-0.5-0.3
			c0.2,0,0.4,0.1,0.5,0.1c-0.2-0.1-0.6-0.3-0.6-0.5c0.2,0.1,0.5,0.3,0.7,0.2c-0.3-0.2-0.8-0.4-0.9-0.7c0.3,0.1,0.6,0.4,0.8,0.4
			c-0.4-0.1-0.7-0.6-1.1-0.6c0.2,0.4,0.8,0.6,0.9,0.8c-0.3-0.2-0.6-0.3-1-0.5c0.1,0.4,0.6,0.5,0.9,0.8c-0.3,0-0.5-0.2-0.8-0.2
			c0.1,0.3,0.6,0.2,0.7,0.5c-0.1-0.1-0.3,0-0.5,0c0,0.2,0.4,0.2,0.5,0.3c-0.2,0-0.3,0-0.4,0.1c0.1,0.1,0.3,0.1,0.4,0.2
			c-0.1,0-0.2,0-0.2,0.1s0.3,0,0.3,0.1c-0.1,0-0.1,0.1-0.1,0.1c0.1,0,0.2,0,0.2,0c-0.1,0-0.1,0-0.1,0.1c0.4,0.2,0.7,0.9,1.3,1.2
			c-0.3,0.2,0.3,0.4-3.5,1.8c0.1,0,1.7-0.4,2.2-0.5c0.5-0.2,0.9-0.3,1.4-0.4c0.1,0,0.2-0.1,0.3-0.1c0.8-0.1,1.5,0.1,2.3-0.4
			c-0.6,0.1-1.6,0.2-2-0.1c0.5-0.8,0.2-2.9,0.6-3.3c0.4-0.4,1.1-1.7,1.9-0.6c0.1,0.2,0.2,0.4-0.1,0.9c-0.4,0.6-0.6,0.8-0.5,2.1
			c0,0.3,0,0.5-0.4,0.5c1.7,0.4,2.2,0.2,3.1,0c0.3,0,0.8-0.3,0.8,0c0,0.1-0.3,0.1-0.6,0.1c-0.5,0,0.2,0.2,0.4,0.2
			c0.1,0,1-0.1,1.5-0.2C38.6,136.4,38.4,136.4,38.1,136.3z"/>
		<path class="st7" d="M33.2,127.7c-3.8,0-6.9,3.1-6.9,6.9c0,3.8,3.1,6.9,6.9,6.9c3.8,0,6.9-3.1,6.9-6.9
			C40.2,130.8,37.1,127.7,33.2,127.7 M33.2,128c3.7,0,6.7,3,6.7,6.7s-3,6.7-6.7,6.7s-6.7-3-6.7-6.7C26.6,131,29.6,128,33.2,128"/>
	</g>
	<g>
		<g>
			<path class="st6" d="M90.3,151.8c-0.7-1.5-1.8-1.1-2.3,0c-1.4,3.2,0.7,3.7,0.9,3.7c0-0.1-0.3-0.4-0.3-1c-0.1-0.1-0.6-0.6-0.6-1
				v-0.2l0.1,0.2c0.1,0.2,0.2,0.6,0.6,0.9c0-0.1,0.1-0.2,0.1-0.4c-0.1-0.1-0.6-0.5-0.6-1v-0.1v-0.3l0.1,0.4c0,0.2,0.2,0.6,0.6,0.9
				l0,0c0.1-0.1,0.1-0.3,0.2-0.4c-0.1-0.1-0.6-0.4-0.7-1.1v-0.1v-0.1l0.1,0.3c0,0.2,0.2,0.8,0.7,0.9c0-0.2,0.1-0.3,0.1-0.5l0,0
				c0,0-0.5-0.2-0.6-1c0,0,0-0.1,0-0.2v-0.1v0.3c0.1,0.2,0.2,0.7,0.5,0.9c0.1-0.8-0.2-1.5-0.2-1.5l-0.1-0.2l0.1,0.1
				c0,0,0.1,0.3,0.2,0.7c0.2-0.3,0.2-0.6,0.2-0.6v-0.1l0.1,0.1c0.1,0.3-0.2,0.7-0.2,0.8c0,0.4,0,0.7,0,1c0.8-0.3,0.9-0.9,0.9-0.9
				V152l0.1,0.2c0,0.7-0.8,1-1,1.1c0,0,0,0,0,0.1l0,0c0,0.1-0.1,0.2-0.1,0.2c0.7,0,1.3-0.8,1.3-0.8l0.1-0.1c0,0,0,0.2-0.1,0.4
				c-0.5,0.7-1.3,0.8-1.3,0.8c-0.1,0.2-0.1,0.3-0.2,0.5c0.2,0,0.9-0.2,1.4-0.6l0,0l0,0l0,0l0.1-0.1l-0.1,0.2
				c-0.2,0.2-0.8,0.7-1.4,0.7c0,0.2,0,0.4,0,0.5c0.1,0,0.1,0,0.2,0c0.6,0,1-0.4,1.2-0.7l0.2-0.2l-0.1,0.3c-0.5,0.8-1.1,0.8-1.3,0.8
				c0,0,0,0-0.1,0c0,0.2,0.2,0.4,0.2,0.5h0.1C90.8,154.2,90.8,152.9,90.3,151.8z"/>
			<path class="st6" d="M94.3,154.5c1-0.9,0.4-1.7-0.6-1.7c-2.8-0.2-2.6,1.5-2.6,1.6c0,0,0.2-0.4,0.7-0.5c0-0.1,0.3-0.6,0.6-0.8
				l0.2-0.1l-0.2,0.1c-0.1,0.1-0.4,0.3-0.5,0.7c0.1,0,0.2,0,0.3,0c0-0.1,0.2-0.6,0.6-0.7h0.1l0.2-0.1l-0.3,0.2
				c-0.2,0.1-0.4,0.3-0.5,0.7l0,0c0.1,0,0.2,0,0.4,0c0-0.1,0.1-0.6,0.6-0.8h0.1h0.1l-0.2,0.1c-0.2,0.1-0.5,0.3-0.5,0.8
				c0.1,0,0.3,0,0.4-0.1l0,0c0,0,0.1-0.4,0.6-0.7c0,0,0,0,0.1,0H94l-0.2,0.1c-0.2,0.1-0.5,0.4-0.5,0.6c0.6-0.2,1.1-0.5,1.1-0.5
				l0.1-0.1l-0.1,0.1c0,0-0.2,0.2-0.5,0.4c0.2,0.1,0.5,0,0.5,0l0.1-0.1l-0.1,0.1c-0.2,0.1-0.6,0-0.7,0c-0.3,0.1-0.5,0.2-0.8,0.2
				c0.5,0.6,0.9,0.4,0.9,0.4h0.1l-0.1,0.1c-0.5,0.2-1-0.4-1.1-0.5c0,0,0,0-0.1,0l0,0c-0.1,0-0.1,0-0.2,0c0.2,0.6,1,0.8,1,0.8h0.1
				c0,0-0.1,0-0.3,0c-0.6-0.2-0.9-0.8-1-0.8s-0.3,0-0.4,0c0.1,0.1,0.4,0.7,0.8,0.9l0,0l0,0l0,0l0.1,0.1h-0.2
				c-0.2-0.1-0.7-0.4-0.9-0.9c-0.1,0-0.3,0.1-0.4,0.1v0.1c0.1,0.4,0.6,0.6,0.8,0.7l0.2,0.1H92c-0.7-0.2-0.9-0.6-1-0.8l0,0
				c-0.1,0.1-0.3,0.3-0.3,0.3v0.1C92.6,155.5,93.6,155.2,94.3,154.5z"/>
			<path class="st6" d="M91.3,156c0.7-0.3,0.5-0.8,0-1c-1.4-0.6-1.6,0.3-1.6,0.3s0.2-0.1,0.4-0.1c0,0,0.3-0.2,0.5-0.3h0.1h-0.1
				c-0.1,0-0.2,0.1-0.4,0.3c0.1,0,0.1,0,0.2,0c0,0,0.2-0.2,0.5-0.3c0,0,0,0,0.1,0h0.1h-0.2c-0.1,0-0.3,0.1-0.4,0.3l0,0
				c0.1,0,0.1,0.1,0.2,0.1c0,0,0.2-0.3,0.5-0.3h0.1h0.1h-0.1c-0.1,0-0.3,0.1-0.4,0.3c0.1,0,0.1,0,0.2,0l0,0c0,0,0.1-0.2,0.4-0.2
				c0,0,0,0,0.1,0h0.1h-0.1c-0.1,0-0.3,0.1-0.4,0.2c0.4,0,0.6-0.1,0.6-0.1h0.1c0,0,0,0-0.1,0.1c0,0-0.1,0.1-0.3,0.1
				c0.1,0.1,0.3,0.1,0.3,0.1h0.1h-0.1c-0.1,0-0.3-0.1-0.3-0.1c-0.2,0-0.3,0-0.4,0c0.1,0.4,0.4,0.4,0.4,0.4L91.3,156l-0.1-0.1
				c-0.3,0-0.4-0.4-0.5-0.4l0,0l0,0h-0.1c0,0.3,0.3,0.6,0.4,0.6h0.1c0,0-0.1,0-0.2-0.1c-0.3-0.2-0.3-0.6-0.3-0.6
				c-0.1,0-0.1-0.1-0.2-0.1c0,0.1,0.1,0.4,0.2,0.6l0,0l0,0l0,0l0.1,0.1l-0.1-0.1c-0.1-0.1-0.3-0.3-0.3-0.6c-0.1,0-0.2,0-0.2,0v0.1
				c0,0.3,0.2,0.4,0.3,0.5l0.1,0.1l-0.1-0.1c-0.3-0.2-0.4-0.5-0.4-0.6l0,0c-0.1,0-0.2,0.1-0.2,0.1v0.1
				C90.2,156.2,90.7,156.2,91.3,156z"/>
			<path class="st6" d="M90.1,158.2c1.3-0.6,1-1.5,0-1.9c-2.7-1.2-3.1,0.5-3.1,0.7c0,0,0.4-0.3,0.9-0.2c0.1-0.1,0.5-0.4,0.9-0.5H89
				l-0.2,0.1c-0.2,0-0.5,0.2-0.7,0.5c0.1,0,0.2,0.1,0.3,0.1c0.1-0.1,0.4-0.5,0.9-0.5h0.1h0.3l-0.4,0.1c-0.2,0-0.5,0.2-0.7,0.5l0,0
				c0.1,0.1,0.2,0.1,0.4,0.2c0.1-0.1,0.3-0.5,0.9-0.6H90h0.1l-0.2,0.1c-0.2,0-0.6,0.1-0.8,0.5c0.1,0,0.3,0.1,0.4,0.1l0,0
				c0,0,0.2-0.4,0.8-0.5h0.1h0.1h-0.2c-0.2,0-0.6,0.2-0.7,0.4c0.7,0.1,1.2-0.1,1.2-0.1l0.1-0.1l-0.1,0.1c0,0-0.3,0.1-0.6,0.2
				c0.2,0.2,0.5,0.2,0.5,0.2h0.1l-0.1,0.1c-0.3,0-0.6-0.2-0.7-0.2c-0.3,0-0.6,0-0.8-0.1c0.3,0.7,0.8,0.7,0.8,0.7L90.1,158.2
				l-0.1-0.1c-0.6,0-0.8-0.7-0.9-0.8c0,0,0,0-0.1,0l0,0c-0.1,0-0.1-0.1-0.2-0.1c0,0.6,0.7,1.1,0.7,1.1l0.1,0.1c0,0-0.1,0-0.3-0.1
				c-0.6-0.4-0.6-1.1-0.6-1.1c-0.1-0.1-0.3-0.1-0.4-0.2c0,0.2,0.2,0.8,0.5,1.2l0,0l0,0l0,0l0.1,0.1l-0.2-0.1
				c-0.1-0.1-0.5-0.7-0.6-1.2c-0.1,0-0.3,0-0.4,0v0.1c0,0.5,0.3,0.8,0.6,1l0.2,0.1l-0.2-0.1c-0.6-0.5-0.7-0.9-0.7-1.1l0,0
				c-0.2,0-0.4,0.2-0.4,0.2v0.1C88.1,158.6,89.1,158.6,90.1,158.2z"/>
			<path class="st6" d="M86.2,154.8c-0.7-1.4-1.7-1-2.1,0.1c-1.2,3,0.7,3.4,0.8,3.4c0,0-0.3-0.4-0.3-0.9c-0.1-0.1-0.5-0.5-0.6-1
				v-0.2l0.1,0.2c0.1,0.2,0.2,0.5,0.6,0.8c0-0.1,0-0.2,0.1-0.3c-0.1-0.1-0.5-0.5-0.6-0.9v-0.1v-0.3l0.1,0.4c0,0.2,0.2,0.5,0.6,0.8
				l0,0c0.1-0.1,0.1-0.3,0.2-0.4c-0.1-0.1-0.6-0.3-0.6-1v-0.1v-0.1l0.1,0.2c0,0.2,0.2,0.7,0.6,0.8c0-0.1,0.1-0.3,0.1-0.4l0,0
				c0,0-0.4-0.2-0.5-0.9v-0.1v-0.1v0.3c0.1,0.2,0.2,0.7,0.5,0.8c0.1-0.8-0.2-1.3-0.2-1.4l-0.1-0.2l0.1,0.1c0,0,0.1,0.3,0.2,0.7
				c0.2-0.2,0.2-0.6,0.2-0.6v-0.1l0.1,0.1c0.1,0.3-0.2,0.7-0.2,0.7c0,0.3,0,0.6,0,0.9c0.8-0.3,0.8-0.9,0.8-0.9v-0.2l0.1,0.2
				c0,0.6-0.8,1-0.9,1c0,0,0,0,0,0.1l0,0c0,0.1-0.1,0.1-0.1,0.2c0.7,0,1.2-0.8,1.2-0.8l0.1-0.1c0,0,0,0.2-0.1,0.3
				c-0.5,0.6-1.2,0.7-1.2,0.8c-0.1,0.1-0.1,0.3-0.2,0.5c0.2,0,0.9-0.2,1.3-0.6l0,0l0,0l0,0l0.1-0.1l-0.1,0.2
				c-0.2,0.1-0.7,0.6-1.3,0.7c0,0.2,0,0.3,0,0.5c0.1,0,0.1,0,0.2,0c0.5,0,0.9-0.4,1.1-0.7l0.1-0.2l-0.1,0.2c-0.5,0.7-1,0.8-1.2,0.8
				c0,0,0,0-0.1,0c0,0.2,0.2,0.4,0.2,0.4h0.1C86.7,157,86.7,155.8,86.2,154.8z"/>
			<path class="st6" d="M85.9,158.4c-0.4-0.9-1-0.6-1.3,0c-0.8,1.9,0.4,2.1,0.5,2.2c0,0-0.2-0.2-0.2-0.6c0,0-0.3-0.3-0.4-0.6v-0.1
				v0.1c0,0.1,0.1,0.3,0.4,0.5c0-0.1,0-0.1,0.1-0.2c-0.1-0.1-0.3-0.3-0.4-0.6V159v-0.2l0.1,0.2c0,0.1,0.1,0.3,0.4,0.5l0,0
				c0-0.1,0.1-0.2,0.1-0.3c-0.1,0-0.4-0.2-0.4-0.6v-0.1v-0.1l0.1,0.1c0,0.1,0.1,0.4,0.4,0.5c0-0.1,0-0.2,0.1-0.3l0,0
				c0,0-0.3-0.1-0.3-0.6c0,0,0,0,0-0.1v-0.1v0.2c0,0.1,0.1,0.4,0.3,0.5c0-0.5-0.1-0.8-0.1-0.9v-0.1l0.1,0.1c0,0,0.1,0.2,0.1,0.4
				c0.1-0.1,0.1-0.4,0.1-0.4v-0.1l0.1,0.1c0,0.2-0.1,0.4-0.1,0.5c0,0.2,0,0.4,0,0.6c0.5-0.2,0.5-0.5,0.5-0.5v-0.1v0.1
				c0,0.4-0.5,0.6-0.6,0.6l0,0l0,0c0,0,0,0.1-0.1,0.1c0.4,0,0.8-0.5,0.8-0.5v-0.1c0,0,0,0.1-0.1,0.2c-0.3,0.4-0.7,0.5-0.8,0.5
				c0,0.1-0.1,0.2-0.1,0.3c0.1,0,0.5-0.1,0.8-0.4l0,0l0,0l0,0l0.1-0.1L86,159c-0.1,0.1-0.4,0.4-0.8,0.4c0,0.1,0,0.2,0,0.3h0.1
				c0.3,0,0.6-0.3,0.7-0.4l0.1-0.1l-0.1,0.2c-0.3,0.4-0.6,0.5-0.8,0.5l0,0c0,0.1,0.1,0.3,0.1,0.3h0.1
				C86.3,159.8,86.3,159.1,85.9,158.4z"/>
			<path class="st6" d="M88.1,162.2c1.3-0.6,1-1.5,0-2c-2.7-1.2-3.2,0.5-3.2,0.7c0,0,0.4-0.3,0.9-0.2c0.1-0.1,0.5-0.5,0.9-0.5h0.2
				l-0.2,0.1c-0.2,0-0.5,0.2-0.8,0.5c0.1,0,0.2,0.1,0.3,0.1c0.1-0.1,0.4-0.5,0.9-0.5h0.1h0.3l-0.4,0.1c-0.2,0-0.5,0.2-0.8,0.5l0,0
				c0.1,0.1,0.2,0.1,0.4,0.2c0.1-0.1,0.3-0.5,0.9-0.6h0.1h0.1l-0.2,0.1c-0.2,0-0.7,0.1-0.8,0.6c0.1,0,0.3,0.1,0.4,0.1l0,0
				c0,0,0.2-0.4,0.8-0.5h0.1h0.1H88c-0.2,0-0.6,0.2-0.7,0.4c0.7,0.1,1.3-0.1,1.3-0.1l0.1-0.1l-0.1,0.1c0,0-0.3,0.1-0.6,0.2
				c0.2,0.2,0.5,0.2,0.5,0.2h0.1l-0.1,0.1c-0.3,0-0.6-0.2-0.7-0.2c-0.3,0-0.6,0-0.8,0c0.3,0.7,0.8,0.8,0.8,0.8h0.1l-0.1,0.1
				c-0.6,0-0.9-0.7-0.9-0.9c0,0,0,0-0.1,0l0,0c-0.1,0-0.1-0.1-0.2-0.1c0,0.6,0.7,1.1,0.7,1.1l0.1,0.1c0,0-0.1,0-0.3-0.1
				c-0.6-0.4-0.7-1.1-0.7-1.1c-0.1-0.1-0.3-0.1-0.4-0.2c0,0.2,0.2,0.8,0.5,1.2l0,0l0,0l0,0l0.1,0.1l-0.2-0.1
				c-0.1-0.1-0.6-0.7-0.6-1.3c-0.2,0-0.3,0-0.5,0c0,0.1,0,0.1,0,0.1c0,0.5,0.4,0.9,0.6,1l0.2,0.1l-0.2-0.1c-0.6-0.5-0.7-1-0.7-1.1
				c0,0,0,0,0-0.1c-0.2,0-0.4,0.2-0.4,0.2v0.1C86,162.7,87.1,162.7,88.1,162.2z"/>
			<path class="st6" d="M87.2,164.5c1.4-0.1,1.3-1,0.4-1.6c-2.4-1.7-3.2-0.4-3.2-0.2c0.1,0,0.4-0.1,0.9,0c0.1,0,0.6-0.3,1-0.2h0.2
				h-0.2c-0.2,0-0.5,0-0.8,0.2c0.1,0,0.2,0.1,0.3,0.2c0.1-0.1,0.5-0.3,1-0.2h0.1l0.3,0.1h-0.4c-0.2,0-0.5,0-0.8,0.3l0,0
				c0.1,0.1,0.2,0.2,0.3,0.2c0.1-0.1,0.4-0.3,1-0.2h0.1h0.1h-0.2c-0.2,0-0.7,0-0.9,0.3c0.1,0.1,0.2,0.1,0.4,0.2l0,0
				c0,0,0.3-0.3,0.9-0.2h0.1l0.1,0.1h-0.2c-0.2,0-0.7,0-0.8,0.2c0.7,0.2,1.2,0.2,1.2,0.2h0.2c0,0-0.1,0-0.1,0.1c0,0-0.3,0-0.7,0
				c0.2,0.2,0.5,0.3,0.5,0.3h0.1H88c-0.3,0-0.6-0.3-0.6-0.4c-0.3,0-0.6-0.1-0.8-0.3C86.7,164.3,87.2,164.4,87.2,164.5l0.1-0.1h-0.2
				c-0.6-0.2-0.7-0.8-0.7-0.9l0,0l0,0c-0.1,0-0.1-0.1-0.2-0.1c-0.1,0.5,0.4,1.1,0.4,1.1l0.1,0.1c0,0-0.1,0-0.3-0.2
				c-0.5-0.5-0.4-1.1-0.4-1.1c-0.1-0.1-0.2-0.2-0.4-0.2c0,0.1,0,0.7,0.2,1.1l0,0l0,0l0,0l0.1,0.1l-0.2-0.1c-0.1-0.2-0.4-0.7-0.3-1.2
				c-0.1-0.1-0.3-0.1-0.4-0.1v0.1c-0.1,0.4,0.2,0.8,0.3,1l0.2,0.2l-0.2-0.1c-0.5-0.6-0.5-1-0.4-1.1l0,0c-0.2,0-0.4,0-0.4,0.1v0.1
				C85.1,164.3,86.2,164.6,87.2,164.5z"/>
			<path class="st6" d="M81.1,156.1c-1.7-0.7-2.1,0.3-1.5,1.6c1.7,3.5,3.5,2.5,3.6,2.3c-0.1,0-0.6-0.1-1-0.6c-0.1,0-0.9-0.1-1.3-0.4
				l-0.2-0.2l0.2,0.1c0.2,0.1,0.6,0.3,1.1,0.3c-0.1-0.1-0.2-0.2-0.2-0.4c-0.1,0-0.8,0-1.3-0.4l-0.1-0.1l-0.3-0.2l0.4,0.3
				c0.2,0.2,0.6,0.3,1.1,0.2l0,0c-0.1-0.2-0.1-0.3-0.2-0.5c-0.1,0-0.7,0.1-1.3-0.4l-0.1-0.1l-0.1-0.1l0.3,0.1
				c0.2,0.2,0.7,0.5,1.2,0.3c-0.1-0.2-0.2-0.3-0.3-0.5l0,0c0,0-0.5,0.2-1.2-0.4c0,0-0.1,0-0.1-0.1l-0.1-0.1l0.2,0.2
				c0.2,0.1,0.8,0.4,1.1,0.3c-0.6-0.7-1.3-1-1.3-1l-0.2-0.1h0.2c0,0,0.3,0.2,0.8,0.4c-0.1-0.4-0.4-0.6-0.4-0.6l-0.1-0.1h0.2
				c0.3,0.2,0.5,0.7,0.5,0.8c0.3,0.3,0.6,0.5,0.8,0.8c0.3-0.8-0.2-1.4-0.2-1.4l-0.1-0.1l0.2,0.1c0.5,0.5,0.3,1.4,0.2,1.5
				c0,0,0,0,0,0.1l0,0c0,0.1,0.1,0.2,0.1,0.3c0.5-0.5,0.2-1.6,0.2-1.6l-0.1-0.1c0,0,0.1,0.1,0.2,0.4c0.2,0.9-0.2,1.5-0.2,1.6
				c0.1,0.2,0.2,0.4,0.3,0.5c0.1-0.2,0.5-0.8,0.4-1.4v-0.1l0,0l0,0v-0.2l0.1,0.3c0,0.2,0,1.1-0.4,1.6c0.1,0.2,0.3,0.3,0.4,0.4
				l0.1-0.1c0.4-0.4,0.3-1,0.2-1.4l-0.1-0.3l0.1,0.3c0.3,1-0.1,1.4-0.2,1.6l0,0c0.2,0.1,0.5,0.2,0.5,0.2l0.1-0.1
				C83.5,157.7,82.5,156.7,81.1,156.1z"/>
			<path class="st6" d="M83.9,164.6c0.8,0.4,1.1-0.1,0.8-0.7c-0.7-1.8-1.6-1.4-1.7-1.3c0,0,0.3,0.1,0.5,0.4c0.1,0,0.4,0.1,0.6,0.3
				l0.1,0.1l-0.1-0.1c-0.1-0.1-0.3-0.2-0.5-0.2c0,0.1,0.1,0.1,0.1,0.2c0.1,0,0.4,0,0.6,0.2c0,0,0,0,0.1,0l0.1,0.1l-0.2-0.2
				c-0.1-0.1-0.3-0.2-0.6-0.2l0,0c0,0.1,0.1,0.2,0.1,0.2c0.1,0,0.4,0,0.6,0.2l0,0l0.1,0.1l-0.1-0.1c-0.1-0.1-0.3-0.3-0.6-0.2
				c0,0.1,0.1,0.2,0.1,0.2l0,0c0,0,0.3-0.1,0.6,0.2c0,0,0,0,0.1,0.1v0.1l-0.1-0.1c-0.1-0.1-0.4-0.3-0.5-0.2c0.3,0.4,0.6,0.6,0.6,0.6
				h0.1h-0.1c0,0-0.2-0.1-0.4-0.3c0,0.2,0.1,0.3,0.1,0.3h0.1h-0.1c-0.1-0.1-0.2-0.4-0.2-0.4c-0.1-0.1-0.3-0.3-0.3-0.4
				c-0.2,0.4,0,0.7,0,0.7l0.1,0.1l-0.1-0.1c-0.2-0.3-0.1-0.7,0-0.8l0,0l0,0v-0.1c-0.3,0.2-0.2,0.8-0.2,0.8v0.1c0,0-0.1-0.1-0.1-0.2
				c-0.1-0.4,0.2-0.7,0.2-0.8s-0.1-0.2-0.1-0.3c-0.1,0.1-0.3,0.4-0.3,0.7l0,0l0,0l0,0v0.1v-0.1c0-0.1,0-0.5,0.3-0.8
				c-0.1-0.1-0.1-0.2-0.2-0.2c0,0,0,0-0.1,0c-0.2,0.2-0.2,0.5-0.2,0.7v0.1l-0.1-0.1c-0.1-0.5,0.1-0.7,0.2-0.8l0,0
				c-0.1-0.1-0.2-0.1-0.3-0.1l0,0C82.8,163.7,83.2,164.3,83.9,164.6z"/>
		</g>
		<g>
			<path class="st6" d="M84.4,159.2c0-0.1,0.1-0.2,0.1-0.3c-2.5,2.6-3.8,5.1-3.8,5.1l0.2,0.1c0,0,1.1-2.3,3.4-4.7
				C84.4,159.3,84.4,159.3,84.4,159.2z"/>
			<path class="st6" d="M91.1,154.5c-0.1,0,0.2-0.3,0.2-0.3l-0.1,0.1c-2.3,1-4.2,2.3-5.7,3.7c0.1,0,0.1,0.1,0.2,0.2
				c1.5-1.4,3.3-2.7,5.6-3.7C91.7,154.3,91.2,154.5,91.1,154.5z"/>
			<path class="st8" d="M85.7,162.1c-0.4,0.8-1.3,1.2-2.1,0.8c-0.8-0.4-1.2-1.3-0.8-2.1c0.4-0.8,1.3-1.2,2.1-0.8
				C85.7,160.3,86,161.3,85.7,162.1"/>
			<path class="st9" d="M85.4,161.1c-0.1,0.2-0.4,0.1-0.7-0.1c-0.2-0.2-0.3-0.5-0.1-0.7c0.1-0.2,0.4-0.1,0.7,0.1
				C85.5,160.7,85.5,161,85.4,161.1"/>
			<path class="st8" d="M83.2,161.9c0.5,0.6,0.3,1.6-0.3,2c-0.6,0.5-1.6,0.3-2-0.3c-0.5-0.6-0.3-1.6,0.3-2
				C81.8,161.1,82.7,161.2,83.2,161.9"/>
			<path class="st9" d="M82.3,161.7c0.1,0.2-0.1,0.4-0.4,0.5s-0.5,0-0.6-0.2s0.1-0.4,0.4-0.5C82,161.4,82.2,161.5,82.3,161.7"/>
			<path class="st8" d="M82.1,159.4c0.3,0.5,0.2,1.1-0.2,1.5c-0.5,0.3-1.1,0.2-1.5-0.2c-0.3-0.5-0.2-1.1,0.2-1.5
				C81.1,158.9,81.8,159,82.1,159.4"/>
			<path class="st9" d="M81.4,159.3c0,0.1-0.1,0.3-0.3,0.4c-0.2,0.1-0.4,0-0.4-0.1s0.1-0.3,0.3-0.4
				C81.2,159.1,81.4,159.1,81.4,159.3"/>
			<path class="st8" d="M84.2,157.3c0.3,0.5,0.2,1.1-0.2,1.5c-0.5,0.3-1.1,0.2-1.5-0.2c-0.3-0.5-0.2-1.1,0.2-1.5
				C83.2,156.8,83.9,156.9,84.2,157.3"/>
			<path class="st9" d="M83.6,157.2c0,0.1-0.1,0.3-0.3,0.4c-0.2,0.1-0.4,0-0.4-0.1s0.1-0.3,0.3-0.4S83.5,157,83.6,157.2"/>
			<path class="st8" d="M86.7,153.8c0.6,0.1,1,0.6,0.9,1.2c-0.1,0.6-0.6,1-1.2,0.9s-1-0.6-0.9-1.2S86.1,153.8,86.7,153.8"/>
			<path class="st9" d="M86.1,154.2c0.1,0.1,0.2,0.3,0.1,0.4c-0.1,0.2-0.3,0.3-0.4,0.2s-0.2-0.3-0.1-0.4
				C85.8,154.2,86,154.1,86.1,154.2"/>
			<path class="st8" d="M87.5,160.3c-0.6,0.4-1.4,0.3-1.8-0.3s-0.3-1.4,0.3-1.8c0.6-0.4,1.4-0.3,1.8,0.3
				C88.2,159,88,159.8,87.5,160.3"/>
			<path class="st9" d="M87.7,159.4c-0.2,0.1-0.4-0.1-0.4-0.3c-0.1-0.2,0-0.5,0.2-0.5c0.2-0.1,0.4,0.1,0.4,0.3
				C87.9,159.2,87.8,159.4,87.7,159.4"/>
		</g>
	</g>
	<g>
		<g>
			<g>
				<path class="st4" d="M70.7,153.8c0.2,0.2,0.5,0.5,0.7,0.1c0.2-0.2,0.2-0.5,0.1-0.8c-0.1-0.3-0.2-0.6-0.4-0.9
					c-0.1-0.2-0.3-0.5-0.4-0.8c-0.1,0.1-0.2,0.2-0.3,0.3c0.2,0.7,0.9,1.1,1.4,1.7c0.2,0.2,0.4-0.4,0.3-0.5c-0.4-0.5-0.6-1.2-0.8-1.9
					c-0.1,0.1-0.2,0.2-0.3,0.4c0.1,0.4,1.3,2.3,1.9,1.1c0.1-0.2,0-0.7-0.2-0.3c-0.1,0.2-0.7-0.3-0.8-0.4c-0.2-0.2-0.5-0.5-0.6-0.9
					c-0.1-0.3-0.3,0.2-0.3,0.4c0.1,0.7,0.4,1.5,0.8,2.1c0.1-0.2,0.2-0.4,0.3-0.5c-0.2-0.3-0.5-0.5-0.7-0.7s-0.5-0.5-0.6-0.8
					s-0.3,0.2-0.3,0.3c0,0.4,0.3,0.7,0.4,1c0.1,0.2,0.2,0.4,0.3,0.7v0.1c0.1-0.1,0.1-0.1-0.1-0.1c-0.1,0-0.2-0.2-0.3-0.3
					C70.8,153.1,70.6,153.7,70.7,153.8L70.7,153.8z"/>
			</g>
			<g>
				<path class="st4" d="M60.2,154.7c-0.1-0.4-0.3-0.8-0.8-0.5s-0.7,0.9-0.8,1.4c-0.1,0.4,0.1,0.9,0.7,1c0.6,0,1.1-0.3,1.5-0.6
					c0.3-0.2,0.1-0.4-0.2-0.2c-0.4,0.3-1.3,0.7-1.4-0.1c-0.1-0.3,0-0.6,0.1-0.8c0-0.2,0.1-0.3,0.2-0.5c-0.1,0.1,0.1,0.4,0.1,0.5
					C59.7,155.2,60.3,154.9,60.2,154.7L60.2,154.7z"/>
			</g>
			<g>
				<path class="st4" d="M53.3,151.8c0.1-0.3,0.1-0.7-0.3-0.8c-0.5-0.1-0.9,0.2-1.3,0.5c-0.3,0.3-0.6,0.7-0.4,1.2
					c0.2,0.5,0.7,0.6,1.1,0.6c0.4,0,0.3-0.3-0.1-0.3c-0.6,0-0.4-0.8-0.2-1c0.1-0.2,0.3-0.3,0.4-0.5c0.1,0,0.1-0.1,0.2-0.1
					c0.2-0.1,0.2-0.1,0.1,0c0.1,0.1,0,0.3-0.1,0.4C52.6,151.9,53.2,151.9,53.3,151.8L53.3,151.8z"/>
			</g>
			<g>
				<path class="st4" d="M66.1,154.2c0.2,0.7,0.5,1.3,0.6,2c0.1,0.3,0.5-0.2,0.5-0.4c-0.1-0.4,0-0.6,0.2-1s0.2-0.8,0.1-1.2
					c0-0.3-0.3,0.1-0.3,0.3c0,0.4,0.1,0.8,0.2,1.1c0.1,0.3,0.2,0.7,0.5,0.9c0.2,0.2,0.6-0.2,0.7-0.4c0.2-0.4,0.2-0.9,0.1-1.3
					c-0.1-0.2-0.3,0.2-0.3,0.4c0,0.1,0,0.9-0.1,0.9s-0.2-0.3-0.3-0.4c-0.2-0.4-0.4-0.9-0.4-1.4c-0.1,0.1-0.2,0.2-0.3,0.3
					c0,0.4,0,0.7-0.2,1.1c-0.2,0.4-0.2,0.8-0.2,1.2c0.2-0.1,0.3-0.3,0.5-0.4c-0.2-0.7-0.4-1.3-0.7-2C66.4,153.6,66,154.1,66.1,154.2
					L66.1,154.2z"/>
			</g>
			<g>
				<path class="st4" d="M60.6,154.6c0,0.7-0.1,1.4-0.2,2.1c0,0.3,0.5,0,0.5-0.2c0.1-0.4,0.2-0.6,0.5-0.9c0.3-0.3,0.4-0.7,0.5-1.1
					c0.1-0.3-0.3,0-0.4,0.1c-0.1,0.4-0.2,0.8-0.2,1.1s-0.1,0.7,0.1,1c0.1,0.2,0.4,0.1,0.5,0.1c0.4-0.2,0.7-0.5,0.8-0.9
					c0.1-0.3-0.3-0.1-0.4,0c-0.1,0.2-0.2,0.5-0.5,0.5c-0.1,0-0.1-0.3-0.1-0.4c0-0.5,0-1.1,0.1-1.5c-0.1,0-0.2,0.1-0.4,0.1
					c-0.1,0.4-0.3,0.7-0.6,1s-0.4,0.7-0.5,1.1c0.2-0.1,0.3-0.1,0.5-0.2c0.1-0.7,0.1-1.4,0.1-2.1C61.1,154.2,60.6,154.5,60.6,154.6
					L60.6,154.6z"/>
			</g>
			<g>
				<g>
					<path class="st4" d="M54.8,154.7c-0.2,0.5,0.2,0.8,0.7,0.7s0.7-0.6,0.9-1c0.1-0.3,0.3-0.8,0-1.1c-0.1-0.1-0.4-0.1-0.5-0.1
						c-0.3,0.1-0.5,0.3-0.7,0.6c-0.1,0.2,0.4,0.1,0.5,0c0.1-0.3,0.3-0.3,0.3,0c0,0.2,0,0.4-0.1,0.6c-0.1,0.2-0.2,0.4-0.3,0.6
						c0,0.1-0.1,0.1-0.2,0.2c0,0,0,0,0-0.1c-0.1-0.1-0.1-0.2-0.1-0.4C55.5,154.4,54.9,154.5,54.8,154.7L54.8,154.7z"/>
				</g>
				<g>
					<path class="st4" d="M55.6,152.8c-0.4,1.2-1,2.4-1.7,3.5c-0.1,0.2,0.5,0.2,0.6,0c0.7-1.1,1.3-2.4,1.7-3.6
						C56.2,152.5,55.7,152.6,55.6,152.8L55.6,152.8z"/>
				</g>
			</g>
			<g>
				<path class="st4" d="M55.3,152.5c-0.7-0.2-1.3,0.3-1.6,0.9c-0.2,0.4-0.3,1.4,0.5,1.2c0.9-0.2,1.3-1.4,1.2-2.2
					c0-0.2,0-0.4-0.1-0.7c0-0.1,0-0.2,0-0.3s0-0.1,0.1-0.2c-0.2,0-0.2,0.1-0.1,0.1c0.3,0.3,0.5,0.6,0.9,0.7c0.2,0,0.6-0.3,0.3-0.3
					c-0.5,0-0.6-0.8-1.1-0.8c-0.4,0-0.6,0.4-0.6,0.9c0,0.4,0.1,0.8,0,1.2c0,0.1-0.5,1.3-0.7,1.2c-0.4-0.4,0.4-1.6,0.8-1.5
					C55.1,152.9,55.6,152.6,55.3,152.5L55.3,152.5z"/>
			</g>
			<g>
				<path class="st4" d="M64.1,156.3c-0.2,0.3-0.4-0.7-0.4-0.7c-0.1-0.4-0.1-0.8-0.1-1.2c0-0.3-0.4,0.1-0.4,0.3c0,0.3,0,0.7,0,1
					c0,0.2,0,0.4,0,0.5c0,0.2,0,0.3-0.2,0.2c-0.4-0.3-0.2-1.4-0.2-1.8c0.1-0.3-0.3,0-0.4,0.2c-0.1,0.4-0.4,2.3,0.4,2.2
					c1-0.2,0.7-1.8,0.7-2.5c-0.1,0.1-0.3,0.2-0.4,0.3c0,0.6,0,1.3,0.2,1.8s0.7,0.2,0.9-0.1C64.6,156.1,64.4,156,64.1,156.3
					L64.1,156.3z"/>
			</g>
			<g>
				<g>
					<path class="st4" d="M69.2,152.7c0.1,0.6,0.4,1.1,0.7,1.6c0.1,0.1,0.2,0.3,0.4,0.3c0.3,0,0.4-0.4,0.5-0.6
						c0.1-0.4-0.2-0.4-0.3,0c-0.1,0.3-0.5-0.4-0.6-0.5c-0.2-0.3-0.4-0.7-0.5-1.1C69.4,152.1,69.2,152.5,69.2,152.7L69.2,152.7z"/>
				</g>
				<g>
					<path class="st4" d="M68.6,154.9c0.1-0.2,0.4-0.5,0.7-0.3c0.2,0.2-0.1,0.2-0.2,0.2c-0.5-0.2-0.7-1.2-0.8-1.7
						c-0.1-0.3-0.3,0.1-0.3,0.3c0.1,0.5,0.6,2.7,1.4,1.8c0.3-0.3,0.3-0.8,0.2-1.1c-0.3-0.5-0.8,0-1,0.3c-0.1,0.1-0.2,0.3-0.2,0.4
						C68.4,154.9,68.5,155,68.6,154.9L68.6,154.9z"/>
				</g>
			</g>
			<g>
				<path class="st4" d="M66.1,156c-0.5,0.1-0.5-1.6-0.5-1.9c0-0.2-0.4,0.2-0.4,0.3s0,0.2-0.1,0.4s-0.2,0.1-0.3,0s-0.1-0.3-0.1-0.4
					c0-0.3-0.3,0-0.4,0.1c-0.1,0.1-0.2,0.3-0.3,0.4c-0.2,0.3,0.2,0.3,0.3,0c0.1-0.1,0.2-0.3,0.3-0.5c-0.1,0-0.2,0.1-0.4,0.1
					c0,0.4,0.1,1.1,0.8,0.7c0.4-0.2,0.5-0.7,0.5-1.1c-0.1,0.1-0.3,0.2-0.4,0.3c0,0.4-0.1,2.2,0.6,2.1C66,156.4,66.3,155.9,66.1,156
					L66.1,156z"/>
			</g>
			<g>
				<path class="st4" d="M65.8,156.5c0.3-0.1,0.5-0.3,0.6-0.5c0.2-0.2,0.4-0.5,0.6-0.7c0-0.1,0.1-0.3,0-0.3s-0.3,0.1-0.3,0.2
					c-0.1,0.2-0.2,0.3-0.4,0.5c-0.1,0.1-0.2,0.2-0.2,0.2L66,156c-0.2,0.1-0.3,0.2-0.3,0.3C65.7,156.4,65.7,156.5,65.8,156.5
					L65.8,156.5z"/>
			</g>
			<g>
				<g>
					<path class="st4" d="M57.1,153.7c-0.1,0.4-1.2,2-0.3,2.2c1.1,0.2,1.6-1.4,1.8-2c0.1-0.2-0.5-0.1-0.5,0.1
						c-0.2,0.4-0.3,0.8-0.6,1.2c-0.1,0.1-0.2,0.5-0.4,0.3s0.1-0.7,0.2-1c0.1-0.3,0.3-0.6,0.4-1C57.7,153.4,57.2,153.5,57.1,153.7
						L57.1,153.7z"/>
				</g>
				<g>
					<path class="st4" d="M58.1,154c-0.1,0.5-0.8,3.6-1.3,3.4c-0.7-0.3,0.8-1.2,1-1.3c0.4-0.2,0.9-0.4,1.3-0.6
						c0.3-0.2,0.1-0.4-0.2-0.2c-0.8,0.4-1.6,0.6-2.2,1.1c-0.3,0.2-1.1,1-0.3,1.3c0.6,0.3,1.2-0.2,1.4-0.5c0.6-0.9,0.6-2.3,0.9-3.3
						C58.7,153.7,58.1,153.9,58.1,154L58.1,154z"/>
				</g>
			</g>
			<g>
				<path class="st4" d="M56.1,153.5c0.2,0.4,0.9,0.4,1.3,0.3c0.2-0.1,0.3-0.3,0-0.2c-0.2,0.1-0.8,0-0.9-0.3
					C56.4,153.2,56,153.4,56.1,153.5L56.1,153.5z"/>
			</g>
		</g>
	</g>
	<g>
		<g>
			<g>
				<path class="st4" d="M64.5,159.8c0.1,0.2,0.3,0.6,0.7,0.4c0.2-0.1,0.3-0.4,0.4-0.6c0-0.3,0-0.6-0.1-0.9c0-0.2-0.2-0.6-0.1-0.8
					c-0.1,0.1-0.2,0.1-0.3,0.2c0,0.7,0.5,1.3,0.7,2c0.1,0.2,0.4-0.2,0.4-0.4c-0.2-0.6-0.2-1.3-0.2-1.9c-0.1,0.1-0.2,0.2-0.3,0.2
					c0,0.4,0.6,2.6,1.4,1.7c0.2-0.2,0.2-0.7-0.1-0.4c-0.2,0.2-0.6-0.5-0.6-0.6c-0.2-0.3-0.3-0.7-0.3-1s-0.3,0.1-0.3,0.2
					c0,0.7,0,1.5,0.1,2.1c0.1-0.1,0.3-0.2,0.4-0.4c-0.1-0.3-0.3-0.6-0.5-0.9c-0.1-0.3-0.3-0.6-0.3-0.9c0-0.3-0.3,0.1-0.3,0.2
					c-0.1,0.3,0,0.7,0.1,1c0,0.2,0,0.5,0,0.7v0.1c0.1-0.1,0.1-0.1,0-0.1c-0.1-0.1-0.2-0.2-0.2-0.3C64.8,159.3,64.4,159.7,64.5,159.8
					L64.5,159.8z"/>
			</g>
			<g>
				<path class="st4" d="M59.5,158.2c0-0.5-0.2-0.7-0.7-0.5s-0.8,0.9-1,1.4c-0.3,1.2,1.5,0.8,1.9,0.2c0.1-0.1,0-0.2-0.1-0.2
					s-0.3,0.1-0.3,0.2c-0.4,0.4-1,0.2-0.9-0.3c0-0.2,0.1-0.5,0.2-0.7c0.1-0.1,0.2-0.3,0.3-0.4c-0.1,0.1,0,0.3,0,0.4
					C59,158.6,59.5,158.4,59.5,158.2L59.5,158.2z"/>
			</g>
			<g>
				<path class="st4" d="M60.5,158c-0.5,0-0.8,0.5-1,0.9c-0.1,0.3-0.4,1.2,0.2,1.4c0.6,0.2,1.1-0.5,1.2-0.9
					C60.9,159,61,158.2,60.5,158c-0.1,0-0.5,0.3-0.3,0.4c0.3,0.1,0.3,0.5,0.2,0.7c0,0.2,0,0.4-0.1,0.5c0,0.1-0.1,0.1-0.1,0.2
					c0,0.1-0.2,0.2-0.1,0.1c-0.3,0.1-0.3-0.6-0.3-0.7c0-0.2,0.1-0.3,0.1-0.5c0-0.1,0.1-0.2,0.1-0.3c0.1-0.1,0.1-0.1,0-0.1
					C60.3,158.4,60.7,158,60.5,158z"/>
			</g>
			<g>
				<path class="st4" d="M63.6,158.1c-0.5,0.1-0.7,0.8-0.7,1.2s0,1.3,0.6,1.3c0.7,0,0.9-0.8,0.9-1.2
					C64.3,158.9,64.2,158.1,63.6,158.1c-0.2,0-0.4,0.5-0.2,0.5c0.3,0,0.4,0.4,0.5,0.6c0.1,0.2,0.1,0.4,0.1,0.5s0,0.2,0,0.2
					c0,0.1-0.1,0.2,0,0.2c-0.3,0.2-0.5-0.5-0.5-0.6c0-0.2,0-0.4,0-0.5s0-0.2,0-0.3s0.1-0.1,0-0.1C63.6,158.5,63.8,158,63.6,158.1z"
					/>
			</g>
			<g>
				<path class="st4" d="M61.3,158.2c0.1,0.8-0.1,1.5-0.2,2.3c0,0.3,0.5,0,0.5-0.2c0.1-0.4,0.1-0.7,0.2-1c0.1-0.2,0.1-0.7,0.4-0.5
					c0.1-0.1,0.2-0.3,0.4-0.4c-0.7-0.5-1.2,0.7-1.3,1.2c0,0.1,0.1,0.1,0.2,0.1c0.5-0.2,0.2,0.7,0.5,0.9s0.9-0.3,1.1-0.5
					c0.3-0.2,0-0.4-0.2-0.2c-0.3,0.2-0.4,0.3-0.5,0c0-0.2,0-0.3-0.1-0.5c-0.1-0.3-0.4-0.2-0.7-0.1c0.1,0,0.1,0,0.2,0.1
					c0-0.2,0.1-0.9,0.4-0.7c0.2,0.1,0.5-0.3,0.4-0.4c-1-0.7-1.5,1.6-1.6,2.1c0.2-0.1,0.4-0.1,0.5-0.2c0.1-0.8,0.2-1.5,0.1-2.4
					C61.7,157.8,61.3,158,61.3,158.2L61.3,158.2z"/>
			</g>
			<g>
				<path class="st4" d="M60.3,158.3c0.3,0.2,0.9,0.2,1.2,0.1c0.2-0.1,0.2-0.4,0-0.2c-0.2,0.1-0.7,0.1-0.8-0.1
					C60.5,158,60.2,158.3,60.3,158.3L60.3,158.3z"/>
			</g>
		</g>
	</g>
</g>
</svg>
