<svg xmlns="http://www.w3.org/2000/svg" viewBox="0 0 351.2 305"><style>.st0{fill:#519E38;} .st1{fill:#F4F4F4;} .st2{fill:#D6D6D6;} .st3{fill:#EAEAEA;} .st4{fill:#FFFFFF;} .st5{fill:#99C5E9;} .st6{fill:#62BA47;} .st7{fill-rule:evenodd;clip-rule:evenodd;fill:#99C5E9;} .st8{fill-rule:evenodd;clip-rule:evenodd;fill:#62BA47;} .st9{fill:#62BA46;} .st10{fill-rule:evenodd;clip-rule:evenodd;fill:#DA1B51;} .st11{fill-rule:evenodd;clip-rule:evenodd;fill:#F1788A;} .st12{fill:#483290;} .st13{fill:#712F8F;}</style><g id="butylka_2"><path class="st0" d="M287.1 243v-99.6c0-35.1-14.6-48.4-14.6-48.4 3.9-21.7-6.5-28.2-6.5-28.2V59h2.2V47.8c0-2.8-3.9-2.5-3.9-2.5H234.4s-3.9-.3-3.9 2.5V59h2.3v7.8h-.1s-10.4 6.5-6.5 28.2c0 0-14.6 13.4-14.6 48.4V243s-1.5 21.4 14.3 21.4H273c15.6 0 14.1-21.4 14.1-21.4z"/><path class="st1" d="M279.5 238v-99.6c0-35.1-14.6-48.4-14.6-48.4 3.9-21.7-6.5-28.2-6.5-28.2v-8h-33v8h-.1s-10.4 6.5-6.5 28.2c0 0-14.6 13.4-14.6 48.4V238s-1.5 21.4 14.3 21.4h46.8c15.7 0 14.2-21.4 14.2-21.4z"/><path class="st2" d="M256.7 40.3H226.8s-3.9-.3-3.9 2.5V54h37.5V42.8c.2-2.8-3.7-2.5-3.7-2.5z"/><path class="st3" d="M279.4 238v-99.6c0-35.1-14.6-48.4-14.6-48.4 3.9-21.7-6.5-28.2-6.5-28.2v-8h-16.6v205.6H265.1c15.8 0 14.3-21.4 14.3-21.4z"/><path class="st4" d="M216.5 126.9h-.5c-2.3-.3-3.9-2.4-3.6-4.7 1.9-14.4 8.8-23.1 9.1-23.5 1.4-1.8 4.1-2.1 5.9-.6 1.8 1.4 2.1 4.1.6 5.8-.1.1-5.8 7.4-7.4 19.3-.3 2.1-2.1 3.7-4.1 3.7z"/><g><path class="st0" d="M159.8 243v-99.6c0-35.1-14.6-48.4-14.6-48.4 3.9-21.7-6.5-28.2-6.5-28.2V59h2.2V47.8c0-2.8-3.9-2.5-3.9-2.5H107.1s-3.9-.3-3.9 2.5V59h2.3v7.8h-.1S95 73.3 98.9 95c0 0-14.6 13.4-14.6 48.4V243s-1.5 21.4 14.3 21.4H145.5c15.8 0 14.3-21.4 14.3-21.4z"/><path class="st1" d="M152.2 238v-99.6c0-35.1-14.6-48.4-14.6-48.4 3.9-21.7-6.5-28.2-6.5-28.2v-8h-33v8H98S87.6 68.3 91.5 90c0 0-14.6 13.4-14.6 48.4V238s-1.5 21.4 14.3 21.4H138c15.6 0 14.2-21.4 14.2-21.4z"/><path class="st2" d="M129.4 40.3H99.6s-3.9-.3-3.9 2.5V54h37.5V42.8c.1-2.8-3.8-2.5-3.8-2.5z"/><path class="st3" d="M152.1 238v-99.6c0-35.1-14.6-48.4-14.6-48.4 3.9-21.7-6.5-28.2-6.5-28.2v-8h-16.6v205.6H137.8c15.8 0 14.3-21.4 14.3-21.4z"/><path class="st4" d="M89.1 126.9h-.5c-2.3-.3-3.9-2.4-3.6-4.7 1.9-14.4 8.8-23.1 9.1-23.5 1.4-1.8 4.1-2.1 5.9-.6 1.8 1.4 2.1 4.1.6 5.8-.1.1-5.8 7.4-7.4 19.3-.2 2.1-2 3.7-4.1 3.7z"/></g><g><circle class="st5" cx="243.4" cy="171.7" r="20"/><circle class="st6" cx="227.4" cy="189.5" r="6.3"/><path class="st7" d="M233.9 147.3c0 1.4-1.1 2.5-2.6 2.5-1.4 0-2.6-1.1-2.6-2.5s1.1-2.6 2.6-2.6 2.6 1.2 2.6 2.6z"/><path class="st8" d="M234 155.9c0 1.8-1.5 3.3-3.3 3.3s-3.3-1.5-3.3-3.3c0-1.8 1.5-3.3 3.3-3.3s3.3 1.5 3.3 3.3zM225.2 150.8c0 1.1-.9 1.9-1.9 1.9-1.1 0-2-.9-2-1.9 0-1.1.9-2 2-2 1.1.1 1.9 1 1.9 2z"/><circle class="st6" cx="260.4" cy="153.5" r="11"/><path class="st4" d="M257.7 151.9c-.9.1-1.2 1.2-1.2 1.9v.3c0 .4 0 .6-.1 1 0 .1-.1.4-.1.4-.3 0-.6-.5-.7-.7-.2-.6-.4-1.2-.5-1.7-.1-.6-.2-1.3-.2-1.9v-.8-.3-.2c.1-.5-.6 0-.7.2-.7 1.3-.5 2.8-.5 4.2 0 .4 0 .8-.1 1.1 0 .3-.1.7-.3.9-.1.1-.4 0-.5 0-.2-.1-.3-.3-.3-.5s-.3-.1-.4 0c-.2.2-.3.4-.3.6.1.5.5.9 1 .8.8-.2 1.2-1.2 1.4-2 .1-.4.1-.7.2-1.1.1.5.3 1.1.5 1.6.2.4.5.7 1 .7.3-.1.6-.4.8-.8.2.4.4.6.8.6.5 0 .8-.5 1-.9.2-.4.3-.9.3-1.4 0-.7-.1-2.1-1.1-2zm.3 3.2c0 .1 0 .2-.1.3-.2 0-.3-.3-.4-.4-.1-.3-.2-.6-.2-1v-1c0-.1 0-.2.1-.3.5.3.6.9.6 1.4.1.3.1.7 0 1zM268.6 153.2c-1-.4-1.5 1-1.7 1.7-.2.7-.4 1.9.5 2.3.4.2.9-.1 1.2-.4.3-.3.5-.8.6-1.2.2-.7.3-2-.6-2.4zm-.5 3.2c0 .1-.1.2-.1.2-.2-.1-.2-.4-.2-.5-.1-.3 0-.7 0-1 .1-.3.2-.7.3-1 0-.1.1-.2.1-.2.4.4.3 1 .2 1.6l-.3.9zM266 153.4c.2-.2.4-.5.5-.8.4-.5.7-1.2.7-1.9 0-.6-.9-.7-1.3-.5-.6.3-1 1-1.2 1.6-.2.9-.4 1.7-.4 2.6-.3.4-1 1.1-1.5.8-.1-.1-.2-.2-.2-.4.4-.4.8-.9 1.1-1.4.3-.4.5-1.2-.1-1.5-.5-.3-1.1 0-1.4.4-.3.4-.5.9-.5 1.4 0 .3-.1.7 0 1.1-.3.2-.6.3-1 .2-.4-.1-.5-.5-.6-.8-.1-.5-.1-.9 0-1.4 0-.1.1-.3.1-.4v-.1c.2.1.3.5.4.6.1.3.9-.2.8-.5-.1-.3-.2-.7-.6-.8-.3-.2-.8.1-1 .3-.6.6-.7 1.5-.6 2.3 0 .5.1 1.1.6 1.4.6.4 1.4 0 2-.3.2.4.4.6.9.6.6-.1 1.1-.4 1.6-.8 0 .4.1.9.4 1.1.5.3 1.2 0 1.5-.5.4-.6.7-1.4.4-2.1-.1-.1-.3-.2-.6-.2zm-3.3-.4c0-.1.1-.3.2-.4.2.1.3.4.3.6-.1.4-.3.7-.6 1.1v-.2c-.1-.4-.1-.7.1-1.1zm3.1-1.8c.1-.1.1-.3.2-.4.4.4 0 1-.2 1.4-.2.4-.4.8-.7 1.2.1-.4.1-.8.2-1.1.2-.4.4-.7.5-1.1zm-.2 4.5s-.1.1-.1.2h-.1c-.2-.1-.3-.7-.3-.9v-.6c.1-.1.2-.2.3-.4.2-.1.4.1.4.4.1.5 0 1-.2 1.3zM232.3 188.2c-.6 1-1.3 1.8-2 2.7-.3.4.2.4.4.1.7-.9 1.5-1.9 2.1-2.9.3-.4-.3-.2-.5.1zM231.3 187.9c-.4 0-.6.3-.7.7-.1.3.1.6.4.6.7 0 1.1-1.3.3-1.3-.2 0-.4.4-.2.4s.3.2.3.3v.2h-.1c-.2 0-.3-.1-.3-.3v-.2h.1c.1 0 .4-.4.2-.4zM232.3 189.9c-.4 0-.6.3-.7.7-.1.3.1.6.4.6.7 0 1.1-1.2.3-1.3-.2 0-.4.4-.2.4s.3.2.3.3v.2h-.1c-.2 0-.3-.1-.3-.3v-.2h.1c.1 0 .4-.4.2-.4zM258.7 175.3c-.2 0-.4.1-.5.2-.3-1.1 0-2.2.3-3.1.1-.5-.3-.9-.8-1-.5-.1-1 .2-1.3.5-.4.4-.7 1.1-.8 1.7-.1.5-.4.8-.5.8-.3-.1-.2-.5-.2-.7 0-.4 0-.8-.2-1.1-.1-.3-.4-.3-.7-.3.3-.9.5-1 .6-1.1.2.1.3.2.3.2.3.3 1.2-.2.9-.5-.3-.4-.7-.5-1.1-.4-.3 0-.5.2-.7.4l-.1.1v-1.4c0-.4-1 0-1 .4 0 .2.1.5.1.7 0 1-.3 2.1-1.1 2.9v-.3c0-.7.2-1.3.2-2 0-.4.1-1-.2-1.4-.3-.4-1 0-1.2.2l-.1.1c0-.2-.1-.5-.3-.7-.2-.2-.6-.1-.8 0-.2.1-.3.2-.4.3v-.2c0-.2 0-.3-.1-.3-.2 0-.3 0-.4.1-.2.1-.2.2-.3.3-.1.1-.2.1-.4.1-.7-.1-.7-.7-1.3-.7-1-.1-1.4 1.1-1.5 2-.1.4-.3 1-.7 1.3.2-.5.2-1 .2-1.5 0-.6-.1-1.6-.8-1.8-.4-.2-.8 0-1.1.2 0-.3-.1-.8-.1-.9 0-.1-.2-.1-.3-.1-.3.1-.5.3-.6.5-.1.2-.1.6-.5.5-.3 0-.5-.3-1-.3-1.1.3-1.3 1.5-1.3 2.5 0 .7.1 2.2 1.1 2.1.5 0 .9-.6 1.1-1 .2-.5.3-1 .3-1.5 0-.3 0-.7-.1-1.2.2-.1.4-.2.5-.4.1.3.1.7.1 1v.1c.1.8.1 1.5.1 2.3v3.1c0 .2.3.2.4.1.2-.1.4-.3.4-.6.1-.7.1-1.5.1-2.2.9 0 1.7-.6 2.1-1.1.1.6.3 1.2.9 1.3.5.1 1-.4 1.2-.8.3-.5.4-1 .4-1.5v-.8c.2 0 .4-.1.6-.2-.1 1.1-.2 2.2-.2 3.3 0 .5.9 0 .9-.3.1-1 .2-2.1.7-3 .2.2.1 1.2.1 1.7 0 .3-.1.6-.1.9 0 .3-.1.5-.1.8 0 .5.8 0 .9-.3 0-.3.1-.5.1-.8.1-.5.3-2 .7-2.1.2.1.1 1 0 1.3 0 .6-.2 1.3-.1 1.9.1 1 1.1.3 1.5-.1l.3-.3c-.1.3-.1.6-.2.9-.1.5.8.1.9-.2l.3-1.2c.5.3 0 1.5.4 1.9.3.3.8.2 1.1.1.1 0 .2-.1.3-.2 0 .3.1.5.3.7.4.3.9.2 1.2 0 0 0 .1 0 .1-.1v.2c.2 1 1.4.5 1.7 0 .1.1 0 0-.2 0zm-18.3-2.7c0 .1 0 .2-.1.3-.2 0-.3-.3-.4-.5-.2-.3-.2-.7-.2-1.1 0-.4 0-.8.1-1.2 0-.1 0-.2.1-.3h.1l.1.1c.3.3.4 1.2.4 1.4 0 .5-.1.9-.1 1.3zm2.4-.4c0-.6 0-1.3-.1-1.9 0-.4.1-.4.1-.5.2 0 .3.1.4.2.3.3.4.9.4 1.3 0 .5-.1 1.3-.2 1.5-.4 0-.5-.3-.6-.6zm3.6.4c0 .1-.1.2-.1.3-.2-.1-.3-.4-.4-.5-.1-.4-.1-.7-.1-1.1 0-.4 0-.8.2-1.1 0-.1.1-.2.1-.3.5.2.5 1.3.5 1.6 0 .3-.1.7-.2 1.1zm10.3 2.3s-.1 0-.1-.1c-.2-.1-.2-.4-.2-.6-.1-.6.1-1.3.4-1.8.1-.2.3-.4.4-.5h.2c.2.1.3.3.2.5-.2.8-.3 1.6-.7 2.3-.1.1-.1.2-.2.2zM237.9 170.4c-.2-.1-.4-.1-.6 0 .1-.4.3-.8.4-1.3.1-.6.4-1.5 0-2.1-.4-.6-1.2 0-1.5.4-.5.7-.5 1.5-.5 2.3 0 .9.1 1.7.3 2.6-.1.3-.2 1-.5 1.4-.2 0-.3-.4-.3-.6-.3-.9-.4-2-.2-2.9 0-.2-.1-.3-.3-.2-.2.1-.5.4-.5.6 0 .2-.1.8-.4.9-.2.1-.4.1-.7 0-.3-.1-.8.1-1.1.4-.1-.4-.1-.8-.3-1.1-.1-.2-.4.1-.5.2-.1.1-.2.3-.3.5 0 .5.1 1.6-.2 2.9-.1.2-.3.7-.6.8-.4.1-.7-.2-.9-.5-.6-.9-.8-2-.8-3.1 0-.4.1-1 .3-1.3v-.1s.4-.1.6-.1c.4 0 .5.5.6.8.1.5.9-.4.8-.7-.1-.6-.4-1.2-1.2-1.1-.5.1-1 .4-1.3.9-.6 1-.7 2.2-.6 3.3.1 1 .4 2.2 1.2 2.8.9.7 2-.5 2.3-1.3.1-.2.1-.4.2-.6.1.7.5 1.4 1.3 1.2.9-.2 1.3-1.5 1.2-2.2 0-.2-.1-.5-.2-.8l.3-.3c0 .2 0 .4.1.5.1.6.2 1.3.4 1.8.2.4.6.4 1 .1.3-.3.5-.6.7-1 .2.5.5.9 1 .8.7-.1 1.2-.8 1.3-1.5.2-.8.2-2.1-.5-2.4zm-4.8 3.5v.2h-.1c-.5.1-.8-.5-.9-.8v-.1-.2-.5-.2h.1c.5-.1.8.5.9.8 0 .3.1.6 0 .8zm3.4-4.5c0-.6.2-1.8.2-1.8.2 0 .2.3.3.4.1.6-.1 1.3-.2 1.9-.1.2-.1.5-.2.7-.1-.3-.1-.7-.1-1.2zm1.1 3.7c0 .1 0 .1 0 0 0 .1 0 .1 0 0-.3 0-.4-.2-.5-.4-.2-.3-.3-.6-.4-1 .1-.2.1-.3.2-.5v-.1c.1 0 .2 0 .3.1.3.2.3.6.3.9.2.4.2.7.1 1z"/><g><path class="st4" d="M223.2 187.8c-.7.1-1 .9-1 1.5-.1.5-.1 1.7.7 1.8.8.1 1.1-.9 1.1-1.5 0-.5-.1-1.7-.8-1.8-.2 0-.6.6-.4.6.4 0 .5.6.5.9v.8c0 .1 0 .2-.1.3 0 .1-.1.3 0 .2-.4.2-.5-.7-.5-.9v-.8c0-.1 0-.3.1-.4 0-.1.1-.1 0-.1.3 0 .7-.6.4-.6zM226.5 187.8c-.7.1-1 .9-1 1.5-.1.5-.1 1.7.7 1.8.8.1 1.1-.9 1.1-1.5 0-.5 0-1.7-.8-1.8-.2 0-.6.6-.4.6.4 0 .5.6.5.9v.8c0 .1 0 .2-.1.3 0 .1-.1.3 0 .2-.4.2-.5-.7-.5-.9v-.8c0-.1 0-.3.1-.4 0-.1.1-.1 0-.1.3 0 .7-.6.4-.6zM227.6 190.5c.4 1.3 2.4.4 2.1-.8-.2-.6-.8-.5-1.3-.7-.3-.1-.3-.3-.3-.5.1-.3.1-.3-.1-.1.1 0 .1 0 .2-.1.4-.1.9-.1 1.2.1.2.1.6-.4.4-.5-.5-.2-1.1-.2-1.6-.1s-.6.6-.6 1c0 .6.5.6 1 .7.3.1.6.1.7.5.1.6-.6.5-.9.4-.1-.1-.2-.3-.3-.4-.1-.1-.6.3-.5.5zM224.5 191.7c.3-.2.4-.6.5-.9 0-.1 0-.2-.1-.3-.1-.1-.3 0-.5 0-.1.1-.3.2-.3.4s.2.1.3.1v.1c0 .1 0 .1-.1.2v.1c.1-.1 0 0 0 0-.1.1-.2.3-.1.4 0 .2.2 0 .3-.1z"/></g><g><path class="st9" d="M219.1 163.3c-.1 0-.2-.2-.3-.2-.4-.2-.7.1-1.1.1-.9 0-1.3 0-2.4-.3 0-1 .6-1.6.8-2.4.2-.7-.1-1.5-.1-2.3v-1.4c-.3.3-.2 1.2-.2 1.6-.1-.6-.1-1.4-.3-1.9-.1.6 0 1.3 0 1.9-.2-.5-.2-1.2-.4-1.6-.3.5.2 1.3.1 1.8-.2-.5-.3-1-.5-1.5-.1.6.2 1.2.2 1.6-.2-.4-.3-.8-.6-1.1 0 .4.3.9.4 1.3-.3-.1-.4-.5-.6-.6 0 .3.3.5.4.8-.2-.1-.3-.3-.5-.4 0 .3.3.4.3.6-.1-.1-.3-.2-.4-.3 0 .2.3.4.3.5 0 0-.2-.1-.2 0 0 0 .2.1.1.2h-.2c0 .2.2.1.1.3-.1 0-.1-.1-.1 0s.1.1.1.2c-.8.8-.4 1.8-.5 2.8.1-.1-.7-.3-1.2-.5-.3-.1-.4-.5-.6-.6 0-.1.1 0 .1-.1-.1 0-.2-.1-.2-.2.1 0 .3.1.3 0-.1-.1-.5-.2-.5-.3.2 0 .4.1.5.1-.2-.1-.6-.3-.6-.5.2.1.5.3.7.2-.3-.2-.8-.4-.9-.7.3.1.6.4.8.4-.4-.1-.7-.6-1.1-.6.2.4.8.6.9.8-.3-.2-.6-.3-1-.5.1.4.6.5.9.8-.3 0-.5-.2-.8-.2.1.3.6.2.7.5-.1-.1-.3 0-.5 0 0 .2.4.2.5.3-.2 0-.3 0-.4.1.1.1.3.1.4.2-.1 0-.2 0-.2.1s.3 0 .3.1c-.1 0-.1.1-.1.1h.2c-.1 0-.1 0-.1.1.4.2.7.9 1.3 1.2-.3.2.3.4-3.5 1.8.1 0 1.7-.4 2.2-.5.5-.2.9-.3 1.4-.4.1 0 .2-.1.3-.1.8-.1 1.5.1 2.3-.4-.6.1-1.6.2-2-.1.5-.8.2-2.9.6-3.3.4-.4 1.1-1.7 1.9-.6.1.2.2.4-.1.9-.4.6-.6.8-.5 2.1 0 .3 0 .5-.4.5 1.7.4 2.2.2 3.1 0 .3 0 .8-.3.8 0 0 .1-.3.1-.6.1-.5 0 .2.2.4.2.1 0 1-.1 1.5-.2-.7-.4-.9-.4-1.2-.5z"/><path class="st9" d="M214.2 154.7c-3.8 0-6.9 3.1-6.9 6.9 0 3.8 3.1 6.9 6.9 6.9 3.8 0 6.9-3.1 6.9-6.9.1-3.8-3-6.9-6.9-6.9m0 .3c3.7 0 6.7 3 6.7 6.7s-3 6.7-6.7 6.7-6.7-3-6.7-6.7c.1-3.7 3.1-6.7 6.7-6.7"/></g><g><path class="st8" d="M271.3 178.8c-.7-1.5-1.8-1.1-2.3 0-1.4 3.2.7 3.7.9 3.7 0-.1-.3-.4-.3-1-.1-.1-.6-.6-.6-1v-.2l.1.2c.1.2.2.6.6.9 0-.1.1-.2.1-.4-.1-.1-.6-.5-.6-1v-.1-.3l.1.4c0 .2.2.6.6.9.1-.1.1-.3.2-.4-.1-.1-.6-.4-.7-1.1v-.2l.1.3c0 .2.2.8.7.9 0-.2.1-.3.1-.5 0 0-.5-.2-.6-1v-.2-.1.3c.1.2.2.7.5.9.1-.8-.2-1.5-.2-1.5l-.1-.2.1.1s.1.3.2.7c.2-.3.2-.6.2-.6v-.1l.1.1c.1.3-.2.7-.2.8v1c.8-.3.9-.9.9-.9v-.2l.1.2c0 .7-.8 1-1 1.1v.1c0 .1-.1.2-.1.2.7 0 1.3-.8 1.3-.8l.1-.1s0 .2-.1.4c-.5.7-1.3.8-1.3.8-.1.2-.1.3-.2.5.2 0 .9-.2 1.4-.6l.1-.1-.1.2c-.2.2-.8.7-1.4.7v.5h.2c.6 0 1-.4 1.2-.7l.2-.2-.1.3c-.5.8-1.1.8-1.3.8h-.1c0 .2.2.4.2.5h.1c1.4-1.6 1.4-2.9.9-4zM275.3 181.5c1-.9.4-1.7-.6-1.7-2.8-.2-2.6 1.5-2.6 1.6 0 0 .2-.4.7-.5 0-.1.3-.6.6-.8l.2-.1-.2.1c-.1.1-.4.3-.5.7h.3c0-.1.2-.6.6-.7h.1l.2-.1-.3.2c-.2.1-.4.3-.5.7h.4c0-.1.1-.6.6-.8h.2l-.2.1c-.2.1-.5.3-.5.8.1 0 .3 0 .4-.1 0 0 .1-.4.6-.7h.2l-.2.1c-.2.1-.5.4-.5.6.6-.2 1.1-.5 1.1-.5l.1-.1-.1.1s-.2.2-.5.4c.2.1.5 0 .5 0l.1-.1-.1.1c-.2.1-.6 0-.7 0-.3.1-.5.2-.8.2.5.6.9.4.9.4h.1l-.1.1c-.5.2-1-.4-1.1-.5H273.4c.2.6 1 .8 1 .8H274.2c-.6-.2-.9-.8-1-.8h-.4c.1.1.4.7.8.9l.1.1h-.2c-.2-.1-.7-.4-.9-.9-.1 0-.3.1-.4.1v.1c.1.4.6.6.8.7l.2.1h-.2c-.7-.2-.9-.6-1-.8l-.3.3v.1c1.9.8 2.9.5 3.6-.2z"/><path class="st8" d="M272.3 183c.7-.3.5-.8 0-1-1.4-.6-1.6.3-1.6.3s.2-.1.4-.1c0 0 .3-.2.5-.3h.1-.1c-.1 0-.2.1-.4.3h.2s.2-.2.5-.3h.2-.2c-.1 0-.3.1-.4.3.1 0 .1.1.2.1 0 0 .2-.3.5-.3h.2-.1c-.1 0-.3.1-.4.3h.2s.1-.2.4-.2h.2-.1c-.1 0-.3.1-.4.2.4 0 .6-.1.6-.1h.1l-.1.1s-.1.1-.3.1c.1.1.3.1.3.1h.1-.1c-.1 0-.3-.1-.3-.1h-.4c.1.4.4.4.4.4l-.2.2-.1-.1c-.3 0-.4-.4-.5-.4h-.1c0 .3.3.6.4.6h.1s-.1 0-.2-.1c-.3-.2-.3-.6-.3-.6-.1 0-.1-.1-.2-.1 0 .1.1.4.2.6l.1.1-.1-.1c-.1-.1-.3-.3-.3-.6h-.2v.1c0 .3.2.4.3.5l.1.1-.1-.1c-.3-.2-.4-.5-.4-.6-.1 0-.2.1-.2.1v.1c.4.7.9.7 1.5.5zM271.1 185.2c1.3-.6 1-1.5 0-1.9-2.7-1.2-3.1.5-3.1.7 0 0 .4-.3.9-.2.1-.1.5-.4.9-.5h.2l-.2.1c-.2 0-.5.2-.7.5.1 0 .2.1.3.1.1-.1.4-.5.9-.5h.4l-.4.1c-.2 0-.5.2-.7.5.1.1.2.1.4.2.1-.1.3-.5.9-.6h.2l-.2.1c-.2 0-.6.1-.8.5.1 0 .3.1.4.1 0 0 .2-.4.8-.5h.2-.2c-.2 0-.6.2-.7.4.7.1 1.2-.1 1.2-.1l.1-.1-.1.1-.6.2c.2.2.5.2.5.2h.1l-.1.1c-.3 0-.6-.2-.7-.2-.3 0-.6 0-.8-.1.3.7.8.7.8.7h.1-.1c-.6 0-.8-.7-.9-.8h-.1c-.1 0-.1-.1-.2-.1 0 .6.7 1.1.7 1.1l.1.1s-.1 0-.3-.1c-.6-.4-.6-1.1-.6-1.1-.1-.1-.3-.1-.4-.2 0 .2.2.8.5 1.2l.1.1-.2-.1c-.1-.1-.5-.7-.6-1.2h-.4v.1c0 .5.3.8.6 1l.2.1-.2-.1c-.6-.5-.7-.9-.7-1.1-.2 0-.4.2-.4.2v.1c.9 1.3 1.9 1.3 2.9.9zM267.2 181.8c-.7-1.4-1.7-1-2.1.1-1.2 3 .7 3.4.8 3.4 0 0-.3-.4-.3-.9-.1-.1-.5-.5-.6-1v-.2l.1.2c.1.2.2.5.6.8 0-.1 0-.2.1-.3-.1-.1-.5-.5-.6-.9v-.1-.3l.1.4c0 .2.2.5.6.8.1-.1.1-.3.2-.4-.1-.1-.6-.3-.6-1v-.2l.1.2c0 .2.2.7.6.8 0-.1.1-.3.1-.4 0 0-.4-.2-.5-.9v-.1-.1.3c.1.2.2.7.5.8.1-.8-.2-1.3-.2-1.4l-.1-.2.1.1s.1.3.2.7c.2-.2.2-.6.2-.6v-.1l.1.1c.1.3-.2.7-.2.7v.9c.8-.3.8-.9.8-.9v-.2l.1.2c0 .6-.8 1-.9 1v.1c0 .1-.1.1-.1.2.7 0 1.2-.8 1.2-.8l.1-.1s0 .2-.1.3c-.5.6-1.2.7-1.2.8-.1.1-.1.3-.2.5.2 0 .9-.2 1.3-.6l.1-.1-.1.2c-.2.1-.7.6-1.3.7v.5h.2c.5 0 .9-.4 1.1-.7l.1-.2-.1.2c-.5.7-1 .8-1.2.8h-.1c0 .2.2.4.2.4h.1c1.3-1.3 1.3-2.5.8-3.5z"/><path class="st8" d="M266.9 185.4c-.4-.9-1-.6-1.3 0-.8 1.9.4 2.1.5 2.2 0 0-.2-.2-.2-.6 0 0-.3-.3-.4-.6v-.1.1c0 .1.1.3.4.5 0-.1 0-.1.1-.2-.1-.1-.3-.3-.4-.6v-.1-.2l.1.2c0 .1.1.3.4.5 0-.1.1-.2.1-.3-.1 0-.4-.2-.4-.6v-.2l.1.1c0 .1.1.4.4.5 0-.1 0-.2.1-.3 0 0-.3-.1-.3-.6v-.1-.1.2c0 .1.1.4.3.5 0-.5-.1-.8-.1-.9v-.1l.1.1s.1.2.1.4c.1-.1.1-.4.1-.4v-.1l.1.1c0 .2-.1.4-.1.5v.6c.5-.2.5-.5.5-.5v-.1.1c0 .4-.5.6-.6.6 0 0 0 .1-.1.1.4 0 .8-.5.8-.5v-.1s0 .1-.1.2c-.3.4-.7.5-.8.5 0 .1-.1.2-.1.3.1 0 .5-.1.8-.4l.1-.1-.1.1c-.1.1-.4.4-.8.4v.3h.1c.3 0 .6-.3.7-.4l.1-.1-.1.2c-.3.4-.6.5-.8.5 0 .1.1.3.1.3h.1c.9-.4.9-1.1.5-1.8z"/><path class="st8" d="M269.1 189.2c1.3-.6 1-1.5 0-2-2.7-1.2-3.2.5-3.2.7 0 0 .4-.3.9-.2.1-.1.5-.5.9-.5h.2l-.2.1c-.2 0-.5.2-.8.5.1 0 .2.1.3.1.1-.1.4-.5.9-.5h.4l-.4.1c-.2 0-.5.2-.8.5.1.1.2.1.4.2.1-.1.3-.5.9-.6h.2l-.2.1c-.2 0-.7.1-.8.6.1 0 .3.1.4.1 0 0 .2-.4.8-.5h.2-.2c-.2 0-.6.2-.7.4.7.1 1.3-.1 1.3-.1l.1-.1-.1.1-.6.2c.2.2.5.2.5.2h.1l-.1.1c-.3 0-.6-.2-.7-.2h-.8c.3.7.8.8.8.8h.1l-.1.1c-.6 0-.9-.7-.9-.9h-.1c-.1 0-.1-.1-.2-.1 0 .6.7 1.1.7 1.1l.1.1s-.1 0-.3-.1c-.6-.4-.7-1.1-.7-1.1-.1-.1-.3-.1-.4-.2 0 .2.2.8.5 1.2l.1.1-.2-.1c-.1-.1-.6-.7-.6-1.3h-.5v.1c0 .5.4.9.6 1l.2.1-.2-.1c-.6-.5-.7-1-.7-1.1v-.1c-.2 0-.4.2-.4.2v.1c1.2 1.4 2.3 1.4 3.3.9z"/><path class="st8" d="M268.2 191.5c1.4-.1 1.3-1 .4-1.6-2.4-1.7-3.2-.4-3.2-.2.1 0 .4-.1.9 0 .1 0 .6-.3 1-.2h.2-.2c-.2 0-.5 0-.8.2.1 0 .2.1.3.2.1-.1.5-.3 1-.2h.1l.3.1h-.4c-.2 0-.5 0-.8.3.1.1.2.2.3.2.1-.1.4-.3 1-.2h.2-.2c-.2 0-.7 0-.9.3.1.1.2.1.4.2 0 0 .3-.3.9-.2h.1l.1.1h-.2c-.2 0-.7 0-.8.2.7.2 1.2.2 1.2.2h.2s-.1 0-.1.1h-.7c.2.2.5.3.5.3h.1-.1c-.3 0-.6-.3-.6-.4-.3 0-.6-.1-.8-.3.1.7.6.8.6.8h.1-.2c-.6-.2-.7-.8-.7-.9-.1 0-.1-.1-.2-.1-.1.5.4 1.1.4 1.1l.1.1s-.1 0-.3-.2c-.5-.5-.4-1.1-.4-1.1-.1-.1-.2-.2-.4-.2 0 .1 0 .7.2 1.1l.1.1-.2-.1c-.1-.2-.4-.7-.3-1.2-.1-.1-.3-.1-.4-.1v.1c-.1.4.2.8.3 1l.2.2-.2-.1c-.5-.6-.5-1-.4-1.1-.2 0-.4 0-.4.1v.1c.6 1.1 1.7 1.4 2.7 1.3zM262.1 183.1c-1.7-.7-2.1.3-1.5 1.6 1.7 3.5 3.5 2.5 3.6 2.3-.1 0-.6-.1-1-.6-.1 0-.9-.1-1.3-.4l-.2-.2.2.1c.2.1.6.3 1.1.3-.1-.1-.2-.2-.2-.4-.1 0-.8 0-1.3-.4l-.1-.1-.3-.2.4.3c.2.2.6.3 1.1.2-.1-.2-.1-.3-.2-.5-.1 0-.7.1-1.3-.4l-.1-.1-.1-.1.3.1c.2.2.7.5 1.2.3-.1-.2-.2-.3-.3-.5 0 0-.5.2-1.2-.4 0 0-.1 0-.1-.1l-.1-.1.2.2c.2.1.8.4 1.1.3-.6-.7-1.3-1-1.3-1l-.2-.1h.2s.3.2.8.4c-.1-.4-.4-.6-.4-.6l-.1-.1h.2c.3.2.5.7.5.8.3.3.6.5.8.8.3-.8-.2-1.4-.2-1.4l-.1-.1.2.1c.5.5.3 1.4.2 1.5v.1c0 .1.1.2.1.3.5-.5.2-1.6.2-1.6l-.1-.1s.1.1.2.4c.2.9-.2 1.5-.2 1.6.1.2.2.4.3.5.1-.2.5-.8.4-1.4V184.1l.1.3c0 .2 0 1.1-.4 1.6.1.2.3.3.4.4l.1-.1c.4-.4.3-1 .2-1.4l-.1-.3.1.3c.3 1-.1 1.4-.2 1.6.2.1.5.2.5.2l.1-.1c.2-1.9-.8-2.9-2.2-3.5zM264.9 191.6c.8.4 1.1-.1.8-.7-.7-1.8-1.6-1.4-1.7-1.3 0 0 .3.1.5.4.1 0 .4.1.6.3l.1.1-.1-.1c-.1-.1-.3-.2-.5-.2 0 .1.1.1.1.2.1 0 .4 0 .6.2h.1l.1.1-.2-.2c-.1-.1-.3-.2-.6-.2 0 .1.1.2.1.2.1 0 .4 0 .6.2l.1.1-.1-.1c-.1-.1-.3-.3-.6-.2 0 .1.1.2.1.2s.3-.1.6.2l.1.1v.1l-.1-.1c-.1-.1-.4-.3-.5-.2.3.4.6.6.6.6h0s-.2-.1-.4-.3c0 .2.1.3.1.3h.1-.1c-.1-.1-.2-.4-.2-.4-.1-.1-.3-.3-.3-.4-.2.4 0 .7 0 .7l.1.1-.1-.1c-.2-.3-.1-.7 0-.8v-.1c-.3.2-.2.8-.2.8v.1s-.1-.1-.1-.2c-.1-.4.2-.7.2-.8 0-.1-.1-.2-.1-.3-.1.1-.3.4-.3.7v.1-.1c0-.1 0-.5.3-.8-.1-.1-.1-.2-.2-.2h-.1c-.2.2-.2.5-.2.7v.1l-.1-.1c-.1-.5.1-.7.2-.8-.1-.1-.2-.1-.3-.1-.1 1.3.3 1.9 1 2.2z"/><g><path class="st6" d="M265.4 186.2c0-.1.1-.2.1-.3-2.5 2.6-3.8 5.1-3.8 5.1l.2.1s1.1-2.3 3.4-4.7c.1-.1.1-.1.1-.2zM272.1 181.5c-.1 0 .2-.3.2-.3l-.1.1c-2.3 1-4.2 2.3-5.7 3.7.1 0 .1.1.2.2 1.5-1.4 3.3-2.7 5.6-3.7.4-.2-.1 0-.2 0z"/><path class="st10" d="M266.7 189.1c-.4.8-1.3 1.2-2.1.8-.8-.4-1.2-1.3-.8-2.1.4-.8 1.3-1.2 2.1-.8.8.3 1.1 1.3.8 2.1"/><path class="st11" d="M266.4 188.1c-.1.2-.4.1-.7-.1-.2-.2-.3-.5-.1-.7.1-.2.4-.1.7.1.2.3.2.6.1.7"/><path class="st10" d="M264.2 188.9c.5.6.3 1.6-.3 2-.6.5-1.6.3-2-.3-.5-.6-.3-1.6.3-2 .6-.5 1.5-.4 2 .3"/><path class="st11" d="M263.3 188.7c.1.2-.1.4-.4.5-.3.1-.5 0-.6-.2-.1-.2.1-.4.4-.5.3-.1.5 0 .6.2"/><path class="st10" d="M263.1 186.4c.3.5.2 1.1-.2 1.5-.5.3-1.1.2-1.5-.2-.3-.5-.2-1.1.2-1.5.5-.3 1.2-.2 1.5.2"/><path class="st11" d="M262.4 186.3c0 .1-.1.3-.3.4-.2.1-.4 0-.4-.1s.1-.3.3-.4c.2-.1.4-.1.4.1"/><path class="st10" d="M265.2 184.3c.3.5.2 1.1-.2 1.5-.5.3-1.1.2-1.5-.2-.3-.5-.2-1.1.2-1.5.5-.3 1.2-.2 1.5.2"/><path class="st11" d="M264.6 184.2c0 .1-.1.3-.3.4-.2.1-.4 0-.4-.1s.1-.3.3-.4c.2-.1.3-.1.4.1"/><path class="st10" d="M267.7 180.8c.6.1 1 .6.9 1.2-.1.6-.6 1-1.2.9-.6-.1-1-.6-.9-1.2.1-.6.6-.9 1.2-.9"/><path class="st11" d="M267.1 181.2c.1.1.2.3.1.4-.1.2-.3.3-.4.2-.1-.1-.2-.3-.1-.4.1-.2.3-.3.4-.2"/><path class="st10" d="M268.5 187.3c-.6.4-1.4.3-1.8-.3-.4-.6-.3-1.4.3-1.8.6-.4 1.4-.3 1.8.3.4.5.2 1.3-.3 1.8"/><path class="st11" d="M268.7 186.4c-.2.1-.4-.1-.4-.3-.1-.2 0-.5.2-.5.2-.1.4.1.4.3 0 .3-.1.5-.2.5"/></g></g><g><path class="st4" d="M251.7 180.8c.2.2.5.5.7.1.2-.2.2-.5.1-.8-.1-.3-.2-.6-.4-.9-.1-.2-.3-.5-.4-.8l-.3.3c.2.7.9 1.1 1.4 1.7.2.2.4-.4.3-.5-.4-.5-.6-1.2-.8-1.9-.1.1-.2.2-.3.4.1.4 1.3 2.3 1.9 1.1.1-.2 0-.7-.2-.3-.1.2-.7-.3-.8-.4-.2-.2-.5-.5-.6-.9-.1-.3-.3.2-.3.4.1.7.4 1.5.8 2.1.1-.2.2-.4.3-.5-.2-.3-.5-.5-.7-.7-.2-.2-.5-.5-.6-.8-.1-.3-.3.2-.3.3 0 .4.3.7.4 1 .1.2.2.4.3.7v.1c.1-.1.1-.1-.1-.1-.1 0-.2-.2-.3-.3 0 0-.2.6-.1.7zM241.2 181.7c-.1-.4-.3-.8-.8-.5-.5.3-.7.9-.8 1.4-.1.4.1.9.7 1 .6 0 1.1-.3 1.5-.6.3-.2.1-.4-.2-.2-.4.3-1.3.7-1.4-.1-.1-.3 0-.6.1-.8 0-.2.1-.3.2-.5-.1.1.1.4.1.5.1.3.7 0 .6-.2zM234.3 178.8c.1-.3.1-.7-.3-.8-.5-.1-.9.2-1.3.5-.3.3-.6.7-.4 1.2.2.5.7.6 1.1.6.4 0 .3-.3-.1-.3-.6 0-.4-.8-.2-1 .1-.2.3-.3.4-.5.1 0 .1-.1.2-.1.2-.1.2-.1.1 0 .1.1 0 .3-.1.4-.1.1.5.1.6 0zM247.1 181.2c.2.7.5 1.3.6 2 .1.3.5-.2.5-.4-.1-.4 0-.6.2-1s.2-.8.1-1.2c0-.3-.3.1-.3.3 0 .4.1.8.2 1.1.1.3.2.7.5.9.2.2.6-.2.7-.4.2-.4.2-.9.1-1.3-.1-.2-.3.2-.3.4 0 .1 0 .9-.1.9s-.2-.3-.3-.4c-.2-.4-.4-.9-.4-1.4l-.3.3c0 .4 0 .7-.2 1.1-.2.4-.2.8-.2 1.2.2-.1.3-.3.5-.4-.2-.7-.4-1.3-.7-2-.3-.3-.7.2-.6.3z"/><path class="st4" d="M241.6 181.6c0 .7-.1 1.4-.2 2.1 0 .3.5 0 .5-.2.1-.4.2-.6.5-.9.3-.3.4-.7.5-1.1.1-.3-.3 0-.4.1-.1.4-.2.8-.2 1.1 0 .3-.1.7.1 1 .1.2.4.1.5.1.4-.2.7-.5.8-.9.1-.3-.3-.1-.4 0-.1.2-.2.5-.5.5-.1 0-.1-.3-.1-.4 0-.5 0-1.1.1-1.5-.1 0-.2.1-.4.1-.1.4-.3.7-.6 1-.3.3-.4.7-.5 1.1.2-.1.3-.1.5-.2.1-.7.1-1.4.1-2.1.2-.2-.3.1-.3.2zM235.8 181.7c-.2.5.2.8.7.7.5-.1.7-.6.9-1 .1-.3.3-.8 0-1.1-.1-.1-.4-.1-.5-.1-.3.1-.5.3-.7.6-.1.2.4.1.5 0 .1-.3.3-.3.3 0 0 .2 0 .4-.1.6l-.3.6c0 .1-.1.1-.2.2v-.1c-.1-.1-.1-.2-.1-.4.2-.3-.4-.2-.5 0z"/><path class="st4" d="M236.6 179.8c-.4 1.2-1 2.4-1.7 3.5-.1.2.5.2.6 0 .7-1.1 1.3-2.4 1.7-3.6 0-.2-.5-.1-.6.1z"/><path class="st4" d="M236.3 179.5c-.7-.2-1.3.3-1.6.9-.2.4-.3 1.4.5 1.2.9-.2 1.3-1.4 1.2-2.2 0-.2 0-.4-.1-.7v-.3c0-.1 0-.1.1-.2-.2 0-.2.1-.1.1.3.3.5.6.9.7.2 0 .6-.3.3-.3-.5 0-.6-.8-1.1-.8-.4 0-.6.4-.6.9 0 .4.1.8 0 1.2 0 .1-.5 1.3-.7 1.2-.4-.4.4-1.6.8-1.5.2.2.7-.1.4-.2zM245.1 183.3c-.2.3-.4-.7-.4-.7-.1-.4-.1-.8-.1-1.2 0-.3-.4.1-.4.3v1.5c0 .2 0 .3-.2.2-.4-.3-.2-1.4-.2-1.8.1-.3-.3 0-.4.2-.1.4-.4 2.3.4 2.2 1-.2.7-1.8.7-2.5-.1.1-.3.2-.4.3 0 .6 0 1.3.2 1.8s.7.2.9-.1c.4-.4.2-.5-.1-.2zM250.2 179.7c.1.6.4 1.1.7 1.6.1.1.2.3.4.3.3 0 .4-.4.5-.6.1-.4-.2-.4-.3 0-.1.3-.5-.4-.6-.5-.2-.3-.4-.7-.5-1.1 0-.3-.2.1-.2.3zM249.6 181.9c.1-.2.4-.5.7-.3.2.2-.1.2-.2.2-.5-.2-.7-1.2-.8-1.7-.1-.3-.3.1-.3.3.1.5.6 2.7 1.4 1.8.3-.3.3-.8.2-1.1-.3-.5-.8 0-1 .3-.1.1-.2.3-.2.4 0 .1.1.2.2.1z"/><path class="st4" d="M247.1 183c-.5.1-.5-1.6-.5-1.9 0-.2-.4.2-.4.3 0 .1 0 .2-.1.4s-.2.1-.3 0c-.1-.1-.1-.3-.1-.4 0-.3-.3 0-.4.1-.1.1-.2.3-.3.4-.2.3.2.3.3 0 .1-.1.2-.3.3-.5-.1 0-.2.1-.4.1 0 .4.1 1.1.8.7.4-.2.5-.7.5-1.1-.1.1-.3.2-.4.3 0 .4-.1 2.2.6 2.1.3-.1.6-.6.4-.5z"/><path class="st4" d="M246.8 183.5c.3-.1.5-.3.6-.5.2-.2.4-.5.6-.7 0-.1.1-.3 0-.3s-.3.1-.3.2c-.1.2-.2.3-.4.5l-.2.2-.1.1c-.2.1-.3.2-.3.3 0 .1 0 .2.1.2z"/><g><path class="st4" d="M238.1 180.7c-.1.4-1.2 2-.3 2.2 1.1.2 1.6-1.4 1.8-2 .1-.2-.5-.1-.5.1-.2.4-.3.8-.6 1.2-.1.1-.2.5-.4.3s.1-.7.2-1c.1-.3.3-.6.4-1 0-.1-.5 0-.6.2z"/><path class="st4" d="M239.1 181c-.1.5-.8 3.6-1.3 3.4-.7-.3.8-1.2 1-1.3.4-.2.9-.4 1.3-.6.3-.2.1-.4-.2-.2-.8.4-1.6.6-2.2 1.1-.3.2-1.1 1-.3 1.3.6.3 1.2-.2 1.4-.5.6-.9.6-2.3.9-3.3 0-.2-.6 0-.6.1z"/></g><g><path class="st4" d="M237.1 180.5c.2.4.9.4 1.3.3.2-.1.3-.3 0-.2-.2.1-.8 0-.9-.3-.1-.1-.5.1-.4.2z"/></g></g><g><path class="st4" d="M245.5 186.8c.1.2.3.6.7.4.2-.1.3-.4.4-.6 0-.3 0-.6-.1-.9 0-.2-.2-.6-.1-.8-.1.1-.2.1-.3.2 0 .7.5 1.3.7 2 .1.2.4-.2.4-.4-.2-.6-.2-1.3-.2-1.9-.1.1-.2.2-.3.2 0 .4.6 2.6 1.4 1.7.2-.2.2-.7-.1-.4-.2.2-.6-.5-.6-.6-.2-.3-.3-.7-.3-1 0-.3-.3.1-.3.2 0 .7 0 1.5.1 2.1.1-.1.3-.2.4-.4-.1-.3-.3-.6-.5-.9-.1-.3-.3-.6-.3-.9 0-.3-.3.1-.3.2-.1.3 0 .7.1 1V186.8c.1-.1.1-.1 0-.1-.1-.1-.2-.2-.2-.3-.3-.1-.7.3-.6.4zM240.5 185.2c0-.5-.2-.7-.7-.5-.5.2-.8.9-1 1.4-.3 1.2 1.5.8 1.9.2.1-.1 0-.2-.1-.2s-.3.1-.3.2c-.4.4-1 .2-.9-.3 0-.2.1-.5.2-.7.1-.1.2-.3.3-.4-.1.1 0 .3 0 .4.1.3.6.1.6-.1z"/><path class="st4" d="M241.5 185c-.5 0-.8.5-1 .9-.1.3-.4 1.2.2 1.4.6.2 1.1-.5 1.2-.9 0-.4.1-1.2-.4-1.4-.1 0-.5.3-.3.4.3.1.3.5.2.7 0 .2 0 .4-.1.5 0 .1-.1.1-.1.2s-.2.2-.1.1c-.3.1-.3-.6-.3-.7 0-.2.1-.3.1-.5 0-.1.1-.2.1-.3.1-.1.1-.1 0-.1.3.1.7-.3.5-.3zM244.6 185.1c-.5.1-.7.8-.7 1.2 0 .4 0 1.3.6 1.3.7 0 .9-.8.9-1.2-.1-.5-.2-1.3-.8-1.3-.2 0-.4.5-.2.5.3 0 .4.4.5.6.1.2.1.4.1.5v.2c0 .1-.1.2 0 .2-.3.2-.5-.5-.5-.6v-.5-.3c0-.1.1-.1 0-.1.1-.1.3-.6.1-.5z"/><path class="st4" d="M242.3 185.2c.1.8-.1 1.5-.2 2.3 0 .3.5 0 .5-.2.1-.4.1-.7.2-1 .1-.2.1-.7.4-.5.1-.1.2-.3.4-.4-.7-.5-1.2.7-1.3 1.2 0 .1.1.1.2.1.5-.2.2.7.5.9.3.2.9-.3 1.1-.5.3-.2 0-.4-.2-.2-.3.2-.4.3-.5 0 0-.2 0-.3-.1-.5-.1-.3-.4-.2-.7-.1.1 0 .1 0 .2.1 0-.2.1-.9.4-.7.2.1.5-.3.4-.4-1-.7-1.5 1.6-1.6 2.1.2-.1.4-.1.5-.2.1-.8.2-1.5.1-2.4.1 0-.3.2-.3.4z"/><path class="st4" d="M241.3 185.3c.3.2.9.2 1.2.1.2-.1.2-.4 0-.2-.2.1-.7.1-.8-.1-.2-.1-.5.2-.4.2z"/></g></g><g><path class="st8" d="M142.6 177c-.7-1.5-1.8-1.1-2.3 0-1.4 3.2.7 3.7.9 3.7 0-.1-.3-.4-.3-1-.1-.1-.6-.6-.6-1v-.2l.1.2c.1.2.2.6.6.9 0-.1.1-.2.1-.4-.1-.1-.6-.5-.6-1v-.1-.3l.1.4c0 .2.2.6.6.9.1-.1.1-.3.2-.4-.1-.1-.6-.4-.7-1.1v-.2l.1.3c0 .2.2.8.7.9 0-.2.1-.3.1-.5 0 0-.5-.2-.6-1v-.2-.1.3c.1.2.2.7.5.9.1-.8-.2-1.5-.2-1.5l-.1-.2.1.1s.1.3.2.7c.2-.3.2-.6.2-.6v-.1l.1.1c.1.3-.2.7-.2.8v1c.8-.3.9-.9.9-.9v-.2l.1.2c0 .7-.8 1-1 1.1v.1c0 .1-.1.2-.1.2.7 0 1.3-.8 1.3-.8l.1-.1s0 .2-.1.4c-.5.7-1.3.8-1.3.8-.1.2-.1.3-.2.5.2 0 .9-.2 1.4-.6l.1-.1-.1.2c-.2.2-.8.7-1.4.7v.5h.2c.6 0 1-.4 1.2-.7l.2-.2-.1.3c-.5.8-1.1.8-1.3.8h-.1c0 .2.2.4.2.5h.1c1.5-1.6 1.4-2.9.9-4zM146.7 179.7c1-.9.4-1.7-.6-1.7-2.8-.2-2.6 1.5-2.6 1.6 0 0 .2-.4.7-.5 0-.1.3-.6.6-.8l.2-.1-.2.1c-.1.1-.4.3-.5.7h.3c0-.1.2-.6.6-.7h.1l.2-.1-.3.2c-.2.1-.4.3-.5.7h.4c0-.1.1-.6.6-.8h.2l-.2.1c-.2.1-.5.3-.5.8.1 0 .3 0 .4-.1 0 0 .1-.4.6-.7h.2l-.2.1c-.2.1-.5.4-.5.6.6-.2 1.1-.5 1.1-.5l.1-.1-.1.1s-.2.2-.5.4c.2.1.5 0 .5 0l.1-.1-.1.1c-.2.1-.6 0-.7 0-.3.1-.5.2-.8.2.5.6.9.4.9.4h.1l-.1.1c-.5.2-1-.4-1.1-.5H144.8c.2.6 1 .8 1 .8H145.6c-.6-.2-.9-.8-1-.8h-.4c.1.1.4.7.8.9l.1.1h-.2c-.2-.1-.7-.4-.9-.9-.1 0-.3.1-.4.1v.1c.1.4.6.6.8.7l.2.1h-.2c-.7-.2-.9-.6-1-.8l-.3.3v.1c1.8.8 2.8.5 3.6-.2z"/><path class="st8" d="M143.6 181.2c.7-.3.5-.8 0-1-1.4-.6-1.6.3-1.6.3s.2-.1.4-.1c0 0 .3-.2.5-.3h.1-.1c-.1 0-.2.1-.4.3h.2s.2-.2.5-.3h.2-.2c-.1 0-.3.1-.4.3.1 0 .1.1.2.1 0 0 .2-.3.5-.3h.2-.1c-.1 0-.3.1-.4.3h.2s.1-.2.4-.2h.2-.1c-.1 0-.3.1-.4.2.4 0 .6-.1.6-.1h.1l-.1.1s-.1.1-.3.1c.1.1.3.1.3.1h.1-.1c-.1 0-.3-.1-.3-.1h-.4c.1.4.4.4.4.4l-.2.2-.1-.1c-.3 0-.4-.4-.5-.4h-.1c0 .3.3.6.4.6h.1s-.1 0-.2-.1c-.3-.2-.3-.6-.3-.6-.1 0-.1-.1-.2-.1 0 .1.1.4.2.6l.1.1-.1-.1c-.1-.1-.3-.3-.3-.6h-.2v.1c0 .3.2.4.3.5l.1.1-.1-.1c-.3-.2-.4-.5-.4-.6-.1 0-.2.1-.2.1v.1c.4.7 1 .7 1.5.5zM142.5 183.4c1.3-.6 1-1.5 0-1.9-2.7-1.2-3.1.5-3.1.7 0 0 .4-.3.9-.2.1-.1.5-.4.9-.5h.2l-.2.1c-.2 0-.5.2-.7.5.1 0 .2.1.3.1.1-.1.4-.5.9-.5h.4l-.4.1c-.2 0-.5.2-.7.5.1.1.2.1.4.2.1-.1.3-.5.9-.6h.2l-.2.1c-.2 0-.6.1-.8.5.1 0 .3.1.4.1 0 0 .2-.4.8-.5h.2-.2c-.2 0-.6.2-.7.4.7.1 1.2-.1 1.2-.1l.1-.1-.1.1-.6.2c.2.2.5.2.5.2h.1l-.1.1c-.3 0-.6-.2-.7-.2-.3 0-.6 0-.8-.1.3.7.8.7.8.7h.1-.1c-.6 0-.8-.7-.9-.8h-.1c-.1 0-.1-.1-.2-.1 0 .6.7 1.1.7 1.1l.1.1s-.1 0-.3-.1c-.6-.4-.6-1.1-.6-1.1-.1-.1-.3-.1-.4-.2 0 .2.2.8.5 1.2l.1.1-.2-.1c-.1-.1-.5-.7-.6-1.2h-.4v.1c0 .5.3.8.6 1l.2.1-.2-.1c-.6-.5-.7-.9-.7-1.1-.2 0-.4.2-.4.2v.1c.8 1.3 1.9 1.3 2.9.9zM138.5 180c-.7-1.4-1.7-1-2.1.1-1.2 3 .7 3.4.8 3.4 0 0-.3-.4-.3-.9-.1-.1-.5-.5-.6-1v-.2l.1.2c.1.2.2.5.6.8 0-.1 0-.2.1-.3-.1-.1-.5-.5-.6-.9v-.1-.3l.1.4c0 .2.2.5.6.8.1-.1.1-.3.2-.4-.1-.1-.6-.3-.6-1v-.2l.1.2c0 .2.2.7.6.8 0-.1.1-.3.1-.4 0 0-.4-.2-.5-.9v-.1-.1.3c.1.2.2.7.5.8.1-.8-.2-1.3-.2-1.4l-.1-.2.1.1s.1.3.2.7c.2-.2.2-.6.2-.6v-.1l.1.1c.1.3-.2.7-.2.7v.9c.8-.3.8-.9.8-.9v-.2l.1.2c0 .6-.8 1-.9 1v.1c0 .1-.1.1-.1.2.7 0 1.2-.8 1.2-.8l.1-.1s0 .2-.1.3c-.5.6-1.2.7-1.2.8-.1.1-.1.3-.2.5.2 0 .9-.2 1.3-.6l.1-.1-.1.2c-.2.1-.7.6-1.3.7v.5h.2c.5 0 .9-.4 1.1-.7l.1-.2-.1.2c-.5.7-1 .8-1.2.8h-.1c0 .2.2.4.2.4h.1c1.4-1.3 1.3-2.5.8-3.5z"/><path class="st8" d="M138.3 183.6c-.4-.9-1-.6-1.3 0-.8 1.9.4 2.1.5 2.2 0 0-.2-.2-.2-.6 0 0-.3-.3-.4-.6v-.1.1c0 .1.1.3.4.5 0-.1 0-.1.1-.2-.1-.1-.3-.3-.4-.6v-.1-.2l.1.2c0 .1.1.3.4.5 0-.1.1-.2.1-.3-.1 0-.4-.2-.4-.6v-.2l.1.1c0 .1.1.4.4.5 0-.1 0-.2.1-.3 0 0-.3-.1-.3-.6v-.1-.1.2c0 .1.1.4.3.5 0-.5-.1-.8-.1-.9v-.1l.1.1s.1.2.1.4c.1-.1.1-.4.1-.4v-.1l.1.1c0 .2-.1.4-.1.5v.6c.5-.2.5-.5.5-.5v-.1.1c0 .4-.5.6-.6.6 0 0 0 .1-.1.1.4 0 .8-.5.8-.5v-.1s0 .1-.1.2c-.3.4-.7.5-.8.5 0 .1-.1.2-.1.3.1 0 .5-.1.8-.4l.1-.1-.1.1c-.1.1-.4.4-.8.4v.3h.1c.3 0 .6-.3.7-.4l.1-.1-.1.2c-.3.4-.6.5-.8.5 0 .1.1.3.1.3h.1c.8-.4.8-1.1.5-1.8z"/><path class="st8" d="M140.4 187.4c1.3-.6 1-1.5 0-2-2.7-1.2-3.2.5-3.2.7 0 0 .4-.3.9-.2.1-.1.5-.5.9-.5h.2l-.2.1c-.2 0-.5.2-.8.5.1 0 .2.1.3.1.1-.1.4-.5.9-.5h.4l-.4.1c-.2 0-.5.2-.8.5.1.1.2.1.4.2.1-.1.3-.5.9-.6h.2l-.2.1c-.2 0-.7.1-.8.6.1 0 .3.1.4.1 0 0 .2-.4.8-.5h.2-.2c-.2 0-.6.2-.7.4.7.1 1.3-.1 1.3-.1l.1-.1-.1.1-.6.2c.2.2.5.2.5.2h.1l-.1.1c-.3 0-.6-.2-.7-.2h-.8c.3.7.8.8.8.8h.1l-.1.1c-.6 0-.9-.7-.9-.9h-.1c-.1 0-.1-.1-.2-.1 0 .6.7 1.1.7 1.1l.1.1s-.1 0-.3-.1c-.6-.4-.7-1.1-.7-1.1-.1-.1-.3-.1-.4-.2 0 .2.2.8.5 1.2l.1.1-.2-.1c-.1-.1-.6-.7-.6-1.3h-.5v.1c0 .5.4.9.6 1l.2.1-.2-.1c-.6-.5-.7-1-.7-1.1v-.1c-.2 0-.4.2-.4.2v.1c1.2 1.4 2.3 1.4 3.3.9z"/><path class="st8" d="M139.6 189.7c1.4-.1 1.3-1 .4-1.6-2.4-1.7-3.2-.4-3.2-.2.1 0 .4-.1.9 0 .1 0 .6-.3 1-.2h.2-.2c-.2 0-.5 0-.8.2.1 0 .2.1.3.2.1-.1.5-.3 1-.2h.1l.3.1h-.4c-.2 0-.5 0-.8.3.1.1.2.2.3.2.1-.1.4-.3 1-.2h.2-.2c-.2 0-.7 0-.9.3.1.1.2.1.4.2 0 0 .3-.3.9-.2h.1l.1.1h-.2c-.2 0-.7 0-.8.2.7.2 1.2.2 1.2.2h.2s-.1 0-.1.1h-.7c.2.2.5.3.5.3h.1-.1c-.3 0-.6-.3-.6-.4-.3 0-.6-.1-.8-.3.1.7.6.8.6.8h.1-.2c-.6-.2-.7-.8-.7-.9-.1 0-.1-.1-.2-.1-.1.5.4 1.1.4 1.1l.1.1s-.1 0-.3-.2c-.5-.5-.4-1.1-.4-1.1-.1-.1-.2-.2-.4-.2 0 .1 0 .7.2 1.1l.1.1-.2-.1c-.1-.2-.4-.7-.3-1.2-.1-.1-.3-.1-.4-.1v.1c-.1.4.2.8.3 1l.2.2-.2-.1c-.5-.6-.5-1-.4-1.1-.2 0-.4 0-.4.1v.1c.6 1.1 1.6 1.4 2.7 1.3zM133.5 181.3c-1.7-.7-2.1.3-1.5 1.6 1.7 3.5 3.5 2.5 3.6 2.3-.1 0-.6-.1-1-.6-.1 0-.9-.1-1.3-.4l-.2-.2.2.1c.2.1.6.3 1.1.3-.1-.1-.2-.2-.2-.4-.1 0-.8 0-1.3-.4l-.1-.1-.3-.2.4.3c.2.2.6.3 1.1.2-.1-.2-.1-.3-.2-.5-.1 0-.7.1-1.3-.4l-.1-.1-.1-.1.3.1c.2.2.7.5 1.2.3-.1-.2-.2-.3-.3-.5 0 0-.5.2-1.2-.4 0 0-.1 0-.1-.1l-.1-.1.2.2c.2.1.8.4 1.1.3-.6-.7-1.3-1-1.3-1l-.2-.1h.2s.3.2.8.4c-.1-.4-.4-.6-.4-.6l-.1-.1h.2c.3.2.5.7.5.8.3.3.6.5.8.8.3-.8-.2-1.4-.2-1.4l-.1-.1.2.1c.5.5.3 1.4.2 1.5v.1c0 .1.1.2.1.3.5-.5.2-1.6.2-1.6l-.1-.1s.1.1.2.4c.2.9-.2 1.5-.2 1.6.1.2.2.4.3.5.1-.2.5-.8.4-1.4V182.3l.1.3c0 .2 0 1.1-.4 1.6.1.2.3.3.4.4l.1-.1c.4-.4.3-1 .2-1.4l-.1-.3.1.3c.3 1-.1 1.4-.2 1.6.2.1.5.2.5.2l.1-.1c.1-1.9-.9-2.9-2.2-3.5zM136.2 189.8c.8.4 1.1-.1.8-.7-.7-1.8-1.6-1.4-1.7-1.3 0 0 .3.1.5.4.1 0 .4.1.6.3l.1.1-.1-.1c-.1-.1-.3-.2-.5-.2 0 .1.1.1.1.2.1 0 .4 0 .6.2h.1l.1.1-.2-.2c-.1-.1-.3-.2-.6-.2 0 .1.1.2.1.2.1 0 .4 0 .6.2l.1.1-.1-.1c-.1-.1-.3-.3-.6-.2 0 .1.1.2.1.2s.3-.1.6.2l.1.1v.1l-.1-.1c-.1-.1-.4-.3-.5-.2.3.4.6.6.6.6h0s-.2-.1-.4-.3c0 .2.1.3.1.3h.1-.1c-.1-.1-.2-.4-.2-.4-.1-.1-.3-.3-.3-.4-.2.4 0 .7 0 .7l.1.1-.1-.1c-.2-.3-.1-.7 0-.8v-.1c-.3.2-.2.8-.2.8v.1s-.1-.1-.1-.2c-.1-.4.2-.7.2-.8 0-.1-.1-.2-.1-.3-.1.1-.3.4-.3.7v.1-.1c0-.1 0-.5.3-.8-.1-.1-.1-.2-.2-.2h-.1c-.2.2-.2.5-.2.7v.1l-.1-.1c-.1-.5.1-.7.2-.8-.1-.1-.2-.1-.3-.1-.1 1.3.4 1.9 1 2.2z"/><path class="st6" d="M136.8 184.4c0-.1.1-.2.1-.3-2.5 2.6-3.8 5.1-3.8 5.1l.2.1s1.1-2.3 3.4-4.7c0-.1 0-.1.1-.2zM143.4 179.7c-.1 0 .2-.3.2-.3l-.1.1c-2.3 1-4.2 2.3-5.7 3.7.1 0 .1.1.2.2 1.5-1.4 3.3-2.7 5.6-3.7.5-.2-.1 0-.2 0z"/><circle class="st12" cx="136.6" cy="186.6" r="1.6"/><ellipse transform="rotate(43 137.21 186.035)" class="st13" cx="137.2" cy="186" rx="1" ry=".7"/><ellipse transform="rotate(43 137.357 185.922)" class="st12" cx="137.4" cy="185.9" rx=".6" ry=".4"/><g><circle class="st13" cx="134.3" cy="187.9" r="1.5"/><ellipse transform="rotate(-19 134.188 187.188)" class="st12" cx="134.2" cy="187.2" rx=".9" ry=".6"/><ellipse transform="rotate(-19 134.098 187)" class="st13" cx="134.1" cy="187" rx=".5" ry=".3"/></g><g><circle class="st12" cx="133.6" cy="185.3" r="1.1"/><ellipse transform="rotate(-19 133.48 184.738)" class="st13" cx="133.5" cy="184.7" rx=".7" ry=".4"/><ellipse transform="rotate(-19 133.44 184.617)" class="st12" cx="133.4" cy="184.6" rx=".4" ry=".3"/></g><g><circle class="st13" cx="135.7" cy="183.2" r="1.1"/><ellipse transform="rotate(-19 135.627 182.597)" class="st12" cx="135.6" cy="182.6" rx=".7" ry=".4"/><ellipse transform="rotate(-19 135.61 182.492)" class="st13" cx="135.6" cy="182.5" rx=".4" ry=".3"/></g><g><circle class="st12" cx="138.9" cy="180.1" r="1.1"/><ellipse transform="rotate(-63 138.39 179.788)" class="st13" cx="138.4" cy="179.8" rx=".7" ry=".4"/><ellipse transform="rotate(-63 138.306 179.727)" class="st12" cx="138.3" cy="179.7" rx=".4" ry=".3"/></g><g><circle class="st13" cx="139" cy="184.4" r="1.3"/><ellipse transform="rotate(72 139.72 184.25)" class="st12" cx="139.7" cy="184.3" rx=".8" ry=".6"/><ellipse transform="rotate(72 139.857 184.24)" class="st13" cx="139.9" cy="184.2" rx=".4" ry=".3"/></g><circle class="st5" cx="114.7" cy="169.9" r="20"/><circle class="st6" cx="98.8" cy="187.7" r="6.3"/><path class="st7" d="M105.3 145.5c0 1.4-1.1 2.5-2.6 2.5-1.4 0-2.6-1.1-2.6-2.5s1.1-2.6 2.6-2.6c1.4 0 2.6 1.2 2.6 2.6z"/><path class="st8" d="M105.4 154.1c0 1.8-1.5 3.3-3.3 3.3-1.8 0-3.3-1.5-3.3-3.3 0-1.8 1.5-3.3 3.3-3.3 1.8 0 3.3 1.5 3.3 3.3zM96.6 149c0 1.1-.9 1.9-1.9 1.9-1.1 0-2-.9-2-1.9 0-1.1.9-2 2-2 1 .1 1.9.9 1.9 2z"/><g><circle class="st6" cx="131.8" cy="151.7" r="11"/><path class="st4" d="M129 150.1c-.9.1-1.2 1.2-1.2 1.9v.3c0 .4 0 .6-.1 1 0 .1-.1.4-.1.4-.3 0-.6-.5-.7-.7-.2-.6-.4-1.2-.5-1.7-.1-.6-.2-1.3-.2-1.9v-.8-.3-.2c.1-.5-.6 0-.7.2-.7 1.3-.5 2.8-.5 4.2 0 .4 0 .8-.1 1.1 0 .3-.1.7-.3.9-.1.1-.4 0-.5 0-.2-.1-.3-.3-.3-.5s-.3-.1-.4 0c-.2.2-.3.4-.3.6.1.5.5.9 1 .8.8-.2 1.2-1.2 1.4-2 .1-.4.1-.7.2-1.1.1.5.3 1.1.5 1.6.2.4.5.7 1 .7.3-.1.6-.4.8-.8.2.4.4.6.8.6.5 0 .8-.5 1-.9.2-.4.3-.9.3-1.4.1-.7-.1-2.1-1.1-2zm.3 3.2c0 .1 0 .2-.1.3-.2 0-.3-.3-.4-.4-.1-.3-.2-.6-.2-1v-1c0-.1 0-.2.1-.3.5.3.6.9.6 1.4.1.3.1.7 0 1zM140 151.4c-1-.4-1.5 1-1.7 1.7-.2.7-.4 1.9.5 2.3.4.2.9-.1 1.2-.4.3-.3.5-.8.6-1.2.1-.7.3-2-.6-2.4zm-.6 3.2c0 .1-.1.2-.1.2-.2-.1-.2-.4-.2-.5-.1-.3 0-.7 0-1 .1-.3.2-.7.3-1 0-.1.1-.2.1-.2.4.4.3 1 .2 1.6-.1.2-.2.6-.3.9zM137.3 151.6c.2-.2.4-.5.5-.8.4-.6.7-1.2.7-1.9 0-.6-.9-.7-1.3-.5-.6.3-1 1-1.2 1.6-.2.9-.4 1.7-.4 2.6-.3.4-1 1.1-1.5.8-.1-.1-.2-.2-.2-.4.4-.4.8-.9 1.1-1.4.3-.4.5-1.2-.1-1.5-.5-.3-1.1 0-1.4.4-.3.4-.5.9-.5 1.4 0 .3-.1.7 0 1.1-.3.2-.6.3-1 .2-.4-.1-.5-.5-.6-.8-.1-.5-.1-.9 0-1.4 0-.1.1-.3.1-.4v-.1c.2.1.3.5.4.6.1.3.9-.2.8-.5-.1-.3-.2-.7-.6-.8-.3-.2-.8.1-1 .3-.6.6-.7 1.5-.6 2.3 0 .5.1 1.1.6 1.4.6.4 1.4 0 2-.3.2.4.4.6.9.6.6-.1 1.1-.4 1.6-.8 0 .4.1.9.4 1.1.5.3 1.2 0 1.5-.5.4-.6.7-1.4.4-2.1 0-.1-.3-.2-.6-.2zm-3.3-.4c0-.1.1-.3.2-.4.2.1.3.4.3.6-.1.4-.3.7-.6 1.1v-.2c-.1-.4 0-.7.1-1.1zm3.2-1.8c.1-.1.1-.3.2-.4.4.4 0 1-.2 1.4-.2.4-.4.8-.7 1.2.1-.4.1-.8.2-1.1.2-.4.3-.7.5-1.1zm-.2 4.5s-.1.1-.1.2h-.1c-.2-.1-.3-.7-.3-.9v-.6c.1-.1.2-.2.3-.4.2-.1.4.1.4.4.1.5-.1 1-.2 1.3z"/></g><g><path class="st4" d="M103.7 186.3c-.6 1-1.3 1.8-2 2.7-.3.4.2.4.4.1.7-.9 1.5-1.9 2.1-2.9.2-.3-.4-.1-.5.1zM102.6 186.1c-.4 0-.6.3-.7.7-.1.3.1.6.4.6.8 0 1.1-1.3.3-1.3-.2 0-.4.4-.2.4s.3.2.3.3v.2h-.1c-.2 0-.3-.1-.3-.3v-.2h.1c.2 0 .4-.4.2-.4zM103.6 188.1c-.4 0-.6.3-.7.7-.1.3.1.6.4.6.8 0 1.1-1.3.3-1.3-.2 0-.4.4-.2.4s.3.2.3.3v.2h-.1c-.2 0-.3-.1-.3-.3v-.2h.1c.2 0 .4-.4.2-.4z"/></g><g><path class="st4" d="M130 173.4c-.2 0-.4.1-.5.2-.3-1.1 0-2.2.3-3.1.1-.5-.3-.9-.8-1-.5-.1-1 .2-1.3.5-.4.4-.7 1.1-.8 1.7-.1.5-.4.8-.5.8-.3-.1-.2-.5-.2-.7 0-.4 0-.8-.2-1.1-.1-.3-.4-.3-.7-.3.3-.9.5-1 .6-1.1.2.1.3.2.3.2.3.3 1.2-.2.9-.5-.3-.4-.7-.5-1.1-.4-.3 0-.5.2-.7.4l-.1.1v-1.4c0-.4-1 0-1 .4 0 .2.1.5.1.7 0 1-.3 2.1-1.1 2.9v-.3c0-.7.2-1.3.2-2 0-.4.1-1-.2-1.4-.3-.4-1 0-1.2.2l-.1.1c0-.2-.1-.5-.3-.7-.2-.2-.6-.1-.8 0-.2.1-.3.2-.4.3v-.2c0-.2 0-.3-.1-.3-.2 0-.3 0-.4.1-.2.1-.2.2-.3.3-.1.1-.2.1-.4.1-.7-.1-.7-.7-1.3-.7-1-.1-1.4 1.1-1.5 2-.1.4-.3 1-.7 1.3.2-.5.2-1 .2-1.5 0-.6-.1-1.6-.8-1.8-.4-.2-.8 0-1.1.2 0-.3-.1-.8-.1-.9 0-.1-.2-.1-.3-.1-.3.1-.5.3-.6.5-.1.2-.1.6-.5.5-.3 0-.5-.3-1-.3-1.1.3-1.3 1.5-1.3 2.5 0 .7.1 2.2 1.1 2.1.5 0 .9-.6 1.1-1 .2-.5.3-1 .3-1.5 0-.3 0-.7-.1-1.2.2-.1.4-.2.5-.4.1.3.1.7.1 1v.1c.1.8.1 1.5.1 2.3v3.1c0 .2.3.2.4.1.2-.1.4-.3.4-.6.1-.7.1-1.5.1-2.2.9 0 1.7-.6 2.1-1.1.1.6.3 1.2.9 1.3.5.1 1-.4 1.2-.8.3-.5.4-1 .4-1.5v-.8c.2 0 .4-.1.6-.2-.1 1.1-.2 2.2-.2 3.3 0 .5.9 0 .9-.3.1-1 .2-2.1.7-3 .2.2.1 1.2.1 1.7 0 .3-.1.6-.1.9 0 .3-.1.5-.1.8 0 .5.8 0 .9-.3 0-.3.1-.5.1-.8.1-.5.3-2 .7-2.1.2.1.1 1 0 1.3 0 .6-.2 1.3-.1 1.9.1 1 1.1.3 1.5-.1l.3-.3c-.1.3-.1.6-.2.9-.1.5.8.1.9-.2l.3-1.2c.5.3 0 1.5.4 1.9.3.3.8.2 1.1.1.1 0 .2-.1.3-.2 0 .3.1.5.3.7.4.3.9.2 1.2 0 0 0 .1 0 .1-.1v.2c.2 1 1.4.5 1.7 0 .1.2 0 .1-.2 0zm-18.3-2.6c0 .1 0 .2-.1.3-.2 0-.3-.3-.4-.5-.2-.3-.2-.7-.2-1.1 0-.4 0-.8.1-1.2 0-.1 0-.2.1-.3h.1l.1.1c.3.3.4 1.2.4 1.4 0 .5 0 .9-.1 1.3zm2.5-.5c0-.6 0-1.3-.1-1.9 0-.4.1-.4.1-.5.2 0 .3.1.4.2.3.3.4.9.4 1.3 0 .5-.1 1.3-.2 1.5-.4.1-.6-.2-.6-.6zm3.6.5c0 .1-.1.2-.1.3-.2-.1-.3-.4-.4-.5-.1-.4-.1-.7-.1-1.1 0-.4 0-.8.2-1.1 0-.1.1-.2.1-.3.5.2.5 1.3.5 1.6-.1.3-.1.7-.2 1.1zm10.3 2.3s-.1 0-.1-.1c-.2-.1-.2-.4-.2-.6-.1-.6.1-1.3.4-1.8.1-.2.3-.4.4-.5h.2c.2.1.3.3.2.5-.2.8-.3 1.6-.7 2.3l-.2.2zM109.2 168.6c-.2-.1-.4-.1-.6 0 .1-.4.3-.8.4-1.3.1-.6.4-1.5 0-2.1-.4-.6-1.2 0-1.5.4-.5.7-.5 1.5-.5 2.3 0 .9.1 1.7.3 2.6-.1.3-.2 1-.5 1.4-.2 0-.3-.4-.3-.6-.3-.9-.4-2-.2-2.9 0-.2-.1-.3-.3-.2-.2.1-.5.4-.5.6 0 .2-.1.8-.4.9-.2.1-.4.1-.7 0-.3-.1-.8.1-1.1.4-.1-.4-.1-.8-.3-1.1-.1-.2-.4.1-.5.2-.1.1-.2.3-.3.5 0 .5.1 1.6-.2 2.9-.1.2-.3.7-.6.8-.4.1-.7-.2-.9-.5-.6-.9-.8-2-.8-3.1 0-.4.1-1 .3-1.3v-.1s.4-.1.6-.1c.4 0 .5.5.6.8.1.5.9-.4.8-.7-.1-.6-.4-1.2-1.2-1.1-.5.1-1 .4-1.3.9-.6 1-.7 2.2-.6 3.3.1 1 .4 2.2 1.2 2.8.9.7 2-.5 2.3-1.3.1-.2.1-.4.2-.6.1.7.5 1.4 1.3 1.2.9-.2 1.3-1.5 1.2-2.2 0-.2-.1-.5-.2-.8l.3-.3c0 .2 0 .4.1.5.1.6.2 1.3.4 1.8.2.4.6.4 1 .1.3-.3.5-.6.7-1 .2.5.5.9 1 .8.7-.1 1.2-.8 1.3-1.5.2-.9.3-2.1-.5-2.4zm-4.7 3.5v.2h-.1c-.5.1-.8-.5-.9-.8v-.1-.2-.5-.2h.1c.5-.1.8.5.9.8v.8zm3.3-4.5c0-.6.2-1.8.2-1.8.2 0 .2.3.3.4.1.6-.1 1.3-.2 1.9-.1.2-.1.5-.2.7-.1-.3-.1-.8-.1-1.2zm1.2 3.7s0 .1 0 0c-.1.1-.1.1 0 0-.3 0-.4-.2-.5-.4-.2-.3-.3-.6-.4-1 .1-.2.1-.3.2-.5v-.1c.1 0 .2 0 .3.1.3.2.3.6.3.9.1.4.1.7.1 1z"/></g><g><path class="st4" d="M94.5 186c-.7.1-1 .9-1 1.5-.1.5-.1 1.7.7 1.8.8.1 1.1-.9 1.1-1.5 0-.5 0-1.7-.8-1.8-.2 0-.6.6-.4.6.4 0 .5.6.5.9v.8c0 .1 0 .2-.1.3 0 .1-.1.3 0 .2-.4.2-.5-.7-.5-.9v-.8c0-.1 0-.3.1-.4 0-.1.1-.1 0-.1.3 0 .7-.6.4-.6zM97.9 186c-.7.1-1 .9-1 1.5-.1.5-.1 1.7.7 1.8.8.1 1.1-.9 1.1-1.5-.1-.5-.1-1.7-.8-1.8-.2 0-.6.6-.4.6.4 0 .5.6.5.9v.8c0 .1 0 .2-.1.3 0 .1-.1.3 0 .2-.4.2-.5-.7-.5-.9v-.8c0-.1 0-.3.1-.4 0-.1.1-.1 0-.1.3 0 .7-.6.4-.6zM98.9 188.7c.4 1.3 2.4.4 2.1-.8-.2-.6-.8-.5-1.3-.7-.3-.1-.3-.3-.3-.5.1-.3.1-.3-.1-.1.1 0 .1 0 .2-.1.4-.1.9-.1 1.2.1.2.1.6-.4.4-.5-.5-.2-1.1-.2-1.6-.1s-.6.6-.6 1c0 .6.5.6 1 .7.3.1.6.1.7.5.1.6-.6.5-.9.4-.1-.1-.2-.3-.3-.4-.1-.1-.6.3-.5.5zM95.8 189.9c.3-.2.4-.6.5-.9 0-.1 0-.2-.1-.3-.1-.1-.3 0-.5 0-.1.1-.3.2-.3.4s.2.1.3.1v.1c0 .1 0 .1-.1.2v.1c.1-.1 0 0 0 0-.1.1-.2.3-.1.4 0 .2.2 0 .3-.1z"/></g><g><path class="st9" d="M90.5 161.5c-.1 0-.2-.2-.3-.2-.4-.2-.7.1-1.1.1-.9 0-1.3 0-2.4-.3 0-1 .6-1.6.8-2.4.2-.7-.1-1.5-.1-2.3V155c-.3.3-.2 1.2-.2 1.6-.1-.6-.1-1.4-.3-1.9-.1.6 0 1.3 0 1.9-.2-.5-.2-1.2-.4-1.6-.3.5.2 1.3.1 1.8-.2-.5-.3-1-.5-1.5-.1.6.2 1.2.2 1.6-.2-.4-.3-.8-.6-1.1 0 .4.3.9.4 1.3-.3-.1-.4-.5-.6-.6 0 .3.3.5.4.8-.2-.1-.3-.3-.5-.4 0 .3.3.4.3.6-.1-.1-.3-.2-.4-.3 0 .2.3.4.3.5 0 0-.2-.1-.2 0 0 0 .2.1.1.2h-.2c0 .2.2.1.1.3-.1 0-.1-.1-.1 0s.1.1.1.2c-.8.8-.4 1.8-.5 2.8.1-.1-.7-.3-1.2-.5-.3-.1-.4-.5-.6-.6 0-.1.1 0 .1-.1-.1 0-.2-.1-.2-.2.1 0 .3.1.3 0-.1-.1-.5-.2-.5-.3.2 0 .4.1.5.1-.2-.1-.6-.3-.6-.5.2.1.5.3.7.2-.3-.2-.8-.4-.9-.7.3.1.6.4.8.4-.4-.1-.7-.6-1.1-.6.2.4.8.6.9.8-.3-.2-.6-.3-1-.5.1.4.6.5.9.8-.3 0-.5-.2-.8-.2.1.3.6.2.7.5-.1-.1-.3 0-.5 0 0 .2.4.2.5.3-.2 0-.3 0-.4.1.1.1.3.1.4.2-.1 0-.2 0-.2.1s.3 0 .3.1c-.1 0-.1.1-.1.1h.2c-.1 0-.1 0-.1.1.4.2.7.9 1.3 1.2-.3.2.3.4-3.5 1.8.1 0 1.7-.4 2.2-.5.5-.2.9-.3 1.4-.4.1 0 .2-.1.3-.1.8-.1 1.5.1 2.3-.4-.6.1-1.6.2-2-.1.5-.8.2-2.9.6-3.3.4-.4 1.1-1.7 1.9-.6.1.2.2.4-.1.9-.4.6-.6.8-.5 2.1 0 .3 0 .5-.4.5 1.7.4 2.2.2 3.1 0 .3 0 .8-.3.8 0 0 .1-.3.1-.6.1-.5 0 .2.2.4.2.1 0 1-.1 1.5-.2-.7-.4-.9-.4-1.2-.5z"/><path class="st9" d="M85.6 152.9c-3.8 0-6.9 3.1-6.9 6.9 0 3.8 3.1 6.9 6.9 6.9 3.8 0 6.9-3.1 6.9-6.9 0-3.8-3.1-6.9-6.9-6.9m0 .3c3.7 0 6.7 3 6.7 6.7s-3 6.7-6.7 6.7-6.7-3-6.7-6.7 3-6.7 6.7-6.7"/></g><g><path class="st4" d="M109.2 180.6c.4-.2 1.7-1.1 1-1.6-.4-.3-.9.4-1.1.6-.2.4-.6 1.1-.2 1.5.2.2.5.1.8.1.5-.1.9-.3 1.2-.6.3-.3-.3-.2-.4-.1-.2.2-.7.6-1 .4-.2-.2-.1-.7 0-.9.1-.1.1-.3.2-.4 0-.1.1-.1.1-.2l.1-.1c.5.2-.7 1-.8 1.1-.5.2-.1.4.1.2z"/><path class="st4" d="M110.3 181.1c-.1.5.5.8 1 .6.5-.2.6-.7.7-1.1.1-.3.1-.9-.2-1.1-.1-.1-.4 0-.6 0-.3.1-.5.4-.6.7-.1.2.5.1.5-.1.1-.3.2-.3.3 0v.6c0 .2-.1.5-.2.6 0 .1-.1.1-.2.2h-.1c-.2-.1-.2-.2-.2-.3.2-.4-.4-.2-.4-.1z"/><path class="st4" d="M110.7 179.1c-.2 1.3-.6 2.6-1.1 3.8-.1.2.6.1.6-.1.5-1.2.8-2.6 1-3.9.1-.1-.5.1-.5.2zM122.9 179.4c.2.2.5.5.8.2.2-.2.2-.5.2-.8-.1-.3-.2-.6-.4-.9-.1-.2-.3-.5-.4-.8l-.3.3c.2.7.9 1.1 1.4 1.6.2.2.4-.4.3-.5-.4-.5-.6-1.2-.8-1.8-.1.1-.2.2-.3.4.2.4 1.4 2.3 1.9 1.1.1-.2 0-.7-.2-.3-.1.2-.7-.3-.8-.4-.2-.2-.5-.5-.6-.9-.1-.3-.3.2-.3.4.2.7.4 1.5.8 2.1.1-.2.2-.4.3-.5-.2-.3-.5-.5-.8-.7-.2-.2-.5-.5-.6-.8-.1-.3-.3.2-.3.3 0 .4.3.7.4 1 .1.2.2.4.3.7v.1c.1-.1.1-.1-.1-.1-.1 0-.2-.2-.3-.3-.1-.1-.3.4-.2.6zM118 179.7c.2.7.4 1.3.6 2 0 .3.5-.2.5-.4-.1-.4 0-.6.2-1s.2-.8.2-1.2c0-.3-.4.1-.4.3 0 .4.1.8.2 1.1.1.3.2.7.4.9.2.2.6-.2.7-.4.2-.4.3-.9.2-1.3-.1-.2-.4.2-.3.4.1.3 0 .6-.2.9 0 0-.3-.3-.3-.4-.2-.4-.4-1-.4-1.5-.1.1-.2.2-.4.3 0 .4 0 .7-.3 1.1-.2.4-.2.8-.2 1.2.2-.1.3-.2.5-.4-.1-.7-.4-1.3-.6-2-.1-.2-.4.2-.4.4zM112.3 179.8c-.1.7-.1 1.4-.3 2.1-.1.3.5 0 .5-.2.1-.4.2-.6.5-.8.3-.3.5-.7.6-1.1.1-.3-.4-.1-.4.1-.2.4-.2.7-.3 1.1 0 .3-.1.7 0 1 .1.2.4.1.6.1.5-.1.7-.5.9-.9.2-.3-.3-.2-.4 0-.1.2-.2.5-.5.5-.1 0-.1-.3-.1-.4 0-.5 0-1.1.2-1.5-.1 0-.3.1-.4.1-.1.4-.3.7-.7.9-.3.3-.5.6-.6 1 .2 0 .4-.1.5-.2.1-.7.2-1.4.2-2.1.2-.1-.2.2-.3.3z"/><path class="st4" d="M116.1 181.6c-.2.3-.4-.7-.4-.7-.1-.4-.1-.8-.1-1.2 0-.3-.4.1-.4.3v1c0 .2 0 .4-.1.5 0 .2 0 .3-.2.1-.5-.3-.2-1.4-.1-1.8.1-.3-.4 0-.4.1-.1.4-.5 2.3.4 2.2 1.1-.1.8-1.8.8-2.5-.1.1-.3.2-.4.3 0 .6 0 1.3.2 1.8s.7.3 1 0c.2-.2-.1-.3-.3-.1zM121.4 178.3c.1.6.4 1.1.7 1.6.1.1.2.3.4.3.3 0 .5-.4.5-.6.1-.3-.2-.4-.3-.1-.1.3-.5-.4-.6-.5-.2-.3-.4-.7-.5-1.1 0-.3-.3.2-.2.4zM120.6 180.4c.2-.2.5-.5.7-.3.2.2-.1.2-.3.2-.5-.2-.7-1.2-.7-1.7-.1-.3-.4.1-.3.3.1.5.5 2.7 1.5 1.8.3-.3.4-.7.2-1-.3-.5-.8 0-1.1.3-.1.1-.2.2-.2.4 0 0 .1.1.2 0z"/><path class="st4" d="M118 181.4c-.5.1-.4-1.6-.4-1.9 0-.2-.4.1-.4.3 0 .1 0 .2-.1.4s-.2.1-.3 0c-.1-.1-.1-.3-.1-.5 0-.3-.3 0-.4.1-.1.1-.2.3-.3.4-.2.3.2.3.3 0 .1-.1.2-.3.3-.4-.1 0-.2.1-.4.1-.1.4.1 1.1.7.8.4-.2.5-.7.5-1.1-.1.1-.3.2-.4.3 0 .4-.2 2.1.5 2.1.4-.1.7-.6.5-.6z"/><path class="st4" d="M117.8 181.9c.2-.1.4-.3.6-.4.2-.2.4-.5.6-.7 0-.1.1-.3 0-.3-.1-.1-.3.1-.3.2-.1.2-.2.3-.4.5l-.2.2-.1.1c-.2 0-.3.2-.3.3-.1 0-.1.1.1.1zM108.2 180.4c-.4-.2.6-1.5.8-1.8.1-.2-.3-.1-.4 0l-.3.3c-.1.1-.2-.1-.2-.2 0-.2.1-.3.2-.4.2-.2-.2-.2-.3-.1-.1.1-.3.1-.4.2-.3.1 0 .3.2.2.1-.1.3-.1.4-.2-.1 0-.2-.1-.3-.1-.3.3-.6 1 0 1 .4 0 .7-.3 1-.6h-.4c-.2.3-1.3 1.6-.8 2 .2 0 .7-.2.5-.3z"/><path class="st4" d="M107.8 180.6c.2.1.4 0 .6 0 .2 0 .5-.1.7-.2.1 0 .3-.1.2-.2 0-.1-.2-.1-.3 0-.1.1-.3.1-.5.2-.1 0-.2.1-.3 0-.1 0-.3 0-.4.1 0 0-.1.1 0 .1zM111.2 179.7c.4.3 1.1.3 1.5.1.2-.1.2-.4 0-.2-.2.1-.8.1-1-.1-.2-.1-.6.1-.5.2zM106.5 177.4c.1-.3.2-.7-.3-.8-.5-.1-.9.2-1.2.5-.3.3-.6.7-.5 1.1.2.5.7.6 1.1.6.4 0 .3-.3-.1-.3-.6 0-.4-.8-.2-1 .1-.2.3-.3.4-.5.1 0 .1-.1.2-.1.2-.1.2-.1.1 0 0 .1 0 .3-.1.4 0 .2.5.3.6.1z"/></g><g><path class="st4" d="M116.9 185.3c.1.2.3.6.6.4.2-.1.3-.4.4-.6v-1c0-.3-.1-.6-.1-.9-.1.1-.2.1-.3.2 0 .7.4 1.4.6 2 .1.3.4-.2.4-.4-.1-.6-.2-1.3-.1-1.9-.1.1-.2.1-.3.2 0 .4.4 2.6 1.2 1.7.2-.2.2-.6-.1-.4-.2.2-.5-.5-.5-.6-.1-.3-.3-.7-.3-1 0-.3-.3.1-.3.2-.1.7-.1 1.5 0 2.2.1-.1.3-.2.4-.4-.1-.3-.3-.6-.4-.9-.1-.3-.3-.6-.3-1 0-.3-.3.1-.3.2-.1.3 0 .7 0 1.1V185.2c.1-.1.1-.1 0-.1-.1-.1-.1-.3-.2-.4-.1.1-.5.5-.4.6zM111.9 183.7c0-.5-.2-.8-.7-.5-.5.3-.7.9-.8 1.4-.3 1.3 1.5.9 1.9.3.1-.1 0-.2-.1-.2s-.2.1-.3.2c-.3.5-.9.2-.9-.4 0-.2.1-.5.2-.7.1-.2.1-.3.3-.4-.1.1 0 .4 0 .5-.1.2.4 0 .4-.2z"/><path class="st4" d="M113 183.4c-.5 0-.8.5-.9 1-.1.4-.3 1.3.2 1.4.6.2 1-.6 1.1-1 .1-.3.2-1.2-.4-1.4-.1 0-.5.3-.3.4.3.1.3.5.3.7 0 .2 0 .4-.1.6 0 .1 0 .1-.1.2 0 .1-.1.2-.1.1-.3.1-.3-.6-.3-.7 0-.2.1-.4.1-.6 0-.1.1-.2.1-.3 0-.1.1-.1 0-.1.3.1.7-.2.4-.3zM116 183.5c-.5.1-.6.8-.7 1.2 0 .4 0 1.3.6 1.3.7 0 .8-.8.8-1.2 0-.4-.1-1.3-.7-1.3-.1 0-.4.5-.2.5.3 0 .4.4.5.6.1.2.1.4.1.6v.2c0 .1-.1.2 0 .2-.3.2-.5-.5-.5-.6v-.6-.3c0-.1.1-.1 0-.1.1-.1.4-.5.1-.5z"/><path class="st4" d="M113.8 183.6c.1.8-.1 1.6-.1 2.4 0 .3.5 0 .5-.2.1-.4.1-.7.2-1.1.1-.2.1-.8.4-.5.1-.1.2-.3.3-.4-.7-.5-1.1.8-1.2 1.3 0 .1.1.1.2.1.5-.2.2.7.5.9.3.2.8-.3 1-.5.3-.2 0-.4-.2-.2-.3.2-.4.3-.5 0 0-.2 0-.3-.1-.5-.1-.3-.4-.2-.6-.1.1 0 .1 0 .2.1 0-.2.1-.9.4-.7.1.1.5-.3.3-.4-.9-.7-1.3 1.7-1.4 2.2.2-.1.3-.1.5-.2.1-.8.2-1.7.1-2.5-.1-.2-.5.1-.5.3z"/><path class="st4" d="M112.9 183.8c.3.3.9.2 1.2 0 .2-.1.2-.4 0-.2-.2.1-.6.1-.8 0-.2-.2-.5.1-.4.2z"/></g></g></g></svg>