<svg xmlns="http://www.w3.org/2000/svg" viewBox="81 -21 291.2 292"><style>.st0{fill:#519E38;} .st1{fill:#DCBCED;} .st2{fill:#FFCFD8;} .st3{fill:none;stroke:#FFFFFF;stroke-width:4;stroke-miterlimit:10;} .st4{fill:#EFEFEF;} .st5{fill:#FFFFFF;} .st6{fill:#712F8F;} .st7{fill:#F4F4F4;} .st8{fill:#8F42B7;} .st9{fill:#267918;} .st10{fill:#483290;} .st11{fill:#DA1B51;} .st12{fill:#FFB0BF;} .st13{fill:#F1788A;}</style><g id="bath"><path class="st0" d="M323.5 115.1c0-2.2-1.8-4-4-4h-183c-2.2 0-4 1.8-4 4s1.8 4 4 4v103.8h5.3V119.1h172.7l-.3 16.7-1.4 70.8-7 18.8s-166.2-2.8-166.2 2.7 5 5.8 5 5.8h167.2c9 0 7.7-11.2 7.7-11.2l.1-103.5c2.2-.1 3.9-1.9 3.9-4.1z"/><path class="st1" d="M137.9 165.9h86.7V226h-86.7z"/><path class="st2" d="M224.5 165.9H313V226h-88.5z"/><path class="st3" d="M314.5 224.4c0 2-1.6 3.7-3.7 3.7H140.2c-2 0-3.7-1.6-3.7-3.7V117.8c0-2 1.6-3.7 3.7-3.7h170.6c2 0 3.7 1.6 3.7 3.7v106.6z"/><path class="st4" d="M320.5 112.1c0 2.2-1.8 4-4 4h-183c-2.2 0-4-1.8-4-4s1.8-4 4-4h183c2.3 0 4 1.8 4 4z"/><path class="st5" d="M153.4 152.7c0 1.7-1.4 3.1-3.1 3.1-1.7 0-3.1-1.4-3.1-3.1v-22.8c0-1.7 1.4-3.1 3.1-3.1 1.7 0 3.1 1.4 3.1 3.1v22.8zM223.5 116.1h1v112h-1z"/></g><g id="chernika_juice_bottle"><path class="st0" d="M212.4 51.5s-16.8-10.8-26-16.6c-9.2-5.9-15.1-4.3-15.1-4.3-5-4.6-8.5-3-8.5-3l-2-1.3.4-.6s-2.2-1.4-2.9-1.9c-.7-.5-1.3.6-1.3.6l-2.4 3.7-.2.3-2.4 3.8s-.7 1 0 1.4c.7.5 2.9 1.9 2.9 1.9l.4-.6 2 1.3s0 3.8 6.3 6.4c0 0 1.1 6 10.2 11.9 9.2 5.9 26 16.6 26 16.6s5.3 4 8-.2c.7-1.1 1.3-2 1.8-2.8 1.4-2.1 2-3.1 2-3.1l.1-.2.1-.2 2-3.1c.5-.8 1.1-1.7 1.8-2.8 2.7-4-3.2-7.2-3.2-7.2z"/><path class="st6" d="M188.4 31.1c-4.1-2.8-12.1-7.5-17.9-6 0 0-4-4.6-8.8-3.3l-2.5-1.6-1.8 2.9-.5.8-1.8 2.9 2.5 1.6c.8 4.9 6.7 6.6 6.7 6.6 1.2 6.4 10.1 12.1 14 14.3 9 5.8 20.3 13 20.3 13s5.3 3.9 7.6.2c.6-1 1.2-1.8 1.6-2.5 1.2-1.9 1.7-2.7 1.7-2.7l.2-.4 1.7-2.7c.4-.7 1-1.5 1.6-2.5 2.3-3.7-3.4-6.8-3.4-6.8s-12-7.9-21.2-13.8z"/><path class="st7" d="M160.1 19.4l2.1 1.3s.6-.3 1.6-.3c1.5 0 3.9.6 6.8 3.3 0 0 .7-.2 2.1-.2 2.5 0 7.1.7 13 4.5 9.2 5.9 26 16.6 26 16.6s5.8 3.2 3.2 7.3c-.7 1.1-1.3 2-1.8 2.8l-2 3.1-.3.4s-.6 1-2 3.1c-.5.8-1.1 1.7-1.8 2.8-.9 1.4-2.1 1.9-3.3 1.9-2.3 0-4.6-1.7-4.6-1.7s-16.8-10.8-26-16.6C164 41.8 163 35.8 163 35.8c-6.3-2.6-6.3-6.4-6.3-6.4l-2.1-1.4 5.5-8.6m-.3-1.4l-.5.8-5.5 8.6-.5.8.8.5 1.7 1.1c.2 1.2 1.3 4.3 6.4 6.6.5 1.7 2.6 6.9 10.5 12l26 16.6c.3.2 2.7 1.9 5.2 1.9 1.8 0 3.2-.8 4.2-2.3l1.3-2.1.5-.7 2-3.1.3-.4 2-3.1.4-.6 1.4-2.2c.8-1.2 1-2.5.7-3.9-.7-2.8-3.8-4.6-4.2-4.8l-26-16.6c-6-3.8-10.7-4.6-13.6-4.6-.8 0-1.4.1-1.8.1-3-2.6-5.5-3.2-7.1-3.2-.6 0-1.1.1-1.5.2l-1.7-1.1-1-.5zM149.8 26.4c-.3-.2-.5-.5-.5-.8-.1-.7.3-1.3.4-1.4l5-7.8c0-.1.5-.9 1.3-.9.2 0 .4.1.6.2l3.3 2.1-6.8 10.7-3.3-2.1z"/><path class="st7" d="M155.9 16c.1 0 .2 0 .4.1.7.5 2.9 1.9 2.9 1.9l-3 4.7-.2.4-3 4.7s-2.2-1.4-2.9-1.9c-.7-.5 0-1.4 0-1.4l2.4-3.7.2-.3 2.4-3.7c-.1-.1.3-.8.8-.8m0-1c-1 0-1.6.9-1.8 1.2l-2.4 3.7-.2.3-2.3 3.8c-.2.2-.6.9-.5 1.7.1.5.4.8.8 1.1l2.9 1.9.8.5.5-.8 3-4.7.2-.3 3-4.7.5-.8-.8-.5-2.9-1.9c-.2-.4-.5-.5-.8-.5z"/><path class="st1" d="M173.2 42.6c-.5.7-1.3.9-1.9.5-3.7-2.5-5.2-5.6-5.3-5.8-.3-.6 0-1.4.6-1.7s1.4 0 1.7.6c0 0 1.3 2.6 4.4 4.7.6.4.8 1.1.5 1.7z"/><circle class="st8" cx="190.7" cy="51" r=".7"/><circle class="st8" cx="199.2" cy="55.3" r=".7"/><circle class="st8" cx="192.8" cy="41.7" r=".7"/><circle class="st8" cx="198.1" cy="42" r=".7"/><circle class="st8" cx="203.7" cy="47.2" r=".7"/><circle class="st8" cx="200.3" cy="50" r=".7"/><circle class="st8" cx="203.7" cy="52.2" r="1.5"/><circle class="st8" cx="164.2" cy="28.2" r="1.5"/><circle class="st8" cx="175.5" cy="30" r="1.5"/><circle class="st8" cx="170.2" cy="32.3" r="1.5"/><circle class="st8" cx="194.5" cy="48.9" r="1.7"/><circle class="st5" cx="184.3" cy="40.7" r="8.4"/><path class="st9" d="M180.6 36.7c-1.3.3-1.1 1.2-.3 1.8 2.3 1.5 2.9 0 3-.1 0 0-.4.2-.8.1-.1 0-.5.3-.9.3h-.2.2c.2 0 .5-.1.8-.3-.1 0-.2-.1-.3-.1-.1.1-.5.4-.9.3H180.9h.3c.2 0 .5-.1.8-.4-.1-.1-.2-.1-.3-.2-.1.1-.4.4-.9.4h-.2.2c.2 0 .6 0 .8-.4-.1-.1-.2-.1-.4-.1 0 0-.2.3-.8.3h-.2.2c.2 0 .6-.1.7-.3-.6-.2-1.1-.1-1.2-.1h-.1l.1-.1s.3-.1.6-.1c-.2-.2-.4-.2-.4-.2h-.1l.1-.1c.2 0 .5.3.6.3.3 0 .5.1.8.2-.1-.7-.6-.8-.6-.8h-.1.1c.5.1.7.8.7.9.1 0 .1.1.2.1.1-.6-.5-1.1-.5-1.1l-.1-.1s.1 0 .3.2c.4.5.4 1.1.4 1.1.1.1.2.2.4.2 0-.2 0-.8-.3-1.2l-.1-.1.1-.1c.1.2.4.7.3 1.2.1 0 .3.1.4.1v-.1c.1-.4-.2-.8-.4-1l-.1-.2.2.1c.5.5.5 1 .5 1.1.2 0 .4-.1.4-.1V38c-.8-1.4-1.8-1.5-2.7-1.3zM183.2 34c-.6-.9-1.2-.6-1.4.2-.6 2.1.8 2.3.9 2.3 0 0-.3-.2-.3-.6-.1 0-.4-.3-.5-.6v-.2l.1.1c0 .1.2.3.5.5v-.2c-.1 0-.4-.3-.5-.6V34.6l.1.3c.1.2.2.4.5.5 0-.1.1-.2.1-.3-.1 0-.4-.2-.5-.6v-.2l.1.2c0 .1.2.5.5.5v-.3s-.3-.1-.5-.6v-.2.2c.1.1.2.5.4.5 0-.5-.2-.9-.2-.9l-.1-.1.1.1s.1.2.2.5c.1-.2.1-.4.1-.4v-.1l.1.1c.1.2-.1.5-.1.5.1.2.1.4.1.6.5-.3.5-.7.5-.7v-.1l.1.1c.1.4-.4.7-.5.8v.2c.5-.1.8-.6.8-.6v-.1s0 .1-.1.2c-.3.5-.7.6-.8.6 0 .1-.1.2-.1.3.1 0 .6-.2.8-.5l.1-.1-.1.1c-.1.1-.4.5-.9.6v.3h.1c.4-.1.6-.4.7-.5l.1-.2-.1.2c-.3.5-.6.6-.7.7 0 .1.2.3.2.3h.1c.7-1 .6-1.8.1-2.5z"/><path class="st9" d="M184 36.6c-.1-.6-.5-.5-.8-.2-.7 1 0 1.3 0 1.3s-.1-.2 0-.4c0 0-.1-.2-.1-.4v-.1.1c0 .1 0 .2.1.3 0 0 0-.1.1-.1 0 0-.1-.2-.1-.4v-.1.1c0 .1 0 .2.2.3l.1-.1s-.2-.2-.2-.4v.1c0 .1 0 .3.2.4 0-.1 0-.1.1-.2 0 0-.1-.1-.1-.4v-.1.1c0 .1 0 .3.1.3.1-.3 0-.5 0-.5v-.1.4c.1-.1.1-.2.1-.2 0 .1-.1.2-.1.3s0 .2-.1.3c.3 0 .4-.3.5-.3-.1.3-.4.4-.5.4l-.1.1c.2 0 .5-.2.5-.2s0 .1-.1.1c-.2.2-.5.2-.5.2s-.1.1-.1.2c.1 0 .3 0 .5-.1l-.1.1c-.1 0-.3.2-.5.1v.2h.1c.2 0 .4-.1.4-.1l.1-.1-.1.1c-.2.2-.4.2-.5.2v.2c.9-.6 1-1 .9-1.4zM185.5 37.7c-.2-1.1-1-1-1.5-.3-1.3 1.9-.1 2.5.1 2.5 0 0-.2-.3 0-.7 0-.1-.3-.5-.3-.8v-.2.2c0 .1 0 .4.3.6 0-.1.1-.2.1-.2-.1-.1-.3-.4-.3-.7V37.8v.3c0 .2 0 .4.3.6.1-.1.1-.2.2-.3-.1-.1-.3-.3-.3-.8v-.2.2c0 .1 0 .5.3.7.1-.1.1-.2.1-.3 0 0-.3-.2-.2-.7v-.2.2c0 .2 0 .5.2.6.2-.5.1-1 .1-1v-.1l.1.1v.5c.2-.1.2-.4.2-.4v-.1.1c0 .2-.2.4-.3.5 0 .2-.1.4-.2.6.6-.1.7-.5.7-.5v-.1.1c-.1.4-.7.5-.8.6l-.1.1c.5.1 1-.4 1-.4l.1-.1s0 .1-.1.2c-.4.4-.9.3-1 .3-.1.1-.1.2-.2.3.1 0 .6 0 1-.2l.1-.1-.1.1c-.1.1-.6.3-1 .3 0 .1-.1.2-.1.3h.1c.4.1.7-.1.9-.3l.1-.1-.1.2c-.5.4-.8.4-1 .4 0 .1.1.3.1.3h.1c1.4-.1 1.6-.9 1.4-1.8zM182.3 40.3c-1.2.3-1 1.1-.3 1.6 2.1 1.4 2.7 0 2.8-.2 0 0-.4.2-.8.1-.1 0-.5.3-.8.3h-.2.2c.1 0 .4-.1.7-.3-.1 0-.2-.1-.2-.1-.1.1-.4.3-.8.3H182.6h.3c.2 0 .4-.1.7-.3-.1-.1-.2-.1-.3-.2-.1.1-.3.4-.8.4h-.2.2c.2 0 .6 0 .7-.4-.1-.1-.2-.1-.3-.1 0 0-.2.3-.8.3h-.2.2c.2 0 .6-.1.7-.3-.6-.2-1.1-.1-1.1-.1h-.1l.1-.1s.2-.1.6-.1c-.2-.2-.4-.2-.4-.2h-.1l.1-.1c.2 0 .5.2.5.3.3 0 .5.1.7.1-.1-.6-.6-.7-.6-.7h-.1.1c.5.1.6.7.7.8.1 0 .1.1.2.1.1-.5-.4-1-.4-1l-.1-.1s.1 0 .2.1c.4.4.4 1 .4 1 .1.1.2.1.3.2 0-.1 0-.7-.3-1.1l-.1-.1.1.1c.1.1.4.6.3 1.1.1 0 .2.1.4.1v-.1c.1-.4-.2-.8-.4-.9l-.1-.1.2.1c.5.5.5.9.4 1 .2 0 .3-.1.4-.1v-.1c-.6-1.3-1.5-1.4-2.4-1.2z"/><path class="st9" d="M185.1 41c-.7.2-.6.7-.2 1 1.3.9 1.7 0 1.7-.1 0 0-.2.1-.5 0 0 0-.3.2-.5.2h-.1.1c.1 0 .3 0 .4-.2-.1 0-.1 0-.2-.1-.1 0-.3.2-.5.2h-.2.2c.1 0 .3 0 .4-.2-.1 0-.1-.1-.2-.1 0 0-.2.2-.5.2h-.2.1c.1 0 .4 0 .5-.2-.1 0-.1-.1-.2-.1 0 0-.1.2-.5.2h-.2.1c.1 0 .4 0 .4-.2-.4-.1-.7 0-.7 0h-.1.5c-.1-.1-.3-.1-.3-.1h-.1.1c.1 0 .3.1.3.2.2 0 .3 0 .4.1-.1-.4-.4-.5-.4-.5l.4-.3c.4.2.5.6.5.6s.1 0 .1.1c0-.3-.3-.7-.3-.7h-.1s.1 0 .1.1c.3.3.3.6.3.7.1 0 .1.1.2.1 0-.1 0-.4-.2-.7l-.1-.1.1.1c.1.1.2.4.2.7h.2v-.1c0-.3-.1-.5-.2-.6l-.1-.1.1.1c.3.3.3.6.3.7.1 0 .2-.1.2-.1v-.1c-.2-.7-.8-.8-1.3-.7z"/><path class="st9" d="M188.3 39.9c-.3-1.1-1-1-1.5-.3-1.4 1.9-.1 2.5.1 2.6 0 0-.2-.3 0-.7 0-.1-.3-.5-.3-.8v-.2.2c0 .1.1.4.3.7 0-.1.1-.2.1-.2-.1-.1-.3-.4-.3-.8V40.1v.3c0 .2.1.4.3.7.1-.1.1-.2.2-.3-.1-.1-.3-.3-.3-.8v-.2.2c0 .2 0 .5.3.7.1-.1.1-.2.1-.3 0 0-.3-.2-.2-.7v-.2.2c0 .2 0 .5.2.6.2-.5.1-1 .1-1v-.1l.1.1v.5c.2-.1.2-.4.2-.4v-.1.1c0 .2-.2.5-.3.5 0 .2-.1.5-.2.6.6-.1.7-.5.7-.5v-.1.1c-.1.4-.7.6-.8.6l-.1.1c.5.1 1-.4 1-.4l.1-.1s0 .1-.1.2c-.4.4-1 .3-1 .3-.1.1-.1.2-.2.3.1 0 .6 0 1-.2l.1-.1-.1.1c-.1.1-.6.3-1.1.3 0 .1-.1.2-.1.3h.1c.4.1.7-.2.9-.3l.1-.1-.1.2c-.5.4-.8.4-1 .4 0 .1.1.3.1.3h.1c1.6-.3 1.7-1.1 1.5-2z"/><path class="st9" d="M190 40.9c.1-1.1-.6-1.1-1.2-.6-1.7 1.6-.7 2.4-.7 2.5 0 0 0-.3.2-.7 0-.1-.1-.5 0-.8l.1-.2v.2c0 .1-.1.4.1.7 0-.1.1-.1.2-.2 0-.1-.1-.4 0-.8v-.1l.1-.2-.1.3c0 .2-.1.4.1.7l.2-.2c0-.1-.2-.4 0-.8v-.2.2c0 .1-.1.5.1.7.1-.1.1-.2.2-.3 0 0-.2-.3 0-.7v-.1l.1-.1-.1.2c0 .2-.1.5 0 .7.3-.5.3-.9.3-.9v-.1.1s0 .2-.1.5c.2-.1.3-.3.3-.3v-.1.1c-.1.2-.3.4-.4.4l-.3.6c.5 0 .7-.3.7-.3V41v.1c-.2.4-.7.4-.8.4l-.1.1c.4.2.9-.2.9-.2l.1-.1-.2.2c-.5.3-.9.2-.9.1-.1.1-.2.2-.2.3.1 0 .5.1.9 0h.1l-.1.1c-.1.1-.6.2-1 .1-.1.1-.1.2-.2.3h.1c.3.1.6 0 .8-.1l.1-.1-.1.1c-.5.3-.8.2-.9.2v.3h.1c1.1-.3 1.5-1.1 1.6-1.9zM182.6 44.4c-.8 1.2 0 1.7 1 1.4 3-.8 2.4-2.3 2.3-2.5 0 .1-.2.4-.6.7 0 .1-.2.7-.5.9l-.2.1.1-.2c.1-.1.3-.4.4-.8-.1 0-.2.1-.3.1 0 .1-.1.6-.5.9l-.1.1-.2.2.3-.3c.2-.2.3-.4.4-.8-.1 0-.3.1-.4.1 0 .1 0 .6-.5 1l-.1.1-.1.1.1-.2c.1-.1.5-.5.4-.9-.1.1-.3.1-.4.2 0 0 0 .4-.5.9l-.1.1-.1.1.2-.2c.1-.2.5-.5.4-.8-.6.4-1 .9-1 .9l-.1.1v-.2l.5-.5c-.3 0-.5.2-.5.2l-.1.1v-.1c.2-.2.6-.3.7-.3.2-.2.5-.4.7-.5-.6-.4-1.1-.1-1.1-.1l-.1.1.1-.1c.5-.3 1.1 0 1.2 0h.1c.1 0 .1 0 .2-.1-.4-.4-1.2-.4-1.2-.4h-.1s.1-.1.3-.1c.7 0 1.2.4 1.2.4.1 0 .3-.1.5-.2-.1-.1-.6-.5-1.1-.6h-.2.2c.2 0 .8.1 1.2.5.1-.1.3-.2.4-.3 0 0 0-.1-.1-.1-.3-.4-.8-.4-1-.4h-.2l.2-.1c.8-.1 1.1.3 1.2.4.1-.1.2-.4.2-.4l-.1-.1c-1.5 0-2.4.7-3 1.6zM189.5 43.5c.5-.6.1-.8-.4-.7-1.5.3-1.3 1-1.3 1.1 0 0 .1-.2.3-.3 0 0 .1-.3.3-.4l.1-.1-.1.1c-.1.1-.2.2-.2.4h.2c0-.1.1-.3.3-.4l.1-.1-.1.1c-.1.1-.2.2-.2.4h.2c0-.1 0-.3.3-.5h.1l-.1-.1c-.1.1-.3.2-.2.4.1 0 .1 0 .2-.1 0 0 0-.2.3-.4h.2l-.1.1c-.1.1-.2.2-.2.4.3-.2.5-.4.5-.4v-.1.1l-.2.2c.1 0 .3-.1.3-.1v.1c-.1.1-.3.1-.4.1-.1.1-.3.2-.4.2.3.2.5.1.5 0h-.1c-.3.1-.6-.1-.6-.1h-.1c.2.2.6.2.6.2h-.1c-.4 0-.5-.2-.6-.3-.1 0-.2 0-.2.1.1.1.3.3.5.3h.1-.1c-.1 0-.4-.1-.5-.3-.1 0-.1.1-.2.1v.1c.1.2.4.2.5.2h.1-.1c-.4 0-.5-.2-.6-.2-.1.1-.1.2-.1.2.7.4 1.2.2 1.5-.3zM185.5 42.3c-.1 0-.2-.1-.2-.2 1.6 2.3 3.4 3.6 3.4 3.7l.1-.2s-1.6-1.2-3.2-3.3h-.1zM182.8 36.5l-.2-.2.1.1c.4 1.9 1.2 3.5 2.1 4.9 0-.1.1-.1.2-.1-1-1.4-1.8-3-2.2-4.7-.1-.6 0-.1 0 0z"/><g><circle class="st10" cx="187.1" cy="42.8" r="1.3"/><ellipse transform="rotate(-127 186.804 42.19)" class="st6" cx="186.8" cy="42.2" rx=".5" ry=".8"/><ellipse transform="rotate(-127 186.73 42.115)" class="st10" cx="186.7" cy="42.1" rx=".3" ry=".4"/></g><g><circle class="st6" cx="187.8" cy="44.7" r="1.1"/><ellipse transform="rotate(172 187.23 44.748)" class="st10" cx="187.2" cy="44.7" rx=".5" ry=".7"/><ellipse transform="rotate(172 187.095 44.715)" class="st6" cx="187.1" cy="44.7" rx=".3" ry=".4"/></g><g><circle class="st10" cx="185.7" cy="44.9" r=".8"/><ellipse transform="rotate(172 185.228 44.926)" class="st6" cx="185.2" cy="44.9" rx=".4" ry=".5"/><ellipse transform="rotate(172 185.148 44.94)" class="st10" cx="185.1" cy="44.9" rx=".2" ry=".3"/></g><g><circle class="st6" cx="184.4" cy="42.9" r=".8"/><ellipse transform="rotate(172 183.894 42.94)" class="st10" cx="183.9" cy="42.9" rx=".3" ry=".5"/><ellipse transform="rotate(172 183.8 42.945)" class="st6" cx="183.8" cy="42.9" rx=".2" ry=".3"/></g><g><circle class="st10" cx="182.4" cy="40.1" r=".8"/><ellipse transform="rotate(127 182.165 40.374)" class="st6" cx="182.2" cy="40.4" rx=".3" ry=".5"/><ellipse transform="rotate(127 182.03 40.45)" class="st10" cx="182" cy="40.5" rx=".2" ry=".3"/></g><g><circle class="st6" cx="185.8" cy="40.6" r="1"/><ellipse transform="rotate(-98 185.797 40.003)" class="st10" cx="185.8" cy="40" rx=".4" ry=".6"/><ellipse transform="rotate(-98 185.803 39.896)" class="st6" cx="185.8" cy="39.9" rx=".2" ry=".4"/></g><path class="st5" d="M153.3 22.3c.5.3.7 1 .3 1.5l-1 1.6c-.3.5-1 .7-1.5.3-.5-.3-.7-1-.3-1.5l1-1.6c.3-.5 1-.7 1.5-.3z"/></g><g id="brusnika_juice_bottle"><path class="st0" d="M305 51.5s-16.8-10.8-26-16.6c-9.2-5.9-15.1-4.3-15.1-4.3-5-4.6-8.5-3-8.5-3l-2-1.3.4-.6s-2.2-1.4-2.9-1.9-1.3.6-1.3.6l-2.4 3.7-.2.3-2.4 3.7s-.7 1 0 1.4c.7.5 2.9 1.9 2.9 1.9l.4-.6 2 1.3s0 3.8 6.3 6.4c0 0 1.1 6 10.2 11.9 9.2 5.9 26 16.6 26 16.6s5.3 4 8-.2c.7-1.1 1.3-2 1.8-2.8 1.4-2.1 2-3.1 2-3.1l.1-.2.1-.2 2-3.1c.5-.8 1.1-1.7 1.8-2.8 2.7-3.9-3.2-7.1-3.2-7.1z"/><path class="st11" d="M281 31.1c-4.1-2.8-12.1-7.5-17.9-6 0 0-4-4.6-8.8-3.3l-2.5-1.6-1.8 2.9-.5.8-1.8 2.9 2.5 1.6c.8 4.9 6.7 6.6 6.7 6.6 1.2 6.4 10.1 12.1 14 14.3 9 5.8 20.3 13 20.3 13s5.3 3.9 7.6.2c.6-1 1.2-1.8 1.6-2.5 1.2-1.9 1.7-2.7 1.7-2.7l.2-.4 1.7-2.7c.4-.7 1-1.5 1.6-2.5 2.3-3.7-3.4-6.8-3.4-6.8s-12-7.9-21.2-13.8z"/><path class="st7" d="M252.7 19.4l2.1 1.3s.6-.3 1.6-.3c1.5 0 3.9.6 6.8 3.3 0 0 .7-.2 2.1-.2 2.5 0 7.1.7 13 4.5 9.2 5.9 26 16.6 26 16.6s5.8 3.2 3.2 7.3c-.7 1.1-1.3 2-1.8 2.8l-2 3.1-.3.4s-.6 1-2 3.1c-.5.8-1.1 1.7-1.8 2.8-.9 1.4-2.1 1.9-3.3 1.9-2.3 0-4.6-1.7-4.6-1.7s-16.8-10.8-26-16.6c-9.2-5.9-10.2-11.9-10.2-11.9-6.3-2.6-6.3-6.4-6.3-6.4l-2.1-1.3 5.6-8.7m-.3-1.4l-.5.8-5.5 8.6-.5.8.8.5 1.7 1.1c.2 1.2 1.3 4.3 6.4 6.6.5 1.7 2.6 6.9 10.5 12l26 16.6c.3.2 2.7 1.9 5.2 1.9 1.8 0 3.2-.8 4.2-2.3l1.3-2.1.5-.7 2-3.1.3-.4 2-3.1.4-.7 1.4-2.2c.8-1.2 1-2.5.7-3.9-.7-2.8-3.8-4.6-4.2-4.8l-26-16.6c-6-3.8-10.7-4.6-13.6-4.6-.8 0-1.4.1-1.8.1-3-2.6-5.5-3.2-7.1-3.2-.6 0-1.1.1-1.5.2l-1.7-1.1-1-.4zM242.4 26.4c-.3-.2-.5-.5-.5-.8-.1-.7.3-1.3.4-1.4l5-7.8c0-.1.5-.9 1.3-.9.2 0 .4.1.6.2l3.3 2.1-6.8 10.7-3.3-2.1z"/><path class="st7" d="M248.5 16c.1 0 .2 0 .4.1.7.5 2.9 1.9 2.9 1.9l-3 4.7-.2.3-3 4.7s-2.2-1.4-2.9-1.9 0-1.4 0-1.4l2.4-3.7.2-.3 2.4-3.7c-.1 0 .3-.7.8-.7m0-1c-1 0-1.6.9-1.8 1.2l-2.4 3.7-.2.3-2.4 3.7c-.2.2-.6.9-.5 1.7.1.5.4.8.8 1.1l2.9 1.9.8.5.5-.8 3-4.7.2-.3 3-4.7.5-.8-.8-.5-2.9-1.9c-.1-.3-.4-.4-.7-.4z"/><path class="st12" d="M265.8 42.6c-.5.7-1.3.9-1.9.5-3.7-2.5-5.2-5.6-5.3-5.8-.3-.6 0-1.4.6-1.7.6-.3 1.4 0 1.7.6 0 0 1.3 2.6 4.4 4.7.6.4.8 1.1.5 1.7z"/><circle class="st13" cx="283.3" cy="51" r=".7"/><circle class="st13" cx="291.8" cy="55.3" r=".7"/><circle class="st13" cx="285.4" cy="41.7" r=".7"/><circle class="st13" cx="290.7" cy="42" r=".7"/><circle class="st13" cx="298.8" cy="45.5" r=".7"/><circle class="st13" cx="292.9" cy="50" r=".7"/><circle class="st13" cx="296.3" cy="52.2" r="1.5"/><circle class="st13" cx="256.8" cy="28.2" r="1.5"/><circle class="st13" cx="268.1" cy="30" r="1.5"/><circle class="st13" cx="262.8" cy="32.3" r="1.5"/><circle class="st13" cx="287.1" cy="48.9" r="1.7"/><circle class="st5" cx="276.9" cy="40.7" r="8.4"/><path class="st5" d="M245.9 22.3c.5.3.7 1 .3 1.5l-1 1.6c-.3.5-1 .7-1.5.3-.5-.3-.7-1-.3-1.5l1-1.6c.3-.5 1-.7 1.5-.3z"/><g><path class="st9" d="M274.9 35.2c-1.3-.4-1.6.5-1.2 1.4 1.3 2.5 2.6 1.5 2.7 1.4-.1 0-.4 0-.8-.4-.1 0-.6 0-1-.1l-.2-.1.2.1c.1.1.4.2.9.1-.1-.1-.1-.2-.2-.3-.1 0-.6.1-.9-.1h-.1l-.2-.2.3.2c.2.1.5.2.9.1 0-.1-.1-.2-.2-.3-.1 0-.5.2-1-.1l-.1-.1-.1-.1.2.1c.2.1.6.3.9.1-.1-.1-.2-.2-.2-.3 0 0-.4.2-.9-.1l-.1-.1-.1-.1.2.1c.2.1.6.2.8.1-.5-.5-1-.6-1-.6h-.1.2s.3.1.6.3c0-.3-.3-.4-.3-.4h-.1.1c.2.1.3.5.4.6.2.2.4.3.6.5.2-.7-.1-1-.1-1l-.1-.1h.1c.4.3.2 1.1.2 1.2 0 .1.1.1.1.2.4-.5.2-1.2.2-1.2l-.1-.1s.1.1.1.3c.2.7-.2 1.2-.2 1.2.1.1.1.3.2.4.1-.1.4-.7.3-1.2v-.1l.1.2c0 .2 0 .8-.3 1.3l.3.3.1-.1c.3-.4.2-.8.2-1.1l-.1-.2.1.2c.2.7 0 1.1-.2 1.2.1.1.4.1.4.1l.1-.1c.2-2.2-.6-2.9-1.6-3.1zM278.7 34.1c-.1-1.1-.8-1.1-1.4-.5-1.6 1.6-.5 2.4-.3 2.5 0 0-.1-.3.1-.7 0-.1-.2-.5-.1-.8v-.2.2c0 .1 0 .4.2.7 0-.1.1-.1.1-.2s-.2-.4-.1-.8v-.1l.1-.2v.3c0 .2 0 .4.2.7l.2-.2c-.1-.1-.3-.4-.2-.8v-.2.2c0 .1-.1.5.2.7.1-.1.1-.2.2-.3 0 0-.2-.3-.1-.7v-.1l.1-.1-.1.2c0 .2 0 .5.1.6.2-.5.2-.9.2-.9v-.1.6c.2-.1.3-.3.3-.3v-.1.1c0 .2-.3.4-.3.4-.1.2-.1.4-.3.6.6 0 .7-.4.7-.4v-.1.1c-.2.4-.8.4-.8.4l-.1.1c.5.2 1-.2 1-.2l.1-.1s0 .1-.2.2c-.5.3-1 .2-1 .2-.1.1-.2.2-.2.3.1 0 .6.1 1 0l.1-.1-.1.1c-.1.1-.6.2-1 .1-.1.1-.1.2-.1.3h.1c.3.1.7 0 .9-.1l.2-.1-.1.1c-.5.3-.9.3-1 .2v.3h.1c1-.2 1.3-1 1.3-1.8z"/><path class="st9" d="M278 36.7c.2-.6-.2-.7-.6-.5-1.1.5-.7 1.1-.6 1.2 0 0 0-.2.2-.3 0 0 0-.3.1-.4l.1-.1v.1c0 .1-.1.2 0 .4l.1-.1s0-.3.1-.4l.1-.1-.1.1c0 .1-.1.2 0 .4.1 0 .1 0 .1-.1 0 0-.1-.2.1-.4v.1c0 .1-.1.2 0 .4l.1-.1s-.1-.2.1-.4l-.1.1c0 .1-.1.2-.1.3.2-.2.3-.4.3-.4v-.1.1s0 .1-.1.2c.1 0 .2-.1.2 0-.1.1-.2.1-.3.2-.1.1-.2.2-.2.3.3.1.4 0 .4 0l.1-.5h-.1c-.2.2-.5.1-.5.1h-.1c.2.2.5.1.5.1l-.1.1c-.3.1-.5-.1-.5-.1-.1 0-.1.1-.2.1.1 0 .3.2.5.2h.1-.1c-.1 0-.4 0-.5-.2l-.1.1c.2.1.4.1.5.1h.1-.1c-.3.1-.5 0-.5-.1v.2c.7.2 1-.1 1.1-.6zM278.8 38.6c.3-1.1-.4-1.4-1.2-1-2.1 1-1.3 2.2-1.2 2.3 0 0 0-.4.3-.6 0-.1 0-.5.1-.8l.1-.1-.1.2c-.1.1-.1.4-.1.7.1-.1.1-.1.2-.1 0-.1-.1-.5.1-.8v-.1l.1-.2-.1.2c-.1.1-.2.4-.1.7.1 0 .2-.1.3-.1 0-.1-.1-.5.1-.8V38l.1-.1-.1.2c-.1.1-.2.5-.1.8.1-.1.2-.1.3-.2 0 0-.1-.3.1-.7l.1-.1.1-.1-.1.2c-.1.1-.2.5-.1.7.4-.4.6-.8.6-.8v-.1.1s-.1.2-.2.5c.2 0 .4-.2.4-.2v-.1.1c-.1.2-.4.3-.5.3-.1.2-.3.4-.5.5.6.2.9-.1.9-.1l.1-.1v.1c-.3.3-.9.1-1 .1 0 0-.1.1-.2.1.4.3 1 .2 1 .2h.1s-.1.1-.2.1c-.5.1-1-.2-1-.2-.1.1-.2.1-.3.2.1.1.6.3 1 .3h.1l-.2.1c-.2 0-.7 0-1-.3-.1.1-.2.2-.2.3l.1.1c.3.3.7.2.9.2h.2l-.2.1c-.6.1-.9-.1-1-.2-.1.1-.1.3-.1.3l.1.1c1.5-.4 2-1 2.3-1.8zM274.6 39.2c-1.2-.3-1.5.5-1.1 1.3 1.2 2.3 2.4 1.3 2.5 1.2-.1 0-.4 0-.7-.3-.1 0-.6 0-.9-.1l-.1-.1.2.1c.1.1.4.1.8.1l-.2-.2c-.1 0-.5.1-.9-.1h-.1l-.2-.1.3.1c.2.1.4.2.8 0 0-.1-.1-.2-.2-.3-.1 0-.5.2-.9-.1l-.1-.1-.1-.1.2.1c.1.1.5.2.8 0-.1-.1-.1-.2-.2-.3 0 0-.4.2-.8-.1l-.1-.1-.1-.1.2.1c.2.1.5.2.7.1-.4-.4-.9-.6-.9-.6h-.1.1s.2.1.5.2c0-.2-.2-.4-.2-.4h-.1.1c.2.1.3.5.3.5.2.1.4.3.5.5.2-.6-.1-.9-.1-.9l-.1-.1h.1c.4.3.2 1 .2 1.1 0 0 .1.1.1.2.3-.4.1-1.1.1-1.1v-.1s.1.1.1.2c.2.6-.1 1.1-.2 1.1.1.1.1.2.2.3.1-.1.3-.6.3-1.1v-.1l.1.2c0 .2 0 .8-.3 1.2.1.1.2.2.3.2l.1-.1c.3-.3.2-.8.2-1v-.2l.1.2c.2.7 0 1-.1 1.1.1.1.3.1.4.1l.1-.1c.1-1.4-.6-2-1.6-2.3z"/><path class="st9" d="M276.8 41.3c-.8-.2-.9.3-.7.8.7 1.4 1.5.8 1.6.8 0 0-.3 0-.4-.2 0 0-.4 0-.6-.1l-.1-.1h.1c.1 0 .3.1.5 0l-.1-.1c-.1 0-.3 0-.6-.1h-.1l-.1-.1.2.1c.1.1.3.1.5 0 0-.1-.1-.1-.1-.2-.1 0-.3.1-.6-.1h-.1.1c.1.1.3.2.5 0 0-.1-.1-.1-.1-.2 0 0-.2.1-.5-.1h-.1v-.1l.1.1c.1 0 .3.1.5.1-.3-.3-.6-.4-.6-.4h-.1.1s.2 0 .3.1c0-.2-.2-.3-.2-.3h-.1.1c.1.1.2.3.2.3.1.1.3.2.3.3.1-.4-.1-.6-.1-.6h-.1.1c.2.2.1.6.1.7 0 0 0 .1.1.1.2-.3.1-.7 0-.7.1-.1.2 0 .2.1.1.4-.1.7-.1.7 0 .1.1.1.1.2 0-.1.2-.4.2-.7v-.1.1c0 .1 0 .5-.2.7l.2.2.1-.1c.2-.2.1-.5.1-.6v-.1l.1.1c.1.4 0 .6-.1.7.1 0 .2.1.2.1.2-.8-.3-1.2-.8-1.3z"/><path class="st9" d="M280.2 41.9c.3-1.1-.4-1.4-1.2-1-2.2 1-1.3 2.2-1.2 2.3 0 0 0-.4.3-.6 0-.1 0-.6.1-.8l.1-.1-.1.2c-.1.1-.1.4-.1.7.1-.1.1-.1.2-.1 0-.1-.1-.5.1-.8v-.1l.1-.2-.1.3c-.1.2-.2.4-.1.7.1 0 .2-.1.3-.1 0-.1-.1-.5.1-.9v-.1l.1-.1-.1.2c-.1.1-.2.5-.1.8.1-.1.2-.1.3-.2 0 0-.1-.3.1-.8l.1-.1.1-.1-.1.2c-.1.1-.2.5-.1.7.4-.4.6-.8.6-.8V41v.1s-.1.2-.2.5c.2 0 .4-.2.4-.2v-.1.1c-.1.2-.4.3-.5.3-.1.2-.3.4-.5.5.6.2.9-.1.9-.1l.1-.1v.1c-.3.3-.9.2-1 .1 0 0-.1.1-.2.1.4.3 1.1.2 1.1.2h.1s-.1.1-.2.1c-.6.1-1-.2-1-.2-.1.1-.2.1-.3.2.1.1.6.3 1 .3h.1l-.2.1c-.2 0-.7 0-1.1-.3-.1.1-.2.2-.2.3l.1.1c.3.3.7.2.9.2h.2l-.2.1c-.6.1-1-.1-1.1-.2-.1.1-.1.3-.1.3l.1.1c1.6-.2 2.2-.8 2.4-1.7z"/><path class="st9" d="M281.2 43.6c.6-.9.1-1.3-.8-1.1-2.3.6-1.9 1.8-1.8 1.9 0 0 .1-.3.5-.5 0-.1.2-.5.4-.7l.1-.1-.1.1c-.1.1-.2.3-.3.6.1 0 .2-.1.2-.1 0-.1.1-.5.4-.7l.1-.1.2-.1-.2.2c-.1.1-.3.3-.3.6.1 0 .2 0 .3-.1 0-.1 0-.4.4-.7l.1-.1.1-.1-.1.1c-.1.1-.4.4-.3.7.1 0 .2-.1.3-.1 0 0 0-.3.4-.7l.1-.1h.1l-.2.1c-.1.1-.4.4-.3.6.5-.3.8-.7.8-.7l.1-.1v.1s-.1.2-.4.4c.2 0 .4-.1.4-.1l.1-.1v.1c-.2.1-.5.2-.5.2-.2.2-.4.3-.6.4.5.3.8.1.8.2l.1-.2-.1.2c-.4.2-.9-.1-.9-.1h-.2c.3.3.9.3.9.3h.1s-.1.1-.2.1c-.5 0-.9-.3-.9-.3-.1 0-.2.1-.3.1.1.1.4.4.8.4h.1-.2c-.1 0-.6-.1-.9-.4-.1.1-.2.1-.3.2 0 0 0 .1.1.1.2.3.6.3.8.3h.2-.2c-.6 0-.8-.2-.9-.3-.1.1-.2.3-.2.3v.1c1 .4 1.7-.1 2.2-.8zM272.9 43.1c-1.3.7-.9 1.5.2 1.8 3 .8 3.3-.9 3.3-1 0 0-.4.3-.9.3-.1.1-.5.5-.9.6h-.2l.2-.1c.2-.1.5-.2.8-.6h-.3c-.1.1-.4.5-.9.6h-.4l.4-.1c.2-.1.5-.2.7-.6-.1 0-.3-.1-.4-.1-.1.1-.3.5-.9.6h-.2l.2-.1c.2-.1.7-.2.8-.6h-.4s-.2.4-.8.5h-.2.3c.2-.1.7-.2.7-.5-.8 0-1.3.3-1.3.3l-.1.1.1-.1s.3-.1.7-.2c-.2-.1-.6-.1-.6-.1h-.1l.1-.1c.3-.1.7.1.8.1.3-.1.6-.1.9-.1-.4-.6-.9-.6-.9-.6h-.2l.1-.1c.6-.1 1 .6 1.1.7h.1c.1 0 .1 0 .2.1-.1-.6-.9-.9-.9-.9h-.1s.2 0 .3.1c.7.3.8.9.8 1 .2 0 .3.1.5.1-.1-.1-.3-.7-.7-1l-.1-.1.2.1c.2.1.7.5.8 1.1h.5v-.1c0-.4-.5-.7-.7-.9l-.2-.1.2.1c.7.4.9.8.9.9l.4-.2v-.1c-1.7-1.4-2.9-1.3-3.9-.7zM279.5 45.7c.7-.3.5-.7 0-.9-1.5-.5-1.7.3-1.7.3s.2-.1.5-.1c0 0 .3-.2.5-.3h.1-.1c-.1 0-.3.1-.4.2h.2s.2-.2.5-.2h.2-.2c-.1 0-.3.1-.4.2.1 0 .1 0 .2.1 0 0 .2-.2.5-.3h.2-.1c-.1 0-.3.1-.4.3h.2s.1-.2.4-.2h.2-.1c-.1 0-.3.1-.4.2.4 0 .7-.1.7-.1h.1l-.1.1s-.1.1-.3.1c.1.1.3.1.3.1h.1-.1c-.1 0-.3-.1-.4-.1h-.4c.1.3.4.3.4.3l-.2.3h-.1c-.3 0-.5-.3-.5-.4h-.1c0 .3.4.5.4.5h-.1c-.3-.2-.4-.5-.4-.5-.1 0-.2-.1-.2-.1 0 .1.1.4.3.5h.1-.1c-.1-.1-.3-.3-.3-.6h-.2v.1c0 .2.2.4.3.5l.1.1h-.1c-.3-.2-.4-.4-.4-.5-.1 0-.2.1-.2.1.4.6 1 .5 1.5.3z"/><path class="st9" d="M276.5 42.6c0-.1-.1-.2-.1-.3.3 2.9 1.2 4.9 1.2 5l.2-.1s-.8-1.9-1.1-4.5c-.2 0-.2 0-.2-.1zM277 36.1c-.1 0-.1-.3-.1-.3v.1c-.6 1.9-.7 3.7-.6 5.4h.2c-.1-1.6 0-3.5.5-5.2.2-.5.1-.1 0 0z"/><path class="st11" d="M279.2 42.2c.3.7 0 1.5-.7 1.8s-1.5 0-1.8-.7c-.3-.7 0-1.5.7-1.8.7-.3 1.5 0 1.8.7"/><path class="st13" d="M278.4 41.8c0 .2-.2.3-.4.4-.3 0-.5-.1-.5-.3s.2-.3.4-.4c.3 0 .5.1.5.3"/><path class="st11" d="M277.7 43.7c.7 0 1.2.6 1.1 1.3 0 .7-.6 1.2-1.3 1.1-.7 0-1.2-.6-1.1-1.3.1-.7.7-1.2 1.3-1.1"/><path class="st13" d="M277.1 44.1c.2.1.2.3.1.5s-.3.3-.4.3c-.2-.1-.2-.3-.1-.5s.2-.3.4-.3"/><path class="st11" d="M275.6 43c.5 0 .9.5.8.9 0 .5-.5.9-.9.8-.5 0-.9-.5-.8-.9-.1-.4.4-.8.9-.8M275.4 40.5c.5 0 .9.5.8.9 0 .5-.5.9-.9.8-.5 0-.9-.5-.8-.9-.1-.5.4-.8.9-.8"/><path class="st13" d="M274.9 40.8c.1 0 .1.2.1.4-.1.2-.2.2-.3.2-.1 0-.1-.2-.1-.4 0-.1.2-.2.3-.2"/><path class="st11" d="M274.4 37c.4-.3.9-.3 1.3.1.3.4.3.9-.1 1.3-.4.3-.9.3-1.3-.1-.3-.4-.2-1 .1-1.3"/><path class="st13" d="M274.3 37.6c.1 0 .2 0 .3.2s0 .3-.1.4c-.1 0-.2 0-.3-.2 0-.2 0-.4.1-.4"/><path class="st11" d="M279 40c0 .6-.6 1.1-1.2 1-.6 0-1.1-.6-1-1.2 0-.6.6-1.1 1.2-1 .6.1 1 .6 1 1.2"/><path class="st13" d="M278.6 39.4c-.1.1-.3.2-.4.1-.2-.1-.3-.2-.3-.4.1-.1.3-.2.4-.1.2.1.3.3.3.4"/></g></g><g id="chernika_juice"><g id="chernichny_sok"><path class="st0" d="M169.5 65.3c-.1-.3-.2-.5-.4-.8l-6.6-13.3-6.6 13.4c-.1.2-.2.5-.3.7-.4.9-.6 1.9-.6 3 0 4.2 3.4 7.5 7.5 7.5 4.2 0 7.5-3.4 7.5-7.5.1-1.1-.2-2.1-.5-3z"/><path class="st6" d="M165.2 63.7c-.1-.3-.2-.5-.4-.8l-6.6-13.3-6.6 13.4c-.1.2-.2.5-.3.7-.4.9-.6 1.9-.6 3 0 4.2 3.4 7.5 7.5 7.5 4.2 0 7.5-3.4 7.5-7.5 0-1.1-.2-2.1-.5-3z"/><ellipse class="st8" cx="155" cy="64.9" rx="2" ry="2.1"/></g></g><g id="brusnika_x5F_juice"><g id="brusnichny_sok"><path class="st0" d="M262.1 65.3c-.1-.3-.2-.5-.4-.8l-6.6-13.3-6.6 13.4c-.1.2-.2.5-.3.7-.4.9-.6 1.9-.6 3 0 4.2 3.4 7.5 7.5 7.5 4.2 0 7.5-3.4 7.5-7.5 0-1.1-.2-2.1-.5-3z"/><path class="st11" d="M257.8 63.7c-.1-.3-.2-.5-.4-.8l-6.6-13.3-6.6 13.4c-.1.2-.2.5-.3.7-.4.9-.6 1.9-.6 3 0 4.2 3.4 7.5 7.5 7.5 4.2 0 7.5-3.4 7.5-7.5 0-1.1-.2-2.1-.5-3z"/><ellipse class="st13" cx="247.6" cy="64.9" rx="2" ry="2.1"/></g></g></svg>