<svg id="Layer_1" xmlns="http://www.w3.org/2000/svg" viewBox="6 10 182 202"><style>.st0{fill:#519E38;} .st1{fill:#FFFFFF;} .st2{fill:#EDEDED;} .st3{fill:#CA0000;} .st4{fill:#B00000;} .st5{opacity:0.6;fill:none;stroke:#FFFFFF;stroke-width:2;stroke-linecap:round;enable-background:new ;} .st6{fill:none;} .st7{fill:#F2F2F2;}</style><g id="thermometr"><path id="XMLID_37_" class="st0" d="M141.5 96.8V42.1c0-.5-.1-.9-.2-1.4 0 0-.8-5.5-6.2-6.1 0 0-3.8-.1-6 1.1-2.2 1.2 6.9 5.4 6.9 5.4s1.7.9 2.5 1.3v56.1l.8.4c.1 0 6.9 3.9 6.4 11.5-.4 5.9-3.8 10.3-8.9 12l-6.3-1.8s-7.5-.2-4.8 2.8c1.7 1.9 4.6 2.5 6.5 2.6.2.1.4.1.6.1.3 0 .6 0 .9-.1h.3c8.1-.7 14.1-6.9 14.6-15.3.6-7.9-5-12.4-7.1-13.9z"/><path id="XMLID_36_" class="st1" d="M138.5 97.5V42.6c0-4-3.2-7.2-7.2-7.2s-7.2 3.2-7.2 7.2v54.8c-4.4 2.5-7.3 7.2-7.3 12.6 0 8 6.5 14.4 14.4 14.4 8 0 14.4-6.5 14.4-14.4.1-5.3-2.8-10-7.1-12.5z"/><path id="XMLID_35_" class="st2" d="M138.5 97.5V42.6c0-4-3.2-7.2-7.2-7.2h-.1v89c8 0 14.4-6.5 14.4-14.4.1-5.3-2.8-10-7.1-12.5z"/><path id="XMLID_34_" class="st3" d="M135.8 99.7V55.3h-9.5v44.6c-3.9 1.9-6.6 5.8-6.6 10.4 0 6.4 5.2 11.5 11.5 11.5 6.4 0 11.5-5.2 11.5-11.5.1-4.7-2.8-8.8-6.9-10.6z"/><path id="XMLID_33_" class="st4" d="M135.8 99.7V55.3h-4.5v66.5c6.4 0 11.5-5.2 11.5-11.5 0-4.7-2.9-8.8-7-10.6z"/><path id="XMLID_32_" class="st5" d="M124.3 112.7s1.2 2.8 4 4"/><path id="XMLID_31_" class="st1" d="M132.7 62.5h-2.9c-.1 0-.2-.1-.2-.2s.1-.2.2-.2h2.9c.1 0 .2.1.2.2.1.1 0 .2-.2.2z"/><path id="XMLID_30_" class="st1" d="M132.7 64.2h-2.9c-.1 0-.2-.1-.2-.2s.1-.2.2-.2h2.9c.1 0 .2.1.2.2s0 .2-.2.2z"/><path id="XMLID_29_" class="st1" d="M134.5 65.8H128c-.1 0-.2-.1-.2-.2s.1-.2.2-.2h6.5c.1 0 .2.1.2.2s-.1.2-.2.2z"/><path id="XMLID_28_" class="st1" d="M132.7 67.5h-2.9c-.1 0-.2-.1-.2-.2s.1-.2.2-.2h2.9c.1 0 .2.1.2.2s0 .2-.2.2z"/><path id="XMLID_27_" class="st1" d="M132.7 69.1h-2.9c-.1 0-.2-.1-.2-.2s.1-.2.2-.2h2.9c.1 0 .2.1.2.2s0 .2-.2.2z"/><path id="XMLID_26_" class="st1" d="M134.5 70.8H128c-.1 0-.2-.1-.2-.2s.1-.2.2-.2h6.5c.1 0 .2.1.2.2s-.1.2-.2.2z"/><path id="XMLID_25_" class="st1" d="M132.7 72.4h-2.9c-.1 0-.2-.1-.2-.2s.1-.2.2-.2h2.9c.1 0 .2.1.2.2s0 .2-.2.2z"/><path id="XMLID_24_" class="st1" d="M132.7 74h-2.9c-.1 0-.2-.1-.2-.2s.1-.2.2-.2h2.9c.1 0 .2.1.2.2s0 .2-.2.2z"/><path id="XMLID_23_" class="st1" d="M134.5 75.7H128c-.1 0-.2-.1-.2-.2s.1-.2.2-.2h6.5c.1 0 .2.1.2.2s-.1.2-.2.2z"/><path id="XMLID_22_" class="st1" d="M132.7 77.3h-2.9c-.1 0-.2-.1-.2-.2s.1-.2.2-.2h2.9c.1 0 .2.1.2.2.1.1 0 .2-.2.2z"/><path id="XMLID_21_" class="st1" d="M132.7 79h-2.9c-.1 0-.2-.1-.2-.2s.1-.2.2-.2h2.9c.1 0 .2.1.2.2.1.1 0 .2-.2.2z"/><path id="XMLID_20_" class="st1" d="M134.5 80.6H128c-.1 0-.2-.1-.2-.2s.1-.2.2-.2h6.5c.1 0 .2.1.2.2s-.1.2-.2.2z"/><g id="thermometer_x5F_mask_2_"><path id="XMLID_9_" class="st6" d="M135.8 99.7V55.3h-9.5v44.6c-3.9 1.9-6.6 5.8-6.6 10.4 0 6.4 5.2 11.5 11.5 11.5 6.4 0 11.5-5.2 11.5-11.5.1-4.7-2.8-8.8-6.9-10.6z"/></g></g><g id="mask"><path id="XMLID_15_" class="st6" d="M135.8 99.7V55.3h-9.5v44.6c-3.9 1.9-6.6 5.8-6.6 10.4 0 6.4 5.2 11.5 11.5 11.5 6.4 0 11.5-5.2 11.5-11.5.1-4.7-2.8-8.8-6.9-10.6z"/></g><g id="vigimka"><path class="st0" d="M114.5 135.2c-.4-1-.9-2-1.5-3L87.4 80.3l-25.6 51.9c-.5.9-1 1.8-1.4 2.7-1.5 3.5-2.4 7.4-2.4 11.5 0 16.2 13.1 29.4 29.4 29.4s29.4-13.1 29.4-29.4c0-3.8-.9-7.7-2.3-11.2z"/><path class="st7" d="M100.7 128.3c-.4-1-.9-2-1.5-3L73.6 73.4l-25.6 52c-.5.9-1 1.8-1.4 2.7-1.5 3.5-2.4 7.4-2.4 11.5 0 16.2 13.1 29.4 29.4 29.4s29.4-13.1 29.4-29.4c0-3.9-.8-7.8-2.3-11.3z"/><ellipse class="st1" cx="61" cy="132.8" rx="8" ry="8.2"/></g></svg>