<svg xmlns="http://www.w3.org/2000/svg" viewBox="110 -116 277.6 288"><style>.st0{fill:#519E38;} .st1{fill:#F4F4F4;} .st2{fill:#D6D6D6;} .st3{fill:#EAEAEA;} .st4{fill:#FFFFFF;} .st5{fill:#483290;} .st6{fill:#62BA47;} .st7{fill:#62BA46;} .st8{fill:url(#SVGID_1_);} .st9{fill:url(#SVGID_2_);} .st10{fill:url(#SVGID_3_);} .st11{fill:url(#SVGID_4_);} .st12{fill:url(#SVGID_5_);}</style><g id="bottle"><g id="butylka_2"><path class="st0" d="M286.5 108.9V9.3l-14.6-48.4c3.9-21.7-6.5-28.2-6.5-28.2v-7.8h2.2v-11.2c0-2.8-3.9-2.5-3.9-2.5H233.8s-3.9-.3-3.9 2.5v11.2h2.3v7.8h-.1s-10.4 6.5-6.5 28.2c0 0-14.6 13.4-14.6 48.4v99.6s-1.5 21.4 14.3 21.4H272.2c15.8 0 14.3-21.4 14.3-21.4z"/><path class="st1" d="M278.8 103.8V4.2l-14.6-48.4c3.9-21.7-6.5-28.2-6.5-28.2v-8h-33v8h-.1s-10.4 6.5-6.5 28.2c0 0-14.6 13.4-14.6 48.4v99.6s-1.5 21.4 14.3 21.4h46.8c15.7 0 14.2-21.4 14.2-21.4z"/><path class="st2" d="M256.1-93.9H226.2s-3.9-.3-3.9 2.5v11.2H260v-11.2l-3.9-2.5z"/><path class="st3" d="M278.8 103.8V4.2l-14.6-48.4c3.9-21.7-6.5-28.2-6.5-28.2v-8h-16.6v205.6H264.5c15.8 0 14.3-21.4 14.3-21.4z"/><path class="st4" d="M215.8-7.3h-.5c-2.3-.3-3.9-2.4-3.6-4.7 1.9-14.4 8.8-23.1 9.1-23.5 1.4-1.8 4.1-2.1 5.9-.6 1.8 1.4 2.1 4.1.6 5.8-.1.1-5.8 7.4-7.4 19.3-.3 2.2-2 3.7-4.1 3.7z"/><g><circle class="st5" cx="240.4" cy="36.3" r="20"/><circle class="st6" cx="224.5" cy="54" r="6.3"/><path class="st4" d="M221.7 52.9c.1-.4.6-.4.9-.2.4.3-.2.7-.4.9s-.6.5-.5.9c.1.3.7.2.9.3.4.1.5.3.4.7-.2.6-1 .3-1.2 0-.2-.2-.8.4-.6.6.8.8 1.9.2 2.4-.6.2-.3.3-.9 0-1.2-.2-.3-.8-.2-1.1-.3-.1-.1-.1 0-.1.1.1-.1.3-.2.4-.4.2-.2.4-.3.5-.5.2-.3.2-.9-.1-1.1-.8-.5-1.8.4-2 1.1-.3.3.4-.1.5-.3zM227.2 52.3c-.8 1.3-1.7 2.5-2.6 3.6-.4.5.2.5.5.1.9-1.2 1.9-2.5 2.7-3.8.4-.5-.4-.2-.6.1zM225.8 51.9c-.5 0-.8.5-.9.9-.1.4.2.8.6.8.9 0 1.4-1.6.3-1.7-.2 0-.6.5-.3.5.2 0 .3.2.4.4v.2c0 .1 0 0 0 0h-.1c-.2 0-.4-.2-.4-.4v-.3h.1c.3.1.6-.4.3-.4zM227.2 54.6c-.5 0-.8.5-.9.9-.1.4.2.8.6.8.8 0 1.3-1.6.3-1.7-.2 0-.6.5-.3.5.2 0 .3.2.4.4v.2c0 .1 0 0 0 0h-.1c-.2 0-.4-.2-.4-.4V55h.1c.2.1.5-.4.3-.4zM256 38.7c-.2 0-.5.1-.6.3s-.2.4-.4.5h-.1c-.1-.2 0-.6.1-.7.1-.6.4-1.2.7-1.7.1-.1.2-.2.3-.4.1-.1.1-.3-.2-.3-.2 0-.5.1-.6.2-.1.1-.2.3-.3.4-.1.2-.3.3-.5.5-.2.1-.3.1-.5.2.2-.6.3-1.2.5-1.8 0-.1 0-.2-.1-.2-.2-.1-.7.1-.8.3-.3.9-.8 1.7-1.5 2.3l-.1-.1c-.1-.1-.1-.2-.1-.3 0-.2 0-.5.1-.7 0-.2.1-.3.1-.5.1-.4.3-.8.4-1.1 0-.1.1-.2.1-.3.1-.2-.2-.2-.3-.2-.2 0-.4.2-.5.3s-.1.3-.1.4l-.3.9c0 .1-.1.3-.1.4-.1.3-.2.5-.4.7l-.1-.1c-.3-.3-.1-1 0-1.4 0-.2.1-.3.1-.5 0-.1.1-.1.1-.2v-.1c.1-.2.2-.5.3-.7.1-.1 0-.3-.2-.3s-.5.1-.6.3c-.2.4-.4.7-.5 1.1-.2.4-.4.9-.7 1.3 0 0-.1-.1-.1-.2-.1-.2 0-.5 0-.7 0-.7.2-1.5.3-2.2V34l-.1-.1c-.2-.1-.5 0-.6.2-.5.4-.6 1.1-.8 1.6-.1.3-.2.7-.4 1 0 0 0 .1-.1.1-.1-.1-.1-.2-.1-.3 0-.1 0-.2-.2-.2s-.4.2-.5.4c-.1-.1-.2-.2-.2-.3-.1-.2 0-.5 0-.7s0-.3.1-.5c.1-.4.2-.8.2-1.2 0-.1.1-.2.1-.4s-.2-.2-.4-.2c-.2.1-.4.2-.5.4 0 .2-.1.4-.1.6 0 .2-.1.4-.1.7 0 .2-.1.4-.1.5-.1.3-.1.5-.3.8 0 0-.1 0-.2-.1-.4-.2-.3-1-.3-1.3.1-.5.2-1 .4-1.5.1-.1.1-.2 0-.2-.1-.1-.3-.1-.4 0-.1 0-.2.1-.2.1l-.1.1c-.1 0-.1.1-.2.1-.4.1-.7 0-.9-.3l-.3-.3c-.3-.2-.6-.1-.9.1 0-.2 0-.5-.1-.7 0-.2-.4 0-.4 0-.2.1-.3.3-.3.5-.1 0-.2 0-.3.1-.1 0-.3.1-.3.2l-.1.1-.1.1c-.1 0-.1.1-.2.1-.4.2-.7 0-.9-.2 0 0 0-.1-.1-.1-.1-.1-.3-.2-.4-.2h-.5c-.2.1-.3.3-.4.5-.1.2-.2.5-.3.7 0 .1-.1.1-.1.2-.1.3-.3.6-.4.8-.1-.7-.1-1.3-.2-2 0-.2-.3-.1-.5.1-.1-.1-.3-.1-.4-.1h-.1c-1 .2-1.2 1.4-1.1 2.1v.4c0 .2 0 .6-.2.8-.2.2-.5-.5-.5-.6-.3-.7-.3-1.6-.4-2.4 0-.2-.3-.1-.4 0-.2.1-.4.3-.3.5.1.6.2 1.2.2 1.9v.8h-.2c-.4-.1-.6-.9-.6-1.2-.1-.5-.1-1.1-.1-1.6 0-.2-.1-.3-.3-.2-.2.1-.4.3-.4.5-.1.7 0 1.4.2 2 0 .1.1.2.1.4-.1 0-.1.1-.2.1l-.2.2c-.3 0-.6-.8-.6-1-.2-.6-.3-1.3-.4-1.9 0-.2-.3-.1-.4 0-.2.1-.3.4-.3.6.1.6.3 1.2.3 1.8 0 .3.1.5 0 .8h-.2c-.4-.1-.6-.8-.7-1.1-.1-.2-.1-.4-.1-.7v-.1-.1-.8c0-.2-.1-.3-.3-.1-.2.1-.3.4-.3.6 0 .3 0 .7.1 1 .1.5.1 1 0 1.5v.2h-.1c-.3-.1-.4-.4-.6-.6-.5-.7-.7-1.6-1-2.4l-.3-1.2c-.1-.2-.1-.6-.1-.8 0-.4-.5 0-.6.3-.5 1.3 0 2.6.3 3.8 0 .1 0 .3.1.4-.3.1-.6.1-.9-.1-.3-.1-.7.7-.4.8.5.3 1 .2 1.4-.1 0 .2 0 .7-.1.9-.1.1-.4.1-.5 0-.2-.1-.3-.2-.4-.4s-.3-.1-.4 0c-.1.2-.3.4-.2.6.1.4.6.8 1.2.6.8-.3.9-1.3 1-1.9v-.4c0-.1.1-.1.1-.2.2.4.4.8.7 1.1.3.4.7.5 1.1.2.2-.2.4-.5.4-.7.2.3.4.5.8.5.4-.1.6-.4.8-.7l.3.3c-.2.5-.3.9 0 1.3.2.3.7-.5.5-.7s-.1-.4 0-.7c.2-.1.3-.3.4-.5 0-.1.1-.1.1-.2.2.3.4.5.7.5.4 0 .7-.3.9-.7 0 .1.1.2.2.2.4.5 1 0 1.3-.3l.1-.1c.2.3.4.5.8.4.1 0 .2 0 .3-.1-.3.6-.5 1.2-.6 1.8-.1.5 0 1.1.6 1.1.4 0 .7-.4.8-.7.3-.6.2-1.3.2-1.9 0-.4-.1-.7-.1-1.1.1-.2.2-.5.4-.7.1.6.3 1.5 1 1.5.4 0 .8-.4.9-.8.2-.4.3-.8.3-1.3v-.7c.1 0 .3-.1.4-.1-.1.3-.1.6-.1.8 0 .6 0 1.2.4 1.7.2.2.4.3.6.2.1 0 .2 0 .3-.1 0 .8-.1 1.5-.2 2.2 0 .2.2.2.3.1.2-.1.3-.3.4-.5.1-.6.1-1.2.2-1.8.3 0 .5-.1.8-.3.5-.4.7-1.2.7-1.9v-.4c.2 0 .5-.1.7-.2l-.3 1.5c0 .5 0 1.3.6 1.4.4.1.7 0 1-.3.1.3.4.5.7.5.1 0 .3-.1.4-.1.2.3.6.3.9.1.3-.2.5-.4.6-.7v.3c0 .3 0 .5.2.8.1.2.7.1.7.1h.1c.2-.1.3-.2.5-.3 0 .3.1.7.4.8.3.1.6 0 .9-.1 0 .1 0 .2.1.2.1.3.5.4.8.3.4-.1.8-.5 1.1-.9-.1.4-.2.8-.4 1.1-.1.2.1.2.3.2s.4-.1.5-.3c.1-.3.3-.6.5-.8.1-.1.2-.1.4-.2-.2.5-.3.9-.4 1.4 0 .4.2.6.7.6.7-.1 1.3-.5 1.6-1.1-.2.7-.4.6-.6.6zm-27.3-.3zm0 0zm1.6-.4zm3-.7zm2.5-1.7c0-.3-.1-.6 0-1 0-.1 0-.2.1-.3.5 0 .7.9.7 1.2s.1.6 0 1V36.8c-.5.2-.8-.9-.8-1.2zm1.1 3.8c0 .1 0 .2-.1.2h-.1c-.1 0-.1 0-.2-.1-.2-.1-.1-.5-.1-.7l.3-.9v.5c.3.3.3.7.2 1zm2.4-3c0 .1 0 .1-.1.2v.1c-.4.1-.6-1-.6-1.3v-.9c.1-.1.1-.2.2-.3.1 0 .1 0 .2.1v.1l.1.1c.2.3.2.8.3 1-.1.2-.1.6-.1.9zm2.1.2l-.3-.3c-.2-.4-.2-.8-.2-1.2 0-.3.1-.7.2-1h.1c.2.2.3.6.4.9v1.6h-.2zm1.3.1c.1 0 .1 0 0 0zm.1-.1c-.1.1-.1.1 0 0-.1.1-.1.1 0 0-.3.1-.5-.2-.4-.4 0-.6.1-1.1.1-1.7 0-.1 0-.3.1-.4.1 0 .2.1.2.1l.1.1c.2.3.2.7.2 1.1-.1.4-.2.9-.3 1.2zm2.5.4zm5.5 1.1z"/><path class="st5" d="M231 11.7c0 1.4-1.1 2.6-2.6 2.6-1.4 0-2.6-1.1-2.6-2.6 0-1.4 1.1-2.6 2.6-2.6 1.4.1 2.6 1.2 2.6 2.6z"/><path class="st6" d="M231.1 20.4c0 1.8-1.5 3.3-3.3 3.3-1.8 0-3.3-1.5-3.3-3.3s1.5-3.3 3.3-3.3c1.8 0 3.3 1.4 3.3 3.3zM222.3 15.3c0 1.1-.9 1.9-1.9 1.9-1.1 0-2-.9-2-1.9 0-1.1.9-2 2-2 1 0 1.9.9 1.9 2z"/><g><circle class="st6" cx="257.5" cy="18" r="11"/><path class="st4" d="M254.8 16.4c-.9.1-1.2 1.2-1.2 1.9v.3c0 .4 0 .6-.1 1 0 .1-.1.4-.1.4-.3 0-.6-.5-.7-.7-.2-.6-.4-1.2-.5-1.7-.1-.6-.2-1.3-.2-2v-.8-.3-.2c.1-.5-.6 0-.7.2-.7 1.3-.5 2.8-.5 4.2 0 .4 0 .8-.1 1.1 0 .3-.1.7-.3.9-.1.1-.4 0-.5 0-.2-.1-.3-.3-.3-.5s-.3-.1-.4 0c-.2.2-.3.4-.3.6.1.5.5.9 1.1.8.8-.2 1.2-1.2 1.4-2 .1-.4.1-.7.2-1.1.1.5.3 1.1.5 1.6.2.4.5.7 1 .7.3-.1.6-.4.8-.8.2.4.4.6.8.6.5 0 .8-.5 1-.9s.3-.9.3-1.4c-.1-.6-.2-2-1.2-1.9zm.3 3.2c0 .1 0 .2-.1.3-.2 0-.3-.3-.4-.4-.1-.3-.2-.6-.2-1v-1c0-.1 0-.2.1-.3.5.3.6.9.6 1.4.1.3.1.6 0 1zM265.8 17.7c-1-.4-1.5 1-1.7 1.7s-.4 1.9.5 2.3c.4.2.9-.1 1.2-.4.3-.3.5-.8.6-1.2.1-.8.3-2.1-.6-2.4zm-.6 3.2c0 .1-.1.2-.1.2-.2-.1-.2-.4-.2-.5-.1-.3 0-.7 0-1 .1-.3.2-.7.3-1 0-.1.1-.2.1-.2.4.4.3 1.1.2 1.6-.1.2-.2.6-.3.9zM263.1 17.9c.2-.2.4-.5.5-.8.4-.6.7-1.2.7-1.9 0-.6-.9-.7-1.3-.5-.6.3-1 1-1.2 1.6-.2.9-.4 1.7-.4 2.6-.3.4-1 1.1-1.5.8-.1-.1-.2-.2-.2-.4.4-.4.8-.9 1.1-1.4.3-.4.5-1.2-.1-1.5-.5-.3-1.1 0-1.4.4-.3.4-.5.9-.5 1.4 0 .3-.1.7 0 1.1-.3.2-.6.3-1 .2s-.5-.5-.6-.8c-.1-.5-.1-.9 0-1.4 0-.1.1-.3.1-.4v-.1c.2.1.3.5.4.6.1.3.9-.2.8-.5-.1-.3-.2-.7-.6-.8-.3-.2-.8.1-1 .3-.6.6-.7 1.5-.6 2.3 0 .5.1 1.1.6 1.4.6.4 1.4 0 2-.3.2.4.4.6.9.6.6-.1 1.1-.4 1.6-.8 0 .4.1.9.4 1.1.5.3 1.2 0 1.5-.5.5-.6.7-1.4.4-2.1 0-.1-.3-.2-.6-.2zm-3.3-.4c0-.1.1-.3.2-.4.2.1.3.4.3.6-.1.4-.3.7-.6 1.1v-.2c-.1-.4 0-.8.1-1.1zm3.2-1.8c.1-.1.1-.3.2-.4.4.4 0 1-.2 1.4s-.4.8-.7 1.2c.1-.4.1-.8.2-1.1.1-.4.3-.8.5-1.1zm-.3 4.5s-.1.1-.1.2h-.1c-.2-.1-.3-.7-.3-.9v-.6c.1-.1.2-.2.3-.4.2-.1.4.1.4.4.2.4 0 .9-.2 1.3z"/></g><g><path class="st7" d="M216.1 27.8c-.1 0-.2-.2-.3-.2-.4-.2-.7.1-1.1.1-1 0-1.3 0-2.4-.3 0-1 .6-1.6.8-2.4.2-.7-.1-1.5-.1-2.3v-1.4c-.3.3-.2 1.2-.2 1.6-.1-.6-.1-1.4-.3-1.9-.1.6 0 1.3 0 1.9-.2-.5-.2-1.2-.4-1.6-.3.5.2 1.3.1 1.8-.2-.5-.3-1-.6-1.5-.1.6.2 1.2.2 1.6-.2-.4-.3-.8-.6-1.1 0 .4.3.9.4 1.3-.3-.1-.4-.5-.6-.6 0 .3.3.5.4.8-.2-.1-.3-.3-.5-.4 0 .3.3.4.3.6-.1-.1-.3-.2-.4-.3 0 .2.3.4.3.5 0 0-.2-.1-.2 0 0 0 .2.1.1.2h-.2c0 .2.2.1.1.3-.1 0-.1-.1-.1 0s.1.1.1.2c-.8.8-.4 1.8-.5 2.8.1-.1-.7-.3-1.2-.5-.3-.1-.4-.5-.6-.6 0-.1.1 0 .1-.1-.1 0-.2-.1-.2-.2.1 0 .3.1.3 0-.1-.1-.5-.2-.5-.3.2 0 .4.1.6.1-.2-.1-.6-.3-.6-.5.2.1.5.3.7.2-.3-.2-.8-.4-.9-.7.3.1.6.4.8.4-.4-.1-.7-.6-1.1-.6.2.4.8.6.9.8-.3-.2-.6-.3-1-.5.1.4.6.5.9.8-.3 0-.5-.2-.8-.2.1.3.6.2.7.5-.1-.1-.3 0-.5 0 0 .2.4.2.5.3-.2 0-.3 0-.4.1.1.1.3.1.4.2-.1 0-.2 0-.2.1s.3 0 .3.1c-.1 0-.1.1-.1.1h.2c-.1 0-.1 0-.1.1.4.2.7.9 1.3 1.2-.3.2.3.4-3.5 1.8.1 0 1.7-.4 2.2-.5.5-.2.9-.3 1.4-.4.1 0 .2-.1.3-.1.8-.1 1.5.1 2.3-.4-.6.1-1.6.2-2-.1.5-.8.2-2.9.6-3.3.4-.4 1.1-1.8 1.9-.6.1.2.2.4-.1.9-.4.6-.6.9-.5 2.1 0 .3 0 .5-.4.5 1.7.4 2.2.2 3.1 0 .3 0 .8-.3.8 0 0 .1-.3.1-.6.1-.5 0 .2.2.4.2.1 0 1-.1 1.5-.2-.7-.4-.9-.4-1.2-.5z"/><path class="st7" d="M211.2 19.2c-3.8 0-6.9 3.1-6.9 6.9 0 3.8 3.1 6.9 6.9 6.9s6.9-3.1 6.9-6.9c.1-3.8-3.1-6.9-6.9-6.9m0 .3c3.7 0 6.7 3 6.7 6.7s-3 6.7-6.7 6.7-6.7-3-6.7-6.7 3-6.7 6.7-6.7"/></g></g></g></g><g id="snow"><g id="sneg"><linearGradient id="SVGID_1_" gradientUnits="userSpaceOnUse" x1="324.531" y1="122.004" x2="340.518" y2="76.706" gradientTransform="matrix(1 0 0 -1 0 55)"><stop offset="0" stop-color="#404B71"/><stop offset=".604" stop-color="#3C476E"/><stop offset="1" stop-color="#354169"/></linearGradient><path class="st8" d="M328-26l-1.7-6.4 1.6-2.7.2.8c.2.8 1.1 1.3 1.9 1.1.1 0 .3-.1.4-.2.6-.3.9-1.1.7-1.8l-1-3.9 1.9-3.3 2 3.4-1 3.9c-.2.8.3 1.7 1.1 1.9.4.1.9 0 1.2-.2.4-.2.6-.5.7-1l.2-.8 1.6 2.7-1.7 6.4c-.2.8.3 1.7 1.1 1.9.4.1.9 0 1.2-.2.4-.2.6-.5.7-1l.9-3.3 2.5 4.4c.4.8 1.4 1 2.2.6.8-.4 1-1.4.6-2.2l-2.5-4.4 3.3.9c.4.1.9 0 1.2-.2.4-.2.6-.5.7-1 .2-.8-.3-1.7-1.1-1.9l-6.4-1.7-1.6-2.7.8.2c.4.1.9 0 1.2-.2.4-.2.6-.5.7-1 .2-.8-.3-1.7-1.1-1.9l-3.8-1-1.9-3.3h3.8l2.8 2.8c.5.5 1.3.6 1.9.3l.3-.3c.6-.6.6-1.6 0-2.2l-.6-.6h3.1l4.7 4.7c.5.5 1.3.6 1.9.3l.3-.3c.6-.6.6-1.6 0-2.2l-2.4-2.4h5c.3 0 .6-.1.8-.2.5-.3.8-.8.8-1.4 0-.9-.7-1.6-1.6-1.6h-5l2.4-2.4c.6-.6.6-1.6 0-2.2-.6-.6-1.6-.6-2.2 0l-4.7 4.7H343l.6-.6c.6-.6.6-1.6 0-2.2-.6-.6-1.6-.6-2.2 0l-2.8 2.8h-3.8l1.9-3.3 3.9-1c.1 0 .3-.1.4-.2.6-.3.9-1.1.7-1.8-.2-.8-1.1-1.3-1.9-1.1l-.8.2 1.6-2.7 6.4-1.7c.1 0 .3-.1.4-.2.6-.4.9-1.1.7-1.8-.2-.8-1.1-1.3-1.9-1.1l-3.3.9 2.5-4.4c.4-.8.2-1.7-.6-2.2-.8-.4-1.7-.2-2.2.6l-2.5 4.4-.9-3.3c-.2-.8-1.1-1.3-1.9-1.1-.8.2-1.4 1.1-1.1 1.9l1.7 6.4-1.6 2.7-.2-.8c-.2-.8-1.1-1.3-1.9-1.1s-1.3 1.1-1.1 1.9l1 3.9-1.9 3.3-1.9-3.3 1-3.9c.2-.8-.3-1.7-1.1-1.9-.8-.2-1.7.3-1.9 1.1l-.2.8-1.6-2.7L328-65c.2-.8-.3-1.7-1.1-1.9s-1.7.3-1.9 1.1l-.9 3.3-2.5-4.4c-.4-.8-1.4-1-2.2-.6-.8.4-1 1.4-.6 2.2l2.5 4.4-3.3-.9c-.8-.2-1.7.3-1.9 1.1s.3 1.7 1.1 1.9l6.4 1.7 1.6 2.7-.8-.2c-.8-.2-1.7.3-1.9 1.1-.2.8.3 1.7 1.1 1.9l3.8 1 1.9 3.3h-3.8l-2.8-2.8c-.6-.6-1.6-.6-2.2 0-.6.6-.6 1.6 0 2.2l.6.6H318l-4.7-4.7c-.6-.6-1.6-.6-2.2 0-.6.6-.6 1.6 0 2.2l2.4 2.4h-5c-.9 0-1.6.7-1.6 1.6s.7 1.6 1.6 1.6h5l-2.4 2.4c-.6.6-.6 1.6 0 2.2.5.5 1.3.6 1.9.3l.3-.3 4.7-4.7h3.1l-.6.6c-.6.6-.6 1.6 0 2.2.5.5 1.3.6 1.9.3l.3-.3 2.8-2.8h3.8l-1.9 3.3-3.9 1c-.8.2-1.3 1.1-1.1 1.9s1.1 1.3 1.9 1.1l.8-.2-1.6 2.7-6.4 1.7c-.8.2-1.3 1.1-1.1 1.9.2.8 1.1 1.3 1.9 1.1l3.3-.9-2.5 4.4c-.4.8-.2 1.7.6 2.2.5.3 1.1.3 1.6 0 .2-.1.4-.3.6-.6l2.5-4.4.9 3.3c.2.8 1.1 1.3 1.9 1.1.1 0 .3-.1.4-.2.7.3 1-.4.8-1.1z"/><linearGradient id="SVGID_2_" gradientUnits="userSpaceOnUse" x1="205.83" y1="58.156" x2="210.664" y2="44.46" gradientTransform="matrix(1 0 0 -1 0 55)"><stop offset="0" stop-color="#404B71"/><stop offset=".604" stop-color="#3C476E"/><stop offset="1" stop-color="#354169"/></linearGradient><path class="st9" d="M206.9 9.2l-.5-1.9.5-.8.1.2c.1.3.3.4.6.3h.1c.2-.1.3-.3.2-.5l-.3-1.2.6-1 .6 1-.3 1.2c-.1.3.1.5.3.6h.4c.1-.1.2-.2.2-.3l.1-.2.5.8-.5 1.9c-.1.3.1.5.3.6h.4c.1-.1.2-.2.2-.3l.3-1 .8 1.3c.1.2.4.3.7.2.2-.1.3-.4.2-.7l-.8-1.3 1 .3h.4c.1-.1.2-.2.2-.3.1-.3-.1-.5-.3-.6L211 7l-.5-.8.2.1h.4c.1-.1.2-.2.2-.3.1-.3-.1-.5-.3-.6l-1.2-.3-.6-1h1.2l.9.9c.2.2.4.2.6.1 0 0 .1 0 .1-.1.2-.2.2-.5 0-.7l-.2-.2h.9l1.4 1.4c.2.2.4.2.6.1 0 0 .1 0 .1-.1.2-.2.2-.5 0-.7l-.7-.7h1.5c.1 0 .2 0 .2-.1.1-.1.2-.2.2-.4 0-.3-.2-.5-.5-.5H214l.7-.7c.2-.2.2-.5 0-.7s-.5-.2-.7 0l-1.4 1.4h-.9l.2-.2c.2-.2.2-.5 0-.7s-.5-.2-.7 0l-.9.9H209l.6-1 1.2-.3h.1c.2-.1.3-.3.2-.5-.1-.3-.3-.4-.6-.3l-.2.1.5-.8 1.9-.5h.1c.2-.1.3-.3.2-.5-.1-.3-.3-.4-.6-.3l-1 .3.8-1.3c.1-.2.1-.5-.2-.7-.2-.1-.5-.1-.7.2l-.8 1.3-.3-1c-.1-.3-.3-.4-.6-.3-.3.1-.4.3-.3.6l.5 1.9-.5.8-.1-.2c-.1-.3-.3-.4-.6-.3-.3.1-.4.3-.3.6l.3 1.2-.6 1-.6-1 .3-1.2c.1-.3-.1-.5-.3-.6-.3-.1-.5.1-.6.3l-.1.2-.5-.8.5-1.9c.1-.3-.1-.5-.3-.6-.3-.1-.5.1-.6.3l-.3 1-.8-1.3c-.1-.2-.4-.3-.7-.2-.2.1-.3.4-.2.7l.8 1.3-1-.3c-.3-.1-.5.1-.6.3-.1.3.1.5.3.6l1.9.5.5.8-.2-.1c-.3-.1-.5.1-.6.3-.1.3.1.5.3.6l1.2.3.6 1h-1.2l-.9-.9c-.2-.2-.5-.2-.7 0-.2.2-.2.5 0 .7l.2.2h-.9l-1.4-1.4c-.2-.2-.5-.2-.7 0-.2.2-.2.5 0 .7l.7.7H201c-.3 0-.5.2-.5.5s.2.5.5.5h1.5l-.7.7c-.2.2-.2.5 0 .7s.4.2.6.1c0 0 .1 0 .1-.1l1.4-1.4h.9l-.2.2c-.2.2-.2.5 0 .7s.4.2.6.1c0 0 .1 0 .1-.1l.9-.9h1.2l-.6 1-1.2.3c-.3.1-.4.3-.3.6.1.3.3.4.6.3l.2-.1-.5.8-1.9.5c-.3.1-.4.3-.3.6.1.3.3.4.6.3l1-.3-.8 1.3c-.1.2-.1.5.2.7.2.1.3.1.5 0 .1 0 .1-.1.2-.2l.8-1.3.3 1c.1.3.3.4.6.3h.1c0-.5.1-.7 0-.9z"/><linearGradient id="SVGID_3_" gradientUnits="userSpaceOnUse" x1="140.875" y1="33.572" x2="151.295" y2="4.048" gradientTransform="matrix(1 0 0 -1 0 55)"><stop offset="0" stop-color="#404B71"/><stop offset=".604" stop-color="#3C476E"/><stop offset="1" stop-color="#354169"/></linearGradient><path class="st10" d="M143.3 48.1l-1.1-4.2 1-1.8.1.5c.1.6.7.9 1.3.7.1 0 .2-.1.2-.1.4-.2.6-.7.5-1.2l-.7-2.5 1.2-2.2 1.2 2.2-.7 2.5c-.1.6.2 1.1.7 1.3.3.1.6 0 .8-.1s.4-.4.5-.6l.1-.5 1 1.8-1.1 4.2c-.1.6.2 1.1.7 1.3.3.1.6 0 .8-.1s.4-.4.5-.6l.6-2.2 1.6 2.8c.3.5.9.7 1.4.4s.7-.9.4-1.4l-1.6-2.8 2.3.5c.3.1.6 0 .8-.1s.4-.4.5-.6c.1-.6-.2-1.1-.7-1.3l-4.2-1.1-1-1.8.5.1c.3.1.6 0 .8-.1s.4-.4.5-.6c.1-.6-.2-1.1-.7-1.3l-2.5-.7-1.2-2.2h2.5l1.8 1.8c.3.3.9.4 1.2.2.1 0 .1-.1.2-.2.4-.4.4-1.1 0-1.5l-.4-.4h2l3 3c.3.3.9.4 1.2.2.1 0 .1-.1.2-.2.4-.4.4-1.1 0-1.5l-1.6-1.6h3.3c.2 0 .4 0 .5-.1.3-.2.5-.5.5-.9 0-.6-.5-1-1-1h-3.3l1.6-1.6c.4-.4.4-1.1 0-1.5-.4-.4-1.1-.4-1.5 0l-3 3h-2l.4-.4c.4-.4.4-1.1 0-1.5-.4-.4-1.1-.4-1.5 0l-1.8 1.8h-2.5l1.2-2.2 2.5-.7c.1 0 .2-.1.2-.1.4-.2.6-.7.5-1.2-.1-.6-.7-.9-1.3-.7l-.5.1 1-1.8 4.2-1.1c.1 0 .2-.1.2-.1.4-.2.6-.7.5-1.2-.1-.6-.7-.9-1.3-.7l-2.2.6 1.6-2.8c.3-.5.1-1.1-.4-1.4-.5-.3-1.1-.1-1.4.4l-1.6 2.8-.6-2.2c-.1-.6-.7-.9-1.3-.7-.5.1-.9.7-.7 1.3l1.1 4.2-1 1.8-.1-.5c-.1-.6-.7-.9-1.3-.7-.6.2-.9.7-.7 1.3l.7 2.5-1.2 2.2-1.2-2.2.7-2.5c.1-.6-.2-1.1-.7-1.3-.6-.1-1.1.2-1.3.7l-.1.5-1-1.8 1.1-4.2c.1-.6-.2-1.1-.7-1.3-.6-.1-1.1.2-1.3.7l-.6 2.2L139 21c-.3-.5-.9-.7-1.4-.4s-.7.9-.4 1.4l1.6 2.8-2.2-.6c-.6-.1-1.1.2-1.3.7-.1.6.2 1.1.7 1.3l4.2 1.1 1 1.8-.5-.1c-.6-.1-1.1.2-1.3.7-.1.6.2 1.1.7 1.3l2.5.7 1.2 2.2h-2.5l-1.8-1.8c-.4-.4-1.1-.4-1.5 0-.4.4-.4 1.1 0 1.5l.4.4h-2l-3-3c-.4-.4-1.1-.4-1.5 0-.4.4-.4 1.1 0 1.5l1.6 1.6h-3.3c-.6 0-1 .5-1 1 0 .6.5 1 1 1h3.3l-1.6 1.6c-.4.4-.4 1.1 0 1.5.3.3.9.4 1.2.2.1 0 .1-.1.2-.2l3-3h2l-.4.4c-.4.4-.4 1.1 0 1.5.3.3.9.4 1.2.2.1 0 .2-.1.2-.2l1.8-1.8h2.5l-1.2 2.2-2.5.7c-.5.2-.9.7-.7 1.3.1.6.7.9 1.3.7l.5-.1-1 1.8-4.2 1.1c-.5.2-.9.7-.7 1.3.1.6.7.9 1.3.7l2.2-.6-1.6 2.8c-.3.5-.1 1.1.4 1.4.3.2.7.2 1 0 .2-.1.3-.2.4-.4l1.6-2.8.6 2.2c.1.6.7.9 1.3.7.1 0 .2-.1.3-.1.6-.2.8-.7.7-1.1z"/><linearGradient id="SVGID_4_" gradientUnits="userSpaceOnUse" x1="258.076" y1="31.238" x2="287.174" y2="-36.864" gradientTransform="matrix(1 0 0 -1 0 55)"><stop offset="0" stop-color="#404B71"/><stop offset=".604" stop-color="#3C476E"/><stop offset="1" stop-color="#354169"/></linearGradient><path class="st11" d="M305.5 54.3h-6.3l3-3c.8-.8.8-2 0-2.8-.8-.8-2-.8-2.8 0l-5.9 5.9h-3.9l1.7-1.7c.8-.8.8-2 0-2.8-.8-.8-2-.8-2.8 0l-4.6 4.6h-3.8l.1-.1c.8-.8.8-2 .1-2.7-.3-1-1.4-1.6-2.4-1.3h-.2l1.9-3.3 6.2-1.7c.2 0 .3-.1.5-.2.8-.4 1.2-1.4.9-2.2-.3-1.1-1.4-1.7-2.4-1.4l-2.4.6 2-3.4 8-2.1c.2 0 .3-.1.5-.2.8-.4 1.2-1.4.9-2.2-.3-1.1-1.4-1.7-2.4-1.4l-4.2 1.1 3.2-5.5c.6-1 .2-2.2-.7-2.7-1-.5-2.2-.2-2.7.7l-3.2 5.5-1.1-4.2c-.3-1.1-1.4-1.7-2.4-1.4-1.1.3-1.7 1.4-1.4 2.4l2.1 8-2 3.4-.6-2.4c-.3-1.1-1.4-1.7-2.4-1.4-1.1.3-1.7 1.4-1.4 2.4l1.7 6.2-1.9 3.3v-.2c-.3-1-1.3-1.7-2.4-1.4-1-.2-2.1.4-2.3 1.4v.2l-1.9-3.3 1.7-6.2c.3-1.1-.3-2.2-1.4-2.4-1.1-.3-2.2.3-2.4 1.4l-.6 2.4-2-3.4 2.1-8c.3-1.1-.3-2.2-1.4-2.4-1.1-.3-2.2.3-2.4 1.4l-1.1 4.2-3.2-5.5c-.5-1-1.8-1.3-2.7-.7-1 .5-1.3 1.8-.7 2.7l3.2 5.5-4.2-1.1c-1.1-.3-2.2.3-2.4 1.4-.3 1.1.3 2.2 1.4 2.4l8 2.1 2 3.4-2.4-.6c-1.1-.3-2.2.3-2.4 1.4-.3 1.1.3 2.2 1.4 2.4l6.2 1.7 1.9 3.3h-.2c-1-.3-2 .3-2.4 1.3-.8.8-.8 2 0 2.8l.1.1h-3.8l-4.6-4.6c-.8-.8-2-.8-2.8 0s-.8 2 0 2.8l1.7 1.7h-3.9l-5.9-5.9c-.8-.8-2-.8-2.8 0s-.8 2 0 2.8l3 3h-6.3c-1.1 0-2 .9-2 2s.9 2 2 2h6.3l-3 3c-.8.8-.8 2 0 2.8.7.7 1.6.8 2.4.3.1-.1.3-.2.4-.3l5.9-5.9h3.9l-1.7 1.7c-.8.8-.8 2 0 2.8.7.7 1.6.8 2.4.3.1-.1.3-.2.4-.3l4.6-4.6h3.8l-.1.1c-.8.8-.8 2-.1 2.7.3 1 1.4 1.6 2.4 1.3h.2l-1.9 3.3-6.2 1.7c-1.1.3-1.7 1.4-1.4 2.4.3 1.1 1.4 1.7 2.4 1.4l2.4-.6-2 3.4-8 2.1c-1.1.3-1.7 1.4-1.4 2.4.3 1.1 1.4 1.7 2.4 1.4l4.2-1.1-3.2 5.5c-.5 1-.2 2.2.7 2.7.6.4 1.4.3 2 0 .3-.2.5-.4.7-.7l3.2-5.5 1.1 4.2c.3 1.1 1.4 1.7 2.4 1.4.2 0 .3-.1.5-.2.8-.4 1.2-1.3.9-2.2l-2.1-8 2-3.4.6 2.4c.3 1.1 1.4 1.7 2.4 1.4.2 0 .3-.1.5-.2.8-.4 1.2-1.3.9-2.2l-1.7-6.2 1.9-3.3v.2c.3 1 1.3 1.7 2.4 1.4.5.1 1 0 1.4-.2.4-.3.8-.7.9-1.2v-.2l1.9 3.3-1.7 6.2c-.3 1.1.3 2.2 1.4 2.4.5.1 1.1.1 1.5-.2.4-.3.8-.7.9-1.2l.6-2.4 2 3.4-2.1 8c-.3 1.1.3 2.2 1.4 2.4.5.1 1.1.1 1.5-.2.4-.3.8-.7.9-1.2l1.1-4.2 3.2 5.5c.5 1 1.8 1.3 2.7.7 1-.6 1.3-1.8.7-2.7l-3.2-5.5 4.2 1.1c.5.1 1.1.1 1.5-.2s.8-.7.9-1.2c.3-1.1-.3-2.2-1.4-2.4l-8-2.1-2-3.4 2.4.6c.5.1 1.1.1 1.5-.2s.8-.7.9-1.2c.3-1.1-.3-2.2-1.4-2.4l-6.2-1.7-1.9-3.3h.2c.5.1 1.1.1 1.5-.2.4-.2.7-.6.9-1.1.8-.8.8-2 0-2.8l-.1-.1h3.8l4.6 4.6c.7.7 1.6.8 2.4.3.1-.1.3-.2.4-.3.8-.8.8-2 0-2.8l-1.7-1.7h3.9l5.9 5.9c.7.7 1.6.8 2.4.3.1-.1.3-.2.4-.3.8-.8.8-2 0-2.8l-3-3h6.3c.4 0 .7-.1 1-.3.6-.3 1-1 1-1.7 0-1.1-.9-2-2-2zm-32.3 4.2c-1.2.7-2.8.3-3.5-.9-.7-1.2-.3-2.8.9-3.5 1.2-.7 2.8-.3 3.5.9.7 1.2.3 2.8-.9 3.5z"/><linearGradient id="SVGID_5_" gradientUnits="userSpaceOnUse" x1="217.637" y1="115.668" x2="229.659" y2="87.526" gradientTransform="matrix(1 0 0 -1 0 55)"><stop offset="0" stop-color="#404B71"/><stop offset=".604" stop-color="#3C476E"/><stop offset="1" stop-color="#354169"/></linearGradient><path class="st12" d="M239-46.2h-1l.4-.5c.2-.3.1-.8-.2-1s-.8-.1-1 .2l-.9 1.3h-1.5l2-2.8c.2-.3.1-.8-.2-1-.3-.2-.8-.1-1 .2l-2.6 3.7h-1.3l1.2-1.7c.2-.3.1-.8-.2-1s-.8-.1-1 .2l-1.7 2.5h-1l.4-.5c.2-.3.1-.8-.2-1-.3-.2-.8-.1-1 .2l-.9 1.3h-.3l-.8-1.5.2-.3 1.6-.1c.4 0 .7-.4.7-.8s-.4-.7-.8-.7l-.6.1.4-.8 3-.3c.4 0 .7-.4.7-.8s-.4-.7-.8-.7l-2 .2.7-1.1 4.5-.4c.4 0 .7-.4.7-.8s-.4-.7-.8-.7l-3.4.3.7-1.3 1.6-.1c.4 0 .7-.4.7-.8s-.4-.7-.8-.7l-.6.1.5-.9c.2-.3.1-.8-.3-1-.3-.2-.8-.1-1 .3l-.5.9-.3-.6c-.2-.4-.6-.5-1-.4-.4.2-.5.6-.4 1l.7 1.5-.7 1.3-1.5-3.1c-.2-.4-.6-.5-1-.3s-.5.6-.4 1l1.9 4.1-.7 1.1-.9-1.8c-.2-.4-.6-.5-1-.4-.4.2-.5.6-.4 1l1.3 2.8-.4.8-.3-.6c-.2-.4-.6-.5-1-.3s-.5.6-.4 1l.7 1.5-.2.3h-1.7l-.2-.3.7-1.5c.2-.4 0-.8-.4-1s-.8 0-1 .3l-.3.6-.4-.8 1.3-2.8c.2-.4 0-.8-.4-1s-.8 0-1 .3l-.9 1.8-.7-1.1 1.9-4.1c.2-.4 0-.8-.4-1-.4-.2-.8 0-1 .4l-1.5 3.1-.7-1.3.7-1.5c.2-.4 0-.8-.4-1s-.8 0-1 .4l-.3.6-.5-.9c-.2-.3-.6-.5-1-.3-.3.2-.5.6-.3 1l.5.9-.6-.1c-.4 0-.8.3-.8.7s.3.8.7.8l1.6.1.7 1.3-3.4-.3c-.4 0-.8.3-.8.7s.3.8.7.8l4.5.4.7 1.1-2-.2c-.4 0-.8.3-.8.7s.3.8.7.8l3 .3.4.8-.6-.1c-.4 0-.8.3-.8.7 0 .4.3.8.7.8l1.6.1.2.3-.8 1.5h-.3l-.9-1.3c-.2-.3-.7-.4-1-.2-.3.2-.4.7-.2 1l.4.5h-.5l-1.7-2.5c-.2-.3-.7-.4-1-.2s-.4.7-.2 1l1.2 1.7H215l-2.6-3.7c-.2-.3-.7-.4-1-.2-.3.2-.4.7-.2 1l2 2.8h-1.5l-.9-1.3c-.2-.3-.7-.4-1-.2-.3.2-.4.7-.2 1l.4.5h-1c-.4 0-.7.3-.7.7 0 .4.3.7.7.7h1l-.4.5c-.2.3-.1.8.2 1 .1.1.3.1.4.1.2 0 .5-.1.6-.3l.9-1.3h1.5l-2 2.8c-.2.3-.1.8.2 1 .1.1.3.1.4.1.2 0 .5-.1.6-.3l2.6-3.7h1.3l-1.2 1.7c-.2.3-.1.8.2 1 .1.1.3.1.4.1.2 0 .5-.1.6-.3l1.7-2.5h.9l-.4.5c-.2.3-.1.8.2 1 .1.1.3.1.4.1.2 0 .5-.1.6-.3l.9-1.3h.3l.8 1.5-.2.3-1.6.1c-.4 0-.7.4-.7.8s.4.7.7.7h.1l.6-.1-.4.8-3 .3c-.4 0-.7.4-.7.8s.4.7.7.7h.1l2-.2-.7 1.1-4.5.4c-.4 0-.7.4-.7.8s.4.7.7.7h.1l3.4-.3-.7 1.3-1.6.1c-.4 0-.7.4-.7.8s.4.7.7.7h.1l.6-.1-.5.9c-.2.3-.1.8.3 1 .1.1.2.1.4.1.3 0 .5-.1.6-.4l.5-.9.3.6c.1.3.4.4.7.4.1 0 .2 0 .3-.1.4-.2.5-.6.4-1l-.7-1.5.7-1.3 1.5 3.1c.1.3.4.4.7.4.1 0 .2 0 .3-.1.4-.2.5-.6.4-1l-1.9-4.1.7-1.1.9 1.8c.1.3.4.4.7.4.1 0 .2 0 .3-.1.4-.2.5-.6.4-1l-1.3-2.8.4-.8.3.6c.1.3.4.4.7.4.1 0 .2 0 .3-.1.4-.2.5-.6.4-1l-.7-1.5.2-.3h1.7l.2.3-.7 1.5c-.2.4 0 .8.4 1 .1 0 .2.1.3.1.3 0 .5-.2.7-.4l.3-.6.4.8-1.3 2.8c-.2.4 0 .8.4 1 .1 0 .2.1.3.1.3 0 .5-.2.7-.4l.9-1.8.7 1.1-1.9 4.1c-.2.4 0 .8.4 1 .1 0 .2.1.3.1.3 0 .5-.2.7-.4l1.5-3.1.7 1.3-.7 1.5c-.2.4 0 .8.4 1 .1 0 .2.1.3.1.3 0 .5-.2.7-.4l.3-.6.5.9c.1.2.4.4.6.4.1 0 .2 0 .4-.1.3-.2.5-.6.3-1l-.5-.9.6.1h.1c.4 0 .7-.3.7-.7 0-.4-.3-.8-.7-.8l-1.6-.1-.7-1.3 3.4.3h.1c.4 0 .7-.3.7-.7 0-.4-.3-.8-.7-.8l-4.5-.4-.7-1.1 2 .2h.1c.4 0 .7-.3.7-.7 0-.4-.3-.8-.7-.8l-3-.3-.4-.8.6.1h.1c.4 0 .7-.3.7-.7 0-.4-.3-.8-.7-.8l-1.6-.1-.2-.3.8-1.5h.3l.9 1.3c.1.2.4.3.6.3.1 0 .3 0 .4-.1.3-.2.4-.7.2-1l-.4-.5h.9l1.7 2.5c.1.2.4.3.6.3.1 0 .3 0 .4-.1.3-.2.4-.7.2-1l-1.2-1.7h1.3l2.6 3.7c.1.2.4.3.6.3.1 0 .3 0 .4-.1.3-.2.4-.7.2-1l-2-2.8h1.5l.9 1.3c.1.2.4.3.6.3.1 0 .3 0 .4-.1.3-.2.4-.7.2-1l-.4-.5h1c.4 0 .7-.3.7-.7-.3-.4-.6-.7-1-.7zM223.1-44l-.8-1.5.8-1.5h1.7l.8 1.5-.8 1.5h-1.7z"/><circle class="st4" cx="251.7" cy="-64.2" r="3.4"/><circle class="st4" cx="126" cy=".1" r="3.4"/><circle class="st4" cx="131" cy="13.1" r="1.5"/><circle class="st4" cx="119.1" cy="21" r="1.5"/><circle class="st4" cx="239.7" cy="-67.6" r="1.5"/><circle class="st4" cx="267.3" cy="-31.7" r="3.8"/><circle class="st4" cx="296.2" cy="92" r="3.8"/><circle class="st4" cx="288.2" cy="-21.9" r="2.8"/><circle class="st4" cx="282.8" cy="-13.4" r="1.5"/><circle class="st4" cx="256.6" cy="-23.4" r="1.5"/><circle class="st4" cx="336.1" cy=".1" r="1.5"/><circle class="st4" cx="305.2" cy="-21.9" r="1.5"/><circle class="st4" cx="299.2" cy="-10.4" r="1.5"/><circle class="st4" cx="297.7" cy="-22" r="1.5"/><circle class="st4" cx="305.2" cy="-31.7" r="1.5"/><circle class="st4" cx="345.4" cy="-20.4" r="1.5"/><circle class="st4" cx="350" cy="-26.4" r="1.5"/><circle class="st4" cx="302.3" cy="83.5" r="1.5"/><circle class="st4" cx="313.6" cy="82" r="1.5"/><circle class="st4" cx="306.8" cy="90.5" r="1.5"/><circle class="st4" cx="274.8" cy="-33.2" r="1.5"/><circle class="st4" cx="281.3" cy="-26.4" r="1.5"/></g></g></svg>