<svg xmlns="http://www.w3.org/2000/svg" viewBox="0 0 219 227.7"><style>.st0{fill:#519E38;} .st1{fill:#E2E2E2;} .st2{fill:#D3D3D3;} .st3{fill:#444444;} .st4{fill:#FFFFFF;} .st5{fill:#0E3656;} .st6{fill:#9B4B29;} .st7{fill:#EAEAEA;} .st8{fill:#231F20;} .st9{fill:#8C8C8C;} .st10{fill:#E51A4B;}</style><g id="list"><g id="XMLID_29_"><path class="st0" d="M121 45.5h-1.2v-7.2h5.7c1.7 0 3-1.4 3-3 0-1.7-1.4-3-3-3h-5.7V24c2 0 3.7-1.6 3.7-3.7 0-2-1.6-3.7-3.7-3.7H41.5c-2 0-3.7 1.6-3.7 3.7 0 2 1.6 3.7 3.7 3.7h.8v8.1h-6.7c-1.7 0-3 1.4-3 3 0 1.7 1.4 3 3 3h6.7v7.2h-2c-7.7 0-13.9 6.2-13.9 13.9V178c0 7.7 6.2 13.9 13.9 13.9H121c7.7 0 13.9-6.2 13.9-13.9V59.4c0-7.7-6.2-13.9-13.9-13.9z"/><path class="st1" d="M128.2 171.6c0 7.7-6.2 13.9-13.9 13.9H33.5c-7.7 0-13.9-6.2-13.9-13.9V53.1c0-7.7 6.2-13.9 13.9-13.9h80.8c7.7 0 13.9 6.2 13.9 13.9v118.5z"/><path class="st2" d="M35.5 17.7H113v21.5H35.5z"/><path class="st3" d="M116.7 14.1c0 2-1.6 3.7-3.7 3.7H34.7c-2 0-3.7-1.6-3.7-3.7 0-2 1.6-3.7 3.7-3.7H113c2 0 3.7 1.7 3.7 3.7zM43.2 28.9c0 1.7-1.4 3-3 3H28.8c-1.7 0-3-1.4-3-3 0-1.7 1.4-3 3-3h11.4c1.7-.1 3 1.3 3 3zM121.8 28.9c0 1.7-1.4 3-3 3h-11.4c-1.7 0-3-1.4-3-3 0-1.7 1.4-3 3-3h11.4c1.6-.1 3 1.3 3 3z"/><path class="st4" d="M39 65.1c0 2.5-2 4.5-4.5 4.5s-4.5-2-4.5-4.5v-9.3c0-2.5 2-4.5 4.5-4.5s4.5 2 4.5 4.5v9.3z"/><path class="st5" d="M105.9 101.6c-3.7-1.2-5.7 3.5-6.3 6.2v.2c-.6 2.8-1.6 4.1-1.8 4-.8-.3-.6-1.5-.6-2.3 0-1.2.2-2.5-.5-3.7-.5-.9-1.5-1.1-2.5-1.1.1-.2.1-.3.2-.5s.2-.4.3-.5c.4-.9.9-1.8 1.7-2.5h.1c.4.1.8.6 1 .8 1 1 4-.6 3.1-1.6-1.2-1.4-2.6-1.6-3.9-1.3-.9.2-1.8.6-2.5 1.2-.1.1-.3.2-.4.3.1-1.6.1-3.2-.1-4.7-.1-.9-2-.4-2.9.4-.2.1-.3.3-.4.5-.3 1.1-2.3 1.7-4 .2-.4-.4-.9-.6-1.6-.6-3.8-.3-5.1 4-5.5 7-.1 1.9-1.3 4.5-2.3 4.9-.3-.2-.4-.5-.5-.8-.4-.9-.6-2-.7-2.9-.3-2.7-.4-5.5-.3-8.3 0-.5-.5-.7-1.1-.6-1 .2-1.7.9-2 1.7-1.1 2.5-1.7 5.2-2 7.9-.1.7-.2 1.5-.3 2.2 0 .3-.1.6-.1.9-.6 0-1.1-.6-1.1-1.1 0-1-1.2-.5-2.1.2.5-1.4.7-2.9.7-4.3 0-2.5-.7-7.4-4.1-7.2-3.6.3-4.4 4.9-4.5 7.8-.1 2.7-.2 5.1-.3 5.5-1.6.2-2.5-1.5-2.9-2.4-.8-1.9-1.2-3.9-1.4-5.9-.4-3.4-.7-6.7-.5-10.1 0-.6-.7-.6-1.2-.3-.8.4-1.4 1-1.7 1.7-1.1 2.5-1.3 5.2-1.5 7.9v.1c0-.2-.1-.5-.1-.7-.4-2.1-.7-4.2-1-6.3-.2-1.3-.4-3-.2-4.1.3-1.8-2.2 0-2.6.8-2.4 4.8-1.6 10.2-1.3 15.6.1 1.4 0 2.7-.2 4.1-.1.9-.3 2.6-1.1 3.4-.5.5-1.4.1-1.8-.1-.6-.4-1.1-1.1-1.2-1.8-.1-.8-1-.3-1.4.1-.6.6-1.2 1.6-1 2.4.3 1.8 1.9 3.5 3.9 2.8 3.1-1 4.4-4.7 5.1-7.7.4-1.7.5-3.4.5-5.2.7 3.1 1.3 6.2 2 9.4.3 1.6 2.6-1.2 2.6-2.1 0-2.3.1-4.5.2-6.8.4 2.7 1.2 8.8 5.2 8.2 1.6-.3 2.6-1.5 3.1-2.9.6 1.2 1.5 2.2 2.9 2.1 1.3-.1 2.5-1.2 3.3-2.4.2 1.1.8 1.9 2.1 1.9 1.6.1 3.1-.9 3.9-2.1.4-.5.6-1.1.8-1.7.1.3.1.5.2.8.2.9.5 2 1.3 2.6.8.8 2.1.2 2.9-.3.9-.6 1.6-1.5 2.1-2.5.3 1.8 1 3.5 2.9 3.8 1.7.3 3.3-1.2 4.1-2.4 1-1.4 1.4-3.1 1.6-4.8.1-1 .2-2.8-.1-4.5 1.2 0 2.1-.4 2.7-.9-.2 4.4-.8 8.7-1.5 13.1-.1.8.7.8 1.3.7.7-.2 1.6-.8 1.8-1.5.3-1.3.7-2.6 1.1-3.9 1.6 1.8.2 4.4 1.4 6.1.6.9 2.7.9 3.6.3.4-.2.7-.5 1-.8.2 1.4.8 2.6 2.2 3.1 1.6.6 3.4-.5 4.3-1.5 1.1-1.2 1.8-2.9 2.2-4.5.3-2.7 1-7.5-2.3-8.7zm-41.5 6.3c-.1.3-.2.7-.3 1-.6-.1-1.1-1.1-1.3-1.5-.5-1.1-.7-2.4-.8-3.6-.1-1.3-.1-2.6.2-3.8l.3-.9c1.6.4 2 4 2.1 5.1.1 1.2.1 2.5-.2 3.7zm19.9.6c-.1.3-.2.6-.4.9-.6-.2-1-1.3-1.1-1.8-.4-1.2-.4-2.5-.4-3.7.1-1.3.3-2.5.7-3.7.1-.3.2-.6.4-.9 1.5 1.3 1.5 3.6 1.4 5.4 0 1.3-.2 2.6-.6 3.8zm19.4 4.7c-.1.3-.3.6-.5.8-.6-.4-.8-1.5-.8-2-.2-1.3-.1-2.6.2-3.7.2-1.2.6-2.5 1.2-3.6.1-.3.3-.6.5-.8 1.2 1.7 1.1 3.8.7 5.7-.4 1.2-.7 2.5-1.3 3.6z"/></g><g id="XMLID_31_"><path id="XMLID_60_" class="st0" d="M185.6 210.7c-.6 2.7-3.3 4.4-6 3.8L101 196.9c-2.7-.6-4.4-3.3-3.8-6l23.3-104.2c.6-2.7 3.3-4.4 6-3.8l78.6 17.6c2.7.6 4.4 3.3 3.8 6l-23.3 104.2z"/><path id="XMLID_59_" class="st6" d="M181.8 206c-.6 2.7-3.3 4.4-6 3.8l-78.6-17.6c-2.7-.6-4.4-3.3-3.8-6L116.7 82c.6-2.7 3.3-4.4 6-3.8l78.6 17.6c2.7.6 4.4 3.3 3.8 6L181.8 206z"/><path id="XMLID_58_" class="st4" d="M123.53 84.418l73.876 16.503-21.43 95.932L102.1 180.35z"/><path id="XMLID_57_" class="st7" d="M150.223 81.125l21.47 4.796-2.507 11.224-21.47-4.796z"/><path id="XMLID_56_" class="st8" d="M163.2 86.1c-.3 1.4-1.7 2.3-3.2 2-1.4-.3-2.3-1.7-2-3.2l1.2-5.5c.3-1.4 1.7-2.3 3.2-2 1.4.3 2.3 1.7 2 3.2l-1.2 5.5z"/><path id="XMLID_53_" class="st9" d="M136.4 112.7l-10.4-2.3 2.3-10.4 10.4 2.3-2.3 10.4zm-9.2-3l8.5 1.9 1.9-8.5-8.5-1.9-1.9 8.5z"/><path id="XMLID_50_" class="st9" d="M132.9 128.1l-10.4-2.3 2.3-10.4 10.4 2.3-2.3 10.4zm-9.2-3.1l8.5 1.9 1.9-8.5-8.5-1.9-1.9 8.5z"/><path id="XMLID_47_" class="st9" d="M129.5 143.5l-10.4-2.3 2.3-10.4 10.4 2.3-2.3 10.4zm-9.2-3.1l8.5 1.9 1.9-8.5-8.5-1.9-1.9 8.5z"/><path id="XMLID_44_" class="st9" d="M126.1 158.9l-10.4-2.3 2.3-10.4 10.4 2.3-2.3 10.4zm-9.3-3.1l8.5 1.9 1.9-8.5-8.5-1.9-1.9 8.5z"/><path id="XMLID_41_" class="st9" d="M122.6 174.3l-10.4-2.3 2.3-10.4 10.4 2.3-2.3 10.4zm-9.2-3.1l8.5 1.9 1.9-8.5-8.5-1.9-1.9 8.5z"/><path id="XMLID_40_" class="st9" d="M142.696 104.27l41.67 9.31-.588 2.634-41.67-9.31z"/><path id="XMLID_39_" class="st9" d="M141.572 109.162l23.714 5.297-.588 2.634-23.715-5.297z"/><path id="XMLID_38_" class="st9" d="M139.21 120.08l41.67 9.31-.588 2.634-41.67-9.308z"/><path id="XMLID_37_" class="st9" d="M138.063 124.976l13.858 3.095-.588 2.636-13.858-3.096z"/><path id="XMLID_36_" class="st9" d="M135.708 135.466l41.67 9.31-.588 2.634-41.67-9.31z"/><path id="XMLID_35_" class="st9" d="M134.594 140.36l32.692 7.304-.588 2.635-32.693-7.304z"/><path id="XMLID_34_" class="st9" d="M128.8 166.258l41.672 9.308-.59 2.635-41.67-9.307z"/><path id="XMLID_33_" class="st9" d="M127.796 171.103l40.5 9.047-.588 2.635-40.5-9.047z"/><path id="XMLID_32_" class="st9" d="M132.303 150.873l41.67 9.308-.588 2.636-41.67-9.308z"/></g><path class="st10" d="M129.7 109.5l-3-5c-.3-.4-.1-1 .3-1.2.4-.3 1-.1 1.2.3l2 3.3 6.8-5c.4-.3 1-.2 1.2.2.3.4.2 1-.2 1.2l-8.3 6.2zM126.2 125.1l-3-5c-.3-.4-.1-1 .3-1.2.4-.3 1-.1 1.2.3l2 3.3 6.8-5c.4-.3 1-.2 1.2.2.3.4.2 1-.2 1.2l-8.3 6.2zM122.7 140.5l-3-5c-.3-.4-.1-1 .3-1.2.4-.3 1-.1 1.2.3l2 3.3 6.8-5c.4-.3 1-.2 1.2.2.3.4.2 1-.2 1.2l-8.3 6.2zM119.1 155.8l-3-5c-.3-.4-.1-1 .3-1.2.4-.3 1-.1 1.2.3l2 3.3 6.8-5c.4-.3 1-.2 1.2.2.3.4.2 1-.2 1.2l-8.3 6.2zM115.6 171.2l-3-5c-.3-.4-.1-1 .3-1.2.4-.3 1-.1 1.2.3l2 3.3 6.8-5c.4-.3 1-.2 1.2.2.3.4.2 1-.2 1.2l-8.3 6.2z"/></g></svg>