<svg xmlns="http://www.w3.org/2000/svg" viewBox="-442 271.7 362 336"><style>.st0{fill:#519E38;} .st1{fill:#F4F4F4;} .st2{fill:#D6D6D6;} .st3{fill:#EAEAEA;} .st4{fill:#FFFFFF;} .st5{fill:#904720;} .st6{fill:#EDA820;} .st7{fill:#E90E8A;} .st8{fill:#62BA47;} .st9{fill:#62BA46;} .st10{fill:#F5A3BD;} .st11{fill:url(#SVGID_1_);} .st12{fill:url(#SVGID_2_);} .st13{fill:url(#SVGID_3_);} .st14{fill:url(#SVGID_4_);} .st15{fill:url(#SVGID_5_);}</style><g id="bottle"><path class="st0" d="M-276.6 518.2v-97.4l-14.2-47.4c3.8-21.2-6.4-27.6-6.4-27.6v-7.7h2.2v-10.9c0-2.7-3.8-2.4-3.8-2.4h-29.3s-3.8-.3-3.8 2.4v10.9h2.3v7.7h-.1s-10.2 6.4-6.4 27.6c0 0-14.2 13.1-14.2 47.4v97.4s-1.5 20.9 14 20.9H-290.5c15.3.1 13.9-20.9 13.9-20.9z"/><path class="st1" d="M-284.1 513.3v-97.4l-14.2-47.4c3.8-21.2-6.4-27.6-6.4-27.6v-7.8H-337v7.8h-.1s-10.2 6.4-6.4 27.6c0 0-14.2 13.1-14.2 47.4v97.4s-1.5 20.9 14 20.9H-297.9c15.3 0 13.8-20.9 13.8-20.9z"/><path class="st2" d="M-306.4 319.9h-29.3s-3.8-.3-3.8 2.4v10.9h36.7v-10.9c.2-2.7-3.6-2.4-3.6-2.4z"/><path class="st3" d="M-284.2 513.3v-97.4l-14.2-47.4c3.8-21.2-6.4-27.6-6.4-27.6v-7.8H-321v201.2h22.9c15.4-.1 13.9-21 13.9-21z"/><path class="st4" d="M-345.8 404.6h-.5c-2.2-.3-3.8-2.3-3.5-4.6 1.8-14.1 8.6-22.6 8.9-23 1.4-1.8 4-2 5.7-.6 1.7 1.4 2 4 .6 5.7-.1.1-5.7 7.3-7.2 18.9-.2 2.1-2 3.6-4 3.6z"/><path class="st0" d="M-152 518.2v-97.4l-14.2-47.4c3.8-21.2-6.4-27.6-6.4-27.6v-7.7h2.2v-10.9c0-2.7-3.8-2.4-3.8-2.4h-29.3s-3.8-.3-3.8 2.4v10.9h2.3v7.7s-10.2 6.4-6.4 27.6c0 0-14.2 13.1-14.2 47.4v97.4s-1.5 20.9 14 20.9H-165.8c15.3.1 13.8-20.9 13.8-20.9z"/><path class="st1" d="M-159.4 513.3v-97.4l-14.2-47.4c3.8-21.2-6.4-27.6-6.4-27.6v-7.8h-32.3v7.8h-.1s-10.2 6.4-6.4 27.6c0 0-14.2 13.1-14.2 47.4v97.4s-1.5 20.9 14 20.9h45.6c15.4 0 14-20.9 14-20.9z"/><path class="st2" d="M-181.7 319.9H-211s-3.8-.3-3.8 2.4v10.9h36.7v-10.9c.2-2.7-3.6-2.4-3.6-2.4z"/><path class="st3" d="M-159.5 513.3v-97.4l-14.2-47.4c3.8-21.2-6.4-27.6-6.4-27.6v-7.8h-16.2v201.2h22.9c15.3-.1 13.9-21 13.9-21z"/><path class="st4" d="M-221.1 404.6h-.5c-2.2-.3-3.8-2.3-3.5-4.6 1.8-14.1 8.6-22.6 8.9-23 1.4-1.8 4-2 5.7-.6 1.7 1.4 2 4 .6 5.7-.1.1-5.7 7.3-7.2 18.9-.2 2.1-2 3.6-4 3.6z"/><path class="st5" d="M-296.3 456l-.1.2c0-.1.1-.1.1-.2zm1.4-.5l-.2.3c0-.1.1-.2.2-.3zm5.1.9s1.1.2 1.9.8c-.5-.4-1.3-.8-2.1-.9-.7-.2-1.2-.3-1.6-.2.4-.2.6-.3.8-.3.6 0 1.1.2 1.8.6-.6-.4-1.6-.7-2.4-.7-.4-.1-.8-.1-1.2.1l.8-.5c.5 0 1.1 0 1.8.3-.5-.2-1.3-.4-2-.4-.8-.1-1.4.1-1.9.5l.7-.7c.5-.1 1-.1 1.8-.1-.7-.1-1.6-.1-2.3.1-.6.2-1 .3-1.3.6l.4-.6c.6-.3 1.8-.5 2.3-.5-1.2-.1-3.1.6-3.3.8-.4.2-.6.5-.8.8l.4-.8c.6-.4 1.3-.7 2.3-.8-.8.1-1.6.3-2.4.7-.8.4-1.3.9-1.5 1.6l.2-.9c.5-.5 1.3-1 2.3-1.3-1 .2-2 .8-2.7 1.5-.3.4-.6.7-.6 1.1 0-.2-.1-.3-.1-.3.2-.3 1.2-1.4 2.2-2-1.4.8-2.1 1.6-2.4 2.1-.5.7-.5 1.4 0 2 .4.3.9.3 1.6-.1.6-.1 1.2-.1 2.1 0-.6-.2-1.3-.2-2-.2h-.1c.3 0 .6-.1 1-.3.5 0 1.1.1 1.7.4-.4-.2-1.1-.4-1.7-.5l-.3-.1c.4.1.8.2 1.3.1.4.1 1 .2 1.4.2-.6-.1-1-.2-1.4-.3l-.7-.5c.6.3 1.1.3 1.8.3.4.1.9.3 1.3.5-.3-.2-.8-.5-1.3-.6l-.6-.4c.4.2.9.3 1.4.5 0 0 .7.2 1.2.5-.3-.3-.8-.5-1.3-.7l-.3-.4.2.1c.3.2.6.3 1 .3.3.1.6.3 1 .6l-.9-.6-.3-.5c.5.3 1.1.6 1.8.8l.9.6c-.2-.2-.5-.4-.8-.6-.1-.2-.3-.4-.5-.6.3.2.9.4 1.7.7l.9.6c-.3-.3-.6-.5-1-.7l-.6-.6.2.1c.6.1 1.1.4 1.7.9-.4-.4-1-.8-1.6-1 .4.1.9.1 1.4.1.6.1 1.1.4 1.7.9-.3-.4-.9-.7-1.5-1-.7-.4-1.4-.7-2-.8l.5-.3z"/><path class="st6" d="M-296.3 458.2c-.8-.3-1.5-.4-1.7-.1.3.4.6.4 1.7.1zm1-.2c-.8-.7-1.6-.9-1.9-.7.1.6.8.7 1.9.7zm1-.3c-.8-.7-1.7-1-2-.8.1.5.9.8 2 .8zm.7-.1c-.6-.8-1.3-1.2-1.7-1.1 0 .5.7.8 1.7 1.1zm1-.1c-.6-.8-1.1-1.2-1.5-1 0 .3.5.7 1.5 1zm-.3-.8c.1.3.6.6 1.7 1-.8-.8-1.3-1.2-1.7-1zm.9 0c.1.3.8.7 2 1.1-.9-.9-1.5-1.2-2-1.1zm-.2-.3c.3.2 1 .1 2.1-.1-1.2-.2-1.9-.2-2.1.1zm-1 0c.2-.1.4-.2.5-.2-.1 0-.2.1-.3.2.8-.1 1.2-.6 1.8-.8-1.1 0-1.9.2-2 .8zm-.7-.2c.1-.1.4-.3.5-.3-.1.1-.3.2-.4.4.6-.1 1-.7 1.8-1.1-1.2 0-2.1.4-1.9 1zm-1.2.1c.1-.2.4-.3.5-.3-.1.1-.3.2-.4.4.5-.2 1-.9 1.7-1.4-1.2.1-2 .7-1.8 1.3zm-1.1.4c.1-.2.3-.4.4-.4-.1.1-.2.3-.2.5.5-.3.7-1 1.3-1.7-1.2.3-1.9 1.1-1.5 1.6zm0-1.3c-.9.5-1.5 1.2-1.2 1.9.2-.4.4-.7.6-.8-.2.2-.3.5-.4.8.6-.4.6-1.1 1-1.9zm-1.3.6c-.8.5-1 1.2-.7 2 .1-.1.2-.5.3-1 0 .5 0 .9-.1 1.1.6-.5.1-1.5.5-2.1zm-1 .9c-.5.7-.6 1.3-.1 1.8.7-.2.2-.9.1-1.8zm1.3 1.7c-.8-.2-1.2-.1-1.3.2.2.1.3.3 1.3-.2zm6-1.9c.3.2 1 .5 2.3.5-1.2-.5-1.8-.6-2.3-.5z"/><path class="st5" d="M-308.2 458c.6.3 1 .7 1.4 1.2 1.7 2.6 2.4 4.2 2.7 4.5.2.4-.2.9-1 1.4-.4.2-3.3-1.9-7.7-4.3v-1c1.6.5 3.1 1.3 4.4 2.3 1.6 1.2 2.8 1.9 3.4 2.1.1-.3-.4-1.4-1.6-3.4-.3-.6-.5-1.1-.6-1.5-.3-.5-.6-.9-1-1.3z"/><path class="st6" d="M-305 464.2v.2c-.5 0-1.5-.5-3-1.4 1.3.9 2.3 1.4 2.9 1.5-.2.2-.8 0-1.7-.5.8.5 1.3.7 1.6.7 0 .1 0 .1-.1.2-.6 0-3.2-1.7-7.6-4.3v-.6c2.4.7 3.4 1.7 4.6 2.5 1.7.9 2.7 1.8 3.3 1.7zm-2.8-5.9c1 .8 1.3 1.8 2.2 3.2.6 1 1 1.8 1.3 2.2 0 .4-.2.7-.7.9.4-.4-.3-1.8-1-2.9-.9-1.6-.7-2.2-1.8-3.4z"/><path class="st5" d="M-298.3 451.8c.6-1.8 1.3-2.7 1.9-3.5-.9 1.5-1.2 1.9-1.6 3v.5c0-.3.1-.6.3-.9.6-1.8 1.5-2.7 2.1-3.5-.9 1.5-1.3 1.9-1.7 3l.1.4c.1-.5.3-.9.5-1.2.8-1.7 1.5-2.2 2.2-3-1.1 1.5-1.6 1.9-2 3.1l.1.4c.1-.5.2-.7.4-1 1-1.8 1.8-2.3 2.5-3.1-1.2 1.5-1.7 1.8-2.3 3 0 .1.1.2.1.3.1-.5.4-1 .8-1.5.5-.6 1.5-1.7 2.5-2.7-1.2 1.3-2.2 2.5-2.4 2.9v.2c.2-.4.5-.7.7-.9.4-.5 1.4-1.5 2.5-2.6-1.1 1.2-2.2 2.4-2.5 2.7v.5c.4-.4.9-.7 1.4-1 .5-.4 1.4-1.4 2.4-2.5-.8 1-1.7 2-2.3 2.5-.2.6-.5 1.1-.9 1.6.1 0 .3 0 .5-.1.4-.3 1.5-1.4 2.5-2.6-1 1.2-2.2 2.5-2.6 2.9-.2.2-.4.5-.7.7h.3c.3-.2 1.1-1 2.3-2-.9 1-1.8 1.8-2.3 2.2-.2.2-.4.4-.8.6h.4c.4-.3 1.1-1 2.1-1.9-1 1-1.8 1.8-2.3 2.2-.2.2-.5.4-.8.6h.4c.4-.3 1.1-.8 2-1.5-.9.8-1.6 1.4-2.2 1.8l-.9.6h.4c.4-.2 1.1-.7 2-1.4-.8.7-1.5 1.2-2.1 1.6-.3.3-.5.5-.9.8l.1.1c.5-.3 1.3-.8 2.1-1.4-.9.8-1.6 1.3-2.2 1.7-.2.2-.4.4-.7.5h.2c.4-.2 1.1-.7 2.1-1.4-.9.8-1.6 1.4-2.3 1.7-.9.9-1.7 1.3-2.6 1.1-.5-.7-.5-1.5 0-2.5.7-2 1.4-2.8 2-3.6-.9 1.5-1.2 2-1.6 3.1l.1.4c.4-.3.6-.7.7-.9z"/><path class="st6" d="M-293.9 450.6c-.7.7-1 .9-2 .7.2-.1.2-.2.8-.4-.6 0-.6.1-.8.2.7-.8 1.2-.5 2-.5zm-2.9 3.6c-.6.9-1.1 1.2-2.1 1.2.1-.2.5-.4 1.2-.7-.6.2-1 .4-1.2.5.5-1.1 1.4-.8 2.1-1zm.7-.8c-.7.7-1.1 1-2.1.7.2-.1.6-.4 1.3-.5-.6 0-1.1.2-1.3.3.8-.8 1.3-.5 2.1-.5zm.8-.9c-.7.7-1.1 1-2.1.7.2-.1.6-.4 1.3-.5-.6 0-1.1.2-1.3.3.8-.9 1.3-.5 2.1-.5zm.7-1c-.7.7-1.1 1-2.1.7.2-.1.4-.3 1-.4-.6 0-.8.1-1.1.2.9-.8 1.5-.5 2.2-.5zm1-1.7c-.7.7-.9.8-1.8.6.1-.1.1-.2.8-.3-.6 0-.6 0-.8.1.6-.6 1.1-.4 1.8-.4zm.5-1c-.5.7-.6.9-1.5.9.1-.1.1-.2.6-.4-.5.1-.5.1-.7.2.4-.6.9-.5 1.6-.7zm-5.7 3.9c.1.8.5 1.5-.2 2.4.1-.2-.1-.5 0-1-.2.5-.1.9-.2 1-.4-.9-.2-1.5.4-2.4zm.8-.9c.1.7.5 1.3-.2 2.1.1-.2-.1-.4 0-.9-.1.4-.1.7-.2.9-.3-.9-.2-1.4.4-2.1zm.7-.9c.1.7.4 1.6-.3 2.1-.4-.8-.2-1.4.3-2.1zm.7-.9c.1.7.4 1.6-.3 2.1-.3-.8-.2-1.4.3-2.1zm.8-.7c.1.6.3 1.4-.3 1.8-.3-.7-.2-1.1.3-1.8zm.8-.9c0 .6.1 1.4-.6 1.7-.1-.7.1-1.1.6-1.7zm.7-.6c0 .5.1 1.2-.5 1.5-.1-.6.1-1 .5-1.5zm1.4-.5c-.2.5-.5 1.4-1.4 1.6.1-.9 1-1.3 1.4-1.6z"/><path class="st5" d="M-302.6 462.7c-.2.2-.5.3-.8.3-2.9.4-6-.5-9.4-2.5v-.6c3.4 2.1 6.4 2.9 9.2 2.5.1-.2.3-.3.4-.4l.6.7z"/><path class="st5" d="M-299.6 459.7l-.2.1c.1 0 .2 0 .2-.1zm.6-1.5l-.4.2c.2 0 .3-.1.4-.2zm-1.1-5.8s-.3-1.3-1-2.2c.5.6 1 1.5 1.2 2.4.3.8.4 1.4.3 1.8.2-.4.3-.7.3-.9-.1-.7-.3-1.2-.7-2 .5.7.9 1.8 1 2.7.1.5.1.9-.1 1.3l.6-.9c0-.6-.1-1.2-.4-2 .3.6.5 1.5.5 2.3.1.9-.1 1.6-.6 2.1l.9-.8c.2-.6.2-1.2.1-2 .2.8.2 1.8-.1 2.7-.2.6-.4 1.1-.8 1.4l.8-.5c.3-.7.6-2 .6-2.6.1 1.3-.8 3.5-1 3.7-.2.4-.6.7-1 .9l1-.4c.5-.7.8-1.5 1-2.6-.1.8-.4 1.8-.9 2.7-.4.9-1.1 1.5-2 1.7l1.1-.2c.6-.6 1.2-1.4 1.6-2.6-.3 1.1-1 2.2-1.8 3.1-.4.4-.9.7-1.3.7.2 0 .3.1.4.2.4-.2 1.7-1.3 2.5-2.4-1 1.5-2 2.3-2.5 2.7-.9.5-1.7.5-2.5 0-.4-.5-.4-1.1.1-1.9.2-.7.1-1.4-.1-2.3.2.7.3 1.5.2 2.3v.1c0-.3.2-.6.4-1.1 0-.5-.2-1.2-.5-1.9.3.5.5 1.2.6 1.9l.2.3c-.1-.5-.2-.9-.2-1.5-.2-.5-.3-1.1-.3-1.6.1.7.2 1.2.4 1.6l.6.8c-.3-.7-.5-1.3-.4-2-.1-.4-.4-1-.7-1.5.3.4.6.9.8 1.5l.6.7c-.2-.4-.4-1-.6-1.6 0 0-.3-.8-.7-1.4.4.4.7.9.9 1.5l.5.3-.1-.2c-.2-.3-.3-.7-.4-1.1-.2-.4-.4-.7-.7-1.2.3.3.5.7.7 1.1l.7.4c-.4-.5-.8-1.2-1.1-2.1-.2-.3-.5-.7-.8-1 .3.2.6.6.8.9.3.1.5.3.8.6-.3-.4-.6-1-.9-1.9-.2-.3-.5-.7-.8-1 .3.3.7.7.9 1.2l.8.7-.1-.2c-.2-.7-.5-1.2-1.2-1.9.5.4 1 1.1 1.3 1.8-.1-.5-.1-1-.1-1.6-.2-.7-.5-1.2-1.2-1.9.5.4.9 1 1.2 1.7.5.8.9 1.5 1 2.3l.2-1.1z"/><path class="st6" d="M-302.3 459.7c.4.9.6 1.7.1 1.9-.4-.4-.5-.8-.1-1.9zm.2-1.2c.8.9 1.1 1.8.8 2.2-.6-.1-.7-.9-.8-2.2zm.4-1.1c.8.9 1.3 1.9 1 2.3-.7-.2-.9-1.1-1-2.3zm.1-.8c1 .7 1.5 1.5 1.3 1.9-.5 0-.8-.8-1.3-1.9zm.2-1.1c1 .7 1.5 1.3 1.3 1.7-.5 0-.9-.5-1.3-1.7zm1 .4c-.4-.1-.8-.8-1.3-2 1 .9 1.5 1.5 1.3 2zm0-1.1c-.4-.2-.8-.9-1.4-2.3 1 1 1.5 1.8 1.4 2.3zm.3.3c-.2-.3-.2-1.1.1-2.4.3 1.3.2 2.1-.1 2.4zm0 1.1c.2-.2.2-.4.2-.6 0 .1-.1.2-.3.4.1-.9.8-1.4.9-2 .2 1.1 0 2.1-.8 2.2zm.3.8c.2-.2.3-.5.3-.6-.1.1-.2.3-.5.4.2-.6.8-1.2 1.4-2 0 1.5-.5 2.4-1.2 2.2zm-.1 1.3c.2-.1.4-.4.4-.5-.1.1-.3.3-.5.4.3-.6 1.1-1.1 1.7-1.9-.1 1.4-.9 2.3-1.6 2zm-.5 1.3c.2-.1.5-.3.5-.4-.2.1-.3.2-.6.3.4-.5 1.3-.8 2.1-1.4-.4 1.2-1.4 1.9-2 1.5zm1.6 0c-.6 1.1-1.5 1.7-2.3 1.3.5-.2.8-.4 1-.6-.3.2-.6.4-1 .4.4-.7 1.3-.6 2.3-1.1zm-.7 1.4c-.7.9-1.5 1.1-2.5.7.2-.1.6-.2 1.3-.3-.6 0-1.1 0-1.3.1.5-.6 1.8 0 2.5-.5zm-1.1 1.2c-.8.6-1.6.6-2.2.1.2-.8 1.1-.2 2.2-.1zm-2.2-1.5c.2.9.1 1.4-.2 1.5-.2-.3-.4-.5.2-1.5zm2.4-6.7c-.3-.3-.7-1.1-.7-2.6.6 1.3.8 2 .7 2.6zM-302.9 462.7c-.2-.1-.3-.2-.4-.4-.1 0-.2.1-.3.2-2.6.5-5.7-.3-9.2-2.5v.3c3.6 2.1 6.6 2.9 9.2 2.5.4 0 .6 0 .7-.1z"/><circle class="st7" cx="-320.7" cy="445.5" r="20"/><g><path class="st4" d="M-304.8 445c-.3-.3-.7-.3-1.1-.2 0-.3 0-.6.1-.8 0-.2-.4-.2-.5-.1-.2.1-.4.2-.5.4-.3 0-.5 0-.7.1-.7.3-1 1.1-1.1 1.8 0 .1-.1.3-.1.5-.1.3-.2.7-.4.9-.2.1-.3-.8-.3-.9 0-1 .2-1.9.4-2.8 0-.2-.2-.3-.4-.2-.2.1-.5.2-.6.4-.2.7-.3 1.4-.4 2.2l-.3.9c-.1 0-.1-.1-.2-.1-.5-.3-.3-1.2-.3-1.6.1-.6.2-1.2.5-1.8.1-.2 0-.3-.3-.3-.2 0-.5.2-.6.4-.2.5-.3 1-.5 1.6-.1.5-.4 1-.7 1.3l-.1.1v-.1c-.1-.4-.1-.9 0-1.2 0-.6.1-1.2.2-1.8 0-.5-.4-.8-.9-.8-.6 0-1 .4-1.3.7-.3.5-.5 1.2-.6 1.3-.1.5-.3 1-.6 1.4-.1 0-.1-.1-.1-.2-.1-.3-.2-.6-.2-.9-.1-.9-.1-1.8 0-2.6v-.1s-.1 0-.1-.1c-.2-.1-.5.1-.7.3-.5.6-.5 1.4-.6 2.1l-.3 1.2s0 .1-.1.2c-.1-.1-.2-.2-.2-.3 0-.2-.1-.3-.3-.2s-.5.3-.6.5c-.2 0-.2-.2-.3-.3-.1-.3-.1-.6-.1-.9v-.6c0-.5.1-1 .1-1.4v-.4c0-.2-.3-.2-.4-.1-.2.1-.5.3-.5.6v1.6c0 .2 0 .4-.1.7 0 .3-.1.7-.2 1h-.2c-.5-.2-.5-1.1-.5-1.5 0-.6 0-1.3.2-1.8 0-.1.1-.2 0-.3s-.3 0-.4.1-.4.4-.6.5c-.4.2-.8.1-1.1-.1-.1-.1-.2-.2-.4-.3-.4-.2-.8 0-1.1.3 0-.3-.1-.5-.2-.8-.1-.2-.5 0-.5.1-.2.1-.4.4-.3.6-.3.1-.5.3-.7.4-.6.6-.6 1.4-.6 2.1v.5c0 .1 0 .8-.2 1-.2.2-.6-.6-.6-.7-.3-.9-.3-1.9-.4-2.8 0-.2-.3-.1-.4 0-.2.1-.4.4-.4.7 0 .7.1 1.5.1 2.2 0 .3 0 .7-.1 1h-.2c-.5-.1-.6-1-.7-1.4-.1-.6-.1-1.3 0-1.9 0-.2-.1-.3-.3-.2-.2.1-.5.4-.5.6-.1.8-.1 1.6.1 2.4.1.6.4 1.5 1.1 1.4.5-.1.9-.4 1.1-.8.1.1.1.2.2.3.5.5 1.1 0 1.5-.4 0-.1.1-.1.1-.2l.3.3c.2.2.5.2.8.1.1 0 .2-.1.3-.1 0 .9.1 1.8.1 2.7 0 .2.3.2.4.1.2-.1.4-.4.4-.6v-2.2c.3 0 .7-.2.9-.5.6-.6.7-1.5.6-2.3 0-.1 0-.3-.1-.4.3 0 .5-.2.8-.3-.1.6-.1 1.2-.1 1.8s.2 1.5 1 1.6c.5 0 .8-.2 1.1-.5.2.3.5.6.9.5.2 0 .3-.1.4-.2.3.3.8.3 1.2 0 .3-.3.5-.6.6-.9v.3c.1.3.1.6.3.9.2.3.6.1.9 0 .2-.1.5-.3.6-.5.1.3.2.6.4.7.4.2.9 0 1.2-.2 0 .2.1.4.3.5.5.2 1-.2 1.3-.5.1.4.2.8.7 1 .5.2.9 0 1.2-.3 0 .1.1.2.1.3.3.7 1 .4 1.4.2.1 0 .1-.1.2-.1 0 .1.1.3.2.4.1.3.4.4.7.5h.3c-.2.9-.4 1.7-.7 2.6-.1.2.2.3.3.2.2 0 .5-.2.5-.4.2-.7.4-1.4.6-2 .3.1.7.1 1-.1.7-.3 1-1.2 1.2-2 0-1.5.2-2.5-.3-3zm-20.9 1.3h-.2c-.2-.1-.3-.2-.4-.3-.3-.4-.3-.9-.4-1.4 0-.4 0-.8.1-1.2h.1c.3.2.5.6.6 1 .1.6.2 1.2.2 1.9zm1.5-.2c-.1 0-.1 0 0 0-.4.1-.6-.1-.6-.4 0-.7-.1-1.3-.2-2v-.5c.1 0 .2 0 .3.1l.1.1c.3.3.4.8.4 1.2.1.5.2 1 0 1.5zm10.4-2.3c-.1.8-.2 1.7-.5 2.4 0 0-.1.1-.1.2h-.1c-.2-.1-.2-.4-.3-.5-.1-.6 0-1.3.2-1.9.1-.2.2-.5.3-.5h.1c.4 0 .5.1.4.3zm6.8 2.4c-.1.6-.2 1.2-.3 1.9l-.1-.1c-.1-.1-.2-.3-.3-.5-.1-.5-.1-1 0-1.5.1-.4.2-.8.4-1.1 0 0 0 .1.1.1.2.3.2.8.2 1.2zm1.5.9c-.1.5-.2 1-.5 1.3-.3-.1-.4-.4-.4-.7.1-.6.3-1.3.4-2 0-.2.1-.3.2-.5.1 0 .2.2.3.3.1.6.1 1.2 0 1.6zM-308.8 442.6c.1-.1.4-.3.3-.5-.1-.2-.5-.1-.6 0-.3.2-.6.3-1 0-.1-.1-.3-.2-.4-.3-.2-.3-1.1.2-.9.5.7 1 1.9.7 2.6.3zM-334.1 444.1c-.1-.4-.2-.7-.3-1.1.8-.2 1.5-.5 2.3-.8.2-.1.5-.4.5-.7 0-.2-.1-.3-.3-.2-1.3.6-2.8.9-4.1 1.4-.5.2-1.1.6-1.3 1.1-.3.6-.2 1.2.1 1.7.2.3.9-.6.7-.9l-.3-.6v-.1c.3-.3.8-.4 1.2-.6.1 0 .2-.1.3-.1.2.4.3.8.4 1.2-.5.3-.8.8-1.1 1.2-.5 1-.6 3.7 1.2 3.4 1.2-.2 1.3-1.6 1.2-2.6-.1-.5-.1-1.1-.2-1.6h.3c.7.1 1 .7 1.1 1.3.1.5 0 1.2-.4 1.6-.1.1-.3.5-.2.7.1.2.4-.1.5-.2.9-1 1.3-2.8.4-3.9-.5-.3-1.3-.4-2-.2zm-.4 4.1c-.3 0-.6-.1-.7-.2-.5-.5-.6-1.5-.2-2.2.2-.3.4-.5.7-.6.2.6.3 1.3.4 2 0 .3.1.6.1.9v.1h-.3z"/></g><g><path class="st4" d="M-315.8 459.8c-.2.3-.6-.5-.6-.6s-.1-.2-.1-.3c-.1-.2-.2-.5-.2-.7v-.1c-.1-.2-.3.2-.3.4.1.3.2.6.2 1 0 .2.1.3.1.5s0 .3-.2.2c-.5-.2-.5-1.3-.5-1.7 0-.3-.3.1-.3.2 0 .2 0 .9.2 1.4-.1.2-.3.4-.4.3-.1-.1-.1-.4-.2-.5-.1-.3-.3-.3-.6-.2 0-.1 0-.3.1-.5 0-.1.1-.2.3-.2.2.1.5-.4.3-.5-.4-.2-.7 0-.9.5 0-.3-.1-.5-.2-.8-.1-.2-.4.2-.4.4.2.5.2 1.1.2 1.7-.2.2-.5.6-.6.2-.1-.2-.1-.5-.1-.7v-.6-.2c-.1-.6-.7-.3-.9.1-.3.4-.4 1-.4 1.5-.3.1-.4.1-.5-.3-.1-.5 0-1.1.1-1.6 0-.3-.4 0-.4.1-.2.2-.3.5-.4.8-.1.2-.1.3-.2.5 0 .1-.1.2-.1.3-.1.2-.2 0-.2-.1s0-.1-.1-.1h-.1c-.2 0-.3.1-.5.1 0-.1-.1-.2-.2-.3.3-.3.5-.8.6-1.2 0-.3 0-.6-.3-.6-.4-.1-.8.3-1 .6-.1.2.5.1.5 0s.1-.4.2-.2c.1.1 0 .3 0 .4 0 .2-.2.7-.4.8h-.2s-.3.1-.3.2c-.1.1-.1.1 0 .1h.3s.2.1.2.3c-.5.2-1.1.4-1.5.9-.4.5.2 1 .9.9.7-.1 1-.8 1.1-1.4v-.2h.2c0 .4.6.4.9.2.1-.1.2-.2.2-.3 0 .2.1.3.1.4.2.3.7.2 1 0 .1.3.5.4.8.1l.1-.1c0 .1.1.2.1.2.2.2.7-.1 1-.4v.3c0 .3.5-.1.5-.3v-.7c.3 0 .2.8.5.8.3.1.6-.2.8-.5.1.2.3.3.6.2.2-.1.4-.3.5-.5.3.4.7 0 .9-.3.3-.1 0-.2-.2.1zm-8.6 1c-.1.4-.2.8-.6 1-.1.1-.2 0-.3-.1-.1-.2 0-.3.1-.5.2-.3.5-.5.8-.6.1.1.1.2 0 .2zm3.6 0c-.1 0-.1-.1-.2-.2-.1-.2-.1-.5 0-.8 0-.1.1-.3.1-.4s.1-.1.1-.2c.1-.1.2.1.2.2 0 .4 0 .7-.1 1.1.1 0 0 .3-.1.3z"/></g><circle class="st8" cx="-336.7" cy="463.2" r="6.3"/><path class="st7" d="M-330.2 421c0 1.4-1.1 2.5-2.6 2.5-1.4 0-2.6-1.1-2.6-2.5s1.1-2.6 2.6-2.6 2.6 1.2 2.6 2.6z"/><path class="st8" d="M-330.1 429.6c0 1.8-1.5 3.3-3.3 3.3-1.8 0-3.3-1.5-3.3-3.3 0-1.8 1.5-3.3 3.3-3.3 1.8 0 3.3 1.5 3.3 3.3zM-338.9 424.5c0 1.1-.9 1.9-1.9 1.9-1.1 0-2-.9-2-1.9 0-1.1.9-2 2-2 1.1.1 1.9 1 1.9 2z"/><g><circle class="st8" cx="-303.7" cy="427.2" r="11"/><path class="st4" d="M-306.4 425.7c-.9.1-1.2 1.2-1.2 1.9v.3c0 .4 0 .6-.1 1 0 .1-.1.4-.1.4-.3 0-.6-.5-.7-.7-.2-.6-.4-1.2-.5-1.7-.1-.6-.2-1.3-.2-1.9v-.8-.3-.2c.1-.5-.6 0-.7.2-.7 1.3-.5 2.8-.5 4.2 0 .4 0 .8-.1 1.1 0 .3-.1.7-.3.9-.1.1-.4 0-.5 0-.2-.1-.3-.3-.3-.5s-.3-.1-.4 0c-.2.2-.3.4-.3.6.1.5.5.9 1 .8.8-.2 1.2-1.2 1.4-2 .1-.4.1-.7.2-1.1.1.5.3 1.1.5 1.6.2.4.5.7 1 .7.3-.1.6-.4.8-.8.2.4.4.6.8.6.5 0 .8-.5 1-.9s.3-.9.3-1.4c0-.8-.1-2.1-1.1-2zm.3 3.1c0 .1 0 .2-.1.3-.2 0-.3-.3-.4-.4-.1-.3-.2-.6-.2-1v-1c0-.1 0-.2.1-.3.5.3.6.9.6 1.4 0 .3.1.7 0 1zM-295.5 427c-1-.4-1.5 1-1.7 1.7-.2.7-.4 1.9.5 2.3.4.2.9-.1 1.2-.4.3-.3.5-.8.6-1.2.2-.8.3-2.1-.6-2.4zm-.5 3.1c0 .1-.1.2-.1.2-.2-.1-.2-.4-.2-.5-.1-.3 0-.7 0-1 .1-.3.2-.7.3-1 0-.1.1-.2.1-.2.4.4.3 1.1.2 1.6l-.3.9zM-298.1 427.1c.2-.2.4-.5.5-.8.4-.5.7-1.2.7-1.9 0-.6-.9-.7-1.3-.5-.6.3-1 1-1.2 1.6-.2.8-.4 1.7-.4 2.6-.3.4-1 1.2-1.5.8-.1-.1-.2-.2-.2-.4.4-.4.8-.9 1.1-1.4.3-.4.5-1.2-.1-1.5-.5-.3-1.1 0-1.4.4-.3.4-.5.9-.5 1.4 0 .3-.1.7 0 1.1-.3.2-.6.3-1 .2s-.5-.5-.6-.8c-.1-.5-.1-.9 0-1.4 0-.1.1-.3.1-.4v-.1c.2.1.3.5.4.6.1.3.9-.2.8-.5-.1-.3-.2-.7-.6-.8-.3-.2-.8.1-1 .3-.6.6-.7 1.5-.6 2.3 0 .5.1 1.1.6 1.4.6.4 1.4 0 2-.3.2.4.4.6.9.6.6-.1 1.1-.4 1.6-.8 0 .4.1.9.4 1.1.5.3 1.2 0 1.5-.5.4-.6.7-1.4.4-2.1-.1 0-.3-.2-.6-.2zm-3.4-.3c0-.1.1-.3.2-.4.2.1.3.4.3.6-.1.4-.3.7-.6 1.1v-.2c0-.4 0-.8.1-1.1zm3.2-1.9c.1-.1.1-.3.2-.4.4.4 0 1-.2 1.4-.2.4-.4.8-.7 1.2.1-.4.1-.8.2-1.1.2-.4.3-.7.5-1.1zm-.2 4.5s-.1.1-.1.2h-.1c-.2-.1-.3-.7-.3-.9v-.6c.1-.1.2-.2.3-.4.2-.1.4.1.4.4.1.5 0 1-.2 1.3z"/></g><g><path class="st4" d="M-340.9 462.2c.2-.6.7-.2.8.1.2.4 0 .9-.3 1.2-.2.3-.5.5-.8.7-.2.1-.3.2-.4.3 0 .1-.1.2 0 .2.2.2.7.2.9.2.5 0 1 0 1.4-.2.2-.1.5-.7 0-.5-.3.2-.8.1-1.1.1-.2 0-.6 0-.7-.1v.2c-.2.3-.1.2.1.1.1-.1.3-.2.4-.3.2-.2.4-.4.6-.7.4-.5.6-1 .5-1.6-.2-1.4-1.7-.4-2 .4-.1.5.5.1.6-.1zM-337.4 464.4c.5 1.5 2.8.5 2.4-.9-.2-.7-1-.6-1.5-.7-.3-.1-.3-.3-.3-.6.1-.3.1-.3-.1-.2.1 0 .2 0 .3-.1.5-.1 1-.1 1.4.1.2.1.7-.4.4-.5-.6-.3-1.2-.2-1.8-.1s-.7.6-.7 1.2c0 .7.6.7 1.1.8.4.1.7.2.8.6.1.7-.7.6-1 .4-.2-.1-.2-.3-.3-.5-.2-.1-.8.3-.7.5zM-332.1 461.7c-.6 1.1-1.4 2.1-2.2 3-.3.4.2.4.4.1.8-1 1.6-2.1 2.3-3.2.3-.4-.4-.2-.5.1zM-333.3 461.4c-.4 0-.7.4-.7.7-.1.3.1.6.5.6.7.1 1.1-1.3.2-1.3-.2 0-.5.4-.2.4.2 0 .3.2.3.3v.2h-.1c-.2 0-.3-.2-.3-.3v-.2h.1c.1 0 .4-.4.2-.4zM-332.2 463.7c-.4 0-.7.4-.7.7-.1.3.1.6.5.6.7.1 1.1-1.3.2-1.3-.2 0-.5.4-.2.4.2 0 .3.2.3.3v.2c0 .1 0 0 0 0h-.1c-.2 0-.3-.2-.3-.3v-.2h.1c.1 0 .4-.4.2-.4zM-338.3 465.8c.3-.2.5-.6.5-1 0-.1 0-.3-.1-.3-.1-.1-.4 0-.5 0-.2.1-.3.3-.3.4 0 .2.2.1.3.1v.1c0 .1 0 .1-.1.2v.2c.1-.1 0 0 0 0-.1.1-.3.3-.1.4 0 .2.2 0 .3-.1z"/></g><g><path class="st9" d="M-345 437c-.1 0-.2-.2-.3-.2-.4-.2-.7.1-1.1.1-.9 0-1.3 0-2.4-.3 0-1 .6-1.6.8-2.4.2-.7-.1-1.5-.1-2.3v-1.4c-.3.3-.2 1.2-.2 1.6-.1-.6-.1-1.4-.3-1.9-.1.6 0 1.3 0 1.9-.2-.5-.2-1.2-.4-1.6-.3.5.2 1.3.1 1.8-.2-.5-.3-1-.5-1.5-.1.6.2 1.2.2 1.6-.2-.4-.3-.8-.6-1.1 0 .4.3.9.4 1.3-.3-.1-.4-.5-.6-.6 0 .3.3.5.4.8-.2-.1-.3-.3-.5-.4 0 .3.3.4.3.6-.1-.1-.3-.2-.4-.3 0 .2.3.4.3.5 0 0-.2-.1-.2 0 0 0 .2.1.1.2h-.2c0 .2.2.1.1.3-.1 0-.1-.1-.1 0s.1.1.1.2c-.8.8-.4 1.8-.5 2.8.1-.1-.7-.3-1.2-.5-.3-.1-.4-.5-.6-.6 0-.1.1 0 .1-.1-.1 0-.2-.1-.2-.2.1 0 .3.1.3 0-.1-.1-.5-.2-.5-.3.2 0 .4.1.5.1-.2-.1-.6-.3-.6-.5.2.1.5.3.7.2-.3-.2-.8-.4-.9-.7.3.1.6.4.8.4-.4-.1-.7-.6-1.1-.6.2.4.8.6.9.8-.3-.2-.6-.3-1-.5.1.4.6.5.9.8-.3 0-.5-.2-.8-.2.1.3.6.2.7.5-.1-.1-.3 0-.5 0 0 .2.4.2.5.3-.2 0-.3 0-.4.1.1.1.3.1.4.2-.1 0-.2 0-.2.1s.3 0 .3.1c-.1 0-.1.1-.1.1h.2c-.1 0-.1 0-.1.1.4.2.7.9 1.3 1.2-.3.2.3.4-3.5 1.8.1 0 1.7-.4 2.2-.5.5-.2.9-.3 1.4-.4.1 0 .2-.1.3-.1.8-.1 1.5.1 2.3-.4-.6.1-1.6.2-2-.1.5-.8.2-2.9.6-3.3.4-.4 1.1-1.7 1.9-.6.1.2.2.4-.1.9-.4.6-.6.8-.5 2.1 0 .3 0 .5-.4.5 1.7.4 2.2.2 3.1 0 .3 0 .8-.3.8 0 0 .1-.3.1-.6.1-.5 0 .2.2.4.2.1 0 1-.1 1.5-.2-.7-.4-.9-.4-1.2-.5z"/><path class="st9" d="M-349.8 428.5c-3.8 0-6.9 3.1-6.9 6.9s3.1 6.9 6.9 6.9c3.8 0 6.9-3.1 6.9-6.9 0-3.8-3.1-6.9-6.9-6.9m0 .2c3.7 0 6.7 3 6.7 6.7s-3 6.7-6.7 6.7-6.7-3-6.7-6.7 3-6.7 6.7-6.7"/></g><g><path class="st5" d="M-171.9 457.3l-.1.2c0-.1.1-.2.1-.2zm1.3-.5l-.2.3c.1-.1.2-.2.2-.3zm5.1.8s1.1.2 1.9.8c-.5-.4-1.3-.7-2.1-.9-.7-.2-1.2-.3-1.6-.2.4-.2.6-.3.8-.3.6 0 1.1.2 1.8.6-.6-.4-1.5-.7-2.3-.7-.4-.1-.8-.1-1.2.1l.8-.5c.5 0 1.1 0 1.8.3-.5-.2-1.3-.4-2-.4-.8-.1-1.4.1-1.9.5l.7-.7c.5-.1 1-.1 1.7-.1-.7-.1-1.6-.1-2.3.1-.6.2-1 .3-1.3.6l.4-.6c.6-.3 1.7-.5 2.3-.5-1.2-.1-3.1.6-3.3.8-.4.2-.6.5-.8.8l.4-.8c.6-.4 1.3-.7 2.3-.8-.8.1-1.6.3-2.4.7s-1.3.9-1.5 1.6l.2-.9c.5-.5 1.2-1 2.3-1.3-.9.2-2 .8-2.7 1.5-.3.4-.6.7-.6 1.1 0-.2-.1-.3-.1-.3.2-.3 1.2-1.4 2.2-2-1.3.8-2.1 1.6-2.4 2-.5.7-.5 1.3 0 2 .4.3.9.3 1.6-.1.6-.1 1.2-.1 2.1 0-.6-.2-1.3-.2-2-.2h-.1c.3 0 .6-.1.9-.3.5 0 1.1.1 1.7.4-.4-.2-1.1-.4-1.7-.5l-.3-.1c.4.1.8.2 1.3.1.4.1 1 .2 1.4.2-.6-.1-1-.2-1.4-.3l-.7-.5c.6.3 1.1.3 1.8.3.4.1.9.3 1.3.5-.3-.2-.8-.5-1.3-.6l-.6-.4c.4.2.8.3 1.4.5 0 0 .7.2 1.2.5-.3-.3-.8-.5-1.3-.7l-.3-.4.2.1c.3.2.6.3 1 .3.3.1.6.3 1 .6-.2-.2-.6-.4-.9-.6l-.3-.5c.4.3 1.1.6 1.8.8l.9.6c-.2-.2-.5-.4-.8-.6-.1-.2-.3-.4-.5-.6.3.2.9.4 1.7.7l.9.6c-.3-.3-.6-.5-1-.7l-.6-.6.2.1c.6.1 1 .4 1.7.9-.4-.4-1-.8-1.6-1 .4.1.9.1 1.4.1.6.1 1 .4 1.7.9-.3-.4-.9-.7-1.5-.9-.7-.4-1.3-.7-2-.8l.6-.3z"/><path class="st6" d="M-171.9 459.4c-.8-.3-1.5-.4-1.7-.1.3.4.6.4 1.7.1zm1-.1c-.8-.7-1.6-.9-1.9-.7.1.5.8.6 1.9.7zm1-.3c-.8-.7-1.6-1-2-.8.1.5.9.7 2 .8zm.7-.2c-.6-.8-1.3-1.2-1.7-1.1 0 .6.7.8 1.7 1.1zm1-.1c-.6-.8-1.1-1.1-1.5-1-.1.4.4.7 1.5 1zm-.4-.8c.1.3.6.6 1.7 1-.7-.8-1.3-1.1-1.7-1zm1 0c.1.3.8.7 2 1.1-.9-.8-1.6-1.2-2-1.1zm-.2-.2c.3.2.9.1 2.1-.1-1.2-.3-1.9-.2-2.1.1zm-1.1 0c.2-.1.3-.2.5-.2-.1 0-.2.1-.3.2.8-.1 1.2-.6 1.8-.8-1-.1-1.8.1-2 .8zm-.7-.2c.1-.1.4-.3.5-.3-.1.1-.3.2-.4.4.6-.1 1-.6 1.8-1.1-1.1 0-2 .4-1.9 1zm-1.1.1c.1-.2.4-.3.5-.3-.1.1-.3.2-.3.4.5-.2 1-.9 1.7-1.4-1.3.1-2.1.7-1.9 1.3zm-1.1.3c.1-.2.3-.4.4-.4-.1.1-.2.3-.2.5.5-.3.7-1 1.3-1.7-1.2.4-1.9 1.1-1.5 1.6zm0-1.3c-.9.5-1.5 1.2-1.2 1.9.2-.4.4-.6.6-.8-.2.2-.3.5-.4.8.6-.3.6-1.1 1-1.9zm-1.3.6c-.8.5-1 1.2-.7 2 .1-.1.2-.5.3-1 0 .5 0 .9-.1 1.1.6-.5.2-1.5.5-2.1zm-1 .9c-.5.7-.5 1.3-.1 1.8.7-.2.2-.9.1-1.8zm1.3 1.7c-.8-.2-1.2-.1-1.3.2.2.2.3.3 1.3-.2zm5.9-1.9c.3.2 1 .5 2.2.5-1.1-.4-1.7-.6-2.2-.5z"/><path class="st5" d="M-183.8 459.2c.6.3 1 .7 1.4 1.1 1.7 2.6 2.4 4.2 2.7 4.5.2.4-.2.9-1 1.4-.4.2-3.3-1.9-7.7-4.3v-1c1.6.5 3.1 1.3 4.4 2.3 1.6 1.2 2.7 1.9 3.4 2.1.1-.3-.4-1.4-1.6-3.4-.3-.6-.5-1.1-.6-1.5-.2-.4-.5-.8-1-1.2z"/><path class="st6" d="M-180.5 465.4v.2c-.5 0-1.4-.5-3-1.4 1.3.9 2.3 1.4 2.9 1.5-.2.2-.8 0-1.7-.5.8.5 1.3.7 1.6.7 0 .1 0 .1-.1.2-.6 0-3.2-1.7-7.6-4.3v-.6c2.3.7 3.3 1.7 4.6 2.5 1.6.9 2.7 1.8 3.3 1.7zm-2.8-5.8c1 .8 1.3 1.7 2.2 3.2.6 1 1 1.8 1.3 2.2 0 .4-.2.7-.7.9.4-.4-.3-1.8-1-2.9-1-1.6-.7-2.3-1.8-3.4z"/><path class="st5" d="M-173.8 453c.6-1.8 1.3-2.6 1.9-3.5-.9 1.5-1.2 1.9-1.6 3v.5c0-.3.1-.6.3-.8.6-1.8 1.5-2.7 2.1-3.5-.9 1.5-1.3 1.9-1.7 2.9l.1.4c.1-.5.3-.9.5-1.1.8-1.7 1.5-2.2 2.2-3-1.1 1.5-1.5 1.9-2 3.1l.1.4c.1-.5.2-.7.4-1 1-1.8 1.8-2.3 2.5-3.1-1.2 1.5-1.7 1.8-2.3 3 0 .1.1.2.1.3.1-.5.4-1 .8-1.5.5-.6 1.5-1.7 2.4-2.7-1.2 1.3-2.2 2.5-2.4 2.8v.2c.2-.4.5-.7.7-.9.4-.5 1.4-1.5 2.5-2.6-1.1 1.2-2.2 2.3-2.4 2.7v.5c.4-.4.9-.7 1.4-1 .5-.4 1.4-1.4 2.4-2.5-.8 1-1.7 2-2.3 2.5-.2.6-.5 1.1-.9 1.6.1 0 .3 0 .5-.1.4-.3 1.5-1.4 2.5-2.6-1 1.2-2.1 2.5-2.6 2.8-.2.2-.4.5-.7.7h.3c.3-.2 1.1-1 2.3-2-.9 1-1.8 1.8-2.2 2.2-.2.2-.4.4-.7.6h.4c.4-.3 1.1-1 2.1-1.8-.9 1-1.8 1.8-2.2 2.2-.2.2-.5.4-.8.6h.4c.4-.3 1.1-.8 2-1.5-.9.8-1.6 1.4-2.2 1.8l-.9.6h.4c.4-.2 1.1-.7 2-1.4-.8.7-1.5 1.2-2.1 1.5-.3.3-.5.5-.9.7l.1.1c.5-.3 1.3-.8 2.1-1.4-.9.8-1.6 1.3-2.2 1.6-.2.2-.4.4-.7.5h.2c.4-.2 1.1-.7 2.1-1.4-.8.8-1.6 1.3-2.3 1.7-.9.9-1.7 1.3-2.6 1.1-.5-.7-.5-1.5 0-2.5.7-2 1.4-2.7 1.9-3.6-.9 1.5-1.2 1.9-1.6 3l.1.4c.2.1.3-.2.5-.5z"/><path class="st6" d="M-169.5 451.9c-.7.7-1 .9-2 .7.2-.1.2-.2.8-.4-.6 0-.6.1-.8.2.7-.9 1.2-.5 2-.5zm-2.9 3.6c-.6.9-1 1.2-2.1 1.2.1-.2.5-.4 1.1-.7-.6.2-1 .4-1.2.5.6-1.1 1.5-.8 2.2-1zm.7-.8c-.7.7-1.1 1-2.1.7.2-.1.6-.4 1.3-.5-.6 0-1.1.2-1.3.3.8-.9 1.3-.5 2.1-.5zm.8-1c-.7.7-1.1 1-2.1.7.2-.1.6-.4 1.3-.5-.6 0-1.1.2-1.3.3.8-.8 1.3-.4 2.1-.5zm.7-.9c-.7.7-1.1 1-2.1.7.2-.1.4-.3 1-.4-.6 0-.8.1-1 .2.8-.9 1.4-.5 2.1-.5zm1-1.7c-.7.7-.9.8-1.8.6.1-.1.1-.2.7-.3-.6 0-.6 0-.8.1.7-.6 1.2-.4 1.9-.4zm.5-1c-.5.7-.6.9-1.5.8.1-.1.1-.2.6-.4-.5.1-.5.1-.7.2.4-.5.9-.4 1.6-.6zm-5.7 3.9c.1.8.5 1.5-.2 2.4.1-.2-.1-.5 0-1-.2.5-.1.9-.2 1-.4-.9-.2-1.5.4-2.4zm.8-1c.1.7.5 1.3-.2 2.1.1-.2-.1-.4 0-.9-.1.4-.1.7-.2.9-.3-.8-.1-1.3.4-2.1zm.7-.8c.1.7.4 1.6-.3 2.1-.4-.8-.2-1.4.3-2.1zm.7-.9c.1.7.4 1.6-.3 2.1-.3-.8-.2-1.4.3-2.1zm.8-.7c.1.6.3 1.3-.3 1.8-.3-.7-.2-1.2.3-1.8zm.8-.9c0 .6.1 1.4-.6 1.7-.1-.7.1-1.1.6-1.7zm.7-.6c0 .5.1 1.2-.5 1.5-.1-.6 0-1 .5-1.5zm1.4-.5c-.2.5-.5 1.4-1.4 1.6.1-.9 1-1.2 1.4-1.6z"/><path class="st5" d="M-178.1 463.9c-.2.2-.5.3-.8.3-2.8.3-6-.5-9.3-2.5v-.6c3.4 2.1 6.4 2.9 9.1 2.5.1-.2.3-.3.4-.3l.6.6z"/><path class="st5" d="M-175.2 460.9l-.2.1c.1 0 .2 0 .2-.1zm.6-1.5l-.4.2c.2 0 .3-.1.4-.2zm-1.1-5.7s-.2-1.3-1-2.2c.5.6.9 1.5 1.2 2.4.3.8.4 1.4.3 1.8.2-.4.3-.7.3-.9-.1-.6-.3-1.2-.7-2 .5.7.9 1.8 1 2.7.1.5.1.9-.1 1.3l.6-.9c0-.6-.1-1.2-.4-2 .3.6.5 1.5.5 2.2.1.9-.1 1.6-.6 2.1l.9-.8c.2-.6.2-1.2.1-2 .2.8.2 1.8-.1 2.6-.2.6-.4 1.1-.8 1.4l.7-.5c.3-.7.6-2 .6-2.6.1 1.3-.8 3.5-1 3.7-.2.4-.6.7-.9.9l1-.4c.5-.7.8-1.5 1-2.6-.1.8-.4 1.8-.8 2.7s-1.1 1.5-2 1.7l1.1-.2c.6-.6 1.2-1.4 1.6-2.5-.3 1.1-1 2.2-1.8 3-.4.4-.9.7-1.3.7.2 0 .3.1.4.2.4-.2 1.7-1.3 2.5-2.4-1 1.5-2 2.3-2.5 2.7-.9.5-1.7.5-2.5 0-.4-.5-.4-1.1.1-1.8.2-.7.1-1.4-.1-2.3.2.7.3 1.5.2 2.3v.1c0-.3.1-.6.4-1.1 0-.5-.2-1.2-.5-1.9.3.5.5 1.2.6 1.9l.2.3c-.1-.5-.2-.9-.2-1.5-.2-.5-.3-1.1-.3-1.6.1.7.2 1.2.4 1.6l.6.8c-.3-.7-.4-1.3-.4-2-.1-.4-.4-1-.7-1.5.3.4.6.9.8 1.5l.6.7c-.2-.4-.4-1-.6-1.6 0 0-.3-.8-.7-1.4.4.4.7.9.9 1.5l.5.3-.1-.2c-.2-.3-.3-.7-.4-1.1-.2-.4-.4-.7-.7-1.1.3.3.5.7.7 1.1l.6.4c-.4-.5-.8-1.2-1.1-2.1-.2-.3-.5-.7-.8-1 .3.2.6.6.8.9.3.1.5.3.8.6-.3-.4-.6-1-.9-1.9-.2-.3-.5-.7-.8-1 .3.3.7.7.9 1.2l.8.7-.1-.2c-.2-.7-.5-1.2-1.2-1.9.5.4 1 1.1 1.3 1.8-.1-.5-.1-1-.1-1.6-.2-.6-.5-1.2-1.2-1.9.5.4.9 1 1.2 1.7.5.8.9 1.5 1 2.3l.2-1.1z"/><path class="st6" d="M-177.8 460.9c.4.9.6 1.7.1 1.9-.5-.4-.5-.7-.1-1.9zm.1-1.1c.8.9 1.1 1.8.8 2.2-.5-.2-.7-1-.8-2.2zm.4-1.2c.8.9 1.3 1.9 1 2.3-.6-.1-.9-1-1-2.3zm.2-.8c1 .7 1.5 1.5 1.3 1.9-.6 0-.9-.7-1.3-1.9zm.1-1.1c1 .7 1.4 1.3 1.2 1.7-.4.1-.8-.5-1.2-1.7zm1 .4c-.3-.1-.8-.8-1.3-2 1.1.9 1.5 1.6 1.3 2zm0-1.1c-.4-.2-.8-.9-1.4-2.3 1.1 1.1 1.5 1.9 1.4 2.3zm.3.3c-.2-.3-.2-1.1.1-2.4.3 1.4.3 2.2-.1 2.4zm0 1.2c.2-.2.2-.4.2-.6 0 .1-.1.2-.3.4.1-.9.8-1.4.9-2 .3 1.1 0 2-.8 2.2zm.3.8c.2-.2.3-.5.3-.6-.1.1-.2.3-.5.4.2-.6.8-1.1 1.3-2 .1 1.4-.4 2.4-1.1 2.2zm-.1 1.3c.2-.1.4-.4.4-.5-.1.1-.3.3-.5.4.3-.6 1.1-1.1 1.7-1.8-.1 1.2-.9 2.1-1.6 1.9zm-.5 1.2c.2-.1.5-.3.5-.4-.2.1-.3.2-.6.3.4-.5 1.3-.8 2.1-1.4-.4 1.2-1.4 1.9-2 1.5zm1.7 0c-.6 1-1.5 1.6-2.3 1.3.5-.2.8-.4 1-.6-.3.2-.6.4-1 .4.4-.6 1.3-.6 2.3-1.1zm-.8 1.4c-.6.9-1.5 1.1-2.5.7.2-.1.6-.2 1.3-.3-.6 0-1.1 0-1.3.1.5-.6 1.8 0 2.5-.5zm-1.1 1.2c-.8.6-1.6.6-2.2.1.2-.8 1.1-.2 2.2-.1zm-2.1-1.5c.2.9.1 1.4-.2 1.5-.2-.3-.5-.4.2-1.5zm2.3-6.7c-.3-.3-.7-1.1-.7-2.6.6 1.4.8 2 .7 2.6zM-178.4 463.9c-.2-.1-.3-.2-.4-.4-.1 0-.2.1-.3.2-2.6.5-5.7-.3-9.1-2.4v.3c3.5 2.1 6.6 2.9 9.1 2.5.3-.1.6-.1.7-.2z"/><circle class="st10" cx="-196.2" cy="446.8" r="19.8"/><path class="st4" d="M-180.4 446.3c-.3-.3-.7-.3-1.1-.2 0-.3 0-.6.1-.8 0-.2-.4-.2-.5-.1-.2.1-.4.2-.5.4-.3 0-.5 0-.7.1-.7.3-1 1.1-1.1 1.8 0 .1-.1.3-.1.5-.1.3-.2.7-.4.8-.2.1-.3-.8-.3-.9 0-1 .2-1.9.4-2.8 0-.2-.2-.3-.4-.2-.2.1-.5.2-.6.4-.2.7-.3 1.4-.4 2.1l-.3.9c-.1 0-.1-.1-.2-.1-.5-.3-.3-1.2-.3-1.6.1-.6.2-1.2.5-1.8.1-.2 0-.3-.2-.3s-.5.2-.6.4c-.2.5-.3 1-.5 1.5-.1.5-.4 1-.6 1.3l-.1.1v-.1c-.1-.4-.1-.8 0-1.2 0-.6.1-1.2.2-1.8 0-.5-.4-.8-.9-.8s-1 .4-1.3.7c-.3.5-.5 1.2-.6 1.3-.1.5-.3 1-.6 1.4-.1 0-.1-.1-.1-.2-.1-.3-.2-.6-.2-.9-.1-.9-.1-1.7 0-2.6v-.1s-.1 0-.1-.1c-.2-.1-.5.1-.7.3-.5.6-.5 1.4-.6 2l-.3 1.2s0 .1-.1.2c-.1-.1-.2-.2-.2-.3 0-.2-.1-.2-.3-.2-.2.1-.5.3-.6.5-.2 0-.2-.2-.3-.3-.1-.3-.1-.6-.1-.9v-.6c0-.5.1-.9.1-1.4v-.4c0-.2-.3-.2-.4-.1-.2.1-.5.3-.5.6v1.6c0 .2 0 .4-.1.7 0 .3-.1.6-.2 1h-.2c-.5-.2-.5-1.1-.5-1.5 0-.6 0-1.3.2-1.8 0-.1.1-.2 0-.3s-.3 0-.4.1c-.1.1-.4.4-.6.5-.4.2-.8.1-1.1-.1-.1-.1-.2-.2-.4-.3-.4-.2-.8 0-1.1.3 0-.3-.1-.5-.2-.8-.1-.2-.5 0-.5.1-.2.1-.4.4-.3.6-.3.1-.5.3-.7.4-.6.6-.6 1.4-.6 2.1v.5c0 .1 0 .8-.2 1-.2.2-.6-.6-.6-.7-.3-.9-.3-1.9-.4-2.8 0-.2-.3-.1-.4 0-.2.1-.4.4-.4.6 0 .7.1 1.5.1 2.2 0 .3 0 .7-.1 1h-.2c-.5-.1-.6-1-.7-1.4-.1-.6-.1-1.3 0-1.9 0-.2-.1-.3-.3-.2s-.5.4-.5.6c-.1.8-.1 1.6.1 2.4.1.6.4 1.5 1.1 1.4.5-.1.8-.4 1.1-.8.1.1.1.2.2.3.4.5 1.1 0 1.5-.4 0-.1.1-.1.1-.2l.3.3c.2.2.5.2.8.1.1 0 .2-.1.3-.1 0 .9.1 1.8.1 2.7 0 .2.3.2.4.1.2-.1.4-.4.4-.6v-2.1c.3 0 .7-.2.9-.5.6-.6.7-1.5.6-2.3 0-.1 0-.3-.1-.4.3 0 .5-.2.8-.3-.1.6-.1 1.2-.1 1.8s.2 1.5.9 1.6c.4 0 .8-.2 1.1-.5.2.3.5.5.9.5.2 0 .3-.1.4-.2.3.3.8.3 1.2 0 .3-.3.5-.6.6-.9v.3c.1.3.1.6.3.9s.6.1.9 0c.2-.1.5-.3.6-.5.1.3.2.6.4.7.4.2.9 0 1.2-.2 0 .2.1.4.3.5.5.2 1-.2 1.3-.5.1.4.2.8.7.9.5.2.9 0 1.2-.3 0 .1.1.2.1.3.3.7 1 .4 1.4.2.1 0 .1-.1.2-.1 0 .1.1.3.2.4.1.3.4.4.7.5h.3c-.2.9-.4 1.7-.7 2.6-.1.2.2.3.3.2.2 0 .5-.2.5-.4.2-.7.4-1.3.6-2 .3.1.7.1 1-.1.7-.3 1-1.2 1.2-2-.1-1 .1-2-.4-2.5zm-20.8 1.3h-.1c-.2-.1-.3-.2-.4-.3-.3-.4-.3-.9-.4-1.4 0-.4 0-.8.1-1.2h.1c.3.2.5.6.6 1 .1.6.1 1.2.1 1.9.1 0 .1 0 0 0zm1.5-.2c0 .1 0 .1 0 0-.4.1-.6-.1-.6-.4 0-.7-.1-1.3-.2-2v-.5c.1 0 .2 0 .3.1l.1.1c.3.3.4.8.4 1.2.2.5.2 1 0 1.5zm10.4-2.2c-.1.8-.2 1.6-.5 2.4 0 0-.1.1-.1.2h-.1c-.2-.1-.2-.4-.3-.5-.1-.6 0-1.3.2-1.8.1-.2.2-.5.3-.5h.1c.3-.2.4 0 .4.2zm6.7 2.3l-.3 1.8-.1-.1c-.1-.1-.2-.3-.2-.5-.1-.5-.1-1 0-1.5.1-.4.2-.8.4-1.1 0 0 0 .1.1.1.1.5.2.9.1 1.3zm1.5.9c-.1.5-.2 1-.5 1.3-.3-.1-.4-.4-.4-.7.1-.6.3-1.3.4-2 0-.2.1-.3.2-.5.1 0 .2.2.3.3.1.6.1 1.2 0 1.6z"/><path class="st4" d="M-184.3 443.9c.1-.1.4-.3.3-.5-.1-.2-.5-.1-.6 0-.3.2-.6.3-1 0-.1-.1-.3-.2-.4-.3-.2-.3-1.1.2-.9.5.6 1 1.9.7 2.6.3zM-209.5 445.5c-.1-.4-.2-.7-.3-1.1.8-.2 1.5-.5 2.2-.8.2-.1.4-.4.5-.6 0-.2-.1-.3-.3-.2-1.3.6-2.8.9-4.1 1.4-.5.2-1.1.6-1.3 1.1-.3.6-.2 1.2.1 1.7.2.3.9-.6.7-.9l-.3-.6v-.1c.3-.3.8-.4 1.2-.5.1 0 .2-.1.3-.1.2.4.3.8.4 1.2-.5.3-.8.8-1.1 1.2-.5 1-.6 3.7 1.2 3.4 1.2-.2 1.3-1.6 1.2-2.6-.1-.5-.1-1.1-.2-1.6h.3c.7.1 1 .7 1.1 1.3.1.5 0 1.2-.4 1.6-.1.1-.3.5-.2.7.1.2.4-.1.5-.2.9-1 1.3-2.7.4-3.9-.4-.6-1.2-.6-1.9-.4zm-.4 4c-.3 0-.5-.1-.7-.2-.5-.4-.6-1.5-.2-2.2.2-.3.4-.4.7-.6.2.6.3 1.3.4 1.9 0 .3.1.6.1.9v.1c-.2.1-.3.1-.3.1z"/><g><path class="st4" d="M-191.3 455.6c-.2.3-.6-.5-.6-.6s-.1-.2-.1-.3c-.1-.2-.2-.5-.2-.7v-.1c-.1-.2-.3.2-.3.4.1.3.2.6.2 1 0 .2.1.3.1.5s0 .3-.2.2c-.5-.2-.5-1.3-.5-1.7 0-.3-.3.1-.3.2 0 .2 0 .9.2 1.4-.1.2-.3.4-.4.3-.1-.1-.1-.4-.2-.5-.1-.3-.3-.3-.6-.2 0-.1 0-.3.1-.4 0-.1.1-.2.3-.2.2.1.5-.4.3-.4-.4-.2-.7 0-.9.5 0-.3-.1-.5-.2-.8-.1-.2-.4.2-.4.4.2.5.2 1.1.2 1.7-.2.2-.5.5-.6.2-.1-.2-.1-.5-.1-.7v-.6-.2c-.1-.6-.7-.3-.9.1-.3.4-.4.9-.4 1.4-.3.1-.4.1-.5-.3-.1-.5 0-1.1.1-1.6 0-.3-.4 0-.4.1-.2.2-.3.5-.4.8-.1.2-.1.3-.2.5 0 .1-.1.2-.1.3-.1.2-.2 0-.2-.1s0-.1-.1-.1h-.1c-.2 0-.3.1-.5.1 0-.1-.1-.2-.2-.3.3-.3.5-.8.6-1.2 0-.3 0-.6-.3-.6-.4-.1-.8.3-1 .6-.1.2.5.1.5 0s.1-.4.2-.2c.1.1 0 .3 0 .4 0 .2-.2.7-.4.8h-.2c-.1 0-.3.1-.3.2-.1.1-.1.1 0 .1h.3s.2.1.2.3c-.5.2-1.1.4-1.4.9-.4.5.2 1 .8.9.7-.1 1-.8 1.1-1.4v-.2h.2c0 .4.6.4.9.2.1-.1.2-.2.2-.3 0 .2.1.3.1.4.2.3.7.2 1 0 .1.3.5.4.8.1l.1-.1c0 .1.1.2.1.2.2.2.7-.1 1-.4v.3c0 .3.5-.1.5-.3v-.7c.3 0 .2.8.5.8.3.1.6-.2.8-.5.1.2.3.3.6.2.2-.1.4-.3.5-.5.3.4.7 0 .9-.3.2-.3 0-.3-.2 0zm-8.5 1c-.1.4-.2.8-.6 1-.1.1-.2 0-.3-.1-.1-.2 0-.3.1-.4.2-.3.5-.5.8-.6v.1zm3.6-.1c-.1 0-.1-.1-.2-.2-.1-.2-.1-.5 0-.8 0-.1.1-.3.1-.4 0-.1.1-.1.1-.2.1-.1.2.1.2.2 0 .3 0 .7-.1 1 0 .2-.1.4-.1.4z"/></g><g><path class="st4" d="M-197.6 459.9c.1.8-.1 1.6-.2 2.4 0 .3.5 0 .5-.2.1-.4.1-.7.2-1.1.1-.2.2-.8.4-.5.1-.1.3-.2.4-.4-.8-.5-1.2.7-1.4 1.3 0 .1.1.1.2.1.5-.2.3.6.4.8.2.3.6 0 .8-.1.3-.2 0-.4-.2-.2s-.2-.3-.2-.3c0-.1 0-.3-.1-.4-.2-.3-.4-.2-.7-.1.1 0 .1.1.2.1.1-.2.1-.9.5-.7.2.1.5-.3.4-.4-1-.8-1.5 1.7-1.6 2.2.2-.1.3-.1.5-.2.1-.8.2-1.6.1-2.5.2-.3-.3 0-.2.2zM-188.6 458.5c-.3-.6-.8.1-1 .5-.2.6-.1 1.1.2 1.6.2.4.7.4 1-.2s-.1-1.3-.2-1.9c-.1.1-.2.3-.3.4.1.4.6 2.3 1.3 1.3.2-.2 0-.6-.2-.2-.1.1-.4-.4-.4-.4-.2-.4-.3-.8-.4-1.1-.1-.2-.4.3-.3.4.1.3.2.7.3 1 0 .1.1.4 0 .4s-.2 0-.2-.1c-.2-.2-.3-.4-.3-.7v-.4-.2c0-.2.3 0 .3 0-.1.2.2-.3.2-.4zM-201.7 461.1c-.1.5.4.8.9.6.5-.2.6-.6.7-1.1.1-.3.1-.9-.2-1.1-.1-.1-.4-.1-.6 0-.3.1-.5.4-.6.6s.5.1.5-.1c.1-.3.2-.3.3 0v.6s-.1.4-.2.6c0 .1-.1.1-.2.2l-.1-.1c-.2-.1-.2-.2-.2-.3.4-.2-.2-.1-.3.1z"/><path class="st4" d="M-201.2 459.1c-.2 1.3-.5 2.5-1 3.7-.1.2.5.1.6 0 .5-1.2.8-2.5 1-3.8-.1-.2-.6-.1-.6.1zM-195.8 460.3c.1.7 0 1.4 0 2 0 .2.5-.1.5-.2 0-.5 0-1 .1-1.4 0-.1 0-.1.1-.2v-.1c.1-.1 0-.1-.1 0 .1 0 .1.2.1.2.2.5.1 1.1.1 1.7.2-.1.3-.2.5-.3 0-.5 0-1 .1-1.5 0-.1 0-.2.1-.3-.1.2-.1.1 0 .2.1.2.1.5.1.7 0 .3-.1.8.2 1 .2.2.6-.1.7-.3.3-.3 0-.4-.2-.2-.1.1-.1-.2-.2-.3 0-.3-.1-.6-.1-.8 0-.2-.1-.8-.4-.8-.3 0-.5.5-.6.7-.2.5-.2 1.2-.2 1.7 0 .3.5-.1.5-.3 0-.4 0-.9-.1-1.3 0-.2-.1-.8-.3-.8-.3-.1-.5.3-.6.5-.2.6-.3 1.2-.3 1.9.2-.1.3-.2.5-.2 0-.7 0-1.4-.1-2 .1-.1-.4.2-.4.4z"/><path class="st4" d="M-192.5 459.6c-.5.2-.7.8-.7 1.3 0 .4.1 1.3.7 1.2.7-.1.8-.9.8-1.3s-.2-1.3-.8-1.2c-.2 0-.4.5-.2.5.3 0 .4.3.5.6.1.2.1.4.1.5v.2c0 .1-.1.2 0 .2-.3.2-.5-.4-.5-.5-.1-.2-.1-.4-.1-.5v-.3s.1-.1 0-.1c.2-.2.4-.7.2-.6zM-190.9 461.2c.8-.4.8-1.4.5-2-.1-.2-.3-.4-.6-.3-.5.2-.6.8-.5 1.2 0 .2.4-.2.4-.4 0-.1-.1-.4.1-.3.1.1.2.2.2.3.1.2.2.8 0 1-.1.1-.4.6-.1.5z"/><path class="st4" d="M-190.1 460.9c-.6.6-1.1 1.5-.9 2.2.2.6 1.1-.2 1.3-.5.3-.7.1-2.8-1.1-1.8-.2.2-.3.6 0 .4.6-.5.8.9.8 1.1 0 .2-.1.6-.4.5-.5-.2.1-1.2.4-1.5.1-.2.2-.7-.1-.4zM-202.6 459.3c.1-.5-.1-1.1-.7-.9-.4.1-.6.5-.8.8-.2.3-.3.8-.1 1.2.3.5 1 .2 1.2 0 .2-.2-.4-.2-.5-.1-.1.2-.2-.3-.2-.3 0-.2 0-.5.1-.7.1-.2.2-.4.3-.5l.1-.1s.1 0 0 .1c.1.2.1.5 0 .6 0 .2.6.1.6-.1z"/><path class="st4" d="M-203.5 460.3c-.1.5.4.8.9.7s.7-.6.8-1c.1-.3.2-.8-.1-1.2-.1-.2-.4-.1-.6-.1-.3.1-.5.3-.6.6-.1.2.5.2.5 0 .1-.3.2-.3.3 0v.6s-.1.4-.2.6c0 .1-.1.1-.2.2l-.1-.1c-.2-.1-.2-.2-.1-.4 0-.1-.5 0-.6.1z"/><path class="st4" d="M-202.9 458.4c-.3 1.3-.7 2.5-1.3 3.6-.1.2.5.2.6 0 .6-1.1 1-2.4 1.3-3.7 0-.2-.6-.1-.6.1zM-199.5 460c-.1.4-.8 2.1.1 2.2 1.1.1 1.2-1.6 1.4-2.2 0-.2-.4 0-.5.2-.1.4-.2.9-.4 1.3-.1.2-.1.5-.3.3-.2-.2 0-.7 0-.9.1-.3.2-.6.2-1 0-.3-.5-.1-.5.1z"/><path class="st4" d="M-198.5 460.2c-.1.9-.2 1.7-.3 2.6 0 .2-.1 1-.5.9-.7-.3.7-1.4.8-1.5.3-.2-.1-.3-.3-.1-.5.4-1.3.9-1.2 1.6 0 .3.5.5.8.4.6-.2.8-.7.9-1.2.2-.9.2-1.9.3-2.9 0-.2-.5 0-.5.2z"/></g><circle class="st8" cx="-212.1" cy="464.4" r="6.2"/><path class="st10" d="M-205.6 422.5c0 1.4-1.1 2.5-2.5 2.5s-2.5-1.1-2.5-2.5 1.1-2.5 2.5-2.5c1.3-.1 2.5 1.1 2.5 2.5z"/><path class="st8" d="M-205.5 431c0 1.8-1.5 3.3-3.3 3.3s-3.3-1.5-3.3-3.3c0-1.8 1.5-3.3 3.3-3.3 1.8.1 3.3 1.5 3.3 3.3zM-214.2 426c0 1.1-.9 1.9-1.9 1.9-1.1 0-1.9-.9-1.9-1.9 0-1.1.9-1.9 1.9-1.9 1 0 1.9.8 1.9 1.9z"/><g><circle class="st8" cx="-179.3" cy="428.7" r="10.9"/><path class="st4" d="M-182 427.1c-.9.1-1.2 1.2-1.2 1.9v.3c0 .4 0 .6-.1 1 0 .1-.1.4-.1.4-.3 0-.6-.5-.7-.7-.2-.6-.4-1.1-.5-1.7-.1-.6-.2-1.3-.2-1.9v-.8-.3-.2c.1-.5-.6 0-.7.2-.7 1.3-.5 2.8-.5 4.2 0 .4 0 .8-.1 1.1 0 .3-.1.7-.3.9-.1.1-.4 0-.5 0-.2-.1-.3-.3-.3-.5s-.3-.1-.4 0c-.2.2-.3.4-.3.6.1.5.5.9 1 .8.8-.2 1.2-1.2 1.4-2 .1-.4.1-.7.2-1.1.1.5.3 1.1.5 1.6.2.4.5.7 1 .6.3-.1.6-.4.7-.8.2.4.4.6.8.6.5 0 .8-.5 1-.9s.3-.9.3-1.4c.1-.6-.1-2-1-1.9zm.3 3.2c0 .1 0 .2-.1.3-.2 0-.3-.3-.4-.4-.1-.3-.2-.6-.2-1v-1c0-.1 0-.2.1-.3.5.3.5.9.6 1.4.1.3.1.6 0 1zM-171.1 428.4c-1-.4-1.5 1-1.7 1.7-.2.7-.4 1.9.5 2.2.4.2.9-.1 1.1-.4.3-.3.5-.8.6-1.2.2-.7.4-2-.5-2.3zm-.6 3.1c0 .1-.1.2-.1.2-.2-.1-.2-.4-.2-.5-.1-.3 0-.7 0-1 .1-.3.2-.7.3-1 0-.1.1-.1.1-.2.4.4.3 1 .2 1.5-.1.4-.2.7-.3 1zM-173.8 428.6c.2-.2.4-.5.5-.8.4-.5.7-1.2.7-1.9 0-.6-.9-.7-1.3-.5-.6.3-1 1-1.2 1.6-.2.8-.4 1.7-.4 2.6-.3.4-.9 1.1-1.4.8-.1-.1-.2-.2-.2-.4.4-.4.8-.9 1.1-1.3.3-.4.5-1.2-.1-1.5-.5-.3-1.1 0-1.4.4s-.5.9-.5 1.4c0 .3-.1.7 0 1.1-.3.2-.6.3-1 .2s-.5-.5-.6-.8c-.1-.4-.1-.9 0-1.4 0-.1.1-.3.1-.4v-.1c.2.1.3.5.4.6.1.3.9-.2.8-.5-.1-.3-.2-.6-.6-.8-.3-.2-.8.1-1 .3-.6.6-.7 1.5-.6 2.2 0 .5.1 1.1.6 1.4.6.4 1.4 0 2-.3.1.4.4.6.9.6.6-.1 1.1-.4 1.5-.8 0 .4.1.9.4 1.1.5.3 1.2 0 1.5-.5.4-.6.7-1.4.4-2.1 0-.1-.3-.2-.6-.2zm-3.3-.4c0-.1.1-.2.2-.4.2.1.3.4.3.5-.1.4-.3.7-.6 1v-.2c0-.2 0-.6.1-.9zm3.2-1.8c.1-.1.1-.3.2-.4.4.4 0 1-.2 1.4s-.4.8-.7 1.1c.1-.4.1-.8.2-1.1.2-.3.3-.7.5-1zm-.2 4.5s-.1.1-.1.2h-.1c-.2-.1-.3-.7-.3-.9v-.6l.3-.3c.2-.1.4.1.4.4.1.3-.1.8-.2 1.2z"/></g><g><path class="st4" d="M-216.4 463.4c.2-.6.7-.2.8.1.2.4 0 .9-.3 1.2-.2.3-.5.5-.8.7-.2.1-.3.2-.4.3 0 .1-.1.2 0 .2.2.2.7.2.9.2.5 0 1 0 1.4-.2.2-.1.5-.7 0-.5-.3.2-.7.1-1.1.1-.2 0-.6 0-.7-.1v.2c-.2.3-.1.2.1.1.1-.1.3-.2.4-.3.2-.2.4-.4.6-.7.4-.5.6-1 .5-1.6-.2-1.4-1.7-.4-2 .4-.1.5.5.1.6-.1zM-212.9 465.6c.5 1.5 2.7.5 2.4-.9-.2-.7-1-.6-1.5-.7-.3-.1-.3-.3-.3-.6.1-.3.1-.3-.1-.2.1 0 .2 0 .3-.1.5-.1 1-.1 1.4.1.2.1.7-.4.4-.5-.5-.3-1.2-.2-1.8-.1-.6.1-.7.6-.7 1.2s.6.7 1.1.8c.4.1.7.2.8.6.1.7-.7.6-1 .4-.2-.1-.2-.3-.3-.5-.2-.1-.8.3-.7.5zM-207.7 462.9c-.6 1.1-1.4 2-2.2 3-.3.4.2.4.4.1.8-1 1.6-2.1 2.3-3.2.3-.4-.3-.1-.5.1zM-208.8 462.6c-.4 0-.7.4-.7.7-.1.3.1.6.5.6.6.1 1-1.2.2-1.3-.2 0-.5.4-.2.4.2 0 .3.2.3.3v.2c0 .1 0 0 0 0h-.1c-.2 0-.3-.2-.3-.3v-.2h.1c.1 0 .4-.4.2-.4zM-207.7 464.9c-.4 0-.7.4-.7.7-.1.3.1.6.5.6.6.1 1-1.3.2-1.3-.2 0-.5.4-.2.4.2 0 .3.2.3.3v.2h-.1c-.2 0-.3-.2-.3-.3v-.2h.1c.1 0 .4-.4.2-.4zM-213.8 467c.3-.2.5-.6.5-1 0-.1 0-.3-.1-.3-.1-.1-.4 0-.5 0-.2.1-.3.3-.3.4 0 .2.2.1.3.1v.1c0 .1 0 .1-.1.2v.2c.1-.1 0 0 0 0-.1.1-.3.3-.1.4 0 .1.2 0 .3-.1z"/></g><g><path class="st9" d="M-220.3 438.4c-.1 0-.2-.2-.3-.2-.4-.2-.7.1-1.1.1-.9 0-1.3 0-2.4-.3 0-1 .6-1.6.8-2.3.2-.7-.1-1.5-.1-2.2v-1.4c-.3.3-.2 1.2-.2 1.6-.1-.6-.1-1.4-.3-1.9-.1.6 0 1.3 0 1.9-.2-.5-.2-1.2-.4-1.6-.3.5.2 1.3.1 1.8-.2-.5-.3-1-.5-1.5-.1.6.2 1.2.2 1.6-.2-.4-.3-.8-.6-1.1 0 .4.3.9.4 1.3-.3-.1-.4-.5-.6-.6 0 .3.3.5.4.8-.2-.1-.3-.3-.5-.4 0 .3.3.4.3.6-.1-.1-.3-.2-.4-.3 0 .2.3.4.3.5 0 0-.2-.1-.2 0 0 0 .2.1.1.2h-.2c0 .2.2.1.1.3-.1 0-.1-.1-.1 0s.1.1.1.2c-.8.8-.4 1.8-.5 2.7.1-.1-.7-.3-1.2-.5-.3-.1-.4-.5-.6-.6 0-.1.1 0 .1-.1-.1 0-.2-.1-.2-.2.1 0 .3.1.3 0-.1-.1-.5-.2-.5-.3.2 0 .4.1.5.1-.2-.1-.6-.3-.6-.5.2.1.5.3.7.2-.3-.2-.8-.4-.9-.7.2.1.6.4.8.4-.4-.1-.7-.6-1.1-.6.2.4.8.6.9.8-.3-.2-.6-.3-1-.5.1.4.6.5.9.7-.3 0-.5-.2-.8-.2.1.3.6.2.7.5-.1-.1-.3 0-.5 0 0 .2.4.2.5.3-.2 0-.3 0-.4.1.1.1.3.1.4.2-.1 0-.2 0-.2.1s.3 0 .3.1c-.1 0-.1.1-.1.1h.2c-.1 0-.1 0-.1.1.4.2.7.9 1.3 1.1-.3.2.3.4-3.5 1.8.1 0 1.7-.4 2.1-.5.5-.2.9-.3 1.4-.4.1 0 .2-.1.3-.1.8-.1 1.5.1 2.3-.4-.6.1-1.6.2-2-.1.5-.8.2-2.8.6-3.3.4-.4 1.1-1.7 1.9-.6.1.2.1.4-.1.9-.3.6-.6.8-.5 2.1 0 .2 0 .5-.4.5 1.6.3 2.1.2 3.1 0 .3 0 .8-.3.8 0 0 .1-.3.1-.6.1-.5 0 .2.2.4.2.1 0 1-.1 1.4-.2-.5-.3-.7-.3-1-.4z"/><path class="st9" d="M-225.1 429.9c-3.8 0-6.9 3.1-6.9 6.9s3.1 6.9 6.9 6.9c3.8 0 6.9-3.1 6.9-6.9-.1-3.8-3.1-6.9-6.9-6.9m0 .3c3.6 0 6.6 3 6.6 6.6s-3 6.6-6.6 6.6-6.6-3-6.6-6.6c-.1-3.7 2.9-6.6 6.6-6.6"/></g></g></g><g id="snow"><g id="sneg"><linearGradient id="SVGID_1_" gradientUnits="userSpaceOnUse" x1="-167.15" y1="506.33" x2="-151.162" y2="461.032" gradientTransform="matrix(1 0 0 -1 0 880.22)"><stop offset="0" stop-color="#404B71"/><stop offset=".604" stop-color="#3C476E"/><stop offset="1" stop-color="#354169"/></linearGradient><path class="st11" d="M-163.7 414.9l-1.7-6.4 1.6-2.7.2.8c.2.8 1.1 1.3 1.9 1.1.1 0 .3-.1.4-.2.6-.3.9-1.1.7-1.8l-1-3.9 1.9-3.3 1.9 3.3-1 3.9c-.2.8.3 1.7 1.1 1.9.4.1.9 0 1.2-.2.4-.2.6-.5.7-1l.2-.8 1.6 2.7-1.7 6.4c-.2.8.3 1.7 1.1 1.9.4.1.9 0 1.2-.2.4-.2.6-.5.7-1l.9-3.3 2.5 4.4c.4.8 1.4 1 2.2.6.8-.4 1-1.4.6-2.2l-2.5-4.4 3.3.9c.4.1.9 0 1.2-.2.4-.2.6-.5.7-1 .2-.8-.3-1.7-1.1-1.9l-6.4-1.7-1.6-2.7.8.2c.4.1.9 0 1.2-.2.4-.2.6-.5.7-1 .2-.8-.3-1.7-1.1-1.9l-3.8-1-1.9-3.3h3.8l2.8 2.8c.5.5 1.3.6 1.9.3l.3-.3c.6-.6.6-1.6 0-2.2l-.6-.6h3.1l4.7 4.7c.5.5 1.3.6 1.9.3l.3-.3c.6-.6.6-1.6 0-2.2l-2.4-2.4h5c.3 0 .6-.1.8-.2.5-.3.8-.8.8-1.4 0-.9-.7-1.6-1.6-1.6h-5l2.4-2.4c.6-.6.6-1.6 0-2.2s-1.6-.6-2.2 0l-4.7 4.7h-3.1l.6-.6c.6-.6.6-1.6 0-2.2s-1.6-.6-2.2 0l-2.8 2.8h-3.8l1.9-3.3 3.9-1c.1 0 .3-.1.4-.2.6-.3.9-1.1.7-1.8-.2-.8-1.1-1.3-1.9-1.1l-.8.2 1.6-2.7 6.4-1.7c.1 0 .3-.1.4-.2.6-.4.9-1.1.7-1.8-.2-.8-1.1-1.3-1.9-1.1l-3.3.9 2.5-4.4c.4-.8.2-1.7-.6-2.2-.8-.4-1.7-.2-2.2.6l-2.5 4.4-.9-3.3c-.2-.8-1.1-1.3-1.9-1.1-.8.2-1.4 1.1-1.1 1.9l1.7 6.4-1.6 2.7-.2-.8c-.2-.8-1.1-1.3-1.9-1.1s-1.3 1.1-1.1 1.9l1 3.9-1.9 3.3-1.9-3.3 1-3.9c.2-.8-.3-1.7-1.1-1.9-.8-.2-1.7.3-1.9 1.1l-.2.8-1.6-2.7 1.7-6.4c.2-.8-.3-1.7-1.1-1.9-.8-.2-1.7.3-1.9 1.1l-.9 3.3-2.5-4.4c-.4-.8-1.4-1-2.2-.6-.8.4-1 1.4-.6 2.2l2.5 4.4-3.3-.9c-.8-.2-1.7.3-1.9 1.1-.2.8.3 1.7 1.1 1.9l6.4 1.7 1.6 2.7-.8-.2c-.8-.2-1.7.3-1.9 1.1-.2.8.3 1.7 1.1 1.9l3.8 1 1.9 3.3h-3.8l-2.8-2.8c-.6-.6-1.6-.6-2.2 0-.6.6-.6 1.6 0 2.2l.6.6h-3.1l-4.7-4.7c-.6-.6-1.6-.6-2.2 0-.6.6-.6 1.6 0 2.2l2.4 2.4h-5c-.9 0-1.6.7-1.6 1.6s.7 1.6 1.6 1.6h5l-2.4 2.4c-.6.6-.6 1.6 0 2.2.5.5 1.3.6 1.9.3l.3-.3 4.7-4.7h3.1l-.6.6c-.6.6-.6 1.6 0 2.2.5.5 1.3.6 1.9.3l.3-.3 2.8-2.8h3.8l-1.9 3.3-3.9 1c-.8.2-1.3 1.1-1.1 1.9.2.8 1.1 1.3 1.9 1.1l.8-.2-1.6 2.7-6.4 1.7c-.8.2-1.3 1.1-1.1 1.9.2.8 1.1 1.3 1.9 1.1l3.3-.9-2.5 4.4c-.4.8-.2 1.7.6 2.2.5.3 1.1.3 1.6 0 .2-.1.4-.3.6-.6l2.5-4.4.9 3.3c.2.8 1.1 1.3 1.9 1.1.1 0 .3-.1.4-.2.5.4.8-.3.7-1z"/><linearGradient id="SVGID_2_" gradientUnits="userSpaceOnUse" x1="-286.232" y1="442.347" x2="-281.399" y2="428.651" gradientTransform="matrix(1 0 0 -1 0 880.22)"><stop offset="0" stop-color="#404B71"/><stop offset=".604" stop-color="#3C476E"/><stop offset="1" stop-color="#354169"/></linearGradient><path class="st12" d="M-284.9 450.1l-.5-1.9.5-.8.1.2c.1.3.3.4.6.3h.1c.2-.1.3-.3.2-.5l-.3-1.2.6-1 .6 1-.3 1.2c-.1.3.1.5.3.6h.4c.1-.1.2-.2.2-.3l.1-.2.5.8-.5 1.9c-.1.3.1.5.3.6h.4c.1-.1.2-.2.2-.3l.3-1 .8 1.3c.1.2.4.3.7.2.2-.1.3-.4.2-.7l-.8-1.3 1 .3h.4c.1-.1.2-.2.2-.3.1-.3-.1-.5-.3-.6l-1.9-.5-.5-.8.2.1h.4c.1-.1.2-.2.2-.3.1-.3-.1-.5-.3-.6l-1.2-.3-.6-1h1.2l.9.9c.2.2.4.2.6.1 0 0 .1 0 .1-.1.2-.2.2-.5 0-.7l-.2-.2h.9l1.4 1.4c.2.2.4.2.6.1 0 0 .1 0 .1-.1.2-.2.2-.5 0-.7l-1-1h1.5c.1 0 .2 0 .2-.1.1-.1.2-.2.2-.4 0-.3-.2-.5-.5-.5h-1.4l.7-.7c.2-.2.2-.5 0-.7-.2-.2-.5-.2-.7 0l-1.4 1.4h-.9l.2-.2c.2-.2.2-.5 0-.7-.2-.2-.5-.2-.7 0l-.9.9h-1.2l.6-1 1.2-.3h.1c.2-.1.3-.3.2-.5-.1-.3-.3-.4-.6-.3l-.2.1.5-.8 1.9-.5h.1c.2-.1.3-.3.2-.5-.1-.3-.3-.4-.6-.3l-1 .3.8-1.3c.1-.2.1-.5-.2-.7-.2-.1-.5-.1-.7.2l-.8 1.3-.3-1c-.1-.3-.3-.4-.6-.3-.3.1-.4.3-.3.6l.5 1.9-.5.8-.1-.2c-.1-.3-.3-.4-.6-.3-.3.1-.4.3-.3.6l.3 1.2-.6 1-.6-1 .3-1.2c.1-.3-.1-.5-.3-.6-.3-.1-.5.1-.6.3l-.1.2-.5-.8.5-1.9c.1-.3-.1-.5-.3-.6-.3-.1-.5.1-.6.3l-.3 1-.8-1.3c-.1-.2-.4-.3-.7-.2-.2.1-.3.4-.2.7l.8 1.3-1-.3c-.3-.1-.5.1-.6.3-.1.3.1.5.3.6l1.9.5.5.8-.2-.1c-.3-.1-.5.1-.6.3-.1.3.1.5.3.6l1.2.3.6 1h-1.2l-.9-.9c-.2-.2-.5-.2-.7 0-.2.2-.2.5 0 .7l.2.2h-.9l-1.4-1.4c-.2-.2-.5-.2-.7 0-.2.2-.2.5 0 .7l.7.7h-1.5c-.3 0-.5.2-.5.5s.2.5.5.5h1.5l-.7.7c-.2.2-.2.5 0 .7.2.2.4.2.6.1 0 0 .1 0 .1-.1l1.4-1.4h.9l-.2.2c-.2.2-.2.5 0 .7.2.2.4.2.6.1 0 0 .1 0 .1-.1l.9-.9h1.2l-.6 1-1.2.3c-.3.1-.4.3-.3.6.1.3.3.4.6.3l.2-.1-.5.8-1.9.5c-.3.1-.4.3-.3.6.1.3.3.4.6.3l1-.3-.8 1.3c-.1.2-.1.5.2.7.2.1.3.1.5 0 .1 0 .1-.1.2-.2l.8-1.3.3 1c.1.3.3.4.6.3h.1c.5-.2.6-.4.5-.6z"/><linearGradient id="SVGID_3_" gradientUnits="userSpaceOnUse" x1="-350.992" y1="417.832" x2="-340.572" y2="388.308" gradientTransform="matrix(1 0 0 -1 0 880.22)"><stop offset="0" stop-color="#404B71"/><stop offset=".604" stop-color="#3C476E"/><stop offset="1" stop-color="#354169"/></linearGradient><path class="st13" d="M-348.5 489l-1.1-4.2 1-1.8.1.5c.1.6.7.9 1.3.7.1 0 .2-.1.2-.1.4-.2.6-.7.5-1.2l-.7-2.5 1.2-2.2 1.2 2.2-.7 2.5c-.1.6.2 1.1.7 1.3.3.1.6 0 .8-.1s.4-.4.5-.6l.1-.5 1 1.8-1.1 4.2c-.1.6.2 1.1.7 1.3.3.1.6 0 .8-.1s.4-.4.5-.6l.6-2.2 1.6 2.8c.3.5.9.7 1.4.4.5-.3.7-.9.4-1.4l-1.6-2.8 2.2.6c.3.1.6 0 .8-.1.2-.1.4-.4.5-.6.1-.6-.2-1.1-.7-1.3l-4.2-1.1-1-1.8.5.1c.3.1.6 0 .8-.1.2-.1.4-.4.5-.6.1-.6-.2-1.1-.7-1.3l-2.5-.7-1.2-2.2h2.5l1.8 1.8c.3.3.9.4 1.2.2.1 0 .1-.1.2-.2.4-.4.4-1.1 0-1.5l-.4-.4h2l3 3c.3.3.9.4 1.2.2.1 0 .1-.1.2-.2.4-.4.4-1.1 0-1.5l-1.6-1.6h3.3c.2 0 .4 0 .5-.1.3-.2.5-.5.5-.9 0-.6-.5-1-1-1h-3.3l1.6-1.6c.4-.4.4-1.1 0-1.5s-1.1-.4-1.5 0l-3 3h-2l.4-.4c.4-.4.4-1.1 0-1.5-.4-.4-1.1-.4-1.5 0l-1.8 1.8h-2.5l1.2-2.2 2.5-.7c.1 0 .2-.1.2-.1.4-.2.6-.7.5-1.2-.1-.6-.7-.9-1.3-.7l-.5.1 1-1.8 4.2-1.1c.1 0 .2-.1.2-.1.4-.2.6-.7.5-1.2-.1-.6-.7-.9-1.3-.7l-2.2.6 1.6-2.8c.3-.5.1-1.1-.4-1.4-.5-.3-1.1-.1-1.4.4l-1.6 2.8-.6-2.2c-.1-.6-.7-.9-1.3-.7-.5.1-.9.7-.7 1.3l1.1 4.2-1 1.8-.1-.5c-.1-.6-.7-.9-1.3-.7-.6.2-.9.7-.7 1.3l.7 2.5-1.2 2.2-1.2-2.2.7-2.5c.1-.6-.2-1.1-.7-1.3-.6-.1-1.1.2-1.3.7l-.1.5-1-1.8 1.1-4.2c.1-.6-.2-1.1-.7-1.3-.6-.1-1.1.2-1.3.7l-.6 2.2-1.6-2.8c-.3-.5-.9-.7-1.4-.4-.5.3-.7.9-.4 1.4l1.6 2.8-1.9-.1c-.6-.1-1.1.2-1.3.7-.1.6.2 1.1.7 1.3l4.2 1.1 1 1.8-.5-.1c-.6-.1-1.1.2-1.3.7-.1.6.2 1.1.7 1.3l2.5.7 1.2 2.2h-2.5l-1.8-1.8c-.4-.4-1.1-.4-1.5 0-.4.4-.4 1.1 0 1.5l.4.4h-2l-3-3c-.4-.4-1.1-.4-1.5 0-.4.4-.4 1.1 0 1.5l1.6 1.6h-3.3c-.6 0-1 .5-1 1 0 .6.5 1 1 1h3.3l-1.6 1.6c-.4.4-.4 1.1 0 1.5.3.3.9.4 1.2.2.1 0 .1-.1.2-.2l3-3h2l-.4.4c-.4.4-.4 1.1 0 1.5.3.3.9.4 1.2.2.1 0 .2-.1.2-.2l1.8-1.8h2.5l-1.2 2.2-2.5.7c-.5.2-.9.7-.7 1.3.1.6.7.9 1.3.7l.5-.1-1 1.8-4.2 1.1c-.5.2-.9.7-.7 1.3.1.6.7.9 1.3.7l2.2-.6-1.6 2.8c-.3.5-.1 1.1.4 1.4.3.2.7.2 1 0 .2-.1.3-.2.4-.4l1.6-2.8.6 2.2c.1.6.7.9 1.3.7.1 0 .2-.1.3-.1.4-.8.6-1.3.5-1.7z"/><linearGradient id="SVGID_4_" gradientUnits="userSpaceOnUse" x1="-233.725" y1="415.52" x2="-204.626" y2="347.417" gradientTransform="matrix(1 0 0 -1 0 880.22)"><stop offset="0" stop-color="#404B71"/><stop offset=".604" stop-color="#3C476E"/><stop offset="1" stop-color="#354169"/></linearGradient><path class="st14" d="M-186.3 495.2h-6.3l3-3c.8-.8.8-2 0-2.8-.8-.8-2-.8-2.8 0l-5.9 5.9h-3.9l1.7-1.7c.8-.8.8-2 0-2.8-.8-.8-2-.8-2.8 0l-4.6 4.6h-3.8l.1-.1c.8-.8.8-2 .1-2.7-.3-1-1.4-1.6-2.4-1.3h-.2l1.9-3.3 6.2-1.7c.2 0 .3-.1.5-.2.8-.4 1.2-1.4.9-2.2-.3-1.1-1.4-1.7-2.4-1.4l-2.4.6 2-3.4 8-2.1c.2 0 .3-.1.5-.2.8-.4 1.2-1.4.9-2.2-.3-1.1-1.4-1.7-2.4-1.4l-4.2 1.1 3.2-5.5c.6-1 .2-2.2-.7-2.7-1-.5-2.2-.2-2.7.7l-3.2 5.5-1.1-4.2c-.3-1.1-1.4-1.7-2.4-1.4-1.1.3-1.7 1.4-1.4 2.4l2.1 8-2 3.4-.6-2.4c-.3-1.1-1.4-1.7-2.4-1.4-1.1.3-1.7 1.4-1.4 2.4l1.7 6.2-1.9 3.3v-.2c-.3-1-1.3-1.7-2.4-1.4-1-.2-2.1.4-2.3 1.4v.2l-1.9-3.3 1.7-6.2c.3-1.1-.3-2.2-1.4-2.4-1.1-.3-2.2.3-2.4 1.4l-.6 2.4-2-3.4 2.1-8c.3-1.1-.3-2.2-1.4-2.4-1.1-.3-2.2.3-2.4 1.4l-1.1 4.2-3.2-5.5c-.5-1-1.8-1.3-2.7-.7-1 .5-1.3 1.8-.7 2.7l3.2 5.5-4.2-1.1c-1.1-.3-2.2.3-2.4 1.4-.3 1.1.3 2.2 1.4 2.4l8 2.1 2 3.4-2.4-.6c-1.1-.3-2.2.3-2.4 1.4-.3 1.1.3 2.2 1.4 2.4l6.2 1.7 1.9 3.3h-.2c-1-.3-2 .3-2.4 1.3-.8.8-.8 2 0 2.8l.1.1h-3.8l-4.6-4.6c-.8-.8-2-.8-2.8 0-.8.8-.8 2 0 2.8l1.7 1.7h-3.9l-5.9-5.9c-.8-.8-2-.8-2.8 0-.8.8-.8 2 0 2.8l3 3h-6.3c-1.1 0-2 .9-2 2s.9 2 2 2h6.3l-3 3c-.8.8-.8 2 0 2.8.7.7 1.6.8 2.4.3.1-.1.3-.2.4-.3l5.9-5.9h3.9l-1.7 1.7c-.8.8-.8 2 0 2.8.7.7 1.6.8 2.4.3.1-.1.3-.2.4-.3l4.6-4.6h3.8l-.1.1c-.8.8-.8 2-.1 2.7.3 1 1.4 1.6 2.4 1.3h.2l-1.9 3.3-6.2 1.7c-1.1.3-1.7 1.4-1.4 2.4.3 1.1 1.4 1.7 2.4 1.4l2.4-.6-2 3.4-8 2.1c-1.1.3-1.7 1.4-1.4 2.4.3 1.1 1.4 1.7 2.4 1.4l4.2-1.1-3.2 5.5c-.5 1-.2 2.2.7 2.7.6.4 1.4.3 2 0 .3-.2.5-.4.7-.7l3.2-5.5 1.1 4.2c.3 1.1 1.4 1.7 2.4 1.4.2 0 .3-.1.5-.2.8-.4 1.2-1.3.9-2.2l-2.1-8 2-3.4.6 2.4c.3 1.1 1.4 1.7 2.4 1.4.2 0 .3-.1.5-.2.8-.4 1.2-1.3.9-2.2l-1.7-6.2 1.9-3.3v.2c.3 1 1.3 1.7 2.4 1.4.5.1 1 0 1.4-.2.4-.3.8-.7.9-1.2v-.2l1.9 3.3-1.7 6.2c-.3 1.1.3 2.2 1.4 2.4.5.1 1.1.1 1.5-.2s.8-.7.9-1.2l.6-2.4 2 3.4-2.1 8c-.3 1.1.3 2.2 1.4 2.4.5.1 1.1.1 1.5-.2s.8-.7.9-1.2l1.1-4.2 3.2 5.5c.5 1 1.8 1.3 2.7.7 1-.6 1.3-1.8.7-2.7l-3.2-5.5 4.2 1.1c.5.1 1.1.1 1.5-.2s.8-.7.9-1.2c.3-1.1-.3-2.2-1.4-2.4l-8-2.1-2-3.4 2.4.6c.5.1 1.1.1 1.5-.2.4-.3.8-.7.9-1.2.3-1.1-.3-2.2-1.4-2.4l-6.2-1.7-1.9-3.3h.2c.5.1 1.1.1 1.5-.2.4-.2.7-.6.9-1.1.8-.8.8-2 0-2.8l-.1-.1h3.8l4.6 4.6c.7.7 1.6.8 2.4.3.1-.1.3-.2.4-.3.8-.8.8-2 0-2.8l-1.7-1.7h3.9l5.9 5.9c.7.7 1.6.8 2.4.3.1-.1.3-.2.4-.3.8-.8.8-2 0-2.8l-3-3h6.3c.4 0 .7-.1 1-.3.6-.3 1-1 1-1.7 0-1.1-.9-2-2-2zm-32.3 4.2c-1.2.7-2.8.3-3.5-.9-.7-1.2-.3-2.8.9-3.5 1.2-.7 2.8-.3 3.5.9.7 1.2.3 2.8-.9 3.5z"/><linearGradient id="SVGID_5_" gradientUnits="userSpaceOnUse" x1="-274.398" y1="499.85" x2="-262.376" y2="471.707" gradientTransform="matrix(1 0 0 -1 0 880.22)"><stop offset="0" stop-color="#404B71"/><stop offset=".604" stop-color="#3C476E"/><stop offset="1" stop-color="#354169"/></linearGradient><path class="st15" d="M-252.8 394.7h-1l.4-.5c.2-.3.1-.8-.2-1-.3-.2-.8-.1-1 .2l-.9 1.3h-1.5l2-2.8c.2-.3.1-.8-.2-1-.3-.2-.8-.1-1 .2l-2.6 3.7h-1.3l1.2-1.7c.2-.3.1-.8-.2-1-.3-.2-.8-.1-1 .2l-1.7 2.5h-.9l.4-.5c.2-.3.1-.8-.2-1-.3-.2-.8-.1-1 .2l-.9 1.3h-.3l-.8-1.5.2-.3 1.6-.1c.4 0 .7-.4.7-.8s-.4-.7-.8-.7l-.6.1.4-.8 3-.3c.4 0 .7-.4.7-.8s-.4-.7-.8-.7l-2 .2.7-1.1 4.5-.4c.4 0 .7-.4.7-.8s-.4-.7-.8-.7l-3.4.3.7-1.3 1.6-.1c.4 0 .7-.4.7-.8s-.4-.7-.8-.7l-.6.1.5-.9c.2-.3.1-.8-.3-1-.3-.2-.8-.1-1 .3l-.5.9-.3-.6c-.2-.4-.6-.5-1-.4-.4.2-.5.6-.4 1l.7 1.5-.7 1.3-1.5-3.1c-.2-.4-.6-.5-1-.3s-.5.6-.4 1l1.9 4.1-.7 1.1-.9-1.8c-.2-.4-.6-.5-1-.4-.4.2-.5.6-.4 1l1.3 2.8-.5.6-.3-.6c-.2-.4-.6-.5-1-.3s-.5.6-.4 1l.7 1.5-.2.3h-1.7l-.2-.3.7-1.5c.2-.4 0-.8-.4-1-.4-.2-.8 0-1 .3l-.3.6-.4-.8 1.3-2.8c.2-.4 0-.8-.4-1-.4-.2-.8 0-1 .3l-.9 1.8-.7-1.1 1.9-4.1c.2-.4 0-.8-.4-1-.4-.2-.8 0-1 .4l-1.5 3.1-.7-1.3.7-1.5c.2-.4 0-.8-.4-1-.4-.2-.8 0-1 .4l-.3.6-.5-.9c-.2-.3-.6-.5-1-.3-.3.2-.5.6-.3 1l.5.9-.6-.1c-.4 0-.8.3-.8.7s.3.8.7.8l1.6.1.7 1.3-3.4-.3c-.4 0-.8.3-.8.7 0 .4.3.8.7.8l4.5.4.7 1.1-2-.2c-.4 0-.8.3-.8.7s.3.8.7.8l3 .3.4.8-.6-.1c-.4 0-.8.3-.8.7s.3.8.7.8l1.6.1.2.3-.8 1.5h-.3l-.9-1.3c-.2-.3-.7-.4-1-.2-.3.2-.4.7-.2 1l.4.5h-.9l-1.7-2.5c-.2-.3-.7-.4-1-.2-.3.2-.4.7-.2 1l1.2 1.7h-1.3l-2.6-3.7c-.2-.3-.7-.4-1-.2-.3.2-.4.7-.2 1l2 2.8h-1.5l-.9-1.3c-.2-.3-.7-.4-1-.2-.3.2-.4.7-.2 1l.4.5h-1c-.4 0-.7.3-.7.7s.3.7.7.7h1l-.4.5c-.2.3-.1.8.2 1 .1.1.3.1.4.1.2 0 .5-.1.6-.3l.9-1.3h1.5l-2 2.8c-.2.3-.1.8.2 1 .1.1.3.1.4.1.2 0 .5-.1.6-.3l2.6-3.7h1.3l-1.2 1.7c-.2.3-.1.8.2 1 .1.1.3.1.4.1.2 0 .5-.1.6-.3l1.7-2.5h.9l-.4.5c-.2.3-.1.8.2 1 .1.1.3.1.4.1.2 0 .5-.1.6-.3l.9-1.3h.3l.8 1.5-.2.3-1.6.1c-.4 0-.7.4-.7.8s.4.7.7.7h.1l.6-.1-.4.8-3 .3c-.4 0-.7.4-.7.8s.4.7.7.7h.1l2-.2-.7 1.1-4.5.4c-.4 0-.7.4-.7.8s.4.7.7.7h.1l3.4-.3-.7 1.3-1.6.1c-.4 0-.7.4-.7.8s.4.7.7.7h.1l.6-.1-.5.9c-.2.3-.1.8.3 1 .1.1.2.1.4.1.3 0 .5-.1.6-.4l.5-.9.3.6c.1.3.4.4.7.4.1 0 .2 0 .3-.1.4-.2.5-.6.4-1l-.7-1.5.7-1.3 1.5 3.1c.1.3.4.4.7.4.1 0 .2 0 .3-.1.4-.2.5-.6.4-1l-1.9-4.1.7-1.1.9 1.8c.1.3.4.4.7.4.1 0 .2 0 .3-.1.4-.2.5-.6.4-1l-1.3-2.8.4-.8.3.6c.1.3.4.4.7.4.1 0 .2 0 .3-.1.4-.2.5-.6.4-1l-.7-1.5.2-.3h1.7l.2.3-.7 1.5c-.2.4 0 .8.4 1 .1 0 .2.1.3.1.3 0 .5-.2.7-.4l.3-.6.4.8-1.3 2.8c-.2.4 0 .8.4 1 .1 0 .2.1.3.1.3 0 .5-.2.7-.4l.9-1.8.7 1.1-1.9 4.1c-.2.4 0 .8.4 1 .1 0 .2.1.3.1.3 0 .5-.2.7-.4l1.5-3.1.7 1.3-.7 1.5c-.2.4 0 .8.4 1 .1 0 .2.1.3.1.3 0 .5-.2.7-.4l.3-.6.5.9c.1.2.4.4.6.4.1 0 .2 0 .4-.1.3-.2.5-.6.3-1l-.5-.9.6.1h.1c.4 0 .7-.3.7-.7s-.3-.8-.7-.8l-1.6-.1-.7-1.3 3.4.3h.1c.4 0 .7-.3.7-.7s-.3-.8-.7-.8l-4.5-.4-.7-1.1 2 .2h.1c.4 0 .7-.3.7-.7s-.3-.8-.7-.8l-3-.3-.4-.8.6.1h.1c.4 0 .7-.3.7-.7 0-.4-.3-.8-.7-.8l-1.6-.1-.2-.3.8-1.5h.3l.9 1.3c.1.2.4.3.6.3.1 0 .3 0 .4-.1.3-.2.4-.7.2-1l-.4-.5h.9l1.7 2.5c.1.2.4.3.6.3.1 0 .3 0 .4-.1.3-.2.4-.7.2-1l-1.2-1.7h1.3l2.6 3.7c.1.2.4.3.6.3.1 0 .3 0 .4-.1.3-.2.4-.7.2-1l-2-2.8h1.5l.9 1.3c.1.2.4.3.6.3.1 0 .3 0 .4-.1.3-.2.4-.7.2-1l-.4-.5h1c.4 0 .7-.3.7-.7.1-.2-.2-.5-.6-.5zm-15.9 2.1l-.8-1.5.8-1.5h1.7l.8 1.5-.8 1.5h-1.7z"/><circle class="st4" cx="-240.1" cy="376.7" r="3.4"/><circle class="st4" cx="-365.8" cy="441" r="3.4"/><circle class="st4" cx="-360.8" cy="454" r="1.5"/><circle class="st4" cx="-372.7" cy="461.9" r="1.5"/><circle class="st4" cx="-252.1" cy="373.3" r="1.5"/><circle class="st4" cx="-224.5" cy="409.2" r="3.8"/><circle class="st4" cx="-195.6" cy="532.9" r="3.8"/><circle class="st4" cx="-203.6" cy="419" r="2.8"/><circle class="st4" cx="-209" cy="427.5" r="1.5"/><circle class="st4" cx="-235.2" cy="417.5" r="1.5"/><circle class="st4" cx="-155.7" cy="441" r="1.5"/><circle class="st4" cx="-186.5" cy="419" r="1.5"/><circle class="st4" cx="-192.5" cy="430.5" r="1.5"/><circle class="st4" cx="-194.1" cy="418.9" r="1.5"/><circle class="st4" cx="-186.5" cy="409.2" r="1.5"/><circle class="st4" cx="-146.3" cy="420.5" r="1.5"/><circle class="st4" cx="-141.8" cy="414.5" r="1.5"/><circle class="st4" cx="-189.5" cy="524.4" r="1.5"/><circle class="st4" cx="-178.2" cy="522.9" r="1.5"/><circle class="st4" cx="-185" cy="531.4" r="1.5"/><circle class="st4" cx="-217" cy="407.6" r="1.5"/><circle class="st4" cx="-210.5" cy="414.5" r="1.5"/></g></g></svg>