<svg xmlns="http://www.w3.org/2000/svg" viewBox="0 0 325.5 298.5"><style>.st0{fill:#519E38;} .st1{fill:#F4F4F4;} .st2{fill:#D6D6D6;} .st3{fill:#EAEAEA;} .st4{fill:#FFFFFF;} .st5{fill-rule:evenodd;clip-rule:evenodd;fill:#904720;} .st6{fill-rule:evenodd;clip-rule:evenodd;fill:#EDA820;} .st7{fill:#E90E8A;} .st8{fill:#62BA47;} .st9{fill-rule:evenodd;clip-rule:evenodd;fill:#E90E8A;} .st10{fill-rule:evenodd;clip-rule:evenodd;fill:#62BA47;} .st11{fill:#62BA46;} .st12{fill:#F5A3BD;} .st13{fill-rule:evenodd;clip-rule:evenodd;fill:#F5A3BD;}</style><g id="butylka_2"><path class="st0" d="M151.3 239.8v-97.4C151.3 108.1 137 95 137 95c3.8-21.2-6.4-27.6-6.4-27.6v-7.7h2.2V48.8c0-2.7-3.8-2.4-3.8-2.4H99.7s-3.8-.3-3.8 2.4v10.9h2.3v7.7h-.1S87.9 73.8 91.7 95c0 0-14.2 13.1-14.2 47.4v97.4s-1.5 20.9 14 20.9H137.3c15.4 0 14-20.9 14-20.9z"/><path class="st1" d="M143.8 234.9v-97.4c0-34.3-14.2-47.4-14.2-47.4 3.8-21.2-6.4-27.6-6.4-27.6v-7.8H90.9v7.8h-.1s-10.2 6.4-6.4 27.6c0 0-14.2 13.1-14.2 47.4v97.4s-1.5 20.9 14 20.9H130c15.2 0 13.8-20.9 13.8-20.9z"/><path class="st2" d="M121.5 41.5H92.2s-3.8-.3-3.8 2.4v10.9h36.7V43.9c.2-2.7-3.6-2.4-3.6-2.4z"/><path class="st3" d="M143.7 234.9v-97.4c0-34.3-14.2-47.4-14.2-47.4 3.8-21.2-6.4-27.6-6.4-27.6v-7.8h-16.2v201.2h22.9c15.4-.1 13.9-21 13.9-21z"/><path class="st4" d="M82.1 126.2h-.5c-2.2-.3-3.8-2.3-3.5-4.6 1.8-14.1 8.6-22.6 8.9-23 1.4-1.8 4-2 5.7-.6 1.7 1.4 2 4 .6 5.7-.1.1-5.7 7.3-7.2 18.9-.2 2.1-2 3.6-4 3.6z"/><g><path class="st0" d="M275.9 239.8v-97.4c0-34.3-14.2-47.4-14.2-47.4 3.8-21.2-6.4-27.6-6.4-27.6v-7.7h2.2V48.8c0-2.7-3.8-2.4-3.8-2.4h-29.3s-3.8-.3-3.8 2.4v10.9h2.3v7.7h-.1s-10.2 6.4-6.4 27.6c0 0-14.2 13.1-14.2 47.4v97.4s-1.5 20.9 14 20.9H262c15.4 0 13.9-20.9 13.9-20.9z"/><path class="st1" d="M268.5 234.9v-97.4c0-34.3-14.2-47.4-14.2-47.4 3.8-21.2-6.4-27.6-6.4-27.6v-7.8h-32.3v7.8h-.1s-10.2 6.4-6.4 27.6c0 0-14.2 13.1-14.2 47.4v97.4s-1.5 20.9 14 20.9H254.7c15.2 0 13.8-20.9 13.8-20.9z"/><path class="st2" d="M246.2 41.5H217s-3.8-.3-3.8 2.4v10.9H250V43.9c0-2.7-3.8-2.4-3.8-2.4z"/><path class="st3" d="M268.4 234.9v-97.4c0-34.3-14.2-47.4-14.2-47.4 3.8-21.2-6.4-27.6-6.4-27.6v-7.8h-16.2v201.2h22.9c15.3-.1 13.9-21 13.9-21z"/><path class="st4" d="M206.8 126.2h-.5c-2.2-.3-3.8-2.3-3.5-4.6 1.8-14.1 8.6-22.6 8.9-23 1.4-1.8 4-2 5.7-.6 1.7 1.4 2 4 .6 5.7-.1.1-5.7 7.3-7.2 18.9-.3 2.1-2 3.6-4 3.6z"/></g><g><path class="st5" d="M131.6 177.6l-.1.2c0-.1 0-.1.1-.2zm1.3-.5l-.2.3c.1-.1.2-.2.2-.3zm5.1.8s1.1.2 1.9.8c-.5-.4-1.3-.8-2.1-.9-.7-.2-1.2-.3-1.6-.2.4-.2.6-.3.8-.3.6 0 1.1.2 1.8.6-.6-.4-1.6-.7-2.4-.7-.4-.1-.8-.1-1.2.1l.8-.5c.5 0 1.1 0 1.8.3-.5-.2-1.3-.4-2-.4-.8-.1-1.4.1-1.9.5l.7-.7c.5-.1 1-.1 1.8-.1-.7-.1-1.6-.1-2.3.1-.6.2-1 .3-1.3.6l.4-.6c.6-.3 1.8-.5 2.3-.5-1.2-.1-3.1.6-3.3.8-.4.2-.6.5-.8.8l.4-.8c.6-.4 1.3-.7 2.3-.8-.8.1-1.6.3-2.4.7-.8.4-1.3.9-1.5 1.6l.2-.9c.5-.5 1.3-1 2.3-1.3-1 .2-2 .8-2.7 1.5-.3.4-.6.7-.6 1.1 0-.2-.1-.3-.1-.3.2-.3 1.2-1.4 2.2-2-1.4.8-2.1 1.6-2.4 2.1-.5.7-.5 1.4 0 2 .4.3.9.3 1.6-.1.6-.1 1.2-.1 2.1 0-.6-.2-1.3-.2-2-.2h-.1c.3 0 .6-.1 1-.3.5 0 1.1.1 1.7.4-.4-.2-1.1-.4-1.7-.5l-.3-.1c.4.1.8.2 1.3.1.4.1 1 .2 1.4.2-.6-.1-1-.2-1.4-.3l-.7-.5c.6.3 1.1.3 1.8.3.4.1.9.3 1.3.5-.3-.2-.8-.5-1.3-.6l-.6-.4c.4.2.9.3 1.4.5 0 0 .7.2 1.2.5-.3-.3-.8-.5-1.3-.7l-.3-.4.2.1c.3.2.6.3 1 .3.3.1.6.3 1 .6l-.9-.6-.3-.5c.5.3 1.1.6 1.8.8l.9.6c-.2-.2-.5-.4-.8-.6-.1-.2-.3-.4-.5-.6.3.2.9.4 1.7.7l.9.6c-.3-.3-.6-.5-1-.7l-.6-.6.2.1c.6.1 1.1.4 1.7.9-.4-.4-1-.8-1.6-1 .4.1.9.1 1.4.1.6.1 1.1.4 1.7.9-.3-.4-.9-.7-1.5-1-.7-.4-1.4-.7-2-.8l.5-.3z"/><path class="st6" d="M131.6 179.8c-.8-.3-1.5-.4-1.7-.1.3.4.6.4 1.7.1zm1-.2c-.8-.7-1.6-.9-1.9-.7.1.5.8.6 1.9.7zm1-.3c-.8-.7-1.7-1-2-.8.1.5.9.7 2 .8zm.7-.1c-.6-.8-1.3-1.2-1.7-1.1 0 .5.7.7 1.7 1.1zm1-.1c-.6-.8-1.1-1.2-1.5-1-.1.3.5.6 1.5 1zm-.3-.9c.1.3.6.6 1.7 1-.8-.8-1.3-1.1-1.7-1zm.9 0c.1.3.8.7 2 1.1-.9-.8-1.5-1.2-2-1.1zm-.2-.2c.3.2 1 .1 2.1-.1-1.2-.2-1.9-.2-2.1.1zm-1 0c.2-.1.4-.2.5-.2-.1 0-.2.1-.3.2.8-.1 1.2-.6 1.8-.8-1.1-.1-1.9.1-2 .8zm-.8-.2c.1-.1.4-.3.5-.3-.1.1-.3.2-.4.4.6-.1 1-.7 1.8-1.1-1.1 0-2 .4-1.9 1zm-1.1.1c.1-.2.4-.3.5-.3-.1.1-.3.2-.4.4.5-.2 1-.9 1.7-1.4-1.2.1-2 .7-1.8 1.3zm-1.1.4c.1-.2.3-.4.4-.4-.1.1-.2.3-.2.5.5-.3.7-1 1.3-1.7-1.2.3-1.9 1.1-1.5 1.6zm0-1.3c-.9.5-1.5 1.2-1.2 1.9.2-.4.4-.7.6-.8-.2.2-.3.5-.4.8.6-.4.5-1.1 1-1.9zm-1.3.5c-.8.5-1 1.2-.7 2 .1-.1.2-.5.3-1 0 .5 0 .9-.1 1.1.6-.4.1-1.5.5-2.1zm-1 1c-.5.7-.6 1.3-.1 1.8.7-.3.2-1 .1-1.8zm1.3 1.7c-.8-.2-1.2-.1-1.3.2.2.1.3.3 1.3-.2zm6-2c.3.2 1 .5 2.3.5-1.2-.4-1.8-.6-2.3-.5z"/><path class="st5" d="M119.6 179.5c.6.3 1 .7 1.4 1.2 1.7 2.6 2.4 4.2 2.7 4.5.2.4-.2.9-1 1.4-.4.2-3.3-1.9-7.7-4.3v-1c1.6.5 3.1 1.3 4.4 2.3 1.6 1.2 2.8 1.9 3.4 2.1.1-.3-.4-1.4-1.6-3.4-.3-.6-.5-1.1-.6-1.5-.2-.4-.5-.9-1-1.3z"/><path class="st6" d="M122.9 185.7v.2c-.5 0-1.5-.5-3-1.4 1.3.9 2.3 1.4 2.9 1.5-.2.2-.8 0-1.7-.5.8.5 1.3.7 1.6.7 0 .1 0 .1-.1.2-.6 0-3.2-1.7-7.6-4.3v-.6c2.4.7 3.4 1.7 4.6 2.5 1.6 1 2.7 1.8 3.3 1.7zm-2.8-5.8c1 .8 1.3 1.8 2.2 3.2.6 1 1 1.8 1.3 2.2 0 .4-.2.7-.7.9.4-.4-.3-1.8-1-2.9-.9-1.6-.7-2.2-1.8-3.4z"/><path class="st5" d="M129.6 173.3c.6-1.8 1.3-2.7 1.9-3.5-.9 1.5-1.2 1.9-1.6 3v.5c0-.3.1-.6.3-.9.6-1.8 1.5-2.7 2.1-3.5-.9 1.5-1.3 1.9-1.7 3l.1.4c.1-.5.3-.9.5-1.2.8-1.7 1.5-2.2 2.2-3-1.1 1.5-1.6 1.9-2 3.1l.1.4c.1-.5.2-.7.4-1 1-1.8 1.8-2.3 2.5-3.1-1.2 1.5-1.7 1.8-2.3 3 0 .1.1.2.1.3.1-.5.4-1 .8-1.5.5-.6 1.5-1.7 2.5-2.7-1.2 1.3-2.2 2.5-2.4 2.9v.2c.2-.4.5-.7.7-.9.4-.5 1.4-1.5 2.5-2.6-1.1 1.2-2.2 2.4-2.5 2.7v.5c.4-.4.9-.7 1.4-1 .5-.4 1.4-1.4 2.4-2.5-.8 1-1.7 2-2.3 2.5-.2.6-.5 1.1-.9 1.6.1 0 .3 0 .5-.1.4-.3 1.5-1.4 2.5-2.6-1 1.2-2.2 2.5-2.6 2.9-.2.2-.4.5-.7.7h.3c.3-.2 1.1-1 2.3-2-.9 1-1.8 1.8-2.3 2.2-.2.2-.4.4-.8.6h.4c.4-.3 1.1-1 2.1-1.9-1 1-1.8 1.8-2.3 2.2-.2.2-.5.4-.8.6h.4c.4-.3 1.1-.8 2-1.5-.9.8-1.6 1.4-2.2 1.8l-.9.6h.4c.4-.2 1.1-.7 2-1.4-.8.7-1.5 1.2-2.1 1.6-.3.3-.5.5-.9.8l.1.1c.5-.3 1.3-.8 2.1-1.4-.9.8-1.6 1.3-2.2 1.7-.2.2-.4.4-.7.5h.2c.4-.2 1.1-.7 2.1-1.4-.9.8-1.6 1.4-2.3 1.7-.9.9-1.7 1.3-2.6 1.1-.5-.7-.5-1.5 0-2.5.7-2 1.4-2.8 2-3.6-.9 1.5-1.2 2-1.6 3.1l.1.4c.4-.3.6-.6.7-.9z"/><path class="st6" d="M134 172.1c-.7.7-1 .9-2 .7.2-.1.2-.2.8-.4-.6 0-.6.1-.8.2.7-.8 1.2-.4 2-.5zm-2.9 3.7c-.6.9-1.1 1.2-2.1 1.2.1-.2.5-.4 1.2-.7-.6.2-1 .4-1.2.5.5-1.1 1.3-.8 2.1-1zm.7-.8c-.7.7-1.1 1-2.1.7.2-.1.6-.4 1.3-.5-.6 0-1.1.2-1.3.3.8-.9 1.3-.5 2.1-.5zm.8-1c-.7.7-1.1 1-2.1.7.2-.1.6-.4 1.3-.5-.6 0-1.1.2-1.3.3.8-.8 1.3-.4 2.1-.5zm.7-.9c-.7.7-1.1 1-2.1.7.2-.1.4-.3 1-.4-.6 0-.8.1-1.1.2.9-.9 1.5-.5 2.2-.5zm1-1.8c-.7.7-.9.8-1.8.6.1-.1.1-.2.8-.3-.6 0-.6 0-.8.1.6-.5 1.1-.3 1.8-.4zm.5-.9c-.5.7-.6.9-1.5.9.1-.1.1-.2.6-.4-.5.1-.5.1-.7.2.4-.7.9-.6 1.6-.7zm-5.7 3.9c.1.8.5 1.5-.2 2.4.1-.2-.1-.5 0-1-.2.5-.1.9-.2 1-.4-.9-.2-1.5.4-2.4zm.7-1c.1.7.5 1.3-.2 2.1.1-.2-.1-.4 0-.9-.1.4-.1.7-.2.9-.2-.8-.1-1.3.4-2.1zm.8-.8c.1.7.4 1.6-.3 2.1-.4-.8-.2-1.4.3-2.1zm.7-.9c.1.7.4 1.6-.3 2.1-.3-.9-.2-1.4.3-2.1zm.7-.7c.1.6.3 1.4-.3 1.8-.2-.7-.1-1.2.3-1.8zm.9-.9c0 .6.1 1.4-.6 1.7-.1-.7.1-1.2.6-1.7zm.7-.6c0 .5.1 1.2-.5 1.5-.1-.7.1-1 .5-1.5zm1.4-.5c-.2.5-.5 1.4-1.4 1.6.1-.9 1-1.3 1.4-1.6z"/><path class="st5" d="M125.3 184.2c-.2.2-.5.3-.8.3-2.9.4-6-.5-9.4-2.5v-.6c3.4 2.1 6.4 2.9 9.2 2.5.1-.2.3-.3.4-.4l.6.7z"/><path class="st5" d="M128.3 181.3l-.2.1c.1 0 .2-.1.2-.1zm.6-1.5l-.4.2c.2-.1.3-.2.4-.2zm-1.1-5.8s-.3-1.3-1-2.2c.5.6 1 1.5 1.2 2.4.3.8.4 1.4.3 1.8.2-.4.3-.7.3-.9-.1-.7-.3-1.2-.7-2 .5.7.9 1.8 1 2.7.1.5.1.9-.1 1.3l.6-.9c0-.6-.1-1.2-.4-2 .3.6.5 1.5.5 2.3.1.9-.1 1.6-.6 2.1l.9-.8c.2-.6.2-1.2.1-2 .2.8.2 1.8-.1 2.7-.2.6-.4 1.1-.8 1.4l.8-.5c.3-.7.6-2 .6-2.6.1 1.3-.8 3.5-1 3.7-.2.4-.6.7-1 .9l1-.4c.5-.7.8-1.5 1-2.6-.1.8-.4 1.8-.9 2.7-.4.9-1.1 1.5-2 1.7l1.1-.2c.6-.6 1.2-1.4 1.6-2.6-.3 1.1-1 2.2-1.8 3.1-.4.4-.9.7-1.3.7.2 0 .3.1.4.2.4-.2 1.7-1.3 2.5-2.4-1 1.5-2 2.3-2.5 2.7-.9.5-1.7.5-2.5 0-.4-.5-.4-1.1.1-1.9.2-.7.1-1.4-.1-2.3.2.7.3 1.5.2 2.3v.1c0-.3.2-.6.4-1.1 0-.5-.2-1.2-.5-1.9.3.5.5 1.2.6 1.9l.2.3c-.1-.5-.2-.9-.2-1.5-.2-.5-.3-1.1-.3-1.6.1.7.2 1.2.4 1.6l.6.8c-.3-.7-.5-1.3-.4-2-.1-.4-.4-1-.7-1.5.3.4.6.9.8 1.5l.6.7c-.2-.4-.4-1-.6-1.6 0 0-.3-.8-.7-1.4.4.4.7.9.9 1.5l.5.3-.1-.2c-.2-.3-.3-.7-.4-1.1-.2-.4-.4-.7-.7-1.2.3.3.5.7.7 1.1l.7.4c-.4-.5-.8-1.2-1.1-2.1-.2-.3-.5-.7-.8-1 .3.2.6.6.8.9.3.1.5.3.8.6-.3-.4-.6-1-.9-1.9-.2-.3-.5-.7-.8-1 .3.3.7.7.9 1.2l.8.7-.1-.2c-.2-.7-.5-1.2-1.2-1.9.5.4 1 1.1 1.3 1.8-.1-.5-.1-1-.1-1.6-.2-.7-.5-1.2-1.2-1.9.5.4.9 1 1.2 1.7.5.8.9 1.5 1 2.3l.2-1.1z"/><path class="st6" d="M125.6 181.2c.4.9.6 1.7.1 1.9-.5-.3-.5-.7-.1-1.9zm.2-1.1c.8.9 1.1 1.8.8 2.2-.6-.1-.7-.9-.8-2.2zm.4-1.1c.8.9 1.3 1.9 1 2.3-.7-.2-.9-1.1-1-2.3zm.1-.9c1 .7 1.5 1.5 1.3 1.9-.5.1-.9-.7-1.3-1.9zm.1-1c1 .7 1.5 1.3 1.3 1.7-.4 0-.9-.6-1.3-1.7zm1.1.3c-.4-.1-.8-.8-1.3-2 1 .9 1.5 1.6 1.3 2zm0-1.1c-.4-.2-.8-.9-1.4-2.3 1 1.1 1.5 1.9 1.4 2.3zm.2.3c-.2-.3-.2-1.1.1-2.4.4 1.4.3 2.2-.1 2.4zm0 1.2c.2-.2.2-.4.2-.6 0 .1-.1.2-.3.4.1-.9.8-1.4.9-2 .3 1.1.1 2-.8 2.2zm.3.8c.2-.2.3-.5.3-.6-.1.1-.2.3-.5.4.2-.6.8-1.2 1.4-2 .1 1.4-.4 2.4-1.2 2.2zm0 1.3c.2-.1.4-.4.4-.5-.1.1-.3.3-.5.4.3-.6 1.1-1.1 1.7-1.9-.2 1.3-.9 2.3-1.6 2zm-.5 1.2c.2-.1.5-.3.5-.4-.2.1-.3.2-.6.3.4-.5 1.3-.8 2.1-1.4-.4 1.2-1.4 2-2 1.5zm1.6 0c-.6 1.1-1.5 1.7-2.3 1.3.5-.2.8-.4 1-.6-.3.2-.6.4-1 .4.4-.6 1.3-.5 2.3-1.1zm-.7 1.5c-.7.9-1.5 1.1-2.5.7.2-.1.6-.2 1.3-.3-.6 0-1.1 0-1.3.1.5-.6 1.8-.1 2.5-.5zm-1.1 1.2c-.8.6-1.6.6-2.2.1.2-.9 1.1-.3 2.2-.1zm-2.2-1.6c.2.9.1 1.4-.2 1.5-.2-.2-.4-.4.2-1.5zm2.4-6.7c-.3-.3-.7-1.1-.7-2.6.6 1.4.8 2.1.7 2.6zM125 184.2c-.2-.1-.3-.2-.4-.4-.1 0-.2.1-.3.2-2.6.5-5.7-.3-9.2-2.5v.3c3.6 2.1 6.6 2.9 9.2 2.5.4.1.6 0 .7-.1z"/><circle class="st7" cx="107.2" cy="167" r="20"/><g><path class="st4" d="M123.1 166.6c-.3-.3-.7-.3-1.1-.2 0-.3 0-.6.1-.8 0-.2-.4-.2-.5-.1-.2.1-.4.2-.5.4-.3 0-.5 0-.7.1-.7.3-1 1.1-1.1 1.8 0 .1-.1.3-.1.5-.1.3-.2.7-.4.9-.2.1-.3-.8-.3-.9 0-1 .2-1.9.4-2.8 0-.2-.2-.3-.4-.2-.2.1-.5.2-.6.4-.2.7-.3 1.4-.4 2.2l-.3.9c-.1 0-.1-.1-.2-.1-.5-.3-.3-1.2-.3-1.6.1-.6.2-1.2.5-1.8.1-.2 0-.3-.3-.3-.2 0-.5.2-.6.4-.2.5-.3 1-.5 1.6-.1.5-.4 1-.7 1.3l-.1.1v-.1c-.1-.4-.1-.9 0-1.2 0-.6.1-1.2.2-1.8 0-.5-.4-.8-.9-.8-.6 0-1 .4-1.3.7-.3.5-.5 1.2-.6 1.3-.1.5-.3 1-.6 1.4-.1 0-.1-.1-.1-.2-.1-.3-.2-.6-.2-.9-.1-.9-.1-1.8 0-2.6v-.1s-.1 0-.1-.1c-.2-.1-.5.1-.7.3-.5.6-.5 1.4-.6 2.1l-.3 1.2s0 .1-.1.2c-.1-.1-.2-.2-.2-.3 0-.2-.1-.3-.3-.2-.2.1-.5.3-.6.5-.2 0-.2-.2-.3-.3-.1-.3-.1-.6-.1-.9v-.6c0-.5.1-1 .1-1.4v-.4c0-.2-.3-.2-.4-.1-.2.1-.5.3-.5.6v1.6c0 .2 0 .4-.1.7 0 .3-.1.7-.2 1h-.2c-.5-.2-.5-1.1-.5-1.5 0-.6 0-1.3.2-1.8 0-.1.1-.2 0-.3-.1-.1-.3 0-.4.1-.1.1-.4.4-.6.5-.4.2-.8.1-1.1-.1-.1-.1-.2-.2-.4-.3-.4-.2-.8 0-1.1.3 0-.3-.1-.5-.2-.8-.1-.2-.5 0-.5.1-.2.1-.4.4-.3.6-.3.1-.5.3-.7.4-.6.6-.6 1.4-.6 2.1v.5c0 .1 0 .8-.2 1-.2.2-.6-.6-.6-.7-.3-.9-.3-1.9-.4-2.8 0-.2-.3-.1-.4 0-.2.1-.4.4-.4.7 0 .7.1 1.5.1 2.2 0 .3 0 .7-.1 1h-.2c-.5-.1-.6-1-.7-1.4-.1-.6-.1-1.3 0-1.9 0-.2-.1-.3-.3-.2-.2.1-.5.4-.5.6-.1.8-.1 1.6.1 2.4.1.6.4 1.5 1.1 1.4.5-.1.9-.4 1.1-.8.1.1.1.2.2.3.5.5 1.1 0 1.5-.4 0-.1.1-.1.1-.2l.3.3c.2.2.5.2.8.1.1 0 .2-.1.3-.1 0 .9.1 1.8.1 2.7 0 .2.3.2.4.1.2-.1.4-.4.4-.6v-2.2c.3 0 .7-.2.9-.5.6-.6.7-1.5.6-2.3 0-.1 0-.3-.1-.4.3 0 .5-.2.8-.3-.1.6-.1 1.2-.1 1.8 0 .6.2 1.5 1 1.6.5 0 .8-.2 1.1-.5.2.3.5.6.9.5.2 0 .3-.1.4-.2.3.3.8.3 1.2 0 .3-.3.5-.6.6-.9v.3c.1.3.1.6.3.9.2.3.6.1.9 0 .2-.1.5-.3.6-.5.1.3.2.6.4.7.4.2.9 0 1.2-.2 0 .2.1.4.3.5.5.2 1-.2 1.3-.5.1.4.2.8.7 1 .5.2.9 0 1.2-.3 0 .1.1.2.1.3.3.7 1 .4 1.4.2.1 0 .1-.1.2-.1 0 .1.1.3.2.4.1.3.4.4.7.5h.3c-.2.9-.4 1.7-.7 2.6-.1.2.2.3.3.2.2 0 .5-.2.5-.4.2-.7.4-1.4.6-2 .3.1.7.1 1-.1.7-.3 1-1.2 1.2-2 0-1.5.2-2.5-.3-3zm-20.9 1.3h-.2c-.2-.1-.3-.2-.4-.3-.3-.4-.3-.9-.4-1.4 0-.4 0-.8.1-1.2h.1c.3.2.5.6.6 1 .1.5.2 1.2.2 1.9 0-.1 0 0 0 0zm1.5-.3c0 .1 0 .1 0 0-.1.1-.1.1 0 0-.4.1-.6-.1-.6-.4 0-.7-.1-1.3-.2-2v-.5c.1 0 .2 0 .3.1l.1.1c.3.3.4.8.4 1.2.1.5.2 1.1 0 1.5zm10.4-2.2c-.1.8-.2 1.7-.5 2.4 0 0-.1.1-.1.2h-.1c-.2-.1-.2-.4-.3-.5-.1-.6 0-1.3.2-1.9.1-.2.2-.5.3-.5h.1c.4-.1.5.1.4.3zm6.8 2.3c-.1.6-.2 1.2-.3 1.9l-.1-.1c-.1-.1-.2-.3-.3-.5-.1-.5-.1-1 0-1.5.1-.4.2-.8.4-1.1 0 0 0 .1.1.1.2.4.2.9.2 1.2zm1.5 1c-.1.5-.2 1-.5 1.3-.3-.1-.4-.4-.4-.7.1-.6.3-1.3.4-2 0-.2.1-.3.2-.5.1 0 .2.2.3.3.1.6.1 1.2 0 1.6zM119.1 164.1c.1-.1.4-.3.3-.5-.1-.2-.5-.1-.6 0-.3.2-.6.3-1 0-.1-.1-.3-.2-.4-.3-.2-.3-1.1.2-.9.5.7 1.1 1.9.8 2.6.3zM93.8 165.7c-.1-.4-.2-.7-.3-1.1.8-.2 1.5-.5 2.3-.8.2-.1.5-.4.5-.7 0-.2-.1-.3-.3-.2-1.3.6-2.8.9-4.1 1.4-.5.2-1.1.6-1.3 1.1-.3.6-.2 1.2.1 1.7.2.3.9-.6.7-.9l-.3-.6v-.1c.3-.3.8-.4 1.2-.6.1 0 .2-.1.3-.1.2.4.3.8.4 1.2-.5.3-.8.8-1.1 1.2-.5 1-.6 3.7 1.2 3.4 1.2-.2 1.3-1.6 1.2-2.6-.1-.5-.1-1.1-.2-1.6h.3c.7.1 1 .7 1.1 1.3.1.5 0 1.2-.4 1.6-.1.1-.3.5-.2.7.1.2.4-.1.5-.2.9-1 1.3-2.8.4-3.9-.5-.3-1.3-.4-2-.2zm-.4 4.1c-.3 0-.6-.1-.7-.2-.5-.5-.6-1.5-.2-2.2.2-.3.4-.5.7-.6.2.6.3 1.3.4 2 0 .3.1.6.1.9v.1h-.3z"/></g><g><path class="st4" d="M112.1 181.4c-.2.3-.6-.5-.6-.6 0-.1-.1-.2-.1-.3-.1-.2-.2-.5-.2-.7v-.1c-.1-.2-.3.2-.3.4.1.3.2.6.2 1 0 .2.1.3.1.5s0 .3-.2.2c-.5-.2-.5-1.3-.5-1.7 0-.3-.3.1-.3.2 0 .2 0 .9.2 1.4-.1.2-.3.4-.4.3-.1-.1-.1-.4-.2-.5-.1-.3-.3-.3-.6-.2 0-.1 0-.3.1-.5 0-.1.1-.2.3-.2.2.1.5-.4.3-.5-.4-.2-.7 0-.9.5 0-.3-.1-.5-.2-.8-.1-.2-.4.2-.4.4.2.5.2 1.1.2 1.7-.2.2-.5.6-.6.2-.1-.2-.1-.5-.1-.7v-.6-.2c-.1-.6-.7-.3-.9.1-.3.4-.4 1-.4 1.5-.3.1-.4.1-.5-.3-.1-.5 0-1.1.1-1.6 0-.3-.4 0-.4.1-.2.2-.3.5-.4.8-.1.2-.1.3-.2.5 0 .1-.1.2-.1.3-.1.2-.2 0-.2-.1s0-.1-.1-.1h-.1c-.2 0-.3.1-.5.1 0-.1-.1-.2-.2-.3.3-.3.5-.8.6-1.2 0-.3 0-.6-.3-.6-.4-.1-.8.3-1 .6-.1.2.5.1.5 0s.1-.4.2-.2c.1.1 0 .3 0 .4 0 .2-.2.7-.4.8h-.2c-.1 0-.3.1-.3.2-.1.1-.1.1 0 .1h.3c.1 0 .2.1.2.3-.5.2-1.1.4-1.5.9-.4.5.2 1 .9.9.7-.1 1-.8 1.1-1.4v-.2h.2c0 .4.6.4.9.2.1-.1.2-.2.2-.3 0 .2.1.3.1.4.2.3.7.2 1 0 .1.3.5.4.8.1l.1-.1c0 .1.1.2.1.2.2.2.7-.1 1-.4v.3c0 .3.5-.1.5-.3v-.7c.3 0 .2.8.5.8.3.1.6-.2.8-.5.1.2.3.3.6.2.2-.1.4-.3.5-.5.3.4.7 0 .9-.3.3-.2 0-.2-.2.1zm-8.6 1c-.1.4-.2.8-.6 1-.1.1-.2 0-.3-.1-.1-.2 0-.3.1-.5.2-.3.5-.5.8-.6.1.1 0 .2 0 .2zm3.6-.1c-.1 0-.1-.1-.2-.2-.1-.2-.1-.5 0-.8 0-.1.1-.3.1-.4 0-.1.1-.1.1-.2.1-.1.2.1.2.2 0 .4 0 .7-.1 1.1.1.1 0 .4-.1.3z"/></g><circle class="st8" cx="91.2" cy="184.7" r="6.3"/><path class="st9" d="M97.7 142.6c0 1.4-1.1 2.5-2.6 2.5-1.4 0-2.6-1.1-2.6-2.5s1.1-2.6 2.6-2.6 2.6 1.2 2.6 2.6z"/><path class="st10" d="M97.8 151.2c0 1.8-1.5 3.3-3.3 3.3-1.8 0-3.3-1.5-3.3-3.3 0-1.8 1.5-3.3 3.3-3.3 1.8 0 3.3 1.5 3.3 3.3zM89 146.1c0 1.1-.9 1.9-1.9 1.9-1.1 0-2-.9-2-1.9 0-1.1.9-2 2-2 1.1.1 1.9.9 1.9 2z"/><g><circle class="st8" cx="124.2" cy="148.8" r="11"/><path class="st4" d="M121.5 147.2c-.9.1-1.2 1.2-1.2 1.9v.3c0 .4 0 .6-.1 1 0 .1-.1.4-.1.4-.3 0-.6-.5-.7-.7-.2-.6-.4-1.2-.5-1.7-.1-.6-.2-1.3-.2-1.9v-.8-.3-.2c.1-.5-.6 0-.7.2-.7 1.3-.5 2.8-.5 4.2 0 .4 0 .8-.1 1.1 0 .3-.1.7-.3.9-.1.1-.4 0-.5 0-.2-.1-.3-.3-.3-.5s-.3-.1-.4 0c-.2.2-.3.4-.3.6.1.5.5.9 1 .8.8-.2 1.2-1.2 1.4-2 .1-.4.1-.7.2-1.1.1.5.3 1.1.5 1.6.2.4.5.7 1 .7.3-.1.6-.4.8-.8.2.4.4.6.8.6.5 0 .8-.5 1-.9.2-.4.3-.9.3-1.4 0-.7-.2-2.1-1.1-2zm.3 3.2c0 .1 0 .2-.1.3-.2 0-.3-.3-.4-.4-.1-.3-.2-.6-.2-1v-1c0-.1 0-.2.1-.3.5.3.6.9.6 1.4 0 .3.1.7 0 1zM132.4 148.5c-1-.4-1.5 1-1.7 1.7-.2.7-.4 1.9.5 2.3.4.2.9-.1 1.2-.4.3-.3.5-.8.6-1.2.1-.8.3-2-.6-2.4zm-.6 3.2c0 .1-.1.2-.1.2-.2-.1-.2-.4-.2-.5-.1-.3 0-.7 0-1 .1-.3.2-.7.3-1 0-.1.1-.2.1-.2.4.4.3 1.1.2 1.6 0 .2-.1.6-.3.9zM129.8 148.7c.2-.2.4-.5.5-.8.4-.5.7-1.2.7-1.9 0-.6-.9-.7-1.3-.5-.6.3-1 1-1.2 1.6-.2.8-.4 1.7-.4 2.6-.3.4-1 1.2-1.5.8-.1-.1-.2-.2-.2-.4.4-.4.8-.9 1.1-1.4.3-.4.5-1.2-.1-1.5-.5-.3-1.1 0-1.4.4-.3.4-.5.9-.5 1.4 0 .3-.1.7 0 1.1-.3.2-.6.3-1 .2-.4-.1-.5-.5-.6-.8-.1-.5-.1-.9 0-1.4 0-.1.1-.3.1-.4v-.1c.2.1.3.5.4.6.1.3.9-.2.8-.5-.1-.3-.2-.7-.6-.8-.3-.2-.8.1-1 .3-.6.6-.7 1.5-.6 2.3 0 .5.1 1.1.6 1.4.6.4 1.4 0 2-.3.2.4.4.6.9.6.6-.1 1.1-.4 1.6-.8 0 .4.1.9.4 1.1.5.3 1.2 0 1.5-.5.4-.6.7-1.4.4-2.1-.1-.1-.3-.2-.6-.2zm-3.4-.4c0-.1.1-.3.2-.4.2.1.3.4.3.6-.1.4-.3.7-.6 1.1v-.2c0-.4 0-.7.1-1.1zm3.2-1.8c.1-.1.1-.3.2-.4.4.4 0 1-.2 1.4-.2.4-.4.8-.7 1.2.1-.4.1-.8.2-1.1.2-.4.3-.8.5-1.1zm-.2 4.5s-.1.1-.1.2h-.1c-.2-.1-.3-.7-.3-.9v-.6c.1-.1.2-.2.3-.4.2-.1.4.1.4.4.1.4 0 1-.2 1.3z"/></g><g><path class="st4" d="M87 183.8c.2-.6.7-.2.8.1.2.4 0 .9-.3 1.2-.2.3-.5.5-.8.7-.2.1-.3.2-.4.3 0 .1-.1.2 0 .2.2.2.7.2.9.2.5 0 1 0 1.4-.2.2-.1.5-.7 0-.5-.3.2-.8.1-1.1.1-.2 0-.6 0-.7-.1v.2c-.2.3-.1.2.1.1.1-.1.3-.2.4-.3.2-.2.4-.4.6-.7.4-.5.6-1 .5-1.6-.2-1.4-1.7-.4-2 .4-.1.5.5.1.6-.1zM90.5 186c.5 1.5 2.8.5 2.4-.9-.2-.7-1-.6-1.5-.7-.3-.1-.3-.3-.3-.6.1-.3.1-.3-.1-.2.1 0 .2 0 .3-.1.5-.1 1-.1 1.4.1.2.1.7-.4.4-.5-.6-.3-1.2-.2-1.8-.1-.6.1-.7.6-.7 1.2 0 .7.6.7 1.1.8.4.1.7.2.8.6.1.7-.7.6-1 .4-.2-.1-.2-.3-.3-.5-.2-.2-.8.3-.7.5zM95.8 183.3c-.6 1.1-1.4 2.1-2.2 3-.3.4.2.4.4.1.8-1 1.6-2.1 2.3-3.2.3-.4-.4-.2-.5.1zM94.6 183c-.4 0-.7.4-.7.7-.1.3.1.6.5.6.7.1 1-1.3.2-1.3-.2 0-.5.4-.2.4.2 0 .3.2.3.3v.2c0 .1 0 0 0 0h-.1c-.2 0-.3-.2-.3-.3v-.2h.1c.1 0 .4-.4.2-.4zM95.7 185.2c-.4 0-.7.4-.7.7-.1.3.1.6.5.6.7.2 1.1-1.2.2-1.3-.2 0-.5.4-.2.4.2 0 .3.2.3.3v.2c0 .1 0 0 0 0h-.1c-.2 0-.3-.2-.3-.3v-.2h.1c.1.1.4-.4.2-.4zM89.6 187.4c.3-.2.5-.6.5-1 0-.1 0-.3-.1-.3-.1-.1-.4 0-.5 0-.2.1-.3.3-.3.4 0 .2.2.1.3.1v.1c0 .1 0 .1-.1.2v.2c.1-.1 0 0 0 0-.1.1-.3.3-.1.4 0 .1.2-.1.3-.1z"/></g><g><path class="st11" d="M82.9 158.6c-.1 0-.2-.2-.3-.2-.4-.2-.7.1-1.1.1-.9 0-1.3 0-2.4-.3 0-1 .6-1.6.8-2.4.2-.7-.1-1.5-.1-2.3v-1.4c-.3.3-.2 1.2-.2 1.6-.1-.6-.1-1.4-.3-1.9-.1.6 0 1.3 0 1.9-.2-.5-.2-1.2-.4-1.6-.3.5.2 1.3.1 1.8-.2-.5-.3-1-.5-1.5-.1.6.2 1.2.2 1.6-.2-.4-.3-.8-.6-1.1 0 .4.3.9.4 1.3-.3-.1-.4-.5-.6-.6 0 .3.3.5.4.8-.2-.1-.3-.3-.5-.4 0 .3.3.4.3.6-.1-.1-.3-.2-.4-.3 0 .2.3.4.3.5 0 0-.2-.1-.2 0 0 0 .2.1.1.2h-.2c0 .2.2.1.1.3-.1 0-.1-.1-.1 0s.1.1.1.2c-.8.8-.4 1.8-.5 2.8.1-.1-.7-.3-1.2-.5-.3-.1-.4-.5-.6-.6 0-.1.1 0 .1-.1-.1 0-.2-.1-.2-.2.1 0 .3.1.3 0-.1-.1-.5-.2-.5-.3.2 0 .4.1.5.1-.2-.1-.6-.3-.6-.5.2.1.5.3.7.2-.3-.2-.8-.4-.9-.7.3.1.6.4.8.4-.4-.1-.7-.6-1.1-.6.2.4.8.6.9.8-.3-.2-.6-.3-1-.5.1.4.6.5.9.8-.3 0-.5-.2-.8-.2.1.3.6.2.7.5-.1-.1-.3 0-.5 0 0 .2.4.2.5.3-.2 0-.3 0-.4.1.1.1.3.1.4.2-.1 0-.2 0-.2.1s.3 0 .3.1c-.1 0-.1.1-.1.1h.2c-.1 0-.1 0-.1.1.4.2.7.9 1.3 1.2-.3.2.3.4-3.5 1.8.1 0 1.7-.4 2.2-.5.5-.2.9-.3 1.4-.4.1 0 .2-.1.3-.1.8-.1 1.5.1 2.3-.4-.6.1-1.6.2-2-.1.5-.8.2-2.9.6-3.3.4-.4 1.1-1.7 1.9-.6.1.2.2.4-.1.9-.4.6-.6.8-.5 2.1 0 .3 0 .5-.4.5 1.7.4 2.2.2 3.1 0 .3 0 .8-.3.8 0 0 .1-.3.1-.6.1-.5 0 .2.2.4.2.1 0 1-.1 1.5-.2-.7-.4-.9-.4-1.2-.5z"/><path class="st11" d="M78 150c-3.8 0-6.9 3.1-6.9 6.9 0 3.8 3.1 6.9 6.9 6.9 3.8 0 6.9-3.1 6.9-6.9.1-3.8-3-6.9-6.9-6.9m0 .3c3.7 0 6.7 3 6.7 6.7s-3 6.7-6.7 6.7-6.7-3-6.7-6.7c.1-3.7 3.1-6.7 6.7-6.7"/></g></g><g><path class="st5" d="M256 178.8l-.1.2s0-.1.1-.2zm1.3-.5l-.2.3c.1-.1.2-.2.2-.3zm5.1.9s1.1.2 1.9.8c-.5-.4-1.3-.7-2.1-.9-.7-.2-1.2-.3-1.6-.2.4-.2.6-.3.8-.3.6 0 1.1.2 1.8.6-.6-.4-1.5-.7-2.3-.7-.4-.1-.8-.1-1.2.1l.8-.5c.5 0 1.1 0 1.8.3-.5-.2-1.3-.4-2-.4-.8-.1-1.4.1-1.9.5l.7-.7c.5-.1 1-.1 1.7-.1-.7-.1-1.6-.1-2.3.1-.6.2-1 .3-1.3.6l.4-.6c.6-.3 1.7-.5 2.3-.5-1.2-.1-3.1.6-3.3.8-.4.2-.6.5-.8.8l.4-.8c.6-.4 1.3-.7 2.3-.8-.8.1-1.6.3-2.4.7-.8.4-1.3.9-1.5 1.6l.2-.9c.5-.5 1.2-1 2.3-1.3-.9.2-2 .8-2.7 1.5-.3.4-.6.7-.6 1.1 0-.2-.1-.3-.1-.3.2-.3 1.2-1.4 2.2-2-1.3.8-2.1 1.6-2.4 2-.5.7-.5 1.3 0 2 .4.3.9.3 1.6-.1.6-.1 1.2-.1 2.1 0-.6-.2-1.3-.2-2-.2h-.1c.3 0 .6-.1.9-.3.5 0 1.1.1 1.7.4-.4-.2-1.1-.4-1.7-.5l-.3-.1c.4.1.8.2 1.3.1.4.1 1 .2 1.4.2-.6-.1-1-.2-1.4-.3l-.7-.5c.6.3 1.1.3 1.8.3.4.1.9.3 1.3.5-.3-.2-.8-.5-1.3-.6l-.6-.4c.4.2.8.3 1.4.5 0 0 .7.2 1.2.5-.3-.3-.8-.5-1.3-.7l-.3-.4.2.1c.3.2.6.3 1 .3.3.1.6.3 1 .6-.2-.2-.6-.4-.9-.6l-.3-.5c.4.3 1.1.6 1.8.8l.9.6c-.2-.2-.5-.4-.8-.6-.1-.2-.3-.4-.5-.6.3.2.9.4 1.7.7l.9.6c-.3-.3-.6-.5-1-.7l-.6-.6.2.1c.6.1 1 .4 1.7.9-.4-.4-1-.8-1.6-1 .4.1.9.1 1.4.1.6.1 1 .4 1.7.9-.3-.4-.9-.7-1.5-.9-.7-.4-1.3-.7-2-.8l.6-.3z"/><path class="st6" d="M256 181c-.8-.3-1.5-.4-1.7-.1.3.4.6.4 1.7.1zm1-.1c-.8-.7-1.6-.9-1.9-.7.1.5.8.6 1.9.7zm1-.4c-.8-.7-1.6-1-2-.8.1.6.9.8 2 .8zm.7-.1c-.6-.8-1.3-1.2-1.7-1.1 0 .5.7.8 1.7 1.1zm1-.1c-.6-.8-1.1-1.1-1.5-1-.1.4.4.7 1.5 1zm-.4-.8c.1.3.6.6 1.7 1-.7-.8-1.3-1.2-1.7-1zm1 0c.1.3.8.7 2 1.1-.9-.9-1.6-1.2-2-1.1zm-.2-.2c.3.2.9.1 2.1-.1-1.2-.3-1.9-.3-2.1.1zm-1.1 0c.2-.1.3-.2.5-.2-.1 0-.2.1-.3.2.8-.1 1.2-.6 1.8-.8-1-.1-1.8.1-2 .8zm-.7-.3c.1-.1.4-.3.5-.3-.1.1-.3.2-.4.4.6-.1 1-.6 1.8-1.1-1.2 0-2 .5-1.9 1zm-1.1.1c.1-.2.4-.3.5-.3-.1.1-.3.2-.3.4.5-.2 1-.9 1.7-1.4-1.3.1-2.1.8-1.9 1.3zm-1.1.4c.1-.2.3-.4.4-.4-.1.1-.2.3-.2.5.5-.3.7-1 1.3-1.7-1.2.3-1.9 1.1-1.5 1.6zm0-1.3c-.9.5-1.5 1.2-1.2 1.9.2-.4.4-.6.6-.8-.2.2-.3.5-.4.8.6-.4.5-1.1 1-1.9zm-1.3.6c-.8.5-1 1.2-.7 2 .1-.1.2-.5.3-1 0 .5 0 .9-.1 1.1.6-.5.2-1.5.5-2.1zm-1 .9c-.5.7-.5 1.3-.1 1.8.7-.2.2-.9.1-1.8zm1.3 1.7c-.8-.2-1.2-.1-1.3.2.2.1.3.3 1.3-.2zm5.9-1.9c.3.2 1 .5 2.2.5-1.1-.5-1.7-.6-2.2-.5z"/><path class="st5" d="M244.1 180.8c.6.3 1 .7 1.4 1.1 1.7 2.6 2.4 4.2 2.7 4.5.2.4-.2.9-1 1.4-.4.2-3.3-1.9-7.7-4.3v-1c1.6.5 3.1 1.3 4.4 2.3 1.6 1.2 2.7 1.9 3.4 2.1.1-.3-.4-1.4-1.6-3.4-.3-.6-.5-1.1-.6-1.5-.2-.4-.6-.8-1-1.2z"/><path class="st6" d="M247.4 186.9v.2c-.5 0-1.4-.5-3-1.4 1.3.9 2.3 1.4 2.9 1.5-.2.2-.8 0-1.7-.5.8.5 1.3.7 1.6.7 0 .1 0 .1-.1.2-.6 0-3.2-1.7-7.6-4.3v-.6c2.3.7 3.3 1.7 4.6 2.5 1.6 1 2.7 1.8 3.3 1.7zm-2.8-5.8c1 .8 1.3 1.7 2.2 3.2.6 1 1 1.8 1.3 2.2 0 .4-.2.7-.7.9.4-.4-.3-1.8-1-2.9-1-1.6-.7-2.2-1.8-3.4z"/><path class="st5" d="M254 174.6c.6-1.8 1.3-2.6 1.9-3.5-.9 1.5-1.2 1.9-1.6 3v.5c0-.3.1-.6.3-.8.6-1.8 1.5-2.7 2.1-3.5-.9 1.5-1.3 1.9-1.7 2.9l.1.4c.1-.5.3-.9.5-1.1.8-1.7 1.5-2.2 2.2-3-1.1 1.5-1.5 1.9-2 3.1l.1.4c.1-.5.2-.7.4-1 1-1.8 1.8-2.3 2.5-3.1-1.2 1.5-1.7 1.8-2.3 3 0 .1.1.2.1.3.1-.5.4-1 .8-1.5.5-.6 1.5-1.7 2.4-2.7-1.2 1.3-2.2 2.5-2.4 2.8v.2c.2-.4.5-.7.7-.9.4-.5 1.4-1.5 2.5-2.6-1.1 1.2-2.2 2.3-2.4 2.7v.5c.4-.4.9-.7 1.4-1 .5-.4 1.4-1.4 2.4-2.5-.8 1-1.7 2-2.3 2.5-.2.6-.5 1.1-.9 1.6.1 0 .3 0 .5-.1.4-.3 1.5-1.4 2.5-2.6-1 1.2-2.1 2.5-2.6 2.8-.2.2-.4.5-.7.7h.3c.3-.2 1.1-1 2.3-2-.9 1-1.8 1.8-2.2 2.2-.2.2-.4.4-.7.6h.4c.4-.3 1.1-1 2.1-1.8-.9 1-1.8 1.8-2.2 2.2-.2.2-.5.4-.8.6h.4c.4-.3 1.1-.8 2-1.5-.9.8-1.6 1.4-2.2 1.8l-.9.6h.4c.4-.2 1.1-.7 2-1.4-.8.7-1.5 1.2-2.1 1.5-.3.3-.5.5-.9.7l.1.1c.5-.3 1.3-.8 2.1-1.4-.9.8-1.6 1.3-2.2 1.6-.2.2-.4.4-.7.5h.2c.4-.2 1.1-.7 2.1-1.4-.8.8-1.6 1.3-2.3 1.7-.9.9-1.7 1.3-2.6 1.1-.5-.7-.5-1.5 0-2.5.7-2 1.4-2.7 1.9-3.6-.9 1.5-1.2 1.9-1.6 3l.1.4c.2.1.4-.2.5-.5z"/><path class="st6" d="M258.3 173.4c-.7.7-1 .9-2 .7.2-.1.2-.2.8-.4-.6 0-.6.1-.8.2.8-.8 1.3-.4 2-.5zm-2.8 3.6c-.6.9-1 1.2-2.1 1.2.1-.2.5-.4 1.1-.7-.6.2-1 .4-1.2.5.6-1 1.5-.7 2.2-1zm.7-.8c-.7.7-1.1 1-2.1.7.2-.1.6-.4 1.3-.5-.6 0-1.1.2-1.3.3.8-.8 1.3-.4 2.1-.5zm.8-.9c-.7.7-1.1 1-2.1.7.2-.1.6-.4 1.3-.5-.6 0-1.1.2-1.3.3.8-.8 1.3-.5 2.1-.5zm.7-1c-.7.7-1.1 1-2.1.7.2-.1.4-.3 1-.4-.6 0-.8.1-1 .2.8-.8 1.3-.4 2.1-.5zm1-1.7c-.7.7-.9.8-1.8.6.1-.1.1-.2.7-.3-.6 0-.6 0-.8.1.6-.5 1.2-.3 1.9-.4zm.5-.9c-.5.7-.6.9-1.5.8.1-.1.1-.2.6-.4-.5.1-.5.1-.7.2.4-.6.9-.5 1.6-.6zm-5.7 3.9c.1.8.5 1.5-.2 2.4.1-.2-.1-.5 0-1-.2.5-.1.9-.2 1-.4-.9-.2-1.6.4-2.4zm.8-1c.1.7.5 1.3-.2 2.1.1-.2-.1-.4 0-.9-.1.4-.1.7-.2.9-.3-.8-.1-1.4.4-2.1zm.7-.8c.1.7.4 1.6-.3 2.1-.4-.9-.2-1.4.3-2.1zm.7-.9c.1.7.4 1.6-.3 2.1-.3-.9-.2-1.4.3-2.1zm.7-.7c.1.6.3 1.3-.3 1.8-.2-.7-.1-1.2.3-1.8zm.9-.9c0 .6.1 1.4-.6 1.7-.1-.7.1-1.2.6-1.7zm.7-.6c0 .5.1 1.2-.5 1.5-.2-.7 0-1 .5-1.5zm1.4-.5c-.2.5-.5 1.4-1.4 1.6.1-.9 1-1.3 1.4-1.6z"/><path class="st5" d="M249.7 185.4c-.2.2-.5.3-.8.3-2.8.3-6-.5-9.3-2.5v-.6c3.4 2.1 6.4 2.9 9.1 2.5.1-.2.3-.3.4-.3l.6.6z"/><path class="st5" d="M252.7 182.5l-.2.1c.1 0 .2 0 .2-.1zm.6-1.5l-.4.2c.2 0 .3-.1.4-.2zm-1.1-5.8s-.2-1.3-1-2.2c.5.6.9 1.5 1.2 2.4.3.8.4 1.4.3 1.8.2-.4.3-.7.3-.9-.1-.6-.3-1.2-.7-2 .5.7.9 1.8 1 2.7.1.5.1.9-.1 1.3l.6-.9c0-.6-.1-1.2-.4-2 .3.6.5 1.5.5 2.2.1.9-.1 1.6-.6 2.1l.9-.8c.2-.6.2-1.2.1-2 .2.8.2 1.8-.1 2.6-.2.6-.4 1.1-.8 1.4l.7-.5c.3-.7.6-2 .6-2.6.1 1.3-.8 3.5-1 3.7-.2.4-.6.7-.9.9l1-.4c.5-.7.8-1.5 1-2.6-.1.8-.4 1.8-.8 2.7-.4.9-1.1 1.5-2 1.7l1.1-.2c.6-.6 1.2-1.4 1.6-2.5-.3 1.1-1 2.2-1.8 3-.4.4-.9.7-1.3.7.2 0 .3.1.4.2.4-.2 1.7-1.3 2.5-2.4-1 1.5-2 2.3-2.5 2.7-.9.5-1.7.5-2.5 0-.4-.5-.4-1.1.1-1.8.2-.7.1-1.4-.1-2.3.2.7.3 1.5.2 2.3v.1c0-.3.1-.6.4-1.1 0-.5-.2-1.2-.5-1.9.3.5.5 1.2.6 1.9l.2.3c-.1-.5-.2-.9-.2-1.5-.2-.5-.3-1.1-.3-1.6.1.7.2 1.2.4 1.6l.6.8c-.3-.7-.4-1.3-.4-2-.1-.4-.4-1-.7-1.5.3.4.6.9.8 1.5l.6.7c-.2-.4-.4-1-.6-1.6 0 0-.3-.8-.7-1.4.4.4.7.9.9 1.5l.5.3-.1-.2c-.2-.3-.3-.7-.4-1.1-.2-.4-.4-.7-.7-1.1.3.3.5.7.7 1.1l.6.4c-.4-.5-.8-1.2-1.1-2.1-.2-.3-.5-.7-.8-1 .3.2.6.6.8.9.3.1.5.3.8.6-.3-.4-.6-1-.9-1.9-.2-.3-.5-.7-.8-1 .3.3.7.7.9 1.2l.8.7-.1-.2c-.2-.7-.5-1.2-1.2-1.9.5.4 1 1.1 1.3 1.8-.1-.5-.1-1-.1-1.6-.2-.6-.5-1.2-1.2-1.9.5.4.9 1 1.2 1.7.5.8.9 1.5 1 2.3l.2-1.1z"/><path class="st6" d="M250.1 182.5c.4.9.6 1.7.1 1.9-.5-.4-.5-.8-.1-1.9zm.1-1.2c.8.9 1.1 1.8.8 2.2-.5-.1-.7-.9-.8-2.2zm.4-1.1c.8.9 1.3 1.9 1 2.3-.6-.2-.9-1.1-1-2.3zm.2-.8c1 .7 1.5 1.5 1.3 1.9-.6 0-.9-.7-1.3-1.9zm.1-1.1c1 .7 1.4 1.3 1.2 1.7-.4.1-.8-.5-1.2-1.7zm1 .4c-.3-.1-.8-.8-1.3-2 1.1.9 1.5 1.6 1.3 2zm0-1.1c-.4-.2-.8-.9-1.4-2.3 1.1 1.1 1.5 1.8 1.4 2.3zm.3.3c-.2-.3-.2-1.1.1-2.4.3 1.4.3 2.2-.1 2.4zm0 1.1c.2-.2.2-.4.2-.6 0 .1-.1.2-.3.4.1-.9.8-1.4.9-2 .2 1.2 0 2.1-.8 2.2zm.3.8c.2-.2.3-.5.3-.6-.1.1-.2.3-.5.4.2-.6.8-1.1 1.3-2 .1 1.5-.4 2.5-1.1 2.2zm-.1 1.3c.2-.1.4-.4.4-.5-.1.1-.3.3-.5.4.3-.6 1.1-1.1 1.7-1.8-.1 1.3-.9 2.2-1.6 1.9zm-.5 1.3c.2-.1.5-.3.5-.4-.2.1-.3.2-.6.3.4-.5 1.3-.8 2.1-1.4-.4 1.2-1.4 1.9-2 1.5zm1.6 0c-.6 1-1.5 1.6-2.3 1.3.5-.2.8-.4 1-.6-.3.2-.6.4-1 .4.4-.7 1.4-.6 2.3-1.1zm-.7 1.4c-.6.9-1.5 1.1-2.5.7.2-.1.6-.2 1.3-.3-.6 0-1.1 0-1.3.1.5-.6 1.8-.1 2.5-.5zm-1.1 1.2c-.8.6-1.6.6-2.2.1.2-.8 1.1-.3 2.2-.1zm-2.1-1.5c.2.9.1 1.4-.2 1.5-.2-.3-.5-.5.2-1.5zm2.3-6.7c-.3-.3-.7-1.1-.7-2.6.6 1.4.8 2 .7 2.6zM249.5 185.5c-.2-.1-.3-.2-.4-.4-.1 0-.2.1-.3.2-2.6.5-5.7-.3-9.1-2.4v.3c3.5 2.1 6.6 2.9 9.1 2.5.3-.1.6-.2.7-.2z"/><circle class="st12" cx="231.7" cy="168.3" r="19.8"/><path class="st4" d="M247.5 167.9c-.3-.3-.7-.3-1.1-.2 0-.3 0-.6.1-.8 0-.2-.4-.2-.5-.1-.2.1-.4.2-.5.4-.3 0-.5 0-.7.1-.7.3-1 1.1-1.1 1.8 0 .1-.1.3-.1.5-.1.3-.2.7-.4.8-.2.1-.3-.8-.3-.9 0-1 .2-1.9.4-2.8 0-.2-.2-.3-.4-.2-.2.1-.5.2-.6.4-.2.7-.3 1.4-.4 2.1l-.3.9c-.1 0-.1-.1-.2-.1-.5-.3-.3-1.2-.3-1.6.1-.6.2-1.2.5-1.8.1-.2 0-.3-.2-.3s-.5.2-.6.4c-.2.5-.3 1-.5 1.5-.1.5-.4 1-.6 1.3l-.1.1v-.1c-.1-.4-.1-.8 0-1.2 0-.6.1-1.2.2-1.8 0-.5-.4-.8-.9-.8s-1 .4-1.3.7c-.3.5-.5 1.2-.6 1.3-.1.5-.3 1-.6 1.4-.1 0-.1-.1-.1-.2-.1-.3-.2-.6-.2-.9-.1-.9-.1-1.7 0-2.6v-.1s-.1 0-.1-.1c-.2-.1-.5.1-.7.3-.5.6-.5 1.4-.6 2l-.3 1.2s0 .1-.1.2c-.1-.1-.2-.2-.2-.3 0-.2-.1-.2-.3-.2-.2.1-.5.3-.6.5-.2 0-.2-.2-.3-.3-.1-.3-.1-.6-.1-.9v-.6c0-.5.1-.9.1-1.4v-.4c0-.2-.3-.2-.4-.1-.2.1-.5.3-.5.6v1.6c0 .2 0 .4-.1.7 0 .3-.1.6-.2 1h-.2c-.5-.2-.5-1.1-.5-1.5 0-.6 0-1.3.2-1.8 0-.1.1-.2 0-.3-.1-.1-.3 0-.4.1-.1.1-.4.4-.6.5-.4.2-.8.1-1.1-.1-.1-.1-.2-.2-.4-.3-.4-.2-.8 0-1.1.3 0-.3-.1-.5-.2-.8-.1-.2-.5 0-.5.1-.2.1-.4.4-.3.6-.3.1-.5.3-.7.4-.6.6-.6 1.4-.6 2.1v.5c0 .1 0 .8-.2 1-.2.2-.6-.6-.6-.7-.3-.9-.3-1.9-.4-2.8 0-.2-.3-.1-.4 0-.2.1-.4.4-.4.6 0 .7.1 1.5.1 2.2 0 .3 0 .7-.1 1h-.2c-.5-.1-.6-1-.7-1.4-.1-.6-.1-1.3 0-1.9 0-.2-.1-.3-.3-.2-.2.1-.5.4-.5.6-.1.8-.1 1.6.1 2.4.1.6.4 1.5 1.1 1.4.5-.1.8-.4 1.1-.8.1.1.1.2.2.3.4.5 1.1 0 1.5-.4 0-.1.1-.1.1-.2l.3.3c.2.2.5.2.8.1.1 0 .2-.1.3-.1 0 .9.1 1.8.1 2.7 0 .2.3.2.4.1.2-.1.4-.4.4-.6v-2.1c.3 0 .7-.2.9-.5.6-.6.7-1.5.6-2.3 0-.1 0-.3-.1-.4.3 0 .5-.2.8-.3-.1.6-.1 1.2-.1 1.8 0 .6.2 1.5.9 1.6.4 0 .8-.2 1.1-.5.2.3.5.5.9.5.2 0 .3-.1.4-.2.3.3.8.3 1.2 0 .3-.3.5-.6.6-.9v.3c.1.3.1.6.3.9.2.3.6.1.9 0 .2-.1.5-.3.6-.5.1.3.2.6.4.7.4.2.9 0 1.2-.2 0 .2.1.4.3.5.5.2 1-.2 1.3-.5.1.4.2.8.7.9.5.2.9 0 1.2-.3 0 .1.1.2.1.3.3.7 1 .4 1.4.2.1 0 .1-.1.2-.1 0 .1.1.3.2.4.1.3.4.4.7.5h.3c-.2.9-.4 1.7-.7 2.6-.1.2.2.3.3.2.2 0 .5-.2.5-.4.2-.7.4-1.3.6-2 .3.1.7.1 1-.1.7-.3 1-1.2 1.2-2-.1-1 .1-2-.4-2.5zm-20.8 1.3h-.1c-.2-.1-.3-.2-.4-.3-.3-.4-.3-.9-.4-1.4 0-.4 0-.8.1-1.2h.1c.3.2.5.6.6 1 0 .6.1 1.2.1 1.9.1-.1.1 0 0 0zm1.5-.2c-.4.1-.6-.1-.6-.4 0-.7-.1-1.3-.2-2v-.5c.1 0 .2 0 .3.1l.1.1c.3.3.4.8.4 1.2.2.5.2 1 0 1.5zm10.4-2.3c-.1.8-.2 1.6-.5 2.4 0 0-.1.1-.1.2h-.1c-.2-.1-.2-.4-.3-.5-.1-.6 0-1.3.2-1.8.1-.2.2-.5.3-.5h.1c.3-.1.4.1.4.2zm6.7 2.4l-.3 1.8-.1-.1c-.1-.1-.2-.3-.2-.5-.1-.5-.1-1 0-1.5.1-.4.2-.8.4-1.1 0 0 0 .1.1.1.1.4.2.9.1 1.3zm1.5.9c-.1.5-.2 1-.5 1.3-.3-.1-.4-.4-.4-.7.1-.6.3-1.3.4-2 0-.2.1-.3.2-.5.1 0 .2.2.3.3.1.6.1 1.2 0 1.6z"/><path class="st4" d="M243.5 165.5c.1-.1.4-.3.3-.5-.1-.2-.5-.1-.6 0-.3.2-.6.3-1 0-.1-.1-.3-.2-.4-.3-.2-.3-1.1.2-.9.5.7 1 1.9.7 2.6.3zM218.4 167c-.1-.4-.2-.7-.3-1.1.8-.2 1.5-.5 2.2-.8.2-.1.4-.4.5-.6 0-.2-.1-.3-.3-.2-1.3.6-2.8.9-4.1 1.4-.5.2-1.1.6-1.3 1.1-.3.6-.2 1.2.1 1.7.2.3.9-.6.7-.9l-.3-.6v-.1c.3-.3.8-.4 1.2-.5.1 0 .2-.1.3-.1.2.4.3.8.4 1.2-.5.3-.8.8-1.1 1.2-.5 1-.6 3.7 1.2 3.4 1.2-.2 1.3-1.6 1.2-2.6-.1-.5-.1-1.1-.2-1.6h.3c.7.1 1 .7 1.1 1.3.1.5 0 1.2-.4 1.6-.1.1-.3.5-.2.7.1.2.4-.1.5-.2.9-1 1.3-2.7.4-3.9-.4-.5-1.2-.6-1.9-.4zm-.4 4.1c-.3 0-.5-.1-.7-.2-.5-.4-.6-1.5-.2-2.2.2-.3.4-.4.7-.6.2.6.3 1.3.4 1.9 0 .3.1.6.1.9v.1c-.2.1-.3.1-.3.1z"/><g><path class="st4" d="M236.6 177.1c-.2.3-.6-.5-.6-.6 0-.1-.1-.2-.1-.3-.1-.2-.2-.5-.2-.7v-.1c-.1-.2-.3.2-.3.4.1.3.2.6.2 1 0 .2.1.3.1.5s0 .3-.2.2c-.5-.2-.5-1.3-.5-1.7 0-.3-.3.1-.3.2 0 .2 0 .9.2 1.4-.1.2-.3.4-.4.3-.1-.1-.1-.4-.2-.5-.1-.3-.3-.3-.6-.2 0-.1 0-.3.1-.4 0-.1.1-.2.3-.2.2.1.5-.4.3-.4-.4-.2-.7 0-.9.5 0-.3-.1-.5-.2-.8-.1-.2-.4.2-.4.4.2.5.2 1.1.2 1.7-.2.2-.5.5-.6.2-.1-.2-.1-.5-.1-.7v-.6-.2c-.1-.6-.7-.3-.9.1-.3.4-.4.9-.4 1.4-.3.1-.4.1-.5-.3-.1-.5 0-1.1.1-1.6 0-.3-.4 0-.4.1-.2.2-.3.5-.4.8-.1.2-.1.3-.2.5 0 .1-.1.2-.1.3-.1.2-.2 0-.2-.1s0-.1-.1-.1h-.1c-.2 0-.3.1-.5.1 0-.1-.1-.2-.2-.3.3-.3.5-.8.6-1.2 0-.3 0-.6-.3-.6-.4-.1-.8.3-1 .6-.1.2.5.1.5 0s.1-.4.2-.2c.1.1 0 .3 0 .4 0 .2-.2.7-.4.8h-.2c-.1 0-.3.1-.3.2-.1.1-.1.1 0 .1h.3c.1 0 .2.1.2.3-.5.2-1.1.4-1.4.9-.4.5.2 1 .8.9.7-.1 1-.8 1.1-1.4v-.2h.2c0 .4.6.4.9.2.1-.1.2-.2.2-.3 0 .2.1.3.1.4.2.3.7.2 1 0 .1.3.5.4.8.1l.1-.1c0 .1.1.2.1.2.2.2.7-.1 1-.4v.3c0 .3.5-.1.5-.3v-.7c.3 0 .2.8.5.8.3.1.6-.2.8-.5.1.2.3.3.6.2.2-.1.4-.3.5-.5.3.4.7 0 .9-.3.2-.2-.1-.3-.2 0zm-8.5 1c-.1.4-.2.8-.6 1-.1.1-.2 0-.3-.1-.1-.2 0-.3.1-.4.2-.3.5-.5.8-.6v.1zm3.5 0c-.1 0-.1-.1-.2-.2-.1-.2-.1-.5 0-.8 0-.1.1-.3.1-.4 0-.1.1-.1.1-.2.1-.1.2.1.2.2 0 .3 0 .7-.1 1 .1.2 0 .4-.1.4z"/></g><g><path class="st4" d="M230.3 181.5c.1.8-.1 1.6-.2 2.4 0 .3.5 0 .5-.2.1-.4.1-.7.2-1.1.1-.2.2-.8.4-.5.1-.1.3-.2.4-.4-.8-.5-1.2.7-1.4 1.3 0 .1.1.1.2.1.5-.2.3.6.4.8.2.3.6 0 .8-.1.3-.2 0-.4-.2-.2s-.2-.3-.2-.3c0-.1 0-.3-.1-.4-.2-.3-.4-.2-.7-.1.1 0 .1.1.2.1.1-.2.1-.9.5-.7.2.1.5-.3.4-.4-1-.8-1.5 1.7-1.6 2.2.2-.1.3-.1.5-.2.1-.8.2-1.6.1-2.5.2-.3-.3 0-.2.2zM239.2 180.1c-.3-.6-.8.1-1 .5-.2.6-.1 1.1.2 1.6.2.4.7.4 1-.2.4-.7 0-1.4-.2-1.9-.1.1-.2.3-.3.4.1.4.6 2.3 1.3 1.3.2-.2 0-.6-.2-.2-.1.1-.4-.4-.4-.4-.1-.4-.2-.8-.4-1.1-.1-.2-.4.3-.3.4.1.3.2.7.3 1 0 .1.1.4 0 .4s-.2 0-.2-.1c-.2-.2-.3-.4-.3-.7v-.4-.2c0-.2.3 0 .3 0 0 .2.3-.3.2-.4zM226.2 182.7c-.1.5.4.8.9.6.5-.2.6-.6.7-1.1.1-.3.1-.9-.2-1.1-.1-.1-.4-.1-.6 0-.3.1-.5.4-.6.6-.1.2.5.1.5-.1.1-.3.2-.3.3 0v.6c0 .2-.1.4-.2.6 0 .1-.1.1-.2.2l-.1-.1c-.2-.1-.2-.2-.2-.3.3-.2-.2-.1-.3.1z"/><path class="st4" d="M226.7 180.7c-.2 1.3-.5 2.5-1 3.7-.1.2.5.1.6 0 .5-1.2.8-2.5 1-3.8-.1-.2-.6-.1-.6.1zM232.1 181.9c.1.7 0 1.4 0 2 0 .2.5-.1.5-.2 0-.5 0-1 .1-1.4 0-.1 0-.1.1-.2v-.1c.1-.1 0-.1-.1 0 .1 0 .1.2.1.2.2.5.1 1.1.1 1.7.2-.1.3-.2.5-.3 0-.5 0-1 .1-1.5 0-.1 0-.2.1-.3-.1.2-.1.1 0 .2.1.2.1.5.1.7 0 .3-.1.8.2 1 .2.2.6-.1.7-.3.3-.3 0-.4-.2-.2-.1.1-.1-.2-.2-.3 0-.3-.1-.6-.1-.8 0-.2-.1-.8-.4-.8-.3 0-.5.5-.6.7-.2.5-.2 1.2-.2 1.7 0 .3.5-.1.5-.3 0-.4 0-.9-.1-1.3 0-.2-.1-.8-.3-.8-.3-.1-.5.3-.6.5-.2.6-.3 1.2-.3 1.9.2-.1.3-.2.5-.2 0-.7 0-1.4-.1-2 0-.1-.4.2-.4.4z"/><path class="st4" d="M235.4 181.1c-.5.2-.7.8-.7 1.3 0 .4.1 1.3.7 1.2.7-.1.8-.9.8-1.3s-.2-1.3-.8-1.2c-.2 0-.4.5-.2.5.3 0 .4.3.5.6.1.2.1.4.1.5v.2c0 .1-.1.2 0 .2-.3.2-.5-.4-.5-.5-.1-.2-.1-.4-.1-.5v-.3c0-.1.1-.1 0-.1.2-.1.4-.6.2-.6zM237 182.8c.8-.4.8-1.4.5-2-.1-.2-.3-.4-.6-.3-.5.2-.6.8-.5 1.2 0 .2.4-.2.4-.4 0-.1-.1-.4.1-.3.1.1.2.2.2.3.1.2.2.8 0 1-.1.1-.4.6-.1.5z"/><path class="st4" d="M237.8 182.5c-.6.6-1.1 1.5-.9 2.2.2.6 1.1-.2 1.3-.5.3-.7.1-2.8-1.1-1.8-.2.2-.3.6 0 .4.6-.5.8.9.8 1.1 0 .2-.1.6-.4.5-.5-.2.1-1.2.4-1.5.1-.2.1-.7-.1-.4zM225.3 180.9c.1-.5-.1-1.1-.7-.9-.4.1-.6.5-.8.8-.2.3-.3.8-.1 1.2.3.5 1 .2 1.2 0 .2-.2-.4-.2-.5-.1-.1.2-.2-.3-.2-.3 0-.2 0-.5.1-.7.1-.2.2-.4.3-.5l.1-.1s.1 0 0 .1c.1.2.1.5 0 .6 0 .1.6.1.6-.1z"/><path class="st4" d="M224.4 181.9c-.1.5.4.8.9.7.5-.1.7-.6.8-1 .1-.3.2-.8-.1-1.2-.1-.2-.4-.1-.6-.1-.3.1-.5.3-.6.6-.1.2.5.2.5 0 .1-.3.2-.3.3 0v.6c0 .2-.1.4-.2.6 0 .1-.1.1-.2.2l-.1-.1c-.2-.1-.2-.2-.1-.4 0-.2-.5-.1-.6.1z"/><path class="st4" d="M225 180c-.3 1.3-.7 2.5-1.3 3.6-.1.2.5.2.6 0 .6-1.1 1-2.4 1.3-3.7 0-.2-.6-.1-.6.1zM228.4 181.6c-.1.4-.8 2.1.1 2.2 1.1.1 1.2-1.6 1.4-2.2 0-.2-.4 0-.5.2-.1.4-.2.9-.4 1.3-.1.2-.1.5-.3.3-.2-.2 0-.7 0-.9.1-.3.2-.6.2-1 0-.3-.5-.1-.5.1z"/><path class="st4" d="M229.4 181.8c-.1.9-.2 1.7-.3 2.6 0 .2-.1 1-.5.9-.7-.3.7-1.4.8-1.5.3-.2-.1-.3-.3-.1-.5.4-1.3.9-1.2 1.6 0 .3.5.5.8.4.6-.2.8-.7.9-1.2.2-.9.2-1.9.3-2.9 0-.3-.5 0-.5.2z"/></g><circle class="st8" cx="215.8" cy="186" r="6.2"/><path class="st13" d="M222.3 144.1c0 1.4-1.1 2.5-2.5 2.5s-2.5-1.1-2.5-2.5 1.1-2.5 2.5-2.5c1.3-.1 2.5 1.1 2.5 2.5z"/><path class="st10" d="M222.4 152.6c0 1.8-1.5 3.3-3.3 3.3-1.8 0-3.3-1.5-3.3-3.3 0-1.8 1.5-3.3 3.3-3.3 1.8 0 3.3 1.5 3.3 3.3zM213.7 147.6c0 1.1-.9 1.9-1.9 1.9-1.1 0-1.9-.9-1.9-1.9 0-1.1.9-1.9 1.9-1.9 1-.1 1.9.8 1.9 1.9z"/><g><circle class="st8" cx="248.6" cy="150.2" r="10.9"/><path class="st4" d="M245.9 148.7c-.9.1-1.2 1.2-1.2 1.9v.3c0 .4 0 .6-.1 1 0 .1-.1.4-.1.4-.3 0-.6-.5-.7-.7-.2-.6-.4-1.1-.5-1.7-.1-.6-.2-1.3-.2-1.9v-.8-.3-.2c.1-.5-.6 0-.7.2-.7 1.3-.5 2.8-.5 4.2 0 .4 0 .8-.1 1.1 0 .3-.1.7-.3.9-.1.1-.4 0-.5 0-.2-.1-.3-.3-.3-.5s-.3-.1-.4 0c-.2.2-.3.4-.3.6.1.5.5.9 1 .8.8-.2 1.2-1.2 1.4-2 .1-.4.1-.7.2-1.1.1.5.3 1.1.5 1.6.2.4.5.7 1 .6.3-.1.6-.4.7-.8.2.4.4.6.8.6.5 0 .8-.5 1-.9.2-.4.3-.9.3-1.4.1-.7-.1-2-1-1.9zm.3 3.1c0 .1 0 .2-.1.3-.2 0-.3-.3-.4-.4-.1-.3-.2-.6-.2-1v-1c0-.1 0-.2.1-.3.5.3.5.9.6 1.4 0 .3.1.7 0 1zM256.8 150c-1-.4-1.5 1-1.7 1.7-.2.7-.4 1.9.5 2.2.4.2.9-.1 1.1-.4.3-.3.5-.8.6-1.2.2-.7.4-2-.5-2.3zm-.6 3.1c0 .1-.1.2-.1.2-.2-.1-.2-.4-.2-.5-.1-.3 0-.7 0-1 .1-.3.2-.7.3-1 0-.1.1-.1.1-.2.4.4.3 1 .2 1.5-.1.4-.2.7-.3 1zM254.1 150.1c.2-.2.4-.5.5-.8.4-.5.7-1.2.7-1.9 0-.6-.9-.7-1.3-.5-.6.3-1 1-1.2 1.6-.2.8-.4 1.7-.4 2.6-.3.4-.9 1.1-1.4.8-.1-.1-.2-.2-.2-.4.4-.4.8-.9 1.1-1.3.3-.4.5-1.2-.1-1.5-.5-.3-1.1 0-1.4.4-.3.4-.5.9-.5 1.4 0 .3-.1.7 0 1.1-.3.2-.6.3-1 .2-.4-.1-.5-.5-.6-.8-.1-.4-.1-.9 0-1.4 0-.1.1-.3.1-.4v-.1c.2.1.3.5.4.6.1.3.9-.2.8-.5-.1-.3-.2-.6-.6-.8-.3-.2-.8.1-1 .3-.6.6-.7 1.5-.6 2.2 0 .5.1 1.1.6 1.4.6.4 1.4 0 2-.3.1.4.4.6.9.6.6-.1 1.1-.4 1.5-.8 0 .4.1.9.4 1.1.5.3 1.2 0 1.5-.5.4-.6.7-1.4.4-2.1 0 0-.3-.2-.6-.2zm-3.3-.3c0-.1.1-.2.2-.4.2.1.3.4.3.5-.1.4-.3.7-.6 1v-.2c0-.2 0-.6.1-.9zm3.2-1.8c.1-.1.1-.3.2-.4.4.4 0 1-.2 1.4-.2.4-.4.8-.7 1.1.1-.4.1-.8.2-1.1.2-.3.3-.7.5-1zm-.2 4.4s-.1.1-.1.2h-.1c-.2-.1-.3-.7-.3-.9v-.6l.3-.3c.2-.1.4.1.4.4.1.4-.1.9-.2 1.2z"/></g><g><path class="st4" d="M211.5 185c.2-.6.7-.2.8.1.2.4 0 .9-.3 1.2-.2.3-.5.5-.8.7-.2.1-.3.2-.4.3 0 .1-.1.2 0 .2.2.2.7.2.9.2.5 0 1 0 1.4-.2.2-.1.5-.7 0-.5-.3.2-.7.1-1.1.1-.2 0-.6 0-.7-.1v.2c-.2.3-.1.2.1.1.1-.1.3-.2.4-.3.2-.2.4-.4.6-.7.4-.5.6-1 .5-1.6-.2-1.4-1.7-.4-2 .4-.1.5.5.1.6-.1zM215 187.2c.5 1.5 2.7.5 2.4-.9-.2-.7-1-.6-1.5-.7-.3-.1-.3-.3-.3-.6.1-.3.1-.3-.1-.2.1 0 .2 0 .3-.1.5-.1 1-.1 1.4.1.2.1.7-.4.4-.5-.5-.3-1.2-.2-1.8-.1-.6.1-.7.6-.7 1.2s.6.7 1.1.8c.4.1.7.2.8.6.1.7-.7.6-1 .4-.2-.1-.2-.3-.3-.5-.3-.2-.8.3-.7.5zM220.2 184.5c-.6 1.1-1.4 2-2.2 3-.3.4.2.4.4.1.8-1 1.6-2.1 2.3-3.2.3-.4-.3-.2-.5.1zM219 184.2c-.4 0-.7.4-.7.7-.1.3.1.6.5.6.7.1 1.1-1.3.2-1.3-.2 0-.5.4-.2.4.2 0 .3.2.3.3v.2c0 .1 0 0 0 0h-.1c-.2 0-.3-.2-.3-.3v-.2h.1c.2 0 .5-.4.2-.4zM220.1 186.4c-.4 0-.7.4-.7.7-.1.3.1.6.5.6.7.2 1.1-1.2.2-1.3-.2 0-.5.4-.2.4.2 0 .3.2.3.3v.2c0 .1 0 0 0 0h-.1c-.2 0-.3-.2-.3-.3v-.2h.1c.2.1.5-.4.2-.4zM214.1 188.6c.3-.2.5-.6.5-1 0-.1 0-.3-.1-.3-.1-.1-.4 0-.5 0-.2.1-.3.3-.3.4 0 .2.2.1.3.1v.1c0 .1 0 .1-.1.2v.2c.1-.1 0 0 0 0-.1.1-.3.3-.1.4 0 .1.2-.1.3-.1z"/></g><g><path class="st11" d="M207.6 160c-.1 0-.2-.2-.3-.2-.4-.2-.7.1-1.1.1-.9 0-1.3 0-2.4-.3 0-1 .6-1.6.8-2.3.2-.7-.1-1.5-.1-2.2v-1.4c-.3.3-.2 1.2-.2 1.6-.1-.6-.1-1.4-.3-1.9-.1.6 0 1.3 0 1.9-.2-.5-.2-1.2-.4-1.6-.3.5.2 1.3.1 1.8-.2-.5-.3-1-.5-1.5-.1.6.2 1.2.2 1.6-.2-.4-.3-.8-.6-1.1 0 .4.3.9.4 1.3-.3-.1-.4-.5-.6-.6 0 .3.3.5.4.8-.2-.1-.3-.3-.5-.4 0 .3.3.4.3.6-.1-.1-.3-.2-.4-.3 0 .2.3.4.3.5 0 0-.2-.1-.2 0 0 0 .2.1.1.2h-.2c0 .2.2.1.1.3-.1 0-.1-.1-.1 0s.1.1.1.2c-.8.8-.4 1.8-.5 2.7.1-.1-.7-.3-1.2-.5-.3-.1-.4-.5-.6-.6 0-.1.1 0 .1-.1-.1 0-.2-.1-.2-.2.1 0 .3.1.3 0-.1-.1-.5-.2-.5-.3.2 0 .4.1.5.1-.2-.1-.6-.3-.6-.5.2.1.5.3.7.2-.3-.2-.8-.4-.9-.7.2.1.6.4.8.4-.4-.1-.7-.6-1.1-.6.2.4.8.6.9.8-.3-.2-.6-.3-1-.5.1.4.6.5.9.7-.3 0-.5-.2-.8-.2.1.3.6.2.7.5-.1-.1-.3 0-.5 0 0 .2.4.2.5.3-.2 0-.3 0-.4.1.1.1.3.1.4.2-.1 0-.2 0-.2.1s.3 0 .3.1c-.1 0-.1.1-.1.1h.2c-.1 0-.1 0-.1.1.4.2.7.9 1.3 1.1-.3.2.3.4-3.5 1.8.1 0 1.7-.4 2.1-.5.5-.2.9-.3 1.4-.4.1 0 .2-.1.3-.1.8-.1 1.5.1 2.3-.4-.6.1-1.6.2-2-.1.5-.8.2-2.8.6-3.3.4-.4 1.1-1.7 1.9-.6.1.2.1.4-.1.9-.3.6-.6.8-.5 2.1 0 .2 0 .5-.4.5 1.6.3 2.1.2 3.1 0 .3 0 .8-.3.8 0 0 .1-.3.1-.6.1-.5 0 .2.2.4.2.1 0 1-.1 1.4-.2-.5-.4-.7-.4-1-.4z"/><path class="st11" d="M202.8 151.5c-3.8 0-6.9 3.1-6.9 6.9 0 3.8 3.1 6.9 6.9 6.9 3.8 0 6.9-3.1 6.9-6.9-.1-3.9-3.2-6.9-6.9-6.9m0 .2c3.6 0 6.6 3 6.6 6.6 0 3.6-3 6.6-6.6 6.6-3.6 0-6.6-3-6.6-6.6-.1-3.6 2.9-6.6 6.6-6.6"/></g></g></g></svg>