<?xml version="1.0" encoding="utf-8"?>
<!-- Generator: Adobe Illustrator 19.0.0, SVG Export Plug-In . SVG Version: 6.00 Build 0)  -->
<svg version="1.1" id="Layer_1" xmlns="http://www.w3.org/2000/svg" xmlns:xlink="http://www.w3.org/1999/xlink" x="0px" y="0px"
	 viewBox="0 0 130 250" style="enable-background:new 0 0 130 250;" xml:space="preserve">
<style type="text/css">
	.st0{fill:#519E38;}
	.st1{fill:#F4F4F4;}
	.st2{fill:#D6D6D6;}
	.st3{fill:#EAEAEA;}
	.st4{fill:#FFFFFF;}
	.st5{fill-rule:evenodd;clip-rule:evenodd;fill:#904720;}
	.st6{fill-rule:evenodd;clip-rule:evenodd;fill:#EDA820;}
	.st7{fill:#E90E8A;}
	.st8{fill:#62BA47;}
	.st9{fill-rule:evenodd;clip-rule:evenodd;fill:#E90E8A;}
	.st10{fill-rule:evenodd;clip-rule:evenodd;fill:#62BA47;}
	.st11{fill:#62BA46;}
</style>
<g>
	<path class="st0" d="M105.4,212.2c0,0,0-63.1,0-97.4c0-34.3-14.2-47.4-14.2-47.4c3.8-21.2-6.4-27.6-6.4-27.6v-7.7h2.2
		c0,0,0-8.2,0-10.9c0-2.7-3.8-2.4-3.8-2.4h-14h-1.3H54c0,0-3.8-0.3-3.8,2.4c0,2.7,0,10.9,0,10.9h2.3v7.7h-0.1c0,0-10.2,6.4-6.4,27.6
		c0,0-14.2,13.1-14.2,47.4c0,34.3,0,97.4,0,97.4s-1.5,20.9,14,20.9c4.2,0,7.7,0,10.6,0c7.9,0,11.5,0,11.5,0h0.7h0.8h0.1h11.4h0.1
		c2.9,0,6.4,0,10.5,0c0,0,0,0,0.1,0C106.8,233.1,105.4,212.2,105.4,212.2z"/>
	<path class="st1" d="M97.9,207.3c0,0,0-63.1,0-97.4c0-34.3-14.2-47.4-14.2-47.4c3.8-21.2-6.4-27.6-6.4-27.6v-7.8H45v7.8h-0.1
		c0,0-10.2,6.4-6.4,27.6c0,0-14.2,13.1-14.2,47.4c0,34.3,0,97.4,0,97.4s-1.5,20.9,14,20.9c4.2,0,7.7,0,10.6,0c7.9,0,11.5,0,11.5,0
		h1.6h11.5c2.9,0,6.4,0,10.6,0C99.4,228.2,97.9,207.3,97.9,207.3z"/>
	<path class="st2" d="M75.6,13.9h-14h-1.3h-14c0,0-3.8-0.3-3.8,2.4c0,2.7,0,10.9,0,10.9h17.7h1.3h17.7c0,0,0-8.2,0-10.9
		C79.4,13.6,75.6,13.9,75.6,13.9z"/>
	<path class="st3" d="M97.8,207.3c0,0,0-63.1,0-97.4c0-34.3-14.2-47.4-14.2-47.4c3.8-21.2-6.4-27.6-6.4-27.6v-7.8H61v201.2h0.8h11.5
		c2.9,0,6.4,0,10.6,0C99.3,228.2,97.8,207.3,97.8,207.3z"/>
	<path class="st4" d="M36.2,98.6c-0.2,0-0.4,0-0.5,0c-2.2-0.3-3.8-2.3-3.5-4.6c1.8-14.1,8.6-22.6,8.9-23c1.4-1.8,4-2,5.7-0.6
		c1.7,1.4,2,4,0.6,5.7c-0.1,0.1-5.7,7.3-7.2,18.9C40,97.1,38.2,98.6,36.2,98.6z"/>
</g>
<g>
	<g>
		<path class="st5" d="M85.7,150l-0.1,0.2C85.6,150.1,85.7,150.1,85.7,150L85.7,150z M87.1,149.5L87.1,149.5l-0.2,0.3
			C86.9,149.7,87,149.6,87.1,149.5L87.1,149.5z M92.2,150.4L92.2,150.4c0,0,1.1,0.2,1.9,0.8c-0.5-0.4-1.3-0.8-2.1-0.9
			c-0.7-0.2-1.2-0.3-1.6-0.2c0.4-0.2,0.6-0.3,0.8-0.3c0.6,0,1.1,0.2,1.8,0.6c-0.6-0.4-1.6-0.7-2.4-0.7c-0.4-0.1-0.8-0.1-1.2,0.1
			l0.8-0.5c0.5,0,1.1,0,1.8,0.3c-0.5-0.2-1.3-0.4-2-0.4c-0.8-0.1-1.4,0.1-1.9,0.5l0.7-0.7c0.5-0.1,1-0.1,1.8-0.1
			c-0.7-0.1-1.6-0.1-2.3,0.1c-0.6,0.2-1,0.3-1.3,0.6l0.4-0.6c0.6-0.3,1.8-0.5,2.3-0.5c-1.2-0.1-3.1,0.6-3.3,0.8
			c-0.4,0.2-0.6,0.5-0.8,0.8l0.4-0.8c0.6-0.4,1.3-0.7,2.3-0.8c-0.8,0.1-1.6,0.3-2.4,0.7c-0.8,0.4-1.3,0.9-1.5,1.6l0.2-0.9
			c0.5-0.5,1.3-1,2.3-1.3c-1,0.2-2,0.8-2.7,1.5c-0.3,0.4-0.6,0.7-0.6,1.1c0-0.2-0.1-0.3-0.1-0.3c0.2-0.3,1.2-1.4,2.2-2
			c-1.4,0.8-2.1,1.6-2.4,2.1c-0.5,0.7-0.5,1.4,0,2c0.4,0.3,0.9,0.3,1.6-0.1c0.6-0.1,1.2-0.1,2.1,0c-0.6-0.2-1.3-0.2-2-0.2l-0.1,0
			c0.3,0,0.6-0.1,1-0.3c0.5,0,1.1,0.1,1.7,0.4c-0.4-0.2-1.1-0.4-1.7-0.5l-0.3-0.1c0.4,0.1,0.8,0.2,1.3,0.1c0.4,0.1,1,0.2,1.4,0.2
			c-0.6-0.1-1-0.2-1.4-0.3l-0.7-0.5c0.6,0.3,1.1,0.3,1.8,0.3c0.4,0.1,0.9,0.3,1.3,0.5c-0.3-0.2-0.8-0.5-1.3-0.6l-0.6-0.4
			c0.4,0.2,0.9,0.3,1.4,0.5c0,0,0.7,0.2,1.2,0.5c-0.3-0.3-0.8-0.5-1.3-0.7l-0.3-0.4l0.2,0.1c0.3,0.2,0.6,0.3,1,0.3
			c0.3,0.1,0.6,0.3,1,0.6c-0.3-0.2-0.6-0.4-0.9-0.6l-0.3-0.5c0.5,0.3,1.1,0.6,1.8,0.8c0.3,0.2,0.6,0.4,0.9,0.6
			c-0.2-0.2-0.5-0.4-0.8-0.6c-0.1-0.2-0.3-0.4-0.5-0.6c0.3,0.2,0.9,0.4,1.7,0.7l0,0c0.3,0.2,0.6,0.4,0.9,0.6c-0.3-0.3-0.6-0.5-1-0.7
			l-0.6-0.6l0.2,0.1c0.6,0.1,1.1,0.4,1.7,0.9c-0.4-0.4-1-0.8-1.6-1c0.4,0.1,0.9,0.1,1.4,0.1c0.6,0.1,1.1,0.4,1.7,0.9
			c-0.3-0.4-0.9-0.7-1.5-1c-0.7-0.4-1.4-0.7-2-0.8L92.2,150.4z"/>
		<path class="st6" d="M85.7,152.2c-0.8-0.3-1.5-0.4-1.7-0.1C84.3,152.5,84.6,152.5,85.7,152.2L85.7,152.2z M86.7,152L86.7,152
			c-0.8-0.7-1.6-0.9-1.9-0.7C84.9,151.9,85.6,152,86.7,152L86.7,152z M87.7,151.7L87.7,151.7c-0.8-0.7-1.7-1-2-0.8
			C85.8,151.4,86.6,151.6,87.7,151.7L87.7,151.7z M88.4,151.6L88.4,151.6c-0.6-0.8-1.3-1.2-1.7-1.1C86.7,151,87.4,151.3,88.4,151.6
			L88.4,151.6z M89.4,151.5L89.4,151.5c-0.6-0.8-1.1-1.2-1.5-1C87.9,150.8,88.4,151.2,89.4,151.5L89.4,151.5z M89.1,150.6
			L89.1,150.6c0.1,0.3,0.6,0.6,1.7,1C90,150.8,89.5,150.5,89.1,150.6L89.1,150.6z M90,150.7L90,150.7c0.1,0.3,0.8,0.7,2,1.1
			C91.1,150.9,90.5,150.5,90,150.7L90,150.7z M89.8,150.4L89.8,150.4c0.3,0.2,1,0.1,2.1-0.1C90.7,150.1,90,150.1,89.8,150.4
			L89.8,150.4z M88.8,150.4L88.8,150.4c0.2-0.1,0.4-0.2,0.5-0.2c-0.1,0-0.2,0.1-0.3,0.2c0.8-0.1,1.2-0.6,1.8-0.8
			C89.7,149.6,88.9,149.8,88.8,150.4L88.8,150.4z M88.1,150.2L88.1,150.2c0.1-0.1,0.4-0.3,0.5-0.3c-0.1,0.1-0.3,0.2-0.4,0.4
			c0.6-0.1,1-0.7,1.8-1.1C88.8,149.2,87.9,149.6,88.1,150.2L88.1,150.2z M86.9,150.3L86.9,150.3c0.1-0.2,0.4-0.3,0.5-0.3
			c-0.1,0.1-0.3,0.2-0.4,0.4c0.5-0.2,1-0.9,1.7-1.4C87.5,149.1,86.7,149.7,86.9,150.3L86.9,150.3z M85.8,150.7L85.8,150.7
			c0.1-0.2,0.3-0.4,0.4-0.4c-0.1,0.1-0.2,0.3-0.2,0.5c0.5-0.3,0.7-1,1.3-1.7C86.1,149.4,85.4,150.2,85.8,150.7L85.8,150.7z
			 M85.8,149.4L85.8,149.4c-0.9,0.5-1.5,1.2-1.2,1.9c0.2-0.4,0.4-0.7,0.6-0.8c-0.2,0.2-0.3,0.5-0.4,0.8
			C85.4,150.9,85.4,150.2,85.8,149.4L85.8,149.4z M84.5,150L84.5,150c-0.8,0.5-1,1.2-0.7,2c0.1-0.1,0.2-0.5,0.3-1
			c0,0.5,0,0.9-0.1,1.1C84.6,151.6,84.1,150.6,84.5,150L84.5,150z M83.5,150.9L83.5,150.9c-0.5,0.7-0.6,1.3-0.1,1.8
			C84.1,152.5,83.6,151.8,83.5,150.9L83.5,150.9z M84.8,152.6L84.8,152.6c-0.8-0.2-1.2-0.1-1.3,0.2
			C83.7,152.9,83.8,153.1,84.8,152.6L84.8,152.6z M90.8,150.7L90.8,150.7c0.3,0.2,1,0.5,2.3,0.5C91.9,150.7,91.3,150.5,90.8,150.7
			L90.8,150.7z"/>
		<path class="st5" d="M73.8,151.9c0.6,0.3,1,0.7,1.4,1.2c1.7,2.6,2.4,4.2,2.7,4.5c0.2,0.4-0.2,0.9-1,1.4c-0.4,0.2-3.3-1.9-7.7-4.3
			l0-1c1.6,0.5,3.1,1.3,4.4,2.3c1.6,1.2,2.8,1.9,3.4,2.1c0.1-0.3-0.4-1.4-1.6-3.4c-0.3-0.6-0.5-1.1-0.6-1.5
			C74.5,152.8,74.2,152.4,73.8,151.9L73.8,151.9z"/>
		<path class="st6" d="M77,158.2l0,0.2c-0.5,0-1.5-0.5-3-1.4c1.3,0.9,2.3,1.4,2.9,1.5c-0.2,0.2-0.8,0-1.7-0.5
			c0.8,0.5,1.3,0.7,1.6,0.7c0,0.1,0,0.1-0.1,0.2c-0.6,0-3.2-1.7-7.6-4.3l0-0.6c2.4,0.7,3.4,1.7,4.6,2.5
			C75.4,157.4,76.4,158.3,77,158.2L77,158.2z M74.2,152.3L74.2,152.3c1,0.8,1.3,1.8,2.2,3.2c0.6,1,1,1.8,1.3,2.2
			c0,0.4-0.2,0.7-0.7,0.9c0.4-0.4-0.3-1.8-1-2.9C75.1,154.1,75.3,153.5,74.2,152.3L74.2,152.3z"/>
		<path class="st5" d="M83.7,145.8c0.6-1.8,1.3-2.7,1.9-3.5c-0.9,1.5-1.2,1.9-1.6,3l0,0.5c0-0.3,0.1-0.6,0.3-0.9
			c0.6-1.8,1.5-2.7,2.1-3.5c-0.9,1.5-1.3,1.9-1.7,3l0.1,0.4c0.1-0.5,0.3-0.9,0.5-1.2c0.8-1.7,1.5-2.2,2.2-3c-1.1,1.5-1.6,1.9-2,3.1
			l0.1,0.4c0.1-0.5,0.2-0.7,0.4-1c1-1.8,1.8-2.3,2.5-3.1c-1.2,1.5-1.7,1.8-2.3,3c0,0.1,0.1,0.2,0.1,0.3c0.1-0.5,0.4-1,0.8-1.5
			c0.5-0.6,1.5-1.7,2.5-2.7c-1.2,1.3-2.2,2.5-2.4,2.9l0,0.2c0.2-0.4,0.5-0.7,0.7-0.9c0.4-0.5,1.4-1.5,2.5-2.6
			c-1.1,1.2-2.2,2.4-2.5,2.7l0,0.5c0.4-0.4,0.9-0.7,1.4-1c0.5-0.4,1.4-1.4,2.4-2.5c-0.8,1-1.7,2-2.3,2.5c-0.2,0.6-0.5,1.1-0.9,1.6
			c0.1,0,0.3,0,0.5-0.1c0.4-0.3,1.5-1.4,2.5-2.6c-1,1.2-2.2,2.5-2.6,2.9c-0.2,0.2-0.4,0.5-0.7,0.7l0.3,0c0.3-0.2,1.1-1,2.3-2
			c-0.9,1-1.8,1.8-2.3,2.2c-0.2,0.2-0.4,0.4-0.8,0.6l0.4,0c0.4-0.3,1.1-1,2.1-1.9c-1,1-1.8,1.8-2.3,2.2c-0.2,0.2-0.5,0.4-0.8,0.6
			l0.4,0c0.4-0.3,1.1-0.8,2-1.5c-0.9,0.8-1.6,1.4-2.2,1.8c-0.3,0.2-0.6,0.4-0.9,0.6l0.4,0c0.4-0.2,1.1-0.7,2-1.4
			c-0.8,0.7-1.5,1.2-2.1,1.6c-0.3,0.3-0.5,0.5-0.9,0.8l0.1,0.1c0.5-0.3,1.3-0.8,2.1-1.4c-0.9,0.8-1.6,1.3-2.2,1.7
			c-0.2,0.2-0.4,0.4-0.7,0.5l0.2,0c0.4-0.2,1.1-0.7,2.1-1.4c-0.9,0.8-1.6,1.4-2.3,1.7c-0.9,0.9-1.7,1.3-2.6,1.1
			c-0.5-0.7-0.5-1.5,0-2.5c0.7-2,1.4-2.8,2-3.6c-0.9,1.5-1.2,2-1.6,3.1l0.1,0.4C83.4,146.4,83.6,146,83.7,145.8L83.7,145.8z"/>
		<path class="st6" d="M88.1,144.6c-0.7,0.7-1,0.9-2,0.7c0.2-0.1,0.2-0.2,0.8-0.4c-0.6,0-0.6,0.1-0.8,0.2
			C86.8,144.2,87.3,144.6,88.1,144.6L88.1,144.6z M85.2,148.2L85.2,148.2c-0.6,0.9-1.1,1.2-2.1,1.2c0.1-0.2,0.5-0.4,1.2-0.7
			c-0.6,0.2-1,0.4-1.2,0.5C83.6,148.1,84.5,148.4,85.2,148.2L85.2,148.2z M85.9,147.4L85.9,147.4c-0.7,0.7-1.1,1-2.1,0.7
			c0.2-0.1,0.6-0.4,1.3-0.5c-0.6,0-1.1,0.2-1.3,0.3C84.6,147.1,85.1,147.4,85.9,147.4L85.9,147.4z M86.7,146.5L86.7,146.5
			c-0.7,0.7-1.1,1-2.1,0.7c0.2-0.1,0.6-0.4,1.3-0.5c-0.6,0-1.1,0.2-1.3,0.3C85.4,146.1,85.9,146.5,86.7,146.5L86.7,146.5z
			 M87.4,145.5L87.4,145.5c-0.7,0.7-1.1,1-2.1,0.7c0.2-0.1,0.4-0.3,1-0.4c-0.6,0-0.8,0.1-1.1,0.2C86.1,145.2,86.7,145.5,87.4,145.5
			L87.4,145.5z M88.4,143.8L88.4,143.8c-0.7,0.7-0.9,0.8-1.8,0.6c0.1-0.1,0.1-0.2,0.8-0.3c-0.6,0-0.6,0-0.8,0.1
			C87.2,143.6,87.7,143.8,88.4,143.8L88.4,143.8z M88.9,142.8L88.9,142.8c-0.5,0.7-0.6,0.9-1.5,0.9c0.1-0.1,0.1-0.2,0.6-0.4
			c-0.5,0.1-0.5,0.1-0.7,0.2C87.7,142.9,88.2,142.9,88.9,142.8L88.9,142.8z M83.2,146.7L83.2,146.7c0.1,0.8,0.5,1.5-0.2,2.4
			c0.1-0.2-0.1-0.5,0-1c-0.2,0.5-0.1,0.9-0.2,1C82.4,148.2,82.6,147.6,83.2,146.7L83.2,146.7z M84,145.7L84,145.7
			c0.1,0.7,0.5,1.3-0.2,2.1c0.1-0.2-0.1-0.4,0-0.9c-0.1,0.4-0.1,0.7-0.2,0.9C83.3,147,83.4,146.5,84,145.7L84,145.7z M84.7,144.9
			L84.7,144.9c0.1,0.7,0.4,1.6-0.3,2.1C84,146.2,84.2,145.6,84.7,144.9L84.7,144.9z M85.4,144L85.4,144c0.1,0.7,0.4,1.6-0.3,2.1
			C84.8,145.3,84.9,144.7,85.4,144L85.4,144z M86.2,143.3L86.2,143.3c0.1,0.6,0.3,1.4-0.3,1.8C85.6,144.4,85.7,143.9,86.2,143.3
			L86.2,143.3z M87,142.4L87,142.4c0,0.6,0.1,1.4-0.6,1.7C86.3,143.4,86.5,143,87,142.4L87,142.4z M87.7,141.8L87.7,141.8
			c0,0.5,0.1,1.2-0.5,1.5C87.1,142.7,87.3,142.3,87.7,141.8L87.7,141.8z M89.1,141.3L89.1,141.3c-0.2,0.5-0.5,1.4-1.4,1.6
			C87.8,142,88.7,141.6,89.1,141.3L89.1,141.3z"/>
		<path class="st5" d="M79.4,156.7c-0.2,0.2-0.5,0.3-0.8,0.3c-2.9,0.4-6-0.5-9.4-2.5l0-0.6c3.4,2.1,6.4,2.9,9.2,2.5
			c0.1-0.2,0.3-0.3,0.4-0.4L79.4,156.7z"/>
		<path class="st5" d="M82.4,153.7l-0.2,0.1C82.3,153.8,82.4,153.7,82.4,153.7L82.4,153.7z M83,152.2L83,152.2l-0.4,0.2
			C82.8,152.3,82.9,152.3,83,152.2L83,152.2z M81.9,146.4L81.9,146.4c0,0-0.3-1.3-1-2.2c0.5,0.6,1,1.5,1.2,2.4
			c0.3,0.8,0.4,1.4,0.3,1.8c0.2-0.4,0.3-0.7,0.3-0.9c-0.1-0.7-0.3-1.2-0.7-2c0.5,0.7,0.9,1.8,1,2.7c0.1,0.5,0.1,0.9-0.1,1.3l0.6-0.9
			c0-0.6-0.1-1.2-0.4-2c0.3,0.6,0.5,1.5,0.5,2.3c0.1,0.9-0.1,1.6-0.6,2.1l0.9-0.8c0.2-0.6,0.2-1.2,0.1-2c0.2,0.8,0.2,1.8-0.1,2.7
			c-0.2,0.6-0.4,1.1-0.8,1.4l0.8-0.5c0.3-0.7,0.6-2,0.6-2.6c0.1,1.3-0.8,3.5-1,3.7c-0.2,0.4-0.6,0.7-1,0.9l1-0.4
			c0.5-0.7,0.8-1.5,1-2.6c-0.1,0.8-0.4,1.8-0.9,2.7c-0.4,0.9-1.1,1.5-2,1.7l1.1-0.2c0.6-0.6,1.2-1.4,1.6-2.6c-0.3,1.1-1,2.2-1.8,3.1
			c-0.4,0.4-0.9,0.7-1.3,0.7c0.2,0,0.3,0.1,0.4,0.2c0.4-0.2,1.7-1.3,2.5-2.4c-1,1.5-2,2.3-2.5,2.7c-0.9,0.5-1.7,0.5-2.5,0
			c-0.4-0.5-0.4-1.1,0.1-1.9c0.2-0.7,0.1-1.4-0.1-2.3c0.2,0.7,0.3,1.5,0.2,2.3l0,0.1c0-0.3,0.2-0.6,0.4-1.1c0-0.5-0.2-1.2-0.5-1.9
			c0.3,0.5,0.5,1.2,0.6,1.9l0.2,0.3c-0.1-0.5-0.2-0.9-0.2-1.5c-0.2-0.5-0.3-1.1-0.3-1.6c0.1,0.7,0.2,1.2,0.4,1.6l0.6,0.8
			c-0.3-0.7-0.5-1.3-0.4-2c-0.1-0.4-0.4-1-0.7-1.5c0.3,0.4,0.6,0.9,0.8,1.5l0.6,0.7c-0.2-0.4-0.4-1-0.6-1.6c0,0-0.3-0.8-0.7-1.4
			c0.4,0.4,0.7,0.9,0.9,1.5l0.5,0.3l-0.1-0.2c-0.2-0.3-0.3-0.7-0.4-1.1c-0.2-0.4-0.4-0.7-0.7-1.2c0.3,0.3,0.5,0.7,0.7,1.1l0.7,0.4
			c-0.4-0.5-0.8-1.2-1.1-2.1c-0.2-0.3-0.5-0.7-0.8-1c0.3,0.2,0.6,0.6,0.8,0.9c0.3,0.1,0.5,0.3,0.8,0.6c-0.3-0.4-0.6-1-0.9-1.9l0,0
			c-0.2-0.3-0.5-0.7-0.8-1c0.3,0.3,0.7,0.7,0.9,1.2l0.8,0.7l-0.1-0.2c-0.2-0.7-0.5-1.2-1.2-1.9c0.5,0.4,1,1.1,1.3,1.8
			c-0.1-0.5-0.1-1-0.1-1.6c-0.2-0.7-0.5-1.2-1.2-1.9c0.5,0.4,0.9,1,1.2,1.7c0.5,0.8,0.9,1.5,1,2.3L81.9,146.4z"/>
		<path class="st6" d="M79.7,153.7c0.4,0.9,0.6,1.7,0.1,1.9C79.4,155.2,79.3,154.8,79.7,153.7L79.7,153.7z M79.9,152.5L79.9,152.5
			c0.8,0.9,1.1,1.8,0.8,2.2C80.1,154.6,80,153.8,79.9,152.5L79.9,152.5z M80.3,151.4L80.3,151.4c0.8,0.9,1.3,1.9,1,2.3
			C80.6,153.5,80.4,152.6,80.3,151.4L80.3,151.4z M80.4,150.6L80.4,150.6c1,0.7,1.5,1.5,1.3,1.9C81.2,152.5,80.9,151.7,80.4,150.6
			L80.4,150.6z M80.6,149.5L80.6,149.5c1,0.7,1.5,1.3,1.3,1.7C81.4,151.2,81,150.7,80.6,149.5L80.6,149.5z M81.6,149.9L81.6,149.9
			c-0.4-0.1-0.8-0.8-1.3-2C81.3,148.8,81.8,149.4,81.6,149.9L81.6,149.9z M81.6,148.8L81.6,148.8c-0.4-0.2-0.8-0.9-1.4-2.3
			C81.2,147.5,81.7,148.3,81.6,148.8L81.6,148.8z M81.9,149.1L81.9,149.1c-0.2-0.3-0.2-1.1,0.1-2.4C82.3,148,82.2,148.8,81.9,149.1
			L81.9,149.1z M81.9,150.2L81.9,150.2c0.2-0.2,0.2-0.4,0.2-0.6c0,0.1-0.1,0.2-0.3,0.4c0.1-0.9,0.8-1.4,0.9-2
			C82.9,149.1,82.7,150.1,81.9,150.2L81.9,150.2z M82.2,151L82.2,151c0.2-0.2,0.3-0.5,0.3-0.6c-0.1,0.1-0.2,0.3-0.5,0.4
			c0.2-0.6,0.8-1.2,1.4-2C83.4,150.2,82.9,151.2,82.2,151L82.2,151z M82.1,152.3L82.1,152.3c0.2-0.1,0.4-0.4,0.4-0.5
			c-0.1,0.1-0.3,0.3-0.5,0.4c0.3-0.6,1.1-1.1,1.7-1.9C83.6,151.7,82.8,152.6,82.1,152.3L82.1,152.3z M81.6,153.6L81.6,153.6
			c0.2-0.1,0.5-0.3,0.5-0.4c-0.2,0.1-0.3,0.2-0.6,0.3c0.4-0.5,1.3-0.8,2.1-1.4C83.2,153.3,82.2,154,81.6,153.6L81.6,153.6z
			 M83.2,153.6L83.2,153.6c-0.6,1.1-1.5,1.7-2.3,1.3c0.5-0.2,0.8-0.4,1-0.6c-0.3,0.2-0.6,0.4-1,0.4C81.3,154,82.2,154.1,83.2,153.6
			L83.2,153.6z M82.5,155L82.5,155c-0.7,0.9-1.5,1.1-2.5,0.7c0.2-0.1,0.6-0.2,1.3-0.3c-0.6,0-1.1,0-1.3,0.1
			C80.5,154.9,81.8,155.4,82.5,155L82.5,155z M81.4,156.2L81.4,156.2c-0.8,0.6-1.6,0.6-2.2,0.1C79.4,155.5,80.3,156,81.4,156.2
			L81.4,156.2z M79.2,154.7L79.2,154.7c0.2,0.9,0.1,1.4-0.2,1.5C78.8,155.9,78.6,155.7,79.2,154.7L79.2,154.7z M81.6,147.9
			L81.6,147.9c-0.3-0.3-0.7-1.1-0.7-2.6C81.5,146.7,81.7,147.4,81.6,147.9L81.6,147.9z"/>
		<path class="st6" d="M79.1,156.7c-0.2-0.1-0.3-0.2-0.4-0.4c-0.1,0-0.2,0.1-0.3,0.2c-2.6,0.5-5.7-0.3-9.2-2.5l0,0.3
			c3.6,2.1,6.6,2.9,9.2,2.5C78.8,156.8,79,156.7,79.1,156.7L79.1,156.7z"/>
	</g>
	<circle class="st7" cx="61.3" cy="139.4" r="20"/>
	<g>
		<path class="st4" d="M77.2,139c-0.3-0.3-0.7-0.3-1.1-0.2c0-0.3,0-0.6,0.1-0.8c0-0.2-0.4-0.2-0.5-0.1c-0.2,0.1-0.4,0.2-0.5,0.4
			c-0.3,0-0.5,0-0.7,0.1c-0.7,0.3-1,1.1-1.1,1.8c0,0.1-0.1,0.3-0.1,0.5c0,0,0,0,0,0c-0.1,0.3-0.2,0.7-0.4,0.9
			c-0.2,0.1-0.3-0.8-0.3-0.9c0-1,0.2-1.9,0.4-2.8c0-0.2-0.2-0.3-0.4-0.2c-0.2,0.1-0.5,0.2-0.6,0.4c-0.2,0.7-0.3,1.4-0.4,2.2
			c-0.1,0.3-0.2,0.6-0.3,0.9c0,0,0,0,0,0c-0.1,0-0.1-0.1-0.2-0.1c-0.5-0.3-0.3-1.2-0.3-1.6c0.1-0.6,0.2-1.2,0.5-1.8
			c0.1-0.2,0-0.3-0.3-0.3c-0.2,0-0.5,0.2-0.6,0.4c-0.2,0.5-0.3,1-0.5,1.6c-0.1,0.5-0.4,1-0.7,1.3c0,0-0.1,0.1-0.1,0.1c0,0,0,0,0-0.1
			c-0.1-0.4-0.1-0.9,0-1.2c0-0.6,0.1-1.2,0.2-1.8c0,0,0,0,0,0c0-0.5-0.4-0.8-0.9-0.8c-0.6,0-1,0.4-1.3,0.7c-0.3,0.5-0.5,1.2-0.6,1.3
			c-0.1,0.5-0.3,1-0.6,1.4c-0.1,0-0.1-0.1-0.1-0.2c-0.1-0.3-0.2-0.6-0.2-0.9c-0.1-0.9-0.1-1.8,0-2.6c0,0,0,0,0,0c0,0,0-0.1,0-0.1
			c0,0-0.1,0-0.1-0.1c-0.2-0.1-0.5,0.1-0.7,0.3c-0.5,0.6-0.5,1.4-0.6,2.1c-0.1,0.4-0.2,0.8-0.3,1.2c0,0,0,0.1-0.1,0.2
			c-0.1-0.1-0.2-0.2-0.2-0.3c0,0,0,0,0,0c0-0.2-0.1-0.3-0.3-0.2c-0.2,0.1-0.5,0.3-0.6,0.5c0,0,0,0,0,0c0,0,0,0,0,0
			c-0.2,0-0.2-0.2-0.3-0.3c-0.1-0.3-0.1-0.6-0.1-0.9c0-0.2,0-0.4,0-0.6c0-0.5,0.1-1,0.1-1.4c0-0.1,0-0.3,0-0.4
			c0-0.2-0.3-0.2-0.4-0.1c-0.2,0.1-0.5,0.3-0.5,0.6c0,0.3,0,0.5,0,0.8c0,0.3,0,0.5,0,0.8c0,0.2,0,0.4-0.1,0.7c0,0.3-0.1,0.7-0.2,1
			c0,0,0,0,0,0c-0.1,0-0.1,0-0.2,0c-0.5-0.2-0.5-1.1-0.5-1.5c0-0.6,0-1.3,0.2-1.8c0-0.1,0.1-0.2,0-0.3c-0.1-0.1-0.3,0-0.4,0.1
			c-0.1,0.1-0.4,0.4-0.6,0.5c-0.4,0.2-0.8,0.1-1.1-0.1c-0.1-0.1-0.2-0.2-0.4-0.3c-0.4-0.2-0.8,0-1.1,0.3c0-0.3-0.1-0.5-0.2-0.8
			c-0.1-0.2-0.5,0-0.5,0.1c-0.2,0.1-0.4,0.4-0.3,0.6c-0.3,0.1-0.5,0.3-0.7,0.4c-0.6,0.6-0.6,1.4-0.6,2.1c0,0.1,0,0.3,0,0.5
			c0,0.1,0,0.8-0.2,1c-0.2,0.2-0.6-0.6-0.6-0.7c-0.3-0.9-0.3-1.9-0.4-2.8c0-0.2-0.3-0.1-0.4,0c-0.2,0.1-0.4,0.4-0.4,0.7
			c0,0.7,0.1,1.5,0.1,2.2c0,0.3,0,0.7-0.1,1c0,0,0,0,0,0c-0.1,0-0.2,0-0.2,0c-0.5-0.1-0.6-1-0.7-1.4c-0.1-0.6-0.1-1.3,0-1.9
			c0-0.2-0.1-0.3-0.3-0.2c-0.2,0.1-0.5,0.4-0.5,0.6c-0.1,0.8-0.1,1.6,0.1,2.4c0.1,0.6,0.4,1.5,1.1,1.4c0.5-0.1,0.9-0.4,1.1-0.8
			c0.1,0.1,0.1,0.2,0.2,0.3c0.5,0.5,1.1,0,1.5-0.4c0-0.1,0.1-0.1,0.1-0.2c0.1,0.1,0.2,0.2,0.3,0.3c0.2,0.2,0.5,0.2,0.8,0.1
			c0.1,0,0.2-0.1,0.3-0.1c0,0.9,0.1,1.8,0.1,2.7c0,0.2,0.3,0.2,0.4,0.1c0.2-0.1,0.4-0.4,0.4-0.6c0-0.7,0-1.4,0-2.2
			c0.3,0,0.7-0.2,0.9-0.5c0.6-0.6,0.7-1.5,0.6-2.3c0-0.1,0-0.3-0.1-0.4c0.3,0,0.5-0.2,0.8-0.3c-0.1,0.6-0.1,1.2-0.1,1.8
			c0,0.6,0.2,1.5,1,1.6c0.5,0,0.8-0.2,1.1-0.5c0.2,0.3,0.5,0.6,0.9,0.5c0.2,0,0.3-0.1,0.4-0.2c0.3,0.3,0.8,0.3,1.2,0
			c0.3-0.3,0.5-0.6,0.6-0.9c0,0.1,0,0.2,0,0.3c0.1,0.3,0.1,0.6,0.3,0.9c0.2,0.3,0.6,0.1,0.9,0c0.2-0.1,0.5-0.3,0.6-0.5
			c0.1,0.3,0.2,0.6,0.4,0.7c0.4,0.2,0.9,0,1.2-0.2c0,0.2,0.1,0.4,0.3,0.5c0.5,0.2,1-0.2,1.3-0.5c0,0,0,0,0,0c0.1,0.4,0.2,0.8,0.7,1
			c0.5,0.2,0.9,0,1.2-0.3c0,0.1,0.1,0.2,0.1,0.3c0.3,0.7,1,0.4,1.4,0.2c0.1,0,0.1-0.1,0.2-0.1c0,0.1,0.1,0.3,0.2,0.4
			c0.1,0.3,0.4,0.4,0.7,0.5c0.1,0,0.2,0,0.3,0c-0.2,0.9-0.4,1.7-0.7,2.6c-0.1,0.2,0.2,0.3,0.3,0.2c0.2,0,0.5-0.2,0.5-0.4
			c0.2-0.7,0.4-1.4,0.6-2c0.3,0.1,0.7,0.1,1-0.1c0.7-0.3,1-1.2,1.2-2C77.5,140.5,77.7,139.5,77.2,139z M56.3,140.3c0,0-0.1,0-0.2,0
			c-0.2-0.1-0.3-0.2-0.4-0.3c-0.3-0.4-0.3-0.9-0.4-1.4c0-0.4,0-0.8,0.1-1.2c0,0,0.1,0,0.1,0c0.3,0.2,0.5,0.6,0.6,1l0,0
			C56.2,139,56.3,139.6,56.3,140.3C56.3,140.3,56.3,140.3,56.3,140.3z M57.8,140.1C57.8,140.1,57.8,140.1,57.8,140.1
			C57.7,140.1,57.7,140.1,57.8,140.1c-0.4,0.1-0.6-0.1-0.6-0.4c0,0,0,0,0,0c0-0.7-0.1-1.3-0.2-2c0-0.2,0-0.3,0-0.5c0,0,0,0,0,0
			c0,0,0,0,0,0c0.1,0,0.2,0,0.3,0.1c0,0,0,0,0,0c0,0,0.1,0.1,0.1,0.1c0.3,0.3,0.4,0.8,0.4,1.2C57.9,139.1,58,139.6,57.8,140.1z
			 M68.2,137.8c-0.1,0.8-0.2,1.7-0.5,2.4c0,0-0.1,0.1-0.1,0.2c0,0-0.1,0-0.1,0c-0.2-0.1-0.2-0.4-0.3-0.5c-0.1-0.6,0-1.3,0.2-1.9
			c0.1-0.2,0.2-0.5,0.3-0.5c0,0,0,0,0,0c0,0,0.1,0,0.1,0C68.2,137.4,68.3,137.6,68.2,137.8z M75,140.2L75,140.2
			c-0.1,0.6-0.2,1.2-0.3,1.9c0,0,0,0,0,0c0,0,0,0,0,0c0,0-0.1-0.1-0.1-0.1c-0.1-0.1-0.2-0.3-0.3-0.5c-0.1-0.5-0.1-1,0-1.5
			c0.1-0.4,0.2-0.8,0.4-1.1c0,0,0,0.1,0.1,0.1C75,139.3,75,139.8,75,140.2z M76.5,141.1c-0.1,0.5-0.2,1-0.5,1.3c0,0,0,0,0,0
			c0,0,0,0,0,0c-0.3-0.1-0.4-0.4-0.4-0.7l0,0c0.1-0.6,0.3-1.3,0.4-2c0-0.2,0.1-0.3,0.2-0.5c0,0,0,0,0,0c0,0,0,0,0,0
			c0.1,0,0.2,0.2,0.3,0.3C76.6,140.1,76.6,140.7,76.5,141.1z"/>
		<path class="st4" d="M73.2,136.6c0.1-0.1,0.4-0.3,0.3-0.5c-0.1-0.2-0.5-0.1-0.6,0c-0.3,0.2-0.6,0.3-1,0c-0.1-0.1-0.3-0.2-0.4-0.3
			c-0.2-0.3-1.1,0.2-0.9,0.5C71.3,137.3,72.5,137,73.2,136.6z"/>
		<path class="st4" d="M47.9,138.1c-0.1-0.4-0.2-0.7-0.3-1.1c0.8-0.2,1.5-0.5,2.3-0.8c0.2-0.1,0.5-0.4,0.5-0.7
			c0-0.2-0.1-0.3-0.3-0.2c-1.3,0.6-2.8,0.9-4.1,1.4c-0.5,0.2-1.1,0.6-1.3,1.1c-0.3,0.6-0.2,1.2,0.1,1.7c0.2,0.3,0.9-0.6,0.7-0.9
			c-0.1-0.2-0.2-0.4-0.3-0.6c0,0,0-0.1,0-0.1c0.3-0.3,0.8-0.4,1.2-0.6c0.1,0,0.2-0.1,0.3-0.1c0.2,0.4,0.3,0.8,0.4,1.2
			c-0.5,0.3-0.8,0.8-1.1,1.2c-0.5,1-0.6,3.7,1.2,3.4c1.2-0.2,1.3-1.6,1.2-2.6c-0.1-0.5-0.1-1.1-0.2-1.6c0.1,0,0.2,0,0.3,0
			c0.7,0.1,1,0.7,1.1,1.3c0.1,0.5,0,1.2-0.4,1.6c-0.1,0.1-0.3,0.5-0.2,0.7c0.1,0.2,0.4-0.1,0.5-0.2c0.9-1,1.3-2.8,0.4-3.9
			C49.4,138,48.6,137.9,47.9,138.1z M47.5,142.2c-0.3,0-0.6-0.1-0.7-0.2c-0.5-0.5-0.6-1.5-0.2-2.2c0.2-0.3,0.4-0.5,0.7-0.6
			c0.2,0.6,0.3,1.3,0.4,2c0,0.3,0.1,0.6,0.1,0.9c0,0,0,0.1,0,0.1C47.6,142.2,47.5,142.2,47.5,142.2z"/>
	</g>
	<g>
		<path id="XMLID_1_" class="st4" d="M66.2,153.8c-0.2,0.3-0.6-0.5-0.6-0.6c0-0.1-0.1-0.2-0.1-0.3c-0.1-0.2-0.2-0.5-0.2-0.7
			c0,0,0-0.1,0-0.1c-0.1-0.2-0.3,0.2-0.3,0.4c0.1,0.3,0.2,0.6,0.2,1c0,0.2,0.1,0.3,0.1,0.5c0,0.2,0,0.3-0.2,0.2
			c-0.5-0.2-0.5-1.3-0.5-1.7c0-0.3-0.3,0.1-0.3,0.2c0,0.2,0,0.9,0.2,1.4c-0.1,0.2-0.3,0.4-0.4,0.3c-0.1-0.1-0.1-0.4-0.2-0.5
			c-0.1-0.3-0.3-0.3-0.6-0.2c0,0,0,0,0,0c0-0.1,0-0.3,0.1-0.4c0-0.1,0.1-0.2,0.3-0.2c0.2,0.1,0.5-0.4,0.3-0.5
			c-0.4-0.2-0.7,0-0.9,0.5c0-0.3-0.1-0.5-0.2-0.8c-0.1-0.2-0.4,0.2-0.4,0.4c0.2,0.5,0.2,1.1,0.2,1.7c0,0,0,0,0,0
			c-0.2,0.2-0.5,0.6-0.6,0.2c-0.1-0.2-0.1-0.5-0.1-0.7c0-0.2,0-0.4,0-0.6c0-0.1,0-0.1,0-0.2c0,0,0,0,0,0c-0.1-0.6-0.7-0.3-0.9,0.1
			c-0.3,0.4-0.4,1-0.4,1.5c-0.3,0.1-0.4,0.1-0.5-0.3c-0.1-0.5,0-1.1,0.1-1.6c0-0.3-0.4,0-0.4,0.1c-0.2,0.2-0.3,0.5-0.4,0.8
			c-0.1,0.2-0.1,0.3-0.2,0.5c0,0.1-0.1,0.2-0.1,0.3c-0.1,0.2-0.2,0-0.2-0.1c0-0.1,0-0.1-0.1-0.1c0,0-0.1,0-0.1,0
			c-0.2,0-0.3,0.1-0.5,0.1c0-0.1-0.1-0.2-0.2-0.3c0.3-0.3,0.5-0.8,0.6-1.2c0-0.3,0-0.6-0.3-0.6c-0.4-0.1-0.8,0.3-1,0.6
			c-0.1,0.2,0.5,0.1,0.5,0c0-0.1,0.1-0.4,0.2-0.2c0.1,0.1,0,0.3,0,0.4c0,0.2-0.2,0.7-0.4,0.8c-0.1,0-0.1,0-0.2,0
			c-0.1,0-0.3,0.1-0.3,0.2c-0.1,0.1-0.1,0.1,0,0.1c0.1,0,0.2,0,0.3,0c0.1,0,0.2,0.1,0.2,0.3c-0.5,0.2-1.1,0.4-1.5,0.9
			c-0.4,0.5,0.2,1,0.9,0.9c0.7-0.1,1-0.8,1.1-1.4c0-0.1,0-0.2,0-0.2c0.1,0,0.1,0,0.2,0c0,0.4,0.6,0.4,0.9,0.2
			c0.1-0.1,0.2-0.2,0.2-0.3c0,0.2,0.1,0.3,0.1,0.4c0.2,0.3,0.7,0.2,1,0c0.1,0.3,0.5,0.4,0.8,0.1c0,0,0,0,0.1-0.1
			c0,0.1,0.1,0.2,0.1,0.2c0.2,0.2,0.7-0.1,1-0.4c0,0.1,0,0.2,0,0.3c0,0.3,0.5-0.1,0.5-0.3c0-0.2,0-0.4,0-0.7c0.3,0,0.2,0.8,0.5,0.8
			c0.3,0.1,0.6-0.2,0.8-0.5c0.1,0.2,0.3,0.3,0.6,0.2c0.2-0.1,0.4-0.3,0.5-0.5c0.3,0.4,0.7,0,0.9-0.3
			C66.7,153.6,66.4,153.5,66.2,153.8z M57.6,154.8c-0.1,0.4-0.2,0.8-0.6,1c-0.1,0.1-0.2,0-0.3-0.1c-0.1-0.2,0-0.3,0.1-0.5
			c0.2-0.3,0.5-0.5,0.8-0.6C57.7,154.7,57.7,154.8,57.6,154.8z M61.2,154.8c-0.1,0-0.1-0.1-0.2-0.2c-0.1-0.2-0.1-0.5,0-0.8
			c0-0.1,0.1-0.3,0.1-0.4c0-0.1,0.1-0.1,0.1-0.2c0.1-0.1,0.2,0.1,0.2,0.2c0,0.4,0,0.7-0.1,1.1C61.4,154.5,61.3,154.8,61.2,154.8z"/>
	</g>
	<circle class="st8" cx="45.3" cy="157.2" r="6.3"/>
	<path class="st9" d="M51.8,115c0,1.4-1.1,2.5-2.6,2.5c-1.4,0-2.6-1.1-2.6-2.5c0-1.4,1.1-2.6,2.6-2.6
		C50.7,112.4,51.8,113.6,51.8,115L51.8,115z"/>
	<path class="st10" d="M51.9,123.6c0,1.8-1.5,3.3-3.3,3.3c-1.8,0-3.3-1.5-3.3-3.3c0-1.8,1.5-3.3,3.3-3.3
		C50.4,120.3,51.9,121.8,51.9,123.6L51.9,123.6z"/>
	<path class="st10" d="M43.1,118.5c0,1.1-0.9,1.9-1.9,1.9c-1.1,0-2-0.9-2-1.9c0-1.1,0.9-2,2-2C42.3,116.6,43.1,117.5,43.1,118.5
		L43.1,118.5z"/>
	<g>
		<circle class="st8" cx="78.3" cy="121.2" r="11"/>
		<g>
			<path class="st4" d="M75.6,119.6c-0.9,0.1-1.2,1.2-1.2,1.9l0,0v0c0,0.1,0,0.2,0,0.3c0,0.4,0,0.6-0.1,1c0,0.1-0.1,0.4-0.1,0.4
				c-0.3,0-0.6-0.5-0.7-0.7c-0.2-0.6-0.4-1.2-0.5-1.7c-0.1-0.6-0.2-1.3-0.2-1.9c0-0.3,0-0.5,0-0.8c0-0.1,0-0.2,0-0.3
				c0-0.1,0-0.2,0-0.2c0.1-0.5-0.6,0-0.7,0.2c-0.7,1.3-0.5,2.8-0.5,4.2c0,0.4,0,0.8-0.1,1.1c0,0.3-0.1,0.7-0.3,0.9
				c-0.1,0.1-0.4,0-0.5,0c-0.2-0.1-0.3-0.3-0.3-0.5c0-0.2-0.3-0.1-0.4,0c-0.2,0.2-0.3,0.4-0.3,0.6c0.1,0.5,0.5,0.9,1,0.8
				c0.8-0.2,1.2-1.2,1.4-2c0.1-0.4,0.1-0.7,0.2-1.1c0.1,0.5,0.3,1.1,0.5,1.6c0.2,0.4,0.5,0.7,1,0.7c0.3-0.1,0.6-0.4,0.8-0.8
				c0.2,0.4,0.4,0.6,0.8,0.6c0.5,0,0.8-0.5,1-0.9c0.2-0.4,0.3-0.9,0.3-1.4C76.7,120.9,76.6,119.5,75.6,119.6z M75.9,122.8
				c0,0.1,0,0.2-0.1,0.3c-0.2,0-0.3-0.3-0.4-0.4c-0.1-0.3-0.2-0.6-0.2-1c0-0.3,0-0.7,0-1c0-0.1,0-0.2,0.1-0.3
				c0.5,0.3,0.6,0.9,0.6,1.4C75.9,122.1,76,122.5,75.9,122.8z"/>
			<path class="st4" d="M86.5,120.9c-1-0.4-1.5,1-1.7,1.7c-0.2,0.7-0.4,1.9,0.5,2.3c0.4,0.2,0.9-0.1,1.2-0.4
				c0.3-0.3,0.5-0.8,0.6-1.2C87.3,122.6,87.4,121.3,86.5,120.9z M86,124.1c0,0.1-0.1,0.2-0.1,0.2c-0.2-0.1-0.2-0.4-0.2-0.5
				c-0.1-0.3,0-0.7,0-1c0.1-0.3,0.2-0.7,0.3-1c0-0.1,0.1-0.2,0.1-0.2c0.4,0.4,0.3,1.1,0.2,1.6C86.2,123.5,86.1,123.8,86,124.1z"/>
			<path class="st4" d="M83.9,121.1c0.2-0.2,0.4-0.5,0.5-0.8c0.4-0.5,0.7-1.2,0.7-1.9c0-0.6-0.9-0.7-1.3-0.5c-0.6,0.3-1,1-1.2,1.6
				c-0.2,0.8-0.4,1.7-0.4,2.6c0,0,0,0,0,0c-0.3,0.4-1,1.2-1.5,0.8c-0.1-0.1-0.2-0.2-0.2-0.4c0.4-0.4,0.8-0.9,1.1-1.4
				c0.3-0.4,0.5-1.2-0.1-1.5c-0.5-0.3-1.1,0-1.4,0.4c-0.3,0.4-0.5,0.9-0.5,1.4c0,0.3-0.1,0.7,0,1.1c-0.3,0.2-0.6,0.3-1,0.2
				c-0.4-0.1-0.5-0.5-0.6-0.8c-0.1-0.5-0.1-0.9,0-1.4c0-0.1,0.1-0.3,0.1-0.4c0,0,0-0.1,0-0.1c0.2,0.1,0.3,0.5,0.4,0.6
				c0.1,0.3,0.9-0.2,0.8-0.5c-0.1-0.3-0.2-0.7-0.6-0.8c-0.3-0.2-0.8,0.1-1,0.3c-0.6,0.6-0.7,1.5-0.6,2.3c0,0.5,0.1,1.1,0.6,1.4
				c0.6,0.4,1.4,0,2-0.3c0.2,0.4,0.4,0.6,0.9,0.6c0.6-0.1,1.1-0.4,1.6-0.8c0,0.4,0.1,0.9,0.4,1.1c0.5,0.3,1.2,0,1.5-0.5
				c0.4-0.6,0.7-1.4,0.4-2.1C84.4,121.3,84.2,121.1,83.9,121.1z M80.5,120.7c0-0.1,0.1-0.3,0.2-0.4c0,0,0,0,0,0
				c0.2,0.1,0.3,0.4,0.3,0.6c-0.1,0.4-0.3,0.7-0.6,1.1c0-0.1,0-0.1,0-0.2C80.4,121.4,80.4,121.1,80.5,120.7z M83.7,118.9
				c0.1-0.1,0.1-0.3,0.2-0.4c0,0,0,0,0,0c0.4,0.4,0,1-0.2,1.4c-0.2,0.4-0.4,0.8-0.7,1.2c0.1-0.4,0.1-0.8,0.2-1.1
				C83.4,119.6,83.5,119.3,83.7,118.9z M83.5,123.4c0,0-0.1,0.1-0.1,0.2c0,0-0.1,0-0.1,0c-0.2-0.1-0.3-0.7-0.3-0.9
				c0-0.2,0-0.4,0-0.6c0.1-0.1,0.2-0.2,0.3-0.4c0.2-0.1,0.4,0.1,0.4,0.4C83.8,122.6,83.7,123.1,83.5,123.4z"/>
		</g>
	</g>
	<g>
		<path class="st4" d="M41.1,156.2c0.2-0.6,0.7-0.2,0.8,0.1c0.2,0.4,0,0.9-0.3,1.2c-0.2,0.3-0.5,0.5-0.8,0.7
			c-0.2,0.1-0.3,0.2-0.4,0.3c0,0.1-0.1,0.2,0,0.2c0.2,0.2,0.7,0.2,0.9,0.2c0.5,0,1,0,1.4-0.2c0.2-0.1,0.5-0.7,0-0.5
			c-0.3,0.2-0.8,0.1-1.1,0.1c-0.2,0-0.6,0-0.7-0.1c0,0.1,0,0.2,0,0.2c-0.2,0.3-0.1,0.2,0.1,0.1c0.1-0.1,0.3-0.2,0.4-0.3
			c0.2-0.2,0.4-0.4,0.6-0.7c0.4-0.5,0.6-1,0.5-1.6c-0.2-1.4-1.7-0.4-2,0.4C40.4,156.8,41,156.4,41.1,156.2L41.1,156.2z"/>
		<path class="st4" d="M44.6,158.4c0.5,1.5,2.8,0.5,2.4-0.9c-0.2-0.7-1-0.6-1.5-0.7c-0.3-0.1-0.3-0.3-0.3-0.6
			c0.1-0.3,0.1-0.3-0.1-0.2c0.1,0,0.2,0,0.3-0.1c0.5-0.1,1-0.1,1.4,0.1c0.2,0.1,0.7-0.4,0.4-0.5c-0.6-0.3-1.2-0.2-1.8-0.1
			c-0.6,0.1-0.7,0.6-0.7,1.2c0,0.7,0.6,0.7,1.1,0.8c0.4,0.1,0.7,0.2,0.8,0.6c0.1,0.7-0.7,0.6-1,0.4c-0.2-0.1-0.2-0.3-0.3-0.5
			C45.1,157.8,44.5,158.2,44.6,158.4L44.6,158.4z"/>
		<g>
			<path class="st4" d="M49.9,155.7c-0.6,1.1-1.4,2.1-2.2,3c-0.3,0.4,0.2,0.4,0.4,0.1c0.8-1,1.6-2.1,2.3-3.2
				C50.7,155.2,50,155.4,49.9,155.7L49.9,155.7z"/>
			<path class="st4" d="M48.7,155.4c-0.4,0-0.7,0.4-0.7,0.7c-0.1,0.3,0.1,0.6,0.5,0.6C49.2,156.8,49.6,155.4,48.7,155.4
				c-0.2,0-0.5,0.4-0.2,0.4c0.2,0,0.3,0.2,0.3,0.3c0,0.1,0,0.1,0,0.2c0,0.1,0,0,0,0c0,0-0.1,0-0.1,0c-0.2,0-0.3-0.2-0.3-0.3
				c0-0.1,0-0.2,0-0.2c0,0,0,0,0,0c0,0,0.1,0,0.1,0C48.6,155.8,48.9,155.4,48.7,155.4z"/>
			<path class="st4" d="M49.8,157.7c-0.4,0-0.7,0.4-0.7,0.7c-0.1,0.3,0.1,0.6,0.5,0.6C50.3,159.1,50.7,157.7,49.8,157.7
				c-0.2,0-0.5,0.4-0.2,0.4c0.2,0,0.3,0.2,0.3,0.3c0,0.1,0,0.1,0,0.2c0,0.1,0,0,0,0c0,0-0.1,0-0.1,0c-0.2,0-0.3-0.2-0.3-0.3
				c0-0.1,0-0.2,0-0.2c0,0,0,0,0,0c0,0,0.1,0,0.1,0C49.7,158.1,50,157.7,49.8,157.7z"/>
		</g>
		<path class="st4" d="M43.7,159.8c0.3-0.2,0.5-0.6,0.5-1c0-0.1,0-0.3-0.1-0.3c-0.1-0.1-0.4,0-0.5,0c-0.2,0.1-0.3,0.3-0.3,0.4
			c0,0.2,0.2,0.1,0.3,0.1c0,0,0,0,0,0c0,0,0,0,0,0c0,0.1,0,0.1,0,0.1c0,0.1,0,0.1-0.1,0.2c0,0,0,0,0,0.1c0,0,0,0,0,0c0,0,0,0,0,0.1
			c0.1-0.1,0,0,0,0c-0.1,0.1-0.3,0.3-0.1,0.4C43.4,160.1,43.6,159.9,43.7,159.8L43.7,159.8z"/>
	</g>
	<g>
		<path class="st11" d="M37,131c-0.1,0-0.2-0.2-0.3-0.2c-0.4-0.2-0.7,0.1-1.1,0.1c-0.9,0-1.3,0-2.4-0.3c0-1,0.6-1.6,0.8-2.4
			c0.2-0.7-0.1-1.5-0.1-2.3c0-0.5,0-0.9,0-1.4c-0.3,0.3-0.2,1.2-0.2,1.6c-0.1-0.6-0.1-1.4-0.3-1.9c-0.1,0.6,0,1.3,0,1.9
			c-0.2-0.5-0.2-1.2-0.4-1.6c-0.3,0.5,0.2,1.3,0.1,1.8c-0.2-0.5-0.3-1-0.5-1.5c-0.1,0.6,0.2,1.2,0.2,1.6c-0.2-0.4-0.3-0.8-0.6-1.1
			c0,0.4,0.3,0.9,0.4,1.3c-0.3-0.1-0.4-0.5-0.6-0.6c0,0.3,0.3,0.5,0.4,0.8c-0.2-0.1-0.3-0.3-0.5-0.4c0,0.3,0.3,0.4,0.3,0.6
			c-0.1-0.1-0.3-0.2-0.4-0.3c0,0.2,0.3,0.4,0.3,0.5c0,0-0.2-0.1-0.2,0c0,0,0.2,0.1,0.1,0.2c-0.1,0-0.1,0-0.2,0
			c0,0.2,0.2,0.1,0.1,0.3c-0.1,0-0.1-0.1-0.1,0c0,0.1,0.1,0.1,0.1,0.2c-0.8,0.8-0.4,1.8-0.5,2.8c0.1-0.1-0.7-0.3-1.2-0.5
			c-0.3-0.1-0.4-0.5-0.6-0.6c0-0.1,0.1,0,0.1-0.1c-0.1,0-0.2-0.1-0.2-0.2c0.1,0,0.3,0.1,0.3,0c-0.1-0.1-0.5-0.2-0.5-0.3
			c0.2,0,0.4,0.1,0.5,0.1c-0.2-0.1-0.6-0.3-0.6-0.5c0.2,0.1,0.5,0.3,0.7,0.2c-0.3-0.2-0.8-0.4-0.9-0.7c0.3,0.1,0.6,0.4,0.8,0.4
			c-0.4-0.1-0.7-0.6-1.1-0.6c0.2,0.4,0.8,0.6,0.9,0.8c-0.3-0.2-0.6-0.3-1-0.5c0.1,0.4,0.6,0.5,0.9,0.8c-0.3,0-0.5-0.2-0.8-0.2
			c0.1,0.3,0.6,0.2,0.7,0.5c-0.1-0.1-0.3,0-0.5,0c0,0.2,0.4,0.2,0.5,0.3c-0.2,0-0.3,0-0.4,0.1c0.1,0.1,0.3,0.1,0.4,0.2
			c-0.1,0-0.2,0-0.2,0.1c0,0.1,0.3,0,0.3,0.1c-0.1,0-0.1,0.1-0.1,0.1c0.1,0,0.2,0,0.2,0c-0.1,0-0.1,0-0.1,0.1
			c0.4,0.2,0.7,0.9,1.3,1.2c-0.3,0.2,0.3,0.4-3.5,1.8c0.1,0,1.7-0.4,2.2-0.5c0.5-0.2,0.9-0.3,1.4-0.4c0.1,0,0.2-0.1,0.3-0.1
			c0.8-0.1,1.5,0.1,2.3-0.4c-0.6,0.1-1.6,0.2-2-0.1c0.5-0.8,0.2-2.9,0.6-3.3c0.4-0.4,1.1-1.7,1.9-0.6c0.1,0.2,0.2,0.4-0.1,0.9
			c-0.4,0.6-0.6,0.8-0.5,2.1c0,0.3,0,0.5-0.4,0.5c1.7,0.4,2.2,0.2,3.1,0c0.3,0,0.8-0.3,0.8,0c0,0.1-0.3,0.1-0.6,0.1
			c-0.5,0,0.2,0.2,0.4,0.2c0.1,0,1-0.1,1.5-0.2C37.5,131.1,37.3,131.1,37,131z"/>
		<path class="st11" d="M32.2,122.5c-3.8,0-6.9,3.1-6.9,6.9c0,3.8,3.1,6.9,6.9,6.9s6.9-3.1,6.9-6.9C39.1,125.6,36,122.5,32.2,122.5
			 M32.2,122.7c3.7,0,6.7,3,6.7,6.7c0,3.7-3,6.7-6.7,6.7c-3.7,0-6.7-3-6.7-6.7C25.5,125.7,28.5,122.7,32.2,122.7"/>
	</g>
</g>
</svg>
