<svg xmlns="http://www.w3.org/2000/svg" viewBox="-480 272.7 285.6 335"><style>.st0{fill:#519E38;} .st1{fill:#F4F1D9;} .st2{fill:none;stroke:#FFFFFF;stroke-width:4;stroke-miterlimit:10;} .st3{fill:#EFEFEF;} .st4{fill:#FFFFFF;} .st5{fill:#FFE2B3;}</style><g id="bath"><path class="st0" d="M-241.3 431.6c0-2.2-1.8-4-4-4h-183c-2.2 0-4 1.8-4 4s1.8 4 4 4v103.7h5.3V435.6h172.7l-.3 16.7-1.4 70.8-7 18.7s-166.2-2.8-166.2 2.7 5 5.8 5 5.8H-253c9 0 7.7-11.2 7.7-11.2l.1-103.5c2.2 0 3.9-1.8 3.9-4z"/><path class="st1" d="M-426.9 483.4h86.7v60.1h-86.7z"/><path class="st1" d="M-340.3 483.4h88.5v60.1h-88.5z"/><path class="st2" d="M-250.3 540.9c0 2-1.6 3.7-3.7 3.7h-170.6c-2 0-3.7-1.6-3.7-3.7V434.3c0-2 1.6-3.7 3.7-3.7H-254c2 0 3.7 1.6 3.7 3.7v106.6z"/><path class="st3" d="M-244.3 428.6c0 2.2-1.8 4-4 4h-183c-2.2 0-4-1.8-4-4s1.8-4 4-4h183c2.2 0 4 1.8 4 4z"/><path class="st4" d="M-411.5 469.2c0 1.7-1.4 3.1-3.1 3.1-1.7 0-3.1-1.4-3.1-3.1v-22.8c0-1.7 1.4-3.1 3.1-3.1 1.7 0 3.1 1.4 3.1 3.1v22.8zM-341.3 432.6h1v112h-1z"/><circle class="st4" cx="-316.4" cy="330.4" r="2.4"/><circle class="st4" cx="-317.2" cy="341.8" r="2.4"/><circle class="st4" cx="-311.7" cy="309.6" r="2.4"/><circle class="st4" cx="-291.4" cy="309.6" r="2.4"/><circle class="st4" cx="-324.7" cy="325.6" r="2.4"/></g><g id="ingredients_1"><path class="st5" d="M-421 387.6s8 6.7 14.8-2.1c0 0-7.7-4.3-14.8 2.1z"/><path class="st5" d="M-412.3 372.3s10 3 6.4 13.5c0-.1-7.8-4.1-6.4-13.5zM-422.8 380.1s3.5 6.1 9.8 2.1c0 0-3.8-4.5-9.8-2.1z"/><path class="st5" d="M-415.7 372.3s6.3 3 3 9.6c0 0-4.8-3.5-3-9.6zM-411.7 391.4s8 6.7 14.8-2.1c-.1 0-7.7-4.3-14.8 2.1z"/><path class="st5" d="M-405.1 376.7s10.2 2 7.7 12.7c0 0-8.2-3.2-7.7-12.7zM-403 395.8s9.1 5 14.1-4.8c0 0-8.4-2.8-14.1 4.8z"/><path class="st5" d="M-398.1 379.1s10.4.9 9 11.9c.1 0-8.4-2.4-9-11.9zM-393.5 398.9s9.8 3.4 13.1-7.1c0 0-8.7-1.3-13.1 7.1z"/><path class="st5" d="M-390.6 380.2s10.4.9 9 11.9c0-.1-8.4-2.4-9-11.9zM-384.3 400.7s10.3 1.5 11.5-9.5c0 0-8.8.4-11.5 9.5z"/><path class="st5" d="M-383.1 380.8s10.4.3 9.7 11.3c0-.1-8.6-1.9-9.7-11.3z"/><path class="st5" d="M-379.4 392.3c-20 0-34-10.4-34.2-10.6l.4-.5c.2.2 24.6 18.4 55.2 6.3l.3.6c-7.8 3-15.1 4.2-21.7 4.2z"/></g><g id="ingredients_2"><path class="st4" d="M-313.8 357.9v.5h.8v.9h-2.7v-.9h.8v-.5h-.5c-.8 0-1.5-.2-1.9-.6s-.7-.9-.7-1.6c0-.7.2-1.3.6-1.7.4-.4 1.1-.6 1.9-.6h.5v-.4h-.8v-.9h2.7v.9h-.8v.4h.5c.8 0 1.5.2 1.9.6s.6.9.6 1.7c0 .7-.2 1.2-.7 1.6-.4.4-1.1.6-1.9.6h-.3zm-1.1-.9v-2.8h-.5c-.5 0-.8.1-1.1.4-.3.2-.4.6-.4 1.1s.1.8.4 1c.3.2.6.3 1.1.3h.5zm1.1-2.8v2.8h.5c.5 0 .9-.1 1.1-.3.3-.2.4-.6.4-1.1s-.1-.8-.4-1.1c-.3-.2-.6-.4-1.1-.4l-.5.1zM-308.7 354.9c.3-.2.5-.4.7-.5.3-.1.6-.2.9-.2.7 0 1.2.2 1.7.7.4.5.7 1.1.7 1.9 0 .8-.2 1.4-.7 1.9-.4.5-1 .7-1.7.7-.6 0-1.2-.3-1.7-.8v1.4h.7v.9h-2.3v-.9h.7v-5h-.7v-.8h1.6l.1.7zm1.4 3.6c.4 0 .8-.2 1.1-.5.3-.3.4-.7.4-1.2s-.1-1-.4-1.3c-.3-.3-.6-.5-1.1-.5s-.8.1-1.1.4c-.3.3-.4.7-.4 1.3 0 .5.1 1 .4 1.3.3.3.7.5 1.1.5zM-303.7 360.9v-.8h1.2l.4-1-1.6-4h-.6v-.8h2.1v.8h-.6l1.1 2.8 1.1-2.8h-.6v-.8h2v.8h-.6l-2.2 5.8h-1.7zM-297.1 355v3.3h.7v.9h-2.3v-.9h.7V355h-.7v-.8h2.3v.8h-.7zm1.9 0h-.6v-.8h2.2v.8h-.6l-1.8 1.5 1.7 1.8h.7v.9h-1.2l-2.4-2.6 2-1.6zM-293.1 354.2h4.6v2.1h-.8V355h-1v3.3h.7v.9h-2.4v-.9h.7V355h-1v1.3h-.8v-2.1zM-283 356.7c0 .8-.2 1.4-.7 1.9s-1.1.7-1.8.7-1.4-.2-1.8-.7c-.5-.5-.7-1.1-.7-1.9 0-.8.2-1.4.7-1.9s1.1-.7 1.8-.7 1.4.2 1.8.7c.5.5.7 1.1.7 1.9zm-2.5 1.7c.4 0 .8-.2 1.1-.5.3-.3.4-.7.4-1.2s-.1-1-.4-1.3c-.3-.3-.6-.5-1.1-.5s-.8.2-1.1.5c-.3.3-.4.8-.4 1.3s.1 1 .4 1.3c.3.3.6.4 1.1.4zM-280.9 357.1v-.8h.4c.7 0 1-.2 1-.7 0-.2-.1-.4-.2-.5-.2-.1-.4-.2-.7-.2s-.5.1-.7.3c-.2.2-.3.4-.4.7h-.8v-1.7h.8v.4c.1-.2.3-.3.5-.4.2-.1.5-.2.7-.2.4 0 .8.1 1.1.4.4.3.6.6.6 1 0 .3-.1.6-.3.8-.2.2-.4.3-.7.4.3.1.6.2.8.4.2.2.4.5.4.8 0 .5-.2.9-.6 1.2-.4.2-.8.4-1.4.4-.5 0-1-.1-1.3-.3-.4-.2-.6-.6-.8-1.1l.8-.4c.1.3.2.5.4.7.2.2.5.3.8.3.3 0 .6-.1.8-.2.2-.1.3-.3.3-.5 0-.3-.1-.4-.3-.6-.2-.1-.5-.2-.8-.2h-.4zM-274.6 359.2v-.5c-.5.4-1 .6-1.6.6-.5 0-.9-.1-1.2-.4-.3-.3-.5-.7-.5-1.2s.2-.9.5-1.2c.3-.3.8-.5 1.3-.5.4 0 .8.1 1.4.4v-.3c0-.9-.4-1.3-1.1-1.3-.3 0-.5 0-.7.1-.2.1-.4.3-.5.5l-.9-.2c.3-.8 1.1-1.2 2.2-1.2.7 0 1.2.2 1.5.5.3.3.4.8.4 1.6v2.2h.7v.9h-1.5zm0-1.4v-.4c-.2-.1-.5-.2-.7-.3-.2-.1-.4-.1-.6-.1-.3 0-.5.1-.7.2s-.3.3-.3.5.1.4.2.5c.1.1.3.2.6.2.5 0 1-.2 1.5-.6z"/><circle class="st4" cx="-311.7" cy="335.9" r="2.4"/><circle class="st4" cx="-309.3" cy="344.1" r="2.4"/><circle class="st4" cx="-305" cy="334.6" r="2.4"/><circle class="st4" cx="-305" cy="324.4" r="2.4"/><circle class="st4" cx="-291.4" cy="341.8" r="2.4"/><g><path class="st5" d="M-327.7 387.1s7.8 6.9 14.8-1.6c0 0-7.5-4.6-14.8 1.6z"/><path class="st5" d="M-318.6 372.1s9.9 3.3 6 13.6c0 0-7.7-4.3-6-13.6zM-329.3 379.5s3.3 6.2 9.7 2.4c.1 0-3.7-4.6-9.7-2.4z"/><path class="st5" d="M-321.9 372s6.3 3.2 2.7 9.7c-.1-.1-4.8-3.7-2.7-9.7zM-318.6 391.2s7.8 6.9 14.8-1.6c0 0-7.5-4.6-14.8 1.6z"/><path class="st5" d="M-311.5 376.7s10.1 2.3 7.3 13c0 0-8.1-3.5-7.3-13zM-310 395.9s9 5.3 14.2-4.4c0 0-8.2-3-14.2 4.4z"/><path class="st5" d="M-304.5 379.3s10.3 1.3 8.6 12.1c0 .1-8.4-2.6-8.6-12.1zM-300.6 399.3s9.7 3.7 13.3-6.7c0 0-8.6-1.6-13.3 6.7z"/><path class="st5" d="M-297.1 380.6s10.3 1.3 8.6 12.1c0 .1-8.3-2.6-8.6-12.1zM-291.4 401.3s10.3 1.8 11.8-9.1c-.1 0-8.9.1-11.8 9.1z"/><path class="st5" d="M-289.7 381.5s10.4.6 9.4 11.6c0-.1-8.5-2.2-9.4-11.6z"/><path class="st5" d="M-286.3 393.1c-20-.6-33.7-11.5-33.8-11.6l.4-.5c.2.2 24 19.2 55 8l.2.6c-7.9 2.8-15.2 3.7-21.8 3.5z"/></g></g></svg>