<svg xmlns="http://www.w3.org/2000/svg" viewBox="126 -122 309 300"><style>.st0{fill:#519E38;} .st1{fill:none;stroke:#FFFFFF;stroke-width:4;stroke-miterlimit:10;} .st2{fill:#FFFFFF;} .st3{fill:#EFEFEF;} .st4{fill:#F2F2F2;} .st5{fill:#00B2E7;} .st6{fill:#D5D6D7;}</style><g id="bath"><g id="vanna_1"><path class="st0" d="M190.7 32.7h5.3v105.1h-5.3zM373.8 32.7l-.1 104.8s1.3 11.2-7.7 11.2H198.7s-5-.3-5-5.8 166.2-2.7 166.2-2.7l7-18.8 1.4-70.8.3-18.1h5.2v.2z"/><path class="st0" d="M377.7 30c0 2.2-1.8 4-4 4h-183c-2.2 0-4-1.8-4-4s1.8-4 4-4h183c2.2 0 4 1.8 4 4z"/><path class="st1" d="M368.7 139.3c0 2-1.6 3.7-3.7 3.7H194.4c-2 0-3.7-1.6-3.7-3.7V32.7c0-2 1.6-3.7 3.7-3.7H365c2 0 3.7 1.6 3.7 3.7v106.6z"/><path class="st2" d="M190.7 78.8h177.7v64.1H190.7z"/><path class="st3" d="M374.7 27c0 2.2-1.8 4-4 4h-183c-2.2 0-4-1.8-4-4s1.8-4 4-4h183c2.2 0 4 1.8 4 4z"/><path class="st2" d="M207.5 64.9c0 1.7-1.4 3.1-3.1 3.1-1.7 0-3.1-1.4-3.1-3.1V42.1c0-1.7 1.4-3.1 3.1-3.1 1.7 0 3.1 1.4 3.1 3.1v22.8z"/></g></g><g id="drop"><path class="st4" d="M265.5-13.4l-.3-.6-5.5-11.2-5.5 11.2-.3.6c-.3.8-.5 1.6-.5 2.5 0 3.5 2.8 6.3 6.3 6.3s6.3-2.8 6.3-6.3c0-.9-.2-1.7-.5-2.5z"/><ellipse class="st2" cx="256.9" cy="-12.4" rx="1.7" ry="1.8"/></g><g id="bottle"><path class="st4" d="M321.1-30c1.1 1.5.9 3.6-.6 4.7L299.2-8.5c-1.5 1.1-3.6.9-4.7-.6l-24.2-30.7c-1.1-1.5-.9-3.6.6-4.7l21.3-16.8c1.5-1.1 3.6-.9 4.7.6L321.1-30z"/><path class="st4" d="M290.47-59.075l-17.198 13.558-5.696-7.225L284.774-66.3z"/><circle class="st5" cx="310.5" cy="-28.2" r="2.8"/><circle class="st5" cx="306.3" cy="-36.4" r="1.7"/><circle class="st5" cx="297.6" cy="-40.6" r="2.4"/><circle class="st5" cx="301.8" cy="-20.9" r="2.5"/><circle class="st5" cx="298.4" cy="-30.1" r="5.5"/><path class="st6" d="M285.2-68.1c.4.5.3 1.2-.2 1.6l-18 14.2c-.5.4-1.2.3-1.6-.2-.4-.5-.3-1.2.2-1.6l18-14.2c.5-.4 1.2-.3 1.6.2z"/><path class="st2" d="M281-36.5c.6.8.5 2-.3 2.6-.8.6-2 .5-2.6-.3l-3.8-4.8c-.6-.8-.5-2 .3-2.6.8-.6 2-.5 2.6.3l3.8 4.8z"/></g></svg>