<svg xmlns="http://www.w3.org/2000/svg" viewBox="164 -164 385.5 384"><style>.st0{fill:#519E38;} .st1{fill:none;stroke:#FFFFFF;stroke-width:4;stroke-miterlimit:10;} .st2{fill:#FFFFFF;} .st3{fill:#EFEFEF;} .st4{fill:#54A4AF;}</style><g id="bath"><g id="vanna_1"><path class="st0" d="M268.2 40.9h5.3V146h-5.3zM451.2 40.9l-.1 104.8s1.3 11.2-7.7 11.2H276.2s-5-.3-5-5.8 166.2-2.7 166.2-2.7l7-18.8 1.4-70.8.3-18.1h5.1v.2z"/><path class="st0" d="M455.2 38.3c0 2.2-1.8 4-4 4h-183c-2.2 0-4-1.8-4-4s1.8-4 4-4h183c2.2 0 4 1.8 4 4z"/><path class="st1" d="M446.2 147.6c0 2-1.6 3.7-3.7 3.7H271.8c-2 0-3.7-1.6-3.7-3.7V40.9c0-2 1.6-3.7 3.7-3.7h170.6c2 0 3.7 1.6 3.7 3.7l.1 106.7z"/><path class="st2" d="M268.2 87.1h177.7v64.1H268.2z"/><path class="st3" d="M452.2 35.3c0 2.2-1.8 4-4 4h-183c-2.2 0-4-1.8-4-4s1.8-4 4-4h183c2.2 0 4 1.8 4 4z"/><path class="st2" d="M285 73.2c0 1.7-1.4 3.1-3.1 3.1-1.7 0-3.1-1.4-3.1-3.1V50.4c0-1.7 1.4-3.1 3.1-3.1 1.7 0 3.1 1.4 3.1 3.1v22.8z"/></g></g><g id="_x31_"><g id="kolba_4"><path class="st0" d="M442.5-56.9l-7-18.7-31.7-31.8-1-.9-1.9 2.6L430-77.1l3.5 2.4 6.5 20.3z"/><path class="st0" d="M500.4-70.1c-.7-.5-1.3-.8-1.3-.8l-52.3-17.7-29.8-29.9-1.2-1-1.3 1.3.2 1.9L445.4-86l25.1 8.2L490-68l.7 7.7-12 14.3-5.8 5.3s-19.4 19.8-18.2 20.9c.4.3.8.5 1.3.5 0 0 1.7 1.9 5.4-1.9l33.7-33.7 2-3.3 1.9-1.9-1.3 2.1 5-4.1c2.9-4.8-2.3-8-2.3-8z"/><path class="st0" d="M502.7-66c1.1 1.1 1.1 2.9 0 3.9l-42.8 42.8c-1.1 1.1-2.9 1.1-3.9 0-1.1-1.1-1.1-2.9 0-3.9L498.8-66c1.1-1.1 2.8-1.1 3.9 0zM413.9-120.4L401-107.5c-.7.7-.7 1.9 0 2.6.7.7 1.9.7 2.6 0l12.9-12.9c.7-.7.7-1.9 0-2.6-.8-.8-1.9-.8-2.6 0z"/><path class="st2" d="M472.3-76.6L442-46.3l8.2 23.5c1.3 3.7 4.6 4.6 7.4 1.8l40-40c2.8-2.8 1.9-6.1-1.8-7.4l-23.5-8.2z"/><path class="st3" d="M443-47.1l28.5-28.5-7.6-2.7-23.7 23.7z"/><path class="st2" d="M412-117l31.9 31.9c.3.3.6.4 1 .5s.8.2 1.1.3l26.3 9 24 8.2c1.2.4 2 1.1 2.2 1.9s-.2 1.7-1.1 2.6L456-21.2c-.9.9-1.9 1.3-2.6 1.1-.8-.2-1.5-1-1.9-2.2l-8.2-24-9-26.3c-.1-.4-.2-.7-.3-1.1-.1-.4-.2-.7-.5-1l-31.9-31.9L412-117zm0-2.6l-13 12.9 33.2 33.2c.1.5.2 1 .4 1.4l9 26.3 8.2 24c1.3 3.8 4.7 4.6 7.5 1.8l41.4-41.4c2.8-2.8 2.1-6.2-1.8-7.5L473-77l-26.3-9c-.4-.2-.9-.3-1.4-.4L412-119.6z"/><path class="st3" d="M411.4-120.2l-12.9 12.9c-.7.7-.7 1.9 0 2.6.7.7 1.9.7 2.6 0l12.9-13c.7-.7.7-1.9 0-2.6-.7-.6-1.9-.6-2.6.1z"/><path class="st2" d="M442.6-65.3c-.2.2-.4.3-.6.4-.9.3-1.9-.1-2.2-1l-2.7-6.9c-.3-.9.1-1.9 1-2.2.9-.3 1.9.1 2.2 1l2.7 6.9c.3.6.1 1.3-.4 1.8zM435.4-79.2c-.6.6-1.6.6-2.2 0l-24.6-24.6c-.6-.6-.6-1.6 0-2.2.6-.6 1.6-.6 2.2 0l24.6 24.6c.6.6.6 1.6 0 2.2z"/></g></g><g id="_x32_"><g id="kolba_3"><path class="st0" d="M248.5-78.1l18.7-6.9 31.7-31.8 1-1-2.7-1.9-28.6 29.1-2.3 3.5-20.4 6.5z"/><path class="st0" d="M261.6-20.2c.5-.7.8-1.3.8-1.3l17.7-52.3 29.9-29.7 1-1.2-1.3-1.3-1.9.2-30.3 30.7-8.2 25.1-9.7 19.4-7.7.7L237.6-42l-5.3-5.8S212.5-67.2 211.4-66c-.3.4-.5.8-.5 1.3 0 0-1.9 1.7 1.9 5.4l33.7 33.7 3.3 2 1.9 1.9-2.1-1.3 4.1 5c4.7 3.1 7.9-2.2 7.9-2.2z"/><path class="st0" d="M257.6-17.9c-1.1 1.1-2.9 1.1-3.9 0l-42.8-42.8c-1.1-1.1-1.1-2.9 0-3.9 1.1-1.1 2.9-1.1 3.9 0l42.8 42.8c1.1 1.1 1.1 2.8 0 3.9zM312-106.7l-13-13c-.7-.7-1.9-.7-2.6 0-.7.7-.7 1.9 0 2.6l12.9 12.9c.7.7 1.9.7 2.6 0 .8-.6.8-1.8.1-2.5z"/><path class="st2" d="M268.2-48.3l-30.4-30.3-23.5 8.2c-3.7 1.3-4.6 4.6-1.8 7.4l40 40c2.8 2.8 6.1 1.9 7.4-1.8l8.3-23.5z"/><path class="st3" d="M238.6-77.6l28.5 28.5 2.8-7.6-23.8-23.7z"/><path class="st2" d="M308.6-108.6l-31.9 31.9c-.3.3-.4.6-.5 1-.1.4-.2.8-.3 1.1l-9 26.3-8.2 24c-.4 1.2-1.1 2-1.9 2.2-.8.2-1.7-.2-2.6-1.1l-41.5-41.4c-.9-.9-1.3-1.9-1.1-2.6.2-.8 1-1.5 2.2-1.9l24-8.2 26.3-9c.4-.1.7-.2 1.1-.3.4-.1.7-.2 1-.5l32-31.9 10.4 10.4zm2.5 0l-12.9-12.9L265-88.3c-.5.1-1 .2-1.4.4l-26.3 9-24 8.2c-3.8 1.3-4.6 4.7-1.8 7.5l41.4 41.4c2.8 2.8 6.2 2.1 7.5-1.8l8.2-24 9-26.3c.2-.4.3-.9.4-1.4l33.1-33.3z"/><path class="st3" d="M311.7-109.2l-12.9-12.9c-.7-.7-1.9-.7-2.6 0s-.7 1.9 0 2.6l12.9 12.9c.7.7 1.9.7 2.6 0 .7-.7.7-1.9 0-2.6z"/><path class="st2" d="M256.8-77.9c-.2-.2-.3-.4-.4-.6-.3-.9.1-1.9 1-2.2l6.9-2.7c.9-.3 1.9.1 2.2 1s-.1 1.9-1 2.2l-6.9 2.7c-.6.2-1.3 0-1.8-.4zM270.7-85.2c-.6-.6-.6-1.6 0-2.2l24.7-24.6c.6-.6 1.6-.6 2.2 0 .6.6.6 1.6 0 2.2L273-85.2c-.7.6-1.7.6-2.3 0z"/></g></g></svg>