<svg id="Layer_1" xmlns="http://www.w3.org/2000/svg" viewBox="0 0 130 153.8"><style>.st0{fill:#E2E2E2;} .st1{fill:#EFEFEF;} .st2{fill:#D3D3D3;} .st3{fill:#FFFFFF;} .st4{fill:#C62263;} .st5{fill:#62BA47;} .st6{fill-rule:evenodd;clip-rule:evenodd;fill:#C62263;} .st7{fill-rule:evenodd;clip-rule:evenodd;fill:#62BA47;} .st8{fill:#62BA46;}</style><path class="st0" d="M106 29.8H22.9l10.7 83.4h.1c1.4 8.5 8.6 15 17.3 15h26.8c8.7 0 15.9-6.5 17.3-15L106 29.8z"/><path class="st1" d="M110.8 26.9c0 1.6-1.3 2.9-2.9 2.9H22.1c-1.6 0-2.9-1.3-2.9-2.9 0-1.6 1.3-2.9 2.9-2.9h85.8c1.6 0 2.9 1.3 2.9 2.9z"/><path class="st2" d="M77.9 29.8H64.5v98.3h13.4c8.7 0 15.9-6.5 17.3-15L106 29.8H77.9z"/><path class="st3" d="M38.7 47.1c.3 2.5-1.4 4.7-3.9 5-2.5.3-4.7-1.4-5-3.9l-1.2-9.1c-.3-2.5 1.4-4.7 3.9-5 2.5-.3 4.7 1.4 5 3.9l1.2 9.1z"/><g><circle class="st4" cx="64.8" cy="75" r="18.8"/><circle class="st5" cx="49.8" cy="91.7" r="5.9"/><path class="st6" d="M55.9 52c0 1.3-1.1 2.4-2.4 2.4-1.3 0-2.4-1.1-2.4-2.4 0-1.3 1.1-2.4 2.4-2.4 1.3 0 2.4 1 2.4 2.4z"/><path class="st7" d="M56 60.1c0 1.7-1.4 3.1-3.1 3.1-1.7 0-3.1-1.4-3.1-3.1 0-1.7 1.4-3.1 3.1-3.1 1.7 0 3.1 1.4 3.1 3.1zM47.8 55.3c0 1-.8 1.8-1.8 1.8s-1.8-.8-1.8-1.8.8-1.8 1.8-1.8c.9 0 1.8.8 1.8 1.8z"/><circle class="st5" cx="80.9" cy="57.8" r="10.4"/><path class="st3" d="M78.3 56.4c-.9.1-1.1 1.1-1.1 1.8v.3c0 .3 0 .6-.1.9 0 .1-.1.4-.1.4-.3 0-.6-.4-.6-.7-.2-.5-.4-1.1-.5-1.6-.1-.6-.2-1.2-.2-1.8v-.8-.3-.2c.1-.5-.6 0-.7.2-.7 1.2-.5 2.6-.5 3.9 0 .4 0 .7-.1 1.1 0 .2-.1.7-.3.9-.1.1-.4 0-.5 0-.2-.1-.3-.3-.3-.5s-.2-.1-.4 0c-.1.1-.3.4-.3.6.1.5.5.9 1 .7.8-.2 1.1-1.1 1.3-1.9.1-.3.1-.7.2-1 .1.5.3 1 .5 1.5.2.3.5.7.9.6.3-.1.6-.4.7-.8.1.3.4.6.8.6s.8-.5.9-.8c.2-.4.2-.9.2-1.3.3-.7.1-1.9-.8-1.8zm.3 2.9c0 .1 0 .2-.1.3-.2 0-.3-.3-.3-.4-.1-.3-.2-.6-.2-.9v-1c0-.1 0-.2.1-.2.4.3.5.8.6 1.3-.1.3-.1.6-.1.9zM88.6 57.6c-.9-.3-1.4.9-1.6 1.6-.2.7-.4 1.8.4 2.1.4.2.9-.1 1.1-.4.3-.3.5-.7.6-1.1.2-.7.3-1.9-.5-2.2zm-.6 2.9c0 .1-.1.1-.1.2-.1-.1-.2-.4-.2-.5v-1l.3-.9c0-.1.1-.1.1-.2.4.4.3 1 .2 1.5 0 .3-.1.7-.3.9zM86.1 57.7c.2-.2.3-.5.5-.7.3-.5.7-1.1.6-1.8 0-.6-.8-.6-1.2-.4-.6.3-.9.9-1.1 1.5-.2.8-.4 1.6-.4 2.4-.3.3-.9 1.1-1.4.8-.1-.1-.2-.2-.2-.4.4-.4.7-.8 1-1.3.3-.4.5-1.1-.1-1.4-.4-.3-1 0-1.3.4-.3.4-.4.8-.5 1.3 0 .2-.1.7 0 1.1-.3.2-.6.3-.9.2-.4-.1-.5-.4-.6-.7-.1-.4-.1-.9 0-1.3 0-.1.1-.3.1-.4v-.1c.2.1.3.4.4.6.1.3.9-.2.8-.5-.1-.3-.2-.6-.6-.8-.3-.2-.8.1-1 .3-.6.6-.6 1.4-.6 2.1 0 .5.1 1.1.5 1.3.6.3 1.3 0 1.9-.3.1.3.4.6.9.5.6-.1 1.1-.4 1.5-.8 0 .4.1.9.4 1.1.5.3 1.1 0 1.4-.4.4-.5.7-1.3.4-1.9 0-.2-.2-.4-.5-.4zm-3.1-.3c0-.1.1-.2.1-.3.2.1.3.4.2.5 0 .4-.3.7-.5 1v-.2c0-.3 0-.7.2-1zm2.9-1.7c.1-.1.1-.2.2-.3.4.4 0 1-.2 1.3-.2.4-.4.7-.7 1.1 0-.4.1-.7.2-1.1.2-.4.4-.7.5-1zm-.2 4.2s-.1.1-.1.2h-.1c-.2-.1-.2-.6-.3-.8v-.5l.3-.3c.2-.1.3.1.4.3.2.3 0 .8-.2 1.1zM80.2 79.6c0-.3-.5-.2-.6-.2 0 0-.1-.1-.1-.4v-.9c.1-.9.3-1.8.6-2.7v-.1c.1-.6-.4-1.1-1.1-1.2-.7-.1-1.3.2-1.7.7-.6.6-.9 1.4-1 2.2-.2 1.1-.5 1-.6 1-.2-.1-.1-.8-.1-1.1 0-.9.2-1.8.5-2.7l.3-.6c.1-.2 0-.4-.3-.4s-.7.2-.8.5c-.1.2-.2.4-.3.7-.2.3-.3.6-.6.8-.2.2-.3.3-.6.4h-.1c.1-.9.1-1.8.2-2.7 0-.6-1.2-.1-1.2.3 0 .5 0 1.1-.1 1.6-.1.3-.2.7-.3 1-.2.4-.4 1-.7 1.2-.1-.3-.1-.6-.1-.9 0-.5 0-1 .1-1.5 0-.3.1-.5.1-.8 0-.2.1-.4.1-.6v-.1c0-.6-.5-1-1.2-1-.7.1-1.3.5-1.6 1-.8.9-1 1.7-1 2.6 0 .2-.1.9-.4 1l-.1-.1c-.1-.3-.1-.5-.1-.8 0-1.1.2-2.4-.3-3.4-.4-.8-1.4-.1-1.8.5-.1-.3-.2-.6-.4-.8-.3-.2-.8 0-1 .1-.2.1-.4.3-.5.5v-.4c-.1-.6-1.2.2-1.2.6.1.6.1 1.2.1 1.8 0 .9-.4 2.4-1.6 2.3-.3 0-.4-.3-.6-.5.3-.4.6-.9.9-1.4.5-.8.9-1.9.3-2.6-.4-.5-1.4 0-1.8.4-.5.6-.7 1.3-.8 2 0 .4 0 1.3.2 2-.1.1-.2.2-.3.2h-.1-.1l-.3-.3c-.2-.4-.3-.8-.4-1.2-.2-.8-.3-1.7-.1-2.5 0-.2 0-.4-.3-.3-.3.1-.6.4-.7.7v.1c-.2.5-.3 1-.4 1.5-.2-.6-.4-1.3-.3-1.9.1-.2 0-.4-.3-.3-.3.1-.6.4-.6.6-.4.9-.3 1.9-.3 3 0 .5 0 1-.1 1.5h-.1c-.3-.1-.4-.5-.4-.7v-.1c0-.1-.2-.1-.3 0h-.1c-.2.1-.3.2-.4.4-.1.1-.2.3-.2.4-.1.3-.1.5-.5.6h-.5c-.4-.1-.7-.4-.8-.7-.5-.9-.8-1.8-.9-2.9-.1-.5 0-1 .1-1.6 0-.2.1-.4.1-.6 0-.1.1-.3.1-.3s0-.1.1-.1l.1-.1s.3-.1.4-.1c.8-.1 1.1.6 1.3 1.1.1.4 1.2-.6 1-1-.2-.7-.7-1.4-1.7-1.3-.6.1-1.2.4-1.6.9-.9 1.1-1.1 2.7-1 4.1.1 1.3.4 2.6 1.3 3.5.3.3.8.5 1.3.4.6-.1 1-.5 1.4-1 .3.4.7.6 1.3.1.5-.4.8-1.1.9-1.7l.3 1.2c.1.6 1-.4 1-.8V77c.3 1 .9 1.6 1.8.9 0 0 .1 0 .1-.1l.4-.4c.2.3.5.5.9.5.7 0 1.4-.5 1.8-.9l.4-.4v.9c0 .6 1.1-.2 1.1-.6 0-1.2.2-2.3.4-3.5 0-.1.1-.2.1-.3.3.6.3 1.4.3 2.1v2.2c0 .6 1.1-.2 1.1-.6 0-.4 0-.9.1-1.3.1-.8.2-1.7.6-2.4 0 .1.1.2.1.3.2.6.2 1.3.2 1.8 0 .8-.2 2.1.6 2.4.3.1 1-.3 1.3-.6.1.3.2.5.5.7.5.3 1.2 0 1.6-.3 0 .2.1.5.3.6.2.1.6.1.8 0 .4-.1.7-.4.9-.6 0 .2-.1.5-.1.7 0 .3.3.3.5.2.3-.1.6-.3.7-.6.1-.5.2-.9.5-1.3.2-.2.3-.2.6-.4-.1.7-.2 1.4-.1 2.2.1.7.5.9 1.2.7.3-.1.5-.2.7-.3.1.3.2.5.4.7.5.4 1.2.2 1.6 0h.1c0 .2 0 .4.1.6.3.5.9.4 1.2.3.2-.1.6-.3.6-.6zm-20.3-6.2zm-.1 1.3c0-.5.1-.9.2-1.4.1 0 .1 0 .2.1.5.3.2 1.1 0 1.5-.1.2-.2.5-.4.7.1-.3 0-.6 0-.9zm10.1 2l-.1.2h-.2c-.2-.1-.3-.5-.4-.7-.2-.7-.1-1.6.2-2.3.1-.2.3-.6.4-.7h.2c.3.1.4.3.4.5-.1 1.1-.2 2.1-.5 3zm8 1.8s-.1.1-.1.2c0 0-.1 0-.2-.1-.2-.1-.2-.5-.3-.7-.1-.8.1-1.6.4-2.3.1-.2.3-.5.4-.6h.2c.3.1.4.3.3.5-.1 1.1-.3 2.1-.7 3z"/><g><path class="st3" d="M49.8 89.5c-.9.1-1.2 1.2-1.3 2-.1.6-.1 2.3.9 2.4 1 .1 1.3-1.2 1.4-1.9 0-.8 0-2.4-1-2.5-.2 0-.7.6-.4.7.5 0 .7.8.7 1.2 0 .3.1 1.7-.2 1.8-.5.2-.7-.9-.7-1.2 0-.3-.1-1.8.3-1.8.2-.1.6-.7.3-.7z"/><path class="st3" d="M46.1 90.6c.3-.7.8-.2 1 .1.2.5 0 1-.3 1.4-.2.3-.6.6-.9.8-.2.1-.3.2-.5.4 0 .1-.1.2 0 .3.3.2.8.2 1.1.2.5 0 1.1 0 1.6-.2.3-.1.5-.8 0-.6-.4.2-.9.2-1.3.1-.2 0-.7 0-.8-.1v.3c-.2.4-.1.2.1.1s.3-.2.5-.4c.3-.2.5-.5.7-.8.4-.5.7-1.2.6-1.9-.3-1.6-2-.4-2.3.4-.3.5.4.1.5-.1zM54 90c-.7 1.2-1.6 2.3-2.5 3.5-.4.5.2.5.5.1.9-1.2 1.9-2.4 2.6-3.6.3-.6-.4-.3-.6 0zM52.7 89.7c-.4 0-.8.4-.9.8-.1.4.2.7.6.7.8.1 1.2-1.5.3-1.5-.2 0-.5.5-.3.5s.3.2.4.4v.2c0 .1 0 0 0 0h-.1c-.2 0-.3-.2-.3-.4v-.2c0-.1 0 0 0 0h.1c.1-.1.4-.6.2-.5zM53.9 92.2c-.4 0-.8.4-.9.8-.1.4.2.7.6.7.9.1 1.3-1.4.3-1.5-.2 0-.5.5-.3.5s.3.2.4.4v.2c0 .1 0 0 0 0h-.1c-.2 0-.3-.2-.3-.4v-.2c0-.1 0 0 0 0h.1c.1 0 .5-.5.2-.5z"/></g><g><path class="st8" d="M42 67c-.1 0-.2-.2-.3-.2-.4-.1-.7.1-1.1.1-.9 0-1.2 0-2.3-.3 0-.9.5-1.5.8-2.2.2-.6-.1-1.4-.1-2.1V61c-.3.3-.2 1.1-.2 1.5-.1-.6-.1-1.3-.3-1.8-.1.5 0 1.3 0 1.8-.2-.5-.2-1.1-.4-1.5-.2.5.2 1.3.1 1.7-.2-.4-.3-1-.5-1.4-.1.6.2 1.1.2 1.5-.2-.4-.3-.8-.6-1 0 .4.2.8.4 1.2-.3-.1-.3-.4-.6-.5 0 .3.2.5.3.7-.2-.1-.3-.3-.5-.4 0 .3.2.3.3.6-.1-.1-.2-.2-.4-.3 0 .2.3.3.3.5 0 0-.2-.1-.2 0 0 0 .2.1.1.2h-.2c0 .1.2.1.1.3-.1 0-.1-.1-.1 0s.1.1.1.2c-.8.8-.3 1.7-.4 2.6 0-.1-.6-.3-1.2-.5-.3-.1-.3-.5-.6-.6 0-.1.1 0 .1-.1-.1 0-.2-.1-.2-.2.1 0 .3.1.3 0-.1-.1-.5-.2-.4-.3.2 0 .4.1.5.1-.2-.1-.6-.3-.6-.5.2.1.5.3.7.2-.3-.2-.8-.4-.9-.7.2.1.5.4.8.4-.3-.3-.6-.7-1-.7.2.4.7.5.9.8-.3-.2-.6-.3-.9-.5.1.4.5.5.8.7-.3 0-.4-.2-.7-.2.1.3.5.2.7.5-.1-.1-.3 0-.5 0 0 .2.3.1.5.2-.2 0-.3 0-.4.1.1.1.3.1.4.2-.1 0-.2 0-.2.1s.2 0 .3.1c-.1 0-.1.1-.1.1h.2s-.1 0-.1.1c.4.2.6.9 1.2 1.1-.3.2.3.4-3.3 1.7.1 0 1.6-.4 2-.5.4-.2.9-.3 1.3-.4.1 0 .2-.1.3-.1.8-.1 1.4.1 2.2-.4-.6.1-1.5.2-1.9-.1.5-.8.2-2.7.5-3.1.4-.4 1-1.6 1.8-.6.1.2.1.4-.1.9-.3.5-.5.8-.5 2 0 .2 0 .5-.4.5 1.6.3 2 .2 2.9 0 .3 0 .7-.3.8 0 0 .1-.3.1-.6.1-.4 0 .2.2.4.1.1 0 .9-.1 1.4-.2-.4-.1-.6-.1-.9-.2z"/><path class="st8" d="M37.4 59c-3.6 0-6.5 2.9-6.5 6.5s2.9 6.5 6.5 6.5 6.5-2.9 6.5-6.5S41 59 37.4 59m0 .3c3.5 0 6.3 2.8 6.3 6.3s-2.8 6.3-6.3 6.3-6.3-2.8-6.3-6.3c.1-3.5 2.9-6.3 6.3-6.3"/></g></g></svg>