<svg xmlns="http://www.w3.org/2000/svg" viewBox="0 0 372 303.7"><style>.st0{fill:#519E38;} .st1{fill:#FFF33B;} .st2{fill:#FFFCDC;} .st3{fill:#FCE5B4;} .st4{fill:#723322;} .st5{fill:#3A1305;} .st6{fill:#EACC96;} .st7{fill:#D1AF79;} .st8{fill:#FFFFFF;} .st9{fill:#B93C00;} .st10{fill:#896242;} .st11{fill:#492A0E;} .st12{fill:#724C2F;} .st13{fill:#FFDA9F;} .st14{fill:none;stroke:#FFDA9F;stroke-miterlimit:10;}</style><g id="masloboika"><path class="st0" d="M217.5 129.5h-44.7c-5 0-9.1-4.1-9.1-9.1V64.2c0-5 4.1-9.1 9.1-9.1h44.7c5 0 9.1 4.1 9.1 9.1v56.2c0 5-4.1 9.1-9.1 9.1z"/><path class="st1" d="M219.2 260.8l-69.7-21.2c-6.3-1.9-9.9-8.7-8-15l21.2-69.7c1.9-6.3 8.7-9.9 15-8l69.7 21.2c6.3 1.9 9.9 8.7 8 15l-21.2 69.7c-1.9 6.3-8.7 9.9-15 8z"/><path class="st2" d="M173.3 198.1c-4.2-1.3-6.6-5.8-5.3-10l6.4-20.8c1.3-4.2 5.8-6.6 10-5.3 4.2 1.3 6.6 5.8 5.3 10l-6.4 20.8c-1.3 4.2-5.8 6.6-10 5.3z"/><path class="st0" d="M256.982 85.583l58.565 2.09-2.706 75.853-58.564-2.09z"/><path class="st3" d="M252.183 80.383l58.565 2.09-2.71 75.953-58.564-2.09z"/><path class="st4" d="M259.5 145.2c.9.3 1.3.9 1.3 1.7 0 .6-.2 1.1-.6 1.4-.4.3-1 .4-1.7.4l-2.8-.1v-.8h.8l.2-5h-.8v-.8l2.6.1c1.4 0 2 .6 2 1.8 0 .5-.3 1-1 1.3zm-1.9-2.4l-.1 2h.7c.9 0 1.3-.3 1.4-.9 0-.3-.1-.6-.3-.8-.2-.2-.5-.3-.9-.3h-.8zm-.1 2.7l-.1 2.3h.9c.5 0 .8-.1 1.1-.3.3-.2.4-.5.4-.8 0-.4-.1-.6-.4-.8-.3-.2-.6-.3-1.2-.3l-.7-.1zM261.2 148.7v-.8h.7l1.9-4.9h-.9v-.8l3.3.1v.8h-.8l1.5 5h.7v.8l-2.5-.1v-.8h.8l-.5-1.5-2.2-.1-.6 1.5h.7v.8h-2.1zm2.6-3l1.7.1-.7-2.5-1 2.4zM270.1 143.3l-.1 1.9 2.9.1.1-1.9h-.8v-.8l2.5.1v.8h-.8l-.2 5h.8v.8l-2.5-.1v-.8h.8l.1-2.3-2.9-.1-.1 2.3h.8v.8l-2.5-.1v-.8h.8l.2-5h-.8v-.8l2.5.1v.8h-.8zM276.9 143.5l-.2 4.4 3-5.1 1.8.1v.8h-.8l-.2 5h.8v.8l-2.5-.1v-.8h.8l.2-4.3-3 5-1.8-.1v-.8h.8l.2-5h-.8v-.8l2.5.1v.8h-.8zM286.5 143.8l-2.4-.1-.1 2.4c0 1.3-.2 2.2-.5 2.7-.3.6-.8.8-1.4.8-.2 0-.4 0-.6-.1v-.9c.1 0 .1 0 .2.1h.3c.3 0 .5-.2.7-.5.2-.5.3-1.2.4-2.3l.1-2.2h-.8v-.8l5.7.2v.8h-.8l-.2 5h.8v.8l-2.5-.1v-.8h.8l.3-5zM290.5 144l-.2 4.4 3-5.1 1.8.1v.8h-.8l-.2 5h.8v.8l-2.5-.1v-.8h.8l.2-4.3-3 5-1.8-.1v-.8h.8l.2-5h-.8v-.8l2.5.1v.8h-.8zM297.3 144.2l-.1 1.9 2.9.1.1-1.9h-.8v-.8l2.5.1v.8h-.8l-.2 5h.8v.8l-2.5-.1v-.8h.8l.1-2.3-2.9-.1-.1 2.3h.8v.8l-2.5-.1v-.8h.8l.2-5h-.8v-.8l2.5.1v.8h-.8z"/><g><path class="st5" d="M261 134s-1.7 1-1.4 2c.3 1 1.7.1 2.2-.8.4-.9 4.3-4 4.9-4.4.6-.4 9.7-10.8 9.7-10.8s16.4-19.6 17.2-22.8c.8-3.2 3.3-6.6 3.3-6.6l-.9-.2s-3.8 6.5-7.9 11.5c-4 5.1-21.6 26-24.6 28.9-3.1 2.9-2.5 3.2-2.5 3.2z"/><path class="st5" d="M267.9 135.2s1.2 1.2-.8 1.7-3.1-2.1-1.8-4.3c1.2-2.2 4.1-4.6 5.2-6.2 1.1-1.5 1.3-2.2 2.8-4.6 1.5-2.4 6-8.6 6-8.6l12.5-15.1s3.8-1.5 4.9-3.2c1.1-1.7 2.5-4-.4-3.2-2.8.8 2.3-2.8 2.9 0 .6 2.8-4.1 6.1-6.8 8.1s-9 11.6-9 11.6l-1.7 3s-6.6 7.3-7.1 8.8c-.5 1.5-5.5 8.3-8 10.1-2.5 1.9.7 2.3 1.3 1.9z"/><path class="st6" d="M277.5 111.5c-.5-.5-4.2-3.9-4.2-3.9s-1.7-8.2.6-9.7c0 0 3.8-.5 6.9 5.9l-.5 8.3-.7-.4s-1.3-8.8-4.4-11.8c0 0 5.3 10.3 3.8 12.2l-1.5-.6zM285.7 115.8s8.7-.6 11.8-4.1c0 0-5.7-6.2-12.8-3.7l-2.6 3.9s5.9-2.3 13.1-.6c0 0-9.3-1.7-13.6 2l4.1 2.5zM265.8 123.2s.3-7 5.5-9.7l6.3.4 1 .2s-5.7 1-10.1 6c0 0 6.3-4.8 10.3-5.8l.6 2.4c0 .1-1 4.3-13.6 6.5z"/><path class="st6" d="M277.5 114.2s-11-.3-13.6-4c0 0 6.2-8 15.7 1.2l-1.3.9s-6.6-2.7-10.5-2.4c0 0 8.2.9 10.1 3l-.4 1.3zM279.2 109.6s-2.7-7.1 9.1-10.8c0 0 .3 0-.8 4.7s-5.9 10.5-5.9 10.5l-.9-1.5-.1-1.3s-.2-6.3 5.7-9.8c0 0-4.9 1.8-6.1 9.5l-1-1.3z"/><path class="st6" d="M277.7 115.5s-3.5.7 1.7 6.6c5.2 5.9 4.6 5.1 4.6 5.1s.7 3.6 1.7-1.3c1.1-4.8 1.7-11.1-2.9-12.8l-2.2 1.5s4.7 4.1 3.9 10.8c0 0-.4-8.5-4.3-9.9h-2.5z"/><path d="M278.4 110.9s0 1.1-.2 1.4c-.2.3-1.4 1.2-1.4 1.2s2.1.9 1.7 2.6c0 0 1.3-1 2.4-.1 0 0-.6-1.7 1.7-2.5 0 0-2.4-2.2-1.7-2.9 0-.1-1.3 1-2.5.3zM280.1 117.4c.1.1 0 .3-.1.4-.1.1-.3.1-.4-.1-.1-.1 0-.3.1-.4.2-.1.3-.1.4.1z"/><circle cx="280.7" cy="117.3" r=".3"/><circle cx="282.3" cy="115.2" r=".3"/><path class="st7" d="M267.7 109.9s5.8-3.7 10.6 1l-.2 1.4c.1 0-6.8-2.5-10.4-2.4zM281 110s.6-5.9 5.4-8.2c0 0 .6 6.6-4.3 10.6.1 0-1.2-.4-1.1-2.4zM283.2 113s5.4-3.3 13.8-.9c0 0-8.5 3.9-11.7 3.1 0 0-.3-1.3-2.1-2.2z"/><path class="st8" d="M279.7 114.4s.7 1.3.2 3.1c0 0 .4-2-.3-2.9-.7-1 .1-.2.1-.2z"/><path class="st8" d="M279.9 114.2s.9 1.2.7 3.1c0 0 0-2-.9-2.8-.8-.9.2-.3.2-.3zM280.1 113.6s1.2.1 2.3 1.6c0 0-1.2-1.5-2.2-1.4-1 .2-.1-.2-.1-.2z"/></g><path class="st9" d="M213.2 125.7h-44.7c-5 0-9.1-4.1-9.1-9.1V60.4c0-5 4.1-9.1 9.1-9.1h44.7c5 0 9.1 4.1 9.1 9.1v56.2c-.1 5-4.1 9.1-9.1 9.1z"/></g><g id="clock"><path class="st8" d="M178.4 78c-.3.2-1.1.4-2.1.4-2.9 0-4.4-1.8-4.4-4.2 0-2.9 2-4.4 4.6-4.4 1 0 1.7.2 2.1.4l-.4 1.5c-.4-.2-.9-.3-1.6-.3-1.5 0-2.7.9-2.7 2.8 0 1.7 1 2.7 2.7 2.7.6 0 1.2-.1 1.6-.3l.2 1.4zM181.8 76.1l-.6 2.1h-2l2.6-8.4h2.5l2.6 8.4h-2l-.6-2.1h-2.5zm2.1-1.4l-.5-1.8c-.1-.5-.3-1.1-.4-1.6-.1.5-.2 1.1-.4 1.6l-.5 1.8h1.8zM192.4 78.3l-.8-1.5c-.3-.6-.5-1-.7-1.5-.2.5-.4.9-.6 1.5l-.7 1.5h-2.2l2.4-4.2-2.3-4.1h2.2l.7 1.5c.2.5.4.9.6 1.4.2-.5.4-.9.6-1.4l.7-1.5h2.2l-2.4 4.1 2.5 4.3h-2.2zM197.5 76.1l-.6 2.1h-2l2.6-8.4h2.5l2.6 8.4h-2l-.6-2.1h-2.5zm2.1-1.4l-.5-1.8c-.1-.5-.3-1.1-.4-1.6-.1.5-.2 1.1-.4 1.6l-.5 1.8h1.8zM203.7 70c.6-.1 1.4-.2 2.6-.2 1.2 0 2 .2 2.6.7.5.4.9 1.1.9 1.9 0 .8-.3 1.5-.8 2-.6.6-1.6.9-2.7.9h-.6v3h-1.9V70zm1.9 3.8h.6c1 0 1.6-.5 1.6-1.4 0-.8-.5-1.2-1.5-1.2-.4 0-.6 0-.8.1v2.5zM181.6 96.152l7.758-2.326 2.326 7.76-7.76 2.325zM194.938 85.5l6.86 4.307-4.306 6.86-6.86-4.306zM187.137 105.97l8.086.47-.47 8.087-8.086-.47z"/><path class="st10" d="M64.323 136.817l42.045-16.593 20.338 51.533L84.66 188.35z"/><path class="st11" d="M131.2 161.4l-4.5 10.4-20.4-51.5 4.7-10.2z"/><path class="st12" d="M106.3 120.2l-42 16.6 4.6-10.1 42.1-16.6z"/><g><path class="st13" d="M80 148.4l.4-.2.8-2.9 1.2-.5-.9 3.4 3.2 2-1.2.5-2.6-1.6-.5.2.9 2.2-1 .4-2.1-5.4 1-.4.8 2.3z"/><path class="st13" d="M84.5 144.1l.9-.4 4.2 4.6-1.1.4-1-1.2-1.9.7v1.5l-1.1.4v-6zm2.6 2.8l-1.6-1.8.1 2.4 1.5-.6zM90.1 144.5l.4-.2.8-2.9 1.2-.5-.9 3.4 3.2 2-1.2.5-2.6-1.6-.5.2.9 2.2-1 .4-2.1-5.4 1-.4.8 2.3z"/><path class="st13" d="M94.6 140.1l.9-.4 4.2 4.6-1.1.4-1-1.2-1.9.7v1.5l-1.1.4v-6zm2.6 2.8l-1.6-1.8.1 2.4 1.5-.6zM102.5 143.3c-.4.2-.8.2-1.2.2-.4 0-.7-.1-1.1-.3-.3-.2-.6-.4-.9-.7-.3-.3-.5-.6-.6-.9-.1-.4-.2-.7-.2-1.1 0-.4.1-.7.2-1.1.1-.3.3-.7.6-.9.3-.3.6-.5 1-.6.4-.2.8-.2 1.2-.2.4 0 .7.1 1.1.3s.6.4.9.7c.3.3.5.6.6.9.1.4.2.7.2 1.1 0 .4-.1.7-.2 1.1-.1.3-.3.7-.6.9-.3.2-.6.4-1 .6zm-2.7-2.1c.1.2.2.4.4.6l.5.5c.2.1.4.2.7.2.2 0 .5 0 .7-.1.3-.1.5-.2.6-.4.2-.2.3-.4.3-.6.1-.2.1-.5.1-.7 0-.2-.1-.5-.2-.7-.1-.2-.2-.4-.4-.6l-.5-.5c-.2-.1-.4-.2-.7-.2-.2 0-.5 0-.7.1-.3.1-.5.2-.6.4-.2.2-.3.4-.3.6-.1.2-.1.5-.1.7.1.2.2.4.2.7z"/></g><path class="st14" d="M72.724 145.07l32.557-12.85 4.81 12.186-32.557 12.85z"/></g></svg>