<svg xmlns="http://www.w3.org/2000/svg" viewBox="0 0 316.5 235.5"><style>.st0{fill:#519E38;} .st1{fill:#663D2F;} .st2{fill:#EFEFEF;} .st3{fill:#DDDDDD;} .st4{fill:#FFFFFF;} .st5{fill:#B5978F;}</style><g id="masloboika"><path class="st0" d="M266.7 115.5h-22.2C239 88.8 206 68.3 166.1 68.3c-39.9 0-72.9 20.5-78.4 47.2H65.5c-2.1 0-3.9 1.7-3.9 3.9 0 2.1 1.7 3.9 3.9 3.9h1.1c14.4 41 53.5 70.5 99.5 70.5s85.1-29.4 99.5-70.5h1.2c2.1 0 3.9-1.7 3.9-3.9-.1-2.2-1.9-3.9-4-3.9z"/><ellipse class="st1" cx="156.9" cy="117.4" rx="79.2" ry="55"/><path class="st2" d="M57.3 117.4c14.4 41 53.5 70.5 99.5 70.5s85.1-29.4 99.5-70.5h-199z"/><path class="st3" d="M257.5 117.4H56.3c-2.1 0-3.9-1.7-3.9-3.9 0-2.1 1.7-3.9 3.9-3.9h201.2c2.1 0 3.9 1.7 3.9 3.9 0 2.1-1.8 3.9-3.9 3.9z"/><path class="st4" d="M93.2 151.9c-.9 0-1.8-.2-2.7-.7-12.1-7.1-17.8-20.2-18-20.7-1.2-2.7.1-5.9 2.8-7 2.7-1.2 5.9.1 7 2.8.1.1 4.6 10.4 13.6 15.7 2.6 1.5 3.4 4.8 1.9 7.3-.9 1.6-2.7 2.6-4.6 2.6z"/><path class="st1" d="M130.4 65.2s33.3-6.7 30.3-26c0 0 9.7 5 12.3 14.3s21.7 16 21.7 16 13 21 10 22.3c-3 1.3-79.7 10.3-79.7 10.3s-7.3-7.3-5.7-9.3c1.8-2 11.1-27.6 11.1-27.6z"/><path class="st5" d="M105 100.3c-1 0-2-.3-2.8-.9-2.3-1.6-2.8-4.7-1.3-7 7-10.2 19.8-16.3 20.4-16.6 2.5-1.2 5.5-.1 6.7 2.4 1.2 2.5.1 5.5-2.4 6.7-.1.1-11 5.3-16.5 13.2-1 1.5-2.5 2.2-4.1 2.2z"/></g></svg>