<svg xmlns="http://www.w3.org/2000/svg" viewBox="0 0 259.7 166.5"><style>.st0{fill:#EFEFEF;} .st1{fill:#DDDDDD;} .st2{fill:#FFFFFF;} .st3{fill:#FCFCFC;} .st4{fill:#6B2A12;} .st5{fill-rule:evenodd;clip-rule:evenodd;fill:#6B2A12;} .st6{fill-rule:evenodd;clip-rule:evenodd;fill:#62BA47;} .st7{fill:#62BA47;} .st8{fill:#62BA46;}</style><g id="butylka_2"><path class="st0" d="M208.5 81.8H60.9l9.7 36c.9 3.6 6.3 6.3 12.9 6.3h102.4c7 0 12.7-3.1 13-7l9.6-35.3z"/><path class="st1" d="M185.9 81.8h-51.2v42.3h51.2c7 0 12.7-3.1 13-7l9.5-35.2h-22.5z"/><path class="st2" d="M80.2 103.1c.6 2-.5 4.1-2.5 4.7-2 .6-4.1-.5-4.7-2.5l-3-9.6c-.6-2 .5-4.1 2.5-4.7 2-.6 4.1.5 4.7 2.5l3 9.6z"/><path class="st0" d="M208.4 76.7H59.9l12.9-23.2h121.8z"/><path class="st3" d="M194.6 53.5l13.8 23.2H59.9l12.9-23.2h121.8m0-6.6H72.8c-2.4 0-4.6 1.3-5.7 3.4L54.2 73.5c-1.1 2-1.1 4.5.1 6.5 1.2 2 3.3 3.2 5.6 3.2h148.5c2.4 0 4.5-1.3 5.7-3.3 1.2-2 1.1-4.6-.1-6.6l-13.8-23.2c-1.1-2-3.3-3.2-5.6-3.2z"/><g><ellipse class="st4" cx="135.3" cy="66.4" rx="18.2" ry="8.7"/><path class="st5" d="M126.7 55.8c0 .6-1 1.1-2.3 1.1-1.3 0-2.3-.5-2.3-1.1 0-.6 1-1.1 2.3-1.1 1.2 0 2.3.5 2.3 1.1z"/><path class="st6" d="M126.7 59.5c0 .8-1.3 1.4-3 1.4-1.6 0-3-.6-3-1.4 0-.8 1.3-1.4 3-1.4s3 .7 3 1.4zM118.8 57.3c0 .5-.8.8-1.8.8s-1.8-.4-1.8-.8c0-.5.8-.8 1.8-.8s1.8.4 1.8.8z"/><ellipse class="st7" cx="150.8" cy="58.5" rx="10" ry="4.8"/><path class="st2" d="M148.3 57.8c-.8 0-1.1.5-1.1.8v.1c0 .2 0 .3-.1.4 0 .1-.1.2-.1.2-.3 0-.5-.2-.6-.3-.2-.2-.3-.5-.4-.8-.1-.3-.2-.6-.2-.8v-.3-.1-.1c.1-.2-.5 0-.7.1-.7.6-.5 1.2-.4 1.8 0 .2 0 .3-.1.5 0 .1-.1.3-.3.4-.1.1-.3 0-.4 0-.2 0-.3-.1-.3-.2s-.2 0-.3 0c-.1.1-.3.2-.3.3.1.2.5.4 1 .3.7-.1 1.1-.5 1.2-.9.1-.2.1-.3.2-.5.1.2.3.5.5.7.2.2.5.3.9.3.3 0 .5-.2.7-.4.1.2.4.3.7.3.4 0 .8-.2.9-.4.2-.2.2-.4.2-.6 0-.2-.1-.8-1-.8zm.3 1.4s0 .1-.1.1c-.2 0-.3-.1-.3-.2-.1-.1-.2-.3-.2-.4v-.5s0-.1.1-.1c.4.1.5.4.5.6v.5zM158.3 58.4c-.9-.2-1.4.4-1.6.7-.2.3-.3.8.4 1 .4.1.8-.1 1-.2.3-.1.4-.3.6-.5.2-.3.4-.9-.4-1zm-.6 1.4l-.1.1c-.1 0-.2-.2-.2-.2v-.4c.1-.1.1-.3.3-.4l.1-.1c.3.2.3.5.2.7-.1 0-.1.1-.3.3zM155.8 58.5c.2-.1.3-.2.5-.3.3-.2.7-.5.6-.8 0-.3-.8-.3-1.2-.2-.6.1-.9.4-1.1.7-.2.4-.3.7-.4 1.1-.3.2-.9.5-1.3.3-.1 0-.2-.1-.2-.2.4-.2.7-.4 1-.6.3-.2.4-.5-.1-.7-.4-.1-1 0-1.3.2-.3.2-.4.4-.5.6 0 .1-.1.3 0 .5-.3.1-.6.1-.9.1-.3 0-.5-.2-.5-.3-.1-.2-.1-.4 0-.6 0-.1.1-.1.1-.2.2 0 .3.2.3.3.1.1.9-.1.8-.2-.1-.1-.2-.3-.5-.4-.3-.1-.7.1-.9.1-.5.3-.6.6-.6 1 0 .2.1.5.5.6.5.2 1.3 0 1.8-.1.1.2.4.3.8.2.5 0 1-.2 1.4-.4 0 .2.1.4.4.5.5.1 1.1 0 1.4-.2.4-.2.6-.6.4-.9 0-.1-.2-.1-.5-.1zm-3-.2c0-.1.1-.1.1-.2.2 0 .3.2.2.2 0 .2-.3.3-.5.5v-.1c.1-.1.1-.3.2-.4zm2.9-.8l.2-.2c.3.2 0 .4-.2.6-.2.2-.4.3-.6.5 0-.2.1-.3.2-.5l.4-.4zm-.2 2s-.1 0 0 0c-.1.1-.1.1-.2.1-.2-.1-.2-.3-.3-.4V59c.1 0 .2-.1.3-.2.2-.1.3.1.4.2.1.1 0 .3-.2.5zM148.7 66.2h-.3c-1.7-.1-2.5.7-2.8 1.4-.3.5-.9.9-1 1-.1.1-.2 0-.2 0-.1 0-.2-.1-.2-.2-.1-.2-.1-.5-.2-.7 0-.6.1-1.3.3-1.9 0-.1-.2-.2-.4-.2-.4 0-.8.1-1 .3-.6.5-1 1-1.2 1.5-.1.3-.2.6-.4.8h-.1c-.2-.1-.3-.2-.3-.2s0-.1-.1-.1h-.2c-.2 0-.5.1-.7.1-.1 0-.2.1-.2.1-.1 0-.1.1-.4.1-.3 0-.5-.1-.6-.3-.3-.2-.3-.6-.3-.8 0-.4.1-.7.4-1.1 0 0 0-.1.1-.1h.1c.3.1.4.3.5.5.1.3 1.6-.1 1.5-.4-.1-.2-.3-.5-.8-.7-.6-.2-1.2 0-1.7.1-1.1.4-1.4 1.1-1.4 1.7v.1c-.1.2-.3.5-.6.7-.1 0-.1.1-.4.1-.1 0-.2-.1-.2-.2-.2-.3-.3-.7-.3-1.1 0-.3 0-.5.1-.8v-.3c0-.4-.7-.6-1.6-.5-.9.1-1.5.4-1.9.7-.4.3-.6.7-.7 1.1-.1.3 0 1.1-.4 1.1-.6 0-.9-.4-1-.6-.3-.4-.5-.9-.5-1.3-.1-.8-.2-1.5 0-2.3 0-.1-.3-.1-.5-.1-.4.1-.7.2-.8.4-.5.5-.7 1.2-.8 1.8v-.2c-.1-.5-.3-1-.3-1.4 0-.3-.1-.7 0-.9.2-.4-1 0-1.2.1-1.3 1.1-.9 2.3-.9 3.5 0 .3 0 .6-.2.9-.1.2-.2.6-.5.7-.2.1-.6 0-.8-.1-.3-.1-.5-.3-.5-.4 0-.2-.4-.1-.6 0-.3.1-.6.3-.5.5.1.4.8.8 1.7.7 1.5-.2 2.1-1 2.4-1.6.2-.4.3-.8.3-1.2.2.7.5 1.4.7 2.1.1.4 1.2-.2 1.2-.4 0-.5.1-1 .2-1.5.2.6.8 1.9 2.3 1.9.5 0 1-.3 1.3-.5.1.2.4.3.7.4.6.1 1.4-.1 1.9-.3.1.1.2.2.4.3.9.3 1.8-.1 2.3-.4.1.1.2.3.4.4.6.3 1.4.2 2.1 0 .7.5 2.1.2 2.7-.2l.2-.2v.2c0 .2.1.5.4.6.3.2 1 .1 1.3 0 .3-.1.7-.3 1-.5 0 .4.3.8 1.1 1 .7.1 1.5-.2 1.9-.4.5-.3.8-.7 1-1 .2-.5.5-1.4-.8-1.8zm-15 1.5l-.1.1h-.2c-.3 0-.4-.3-.5-.4-.3-.4-.3-.9 0-1.4.1-.1.3-.4.4-.4H133.6c.4 0 .5.1.5.3 0 .6-.1 1.2-.4 1.8zm13.6.9l-.2.2c-.3-.1-.4-.3-.4-.4-.1-.3 0-.6 0-.8.1-.3.3-.6.5-.8l.2-.2c.6.2.4 1 .3 1.3 0 .2-.1.5-.4.7z"/><g><path class="st2" d="M131 71.7c-.1.4-.4.7-.7 1.1-.1.1.5 0 .6 0 .1-.2.3-.3.5-.5.1-.1.3-.3.6-.2.2 0 .3-.1.5-.1-.7-.3-1.4.2-1.7.4-.1.1.1.1.2.1.5 0 .2.3.3.4.1.2.7.1.9 0 .3-.1.1-.2-.2-.1-.2.1-.2-.1-.2-.2v-.2c-.1-.1-.4-.1-.7-.1.1 0 .1 0 .2.1.1-.1.3-.4.6-.3.2.1.6-.1.5-.1-.9-.5-1.9.6-2.2.8h.6c.3-.4.6-.7.6-1.1.1-.1-.4 0-.4 0zM133.6 73c0 .2.7.2 1 .1.2-.1.2-.2.3-.4.1-.2.1-.4.3-.6-.1 0-.3.1-.4.1 0 .3-.1.7.3 1 .3.2 1-.2 1.2-.2.2-.2-.2-.1-.3 0-.3.2-.4.1-.5-.1-.1-.2-.1-.5-.1-.7 0-.1-.4 0-.4.1-.1.1-.2.3-.3.4 0 .1-.1.2-.1.2s0 .1-.1.1c0 .1-.2 0-.2 0-.1-.2-.7 0-.7 0z"/><path class="st2" d="M137 72.2c-.1-.3-.8-.1-1 .1-.3.2-.3.5-.2.7.1.2.6.3 1 .1.5-.3.3-.6.2-.9-.1 0-.3.1-.4.1 0 .2 0 1.2 1 .8.2-.1.2-.3-.1-.1-.1 0-.3-.2-.3-.2-.1-.3-.1-.4-.2-.6 0-.1-.4.1-.4.1v.5c0 .1 0 .2-.1.2s-.2-.1-.2-.1c-.1-.1-.1-.2-.1-.4 0-.1 0-.1.1-.2 0 0 0-.1.1-.1.1-.1.3 0 .3.1s.4 0 .3-.1zM139 72c.2.3.5.6.7.9.1.1.5-.1.4-.2-.1-.2-.1-.3.1-.5s.2-.4.1-.6c-.1-.2-.3.1-.3.1 0 .3.2.5.5.8.1.1.2.2.3.2.3 0 .5-.2.6-.3.2-.2-.1-.2-.3 0-.1.1-.5-.2-.5-.3-.2-.2-.3-.3-.3-.5-.1 0-.2.1-.3.1.1.2 0 .4-.2.5-.2.2-.2.4-.1.6.1-.1.3-.1.4-.2-.2-.3-.5-.6-.7-.9-.1 0-.5.2-.4.3z"/><path class="st2" d="M141.1 71.3c-.5.2-.4.5-.2.7.1.2.5.6 1.1.5.6-.1.5-.5.3-.7-.2-.2-.7-.6-1.2-.5-.1 0-.2.3-.1.3.3-.1.5.1.7.2.1.1.2.2.3.2 0 0 0 .1.1.1v.1c-.2.1-.6-.1-.7-.2l-.2-.2-.1-.1s0-.1 0 0c.2-.2.2-.4 0-.4zM133.4 72c-.6 0-.9.3-1 .5-.1.2-.3.6.3.7.7.1 1-.3 1.1-.5.1-.2.2-.6-.4-.7-.1 0-.5.2-.4.2.3 0 .3.2.3.3 0 .1 0 .2-.1.3 0 0 0 .1-.1.1 0 0-.2.1-.1.1-.3 0-.4-.3-.3-.3 0-.1.1-.2.1-.3l.1-.1s.1 0 0 0c.4-.1.8-.3.5-.3zM130.4 71.6c-.5-.1-1 .1-1.2.3-.2.1-.6.6 0 .7.6.2 1.1-.1 1.3-.3.1-.1.4-.6-.1-.7-.1 0-.6.1-.4.1.3.1.2.3.1.4 0 .1-.1.2-.2.3l-.1.1s-.2.1-.1.1c-.3 0-.2-.3-.2-.4.1-.1.1-.2.2-.2s.1-.1.2-.1h.1c.2-.1.6-.2.4-.3zM138.1 71.9c-.6.1-.6.4-.6.6 0 .2.2.6.8.6.7 0 .8-.4.7-.6 0-.2-.3-.6-.9-.6-.2 0-.4.2-.2.2.3 0 .5.2.6.3.1.1.1.2.1.3v.1s-.1.1 0 .1c-.3.1-.6-.2-.6-.3-.1-.1-.1-.2-.1-.3v-.1s.1-.1 0 0c.2-.1.4-.3.2-.3z"/><path class="st2" d="M138.3 72.1c.2.4.4.8.7 1.2 0 .1.3.5-.2.5-.8 0 .2-.7.3-.8.2-.2-.2-.1-.4 0-.4.3-.9.6-.6 1 .1.1.7.1.9 0 .6-.2.6-.5.5-.7-.2-.4-.6-.9-.8-1.3-.1-.2-.4 0-.4.1zM128.8 71.4c-.3.2-.5.4-.9.5-.1 0-.1 0-.2.1-.2.1-.1 0 0 0-.1 0 0-.1 0-.1.1-.3.5-.5.8-.7h-.5c-.1.1.4.1.5 0 .1-.1-.4-.1-.5 0-.3.2-.5.3-.7.5-.1.1-.4.3-.2.4.3.1.7.1 1 0 .5-.2.9-.4 1.2-.7.1-.1-.5-.1-.5 0z"/><path class="st2" d="M128.7 72.3c-.3 0 0-.4 0-.4.2-.2.4-.3.5-.5.1-.1-.4-.1-.5 0-.3.2-.7.5-.8.8-.1.2.5.3.9.3.4-.1.3-.3-.1-.2zM128 71.1c-.2.1-.4.3-.6.4-.1.1-.2.1-.3.2-.1 0-.1.1-.2.1.1 0 0 0 0-.1-.1-.1.2-.3.3-.4l.6-.3c.2-.1-.3-.1-.5-.1-.3.1-1.8.7-.9.9 1.1.3 1.7-.4 2.1-.7h-.5zM143.1 71.8c.1-.2.2-.9-.5-.9-.5 0-.5.4-.5.5.1.2.4.5.8.6.5.1 1-.2 1.2-.4 0-.1.1-.1 0-.2-.1 0-.2.1-.3.1-.3.5-1 .1-1.2-.1l-.2-.2v-.1c.5-.1.3.5.3.7 0 .2.4.1.4 0z"/></g><g><path class="st8" d="M113.2 62.8c-.1 0-.2-.1-.3-.1-.4-.1-.7 0-1 0-.9 0-1.2 0-2.2-.1 0-.4.5-.7.7-1 .2-.3-.1-.6-.1-1V60c-.3.1-.2.5-.2.7-.1-.3-.1-.6-.3-.8-.1.2 0 .6 0 .8-.1-.2-.2-.5-.4-.7-.2.2.1.6.1.8-.2-.2-.3-.5-.5-.6-.1.3.2.5.2.7-.2-.2-.3-.4-.5-.5 0 .2.2.4.4.6-.2-.1-.3-.2-.6-.3 0 .1.2.2.3.3-.2 0-.3-.1-.5-.2 0 .1.2.2.3.3-.1 0-.2-.1-.4-.1 0 .1.3.2.2.2h-.2s.2.1.1.1h-.2c0 .1.1 0 .1.1h-.1c0 .1.1 0 .1.1-.7.4-.3.8-.4 1.2 0-.1-.6-.1-1.1-.2-.3-.1-.3-.2-.5-.3h.1c-.1 0-.2 0-.2-.1h.3c-.1 0-.5-.1-.4-.1.2 0 .4.1.5 0-.2 0-.6-.1-.6-.2.2 0 .5.1.7.1-.3-.1-.7-.2-.8-.3.2.1.5.2.7.2-.4-.1-.7-.3-1-.3.2.2.7.3.8.4-.3-.1-.6-.1-.9-.2.1.2.5.2.8.3-.3 0-.4-.1-.7-.1.1.1.5.1.7.2h-.5c0 .1.3.1.5.1h-.4c.1 0 .3 0 .4.1h-.2.3c-.1 0-.1 0-.1.1h.1c.4.1.6.4 1.2.5-.3.1.3.2-3.2.8.1 0 1.5-.2 2-.2.4-.1.9-.1 1.3-.2h.3c.7 0 1.4 0 2.1-.2-.5 0-1.5.1-1.8-.1.5-.4.1-1.2.5-1.4.4-.2 1-.8 1.7-.3.1.1.1.2-.1.4-.3.3-.5.4-.5.9 0 .1 0 .2-.4.2 1.5.2 2 .1 2.9 0 .3 0 .7-.1.8 0 0 .1-.3.1-.5.1-.4 0 .2.1.4.1.1 0 .9 0 1.3-.1-.6-.1-.8-.1-1.1-.1z"/><path class="st8" d="M108.8 59c-3.5 0-6.3 1.3-6.3 3s2.8 3 6.3 3 6.3-1.3 6.3-3c0-1.6-2.9-3-6.3-3m0 .2c3.3 0 6.1 1.3 6.1 2.9 0 1.6-2.7 2.9-6.1 2.9-3.3 0-6.1-1.3-6.1-2.9 0-1.6 2.7-2.9 6.1-2.9"/></g></g></g></svg>