<svg xmlns="http://www.w3.org/2000/svg" viewBox="0 0 331.2 255"><style>.st0{fill:#519E38;} .st1{fill:#FEBEBD;} .st2{fill:#9D360A;} .st3{fill:#CA655F;} .st4{fill:#0E3656;} .st5{fill:#446666;} .st6{fill:#FFFFFF;}</style><g id="lupa"><path class="st0" d="M262.5 106.7c-30.3-56.5-96.3-25-96.3-25s-20.2 10.1-61.2 3c-34.2-6-49.4 26.2-44.8 43.2-1.9 9-.3 17.5 5 21.4 14.9 10.7 35.1 16 62.4 14.3C155 161.8 231 174.3 231 174.3s46.1 1.7 39.1-34.2c2-7.8.4-18.6-7.6-33.4z"/><path class="st1" d="M227 153.3s61.8 2.4 31.5-54.1c-30.3-56.5-96.3-25-96.3-25s-20.2 10.1-61.2 3-54.7 40.4-39.8 51.1 35.1 16 62.4 14.3C151 140.8 227 153.3 227 153.3z"/><path class="st2" d="M227 153.1s-76.1-12.5-103.4-10.7c-27.3 1.8-47.5-3.6-62.4-14.3-2.4-1.8-4.1-4.5-5-7.8-2 9.1-.3 17.7 5 21.6 14.9 10.7 35.1 16 62.4 14.3C151 154.3 227 166.8 227 166.8s46.3 1.8 39.1-34.4c-5.5 21.9-39.1 20.7-39.1 20.7z"/><path class="st3" d="M114.7 89.2s-24.2-13.1-42.4 2-11.1 45.2 26.5 42.8 42 1.6 43.2-4c1.2-5.6-27.3-40.8-27.3-40.8zM226.8 143.5s34.1 8.2 34.9-23.3-33.3-19.6-33.3-19.6-9.9 11.1-18.6 11.9c-8.7.8-24.6 2.4-17.4 14.7s34.4 16.3 34.4 16.3zM241.4 90.4s-6.3-26.1-61-14.3 5.2 7.5 13.1 12.7 30.1 15 47.9 1.6zM146.8 128s8.3 7.9 19.8 8.3 21.4 2.8 24 0c2.6-2.8-29.4-27.3-29.4-27.3s-35.4-22.2-38.6-21 24.2 40 24.2 40z"/><path class="st3" d="M202.6 101.1s-11.1-9.9-25-10.3c-13.9-.4-19.8-5.8-23.8-5.7-4 .1-15.5 3.8 0 12.1s19.1 13.5 30.9 15.7c11.9 2 27.8-8.3 17.9-11.8z"/><path class="st4" d="M259.8 130.5c-13.8-13.8-36.2-13.8-49.9 0-13.8 13.8-13.8 36.2 0 49.9 13.8 13.8 36.2 13.8 49.9 0 13.8-13.7 13.8-36.1 0-49.9zm-6.2 43.7c-5 5-11.7 7.8-18.7 7.8-7.1 0-13.7-2.8-18.7-7.8s-7.8-11.7-7.8-18.7c0-7.1 2.8-13.7 7.8-18.7s11.7-7.8 18.7-7.8c7.1 0 13.7 2.8 18.7 7.8s7.8 11.7 7.8 18.7c-.1 7.1-2.8 13.7-7.8 18.7z"/><path class="st5" d="M256.694 183.595l6.222-6.223 24.96 24.96-6.222 6.223z"/><path class="st4" d="M261.92 195.043l12.515-12.515 33.304 33.304-12.517 12.516z"/><path class="st6" d="M227.6 169c-1.7 1.7-4.5 1.7-6.2 0-3.6-3.6-5.6-8.4-5.6-13.5s2-9.9 5.6-13.5c1.7-1.7 4.5-1.7 6.2 0 1.7 1.7 1.7 4.5 0 6.2-1.9 1.9-3 4.5-3 7.3s1.1 5.3 3 7.3c1.7 1.7 1.7 4.5 0 6.2z"/></g></svg>