<svg xmlns="http://www.w3.org/2000/svg" viewBox="0 0 214.5 279"><style>.st0{fill:#2D2D2D;} .st1{fill:#4D4C4B;} .st2{fill:#F9DDC5;} .st3{fill:#EC145A;} .st4{fill:#62BA47;} .st5{fill:#FFFFFF;} .st6{fill:#231F20;} .st7{fill:#FEBEBD;}</style><g id="lupa"><path class="st0" d="M176.7 223.6H47.4c-4.3 0-7.9-3.5-7.9-7.9V49.6c0-4.3 3.5-7.9 7.9-7.9h129.3c4.3 0 7.9 3.5 7.9 7.9v166.1c0 4.4-3.5 7.9-7.9 7.9z"/><path class="st1" d="M172.6 41.7c6.6 0 12 5.4 12 12v157.9c0 6.6-5.4 12-12 12H51.5c-6.6 0-12-5.4-12-12V53.7c0-6.6 5.4-12 12-12h121.1m0-6.9H51.5c-10.4 0-18.9 8.5-18.9 18.9v157.9c0 10.4 8.5 18.9 18.9 18.9h121.1c10.4 0 18.9-8.5 18.9-18.9V53.7c.1-10.4-8.4-18.9-18.9-18.9z"/><path class="st2" d="M32.6 153.8v57.8c0 10.4 8.5 18.9 18.9 18.9h121.1c10.4 0 18.9-8.5 18.9-18.9v-57.8H32.6z"/><path class="st3" d="M124.9 180.1h-.6c-1.8-4.1-5.8-6.9-10.6-6.9-4.7 0-8.8 2.9-10.6 6.9h-.3c-5.7 0-11.1 5.6-11.1 11.3 0 4.5 3.7 10.5 7.7 11.9 1.3-.4 3.2-.8 5.6-1.2-2.7-1-2.9-2.8-3-2.9 0-.2.1-.4.4-.4.2 0 .4.1.4.4 0 .1.3 2.1 4.3 2.6h.1c.9-.1 1.9-.2 2.9-.3-.9-1.2-1.3-3.2-1.4-3.4 0-.2.1-.4.3-.5.2 0 .4.1.5.3.2.8.8 2.9 1.6 3.5l.1.1c3-.1 6.3-.1 10 .4.2-.1.3-.1.4-.1 3.5-.8 3.7-2.5 3.8-2.6 0-.2.2-.4.4-.4s.4.2.4.4c0 .1-.2 1.9-3 2.9 1.7.3 3.5.7 5.4 1.2 3.9-1.5 7.3-7.3 7.3-11.7 0-5.6-5.4-11.5-11-11.5z"/><circle class="st4" cx="133.1" cy="174.9" r="12.5"/><path class="st5" d="M130 173.2c-1 .1-1.3 1.3-1.3 2.2v.4c0 .4 0 .7-.1 1.1 0 .2-.1.5-.1.5-.4 0-.7-.5-.8-.8-.2-.6-.4-1.3-.6-2-.1-.7-.2-1.5-.2-2.2v-.9-.4-.2c.1-.5-.7 0-.8.2-.8 1.4-.6 3.2-.6 4.7 0 .4 0 .9-.1 1.3 0 .3-.1.8-.3 1-.2.2-.4 0-.6 0-.2-.1-.3-.3-.4-.6 0-.2-.3-.1-.4 0-.2.2-.4.5-.3.7.1.6.6 1.1 1.2.9.9-.3 1.3-1.4 1.6-2.2.1-.4.2-.8.2-1.3.1.6.3 1.2.6 1.8.2.4.6.8 1.1.7.4-.1.7-.5.9-1 .2.4.5.7.9.7.5 0 1-.6 1.1-1 .2-.5.3-1.1.3-1.6 0-.6-.2-2.2-1.3-2zm.3 3.6c0 .1 0 .2-.1.3-.2 0-.3-.3-.4-.5-.2-.3-.2-.7-.3-1.1v-1.2c0-.1 0-.2.1-.3.5.3.6 1 .7 1.5.1.5.1.9 0 1.3zM142.4 174.6c-1.1-.4-1.7 1.1-1.9 1.9-.2.8-.4 2.2.5 2.6.5.2 1-.2 1.3-.5.3-.4.6-.9.7-1.4.2-.7.4-2.2-.6-2.6zm-.6 3.6c0 .1-.1.2-.2.3-.2-.1-.2-.5-.3-.6-.1-.4 0-.8 0-1.2.1-.4.2-.8.4-1.1 0-.1.1-.2.2-.2.4.5.3 1.2.2 1.8-.1.3-.2.7-.3 1zM139.4 174.8l.6-.9c.4-.6.8-1.4.8-2.1 0-.7-1-.8-1.5-.5-.7.4-1.1 1.1-1.3 1.8-.3 1-.4 1.9-.5 2.9-.3.4-1.1 1.3-1.6.9-.1-.1-.2-.3-.3-.5.5-.5.9-1 1.2-1.5.3-.5.6-1.4-.1-1.7-.5-.3-1.2 0-1.6.5-.4.4-.5 1-.6 1.6 0 .3-.1.8 0 1.3-.3.2-.7.3-1.1.3-.4-.1-.6-.5-.7-.9-.1-.5-.1-1.1 0-1.6 0-.2.1-.3.1-.5v-.1c.3.1.4.5.4.7.1.4 1.1-.2 1-.6-.1-.4-.3-.7-.7-.9-.4-.2-.9.1-1.2.4-.7.7-.7 1.7-.7 2.6 0 .6.2 1.3.7 1.6.7.4 1.6 0 2.3-.4.2.4.5.7 1 .6.7-.1 1.3-.5 1.8-.9 0 .5.1 1.1.5 1.3.6.3 1.3-.1 1.7-.5.5-.6.8-1.6.5-2.3-.1-.4-.4-.6-.7-.6zm-3.8-.4c0-.1.1-.3.2-.4.3.1.3.4.3.6-.1.4-.3.8-.6 1.2v-.2c-.1-.4 0-.8.1-1.2zm3.6-2.1c.1-.1.2-.3.3-.4.4.5 0 1.2-.2 1.6-.2.4-.5.9-.8 1.3.1-.4.1-.9.3-1.3.1-.4.2-.8.4-1.2zm-.2 5.1s-.1.1-.1.2h-.1c-.3-.1-.3-.7-.3-1v-.6c.1-.1.2-.3.4-.4.2-.2.4.2.5.4 0 .5-.2 1-.4 1.4z"/><path class="st4" d="M77.2 183.3c-.1.1.3.2.5.3 0 .1-.2 0-.3 0 0 .1.1.1.2.2 0 0-.1 0-.1.1.2.1.3.5.6.6.6.2 1.3.4 1.3.5.1-1-.4-1.9.5-2.8 0-.1-.1-.1-.1-.2h.1c0-.2-.2-.1-.1-.3h.2c.1 0-.1-.2-.1-.2 0-.1.2 0 .2 0 0-.1-.3-.3-.3-.5.2.1.3.2.4.3-.1-.3-.3-.3-.3-.6.2.1.3.3.5.4-.1-.3-.3-.4-.4-.8.3.1.4.4.7.6-.2-.4-.4-.9-.4-1.3.3.3.4.7.6 1.1 0-.4-.3-1-.2-1.6.3.4.4 1 .6 1.5.1-.5-.4-1.3-.1-1.9.2.5.3 1.1.4 1.7 0-.5-.1-1.3 0-1.9.2.5.2 1.3.3 1.9.1-.4-.1-1.4.2-1.7v1.5c0 .8.4 1.6.1 2.3-.3.8-.9 1.4-.8 2.4 1.2.4 1.5.4 2.5.4.4 0 .7-.3 1.2-.1.1 0 .2.2.3.2.3.1.5.1.9.1-.5.1-1.4.2-1.5.2-.2 0-.9-.2-.4-.2.3 0 .6 0 .6-.1 0-.3-.5-.1-.8 0-1 .1-1.5.3-3.2 0 .4 0 .4-.3.4-.5-.1-1.3.2-1.5.5-2.1.6-1.1-.2-1.1-.5-1.5-.1.2 0 .4 0 .5-.2-.1-.2-.4-.4-.5-.1.1.1.3.1.5l-.3-.3c-.1.1.1.3.1.4-.1 0-.2-.2-.3-.2-.1.1.1.1 0 .3-.1 0-.1-.1-.2 0 0 .1 0 .2.1.2 0 .1-.1 0-.1 0-.1 0 0 .1 0 .2-.8-.1-.2 2.5-.8 3.5.4.4 1.4.2 2.1.1-.8.5-1.5.4-2.3.4-.1 0-.2.1-.3.1-.5.1-1 .3-1.4.5-.5.2-2.1.6-2.2.6 3.9-1.4 3.3-1.6 3.6-1.8-.6-.2-.9-.9-1.3-1.2 0 0 0-.1.1-.1 0-.1-.1 0-.2 0 0-.1 0-.1.1-.1 0-.1-.2 0-.3-.1 0-.1.1-.1.2-.1-.1-.1-.3-.1-.4-.2.1-.1.2-.1.4-.1-.1-.1-.5-.1-.5-.3h.5c-.2-.2-.7-.2-.7-.5.3 0 .5.2.8.2-.3-.2-.7-.4-.9-.8.3.2.7.3 1 .5-.1-.3-.8-.5-.9-.9.4 0 .7.5 1.2.6-.3 0-.6-.3-.8-.4.1.3.6.5.9.7-.2.1-.6-.1-.7-.2 0 .2.4.4.7.5-.7.2-.9.1-1.1 0"/><path class="st4" d="M80.6 176.4c-4.3 0-7.9 3.5-7.9 7.9 0 4.3 3.5 7.9 7.9 7.9 4.3 0 7.9-3.5 7.9-7.9s-3.5-7.9-7.9-7.9m0 .2c4.2 0 7.6 3.4 7.6 7.6 0 4.2-3.4 7.6-7.6 7.6-4.2 0-7.6-3.4-7.6-7.6.1-4.2 3.5-7.6 7.6-7.6"/><path class="st5" d="M97 197.5c.9 1.6 2.6.3 2.8-1.1.2-2-1.1-4.1-2.1-5.8-.1-.2-.4.1-.5.1-1 .9-2.1 2.5-1.4 3.6.2.3.9-.7.7-1.1-.4-.6.4-1.4.9-1.8-.2 0-.3.1-.5.1.4.7.9 1.4 1.2 2.1.2.4.4.8.5 1.3.1.3.2.6.3.8-.3 1.4-.7 1.6-1.3.8-.1-.4-.7.7-.6 1z"/><path class="st5" d="M102.3 195.4c-.3.9-.8-.7-.9-.9-.1-.3-.3-.6-.5-.9-.6-.5-1.2-.2-1.8.2h.4c-.3-.9-.9-3.1 1-2.3.4.2 1-.9.6-1-1.1-.5-1.8-.1-2.5.9s-.3 2.3.1 3.3c.1.2.2.2.4 0 1.5-1.2 1.6 1.3 2.4 1.9.7.5 1.3-1 1.4-1.3.3-.6-.4-.4-.6.1zM106.1 195c.3 1 1.4.6 1.9-.1.4-.6.3-1.1.3-1.7 0-.9 0-1.8.3-2.7-.3.2-.7.4-1 .5.2 1.2.3 3.3 1.3 4.2.8.7 1.8-.9 2-1.3.3-.7-.6-.3-.8.1-.3.9-.8-.4-.9-.7-.3-.9-.5-2-.6-3-.1-.6-.9.3-1 .5-.2.6-.3 1.2-.3 1.8V194.3c0 .5-.4.2-.4 0-.1-.5-.9.3-.8.7zM113.8 190.3c.1 1.4.2 2.8.2 4.3 0 .5.8-.2.9-.5.1-.8.3-1.3.9-1.8.6-.6 1-1.4 1.3-2.2.2-.6-.8-.1-1 .2-.4 1.1-.5 2.4-.4 3.5 0 .3 0 .8.3 1 .4.3 1.1-.2 1.4-.4.6-.4.2-.9-.4-.4-.4.3-.4-1.4-.4-1.5 0-.8.1-1.6.4-2.3-.3.1-.6.1-1 .2-.3.9-.6 1.4-1.2 2-.6.6-.8 1.4-.9 2.3.3-.2.6-.3.9-.5.1-1.4 0-2.8-.1-4.3 0-.6-.9 0-.9.4zM120.7 194.4c-.1 1 .9 1.4 1.8.9.8-.5 1.2-1.4 1.4-2.3.1-.7.3-1.8-.4-2.3-.3-.2-.9-.1-1.3.1-.7.3-1 .9-1.1 1.5-.1.5 1 0 1.1-.3.1-.7.4-.7.6-.1.1.4.1.8.1 1.2 0 .4-.2.9-.3 1.3-.1.1-.2.3-.3.4.1-.1 0-.1-.1-.1-.3-.1-.3-.4-.3-.7-.1-.4-1.2.1-1.2.4z"/><path class="st5" d="M121.1 190.3c0 2.6-.5 5.3-1.2 7.9-.1.5.9 0 1-.3.7-2.6 1.3-5.3 1.4-8 0-.5-1.2 0-1.2.4zM130.5 193.4c-.5.9-1 1.9-1.3 2.9-.1.4-.2 1 .1 1.4.4.5 1.3.3 1.8.1.8-.3 0-.7-.6-.4-.3.1-.3-.8-.3-.9.1-.5.2-.9.4-1.4.3-.6.6-1.2.9-1.7.4-.4-.9-.3-1 0z"/><path class="st5" d="M127.1 196.3c0 .8.9 1 1.5.8 1-.3 1.6-1.1 2-2 .2-.4-1-.2-1.1.1-.1.2 0 0 .1 0-.1 0-.1-.1-.2-.1-.2-.1-.2-.4-.3-.6 0-.4.2-.7.4-1 .4-.5.6.2.5.5-.2.5 1 .3 1.2-.1.3-.8-.2-1.3-1.1-1.3-1 0-1.8 1-2 1.8-.4 1.7 1.8 1.8 2.5.7-.4 0-.8 0-1.1.1-.2.4-.4.8-.8 1.1-.3.3-.6 0-.6-.3.1-.4-1-.1-1 .3zM113.7 193.9c-.5.5-.7-1.4-.8-1.5-.1-.8-.1-1.6-.1-2.4 0-.5-1 .2-1 .5v2.1c0 .4 0 .7-.1 1.1-.1.4 0 .5-.4.3-.9-.6-.6-2.8-.4-3.7.1-.6-.9 0-1 .4-.2.8-.5 4.7 1.2 4.3 2-.4 1.5-3.7 1.6-5.1-.3.2-.7.4-1 .5 0 1.2 0 2.6.4 3.8.4 1 1.2.6 1.8 0 .7-.4.3-.8-.2-.3z"/><path class="st5" d="M127.2 195.9c-.6.3-.2-1.6-.2-1.7.2-.8.5-1.5.8-2.3.2-.5-1-.1-1.1.2-.2.6-.4 1.3-.7 2-.1.3-.3.7-.5 1-.2.4-.2.5-.5.2-.7-.8.4-2.9.8-3.6.3-.6-.8-.3-1 0-.4.7-2 4.2-.3 4.5 2 .3 2.7-3 3.2-4.2-.4.1-.7.1-1.1.2-.4 1.2-.9 2.4-.9 3.7 0 1.1.9 1 1.7.6.7-.4.4-.9-.2-.6zM120.3 191c.1-1.4-1.9-.9-2.5-.2-.8.8-.9 2.1-.8 3.2.1 1 .9 1.4 1.8.8 1.2-.9 1.2-2.6 1.5-3.8-.4.1-.8.2-1.1.3-.1.8-1.1 4.8 1.2 3.8.5-.2.7-1-.1-.6-.2.1-.2-1.1-.2-1.2-.1-.8.1-1.6.2-2.3.1-.5-1.1 0-1.1.3-.1.7-.2 1.4-.4 2.2-.1.2-.2.7-.3.7-.2 0-.3-.3-.3-.4-.2-.5-.1-1.1 0-1.6.1-.3.1-.6.3-.9.1-.1.1-.3.3-.4.2-.3.6.3.6.4-.3.5.9 0 .9-.3z"/><g><path class="st5" d="M102 192c.3.8.6 4.6 2 4.1 1.8-.7 1-4 .9-5.3-.1-.5-.9.3-.9.7l.3 2.7c0 .3.1 1-.3.9-.5-.2-.7-1.4-.8-1.8-.2-.7-.2-1.4-.4-2-.1-.5-.9.4-.8.7z"/><path class="st5" d="M104 191.5c.4 1.8.9 3.5 1.3 5.3.1.4.6 2.1-.1 2-1.1-.1.1-3.1.3-3.4.4-.7-.4-.5-.6 0-.6 1.2-1.1 2.7-.5 4.1.3.6.9.5 1.3.1.7-.8.7-1.8.6-2.9-.3-2-.9-3.9-1.3-5.9-.2-.5-1 .4-1 .7z"/></g><path class="st5" d="M122.5 191.3c.8.8 1.9 1.1 2.9.6.1-.1.4-.3.3-.4-.1-.2-.4 0-.6 0-.6.3-1.4-.3-1.8-.7-.1-.2-1 .3-.8.5z"/><g><path class="st3" d="M128.5 212.9v-8.7c-13.6-3.8-25.2-1.1-29.2 0v9c3.9-1.2 15.5-3.9 29.2-.3z"/><path class="st3" d="M100.7 213.6c2.2.6 6.8 1.7 12.9 1.7 6.2 0 11.1-1.2 13.4-2-11.8-2.7-21.8-.8-26.3.3z"/></g><path class="st5" d="M57.4 102.9h-2.2c-2 0-3.6-1.6-3.6-3.6v-28c0-2 1.6-3.6 3.6-3.6h2.2c2 0 3.6 1.6 3.6 3.6v28.1c-.1 1.9-1.7 3.5-3.6 3.5z"/><circle class="st5" cx="56.3" cy="57.4" r="5"/><path class="st6" d="M73.5 68.6S84.1 55 91.3 67s8 30.2 3.3 30.2S65.8 88 73.5 68.6zM135.8 76c13.6-4 32 4.7 26.2 10.6-5.8 5.8-13.8 22.6-27.7 21.8s-26.6-4.7-17.8-13.5 9.5-16 19.3-18.9zM87 116.8c-4.1 5.6-9.8 17.5 1.8 22.9 11.6 5.5 31.3 12.4 36 6.5 4.7-5.8 4-5.1-1.8-15.3-5.8-10.2-12.4-15.3-18.2-18.2s-15.3.7-17.8 4.1z"/><path class="st7" d="M133.2 70.3c13.6-4 32 4.7 26.2 10.6-5.8 5.8-13.8 22.6-27.7 21.8-13.8-.7-26.6-4.7-17.8-13.5s9.4-16 19.3-18.9zM87 110.7c-4.1 5.6-9.8 17.5 1.8 22.9 11.6 5.5 31.3 12.4 36 6.5 4.7-5.8 4-5.1-1.8-15.3-5.8-10.2-12.4-15.3-18.2-18.2-5.8-2.8-15.3.7-17.8 4.1zM75.7 64s10.6-13.6 17.8-1.6 8 30.2 3.3 30.2S68 83.4 75.7 64z"/></g></svg>