<svg xmlns="http://www.w3.org/2000/svg" viewBox="0 0 222.1 234"><style>.st0{fill:#4E9B35;} .st1{fill:none;stroke:#FFFFFF;stroke-width:3;stroke-miterlimit:10;} .st2{fill:#FFFFFF;} .st3{fill:#9D360A;} .st4{fill:#FEBEBD;}</style><g id="lupa"><path class="st0" d="M48.6 69.3v121.9c0 6.6 5.4 12 12 12h112.3c6.6 0 12-5.4 12-12V69.3H48.6z"/><path class="st1" d="M182 213.3H51.7c-6.6 0-12-5.4-12-12v-148c0-6.6 5.4-12 12-12H182c6.6 0 12 5.4 12 12v148c0 6.6-5.4 12-12 12z"/><path class="st2" d="M196.5 52.3H37c-3.6 0-6.5-2.9-6.5-6.5s2.9-6.5 6.5-6.5h159.5c3.6 0 6.5 2.9 6.5 6.5 0 3.5-2.9 6.5-6.5 6.5z"/><path class="st3" d="M59.5 89.4S74 70.7 84 87.2s11 41.5 4.5 41.5-39.5-12.6-29-39.3zM145.2 99.6c18.7-5.5 44 6.5 36 14.5s-19 31-38 30-36.5-6.5-24.5-18.5 13-22 26.5-26zM78.1 155.6c-5.7 7.7-13.5 24 2.5 31.5s43 17 49.5 9 5.5-7-2.5-21-17-21-25-25-21.1.9-24.5 5.5z"/><path class="st4" d="M141.5 91.8c18.7-5.5 44 6.5 36 14.5s-19 31-38 30-36.5-6.5-24.5-18.5 13-22 26.5-26zM78.1 147.3c-5.7 7.7-13.5 24 2.5 31.5s43 17 49.5 9 5.5-7-2.5-21-17-21-25-25-21.1.8-24.5 5.5zM62.5 83S77 64.3 87 80.8s11 41.5 4.5 41.5S52 109.8 62.5 83z"/><path class="st2" d="M60.5 98.2c-3.3 0-6-2.7-6-6V66.3c0-3.3 2.7-6 6-6s6 2.7 6 6v25.9c0 3.3-2.7 6-6 6z"/></g></svg>