<svg id="cheese_losevo" xmlns="http://www.w3.org/2000/svg" viewBox="0 0 222.4 209"><style>.st0{fill:#99D384;} .st1{fill:#FFFFFF;} .st2{fill:#C6B360;} .st3{fill:#F9DB6C;} .st4{fill-rule:evenodd;clip-rule:evenodd;fill:#FFD600;} .st5{fill-rule:evenodd;clip-rule:evenodd;fill:#62BA47;} .st6{fill:#62BA47;} .st7{fill:#62BA46;} .st8{fill:#FFD600;}</style><path class="st0" d="M156.3 175.2c-.2 0-.5-.1-.7-.2L46.7 120.7c-.3-.2-.6-.4-.7-.8l-9.8-24c0-.1-.1-.2-.1-.4-.1-1.1 7.2-15.8 21.8-31.1 14-14.8 39.1-34.8 78-45.2.1 0 .3-.1.4-.1.7 0 1.3.4 1.4 1.1l23.8 82.8 16.5 62.8c.2.7-.2 1.5-.9 1.8l-20.3 7.5c-.2.1-.3.1-.5.1z"/><path class="st1" d="M136.3 20.6L153.1 79l.1.3 3.2 11.1 3.8 13.1 16.5 62.8-20.3 7.5-109.1-54.4-9.8-24c0-.1 24-54.7 98.8-74.8m0-3c-.3 0-.5 0-.8.1C96.2 28.3 71 48.4 56.7 63.4 41.1 79.8 35 93.6 34.7 94.1c-.3.7-.3 1.6 0 2.3l9.8 24c.3.7.8 1.2 1.4 1.5l108.9 54.3c.4.2.9.3 1.3.3.3 0 .7-.1 1-.2l20.3-7.5c1.5-.5 2.3-2.1 1.9-3.6L163 102.7v-.1l-3.8-13.1-3.2-11.1-.1-.3-16.7-58.3c-.4-1.3-1.6-2.2-2.9-2.2z"/><path class="st2" d="M47.6 95.7l8.3 20.2 98.6 50.3 13.4-4.9z"/><path class="st3" d="M151 102.5l-3.2-11.1-2.7-9.3-.1-.3-14-49.2c-63.1 16.9-83.4 63-83.4 63l120.3 65.6-16.9-58.7z"/><circle class="st1" cx="114.4" cy="91.5" r="25.4"/><path class="st4" d="M117.7 80c-.2 1-1.1 1.8-2.2 1.8-1.2 0-2.2-1-2.2-2.1-6.1.6-10.8 5.8-10.9 12.1 0 1.2.2 2.4.5 3.5h.1c1.2 0 2.2 1 2.2 2.2 0 .5-.2 1-.5 1.4 2 2.8 5.2 4.7 8.8 5 .9.1 2.9 0 4-.3 2.9-.7 5.4-2.6 7.1-5-.1-.3-.2-.6-.2-.9 0-1 .7-1.8 1.7-2 .4-1.2.6-2.5.6-3.8 0-5.8-3.9-10.5-9-11.9zm-12.8 8.4c-.6 0-1.2-.5-1.2-1.2 0-.6.5-1.2 1.2-1.2.6 0 1.2.5 1.2 1.2-.1.7-.6 1.2-1.2 1.2zm19.1 4.1c-.8 0-1.4-.6-1.4-1.4 0-.8.6-1.4 1.4-1.4.8 0 1.4.6 1.4 1.4.1.8-.6 1.4-1.4 1.4zM108.7 76.9c0 .9-.7 1.6-1.6 1.6-.9 0-1.6-.7-1.6-1.6 0-.9.7-1.6 1.6-1.6.9 0 1.6.7 1.6 1.6z"/><path class="st5" d="M108.8 82.1c0 1.1-.9 2-2 2s-2-.9-2-2 .9-2 2-2 2 .9 2 2zM103.4 79c0 .7-.5 1.2-1.2 1.2s-1.2-.5-1.2-1.2.5-1.2 1.2-1.2c.7.1 1.2.6 1.2 1.2z"/><circle class="st6" cx="124.9" cy="80.7" r="6.7"/><path class="st1" d="M123.2 79.7c-.6.1-.7.7-.7 1.2v.8c0 .1 0 .3-.1.3-.2 0-.4-.3-.4-.4-.1-.3-.2-.7-.3-1.1-.1-.4-.1-.8-.1-1.2v-.5-.2-.1c.1-.3-.4 0-.4.1-.4.8-.3 1.7-.3 2.6v.7c0 .2-.1.4-.2.6-.1.1-.2 0-.3 0-.1-.1-.2-.2-.2-.3 0-.1-.2-.1-.2 0-.1.1-.2.3-.2.4.1.3.3.6.6.5.5-.1.7-.7.8-1.2.1-.2.1-.5.1-.7.1.3.2.7.3 1 .1.2.3.5.6.4.2 0 .4-.3.5-.5.1.2.2.4.5.4s.5-.3.6-.5c.1-.3.2-.6.2-.9-.1-.6-.2-1.4-.8-1.4zm.2 2v.2c-.1 0-.2-.2-.2-.2-.1-.2-.1-.4-.1-.6v-.6-.2c.3.2.3.5.4.8-.1.1-.1.3-.1.6zM129.9 80.5c-.6-.2-.9.6-1 1-.1.4-.2 1.2.3 1.4.3.1.6-.1.7-.2.2-.2.3-.5.4-.7 0-.5.1-1.3-.4-1.5zm-.4 1.9l-.1.1c-.1-.1-.1-.2-.1-.3v-.6c0-.2.1-.4.2-.6l.1-.1c.2.3.2.6.1.9 0 .2-.1.5-.2.6zM128.3 80.6c.1-.2.2-.3.3-.5.2-.3.4-.7.4-1.1 0-.4-.5-.4-.8-.3-.4.2-.6.6-.7 1-.1.5-.2 1-.3 1.6-.2.2-.6.7-.9.5-.1 0-.1-.1-.1-.2.2-.3.5-.5.7-.8.2-.3.3-.7 0-.9-.3-.2-.7 0-.9.3-.2.2-.3.5-.3.8v.7c-.2.1-.4.2-.6.1-.2 0-.3-.3-.4-.5-.1-.3 0-.6 0-.9 0-.1 0-.2.1-.3V80c.1.1.2.3.2.4.1.2.6-.1.5-.3-.1-.2-.1-.4-.4-.5-.2-.1-.5.1-.6.2-.4.4-.4.9-.4 1.4 0 .3.1.7.4.9.4.2.9 0 1.2-.2.1.2.3.4.6.3.4 0 .7-.2.9-.5 0 .3.1.6.3.7.3.2.7 0 .9-.3.3-.3.4-.8.3-1.3-.1-.1-.3-.2-.4-.2zm-2.1-.2c0-.1.1-.2.1-.2.1 0 .2.2.2.3 0 .2-.2.4-.3.6V81c-.1-.2 0-.4 0-.6zm2-1.1c0-.1.1-.2.1-.2.2.3 0 .6-.1.9-.1.2-.3.5-.4.7 0-.2.1-.5.1-.7.1-.3.2-.5.3-.7zM128 82c0 .1 0 .1 0 0l-.1.1c-.2-.1-.2-.4-.2-.5v-.3l.2-.2c.1-.1.2.1.3.2 0 .2-.1.5-.2.7zM112.3 93.7c-.7.1-.9.9-.9 1.5V96.1c0 .1 0 .3-.1.3-.3 0-.4-.4-.5-.5-.2-.4-.3-.9-.4-1.3-.1-.5-.1-1-.2-1.5v-.6-.2-.1c.1-.4-.5 0-.6.1-.6 1-.4 2.1-.4 3.2 0 .3 0 .6-.1.9 0 .2-.1.5-.2.7-.1.1-.3 0-.4 0-.1-.1-.2-.2-.2-.4s-.2-.1-.3 0c-.1.1-.2.3-.2.5.1.4.4.7.8.6.6-.2.9-.9 1-1.5.1-.3.1-.6.1-.8.1.4.2.8.4 1.2.1.3.4.6.7.5.3-.1.4-.3.6-.6.1.3.3.5.6.5s.6-.4.8-.7c.2-.3.2-.7.2-1.1.1-.6 0-1.7-.7-1.6zm.2 2.4c0 .1 0 .1-.1.2-.1 0-.2-.2-.3-.3-.1-.2-.2-.5-.2-.7v-.8c0-.1 0-.1.1-.2.4.2.4.7.5 1 0 .3.1.6 0 .8zM120.6 94.7c-.7-.3-1.2.7-1.3 1.3-.1.5-.3 1.5.4 1.7.3.1.7-.1.9-.3.2-.3.4-.6.5-.9 0-.6.2-1.6-.5-1.8zm-.4 2.4c0 .1-.1.1-.1.2-.1-.1-.2-.3-.2-.4v-.8c0-.3.1-.5.2-.7 0-.1.1-.1.1-.2.3.3.2.8.1 1.2 0 .2 0 .5-.1.7zM118.6 94.8c.1-.2.3-.4.4-.6.3-.4.5-.9.5-1.4 0-.5-.7-.5-1-.3-.5.2-.8.7-.9 1.2-.2.6-.3 1.3-.3 2-.2.3-.7.9-1.1.6-.1-.1-.1-.2-.2-.3.3-.3.6-.7.8-1 .2-.3.4-.9 0-1.2-.4-.2-.8 0-1.1.3-.2.3-.4.7-.4 1.1v.9c-.2.1-.5.2-.7.2-.3-.1-.4-.4-.4-.6-.1-.3-.1-.7 0-1.1 0-.1 0-.2.1-.3v-.1c.2.1.3.3.3.5.1.3.7-.2.6-.4-.1-.3-.2-.5-.5-.6-.3-.1-.6.1-.8.3-.4.4-.5 1.1-.5 1.7 0 .4.1.9.4 1.1.4.3 1.1 0 1.5-.2.1.3.3.5.7.4.4-.1.9-.3 1.2-.6 0 .3.1.7.3.9.4.2.9 0 1.1-.4.3-.4.5-1 .3-1.6.1-.4-.1-.5-.3-.5zm-2.6-.3c0-.1.1-.2.1-.3.2 0 .2.3.2.4 0 .3-.2.6-.4.8v-.1c0-.2.1-.5.1-.8zm2.5-1.3c.1-.1.1-.2.2-.3.3.3 0 .8-.1 1.1-.2.3-.3.6-.5.9 0-.3.1-.6.2-.9-.1-.3 0-.6.2-.8zm-.2 3.4s0 .1-.1.1h-.1c-.2-.1-.2-.5-.2-.7v-.4c.1-.1.2-.2.2-.3.2-.1.3.1.3.3.1.3 0 .7-.1 1z"/><g><path class="st1" d="M120.1 90.1c.2-.6.3-1.3-.2-1.8-.3-.3-.7-.3-1-.3 0-.2.1-.5.1-.7 0-.2-.4-.2-.5-.1-.2.1-.4.2-.5.4 0 .9-.2 1.8-.4 2.7l-.6.3c-.1.1-.2.1-.4.1-.2-.1-.2-.5-.2-.7 0-.8 0-1.7.5-2.4.1-.2 0-.3-.3-.3s-.6.2-.7.4c-.4.9-.5 1.9-.4 3 0 .3.1.6.5.6.5.1 1-.2 1.4-.4v.2c-.2.8-.4 1.7-.7 2.5-.1.2.1.2.2.2s.3-.2.4-.4c.2-.6.4-1.1.6-1.7.2.1.5.1.8 0 .7-.3 1.1-.9 1.4-1.6zm-1.2-1.5zm-.3 2.6zm0 0s-.1 0 0 0c-.1 0-.1 0 0 0-.3 0-.4-.3-.3-.6v-.1c.1-.5.3-1 .4-1.5 0-.2.1-.3.2-.4.1 0 .2.1.2.3.2.4.1.9 0 1.2-.1.4-.2.8-.5 1.1z"/><path class="st1" d="M114.5 88.1h-.1c-.2 0-.4.1-.6.2 0-.3-.1-.7-.1-1 0-.1-.3 0-.4 0-.2.1-.5.3-.5.5 0 .4-.1.8-.2 1.2-.1.3-.1.7-.2 1 0 .1-.1.3-.1.4 0 .1 0 .1-.1.1-.2.2-.4.2-.7.2-.3-.1-.5-.2-.7-.4-.5-.5-.8-1.2-.9-1.9-.1-.3-.1-.7 0-1.1 0-.1 0-.3.1-.4 0-.1 0-.1.1-.2v-.1h.1s.2-.1.4-.1c.6-.1.9.4 1 .7.1.3 1-.4.9-.7-.2-.6-.8-1-1.4-.9-.5.1-1 .3-1.3.7-.7.8-.8 1.9-.6 2.9.2.9.7 1.7 1.5 2.2.3.2.7.3 1 .2.7-.2 1.2-1 1.5-1.6v-.1c0 .6.5 1.3 1.1 1.3.7 0 1.2-.9 1.2-1.6 0-.6-.2-1.4-1-1.5zm.1 2.2v.1h-.1c-.4 0-.6-.6-.6-.9v-.1-.2c0-.1 0-.3.1-.4 0 0 0-.1.1-.1.5 0 .6.6.7.9-.1.3-.1.5-.2.7z"/></g><g><circle class="st6" cx="104.8" cy="102.6" r="3.8"/><path class="st1" d="M102.3 102.4c.1-.2.2-.3.4-.5.1-.1.1-.2.2-.2.1-.1.1-.1 0 0v.4c0 .7 0 1.3-.1 2 0 .2.4-.1.4-.2 0-.4.1-.9.1-1.3 0-.2.2-1.2-.1-1.3-.4-.1-.9.9-1.1 1.1-.3.2.1.2.2 0zM104.4 102.4c-.2-.1-.6-.5-.3-.7.1-.1.3 0 .4 0 .3.1.1.4-.1.5-.1.1-.6.5-.4.7.3.2.8 0 .8.5 0 .3-.5.3-.7.2-.3-.2-.3-.5.1-.8.2-.1.3-.5 0-.4-.4.2-.8.5-.8 1 0 .3.3.6.6.6.4 0 .9-.2 1.1-.6.2-.3.2-.8-.2-.9-.1 0-.5-.1-.5 0 .2-.2.4-.3.5-.5.3-.4.2-.8-.3-.9-.4-.1-.8.2-1 .6-.3.4 0 .8.4 1 .2.2.6-.2.4-.3zM107.3 101.5c-.5.8-1.1 1.6-1.7 2.3-.2.3.2.3.3.1.6-.8 1.2-1.6 1.8-2.5.2-.3-.3-.1-.4.1zM106.4 101.2c-.3 0-.5.3-.6.6 0 .3.1.5.4.5.6 0 .9-1 .2-1.1-.1 0-.4.3-.2.3.1 0 .2.1.2.3v.2h-.1c-.1 0-.2-.1-.2-.2v-.2h.1c.2 0 .4-.4.2-.4zM107.3 103c-.3 0-.5.3-.6.6 0 .3.1.5.4.5.5 0 .8-1.1.2-1.1-.1 0-.4.3-.2.3.1 0 .2.1.2.3v.2h-.1c-.1 0-.2-.1-.2-.2v-.2h.1c.1-.1.4-.4.2-.4z"/></g><g><path class="st7" d="M99.7 86.6c-.1 0-.1-.1-.2-.1-.3-.1-.5.1-.7.1-.6 0-.8 0-1.5-.2 0-.6.3-1 .5-1.4.1-.4-.1-.9-.1-1.4v-.9c-.2.2-.1.7-.1 1-.1-.4-.1-.8-.2-1.1-.1.3 0 .8 0 1.1-.1-.3-.1-.7-.3-1-.2.3.1.8.1 1.1l-.3-.9c-.1.4.1.7.1 1-.1-.2-.2-.5-.4-.7 0 .2.2.5.3.8-.2-.1-.2-.3-.4-.4 0 .2.2.3.2.5-.1-.1-.2-.2-.3-.2 0 .2.2.2.2.4-.1-.1-.2-.1-.3-.2 0 .1.2.2.2.3 0 0-.1-.1-.1 0l.1.1h-.1c0 .1.1.1.1.2h-.1c0 .1.1.1.1.1-.5.5-.2 1.1-.3 1.7 0-.1-.4-.2-.7-.3-.2-.1-.2-.3-.4-.4l.1-.1c-.1 0-.1 0-.1-.1h.2c-.1-.1-.3-.1-.3-.2.1 0 .2.1.3.1-.1-.1-.4-.2-.4-.3.1 0 .3.2.4.1-.2-.1-.5-.3-.6-.4.2.1.3.3.5.2-.3-.1-.5-.4-.7-.4.1.2.5.4.6.5l-.6-.3c.1.2.3.3.5.5-.2 0-.3-.1-.5-.1.1.2.3.1.4.3h-.3c0 .1.2.1.3.2-.1 0-.2 0-.3.1.1.1.2 0 .3.1-.1 0-.1 0-.1.1s.2 0 .2.1c0 0-.1 0-.1.1h.1l-.1.1c.3.1.4.6.8.7-.2.1.2.3-2.1 1.1.1 0 1-.2 1.3-.3l.9-.3c.1 0 .1 0 .2-.1.5 0 .9 0 1.4-.3-.4.1-1 .1-1.2-.1.3-.5.1-1.7.3-2 .3-.2.6-1.1 1.1-.4.1.1.1.3-.1.6-.2.4-.3.5-.3 1.3 0 .2 0 .3-.2.3 1 .2 1.3.1 1.9 0 .2 0 .5-.2.5 0 0 .1-.2.1-.4.1-.3 0 .1.1.3.1.1 0 .6-.1.9-.1-.2-.3-.3-.3-.5-.4z"/><path class="st7" d="M96.7 81.4c-2.3 0-4.2 1.9-4.2 4.2 0 2.3 1.9 4.2 4.2 4.2 2.3 0 4.2-1.9 4.2-4.2 0-2.3-1.8-4.2-4.2-4.2m0 .2c2.2 0 4.1 1.8 4.1 4.1 0 2.2-1.8 4.1-4.1 4.1-2.2 0-4.1-1.8-4.1-4.1.1-2.3 1.9-4.1 4.1-4.1"/></g><g><circle class="st8" cx="120.8" cy="108.1" r="4.1"/></g><path class="st8" d="M93.2 98.2h-.6c.9 2.8 2.2 5.4 3.9 7.7.8-.8 1.3-1.9 1.3-3.2 0-2.4-2.1-4.5-4.6-4.5z"/><circle class="st8" cx="134.4" cy="90.3" r="3.1"/><path class="st8" d="M133.2 102.7c0 .8.2 1.5.6 2.1 1.3-1.9 2.4-4.1 3.2-6.4-2.2.4-3.8 2.2-3.8 4.3zM114.6 68.2c-.9 0-1.8 0-2.7.1v.1c0 2.6 2.1 4.7 4.7 4.7 2.4 0 4.3-1.8 4.6-4.1-2.1-.5-4.4-.8-6.6-.8z"/><circle class="st1" cx="70.3" cy="76.9" r="3.8"/><path class="st1" d="M62.1 120.6c-1.4 0-2.7-.8-3.3-2.2l-8.2-19.1.7-1.4c2.5-5.4 8.7-14.2 9-14.6 1.1-1.6 3.4-2 5-.8 1.6 1.1 2 3.4.8 5-.1.1-5.1 7.1-7.6 12l6.9 16.2c.8 1.8-.1 3.9-1.9 4.7-.4.1-.9.2-1.4.2z"/></svg>