<svg xmlns="http://www.w3.org/2000/svg" viewBox="0 0 219 227.7"><style>.st0{fill:#519E38;} .st1{fill:#E2E2E2;} .st2{fill:#D3D3D3;} .st3{fill:#444444;} .st4{fill:#FFFFFF;} .st5{fill:#0E3656;} .st6{fill:#1669B3;} .st7{fill:#EDEDED;} .st8{fill:none;stroke:#636363;stroke-width:0.75;} .st9{fill:#636363;} .st10{fill:#1E1E1E;}</style><g id="milk"><path id="XMLID_60_" class="st0" d="M146.2 54.8H145v-7.2h5.7c1.7 0 3-1.4 3-3 0-1.7-1.4-3-3-3H145v-8.1c2 0 3.7-1.6 3.7-3.7 0-2-1.6-3.7-3.7-3.7H66.6c-2 0-3.7 1.6-3.7 3.7 0 2 1.6 3.7 3.7 3.7h.8v8.1h-6.7c-1.7 0-3 1.4-3 3 0 1.7 1.4 3 3 3h6.7v7.2h-2c-7.7 0-13.9 6.2-13.9 13.9v118.6c0 7.7 6.2 13.9 13.9 13.9h80.8c7.7 0 13.9-6.2 13.9-13.9V68.7c0-7.7-6.2-13.9-13.9-13.9z"/><path id="XMLID_59_" class="st1" d="M153.3 180.9c0 7.7-6.2 13.9-13.9 13.9H58.7c-7.7 0-13.9-6.2-13.9-13.9V62.4c0-7.7 6.2-13.9 13.9-13.9h80.8c7.7 0 13.9 6.2 13.9 13.9v118.5z"/><path id="XMLID_58_" class="st2" d="M60.7 27h77.5v21.5H60.7z"/><path id="XMLID_57_" class="st3" d="M141.9 23.4c0 2-1.6 3.7-3.7 3.7H59.9c-2 0-3.7-1.6-3.7-3.7 0-2 1.6-3.7 3.7-3.7h78.3c2 0 3.7 1.6 3.7 3.7z"/><path id="XMLID_56_" class="st3" d="M68.4 38.2c0 1.7-1.4 3-3 3H54c-1.7 0-3-1.4-3-3 0-1.7 1.4-3 3-3h11.4c1.7-.1 3 1.3 3 3z"/><path id="XMLID_31_" class="st3" d="M148.4 38.2c0 1.7-1.4 3-3 3H134c-1.7 0-3-1.4-3-3 0-1.7 1.4-3 3-3h11.4c1.6-.1 3 1.3 3 3z"/><path id="XMLID_55_" class="st4" d="M64.2 74.4c0 2.5-2 4.5-4.5 4.5s-4.5-2-4.5-4.5v-9.3c0-2.5 2-4.5 4.5-4.5s4.5 2 4.5 4.5v9.3z"/><path id="XMLID_50_" class="st5" d="M131.1 110.9c-3.7-1.2-5.7 3.5-6.3 6.2v.2c-.6 2.8-1.6 4.1-1.8 4-.8-.3-.6-1.5-.6-2.3 0-1.2.2-2.5-.5-3.7-.5-.9-1.5-1.1-2.5-1.1.1-.2.1-.3.2-.5s.2-.4.3-.5c.4-.9.9-1.8 1.7-2.5h.1c.4.1.8.6 1 .8 1 1 4-.6 3.1-1.6-1.2-1.4-2.6-1.6-3.9-1.3-.9.2-1.8.6-2.5 1.2-.1.1-.3.2-.4.3.1-1.6.1-3.2-.1-4.7-.1-.9-2-.4-2.9.4-.2.1-.3.3-.4.5-.3 1.1-2.3 1.7-4 .2-.4-.4-.9-.6-1.6-.6-3.8-.3-5.1 4-5.5 7-.1 1.9-1.3 4.5-2.3 4.9-.3-.2-.4-.5-.5-.8-.4-.9-.6-2-.7-2.9-.3-2.7-.4-5.5-.3-8.3 0-.5-.5-.7-1.1-.6-1 .2-1.7.9-2 1.7-1.1 2.5-1.7 5.2-2 7.9-.1.7-.2 1.5-.3 2.2 0 .3-.1.6-.1.9-.6 0-1.1-.6-1.1-1.1 0-1-1.2-.5-2.1.2.5-1.4.7-2.9.7-4.3 0-2.5-.7-7.4-4.1-7.2-3.6.3-4.4 4.9-4.5 7.8-.1 2.7-.2 5.1-.3 5.5-1.6.2-2.5-1.5-2.9-2.4-.8-1.9-1.2-3.9-1.4-5.9-.4-3.4-.7-6.7-.5-10.1 0-.6-.7-.6-1.2-.3-.8.4-1.4 1-1.7 1.7-1.1 2.5-1.3 5.2-1.5 7.9v.1c0-.2-.1-.5-.1-.7-.4-2.1-.7-4.2-1-6.3-.2-1.3-.4-3-.2-4.1.3-1.8-2.2 0-2.6.8-2.4 4.8-1.6 10.2-1.3 15.6.1 1.4 0 2.7-.2 4.1-.1.9-.3 2.6-1.1 3.4-.5.5-1.4.1-1.8-.1-.6-.4-1.1-1.1-1.2-1.8-.1-.8-1-.3-1.4.1-.6.6-1.2 1.6-1 2.4.3 1.8 1.9 3.5 3.9 2.8 3.1-1 4.4-4.7 5.1-7.7.4-1.7.5-3.4.5-5.2.7 3.1 1.3 6.2 2 9.4.3 1.6 2.6-1.2 2.6-2.1 0-2.3.1-4.5.2-6.8.4 2.7 1.2 8.8 5.2 8.2 1.6-.3 2.6-1.5 3.1-2.9.6 1.2 1.5 2.2 2.9 2.1 1.3-.1 2.5-1.2 3.3-2.4.2 1.1.8 1.9 2.1 1.9 1.6.1 3.1-.9 3.9-2.1.4-.5.6-1.1.8-1.7.1.3.1.5.2.8.2.9.5 2 1.3 2.6.8.8 2.1.2 2.9-.3.9-.6 1.6-1.5 2.1-2.5.3 1.8 1 3.5 2.9 3.8 1.7.3 3.3-1.2 4.1-2.4 1-1.4 1.4-3.1 1.6-4.8.1-1 .2-2.8-.1-4.5 1.2 0 2.1-.4 2.7-.9-.2 4.4-.8 8.7-1.5 13.1-.1.8.7.8 1.3.7.7-.2 1.6-.8 1.8-1.5.3-1.3.7-2.6 1.1-3.9 1.6 1.8.2 4.4 1.4 6.1.6.9 2.7.9 3.6.3.4-.2.7-.5 1-.8.2 1.4.8 2.6 2.2 3.1 1.6.6 3.4-.5 4.3-1.5 1.1-1.2 1.8-2.9 2.2-4.5.3-2.7 1-7.5-2.3-8.7zm-41.5 6.3c-.1.3-.2.7-.3 1-.6-.1-1.1-1.1-1.3-1.5-.5-1.1-.7-2.4-.8-3.6-.1-1.3-.1-2.6.2-3.8l.3-.9c1.6.4 2 4 2.1 5.1.1 1.1.1 2.5-.2 3.7zm19.9.5c-.1.3-.2.6-.4.9-.6-.2-1-1.3-1.1-1.8-.4-1.2-.4-2.5-.4-3.7.1-1.3.3-2.5.7-3.7.1-.3.2-.6.4-.9 1.5 1.3 1.5 3.6 1.4 5.4 0 1.4-.2 2.7-.6 3.8zm19.4 4.8c-.1.3-.3.6-.5.8-.6-.4-.8-1.5-.8-2-.2-1.3-.1-2.6.2-3.7.2-1.2.6-2.5 1.2-3.6.1-.3.3-.6.5-.8 1.2 1.7 1.1 3.8.7 5.7-.4 1.2-.7 2.5-1.3 3.6z"/></g><g id="clock"><g id="XMLID_29_"><circle id="XMLID_49_" class="st6" cx="154.4" cy="187.1" r="30.3"/><circle id="XMLID_48_" class="st7" cx="154.4" cy="187.1" r="25"/><ellipse id="XMLID_47_" class="st8" cx="154.4" cy="187.1" rx="23" ry="23.1"/><path id="XMLID_46_" class="st9" d="M153.4 164.1h1.9v5.1h-1.9z"/><path id="XMLID_45_" class="st9" d="M141.31 168.502l1.543-1.11 2.977 4.14-1.542 1.11z"/><path id="XMLID_44_" class="st9" d="M134.285 176.688l.886-1.68 4.512 2.378-.886 1.68z"/><path id="XMLID_43_" class="st9" d="M164.762 172.298l-1.542-1.11 2.978-4.14 1.542 1.11z"/><path id="XMLID_42_" class="st9" d="M170.547 179.006l-.886-1.68 4.512-2.38.886 1.68z"/><path id="XMLID_41_" class="st9" d="M144.29 201.943l1.543 1.11-2.977 4.14-1.543-1.11z"/><path id="XMLID_40_" class="st9" d="M138.052 194.423l.886 1.68-4.51 2.38-.887-1.68z"/><path id="XMLID_39_" class="st9" d="M168.308 205.686l-1.543 1.11-2.977-4.14 1.542-1.11z"/><path id="XMLID_38_" class="st9" d="M175.237 197.105l-.886 1.68-4.51-2.38.886-1.68z"/><path id="XMLID_37_" class="st9" d="M153.4 205.5h1.9v5.1h-1.9z"/><path id="XMLID_36_" class="st9" d="M172.5 186.2h5.1v1.9h-5.1z"/><path id="XMLID_35_" class="st9" d="M131.2 186.2h5.1v1.9h-5.1z"/><circle id="XMLID_34_" class="st10" cx="154.7" cy="186.4" r="1.8"/></g></g><g id="minute_x5F_arrow"><path id="XMLID_33_" class="st10" d="M160.22 169.224l1.314.483-6.315 17.176-1.316-.483z"/></g><g id="hour_x5F_arrow"><path id="XMLID_32_" class="st10" d="M166.47 187.08l-.15 1.393-11.632-1.262.15-1.39z"/></g></svg>