<svg xmlns="http://www.w3.org/2000/svg" viewBox="0 0 306.3 256"><style>.st0{fill:#519E38;} .st1{fill:#F4B19A;} .st2{fill:#C3ABCE;} .st3{fill:#F4E9CE;} .st4{fill:#EFA49A;} .st5{fill:none;stroke:#FFFFFF;stroke-width:4;stroke-miterlimit:10;} .st6{fill:#EFEFEF;} .st7{fill:#FFFFFF;} .st8{fill:#E1D0EA;} .st9{fill:#F4CCC1;} .st10{fill:#F9C7C2;} .st11{fill:#FFF8E9;} .st12{fill-rule:evenodd;clip-rule:evenodd;fill:#267918;} .st13{fill:#267918;} .st14{fill:#483290;} .st15{fill:#712F8F;} .st16{fill-rule:evenodd;clip-rule:evenodd;fill:#F1788A;} .st17{fill-rule:evenodd;clip-rule:evenodd;fill:#DA1B51;} .st18{fill:#3A1305;} .st19{fill:#EACC96;} .st20{fill:#D1AF79;} .st21{fill:#E2231A;}</style><g id="vanna_1"><path class="st0" d="M250.4 95.5c0-2.2-1.8-4-4-4h-183c-2.2 0-4 1.8-4 4s1.8 4 4 4v103.8h5.3V99.5h172.7l-.3 16.7-1.4 70.8-7 18.8S66.5 203 66.5 208.5s5 5.8 5 5.8h167.2c9 0 7.7-11.2 7.7-11.2l.1-103.5c2.2-.1 3.9-1.9 3.9-4.1z"/><path class="st1" d="M108.6 146.4h43.8v60.1h-43.8z"/><path class="st2" d="M64.7 146.4h43.8v60.1H64.7z"/><path class="st3" d="M195.8 146.4h43.8v60.1h-43.8z"/><path class="st4" d="M151.9 146.4h43.8v60.1h-43.8z"/><path class="st5" d="M241.4 204.8c0 2-1.6 3.7-3.7 3.7H67.1c-2 0-3.7-1.6-3.7-3.7V98.2c0-2 1.6-3.7 3.7-3.7h170.6c2 0 3.7 1.6 3.7 3.7v106.6z"/><path class="st6" d="M247.4 92.5c0 2.2-1.8 4-4 4h-183c-2.2 0-4-1.8-4-4s1.8-4 4-4h183c2.2 0 4 1.8 4 4z"/><path class="st7" d="M80.2 133.1c0 1.7-1.4 3.1-3.1 3.1-1.7 0-3.1-1.4-3.1-3.1v-22.8c0-1.7 1.4-3.1 3.1-3.1 1.7 0 3.1 1.4 3.1 3.1v22.8zM108.3 96.5h1v112h-1zM150.4 96.5h1v112h-1zM196.3 96.9h1v112h-1z"/><circle class="st8" cx="79.4" cy="168" r="3.5"/><circle class="st8" cx="79.5" cy="176.4" r="2"/><circle class="st8" cx="98.7" cy="190.5" r="2"/><circle class="st8" cx="90.3" cy="198.5" r="2"/><circle class="st8" cx="90.3" cy="181.8" r="2"/><circle class="st8" cx="96.7" cy="160.9" r="2"/><circle class="st9" cx="136" cy="166.4" r="3.5"/><circle class="st9" cx="121.7" cy="176.4" r="2"/><circle class="st9" cx="132.1" cy="181.8" r="2"/><circle class="st9" cx="142.4" cy="196.5" r="2"/><circle class="st9" cx="123.7" cy="194.5" r="2"/><circle class="st9" cx="123.8" cy="156.9" r="2"/><circle class="st10" cx="159.7" cy="186" r="3.5"/><circle class="st10" cx="165.2" cy="163.7" r="2"/><circle class="st10" cx="188.7" cy="158.9" r="2"/><circle class="st10" cx="184.7" cy="196.5" r="2"/><circle class="st10" cx="186.7" cy="183.8" r="2"/><circle class="st10" cx="173" cy="173.5" r="2"/><circle class="st11" cx="222" cy="152.9" r="3.5"/><circle class="st11" cx="209" cy="163.7" r="2"/><circle class="st11" cx="216.5" cy="198.5" r="2"/><circle class="st11" cx="230.5" cy="174.4" r="2"/><circle class="st11" cx="221.3" cy="173.5" r="2"/><circle class="st11" cx="227.5" cy="194.5" r="2"/></g><g id="chernika"><path class="st12" d="M86.7 45.3c-2.8-2.6-4.6-.9-4.7 2-.2 7.8 4.5 7.1 4.9 7-.1-.1-1.1-.6-1.4-1.9-.2-.1-1.6-.8-2.2-1.6l-.2-.5.4.4c.3.4.9 1 2 1.3-.1-.3-.1-.6-.1-.8-.3-.1-1.6-.6-2.2-1.6l-.1-.2c0-.1-.3-.6-.3-.6l.5.8c.3.5.9 1.1 2.1 1.3v-1.1c-.3 0-1.6-.3-2.3-1.6L83 48l-.1-.3.4.5c.3.4 1 1.4 2.2 1.3 0-.4-.1-.7-.2-1.1-.1 0-1.2-.1-2-1.5 0 0-.1-.1-.1-.3 0-.1-.1-.3-.1-.3l.3.6c.3.4 1.1 1.4 1.8 1.3-.6-1.8-1.6-2.9-1.6-2.9l-.3-.3s.3.1.4.2c0 0 .5.5 1.1 1.4.2-.7-.1-1.4-.1-1.4l-.2-.2.3.2c.4.6.2 1.7.2 1.9.4.7.6 1.4.8 2.1 1.5-1.4 1-2.7 1-2.7l-.1-.3.3.3c.6 1.4-.9 2.9-1.1 3.1v.9c1.5-.7 2-2.8 2-2.8v-.3s.1.4 0 .8c-.5 1.8-2 2.7-2.1 2.8 0 .4 0 .8.1 1.2.4-.2 1.8-1.2 2.4-2.4L88 49h.1-.1l.1-.4-.1.6c-.2.5-1.1 2-2.4 2.7.1.4.2.8.4 1.1.1 0 .3-.1.4-.1 1.2-.5 1.7-1.7 1.9-2.5l.2-.6v.6c-.5 2-1.6 2.7-2 2.9h-.1c.3.4.8.7.9.8l.3-.1c2.3-4.2 1.2-6.8-.9-8.7zM97.4 47.5c1.3-2.8-.5-3.8-2.8-3.1-6.1 1.9-4.3 5.3-4.1 5.6 0-.1.2-1 1.1-1.6 0-.2.2-1.5.7-2.1l.3-.3-.2.4c-.2.3-.5.9-.5 1.9l.6-.3c0-.3 0-1.4.7-2.1 0 0 .1-.1.1-.2l.4-.4-.5.6c-.3.4-.6 1-.4 1.9.3-.1.5-.2.8-.3 0-.2-.2-1.3.6-2.2l.2-.2.2-.2-.2.4c-.3.3-.8 1.2-.5 2 .3-.1.5-.3.8-.4 0 0-.3-.9.7-1.9l.2-.2c.1 0 .2-.1.2-.1l-.4.4c-.2.4-.8 1.2-.6 1.8 1.2-.9 1.8-2 1.8-2l.1-.3v.3s-.3.6-.8 1.2c.6 0 1.1-.4 1.1-.4l.1-.2-.1.3c-.3.4-1.2.6-1.4.6-.4.5-.9.9-1.4 1.1 1.4.8 2.3.1 2.3.1l.2-.2-.2.3c-.9.8-2.4.1-2.7-.1h-.2c-.1.1-.3.1-.4.1.9 1 2.7.8 2.7.8l.3-.1s-.2.2-.6.2c-1.5.1-2.6-.8-2.7-.9-.3.1-.6.2-.9.4.3.2 1.4 1.1 2.5 1.2h.1v.1-.1h.3l-.4.1c-.4-.1-1.8-.3-2.7-1.2-.3.2-.5.4-.7.6.1.1.1.2.2.3.7.8 1.8.8 2.4.8h.5l-.5.1c-1.7.2-2.5-.5-2.7-.8l-.1-.1c-.2.3-.4.8-.4.9l.1.2c4.2.9 5.8-.6 6.8-2.7z"/><path class="st12" d="M92.3 53.2c1.2-1.2.4-2-.8-2.1-3.4-.2-3.1 1.9-3.1 2.1 0-.1.3-.5.8-.6 0-.1.4-.7.7-1l.2-.1-.1.2c-.2.1-.4.4-.6.9h.4c0-.1.3-.7.7-.9l.1-.1.3-.1-.4.2c-.2.1-.5.4-.6.9h.5c0-.1.1-.7.7-1l.1-.1.1-.1-.2.2c-.2.1-.6.4-.6.9.2 0 .3 0 .5-.1 0 0 0-.5.7-.9h.2l-.2.1c-.2.1-.6.5-.6.8.8-.2 1.3-.7 1.3-.7l.1-.1s-.1.1-.1.2c0 0-.2.2-.6.5.3.1.6 0 .6 0l.1-.1-.1.1c-.3.2-.7.1-.8.1-.3.2-.6.3-.9.3.6.7 1.2.5 1.2.5l.2-.1-.1.1c-.6.2-1.2-.4-1.3-.5h-.4c.3.7 1.2.9 1.2.9h.1s-.2.1-.4 0c-.8-.2-1.2-.9-1.2-.9h-.5c.1.2.5.8 1 1.1l.2.1h-.2c-.2-.1-.9-.5-1.2-1.1-.2 0-.3.1-.5.2v.2c.2.5.7.8 1.1.9l.3.1h-.3c-.9-.2-1.2-.7-1.2-.9v-.1c-.2.1-.3.3-.3.4v.1c1.9.9 3 .4 3.9-.5zM91.9 58.7c2.2-2.3.8-3.9-1.6-4-6.6-.3-6 3.6-6 4 .1-.1.5-.9 1.6-1.1.1-.2.7-1.4 1.4-1.8l.4-.2-.4.3c-.3.2-.8.7-1.1 1.6.2 0 .5-.1.7-.1.1-.2.5-1.3 1.4-1.8 0 0 .1-.1.2-.1s.5-.2.5-.2l-.7.4c-.4.2-.9.7-1.1 1.7h.9c0-.2.3-1.3 1.4-1.9l.2-.1.2-.1-.4.3c-.4.2-1.2.8-1.2 1.8.3 0 .6-.1.9-.2 0-.1.1-1 1.3-1.7 0 0 .1-.1.3-.1h.3l-.5.2c-.4.3-1.2.9-1.2 1.5 1.5-.4 2.5-1.3 2.5-1.3l.2-.2s-.1.3-.2.3c0 0-.5.5-1.2.9.6.2 1.2 0 1.2 0l.2-.2.2.4c-.5.3-1.4.1-1.6.1-.6.3-1.2.5-1.8.6 1.1 1.3 2.2.9 2.2.9l.3-.1-.3.2c-1.2.4-2.4-.8-2.6-1h-.7c.5 1.3 2.3 1.8 2.3 1.8h.3s-.3.1-.7 0c-1.5-.4-2.2-1.7-2.3-1.8h-1c.2.3 1 1.5 2 2h.1v.1l.3.1-.5-.1c-.4-.2-1.7-.9-2.2-2.1l-.9.3c0 .1.1.2.1.3.4 1 1.4 1.5 2 1.6l.5.1h-.5c-1.7-.5-2.2-1.4-2.3-1.8v-.1c-.3.2-.6.7-.7.7l.1.2c3.6 2.3 5.7 1.4 7.5-.3zM80.7 55c-2.6-2.4-4.3-.8-4.3 1.9-.1 7.2 4.2 6.5 4.6 6.4-.1-.1-1-.6-1.3-1.7-.2-.1-1.5-.7-2.1-1.5l-.2-.5.3.4c.3.3.8.9 1.9 1.2-.1-.3-.1-.5-.1-.8-.3-.1-1.5-.5-2-1.4l-.1-.2c0-.1-.3-.6-.3-.6l.5.7c.3.4.9 1 1.9 1.2v-1c-.3 0-1.5-.2-2.1-1.5l-.1-.2-.2-.4.4.4c.3.4 1 1.3 2 1.2 0-.3-.1-.7-.2-1-.1 0-1.1-.1-1.9-1.4 0 0-.1-.1-.1-.3 0-.1-.1-.3-.1-.3l.3.5c.3.4 1 1.3 1.7 1.2-.5-1.6-1.5-2.6-1.5-2.7l-.3-.3s.3.1.4.2c0 0 .5.5 1 1.3.2-.6-.1-1.3-.1-1.3l-.2-.2.3.2c.4.5.2 1.6.2 1.7.4.6.6 1.3.7 1.9 1.3-1.3.9-2.5.9-2.5l-.1-.3.3.3c.5 1.3-.8 2.7-1 2.9v.7c1.4-.7 1.8-2.6 1.8-2.7v-.3s.1.3 0 .8c-.4 1.7-1.8 2.5-1.9 2.6 0 .4 0 .7.1 1.1.3-.2 1.6-1.1 2.2-2.3v-.1h.1-.1l.1-.3-.1.5c-.2.4-1 1.9-2.2 2.5.1.4.2.7.4 1 .1 0 .2-.1.3-.1 1.1-.5 1.5-1.6 1.7-2.3l.1-.6v.6c-.4 1.9-1.4 2.5-1.8 2.7h-.1c.3.3.7.7.8.7l.2-.1c2.3-3.8 1.3-6.1-.7-7.9z"/><path class="st12" d="M83.3 62.7c-1.6-1.5-2.7-.5-2.7 1.2 0 4.6 2.7 4.1 2.9 4-.1 0-.6-.3-.8-1.1-.1-.1-1-.4-1.3-.9l-.1-.3.2.2c.2.2.5.6 1.2.8 0-.2-.1-.3-.1-.5-.2-.1-.9-.3-1.3-.9l-.1-.1-.2-.4.3.5c.2.3.5.6 1.2.7v-.6c-.2 0-.9-.2-1.4-.9l-.1-.1V64l.2.3c.2.2.6.8 1.3.8 0-.2-.1-.4-.1-.6 0 0-.7 0-1.2-.9 0 0 0-.1-.1-.2v-.2l.2.3c.2.2.6.8 1.1.8-.3-1-.9-1.7-1-1.7l-.2-.2.2.1s.3.3.6.8c.1-.4-.1-.8-.1-.8l-.1-.1.2.1c.2.3.1 1 .1 1.1.2.4.4.8.5 1.2.8-.8.6-1.6.6-1.6l-.1-.2.2.2c.3.8-.5 1.7-.6 1.8v.5c.9-.4 1.2-1.7 1.2-1.7v-.2s.1.2 0 .5c-.3 1.1-1.1 1.6-1.2 1.6v.7c.2-.1 1-.7 1.4-1.4v-.1l.1-.2v.3c-.1.3-.6 1.2-1.4 1.6.1.2.1.4.3.6.1 0 .1 0 .2-.1.7-.3 1-1 1.1-1.4l.1-.3v.4c-.3 1.2-.9 1.6-1.2 1.7h-.1c.2.2.5.4.5.4l.1-.1c1.4-2.5.7-3.9-.5-5.1z"/><path class="st12" d="M91 68.9c2.3-2.3.8-4-1.6-4.1-6.7-.3-6.2 3.7-6.1 4.1.1-.1.5-.9 1.6-1.2.1-.2.7-1.4 1.5-1.9l.4-.2-.4.4c-.3.2-.9.7-1.2 1.7.2 0 .5-.1.7-.1.1-.3.5-1.3 1.4-1.8l.2-.1c.1 0 .5-.2.5-.2l-.7.4c-.4.3-.9.8-1.1 1.7h.9c0-.3.3-1.3 1.4-2l.2-.1.2-.1-.4.3c-.4.2-1.2.9-1.2 1.8.3 0 .6-.1.9-.2 0-.1.1-1 1.4-1.7 0 0 .1-.1.3-.1h.3l-.2.4c-.4.3-1.2.9-1.2 1.5 1.5-.4 2.5-1.3 2.5-1.3l.2-.2s-.1.3-.2.3c0 0-.5.5-1.2.9.6.2 1.2 0 1.2 0l.2-.2-.2.3c-.5.3-1.4.1-1.6.1-.6.3-1.2.5-1.8.6 1.1 1.3 2.3.9 2.3.9l.3-.1-.3.2c-1.2.5-2.4-.8-2.6-1h-.7c.6 1.3 2.4 1.8 2.4 1.8h.3s-.3.1-.7 0c-1.6-.4-2.3-1.8-2.3-1.8h-1c.2.3 1 1.5 2 2.1h.1v.1-.1l.3.1-.5-.1c-.4-.2-1.7-1-2.3-2.1-.3.1-.7.2-.9.4 0 .1.1.2.1.3.4 1 1.5 1.5 2.1 1.7l.5.1h-.5c-1.7-.5-2.3-1.4-2.4-1.8v-.1c-.3.2-.6.7-.7.7l.1.2c3.5 2.2 5.8 1.3 7.5-.5z"/><path class="st12" d="M91.1 74.3c2.8-1.5 1.8-3.1-.5-3.7-6.4-1.6-6.9 1.9-6.9 2.2.1-.1.8-.6 1.9-.7.1-.1 1-1 1.9-1.3l.5-.1-.5.3c-.4.1-1 .4-1.6 1.2.2 0 .5 0 .7.1.2-.2.9-1 1.8-1.2l.2-.1c.1 0 .6-.1.6-.1l-.8.2c-.5.1-1.1.5-1.5 1.2.3.1.6.1.9.2.1-.2.6-1.1 1.9-1.3h.2l.3-.1-.5.2c-.4.1-1.4.5-1.6 1.3.3 0 .6.1.9 0 0-.1.4-.8 1.8-1.2h.6l-.5.1c-.4.1-1.4.5-1.6 1.1 1.6-.1 2.8-.6 2.8-.6l.3-.2s-.2.2-.3.2c0 0-.6.3-1.4.5.5.3 1.2.2 1.2.2l.2-.1-.1.3c-.6.2-1.4-.2-1.6-.2-.7.2-1.3.2-1.9.2.8 1.3 1.9 1.2 2 1.2h.3l-.3.1c-1.3.1-2.1-1.2-2.3-1.4H88c-.1 0-.3-.1-.5-.1.2 1.2 1.8 2 1.9 2l.3.1s-.3 0-.7-.1c-1.4-.7-1.8-1.9-1.8-2-.3-.1-.7-.2-1-.2.1.3.6 1.5 1.4 2.1l.1.1.3.2-.4-.2c-.3-.2-1.4-1.1-1.6-2.2-.3 0-.7 0-1 .1v.3c.1.9 1 1.5 1.6 1.8l.5.2-.5-.1c-1.6-.7-1.8-1.6-1.9-2v-.1c-.4.1-.8.4-.8.5v.2c2.7 2.4 5.1 2 7.2.9zM71.4 62c-4.2-.1-4.2 2.5-1.8 4.7 6.5 5.9 9.3 2.2 9.6 1.8-.2 0-1.3.3-2.6-.4-.2.1-1.9.5-3 .3l-.6-.2.6.1c.5.1 1.5.1 2.6-.4-.3-.2-.5-.3-.8-.6-.3.1-1.6.6-2.9.3 0 0-.2 0-.3-.1-.1 0-.7-.3-.7-.3l1.1.2c.6.1 1.6.2 2.6-.5-.3-.3-.6-.5-.9-.8-.3.2-1.4.9-3.1.4l-.3-.1-.3-.1.7.1c.6.1 2 .4 2.7-.5-.3-.2-.7-.5-1.1-.7 0 .1-.9.8-2.8.2 0 0-.2 0-.4-.2-.1-.1-.3-.2-.3-.2l.7.2c.6.1 2 .3 2.5-.2-1.9-.9-3.6-1.1-3.6-1.1h-.5s.3-.1.5-.1c0 0 .9 0 2 .3-.4-.7-1.3-1-1.3-1l-.7.1.4-.1c.8.2 1.6 1.1 1.7 1.3.9.3 1.7.6 2.3 1-.1-2-1.5-2.7-1.5-2.7l-.4-.2h.5c1.6.6 1.8 2.7 1.8 3l.1.1.1.1c.2.1.3.3.5.4.5-1.5-.9-3.5-.9-3.5l-.3-.2s.4.2.7.6c1.2 1.7.8 3.4.8 3.5.3.3.7.6 1.1.8.1-.4.3-2.1-.3-3.4l-.1-.1h.1-.1l-.2-.4.4.5c.2.5.9 2.2.5 3.6.4.2.8.4 1.3.5.1-.1.1-.2.2-.3.5-1.2-.2-2.4-.7-3.1l-.4-.5.5.5c1.4 1.8 1.1 3 .9 3.5 0 .1 0 .1-.1.1.5.1 1.2 0 1.3 0l.1-.2c-1.7-4.8-4.7-5.9-7.9-6zM84.2 77.4c2.1.2 2.2-1 1.1-2.2-2.9-3.2-4.5-1.5-4.6-1.4.1 0 .7-.1 1.3.3.1 0 .9-.2 1.5 0l.3.1-.3-.1c-.2-.1-.7-.1-1.3.1.1.1.2.2.4.3.2 0 .8-.2 1.5 0 0 0 .1 0 .2.1l.3.2-.5-.2c-.3-.1-.8-.2-1.3.1l.4.4c.1-.1.7-.4 1.5 0l.1.1.2.1-.3-.1c-.3-.1-.9-.3-1.4.1.2.1.3.3.5.4 0 0 .5-.3 1.4 0 0 0 .1 0 .2.1l.1.1-.3-.1c-.3-.1-1-.2-1.2 0 .9.5 1.7.7 1.7.7h0s-.4-.1-1-.2c.2.4.6.6.6.6h.2-.2c-.4-.1-.7-.6-.8-.7-.4-.2-.8-.4-1.1-.6-.1 1 .6 1.4.6 1.4l.2.1H84c-.7-.4-.7-1.4-.7-1.6l-.1-.1-.2-.2c-.3.7.3 1.8.3 1.8l.1.1s-.2-.1-.3-.3c-.5-.9-.2-1.7-.2-1.7-.1-.2-.3-.3-.5-.5-.1.2-.2 1 0 1.7v.1l.1.2-.2-.2c-.3-.4-.5-1.3-.3-2l-.6-.3c0 .1-.1.1-.1.2-.3.6 0 1.2.2 1.6l.2.3-.2-.3c-.6-1-.4-1.6-.3-1.8V74c-.2-.1-.6-.1-.6-.1l-.1.1c.7 2.5 2.1 3.2 3.7 3.4z"/><path class="st13" d="M80.8 65.7v-.8c-3 7.5-3.5 13.7-3.6 13.9h.6c0-.1.5-5.7 3.1-12.7 0-.2-.1-.3-.1-.4zM90.7 50.2c-.1 0 .1-.9.1-.9s-.1.3-.2.3C86.7 53.5 84 58 82 62.2c.2 0 .4.1.5.3 1.9-4.1 4.7-8.5 8.5-12.3.9-1-.1 0-.3 0z"/><g><path class="st14" d="M85.9 70.7c-.1 2-1.8 3.5-3.8 3.4-2-.1-3.5-1.8-3.4-3.8.1-2 1.8-3.5 3.8-3.4 2 0 3.5 1.7 3.4 3.8z"/><ellipse transform="rotate(21 83.138 68.704)" class="st15" cx="83.1" cy="68.7" rx="2.3" ry="1.5"/><path class="st14" d="M84.5 68.8c-.2.4-.8.6-1.5.4-.6-.2-1-.8-.8-1.3.2-.5.8-.6 1.5-.4.6.3 1 .8.8 1.3z"/></g><g><path class="st15" d="M80.4 72.3c1.5 1 2 3 1 4.5s-3 2-4.5 1-2-3-1-4.5 3-2 4.5-1z"/><path class="st14" d="M79.3 72.3c.5.6.2 1.6-.6 2.4-.9.7-1.9.8-2.4.3-.5-.6-.2-1.6.6-2.4.8-.7 1.9-.9 2.4-.3z"/><path class="st15" d="M78.4 72.6c.3.3.1.9-.3 1.3-.5.4-1.1.5-1.3.1-.3-.3-.1-.9.3-1.3s1-.4 1.3-.1z"/></g><g><path class="st14" d="M76.2 68.2c1.1.7 1.5 2.2.8 3.3-.7 1.1-2.2 1.5-3.3.8-1.1-.7-1.4-2.2-.8-3.3.7-1.2 2.2-1.5 3.3-.8z"/><path class="st15" d="M75.3 68.2c.4.4.2 1.2-.5 1.7-.6.5-1.4.6-1.8.2-.4-.4-.2-1.2.5-1.7.7-.6 1.4-.7 1.8-.2z"/><ellipse transform="rotate(-41 74.05 68.888)" class="st14" cx="74.1" cy="68.9" rx=".8" ry=".6"/></g><g><path class="st15" d="M78.9 61.9c1.1.7 1.5 2.2.8 3.3-.7 1.1-2.2 1.5-3.3.8-1.1-.7-1.5-2.2-.8-3.3.7-1.1 2.2-1.5 3.3-.8z"/><path class="st14" d="M78 61.9c.4.4.2 1.2-.5 1.7-.6.5-1.4.6-1.8.2-.4-.4-.2-1.2.5-1.7s1.5-.6 1.8-.2z"/><path class="st15" d="M77.4 62.1c.2.2.1.7-.2 1-.3.3-.8.3-1 .1-.2-.2-.1-.7.2-1 .4-.3.8-.3 1-.1z"/></g><g><path class="st14" d="M81.1 52.6c1.3-.3 2.5.5 2.8 1.8.3 1.3-.5 2.5-1.8 2.8-1.3.3-2.6-.5-2.8-1.8-.3-1.2.5-2.5 1.8-2.8z"/><path class="st15" d="M80.4 53.2c.5 0 .9.7.9 1.5-.1.8-.6 1.4-1.1 1.4-.5 0-.9-.7-.9-1.5.1-.8.6-1.4 1.1-1.4z"/><path class="st14" d="M80.1 53.8c.3 0 .5.4.5.8s-.3.8-.6.8-.5-.4-.5-.9c0-.4.3-.7.6-.7z"/></g><g><path class="st15" d="M88 65.4c-.9 1.4-2.7 1.8-4.1.9-1.4-.9-1.8-2.7-.9-4.1.9-1.4 2.7-1.8 4.1-.9 1.4.8 1.8 2.7.9 4.1z"/><ellipse transform="rotate(50 86.845 62.886)" class="st14" cx="86.8" cy="62.9" rx="1.8" ry="1.2"/><path class="st15" d="M87.8 63.5c-.3.3-.8.1-1.2-.3-.4-.4-.4-1-.1-1.2.3-.3.8-.1 1.2.3.3.4.4.9.1 1.2z"/></g></g><g id="brusnika"><path class="st16" d="M118.4 67.2c.1.4-.2.8-.7 1-.5.2-1 0-1.2-.3-.1-.4.2-.8.7-1 .6-.3 1.1-.1 1.2.3"/><path class="st12" d="M143.9 49.6c-.4-3.6-2.8-3.5-4.6-1.5-5 5.5-1.1 7.9-.8 8.1 0-.1-.4-1.1.1-2.2-.1-.2-.7-1.6-.6-2.6l.1-.5v.5c0 .4 0 1.3.6 2.2.1-.2.3-.5.5-.7-.2-.3-.8-1.4-.6-2.5v-.3c0-.1.2-.6.2-.6l-.1.9c-.1.5 0 1.3.7 2.2.2-.2.5-.5.7-.8-.2-.2-1-1.2-.7-2.6l.1-.3.1-.3v.6c-.1.5-.1 1.6.7 2.3.2-.3.4-.6.5-.9-.1 0-.8-.8-.5-2.3 0 0 0-.1.1-.3 0-.1.2-.3.2-.3l-.1.6c0 .5-.1 1.7.5 2.1.7-1.6.6-3.1.6-3.1v-.4s.1.3.2.4c0 0 .1.7-.1 1.7.6-.4.8-1.1.8-1.1v-.3l.1.3c-.1.6-.9 1.3-1 1.4-.2.7-.4 1.4-.8 2 1.9-.1 2.4-1.3 2.4-1.3l.1-.3v.4c-.5 1.3-2.4 1.5-2.7 1.5l-.1.1-.1.1c-.1.1-.2.3-.4.4 1.5.4 3.2-.8 3.2-.8l.2-.2s-.1.3-.5.6c-1.5 1-3.1.7-3.2.7-.2.3-.5.6-.7.9.4.1 2 .2 3.2-.3h.1v.1-.1l.3-.2-.4.4c-.5.2-2 .8-3.4.4-.2.3-.3.7-.4 1.1.1.1.2.1.3.1 1.2.4 2.3-.2 2.9-.6l.5-.3-.4.4c-1.6 1.2-2.8.9-3.2.8h-.1c0 .4.1 1 .1 1.1l.2.1c4.7-1.5 5.5-4.1 5.2-6.8zM150.2 57.9c2.7-1.2 2-3.1-.1-3.9-5.5-2.4-6.3 1.2-6.4 1.5.1-.1.7-.6 1.7-.5.1-.1 1-1 1.8-1.1h.4l-.4.1c-.3.1-1 .3-1.5 1 .2 0 .4.1.6.2.2-.2.9-1 1.8-1.1h.7l-.7.2c-.4.1-1 .3-1.5 1.1.2.1.5.2.8.3.1-.2.7-1 1.8-1.2h.4l-.4.1c-.4.1-1.3.3-1.6 1.2.3.1.6.1.8.2 0-.1.4-.8 1.7-1h.3c.1 0 .2.1.2.1h-.5c-.4.1-1.3.4-1.5.9 1.4.1 2.5-.3 2.5-.3l.3-.1-.2.2s-.5.2-1.3.4c.4.4 1 .4 1 .4l.2-.1-.2.2c-.5.1-1.3-.3-1.4-.4-.6.1-1.2.1-1.7-.1.6 1.4 1.6 1.5 1.6 1.5h.3l-.3.1c-1.1 0-1.8-1.5-1.9-1.7h-.2c-.1 0-.3-.1-.4-.2.1 1.3 1.4 2.3 1.4 2.3l.2.1s-.3 0-.6-.2c-1.2-.9-1.4-2.2-1.4-2.3l-.9-.3c.1.3.4 1.6 1 2.4l.1.1.2.2-.4-.2c-.3-.3-1.1-1.3-1.2-2.5h-.9v.3c0 1 .8 1.7 1.2 2l.4.3-.4-.2c-1.3-.9-1.5-1.9-1.5-2.3v-.1c-.3.1-.8.4-.8.4v.2c2.7 2.7 4.9 2.7 6.9 1.8z"/><path class="st12" d="M143 58.8c1.6-.1 1.6-1.2.7-2-2.4-2.2-3.4-.6-3.5-.4.1 0 .5-.2 1 .1.1 0 .7-.3 1.1-.2l.2.1h-.2c-.2 0-.5 0-1 .2.1.1.2.1.3.2.1-.1.6-.3 1.1-.2h.1l.3.1-.4-.1c-.2 0-.6 0-1 .3l.3.3c.1-.1.5-.4 1.1-.3h.2-.2c-.2 0-.7-.1-1 .3.1.1.3.2.4.2 0 0 .4-.3 1-.2 0 0 .1 0 .1.1l.1.1-.3-.1c-.2 0-.7 0-.9.2.7.3 1.3.3 1.3.3h.2s-.1.1-.2.1c0 0-.3 0-.7-.1.2.3.5.4.5.4h.1-.1c-.3 0-.6-.4-.6-.5-.3-.1-.6-.2-.9-.4 0 .8.5 1.1.5 1.1l.1.1h-.2c-.6-.2-.6-1.1-.6-1.2h-.1c-.1 0-.1-.1-.2-.2-.2.7.3 1.4.3 1.4l.1.1s-.1-.1-.3-.2c-.4-.7-.3-1.4-.3-1.4-.1-.1-.2-.2-.4-.3 0 .2-.1.9.1 1.4l.1.1-.2-.2c-.1-.2-.3-.9-.1-1.5-.1-.1-.3-.1-.5-.2 0 .1 0 .1-.1.1-.2.5.1 1 .2 1.3l.1.2-.2-.2c-.5-.7-.4-1.2-.3-1.4v-.1c-.2 0-.4 0-.5.1v.1c1.1 2.1 2.2 2.5 3.4 2.4zM139.3 62.5c3-.2 3-2.3 1.4-3.8-4.5-4.3-6.6-1.1-6.7-.8.1 0 .9-.3 1.9.2.2-.1 1.3-.6 2.2-.4l.4.1h-.4c-.4 0-1.1 0-1.8.5.2.1.4.2.5.4.2-.1 1.2-.6 2.1-.4h.2c.1 0 .5.2.5.2l-.8-.1c-.4-.1-1.1 0-1.8.5l.6.6c.2-.2 1-.8 2.2-.5l.2.1.2.1h-.5c-.4-.1-1.4-.2-1.9.6.2.2.5.3.8.5 0-.1.7-.7 2-.4 0 0 .1 0 .3.1.1 0 .2.1.2.1l-.5-.1c-.4 0-1.4-.1-1.8.4 1.3.6 2.6.6 2.6.6h.3s-.2.1-.3.1c0 0-.6 0-1.4-.1.3.5.9.7.9.7h.2l-.3.1c-.5-.1-1.1-.8-1.2-.9-.6-.1-1.2-.4-1.6-.7 0 1.6 1 2 1 2l.3.1h-.3c-1.1-.4-1.2-2.1-1.2-2.3l-.1-.1-.1-.1-.3-.3c-.4 1.3.6 2.7.6 2.7l.2.2s-.3-.1-.5-.4c-.8-1.2-.5-2.6-.5-2.7-.2-.2-.5-.4-.7-.6-.1.3-.2 1.7.2 2.7v.1h-.1.1l.1.3-.3-.3c-.2-.4-.6-1.7-.3-2.9-.3-.2-.6-.3-.9-.3 0 .1-.1.2-.1.3-.4 1 .1 1.9.4 2.4l.3.4-.4-.4c-.9-1.4-.7-2.4-.6-2.7v-.1c-.4 0-.9.1-.9.1l-.1.2c1.1 3.4 3.2 4.1 5.5 4zM133.6 52.9c-.4-3.3-2.6-3.2-4.3-1.3-4.5 5.1-1 7.3-.6 7.5-.1-.1-.4-1 .1-2.1-.1-.2-.7-1.4-.6-2.4l.1-.5v.5c0 .4 0 1.2.6 2 .1-.2.3-.4.4-.6-.1-.2-.7-1.3-.5-2.3v-.2c0-.1.2-.6.2-.6l-.1.8c-.1.5 0 1.2.7 2 .2-.2.4-.4.6-.7-.2-.2-.9-1.1-.6-2.4l.1-.2.1-.3v.5c-.1.4-.1 1.5.7 2.1.2-.3.3-.6.5-.8-.1 0-.8-.7-.5-2.2 0 0 0-.1.1-.3 0-.1.1-.2.1-.2l-.1.5c0 .5 0 1.5.5 1.9.6-1.5.6-2.8.6-2.8v-.4s.1.3.2.3c0 0 .1.7-.1 1.5.6-.3.8-1 .8-1v-.3l.1.3c-.1.6-.8 1.2-.9 1.3-.1.7-.4 1.3-.7 1.8 1.7-.1 2.2-1.2 2.2-1.2l.1-.3v.4c-.4 1.2-2.2 1.4-2.5 1.4l-.1.1-.1.1c-.1.1-.2.3-.3.4 1.4.4 3-.7 3-.8l.2-.2s-.1.3-.5.6c-1.3 1-2.9.7-3 .7-.2.3-.5.5-.6.8.4 0 1.9.2 2.9-.3h.1v.1-.1l.3-.2-.4.3c-.4.2-1.9.8-3.1.4-.2.3-.3.6-.3 1 .1 0 .2.1.3.1 1.1.4 2.1-.2 2.6-.6l.4-.3-.4.4c-1.5 1.1-2.6.9-3 .8h-.1c0 .4.1.9.1 1l.2.1c4.1-1.3 4.8-3.6 4.5-6.1z"/><path class="st12" d="M130.6 60c-.2-2.1-1.7-2-2.7-.8-2.9 3.2-.6 4.6-.4 4.7 0-.1-.2-.6.1-1.3-.1-.1-.4-.9-.4-1.5l.1-.3v.3c0 .2 0 .7.4 1.3.1-.1.2-.3.3-.4-.1-.2-.5-.8-.3-1.4v-.2l.1-.4-.1.5c0 .3 0 .8.4 1.3l.4-.4c-.1-.1-.6-.7-.4-1.5V59.6v.3c0 .3-.1 1 .4 1.3.1-.2.2-.3.3-.5 0 0-.5-.5-.3-1.4 0 0 0-.1.1-.2l.1-.2-.1.3c0 .3 0 1 .3 1.2.4-.9.4-1.8.4-1.8v-.2l.1.2v1c.3-.2.5-.6.5-.6v-.2l.1.2c0 .4-.5.8-.6.8-.1.4-.2.8-.4 1.1 1.1-.1 1.4-.8 1.4-.8l.1-.2v.2c-.3.8-1.4.9-1.6.9l-.1.1c-.1.1-.1.2-.2.2.9.2 1.9-.5 1.9-.5l.1-.1s-.1.2-.3.4c-.8.6-1.8.4-1.9.4-.1.2-.3.3-.4.5.2 0 1.2.1 1.9-.2h.1v.2l-.2.2c-.3.1-1.2.5-2 .3-.1.2-.2.4-.2.6.1 0 .1.1.2.1.7.2 1.3-.1 1.7-.4l.3-.2-.2.3c-.9.7-1.6.6-1.9.5h-.1c0 .3.1.6.1.6h.1c2.6-.9 3-2.4 2.8-4z"/><path class="st12" d="M132.3 69.3c3.1-.2 3.1-2.3 1.4-3.9-4.6-4.4-6.7-1.1-6.9-.8.1 0 1-.3 1.9.2.2-.1 1.4-.6 2.2-.5l.4.1h-.4c-.4 0-1.1 0-1.9.5.2.1.4.2.6.4.2-.1 1.2-.6 2.1-.4h.2c.1 0 .5.2.5.2l-.8-.1c-.5-.1-1.1 0-1.9.6l.6.6c.2-.2 1-.8 2.2-.5l.2.1.2.1h-.5c-.4-.1-1.4-.2-2 .6.2.2.5.3.8.5 0-.1.7-.7 2-.4 0 0 .1 0 .3.1.1 0 .2.1.2.1l-.5-.1c-.4 0-1.4-.1-1.8.4 1.4.6 2.6.6 2.6.6h.3s-.2.1-.3.1c0 0-.6 0-1.4-.1.3.5.9.7.9.7h.2l-.3.1c-.6-.1-1.1-.8-1.2-.9-.6-.1-1.2-.4-1.7-.7 0 1.6 1.1 2.1 1.1 2.1l.3.1h-.3c-1.1-.4-1.2-2.1-1.3-2.4l-.1-.1-.1-.1-.3-.3c-.4 1.3.6 2.8.6 2.8l.2.2s-.3-.1-.5-.4c-.8-1.3-.6-2.7-.5-2.8-.2-.2-.5-.5-.8-.6-.1.3-.2 1.7.2 2.7v.1h-.1.1l.2.3-.3-.3c-.2-.4-.6-1.8-.3-2.9-.3-.2-.6-.3-.9-.3 0 .1-.1.2-.1.3-.4 1 .1 2 .5 2.5l.3.4-.4-.4c-1-1.4-.8-2.4-.6-2.8v-.1c-.4 0-.9.1-.9.1l-.1.2c1.4 3.5 3.6 4.2 5.9 4.1z"/><path class="st12" d="M129.1 73.2c2.9.7 3.3-1.1 2-3-3.6-5.1-6.1-2.9-6.4-2.7.1 0 .9 0 1.8.7.2 0 1.4-.1 2.2.3l.4.2-.4-.1c-.3-.1-1-.3-1.9-.1l.5.5c.2 0 1.2-.2 2.1.2l.2.1.5.3-.7-.3c-.4-.2-1.1-.4-1.9-.1.1.2.3.5.5.7.2-.1 1.1-.4 2.2.2l.2.1.2.1-.5-.1c-.4-.2-1.3-.5-2-.1l.6.6s.8-.4 2 .3l.2.2.2.2-.4-.3c-.4-.2-1.3-.5-1.8-.2 1.2.9 2.4 1.3 2.4 1.3l.3.1h-.3s-.6-.1-1.3-.5c.2.5.7.9.7.9l.2.1h-.3c-.5-.2-.9-1-1-1.1-.6-.3-1.1-.7-1.5-1.1-.2 1.4.6 2.1.6 2.1l.3.2-.3-.1c-1-.7-.8-2.2-.8-2.4l-.1-.1-.1-.1c-.1-.1-.2-.2-.3-.4-.6 1 .1 2.5.1 2.6l.1.2s-.3-.2-.4-.5c-.6-1.3-.1-2.5 0-2.5-.2-.2-.4-.5-.6-.8-.1.3-.5 1.4-.3 2.4v.1h-.1.1l.1.3-.2-.4c-.1-.4-.3-1.7.2-2.6-.2-.2-.5-.4-.8-.5l-.2.2c-.5.7-.2 1.7 0 2.2l.2.4-.3-.4c-.7-1.5-.3-2.3-.1-2.6 0 0 0-.1.1-.1-.3-.1-.8-.2-.9-.2l-.1.2c.6 3.6 2.5 4.9 4.8 5.4zM122.5 52.2c-3-2.7-4.5-.8-4.2 2.2 1 8.3 5.3 7.3 5.7 7.2-.1-.1-1.1-.6-1.6-1.9-.2-.1-1.7-.8-2.4-1.7l-.3-.5.4.4c.3.4 1 1 2.1 1.3-.1-.3-.2-.6-.2-.9-.3-.1-1.6-.6-2.3-1.6 0 0-.1-.2-.2-.2 0-.1-.3-.7-.3-.7l.6.8c.4.5 1 1.1 2.1 1.3 0-.4-.1-.7-.1-1.1-.3 0-1.5-.2-2.4-1.6l-.2-.3-.2-.3.4.5c.3.4 1.2 1.5 2.2 1.3-.1-.4-.2-.8-.4-1.1-.1 0-1.2 0-2.1-1.6 0 0-.1-.1-.2-.3 0-.1-.1-.3-.1-.3l.4.6c.4.4 1.2 1.4 1.9 1.4-.8-1.8-1.9-3-2-3l-.3-.3s.3.1.4.2c0 0 .6.5 1.2 1.4.1-.7-.3-1.5-.3-1.5l-.2-.3.3.2c.4.6.4 1.8.4 2 .5.7.8 1.5 1 2.2 1.2-1.5.6-2.8.6-2.9l-.2-.4.3.3c.7 1.4-.4 3-.6 3.3V56.6c0 .2.1.4.1.6 1.3-.8 1.5-3 1.5-3.1v-.3s.2.4.1.9c-.2 1.9-1.5 2.9-1.6 3 .1.4.1.9.2 1.3.3-.3 1.5-1.3 1.9-2.6v-.1h.1-.1l.1-.4v.6c-.1.5-.7 2.2-1.9 2.9.2.4.3.8.6 1.1.1 0 .2-.1.3-.1 1.1-.5 1.3-1.9 1.4-2.6l.1-.6.1.7c-.2 2.2-1.1 2.9-1.5 3.1 0 0-.1 0-.1.1.3.4.9.8.9.8l.2-.1c2.1-4.9.7-7.6-1.6-9.6zM122.2 71.1c1.4 1.5 2.2.6 2.2-.9-.1-4.1-2.3-3.9-2.5-3.8.1 0 .5.4.7 1 .1.1.8.5 1.1.9l.1.3-.2-.2c-.1-.2-.4-.6-1-.8 0 .1.1.3.1.4.1.1.7.4 1 .9l.1.1.1.3-.3-.4c-.2-.3-.5-.6-1-.7v.6c.1 0 .7.2 1.1.9l.1.1.1.2-.2-.2c-.1-.2-.5-.8-1-.8 0 .2.1.4.1.6 0 0 .6.1 1 .9 0 0 0 .1.1.2v.2l-.1-.3c-.2-.2-.5-.8-.9-.8.3.9.8 1.6.8 1.6l.1.2s-.1-.1-.2-.1c0 0-.3-.3-.5-.8-.1.4.1.8.1.8l.1.1-.1-.1c-.2-.3-.1-.9-.1-1-.2-.4-.3-.8-.4-1.1-.7.7-.4 1.4-.4 1.4l.1.2-.1-.2c-.3-.7.4-1.5.5-1.6V69v-.3c-.7.3-.9 1.4-.9 1.4v.2s-.1-.2 0-.4c.2-.9.9-1.4.9-1.4 0-.2 0-.4-.1-.6-.2.1-.8.6-1.1 1.2v.1l-.1.2v-.3c.1-.2.5-1 1.1-1.3-.1-.2-.1-.4-.2-.6-.1 0-.1 0-.2.1-.5.2-.8.9-.8 1.2l-.1.3v-.3c.2-1.1.7-1.4.9-1.4h.1c-.1-.2-.4-.4-.4-.4h-.1c-1.2 1.9-.7 3.3.4 4.4z"/><path class="st13" d="M127 60.6c.2-.2.3-.4.5-.6-6.8 3.5-11.1 7.7-11.1 7.7l.4.4c.1-.1 3.9-3.8 10.1-7.2 0-.1 0-.2.1-.3zM143.8 55.6c-.1-.1.6-.6.6-.6l-.3.1c-5.2.4-10 1.8-14 3.6.1.1.2.3.2.5 4-1.8 8.6-3.2 13.8-3.6 1.1.1-.2.2-.3 0z"/><path class="st17" d="M130.7 67c-1.4 1.4-3.7 1.5-5.1.1-1.4-1.4-1.5-3.7-.1-5.1 1.4-1.4 3.7-1.5 5.1-.1 1.5 1.4 1.5 3.6.1 5.1"/><path class="st16" d="M130.9 64.7c-.4.2-1-.1-1.3-.7-.3-.6-.3-1.3.2-1.5.4-.2 1 .1 1.3.7.3.6.2 1.3-.2 1.5"/><path class="st17" d="M125.6 64.7c.5 1.7-.4 3.5-2.1 4.1-1.7.5-3.5-.4-4.1-2.1-.5-1.7.4-3.5 2.1-4.1 1.8-.6 3.6.4 4.1 2.1"/><path class="st16" d="M123.9 63.6c0 .4-.5.8-1.1.8-.6 0-1.1-.3-1.1-.8 0-.4.5-.8 1.1-.8.6 0 1.1.3 1.1.8"/><path class="st17" d="M125.1 58.7c.4 1.2-.3 2.6-1.5 3-1.2.4-2.6-.3-3-1.5-.4-1.2.3-2.6 1.5-3 1.3-.4 2.6.3 3 1.5M131.2 55.8c.4 1.2-.3 2.6-1.5 3-1.2.4-2.6-.3-3-1.5-.4-1.2.3-2.6 1.5-3 1.3-.4 2.6.2 3 1.5"/><path class="st16" d="M129.9 55c0 .3-.4.6-.8.6s-.8-.2-.8-.6c0-.3.4-.6.8-.6.5 0 .8.3.8.6"/><path class="st17" d="M138.9 50.2c1.2.6 1.6 2 1 3.2-.6 1.2-2 1.6-3.2 1-1.2-.6-1.6-2-1-3.2.7-1.2 2.1-1.6 3.2-1"/><path class="st16" d="M137.5 50.5c.2.2.1.7-.2 1-.3.3-.7.4-1 .2-.2-.2-.1-.7.2-1 .3-.3.8-.4 1-.2"/><path class="st17" d="M135.9 64.3c-1.6.5-3.2-.4-3.7-1.9-.5-1.6.4-3.2 1.9-3.7 1.6-.5 3.2.4 3.7 1.9.5 1.6-.3 3.3-1.9 3.7"/><path class="st16" d="M136.9 62.8c-.4 0-.7-.5-.7-1 0-.6.3-1 .7-1 .4 0 .7.5.7 1s-.3 1-.7 1"/></g><g id="vanil"><path class="st18" d="M208.4 69.4s-1.3.9-1.1 1.6c.3.8 1.4.1 1.7-.7.3-.8 3.3-3.3 3.8-3.7.5-.3 7.5-8.9 7.5-8.9s12.6-16.1 13.1-18.7c.5-2.6 2.4-5.4 2.4-5.4l-.7-.1s-2.9 5.3-5.9 9.4c-3.1 4.2-16.5 21.4-18.9 23.8-2.3 2.4-1.9 2.7-1.9 2.7z"/><path class="st18" d="M214 70.1s1 1-.6 1.4c-1.6.5-2.5-1.6-1.6-3.4.9-1.8 3.2-3.8 4-5.1.8-1.2 1-1.8 2.1-3.7 1.1-2 4.5-7 4.5-7l9.5-12.4s3-1.3 3.8-2.7c.9-1.4 1.9-3.3-.4-2.6-2.2.7 1.7-2.3 2.3-.1.6 2.2-3.1 5-5.2 6.7-2.1 1.7-6.9 9.5-6.9 9.5l-1.3 2.5s-5 6.1-5.4 7.2c-.4 1.2-4.1 6.8-6.1 8.3-1.7 1.5.8 1.8 1.3 1.4z"/><path class="st19" d="M221 50.9c-.4-.4-3.4-3-3.4-3s-1.6-6.5.2-7.8c0 0 3.1-.5 5.7 4.5l-.1 6.7-.6-.3s-1.3-7-3.9-9.3c0 0 4.5 8 3.4 9.6l-1.3-.4zM227.6 54.1s6.9-.7 9.3-3.6c0 0-4.7-4.8-10.3-2.6l-2 3.2s4.6-2 10.5-.8c0 0-7.4-1.1-10.8 2l3.3 1.8zM211.9 60.6s.1-5.6 4.1-7.9l5 .1.8.1s-4.6 1-7.9 5.1c0 0 4.9-4 8.1-4.9l.6 1.9s-.6 3.4-10.7 5.6z"/><path class="st19" d="M221 53.1s-8.8 0-11-2.8c0 0 4.7-6.6 12.5.5l-1 .7s-5.3-2-8.4-1.6c0 0 6.6.5 8.1 2.1l-.2 1.1zM222.3 49.4s-2.3-5.6 6.9-8.9c0 0 .2 0-.5 3.8s-4.4 8.6-4.4 8.6l-.8-1.2-.1-1s-.3-5 4.3-8c0 0-3.9 1.6-4.6 7.7l-.8-1z"/><path class="st19" d="M221.2 54.1s-2.8.7 1.5 5.2c4.3 4.6 3.8 4 3.8 4s.6 2.8 1.4-1.1c.7-3.9 1-8.9-2.7-10.1l-1.7 1.2s3.9 3.2 3.4 8.5c0 0-.5-6.7-3.7-7.8l-2 .1z"/><path d="M221.6 50.4s0 .8-.1 1.1c-.1.2-1.1 1-1.1 1s1.7.6 1.4 2c0 0 1-.9 2-.1 0 0-.5-1.3 1.3-2.1 0 0-2-1.7-1.4-2.2 0-.1-1.1.8-2.1.3z"/><circle cx="223" cy="55.6" r=".2"/><circle cx="223.7" cy="55.5" r=".2"/><circle cx="224.9" cy="53.7" r=".2"/><path class="st20" d="M213.1 49.9s4.5-3.1 8.5.5l-.1 1.1s-5.5-1.8-8.4-1.6zM223.7 49.6s.3-4.8 4.1-6.7c0 0 .6 5.3-3.1 8.6 0 0-1-.3-1-1.9zM225.5 51.9s4.2-2.8 11-1.1c0 0-6.7 3.4-9.2 2.8 0 0-.3-1-1.8-1.7z"/><path class="st7" d="M222.8 53.1s.6 1.1.2 2.5c0 0 .2-1.6-.4-2.3-.5-.7.2-.2.2-.2z"/><path class="st7" d="M223 53s.8.9.7 2.4c0 0-.1-1.6-.8-2.2-.7-.7.1-.2.1-.2zM223.1 52.5s1 .1 1.9 1.2c0 0-1-1.1-1.8-1-.8.1-.1-.2-.1-.2z"/></g><g id="shipovnik"><path d="M181.6 56.4l-2.5 5.3-1.3.8-3-.8-.8-.5.4 1.4 3.4.8.5.8.8-.4.1-1 .5-.2 2.5-5.9"/><path d="M181.7 56.9l-2.4 5.2-.6.4.9-.2zM180 61.4l.7.4h1.7l-1.6.4.2 2.3 2.9 3.2s.2.6-.3.3l-2.5-3.1h-.7l-.1-.4.3-.4-.2-1.6-.7-.4.3-.7z"/><path class="st21" d="M181.1 56.9c-1.9-2.2-1.9-5.3.1-6.9 2-1.6 5.2-1.1 7.1 1.1 1.9 2.2 1.9 5.3-.1 6.9-2 1.6-5.2 1.1-7.1-1.1z"/><ellipse transform="rotate(68 171.644 57.648)" class="st21" cx="171.6" cy="57.6" rx="5.8" ry="5.3"/><ellipse transform="rotate(107 176.42 69.437)" class="st21" cx="176.4" cy="69.4" rx="5.5" ry="5.3"/><ellipse transform="rotate(124 187.097 50.925)" cx="187.1" cy="50.9" rx="1.3" ry="1.7"/><ellipse transform="rotate(88 175.884 72.38)" cx="175.9" cy="72.4" rx="1.8" ry="1.9"/><ellipse transform="rotate(88 172.115 53.705)" cx="172.1" cy="53.7" rx="1.5" ry="1.7"/><path d="M187.6 52s2.7.3 4.5-2.5c0 0-2.1 3.2-5.8 1.5 0 0 .4-1.9 2.8-3s3.2-3.4 3.2-3.4-1.8 2.8-3.2 3.1c0 0-3.1.1-2.7 3.1"/><path d="M186.2 51s.7-4.3 4.4-5.8c0 0-3.1 1.9-3.4 5 0 0 1.5.5 2.6-1.3 1.1-1.7 3-2.1 3-2.1s-1.7 1.1-2 2.2c0 0-1.4 3.1-3.7 2.5M176.6 70.8c2.2 1.5 1.3 2.6 1.3 2.6-.7.7-.2 2.1-.2 2.1s-1.3-1.1-.7-2.6c.6-1.5-1.1-2-1.1-2-2.5 1.8-1.5 4.3-1.5 4.3-1.1-1.8 0-4 0-4s1.1-1.1 2.2-.4z"/><path d="M177.2 72.4s0 2-1 2.8c0 0 1.1-1.4.2-3.7 0 0-1-.4-1.1.9 0 1.3-1 1.6-1 1.6s.6-.8.4-1.6c0 0-.3-1.8 1.3-1.3.1 0 1-.3 1.2 1.3zM171.4 54.7s1.7-2.1-.2-4.8c0 0 1.5 2.3-.5 4.6 0 0-1.8-.1-1.5-1.7.3-1.6-1.2-2.4-1.2-2.4s.8 1.3.3 2.1c0 0-.8 2.1 1.9 2.3"/><path d="M170.5 54.6s-2.4.5-3.3-3.3c0 0 0 2.1 2.4 2.8 0 0 1.1-.8.2-1.7-.9-.9-.3-2.1-.3-2.1s.1 1.2.8 1.5c0 0 2 1.4.3 2.7M181.9 65.7l.7-.4-.5.6M180.1 59.4l-.8-.5.7.8M181.2 58.9l.9-.2-1-.1"/></g></svg>