<?xml version="1.0" encoding="utf-8"?>
<!-- Generator: Adobe Illustrator 19.0.0, SVG Export Plug-In . SVG Version: 6.00 Build 0)  -->
<svg version="1.1" id="Layer_1" xmlns="http://www.w3.org/2000/svg" xmlns:xlink="http://www.w3.org/1999/xlink" x="0px" y="0px"
	 viewBox="0 0 130 250" style="enable-background:new 0 0 130 250;" xml:space="preserve">
<style type="text/css">
	.st0{fill:#519E38;}
	.st1{fill:#F4F4F4;}
	.st2{fill:#D6D6D6;}
	.st3{fill:#EAEAEA;}
	.st4{fill:#FFFFFF;}
	.st5{fill:#62BA47;}
	.st6{fill:#483290;}
	.st7{fill:#712F8F;}
	.st8{fill:#62BA46;}
</style>
<g id="_x31_">
	<g id="kolba_3">
	</g>
	<g id="kolby">
	</g>
	<g id="doma">
	</g>
	<g id="car">
	</g>
	<g id="butylka_3">
	</g>
	<g>
		<path id="XMLID_71_" class="st0" d="M106.6,216.5c0,0,0-64.3,0-99.4S92.1,68.8,92.1,68.8c3.9-21.7-6.5-28.2-6.5-28.2v-7.9h2.2
			c0,0,0-8.3,0-11.2c0-2.8-3.9-2.5-3.9-2.5H69.6h-1.4H54.1c0,0-3.9-0.3-3.9,2.5c0,2.8,0,11.2,0,11.2h2.4v7.9h-0.2
			c0,0-10.4,6.6-6.5,28.2c0,0-14.5,13.4-14.5,48.3s0,99.4,0,99.4s-1.4,21.4,14.3,21.4c4.2,0,7.9,0,10.9,0c8,0,11.8,0,11.8,0h0.8h0.8
			l0,0h11.6l0,0c3,0,6.5,0,10.7,0l0,0C108,237.9,106.6,216.5,106.6,216.5z"/>
		<path id="XMLID_70_" class="st1" d="M98.9,211.5c0,0,0-64.3,0-99.4c0-35.1-14.5-48.3-14.5-48.3C88.4,42,78,35.6,78,35.6v-8h-33v8
			h-0.2c0,0-10.4,6.6-6.6,28.2c0,0-14.5,13.4-14.5,48.3c0,35.1,0,99.4,0,99.4s-1.4,21.4,14.3,21.4c4.2,0,7.9,0,10.9,0
			c8,0,11.8,0,11.8,0h1.6H74c3,0,6.6,0,10.9,0C100.5,232.9,98.9,211.5,98.9,211.5z"/>
		<path id="XMLID_69_" class="st2" d="M76.2,14H61.9h-1.3H46.3c0,0-3.9-0.3-3.9,2.5c0,2.8,0,11.2,0,11.2h18.1h1.4H80
			c0,0,0-8.3,0-11.2S76.2,14,76.2,14z"/>
		<path id="XMLID_68_" class="st3" d="M98.9,211.5c0,0,0-64.3,0-99.4c0-35.1-14.5-48.3-14.5-48.3c3.9-21.7-6.6-28.2-6.6-28.2v-8
			H61.3v205.3h0.8h11.8c3,0,6.6,0,10.9,0C100.3,232.9,98.9,211.5,98.9,211.5z"/>
		<path id="XMLID_67_" class="st4" d="M36,100.4c-0.2,0-0.3,0-0.5,0c-2.2-0.3-3.9-2.4-3.6-4.7c1.9-14.3,8.8-23.1,9.1-23.4
			c1.4-1.7,4.1-2,5.8-0.6c1.7,1.4,2,4.1,0.6,5.8c-0.2,0.2-5.8,7.4-7.4,19.4C39.7,99,38,100.4,36,100.4z"/>
	</g>
	<g>
		<g>
			<g>
				<path id="XMLID_66_" class="st5" d="M88.7,150.3c-0.6-1.4-1.7-1.1-2.2,0c-1.3,3.1,0.6,3.6,0.8,3.6c0,0-0.3-0.5-0.3-0.9
					c0,0-0.5-0.6-0.6-0.9v-0.3v0.2c0,0.2,0.2,0.5,0.6,0.8c0-0.2,0-0.3,0.2-0.3c-0.2-0.2-0.5-0.5-0.6-0.9v-0.2v-0.3l0.2,0.5
					c0,0.3,0.2,0.6,0.6,0.8l0,0c0-0.2,0.2-0.3,0.2-0.5c-0.2,0-0.6-0.3-0.6-1.1v-0.2v-0.2l0.2,0.3c0,0.2,0.2,0.8,0.6,0.9
					c0-0.2,0-0.3,0.2-0.5l0,0c0,0-0.5-0.2-0.6-0.9c0,0,0,0,0-0.2v-0.2v0.3c0,0.2,0.2,0.8,0.5,0.8c0-0.8-0.2-1.4-0.2-1.4v-0.2
					l0.2,0.2c0,0,0.2,0.3,0.2,0.8c0.2-0.3,0.2-0.6,0.2-0.6v-0.2l0.2,0.2c0,0.3-0.2,0.8-0.2,0.8c0,0.3,0,0.6,0,0.9
					C88.7,151,88.7,150.4,88.7,150.3L88.7,150.3L88.7,150.3c0,0.8-0.8,1.1-0.9,1.3l0,0l0,0c0,0,0,0.2-0.2,0.2c0.8,0,1.3-0.8,1.3-0.8
					v-0.2c0,0,0,0.2-0.2,0.3c-0.5,0.6-1.3,0.8-1.3,0.8c0,0.2-0.2,0.3-0.2,0.5c0.2,0,0.9-0.2,1.4-0.6l0,0l0,0l0,0l0.2-0.2l-0.2,0.2
					c-0.2,0.2-0.8,0.6-1.4,0.6c0,0.2,0,0.3,0,0.5h0.2c0.6,0,0.9-0.5,1.1-0.6l0.2-0.2l-0.2,0.3c-0.5,0.8-1.1,0.8-1.3,0.8l0,0
					c0,0.2,0.2,0.5,0.2,0.5h0.2C89.1,152.6,89.1,151.4,88.7,150.3z"/>
				<path id="XMLID_65_" class="st5" d="M92.6,152.8c0.9-0.9,0.5-1.6-0.6-1.7c-2.7-0.2-2.5,1.4-2.5,1.6c0,0,0.3-0.3,0.6-0.5
					c0,0,0.3-0.6,0.6-0.8h0.2l-0.2,0.2c-0.2,0.2-0.3,0.3-0.5,0.6c0.2,0,0.2,0,0.3,0c0-0.2,0.2-0.5,0.6-0.8c0,0,0,0,0.2,0l0.2-0.2
					l-0.3,0.2c-0.2,0.2-0.3,0.3-0.5,0.6l0,0c0.2,0,0.3,0,0.3,0c0-0.2,0.2-0.5,0.6-0.8h0.2H92l-0.2,0.2c-0.2,0.2-0.5,0.3-0.5,0.8
					c0.2,0,0.3,0,0.3,0l0,0c0,0,0-0.5,0.6-0.6c0,0,0,0,0.2,0h0.2l-0.2,0.2c-0.2,0.2-0.5,0.3-0.5,0.6c0.6-0.2,1.1-0.5,1.1-0.5
					l0.2-0.2v0.2c0,0-0.2,0.2-0.5,0.3c0.3,0.2,0.5,0,0.5,0h0.2v0.2c-0.2,0.2-0.6,0-0.6,0c-0.3,0.2-0.5,0.2-0.8,0.2
					c0.5,0.5,0.9,0.5,0.9,0.5L92.6,152.8h-0.3c-0.5,0.2-0.9-0.3-1.1-0.5l0,0l0,0H91c0.2,0.5,0.9,0.8,0.9,0.8h0.2c0,0-0.2,0-0.3,0
					c-0.6-0.2-0.9-0.8-0.9-0.8c-0.2,0-0.3,0-0.5,0c0,0.2,0.3,0.6,0.8,0.9l0,0l0,0l0,0h0.2h-0.2c-0.2-0.2-0.6-0.5-0.9-0.9
					c-0.2,0-0.3,0-0.3,0.2v0.2c0.2,0.5,0.6,0.6,0.8,0.6h0.2h-0.2c-0.6-0.2-0.9-0.6-0.9-0.8l0,0c-0.2,0.2-0.3,0.3-0.3,0.3v0.2
					C90.9,153.9,91.8,153.6,92.6,152.8z"/>
				<path id="XMLID_64_" class="st5" d="M89.6,154.3c0.6-0.3,0.5-0.8,0-0.9c-1.4-0.6-1.6,0.3-1.6,0.3s0.2-0.2,0.5-0.2
					c0,0,0.3-0.2,0.5-0.3h0.2H89c-0.2,0-0.3,0-0.3,0.3h0.2c0,0,0.2-0.2,0.5-0.3l0,0h0.2h-0.2c-0.2,0-0.3,0-0.3,0.3l0,0
					c0,0,0.2,0,0.2,0.2c0,0,0.2-0.3,0.5-0.3l0,0l0,0h-0.2c-0.2,0-0.3,0-0.3,0.3h0.2l0,0c0,0,0.2-0.2,0.5-0.2l0,0l0,0h-0.2
					c-0.2,0-0.3,0.2-0.3,0.2c0.3,0,0.6,0,0.6,0l0,0l0,0c0,0-0.2,0-0.3,0.2c0.2,0.2,0.3,0.2,0.3,0.2l0,0l0,0c-0.2,0-0.3-0.2-0.3-0.2
					c-0.2,0-0.3,0-0.5,0C89.1,154.2,89.5,154.2,89.6,154.3L89.6,154.3L89.6,154.3c-0.5,0-0.6-0.5-0.6-0.5l0,0l0,0c0,0,0,0-0.2,0
					c0,0.3,0.3,0.6,0.3,0.6l0,0c0,0,0,0-0.2,0c-0.3-0.2-0.3-0.6-0.3-0.6s-0.2,0-0.2-0.2c0,0.2,0,0.5,0.3,0.6l0,0l0,0l0,0l0,0h-0.2
					c0,0-0.3-0.3-0.3-0.6h-0.2l0,0c0,0.3,0.2,0.5,0.3,0.5h0.2h-0.2c-0.3-0.3-0.3-0.5-0.3-0.6l0,0c-0.2,0-0.2,0-0.2,0.2l0,0
					C88.5,154.5,89.1,154.5,89.6,154.3z"/>
				<path id="XMLID_63_" class="st5" d="M88.5,156.4c1.3-0.5,0.9-1.4,0-1.9c-2.5-1.3-3,0.5-3,0.6c0,0,0.3-0.3,0.8-0.2
					c0,0,0.5-0.5,0.9-0.5h0.2h-0.2c-0.2,0-0.5,0.2-0.8,0.5c0.2,0,0.2,0,0.3,0.2c0-0.2,0.5-0.5,0.8-0.5c0,0,0,0,0.2,0H88h-0.3
					c-0.2,0-0.5,0.2-0.8,0.5l0,0c0.2,0,0.2,0.2,0.3,0.2c0-0.2,0.3-0.5,0.9-0.5h0.2h0.2h-0.2c-0.2,0-0.6,0.2-0.8,0.5
					c0.2,0,0.3,0,0.3,0.2l0,0c0,0,0.2-0.3,0.8-0.5c0,0,0,0,0.2,0H89h-0.2c-0.2,0-0.6,0.2-0.8,0.5c0.6,0,1.3-0.2,1.3-0.2h0.2
					l-0.2,0.2c0,0-0.3,0.2-0.6,0.2c0.2,0.2,0.5,0.2,0.5,0.2h0.2h-0.2c-0.3,0-0.6-0.2-0.6-0.2c-0.3,0-0.6,0-0.8,0
					C88,156.2,88.5,156.4,88.5,156.4L88.5,156.4l-0.3-0.2c-0.5,0-0.8-0.8-0.8-0.8l0,0l0,0c0,0-0.2,0-0.2-0.2c0,0.6,0.6,1.1,0.6,1.1
					H88c0,0-0.2,0-0.3-0.2c-0.5-0.5-0.6-1.1-0.6-1.1c-0.2,0-0.3-0.2-0.5-0.2c0,0.2,0.2,0.8,0.5,1.1l0,0l0,0l0,0l0.2,0.2l-0.2-0.2
					c-0.2-0.2-0.5-0.6-0.5-1.3c-0.2,0-0.3,0-0.5,0v0.2c0,0.5,0.3,0.8,0.5,0.9l0.2,0.2l-0.2-0.2c-0.6-0.5-0.6-0.9-0.6-1.1l0,0
					c-0.2,0-0.3,0.2-0.3,0.2v0.2C86.5,156.9,87.6,156.9,88.5,156.4z"/>
				<path id="XMLID_62_" class="st5" d="M84.6,153.1c-0.6-1.4-1.6-0.9-2,0c-1.3,2.8,0.6,3.3,0.8,3.3c0,0-0.3-0.3-0.3-0.9
					c0,0-0.5-0.5-0.6-0.9v-0.2v0.2c0,0.2,0.2,0.5,0.6,0.8c0-0.2,0-0.2,0.2-0.3c-0.2-0.2-0.5-0.5-0.6-0.9v-0.2v-0.3l0.2,0.3
					c0,0.2,0.2,0.5,0.6,0.8l0,0c0-0.2,0.2-0.3,0.2-0.3c-0.2,0-0.5-0.3-0.6-0.9v-0.2v-0.2v0.2c0,0.2,0.2,0.6,0.6,0.8
					c0-0.2,0-0.3,0.2-0.5l0,0c0,0-0.5-0.2-0.5-0.8c0,0,0,0,0-0.2v-0.2v0.3c0,0.2,0.2,0.6,0.5,0.8c0-0.8-0.2-1.3-0.2-1.3v-0.2
					l0.2,0.2c0,0,0.2,0.3,0.2,0.6c0.2-0.2,0.2-0.5,0.2-0.5v-0.2l0.2,0.2c0,0.3-0.2,0.6-0.2,0.8c0,0.3,0,0.6,0,0.9
					c0.8-0.3,0.8-0.8,0.8-0.8v-0.2v0.2c0,0.6-0.8,0.9-0.8,0.9l0,0l0,0c0,0,0,0.2-0.2,0.2c0.6,0,1.1-0.8,1.1-0.8v-0.2
					c0,0,0,0.2-0.2,0.3c-0.5,0.6-1.1,0.8-1.1,0.8c0,0.2-0.2,0.3-0.2,0.5c0.2,0,0.8-0.2,1.3-0.6l0,0l0,0l0,0l0.2-0.2l-0.2,0.2
					c-0.2,0.2-0.6,0.6-1.3,0.6c0,0.2,0,0.3,0,0.5h0.2c0.5,0,0.9-0.5,1.1-0.6l0.2-0.2l-0.2,0.2c-0.5,0.6-0.9,0.8-1.1,0.8l0,0
					c0,0.2,0.2,0.3,0.2,0.5h0.2C85.2,155.3,85,154.2,84.6,153.1z"/>
				<path id="XMLID_61_" class="st5" d="M84.4,156.7c-0.5-0.8-0.9-0.6-1.3,0c-0.8,1.9,0.5,2,0.5,2s-0.2-0.3-0.2-0.6
					c0,0-0.3-0.3-0.3-0.6v-0.2v0.2c0,0.2,0.2,0.3,0.3,0.5v-0.2c0,0-0.3-0.3-0.3-0.6l0,0V157v0.3c0,0.2,0.2,0.3,0.3,0.5l0,0
					c0,0,0-0.2,0.2-0.3c0,0-0.3-0.2-0.5-0.6l0,0l0,0v0.2c0,0.2,0.2,0.5,0.3,0.5c0-0.2,0-0.2,0-0.3l0,0c0,0-0.3-0.2-0.3-0.5
					c0,0,0,0,0-0.2v-0.2v0.2c0,0.2,0.2,0.5,0.3,0.5c0-0.5-0.2-0.8-0.2-0.8v-0.2c0,0,0,0,0,0.2c0,0,0.2,0.2,0.2,0.5
					c0.2-0.2,0.2-0.3,0.2-0.3l0,0l0,0c0,0.2-0.2,0.5-0.2,0.5c0,0.2,0,0.3,0,0.6c0.5-0.2,0.5-0.5,0.5-0.5L84.4,156.7v0.2
					c0,0.3-0.5,0.6-0.5,0.6l0,0l0,0v0.2c0.5,0,0.8-0.5,0.8-0.5l0,0v0.2c-0.3,0.3-0.8,0.5-0.8,0.5c0,0.2,0,0.2-0.2,0.3
					c0.2,0,0.5-0.2,0.8-0.3l0,0l0,0l0,0l0,0v0.2c-0.2,0.2-0.5,0.3-0.8,0.5c0,0.2,0,0.2,0,0.3c0,0,0,0,0.2,0c0.3,0,0.6-0.3,0.6-0.5
					l0.2-0.2v0.2c-0.3,0.5-0.6,0.5-0.8,0.5l0,0c0,0.2,0.2,0.3,0.2,0.3l0,0C84.7,158,84.7,157.3,84.4,156.7z"/>
				<path id="XMLID_60_" class="st5" d="M86.5,160.5c1.3-0.6,0.9-1.4,0-1.9c-2.7-1.3-3.1,0.5-3.1,0.6c0,0,0.3-0.3,0.8-0.2
					c0,0,0.5-0.5,0.9-0.5h0.2H85c-0.2,0-0.5,0.2-0.8,0.5c0.2,0,0.2,0,0.3,0.2c0.2-0.2,0.5-0.5,0.8-0.5c0,0,0,0,0.2,0h0.3h-0.3
					c-0.2,0-0.5,0.2-0.8,0.5l0,0c0.2,0,0.2,0.2,0.3,0.2c0-0.2,0.3-0.5,0.9-0.6h0.2h0.2h-0.2c-0.2,0-0.6,0.2-0.8,0.5
					c0.2,0,0.3,0,0.5,0.2l0,0c0,0,0.2-0.5,0.8-0.5c0,0,0,0,0.2,0h0.2h-0.2c-0.2,0-0.6,0.2-0.8,0.5c0.6,0,1.3-0.2,1.3-0.2h0.2
					l-0.2,0.2c0,0-0.3,0.2-0.6,0.2c0.2,0.2,0.5,0.2,0.5,0.2h0.2h-0.2c-0.3,0-0.6-0.2-0.6-0.2c-0.3,0-0.6,0-0.8,0
					C86,160.2,86.5,160.3,86.5,160.5L86.5,160.5L86.5,160.5c-0.6-0.2-0.8-0.9-0.9-0.9l0,0l0,0c0,0-0.2,0-0.2-0.2
					c0,0.6,0.6,1.1,0.6,1.1h0.2c0,0-0.2,0-0.3-0.2c-0.6-0.5-0.6-1.1-0.6-1.1c-0.2,0-0.3-0.2-0.5-0.2c0,0.2,0.2,0.8,0.5,1.1l0,0l0,0
					l0,0l0.2,0.2l-0.2-0.2c-0.2-0.2-0.5-0.6-0.6-1.3c-0.2,0-0.3,0-0.5,0v0.2c0,0.5,0.3,0.8,0.6,0.9l0.2,0.2l-0.2-0.2
					c-0.6-0.5-0.6-0.9-0.6-1.1l0,0c-0.2,0-0.3,0.2-0.3,0.2v0.2C84.4,160.8,85.5,160.8,86.5,160.5z"/>
				<path id="XMLID_59_" class="st5" d="M85.7,162.5c1.4-0.2,1.3-0.9,0.5-1.6c-2.4-1.7-3.1-0.3-3.1-0.2c0,0,0.5-0.2,0.9,0
					c0,0,0.6-0.3,0.9-0.2H85h-0.2c-0.2,0-0.5,0-0.8,0.2c0.2,0,0.2,0.2,0.3,0.2c0.2,0,0.5-0.3,0.9-0.2h0.2h0.3h-0.3
					c-0.2,0-0.5,0-0.8,0.3l0,0c0.2,0,0.2,0.2,0.3,0.2c0,0,0.5-0.3,0.9-0.2h0.2h0.2h-0.2c-0.2,0-0.6,0-0.8,0.3c0.2,0,0.3,0.2,0.3,0.2
					l0,0c0,0,0.3-0.3,0.9-0.2c0,0,0,0,0.2,0h0.2h-0.2c-0.2,0-0.6,0-0.8,0.2c0.6,0.2,1.3,0.2,1.3,0.2h0.2h-0.2c0,0-0.3,0-0.6,0
					c0.2,0.2,0.5,0.3,0.5,0.3h0.2h-0.2c-0.3,0-0.5-0.3-0.6-0.3c-0.3,0-0.6-0.2-0.8-0.3c0.2,0.6,0.6,0.8,0.6,0.8h0.2h-0.2
					c-0.5-0.2-0.6-0.8-0.6-0.9l0,0l0,0c0,0-0.2,0-0.2-0.2c-0.2,0.5,0.5,1.1,0.5,1.1h0.2c0,0-0.2,0-0.3-0.2c-0.5-0.5-0.5-1.1-0.3-1.1
					c-0.2,0-0.3-0.2-0.3-0.3c0,0.2,0,0.6,0.2,1.1l0,0l0,0l0,0l0.2,0.2l-0.2-0.2c-0.2-0.2-0.3-0.6-0.3-1.1c-0.2,0-0.3-0.2-0.5-0.2
					c0,0,0,0,0,0.2c-0.2,0.5,0.2,0.8,0.3,0.9l0.2,0.2l-0.2-0.2c-0.5-0.5-0.5-0.9-0.5-1.1l0,0c-0.2,0-0.3,0-0.5,0v0.2
					C83.6,162.5,84.6,162.7,85.7,162.5z"/>
				<path id="XMLID_58_" class="st5" d="M79.7,154.5c-1.7-0.8-2,0.3-1.4,1.6c1.6,3.5,3.5,2.4,3.6,2.4c0,0-0.6-0.2-0.9-0.6
					c-0.2,0-0.8-0.2-1.3-0.3l-0.2-0.2l0.2,0.2c0.2,0.2,0.6,0.3,1.1,0.3c-0.2-0.2-0.2-0.2-0.2-0.3c-0.2,0-0.8,0-1.3-0.3
					c0,0-0.2,0-0.2-0.2l-0.3-0.2l0.5,0.3c0.2,0.2,0.6,0.3,1.1,0.3l0,0c0-0.2-0.2-0.3-0.2-0.5c-0.2,0-0.6,0.2-1.3-0.3l-0.2-0.2
					l-0.2-0.2l0.3,0.2c0.2,0.2,0.8,0.5,1.1,0.3c-0.2-0.2-0.2-0.3-0.3-0.5l0,0c0,0-0.5,0.2-1.1-0.3c0,0,0,0-0.2-0.2l-0.2-0.2l0.3,0.2
					c0.2,0.2,0.8,0.5,1.1,0.3c-0.6-0.6-1.3-0.9-1.3-0.9h-0.2h0.2c0,0,0.3,0.2,0.8,0.5c0-0.3-0.3-0.6-0.3-0.6l-0.2-0.2h0.2
					c0.3,0.2,0.5,0.6,0.5,0.8c0.3,0.3,0.6,0.5,0.8,0.8c0.3-0.8-0.2-1.3-0.2-1.3l-0.2-0.2l0.2,0.2c0.5,0.5,0.3,1.4,0.2,1.6l0,0l0,0
					c0,0,0.2,0.2,0.2,0.3c0.5-0.5,0.2-1.6,0.2-1.6v-0.2c0,0,0.2,0.2,0.2,0.3c0.2,0.8-0.2,1.6-0.3,1.6c0.2,0.2,0.2,0.3,0.3,0.5
					c0.2-0.2,0.5-0.8,0.5-1.4l0,0l0,0l0,0v-0.2l0.2,0.3c0,0.3,0,1.1-0.5,1.6c0.2,0.2,0.3,0.3,0.5,0.5c0,0,0.2,0,0.2-0.2
					c0.3-0.3,0.3-0.9,0.2-1.4v-0.3l0.2,0.3c0.3,0.9,0,1.4-0.2,1.6l0,0c0.2,0.2,0.5,0.2,0.5,0.2l0.2-0.2
					C82.1,155.9,81,155,79.7,154.5z"/>
				<path id="XMLID_57_" class="st5" d="M82.4,162.7c0.8,0.5,1.1,0,0.8-0.6c-0.6-1.7-1.6-1.3-1.6-1.3s0.3,0.2,0.5,0.3
					c0,0,0.5,0.2,0.6,0.3l0.2,0.2h-0.2c-0.2,0-0.3-0.2-0.5-0.2c0,0,0,0.2,0.2,0.2c0,0,0.3,0,0.6,0.3l0,0l0.2,0.2l-0.2-0.2
					c-0.2-0.2-0.3-0.2-0.5-0.2l0,0c0,0,0,0.2,0.2,0.3c0,0,0.3,0,0.6,0.2l0,0l0,0h-0.2c-0.2-0.2-0.3-0.3-0.6-0.2l0.2,0.2l0,0
					c0,0,0.3,0,0.6,0.2l0,0l0,0l-0.2-0.2c-0.2,0-0.3-0.3-0.5-0.2c0.3,0.3,0.6,0.6,0.6,0.6h0.2c0,0,0,0-0.2,0c0,0-0.2-0.2-0.3-0.3
					c0,0.2,0.2,0.3,0.2,0.3l0,0l0,0c-0.2-0.2-0.2-0.3-0.2-0.5c-0.2-0.2-0.3-0.3-0.3-0.5c-0.2,0.3,0,0.6,0,0.6L82.4,162.7v-0.2
					c-0.3-0.3,0-0.6,0-0.8l0,0l0,0v-0.2c-0.3,0.3-0.2,0.8-0.2,0.8l0,0c0,0,0,0,0-0.2c0-0.5,0.2-0.8,0.2-0.8c0-0.2,0-0.2-0.2-0.3
					c0,0-0.3,0.3-0.3,0.6l0,0l0,0l0,0v0.2v-0.2c0-0.2,0-0.5,0.3-0.8c0-0.2-0.2-0.2-0.2-0.2l0,0c-0.2,0.2-0.2,0.5-0.2,0.6v0.2v-0.2
					c0-0.5,0.2-0.6,0.2-0.8l0,0c-0.2,0-0.2-0.2-0.3-0.2l0,0C81.3,161.9,81.7,162.4,82.4,162.7z"/>
			</g>
			<path id="XMLID_56_" class="st5" d="M83,157.5c0-0.2,0-0.2,0.2-0.3c-2.5,2.5-3.6,4.9-3.6,5l0.2,0.2c0,0,1.1-2.2,3.3-4.6
				C82.8,157.7,82.8,157.5,83,157.5z"/>
			<path id="XMLID_55_" class="st5" d="M89.5,152.8l0.2-0.3l-0.2,0.2c-2.2,0.9-4.1,2.2-5.5,3.6l0.2,0.2
				C85.5,155.1,87.4,153.7,89.5,152.8C90.1,152.6,89.5,152.9,89.5,152.8z"/>
			<g>
				<circle id="XMLID_54_" class="st6" cx="82.7" cy="159.5" r="1.6"/>
				
					<ellipse id="XMLID_53_" transform="matrix(-0.7345 -0.6787 0.6787 -0.7345 36.4852 332.5426)" class="st7" cx="83.3" cy="159.1" rx="0.9" ry="0.6"/>
				
					<ellipse id="XMLID_52_" transform="matrix(-0.7349 -0.6782 0.6782 -0.7349 36.9655 332.3854)" class="st6" cx="83.4" cy="159" rx="0.5" ry="0.3"/>
			</g>
			<g>
				<circle id="XMLID_51_" class="st7" cx="80.5" cy="161" r="1.4"/>
				
					<ellipse id="XMLID_50_" transform="matrix(-0.9476 0.3193 -0.3193 -0.9476 207.6413 286.3724)" class="st6" cx="80.3" cy="160.2" rx="0.9" ry="0.6"/>
				
					<ellipse id="XMLID_49_" transform="matrix(-0.9476 0.3193 -0.3193 -0.9476 207.3448 286.172)" class="st7" cx="80.2" cy="160.1" rx="0.5" ry="0.3"/>
			</g>
			<g>
				<circle id="XMLID_48_" class="st6" cx="79.9" cy="158.3" r="1.1"/>
				
					<ellipse id="XMLID_47_" transform="matrix(-0.9477 0.3191 -0.3191 -0.9477 205.5107 282.1103)" class="st7" cx="79.6" cy="157.9" rx="0.6" ry="0.5"/>
				<ellipse id="XMLID_46_" class="st6" cx="79.7" cy="157.7" rx="0.3" ry="0.3"/>
			</g>
			<g>
				<circle id="XMLID_45_" class="st7" cx="81.9" cy="156.2" r="1.1"/>
				
					<ellipse id="XMLID_44_" transform="matrix(-0.9475 0.3198 -0.3198 -0.9475 209.2313 277.3582)" class="st6" cx="81.8" cy="155.9" rx="0.6" ry="0.5"/>
				<ellipse id="XMLID_43_" class="st7" cx="81.7" cy="155.8" rx="0.3" ry="0.3"/>
			</g>
			<g>
				<circle id="XMLID_42_" class="st6" cx="85" cy="153.2" r="1.1"/>
				
					<ellipse id="XMLID_41_" transform="matrix(-0.4501 0.893 -0.893 -0.4501 259.0433 146.3262)" class="st7" cx="84.5" cy="152.9" rx="0.6" ry="0.5"/>
				<ellipse id="XMLID_40_" class="st6" cx="84.4" cy="152.9" rx="0.3" ry="0.3"/>
			</g>
			<g>
				<circle id="XMLID_39_" class="st7" cx="85.2" cy="157.5" r="1.3"/>
				
					<ellipse id="XMLID_38_" transform="matrix(-0.3133 -0.9496 0.9496 -0.3133 -36.6542 288.0706)" class="st6" cx="85.8" cy="157.3" rx="0.8" ry="0.5"/>
				
					<ellipse id="XMLID_37_" transform="matrix(-0.3129 -0.9498 0.9498 -0.3129 -36.8122 288.119)" class="st7" cx="85.8" cy="157.4" rx="0.5" ry="0.3"/>
			</g>
		</g>
		<circle id="XMLID_36_" class="st6" cx="61.3" cy="143.3" r="19.4"/>
		<circle id="XMLID_35_" class="st5" cx="45.7" cy="160.5" r="6.1"/>
		<g>
			<path id="XMLID_34_" class="st4" d="M41.6,159.5c0.2-0.6,0.6-0.2,0.8,0.2c0.2,0.5,0,0.9-0.3,1.3c-0.2,0.3-0.5,0.5-0.8,0.8
				c-0.2,0.2-0.3,0.2-0.3,0.3c0,0-0.2,0.2,0,0.3s0.6,0.2,0.9,0.2c0.5,0,0.9,0,1.4-0.2c0.3-0.2,0.5-0.6,0-0.5
				c-0.3,0.2-0.8,0.2-1.1,0.2c-0.2,0-0.6,0-0.8-0.2c0,0,0,0.2,0,0.3c-0.2,0.3,0,0.2,0,0c0.2-0.2,0.3-0.2,0.3-0.3
				c0.2-0.2,0.5-0.5,0.6-0.6c0.3-0.5,0.6-0.9,0.5-1.6c-0.3-1.3-1.7-0.3-1.9,0.3C41,160.2,41.5,159.9,41.6,159.5L41.6,159.5z"/>
			<path id="XMLID_33_" class="st4" d="M45.1,161.7c0.5,1.4,2.7,0.5,2.4-0.8c-0.2-0.6-0.9-0.6-1.4-0.8c-0.3-0.2-0.3-0.3-0.3-0.6
				c0.2-0.3,0.2-0.3-0.2-0.2c0.2,0,0.2,0,0.3,0c0.5-0.2,0.9,0,1.4,0.2c0.2,0.2,0.6-0.5,0.5-0.5c-0.5-0.3-1.3-0.2-1.7-0.2
				c-0.5,0.2-0.6,0.6-0.6,1.1c0,0.6,0.6,0.8,1.1,0.8c0.3,0,0.6,0.2,0.8,0.6c0,0.6-0.6,0.6-0.9,0.3c-0.2-0.2-0.3-0.3-0.3-0.5
				C45.4,161.1,44.9,161.6,45.1,161.7L45.1,161.7z"/>
			<g>
				<path id="XMLID_32_" class="st4" d="M50.1,159.1c-0.6,1.1-1.4,2-2.2,3c-0.3,0.5,0.2,0.5,0.5,0.2c0.8-0.9,1.6-2,2.2-3.1
					C50.9,158.6,50.3,158.9,50.1,159.1L50.1,159.1z"/>
				<path id="XMLID_31_" class="st4" d="M49,158.8c-0.3,0-0.6,0.3-0.8,0.8c0,0.3,0.2,0.6,0.5,0.6C49.5,160.2,49.8,158.9,49,158.8
					c-0.2,0-0.5,0.5-0.2,0.5c0.2,0,0.3,0.2,0.3,0.3v0.2l0,0c0,0,0,0-0.2,0s-0.3-0.2-0.3-0.3v-0.2l0,0c0,0,0,0,0.2,0
					C48.9,159.2,49.2,158.8,49,158.8z"/>
				<path id="XMLID_30_" class="st4" d="M50.1,161c-0.3,0-0.6,0.3-0.8,0.8c0,0.3,0.2,0.6,0.5,0.6C50.6,162.4,50.9,161.1,50.1,161
					c-0.2,0-0.5,0.5-0.2,0.5c0.2,0,0.3,0.2,0.3,0.3v0.2l0,0c0,0,0,0-0.2,0s-0.3-0.2-0.3-0.3v-0.2l0,0c0,0,0,0,0.2,0
					C50,161.4,50.3,161,50.1,161z"/>
			</g>
			<path id="XMLID_29_" class="st4" d="M44.1,163.2c0.3-0.3,0.5-0.6,0.5-0.9c0-0.2,0-0.3,0-0.3c-0.2-0.2-0.3,0-0.5,0
				c-0.2,0-0.3,0.3-0.3,0.5c0,0.2,0.2,0.2,0.3,0.2l0,0l0,0v0.2c0,0.2,0,0.2-0.2,0.2l0,0l0,0l0,0l0,0c-0.2,0-0.3,0.3-0.2,0.5
				C43.8,163.3,44,163.2,44.1,163.2L44.1,163.2z"/>
		</g>
		<g>
			<g>
				<g>
					<path class="st4" d="M76.4,147.1c-0.3-0.2-0.6,0-0.8,0.3c-0.2-0.5,0.2-1.4,0.2-1.9c0.3-1.4,0.3-2.7,0-3
						c-0.3-0.3-0.9-0.2-1.3-0.2c-0.2,0.2-0.3,0.2-0.5,0.3c0-0.3-0.2-0.6-0.3-0.9c-0.3-0.3-0.8-0.3-0.9-0.2c-0.2,0.2-0.5,0.2-0.6,0.3
						c0-0.2,0-0.3,0-0.5s0-0.2,0-0.2s-0.2,0-0.2-0.2h-0.2c-0.2,0-0.5,0.2-0.6,0.2c-0.2,0.2-0.2,0.2-0.3,0.3c-0.3,0.3-0.6,0.2-0.9,0
						c-0.3-0.2-0.5-0.3-0.6-0.6c-0.2-0.2-0.2-0.3-0.3-0.3c-0.5-0.3-0.9-0.2-1.4,0c0-0.3,0-0.8,0-1.1c0-0.3-0.6-0.2-0.8,0
						c-0.2,0.2-0.5,0.3-0.5,0.5c0,0-0.5,1.7-1.4,3.1c0-0.9,0.2-1.9,0.2-2.8c0-0.2,0-0.2-0.2-0.3c-0.2,0-0.3,0-0.3,0
						c-0.3,0.2-0.6,0.3-0.6,0.6c-0.2,1.3-0.3,4.1-1.1,4.1s-0.5-3.3-0.3-4.7c0-0.2-0.2-0.3-0.3-0.2c-0.2,0-0.3,0-0.3,0
						c-0.3,0.2-0.6,0.5-0.6,0.8c-0.2,0.9-0.3,1.9-0.6,2.7c-0.2,0.5-0.5,1.4-1.1,1.4s-0.6-0.6-0.5-1.1c0.2-0.5,0.5-0.9,0.8-1.3
						c0.3-0.5,0.5-0.9,0.5-1.3c0-0.6-0.3-1.1-0.9-1.3c-0.6,0-1.3,0.3-1.7,0.8c-0.2,0.2-0.3,0.3-0.5,0.3c-0.5,0-0.8-0.3-0.9-0.3
						c-0.2-0.2-0.5-0.3-0.9-0.2c-1.4,0.5-1.7,2-1.6,3.3c0,0.8,0,1.4-0.2,1.7c-0.5,0-0.8-0.5-0.9-0.9c-0.3-0.8-0.5-1.6-0.6-2.5
						c-0.2-1.1-0.2-2.4-0.2-3.6c0-0.3-0.5-0.2-0.6,0c-0.3,0.3-0.6,0.6-0.6,0.9c0,1.4,0.2,3,0.2,4.4c0,0.8,0,1.6-0.2,2.2
						c-0.2,0.3-0.3,0.3-0.5,0.3c-0.5-0.2-0.6-0.6-0.8-1.1c-0.2-0.6-0.3-1.4-0.3-2.2c0-0.8,0-1.4-0.2-2.2c0-0.5,0-0.9-0.3-1.4
						c-0.5-0.6-1.6,0.5-1.9,0.9c-0.6,0.8-0.8,1.6-0.9,2.5c0,0.3,0.2,0.5,0.5,0.2c0.3-0.3,0.6-0.6,0.6-1.1c0-0.3,0.2-1.1,0.5-1.3l0,0
						l0,0c0,0,0,0,0,0.2c0,0.2,0.2,0.3,0.2,0.6c0.2,1.4,0.2,2.8,0.5,4.2c0.2,0.9,0.6,2.4,2,2c0.8-0.2,1.3-1.1,1.6-1.7c0,0,0,0,0-0.2
						c0.3,0.6,0.8,1.1,1.7,0.9c0.6-0.2,0.8-0.6,0.9-1.3c0.3,0.5,0.6,0.8,1.1,0.8c0.6,0,1.1-0.8,1.4-1.3c0.3-0.6,0.3-1.3,0.3-2
						c0-0.3,0-0.8-0.2-1.1c0.2,0,0.3,0,0.5-0.2c0.3-0.2,0.6-0.6,0.9-0.8c0.2,0,0.3,0,0.5,0c0.9,0.5-0.5,1.6-0.9,2.4
						c-0.3,0.6-0.6,1.6,0,2c0.8,0.9,2.4,0.2,3-0.6c0.2-0.2,0.3-0.5,0.5-0.6c0,0.6,0.2,1.6,1.1,1.6c0.5,0,0.8-0.2,1.1-0.5
						c-0.5,0.6-0.8,1.4-1.3,2c-0.3,0.6-0.6,1.3-0.6,1.9c0,0.8,0.9,1.3,1.6,0.8c0.6-0.3,1.1-1.1,1.3-1.9c0.3-1.3,0.3-2.5,0.3-3.8
						c0.6-0.9,1.1-1.6,1.6-2.8c0,1.3-0.2,2.5-0.2,3.8c-0.2,1.4-0.3,2.8-0.5,4.1c0,0.3,0.3,0.3,0.5,0.2c0.3-0.2,0.6-0.3,0.6-0.6
						c0.2-1.1,0.3-2,0.5-3.1c0.5,0,0.8,0,1.3-0.3c0.9-0.6,1.1-1.7,1.3-2.7c0-0.2,0-0.3,0-0.5c0.5,0.2,0.8,0,1.1-0.2
						c-0.2,1.3-0.5,2.7-0.6,3.9c-0.2,0.6,1.1,0.2,1.1-0.3c0.2-1.1,0.5-2.4,1.1-3.5c0-0.2,0.2-0.2,0.2-0.3l0,0c0.2,0.8,0,1.6-0.2,2.2
						c0,0.3-0.2,0.6-0.2,0.9c-0.2,0.5-0.2,0.8-0.3,1.3c-0.2,0.6,1.1,0.2,1.1-0.3c0.2-0.3,0.2-0.8,0.3-1.1c0.3-0.9,0.6-1.7,1.1-2.5
						c0.2,0.5,0,0.9,0,1.3c0,0.6-0.2,1.1-0.3,1.7c-0.2,0.5-0.2,0.9,0,1.4c0.3,0.9,1.7,0.2,2-0.2C76.6,147.4,76.7,147.3,76.4,147.1z
						 M55.8,144.9c0,0.2,0,0.3-0.2,0.3c-0.3,0-0.5-0.3-0.5-0.5c-0.2-0.5-0.3-0.9-0.3-1.4s0-0.9,0-1.4c0-0.2,0-0.3,0.2-0.3
						s0.2,0.2,0.3,0.2c0.3,0.3,0.5,1.4,0.6,1.7C55.8,144,55.8,144.4,55.8,144.9z M63.5,147.3c0,0.5,0,1.1-0.2,1.6
						c0,0.2,0,0.3-0.2,0.3c0,0-0.2,0-0.3-0.2c-0.3-0.3-0.2-0.8,0-1.1c0.2-0.5,0.5-0.9,0.8-1.6C63.7,146.8,63.5,147.1,63.5,147.3z
						 M68.1,145.4L68.1,145.4L68.1,145.4c-0.5,0-0.6-0.5-0.6-0.8c0-0.8,0.2-1.6,0.2-2.4l0,0c0-0.3,0-0.5,0.2-0.6l0,0l0,0
						c0.2,0,0.3,0.2,0.3,0.3c0.3,0.5,0.3,1.3,0.3,1.7C68.5,144.1,68.4,144.9,68.1,145.4z"/>
					<path id="XMLID_24_" class="st4" d="M49.3,138.5c0.8-0.3,1.4-0.9,1.9-1.6c0.2-0.2,0.5-0.6,0.2-0.8c-0.3-0.2-0.6,0.3-0.8,0.5
						c-0.2,0.3-0.3,0.6-0.6,0.8c-0.3,0.2-0.8,0-0.9-0.2c-0.3-0.3-1.4,0.8-1.1,1.1C48.2,138.6,48.9,138.8,49.3,138.5z"/>
				</g>
			</g>
		</g>
		<path id="XMLID_23_" class="st6" d="M52.2,119.6c0,1.4-1.1,2.5-2.5,2.5c-1.4,0-2.5-1.1-2.5-2.5s1.1-2.5,2.5-2.5
			C50.9,117.1,52.2,118.2,52.2,119.6L52.2,119.6z"/>
		<path id="XMLID_22_" class="st5" d="M52.2,127.9c0,1.7-1.4,3.1-3.1,3.1s-3.1-1.4-3.1-3.1c0-1.7,1.4-3.1,3.1-3.1
			S52.2,126.2,52.2,127.9L52.2,127.9z"/>
		<path id="XMLID_21_" class="st5" d="M43.7,123c0,1.1-0.8,1.9-1.9,1.9c-1.1,0-1.9-0.8-1.9-1.9c0-1.1,0.8-1.9,1.9-1.9
			C42.9,121,43.7,121.9,43.7,123L43.7,123z"/>
		<g>
			<circle id="XMLID_20_" class="st5" cx="78" cy="125.6" r="10.7"/>
			<g>
				<path class="st4" d="M75.3,124c-0.9,0.2-1.1,1.1-1.1,1.9l0,0l0,0c0,0.2,0,0.2,0,0.3c0,0.3,0,0.6,0,0.9c0,0.2,0,0.5-0.2,0.5
					c-0.3,0-0.6-0.5-0.6-0.6c-0.2-0.5-0.3-1.1-0.5-1.7c-0.2-0.6-0.2-1.3-0.2-1.9c0-0.3,0-0.5,0-0.8c0-0.2,0-0.2,0-0.3v-0.2
					c0.2-0.5-0.6,0-0.6,0.2c-0.8,1.3-0.5,2.7-0.5,4.1c0,0.3,0,0.8,0,1.1s-0.2,0.6-0.3,0.9c-0.2,0.2-0.3,0-0.5,0
					c-0.2-0.2-0.3-0.3-0.3-0.5s-0.3-0.2-0.3,0c-0.2,0.2-0.3,0.5-0.3,0.6c0.2,0.5,0.5,0.9,0.9,0.8c0.8-0.2,1.1-1.3,1.3-1.9
					c0.2-0.3,0.2-0.8,0.2-1.1c0.2,0.5,0.3,1.1,0.5,1.6c0.2,0.3,0.5,0.8,0.9,0.6c0.3,0,0.6-0.5,0.8-0.8c0.2,0.3,0.5,0.6,0.8,0.6
					c0.5,0,0.8-0.5,0.9-0.8c0.2-0.5,0.3-0.9,0.3-1.4C76.4,125.2,76.2,124,75.3,124z M75.5,127.1c0,0.2,0,0.2,0,0.3
					c-0.2,0-0.3-0.3-0.3-0.3c-0.2-0.3-0.2-0.6-0.2-0.9s0-0.6,0-0.9c0-0.2,0-0.2,0-0.3c0.5,0.3,0.5,0.8,0.6,1.3
					C75.6,126.5,75.6,126.8,75.5,127.1z"/>
				<path class="st4" d="M85.8,125.2c-0.9-0.3-1.6,0.9-1.7,1.7c-0.2,0.6-0.3,1.9,0.5,2.2c0.5,0.2,0.9-0.2,1.1-0.5
					c0.3-0.3,0.5-0.8,0.6-1.3C86.6,126.8,86.8,125.6,85.8,125.2z M85.4,128.4l-0.2,0.2c-0.2-0.2-0.2-0.3-0.2-0.5c0-0.3,0-0.6,0-0.9
					s0.2-0.6,0.3-0.9l0.2-0.2c0.3,0.5,0.3,0.9,0.2,1.6C85.5,127.8,85.5,128.1,85.4,128.4z"/>
				<path class="st4" d="M83.3,125.4c0.2-0.3,0.3-0.5,0.5-0.8c0.3-0.5,0.6-1.1,0.6-1.9c0-0.6-0.9-0.6-1.3-0.5
					c-0.6,0.3-0.9,0.9-1.1,1.6c-0.2,0.8-0.3,1.7-0.5,2.5l0,0c-0.3,0.3-0.9,1.1-1.4,0.8c-0.2,0-0.2-0.3-0.2-0.3
					c0.5-0.5,0.8-0.8,1.1-1.3c0.3-0.5,0.5-1.1,0-1.4c-0.5-0.3-1.1,0-1.4,0.5c-0.3,0.3-0.5,0.9-0.5,1.4c0,0.3,0,0.6,0,1.1
					c-0.3,0.2-0.6,0.3-0.9,0.2c-0.3,0-0.5-0.5-0.6-0.8c-0.2-0.5,0-0.9,0-1.4c0-0.2,0-0.3,0.2-0.5c0,0,0,0,0-0.2
					c0.2,0.2,0.3,0.5,0.3,0.6c0.2,0.3,0.9-0.2,0.8-0.5c-0.2-0.3-0.2-0.6-0.6-0.8c-0.3-0.2-0.8,0.2-0.9,0.3c-0.6,0.6-0.6,1.4-0.6,2.2
					c0,0.5,0.2,1.1,0.6,1.4c0.6,0.3,1.4,0,1.9-0.3c0.2,0.3,0.5,0.6,0.9,0.6c0.6-0.2,1.1-0.3,1.6-0.8c0,0.5,0.2,0.9,0.5,1.1
					c0.5,0.3,1.1,0,1.4-0.5c0.5-0.6,0.6-1.3,0.5-2C83.8,125.6,83.6,125.4,83.3,125.4z M80,125.1c0-0.2,0.2-0.3,0.2-0.3l0,0
					c0.2,0,0.3,0.3,0.3,0.5c0,0.3-0.3,0.8-0.6,1.1v-0.2C79.9,125.9,80,125.4,80,125.1z M83.2,123.4c0-0.2,0.2-0.3,0.3-0.3l0,0
					c0.3,0.5,0,0.9-0.2,1.4c-0.2,0.3-0.5,0.8-0.6,1.1c0-0.3,0.2-0.8,0.2-1.1C82.8,124,83,123.7,83.2,123.4z M83,127.8
					c0,0,0,0.2-0.2,0.2c0,0,0,0-0.2,0c-0.3-0.2-0.3-0.6-0.3-0.8c0-0.2,0-0.3,0-0.5c0.2-0.2,0.2-0.2,0.3-0.3c0.2-0.2,0.3,0.2,0.5,0.3
					C83.3,126.8,83.2,127.4,83,127.8z"/>
			</g>
		</g>
		<g>
			<g>
				<path id="XMLID_11_" class="st4" d="M56.6,157.7c0.3-0.2,1.7-1.4,0.8-1.7c-0.6-0.2-0.9,0.5-1.1,0.9c-0.2,0.3-0.5,1.3,0.2,1.4
					c0.8,0.2,1.4-0.5,1.9-0.8c0.3-0.3-0.3-0.2-0.5,0s-0.6,0.6-0.9,0.5c-0.3,0-0.3-0.5-0.3-0.6c0-0.3,0.2-0.8,0.5-0.9
					c-0.2,0,0,0,0,0.2c0,0.2,0,0.2,0,0.3c-0.2,0.3-0.5,0.6-0.8,0.8C55.9,157.7,56.4,157.8,56.6,157.7L56.6,157.7z"/>
				<g>
					<path id="XMLID_10_" class="st4" d="M57.8,158c0,0.5,0.5,0.6,0.9,0.5c0.5-0.3,0.5-0.8,0.6-1.1c0-0.3,0-0.8-0.3-1.1
						c-0.2-0.2-0.5,0-0.5,0c-0.3,0.2-0.5,0.5-0.5,0.8c0,0.3,0.5,0,0.5-0.2c0-0.3,0.2-0.3,0.3,0c0,0.2,0,0.3,0,0.5
						c0,0.2,0,0.5-0.2,0.6c0,0,0,0.2-0.2,0.2l0,0c-0.2,0-0.2-0.2-0.2-0.3C58.3,157.7,57.8,157.8,57.8,158L57.8,158z"/>
					<path id="XMLID_9_" class="st4" d="M58,156.1c0,1.3-0.3,2.5-0.6,3.8c0,0.2,0.5,0,0.6-0.2c0.3-1.3,0.5-2.5,0.6-3.8
						C58.5,155.6,58,155.9,58,156.1L58,156.1z"/>
				</g>
				<path id="XMLID_8_" class="st4" d="M56.6,157.3c-0.2,0-0.5,0.2-0.6,0.3c-0.3,0.2-0.2-0.5-0.2-0.6c0.2-0.5,0.3-0.8,0.5-1.3
					c0.2-0.2-0.5,0-0.5,0c0,0.2-0.2,0.2-0.2,0.3c-0.2,0.2-0.3,0-0.3-0.2s0-0.3,0.2-0.5c0.2-0.2-0.3-0.2-0.3-0.2
					c-0.2,0-0.3,0.2-0.5,0.2c-0.3,0.2,0,0.3,0.3,0.2c0.2,0,0.3-0.2,0.5-0.3c-0.2,0-0.3,0-0.3-0.2c-0.3,0.3-0.5,0.9,0.3,0.9
					c0.5,0,0.8-0.3,0.9-0.6c-0.2,0-0.3,0-0.5,0c-0.3,0.5-0.6,1.1-0.6,1.7c0,0.3,0.2,0.5,0.5,0.5c0.3,0,0.8-0.3,0.9-0.3
					C56.7,157.5,56.9,157.2,56.6,157.3L56.6,157.3z"/>
				<path id="XMLID_7_" class="st4" d="M66.6,155.6c-0.3-0.6-0.9,0-0.9,0.5c-0.2,0.5,0,1.1,0.2,1.6c0.2,0.5,0.8,0.5,1.1,0
					C67.3,156.9,67,156.1,66.6,155.6c-0.2,0.2-0.3,0.3-0.3,0.3c0.2,0.3,0.6,2.4,1.4,1.3c0.2-0.3,0-0.6-0.2-0.2
					c0,0.2-0.3-0.5-0.3-0.5C67,156.2,66.8,155.9,66.6,155.6c-0.2-0.3-0.5,0.2-0.3,0.3c0.2,0.3,0.2,0.6,0.3,0.9c0,0.2,0,0.3,0,0.3
					c-0.2,0-0.2,0-0.3-0.2c-0.2-0.2-0.3-0.5-0.3-0.6s0-0.3,0-0.5v-0.2c0-0.2,0.3,0,0.3,0C66.5,156.2,66.8,155.8,66.6,155.6
					L66.6,155.6z"/>
				<path id="XMLID_6_" class="st4" d="M63.5,156.2c0.3,0.8,0.3,1.6,0.5,2.4c0,0.3,0.5-0.2,0.5-0.3c0-0.3,0-0.8,0-1.1
					c0-0.2,0-0.8,0.3-0.6c0.2-0.2,0.2-0.3,0.3-0.5c-0.9-0.3-1.1,1.1-1.1,1.6c0,0.2,0.2,0,0.3,0c0.6-0.3,0.3,1.1,1.1,0.6
					c0.5-0.3,0.8-0.9,0.9-1.4c0-0.3-0.3,0-0.3,0.2c0,0.3-0.2,0.6-0.5,0.8c-0.2,0-0.3-0.5-0.3-0.5c-0.2-0.3-0.5-0.3-0.8,0
					c0.2,0,0.2,0,0.3,0c0-0.2-0.2-0.9,0.3-0.8c0.2,0,0.5-0.5,0.3-0.5c-1.3-0.5-1.1,2-1.1,2.5c0.2-0.2,0.3-0.2,0.5-0.3
					c-0.2-0.8-0.2-1.6-0.6-2.4C63.8,155.6,63.3,156.1,63.5,156.2L63.5,156.2z"/>
				<path id="XMLID_5_" class="st4" d="M59.7,156.6c0,0.6,0,1.4-0.2,2c0,0.3,0.5,0,0.6-0.2c0-0.5,0.2-0.6,0.5-0.9
					c0.3-0.3,0.5-0.8,0.6-1.1c0-0.3-0.3,0-0.5,0.2c-0.2,0.6-0.3,1.4-0.2,2c0.2,0.6,1.1-0.2,1.4-0.3c0.3-0.3,0-0.5-0.3-0.2
					c0,0-0.5,0.5-0.5,0.3c-0.2-0.2-0.2-0.5-0.2-0.6c0-0.5,0-0.9,0.2-1.4c-0.2,0-0.3,0.2-0.5,0.2c-0.2,0.5-0.3,0.8-0.6,0.9
					c-0.3,0.3-0.5,0.6-0.6,1.1c0.2,0,0.3-0.2,0.6-0.2c0-0.6,0-1.4,0-2C60.2,156.1,59.7,156.4,59.7,156.6L59.7,156.6z"/>
				<path id="XMLID_4_" class="st4" d="M63.8,157.8c0,0.2-0.2,0.2-0.2,0.3c-0.2,0.2,0,0,0,0c-0.2,0-0.3-0.2-0.3-0.3
					c-0.2-0.5-0.2-1.1-0.3-1.6c0-0.3-0.5,0.2-0.5,0.3c0,0.3,0,0.6,0,0.9c0,0.2,0,0.3,0,0.5s0,0.3-0.2,0.2c-0.5-0.3-0.3-1.4-0.3-1.7
					c0-0.3-0.3,0-0.5,0.2c-0.2,0.3-0.5,2.2,0.6,2c1.1-0.2,0.8-1.7,0.6-2.5c-0.2,0.2-0.3,0.2-0.5,0.3c0,0.6,0,1.6,0.5,2
					C63.3,158.8,63.8,158,63.8,157.8C64.3,157.5,64,157.7,63.8,157.8L63.8,157.8z"/>
			</g>
		</g>
		<g>
			<path id="XMLID_3_" class="st8" d="M37.7,135.2c-0.2,0-0.2-0.2-0.3-0.2c-0.5-0.2-0.8,0.2-1.1,0.2c-0.9,0-1.3,0-2.4-0.3
				c0-0.9,0.5-1.6,0.8-2.4c0.2-0.6-0.2-1.4-0.2-2.2c0-0.5,0-0.9,0-1.4c-0.3,0.3-0.2,1.1-0.2,1.6c-0.2-0.6-0.2-1.3-0.3-1.9
				c-0.2,0.5,0,1.3,0,1.9c-0.2-0.5-0.2-1.1-0.5-1.6c-0.3,0.5,0.2,1.3,0.2,1.7c-0.2-0.5-0.3-0.9-0.5-1.4c-0.2,0.6,0.2,1.1,0.2,1.6
				c-0.2-0.3-0.3-0.8-0.6-1.1c0,0.5,0.3,0.9,0.5,1.3c-0.3-0.2-0.3-0.5-0.6-0.6c0,0.3,0.3,0.5,0.3,0.8c-0.2-0.2-0.3-0.3-0.5-0.3
				c0,0.3,0.3,0.3,0.3,0.6c-0.2-0.2-0.3-0.2-0.5-0.3c0,0.2,0.3,0.3,0.3,0.5c0,0-0.2-0.2-0.2,0l0.2,0.2h-0.2c0,0.2,0.2,0.2,0.2,0.3
				c0,0,0,0-0.2,0c0,0.2,0.2,0.2,0.2,0.2c-0.8,0.8-0.3,1.7-0.5,2.7c0-0.2-0.6-0.3-1.3-0.5c-0.3-0.2-0.3-0.5-0.6-0.6c0,0,0,0,0.2-0.2
				c-0.2,0-0.2,0-0.2-0.2c0.2,0,0.3,0,0.3,0c-0.2-0.2-0.5-0.2-0.5-0.3c0.2,0,0.3,0.2,0.5,0.2c-0.2-0.2-0.6-0.3-0.6-0.5
				c0.2,0,0.5,0.3,0.8,0.2c-0.3-0.2-0.8-0.5-0.9-0.6c0.3,0.2,0.6,0.5,0.8,0.3c-0.5-0.2-0.8-0.6-1.1-0.6c0.2,0.3,0.8,0.6,0.9,0.8
				c-0.3-0.2-0.6-0.3-0.9-0.5c0.2,0.3,0.6,0.5,0.8,0.8c-0.3,0-0.5-0.2-0.8-0.2c0.2,0.3,0.6,0.3,0.8,0.5c-0.2,0-0.3,0-0.5,0
				c0,0.2,0.3,0.2,0.5,0.3c-0.2,0-0.3,0-0.5,0.2c0.2,0.2,0.3,0,0.5,0.2c-0.2,0-0.2,0-0.2,0.2s0.3,0,0.3,0.2c0,0-0.2,0-0.2,0.2h0.2
				c0,0,0,0-0.2,0.2c0.5,0.2,0.6,0.9,1.3,1.1c-0.3,0.2,0.3,0.5-3.5,1.7c0.2,0,1.6-0.3,2-0.5c0.5-0.2,0.9-0.3,1.4-0.5
				c0.2,0,0.2,0,0.3-0.2c0.8,0,1.4,0,2.2-0.5c-0.6,0.2-1.6,0.2-1.9-0.2c0.5-0.8,0.2-2.8,0.5-3.3c0.5-0.5,1.1-1.7,1.9-0.6
				c0.2,0.2,0.2,0.5-0.2,0.9c-0.3,0.6-0.6,0.8-0.5,2c0,0.3,0,0.5-0.3,0.5c1.6,0.3,2,0.2,3,0c0.3,0,0.8-0.3,0.8,0
				c0,0.2-0.3,0.2-0.6,0.2c-0.5,0,0.2,0.2,0.5,0.2c0.2,0,0.9-0.2,1.4-0.2C38.2,135.2,38,135.2,37.7,135.2z"/>
			<path class="st8" d="M33,126.8c-3.8,0-6.8,3-6.8,6.8s3,6.8,6.8,6.8c3.8,0,6.8-3,6.8-6.8S36.8,126.8,33,126.8 M33,127
				c3.6,0,6.5,2.8,6.5,6.5c0,3.6-2.8,6.5-6.5,6.5c-3.6,0-6.5-2.8-6.5-6.5C26.5,130,29.4,127,33,127"/>
		</g>
	</g>
	<g id="butylka_1">
	</g>
	<g id="vanna_2">
	</g>
	<g id="sneg">
	</g>
	<g id="zakvaska">
	</g>
	<g id="shariki_2">
	</g>
	<g id="shariki_1">
	</g>
	<g id="voronka">
	</g>
	<g id="gradusnik">
	</g>
	<g id="kolba_2">
	</g>
	<g id="kolba_1">
	</g>
	<g id="probirki">
	</g>
	<g id="lupa">
	</g>
	<g id="bidon">
	</g>
	<g id="blank">
	</g>
	<g id="ticks">
	</g>
</g>
</svg>
