<?xml version="1.0" encoding="utf-8"?>
<!-- Generator: Adobe Illustrator 19.0.0, SVG Export Plug-In . SVG Version: 6.00 Build 0)  -->
<svg version="1.1" id="Layer_1" xmlns="http://www.w3.org/2000/svg" xmlns:xlink="http://www.w3.org/1999/xlink" x="0px" y="0px"
	 viewBox="0 0 130 250" style="enable-background:new 0 0 130 250;" xml:space="preserve">
<style type="text/css">
	.st0{fill:#519E38;}
	.st1{fill:#F4F4F4;}
	.st2{fill:#D6D6D6;}
	.st3{fill:#EAEAEA;}
	.st4{fill:#FFFFFF;}
	.st5{fill:#ED3425;}
	.st6{fill:#62BA47;}
	.st7{fill:#3DAF49;}
	.st8{fill:#E2231A;}
	.st9{fill:#62BA46;}
</style>
<g id="_x33_">
	<g id="XMLID_169_">
		<path id="XMLID_174_" class="st0" d="M110,215.7c0,0,0-64.1,0-99c0-34.9-14.4-48.3-14.4-48.3c3.9-21.6-6.4-28-6.4-28v-7.8h2.2
			c0,0,0-8.3,0-11.1c0-2.8-3.9-2.5-3.9-2.5H73.1h-1.3H57.6c0,0-3.9-0.3-3.9,2.5c0,2.8,0,11.1,0,11.1h2.4v7.8h-0.2
			c0,0-10.3,6.6-6.4,28c0,0-14.4,13.3-14.4,48.1s0,99,0,99s-1.4,21.3,14.3,21.3c4.2,0,7.8,0,10.8,0c8,0,11.8,0,11.8,0h0.8h0.8l0,0
			H85l0,0c3,0,6.4,0,10.7,0l0,0C111.5,237,110,215.7,110,215.7z"/>
		<path id="XMLID_173_" class="st1" d="M102.4,210.7c0,0,0-64.1,0-99S88,63.5,88,63.5c3.9-21.6-6.4-28-6.4-28v-8H48.5v8l0,0
			c0,0-10.3,6.6-6.6,28c0,0-14.4,13.3-14.4,48.1c0,34.9,0,99,0,99S26.1,232,41.8,232c4.2,0,7.8,0,10.8,0c8,0,11.8,0,11.8,0h1.6h11.8
			c3,0,6.6,0,10.8,0C103.8,232,102.4,210.7,102.4,210.7z"/>
		<path id="XMLID_172_" class="st2" d="M79.7,14H65.5h-1.3H50.1c0,0-3.9-0.3-3.9,2.5c0,2.8,0,11.1,0,11.1h18h1.3h18
			c0,0,0-8.3,0-11.1C83.6,13.7,79.7,14,79.7,14z"/>
		<path id="XMLID_171_" class="st3" d="M102.3,210.7c0,0,0-64.1,0-99S87.9,63.5,87.9,63.5c3.9-21.6-6.4-28-6.4-28v-8H65V232h0.8
			h11.8c3,0,6.6,0,10.8,0C103.8,232,102.3,210.7,102.3,210.7z"/>
		<path id="XMLID_170_" class="st4" d="M39.8,100c-0.2,0-0.3,0-0.5,0c-2.2-0.3-3.9-2.4-3.6-4.7c1.9-14.3,8.8-23,9.1-23.3
			c1.4-1.7,4.1-2,5.8-0.6c1.7,1.4,2,4.1,0.6,5.8c-0.2,0.2-5.8,7.4-7.4,19.3C43.5,98.6,41.8,100,39.8,100z"/>
	</g>
	<g id="XMLID_2_">
		<circle id="XMLID_168_" class="st5" cx="65.6" cy="142.2" r="19.4"/>
		<circle id="XMLID_167_" class="st6" cx="50.1" cy="159.3" r="6.1"/>
		<g id="XMLID_72_">
			<path id="XMLID_166_" class="st4" d="M46,158.3c0.2-0.6,0.6-0.2,0.8,0.2c0.2,0.5,0,0.9-0.3,1.3c-0.2,0.3-0.5,0.5-0.8,0.8
				c-0.2,0.2-0.3,0.2-0.3,0.3c0,0-0.2,0.2,0,0.2c0.2,0.2,0.6,0.2,0.9,0.2c0.5,0,0.9,0,1.4-0.2c0.3-0.2,0.5-0.6,0-0.5
				c-0.3,0.2-0.8,0.2-1.1,0.2c-0.2,0-0.6,0-0.8-0.2c0,0.2,0,0.2,0,0.3c-0.2,0.3,0,0.2,0,0c0.2-0.2,0.3-0.2,0.3-0.3
				c0.2-0.2,0.5-0.5,0.6-0.6c0.3-0.5,0.6-0.9,0.5-1.6c-0.3-1.3-1.7-0.3-1.9,0.3C45.4,159,46,158.6,46,158.3L46,158.3z"/>
			<path id="XMLID_165_" class="st4" d="M49.5,160.5c0.5,1.4,2.7,0.5,2.4-0.8c-0.2-0.6-0.9-0.6-1.4-0.8c-0.3-0.2-0.3-0.3-0.3-0.6
				c0.2-0.3,0.2-0.3-0.2-0.2c0.2,0,0.2,0,0.3,0c0.5-0.2,0.9,0,1.4,0.2c0.2,0.2,0.6-0.5,0.5-0.5c-0.5-0.3-1.3-0.2-1.7-0.2
				c-0.5,0.2-0.6,0.6-0.6,1.1c0,0.6,0.6,0.8,1.1,0.8c0.3,0,0.6,0.2,0.8,0.6c0,0.6-0.6,0.6-0.9,0.3c-0.2-0.2-0.3-0.3-0.3-0.5
				C49.9,159.9,49.3,160.4,49.5,160.5L49.5,160.5z"/>
			<g id="XMLID_161_">
				<path id="XMLID_164_" class="st4" d="M54.6,157.9c-0.6,1.1-1.4,2-2.2,3c-0.3,0.5,0.2,0.5,0.5,0.2c0.8-0.9,1.6-2,2.2-3.1
					C55.3,157.4,54.6,157.7,54.6,157.9L54.6,157.9z"/>
				<path id="XMLID_163_" class="st4" d="M53.4,157.5c-0.3,0-0.6,0.3-0.8,0.8c0,0.3,0.2,0.6,0.5,0.6C53.9,159,54.3,157.7,53.4,157.5
					c-0.2,0-0.5,0.5-0.2,0.5c0.2,0,0.3,0.2,0.3,0.3v0.2l0,0c0,0,0,0-0.2,0s-0.3-0.2-0.3-0.3V158l0,0c0,0,0,0,0.2,0
					C53.4,158,53.7,157.5,53.4,157.5z"/>
				<path id="XMLID_162_" class="st4" d="M54.5,159.7c-0.3,0-0.6,0.3-0.8,0.8c0,0.3,0.2,0.6,0.5,0.6C55,161.1,55.3,159.9,54.5,159.7
					c-0.2,0-0.5,0.5-0.2,0.5c0.2,0,0.3,0.2,0.3,0.3v0.2l0,0c0,0,0,0-0.2,0c-0.2,0-0.3-0.2-0.3-0.3v-0.2l0,0c0,0,0,0,0.2,0
					C54.5,160.2,54.8,159.7,54.5,159.7z"/>
			</g>
			<path id="XMLID_160_" class="st4" d="M48.5,161.9c0.3-0.3,0.5-0.6,0.5-0.9c0-0.2,0-0.3,0-0.3c-0.2-0.2-0.3,0-0.5,0
				c-0.2,0-0.3,0.3-0.3,0.5s0.2,0.2,0.3,0.2l0,0l0,0v0.2c0,0.2,0,0.2-0.2,0.2l0,0l0,0l0,0l0,0c-0.2,0-0.3,0.3-0.2,0.5
				C48.2,162.1,48.5,161.9,48.5,161.9L48.5,161.9z"/>
		</g>
		<g id="XMLID_63_">
			<g id="XMLID_64_">
				<g id="XMLID_65_">
					<path id="XMLID_67_" class="st4" d="M80.7,145.9c-0.3-0.2-0.6,0-0.8,0.3c-0.2-0.5,0.2-1.4,0.2-1.9c0.3-1.4,0.3-2.7,0-3
						c-0.3-0.3-0.9-0.2-1.3-0.2c-0.2,0.2-0.3,0.2-0.5,0.3c0-0.3-0.2-0.6-0.3-0.9c-0.3-0.3-0.8-0.3-0.9-0.2c-0.2,0.2-0.5,0.2-0.6,0.3
						c0-0.2,0-0.3,0-0.5s0-0.2,0-0.2s-0.2,0-0.2-0.2h-0.2c-0.2,0-0.5,0.2-0.6,0.2c-0.2,0.2-0.2,0.2-0.3,0.3c-0.3,0.3-0.6,0.2-0.9,0
						c-0.3-0.2-0.5-0.3-0.6-0.6c-0.2-0.2-0.2-0.3-0.3-0.3c-0.5-0.3-0.9-0.2-1.4,0c0-0.3,0-0.8,0-1.1c0-0.3-0.6-0.2-0.8,0
						s-0.5,0.3-0.5,0.5c0,0-0.5,1.7-1.4,3.1c0-0.9,0.2-1.9,0.2-2.8c0-0.2,0-0.2-0.2-0.3c-0.2,0-0.3,0-0.3,0
						c-0.3,0.2-0.6,0.3-0.6,0.6c-0.2,1.3-0.3,4.1-1.1,4.1c-0.8,0-0.5-3.3-0.3-4.7c0-0.2-0.2-0.3-0.3-0.2c-0.2,0-0.3,0-0.3,0
						c-0.3,0.2-0.6,0.5-0.6,0.8c-0.2,0.9-0.3,1.9-0.6,2.7c-0.2,0.5-0.5,1.4-1.1,1.4c-0.6,0-0.6-0.6-0.5-1.1c0.2-0.5,0.5-0.9,0.8-1.3
						c0.3-0.5,0.5-0.9,0.5-1.3c0-0.6-0.3-1.1-0.9-1.3c-0.6,0-1.3,0.3-1.7,0.8c-0.2,0.2-0.3,0.3-0.5,0.3c-0.5,0-0.8-0.3-0.9-0.3
						c-0.2-0.2-0.5-0.3-0.9-0.2c-1.4,0.5-1.7,2-1.6,3.3c0,0.8,0,1.4-0.2,1.7c-0.5,0-0.8-0.5-0.9-0.9c-0.3-0.8-0.5-1.6-0.6-2.5
						c-0.2-1.1-0.2-2.4-0.2-3.6c0-0.3-0.5-0.2-0.6,0c-0.3,0.3-0.6,0.6-0.6,0.9c0,1.4,0.2,3,0.2,4.4c0,0.8,0,1.6-0.2,2.2
						c-0.2,0.3-0.3,0.3-0.5,0.3c-0.5-0.2-0.6-0.6-0.8-1.1c-0.2-0.6-0.3-1.4-0.3-2.2c0-0.8,0-1.4-0.2-2.2c0-0.5,0-0.9-0.3-1.4
						c-0.5-0.6-1.6,0.5-1.9,0.9c-0.6,0.8-0.8,1.6-0.9,2.5c0,0.3,0.2,0.5,0.5,0.2c0.3-0.3,0.6-0.6,0.6-1.1c0-0.3,0.2-1.1,0.5-1.3l0,0
						l0,0c0,0,0,0,0,0.2c0,0.2,0.2,0.3,0.2,0.6c0.2,1.4,0.2,2.8,0.5,4.2c0.2,0.9,0.6,2.4,2,2c0.8-0.2,1.3-1.1,1.6-1.7c0,0,0,0,0-0.2
						c0.3,0.6,0.8,1.1,1.7,0.9c0.6-0.2,0.8-0.6,0.9-1.3c0.3,0.5,0.6,0.8,1.1,0.8c0.6,0,1.1-0.8,1.4-1.3c0.3-0.6,0.3-1.3,0.3-2
						c0-0.3,0-0.8-0.2-1.1c0.2,0,0.3,0,0.5-0.2c0.3-0.2,0.6-0.6,0.9-0.8c0.2,0,0.3,0,0.5,0c0.9,0.5-0.5,1.6-0.9,2.4
						c-0.3,0.6-0.6,1.6,0,2c0.8,0.9,2.4,0.2,3-0.6c0.2-0.2,0.3-0.5,0.5-0.6c0,0.6,0.2,1.6,1.1,1.6c0.5,0,0.8-0.2,1.1-0.5
						c-0.5,0.6-0.8,1.4-1.3,2c-0.3,0.6-0.6,1.3-0.6,1.9c0,0.8,0.9,1.3,1.6,0.8c0.6-0.3,1.1-1.1,1.3-1.9c0.3-1.3,0.3-2.5,0.3-3.8
						c0.6-0.9,1.1-1.6,1.6-2.8c0,1.3-0.2,2.5-0.2,3.8c-0.2,1.4-0.3,2.8-0.5,4.1c0,0.3,0.3,0.3,0.5,0.2c0.3-0.2,0.6-0.3,0.6-0.6
						c0.2-1.1,0.3-2,0.5-3.1c0.5,0,0.8,0,1.3-0.3c0.9-0.6,1.3-1.7,1.3-2.7c0-0.2,0-0.3,0-0.5c0.5,0.2,0.8,0,1.1-0.2
						c-0.2,1.3-0.5,2.7-0.6,3.9c-0.2,0.6,1.1,0.2,1.1-0.3c0.2-1.1,0.5-2.4,1.1-3.4c0-0.2,0.2-0.2,0.2-0.3l0,0c0.2,0.8,0,1.6-0.2,2.2
						c0,0.3-0.2,0.6-0.2,0.9c-0.2,0.5-0.2,0.8-0.3,1.3c-0.2,0.6,1.1,0.2,1.1-0.3c0.2-0.3,0.2-0.8,0.3-1.1c0.3-0.9,0.6-1.7,1.1-2.5
						c0.2,0.5,0,0.9,0,1.3c0,0.6-0.2,1.1-0.3,1.7c-0.2,0.5-0.2,0.9,0,1.4c0.3,0.9,1.7,0.2,2-0.2C81,146.3,81,145.9,80.7,145.9z
						 M60.1,143.8c0,0.2,0,0.3-0.2,0.3c-0.3,0-0.5-0.3-0.5-0.5c-0.2-0.5-0.3-0.9-0.3-1.4s0-0.9,0-1.4c0-0.2,0-0.3,0.2-0.3
						c0.2,0,0.2,0.2,0.3,0.2c0.3,0.3,0.5,1.4,0.6,1.7C60.3,142.8,60.3,143.3,60.1,143.8z M68,146.1c0,0.5,0,1.1-0.2,1.6
						c0,0.2,0,0.3-0.2,0.3c0,0-0.2,0-0.3-0.2c-0.3-0.3-0.2-0.8,0-1.1c0.2-0.5,0.5-0.9,0.8-1.6C68,145.6,68,145.9,68,146.1z
						 M72.5,144.2L72.5,144.2C72.4,144.2,72.4,144.2,72.5,144.2c-0.5,0-0.6-0.5-0.6-0.8c0-0.8,0.2-1.6,0.2-2.4l0,0
						c0-0.3,0-0.5,0.2-0.6l0,0l0,0c0.2,0,0.3,0.2,0.3,0.3c0.3,0.5,0.3,1.3,0.3,1.7C72.8,143,72.8,143.6,72.5,144.2z"/>
					<path id="XMLID_66_" class="st4" d="M53.9,137.3c0.8-0.3,1.4-0.9,1.9-1.6c0.2-0.2,0.5-0.6,0.2-0.8c-0.3-0.2-0.6,0.3-0.8,0.5
						c-0.2,0.3-0.3,0.6-0.6,0.8c-0.3,0.2-0.8,0-0.9-0.2c-0.3-0.3-1.4,0.8-1.1,1.1S53.2,137.5,53.9,137.3z"/>
				</g>
			</g>
		</g>
		<path id="XMLID_62_" class="st5" d="M56.5,118.4c0,1.4-1.1,2.5-2.5,2.5c-1.4,0-2.5-1.1-2.5-2.5c0-1.4,1.1-2.5,2.5-2.5
			C55.4,115.9,56.5,117,56.5,118.4L56.5,118.4z"/>
		<path id="XMLID_61_" class="st6" d="M56.7,126.7c0,1.7-1.4,3.1-3.1,3.1c-1.7,0-3.1-1.4-3.1-3.1s1.4-3.1,3.1-3.1
			C55.3,123.5,56.7,125,56.7,126.7L56.7,126.7z"/>
		<path id="XMLID_60_" class="st6" d="M48.1,121.8c0,1.1-0.8,1.9-1.9,1.9c-1.1,0-1.9-0.8-1.9-1.9c0-1.1,0.8-1.9,1.9-1.9
			C47.3,119.9,48.1,120.7,48.1,121.8L48.1,121.8z"/>
		<g id="XMLID_46_">
			<circle id="XMLID_59_" class="st6" cx="82.2" cy="124.5" r="10.7"/>
			<g id="XMLID_47_">
				<path id="XMLID_56_" class="st4" d="M79.6,122.9c-0.9,0.2-1.1,1.1-1.1,1.9l0,0l0,0c0,0.2,0,0.2,0,0.3c0,0.3,0,0.6,0,0.9
					c0,0.2,0,0.5-0.2,0.5c-0.3,0-0.6-0.5-0.6-0.6c-0.2-0.5-0.3-1.1-0.5-1.7c-0.2-0.6-0.2-1.3-0.2-1.9c0-0.3,0-0.5,0-0.8
					c0-0.2,0-0.2,0-0.3V121c0.2-0.5-0.6,0-0.6,0.2c-0.8,1.3-0.5,2.7-0.5,4.1c0,0.3,0,0.8,0,1.1c0,0.3-0.2,0.6-0.3,0.9
					c-0.2,0.2-0.3,0-0.5,0c-0.2-0.2-0.3-0.3-0.3-0.5s-0.3-0.2-0.3,0c-0.2,0.2-0.3,0.5-0.3,0.6c0.2,0.5,0.5,0.9,0.9,0.8
					c0.8-0.2,1.1-1.3,1.3-1.9c0.2-0.3,0.2-0.8,0.2-1.1c0.2,0.5,0.3,1.1,0.5,1.6c0.2,0.3,0.5,0.8,0.9,0.6c0.3,0,0.6-0.5,0.8-0.8
					c0.2,0.3,0.5,0.6,0.8,0.6c0.5,0,0.8-0.5,0.9-0.8c0.2-0.5,0.3-0.9,0.3-1.4C80.7,124.2,80.5,122.8,79.6,122.9z M79.9,126
					c0,0.2,0,0.2,0,0.3c-0.2,0-0.3-0.3-0.3-0.3c-0.2-0.3-0.2-0.6-0.2-0.9c0-0.3,0-0.6,0-0.9c0-0.2,0-0.2,0-0.3
					c0.5,0.3,0.5,0.8,0.6,1.3C79.9,125.3,79.9,125.7,79.9,126z"/>
				<path id="XMLID_53_" class="st4" d="M90.2,124.2c-0.9-0.3-1.6,0.9-1.7,1.7c-0.2,0.6-0.3,1.9,0.5,2.2c0.5,0.2,0.9-0.2,1.1-0.5
					c0.3-0.3,0.5-0.8,0.6-1.3C90.8,125.7,91.2,124.5,90.2,124.2z M89.6,127.3l-0.2,0.2c-0.2-0.2-0.2-0.3-0.2-0.5c0-0.3,0-0.6,0-0.9
					c0-0.3,0.2-0.6,0.3-0.9l0.2-0.2c0.3,0.5,0.3,0.9,0.2,1.6C89.9,126.7,89.7,127,89.6,127.3z"/>
				<path id="XMLID_48_" class="st4" d="M87.6,124.3c0.2-0.3,0.3-0.5,0.5-0.8c0.3-0.5,0.6-1.1,0.6-1.9c0-0.6-0.9-0.6-1.3-0.5
					c-0.6,0.3-0.9,0.9-1.1,1.6c-0.2,0.8-0.3,1.7-0.5,2.5l0,0c-0.3,0.3-0.9,1.1-1.4,0.8c-0.2,0-0.2-0.3-0.2-0.3
					c0.5-0.5,0.8-0.8,1.1-1.3c0.3-0.5,0.5-1.1,0-1.4c-0.5-0.3-1.1,0-1.4,0.5c-0.3,0.3-0.5,0.9-0.5,1.4c0,0.3,0,0.6,0,1.1
					c-0.3,0.2-0.6,0.3-0.9,0.2c-0.3,0-0.5-0.5-0.6-0.8c-0.2-0.5,0-0.9,0-1.4c0-0.2,0-0.3,0.2-0.5c0,0,0,0,0-0.2
					c0.2,0.2,0.3,0.5,0.3,0.6c0.2,0.3,0.9-0.2,0.8-0.5c-0.2-0.3-0.2-0.6-0.6-0.8c-0.3-0.2-0.8,0.2-0.9,0.3c-0.6,0.6-0.6,1.4-0.6,2.2
					c0,0.5,0.2,1.1,0.6,1.4c0.6,0.3,1.4,0,1.9-0.3c0.2,0.3,0.5,0.6,0.9,0.6c0.6-0.2,1.1-0.3,1.6-0.8c0,0.5,0.2,0.9,0.5,1.1
					c0.5,0.3,1.1,0,1.4-0.5c0.5-0.6,0.6-1.3,0.5-2C88.2,124.5,87.9,124.3,87.6,124.3z M84.4,124c0-0.2,0.2-0.3,0.2-0.3l0,0
					c0.2,0,0.3,0.3,0.3,0.5c0,0.3-0.3,0.8-0.6,1.1v-0.2C84.3,124.6,84.3,124.3,84.4,124z M87.6,122.3c0-0.2,0.2-0.3,0.3-0.3l0,0
					c0.3,0.5,0,0.9-0.2,1.4c-0.2,0.3-0.5,0.8-0.6,1.1c0-0.3,0.2-0.8,0.2-1.1C87.2,122.9,87.2,122.6,87.6,122.3z M87.2,126.5
					c0,0,0,0.2-0.2,0.2c0,0,0,0-0.2,0c-0.3-0.2-0.3-0.6-0.3-0.8s0-0.3,0-0.6c0.2-0.2,0.2-0.2,0.3-0.3c0.2-0.2,0.3,0.2,0.5,0.3
					C87.6,125.7,87.4,126.2,87.2,126.5z"/>
			</g>
		</g>
		<g id="XMLID_33_">
			<g id="XMLID_34_">
				<path id="XMLID_45_" class="st4" d="M61.9,155c0,0.6-0.2,1.4-0.3,2c0,0.3,0.6,0,0.6-0.2c0.2-0.6,0.3-1.1,0.6-1.6
					c0.2-0.2,0.2,0,0,0c0.2,0,0.2,0.2,0.2,0.2c0,0.2,0,0.5,0,0.8c0,0.3-0.3,0.8,0,1.1c0.2,0.3,0.6,0.2,0.8,0c0.3-0.2,0.3-0.5,0-0.3
					c-0.5,0.2-0.2-0.9-0.2-1.3c0-0.3,0.2-0.9-0.3-0.9c-0.9,0-1.4,1.6-1.6,2.2c0.2,0,0.5-0.2,0.6-0.2c0.2-0.8,0.3-1.4,0.3-2.2
					C62.3,154.7,61.9,154.9,61.9,155L61.9,155z"/>
				<path id="XMLID_44_" class="st4" d="M61.7,156.4c-0.3,0.5-0.6,0-0.6-0.3c0-0.5,0.2-0.9,0.3-1.4c0-0.3-0.5,0-0.5,0.2
					c-0.2,0.3-0.2,0.6-0.3,0.9c0,0.2-0.2,0.3-0.2,0.5c-0.2,0.2-0.2,0.3-0.3,0c-0.5-0.5,0.2-1.4,0.5-1.9c0.2-0.3-0.3-0.2-0.5,0
					c-0.2,0.3-1.3,2-0.3,2.2c1.3,0.3,1.4-1.4,1.6-2c-0.2,0-0.3,0-0.5,0.2c-0.2,0.5-0.3,0.9-0.3,1.3c0,0.3-0.2,0.6,0.2,0.9
					c0.2,0.2,0.5,0.2,0.6,0c0.5-0.2,0.6-0.3,0.9-0.6C62.3,156.1,61.7,156.4,61.7,156.4L61.7,156.4z"/>
				<g id="XMLID_40_">
					<path id="XMLID_43_" class="st4" d="M58.9,154.1c-0.2,0.5-0.5,0.9-0.8,1.3l-0.2,0.2c-0.2,0.2-0.2,0,0,0.2c0-0.2,0-0.2,0-0.3
						c0-0.6,0.5-1.1,0.6-1.7c-0.2,0-0.3,0-0.6,0l0,0c-0.2,0.2,0.5,0.2,0.6,0l0,0c0.2-0.3-0.5-0.2-0.6,0c-0.2,0.3-0.5,0.8-0.6,1.3
						c0,0.2-0.3,0.8,0,0.9c0.3,0.3,0.8,0,0.9-0.2c0.5-0.5,0.8-1.1,1.1-1.6C59.5,153.8,59,153.9,58.9,154.1L58.9,154.1z"/>
					<path id="XMLID_42_" class="st4" d="M59,156c-0.3,0.2-0.2-0.8,0-0.8c0.2-0.3,0.3-0.8,0.5-1.1c0.2-0.3-0.5-0.2-0.5,0
						c-0.3,0.6-0.6,1.1-0.6,1.7c0,0.5,0.5,0.6,0.9,0.5C59.5,156.1,59.3,155.8,59,156L59,156z"/>
					<path id="XMLID_41_" class="st4" d="M57.9,153.6c-0.2,0.3-0.3,0.6-0.5,0.9c-0.2,0.2-0.2,0.3-0.3,0.5l-0.2,0.2c0.2,0,0,0,0-0.2
						c-0.2-0.3,0.2-0.6,0.2-0.9c0.2-0.3,0.3-0.5,0.6-0.8c0.2-0.3-0.3-0.3-0.5-0.2c-0.3,0.3-1.6,1.7-0.6,2.2c1.1,0.5,1.7-1.3,2-1.7
						C58.7,153.5,58.1,153.5,57.9,153.6L57.9,153.6z"/>
				</g>
				<path id="XMLID_39_" class="st4" d="M66.2,156.1c0.5-0.5,0.5,1.9,0,0.6c-0.2-0.6-0.2-1.3-0.2-1.9c0-0.2,0-0.5,0.2-0.6
					c0.2,0,0.2,0,0.2,0.2s0,0.3,0,0.5c-0.2,0.5-0.3,1.1-0.6,1.6c-0.2,0.3,0.3,0.2,0.5,0c0.2-0.3,1.1-2.8,0.3-2.8
					c-0.9,0-0.9,2-0.9,2.7c0,0.3,0,1.3,0.5,1.4c0.5,0,0.8-0.3,0.9-0.5c0.3-0.5,0.2-1.1-0.2-1.4c-0.3-0.3-0.8,0.2-0.9,0.5
					C65.6,156.3,66.1,156.3,66.2,156.1L66.2,156.1z"/>
				<path id="XMLID_38_" class="st4" d="M64.7,155c-0.6,0-0.8,0.6-0.9,1.1c-0.2,0.3-0.2,1.4,0.5,1.4c0.6,0.2,0.9-0.6,1.1-1.1
					C65.3,156.1,65.3,155,64.7,155c-0.2,0-0.5,0.5-0.3,0.5c0.3,0,0.3,0.5,0.5,0.8c0,0.2,0,0.3,0,0.6c0,0.2,0,0.2,0,0.3
					c0,0-0.2,0.2,0,0.2c-0.3,0.2-0.5-0.6-0.5-0.8s0-0.3,0-0.6c0-0.2,0-0.2,0.2-0.3c0-0.2,0.2-0.2,0-0.2C64.7,155.5,65,155,64.7,155z
					"/>
				<path id="XMLID_37_" class="st4" d="M67.2,155.2c0.2,0.8,0.3,1.4,0.3,2.2c0,0.3,0.5-0.2,0.5-0.3c0-0.5,0-0.6,0.3-1.1
					c0.3-0.5,0.3-0.8,0.3-1.3c0-0.3-0.5,0-0.5,0.3c-0.2,0.6,0,1.4,0.3,2c0.3,0.6,1.1-0.3,1.4-0.6c0.2-0.3-0.2-0.5-0.3-0.2
					c0,0-0.3,0.6-0.5,0.5s-0.2-0.3-0.3-0.6c-0.2-0.5-0.2-0.9-0.2-1.4c-0.2,0.2-0.3,0.2-0.5,0.3c0,0.5-0.2,0.8-0.5,1.3
					c-0.3,0.3-0.3,0.8-0.3,1.3c0.2-0.2,0.3-0.2,0.5-0.3C67.8,156.4,67.5,155.8,67.2,155.2C67.7,154.7,67.2,155,67.2,155.2
					L67.2,155.2z"/>
				<path id="XMLID_36_" class="st4" d="M71.7,155.7c0,0.2,0,0.2-0.2,0.3c-0.2,0.2,0,0,0,0c-0.2,0.2-0.3-0.2-0.5-0.3
					c-0.3-0.5-0.5-0.9-0.6-1.6c0-0.3-0.5,0.2-0.3,0.5c0.2,0.3,0.2,0.6,0.3,0.9c0,0.2,0,0.3,0.2,0.5c0,0.2,0,0.3-0.2,0.2
					c-0.6-0.2-0.6-1.3-0.6-1.7c0-0.3-0.5,0.2-0.5,0.3c0,0.5,0,2.4,1.1,2c1.1-0.5,0.3-2,0.2-2.7c-0.2,0.2-0.3,0.3-0.3,0.5
					c0.2,0.6,0.3,1.6,0.9,1.9c0.5,0.3,0.9-0.8,0.9-0.9C72.2,155.2,71.9,155.3,71.7,155.7L71.7,155.7z"/>
				<path id="XMLID_35_" class="st4" d="M71.3,154.1c0.5,0.6,0.6,1.3,0.8,2c0,0.2,0.5-0.3,0.3-0.5c-0.2-0.3-0.2-0.6-0.2-0.9
					c0-0.2-0.2-0.6,0.2-0.6c0-0.2,0.2-0.3,0.2-0.5c-0.9,0-0.8,1.3-0.6,1.7c0,0.2,0.2,0,0.2,0c0.5-0.5,0.5,0.9,1.1,0.3
					c0.5-0.3,0.6-0.9,0.6-1.4c0-0.3-0.3,0-0.3,0.2c0,0.3,0,0.6-0.3,0.8c0,0.2-0.5-0.3-0.5-0.5c-0.3-0.3-0.5-0.2-0.8,0.2H72
					c0-0.2-0.3-0.8,0.2-0.8c0.2,0,0.3-0.5,0.2-0.5c-1.3-0.2-0.6,2-0.5,2.5c0.2-0.2,0.3-0.3,0.3-0.5c-0.3-0.6-0.5-1.4-0.9-2
					C71.4,153.6,71.1,154.1,71.3,154.1L71.3,154.1z"/>
			</g>
		</g>
		<g id="XMLID_8_">
			<path id="XMLID_32_" class="st7" d="M83.2,161.6c0,0,0.2-0.5,1.3-0.2c1.1,0.3,3.4-0.5,3.9-0.8c0.5-0.3,0,0,0,0l-1.3-2.4l-0.6,0.5
				h-0.2v0.2h-0.5l0.2,0.2l-0.6,0.2l0.3,0.2l-0.5,0.2l0.2,0.2l-0.5,0.2L85,160l-0.3,0.2v0.2h-0.3v0.2h-0.2v0.2h-0.3v0.2l-0.3,0.2
				h0.2l-0.5,0.2l0.2,0.2L83.2,161.6h0.2C83.6,161.1,83.2,161.3,83.2,161.6z"/>
			<path id="XMLID_31_" class="st7" d="M91.9,157.2v-0.2l0.2,0.2v-0.2h0.3l0.2-0.2h0.2l0.3-0.2l0.2,0.2l0.2-0.2l0.2,0.3l0.5-0.3
				l0.2,0.2h0.2v0.2c0,0,0.2,0,0.5-0.2v0.2h0.3v0.2h0.2l0,0l0.3-0.2v0.2l0.3-0.2v0.2H96l0.2,0.2h0.2l0.2,0.2l0.2-0.2l0.2,0.2
				l0.3-0.2v0.2l0.3-0.2v0.2c0,0,0.2-0.2,0.5-0.2c0,0-0.6,0.5-0.6,0.6v0.2H97l0,0l-0.2,0.2v0.2l-0.3,0.2v0.2l-0.3,0.2v0.2l-0.2,0.2
				l-0.2,0.2h-0.3l-0.2,0.2l-0.5,0.2C94.8,159.4,91.6,158.2,91.9,157.2z"/>
			<polyline id="XMLID_30_" points="89.3,155.5 91.5,156 91.9,156.3 91.9,157.5 91.9,157.9 92.4,157.5 92.3,156.3 92.6,156 
				92.3,155.7 91.9,155.8 91.8,155.7 89.3,155.2 			"/>
			<polygon id="XMLID_29_" points="89.4,155.5 91.6,155.8 91.9,156 91.8,155.7 			"/>
			<path id="XMLID_28_" class="st7" d="M96.6,156.8c0,0,1.3-1.1,2.5-0.6c0,0-0.3-0.5-0.8-0.3l0.2-0.3l-0.6,0.3v-0.2l-0.3,0.2v-0.3
				h-0.5l-0.2-0.2l-0.3,0.2l-0.2-0.2C96.6,155.3,97,156.3,96.6,156.8z"/>
			<path id="XMLID_27_" d="M91.3,155.7l0.2-0.3l-0.2-0.6l0.3,0.6l0.8-0.3l0.9-1.4c0,0,0.2-0.2,0.2,0.2l-0.9,1.3l0.2,0.3l-0.2,0.2
				h-0.2l-0.6,0.3v0.3L91.3,155.7z"/>
			<path id="XMLID_26_" class="st7" d="M90.1,160.2L90.1,160.2l-0.3,0.2v0.2h-0.2l0.2,0.2v0.2h0.2v0.2h0.2v0.2h0.2l0.2,0.2l0.2-0.2
				l0.2,0.3l0.2-0.2l0.2,0.2l0.2-0.2l0.2,0.2v-0.2l0.2,0.2l0.2-0.2l0.3,0.2l0.2-0.2l0.2,0.2v-0.2l0.3,0.2l0.2-0.2l0.3,0.2v-0.2
				l0.3,0.2l0.2-0.2l0.5,0.2l0.2-0.2c0,0,0.3,0.2,0.5,0.2c0.2,0,0-0.2,0-0.2s0.5,0.2,0.6,0v-0.2c0,0,0.2,0,0.3,0V161
				c0,0,0.6,0.2,1.3-0.3l-0.5,0.2l0.2-0.3l-0.3,0.2c0,0-0.2-0.2,0-0.2l-0.2-0.2l0.2-0.2l-0.3-0.2v-0.2h-0.3l0.2-0.2h-0.3v-0.2h-0.2
				l0.2-0.2h-0.3l-0.2-0.3h-0.2l0.2-0.2l-0.5-0.2l0.2-0.2l-0.5-0.2l0.2-0.2H94v-0.2h-0.3l0.2-0.2h-0.5c0,0,0-0.2,0.2-0.2
				c0.2,0-0.2-0.2-0.3,0s-0.2-0.2,0.2-0.2c0.2,0-0.5,0-0.5,0l0.2-0.2h-0.3v-0.2l-0.2,0.2v-0.2h-0.2l-0.3-0.2c0,0-0.3,0.3-0.3,0
				s-0.9,0.6,0,2C91.3,159.6,90.2,159.9,90.1,160.2z"/>
			<path id="XMLID_25_" class="st8" d="M89.6,155.7c-0.6,0.9-1.7,1.3-2.7,0.8c-0.8-0.6-0.9-1.9-0.3-2.8c0.6-0.9,1.7-1.3,2.7-0.8
				C89.9,153.5,90.1,154.7,89.6,155.7z"/>
			
				<ellipse id="XMLID_24_" transform="matrix(-0.9999 -1.680413e-02 1.680413e-02 -0.9999 174.8761 318.9452)" class="st8" cx="88.8" cy="158.7" rx="2.4" ry="2"/>
			
				<ellipse id="XMLID_23_" transform="matrix(-0.9999 -1.622768e-02 1.622768e-02 -0.9999 186.9004 313.9582)" class="st8" cx="94.7" cy="156.2" rx="2.2" ry="2"/>
			
				<ellipse id="XMLID_22_" transform="matrix(-0.9479 -0.3185 0.3185 -0.9479 119.4574 327.7175)" cx="86.5" cy="154.1" rx="0.5" ry="0.6"/>
			<ellipse id="XMLID_21_" cx="95.9" cy="156" rx="0.8" ry="0.8"/>
			<ellipse id="XMLID_20_" cx="87.1" cy="158.6" rx="0.6" ry="0.6"/>
			<path id="XMLID_19_" d="M86.9,153.8c0,0-0.2-1.1-1.4-1.4c0,0,1.4,0.5,1.1,2c0,0-0.8,0-1.4-0.8c-0.6-0.8-1.6-0.8-1.6-0.8
				s1.3,0.3,1.6,0.9c0,0,0.3,1.1,1.4,0.6"/>
			<path id="XMLID_18_" d="M86.8,154.4c0,0-1.7,0.2-2.7-1.1c0,0,1.1,0.9,2.2,0.8c0,0,0-0.6-0.8-0.8s-1.1-0.9-1.1-0.9
				s0.6,0.5,1.1,0.5c0,0,1.3,0.2,1.4,1.1"/>
			<g id="XMLID_15_">
				<path id="XMLID_17_" d="M95.2,155.8c0.3-0.9,0.8-0.8,0.8-0.8c0.3,0.2,0.8-0.2,0.8-0.2s-0.3,0.6-0.9,0.5
					C95.2,155.3,95.2,156,95.2,155.8c0.9,0.9,1.7,0.3,1.7,0.3c-0.6,0.6-1.6,0.5-1.6,0.5S95.1,156.3,95.2,155.8z"/>
				<path id="XMLID_16_" d="M95.7,155.5c0,0,0.8-0.2,1.1,0c0,0-0.6-0.3-1.4,0.3c0,0,0,0.5,0.5,0.3s0.6,0.2,0.6,0.2s-0.3-0.2-0.6,0
					c0,0-0.6,0.3-0.6-0.3C95.4,156,95.2,155.7,95.7,155.5z"/>
			</g>
			<g id="XMLID_12_">
				<path id="XMLID_14_" d="M87.6,158.3c0,0-0.5-0.9-1.7-0.6c0,0,1.1-0.2,1.6,0.9c0,0-0.3,0.6-0.8,0.3c-0.5-0.3-1.1,0.2-1.1,0.2
					s0.6-0.2,0.8,0.2c0,0,0.6,0.6,1.1-0.3"/>
				<path id="XMLID_13_" d="M87.4,158.6c0,0-0.2,0.9-1.7,0.6c0,0,0.8,0.3,1.4-0.5c0,0-0.2-0.5-0.6-0.3c-0.5,0.2-0.8-0.2-0.8-0.2
					s0.5,0.2,0.6,0C86.5,158.2,87.2,157.7,87.4,158.6"/>
			</g>
			<polyline id="XMLID_11_" points="92.7,154.4 92.6,154.3 92.7,154.3 			"/>
			<polyline id="XMLID_10_" points="90.5,155.8 90.5,156.1 90.7,155.8 			"/>
			<polyline id="XMLID_9_" points="90.2,155.3 90.1,155 90.2,155.5 			"/>
		</g>
		<g id="XMLID_3_">
			<path id="XMLID_7_" class="st9" d="M42.1,133.9c-0.2,0-0.2-0.2-0.3-0.2c-0.5-0.2-0.8,0.2-1.1,0.2c-0.9,0-1.3,0-2.4-0.3
				c0-0.9,0.5-1.6,0.8-2.4c0.2-0.6-0.2-1.4-0.2-2.2c0-0.5,0-0.9,0-1.4c-0.3,0.3-0.2,1.3-0.2,1.6c-0.2-0.6-0.2-1.3-0.3-1.9
				c-0.2,0.5,0,1.3,0,1.9c-0.2-0.5-0.2-1.1-0.5-1.6c-0.3,0.5,0.2,1.3,0.2,1.7c-0.2-0.5-0.3-0.9-0.5-1.4c-0.2,0.6,0.2,1.1,0.2,1.6
				c-0.2-0.3-0.3-0.8-0.6-1.1c0,0.5,0.3,0.9,0.5,1.3c-0.3-0.2-0.3-0.5-0.6-0.6c0,0.3,0.3,0.5,0.3,0.8c-0.2-0.2-0.3-0.3-0.5-0.3
				c0,0.3,0.3,0.3,0.3,0.6c-0.2-0.2-0.3-0.2-0.5-0.3c0,0.2,0.3,0.3,0.3,0.5c0,0-0.2-0.2-0.2,0l0.2,0.2h-0.2c0,0.2,0.2,0.2,0.2,0.3
				c0,0,0,0-0.2,0c0,0.2,0.2,0.2,0.2,0.2c-0.8,0.8-0.3,1.7-0.5,2.7c0-0.2-0.6-0.3-1.3-0.5c-0.3-0.2-0.3-0.5-0.6-0.6c0,0,0,0,0.2-0.2
				c-0.2,0-0.2,0-0.2-0.2c0.2,0,0.3,0,0.3,0c-0.2-0.2-0.5-0.2-0.5-0.3c0.2,0,0.3,0.2,0.5,0.2c-0.2-0.2-0.6-0.3-0.6-0.5
				c0.2,0.2,0.5,0.3,0.8,0.2c-0.3-0.2-0.8-0.5-0.9-0.6c0.3,0.2,0.6,0.5,0.8,0.3c-0.5-0.2-0.8-0.6-1.1-0.6c0.2,0.3,0.8,0.6,0.9,0.8
				c-0.3-0.2-0.6-0.3-0.9-0.5c0.2,0.3,0.6,0.5,0.8,0.8c-0.3,0-0.5-0.2-0.8-0.2c0.2,0.3,0.6,0.3,0.8,0.5c-0.2-0.2-0.3,0-0.5,0
				c0,0.2,0.3,0.2,0.5,0.3c-0.2,0-0.3,0-0.5,0.2c0.2,0.2,0.3,0,0.5,0.2c-0.2,0-0.2,0-0.2,0.2s0.3,0,0.3,0.2c0,0-0.2,0-0.2,0.2h0.2
				c0,0,0,0-0.2,0.2c0.5,0.2,0.6,0.9,1.3,1.1c-0.3,0.2,0.3,0.5-3.4,1.7c0.2,0,1.6-0.3,2-0.5s0.9-0.3,1.4-0.5c0.2,0,0.2,0,0.3-0.2
				c0.8,0,1.4,0,2.2-0.5c-0.6,0.2-1.6,0.2-1.9-0.2c0.5-0.8,0.2-2.8,0.5-3.3c0.5-0.5,1.1-1.7,1.9-0.6c0.2,0.2,0.2,0.5-0.2,0.9
				c-0.3,0.6-0.6,0.8-0.5,2c0,0.3,0,0.5-0.3,0.5c1.6,0.3,2,0.2,3,0c0.3,0,0.8-0.3,0.8,0c0,0.2-0.3,0.2-0.6,0.2
				c-0.5,0,0.2,0.2,0.5,0.2c0.2,0,0.9-0.2,1.4-0.2C42.7,134,42.4,134,42.1,133.9z"/>
			<path id="XMLID_4_" class="st9" d="M37.4,125.7c-3.8,0-6.7,3-6.7,6.7s3,6.7,6.7,6.7c3.8,0,6.7-3,6.7-6.7S41.2,125.7,37.4,125.7
				 M37.4,125.9c3.6,0,6.4,2.8,6.4,6.4c0,3.6-2.8,6.4-6.4,6.4c-3.6,0-6.4-2.8-6.4-6.4C31,128.7,33.8,125.9,37.4,125.9"/>
		</g>
	</g>
</g>
</svg>
