<?xml version="1.0" encoding="utf-8"?>
<!-- Generator: Adobe Illustrator 19.0.0, SVG Export Plug-In . SVG Version: 6.00 Build 0)  -->
<svg version="1.1" id="Layer_1" xmlns="http://www.w3.org/2000/svg" xmlns:xlink="http://www.w3.org/1999/xlink" x="0px" y="0px"
	 viewBox="0 0 130 250" style="enable-background:new 0 0 130 250;" xml:space="preserve">
<style type="text/css">
	.st0{fill:#519E38;}
	.st1{fill:#F4F4F4;}
	.st2{fill:#D6D6D6;}
	.st3{fill:#EAEAEA;}
	.st4{fill:#FFFFFF;}
	.st5{fill:#F58C38;}
	.st6{fill:#62BA47;}
	.st7{fill:#FDDC55;}
	.st8{fill:#62BA46;}
</style>
<g id="_x34_">
	<g id="XMLID_142_">
		<path id="XMLID_147_" class="st0" d="M109,215.2c0,0,0-63.9,0-98.7s-14.4-48-14.4-48c3.9-21.6-6.4-28-6.4-28v-7.8h2.2
			c0,0,0-8.3,0-11.1c0-2.8-3.9-2.5-3.9-2.5H72.3h-1.2H56.8c0,0-3.9-0.3-3.9,2.5c0,2.8,0,11.1,0,11.1h2.3v7.8h-0.2
			c0,0-10.3,6.6-6.4,28c0,0-14.4,13.3-14.4,48s0,98.7,0,98.7s-1.4,21.2,14.2,21.2c4.2,0,7.8,0,10.8,0c8,0,11.7,0,11.7,0h0.8h0.8l0,0
			h11.6l0,0c3,0,6.4,0,10.6,0l0,0C110.6,236.4,109,215.2,109,215.2z"/>
		<path id="XMLID_146_" class="st1" d="M101.5,210.2c0,0,0-63.9,0-98.7c0-34.8-14.4-48-14.4-48c3.9-21.6-6.6-28-6.6-28v-8H47.9v8
			h-0.2c0,0-10.3,6.6-6.6,28c0,0-14.4,13.3-14.4,48c0,34.8,0,98.7,0,98.7s-1.4,21.2,14.2,21.2c4.2,0,7.8,0,10.8,0c8,0,11.7,0,11.7,0
			h1.6h11.7c3,0,6.6,0,10.8,0C102.9,231.4,101.5,210.2,101.5,210.2z"/>
		<path id="XMLID_145_" class="st2" d="M78.9,14.1H64.7h-1.1H49.3c0,0-3.9-0.3-3.9,2.5c0,2.8,0,11.1,0,11.1h18.1h1.2h18
			c0,0,0-8.3,0-11.1S78.9,14.1,78.9,14.1z"/>
		<path id="XMLID_144_" class="st3" d="M101.4,210.2c0,0,0-63.9,0-98.7c0-34.8-14.4-48-14.4-48c3.9-21.6-6.4-28-6.4-28v-8H64.2
			v203.9H65h11.7c3,0,6.6,0,10.8,0C102.9,231.4,101.4,210.2,101.4,210.2z"/>
		<path id="XMLID_143_" class="st4" d="M39,100c-0.2,0-0.3,0-0.5,0c-2.2-0.3-3.9-2.3-3.6-4.7c1.9-14.2,8.7-23,9.1-23.3
			c1.4-1.7,4.1-2,5.8-0.6c1.7,1.4,2,4.1,0.6,5.8c-0.2,0.2-5.8,7.3-7.3,19.2C42.8,98.5,41.1,100,39,100z"/>
	</g>
	<g id="XMLID_73_">
		<circle id="XMLID_141_" class="st5" cx="66.2" cy="141.4" r="18.7"/>
		<circle id="XMLID_140_" class="st6" cx="51.1" cy="158.2" r="5.9"/>
		<g id="XMLID_132_">
			<path id="XMLID_139_" class="st4" d="M47.2,157.2c0.2-0.6,0.6-0.2,0.8,0.2c0.2,0.5,0,0.8-0.3,1.1c-0.2,0.3-0.5,0.5-0.8,0.6
				c-0.2,0.2-0.3,0.2-0.3,0.3c0,0-0.2,0.2,0,0.2c0.2,0.2,0.6,0.2,0.9,0.2c0.5,0,0.9,0,1.2-0.2c0.2-0.2,0.5-0.6,0-0.5
				c-0.3,0.2-0.8,0.2-1.1,0.2c-0.2,0-0.6,0-0.6-0.2v0.2c-0.2,0.3,0,0.2,0,0c0.2-0.2,0.3-0.2,0.3-0.3c0.2-0.2,0.5-0.5,0.6-0.6
				c0.3-0.5,0.6-0.9,0.5-1.6c-0.2-1.2-1.6-0.3-1.9,0.3C46.5,157.7,47.2,157.4,47.2,157.2L47.2,157.2z"/>
			<path id="XMLID_138_" class="st4" d="M50.4,159.3c0.5,1.4,2.7,0.5,2.2-0.8c-0.2-0.6-0.9-0.5-1.4-0.6c-0.3-0.2-0.3-0.3-0.3-0.6
				c0.2-0.3,0-0.3-0.2-0.2c0.2,0,0.2,0,0.3,0c0.5-0.2,0.9,0,1.2,0.2c0.2,0.2,0.6-0.5,0.3-0.5c-0.5-0.3-1.1-0.2-1.7-0.2
				c-0.5,0.2-0.6,0.6-0.6,1.1c0,0.6,0.5,0.6,1.1,0.8c0.3,0,0.6,0.2,0.8,0.6c0,0.6-0.6,0.6-0.9,0.3c-0.2-0.2-0.2-0.3-0.3-0.5
				C50.9,158.6,50.4,159.1,50.4,159.3L50.4,159.3z"/>
			<g id="XMLID_134_">
				<path id="XMLID_137_" class="st4" d="M55.4,156.8c-0.6,0.9-1.4,1.9-2,2.8c-0.3,0.5,0.2,0.5,0.5,0.2c0.8-0.9,1.6-2,2.2-3
					C56.2,156.3,55.6,156.4,55.4,156.8L55.4,156.8z"/>
				<path id="XMLID_136_" class="st4" d="M54.3,156.4c-0.3,0-0.6,0.3-0.8,0.6c0,0.3,0.2,0.6,0.5,0.6
					C54.8,157.7,55.1,156.4,54.3,156.4c-0.2,0-0.5,0.3-0.2,0.5c0.2,0,0.3,0.2,0.3,0.3v0.2l0,0c0,0,0,0-0.2,0c-0.2,0-0.3-0.2-0.3-0.3
					v-0.2l0,0c0,0,0,0,0.2,0C54.2,156.8,54.5,156.4,54.3,156.4z"/>
				<path id="XMLID_135_" class="st4" d="M55.3,158.6c-0.3,0-0.6,0.3-0.8,0.6c0,0.3,0.2,0.6,0.5,0.6
					C55.8,159.9,56.2,158.6,55.3,158.6c-0.2,0-0.5,0.3-0.2,0.5c0.2,0,0.3,0.2,0.3,0.3v0.2l0,0c0,0,0,0-0.2,0c-0.2,0-0.3-0.2-0.3-0.3
					v-0.2l0,0c0,0,0,0,0.2,0C55.3,158.9,55.6,158.6,55.3,158.6z"/>
			</g>
			<path id="XMLID_133_" class="st4" d="M49.7,160.5c0.3-0.2,0.5-0.6,0.5-0.9c0-0.2,0-0.3,0-0.3c-0.2-0.2-0.3,0-0.5,0
				c-0.2,0-0.3,0.3-0.3,0.5c0,0.2,0.2,0.2,0.3,0.2l0,0l0,0v0.2c0,0.2,0,0.2,0,0.2l0,0l0,0l0,0l0,0c-0.2,0-0.3,0.3-0.2,0.5
				C49.3,160.8,49.5,160.7,49.7,160.5L49.7,160.5z"/>
		</g>
		<path id="XMLID_131_" class="st5" d="M57.3,118.3c0,1.2-1.1,2.3-2.3,2.3c-1.4,0-2.3-1.1-2.3-2.3c0-1.4,1.1-2.3,2.3-2.3
			S57.3,117.1,57.3,118.3L57.3,118.3z"/>
		<path id="XMLID_130_" class="st6" d="M57.3,126.5c0,1.7-1.4,3.1-3.1,3.1c-1.7,0-3.1-1.4-3.1-3.1c0-1.7,1.4-3.1,3.1-3.1
			C55.9,123.3,57.3,124.7,57.3,126.5L57.3,126.5z"/>
		<path id="XMLID_129_" class="st6" d="M49,121.8c0,0.9-0.8,1.9-1.9,1.9c-1.1,0-1.9-0.8-1.9-1.9c0-1.1,0.8-1.9,1.9-1.9
			C48.3,119.9,49,120.7,49,121.8L49,121.8z"/>
		<g id="XMLID_115_">
			<path id="XMLID_128_" class="st6" d="M92.6,124.3c0,5.8-4.7,10.3-10.3,10.3c-5.8,0-10.3-4.7-10.3-10.3c0-5.8,4.7-10.3,10.3-10.3
				C87.9,113.8,92.6,118.5,92.6,124.3z"/>
			<g id="XMLID_116_">
				<path id="XMLID_125_" class="st4" d="M79.7,122.7c-0.8,0.2-1.1,1.1-1.1,1.9l0,0l0,0c0,0.2,0,0.2,0,0.3c0,0.3,0,0.6,0,0.9
					c0,0.2,0,0.5-0.2,0.5c-0.3,0-0.6-0.5-0.6-0.6c-0.2-0.5-0.3-1.1-0.5-1.7c-0.2-0.6-0.2-1.2-0.2-1.9c0-0.3,0-0.5,0-0.8
					c0-0.2,0-0.2,0-0.3v-0.2c0.2-0.5-0.6,0-0.6,0.2c-0.6,1.2-0.5,2.7-0.5,3.9c0,0.3,0,0.8,0,1.1c0,0.3-0.2,0.6-0.3,0.9
					c-0.2,0.2-0.3,0-0.5,0c-0.2-0.2-0.3-0.3-0.3-0.5c0-0.2-0.3-0.2-0.3,0c-0.2,0.2-0.3,0.5-0.3,0.6c0,0.5,0.5,0.9,0.9,0.8
					c0.8-0.2,1.1-1.1,1.2-1.9c0.2-0.3,0.2-0.6,0.2-1.1c0.2,0.5,0.3,1.1,0.5,1.6c0.2,0.3,0.5,0.6,0.9,0.6c0.3,0,0.6-0.5,0.8-0.8
					c0.2,0.3,0.3,0.6,0.8,0.6c0.5,0,0.8-0.5,0.9-0.8c0.2-0.5,0.3-0.9,0.3-1.2C80.8,124,80.6,122.7,79.7,122.7z M80,125.7
					c0,0.2,0,0.2,0,0.3c-0.2,0-0.3-0.3-0.3-0.3c-0.2-0.3-0.2-0.6-0.2-0.9c0-0.3,0-0.6,0-0.9c0-0.2,0-0.2,0-0.3
					c0.5,0.3,0.5,0.8,0.6,1.2C80,125,80,125.4,80,125.7z"/>
				<path id="XMLID_122_" class="st4" d="M90,124c-0.9-0.3-1.4,0.9-1.6,1.6c-0.2,0.6-0.3,1.9,0.5,2.2c0.3,0.2,0.8-0.2,1.1-0.3
					c0.3-0.3,0.5-0.8,0.6-1.1C90.6,125.5,90.9,124.3,90,124z M89.5,126.9l-0.2,0.2c-0.2-0.2-0.2-0.3-0.2-0.5c0-0.3,0-0.6,0-0.9
					c0-0.3,0.2-0.6,0.3-0.9l0.2-0.2c0.3,0.5,0.3,0.9,0.2,1.4C89.7,126.3,89.5,126.6,89.5,126.9z"/>
				<path id="XMLID_117_" class="st4" d="M87.5,124.1c0.2-0.3,0.3-0.5,0.5-0.8c0.3-0.5,0.6-1.1,0.6-1.7s-0.8-0.6-1.2-0.5
					c-0.6,0.3-0.9,0.9-1.1,1.6c-0.2,0.8-0.3,1.6-0.3,2.5l0,0c-0.3,0.3-0.9,1.1-1.4,0.8c-0.2,0-0.2-0.2-0.2-0.3
					c0.3-0.5,0.8-0.8,1.1-1.2c0.3-0.5,0.5-1.1,0-1.4c-0.5-0.3-1.1,0-1.2,0.5c-0.3,0.3-0.5,0.8-0.5,1.2c0,0.3,0,0.6,0,1.1
					c-0.3,0.2-0.6,0.3-0.9,0.2c-0.3,0-0.5-0.5-0.6-0.8c-0.2-0.5,0-0.9,0-1.2c0-0.2,0-0.3,0.2-0.5c0,0,0,0,0-0.2
					c0.2,0.2,0.3,0.5,0.3,0.6c0.2,0.3,0.9-0.2,0.8-0.5c-0.2-0.3-0.2-0.6-0.6-0.8c-0.3-0.2-0.8,0.2-0.9,0.3c-0.6,0.6-0.6,1.4-0.6,2.2
					c0,0.5,0.2,1.1,0.5,1.2c0.6,0.3,1.4,0,1.9-0.3c0.2,0.3,0.5,0.6,0.8,0.5c0.6,0,1.1-0.3,1.4-0.8c0,0.5,0.2,0.9,0.5,1.1
					c0.5,0.3,1.1,0,1.4-0.5c0.5-0.5,0.6-1.2,0.5-1.9C87.9,124.3,87.8,124.1,87.5,124.1z M84.3,123.8c0-0.2,0.2-0.3,0.2-0.3l0,0
					c0.2,0,0.3,0.3,0.3,0.5c0,0.3-0.3,0.6-0.5,0.9v-0.2C84.2,124.4,84.2,124.1,84.3,123.8z M87.3,122.1c0-0.2,0.2-0.3,0.2-0.3l0,0
					c0.3,0.5,0,0.9-0.2,1.4c-0.2,0.3-0.5,0.8-0.6,1.1c0-0.3,0.2-0.8,0.2-1.1C87,122.7,87.2,122.4,87.3,122.1z M87.2,126.3
					C87.2,126.3,87,126.5,87.2,126.3c-0.2,0.2-0.2,0.2-0.2,0.2c-0.2-0.2-0.3-0.6-0.3-0.8c0-0.2,0-0.3,0-0.5c0.2-0.2,0.2-0.2,0.3-0.3
					c0.2-0.2,0.3,0.2,0.5,0.3C87.5,125.5,87.3,126,87.2,126.3z"/>
			</g>
		</g>
		<g id="XMLID_106_">
			<g id="XMLID_107_">
				<g id="XMLID_108_">
					<path id="XMLID_110_" class="st4" d="M80.8,145c-0.3-0.2-0.6,0-0.8,0.3c-0.2-0.5,0.2-1.2,0.2-1.9c0.3-1.4,0.3-2.5,0-3
						c-0.3-0.3-0.9-0.2-1.1-0.2c-0.2,0.2-0.3,0.2-0.5,0.3c0-0.3-0.2-0.6-0.3-0.8c-0.2-0.3-0.8-0.3-0.9-0.2c-0.2,0.2-0.3,0.2-0.6,0.3
						c0-0.2,0-0.3,0-0.5s0-0.2,0-0.2s-0.2,0-0.2-0.2h-0.2c-0.2,0-0.5,0.2-0.6,0.2c-0.2,0.2-0.2,0.2-0.3,0.3c-0.2,0.3-0.5,0.2-0.9,0
						c-0.3-0.2-0.3-0.3-0.6-0.6c-0.2-0.2-0.2-0.3-0.3-0.3c-0.5-0.3-0.9-0.2-1.4,0c0-0.3,0-0.6,0-1.1c0-0.3-0.6-0.2-0.6,0
						c-0.2,0.2-0.5,0.3-0.5,0.5c0,0-0.5,1.7-1.4,3c0-0.9,0.2-1.9,0.2-2.8c0-0.2,0-0.2-0.2-0.2c-0.2,0-0.3,0-0.3,0
						c-0.3,0.2-0.6,0.3-0.6,0.6c-0.2,1.2-0.3,3.9-1.1,3.9s-0.3-3.1-0.3-4.5c0-0.2-0.2-0.2-0.3-0.2s-0.3,0-0.3,0
						c-0.3,0.2-0.6,0.5-0.6,0.6c-0.2,0.9-0.3,1.7-0.6,2.7c-0.2,0.5-0.5,1.4-1.1,1.4c-0.5,0-0.6-0.6-0.5-1.1c0.2-0.5,0.5-0.8,0.8-1.2
						c0.3-0.5,0.5-0.9,0.5-1.2c0-0.6-0.3-1.1-0.9-1.1c-0.6,0-1.2,0.3-1.7,0.8c-0.2,0.2-0.3,0.3-0.5,0.3c-0.5,0-0.8-0.3-0.9-0.3
						c-0.2-0.2-0.5-0.3-0.8-0.2c-1.4,0.5-1.6,2-1.6,3.3c0,0.8,0,1.4-0.2,1.7c-0.5,0-0.8-0.5-0.9-0.9c-0.3-0.8-0.5-1.6-0.6-2.3
						c-0.2-1.1-0.2-2.3-0.2-3.4c0-0.3-0.5-0.2-0.6,0c-0.3,0.2-0.6,0.6-0.6,0.9c0,1.4,0.2,2.8,0.2,4.2c0,0.6,0,1.4-0.2,2
						c-0.2,0.3-0.3,0.3-0.5,0.3c-0.5-0.2-0.6-0.6-0.8-1.1c-0.2-0.6-0.3-1.4-0.3-2c0-0.6,0-1.4-0.2-2c0-0.5,0-0.9-0.3-1.4
						c-0.5-0.6-1.6,0.5-1.9,0.9c-0.5,0.8-0.8,1.6-0.9,2.3c0,0.3,0.2,0.5,0.5,0.2c0.3-0.2,0.6-0.6,0.6-0.9c0-0.3,0.2-1.1,0.5-1.2l0,0
						l0,0c0,0,0,0,0,0.2c0,0.2,0.2,0.3,0.2,0.6c0.2,1.4,0.2,2.8,0.3,4.1c0.2,0.9,0.6,2.3,1.9,2c0.8-0.2,1.2-1.1,1.4-1.7
						c0,0,0,0,0-0.2c0.3,0.6,0.8,1.1,1.6,0.9c0.6-0.2,0.8-0.6,0.9-1.2c0.2,0.5,0.6,0.8,1.1,0.6c0.6,0,1.1-0.8,1.4-1.2
						c0.3-0.6,0.3-1.2,0.3-1.9c0-0.3,0-0.8-0.2-1.1c0.2,0,0.3,0,0.5-0.2c0.3-0.2,0.6-0.6,0.9-0.8c0.2,0,0.3,0,0.5,0
						c0.9,0.5-0.5,1.4-0.8,2.3c-0.3,0.6-0.5,1.6,0,2c0.8,0.9,2.2,0.2,2.8-0.6c0.2-0.2,0.3-0.5,0.5-0.6c0,0.6,0.2,1.6,1.1,1.4
						c0.5,0,0.8-0.2,1.1-0.5c-0.5,0.6-0.8,1.4-1.1,2c-0.3,0.6-0.6,1.2-0.6,1.9c0,0.8,0.8,1.1,1.6,0.8c0.6-0.3,1.1-1.1,1.2-1.7
						c0.3-1.1,0.3-2.3,0.3-3.6c0.6-0.9,1.1-1.6,1.6-2.7c0,1.2-0.2,2.5-0.2,3.6c-0.2,1.4-0.3,2.7-0.5,4.1c0,0.3,0.3,0.3,0.5,0.2
						c0.3-0.2,0.5-0.3,0.6-0.6c0.2-0.9,0.3-2,0.5-3c0.3,0,0.8,0,1.2-0.3c0.8-0.6,1.1-1.7,1.2-2.7c0-0.2,0-0.3,0-0.5
						c0.5,0.2,0.8,0,1.1-0.2c-0.2,1.2-0.5,2.5-0.6,3.9c-0.2,0.6,1.1,0.2,1.1-0.3c0.2-1.1,0.5-2.3,1.1-3.3c0-0.2,0.2-0.2,0.2-0.3l0,0
						c0.2,0.8,0,1.4-0.2,2.2c0,0.3-0.2,0.6-0.2,0.9c-0.2,0.3-0.2,0.8-0.3,1.1c-0.2,0.6,1.1,0.2,1.1-0.2c0.2-0.3,0.2-0.8,0.3-1.1
						c0.3-0.8,0.6-1.7,1.1-2.3c0.2,0.5,0,0.9,0,1.2c0,0.6-0.2,1.1-0.3,1.7c-0.2,0.5-0.2,0.9,0,1.4c0.3,0.9,1.7,0.2,2-0.2
						C81.1,145.5,81.1,145.2,80.8,145z M60.9,143c0,0.2,0,0.3-0.2,0.3c-0.3,0-0.5-0.3-0.5-0.5c-0.2-0.5-0.3-0.8-0.3-1.2
						c0-0.5,0-0.9,0-1.4c0-0.2,0-0.3,0.2-0.3c0.2,0,0.2,0.2,0.3,0.2c0.3,0.3,0.5,1.2,0.6,1.6C60.9,142.1,60.9,142.5,60.9,143z
						 M68.4,145.4c0,0.5,0,1.1-0.2,1.6c0,0.2,0,0.3-0.2,0.3c0,0-0.2,0-0.3-0.2c-0.3-0.3-0.2-0.8,0-1.1c0.2-0.5,0.5-0.9,0.6-1.4
						C68.4,144.9,68.4,145,68.4,145.4z M72.8,143.3C72.8,143.5,72.8,143.5,72.8,143.3C72.8,143.5,72.8,143.5,72.8,143.3
						c-0.5,0-0.6-0.5-0.6-0.8c0-0.8,0.2-1.6,0.2-2.2l0,0c0-0.3,0-0.5,0.2-0.6l0,0l0,0c0.2,0,0.3,0.2,0.3,0.3
						c0.3,0.5,0.3,1.2,0.3,1.7C73.3,142.2,73.1,142.9,72.8,143.3z"/>
					<path id="XMLID_109_" class="st4" d="M54.7,136.8c0.8-0.3,1.2-0.9,1.7-1.6c0.2-0.2,0.5-0.6,0.2-0.8c-0.3-0.2-0.6,0.3-0.8,0.5
						c-0.2,0.2-0.3,0.6-0.6,0.6c-0.3,0.2-0.6,0-0.9-0.2c-0.3-0.3-1.4,0.8-1.1,1.1C53.6,136.9,54,136.9,54.7,136.8z"/>
				</g>
			</g>
		</g>
		<g id="XMLID_98_">
			<g id="XMLID_99_">
				<path id="XMLID_105_" class="st4" d="M68.4,155.8c0.2,0.5,0.9,0.3,1.1-0.2c0.2-0.3,0.2-0.6,0-0.9c0-0.5-0.2-0.9,0-1.4
					c-0.2,0.2-0.3,0.2-0.5,0.3c0.2,0.5,0.2,0.9,0.5,1.4c0.2,0.3,0.2,0.6,0.6,0.8c0.6,0.2,1.1-0.9,1.1-1.2c0-0.5-0.3,0-0.5,0.2
					c0,0.2-0.2,0.5-0.3,0.5s-0.3-0.3-0.3-0.3c-0.3-0.5-0.5-1.1-0.6-1.6c0-0.3-0.3,0.2-0.5,0.3c0,0.3,0,0.6,0,0.9c0,0.2,0,0.3,0,0.6
					c0,0.2,0,0.2,0,0.3c0,0.3-0.2,0.2-0.3,0C68.9,155.2,68.4,155.7,68.4,155.8L68.4,155.8z"/>
				<path id="XMLID_104_" class="st4" d="M70.9,154.9c0.2-0.2,0.6-0.6,0.9-0.3c0.2,0.2-0.2,0.3-0.3,0.2c-0.6-0.3-0.6-1.2-0.6-1.9
					c0-0.3-0.5,0.2-0.5,0.3c0,0.5,0.3,3,1.6,2c0.3-0.3,0.6-0.8,0.5-1.1c-0.3-0.5-1.1,0-1.4,0.3c-0.2,0.2-0.2,0.3-0.3,0.5
					C70.8,154.9,70.8,155,70.9,154.9L70.9,154.9z"/>
				<path id="XMLID_103_" class="st4" d="M60.8,153.8c0.6-0.3-0.3,2-0.3,0.6c0-0.6,0.3-1.2,0.6-1.9c0.2-0.2,0.3-0.5,0.5-0.6
					c0.2,0,0.2,0.2,0.2,0.3s-0.2,0.3-0.2,0.5c-0.3,0.5-0.8,0.9-1.2,1.2c-0.3,0.2,0.3,0.3,0.5,0.2c0.3-0.2,2.3-2,1.6-2.5
					c-0.9-0.5-1.9,1.6-2,2c-0.2,0.3-0.6,1.2-0.2,1.6c0.5,0.3,0.8,0.2,1.1,0c0.5-0.3,0.6-0.9,0.5-1.4c-0.2-0.5-0.9-0.2-1.1-0.2
					C60,153.6,60.4,153.8,60.8,153.8L60.8,153.8z"/>
				<path id="XMLID_102_" class="st4" d="M63.4,153.9c0.2-0.8-0.8-0.5-1.1-0.3c-0.5,0.3-0.8,0.9-0.8,1.6c0,0.5,0.5,0.9,0.9,0.6
					C63.1,155.5,63.1,154.6,63.4,153.9c-0.2,0-0.3,0.2-0.6,0.2c-0.2,0.5-0.8,2.5,0.5,2c0.3-0.2,0.3-0.5,0-0.3
					c-0.2,0-0.2-0.6-0.2-0.8C63.1,154.7,63.3,154.3,63.4,153.9c0-0.3-0.5,0-0.6,0.2c-0.2,0.3-0.2,0.8-0.3,1.1c0,0.2-0.2,0.3-0.2,0.3
					c-0.2,0-0.2-0.2-0.2-0.3c0-0.3,0-0.6,0.2-0.8c0-0.2,0.2-0.3,0.2-0.5l0.2-0.2c0.2-0.2,0.3,0.2,0.3,0.3
					C62.8,154.3,63.3,154.1,63.4,153.9L63.4,153.9z"/>
				<path id="XMLID_101_" class="st4" d="M63.9,153.9c0,0.8-0.2,1.6-0.3,2.3c0,0.3,0.6,0,0.6-0.2c0.2-0.5,0.3-0.6,0.6-0.9
					c0.5-0.3,0.6-0.8,0.6-1.2c0.2-0.3-0.5,0-0.5,0.2c-0.3,0.6-0.3,1.4-0.3,2.2c0.2,0.8,1.2,0,1.6-0.3c0.3-0.3,0-0.5-0.3-0.2
					c0,0-0.5,0.5-0.6,0.3s-0.2-0.5-0.2-0.6c0-0.5,0-1.1,0.2-1.6c-0.2,0-0.3,0.2-0.5,0.2c-0.2,0.5-0.3,0.8-0.8,1.1
					c-0.5,0.3-0.6,0.8-0.8,1.1c0.2,0,0.5-0.2,0.6-0.2c0.2-0.8,0.2-1.6,0.2-2.3C64.5,153.5,63.9,153.8,63.9,153.9L63.9,153.9z"/>
				<path id="XMLID_100_" class="st4" d="M68.4,155.7c-0.3,0.5-0.6,0-0.8-0.3c-0.2-0.5-0.2-1.1-0.2-1.6c0-0.3-0.5,0.2-0.5,0.3
					c0,0.3,0,0.8,0,1.1c0,0.2,0,0.3,0,0.6c0,0.2,0,0.3-0.3,0.2c-0.6-0.3-0.3-1.6-0.2-1.9c0-0.3-0.5,0-0.5,0.2
					c-0.2,0.5-0.6,2.5,0.5,2.3c1.2-0.2,0.9-2,0.9-2.7c-0.2,0.2-0.3,0.2-0.5,0.3c0,0.6-0.2,1.6,0.3,2c0.3,0.5,1.1,0,1.4-0.3
					C69,155.5,68.7,155.4,68.4,155.7L68.4,155.7z"/>
			</g>
		</g>
		<g id="XMLID_79_">
			<path id="XMLID_97_" d="M79,157.7c0,0-0.6,0-0.8,0.3c-0.2,0.3,0.5,0.3,0.8,0.2c0.3-0.2,1.9-0.3,2.2-0.3c0.2,0,4.5-1.2,4.5-1.2
				s8-2.3,8.7-3.1c0.8-0.8,2-1.2,2-1.2l-0.2-0.2c0,0-2.2,1.1-4.2,1.7c-2,0.6-10.5,3.3-11.7,3.4C79,157.5,79,157.7,79,157.7z"/>
			<path id="XMLID_96_" d="M80.8,159.3c0,0,0.2,0.6-0.5,0.3c-0.6-0.2-0.5-1.1,0.3-1.6c0.8-0.3,1.9-0.5,2.5-0.8
				c0.6-0.2,0.8-0.3,1.6-0.8c0.8-0.3,3.1-1.2,3.1-1.2l6.1-1.9c0,0,1.2,0.3,1.9,0c0.6-0.3,1.4-0.6,0.5-0.9s1.1-0.3,0.8,0.5
				c-0.3,0.9-2.2,0.9-3.3,0.9c-1.1,0-4.5,1.6-4.5,1.6l-0.9,0.5c0,0-3.1,0.8-3.4,1.1c-0.5,0.3-3,1.2-3.9,1.2
				C79.7,158.6,80.4,159.3,80.8,159.3z"/>
			<path id="XMLID_95_" class="st5" d="M87.5,154.6c0-0.2-0.5-1.9-0.5-1.9s0.9-2.5,1.9-2.5c0,0,1.1,0.6,0.8,2.8l-1.6,2.2l-0.2-0.2
				c0,0,1.2-2.7,0.9-3.9c0,0-0.5,3.7-1.1,3.9L87.5,154.6z"/>
			<path id="XMLID_94_" class="st5" d="M89,157.2c0,0,2.5,1.4,3.9,0.9c0,0-0.5-2.7-2.8-3.3l-1.4,0.6c0,0,2,0.5,3.6,2.2
				c0,0-2.2-2.2-4.1-1.9L89,157.2z"/>
			<path id="XMLID_93_" class="st5" d="M82.3,155.7c0,0,1.4-1.9,3.1-1.6l1.6,1.2l0.3,0.2c0,0-1.7-0.8-3.7-0.2c0,0,2.5-0.2,3.7,0.3
				l-0.3,0.8C87.2,156.3,86.1,157.4,82.3,155.7z"/>
			<path id="XMLID_92_" class="st5" d="M87,155.4c0,0-3-2-3-3.4c0,0,3.1-1.1,4.1,3.1h-0.5c0,0-1.2-1.9-2.3-2.5c0,0,2,1.7,2.2,2.7
				L87,155.4z"/>
			<path id="XMLID_91_" class="st5" d="M88.3,154.4c0,0,0.5-2.3,4.4-1.2c0,0,0,0-1.1,1.1c-1.1,1.1-3.4,1.9-3.4,1.9v-0.6l0.2-0.3
				c0,0,1.1-1.7,3.3-1.6c0,0-1.7-0.3-3.3,1.4L88.3,154.4L88.3,154.4z"/>
			<path id="XMLID_90_" class="st5" d="M86.8,155.7c0,0-1.1-0.5-0.8,2c0.3,2.5,0.3,2.2,0.3,2.2s-0.5,1.1,0.6,0s2.3-2.7,1.4-4.1h-0.8
				c0,0,0.6,1.9-0.9,3.6c0,0,1.4-2.3,0.6-3.4L86.8,155.7z"/>
			<path id="XMLID_89_" d="M87.8,154.6c0,0-0.2,0.3-0.3,0.3c-0.2,0-0.6,0-0.6,0s0.5,0.6,0,0.9c0,0,0.5,0,0.6,0.5
				c0,0,0.2-0.6,0.9-0.5c0,0-0.3-1.1,0-1.1C88.6,154.9,88.1,155,87.8,154.6z"/>
			<circle id="XMLID_88_" cx="87.2" cy="156.6" r="0.2"/>
			<circle id="XMLID_87_" cx="87.3" cy="156.8" r="0.2"/>
			<circle id="XMLID_86_" cx="88.1" cy="156.4" r="0.2"/>
			<path id="XMLID_85_" class="st7" d="M85.1,152.4c0,0,2.2,0,2.7,2.2l-0.3,0.3C87.6,154.9,86.2,153,85.1,152.4z"/>
			<path id="XMLID_84_" class="st7" d="M88.7,154.9c0,0,1.2-1.6,3-1.2c0,0-1.1,1.9-3,2.2C88.6,155.7,88.3,155.4,88.7,154.9z"/>
			<path id="XMLID_83_" class="st7" d="M88.7,156c0,0,2,0,3.9,2.2c0,0-3-0.5-3.7-1.2C89,156.9,89.2,156.6,88.7,156z"/>
			<path id="XMLID_82_" class="st4" d="M87.6,155.8c0,0,0,0.5-0.5,0.9C87.2,156.6,87.5,156.1,87.6,155.8
				C87.5,155.4,87.6,155.8,87.6,155.8z"/>
			<path id="XMLID_81_" class="st4" d="M87.6,155.8c0,0,0,0.5-0.3,0.9C87.3,156.8,87.6,156.1,87.6,155.8
				C87.5,155.4,87.6,155.8,87.6,155.8z"/>
			<path id="XMLID_80_" class="st4" d="M87.8,155.7c0,0,0.3,0.3,0.3,0.8C88.1,156.4,88.1,155.8,87.8,155.7
				C87.5,155.5,87.8,155.7,87.8,155.7z"/>
		</g>
		<g id="XMLID_74_">
			<path id="XMLID_78_" class="st8" d="M43.3,133.5c-0.2,0-0.2-0.2-0.3-0.2c-0.5-0.2-0.6,0.2-1.1,0.2c-0.9,0-1.2,0-2.3-0.3
				c0-0.9,0.5-1.6,0.8-2.2c0.2-0.6-0.2-1.4-0.2-2.2c0-0.5,0-0.9,0-1.4c-0.3,0.3-0.2,1.1-0.2,1.6c-0.2-0.6-0.2-1.2-0.3-1.7
				c-0.2,0.5,0,1.2,0,1.7c-0.2-0.5-0.2-1.1-0.3-1.6c-0.3,0.5,0.2,1.2,0.2,1.7c-0.2-0.5-0.3-0.9-0.5-1.4c0,0.6,0.2,1.1,0.2,1.6
				c-0.2-0.3-0.3-0.8-0.6-1.1c0,0.3,0.3,0.8,0.3,1.2c-0.3-0.2-0.3-0.5-0.6-0.6c0,0.3,0.3,0.5,0.3,0.8c-0.2-0.2-0.3-0.3-0.5-0.3
				c0,0.3,0.3,0.3,0.3,0.6c-0.2-0.2-0.3-0.2-0.3-0.3c0,0.2,0.3,0.3,0.3,0.5c0,0-0.2-0.2-0.2,0l0.2,0.2h-0.2c0,0.2,0.2,0.2,0.2,0.3
				c0,0,0,0-0.2,0c0,0.2,0.2,0.2,0.2,0.2c-0.8,0.8-0.3,1.7-0.5,2.7c0-0.2-0.6-0.3-1.1-0.5c-0.3-0.2-0.3-0.5-0.6-0.6c0,0,0,0,0.2-0.2
				c-0.2,0-0.2,0-0.2-0.2c0.2,0,0.3,0,0.3,0c-0.2,0-0.5-0.2-0.5-0.3c0.2,0,0.3,0.2,0.5,0.2c-0.2-0.2-0.6-0.3-0.6-0.5
				c0.2,0,0.5,0.3,0.6,0.2c-0.3-0.2-0.8-0.5-0.9-0.6c0.3,0.2,0.5,0.5,0.8,0.3c-0.5-0.2-0.6-0.6-1.1-0.5c0.2,0.3,0.8,0.5,0.9,0.8
				c-0.3-0.2-0.6-0.3-0.9-0.5c0.2,0.3,0.5,0.5,0.8,0.8c-0.3,0-0.5-0.2-0.8-0.2c0.2,0.3,0.5,0.2,0.6,0.5c-0.2,0-0.3,0-0.5,0
				c0,0.2,0.3,0.2,0.5,0.3c-0.2,0-0.3,0-0.3,0.2c0.2,0.2,0.3,0,0.3,0.2c-0.2,0-0.2,0-0.2,0.2c0,0.2,0.3,0,0.3,0.2c0,0-0.2,0-0.2,0.2
				h0.2c0,0,0,0-0.2,0.2c0.5,0.2,0.6,0.9,1.2,1.1c-0.3,0.2,0.3,0.5-3.3,1.7c0.2,0,1.6-0.3,2-0.5c0.5-0.2,0.9-0.3,1.2-0.5
				c0.2,0,0.2,0,0.3-0.2c0.8,0,1.4,0,2.2-0.5c-0.6,0.2-1.6,0.2-1.9-0.2c0.5-0.8,0.2-2.7,0.5-3.1c0.5-0.3,0.9-1.7,1.7-0.6
				c0.2,0.2,0.2,0.5-0.2,0.9c-0.3,0.6-0.5,0.8-0.5,2c0,0.3,0,0.5-0.3,0.5c1.6,0.3,2,0.2,3,0c0.3,0,0.8-0.3,0.8,0
				c0,0.2-0.3,0.2-0.6,0.2c-0.5,0,0.2,0.2,0.5,0.2c0.2,0,0.9-0.2,1.4-0.2C43.7,133.5,43.6,133.5,43.3,133.5z"/>
			<path id="XMLID_75_" class="st8" d="M38.7,125.4c-3.6,0-6.6,3-6.6,6.6c0,3.6,3,6.6,6.6,6.6s6.6-3,6.6-6.6
				C45.3,128.3,42.3,125.4,38.7,125.4 M38.7,125.7c3.4,0,6.2,2.8,6.2,6.2c0,3.4-2.8,6.2-6.2,6.2s-6.2-2.8-6.2-6.2
				C32.5,128.5,35.3,125.7,38.7,125.7"/>
		</g>
	</g>
</g>
</svg>
