<svg xmlns="http://www.w3.org/2000/svg" viewBox="-416 316.7 414 247"><style>.st0{fill:#519E38;} .st1{fill:#F4F4F4;} .st2{fill:#D6D6D6;} .st3{fill:#EAEAEA;} .st4{fill:#FFFFFF;} .st5{fill:#62BA47;} .st6{fill:#483290;} .st7{fill:#712F8F;} .st8{fill:#62BA46;} .st9{fill:#DA1B51;} .st10{fill:#F1788A;} .st11{fill:#ED3425;} .st12{fill:#3DAF49;} .st13{fill:#E2231A;} .st14{fill:#F58C38;} .st15{fill:#FDDC55;}</style><g id="_x31_"><path class="st0" d="M-301.6 499.5v-63.2l-9.2-30.7c2.5-13.8-4.1-17.9-4.1-17.9v-5h1.4v-7.1c0-1.8-2.5-1.6-2.5-1.6h-19s-2.5-.2-2.5 1.6v7.1h1.5v5h-.1s-6.6 4.2-4.1 17.9c0 0-9.2 8.5-9.2 30.7v63.2s-.9 13.6 9.1 13.6h29.6c10 0 9.1-13.6 9.1-13.6z"/><path class="st1" d="M-306.5 496.3v-63.2c0-22.3-9.2-30.7-9.2-30.7 2.5-13.8-4.1-17.9-4.1-17.9v-5.1h-21v5.1h-.1s-6.6 4.2-4.2 17.9c0 0-9.2 8.5-9.2 30.7v63.2s-.9 13.6 9.1 13.6H-315.4c9.9 0 8.9-13.6 8.9-13.6z"/><path class="st2" d="M-320.9 370.8h-19s-2.5-.2-2.5 1.6v7.1h23.9v-7.1l-2.4-1.6z"/><path class="st3" d="M-306.5 496.3v-63.2c0-22.3-9.2-30.7-9.2-30.7 2.5-13.8-4.2-17.9-4.2-17.9v-5.1h-10.5v130.5h14.9c9.9 0 9-13.6 9-13.6z"/><path class="st4" d="M-346.5 425.7h-.3c-1.4-.2-2.5-1.5-2.3-3 1.2-9.1 5.6-14.7 5.8-14.9.9-1.1 2.6-1.3 3.7-.4s1.3 2.6.4 3.7c-.1.1-3.7 4.7-4.7 12.3-.2 1.4-1.3 2.3-2.6 2.3z"/><path class="st5" d="M-313 457.4c-.4-.9-1.1-.7-1.4 0-.8 2 .4 2.3.5 2.3 0 0-.2-.3-.2-.6 0 0-.3-.4-.4-.6v-.2.1c0 .1.1.3.4.5 0-.1 0-.2.1-.2-.1-.1-.3-.3-.4-.6V457.8l.1.3c0 .2.1.4.4.5 0-.1.1-.2.1-.3-.1 0-.4-.2-.4-.7v-.2l.1.2c0 .1.1.5.4.6 0-.1 0-.2.1-.3 0 0-.3-.1-.4-.6v-.2.2c0 .1.1.5.3.5 0-.5-.1-.9-.1-.9v-.1l.1.1s.1.2.1.5c.1-.2.1-.4.1-.4v-.1l.1.1c0 .2-.1.5-.1.5v.6c.5-.2.5-.6.5-.7 0 .5-.5.7-.6.8 0 0 0 .1-.1.1.5 0 .8-.5.8-.5v-.1s0 .1-.1.2c-.3.4-.8.5-.8.5 0 .1-.1.2-.1.3.1 0 .6-.1.9-.4l.1-.1-.1.1c-.1.1-.5.4-.9.4v.3h.1c.4 0 .6-.3.7-.4l.1-.1-.1.2c-.3.5-.7.5-.8.5 0 .1.1.3.1.3h.1c1-.6 1-1.4.7-2.1zM-310.5 459c.6-.6.3-1-.4-1.1-1.7-.1-1.6.9-1.6 1 0 0 .2-.2.4-.3 0 0 .2-.4.4-.5h.1l-.1.1c-.1.1-.2.2-.3.4h.2c0-.1.1-.3.4-.5h.1l.1-.1-.2.1c-.1.1-.2.2-.3.4h.2c0-.1.1-.3.4-.5h.2l-.1.1c-.1.1-.3.2-.3.5h.2s0-.3.4-.4h.2l-.1.1c-.1.1-.3.2-.3.4.4-.1.7-.3.7-.3l.1-.1v.1s-.1.1-.3.2c.2.1.3 0 .3 0h.1v.1c-.1.1-.4 0-.4 0-.2.1-.3.1-.5.1.3.3.6.3.6.3l-.2-.1h-.2c-.3.1-.6-.2-.7-.3h-.1c.1.3.6.5.6.5h-.1c-.4-.1-.6-.5-.6-.5h-.3c0 .1.2.4.5.6h.1-.1c-.1-.1-.4-.3-.6-.6-.1 0-.2 0-.2.1v.1c.1.3.4.4.5.4h.1-.1c-.4-.1-.6-.4-.6-.5l-.2.2v.1c.9.6 1.5.4 2-.1z"/><path class="st5" d="M-312.4 460c.4-.2.3-.5 0-.6-.9-.4-1 .2-1 .2s.1-.1.3-.1c0 0 .2-.1.3-.2h.1-.1c-.1 0-.2 0-.2.2h.1s.1-.1.3-.2h.1-.1c-.1 0-.2 0-.2.2 0 0 .1 0 .1.1 0 0 .1-.2.3-.2h-.1c-.1 0-.2 0-.2.2h.1s.1-.1.3-.1h-.1c-.1 0-.2.1-.2.1h.4s-.1 0-.2.1c.1.1.2.1.2.1-.1 0-.2-.1-.2-.1h-.3c0 .2.2.2.3.3-.3 0-.4-.3-.4-.3h-.1c0 .2.2.4.2.4h-.1c-.2-.1-.2-.4-.2-.4s-.1 0-.1-.1c0 .1 0 .3.2.4h-.1s-.2-.2-.2-.4h-.1c0 .2.1.3.2.3h.1-.1c-.2-.2-.2-.3-.2-.4-.1 0-.1 0-.1.1.3.5.7.5 1 .4zM-313.1 461.3c.8-.3.6-.9 0-1.2-1.6-.8-1.9.3-1.9.4 0 0 .2-.2.5-.1 0 0 .3-.3.6-.3h.1-.1c-.1 0-.3.1-.5.3.1 0 .1 0 .2.1 0-.1.3-.3.5-.3H-313.4h-.2c-.1 0-.3.1-.5.3.1 0 .1.1.2.1 0-.1.2-.3.6-.3h.2-.1c-.1 0-.4.1-.5.3.1 0 .2 0 .2.1 0 0 .1-.2.5-.3h.2-.1c-.1 0-.4.1-.5.3.4 0 .8-.1.8-.1h.1l-.1.1s-.2.1-.4.1c.1.1.3.1.3.1h.1-.1c-.2 0-.4-.1-.4-.1h-.5c.2.4.5.5.5.5l-.2-.1c-.3 0-.5-.5-.5-.5s-.1 0-.1-.1c0 .4.4.7.4.7h.1s-.1 0-.2-.1c-.3-.3-.4-.7-.4-.7-.1 0-.2-.1-.3-.1 0 .1.1.5.3.7l.1.1-.1-.1c-.1-.1-.3-.4-.3-.8h-.3v.1c0 .3.2.5.3.6l.1.1-.1-.1c-.4-.3-.4-.6-.4-.7-.1 0-.2.1-.2.1v.1c.5 1.1 1.2 1.1 1.8.8zM-315.6 459.2c-.4-.9-1-.6-1.3 0-.8 1.8.4 2.1.5 2.1 0 0-.2-.2-.2-.6 0 0-.3-.3-.4-.6v-.1.1c0 .1.1.3.4.5 0-.1 0-.1.1-.2-.1-.1-.3-.3-.4-.6V459.5l.1.2c0 .1.1.3.4.5 0-.1.1-.2.1-.2-.1 0-.3-.2-.4-.6v-.2.1c0 .1.1.4.4.5 0-.1 0-.2.1-.3 0 0-.3-.1-.3-.5v-.2.2c0 .1.1.4.3.5 0-.5-.1-.8-.1-.8v-.1l.1.1s.1.2.1.4c.1-.1.1-.3.1-.3v-.1l.1.1c0 .2-.1.4-.1.5v.6c.5-.2.5-.5.5-.5v-.1.1c0 .4-.5.6-.5.6s0 .1-.1.1c.4 0 .7-.5.7-.5v-.1s0 .1-.1.2c-.3.4-.7.5-.7.5 0 .1-.1.2-.1.3.1 0 .5-.1.8-.4l.1-.1-.1.1c-.1.1-.4.4-.8.4v.3h.1c.3 0 .6-.3.7-.4l.1-.1-.1.1c-.3.4-.6.5-.7.5 0 .1.1.2.1.3h.1c.8-.6.7-1.3.4-2z"/><path class="st5" d="M-315.7 461.5c-.3-.5-.6-.4-.8 0-.5 1.2.3 1.3.3 1.3s-.1-.2-.1-.4c0 0-.2-.2-.2-.4v-.1.1c0 .1.1.2.2.3v-.1s-.2-.2-.2-.4v-.1.2c0 .1.1.2.2.3 0 0 0-.1.1-.2 0 0-.2-.1-.3-.4v.1c0 .1.1.3.2.3v-.2s-.2-.1-.2-.3v-.2.1c0 .1.1.3.2.3 0-.3-.1-.5-.1-.5v-.1.1s.1.1.1.3c.1-.1.1-.2.1-.2 0 .1-.1.3-.1.3v.4c.3-.1.3-.3.3-.3l.3-.2v.1c0 .2-.3.4-.3.4v.1c.3 0 .5-.3.5-.3v.1c-.2.2-.5.3-.5.3 0 .1 0 .1-.1.2.1 0 .3-.1.5-.2v.1c-.1.1-.3.2-.5.3v.2h.1c.2 0 .4-.2.4-.3l.1-.1v.1c-.2.3-.4.3-.5.3 0 .1.1.2.1.2.4-.7.4-1.1.2-1.5z"/><path class="st5" d="M-314.4 463.9c.8-.4.6-.9 0-1.2-1.7-.8-2 .3-2 .4 0 0 .2-.2.5-.1 0 0 .3-.3.6-.3h.1-.1c-.1 0-.3.1-.5.3.1 0 .1 0 .2.1.1-.1.3-.3.5-.3H-314.8h-.2c-.1 0-.3.1-.5.3.1 0 .1.1.2.1 0-.1.2-.3.6-.4h.2-.1c-.1 0-.4.1-.5.3.1 0 .2 0 .3.1 0 0 .1-.3.5-.3h.2-.1c-.1 0-.4.1-.5.3.4 0 .8-.1.8-.1h.1l-.1.1s-.2.1-.4.1c.1.1.3.1.3.1h.1-.1c-.2 0-.4-.1-.4-.1h-.5c.2.4.5.5.5.6-.4-.1-.5-.6-.6-.6 0 0-.1 0-.1-.1 0 .4.4.7.4.7h.1s-.1 0-.2-.1c-.4-.3-.4-.7-.4-.7-.1 0-.2-.1-.3-.1 0 .1.1.5.3.7l.1.1-.1-.1c-.1-.1-.3-.4-.4-.8h-.3v.1c0 .3.2.5.4.6l.1.1-.1-.1c-.4-.3-.4-.6-.4-.7-.1 0-.2.1-.2.1v.1c.4 1 1.1 1 1.7.8z"/><path class="st5" d="M-314.9 465.2c.9-.1.8-.6.3-1-1.5-1.1-2-.2-2-.1 0 0 .3-.1.6 0 0 0 .4-.2.6-.1h.1-.1c-.1 0-.3 0-.5.1.1 0 .1.1.2.1s.3-.2.6-.1H-314.8h-.2c-.1 0-.3 0-.5.2.1 0 .1.1.2.1 0 0 .3-.2.6-.1h.2-.1c-.1 0-.4 0-.5.2.1 0 .2.1.2.1s.2-.2.6-.1h.2-.1c-.1 0-.4 0-.5.1.4.1.8.1.8.1h.1-.1-.4c.1.1.3.2.3.2h.1-.1c-.2 0-.3-.2-.4-.2-.2 0-.4-.1-.5-.2.1.4.4.5.4.5h.1-.1c-.3-.1-.4-.5-.4-.6 0 0-.1 0-.1-.1-.1.3.3.7.3.7h.1s-.1 0-.2-.1c-.3-.3-.3-.7-.2-.7-.1 0-.2-.1-.2-.2 0 .1 0 .4.1.7l.1.1-.1-.1c-.1-.1-.2-.4-.2-.7-.1 0-.2-.1-.3-.1v.1c-.1.3.1.5.2.6l.1.1-.1-.1c-.3-.3-.3-.6-.3-.7h-.3v.1c-.2 1.2.4 1.3 1.1 1.2zM-318.7 460.1c-1.1-.5-1.3.2-.9 1 1 2.2 2.2 1.5 2.3 1.5 0 0-.4-.1-.6-.4-.1 0-.5-.1-.8-.2l-.1-.1.1.1c.1.1.4.2.7.2-.1-.1-.1-.1-.1-.2-.1 0-.5 0-.8-.2 0 0-.1 0-.1-.1l-.2-.1.3.2c.1.1.4.2.7.2 0-.1-.1-.2-.1-.3-.1 0-.4.1-.8-.2l-.1-.1-.1-.1.2.1c.1.1.5.3.7.2-.1-.1-.1-.2-.2-.3 0 0-.3.1-.7-.2l-.1-.1-.1-.1.2.1c.1.1.5.3.7.2-.4-.4-.8-.6-.8-.6h-.1.1s.2.1.5.3c0-.2-.2-.4-.2-.4l-.1-.1h.1c.2.1.3.4.3.5.2.2.4.3.5.5.2-.5-.1-.8-.1-.8l-.1-.1.1.1c.3.3.2.9.1 1 0 0 .1.1.1.2.3-.3.1-1 .1-1v-.1s.1.1.1.2c.1.5-.1 1-.2 1 .1.1.1.2.2.3.1-.1.3-.5.3-.9v-.1l.1.2c0 .2 0 .7-.3 1l.3.3s.1 0 .1-.1c.2-.2.2-.6.1-.9v-.2l.1.2c.2.6 0 .9-.1 1 .1.1.3.1.3.1l.1-.1c-.2-1.7-.9-2.3-1.7-2.6zM-317 465.3c.5.3.7 0 .5-.4-.4-1.1-1-.8-1-.8s.2.1.3.2c0 0 .3.1.4.2l.1.1h-.1c-.1 0-.2-.1-.3-.1 0 0 0 .1.1.1 0 0 .2 0 .4.2l.1.1-.1-.1c-.1-.1-.2-.1-.3-.1 0 0 0 .1.1.2 0 0 .2 0 .4.1h-.1c-.1-.1-.2-.2-.4-.1l.1.1s.2 0 .4.1l-.1-.1c-.1 0-.2-.2-.3-.1l.4.4h0l-.2-.2c0 .1.1.2.1.2-.1-.1-.1-.2-.1-.3-.1-.1-.2-.2-.2-.3-.1.2 0 .4 0 .4l-.2.2v-.1c-.2-.2 0-.4 0-.5v-.1c-.2.2-.1.5-.1.5v-.1c0-.3.1-.5.1-.5 0-.1 0-.1-.1-.2 0 0-.2.2-.2.4v.1-.1c0-.1 0-.3.2-.5 0-.1-.1-.1-.1-.1-.1.1-.1.3-.1.4v.1-.1c0-.3.1-.4.1-.5-.1 0-.1-.1-.2-.1-.3.9 0 1.2.4 1.4z"/><path class="st5" d="M-316.6 462c0-.1 0-.1.1-.2-1.6 1.6-2.3 3.1-2.3 3.2l.1.1s.7-1.4 2.1-2.9c-.1-.1-.1-.2 0-.2zM-312.5 459l.1-.2-.1.1c-1.4.6-2.6 1.4-3.5 2.3l.1.1c.9-.8 2.1-1.7 3.4-2.3.4-.1 0 .1 0 0z"/><g><circle class="st6" cx="-316.8" cy="463.3" r="1"/><ellipse transform="rotate(-47 -316.38 462.996)" class="st7" cx="-316.4" cy="463" rx=".4" ry=".6"/><ellipse transform="rotate(-47 -316.266 462.936)" class="st6" cx="-316.3" cy="462.9" rx=".2" ry=".3"/></g><g><circle class="st7" cx="-318.2" cy="464.2" r=".9"/><ellipse transform="rotate(-109 -318.32 463.776)" class="st6" cx="-318.3" cy="463.8" rx=".4" ry=".6"/><ellipse transform="rotate(-109 -318.32 463.667)" class="st7" cx="-318.3" cy="463.6" rx=".2" ry=".3"/></g><g><circle class="st6" cx="-318.6" cy="462.5" r=".7"/><ellipse transform="rotate(-109 -318.7 462.238)" class="st7" cx="-318.7" cy="462.2" rx=".3" ry=".4"/><ellipse class="st6" cx="-318.7" cy="462.1" rx=".2" ry=".2"/></g><g><circle class="st7" cx="-317.3" cy="461.2" r=".7"/><ellipse transform="rotate(-109 -317.383 460.957)" class="st6" cx="-317.4" cy="461" rx=".3" ry=".4"/><ellipse class="st7" cx="-317.4" cy="460.9" rx=".2" ry=".2"/></g><g><circle class="st6" cx="-315.3" cy="459.3" r=".7"/><ellipse transform="rotate(-153 -315.635 459.106)" class="st7" cx="-315.6" cy="459.1" rx=".3" ry=".4"/><ellipse class="st6" cx="-315.7" cy="459.1" rx=".2" ry=".2"/></g><g><circle class="st7" cx="-315.2" cy="462" r=".8"/><ellipse transform="rotate(-18 -314.836 461.968)" class="st6" cx="-314.8" cy="461.9" rx=".3" ry=".5"/><ellipse transform="rotate(-18 -314.733 461.96)" class="st7" cx="-314.8" cy="461.9" rx=".2" ry=".3"/></g><circle class="st6" cx="-330.4" cy="453" r="12.3"/><circle class="st5" cx="-340.3" cy="463.9" r="3.9"/><g><path class="st4" d="M-342.9 463.3c.1-.4.4-.1.5.1.1.3 0 .6-.2.8-.1.2-.3.3-.5.5-.1.1-.2.1-.2.2 0 0-.1.1 0 .2s.4.1.6.1c.3 0 .6 0 .9-.1.2-.1.3-.4 0-.3-.2.1-.5.1-.7.1-.1 0-.4 0-.5-.1v.2c-.1.2 0 .1 0 0 .1-.1.2-.1.2-.2l.4-.4c.2-.3.4-.6.3-1-.2-.8-1.1-.2-1.2.2 0 .1.3-.1.4-.3zM-340.7 464.7c.3.9 1.7.3 1.5-.5-.1-.4-.6-.4-.9-.5-.2-.1-.2-.2-.2-.4.1-.2.1-.2-.1-.1h.2c.3-.1.6 0 .9.1.1.1.4-.3.3-.3-.3-.2-.8-.1-1.1-.1-.3.1-.4.4-.4.7 0 .4.4.5.7.5.2 0 .4.1.5.4 0 .4-.4.4-.6.2-.1-.1-.2-.2-.2-.3-.4-.1-.7.2-.6.3zM-337.5 463c-.4.7-.9 1.3-1.4 1.9-.2.3.1.3.3.1.5-.6 1-1.3 1.4-2 .2-.3-.2-.1-.3 0zM-338.2 462.8c-.2 0-.4.2-.5.5 0 .2.1.4.3.4.5 0 .7-.8.2-.9-.1 0-.3.3-.1.3.1 0 .2.1.2.2v.1h-.1c-.1 0-.2-.1-.2-.2v-.1h.1s.2-.3.1-.3zM-337.5 464.2c-.2 0-.4.2-.5.5 0 .2.1.4.3.4.5 0 .7-.8.2-.9-.1 0-.3.3-.1.3.1 0 .2.1.2.2v.1h-.1s-.2-.1-.2-.2v-.1h.1s.2-.3.1-.3zM-341.3 465.6c.2-.2.3-.4.3-.6v-.2c-.1-.1-.2 0-.3 0-.1 0-.2.2-.2.3s.1.1.2.1v.1c0 .1 0 .1-.1.1s-.2.2-.1.3c0 0 .1-.1.2-.1z"/></g><g><path class="st4" d="M-320.8 455.4c-.2-.1-.4 0-.5.2-.1-.3.1-.9.1-1.2.2-.9.2-1.7 0-1.9-.2-.2-.6-.1-.8-.1-.1.1-.2.1-.3.2 0-.2-.1-.4-.2-.6-.2-.2-.5-.2-.6-.1-.1.1-.3.1-.4.2v-.3-.1s-.1 0-.1-.1h-.1c-.1 0-.3.1-.4.1l-.2.2c-.2.2-.4.1-.6 0-.2-.1-.3-.2-.4-.4-.1-.1-.1-.2-.2-.2-.3-.2-.6-.1-.9 0v-.7c0-.2-.4-.1-.5 0s-.3.2-.3.3c0 0-.3 1.1-.9 2 0-.6.1-1.2.1-1.8 0-.1 0-.1-.1-.2h-.2c-.2.1-.4.2-.4.4-.1.8-.2 2.6-.7 2.6s-.3-2.1-.2-3c0-.1-.1-.2-.2-.1h-.2c-.2.1-.4.3-.4.5-.1.6-.2 1.2-.4 1.7-.1.3-.3.9-.7.9s-.4-.4-.3-.7c.1-.3.3-.6.5-.8.2-.3.3-.6.3-.8 0-.4-.2-.7-.6-.8-.4 0-.8.2-1.1.5-.1.1-.2.2-.3.2-.3 0-.5-.2-.6-.2-.1-.1-.3-.2-.6-.1-.9.3-1.1 1.3-1 2.1 0 .5 0 .9-.1 1.1-.3 0-.5-.3-.6-.6-.2-.5-.3-1-.4-1.6-.1-.7-.1-1.5-.1-2.3 0-.2-.3-.1-.4 0-.2.2-.4.4-.4.6 0 .9.1 1.9.1 2.8 0 .5 0 1-.1 1.4-.1.2-.2.2-.3.2-.3-.1-.4-.4-.5-.7-.1-.4-.2-.9-.2-1.4s0-.9-.1-1.4c0-.3 0-.6-.2-.9-.3-.4-1 .3-1.2.6-.4.5-.5 1-.6 1.6 0 .2.1.3.3.1.2-.2.4-.4.4-.7 0-.2.1-.7.3-.8v.1s.1.2.1.4c.1.9.1 1.8.3 2.7.1.6.4 1.5 1.3 1.3.5-.1.8-.7 1-1.1v-.1c.2.4.5.7 1.1.6.4-.1.5-.4.6-.8.2.3.4.5.7.5.4 0 .7-.5.9-.8.2-.4.2-.8.2-1.3 0-.2 0-.5-.1-.7.1 0 .2 0 .3-.1.2-.1.4-.4.6-.5h.3c.6.3-.3 1-.6 1.5-.2.4-.4 1 0 1.3.5.6 1.5.1 1.9-.4.1-.1.2-.3.3-.4 0 .4.1 1 .7 1 .3 0 .5-.1.7-.3-.3.4-.5.9-.8 1.3-.2.4-.4.8-.4 1.2 0 .5.6.8 1 .5.4-.2.7-.7.8-1.2.2-.8.2-1.6.2-2.4.4-.6.7-1 1-1.8 0 .8-.1 1.6-.1 2.4-.1.9-.2 1.8-.3 2.6 0 .2.2.2.3.1.2-.1.4-.2.4-.4.1-.7.2-1.3.3-2 .3 0 .5 0 .8-.2.6-.4.7-1.1.8-1.7v-.3c.3.1.5 0 .7-.1-.1.8-.3 1.7-.4 2.5-.1.4.7.1.7-.2.1-.7.3-1.5.7-2.2 0-.1.1-.1.1-.2.1.5 0 1-.1 1.4 0 .2-.1.4-.1.6-.1.3-.1.5-.2.8-.1.4.7.1.7-.2.1-.2.1-.5.2-.7.2-.6.4-1.1.7-1.6.1.3 0 .6 0 .8 0 .4-.1.7-.2 1.1-.1.3-.1.6 0 .9.2.6 1.1.1 1.3-.1.2.5.3.4.1.3zm-13.1-1.4c0 .1 0 .2-.1.2-.2 0-.3-.2-.3-.3-.1-.3-.2-.6-.2-.9v-.9c0-.1 0-.2.1-.2s.1.1.2.1c.2.2.3.9.4 1.1-.1.3-.1.6-.1.9zm4.9 1.5c0 .3 0 .7-.1 1 0 .1 0 .2-.1.2 0 0-.1 0-.2-.1-.2-.2-.1-.5 0-.7.1-.3.3-.6.5-1 0 .3-.1.5-.1.6zm2.9-1.2c-.3 0-.4-.3-.4-.5 0-.5.1-1 .1-1.5 0-.2 0-.3.1-.4.1 0 .2.1.2.2.2.3.2.8.2 1.1.1.3 0 .8-.2 1.1zM-338 449.9c.5-.2.9-.6 1.2-1 .1-.1.3-.4.1-.5-.2-.1-.4.2-.5.3-.1.2-.2.4-.4.5-.2.1-.5 0-.6-.1-.2-.2-.9.5-.7.7.2.2.6.3.9.1z"/></g><path class="st6" d="M-336.2 437.9c0 .9-.7 1.6-1.6 1.6-.9 0-1.6-.7-1.6-1.6s.7-1.6 1.6-1.6c.8 0 1.6.7 1.6 1.6z"/><path class="st5" d="M-336.2 443.2c0 1.1-.9 2-2 2s-2-.9-2-2 .9-2 2-2 2 .9 2 2zM-341.6 440.1c0 .7-.5 1.2-1.2 1.2s-1.2-.5-1.2-1.2.5-1.2 1.2-1.2c.7-.1 1.2.5 1.2 1.2z"/><g><circle class="st5" cx="-319.8" cy="441.7" r="6.8"/><path class="st4" d="M-321.5 440.7c-.6.1-.7.7-.7 1.2v.8c0 .1 0 .3-.1.3-.2 0-.4-.3-.4-.4-.1-.3-.2-.7-.3-1.1-.1-.4-.1-.8-.1-1.2v-.5V439.5c.1-.3-.4 0-.4.1-.5.8-.3 1.7-.3 2.6v.7c0 .2-.1.4-.2.6-.1.1-.2 0-.3 0-.1-.1-.2-.2-.2-.3s-.2-.1-.2 0c-.1.1-.2.3-.2.4.1.3.3.6.6.5.5-.1.7-.8.8-1.2.1-.2.1-.5.1-.7.1.3.2.7.3 1 .1.2.3.5.6.4.2 0 .4-.3.5-.5.1.2.3.4.5.4.3 0 .5-.3.6-.5.1-.3.2-.6.2-.9-.1-.6-.2-1.4-.8-1.4zm.1 2v.2c-.1 0-.2-.2-.2-.2-.1-.2-.1-.4-.1-.6v-.6-.2c.3.2.3.5.4.8 0 .2 0 .4-.1.6zM-314.8 441.5c-.6-.2-1 .6-1.1 1.1-.1.4-.2 1.2.3 1.4.3.1.6-.1.7-.3.2-.2.3-.5.4-.8.2-.4.3-1.2-.3-1.4zm-.3 2l-.1.1c-.1-.1-.1-.2-.1-.3v-.6c0-.2.1-.4.2-.6l.1-.1c.2.3.2.6.1 1-.1.1-.1.3-.2.5z"/><path class="st4" d="M-316.4 441.6c.1-.2.2-.3.3-.5.2-.3.4-.7.4-1.2 0-.4-.6-.4-.8-.3-.4.2-.6.6-.7 1-.1.5-.2 1.1-.3 1.6-.2.2-.6.7-.9.5-.1 0-.1-.2-.1-.2.3-.3.5-.5.7-.8.2-.3.3-.7 0-.9-.3-.2-.7 0-.9.3-.2.2-.3.6-.3.9v.7c-.2.1-.4.2-.6.1-.2 0-.3-.3-.4-.5-.1-.3 0-.6 0-.9 0-.1 0-.2.1-.3v-.1c.1.1.2.3.2.4.1.2.6-.1.5-.3-.1-.2-.1-.4-.4-.5-.2-.1-.5.1-.6.2-.4.4-.4.9-.4 1.4 0 .3.1.7.4.9.4.2.9 0 1.2-.2.1.2.3.4.6.4.4-.1.7-.2 1-.5 0 .3.1.6.3.7.3.2.7 0 .9-.3.3-.4.4-.8.3-1.3-.2-.2-.3-.3-.5-.3zm-2.1-.2c0-.1.1-.2.1-.2.1 0 .2.2.2.3 0 .2-.2.5-.4.7v-.1c0-.2.1-.5.1-.7zm2-1.1c0-.1.1-.2.2-.2.2.3 0 .6-.1.9-.1.2-.3.5-.4.7 0-.2.1-.5.1-.7 0-.3.1-.5.2-.7zm-.1 2.8s0 .1-.1.1h-.1c-.2-.1-.2-.4-.2-.5v-.3l.2-.2c.1-.1.2.1.3.2s0 .5-.1.7z"/></g><g><path class="st4" d="M-333.4 462.1c.2-.1 1.1-.9.5-1.1-.4-.1-.6.3-.7.6-.1.2-.3.8.1.9.5.1.9-.3 1.2-.5.2-.2-.2-.1-.3 0s-.4.4-.6.3c-.2 0-.2-.3-.2-.4 0-.2.1-.5.3-.6-.1 0 0 0 0 .1v.2c-.1.2-.3.4-.5.5-.2 0 .1.1.2 0z"/><path class="st4" d="M-332.6 462.3c0 .3.3.4.6.3.3-.2.3-.5.4-.7 0-.2 0-.5-.2-.7-.1-.1-.3 0-.3 0-.2.1-.3.3-.3.5s.3 0 .3-.1c0-.2.1-.2.2 0v.3s0 .3-.1.4c0 0 0 .1-.1.1s-.1-.1-.1-.2c-.1-.1-.4 0-.4.1z"/><path class="st4" d="M-332.5 461.1c0 .8-.2 1.6-.4 2.4 0 .1.3 0 .4-.1.2-.8.3-1.6.4-2.4-.1-.2-.4 0-.4.1zM-333.4 461.9c-.1 0-.3.1-.4.2-.2.1-.1-.3-.1-.4.1-.3.2-.5.3-.8.1-.1-.3 0-.3 0 0 .1-.1.1-.1.2-.1.1-.2 0-.2-.1s0-.2.1-.3-.2-.1-.2-.1c-.1 0-.2.1-.3.1-.2.1 0 .2.2.1.1 0 .2-.1.3-.2-.1 0-.2 0-.2-.1-.2.2-.3.6.2.6.3 0 .5-.2.6-.4h-.3c-.2.3-.4.7-.4 1.1 0 .2.1.3.3.3.2 0 .5-.2.6-.2 0 .1.1-.1-.1 0zM-327 460.8c-.2-.4-.6 0-.6.3-.1.3 0 .7.1 1 .1.3.5.3.7 0 .2-.5 0-1-.2-1.3l-.2.2c.1.2.4 1.5.9.8.1-.2 0-.4-.1-.1 0 .1-.2-.3-.2-.3-.2-.2-.3-.4-.4-.6-.1-.2-.3.1-.2.2.1.2.1.4.2.6v.2c-.1 0-.1 0-.2-.1s-.2-.3-.2-.4v-.4c0-.1.2 0 .2 0 .1.3.3 0 .2-.1z"/><path class="st4" d="M-329 461.2c.2.5.2 1 .3 1.5 0 .2.3-.1.3-.2v-.7c0-.1 0-.5.2-.4.1-.1.1-.2.2-.3-.6-.2-.7.7-.7 1 0 .1.1 0 .2 0 .4-.2.2.7.7.4.3-.2.5-.6.6-.9 0-.2-.2 0-.2.1 0 .2-.1.4-.3.5-.1 0-.2-.3-.2-.3-.1-.2-.3-.2-.5 0h.2c0-.1-.1-.6.2-.5.1 0 .3-.3.2-.3-.8-.3-.7 1.3-.7 1.6.1-.1.2-.1.3-.2-.1-.5-.1-1-.4-1.5-.2-.2-.5.1-.4.2zM-331.4 461.4c0 .4 0 .9-.1 1.3 0 .2.3 0 .4-.1 0-.3.1-.4.3-.6.2-.2.3-.5.4-.7 0-.2-.2 0-.3.1-.1.4-.2.9-.1 1.3s.7-.1.9-.2c.2-.2 0-.3-.2-.1 0 0-.3.3-.3.2-.1-.1-.1-.3-.1-.4 0-.3 0-.6.1-.9-.1 0-.2.1-.3.1-.1.3-.2.5-.4.6-.2.2-.3.4-.4.7.1 0 .2-.1.4-.1v-1.3c0-.2-.3 0-.3.1z"/><path class="st4" d="M-328.8 462.2c0 .1-.1.1-.1.2-.1.1 0 0 0 0-.1 0-.2-.1-.2-.2-.1-.3-.1-.7-.2-1 0-.2-.3.1-.3.2V462.3s0 .2-.1.1c-.3-.2-.2-.9-.2-1.1 0-.2-.2 0-.3.1-.1.2-.3 1.4.4 1.3.7-.1.5-1.1.4-1.6-.1.1-.2.1-.3.2 0 .4 0 1 .3 1.3.3.2.6-.3.6-.4.3-.2.1-.1 0 0z"/></g><g><path class="st8" d="M-345.4 447.8c-.1 0-.1-.1-.2-.1-.3-.1-.5.1-.7.1-.6 0-.8 0-1.5-.2 0-.6.3-1 .5-1.5.1-.4-.1-.9-.1-1.4v-.9c-.2.2-.1.7-.1 1-.1-.4-.1-.8-.2-1.2-.1.3 0 .8 0 1.2-.1-.3-.1-.7-.3-1-.2.3.1.8.1 1.1l-.3-.9c-.1.4.1.7.1 1-.1-.2-.2-.5-.4-.7 0 .3.2.6.3.8-.2-.1-.2-.3-.4-.4 0 .2.2.3.2.5-.1-.1-.2-.2-.3-.2 0 .2.2.2.2.4-.1-.1-.2-.1-.3-.2 0 .1.2.2.2.3 0 0-.1-.1-.1 0l.1.1h-.1c0 .1.1.1.1.2h-.1c0 .1.1.1.1.1-.5.5-.2 1.1-.3 1.7 0-.1-.4-.2-.8-.3-.2-.1-.2-.3-.4-.4l.1-.1c-.1 0-.1 0-.1-.1h.2c-.1-.1-.3-.1-.3-.2.1 0 .2.1.3.1-.1-.1-.4-.2-.4-.3.1 0 .3.2.5.1-.2-.1-.5-.3-.6-.4.2.1.4.3.5.2-.3-.1-.5-.4-.7-.4.1.2.5.4.6.5l-.6-.3c.1.2.4.3.5.5-.2 0-.3-.1-.5-.1.1.2.4.2.5.3h-.3c0 .1.2.1.3.2-.1 0-.2 0-.3.1.1.1.2 0 .3.1-.1 0-.1 0-.1.1s.2 0 .2.1c0 0-.1 0-.1.1h.1l-.1.1c.3.1.4.6.8.7-.2.1.2.3-2.2 1.1.1 0 1-.2 1.3-.3l.9-.3c.1 0 .1 0 .2-.1.5 0 .9 0 1.4-.3-.4.1-1 .1-1.2-.1.3-.5.1-1.8.3-2.1.3-.3.7-1.1 1.2-.4.1.1.1.3-.1.6-.2.4-.4.5-.3 1.3 0 .2 0 .3-.2.3 1 .2 1.3.1 1.9 0 .2 0 .5-.2.5 0 0 .1-.2.1-.4.1-.3 0 .1.1.3.1.1 0 .6-.1.9-.1-.3-.2-.4-.2-.6-.2z"/><path class="st8" d="M-348.4 442.5c-2.4 0-4.3 1.9-4.3 4.3s1.9 4.3 4.3 4.3 4.3-1.9 4.3-4.3-1.9-4.3-4.3-4.3m0 .1c2.3 0 4.1 1.8 4.1 4.1s-1.8 4.1-4.1 4.1-4.1-1.8-4.1-4.1c0-2.2 1.8-4.1 4.1-4.1"/></g></g><g id="_x32_"><path class="st0" d="M-218.8 501.1v-63.2c0-22.3-9.2-30.7-9.2-30.7 2.5-13.8-4.1-17.9-4.1-17.9v-5h1.4v-7.1c0-1.8-2.5-1.6-2.5-1.6h-19s-2.5-.2-2.5 1.6v7.1h1.5v5h-.1s-6.6 4.2-4.1 17.9c0 0-9.2 8.5-9.2 30.7v63.2s-.9 13.6 9.1 13.6h29.6c10 0 9.1-13.6 9.1-13.6z"/><path class="st1" d="M-223.7 497.9v-63.2l-9.2-30.7c2.5-13.8-4.2-17.9-4.2-17.9V381H-258v5.1h-.1s-6.6 4.2-4.1 17.9c0 0-9.2 8.5-9.2 30.7v63.2s-.9 13.6 9.1 13.6H-232.5c9.7 0 8.8-13.6 8.8-13.6z"/><path class="st2" d="M-238.1 372.4h-19s-2.5-.2-2.5 1.6v7.1h23.9V374c0-1.8-2.4-1.6-2.4-1.6z"/><path class="st3" d="M-223.7 497.9v-63.2l-9.2-30.7c2.5-13.8-4.2-17.9-4.2-17.9V381h-10.5v130.5h14.9c9.9 0 9-13.6 9-13.6z"/><path class="st4" d="M-263.7 427.3h-.3c-1.4-.2-2.5-1.5-2.3-3 1.2-9.1 5.6-14.7 5.8-14.9.9-1.1 2.6-1.3 3.7-.4s1.3 2.6.4 3.7c-.1.1-3.7 4.7-4.7 12.3-.2 1.4-1.3 2.3-2.6 2.3z"/><g><path class="st5" d="M-228.7 458.9c-.4-1-1.1-.7-1.4 0-.9 2 .4 2.3.6 2.4 0 0-.2-.3-.2-.6 0 0-.4-.4-.4-.7v-.2l.1.1c0 .1.1.4.4.6 0-.1 0-.2.1-.2-.1-.1-.4-.3-.4-.6V459.4l.1.3c0 .2.1.4.4.6 0-.1.1-.2.1-.3-.1 0-.4-.2-.4-.7v-.2l.1.2c0 .1.1.5.4.6 0-.1 0-.2.1-.3 0 0-.3-.1-.4-.6v-.2.2c0 .1.1.5.3.5 0-.5-.1-.9-.1-.9v-.1l.1.1s.1.2.1.5c.1-.2.1-.4.1-.4v-.1l.1.1c0 .2-.1.5-.2.5v.6c.5-.2.6-.6.6-.6v-.1.1c0 .4-.5.7-.6.7 0 0 0 .1-.1.2.5 0 .8-.5.8-.5v-.1s0 .1-.1.2c-.3.4-.8.5-.8.5 0 .1-.1.2-.1.3.1 0 .6-.1.9-.4l.1-.1-.1.1c-.1.1-.5.4-.9.5v.3h.1c.4 0 .6-.3.7-.4l.1-.1-.1.2c-.3.5-.7.5-.8.5 0 .1.1.3.1.3h.1c.8-1 .8-1.8.5-2.5zM-226.2 460.6c.6-.6.3-1.1-.4-1.1-1.8-.1-1.7.9-1.7 1 0 0 .2-.2.4-.3 0 0 .2-.4.4-.5h.1l-.1.1c-.1.1-.2.2-.3.4h.2c0-.1.2-.4.4-.5h.1l.1-.1-.2.1c-.1.1-.3.2-.3.5h.2c0-.1.1-.4.4-.5h.2l-.1.1c-.1.1-.3.2-.3.5h.3s0-.3.4-.4h.2l-.1.1c-.1.1-.3.2-.3.4.4-.1.7-.3.7-.3l.1-.1v.1s-.1.1-.3.2c.2.1.3 0 .3 0h.1v.1c-.1.1-.4 0-.4 0-.2.1-.3.1-.5.1.3.4.6.3.6.3l-.2-.2h-.2c-.3.1-.6-.2-.7-.3h-.1c.1.4.6.5.6.5h-.1c-.4-.1-.6-.5-.6-.5h-.3c0 .1.3.4.5.6h.1-.1c-.1-.1-.5-.3-.6-.6-.1 0-.2 0-.3.1v.1c.1.3.4.4.5.5h.1-.1c-.5-.1-.6-.4-.6-.5l-.2.2v.1c1 .5 1.6.3 2.1-.2z"/><path class="st5" d="M-228.1 461.6c.4-.2.3-.5 0-.6-.9-.4-1 .2-1 .2s.1-.1.3-.1c0 0 .2-.1.3-.2h.1-.1c-.1 0-.2.1-.2.2h.1s.1-.1.3-.2h.1-.1c-.1 0-.2.1-.2.2 0 0 .1 0 .1.1 0 0 .1-.2.3-.2h-.1c-.1 0-.2 0-.3.2h.1s.1-.1.3-.2h-.1c-.1 0-.2.1-.2.1h.4s-.1 0-.2.1c.1.1.2.1.2.1-.1 0-.2-.1-.2-.1h-.3c.1.3.3.3.4.4-.3 0-.4-.3-.4-.3h-.1c0 .2.2.4.2.4h-.1c-.2-.1-.2-.4-.2-.4s-.1 0-.1-.1c0 .1.1.3.2.4h-.1s-.2-.2-.2-.4h-.1c0 .2.1.3.2.3h.1-.1c-.2-.2-.2-.3-.2-.4-.1 0-.1.1-.1.1.3.5.7.5 1 .4zM-228.8 463c.8-.4.6-.9 0-1.2-1.7-.8-2 .3-2 .4 0 0 .2-.2.5-.1 0 0 .3-.3.6-.3h.1-.1c-.1 0-.3.1-.5.3.1 0 .1 0 .2.1.1-.1.3-.3.5-.3H-229.2h-.2c-.1 0-.3.1-.5.3.1 0 .1.1.2.1 0-.1.2-.3.6-.3h.2-.1c-.1 0-.4.1-.5.3.1 0 .2 0 .3.1 0 0 .1-.3.5-.3h.2-.1c-.1 0-.4.1-.5.3.4 0 .8-.1.8-.1h.1l-.1.1s-.2.1-.4.1c.1.1.3.1.3.1h.1-.1c-.2 0-.4-.1-.4-.1h-.5c.2.4.5.5.5.5h.1-.1c-.4 0-.5-.5-.6-.5 0 0-.1 0-.1-.1 0 .4.4.7.4.7h.1s-.1 0-.2-.1c-.4-.3-.4-.7-.4-.7-.1 0-.2-.1-.3-.1 0 .1.1.5.3.7l.1.1-.1-.1c-.1-.1-.3-.4-.4-.8h-.3v.1c0 .3.2.5.4.6l.1.1-.1-.1c-.4-.3-.4-.6-.4-.7-.1 0-.2.1-.3.1v.1c.5.9 1.2.9 1.8.7zM-231.3 460.8c-.4-.9-1-.7-1.3 0-.8 1.9.4 2.1.5 2.2 0 0-.2-.2-.2-.6 0 0-.3-.3-.4-.6v-.1.1c0 .1.1.3.4.5 0-.1 0-.1.1-.2-.1-.1-.3-.3-.4-.6V461.2l.1.2c0 .1.1.3.4.5 0-.1.1-.2.1-.3-.1 0-.4-.2-.4-.6v-.2l.1.1c0 .1.1.4.4.5 0-.1 0-.2.1-.3 0 0-.3-.1-.3-.6v-.2.2c0 .1.1.4.3.5 0-.5-.1-.9-.1-.9v-.1l.1.1s.1.2.1.4c.1-.1.1-.4.1-.4v-.1l.1.1c0 .2-.1.4-.1.5v.6c.5-.2.5-.6.5-.6v-.1.1c0 .4-.5.6-.6.6 0 0 0 .1-.1.1.4 0 .8-.5.8-.5v-.1s0 .1-.1.2c-.3.4-.7.5-.8.5 0 .1-.1.2-.1.3.1 0 .5-.1.8-.4l.1-.1-.1.1c-.1.1-.5.4-.8.4v.3h.1c.3 0 .6-.3.7-.4l.1-.1-.1.2c-.3.5-.6.5-.8.5 0 .1.1.3.1.3h.1c.8-.3.8-1 .5-1.7z"/><path class="st5" d="M-231.5 463.1c-.3-.6-.7-.4-.8 0-.5 1.2.3 1.4.3 1.4s-.1-.2-.1-.4c0 0-.2-.2-.2-.4v-.1.1c0 .1.1.2.2.3v-.1s-.2-.2-.2-.4v-.1.2c0 .1.1.2.2.3 0-.1 0-.1.1-.2 0 0-.2-.1-.3-.4v-.1.1c0 .1.1.3.2.3v-.2s-.2-.1-.2-.4v-.2.1c0 .1.1.3.2.3 0-.3-.1-.5-.1-.5v-.1.1s.1.1.1.3c.1-.1.1-.2.1-.2 0 .1-.1.3-.1.3v.4c.3-.1.3-.3.3-.3l.3-.1v.1c0 .2-.3.4-.4.4v.1c.3 0 .5-.3.5-.3v.1c-.2.3-.5.3-.5.3 0 .1-.1.1-.1.2.1 0 .3-.1.5-.2v.1c-.1.1-.3.2-.5.3v.2h.1c.2 0 .4-.2.4-.3l.1-.1v.1c-.2.3-.4.3-.5.3 0 .1.1.2.1.2.5-.6.5-1.1.3-1.5z"/><path class="st5" d="M-230.1 465.5c.8-.4.6-1 0-1.2-1.7-.8-2 .3-2 .4 0 0 .2-.2.6-.1 0 0 .3-.3.6-.3h.1-.1c-.1 0-.3.1-.5.3.1 0 .1 0 .2.1.1-.1.3-.3.6-.3H-230.3h-.2c-.1 0-.3.1-.5.3.1 0 .2.1.2.1 0-.1.2-.3.6-.4h.2-.1c-.1 0-.4.1-.5.4.1 0 .2 0 .3.1 0 0 .1-.3.5-.3h.2-.2c-.1 0-.4.1-.5.3.4 0 .8-.1.8-.1h.1l-.1.1s-.2.1-.4.1c.1.1.3.1.3.1h.1-.1c-.2 0-.4-.1-.4-.1h-.5c.2.5.5.5.5.5h.1-.1c-.4 0-.6-.5-.6-.5s-.1 0-.1-.1c0 .4.4.7.4.7h.1s-.1 0-.2-.1c-.4-.3-.4-.7-.4-.7-.1 0-.2-.1-.3-.1 0 .1.1.5.3.8l.1.1-.1-.1c-.1-.1-.4-.4-.4-.8h-.3v.1c0 .3.2.5.4.7l.1.1-.1-.1c-.4-.3-.4-.6-.4-.7-.1 0-.2.1-.3.1v.1c.4.8 1 .8 1.7.5z"/><path class="st5" d="M-230.7 467c.9-.1.8-.6.3-1-1.5-1.1-2-.2-2.1-.2 0 0 .3-.1.6 0 0 0 .4-.2.6-.1h.1-.1c-.1 0-.3 0-.5.1.1 0 .1.1.2.1s.3-.2.6-.1H-230.7h-.2c-.1 0-.3 0-.5.2.1 0 .1.1.2.1 0 0 .3-.2.6-.2h.2-.1c-.1 0-.4 0-.6.2.1 0 .2.1.2.1s.2-.2.6-.1h.2-.1c-.1 0-.4 0-.5.1.4.1.8.1.8.1h.1-.1-.4c.1.1.3.2.3.2h.1-.1c-.2 0-.4-.2-.4-.2-.2 0-.4-.1-.5-.2.1.4.4.5.4.5h.1-.1c-.3-.1-.4-.5-.4-.6 0 0-.1 0-.1-.1-.1.3.3.7.3.7h.1s-.1 0-.2-.1c-.3-.3-.3-.7-.3-.7-.1-.1-.2-.1-.2-.2 0 .1 0 .5.1.7l.1.1-.1-.1c-.1-.1-.2-.4-.2-.8-.1 0-.2-.1-.3-.1v.1c-.1.3.1.5.2.6l.1.1-.1-.1c-.3-.4-.3-.6-.3-.7h-.3v.1c.1 1.4.8 1.5 1.4 1.5zM-234.5 461.7c-1.1-.5-1.4.2-1 1 1.1 2.2 2.2 1.6 2.3 1.5 0 0-.4-.1-.6-.4-.1 0-.5-.1-.8-.2l-.1-.1.2.1c.1.1.4.2.7.2-.1-.1-.1-.1-.1-.2-.1 0-.5 0-.8-.2 0 0-.1 0-.1-.1l-.2-.2.3.2c.1.1.4.2.7.2 0-.1-.1-.2-.1-.3-.1 0-.5.1-.8-.2l-.1-.1-.1-.1.2.1c.1.1.5.3.8.2-.1-.1-.1-.2-.2-.3 0 0-.3.1-.8-.2l-.1-.1-.1-.1.2.1c.1.1.5.3.7.2-.4-.4-.8-.7-.8-.7l-.1-.1h.1s.2.1.5.3c0-.2-.2-.4-.2-.4l-.1-.1h.1c.2.1.3.5.3.5.2.2.4.3.5.5.2-.5-.1-.9-.1-.9l-.1-.1.1.1c.3.3.2.9.1 1 0 0 .1.1.1.2.3-.3.1-1 .1-1v-.1s.1.1.1.2c.1.6-.1 1-.2 1 .1.1.1.2.2.3.1-.1.3-.5.3-.9v-.1l.1.2c0 .2 0 .7-.3 1l.3.3s.1 0 .1-.1c.2-.3.2-.7.1-.9v-.2l.1.2c.2.6 0 .9-.1 1 .1.1.3.1.3.1l.1-.1c-.2-1.3-.9-1.9-1.7-2.2zM-232.8 467c.5.3.7 0 .5-.5-.4-1.2-1-.9-1.1-.8 0 0 .2.1.3.2 0 0 .3.1.4.2l.1.1h-.1c-.1 0-.2-.1-.3-.1 0 0 0 .1.1.1 0 0 .2 0 .4.2l.1.1-.1-.1c-.1-.1-.2-.1-.4-.1 0 .1 0 .1.1.2 0 0 .2 0 .4.2l-.1-.1c-.1-.1-.2-.2-.4-.1 0 .1.1.1.1.2 0 0 .2 0 .4.2l-.1-.1c-.1 0-.2-.2-.3-.1l.4.4h0l-.2-.2c0 .1.1.2.1.2h-.1c-.1-.1-.1-.2-.1-.3-.1-.1-.2-.2-.2-.3-.1.3 0 .4 0 .4l.1.1v-.1c-.2-.2 0-.5 0-.5v-.1c-.2.2-.1.5-.1.5v-.1c0-.3.1-.5.1-.5 0-.1 0-.1-.1-.2 0 0-.2.2-.2.4v.1-.1c0-.1 0-.3.2-.5 0-.1-.1-.1-.1-.1-.1.1-.1.3-.1.4v.1-.1c0-.3.1-.4.1-.5-.1 0-.1-.1-.2-.1-.3.9 0 1.2.4 1.4zM-232.4 463.6c0-.1 0-.1.1-.2-1.6 1.7-2.4 3.2-2.4 3.3l.1.1s.7-1.5 2.2-3c-.1-.1-.1-.2 0-.2zM-228.2 460.6l.1-.2-.1.2c-1.4.5-2.6 1.4-3.6 2.3l.1.1c1-.9 2.2-1.8 3.5-2.4.4-.1 0 0 0 0z"/><path class="st9" d="M-231.7 465.5c-.2.5-.8.7-1.4.5-.5-.2-.7-.8-.5-1.4.2-.5.8-.7 1.4-.5.6.2.8.8.5 1.4"/><path class="st10" d="M-231.8 464.8c-.1.1-.3.1-.4-.1-.1-.1-.2-.3-.1-.4.1-.1.3-.1.4.1.1.1.2.3.1.4"/><path class="st9" d="M-233.2 465.3c.3.4.2 1-.2 1.3-.4.3-1 .2-1.3-.2s-.2-1 .2-1.3c.4-.3 1-.2 1.3.2"/><path class="st10" d="M-233.8 465.2c0 .1-.1.3-.2.3-.2.1-.3 0-.4-.1 0-.1.1-.3.2-.3.2-.1.4 0 .4.1"/><path class="st9" d="M-233.9 463.8c.2.3.2.7-.1.9-.3.2-.7.2-.9-.1-.2-.3-.2-.7.1-.9.2-.3.7-.2.9.1"/><path class="st10" d="M-234.3 463.7c0 .1 0 .2-.2.2-.1 0-.2 0-.3-.1 0-.1 0-.2.2-.2.1-.1.2 0 .3.1"/><path class="st9" d="M-232.6 462.4c.2.3.2.7-.1.9-.3.2-.7.2-.9-.1-.2-.3-.2-.7.1-.9.3-.2.7-.2.9.1"/><path class="st10" d="M-233 462.3c0 .1 0 .2-.2.2-.1 0-.2 0-.3-.1 0-.1 0-.2.2-.2s.3 0 .3.1"/><path class="st9" d="M-231 460.2c.4.1.6.4.6.8-.1.4-.4.6-.8.6-.4-.1-.6-.4-.6-.8.1-.4.4-.6.8-.6"/><path class="st10" d="M-231.4 460.4c.1 0 .1.2 0 .3s-.2.2-.2.1c-.1 0-.1-.2 0-.3.1-.1.2-.1.2-.1"/><path class="st9" d="M-230.5 464.3c-.4.3-.9.2-1.2-.2s-.2-.9.2-1.2c.4-.3.9-.2 1.2.2.2.4.2.9-.2 1.2"/><path class="st10" d="M-230.4 463.8c-.1 0-.2-.1-.3-.2 0-.1 0-.3.1-.3s.2.1.3.2c.1.1 0 .2-.1.3"/><circle class="st9" cx="-246.6" cy="454.4" r="12.7"/><circle class="st5" cx="-256.7" cy="465.6" r="4"/><g><path class="st4" d="M-259.4 465c.1-.4.4-.1.5.1.1.3 0 .6-.2.8-.1.2-.3.3-.5.5-.1.1-.2.1-.3.2 0 0-.1.1 0 .2s.4.1.6.1c.3 0 .6 0 .9-.1.2-.1.3-.5 0-.3-.2.1-.5.1-.7.1-.1 0-.4 0-.5-.1v.2c-.1.2 0 .1.1 0s.2-.1.3-.2l.4-.4c.2-.3.4-.7.3-1-.2-.9-1.1-.2-1.3.2 0 .1.4-.2.4-.3zM-257.2 466.4c.3 1 1.8.3 1.5-.6-.1-.4-.6-.4-1-.5-.2-.1-.2-.2-.2-.4.1-.2.1-.2-.1-.1h.2c.3-.1.6 0 .9.1.1.1.4-.3.3-.3-.4-.2-.8-.1-1.1-.1-.4.1-.4.4-.5.7 0 .4.4.5.7.5.2 0 .5.1.5.4 0 .5-.4.4-.6.3-.1-.1-.2-.2-.2-.3-.1-.1-.4.2-.4.3zM-253.8 464.7c-.4.7-.9 1.3-1.4 1.9-.2.3.1.3.3.1.5-.7 1-1.3 1.5-2 .1-.4-.3-.2-.4 0zM-254.6 464.5c-.3 0-.4.2-.5.5 0 .2.1.4.3.4.5 0 .8-.9.2-.9-.1 0-.3.3-.1.3.1 0 .2.1.2.2v.1h-.1s-.2-.1-.2-.2v-.1h.1c.1-.1.3-.3.1-.3zM-253.9 465.9c-.3 0-.4.2-.5.5 0 .2.1.4.3.4.5 0 .8-.9.2-.9-.1 0-.3.3-.1.3.1 0 .2.1.2.2v.1h-.1s-.2-.1-.2-.2v-.1h.1s.3-.3.1-.3zM-257.7 467.3c.2-.2.3-.4.3-.6v-.2c-.1-.1-.2 0-.3 0-.1 0-.2.2-.2.3s.1.1.2.1v.1c0 .1 0 .1-.1.1 0-.1 0 0 0 0-.1 0-.2.2-.1.3 0 0 .1-.1.2-.1z"/></g><g><path class="st4" d="M-236.7 456.8c-.2-.1-.4 0-.6.2-.1-.3.1-.9.1-1.2.2-1 .2-1.7 0-2-.2-.3-.6-.1-.8-.1-.1.1-.2.1-.3.2 0-.2-.1-.4-.2-.6-.2-.2-.5-.2-.7-.1-.1.1-.3.1-.4.2v-.3-.1s-.1 0-.1-.1h-.1c-.1 0-.3.1-.4.1l-.2.2c-.2.2-.4.1-.6 0-.2-.1-.3-.2-.4-.4-.1-.1-.1-.2-.2-.3-.3-.2-.7-.1-.9 0v-.7c0-.2-.4-.1-.5 0s-.3.2-.3.3c0 0-.3 1.1-.9 2 0-.6.1-1.2.1-1.9 0-.1 0-.1-.1-.2h-.3c-.2.1-.4.3-.4.4-.1.9-.2 2.7-.7 2.7s-.3-2.1-.2-3.1c0-.1-.1-.2-.2-.1h-.2c-.2.1-.4.3-.4.5-.1.6-.2 1.2-.4 1.8-.1.3-.3.9-.7.9s-.4-.4-.3-.7c.1-.3.3-.6.5-.9l.4-.8c0-.4-.2-.7-.7-.8-.5 0-.8.2-1.1.5-.1.1-.2.2-.3.2-.3 0-.6-.2-.6-.2-.1-.1-.3-.2-.6-.1-.9.3-1.1 1.3-1 2.2 0 .5 0 1-.1 1.1-.3 0-.5-.4-.7-.6-.2-.5-.3-1-.4-1.6-.1-.8-.1-1.6-.1-2.3 0-.2-.3-.1-.4 0-.2.2-.4.4-.4.6 0 .9.1 1.9.1 2.9 0 .5 0 1-.1 1.4-.1.2-.2.2-.3.2-.3-.1-.4-.4-.5-.7-.1-.4-.2-.9-.2-1.4s0-.9-.1-1.4c0-.3 0-.7-.2-.9-.3-.5-1.1.3-1.3.6-.4.5-.6 1.1-.6 1.6 0 .2.1.3.3.1.2-.2.4-.4.4-.7 0-.2.1-.7.3-.8v.1s.1.2.1.4c.1.9.1 1.9.3 2.8.1.7.4 1.6 1.3 1.3.5-.1.8-.7 1-1.1v-.1c.2.4.6.7 1.1.6.4-.1.5-.5.6-.8.2.3.4.5.8.5.4-.1.8-.5.9-.9.2-.4.2-.9.2-1.3 0-.2 0-.5-.1-.7.1 0 .2 0 .3-.1.2-.1.4-.4.6-.5h.3c.6.3-.3 1-.6 1.6-.2.4-.4 1 0 1.4.5.6 1.5.2 1.9-.4.1-.1.2-.3.3-.4 0 .5.2 1 .8 1 .3 0 .5-.1.7-.3-.3.4-.5.9-.8 1.4-.2.4-.4.8-.4 1.3s.6.8 1 .5c.4-.2.7-.7.8-1.2.2-.8.2-1.6.2-2.4.4-.6.7-1.1 1-1.8 0 .8-.1 1.7-.1 2.5l-.3 2.7c0 .2.2.2.3.1.2-.1.4-.2.4-.4.1-.7.2-1.4.3-2 .3 0 .6 0 .8-.2.6-.4.8-1.1.8-1.8v-.3c.3.1.5 0 .8-.1-.1.9-.3 1.7-.4 2.6-.1.4.7.1.8-.2.1-.8.4-1.5.7-2.2 0-.1.1-.1.1-.2.1.5 0 1-.1 1.4 0 .2-.1.4-.1.6-.1.3-.1.5-.2.8-.1.4.7.1.8-.2.1-.2.1-.5.2-.7.2-.6.4-1.1.7-1.6.1.3 0 .6 0 .9 0 .4-.1.7-.2 1.1-.1.3-.1.6 0 .9.2.7 1.1.1 1.4-.1.1 0 .2-.2 0-.3zm-13.5-1.4c0 .1 0 .2-.1.2-.2 0-.3-.2-.4-.4-.1-.3-.2-.6-.2-.9v-1c0-.1 0-.2.1-.2s.1.1.2.1c.2.2.4.9.4 1.1.1.5.1.8 0 1.1zm5.1 1.6c0 .3 0 .7-.1 1 0 .1 0 .2-.1.3 0 0-.1 0-.2-.1-.2-.2-.1-.5 0-.7.1-.3.3-.7.5-1-.1.2-.1.3-.1.5zm3-1.3s-.1 0 0 0c-.3 0-.5-.3-.4-.5 0-.5.1-1 .1-1.5 0-.2 0-.3.1-.5.1 0 .2.1.3.2.2.3.2.8.2 1.2 0 .3-.1.8-.3 1.1zM-254.3 451.2c.5-.2.9-.6 1.2-1 .1-.1.3-.4.1-.5s-.5.2-.5.3c-.1.2-.2.4-.4.5s-.5 0-.6-.1c-.2-.2-.9.5-.7.7.2.2.5.3.9.1z"/></g><path class="st9" d="M-252.5 438.8c0 .9-.7 1.6-1.6 1.6-.9 0-1.6-.7-1.6-1.6s.7-1.6 1.6-1.6c.8 0 1.6.7 1.6 1.6z"/><path class="st5" d="M-252.5 444.3c0 1.1-.9 2.1-2.1 2.1-1.1 0-2.1-.9-2.1-2.1 0-1.2.9-2.1 2.1-2.1s2.1.9 2.1 2.1zM-258 441.1c0 .7-.6 1.2-1.2 1.2-.7 0-1.2-.6-1.2-1.2 0-.7.6-1.2 1.2-1.2.6-.1 1.2.5 1.2 1.2z"/><g><circle class="st5" cx="-235.7" cy="442.8" r="7"/><path class="st4" d="M-237.4 441.8c-.6.1-.7.8-.8 1.2v.8c0 .1 0 .3-.1.3-.2 0-.4-.3-.4-.4-.1-.4-.2-.7-.3-1.1-.1-.4-.1-.8-.1-1.2v-.5V440.6c.1-.3-.4 0-.5.1-.5.8-.3 1.8-.3 2.7v.7c0 .2-.1.5-.2.6-.1.1-.2 0-.3 0-.1-.1-.2-.2-.2-.3s-.2-.1-.2 0c-.1.1-.2.3-.2.4.1.3.3.6.7.5.5-.2.7-.8.9-1.3.1-.2.1-.5.1-.7.1.3.2.7.3 1 .1.2.3.5.6.4.2 0 .4-.3.5-.5.1.2.3.4.5.4.3 0 .5-.3.6-.6.1-.3.2-.6.2-.9-.1-.5-.2-1.4-.8-1.3zm.1 2v.2c-.1 0-.2-.2-.2-.3-.1-.2-.1-.4-.2-.6v-.7-.2c.3.2.4.6.4.9.1.3.1.5 0 .7zM-230.5 442.6c-.6-.2-1 .6-1.1 1.1-.1.4-.2 1.2.3 1.4.3.1.6-.1.7-.3.2-.2.3-.5.4-.8.2-.4.3-1.2-.3-1.4zm-.4 2l-.1.1c-.1-.1-.1-.3-.1-.3v-.6c0-.2.1-.4.2-.6l.1-.1c.2.3.2.7.1 1 0 .1-.1.3-.2.5zM-232.2 442.7c.1-.2.2-.3.3-.5.2-.3.5-.8.4-1.2 0-.4-.6-.4-.8-.3-.4.2-.6.6-.7 1-.2.5-.2 1.1-.3 1.6-.2.2-.6.7-.9.5-.1 0-.1-.2-.2-.3.3-.3.5-.5.7-.9.2-.3.3-.8 0-1-.3-.2-.7 0-.9.3-.2.2-.3.6-.3.9v.7c-.2.1-.4.2-.6.1-.2 0-.3-.3-.4-.5-.1-.3 0-.6 0-.9 0-.1 0-.2.1-.3v-.1c.1.1.2.3.2.4.1.2.6-.1.5-.3-.1-.2-.1-.4-.4-.5-.2-.1-.5.1-.6.2-.4.4-.4.9-.4 1.4 0 .3.1.7.4.9.4.2.9 0 1.3-.2.1.2.3.4.6.4.4-.1.7-.3 1-.5 0 .3.1.6.3.7.3.2.7 0 1-.3.3-.4.4-.9.3-1.3-.2.1-.4 0-.6 0zm-2.1-.2c0-.1.1-.2.1-.2.1 0 .2.2.2.4s-.2.5-.4.7v-.1c0-.4 0-.6.1-.8zm2-1.2c0-.1.1-.2.2-.2.2.3 0 .6-.1.9-.1.2-.3.5-.5.7 0-.2.1-.5.1-.7.1-.2.2-.5.3-.7zm-.1 2.9s0 .1-.1.1h-.1c-.2-.1-.2-.4-.2-.5v-.4l.2-.2c.1-.1.2.1.3.2.1.2 0 .6-.1.8z"/></g><g><path class="st4" d="M-241.9 461.9c-.2-.3-.6.1-.7.4-.1.3 0 .7.2 1 .2.2.6.2.7-.2.3-.5-.1-.9-.2-1.2-.1.1-.1.2-.2.3.1.2.6 1.4 1 .7.1-.2 0-.4-.2-.1 0 .1-.3-.3-.3-.3l-.3-.6c-.1-.1-.3.2-.2.3l.3.6c0 .1.1.2 0 .2h-.2c-.1-.1-.2-.3-.3-.4 0-.1 0-.2-.1-.3v-.1c0-.1.2 0 .2 0 .1.1.3-.2.3-.3zM-250.6 461.9c-.5-.1-.9.2-1.1.5-.1.3-.1.9.4.8.7-.1.9-.8.7-1.3v-.5V461.1c-.2 0-.2 0 0 .1.2.2.4.4.7.4.1 0 .4-.2.2-.2-.4 0-.5-.5-.9-.5-.3 0-.4.3-.4.5.1.3.1.5.1.8 0 .1-.3.8-.4.7-.3-.2.2-1 .5-.9.1.2.4 0 .2-.1z"/><path class="st4" d="M-244.1 462.6c.3.4.3.9.4 1.4 0 .2.3-.1.3-.2 0-.2-.1-.4-.1-.7 0-.1-.1-.5.2-.4.1-.1.1-.2.2-.3-.7-.1-.7.8-.6 1.1 0 .1.1 0 .2 0 .4-.3.3.7.8.3.3-.2.5-.7.5-1 0-.2-.2 0-.3.1 0 .2-.1.4-.2.5-.1.1-.3-.3-.3-.3-.2-.2-.4-.1-.6.1h.2c0-.1-.1-.6.2-.5.1 0 .3-.3.2-.3-.9-.1-.6 1.4-.6 1.7.1-.1.2-.2.3-.2-.1-.5-.2-1-.5-1.4-.1-.2-.4 0-.3.1zM-246.7 463.1c0 .4.1.9 0 1.3 0 .2.4-.1.4-.2 0-.3.1-.4.3-.6.2-.2.3-.5.3-.7 0-.2-.3 0-.3.1-.1.4-.1.9 0 1.2.1.4.8-.1.9-.3.2-.2 0-.3-.2-.1 0 0-.3.3-.3.2-.1-.1-.1-.2-.1-.4 0-.3-.1-.6 0-.9-.1 0-.2.1-.3.1-.1.3-.1.5-.4.7-.2.2-.3.5-.3.7.1-.1.2-.1.4-.2 0-.4 0-.9-.1-1.3 0 .1-.3.3-.3.4z"/><path class="st4" d="M-243.8 463.6c0 .1-.1.1-.1.2-.1.1 0 0 0 0-.1 0-.2-.1-.3-.2-.2-.3-.2-.6-.3-.9 0-.2-.3.1-.3.2 0 .2.1.4.1.6v.3s0 .2-.1.1c-.4-.1-.3-.8-.3-1.1 0-.2-.3 0-.3.1 0 .3-.2 1.4.5 1.3.8-.2.4-1.2.3-1.6-.1.1-.2.1-.3.2.1.4.1 1 .5 1.2.3.2.6-.4.6-.4.4-.2.1-.1 0 0zM-249 462.9c-.1.3-.7 1.3 0 1.4.8.1.9-.9 1-1.3 0-.1-.3 0-.3.1-.1.3-.2.5-.3.8 0 .1-.1.3-.2.2-.2-.1 0-.5 0-.6.1-.2.1-.4.2-.6 0-.3-.4-.1-.4 0z"/><path class="st4" d="M-248.3 463c-.1.3-.3 2.2-.6 2.2-.8-.2 1.1-1.1 1.3-1.3.2-.1.1-.3-.1-.1-.4.2-.9.4-1.2.7-.2.2-.8.7-.2.9.4.1.8-.2.9-.4.3-.6.2-1.4.3-2.1-.1-.1-.4 0-.4.1z"/><path class="st4" d="M-246.8 463.2c-.1-.3-.3-.4-.6-.2s-.4.7-.3 1c0 .3.2.5.6.5.4-.1.7-.3.9-.5.2-.2-.1-.2-.2 0-.2.2-.7.6-.9.1-.1-.1 0-.3 0-.5 0-.1.1-.3.1-.4 0 .1.1.2.1.3 0 0 .3-.2.3-.3zM-250.9 462.1c.1.4.6.5 1 .4.2 0 .3-.2 0-.2s-.5 0-.6-.3c-.1-.1-.4 0-.4.1z"/><path class="st4" d="M-250.5 463.4c-.1.3.3.5.6.4s.5-.4.5-.6c.1-.2.1-.5-.1-.7-.1-.1-.3-.1-.4 0-.2 0-.4.2-.4.4-.1.1.3.1.4 0 .1-.2.2-.2.2 0v.4c0 .1-.1.3-.2.4l-.1.1c-.1-.1-.1-.1-.1-.2.1-.4-.3-.3-.4-.2z"/><path class="st4" d="M-250.1 462.2c-.2.8-.5 1.5-.9 2.2-.1.1.4.1.4 0 .4-.7.7-1.5.8-2.3.1 0-.3 0-.3.1z"/></g><g><path class="st8" d="M-261.9 449c-.1 0-.1-.1-.2-.1-.3-.1-.5.1-.7.1-.6 0-.8 0-1.5-.2 0-.6.4-1 .5-1.5.1-.4-.1-.9-.1-1.4v-.9c-.2.2-.1.8-.1 1-.1-.4-.1-.9-.2-1.2-.1.4 0 .9 0 1.2-.1-.3-.1-.7-.3-1-.2.3.1.8.1 1.2-.1-.3-.2-.7-.3-.9-.1.4.1.7.1 1-.1-.2-.2-.5-.4-.7 0 .3.2.6.3.8-.2-.1-.2-.3-.4-.4 0 .2.2.3.2.5l-.3-.3c0 .2.2.2.2.4-.1-.1-.2-.1-.3-.2 0 .1.2.2.2.3 0 0-.1-.1-.1 0l.1.1h-.1c0 .1.1.1.1.2h-.1c0 .1.1.1.1.1-.5.5-.2 1.1-.3 1.7 0-.1-.4-.2-.8-.3-.2-.1-.2-.3-.4-.4 0 0 .1 0 .1-.1-.1 0-.1 0-.1-.1h.2c-.1-.1-.3-.1-.3-.2.1 0 .2.1.3.1-.1-.1-.4-.2-.4-.3.1.1.3.2.5.1-.2-.1-.5-.3-.6-.5.2.1.4.3.5.3-.3-.1-.5-.4-.7-.4.1.2.5.4.6.5l-.6-.3c.1.3.4.3.6.5-.2 0-.3-.1-.5-.1.1.2.4.2.5.3-.1-.1-.2 0-.3 0 0 .1.2.1.3.2-.1 0-.2 0-.3.1.1.1.2 0 .3.1-.1 0-.1 0-.1.1s.2 0 .2.1c0 0-.1 0-.1.1h.1l-.1.1c.3.1.4.6.8.7-.2.2.2.3-2.2 1.1.1 0 1.1-.2 1.4-.3l.9-.3c.1 0 .1-.1.2-.1.5 0 1 0 1.5-.3-.4.1-1 .1-1.3-.1.3-.5.1-1.8.4-2.1.3-.3.7-1.1 1.2-.4.1.1.1.3-.1.6-.2.4-.4.5-.3 1.3 0 .2 0 .3-.2.3 1.1.2 1.4.1 2 0 .2 0 .5-.2.5 0 0 .1-.2.1-.4.1-.3 0 .1.1.3.1.1 0 .6-.1.9-.1-.7-.1-.8-.1-1-.2z"/><path class="st8" d="M-265 443.6c-2.4 0-4.4 2-4.4 4.4 0 2.4 2 4.4 4.4 4.4s4.4-2 4.4-4.4c0-2.5-2-4.4-4.4-4.4m0 .1c2.3 0 4.2 1.9 4.2 4.2 0 2.3-1.9 4.2-4.2 4.2s-4.2-1.9-4.2-4.2c-.1-2.3 1.8-4.2 4.2-4.2"/></g></g></g><g id="_x33_"><path class="st0" d="M-136.8 501.1v-63.2c0-22.3-9.2-30.8-9.2-30.8 2.5-13.8-4.1-17.9-4.1-17.9v-5h1.4v-7.1c0-1.8-2.5-1.6-2.5-1.6h-19s-2.5-.2-2.5 1.6v7.1h1.5v5h-.1s-6.6 4.2-4.1 17.9c0 0-9.2 8.5-9.2 30.7V501s-.9 13.6 9.1 13.6h29.6c10.1.1 9.1-13.5 9.1-13.5z"/><path class="st1" d="M-141.6 497.9v-63.2l-9.2-30.7c2.5-13.8-4.1-17.9-4.1-17.9V381H-176v5.1s-6.6 4.2-4.2 17.9c0 0-9.2 8.5-9.2 30.7v63.2s-.9 13.6 9.1 13.6H-150.5c9.8 0 8.9-13.6 8.9-13.6z"/><path class="st2" d="M-156.1 372.4H-175s-2.5-.2-2.5 1.6v7.1h23.8V374c.1-1.8-2.4-1.6-2.4-1.6z"/><path class="st3" d="M-141.7 497.9v-63.2l-9.2-30.7c2.5-13.8-4.1-17.9-4.1-17.9V381h-10.5v130.5h14.9c9.9 0 8.9-13.6 8.9-13.6z"/><path class="st4" d="M-181.6 427.3h-.3c-1.4-.2-2.5-1.5-2.3-3 1.2-9.1 5.6-14.7 5.8-14.9.9-1.1 2.6-1.3 3.7-.4s1.3 2.6.4 3.7c-.1.1-3.7 4.7-4.7 12.3-.2 1.4-1.3 2.3-2.6 2.3z"/><g><circle class="st11" cx="-165.1" cy="454.2" r="12.4"/><circle class="st5" cx="-175" cy="465.1" r="3.9"/><path class="st4" d="M-177.6 464.5c.1-.4.4-.1.5.1.1.3 0 .6-.2.8-.1.2-.3.3-.5.5-.1.1-.2.1-.2.2 0 0-.1.1 0 .1.1.1.4.1.6.1.3 0 .6 0 .9-.1.2-.1.3-.4 0-.3-.2.1-.5.1-.7.1-.1 0-.4 0-.5-.1v.2c-.1.2 0 .1 0 0 .1-.1.2-.1.2-.2l.4-.4c.2-.3.4-.6.3-1-.2-.8-1.1-.2-1.2.2 0 .2.4 0 .4-.2zM-175.4 465.9c.3.9 1.7.3 1.5-.5-.1-.4-.6-.4-.9-.5-.2-.1-.2-.2-.2-.4.1-.2.1-.2-.1-.1h.2c.3-.1.6 0 .9.1.1.1.4-.3.3-.3-.3-.2-.8-.1-1.1-.1-.3.1-.4.4-.4.7 0 .4.4.5.7.5.2 0 .4.1.5.4 0 .4-.4.4-.6.2-.1-.1-.2-.2-.2-.3-.3-.1-.7.2-.6.3zM-172.1 464.2c-.4.7-.9 1.3-1.4 1.9-.2.3.1.3.3.1.5-.6 1-1.3 1.4-2 .1-.3-.3-.1-.3 0zM-172.9 464c-.2 0-.4.2-.5.5 0 .2.1.4.3.4.5 0 .8-.8.2-.9-.1 0-.3.3-.1.3.1 0 .2.1.2.2v.1h-.1s-.2-.1-.2-.2v-.1h.1s.3-.3.1-.3zM-172.2 465.4c-.2 0-.4.2-.5.5 0 .2.1.4.3.4.5 0 .7-.8.2-.9-.1 0-.3.3-.1.3.1 0 .2.1.2.2v.1h-.1s-.2-.1-.2-.2v-.1h.1s.3-.3.1-.3zM-176 466.8c.2-.2.3-.4.3-.6v-.2c-.1-.1-.2 0-.3 0s-.2.2-.2.3.1.1.2.1v.1c0 .1 0 .1-.1.1s-.2.2-.1.3l.2-.1zM-155.5 456.6c-.2-.1-.4 0-.5.2-.1-.3.1-.9.1-1.2.2-.9.2-1.7 0-1.9-.2-.2-.6-.1-.8-.1-.1.1-.2.1-.3.2 0-.2-.1-.4-.2-.6-.2-.2-.5-.2-.6-.1s-.3.1-.4.2v-.3-.1s-.1 0-.1-.1h-.1c-.1 0-.3.1-.4.1l-.2.2c-.2.2-.4.1-.6 0s-.3-.2-.4-.4c-.1-.1-.1-.2-.2-.2-.3-.2-.6-.1-.9 0v-.7c0-.2-.4-.1-.5 0s-.3.2-.3.3c0 0-.3 1.1-.9 2 0-.6.1-1.2.1-1.8 0-.1 0-.1-.1-.2h-.2c-.2.1-.4.2-.4.4-.1.8-.2 2.6-.7 2.6s-.3-2.1-.2-3c0-.1-.1-.2-.2-.1h-.2c-.2.1-.4.3-.4.5-.1.6-.2 1.2-.4 1.7-.1.3-.3.9-.7.9s-.4-.4-.3-.7c.1-.3.3-.6.5-.8.2-.3.3-.6.3-.8 0-.4-.2-.7-.6-.8-.4 0-.8.2-1.1.5-.1.1-.2.2-.3.2-.3 0-.5-.2-.6-.2-.1-.1-.3-.2-.6-.1-.9.3-1.1 1.3-1 2.1 0 .5 0 .9-.1 1.1-.3 0-.5-.3-.6-.6-.2-.5-.3-1-.4-1.6-.1-.7-.1-1.5-.1-2.3 0-.2-.3-.1-.4 0-.2.2-.4.4-.4.6 0 .9.1 1.9.1 2.8 0 .5 0 1-.1 1.4-.1.2-.2.2-.3.2-.3-.1-.4-.4-.5-.7-.1-.4-.2-.9-.2-1.4s0-.9-.1-1.4c0-.3 0-.6-.2-.9-.3-.4-1 .3-1.2.6-.4.5-.5 1-.6 1.6 0 .2.1.3.3.1.2-.2.4-.4.4-.7 0-.2.1-.7.3-.8v.1s.1.2.1.4c.1.9.1 1.8.3 2.7.1.6.4 1.5 1.3 1.3.5-.1.8-.7 1-1.1v-.1c.2.4.5.7 1.1.6.4-.1.5-.4.6-.8.2.3.4.5.7.5.4 0 .7-.5.9-.8.2-.4.2-.8.2-1.3 0-.2 0-.5-.1-.7.1 0 .2 0 .3-.1.2-.1.4-.4.6-.5h.3c.6.3-.3 1-.6 1.5-.2.4-.4 1 0 1.3.5.6 1.5.1 1.9-.4.1-.1.2-.3.3-.4 0 .4.1 1 .7 1 .3 0 .5-.1.7-.3-.3.4-.5.9-.8 1.3-.2.4-.4.8-.4 1.2 0 .5.6.8 1 .5.4-.2.7-.7.8-1.2.2-.8.2-1.6.2-2.4.4-.6.7-1 1-1.8 0 .8-.1 1.6-.1 2.4-.1.9-.2 1.8-.3 2.6 0 .2.2.2.3.1.2-.1.4-.2.4-.4.1-.7.2-1.3.3-2 .3 0 .5 0 .8-.2.6-.4.8-1.1.8-1.7v-.3c.3.1.5 0 .7-.1-.1.8-.3 1.7-.4 2.5-.1.4.7.1.7-.2.1-.7.3-1.5.7-2.2 0-.1.1-.1.1-.2.1.5 0 1-.1 1.4 0 .2-.1.4-.1.6-.1.3-.1.5-.2.8-.1.4.7.1.7-.2.1-.2.1-.5.2-.7.2-.6.4-1.1.7-1.6.1.3 0 .6 0 .8 0 .4-.1.7-.2 1.1-.1.3-.1.6 0 .9.2.6 1.1.1 1.3-.1.3.5.3.3.1.3zm-13.1-1.4c0 .1 0 .2-.1.2-.2 0-.3-.2-.3-.3-.1-.3-.2-.6-.2-.9v-.9c0-.1 0-.2.1-.2s.1.1.2.1c.2.2.3.9.4 1.1 0 .3 0 .6-.1.9zm5 1.5c0 .3 0 .7-.1 1 0 .1 0 .2-.1.2 0 0-.1 0-.2-.1-.2-.2-.1-.5 0-.7.1-.3.3-.6.5-1-.1.3-.1.5-.1.6zm2.9-1.2c-.1 0-.1 0 0 0-.3 0-.4-.3-.4-.5 0-.5.1-1 .1-1.5 0-.2 0-.3.1-.4.1 0 .2.1.2.2.2.3.2.8.2 1.1 0 .3 0 .7-.2 1.1zM-172.6 451.1c.5-.2.9-.6 1.2-1 .1-.1.3-.4.1-.5s-.4.2-.5.3c-.1.2-.2.4-.4.5s-.5 0-.6-.1c-.2-.2-.9.5-.7.7.2.2.5.2.9.1z"/><path class="st11" d="M-170.9 439c0 .9-.7 1.6-1.6 1.6-.9 0-1.6-.7-1.6-1.6s.7-1.6 1.6-1.6c.9 0 1.6.7 1.6 1.6z"/><path class="st5" d="M-170.8 444.3c0 1.1-.9 2-2 2s-2-.9-2-2 .9-2 2-2 2 .9 2 2zM-176.3 441.2c0 .7-.5 1.2-1.2 1.2s-1.2-.5-1.2-1.2.5-1.2 1.2-1.2 1.2.5 1.2 1.2z"/><g><circle class="st5" cx="-154.5" cy="442.9" r="6.8"/><path class="st4" d="M-156.2 441.9c-.6.1-.7.7-.7 1.2v.8c0 .1 0 .3-.1.3-.2 0-.4-.3-.4-.4-.1-.3-.2-.7-.3-1.1-.1-.4-.1-.8-.1-1.2v-.5V440.7c.1-.3-.4 0-.4.1-.5.8-.3 1.7-.3 2.6v.7c0 .2-.1.4-.2.6-.1.1-.2 0-.3 0-.1-.1-.2-.2-.2-.3s-.2-.1-.2 0c-.1.1-.2.3-.2.4.1.3.3.6.6.5.5-.1.7-.8.8-1.2.1-.2.1-.5.1-.7.1.3.2.7.3 1 .1.2.3.5.6.4.2 0 .4-.3.5-.5.1.2.3.4.5.4.3 0 .5-.3.6-.5.1-.3.2-.6.2-.9-.1-.6-.2-1.5-.8-1.4zm.2 2v.2c-.1 0-.2-.2-.2-.2-.1-.2-.1-.4-.1-.6v-.6-.2c.3.2.3.5.4.8-.1.1-.1.4-.1.6zM-149.4 442.7c-.6-.2-1 .6-1.1 1.1-.1.4-.2 1.2.3 1.4.3.1.6-.1.7-.3.2-.2.3-.5.4-.8.1-.4.3-1.2-.3-1.4zm-.4 2l-.1.1c-.1-.1-.1-.2-.1-.3v-.6c0-.2.1-.4.2-.6l.1-.1c.2.3.2.6.1 1 0 .1-.1.3-.2.5zM-151.1 442.8c.1-.2.2-.3.3-.5.2-.3.4-.7.4-1.2 0-.4-.6-.4-.8-.3-.4.2-.6.6-.7 1-.1.5-.2 1.1-.3 1.6-.2.2-.6.7-.9.5-.1 0-.1-.2-.1-.2.3-.3.5-.5.7-.8.2-.3.3-.7 0-.9-.3-.2-.7 0-.9.3-.2.2-.3.6-.3.9v.7c-.2.1-.4.2-.6.1-.2 0-.3-.3-.4-.5-.1-.3 0-.6 0-.9 0-.1 0-.2.1-.3v-.1c.1.1.2.3.2.4.1.2.6-.1.5-.3s-.1-.4-.4-.5c-.2-.1-.5.1-.6.2-.4.4-.4.9-.4 1.4 0 .3.1.7.4.9.4.2.9 0 1.2-.2.1.2.3.4.6.4.4-.1.7-.2 1-.5 0 .3.1.6.3.7.3.2.7 0 .9-.3.3-.4.4-.8.3-1.3-.1-.2-.3-.3-.5-.3zm-2-.2c0-.1.1-.2.1-.2.1 0 .2.2.2.3 0 .2-.2.5-.4.7v-.1c0-.3 0-.5.1-.7zm2-1.1c0-.1.1-.2.2-.2.2.3 0 .6-.1.9-.1.2-.3.5-.4.7 0-.2.1-.5.1-.7 0-.3 0-.5.2-.7zm-.2 2.7s0 .1-.1.1h-.1c-.2-.1-.2-.4-.2-.5v-.4l.2-.2c.1-.1.2.1.3.2.1.3 0 .6-.1.8z"/></g><g><path class="st4" d="M-167.5 462.4c0 .4-.1.9-.2 1.3 0 .2.4 0 .4-.1.1-.4.2-.7.4-1 .1-.1.1 0 0 0 .1 0 .1.1.1.1v.5c0 .2-.2.5 0 .7.1.2.4.1.5 0 .2-.1.2-.3 0-.2-.3.1-.1-.6-.1-.8 0-.2.1-.6-.2-.6-.6 0-.9 1-1 1.4.1 0 .3-.1.4-.1.1-.5.2-.9.2-1.4-.2 0-.5.1-.5.2z"/><path class="st4" d="M-167.6 463.3c-.2.3-.4 0-.4-.2 0-.3.1-.6.2-.9 0-.2-.3 0-.3.1-.1.2-.1.4-.2.6 0 .1-.1.2-.1.3-.1.1-.1.2-.2 0-.3-.3.1-.9.3-1.2.1-.2-.2-.1-.3 0-.1.2-.8 1.3-.2 1.4.8.2.9-.9 1-1.3-.1 0-.2 0-.3.1-.1.3-.2.6-.2.8 0 .2-.1.4.1.6.1.1.3.1.4 0 .3-.1.4-.2.6-.4 0-.1-.4.1-.4.1zM-169.4 461.8c-.1.3-.3.6-.5.8l-.1.1c-.1.1-.1 0 0 .1v-.2c0-.4.3-.7.4-1.1h-.4c-.1.1.3.1.4 0 .1-.2-.3-.1-.4 0-.1.2-.3.5-.4.8 0 .1-.2.5 0 .6.2.2.5 0 .6-.1.3-.3.5-.7.7-1 .1-.2-.2-.1-.3 0z"/><path class="st4" d="M-169.3 463c-.2.1-.1-.5 0-.5.1-.2.2-.5.3-.7.1-.2-.3-.1-.3 0-.2.4-.4.7-.4 1.1 0 .3.3.4.6.3.1-.1 0-.3-.2-.2zM-170 461.5l-.3.6c-.1.1-.1.2-.2.3l-.1.1c.1 0 0 0 0-.1-.1-.2.1-.4.1-.6.1-.2.2-.3.4-.5.1-.2-.2-.2-.3-.1-.2.2-1 1.1-.4 1.4.7.3 1.1-.8 1.3-1.1 0-.1-.4-.1-.5 0zM-164.7 463.1c.3-.3.3 1.2 0 .4-.1-.4-.1-.8-.1-1.2 0-.1 0-.3.1-.4.1 0 .1 0 .1.1v.3c-.1.3-.2.7-.4 1-.1.2.2.1.3 0 .1-.2.7-1.8.2-1.8-.6 0-.6 1.3-.6 1.7 0 .2 0 .8.3.9.3 0 .5-.2.6-.3.2-.3.1-.7-.1-.9-.2-.2-.5.1-.6.3-.2 0 .1 0 .2-.1zM-165.7 462.4c-.4 0-.5.4-.6.7-.1.2-.1.9.3.9.4.1.6-.4.7-.7 0-.2 0-.9-.4-.9-.1 0-.3.3-.2.3.2 0 .2.3.3.5V463.8s-.1.1 0 .1c-.2.1-.3-.4-.3-.5v-.4c0-.1 0-.1.1-.2 0-.1.1-.1 0-.1.1 0 .3-.3.1-.3zM-164.1 462.5c.1.5.2.9.2 1.4 0 .2.3-.1.3-.2 0-.3 0-.4.2-.7.2-.3.2-.5.2-.8 0-.2-.3 0-.3.2-.1.4 0 .9.2 1.3s.7-.2.9-.4c.1-.2-.1-.3-.2-.1 0 0-.2.4-.3.3-.1-.1-.1-.2-.2-.4-.1-.3-.1-.6-.1-.9-.1.1-.2.1-.3.2 0 .3-.1.5-.3.8-.2.2-.2.5-.2.8.1-.1.2-.1.3-.2 0-.5-.2-.9-.4-1.3.3-.3 0-.1 0 0z"/><path class="st4" d="M-161.2 462.8c0 .1 0 .1-.1.2s-.2-.1-.3-.2c-.2-.3-.3-.6-.4-1 0-.2-.3.1-.2.3.1.2.1.4.2.6 0 .1 0 .2.1.3 0 .1 0 .2-.1.1-.4-.1-.4-.8-.4-1.1 0-.2-.3.1-.3.2 0 .3 0 1.5.7 1.3.7-.3.2-1.3.1-1.7-.1.1-.2.2-.2.3.1.4.2 1 .6 1.2.3.2.6-.5.6-.6 0-.2-.2-.1-.3.1z"/><path class="st4" d="M-161.5 461.8c.3.4.4.8.5 1.3 0 .1.3-.2.2-.3-.1-.2-.1-.4-.1-.6 0-.1-.1-.4.1-.4 0-.1.1-.2.1-.3-.6 0-.5.8-.4 1.1 0 .1.1 0 .1 0 .3-.3.3.6.7.2.3-.2.4-.6.4-.9 0-.2-.2 0-.2.1 0 .2 0 .4-.2.5 0 .1-.3-.2-.3-.3-.2-.2-.3-.1-.5.1h.1c0-.1-.2-.5.1-.5.1 0 .2-.3.1-.3-.8-.1-.4 1.3-.3 1.6.1-.1.2-.2.2-.3-.2-.4-.3-.9-.6-1.3.1 0-.1.3 0 .3z"/></g><g><path class="st12" d="M-153.9 466.6s.1-.3.8-.1c.7.2 2.2-.3 2.5-.5.3-.2 0 0 0 0l-.8-1.5-.4.3h-.1v.1h-.3l.1.1-.4.1.2.1-.3.1.1.1-.3.1.1.1-.2.1v.1h-.2v.1h-.1v.1h-.2v.1l-.2.1h.1l-.3.1.1.1-.2.2h.1c.2-.3-.1-.2-.1 0zM-148.3 463.8v-.1l.1.1v-.1h.2l.1-.1h.1l.2-.1.1.1.1-.1.1.2.3-.2.1.1h.1v.1s.1 0 .3-.1v.1h.2v.1h.1l.2-.1v.1l.2-.1v.1h.1l.1.1h.1l.1.1.1-.1.1.1.2-.1v.1l.2-.1v.1s.1-.1.3-.1c0 0-.4.3-.4.4v.1h-.2l-.1.1v.1l-.2.1v.1l-.2.1v.1l-.1.1-.1.1h-.2l-.1.1-.3.1c-.1-.2-2.1-1-1.9-1.6z"/><path d="M-150 462.7l1.4.3.3.2v1l.3-.2-.1-.8.2-.2-.2-.2-.2.1-.1-.1-1.6-.3"/><path d="M-149.9 462.7l1.4.2.2.1-.1-.2z"/><path class="st12" d="M-145.3 463.5s.8-.7 1.6-.4c0 0-.2-.3-.5-.2l.1-.2-.4.2v-.1l-.2.1v-.2h-.3l-.1-.1-.2.1-.1-.1c.1 0 .3.6.1.9z"/><path d="M-148.7 462.8l.1-.2-.1-.4.2.4.5-.2.6-.9s.1-.1.1.1l-.6.8.1.2-.1.1h-.1l-.4.2v.2l-.3-.3z"/><path class="st12" d="M-149.5 465.7l-.2.1v.1h-.1l.1.1v.1h.1v.1h.1v.1h.1l.1.1.1-.1.1.2.1-.1.1.1.1-.1.1.1v-.1l.1.1.1-.1.2.1.1-.1.1.1v-.1l.2.1.1-.1.2.1v-.1l.2.1.1-.1.3.1.1-.1s.2.1.3.1c.1 0 0-.1 0-.1s.3.1.4 0v-.1h.2v-.1s.4.1.8-.2l-.3.1.1-.2-.2.1s-.1-.1 0-.1l-.1-.1.1-.1-.2-.1v-.1h-.2l.1-.1h-.2v-.1h-.1l.1-.1h-.2l-.1-.2h-.1l.1-.1-.3-.1.1-.1-.3-.1.1-.1h-.2v-.1h-.2l.1-.1h-.3s0-.1.1-.1-.1-.1-.2 0-.1-.1.1-.1h-.3l.1-.1h-.2v-.1l-.1.1v-.1h-.1l-.2-.1s-.2.2-.2 0-.6.4 0 1.3c-.3.2-1 .4-1.1.6z"/><path class="st13" d="M-149.8 462.8c-.4.6-1.1.8-1.7.5-.5-.4-.6-1.2-.2-1.8s1.1-.8 1.7-.5c.4.4.5 1.2.2 1.8z"/><ellipse transform="rotate(-89 -150.283 464.728)" class="st13" cx="-150.3" cy="464.7" rx="1.3" ry="1.5"/><ellipse transform="rotate(-89 -146.487 463.13)" class="st13" cx="-146.5" cy="463.1" rx="1.3" ry="1.4"/><ellipse transform="rotate(-71 -151.73 461.84)" cx="-151.7" cy="461.8" rx=".4" ry=".3"/><ellipse cx="-145.8" cy="463" rx=".5" ry=".5"/><ellipse cx="-151.4" cy="464.7" rx=".4" ry=".4"/><path d="M-151.5 461.6s-.1-.7-.9-.9c0 0 .9.3.7 1.3 0 0-.5 0-.9-.5s-1-.5-1-.5.8.2 1 .6c0 0 .2.7.9.4"/><path d="M-151.6 462s-1.1.1-1.7-.7c0 0 .7.6 1.4.5 0 0 0-.4-.5-.5s-.7-.6-.7-.6.4.3.7.3c0 0 .8.1.9.7M-146.2 462.9c.2-.6.5-.5.5-.5.2.1.5-.1.5-.1s-.2.4-.6.3c-.4 0-.4.4-.4.3.6.6 1.1.2 1.1.2-.4.4-1 .3-1 .3s-.2-.2-.1-.5z"/><path d="M-145.9 462.7s.5-.1.7 0c0 0-.4-.2-.9.2 0 0 0 .3.3.2s.4.1.4.1-.2-.1-.4 0c0 0-.4.2-.4-.2.1 0 0-.2.3-.3zM-151.1 464.5s-.3-.6-1.1-.4c0 0 .7-.1 1 .6 0 0-.2.4-.5.2s-.7.1-.7.1.4-.1.5.1c0 0 .4.4.7-.2"/><path d="M-151.2 464.7s-.1.6-1.1.4c0 0 .5.2.9-.3 0 0-.1-.3-.4-.2s-.5-.1-.5-.1.3.1.4 0c.1-.1.6-.4.7.2M-147.8 462l-.1-.1h.1M-149.2 462.9v.2l.1-.2M-149.4 462.6l-.1-.2.1.3"/></g><g><path class="st8" d="M-180.1 448.9c-.1 0-.1-.1-.2-.1-.3-.1-.5.1-.7.1-.6 0-.8 0-1.5-.2 0-.6.3-1 .5-1.5.1-.4-.1-.9-.1-1.4v-.9c-.2.2-.1.8-.1 1-.1-.4-.1-.8-.2-1.2-.1.3 0 .8 0 1.2-.1-.3-.1-.7-.3-1-.2.3.1.8.1 1.1l-.3-.9c-.1.4.1.7.1 1-.1-.2-.2-.5-.4-.7 0 .3.2.6.3.8-.2-.1-.2-.3-.4-.4 0 .2.2.3.2.5-.1-.1-.2-.2-.3-.2 0 .2.2.2.2.4-.1-.1-.2-.1-.3-.2 0 .1.2.2.2.3 0 0-.1-.1-.1 0l.1.1h-.1c0 .1.1.1.1.2h-.1c0 .1.1.1.1.1-.5.5-.2 1.1-.3 1.7 0-.1-.4-.2-.8-.3-.2-.1-.2-.3-.4-.4l.1-.1c-.1 0-.1 0-.1-.1h.2c-.1-.1-.3-.1-.3-.2.1 0 .2.1.3.1-.1-.1-.4-.2-.4-.3.1.1.3.2.5.1-.2-.1-.5-.3-.6-.4.2.1.4.3.5.2-.3-.1-.5-.4-.7-.4.1.2.5.4.6.5l-.6-.3c.1.2.4.3.5.5-.2 0-.3-.1-.5-.1.1.2.4.2.5.3-.1-.1-.2 0-.3 0 0 .1.2.1.3.2-.1 0-.2 0-.3.1.1.1.2 0 .3.1-.1 0-.1 0-.1.1s.2 0 .2.1c0 0-.1 0-.1.1h.1l-.1.1c.3.1.4.6.8.7-.2.1.2.3-2.2 1.1.1 0 1-.2 1.3-.3l.9-.3c.1 0 .1 0 .2-.1.5 0 .9 0 1.4-.3-.4.1-1 .1-1.2-.1.3-.5.1-1.8.3-2.1.3-.3.7-1.1 1.2-.4.1.1.1.3-.1.6-.2.4-.4.5-.3 1.3 0 .2 0 .3-.2.3 1 .2 1.3.1 1.9 0 .2 0 .5-.2.5 0 0 .1-.2.1-.4.1-.3 0 .1.1.3.1.1 0 .6-.1.9-.1-.2-.1-.4-.1-.6-.2z"/><path class="st8" d="M-183.1 443.7c-2.4 0-4.3 1.9-4.3 4.3s1.9 4.3 4.3 4.3 4.3-1.9 4.3-4.3-1.9-4.3-4.3-4.3m0 .1c2.3 0 4.1 1.8 4.1 4.1s-1.8 4.1-4.1 4.1-4.1-1.8-4.1-4.1 1.8-4.1 4.1-4.1"/></g></g></g><g id="_x34_"><path class="st0" d="M-55.9 502.5v-63.2l-9.2-30.7c2.5-13.8-4.1-17.9-4.1-17.9v-5h1.4v-7.1c0-1.8-2.5-1.6-2.5-1.6h-19s-2.5-.2-2.5 1.6v7.1h1.5v5h-.1s-6.6 4.2-4.1 17.9c0 0-9.2 8.5-9.2 30.7v63.2s-.9 13.6 9.1 13.6H-65c10.1 0 9.1-13.6 9.1-13.6z"/><path class="st1" d="M-60.7 499.3v-63.2c0-22.3-9.2-30.7-9.2-30.7 2.5-13.8-4.2-17.9-4.2-17.9v-5.1H-95v5.1h-.1s-6.6 4.2-4.2 17.9c0 0-9.2 8.5-9.2 30.7v63.2s-.9 13.6 9.1 13.6H-69.6c9.8 0 8.9-13.6 8.9-13.6z"/><path class="st2" d="M-75.2 373.8h-18.9s-2.5-.2-2.5 1.6v7.1h23.9v-7.1l-2.5-1.6z"/><path class="st3" d="M-60.8 499.3v-63.2c0-22.3-9.2-30.7-9.2-30.7 2.5-13.8-4.1-17.9-4.1-17.9v-5.1h-10.5v130.5h14.9c9.9 0 8.9-13.6 8.9-13.6z"/><path class="st4" d="M-100.7 428.8h-.3c-1.4-.2-2.5-1.5-2.3-3 1.2-9.1 5.6-14.7 5.8-14.9.9-1.1 2.6-1.3 3.7-.4s1.3 2.6.4 3.7c-.1.1-3.7 4.7-4.7 12.3-.2 1.3-1.3 2.3-2.6 2.3z"/><g><circle class="st14" cx="-83.3" cy="455.3" r="12"/><circle class="st5" cx="-93" cy="466" r="3.8"/><path class="st4" d="M-95.5 465.4c.1-.4.4-.1.5.1.1.3 0 .5-.2.7-.1.2-.3.3-.5.4-.1.1-.2.1-.2.2 0 0-.1.1 0 .1.1.1.4.1.6.1.3 0 .6 0 .8-.1.1-.1.3-.4 0-.3-.2.1-.5.1-.7.1-.1 0-.4 0-.4-.1v.1c-.1.2 0 .1 0 0 .1-.1.2-.1.2-.2l.4-.4c.2-.3.4-.6.3-1-.1-.8-1-.2-1.2.2 0 .4.4.2.4.1zM-93.4 466.7c.3.9 1.7.3 1.4-.5-.1-.4-.6-.3-.9-.4-.2-.1-.2-.2-.2-.4.1-.2 0-.2-.1-.1h.2c.3-.1.6 0 .8.1.1.1.4-.3.2-.3-.3-.2-.7-.1-1.1-.1-.3.1-.4.4-.4.7 0 .4.3.4.7.5.2 0 .4.1.5.4 0 .4-.4.4-.6.2-.1-.1-.1-.2-.2-.3 0-.2-.3.1-.3.2zM-90.2 465.1c-.4.6-.9 1.2-1.3 1.8-.2.3.1.3.3.1.5-.6 1-1.3 1.4-1.9.1-.3-.3-.2-.4 0zM-90.9 464.9c-.2 0-.4.2-.5.4 0 .2.1.4.3.4.5 0 .7-.8.2-.8-.1 0-.3.2-.1.3.1 0 .2.1.2.2v.1h-.1s-.2-.1-.2-.2v-.1h.1c0-.1.2-.3.1-.3zM-90.3 466.3c-.2 0-.4.2-.5.4 0 .2.1.4.3.4.5 0 .8-.8.2-.8-.1 0-.3.2-.1.3.1 0 .2.1.2.2v.1h-.1s-.2-.1-.2-.2v-.1h.1c.1-.1.3-.3.1-.3zM-93.9 467.5c.2-.1.3-.4.3-.6v-.2c-.1-.1-.2 0-.3 0-.1 0-.2.2-.2.3s.1.1.2.1v.2c-.1 0-.2.2-.1.3l.1-.1z"/><path class="st14" d="M-89 440.5c0 .8-.7 1.5-1.5 1.5-.9 0-1.5-.7-1.5-1.5 0-.9.7-1.5 1.5-1.5s1.5.7 1.5 1.5z"/><path class="st5" d="M-89 445.7c0 1.1-.9 2-2 2s-2-.9-2-2 .9-2 2-2 2 .9 2 2zM-94.3 442.7c0 .6-.5 1.2-1.2 1.2s-1.2-.5-1.2-1.2.5-1.2 1.2-1.2 1.2.5 1.2 1.2z"/><g><path class="st5" d="M-66.4 444.3c0 3.7-3 6.6-6.6 6.6-3.7 0-6.6-3-6.6-6.6 0-3.7 3-6.6 6.6-6.6 3.6-.1 6.6 2.9 6.6 6.6z"/><path class="st4" d="M-74.7 443.3c-.5.1-.7.7-.7 1.2v.8c0 .1 0 .3-.1.3-.2 0-.4-.3-.4-.4-.1-.3-.2-.7-.3-1.1-.1-.4-.1-.8-.1-1.2v-.5V442.1c.1-.3-.4 0-.4.1-.4.8-.3 1.7-.3 2.5v.7c0 .2-.1.4-.2.6-.1.1-.2 0-.3 0-.1-.1-.2-.2-.2-.3s-.2-.1-.2 0c-.1.1-.2.3-.2.4 0 .3.3.6.6.5.5-.1.7-.7.8-1.2.1-.2.1-.4.1-.7.1.3.2.7.3 1 .1.2.3.4.6.4.2 0 .4-.3.5-.5.1.2.2.4.5.4s.5-.3.6-.5c.1-.3.2-.6.2-.8-.1-.6-.2-1.4-.8-1.4zm.2 1.9v.2c-.1 0-.2-.2-.2-.2-.1-.2-.1-.4-.1-.6v-.6-.2c.3.2.3.5.4.8-.1.2-.1.4-.1.6zM-68.1 444.1c-.6-.2-.9.6-1 1s-.2 1.2.3 1.4c.2.1.5-.1.7-.2.2-.2.3-.5.4-.7 0-.5.2-1.3-.4-1.5zm-.3 1.9l-.1.1c-.1-.1-.1-.2-.1-.3v-.6c0-.2.1-.4.2-.6l.1-.1c.2.3.2.6.1.9-.1.2-.2.4-.2.6zM-69.7 444.2c.1-.2.2-.3.3-.5.2-.3.4-.7.4-1.1 0-.4-.5-.4-.8-.3-.4.2-.6.6-.7 1-.1.5-.2 1-.2 1.6-.2.2-.6.7-.9.5-.1 0-.1-.1-.1-.2.2-.3.5-.5.7-.8.2-.3.3-.7 0-.9-.3-.2-.7 0-.8.3-.2.2-.3.5-.3.8v.7c-.2.1-.4.2-.6.1-.2 0-.3-.3-.4-.5-.1-.3 0-.6 0-.8 0-.1 0-.2.1-.3v-.1c.1.1.2.3.2.4.1.2.6-.1.5-.3-.1-.2-.1-.4-.4-.5-.2-.1-.5.1-.6.2-.4.4-.4.9-.4 1.4 0 .3.1.7.3.8.4.2.9 0 1.2-.2.1.2.3.4.5.3.4 0 .7-.2.9-.5 0 .3.1.6.3.7.3.2.7 0 .9-.3.3-.3.4-.8.3-1.2-.1-.2-.2-.3-.4-.3zm-2-.2c0-.1.1-.2.1-.2.1 0 .2.2.2.3 0 .2-.2.4-.3.6v-.1c-.1-.2-.1-.4 0-.6zm1.9-1.1c0-.1.1-.2.1-.2.2.3 0 .6-.1.9-.1.2-.3.5-.4.7 0-.2.1-.5.1-.7.1-.3.2-.5.3-.7zm-.1 2.7s-.1.1 0 0l-.1.1c-.1-.1-.2-.4-.2-.5v-.3l.2-.2c.1-.1.2.1.3.2 0 .2-.1.5-.2.7z"/></g><g><path class="st4" d="M-74 457.6c-.2-.1-.4 0-.5.2-.1-.3.1-.8.1-1.2.2-.9.2-1.6 0-1.9-.2-.2-.6-.1-.7-.1-.1.1-.2.1-.3.2 0-.2-.1-.4-.2-.5-.1-.2-.5-.2-.6-.1s-.2.1-.4.2v-.3-.1s-.1 0-.1-.1h-.1c-.1 0-.3.1-.4.1l-.2.2c-.1.2-.3.1-.6 0-.2-.1-.2-.2-.4-.4-.1-.1-.1-.2-.2-.2-.3-.2-.6-.1-.9 0v-.7c0-.2-.4-.1-.4 0-.1.1-.3.2-.3.3 0 0-.3 1.1-.9 1.9 0-.6.1-1.2.1-1.8 0-.1 0-.1-.1-.1h-.2c-.2.1-.4.2-.4.4-.1.8-.2 2.5-.7 2.5s-.2-2-.2-2.9c0-.1-.1-.1-.2-.1h-.2c-.2.1-.4.3-.4.4-.1.6-.2 1.1-.4 1.7-.1.3-.3.9-.7.9-.3 0-.4-.4-.3-.7.1-.3.3-.5.5-.8.2-.3.3-.6.3-.8 0-.4-.2-.7-.6-.7s-.8.2-1.1.5c-.1.1-.2.2-.3.2-.3 0-.5-.2-.6-.2-.1-.1-.3-.2-.5-.1-.9.3-1 1.3-1 2.1 0 .5 0 .9-.1 1.1-.3 0-.5-.3-.6-.6-.2-.5-.3-1-.4-1.5-.1-.7-.1-1.5-.1-2.2 0-.2-.3-.1-.4 0-.2.1-.4.4-.4.6 0 .9.1 1.8.1 2.7 0 .4 0 .9-.1 1.3-.1.2-.2.2-.3.2-.3-.1-.4-.4-.5-.7-.1-.4-.2-.9-.2-1.3s0-.9-.1-1.3c0-.3 0-.6-.2-.9-.3-.4-1 .3-1.2.6-.3.5-.5 1-.6 1.5 0 .2.1.3.3.1.2-.1.4-.4.4-.6 0-.2.1-.7.3-.8v.1s.1.2.1.4c.1.9.1 1.8.2 2.6.1.6.4 1.5 1.2 1.3.5-.1.8-.7.9-1.1v-.1c.2.4.5.7 1 .6.4-.1.5-.4.6-.8.1.3.4.5.7.4.4 0 .7-.5.9-.8.2-.4.2-.8.2-1.2 0-.2 0-.5-.1-.7.1 0 .2 0 .3-.1.2-.1.4-.4.6-.5h.3c.6.3-.3.9-.5 1.5-.2.4-.3 1 0 1.3.5.6 1.4.1 1.8-.4.1-.1.2-.3.3-.4 0 .4.1 1 .7.9.3 0 .5-.1.7-.3-.3.4-.5.9-.7 1.3-.2.4-.4.8-.4 1.2 0 .5.5.7 1 .5.4-.2.7-.7.8-1.1.2-.7.2-1.5.2-2.3.4-.6.7-1 1-1.7 0 .8-.1 1.6-.1 2.3-.1.9-.2 1.7-.3 2.6 0 .2.2.2.3.1.2-.1.3-.2.4-.4.1-.6.2-1.3.3-1.9.2 0 .5 0 .8-.2.5-.4.7-1.1.8-1.7v-.3c.3.1.5 0 .7-.1-.1.8-.3 1.6-.4 2.5-.1.4.7.1.7-.2.1-.7.3-1.5.7-2.1 0-.1.1-.1.1-.2.1.5 0 .9-.1 1.4 0 .2-.1.4-.1.6-.1.2-.1.5-.2.7-.1.4.7.1.7-.1.1-.2.1-.5.2-.7.2-.5.4-1.1.7-1.5.1.3 0 .6 0 .8 0 .4-.1.7-.2 1.1-.1.3-.1.6 0 .9.2.6 1.1.1 1.3-.1.3 0 .3-.2.1-.3zm-12.7-1.3c0 .1 0 .2-.1.2-.2 0-.3-.2-.3-.3-.1-.3-.2-.5-.2-.8v-.9c0-.1 0-.2.1-.2s.1.1.2.1c.2.2.3.8.4 1-.1.3-.1.6-.1.9zm4.8 1.5c0 .3 0 .7-.1 1 0 .1 0 .2-.1.2 0 0-.1 0-.2-.1-.2-.2-.1-.5 0-.7.1-.3.3-.6.4-.9v.5zm2.8-1.3c0 .1 0 .1 0 0 0 .1 0 .1 0 0-.3 0-.4-.3-.4-.5 0-.5.1-1 .1-1.4 0-.2 0-.3.1-.4.1 0 .2.1.2.2.2.3.2.8.2 1.1.1.3 0 .7-.2 1zM-90.7 452.3c.5-.2.8-.6 1.1-1 .1-.1.3-.4.1-.5-.2-.1-.4.2-.5.3s-.2.4-.4.4c-.2.1-.4 0-.6-.1-.2-.2-.9.5-.7.7.3.3.6.3 1 .2z"/></g><g><path class="st4" d="M-81.9 464.5c.1.3.6.2.7-.1.1-.2.1-.4 0-.6 0-.3-.1-.6 0-.9-.1.1-.2.1-.3.2.1.3.1.6.3.9.1.2.1.4.4.5.4.1.7-.6.7-.8 0-.3-.2 0-.3.1 0 .1-.1.3-.2.3s-.2-.2-.2-.2c-.2-.3-.3-.7-.4-1 0-.2-.2.1-.3.2v1.2c0 .2-.1.1-.2 0 .1-.2-.2.1-.2.2z"/><path class="st4" d="M-80.3 463.9c.1-.1.4-.4.6-.2.1.1-.1.2-.2.1-.4-.2-.4-.8-.4-1.2 0-.2-.3.1-.3.2 0 .3.2 1.9 1 1.3.2-.2.4-.5.3-.7-.2-.3-.7 0-.9.2-.1.1-.1.2-.2.3 0 0 0 .1.1 0zM-86.8 463.2c.4-.2-.2 1.3-.2.4 0-.4.2-.8.4-1.2.1-.1.2-.3.3-.4.1 0 .1.1.1.2s-.1.2-.1.3c-.2.3-.5.6-.8.8-.2.1.2.2.3.1.2-.1 1.5-1.3 1-1.6-.6-.3-1.2 1-1.3 1.3-.1.2-.4.8-.1 1 .3.2.5.1.7 0 .3-.2.4-.6.3-.9-.1-.3-.6-.1-.7-.1-.4 0-.1.1.1.1z"/><path class="st4" d="M-85.1 463.3c.1-.5-.5-.3-.7-.2-.3.2-.5.6-.5 1 0 .3.3.6.6.4.4-.2.4-.8.6-1.2-.1 0-.2.1-.4.1-.1.3-.5 1.6.3 1.3.2-.1.2-.3 0-.2-.1 0-.1-.4-.1-.5 0-.2.1-.5.2-.7 0-.2-.3 0-.4.1-.1.2-.1.5-.2.7 0 .1-.1.2-.1.2-.1 0-.1-.1-.1-.2 0-.2 0-.4.1-.5 0-.1.1-.2.1-.3l.1-.1c.1-.1.2.1.2.2-.1.1.2 0 .3-.1z"/><path class="st4" d="M-84.8 463.3c0 .5-.1 1-.2 1.5 0 .2.4 0 .4-.1.1-.3.2-.4.4-.6.3-.2.4-.5.4-.8.1-.2-.3 0-.3.1-.2.4-.2.9-.2 1.4.1.5.8 0 1-.2.2-.2 0-.3-.2-.1 0 0-.3.3-.4.2s-.1-.3-.1-.4c0-.3 0-.7.1-1-.1 0-.2.1-.3.1-.1.3-.2.5-.5.7-.3.2-.4.5-.5.7.1 0 .3-.1.4-.1.1-.5.1-1 .1-1.5.3-.2-.1 0-.1.1z"/><path class="st4" d="M-81.9 464.4c-.2.3-.4 0-.5-.2-.1-.3-.1-.7-.1-1 0-.2-.3.1-.3.2v1.1c0 .1 0 .2-.2.1-.4-.2-.2-1-.1-1.2 0-.2-.3 0-.3.1-.1.3-.4 1.6.3 1.5.8-.1.6-1.3.6-1.7-.1.1-.2.1-.3.2 0 .4-.1 1 .2 1.3.2.3.7 0 .9-.2.2-.3 0-.4-.2-.2z"/></g><g><path d="M-75.1 465.7s-.4 0-.5.2c-.1.2.3.2.5.1s1.2-.2 1.4-.2c.1 0 2.9-.8 2.9-.8s5.1-1.5 5.6-2 1.3-.8 1.3-.8l-.1-.1s-1.4.7-2.7 1.1c-1.3.4-6.7 2.1-7.5 2.2-.9.2-.9.3-.9.3z"/><path d="M-74 466.7s.1.4-.3.2c-.4-.1-.3-.7.2-1 .5-.2 1.2-.3 1.6-.5.4-.1.5-.2 1-.5l2-.8 3.9-1.2s.8.2 1.2 0c.4-.2.9-.4.3-.6s.7-.2.5.3c-.2.6-1.4.6-2.1.6s-2.9 1-2.9 1l-.6.3s-2 .5-2.2.7c-.3.2-1.9.8-2.5.8-.8.3-.3.7-.1.7z"/><path class="st14" d="M-69.7 463.7c0-.1-.3-1.2-.3-1.2s.6-1.6 1.2-1.6c0 0 .7.4.5 1.8l-1 1.4-.1-.1s.8-1.7.6-2.5c0 0-.3 2.4-.7 2.5l-.2-.3zM-68.7 465.4s1.6.9 2.5.6c0 0-.3-1.7-1.8-2.1l-.9.4s1.3.3 2.3 1.4c0 0-1.4-1.4-2.6-1.2l.5.9zM-73 464.4s.9-1.2 2-1l1 .8.2.1s-1.1-.5-2.4-.1c0 0 1.6-.1 2.4.2l-.2.5c.1-.1-.6.6-3-.5z"/><path class="st14" d="M-70 464.2s-1.9-1.3-1.9-2.2c0 0 2-.7 2.6 2h-.3s-.8-1.2-1.5-1.6c0 0 1.3 1.1 1.4 1.7l-.3.1zM-69.2 463.6s.3-1.5 2.8-.8l-.7.7c-.7.7-2.2 1.2-2.2 1.2v-.4l.1-.2s.7-1.1 2.1-1c0 0-1.1-.2-2.1.9v-.4z"/><path class="st14" d="M-70.1 464.4s-.7-.3-.5 1.3.2 1.4.2 1.4-.3.7.4 0 1.5-1.7.9-2.6h-.5s.4 1.2-.6 2.3c0 0 .9-1.5.4-2.2l-.3-.2z"/><path d="M-69.5 463.7s-.1.2-.2.2h-.4s.3.4 0 .6c0 0 .3 0 .4.3 0 0 .1-.4.6-.3 0 0-.2-.7 0-.7.1.1-.2.2-.4-.1z"/><circle cx="-69.9" cy="465" r=".1"/><circle cx="-69.8" cy="465.1" r=".1"/><circle cx="-69.3" cy="464.9" r=".1"/><path class="st15" d="M-71.2 462.3s1.4 0 1.7 1.4l-.2.2c.1 0-.8-1.2-1.5-1.6zM-68.9 463.9s.8-1 1.9-.8c0 0-.7 1.2-1.9 1.4-.1-.1-.3-.3 0-.6zM-68.9 464.6s1.3 0 2.5 1.4c0 0-1.9-.3-2.4-.8.1 0 .2-.2-.1-.6z"/><path class="st4" d="M-69.6 464.5s0 .3-.3.6c0-.1.2-.4.3-.6-.1-.3 0 0 0 0z"/><path class="st4" d="M-69.6 464.5s0 .3-.2.6c0 0 .2-.4.2-.6-.1-.3 0 0 0 0zM-69.5 464.4s.2.2.2.5c0 0 0-.4-.2-.5z"/></g><g><path class="st8" d="M-98 450.2c-.1 0-.1-.1-.2-.1-.3-.1-.4.1-.7.1-.6 0-.8 0-1.5-.2 0-.6.3-1 .5-1.4.1-.4-.1-.9-.1-1.4v-.9c-.2.2-.1.7-.1 1-.1-.4-.1-.8-.2-1.1-.1.3 0 .8 0 1.1-.1-.3-.1-.7-.2-1-.2.3.1.8.1 1.1l-.3-.9c0 .4.1.7.1 1-.1-.2-.2-.5-.4-.7 0 .2.2.5.2.8-.2-.1-.2-.3-.4-.4 0 .2.2.3.2.5-.1-.1-.2-.2-.3-.2 0 .2.2.2.2.4-.1-.1-.2-.1-.2-.2 0 .1.2.2.2.3 0 0-.1-.1-.1 0l.1.1h-.1c0 .1.1.1.1.2h-.1c0 .1.1.1.1.1-.5.5-.2 1.1-.3 1.7 0-.1-.4-.2-.7-.3-.2-.1-.2-.3-.4-.4l.1-.1c-.1 0-.1 0-.1-.1h.2c-.1 0-.3-.1-.3-.2.1 0 .2.1.3.1-.1-.1-.4-.2-.4-.3.1 0 .3.2.4.1-.2-.1-.5-.3-.6-.4.2.1.3.3.5.2-.3-.1-.4-.4-.7-.3.1.2.5.3.6.5l-.6-.3c.1.2.3.3.5.5-.2 0-.3-.1-.5-.1.1.2.3.1.4.3h-.3c0 .1.2.1.3.2-.1 0-.2 0-.2.1.1.1.2 0 .2.1-.1 0-.1 0-.1.1s.2 0 .2.1c0 0-.1 0-.1.1h.1l-.1.1c.3.1.4.6.8.7-.2.1.2.3-2.1 1.1.1 0 1-.2 1.3-.3s.6-.2.8-.3c.1 0 .1 0 .2-.1.5 0 .9 0 1.4-.3-.4.1-1 .1-1.2-.1.3-.5.1-1.7.3-2 .3-.2.6-1.1 1.1-.4.1.1.1.3-.1.6-.2.4-.3.5-.3 1.3 0 .2 0 .3-.2.3 1 .2 1.3.1 1.9 0 .2 0 .5-.2.5 0 0 .1-.2.1-.4.1-.3 0 .1.1.3.1.1 0 .6-.1.9-.1-.2-.5-.3-.5-.5-.5z"/><path class="st8" d="M-100.9 445c-2.3 0-4.2 1.9-4.2 4.2 0 2.3 1.9 4.2 4.2 4.2s4.2-1.9 4.2-4.2c0-2.3-1.9-4.2-4.2-4.2m0 .2c2.2 0 4 1.8 4 4s-1.8 4-4 4-4-1.8-4-4 1.8-4 4-4"/></g></g></g></svg>