<?xml version="1.0" encoding="utf-8"?>
<!-- Generator: Adobe Illustrator 19.0.0, SVG Export Plug-In . SVG Version: 6.00 Build 0)  -->
<svg version="1.1" id="Layer_1" xmlns="http://www.w3.org/2000/svg" xmlns:xlink="http://www.w3.org/1999/xlink" x="0px" y="0px"
	 viewBox="-156 300.9 282 240" style="enable-background:new -156 300.9 282 240;" xml:space="preserve">
<style type="text/css">
	.st0{fill:#A3E090;}
	.st1{fill:#FFFFFF;}
	.st2{fill:#F9DB6C;}
	.st3{fill:#F6C969;}
	.st4{fill:#F8A671;}
	.st5{fill:#62BA47;}
	.st6{fill:#62BA46;}
</style>
<g>
	<circle class="st0" cx="-19" cy="421.4" r="71.4"/>
	<path class="st1" d="M-19,350c39.4,0,71.4,32,71.4,71.4c0,39.4-32,71.4-71.4,71.4s-71.4-32-71.4-71.4C-90.4,381.9-58.4,350-19,350
		 M-19,347c-41,0-74.4,33.4-74.4,74.4S-60,495.8-19,495.8s74.4-33.4,74.4-74.4S22,347-19,347L-19,347z"/>
</g>
<circle class="st2" cx="-19" cy="421.2" r="65.4"/>
<path class="st1" d="M-79.6,415.1c-0.1,0-0.2,0-0.4,0c-2.8-0.2-4.8-2.6-4.6-5.4c1.4-18.7,13-31.2,13.4-31.7c1.9-2,5.1-2.1,7.1-0.2
	c2,1.9,2.1,5,0.2,7.1c-0.1,0.1-9.7,10.6-10.8,25.6C-74.8,413.1-77,415.1-79.6,415.1z"/>
<circle class="st1" cx="-79.6" cy="425.1" r="6"/>
<g>
	<circle class="st3" cx="-17.3" cy="423.1" r="40.8"/>
	<circle class="st1" cx="-18.4" cy="420.9" r="40.8"/>
	<g>
		<g>
			<path class="st4" d="M-13.2,400.6c-0.3,1.8-1.9,3.2-3.8,3.2c-2.1,0-3.8-1.7-3.9-3.7c-10.7,1.1-19,10.1-19.1,21.2
				c0,2.2,0.3,4.2,0.9,6.2c0.1,0,0.2,0,0.2,0c2.1,0,3.8,1.7,3.8,3.8c0,0.9-0.3,1.8-0.9,2.4c3.5,4.9,9.1,8.2,15.4,8.7
				c1.6,0.2,5.1,0,7.1-0.6c5.1-1.3,9.5-4.5,12.4-8.8c-0.3-0.5-0.4-1-0.4-1.6c0-1.8,1.3-3.2,2.9-3.5c0.7-2.1,1.1-4.3,1.1-6.6
				C2.6,411.3-4.1,403-13.2,400.6z M-35.6,415.4c-1.1,0-2-0.9-2-2c0-1.1,0.9-2,2-2s2,0.9,2,2C-33.6,414.5-34.5,415.4-35.6,415.4z
				 M-2,422.5c-1.4,0-2.5-1.1-2.5-2.5c0-1.4,1.1-2.5,2.5-2.5s2.5,1.1,2.5,2.5C0.5,421.4-0.6,422.5-2,422.5z"/>
			<g>
				<g>
					<g>
						<path class="st1" d="M-9,418.3c0.4-1,0.5-2.3-0.3-3.2c-0.5-0.5-1.3-0.5-1.8-0.5c0.1-0.4,0.1-0.8,0.1-1.3
							c0-0.4-0.7-0.3-0.9-0.2c-0.4,0.1-0.8,0.3-0.8,0.7c0,1.6-0.3,3.2-0.7,4.8c-0.3,0.2-0.7,0.3-1.1,0.5c-0.2,0.1-0.4,0.2-0.7,0.1
							c-0.4-0.1-0.4-0.8-0.4-1.2c-0.1-1.4,0.1-3,0.9-4.2c0.2-0.3-0.1-0.5-0.5-0.5c-0.5,0.1-1,0.3-1.2,0.6c-0.8,1.6-0.8,3.3-0.6,5.2
							c0.1,0.6,0.2,1,0.9,1.1c0.8,0.1,1.7-0.3,2.4-0.7c0,0.1-0.1,0.2-0.1,0.3c-0.4,1.5-0.7,3-1.2,4.4c-0.1,0.3,0.2,0.4,0.4,0.3
							s0.5-0.3,0.7-0.6c0.4-1,0.7-2,1-3c0.4,0.1,0.9,0.1,1.4-0.1C-10.2,420.5-9.4,419.4-9,418.3z M-11.1,415.5
							C-11,415.5-11,415.5-11.1,415.5L-11.1,415.5z M-11.7,420.2L-11.7,420.2L-11.7,420.2z M-11.7,420.1
							C-11.7,420.1-11.7,420.2-11.7,420.1C-11.7,420.2-11.7,420.2-11.7,420.1c-0.6-0.1-0.7-0.6-0.6-1V419c0.3-0.9,0.5-1.7,0.7-2.6
							c0,0,0,0,0-0.1c0.1-0.3,0.2-0.5,0.3-0.8l0,0l0,0c0.2,0,0.3,0.2,0.4,0.5c0.3,0.7,0.2,1.5,0,2.1
							C-10.9,418.9-11.2,419.6-11.7,420.1z"/>
						<path class="st1" d="M-18.8,414.8h-0.1H-19c-0.4,0-0.7,0.2-1,0.4c0-0.6-0.1-1.2-0.2-1.7c-0.1-0.3-0.6-0.1-0.8,0
							c-0.4,0.2-0.8,0.6-0.9,1c-0.1,0.7-0.2,1.4-0.4,2.1c-0.1,0.6-0.2,1.2-0.4,1.8c-0.1,0.3-0.1,0.5-0.2,0.7c0,0.1-0.1,0.2-0.1,0.2
							c-0.3,0.3-0.8,0.4-1.2,0.3c-0.5-0.1-0.8-0.4-1.2-0.8c-0.8-0.9-1.3-2.1-1.5-3.3c-0.1-0.6-0.1-1.2-0.1-1.9
							c0-0.2,0.1-0.5,0.2-0.7c0.1-0.2,0.1-0.2,0.1-0.3s0.1-0.1,0.1-0.2l0,0c0,0,0,0,0-0.1l0,0l0,0c0,0,0,0,0.1-0.1
							c0.1,0,0.4-0.1,0.6-0.2c1.1-0.2,1.5,0.7,1.8,1.3c0.2,0.5,1.8-0.7,1.6-1.2c-0.4-1-1.3-1.7-2.5-1.6c-0.9,0.1-1.7,0.6-2.3,1.2
							c-1.2,1.4-1.5,3.3-1.1,5c0.3,1.6,1.2,3,2.5,3.9c0.5,0.3,1.1,0.5,1.7,0.4c1.3-0.3,2.1-1.7,2.6-2.8c0-0.1,0-0.1,0-0.2v-0.1
							c0.1,1.1,0.8,2.3,2,2.3c1.3,0,2-1.6,2.2-2.8C-17,416.3-17.5,414.9-18.8,414.8z M-18.5,418.7c0,0.1-0.1,0.2-0.1,0.2h-0.1
							c-0.7,0-1-1-1.1-1.5c0-0.1,0-0.1,0-0.2l0,0c0-0.1,0-0.2,0-0.3c0-0.2,0-0.4,0.1-0.7c0-0.1,0.1-0.2,0.1-0.2s0,0,0.1,0
							c0.8,0,1.1,1,1.2,1.5C-18.4,417.9-18.5,418.3-18.5,418.7z"/>
					</g>
				</g>
				<g>
					<path class="st1" d="M-4.3,431.2c-0.1-0.2-0.3-0.1-0.5-0.1c-0.3-0.1,0-0.9,0-1.1c0.2-0.8,0.5-1.5,0.8-2.2l0,0
						c0.2-0.5-0.2-0.9-0.8-1c-0.6-0.1-1.1,0.2-1.5,0.5c-0.7,0.6-1,1.4-1.2,2.3c-0.2,0.2-0.5,0.3-0.7,0.3c0,0,0,0,0-0.1
						c0-0.2,0-0.4,0.1-0.6c0.2-1,0.7-2.1,0.6-3.1c-0.1-0.8-1-0.4-1.5,0.1c0-0.3,0-0.5-0.2-0.8c-0.2-0.3-0.6-0.2-0.8-0.1
						c-0.2,0.1-0.3,0.2-0.5,0.3c0-0.1,0-0.3,0.1-0.4c0.1-0.5-1-0.1-1,0.3c-0.1,0.8-0.2,1.6-0.4,2.4c-0.3,0.3-0.6,0.6-1.1,0.8
						c-0.1,0-0.1,0-0.1,0l0,0v-0.1c-0.1-0.5,0.1-1.1,0.2-1.7c0.1-0.6,0.1-1.1,0.1-1.7c0-0.3-0.2-0.8-0.7-0.7c-0.4,0.1-0.7,0.3-1,0.6
						c0-0.3-0.1-0.5-0.3-0.7c-0.2-0.2-0.6-0.1-0.8,0s-0.3,0.2-0.4,0.4c0-0.1,0-0.2,0-0.4c0-0.1,0-0.1,0-0.2c0,0-0.1,0-0.1-0.1h-0.1
						c-0.2,0-0.3,0.1-0.4,0.3c-0.1,0.1-0.2,0.2-0.2,0.3c-0.2,0.3-0.4,0.2-0.7,0.1c-0.2-0.1-0.3-0.2-0.4-0.3
						c-0.1-0.2-0.3-0.4-0.6-0.5h-0.1c0,0,0,0-0.1,0c-1.2,0.2-1.4,1.7-1.4,2.6c0,0.4,0,0.9,0.1,1.4v0.1l0,0c-0.1,0-0.1,0-0.2,0
						c-0.1,0-0.2,0-0.3,0c-0.3-0.2-0.3-0.9-0.3-1.2c-0.1-0.9,0-1.8,0.1-2.7c0-0.3-0.3-0.2-0.4-0.1c-0.2,0.1-0.4,0.4-0.5,0.6
						c0,0,0,0.2-0.1,0.3c0,0.1-0.1,0.3-0.1,0.5h-0.1c-0.2,0-0.3-0.1-0.5-0.2c-0.3-0.2-0.4-0.6-0.4-0.9c0-0.2-0.1-0.3-0.3-0.2
						s-0.5,0.4-0.6,0.6c0,0.1,0,0.3,0,0.4v0.1c0,1-0.3,2-0.6,3c0,0.1-0.1,0.2-0.1,0.2l0,0c-0.2,0-0.3-0.4-0.3-0.6
						c-0.2-0.5-0.3-1.1-0.4-1.6c0-0.2,0-0.3-0.1-0.5c0-0.2,0-0.4-0.1-0.6l0,0c-0.1-0.6-0.6-0.7-1.2-0.5c-0.5,0.2-0.8,0.7-1,1.2
						c-0.2,0.7-0.2,1.5,0,2.2c-0.1,0.3-0.2,0.5-0.3,0.8c0,0.1-0.1,0.2-0.2,0.3c0,0,0,0,0,0.1c0,0,0,0-0.1,0c-0.5,0-0.7-1.3-0.8-1.6
						c-0.2-0.5-0.4-1-0.9-1.1c-0.4-0.1-0.8,0-1.1,0.3c-0.2-0.7-0.4-1.4-0.2-2.1c0.2-0.8,1-0.5,1.5-0.3c0.3,0.2,1-0.8,0.6-1
						c-0.5-0.3-1.1-0.5-1.6-0.2c-0.5,0.3-0.8,0.7-1,1.2c0,0.1-0.1,0.2-0.1,0.3c-0.2-0.5-0.5-1-0.7-1.5c-0.1-0.2-0.4,0-0.5,0.1
						c-0.9,0.8-2.4,2.5-1.5,3.8c0.2,0.3,0.9-0.7,0.7-1c-0.4-0.5,0.2-1.2,0.6-1.7c0.6,1.1,1.1,2.3,1.6,3.5c0.3,0.7,0.6,1.6,0.3,2.3
						c-0.2,0.7-1.2,0.3-1.4-0.3c-0.2-0.5-0.8,0.5-0.7,0.8c0.1,0.4,0.4,0.7,0.9,0.9c0.4,0.1,0.8-0.1,1.1-0.3c0.7-0.6,1-1.6,0.9-2.5
						c0-0.4-0.1-0.8-0.2-1.2c0.3-0.1,0.6,0,0.8,0.3c0.4,0.6,0.5,1.4,0.9,2s1,0.2,1.3-0.2c0.2-0.3,0.3-0.5,0.4-0.8
						c0.1,0.3,0.4,0.7,0.7,0.8c0.4,0.1,0.9-0.3,1.1-0.7c0,0,0,0,0-0.1c0.4,0.9,1.2,0.3,1.6-0.3c0.4-0.7,0.6-1.5,0.7-2.2
						c0-0.1,0-0.1,0-0.2c0.4,0.3,0.9,0.2,1.3,0c0,0,0,0,0.1,0c0,0.7,0,1.4,0.2,2c0.1,0.5,0.3,0.7,0.8,0.7c0.4,0,0.7-0.2,1-0.4
						c0.1,0.2,0.3,0.4,0.6,0.4c0.5,0,0.9-0.5,1.1-1c0.2-0.5,0.3-1.1,0.4-1.7c0-0.2,0-0.4,0-0.7c0.3,0,0.6-0.1,0.8-0.3
						c0,1.1-0.1,2.3-0.2,3.4c0,0.5,0.8-0.1,0.9-0.4c0.1-1,0.3-2,0.6-3c0-0.1,0.1-0.2,0.1-0.2l0,0c0.2,0.6,0.1,1.3,0,1.9
						c0,0.3,0,0.5-0.1,0.8c-0.1,0.4-0.1,0.7-0.1,1.1c0,0.5,0.9-0.1,0.9-0.4c0-0.3,0.1-0.5,0.1-0.8c0.1-0.4,0.2-0.9,0.3-1.3
						s0.2-0.7,0.4-1.1c0,0.2,0.1,0.3,0.1,0.5c0,0.6,0,1.2-0.1,1.7s-0.4,1.9,0.5,1.8c0.5-0.1,1-0.3,1.4-0.7c-0.1,0.3-0.1,0.5-0.1,0.8
						c-0.1,0.5,0.8,0,0.9-0.3c0.2-1,0.6-2,1-2.9c0-0.1,0.1-0.1,0.1-0.2l0,0c0.1,0.6-0.1,1.3-0.2,1.8c-0.1,0.3-0.1,0.6-0.2,0.8
						c-0.1,0.3-0.2,0.7-0.3,1c-0.1,0.5,0.8,0.1,0.9-0.3c0.1-0.4,0.2-0.7,0.3-1.1c0.2-0.7,0.5-1.4,1-2c0,0.1,0,0.1,0,0.1
						c0,0.5-0.1,1-0.2,1.5c-0.1,0.5-0.3,1-0.4,1.6c0,0.3-0.1,0.6,0.1,0.8c0.1,0.2,0.5,0.1,0.7,0c0.2,0,0.5-0.1,0.7-0.3
						c0,0.3,0,0.5,0.2,0.7c0.3,0.3,0.9,0.2,1.3,0c0,0,0,0,0.1,0c0,0.2,0,0.4,0.1,0.5c0.2,0.4,0.8,0.3,1.1,0.2
						C-4.6,431.6-4.2,431.4-4.3,431.2z M-25.7,428.9h-0.1c-0.2,0-0.3-0.3-0.4-0.5c-0.1-0.2-0.2-0.5-0.3-0.8v-0.1
						c-0.1-0.4-0.1-0.8-0.1-1.1c0-0.2,0.1-0.6,0.1-0.7l0,0h0.1c0.2-0.1,0.4,0.1,0.4,0.3c0.1,0.9,0.3,1.8,0.3,2.7
						C-25.7,428.7-25.7,428.8-25.7,428.9z M-18.7,428.3L-18.7,428.3L-18.7,428.3z M-18.5,427.9c0,0.1-0.1,0.2-0.1,0.3
						c-0.2-0.1-0.3-0.4-0.4-0.5c0-0.1,0-0.1-0.1-0.2v-0.1c-0.1-0.3-0.1-0.6-0.1-0.9c0-0.4,0-0.8,0.1-1.2c0-0.1,0.1-0.2,0.1-0.3
						c0.1,0,0.1,0.1,0.2,0.1c0,0.1,0,0.1,0.1,0.2c0,0,0,0,0.1,0.1c0.2,0.4,0.2,1.1,0.2,1.4C-18.4,427-18.4,427.5-18.5,427.9z
						 M-6.3,430.5c0,0-0.1,0-0.1-0.1c-0.1-0.1-0.1-0.4-0.1-0.6c0-0.7,0.3-1.4,0.7-1.9c0.1-0.2,0.3-0.4,0.4-0.5l0,0h0.1
						c0.2,0.1,0.3,0.3,0.2,0.5c-0.3,0.8-0.6,1.7-1.1,2.4C-6.2,430.3-6.2,430.4-6.3,430.5z"/>
				</g>
			</g>
			<path class="st4" d="M-28.9,395.1c0,1.5-1.2,2.7-2.7,2.7s-2.7-1.2-2.7-2.7s1.2-2.7,2.7-2.7S-28.9,393.6-28.9,395.1L-28.9,395.1z"
				/>
			<path class="st5" d="M-28.8,404.3c0,1.9-1.6,3.5-3.5,3.5s-3.5-1.6-3.5-3.5s1.6-3.5,3.5-3.5C-30.4,400.8-28.8,402.4-28.8,404.3
				L-28.8,404.3z"/>
			<path class="st5" d="M-38.2,398.9c0,1.1-0.9,2.1-2.1,2.1s-2.1-0.9-2.1-2.1c0-1.2,0.9-2.1,2.1-2.1S-38.2,397.8-38.2,398.9
				L-38.2,398.9z"/>
			<g>
				<circle class="st5" cx="-0.5" cy="401.8" r="11.8"/>
				<g>
					<path class="st1" d="M-3.5,400.1c-1,0.1-1.2,1.3-1.3,2.1l0,0l0,0c0,0.1,0,0.2,0,0.3c0,0.4,0,0.7-0.1,1c0,0.2-0.1,0.5-0.1,0.5
						c-0.4,0-0.6-0.5-0.7-0.7c-0.2-0.6-0.4-1.2-0.5-1.9c-0.1-0.7-0.2-1.4-0.2-2.1c0-0.3,0-0.6,0-0.9c0-0.1,0-0.2,0-0.3s0-0.2,0-0.2
						c0.1-0.5-0.6,0-0.8,0.2c-0.8,1.4-0.5,3-0.5,4.5c0,0.4,0,0.8-0.1,1.2c0,0.3-0.1,0.8-0.3,1c-0.1,0.1-0.4,0-0.5,0
						c-0.2-0.1-0.3-0.3-0.3-0.5c0-0.2-0.3-0.1-0.4,0c-0.2,0.2-0.3,0.5-0.3,0.7c0.1,0.5,0.6,1,1.1,0.8c0.9-0.3,1.3-1.3,1.5-2.1
						c0.1-0.4,0.2-0.8,0.2-1.2c0.1,0.6,0.3,1.2,0.6,1.7c0.2,0.4,0.5,0.8,1,0.7c0.4-0.1,0.6-0.5,0.8-0.9c0.2,0.4,0.4,0.7,0.9,0.6
						c0.5,0,0.9-0.6,1.1-0.9c0.2-0.5,0.3-1,0.3-1.5C-2.3,401.4-2.5,400-3.5,400.1z M-3.2,403.5c0,0.1,0,0.2-0.1,0.3
						c-0.2,0-0.3-0.3-0.4-0.4c-0.2-0.3-0.2-0.7-0.3-1c0-0.4,0-0.7,0-1.1c0-0.1,0-0.2,0.1-0.3c0.5,0.3,0.6,0.9,0.6,1.5
						C-3.1,402.7-3.1,403.1-3.2,403.5z"/>
					<path class="st1" d="M8.2,401.5c-1.1-0.4-1.6,1-1.8,1.8c-0.2,0.7-0.4,2,0.5,2.4c0.4,0.2,1-0.1,1.2-0.4c0.3-0.4,0.5-0.8,0.6-1.3
						C9,403.2,9.2,401.8,8.2,401.5z M7.6,404.9c0,0.1-0.1,0.2-0.1,0.2c-0.2-0.1-0.2-0.4-0.2-0.6c-0.1-0.4,0-0.7,0-1.1
						c0.1-0.4,0.2-0.7,0.3-1c0-0.1,0.1-0.2,0.1-0.2c0.4,0.5,0.3,1.1,0.2,1.7C7.9,404.2,7.8,404.5,7.6,404.9z"/>
					<path class="st1" d="M5.4,401.7c0.2-0.3,0.4-0.5,0.6-0.8c0.4-0.6,0.8-1.3,0.7-2c0-0.7-1-0.7-1.4-0.5c-0.7,0.3-1.1,1-1.3,1.7
						c-0.3,0.9-0.4,1.8-0.4,2.8l0,0c-0.3,0.4-1,1.2-1.6,0.9c-0.1-0.1-0.2-0.3-0.3-0.4c0.4-0.5,0.8-0.9,1.2-1.5
						c0.3-0.5,0.5-1.3-0.1-1.6c-0.5-0.3-1.2,0-1.5,0.5c-0.3,0.4-0.5,1-0.6,1.5c0,0.3-0.1,0.8,0,1.2c-0.3,0.2-0.7,0.3-1,0.2
						c-0.4-0.1-0.6-0.5-0.6-0.8c-0.1-0.5-0.1-1,0-1.5c0-0.1,0.1-0.3,0.1-0.4v-0.1c0.3,0.1,0.4,0.5,0.4,0.7c0.1,0.4,1-0.2,0.9-0.6
						s-0.2-0.7-0.6-0.9c-0.4-0.2-0.9,0.1-1.1,0.4c-0.6,0.6-0.7,1.6-0.7,2.4c0,0.5,0.1,1.2,0.6,1.5c0.6,0.4,1.5,0,2.1-0.3
						c0.2,0.4,0.5,0.7,1,0.6c0.6-0.1,1.2-0.4,1.7-0.9c0,0.5,0.1,1,0.5,1.2c0.6,0.3,1.2,0,1.6-0.5c0.5-0.6,0.7-1.5,0.5-2.2
						C6,401.8,5.7,401.7,5.4,401.7z M1.8,401.3c0-0.1,0.1-0.3,0.2-0.4l0,0c0.3,0.1,0.3,0.4,0.3,0.6c-0.1,0.4-0.3,0.8-0.6,1.1
						c0-0.1,0-0.1,0-0.2C1.7,402,1.7,401.6,1.8,401.3z M5.2,399.3c0.1-0.1,0.2-0.3,0.3-0.4l0,0c0.4,0.5,0,1.1-0.2,1.5
						c-0.2,0.4-0.5,0.8-0.8,1.2c0.1-0.4,0.1-0.8,0.2-1.2C4.9,400.1,5,399.7,5.2,399.3z M5,404.1c0,0-0.1,0.1-0.1,0.2H4.8
						c-0.3-0.1-0.3-0.7-0.3-0.9c0-0.2,0-0.4,0-0.6c0.1-0.1,0.2-0.2,0.3-0.4c0.2-0.2,0.4,0.1,0.4,0.4C5.3,403.2,5.2,403.8,5,404.1z"
						/>
				</g>
			</g>
			<g>
				<path class="st6" d="M-44.7,412.2c-0.1,0-0.2-0.2-0.3-0.2c-0.5-0.2-0.8,0.1-1.2,0.1c-1,0-1.4,0-2.6-0.4c0-1.1,0.6-1.7,0.9-2.5
					c0.3-0.7-0.1-1.6-0.1-2.4c0-0.5,0-1,0-1.5c-0.4,0.3-0.2,1.3-0.2,1.8c-0.2-0.6-0.1-1.5-0.3-2c-0.2,0.6,0,1.4,0,2
					c-0.2-0.6-0.2-1.2-0.4-1.8c-0.3,0.6,0.2,1.4,0.1,1.9c-0.2-0.5-0.3-1.1-0.6-1.6c-0.1,0.7,0.2,1.2,0.2,1.7
					c-0.2-0.4-0.3-0.9-0.6-1.2c0,0.4,0.3,1,0.4,1.4c-0.3-0.1-0.4-0.5-0.7-0.6c0.1,0.3,0.3,0.5,0.4,0.8c-0.2-0.1-0.3-0.3-0.5-0.4
					c0,0.3,0.3,0.4,0.3,0.7c-0.1-0.1-0.3-0.2-0.4-0.3c0,0.2,0.3,0.4,0.3,0.5c0,0-0.2-0.1-0.2,0c0.1,0,0.3,0.2,0.1,0.2
					c-0.1,0-0.2,0-0.2,0c0,0.2,0.2,0.1,0.1,0.3c-0.1,0-0.1-0.1-0.1,0s0.1,0.1,0.1,0.2c-0.9,0.9-0.4,1.9-0.5,2.9
					c0.1-0.1-0.7-0.3-1.3-0.5c-0.3-0.1-0.4-0.5-0.6-0.6c0-0.1,0.1,0,0.1-0.1c-0.1,0-0.2-0.1-0.2-0.2c0.1,0,0.3,0.1,0.3,0
					c-0.2-0.1-0.6-0.2-0.5-0.3c0.2,0,0.4,0.1,0.6,0.1c-0.3-0.1-0.7-0.3-0.7-0.5c0.2,0.1,0.5,0.3,0.8,0.2c-0.4-0.2-0.9-0.5-1-0.8
					c0.3,0.1,0.6,0.5,0.9,0.4c-0.4-0.1-0.8-0.6-1.2-0.6c0.2,0.4,0.8,0.6,1,0.9c-0.3-0.2-0.7-0.4-1-0.5c0.1,0.4,0.6,0.5,0.9,0.8
					c-0.3,0-0.5-0.2-0.8-0.2c0.1,0.3,0.6,0.3,0.8,0.5c-0.1-0.1-0.4,0-0.5,0c0,0.2,0.4,0.2,0.5,0.3c-0.2,0-0.4,0-0.4,0.1
					c0.1,0.1,0.4,0.1,0.4,0.2c-0.1,0-0.2,0-0.2,0.1c0,0.1,0.3,0,0.3,0.1c-0.1,0-0.1,0.1-0.1,0.1c0.1,0,0.2,0,0.2,0
					c-0.1,0-0.1,0.1-0.1,0.1c0.5,0.3,0.7,1,1.4,1.2c-0.4,0.3,0.3,0.5-3.8,1.9c0.1,0,1.8-0.4,2.3-0.6c0.5-0.2,1-0.3,1.5-0.5
					c0.1,0,0.2-0.1,0.4-0.1c0.9-0.1,1.6,0.1,2.4-0.5c-0.6,0.1-1.7,0.2-2.2-0.1c0.6-0.9,0.2-3.1,0.6-3.6c0.5-0.4,1.1-1.9,2-0.6
					c0.1,0.2,0.2,0.5-0.1,1c-0.4,0.6-0.6,0.9-0.5,2.2c0,0.3,0,0.6-0.4,0.6c1.8,0.4,2.3,0.2,3.3,0c0.3,0,0.8-0.3,0.9,0
					c0,0.1-0.3,0.1-0.6,0.1c-0.5,0,0.2,0.2,0.5,0.2c0.1,0,1-0.1,1.6-0.2C-44.1,412.3-44.4,412.3-44.7,412.2z"/>
				<path class="st6" d="M-49.9,403.1c-4.1,0-7.4,3.3-7.4,7.4c0,4.1,3.3,7.4,7.4,7.4s7.4-3.3,7.4-7.4
					C-42.5,406.4-45.8,403.1-49.9,403.1 M-49.9,403.4c3.9,0,7.1,3.2,7.1,7.1c0,3.9-3.2,7.1-7.1,7.1s-7.1-3.2-7.1-7.1
					C-57,406.6-53.8,403.4-49.9,403.4"/>
			</g>
		</g>
		<g>
			<g>
				<path class="st5" d="M-28.9,440.2c0-3.7-3-6.7-6.7-6.7s-6.7,3-6.7,6.7c0,3.7,3,6.7,6.7,6.7S-28.9,443.9-28.9,440.2z"/>
			</g>
			<g>
				<path class="st1" d="M-39.8,439.1c0.3-0.7,0.8-0.2,1,0.1c0.3,0.5,0,1.1-0.3,1.5s-0.6,0.7-1,0.9c-0.2,0.1-0.4,0.2-0.5,0.4
					c0,0.1-0.1,0.2,0,0.3c0.3,0.2,0.8,0.2,1.1,0.2c0.6,0,1.2,0,1.7-0.3c0.3-0.1,0.6-0.9,0-0.6c-0.4,0.2-0.9,0.2-1.4,0.2
					c-0.2,0-0.7,0-0.9-0.1c0,0.1,0,0.2,0,0.3c-0.3,0.4-0.1,0.2,0.1,0.1c0.2-0.1,0.3-0.2,0.5-0.4c0.3-0.2,0.5-0.5,0.8-0.8
					c0.5-0.6,0.8-1.3,0.6-2c-0.3-1.7-2.1-0.4-2.5,0.5C-40.7,439.8-39.9,439.3-39.8,439.1L-39.8,439.1z"/>
				<path class="st1" d="M-36.3,439.1c0.3-0.7,0.8-0.2,1,0.1c0.3,0.5,0,1.1-0.3,1.5s-0.6,0.7-1,0.9c-0.2,0.1-0.4,0.2-0.5,0.4
					c0,0.1-0.1,0.2,0,0.3c0.3,0.2,0.8,0.2,1.1,0.2c0.6,0,1.2,0,1.7-0.3c0.3-0.1,0.6-0.9,0-0.6c-0.4,0.2-0.9,0.2-1.4,0.2
					c-0.2,0-0.7,0-0.9-0.1c0,0.1,0,0.2,0,0.3c-0.3,0.4-0.1,0.2,0.1,0.1c0.2-0.1,0.3-0.2,0.5-0.4c0.3-0.2,0.5-0.5,0.8-0.8
					c0.5-0.6,0.8-1.3,0.6-2c-0.3-1.7-2.1-0.4-2.5,0.5C-37.2,439.8-36.4,439.3-36.3,439.1L-36.3,439.1z"/>
				<g>
					<path class="st1" d="M-30.9,438.5c-0.8,1.3-1.8,2.5-2.7,3.7c-0.4,0.5,0.2,0.5,0.5,0.2c1-1.3,2-2.5,2.8-3.9
						C-30,437.9-30.8,438.2-30.9,438.5L-30.9,438.5z"/>
					<path class="st1" d="M-32.4,438.1c-0.5,0-0.8,0.5-0.9,0.9s0.2,0.8,0.6,0.8C-31.8,439.8-31.3,438.1-32.4,438.1
						c-0.2,0-0.6,0.5-0.3,0.5c0.2,0,0.3,0.2,0.4,0.4c0,0.1,0,0.2,0,0.3s0,0,0,0h-0.1c-0.2,0-0.4-0.2-0.4-0.4c0-0.1,0-0.2,0-0.3
						s0,0,0,0h0.1C-32.4,438.6-32.1,438.1-32.4,438.1z"/>
					<path class="st1" d="M-31,440.9c-0.5,0-0.8,0.5-0.9,0.9c-0.1,0.4,0.2,0.8,0.6,0.8C-30.4,442.6-30,440.9-31,440.9
						c-0.2,0-0.6,0.5-0.3,0.5c0.2,0,0.3,0.2,0.4,0.4c0,0.1,0,0.2,0,0.3s0,0,0,0H-31c-0.2,0-0.4-0.2-0.4-0.4c0-0.1,0-0.2,0-0.3
						s0,0,0,0h0.1C-31.1,441.4-30.7,440.8-31,440.9z"/>
				</g>
			</g>
		</g>
		<g>
			<circle class="st4" cx="-7.8" cy="449.9" r="7.3"/>
		</g>
		<path class="st4" d="M-56.2,432.6c-0.4,0-0.7,0-1.1,0.1c1.5,4.9,3.9,9.5,6.9,13.5c1.4-1.4,2.2-3.4,2.2-5.6
			C-48.2,436.2-51.8,432.6-56.2,432.6z"/>
		<circle class="st4" cx="16.1" cy="418.6" r="5.4"/>
		<path class="st4" d="M13.9,440.5c0,1.4,0.4,2.7,1,3.8c2.3-3.4,4.2-7.2,5.5-11.2C16.8,433.5,13.9,436.7,13.9,440.5z"/>
		<path class="st4" d="M-18.7,380c-1.6,0-3.2,0.1-4.7,0.2c0,0.1,0,0.1,0,0.2c0,4.5,3.7,8.2,8.2,8.2c4.2,0,7.6-3.1,8.1-7.1
			C-10.8,380.5-14.7,380-18.7,380z"/>
	</g>
</g>
</svg>
