<svg xmlns="http://www.w3.org/2000/svg" viewBox="0 0 324 213.2"><style>.st0{fill:#3F200B;} .st1{fill:#FFD694;} .st2{fill:#EFBC73;}</style><g id="kolby"><path class="st0" d="M53.1 76.3H273V84H53.1zM53.1 131.3H273v7.7H53.1z"/><path class="st1" d="M112.3 71.2c0 2.9-2.3 5.2-5.2 5.2H65.6c-2.9 0-5.2-2.3-5.2-5.2V56.7c0-2.9 2.3-5.2 5.2-5.2h41.5c2.9 0 5.2 2.3 5.2 5.2v14.5zM189 71.2c0 2.9-2.3 5.2-5.2 5.2h-41.5c-2.9 0-5.2-2.3-5.2-5.2V56.7c0-2.9 2.3-5.2 5.2-5.2h41.5c2.9 0 5.2 2.3 5.2 5.2v14.5zM260.5 71.2c0 2.9-2.3 5.2-5.2 5.2h-41.5c-2.9 0-5.2-2.3-5.2-5.2V56.7c0-2.9 2.3-5.2 5.2-5.2h41.5c2.9 0 5.2 2.3 5.2 5.2v14.5zM112.3 126.2c0 2.9-2.3 5.2-5.2 5.2H65.6c-2.9 0-5.2-2.3-5.2-5.2v-14.5c0-2.9 2.3-5.2 5.2-5.2h41.5c2.9 0 5.2 2.3 5.2 5.2v14.5zM189 126.2c0 2.9-2.3 5.2-5.2 5.2h-41.5c-2.9 0-5.2-2.3-5.2-5.2v-14.5c0-2.9 2.3-5.2 5.2-5.2h41.5c2.9 0 5.2 2.3 5.2 5.2v14.5zM260.5 126.2c0 2.9-2.3 5.2-5.2 5.2h-41.5c-2.9 0-5.2-2.3-5.2-5.2v-14.5c0-2.9 2.3-5.2 5.2-5.2h41.5c2.9 0 5.2 2.3 5.2 5.2v14.5z"/><circle class="st2" cx="75" cy="58" r="2.3"/><circle class="st2" cx="98.4" cy="68.9" r="2.3"/><circle class="st2" cx="76.2" cy="63.9" r="3.4"/><circle class="st2" cx="65.5" cy="68.5" r="1.5"/><circle class="st2" cx="65.5" cy="55.7" r="1.5"/><circle class="st2" cx="84.8" cy="68.5" r="1.5"/><circle class="st2" cx="108.1" cy="56.3" r="1"/><circle class="st2" cx="98" cy="123.6" r="2.3"/><circle class="st2" cx="74.6" cy="112.7" r="2.3"/><circle class="st2" cx="83.3" cy="118.9" r="3.4"/><circle class="st2" cx="107.5" cy="113.1" r="1.5"/><circle class="st2" cx="107.5" cy="125.9" r="1.5"/><circle class="st2" cx="88.1" cy="113.1" r="1.5"/><circle class="st2" cx="64.9" cy="125.3" r="1"/><circle class="st2" cx="172.5" cy="61.7" r="2.3"/><circle class="st2" cx="177" cy="68.9" r="2.3"/><circle class="st2" cx="155.9" cy="68.5" r="3.4"/><circle class="st2" cx="144.1" cy="68.5" r="1.5"/><circle class="st2" cx="169.6" cy="71.9" r="1.5"/><circle class="st2" cx="162.2" cy="60.2" r="1.5"/><circle class="st2" cx="146.6" cy="58.7" r="1"/><circle class="st2" cx="149.3" cy="123.3" r="2.3"/><circle class="st2" cx="154.8" cy="119.8" r="2.3"/><circle class="st2" cx="165.9" cy="116.5" r="3.4"/><circle class="st2" cx="145.6" cy="112.7" r="1.5"/><circle class="st2" cx="152.2" cy="113.1" r="1.5"/><circle class="st2" cx="159.6" cy="124.8" r="1.5"/><circle class="st2" cx="175.2" cy="126.3" r="1"/><circle class="st2" cx="242.7" cy="61.7" r="2.3"/><circle class="st2" cx="225.2" cy="58.7" r="2.3"/><circle class="st2" cx="252.8" cy="58.7" r="3.4"/><circle class="st2" cx="214.3" cy="68.5" r="1.5"/><circle class="st2" cx="215.8" cy="62.5" r="1.5"/><circle class="st2" cx="229.3" cy="67.3" r="1.5"/><circle class="st2" cx="216.8" cy="58.7" r="1"/><circle class="st2" cx="234.5" cy="60.5" r="1"/><circle class="st2" cx="221" cy="66.7" r="1"/><circle class="st2" cx="221.9" cy="70.4" r="1"/><circle class="st2" cx="226.2" cy="121.5" r="2.3"/><circle class="st2" cx="220" cy="126.3" r="2.3"/><circle class="st2" cx="217.8" cy="113.8" r="3.4"/><circle class="st2" cx="254.6" cy="114.7" r="1.5"/><circle class="st2" cx="253.1" cy="120.7" r="1.5"/><circle class="st2" cx="239.6" cy="115.9" r="1.5"/><circle class="st2" cx="252.2" cy="124.5" r="1"/><circle class="st2" cx="234.4" cy="122.6" r="1"/><circle class="st2" cx="247.9" cy="116.5" r="1"/><circle class="st2" cx="247" cy="112.8" r="1"/></g></svg>