<svg xmlns="http://www.w3.org/2000/svg" viewBox="0 0 246.3 184.2"><style>.st0{fill:#FFCC66;} .st1{fill:#EAB353;} .st2{fill:#FCD597;} .st3{fill:#F7F2EB;} .st4{fill:#DD9827;} .st5{fill-rule:evenodd;clip-rule:evenodd;fill:#DD9827;} .st6{fill-rule:evenodd;clip-rule:evenodd;fill:#62BA47;} .st7{fill:#62BA47;} .st8{fill:#FFFFFF;} .st9{fill:#62BA46;}</style><g id="kolby"><path class="st0" d="M125.4 130.1l-72.9-24.6V74.6l72.9 24.6z"/><path class="st1" d="M125.3 130.1l72.9-24.6V74.6l-72.9 24.6z"/><path class="st2" d="M125.1 50L52.2 74.6l73.1 24.6 72.9-24.6z"/><path class="st3" d="M127.4 61.5L88.7 74.6l38.8 13.1 38.8-13.1z"/><path class="st4" d="M127.5 88.6L86 74.6l41.4-14 41.5 14-41.4 14zm-36.2-14l36.2 12.2 36.1-12.2-36.2-12.2-36.1 12.2z"/><ellipse transform="rotate(-4 162.446 104.2)" class="st4" cx="162.4" cy="104.2" rx="7.4" ry="8.2"/><path class="st5" d="M158.2 94.4c0 .6-.3 1.1-.9 1.1-.5 0-1-.4-1-1s.3-1.1.9-1.1c.5 0 .9.4 1 1z"/><path class="st6" d="M158.5 97.9c.1.7-.4 1.4-1.1 1.4-.7.1-1.3-.5-1.3-1.3-.1-.7.4-1.4 1.1-1.4.6 0 1.2.6 1.3 1.3zM155.1 96.1c0 .4-.3.8-.7.9-.4 0-.8-.3-.8-.7 0-.4.3-.8.7-.9.4-.1.7.3.8.7z"/><ellipse transform="rotate(-4 168.2 96.208)" class="st7" cx="168.2" cy="96.2" rx="4.1" ry="4.5"/><path class="st8" d="M167.1 95.6c-.3.1-.4.5-.4.8v.7c-.1 0-.2-.2-.3-.3-.1-.2-.2-.5-.2-.7-.1-.3-.1-.5-.1-.8V95v-.1-.1c0-.2-.2 0-.3.1-.2.5-.1 1.2 0 1.7v.5c0 .1 0 .3-.1.4 0 .1-.1 0-.2 0s-.1-.1-.1-.2-.1 0-.1 0c-.1.1-.1.2-.1.3 0 .2.2.4.4.3.3-.1.4-.5.4-.9v-.5c.1.2.1.4.2.6.1.1.2.3.4.2.1 0 .2-.2.3-.4.1.1.2.2.3.2.2 0 .3-.2.3-.4.1-.2.1-.4 0-.6.1 0 0-.5-.4-.5zm.2 1.3v.1c-.1 0-.1-.1-.1-.2-.1-.1-.1-.3-.1-.4V96v-.1c.2.1.2.3.3.5-.1.3 0 .4-.1.5zM171.2 95.9c-.4-.1-.5.4-.6.7 0 .3-.1.8.2.9.2.1.3-.1.4-.2.1-.1.2-.3.2-.5.2-.3.2-.8-.2-.9zm-.1 1.3s0 .1 0 0c-.1.1-.1-.1-.1-.1v-.4c0-.1 0-.3.1-.4v-.1c.2.2.1.4.1.6 0 .1 0 .3-.1.4z"/><path class="st8" d="M170.3 96c.1-.1.1-.2.2-.3.1-.2.2-.5.2-.8 0-.3-.4-.3-.5-.2-.2.1-.3.4-.4.7-.1.4-.1.7-.1 1.1-.1.2-.3.5-.5.4 0 0-.1-.1-.1-.2.1-.2.3-.4.4-.6.1-.2.1-.5-.1-.6-.2-.1-.4 0-.5.2-.1.2-.1.4-.1.6v.5c-.1.1-.2.1-.4.1-.1 0-.2-.2-.2-.3-.1-.2-.1-.4 0-.6v-.2c.1 0 .1.2.2.2 0 .1.3-.1.3-.2s-.1-.3-.2-.3c-.1-.1-.3.1-.4.2-.2.3-.2.6-.2.9 0 .2.1.5.3.6.2.1.5 0 .7-.2.1.1.2.2.4.2.2-.1.4-.2.6-.4 0 .2.1.4.2.5.2.1.4-.1.5-.2.1-.2.2-.6.1-.9-.2-.1-.3-.2-.4-.2zm-1.3 0v-.2c.1 0 .1.1.1.2 0 .2-.1.3-.2.5v-.1c.1-.1.1-.3.1-.4zm1.1-.9c0-.1 0-.1.1-.2.2.2 0 .4 0 .6-.1.2-.1.3-.2.5v-.5c0-.1.1-.2.1-.4zm.1 1.9s-.1 0 0 0c-.2 0-.2-.2-.2-.3v-.2c0-.1.1-.1.1-.2.1-.1.1 0 .2.1 0 .2-.1.4-.1.6z"/><g><path class="st8" d="M162.4 101.7c-.5.1-.5.7-.5 1 0 .3.1.9.4.9.2 0 .3-.2.4-.4.1-.2.1-.4.1-.6 0-.3 0-.9-.4-.9zm.1 1.4v.1c-.2 0-.3-.5-.3-.6v-.4-.1c.2 0 .3.5.3.6v.4zM161.4 101.8c-.1-.1-.3 0-.4.1 0-.1-.1-.2-.1-.3 0-.1-.2 0-.2 0l-.1.1v.2h-.5c-.4.1-.4.7-.3 1.1.1.3.2.8.6.8.2 0 .3-.3.4-.4.1-.2.1-.4 0-.6 0-.1-.1-.3-.1-.5.1 0 .1-.1.2-.2.1.4.2.9.3 1.3.1.4.1.8.1 1.2 0 .1.1.1.1 0 .1-.1.1-.2.1-.2 0-.3 0-.6-.1-.8.1 0 .2-.1.3-.2.2-.3.2-.6.1-.9-.1-.2-.1-.6-.4-.7zm-.9 1.6s0 .1 0 0v.1c-.2.1-.3-.4-.4-.5 0-.1-.1-.3-.1-.4v-.1h.1c.1.1.2.4.3.5 0 .1.1.2.1.4zm.7-1.2zm.3 1.1zm0 0c-.1.1-.2 0-.2-.2s-.1-.5-.1-.7v-.2s.1 0 .1.1c.1.1.2.3.2.5v.5z"/><path class="st8" d="M159.2 102.7v-.5c0-.3 0-.6-.1-.8-.2-.2-.4 0-.5.2-.1.3-.1.6-.1.9 0 .3.2.7.3 1 0 .2 0 .3-.1.5v-.1c0-.1-.1-.1-.1-.2-.2-.5-.3-1-.6-1.5-.1-.1-.2-.4-.4-.2-.2.1-.2.3-.3.4-.1-.1-.3-.2-.5-.1l-.2.2c0-.1-.1-.1-.1-.2-.1-.1-.3.3-.2.4.1 0 .1.2.2.2.1.2.2.4.2.5 0 .1.1.2.1.3.1.4.3.8.5 1.1h.1c.1 0 .2-.3.2-.4-.1-.3-.3-.7-.4-1-.1-.1-.1-.3-.1-.4 0-.2-.1-.3-.1-.5v-.1c.2-.1.4.4.4.5.1.2.2.4.2.6l.3.9h.1c.1 0 .2-.3.2-.3l-.3-.9c0-.1 0-.1-.1-.2-.1-.3-.2-.5-.2-.8.1 0 .1.1.1.1.2.2.3.6.4.9.1.2.1.4.2.6 0 .1.1.3.2.4.1.1.2 0 .3-.1.1-.1.1-.3.2-.4.1.2.2.3.4.3.2-.1.3-.4.4-.6 0-.3 0-.7-.3-.9-.2.2-.3.2-.3.2zm-.4-.3c0-.2-.1-.5 0-.7.1 0 .1.1.1.2.1.2 0 .5 0 .7v.3c0-.1-.1-.3-.1-.5zm.6 1v.4c-.1 0-.1-.1-.2-.1-.1-.1-.1-.2-.2-.4v-.2c0-.1.1-.1.1 0 .2.1.3.2.3.3zM168 104.1c0-.1-.1 0-.2 0v-.1-.2c0-.2 0-.3.1-.5 0-.1.1-.3.1-.4 0-.1.1-.2.1-.2 0-.1-.1-.1-.1-.1-.1-.1-.2-.1-.3-.1-.3 0-.5.4-.6.7 0 .2.1.4.3.4h.1c0 .1-.1.1-.1.2-.1.1-.2-.1-.2-.2 0 0 0-.1-.1-.1s-.1 0-.2.1v-.3c0-.3.1-.6.2-.9 0-.2-.1-.3-.3-.3-.2 0-.4.1-.5.2-.2.2-.3.5-.3.8 0 .1-.1.2-.1.3-.1-.1 0-.3 0-.3 0-.3 0-.6.1-.9 0-.1.1-.1.1-.2s0-.1-.1-.1-.2.1-.2.2-.1.1-.1.2-.1.2-.2.3c-.1.1-.1.1-.2.1v-.9-.1h-.1c-.1 0-.1.1-.2.1v.1c-.1.4-.2.8-.4 1.2-.1 0-.1-.1-.1-.2-.1-.2-.1-.5 0-.7v-.1-.1l.1.1c.1.1.4-.1.3-.3-.1-.2-.3-.2-.5-.1-.1.1-.2.2-.2.3v.1c0 .1 0 .1-.1.2v-.7c0-.2-.3 0-.3.1s-.1.2-.1.3c0-.1 0-.2-.1-.3-.1-.3-.4-.2-.5 0l-.1.2c.1 0 .1 0 .2-.1l.1.1c.1.1.1.3.1.5v.5l-.1-.1c-.1-.1-.3.2-.2.3.2.3.4.1.6-.1 0-.1.1-.2.1-.3 0-.1.1-.2.1-.2v.7c0 .1.1.1.1.1.1 0 .1-.1.2-.2 0-.1 0-.2.1-.3 0 .1 0 .2.1.3 0 .1.1.2.2.3.2.1.3-.1.4-.2.1-.1.2-.2.2-.3v.5c0 .1.1.1.1.1.1 0 .2-.1.2-.2s.1-.3.1-.4c0-.1.1-.1.2-.1 0 .2-.1.5 0 .7 0 .2.1.3.3.2.1 0 .1-.1.2-.1 0 .1 0 .2.1.2.1.1.3 0 .4 0v.1c0 .2.2.2.3.2.1.2.4.2.5.1 0 0 .1 0 .1-.1v.1c.1.2.3.3.5.2-.2-.2-.1-.2-.2-.3zm-1.7-.5c-.1-.1-.1-.2-.1-.2v-.3c0-.1.1-.3.1-.4 0-.1.1-.2.1-.2.1 0 .1.1.1.2 0 .2 0 .5-.2.9.1-.1 0-.1 0 0zm.5.2zm.6-.7c0-.1.1-.4.2-.4h.1c.1.1.1.1 0 .2 0 .1-.1.3-.1.4-.2 0-.2-.1-.2-.2zm.5 1z"/><g><path class="st8" d="M167.9 106.6c-.1.1-.1.2-.2.3h-.1c-.1 0 0-.2 0-.2 0-.2 0-.4.1-.6v-.1c0-.1 0-.1.1-.2 0-.2-.1-.3-.3-.3-.2 0-.4.1-.5.2-.2.2-.3.4-.3.7 0 .1-.1.2-.1.3-.1 0-.1-.2-.1-.3v-.4c0-.1-.1-.1-.2-.1v-.1-.1c0-.1.1-.2.2-.3l.1.1c.1.1.4-.1.3-.2-.1-.1-.3-.2-.4-.1-.1 0-.2.1-.3.1v-.5c0-.1-.4 0-.3.2v.8c-.1.2-.2.4-.4.5h-.1v-.1-.6c0-.1 0-.3.1-.4 0-.1 0-.1.1-.2 0-.1 0-.1-.1-.1s-.2.1-.2.2-.1.1-.1.2-.1.2-.1.3c0 .1-.1.1-.2.2v-.8c0-.2-.3 0-.3.1v.5c0 .3 0 .5-.2.8h-.1c-.1 0-.1-.2-.1-.2v-.6-.1-.2c0-.2-.2-.3-.4-.2-.2 0-.3.2-.4.3-.1.2-.1.5-.1.7 0 .1 0 .2-.1.3-.1 0-.1-.1-.1-.2s0-.3-.1-.4c-.1-.1-.2-.1-.3 0v-.1-.1c0-.1 0-.2.1-.3 0 0 .1 0 .1.1.1.1.4-.2.3-.3-.1-.1-.3-.1-.4 0-.1.1-.2.1-.2.2 0-.2-.1-.4-.1-.5 0-.1-.3.1-.3.3.1.2.1.3.1.5s-.1.5-.2.7c-.1.1-.1.2-.2.3-.2.2-.3.1-.4 0 .2-.3.3-.6.3-.9 0-.2-.1-.4-.3-.3-.2.1-.3.3-.4.5-.1.2 0 .5 0 .7 0 .1 0 .1.1.2l-.1.1-.1.1h-.1c-.1-.1-.1-.4-.2-.5 0-.2-.1-.4-.2-.6-.1-.1-.2-.2-.3-.2-.2.1-.3.2-.3.4 0-.1-.1-.2-.1-.2-.1-.1-.3.2-.2.3.1.2.1.4.2.6v.2c0 .1 0 .3-.1.4v-.1c-.1-.1-.1-.2-.1-.3-.1-.2-.2-.5-.3-.8-.1-.2-.2-.2-.4-.1s-.2.3-.3.5c0 .3 0 .6.1.9-.1.1-.1.2-.2.3-.1-.1-.1-.1-.2-.1 0-.3-.1-.6-.2-.9-.1-.1-.2-.3-.4-.2-.1.1-.2.2-.3.4-.1.2 0 .4 0 .5.1.2.3-.2.2-.3 0-.1 0-.1-.1-.2.1 0 .2.1.2.2.1.1.1.3.1.4v.2l-.1.1v.1c0 .1-.1.2 0 .2h.1c.1 0 .1-.1.1-.1.1 0 .1 0 .2.1-.1.2-.2.5-.2.7 0 .2 0 .6.2.7.1.1.3 0 .4-.1.2-.3.2-.8 0-1.1 0-.1-.1-.3-.2-.4.1-.1.1-.2.2-.3.1.1.1.2.3.2.2 0 .3-.2.3-.3.1.1.2.2.3.1.1-.1.2-.3.2-.4 0 .1 0 .2.1.3 0 .2.3-.1.2-.3-.1-.3-.1-.5-.1-.8v-.3-.1c.1 0 .1.1.1.2.1.2.1.4.1.5 0 .2.1.7.4.6.1-.1.3-.2.4-.3l.1.1c.2.2.4 0 .6-.1.2-.2.3-.4.4-.6v.6c0 .1.1.1.1 0 .1 0 .1-.1.1-.2v-.5c.2 0 .1.5.3.6.1.1.3 0 .3-.1l.1-.1c0 .1.1.2.2.2.1.1.3 0 .4-.2 0 .1.1.2.2.2s.2 0 .3-.1l.1-.1v.2c0 .1.1.1.1.1.1 0 .2-.1.2-.2s0-.3.1-.4c0-.1.1-.1.1-.1v.1c0 .2 0 .5.1.7.1.2.4 0 .5-.1.1 0 .1-.1.2-.2 0 .1 0 .2-.1.3 0 .1.1.1.1.1.1 0 .2-.1.2-.2 0-.2.1-.3.1-.4.2.1 0 .6.1.7.1.1.3.1.4 0 0 0 .1 0 .1-.1 0 .1 0 .2.1.2.1.1.3.1.4 0 0 .1 0 .2.1.2.1.1.2 0 .3 0 .1-.1.2-.1.3-.3.7-.8.6-.9.5-.8zm-9.3 2.2s-.1.1-.1 0c-.2-.1-.2-.4-.2-.5 0-.1 0-.3.1-.4v.1c.1.1.1.3.2.4v.4zm.5-1.7c-.1 0-.2-.1-.2-.1-.1-.2-.2-.4-.2-.7v-.2c.1 0 .1 0 .1.1.2.2.3.5.3.9 0-.1 0 0 0 0zm2.2-1.1c0-.1-.1-.3-.1-.5v-.2h.1c.1 0 .1.1.1.2s0 .3-.1.5zm2.4.1c-.1.1-.1.1 0 0-.1 0-.2-.1-.2-.1-.1-.2-.1-.5 0-.7 0-.1.1-.2.1-.2.1 0 .1.1.1.1v.9zm3.8-.3c-.1.3-.1.6-.3.9v.1c-.1 0-.1-.2-.1-.2 0-.2 0-.5.1-.7 0-.1.1-.2.1-.2.2-.1.2 0 .2.1zM158.6 108.8zM158.6 108.8zM161.2 105.3z"/></g></g><g><path class="st9" d="M153.2 101.4l-.1-.1c-.2-.1-.3.1-.4.1-.4 0-.5 0-.9-.1 0-.4.2-.7.2-1 .1-.3-.1-.6-.1-.9v-.6c-.1.1 0 .5 0 .7-.1-.2-.1-.6-.2-.8 0 .2 0 .6.1.8-.1-.2-.1-.5-.2-.7-.1.2.1.5.1.7-.1-.2-.1-.4-.3-.6 0 .3.1.5.1.7-.1-.1-.1-.3-.3-.4 0 .2.1.4.2.5-.1 0-.1-.2-.3-.2 0 .1.1.2.2.3-.1 0-.1-.1-.2-.2 0 .1.1.1.1.2-.1 0-.1-.1-.2-.1 0 .1.1.1.1.2h-.1l.1.1h-.1c0 .1.1 0 .1.1h-.1v.1c-.3.4-.1.7-.1 1.1 0-.1-.3-.1-.5-.2-.1 0-.1-.2-.2-.2 0 0-.1 0-.1-.1h.1c-.1 0-.2-.1-.2-.1h.2c-.1 0-.2-.1-.3-.2.1 0 .2.1.3.1-.1-.1-.3-.2-.4-.3.1 0 .2.2.3.1-.2 0-.3-.2-.4-.2.1.1.3.2.4.3-.1-.1-.2-.1-.4-.2.1.2.2.2.3.3-.1 0-.2-.1-.3-.1 0 .1.2.1.3.2h-.2c0 .1.1.1.2.1h-.1s.1 0 .2.1h-.1.1v.1h.1c.2.1.3.4.5.4-.1.1.1.2-1.3.8.1 0 .6-.2.8-.3.2-.1.3-.2.5-.2h.1c.3-.1.6 0 .8-.2-.2.1-.6.1-.8 0 .2-.3 0-1.2.1-1.4.1-.2.3-.7.7-.3.1.1.1.2 0 .4s-.2.4-.1.9c0 .1 0 .2-.1.2.6.1.8 0 1.2-.1.1 0 .3-.1.3 0 0 0-.1.1-.2.1-.2 0 .1.1.2.1 0 0 .4-.1.5-.1 0 .1-.1.1-.2.1z"/><path class="st9" d="M151.1 98c-1.4.1-2.5 1.5-2.3 3 .1 1.6 1.4 2.8 2.8 2.7 1.4-.1 2.5-1.5 2.3-3-.1-1.6-1.4-2.8-2.8-2.7m0 .1c1.4-.1 2.6 1 2.7 2.6.1 1.5-.9 2.8-2.3 2.9-1.4.1-2.6-1-2.7-2.6-.1-1.4.9-2.8 2.3-2.9"/></g><g><ellipse transform="rotate(3 87.764 105.156)" class="st4" cx="87.8" cy="105.2" rx="7.4" ry="8.2"/><path class="st5" d="M84.8 94.9c0 .6-.5 1-1 1s-.9-.5-.9-1.1c0-.6.5-1 1-1s.9.5.9 1.1z"/><path class="st6" d="M84.7 98.4c0 .7-.6 1.3-1.3 1.3s-1.2-.7-1.1-1.4c0-.7.6-1.3 1.3-1.3s1.1.7 1.1 1.4zM81.5 96.2c0 .4-.4.8-.8.8s-.7-.4-.7-.8.4-.8.8-.8c.4-.1.7.3.7.8z"/><ellipse transform="rotate(3 94.52 97.994)" class="st7" cx="94.5" cy="98" rx="4.1" ry="4.5"/><path class="st8" d="M93.5 97.3c-.3 0-.5.5-.5.8v.7c-.1 0-.2-.2-.2-.3-.1-.2-.1-.5-.1-.7V97v-.3-.1-.1c0-.2-.2 0-.3.1-.4.4-.3 1-.4 1.6 0 .2 0 .3-.1.5 0 .1 0 .3-.1.4-.1.1-.1 0-.2 0s-.1-.1-.1-.2-.1 0-.1 0c-.1.1-.1.2-.1.3 0 .2.2.4.4.3.3-.1.5-.5.6-.8 0-.1.1-.3.1-.5 0 .2.1.5.2.7.1.2.2.3.3.3.1 0 .2-.2.3-.3.1.2.1.3.3.3.2 0 .3-.2.4-.3.1-.2.1-.4.1-.6-.1-.5-.1-1-.5-1zm.1 1.3v.1c-.1 0-.1-.1-.1-.2s-.1-.3-.1-.4v-.4-.1c.2.1.2.4.2.6v.4zM97.6 98.1c-.4-.2-.6.4-.7.7-.1.3-.2.8.1.9.2.1.3 0 .4-.1.1-.1.2-.3.3-.5.1-.4.2-.9-.1-1zm-.3 1.2c0 .1-.1.1 0 0-.1 0-.1-.1-.1-.1v-.4c0-.1.1-.3.1-.4 0 0 0-.1.1-.1.1.2.1.4 0 .6 0 .2-.1.3-.1.4z"/><path class="st8" d="M96.6 98.1c.1-.1.1-.2.2-.3.1-.2.3-.5.3-.8 0-.3-.3-.3-.5-.2-.2.1-.4.4-.5.6-.1.3-.2.7-.2 1.1-.1.1-.4.5-.6.3 0 0-.1-.1-.1-.2.2-.2.3-.3.4-.5.1-.2.2-.5 0-.6-.2-.1-.4 0-.5.1 0 .2-.1.4-.1.6v.5c-.1.1-.2.1-.4.1-.1 0-.2-.2-.2-.3v-.6-.2c.1 0 .1.2.1.3 0 .1.4-.1.3-.2 0-.1-.1-.3-.2-.4-.1-.1-.3 0-.4.1-.2.2-.3.6-.3.9 0 .2 0 .5.2.6.2.2.5 0 .7-.1 0 .2.1.3.3.3.2 0 .4-.1.6-.3 0 .2 0 .4.1.5.2.1.4 0 .6-.2.2-.2.3-.5.2-.8.2-.3.1-.3 0-.3zm-1.2-.3s0-.1.1-.1.1.2.1.2c0 .2-.1.3-.2.4v-.1c-.1-.1-.1-.2 0-.4zm1.2-.6c0-.1.1-.1.1-.1.1.2 0 .4-.1.6-.1.2-.2.3-.3.5 0-.2.1-.3.1-.5 0-.3.1-.4.2-.5zm-.2 1.8s0 .1 0 0c-.1.1-.1.1 0 0-.2 0-.2-.2-.2-.3v-.2l.1-.1c.1-.1.1.1.1.2.1.1.1.3 0 .4z"/><g><path class="st8" d="M88.1 102.7c-.1 0-.1 0 0 0-.1 0-.1 0 0 0-.5 0-.6.6-.6.9 0 .3 0 .9.3.9.2 0 .3-.2.4-.3.1-.2.1-.4.2-.6 0-.3 0-.9-.3-.9zm-.1 1.4c0 .1 0 .1-.1.1-.2 0-.2-.5-.2-.6 0-.1 0-.3.1-.4 0 0 0-.1.1-.1.2 0 .2.5.2.6-.1.1-.1.2-.1.4zM87.1 102.7c-.1-.1-.3 0-.4.1v-.3c0-.1-.2 0-.2 0l-.1.1c0 .1 0 .1-.1.2-.1 0-.2 0-.3-.1h-.2c-.4.1-.5.7-.5 1 0 .3.1.9.5.8.2 0 .3-.2.4-.4.1-.2.1-.4.1-.6 0-.1 0-.3-.1-.5.1 0 .1-.1.2-.1.1.4.1.9.1 1.3v1.2c0 .1.1.1.1 0 .1 0 .1-.1.1-.2v-.8c.1 0 .2-.1.3-.2.2-.2.3-.6.3-.9 0-.1 0-.5-.2-.6zm-1.2 1.4s0 .1 0 0v.1c-.2 0-.3-.4-.3-.6v-.5-.1h.1c.1.1.2.4.2.5v.6zm.9-1.1zm.1 1.2zm0-.1s0 .1 0 0c0 .1 0 .1 0 0-.1 0-.2-.1-.2-.2v-.7-.2s.1 0 .1.1c.1.1.1.4.1.5.1.2.1.4 0 .5zM84.7 103.3c0-.2.1-.3.1-.5 0-.3.1-.6 0-.8-.1-.2-.4 0-.5.1-.2.3-.2.6-.2.9 0 .4.1.7.1 1 0 .2-.1.3-.2.5v-.1c0-.1 0-.1-.1-.2-.1-.5-.2-1.1-.3-1.6-.1-.2-.2-.4-.4-.3-.2.1-.3.2-.3.4-.1-.2-.2-.3-.4-.1-.1.1-.2.1-.2.2 0-.1 0-.2-.1-.2-.1-.1-.4.3-.3.4.1.1.1.2.1.3.1.2.1.4.2.6 0 .1.1.2.1.3l.3 1.2s0 .1.1 0c.1 0 .2-.2.2-.3-.1-.3-.2-.7-.3-1 0-.1-.1-.3-.1-.4v-.5-.1c.2-.1.3.5.4.6.1.2.1.4.2.6.1.3.1.6.2.9 0 0 0 .1.1.1s.2-.2.2-.3c-.1-.3-.1-.6-.2-1v-.2c0-.3-.1-.5 0-.8.1 0 .1.1.1.1.2.3.2.6.3.9 0 .2.1.4.1.6 0 .1.1.3.1.4.1.1.2 0 .3-.1.1-.1.2-.2.2-.4.1.2.2.4.3.3.2 0 .4-.3.4-.6.1-.3.1-.7-.2-.9-.1-.1-.2-.1-.3 0zm-.3-.4c0-.2 0-.5.1-.7.1 0 .1.1.1.2 0 .2 0 .5-.1.7 0 .1 0 .2-.1.3v-.5zm.4 1.1v.4c-.1 0-.1-.1-.1-.2-.1-.1-.1-.2-.1-.4 0-.1 0-.1.1-.2 0-.1.1-.1.1 0v.4zM93.3 105.8c0-.1-.1-.1-.2-.1v-.1-.2c0-.2.1-.3.2-.5.1-.1.1-.2.2-.4 0-.1.1-.2.1-.2 0-.1-.1-.1-.1-.1-.1-.1-.2-.1-.3-.1-.3 0-.6.3-.7.7 0 .2 0 .4.2.5h.1c0 .1-.1.1-.2.2s-.1-.1-.1-.2c0 0 0-.1-.1-.1s-.1 0-.2.1v-.3l.3-.9c.1-.2-.1-.3-.3-.4-.2 0-.4.1-.5.2-.2.2-.3.4-.4.7 0 .1-.1.2-.2.3-.1-.1 0-.3 0-.3 0-.3.1-.6.2-.8 0-.1.1-.1.1-.2s0-.1-.1-.1-.2.1-.2.1c0 .1-.1.1-.1.2-.1.1-.1.2-.2.2-.1.1-.1.1-.2.1.1-.3.1-.6.1-.8v-.1h-.1c-.1 0-.1.1-.2.1v.1c-.1.4-.3.8-.5 1.1-.1 0-.1-.1-.1-.2 0-.2 0-.5.1-.7v-.1s0-.1.1-.1l.1.1c0 .1.4-.1.4-.2-.1-.2-.3-.3-.5-.2l-.3.3v.1c0 .1-.1.1-.1.2 0-.2.1-.5.1-.7 0-.2-.3 0-.3.1s-.1.2-.1.3c0-.1 0-.2-.1-.3-.1-.3-.3-.3-.5-.1 0 0-.1.1-.1.2s.1 0 .2 0c0 0 0 .1.1.2v.5c0 .2 0 .3-.1.5l-.1-.1c-.1-.1-.3.1-.3.3.1.3.4.1.6-.1.1-.1.1-.2.1-.3 0-.1.1-.2.1-.2 0 .2-.1.5-.1.7 0 .1.1.1.1.1.1 0 .2-.1.2-.2s.1-.2.1-.3v.3c0 .1.1.2.2.3.2.1.3 0 .5-.1l.3-.3c0 .2-.1.3-.1.5 0 .1.1.1.1.1.1 0 .2-.1.2-.2s.1-.3.2-.4c.1-.1.1-.1.2-.1-.1.2-.1.5-.1.7 0 .2.1.3.3.2.1 0 .1 0 .2-.1 0 .1 0 .2.1.2.1.1.3.1.4 0v.1c0 .2.2.2.3.2.1.2.3.2.5.2h.1v.1c0 .2.2.3.4.2-.1-.3.1-.3 0-.4zm-1.6-.8c-.1-.1-.1-.2-.1-.2v-.3c0-.1.1-.3.2-.4 0-.1.1-.2.1-.2.1 0 .1.1.1.2 0 .3-.1.6-.3.9zm.5.3zm.6-.6c0-.1.1-.3.2-.4h.1v.2c-.1.1-.1.3-.2.4-.1 0-.1-.1-.1-.2zm.4 1z"/><g><path class="st8" d="M92.9 108.2c-.1.1-.2.2-.2.3h-.1c-.1 0 0-.2 0-.3 0-.2.1-.4.2-.6 0 0 0-.1.1-.1 0-.1.1-.1.1-.2.1-.2 0-.3-.2-.4-.2 0-.4 0-.5.1-.2.1-.3.4-.4.6 0 .1-.1.2-.2.2s0-.2 0-.3c0-.1.1-.3 0-.4 0-.1-.1-.1-.2-.1v-.1c.1-.1.1-.2.2-.3l.1.1c.1.1.4 0 .3-.2-.1-.2-.2-.2-.4-.2-.1 0-.2.1-.3.1 0-.2.1-.4.1-.5 0-.1-.4 0-.4.1 0 .3 0 .5-.1.7-.1.2-.2.4-.4.5h-.1v-.1c0-.2 0-.4.1-.6 0-.1.1-.3.1-.4 0-.1.1-.1.1-.2s0-.1-.1-.1-.2.1-.2.1c0 .1-.1.1-.1.2s-.1.2-.2.2c-.1.1-.1.1-.2.1 0-.3.1-.5.1-.8 0-.2-.3 0-.4.1v.5c0 .3-.1.5-.3.7h-.1c-.1 0-.1-.2-.1-.2v-.6-.1-.2c0-.2-.1-.3-.3-.3-.2 0-.3.1-.4.3-.1.2-.2.5-.2.7 0 .1-.1.2-.1.3-.1 0-.1-.2-.1-.2 0-.1 0-.3-.1-.4-.1-.1-.2-.1-.2-.1v-.1-.1c0-.1.1-.2.1-.3 0 0 .1 0 .1.1.1.1.4-.2.3-.3-.1-.1-.3-.1-.4-.1-.1 0-.2.1-.2.2 0-.2 0-.4-.1-.5 0-.1-.3.1-.3.2 0 .2.1.3.1.5l-.3.6c-.1.1-.2.2-.2.3-.2.2-.3.1-.4-.1.2-.3.4-.6.4-.9 0-.2-.1-.4-.3-.3-.2 0-.4.3-.4.4-.1.2-.1.4-.1.7v.2s-.1 0-.1.1c0 0-.1.1-.2.1h-.1c-.1-.1-.1-.4-.1-.6 0-.2 0-.4-.1-.6 0-.1-.1-.3-.3-.2-.2 0-.3.2-.4.3 0-.1 0-.2-.1-.3 0-.1-.3.2-.3.3.1.2.1.4.1.6v.2c0 .1-.1.3-.2.4v-.1c0-.1-.1-.2-.1-.3-.1-.3-.1-.5-.2-.8 0-.2-.2-.2-.4-.1s-.3.3-.3.5c-.1.3-.1.6 0 .9-.1.1-.2.2-.2.3-.1-.1-.1-.1-.2-.1.1-.3 0-.6-.1-.9-.1-.2-.2-.3-.4-.3-.1 0-.3.2-.3.3-.1.2-.1.4 0 .5.1.2.3-.2.3-.3v-.2c.1 0 .2.2.2.3.1.1.1.3.1.4v.2l-.1.1-.1.1c0 .1-.1.1-.1.2h.1c.1 0 .1-.1.1-.1.1 0 .1 0 .2.1-.1.2-.2.5-.3.7 0 .2-.1.5.1.7.1.1.3.1.4-.1.3-.3.3-.7.2-1.1 0-.1-.1-.3-.1-.4.1-.1.1-.2.2-.3 0 .1.1.2.2.2s.3-.1.4-.3c.1.1.1.2.3.1.1-.1.2-.2.3-.4v.3c0 .2.3-.1.3-.2v-.8c0-.1 0-.2.1-.3v-.1c.1 0 .1.1.1.2 0 .2.1.4.1.5 0 .2 0 .7.4.6.1-.1.3-.2.4-.3 0 0 0 .1.1.1.2.2.4.1.6-.1.2-.1.4-.3.5-.6v.6c0 .1.1.1.1 0 .1 0 .1-.1.2-.2 0-.2 0-.3.1-.5.2.1.1.6.2.7.1.1.3 0 .4-.1l.1-.1c0 .1.1.2.1.2.1.1.3 0 .4-.1 0 .1 0 .2.1.2s.2 0 .3-.1c.1 0 .1-.1.2-.1v.2c0 .1.1.1.1.1.1 0 .2-.1.2-.2s.1-.3.2-.4c.1-.1.1-.1.2-.1v.1c0 .2-.1.5 0 .7.1.2.4 0 .5 0 .1 0 .1-.1.2-.1 0 .1-.1.2-.1.3 0 .1.1.1.1.1.1 0 .2-.1.2-.2.1-.1.1-.3.2-.4.1.1-.1.6 0 .7.1.1.2.1.4.1 0 0 .1 0 .1-.1 0 .1 0 .2.1.3.1.1.3.1.4 0 0 .1 0 .2.1.3.1.1.2.1.3 0 .1 0 .3-.1.3-.2.3.6.2.4.1.5zm-9.6 1s0 .1 0 0h-.1c-.2-.1-.1-.4-.1-.6 0-.1.1-.3.1-.4v.1c.1.1.1.3.1.5.1.2.1.3 0 .4zm.8-1.6s-.1 0 0 0c-.1 0-.2-.1-.2-.1-.1-.2-.1-.5-.1-.7v-.2c.1 0 .1 0 .1.1.1.2.2.5.2.9 0-.1 0 0 0 0zm2.3-.8v-.5c0-.1 0-.1.1-.2.1 0 .1.1.1.2s-.1.3-.2.5zm2.3.4c0 .1 0 .1 0 0-.1 0-.1-.1-.2-.1 0-.2 0-.5.1-.7 0-.1.1-.2.1-.2.1 0 .1.1.1.1.1.3 0 .6-.1.9zm3.8.2c-.1.3-.2.6-.4.8v-.1c0-.2.1-.5.2-.7 0-.1.1-.1.2-.2 0 0 .1.1 0 .2zM83.3 109.3v-.1zM83.3 109.2zM86.4 106.1z"/></g></g><g><path class="st9" d="M78.9 101.2l-.1-.1c-.2-.1-.3 0-.4 0-.4 0-.5 0-.9-.2 0-.4.2-.6.4-1 .1-.3 0-.6 0-.9v-.6c-.1.1-.1.5-.1.7 0-.2 0-.6-.1-.8-.1.2 0 .6 0 .8 0-.2-.1-.5-.1-.7-.1.2 0 .6 0 .8-.1-.2-.1-.4-.2-.6v.7c-.1-.2-.1-.4-.2-.5 0 .2.1.4.1.5-.1-.1-.1-.2-.2-.3 0 .1.1.2.1.3-.1 0-.1-.1-.2-.2 0 .1.1.2.1.3l-.1-.1c0 .1.1.2.1.2H77s.1.1 0 .1h-.1c0 .1.1 0 0 .1h-.1v.1c-.3.3-.2.7-.2 1.1 0-.1-.2-.1-.4-.2-.1-.1-.1-.2-.2-.3 0 0-.1 0-.1-.1h.1c-.1 0-.2-.1-.2-.1.1 0 .1.1.2 0-.1-.1-.2-.1-.2-.2.1 0 .2.1.3.1-.1-.1-.3-.2-.3-.3.1.1.2.2.3.2-.2-.1-.3-.3-.4-.3.1.2.3.3.3.4-.1-.1-.2-.1-.3-.2 0 .2.2.2.3.3-.1 0-.2-.1-.3-.1 0 .1.2.1.3.2h-.2c0 .1.1.1.2.1h-.2s.1 0 .1.1h-.1.1v.1h.1c.2.1.2.4.4.5-.1.1.1.2-1.3.7.1 0 .6-.1.8-.2.2-.1.4-.1.5-.2h.1c.3 0 .6.1.9-.1-.2 0-.6.1-.7-.1.2-.3.1-1.2.3-1.4.2-.2.4-.7.7-.2 0 .1 0 .2-.1.4s-.2.3-.2.9c0 .1 0 .2-.2.2.6.2.8.1 1.2.1.1 0 .3-.1.3 0s-.1 0-.2 0c-.2 0 .1.1.2.1 0 0 .4 0 .5-.1h-.3z"/><path class="st9" d="M77.3 97.5c-1.4-.1-2.6 1.1-2.7 2.7-.1 1.6 1 2.9 2.4 3 1.4.1 2.6-1.1 2.7-2.7.1-1.5-1-2.9-2.4-3m0 .2c1.4.1 2.4 1.4 2.3 2.9-.1 1.5-1.3 2.7-2.6 2.6-1.4-.1-2.4-1.4-2.3-2.9.1-1.6 1.3-2.7 2.6-2.6"/></g></g></g></svg>