<svg xmlns="http://www.w3.org/2000/svg" viewBox="0 0 214.5 300"><style>.st0{fill:#519E38;} .st1{fill:#F4F4F4;} .st2{fill:#D6D6D6;} .st3{fill:#EAEAEA;} .st4{fill:#FFFFFF;} .st5{fill:#483290;} .st6{fill:#62BA47;} .st7{fill-rule:evenodd;clip-rule:evenodd;fill:#483290;} .st8{fill-rule:evenodd;clip-rule:evenodd;fill:#62BA47;} .st9{fill:#62BA46;}</style><g id="butylka_2"><path class="st0" d="M157.1 240.7v-99.6l-14.6-48.4c3.9-21.7-6.5-28.2-6.5-28.2v-7.8h2.2V45.5c0-2.8-3.9-2.5-3.9-2.5H104.4s-3.9-.3-3.9 2.5v11.2h2.3v7.8h-.1S92.3 71 96.2 92.7c0 0-14.6 13.4-14.6 48.4v99.6s-1.5 21.4 14.3 21.4H142.8c15.7 0 14.3-21.4 14.3-21.4z"/><path class="st1" d="M149.4 235.7v-99.6c0-35.1-14.6-48.4-14.6-48.4 3.9-21.7-6.5-28.2-6.5-28.2v-8h-33v8h-.1S84.8 66 88.7 87.7c0 0-14.6 13.4-14.6 48.4v99.6s-1.5 21.4 14.3 21.4h46.8c15.7 0 14.2-21.4 14.2-21.4z"/><path class="st2" d="M126.7 38H96.8s-3.9-.3-3.9 2.5v11.2h37.5V40.5l-3.7-2.5z"/><path class="st3" d="M149.3 235.7v-99.6c0-35.1-14.6-48.4-14.6-48.4 3.9-21.7-6.5-28.2-6.5-28.2v-8h-16.6v205.6H135c15.8 0 14.3-21.4 14.3-21.4z"/><path class="st4" d="M86.4 124.6h-.5c-2.3-.3-3.9-2.4-3.6-4.7 1.9-14.4 8.8-23.1 9.1-23.5 1.4-1.8 4.1-2.1 5.9-.6 1.8 1.4 2.1 4.1.6 5.8-.1.1-5.8 7.4-7.4 19.3-.3 2.1-2.1 3.7-4.1 3.7z"/><g><circle class="st5" cx="111" cy="168.1" r="20"/><circle class="st6" cx="95" cy="185.9" r="6.3"/><path class="st4" d="M92.3 184.8c.1-.4.6-.4.9-.2.4.3-.2.7-.4.9-.2.2-.6.5-.5.9.1.3.7.2.9.3.4.1.5.3.4.7-.2.6-1 .3-1.2 0-.2-.2-.8.4-.6.6.8.8 1.9.2 2.4-.6.2-.3.3-.9 0-1.2-.2-.3-.8-.2-1.1-.3-.1-.1-.1 0-.1.1.1-.1.3-.2.4-.4.2-.2.4-.3.5-.5.2-.3.2-.9-.1-1.1-.8-.5-1.8.4-2 1.1-.3.3.4-.1.5-.3zM97.8 184.1c-.8 1.3-1.7 2.5-2.6 3.6-.4.5.2.5.5.1.9-1.2 1.9-2.5 2.7-3.8.4-.5-.4-.2-.6.1zM96.4 183.8c-.5 0-.8.5-.9.9-.1.4.2.8.6.8.9 0 1.3-1.7.3-1.7-.2 0-.6.5-.3.5.2 0 .3.2.4.4v.2c0 .1 0 0 0 0h-.1c-.2 0-.4-.2-.4-.4v-.3c0-.1 0 0 0 0h.1c.2.1.6-.5.3-.4zM97.7 186.5c-.5 0-.8.5-.9.9-.1.4.2.8.6.8.9 0 1.3-1.7.3-1.7-.2 0-.6.5-.3.5.2 0 .3.2.4.4v.2c0 .1 0 0 0 0h-.1c-.2 0-.4-.2-.4-.4v-.3c0-.1 0 0 0 0h.1c.2.1.6-.4.3-.4zM126.6 170.6c-.2 0-.5.1-.6.3-.1.2-.2.4-.4.5h-.1c-.1-.2 0-.6.1-.7.1-.6.4-1.2.7-1.7.1-.1.2-.2.3-.4.1-.1.1-.3-.2-.3-.2 0-.5.1-.6.2-.1.1-.2.3-.3.4-.1.2-.3.3-.5.5-.2.1-.3.1-.5.2.2-.6.3-1.2.5-1.8 0-.1 0-.2-.1-.2-.2-.1-.7.1-.8.3-.3.9-.8 1.7-1.5 2.3l-.1-.1c-.1-.1-.1-.2-.1-.3 0-.2 0-.5.1-.7 0-.2.1-.3.1-.5.1-.4.3-.8.4-1.1 0-.1.1-.2.1-.3.1-.2-.2-.2-.3-.2-.2 0-.4.2-.5.3-.1.1-.1.3-.1.4l-.3.9c0 .1-.1.3-.1.4-.1.3-.2.5-.4.7l-.1-.1c-.3-.3-.1-1 0-1.4 0-.2.1-.3.1-.5 0-.1.1-.1.1-.2v-.1c.1-.2.2-.5.3-.7.1-.1 0-.3-.2-.3s-.5.1-.6.3c-.2.4-.4.7-.5 1.1-.2.4-.4.9-.7 1.3 0 0-.1-.1-.1-.2-.1-.2 0-.5 0-.7 0-.7.2-1.5.3-2.2v-.1l-.1-.1c-.2-.1-.5 0-.6.2-.5.4-.6 1.1-.8 1.6-.1.3-.2.7-.4 1 0 0 0 .1-.1.1-.1-.1-.1-.2-.1-.3 0-.1 0-.2-.2-.2s-.4.2-.5.4c-.1-.1-.2-.2-.2-.3-.1-.2 0-.5 0-.7 0-.2 0-.3.1-.5.1-.4.2-.8.2-1.2 0-.1.1-.2.1-.4s-.2-.2-.4-.2c-.2.1-.4.2-.5.4 0 .2-.1.4-.1.6 0 .2-.1.4-.1.7 0 .2-.1.4-.1.5-.1.3-.1.5-.3.8 0 0-.1 0-.2-.1-.4-.2-.3-1-.3-1.3.1-.5.2-1 .4-1.5.1-.1.1-.2 0-.2-.1-.1-.3-.1-.4 0-.1 0-.2.1-.2.1l-.1.1c-.1 0-.1.1-.2.1-.4.1-.7 0-.9-.3l-.3-.3c-.3-.2-.6-.1-.9.1 0-.2 0-.5-.1-.7 0-.2-.4 0-.4 0-.2.1-.3.3-.3.5-.1 0-.2 0-.3.1-.1 0-.3.1-.3.2l-.1.1-.1.1c-.1 0-.1.1-.2.1-.4.2-.7 0-.9-.2 0 0 0-.1-.1-.1-.1-.1-.3-.2-.4-.2h-.1-.4c-.2.1-.3.3-.4.5-.1.2-.2.5-.3.7 0 .1-.1.1-.1.2-.1.3-.3.6-.4.8-.1-.7-.1-1.3-.2-2 0-.2-.3-.1-.5.1-.1-.1-.3-.1-.4-.1h-.1c-1 .2-1.2 1.4-1.1 2.1v.4c0 .2 0 .6-.2.8-.2.2-.5-.5-.5-.6-.3-.7-.3-1.6-.4-2.4 0-.2-.3-.1-.4 0-.2.1-.4.3-.3.5.1.6.2 1.2.2 1.9v.8h-.2c-.4-.1-.6-.9-.6-1.2-.1-.5-.1-1.1-.1-1.6 0-.2-.1-.3-.3-.2-.2.1-.4.3-.4.5-.1.7 0 1.4.2 2 0 .1.1.2.1.4-.1 0-.1.1-.2.1l-.2.2c-.3 0-.6-.8-.6-1-.2-.6-.3-1.3-.4-1.9 0-.2-.3-.1-.4 0-.2.1-.3.4-.3.6.1.6.3 1.2.3 1.8 0 .3.1.5 0 .8h-.2c-.4-.1-.6-.8-.7-1.1-.1-.2-.1-.4-.1-.7v-.1-.1-.8c0-.2-.1-.3-.3-.1-.2.1-.3.4-.3.6 0 .3 0 .7.1 1 .1.5.1 1 0 1.5v.2h-.1c-.3-.1-.4-.4-.6-.6-.5-.7-.7-1.6-1-2.4l-.3-1.2c-.1-.2-.1-.6-.1-.8 0-.4-.5 0-.6.3-.5 1.3 0 2.6.3 3.8 0 .1 0 .3.1.4-.3.1-.6.1-.9-.1-.3-.1-.7.7-.4.8.5.3 1 .2 1.4-.1 0 .2 0 .7-.1.9-.1.1-.4.1-.5 0-.2-.1-.3-.2-.4-.4-.1-.2-.3-.1-.4 0-.1.2-.3.4-.2.6.1.4.6.8 1.2.6.8-.3.9-1.3 1-1.9v-.4c0-.1.1-.1.1-.2.2.4.4.8.7 1.1.3.4.7.5 1.1.2.2-.2.4-.5.4-.7.2.3.4.5.8.5.4-.1.6-.4.8-.7l.3.3c-.2.5-.3.9 0 1.3.2.3.7-.5.5-.7-.2-.2-.1-.4 0-.7.2-.1.3-.3.4-.5 0-.1.1-.1.1-.2.2.3.4.5.7.5.4 0 .7-.3.9-.7 0 .1.1.2.2.2.4.5 1 0 1.3-.3l.1-.1c.2.3.4.5.8.4.1 0 .2 0 .3-.1-.3.6-.5 1.2-.6 1.8-.1.5 0 1.1.6 1.1.4 0 .7-.4.8-.7.3-.6.2-1.3.2-1.9 0-.4-.1-.7-.1-1.1.1-.2.2-.5.4-.7.1.6.3 1.5 1 1.5.4 0 .8-.4.9-.8.2-.4.3-.8.3-1.3v-.7c.1 0 .3-.1.4-.1-.1.3-.1.6-.1.8 0 .6 0 1.2.4 1.7.2.2.4.3.6.2.1 0 .2 0 .3-.1 0 .8-.1 1.5-.2 2.2 0 .2.2.2.3.1.2-.1.3-.3.4-.5.1-.6.1-1.2.2-1.8.3 0 .5-.1.8-.3.5-.4.7-1.2.7-1.9v-.4c.2 0 .5-.1.7-.2l-.3 1.5c0 .5 0 1.3.6 1.4.4.1.7 0 1-.3.1.3.4.5.7.5.1 0 .3-.1.4-.1.2.3.6.3.9.1.3-.2.5-.4.6-.7v.3c0 .3 0 .5.2.8.1.2.7.1.7.1h.1c.2-.1.3-.2.5-.3 0 .3.1.7.4.8.3.1.6 0 .9-.1 0 .1 0 .2.1.2.1.3.5.4.8.3.4-.1.8-.5 1.1-.9-.1.4-.2.8-.4 1.1-.1.2.1.2.3.2.2 0 .4-.1.5-.3.1-.3.3-.6.5-.8.1-.1.2-.1.4-.2-.2.5-.3.9-.4 1.4 0 .4.2.6.7.6.7-.1 1.3-.5 1.6-1.1-.2.6-.4.6-.6.6zm-27.3-.3zm0 0zm1.6-.5zm3-.6zm2.4-1.8c0-.3-.1-.6 0-1 0-.1 0-.2.1-.3.5 0 .7.9.7 1.2 0 .3.1.6 0 1V168.6c-.5.2-.7-.9-.8-1.2zm1.2 3.8c0 .1 0 .2-.1.2h-.1c-.1 0-.1 0-.2-.1-.2-.1-.1-.5-.1-.7l.3-.9v.5c.2.3.2.7.2 1zm2.3-3c0 .1 0 .1-.1.2v.1c-.4.1-.6-1-.6-1.3v-.9c.1-.1.1-.2.2-.3.1 0 .1 0 .2.1v.1l.1.1c.2.3.2.8.3 1 0 .3 0 .6-.1.9zm2.2.3l-.3-.3c-.2-.4-.2-.8-.2-1.2 0-.3.1-.7.2-1h.1c.2.2.3.6.4.9v1.6h-.2zm1.3 0zm0 0c-.3.1-.5-.2-.4-.4 0-.6.1-1.1.1-1.7 0-.1 0-.3.1-.4.1 0 .2.1.2.1l.1.1c.2.3.2.7.2 1.1-.1.4-.1.9-.3 1.2zm2.6.3zm5.5 1.2z"/><path class="st7" d="M101.5 143.6c0 1.4-1.1 2.6-2.6 2.6-1.4 0-2.6-1.1-2.6-2.6 0-1.4 1.1-2.6 2.6-2.6s2.6 1.2 2.6 2.6z"/><path class="st8" d="M101.6 152.2c0 1.8-1.5 3.3-3.3 3.3-1.8 0-3.3-1.5-3.3-3.3 0-1.8 1.5-3.3 3.3-3.3 1.8 0 3.3 1.5 3.3 3.3zM92.8 147.1c0 1.1-.9 1.9-1.9 1.9-1.1 0-2-.9-2-1.9 0-1.1.9-2 2-2 1 .1 1.9.9 1.9 2z"/><g><circle class="st6" cx="128.1" cy="149.8" r="11"/><path class="st4" d="M125.4 148.2c-.9.1-1.2 1.2-1.2 1.9v.3c0 .4 0 .6-.1 1 0 .1-.1.4-.1.4-.3 0-.6-.5-.7-.7-.2-.6-.4-1.2-.5-1.7-.1-.6-.2-1.3-.2-2v-.8-.3-.2c.1-.5-.6 0-.7.2-.7 1.3-.5 2.8-.5 4.2 0 .4 0 .8-.1 1.1 0 .3-.1.7-.3.9-.1.1-.4 0-.5 0-.2-.1-.3-.3-.3-.5s-.3-.1-.4 0c-.2.2-.3.4-.3.6.1.5.5.9 1.1.8.8-.2 1.2-1.2 1.4-2 .1-.4.1-.7.2-1.1.1.5.3 1.1.5 1.6.2.4.5.7 1 .7.3-.1.6-.4.8-.8.2.4.4.6.8.6.5 0 .8-.5 1-.9.2-.4.3-.9.3-1.4-.1-.6-.3-2-1.2-1.9zm.3 3.2c0 .1 0 .2-.1.3-.2 0-.3-.3-.4-.4-.1-.3-.2-.6-.2-1v-1c0-.1 0-.2.1-.3.5.3.6.9.6 1.4v1zM136.3 149.6c-1-.4-1.5 1-1.7 1.7-.2.7-.4 1.9.5 2.3.4.2.9-.1 1.2-.4.3-.3.5-.8.6-1.2.1-.8.3-2.1-.6-2.4zm-.6 3.1c0 .1-.1.2-.1.2-.2-.1-.2-.4-.2-.5-.1-.3 0-.7 0-1 .1-.3.2-.7.3-1 0-.1.1-.2.1-.2.4.4.3 1.1.2 1.6 0 .3-.1.6-.3.9zM133.7 149.7c.2-.2.4-.5.5-.8.4-.6.7-1.2.7-1.9 0-.6-.9-.7-1.3-.5-.6.3-1 1-1.2 1.6-.2.9-.4 1.7-.4 2.6-.3.4-1 1.1-1.5.8-.1-.1-.2-.2-.2-.4.4-.4.8-.9 1.1-1.4.3-.4.5-1.2-.1-1.5-.5-.3-1.1 0-1.4.4-.3.4-.5.9-.5 1.4 0 .3-.1.7 0 1.1-.3.2-.6.3-1 .2-.4-.1-.5-.5-.6-.8-.1-.5-.1-.9 0-1.4 0-.1.1-.3.1-.4v-.1c.2.1.3.5.4.6.1.3.9-.2.8-.5-.1-.3-.2-.7-.6-.8-.3-.2-.8.1-1 .3-.6.6-.7 1.5-.6 2.3 0 .5.1 1.1.6 1.4.6.4 1.4 0 2-.3.2.4.4.6.9.6.6-.1 1.1-.4 1.6-.8 0 .4.1.9.4 1.1.5.3 1.2 0 1.5-.5.5-.6.7-1.4.4-2.1-.1 0-.4-.2-.6-.2zm-3.4-.4c0-.1.1-.3.2-.4.2.1.3.4.3.6-.1.4-.3.7-.6 1.1v-.2c0-.3 0-.7.1-1.1zm3.2-1.8c.1-.1.1-.3.2-.4.4.4 0 1-.2 1.4-.2.4-.4.8-.7 1.2.1-.4.1-.8.2-1.1.2-.4.3-.7.5-1.1zm-.2 4.5s-.1.1-.1.2h-.1c-.2-.1-.3-.7-.3-.9v-.6c.1-.1.2-.2.3-.4.2-.1.4.1.4.4.1.5 0 1-.2 1.3z"/></g><g><path class="st9" d="M86.7 159.6c-.1 0-.2-.2-.3-.2-.4-.2-.7.1-1.1.1-1 0-1.3 0-2.4-.3 0-1 .6-1.6.8-2.4.2-.7-.1-1.5-.1-2.3v-1.4c-.3.3-.2 1.2-.2 1.6-.1-.6-.1-1.4-.3-1.9-.1.6 0 1.3 0 1.9-.2-.5-.2-1.2-.4-1.6-.3.5.2 1.3.1 1.8-.2-.5-.3-1-.6-1.5-.1.6.2 1.2.2 1.6-.2-.4-.3-.8-.6-1.1 0 .4.3.9.4 1.3-.3-.1-.4-.5-.6-.6 0 .3.3.5.4.8-.2-.1-.3-.3-.5-.4 0 .3.3.4.3.6-.1-.1-.3-.2-.4-.3 0 .2.3.4.3.5 0 0-.2-.1-.2 0 0 0 .2.1.1.2h-.2c0 .2.2.1.1.3-.1 0-.1-.1-.1 0s.1.1.1.2c-.8.8-.4 1.8-.5 2.8.1-.1-.7-.3-1.2-.5-.3-.1-.4-.5-.6-.6 0-.1.1 0 .1-.1-.1 0-.2-.1-.2-.2.1 0 .3.1.3 0-.1-.1-.5-.2-.5-.3.2 0 .4.1.6.1-.2-.1-.6-.3-.6-.5.2.1.5.3.7.2-.3-.2-.8-.4-.9-.7.3.1.6.4.8.4-.4-.1-.7-.6-1.1-.6.2.4.8.6.9.8-.3-.2-.6-.3-1-.5.1.4.6.5.9.8-.3 0-.5-.2-.8-.2.1.3.6.2.7.5-.1-.1-.3 0-.5 0 0 .2.4.2.5.3-.2 0-.3 0-.4.1.1.1.3.1.4.2-.1 0-.2 0-.2.1s.3 0 .3.1c-.1 0-.1.1-.1.1h.2c-.1 0-.1 0-.1.1.4.2.7.9 1.3 1.2-.3.2.3.4-3.5 1.8.1 0 1.7-.4 2.2-.5.5-.2.9-.3 1.4-.4.1 0 .2-.1.3-.1.8-.1 1.5.1 2.3-.4-.6.1-1.6.2-2-.1.5-.8.2-2.9.6-3.3.4-.4 1.1-1.8 1.9-.6.1.2.2.4-.1.9-.4.6-.6.9-.5 2.1 0 .3 0 .5-.4.5 1.7.4 2.2.2 3.1 0 .3 0 .8-.3.8 0 0 .1-.3.1-.6.1-.5 0 .2.2.4.2.1 0 1-.1 1.5-.2-.7-.4-.9-.4-1.2-.5z"/><path class="st9" d="M81.8 151.1c-3.8 0-6.9 3.1-6.9 6.9 0 3.8 3.1 6.9 6.9 6.9 3.8 0 6.9-3.1 6.9-6.9 0-3.8-3.1-6.9-6.9-6.9m0 .2c3.7 0 6.7 3 6.7 6.7s-3 6.7-6.7 6.7-6.7-3-6.7-6.7 3-6.7 6.7-6.7"/></g></g></g></svg>