<svg xmlns="http://www.w3.org/2000/svg" viewBox="123 -89 303 234"><style>.st0{fill:#519E38;} .st1{fill:none;stroke:#FFFFFF;stroke-width:4;stroke-miterlimit:10;} .st2{fill:#FFFFFF;} .st3{fill:#EFEFEF;} .st4{fill:url(#SVGID_1_);} .st5{fill:url(#SVGID_2_);} .st6{fill:url(#SVGID_3_);} .st7{fill:url(#SVGID_4_);} .st8{fill:url(#SVGID_5_);}</style><g id="bath"><g id="vanna_2"><path class="st0" d="M184.4-25.7h5.3V79.4h-5.3zM367.4-25.7l-.1 104.8s1.3 11.2-7.7 11.2H192.4s-5-.3-5-5.8 166.2-2.7 166.2-2.7l7-18.8L362-7.8l.3-18.1h5.1v.2z"/><path class="st0" d="M371.4-28.4c0 2.2-1.8 4-4 4h-183c-2.2 0-4-1.8-4-4s1.8-4 4-4h183c2.2 0 4 1.8 4 4z"/><path class="st1" d="M362.4 80.9c0 2-1.6 3.7-3.7 3.7H188.1c-2 0-3.7-1.6-3.7-3.7V-25.7c0-2 1.6-3.7 3.7-3.7h170.6c2 0 3.7 1.6 3.7 3.7V80.9z"/><path class="st2" d="M184.4 20.5h177.7v64.1H184.4z"/><path class="st3" d="M368.4-31.4c0 2.2-1.8 4-4 4h-183c-2.2 0-4-1.8-4-4s1.8-4 4-4h183c2.2 0 4 1.8 4 4z"/><path class="st2" d="M201.2 6.5c0 1.7-1.4 3.1-3.1 3.1-1.7 0-3.1-1.4-3.1-3.1v-22.8c0-1.7 1.4-3.1 3.1-3.1 1.7 0 3.1 1.4 3.1 3.1V6.5z"/></g><g id="sneg"><linearGradient id="SVGID_1_" gradientUnits="userSpaceOnUse" x1="365.613" y1="106.114" x2="381.6" y2="60.816" gradientTransform="matrix(1 0 0 -1 0 55)"><stop offset="0" stop-color="#404B71"/><stop offset=".604" stop-color="#3C476E"/><stop offset="1" stop-color="#354169"/></linearGradient><path class="st4" d="M369.2-10.2l-1.7-6.4 1.6-2.7.2.8c.2.8 1.1 1.3 1.9 1.1.1 0 .3-.1.4-.2.6-.3.9-1.1.7-1.8l-1-3.9 1.9-3.3 1.9 3.3-1 3.9c-.2.8.3 1.7 1.1 1.9.4.1.9 0 1.2-.2.4-.2.6-.5.7-1l.2-.8 1.6 2.7-1.7 6.4c-.2.8.3 1.7 1.1 1.9.4.1.9 0 1.2-.2.4-.2.6-.5.7-1l.9-3.3 2.5 4.4c.4.8 1.4 1 2.2.6.8-.4 1-1.4.6-2.2l-2.5-4.4 3.3.9c.4.1.9 0 1.2-.2.4-.2.6-.5.7-1 .2-.8-.3-1.7-1.1-1.9l-6.4-1.7-1.6-2.7.8.2c.4.1.9 0 1.2-.2.4-.2.6-.5.7-1 .2-.8-.3-1.7-1.1-1.9l-3.8-1-1.9-3.3h3.8l2.8 2.8c.5.5 1.3.6 1.9.3l.3-.3c.6-.6.6-1.6 0-2.2l-.6-.6h3.1l4.7 4.7c.5.5 1.3.6 1.9.3l.3-.3c.6-.6.6-1.6 0-2.2l-2.4-2.4h5c.3 0 .6-.1.8-.2.5-.3.8-.8.8-1.4 0-.9-.7-1.6-1.6-1.6h-5l2.4-2.4c.6-.6.6-1.6 0-2.2-.6-.6-1.6-.6-2.2 0l-4.7 4.7h-3.1l.6-.6c.6-.6.6-1.6 0-2.2-.6-.6-1.6-.6-2.2 0l-2.8 2.8h-3.8l1.9-3.3 3.9-1c.1 0 .3-.1.4-.2.6-.3.9-1.1.7-1.8-.2-.8-1.1-1.3-1.9-1.1l-.8.2 1.6-2.7 6.4-1.7c.1 0 .3-.1.4-.2.6-.4.9-1.1.7-1.8-.2-.8-1.1-1.3-1.9-1.1l-3.3.9 2.5-4.4c.4-.8.2-1.7-.6-2.2-.8-.4-1.7-.2-2.2.6l-2.5 4.4-.9-3.3c-.2-.8-1.1-1.3-1.9-1.1-.8.2-1.4 1.1-1.1 1.9l1.7 6.4-1.6 2.7-.2-.8c-.2-.8-1.1-1.3-1.9-1.1s-1.3 1.1-1.1 1.9l1 3.9-1.9 3.3-1.9-3.3 1-3.9c.2-.8-.3-1.7-1.1-1.9s-1.7.3-1.9 1.1l-.4 1-1.6-2.7 1.7-6.4c.2-.8-.3-1.7-1.1-1.9-.8-.2-1.7.3-1.9 1.1l-.9 3.3-2.5-4.4c-.4-.8-1.4-1-2.2-.6s-1 1.4-.6 2.2l2.5 4.4-3.3-.9c-.8-.2-1.7.3-1.9 1.1-.2.8.3 1.7 1.1 1.9l6.4 1.7 1.6 2.7-.8-.2c-.8-.2-1.7.3-1.9 1.1s.3 1.7 1.1 1.9l3.8 1 1.9 3.3h-3.8l-2.8-2.8c-.6-.6-1.6-.6-2.2 0s-.6 1.6 0 2.2l.6.6H359l-4.7-4.7c-.6-.6-1.6-.6-2.2 0s-.6 1.6 0 2.2l2.4 2.4h-5c-.9 0-1.6.7-1.6 1.6 0 .9.7 1.6 1.6 1.6h5l-2.4 2.4c-.6.6-.6 1.6 0 2.2.5.5 1.3.6 1.9.3l.3-.3L359-28h3.1l-.6.6c-.6.6-.6 1.6 0 2.2.5.5 1.3.6 1.9.3l.3-.3 2.8-2.8h3.8l-1.9 3.3-3.9 1c-.8.2-1.3 1.1-1.1 1.9.2.8 1.1 1.3 1.9 1.1l.8-.2-1.6 2.7-6.4 1.7c-.8.2-1.3 1.1-1.1 1.9s1.1 1.3 1.9 1.1l3.3-.9-2.5 4.4c-.4.8-.2 1.7.6 2.2.5.3 1.1.3 1.6 0 .2-.1.4-.3.6-.6l2.5-4.4.9 3.3c.2.8 1.1 1.3 1.9 1.1.1 0 .3-.1.4-.2.8-.1 1.1-.8 1-1.6z"/><linearGradient id="SVGID_2_" gradientUnits="userSpaceOnUse" x1="246.925" y1="42.271" x2="251.759" y2="28.575" gradientTransform="matrix(1 0 0 -1 0 55)"><stop offset="0" stop-color="#404B71"/><stop offset=".604" stop-color="#3C476E"/><stop offset="1" stop-color="#354169"/></linearGradient><path class="st5" d="M248 25.1l-.5-1.9.5-.8.1.2c.1.3.3.4.6.3h.1c.2-.1.3-.3.2-.5l-.3-1.2.6-1 .6 1-.3 1.2c-.1.3.1.5.3.6h.4c.1-.1.2-.2.2-.3l.1-.2.5.8-.5 1.9c-.1.3.1.5.3.6h.4c.1-.1.2-.2.2-.3l.3-1 .8 1.3c.1.2.4.3.7.2.2-.1.3-.4.2-.7l-.8-1.3 1 .3h.4c.1-.1.2-.2.2-.3.1-.3-.1-.5-.3-.6l-1.9-.5-.5-.8.2.1h.4c.1-.1.2-.2.2-.3.1-.3-.1-.5-.3-.6l-1.2-.3-.6-1h1.2l.9.9c.2.2.4.2.6.1 0 0 .1 0 .1-.1.2-.2.2-.5 0-.7l-.2-.2h.9l1.4 1.4c.2.2.4.2.6.1 0 0 .1 0 .1-.1.2-.2.2-.5 0-.7l-.7-.7h1.5c.1 0 .2 0 .2-.1.1-.1.2-.2.2-.4 0-.3-.2-.5-.5-.5h-1.5l.7-.7c.2-.2.2-.5 0-.7s-.5-.2-.7 0l-1.4 1.4h-.9l.2-.2c.2-.2.2-.5 0-.7s-.5-.2-.7 0l-.9.9h-1.2l.6-1 1.2-.3h.1c.2-.1.3-.3.2-.5-.1-.3-.3-.4-.6-.3l-.2.1.5-.8 1.9-.5h.1c.2-.1.3-.3.2-.5-.1-.3-.3-.4-.6-.3l-1 .3.8-1.3c.1-.2.1-.5-.2-.7-.2-.1-.5-.1-.7.2l-.8 1.3-.3-1c-.1-.3-.3-.4-.6-.3-.3.1-.4.3-.3.6l.5 1.9-.5.8-.1-.2c-.1-.3-.3-.4-.6-.3-.3.1-.4.3-.3.6l.3 1.2-.6 1-.6-1 .3-1.2c.1-.3-.1-.5-.3-.6-.3-.1-.5.1-.6.3l-.1.2-.5-.8.5-1.9c.1-.3-.1-.5-.3-.6-.3-.1-.5.1-.6.3l-.3 1-.8-1.3c-.1-.2-.4-.3-.7-.2-.2.1-.3.4-.2.7l.8 1.3-1-.3c-.3-.1-.5.1-.6.3-.1.3.1.5.3.6l1.9.5.5.8-.2-.1c-.3-.1-.5.1-.6.3-.1.3.1.5.3.6l1.2.3.6 1H247l-.9-.9c-.2-.2-.5-.2-.7 0-.2.2-.2.5 0 .7l.2.2h-.6l-1.4-1.4c-.2-.2-.5-.2-.7 0-.2.2-.2.5 0 .7l.7.7h-1.5c-.3 0-.5.2-.5.5s.2.5.5.5h1.5l-.7.7c-.2.2-.2.5 0 .7.2.2.4.2.6.1 0 0 .1 0 .1-.1l1.4-1.4h.9l-.2.2c-.2.2-.2.5 0 .7.2.2.4.2.6.1 0 0 .1 0 .1-.1l.9-.9h1.2l-.6 1-1.2.3c-.3.1-.4.3-.3.6.1.3.3.4.6.3l.2-.1-.5.8-1.9.5c-.3.1-.4.3-.3.6.1.3.3.4.6.3l1-.3-.8 1.3c-.1.2-.1.5.2.7.2.1.3.1.5 0 .1 0 .1-.1.2-.2l.8-1.3.3 1c.1.3.3.4.6.3h.1c0-.5.1-.7 0-.9z"/><linearGradient id="SVGID_3_" gradientUnits="userSpaceOnUse" x1="181.849" y1="17.645" x2="192.269" y2="-11.88" gradientTransform="matrix(1 0 0 -1 0 55)"><stop offset="0" stop-color="#404B71"/><stop offset=".604" stop-color="#3C476E"/><stop offset="1" stop-color="#354169"/></linearGradient><path class="st6" d="M184.4 64l-1.1-4.2 1-1.8.1.5c.1.6.7.9 1.3.7.1 0 .2-.1.2-.1.4-.2.6-.7.5-1.2l-.7-2.5 1.2-2.2 1.2 2.2-.7 2.5c-.1.6.2 1.1.7 1.3.3.1.6 0 .8-.1.2-.1.4-.4.5-.6l.1-.5 1 1.8-1.1 4.2c-.1.6.2 1.1.7 1.3.3.1.6 0 .8-.1.2-.1.4-.4.5-.6l.6-2.2 1.6 2.8c.3.5.9.7 1.4.4s.7-.9.4-1.4l-1.6-2.8 2.2.6c.3.1.6 0 .8-.1s.4-.4.5-.6c.1-.6-.2-1.1-.7-1.3l-4.2-1.1-1-1.8.5.1c.3.1.6 0 .8-.1.2-.1.4-.4.5-.6.1-.6-.2-1.1-.7-1.3l-2.5-.7-1.2-2.2h2.5l1.8 1.8c.3.3.9.4 1.2.2.1 0 .1-.1.2-.2.4-.4.4-1.1 0-1.5l-.4-.4h2l3 3c.3.3.9.4 1.2.2.1 0 .1-.1.2-.2.4-.4.4-1.1 0-1.5l-1.6-1.6h3.3c.2 0 .4 0 .5-.1.3-.2.5-.5.5-.9 0-.6-.5-1-1-1h-3.3l1.6-1.6c.4-.4.4-1.1 0-1.5-.4-.4-1.1-.4-1.5 0l-3 3h-2l.4-.4c.4-.4.4-1.1 0-1.5s-1.1-.4-1.5 0l-1.8 1.8h-2.5l1.2-2.2 2.5-.7c.1 0 .2-.1.2-.1.4-.2.6-.7.5-1.2-.1-.6-.7-.9-1.3-.7l-.5.1 1-1.8 4.2-1.1c.1 0 .2-.1.2-.1.4-.2.6-.7.5-1.2-.1-.6-.7-.9-1.3-.7l-2.2.6 1.6-2.8c.3-.5.1-1.1-.4-1.4s-1.1-.1-1.4.4l-1.6 2.8-.6-2.2c-.1-.6-.7-.9-1.3-.7-.5.1-.9.7-.7 1.3l1.1 4.2-1 1.8-.1-.5c-.1-.6-.7-.9-1.3-.7s-.9.7-.7 1.3l.7 2.5-1.2 2.2-1.2-2.2.7-2.5c.1-.6-.2-1.1-.7-1.3-.6-.1-1.1.2-1.3.7l-.1.5-1-1.8 1.1-4.2c.1-.6-.2-1.1-.7-1.3-.6-.1-1.1.2-1.3.7l-.6 2.2L180 37c-.3-.5-.9-.7-1.4-.4-.5.3-.7.9-.4 1.4l1.6 2.8-2.2-.6c-.6-.1-1.1.2-1.3.7-.1.6.2 1.1.7 1.3l4.2 1.1 1 1.8-.5-.1c-.6-.1-1.1.2-1.3.7-.1.6.2 1.1.7 1.3l2.5.7 1.2 2.2h-2.5l-1.8-1.8c-.4-.4-1.1-.4-1.5 0-.4.4-.4 1.1 0 1.5l.4.4h-2l-3-3c-.4-.4-1.1-.4-1.5 0-.4.4-.4 1.1 0 1.5l1.6 1.6h-3.3c-.6 0-1 .5-1 1 0 .6.5 1 1 1h3.3l-1.6 1.6c-.4.4-.4 1.1 0 1.5.3.3.9.4 1.2.2.1 0 .1-.1.2-.2l3-3h2l-.4.4c-.4.4-.4 1.1 0 1.5.3.3.9.4 1.2.2.1 0 .2-.1.2-.2l1.8-1.8h2.5l-1.2 2.2-2.5.7c-.5.2-.9.7-.7 1.3.1.6.7.9 1.3.7l.5-.1-1 1.8-4.2 1.1c-.5.2-.9.7-.7 1.3.1.6.7.9 1.3.7l2.2-.6-1.6 2.8c-.3.5-.1 1.1.4 1.4.3.2.7.2 1 0 .2-.1.3-.2.4-.4l1.6-2.8.6 2.2c.1.6.7.9 1.3.7.1 0 .2-.1.3-.1.7-.3.9-.8.8-1.2z"/><linearGradient id="SVGID_4_" gradientUnits="userSpaceOnUse" x1="299.171" y1="15.351" x2="328.269" y2="-52.751" gradientTransform="matrix(1 0 0 -1 0 55)"><stop offset="0" stop-color="#404B71"/><stop offset=".604" stop-color="#3C476E"/><stop offset="1" stop-color="#354169"/></linearGradient><path class="st7" d="M346.6 70.2h-6.3l3-3c.8-.8.8-2 0-2.8-.8-.8-2-.8-2.8 0l-5.9 5.9h-3.9l1.7-1.7c.8-.8.8-2 0-2.8-.8-.8-2-.8-2.8 0l-4.6 4.6h-3.8l.1-.1c.8-.8.8-2 .1-2.7-.3-1-1.4-1.6-2.4-1.3h-.2l1.9-3.3 6.2-1.7c.2 0 .3-.1.5-.2.8-.4 1.2-1.4.9-2.2-.3-1.1-1.4-1.7-2.4-1.4l-2.4.6 2-3.4 8-2.1c.2 0 .3-.1.5-.2.8-.4 1.2-1.4.9-2.2-.3-1.1-1.4-1.7-2.4-1.4l-4.2 1.1 3.2-5.5c.6-1 .2-2.2-.7-2.7-1-.5-2.2-.2-2.7.7l-3.2 5.5-1.1-4.2c-.3-1.1-1.4-1.7-2.4-1.4-1.1.3-1.7 1.4-1.4 2.4l2.1 8-2 3.4-.6-2.4c-.3-1.1-1.4-1.7-2.4-1.4-1.1.3-1.7 1.4-1.4 2.4l1.7 6.2-1.9 3.3V64c-.3-1-1.3-1.7-2.4-1.4-1-.2-2.1.4-2.3 1.4v.2l-1.9-3.3 1.7-6.2c.3-1.1-.3-2.2-1.4-2.4-1.1-.3-2.2.3-2.4 1.4l-.6 2.4-2-3.4 2.1-8c.3-1.1-.3-2.2-1.4-2.4-1.1-.3-2.2.3-2.4 1.4l-1.1 4.2-3.2-5.5c-.5-1-1.8-1.3-2.7-.7-1 .5-1.3 1.8-.7 2.7l3.2 5.5-4.2-1.1c-1.1-.3-2.2.3-2.4 1.4-.3 1.1.3 2.2 1.4 2.4l8 2.1 2 3.4-2.4-.6c-1.1-.3-2.2.3-2.4 1.4-.3 1.1.3 2.2 1.4 2.4l6.2 1.7 1.9 3.3h-.2c-1-.3-2 .3-2.4 1.3-.8.8-.8 2 0 2.8l.1.1h-3.8l-4.6-4.6c-.8-.8-2-.8-2.8 0s-.8 2 0 2.8l1.7 1.7h-3.9l-5.9-5.9c-.8-.8-2-.8-2.8 0s-.8 2 0 2.8l3 3h-6.3c-1.1 0-2 .9-2 2s.9 2 2 2h6.3l-3 3c-.8.8-.8 2 0 2.8.7.7 1.6.8 2.4.3.1-.1.3-.2.4-.3l5.9-5.9h3.9l-1.7 1.7c-.8.8-.8 2 0 2.8.7.7 1.6.8 2.4.3.1-.1.3-.2.4-.3l4.6-4.6h3.8l-.1.1c-.8.8-.8 2-.1 2.7.3 1 1.4 1.6 2.4 1.3h.2l-1.9 3.3-6.2 1.7c-1.1.3-1.7 1.4-1.4 2.4.3 1.1 1.4 1.7 2.4 1.4l2.4-.6-2 3.4-8 2.1c-1.1.3-1.7 1.4-1.4 2.4.3 1.1 1.4 1.7 2.4 1.4l4.2-1.1-3.2 5.5c-.5 1-.2 2.2.7 2.7.6.4 1.4.3 2 0 .3-.2.5-.4.7-.7l3.2-5.5 1.1 4.2c.3 1.1 1.4 1.7 2.4 1.4.2 0 .3-.1.5-.2.8-.4 1.2-1.3.9-2.2l-2.1-8 2-3.4.6 2.4c.3 1.1 1.4 1.7 2.4 1.4.2 0 .3-.1.5-.2.8-.4 1.2-1.3.9-2.2l-1.7-6.2 1.9-3.3v.2c.3 1 1.3 1.7 2.4 1.4.5.1 1 0 1.4-.2.4-.3.8-.7.9-1.2v-.2l1.9 3.3-1.7 6.2c-.3 1.1.3 2.2 1.4 2.4.5.1 1.1.1 1.5-.2.4-.3.8-.7.9-1.2l.6-2.4 2 3.4-2.1 8c-.3 1.1.3 2.2 1.4 2.4.5.1 1.1.1 1.5-.2.4-.3.8-.7.9-1.2l1.1-4.2 3.2 5.5c.5 1 1.8 1.3 2.7.7 1-.6 1.3-1.8.7-2.7l-3.2-5.5 4.2 1.1c.5.1 1.1.1 1.5-.2s.8-.7.9-1.2c.3-1.1-.3-2.2-1.4-2.4l-8-2.1-2-3.4 2.4.6c.5.1 1.1.1 1.5-.2s.8-.7.9-1.2c.3-1.1-.3-2.2-1.4-2.4l-6.2-1.7-1.9-3.3h.2c.5.1 1.1.1 1.5-.2.4-.2.7-.6.9-1.1.8-.8.8-2 0-2.8l-.1-.1h3.8l4.6 4.6c.7.7 1.6.8 2.4.3.1-.1.3-.2.4-.3.8-.8.8-2 0-2.8l-1.7-1.7h3.9l5.9 5.9c.7.7 1.6.8 2.4.3.1-.1.3-.2.4-.3.8-.8.8-2 0-2.8l-3-3h6.3c.4 0 .7-.1 1-.3.6-.3 1-1 1-1.7 0-1.1-.9-2-2-2zm-32.3 4.2c-1.2.7-2.8.3-3.5-.9-.7-1.2-.3-2.8.9-3.5 1.2-.7 2.8-.3 3.5.9.7 1.2.3 2.8-.9 3.5z"/><linearGradient id="SVGID_5_" gradientUnits="userSpaceOnUse" x1="258.647" y1="99.745" x2="270.669" y2="71.603" gradientTransform="matrix(1 0 0 -1 0 55)"><stop offset="0" stop-color="#404B71"/><stop offset=".604" stop-color="#3C476E"/><stop offset="1" stop-color="#354169"/></linearGradient><path class="st8" d="M280.1-30.3h-1l.4-.5c.2-.3.1-.8-.2-1-.3-.2-.8-.1-1 .2l-.9 1.3h-1.5l2-2.8c.2-.3.1-.8-.2-1s-.8-.1-1 .2l-2.6 3.7h-1.3l1.2-1.7c.2-.3.1-.8-.2-1-.3-.2-.8-.1-1 .2l-1.7 2.5h-.9l.4-.5c.2-.3.1-.8-.2-1-.3-.2-.8-.1-1 .2l-.9 1.3h-.5l-.8-1.5.2-.3 1.6-.1c.4 0 .7-.4.7-.8s-.4-.7-.8-.7l-.6.1.4-.8 3-.3c.4 0 .7-.4.7-.8s-.4-.7-.8-.7l-2 .2.7-1.1 4.5-.4c.4 0 .7-.4.7-.8s-.4-.7-.8-.7l-3.4.3.7-1.3 1.6-.1c.4 0 .7-.4.7-.8s-.4-.7-.8-.7l-.6.1.5-.9c.2-.3.1-.8-.3-1-.3-.2-.8-.1-1 .3l-.5.9-.3-.6c-.2-.4-.6-.5-1-.4-.4.2-.5.6-.4 1l.7 1.5-.7 1.3-1.5-3.1c-.2-.4-.6-.5-1-.3s-.5.6-.4 1l1.9 4.1-.7 1.1-.9-1.8c-.2-.4-.6-.5-1-.4-.4.2-.5.6-.4 1l1.3 2.8-.4.8-.3-.6c-.2-.4-.6-.5-1-.3s-.5.6-.4 1l.7 1.5-.2.3h-1.7l-.2-.3.7-1.5c.2-.4 0-.8-.4-1s-.8 0-1 .3l-.3.6-.4-.8 1.3-2.8c.2-.4 0-.8-.4-1s-.8 0-1 .3l-.9 1.8-.7-1.1 1.9-4.1c.2-.4 0-.8-.4-1-.4-.2-.8 0-1 .4l-1.5 3.1-.7-1.3.7-1.5c.2-.4 0-.8-.4-1-.4-.2-.8 0-1 .4l-.3.6-.5-.9c-.2-.3-.6-.5-1-.3-.3.2-.5.6-.3 1l.5.9-.6-.1c-.4 0-.8.3-.8.7s.3.8.7.8l1.6.1.7 1.3-3.4-.3c-.4 0-.8.3-.8.7s.3.8.7.8l4.5.4.7 1.1-2-.2c-.4 0-.8.3-.8.7s.3.8.7.8l3 .3.4.8-.6-.1c-.4 0-.8.3-.8.7s.3.8.7.8l1.6.1.2.3-.8 1.5h-.3l-.9-1.3c-.2-.3-.7-.4-1-.2s-.4.7-.2 1l.4.5h-.9l-1.7-2.5c-.2-.3-.7-.4-1-.2-.3.2-.4.7-.2 1l1.2 1.7h-.9l-2.6-3.7c-.2-.3-.7-.4-1-.2s-.4.7-.2 1l2 2.8h-1.5l-.9-1.3c-.2-.3-.7-.4-1-.2s-.4.7-.2 1l.4.5h-1c-.4 0-.7.3-.7.7s.3.7.7.7h1l-.4.5c-.2.3-.1.8.2 1 .1.1.3.1.4.1.2 0 .5-.1.6-.3l.9-1.3h1.5l-2 2.8c-.2.3-.1.8.2 1 .1.1.3.1.4.1.2 0 .5-.1.6-.3L256-29h1.3l-1.2 1.7c-.2.3-.1.8.2 1 .1.1.3.1.4.1.2 0 .5-.1.6-.3L259-29h.9l-.4.5c-.2.3-.1.8.2 1 .1.1.3.1.4.1.2 0 .5-.1.6-.3l.9-1.3h.3l.8 1.5-.2.3-1.6.1c-.4 0-.7.4-.7.8s.4.7.7.7h.1l.6-.1-.4.8-3 .3c-.4 0-.7.4-.7.8s.4.7.7.7h.1l2-.2-.7 1.1-4.5.4c-.4 0-.7.4-.7.8s.4.7.7.7h.1l3.4-.3-.7 1.3-1.6.1c-.4 0-.7.4-.7.8s.4.7.7.7h.1l.6-.1-.5.9c-.2.3-.1.8.3 1 .1.1.2.1.4.1.3 0 .5-.1.6-.4l.5-.9.3.6c.1.3.4.4.7.4.1 0 .2 0 .3-.1.4-.2.5-.6.4-1l-.7-1.5.7-1.3 1.5 3.1c.1.3.4.4.7.4.1 0 .2 0 .3-.1.4-.2.5-.6.4-1l-1.9-4.1.7-1.1.9 1.8c.1.3.4.4.7.4.1 0 .2 0 .3-.1.4-.2.5-.6.4-1l-1.3-2.8.4-.8.3.6c.1.3.4.4.7.4.1 0 .2 0 .3-.1.4-.2.5-.6.4-1l-.7-1.5.2-.3h1.7l.2.3-.7 1.5c-.2.4 0 .8.4 1 .1 0 .2.1.3.1.3 0 .5-.2.7-.4l.3-.6.4.8-1.3 2.8c-.2.4 0 .8.4 1 .1 0 .2.1.3.1.3 0 .5-.2.7-.4l.9-1.8.7 1.1-1.9 4.1c-.2.4 0 .8.4 1 .1 0 .2.1.3.1.3 0 .5-.2.7-.4l1.5-3.1.7 1.3-.7 1.5c-.2.4 0 .8.4 1 .1 0 .2.1.3.1.3 0 .5-.2.7-.4l.3-.6.5.9c.1.2.4.4.6.4.1 0 .2 0 .4-.1.3-.2.5-.6.3-1l-.5-.9.6.1h.1c.4 0 .7-.3.7-.7 0-.4-.3-.8-.7-.8l-1.6-.1-.7-1.3 3.4.3h.1c.4 0 .7-.3.7-.7 0-.4-.3-.8-.7-.8l-4.5-.4-.7-1.1 2 .2h.1c.4 0 .7-.3.7-.7 0-.4-.3-.8-.7-.8l-3-.3-.4-.8.6.1h.1c.4 0 .7-.3.7-.7s-.3-.8-.7-.8l-1.6-.1-.2-.3.8-1.5h.3l.9 1.3c.1.2.4.3.6.3.1 0 .3 0 .4-.1.3-.2.4-.7.2-1l-.4-.5h.9l1.7 2.5c.1.2.4.3.6.3.1 0 .3 0 .4-.1.3-.2.4-.7.2-1L273-29h1.3l2.6 3.7c.1.2.4.3.6.3.1 0 .3 0 .4-.1.3-.2.4-.7.2-1l-2-2.8h1.5l.9 1.3c.1.2.4.3.6.3.1 0 .3 0 .4-.1.3-.2.4-.7.2-1l-.4-.5h1c.4 0 .7-.3.7-.7-.2-.4-.5-.7-.9-.7zm-15.9 2.1l-.8-1.5.8-1.5h1.7l.8 1.5-.8 1.5h-1.7z"/><g id="mySt"><circle class="st2" cx="292.8" cy="-48.3" r="3.4"/><circle class="st2" cx="167.1" cy="16" r="3.4"/><circle class="st2" cx="172.1" cy="29" r="1.5"/><circle class="st2" cx="160.2" cy="36.9" r="1.5"/><circle class="st2" cx="280.8" cy="-51.7" r="1.5"/><circle class="st2" cx="308.4" cy="-15.9" r="3.8"/><circle class="st2" cx="337.3" cy="107.9" r="3.8"/><circle class="st2" cx="329.3" cy="-6" r="2.8"/><circle class="st2" cx="323.9" cy="2.5" r="1.5"/><circle class="st2" cx="297.7" cy="-7.5" r="1.5"/><circle class="st2" cx="377.2" cy="16" r="1.5"/><circle class="st2" cx="346.4" cy="-6" r="1.5"/><circle class="st2" cx="340.4" cy="5.5" r="1.5"/><circle class="st2" cx="338.8" cy="-6.1" r="1.5"/><circle class="st2" cx="346.4" cy="-15.9" r="1.5"/><circle class="st2" cx="386.6" cy="-4.5" r="1.5"/><circle class="st2" cx="391.1" cy="-10.5" r="1.5"/><circle class="st2" cx="343.4" cy="99.4" r="1.5"/><circle class="st2" cx="354.7" cy="97.9" r="1.5"/><circle class="st2" cx="347.9" cy="106.4" r="1.5"/><circle class="st2" cx="315.9" cy="-17.4" r="1.5"/><circle class="st2" cx="322.4" cy="-10.5" r="1.5"/></g></g></g></svg>