<svg xmlns="http://www.w3.org/2000/svg" viewBox="0 0 141 173"><style>.st0{fill:#519E38;} .st1{fill:#FFFFFF;} .st2{fill:#F2EBDF;} .st3{fill:#EDEDED;} .st4{fill:#CA0000;} .st5{fill:#B00000;} .st6{opacity:0.6;fill:none;stroke:#FFFFFF;stroke-width:2;stroke-linecap:round;} .st7{fill:#EFEFEF;} .st8{fill:none;} .pastOpasity{fill-opacity: 0%;}</style><g id="test-tube"><g id="XMLID_1_"><g id="XMLID_2_"><path id="XMLID_3_" class="st0" d="M38.4 107.2L49 83.9V24.5l-4.1.6.4 52.4 1.1 5.4-12.6 24.3z"/><path id="XMLID_4_" class="st0" d="M102.9 147.7c-.2-1.1-.5-1.8-.5-1.8L71.1 82.4l.1-54.2-.1-2h-2.3l-1.6 2 .3 55.4 15.4 30.2 8.8 26.5-6.4 7.7-23.9 2-10-.5s-35.7.4-35.5 2.5c0 .6.3 1.1.7 1.6 0 0-.2 3.2 6.7 3.2h61.1l4.7-1.2h3.4l-3 .8 8.3.8c7-1.8 5.1-9.5 5.1-9.5z"/></g><path id="XMLID_5_" class="st0" d="M101.3 153.5c0 2-1.6 3.6-3.6 3.6H20.1c-2 0-3.6-1.6-3.6-3.6s1.6-3.6 3.6-3.6h77.7c1.9.1 3.5 1.7 3.5 3.6z"/><g id="XMLID_6_"><g id="XMLID_7_"><path id="XMLID_8_" class="st1" d="M83.4 116.4H28.3l-13.9 28.9c-2.2 4.6.1 8.3 5.1 8.3h72.7c5 0 7.3-3.8 5.1-8.3l-13.9-28.9z"/></g></g><g id="XMLID_9_"><g id="XMLID_10_"><path id="XMLID_11_" class="st2" d="M29.9 116.6h51.8l-4.4-9.4H34.1z"/></g></g><g id="XMLID_12_"><g id="XMLID_13_"><path id="XMLID_14_" class="st1" d="M65.2 24.9v58c0 .5.1.9.4 1.3.3.4.6.9.8 1.3l15.8 32.1 14.4 29.2c.7 1.5.8 2.8.3 3.7-.5.9-1.8 1.4-3.4 1.4H18.2c-1.6 0-2.9-.5-3.4-1.4-.5-.9-.4-2.2.3-3.7l14.4-29.2 15.8-32.1c.2-.4.5-.9.8-1.3.3-.4.4-.9.4-1.3v-58h18.7zm2.4-2.4H44.1v60.3c-.4.5-.7 1.1-.9 1.6l-15.8 32.1L13 145.7c-2.3 4.6.1 8.4 5.3 8.4h75.2c5.2 0 7.5-3.8 5.3-8.4l-14.4-29.2-15.9-32c-.3-.5-.6-1.1-.9-1.6V22.5z"/></g></g><path id="XMLID_17_" class="st1" d="M46.1 99.7c-.3 0-.6-.1-.9-.2-1.1-.5-1.6-1.8-1.1-2.9l3.8-8.7c.5-1.1 1.8-1.6 2.9-1.1 1.1.5 1.6 1.8 1.1 2.9l-3.8 8.7c-.3.8-1.1 1.3-2 1.3z"/><path id="XMLID_18_" class="st1" d="M52.2 80.5c-1.1 0-2-.9-2-2V33.7c0-1.1.9-2 2-2s2 .9 2 2v44.8c0 1.1-.9 2-2 2z"/></g></g><g id="thermometer"><g id="XMLID_19_"><path id="XMLID_20_" class="st0" d="M127.2 82.9V28.2c0-.5-.1-.9-.2-1.4s-.8-5.5-6.2-6.1c0 0-3.8-.1-6 1.1-2.2 1.2 6.9 5.4 6.9 5.4s1.7.9 2.5 1.3v56.1l.8.4c.1 0 6.9 3.9 6.4 11.5-.4 5.9-3.8 10.3-8.9 12l-6.3-1.8s-7.5-.2-4.8 2.8c1.7 1.9 4.6 2.5 6.5 2.6.2.1.4.1.6.1.3 0 .6 0 .9-.1h.3c8.1-.7 14.1-6.9 14.6-15.3.6-7.9-5-12.4-7.1-13.9z"/><path id="XMLID_21_" class="st1" d="M124.2 83.6V28.7c0-4-3.2-7.2-7.2-7.2s-7.2 3.2-7.2 7.2v54.8c-4.4 2.5-7.3 7.2-7.3 12.6 0 8 6.5 14.4 14.4 14.4 8 0 14.4-6.5 14.4-14.4.1-5.3-2.8-10-7.1-12.5z"/><path id="XMLID_22_" class="st3" d="M124.2 83.6V28.7c0-4-3.2-7.2-7.2-7.2h-.1v89c8 0 14.4-6.5 14.4-14.4.1-5.3-2.8-10-7.1-12.5z"/><path id="XMLID_23_" class="st4" d="M121.5 85.8V41.4H112V86c-3.9 1.9-6.6 5.8-6.6 10.4 0 6.4 5.2 11.5 11.5 11.5 6.4 0 11.5-5.2 11.5-11.5.1-4.7-2.8-8.8-6.9-10.6z"/><path id="my_XMLID_23_" class="st4 pastOpasity" d="M121.5 85.8V41.4H112V86c-3.9 1.9-6.6 5.8-6.6 10.4 0 6.4 5.2 11.5 11.5 11.5 6.4 0 11.5-5.2 11.5-11.5.1-4.7-2.8-8.8-6.9-10.6z"/><path id="XMLID_24_" class="st5" d="M121.5 85.8V41.4H117v66.5c6.4 0 11.5-5.2 11.5-11.5 0-4.7-2.9-8.8-7-10.6z"/><path id="my_XMLID_24_" class="st5 pastOpasity" d="M121.5 85.8V41.4H117v66.5c6.4 0 11.5-5.2 11.5-11.5 0-4.7-2.9-8.8-7-10.6z"/><path id="XMLID_25_" class="st6" d="M110 98.8s1.2 2.8 4 4"/><path id="XMLID_26_" class="st1" d="M118.4 48.6h-2.9c-.1 0-.2-.1-.2-.2s.1-.2.2-.2h2.9c.1 0 .2.1.2.2.1.1 0 .2-.2.2z"/><path id="XMLID_27_" class="st1" d="M118.4 50.3h-2.9c-.1 0-.2-.1-.2-.2s.1-.2.2-.2h2.9c.1 0 .2.1.2.2s0 .2-.2.2z"/><path id="XMLID_28_" class="st1" d="M120.2 51.9h-6.5c-.1 0-.2-.1-.2-.2s.1-.2.2-.2h6.5c.1 0 .2.1.2.2s-.1.2-.2.2z"/><path id="XMLID_29_" class="st1" d="M118.4 53.6h-2.9c-.1 0-.2-.1-.2-.2s.1-.2.2-.2h2.9c.1 0 .2.1.2.2s0 .2-.2.2z"/><path id="XMLID_30_" class="st1" d="M118.4 55.2h-2.9c-.1 0-.2-.1-.2-.2s.1-.2.2-.2h2.9c.1 0 .2.1.2.2s0 .2-.2.2z"/><path id="XMLID_31_" class="st1" d="M120.2 56.9h-6.5c-.1 0-.2-.1-.2-.2s.1-.2.2-.2h6.5c.1 0 .2.1.2.2s-.1.2-.2.2z"/><path id="XMLID_32_" class="st1" d="M118.4 58.5h-2.9c-.1 0-.2-.1-.2-.2s.1-.2.2-.2h2.9c.1 0 .2.1.2.2s0 .2-.2.2z"/><path id="XMLID_33_" class="st1" d="M118.4 60.1h-2.9c-.1 0-.2-.1-.2-.2s.1-.2.2-.2h2.9c.1 0 .2.1.2.2s0 .2-.2.2z"/><path id="XMLID_34_" class="st1" d="M120.2 61.8h-6.5c-.1 0-.2-.1-.2-.2s.1-.2.2-.2h6.5c.1 0 .2.1.2.2s-.1.2-.2.2z"/><path id="XMLID_35_" class="st1" d="M118.4 63.4h-2.9c-.1 0-.2-.1-.2-.2s.1-.2.2-.2h2.9c.1 0 .2.1.2.2.1.1 0 .2-.2.2z"/><path id="XMLID_36_" class="st1" d="M118.4 65.1h-2.9c-.1 0-.2-.1-.2-.2s.1-.2.2-.2h2.9c.1 0 .2.1.2.2.1.1 0 .2-.2.2z"/><path id="XMLID_37_" class="st1" d="M120.2 66.7h-6.5c-.1 0-.2-.1-.2-.2s.1-.2.2-.2h6.5c.1 0 .2.1.2.2s-.1.2-.2.2z"/></g><path id="XMLID_38_" class="st0" d="M70.1 23.5H46.6c-1.3 0-2.4 1.1-2.4 2.4 0 1.3 1.1 2.4 2.4 2.4h23.5c1.3 0 2.3-1.1 2.3-2.4 0-1.4-1-2.4-2.3-2.4z"/><path id="XMLID_39_" class="st7" d="M67.6 21.5H44.1c-1.3 0-2.4 1.1-2.4 2.4 0 1.3 1.1 2.4 2.4 2.4h23.5c1.3 0 2.3-1.1 2.3-2.4 0-1.3-1-2.4-2.3-2.4z"/></g><g id="thermometer_x5F_mask"><path id="XMLID_40_" class="st8" d="M121.5 85.8V41.4H112V86c-3.9 1.9-6.6 5.8-6.6 10.4 0 6.4 5.2 11.5 11.5 11.5 6.4 0 11.5-5.2 11.5-11.5.1-4.7-2.8-8.8-6.9-10.6z"/></g><g id="mask_x5F_test-tube"><path id="XMLID_41_" class="st8" d="M65.2 24.2v58c0 .5.1.9.4 1.3.3.4.6.9.8 1.3l15.8 32.1 14.4 29.2c.7 1.5.8 2.8.3 3.7-.5.9-1.8 1.4-3.4 1.4H18.2c-1.6 0-2.9-.5-3.4-1.4-.5-.9-.4-2.2.3-3.7L29.4 117l15.8-32.1c.2-.4.5-.9.8-1.3.3-.4.4-.9.4-1.3v-58h18.8v-.1z"/></g></svg>