<svg xmlns="http://www.w3.org/2000/svg" viewBox="0 0 286 220"><style>.st0{fill:#519E38;} .st1{fill:#FFFFFF;} .st2{fill:#B2603D;} .st3{fill:#2E723D;} .st4{fill:#F9A25A;} .st5{fill:#DB8B4F;} .st6{fill:#C1725D;} .st7{fill:#F9B17A;} .st8{fill:#BA703E;} .st9{fill:#E8904D;} .st10{fill:#4C2D15;} .st11{fill:#EFE43D;} .st12{fill:#FFF8C2;} .st13{fill-rule:evenodd;clip-rule:evenodd;fill:#351000;} .st14{fill-rule:evenodd;clip-rule:evenodd;fill:#2C6D0F;} .st15{fill:#552D84;} .st16{fill:#72569B;} .st17{fill:#2C6D0F;} .st18{fill:#AB1D43;} .st19{fill:#ED265C;} .st20{fill:#EF709E;}</style><g id="tvorog_1_"><circle class="st0" cx="211.6" cy="133.4" r="3.1"/><path class="st0" d="M208.5 147.9c0-3.1-1.9-5.8-4.6-6.9.2-.4.3-.8.3-1.2 0-1.7-1.4-3.1-3.1-3.1-1.7 0-3.1 1.4-3.1 3.1 0 .4.1.9.3 1.2-.7.3-1.3.7-1.9 1.1-2.7-3-6.7-4.9-11-4.9h-.1c-.1-1.5-.5-2.9-1-4.2 2.6-.3 4.7-2.5 4.7-5.2 0-2.9-2.4-5.3-5.3-5.3-2.6 0-4.7 1.9-5.2 4.3-1.4-.7-2.9-1.2-4.5-1.4 1-1 1.7-2.3 1.7-3.9 0-2.9-2.4-5.3-5.3-5.3-2.2 0-4.1 1.4-4.9 3.3-2.7-2.4-6.2-3.9-10.1-3.9-5.7 0-10.7 3.2-13.2 7.9-.4-1.2-1.6-2-2.9-2-1.7 0-3.1 1.4-3.1 3.1 0 .8.3 1.5.8 2-2.2 1.1-4 2.7-5.3 4.8-.5-3.5-3.5-6.1-7.1-6.1-4 0-7.2 3.2-7.2 7.2 0 1.4.4 2.7 1.1 3.8-.4-.1-.9-.1-1.4-.1-5 0-9.3 3.5-10.4 8.2-1-.6-2.2-.9-3.5-.9-4.1 0-7.5 3.4-7.5 7.5s3.4 7.5 7.5 7.5c1.2 0 2.3-.3 3.2-.7v.7c0 8.3 6.7 15 15 15 2.6 0 5.1-.7 7.2-1.9.3 1.4 1.5 2.5 3.1 2.5 1.7 0 3.1-1.4 3.1-3.1 0-.2 0-.4-.1-.6 1.4.4 2.9.6 4.5.6s3.2-.2 4.7-.6c2.4 5.1 7.6 8.7 13.6 8.7 8.3 0 15-6.7 15-15 0-.4 0-.8-.1-1.2.5-.4.9-.7 1.4-1.2 2.8 3.3 6.9 5.4 11.5 5.4s8.6-2 11.4-5.2c1 1.3 2.6 2.2 4.4 2.2 3.1 0 5.6-2.5 5.6-5.6 0-1.7-.7-3.1-1.9-4.2 2.2-1.2 3.7-3.6 3.7-6.4zm-83.5-8l-.1-.1h.3c-.2 0-.2 0-.2.1z"/><circle class="st1" cx="110.2" cy="141" r="10.7"/><circle class="st1" cx="117.6" cy="126.6" r="7.2"/><circle class="st1" cx="163.5" cy="115.7" r="5.3"/><circle class="st1" cx="176.7" cy="121.9" r="5.3"/><circle class="st1" cx="194.2" cy="133.8" r="3.1"/><circle class="st1" cx="204.9" cy="127.5" r="3.1"/><circle class="st1" cx="124.8" cy="165.1" r="3.1"/><circle class="st1" cx="194.2" cy="152.6" r="5.6"/><circle class="st1" cx="132.3" cy="118.8" r="3.1"/><circle class="st1" cx="96.3" cy="145.1" r="7.5"/><circle class="st1" cx="194.2" cy="142" r="7.5"/><circle class="st1" cx="135.6" cy="132.3" r="12.8"/><circle class="st1" cx="165.6" cy="132.3" r="12.8"/><circle class="st1" cx="148.5" cy="124.8" r="15"/><circle class="st1" cx="156.5" cy="145.1" r="15"/><circle class="st1" cx="150.6" cy="158.2" r="15"/><circle class="st1" cx="132.3" cy="146.3" r="18.8"/><circle class="st1" cx="114.5" cy="152.6" r="15"/><circle class="st1" cx="178.5" cy="146.3" r="15"/></g><g id="kuraga"><ellipse class="st2" cx="69.2" cy="101.1" rx="17.1" ry="16.9"/><path class="st3" d="M74.3 85.7s-2.9-11.4-16.5-12.1c0 0-1.5 11.3 16.3 12.4"/><path class="st3" d="M74.1 85.8s-2.6-11.5 9.2-18.3c0 0 6.4 9.4-8.9 18.5"/><path class="st4" d="M100 113.6c4.7-14.6-6-16.3-6-16.3s-6.9-8.3-17 3.3c-10.1 11.5-4.5 20.8 1.5 24.2 6.1 3.4 16.8 3.4 21.5-11.2z"/><path class="st5" d="M100 113.6c4.7-14.6-6-16.3-6-16.3l-15.5 27.5c6.1 3.4 16.8 3.4 21.5-11.2z"/><circle class="st6" cx="61.7" cy="91.8" r="2.4"/><path class="st7" d="M75.4 118.9c-.4 0-.7-.2-.9-.5-2.8-5-.1-10.8 0-11.1.2-.5.8-.7 1.3-.5.5.2.7.8.5 1.3 0 .1-2.3 5.1 0 9.3.3.5.1 1.1-.4 1.4-.2.1-.4.1-.5.1zM77.7 105.6c0 .5-.4.9-.9.9s-.9-.4-.9-.9.4-.9.9-.9.9.4.9.9z"/><path class="st8" d="M90.5 103.6s4.4 4.1.5 10.1c-3.9 6-8.6 4.2-8.6 4.2l8.1-14.3z"/><path class="st9" d="M90.5 103.7s-5.8-1.7-8.9 4.8c-3.1 6.5.8 9.5.8 9.5l8.1-14.3z"/><path class="st10" d="M89.5 105.3s-3.9-1-6.3 3.3c-2.4 4.2-.5 6.8 0 7.8 1.1-.1 4.3.2 6.7-4 2.5-4.2-.4-7.1-.4-7.1z"/></g><g id="maslo"><path class="st11" d="M229.4 115.5c-.3 1.1-1.4 1.8-2.6 1.6l-14.8-3.7c-1.1-.3-1.8-1.4-1.6-2.6l4-15.9c.3-1.1 1.4-1.8 2.6-1.6l14.8 3.7c1.1.3 1.8 1.4 1.6 2.6l-4 15.9z"/><path class="st12" d="M217.4 100.2c-.2.6-.8 1-1.4.8-.6-.2-1-.8-.8-1.4l.7-3c.2-.6.8-1 1.4-.8.6.2 1 .8.8 1.4l-.7 3zM216.6 103.5c-.2.6-.8 1-1.4.8h-.1c-.6-.2-1-.8-.8-1.4.1-.6.8-1 1.4-.8h.1c.6.2.9.8.8 1.4z"/></g><g id="isum"><path class="st13" d="M126.9 39.3c-1.4 3.3-5.2 4.9-8.4 3.1-2.1-1.2-2.6-3.7-2-5.8 1.1-3.8 6.3-2.7 6.6.7.2 2.4-3.4 3.3-4.2.9-.2-1.4.5-1.8 2.3-1.2.6.8-1.3 1.5-1.2.4 0-.1-.6 0-.6.2-.1 1.7 1.8 1.2 2.5.3.7-1-.7-1.7-1.4-1.8-.4-.1-1.1.2-1.5.4-2.1 1.3-.1 3.9 1.8 3.7 2.3-.2 3.3-2.5 2.3-4.6-.8-1.7-3.4-2.1-5-1.3-2.5 1.2-3.3 3.8-2.3 6.3 2.2 5.4 9.7 2.8 11.5-1.3.2-.2-.4-.1-.4 0z"/><path class="st14" d="M135.4 41.8s-8.1-5.8-1.4-13.5c0 0 1-1.3 2.5.5 0 0 5.4-6.9 6-.9 0 0 1.2 2.4-1.4 4.7-2.6 2.3-.7 3 .6 1.6 1.3-1.4 2.9-5.2 4.7-4.6 1.8.6 2.3-.8 2.3-.8s.8-.2 1.7.9c.9 1.1 9.5-3.2 6.4 2 0 0-3.7 2.3-2.3 3.8 1.4 1.5-1.4 5.4-6.6 5.2-5.2-.2-2.1 2.6 2.1 2.1 0 0 3.8 1.7 4.1 3.8 0 0-3.7 5.1-5.8 2.8-2-2.3-2.3.7-1 1.9 1.4 1.2-9.6 2.6-11.9-9.5"/><path class="st13" d="M121.4 49.4l5.2-4.5.5-7.5-1.2-1.6s4.3-2.1 2.6 3.5c0 0-2 5 .4 5.2 2.5.3 7-3.4 7-3.4l.2.1.2.2s-4 3.7-7.6 3.7c0 0 1.6 1.8 4.2 2.4 2.5.6 2.9 1.4 2.9 1.4l-.6.6s-1.9-1.7-3.6-1.4c-1.7.3-3.9-2.8-3.9-2.8l-.6 5.5-.9.5.3-4.6-4.6 2.8-.5-.1z"/><circle class="st15" cx="119.3" cy="49.8" r="3.1"/><circle class="st15" cx="124.8" cy="53" r="3.1"/><circle class="st15" cx="130.6" cy="53" r="3.1"/><circle class="st15" cx="136.4" cy="51.4" r="3.1"/><circle class="st15" cx="119.3" cy="56.1" r="3.1"/><circle class="st15" cx="125.6" cy="57.7" r="3.1"/><circle class="st15" cx="131.3" cy="58.4" r="3.1"/><circle class="st15" cx="121.7" cy="62.4" r="3.1"/><circle class="st15" cx="131.3" cy="95" r="3.1"/><circle class="st15" cx="128.7" cy="89.8" r="3.1"/><circle class="st15" cx="134.5" cy="90.4" r="3.1"/><circle class="st15" cx="137.6" cy="84.7" r="3.1"/><circle class="st15" cx="127" cy="83.5" r="3.1"/><circle class="st15" cx="131.9" cy="83.5" r="3.1"/><circle class="st15" cx="135" cy="79" r="3.1"/><circle class="st15" cx="123.9" cy="71.9" r="3.1"/><circle class="st15" cx="131.3" cy="77" r="3.1"/><circle class="st15" cx="141.3" cy="77" r="3.1"/><circle class="st15" cx="135.8" cy="72.7" r="3.1"/><circle class="st15" cx="129.5" cy="70.7" r="3.1"/><circle class="st15" cx="119.3" cy="67.6" r="3.1"/><circle class="st15" cx="126.3" cy="67.5" r="3.1"/><circle class="st15" cx="133.8" cy="67.6" r="3.1"/><circle class="st15" cx="130.6" cy="64.4" r="3.1"/><circle class="st15" cx="128.7" cy="70.6" r="3.1"/><circle class="st15" cx="132.6" cy="75.8" r="3.1"/><circle class="st15" cx="126.3" cy="77" r="3.1"/><circle class="st15" cx="131.3" cy="86.7" r="3.1"/><circle class="st15" cx="130.2" cy="70.7" r="3.1"/><circle class="st15" cx="126.3" cy="62.4" r="3.1"/><circle class="st15" cx="130.6" cy="60.9" r="3.1"/><circle class="st15" cx="138.9" cy="58.4" r="3.1"/><circle class="st15" cx="135" cy="61.5" r="3.1"/><circle class="st15" cx="138.9" cy="65.6" r="3.1"/><circle class="st15" cx="139.6" cy="65.4" r="3.1"/><circle class="st15" cx="142.7" cy="61.3" r="3.1"/><circle class="st15" cx="140.8" cy="70.7" r="3.1"/><circle class="st15" cx="135" cy="56.1" r="3.1"/><circle class="st15" cx="142.7" cy="53.9" r="3.1"/><circle class="st16" cx="117.9" cy="49.1" r="1.3"/><circle class="st16" cx="117.9" cy="66.9" r="1.3"/><circle class="st16" cx="130.2" cy="94.4" r="1.3"/><circle class="st16" cx="140.8" cy="76.3" r="1.3"/><circle class="st16" cx="140.8" cy="69.8" r="1.3"/><circle class="st16" cx="142.7" cy="52.7" r="1.3"/><circle class="st16" cx="128.2" cy="62.2" r="1.3"/><circle class="st16" cx="130.6" cy="75.8" r="1.3"/></g><g id="klukva"><path class="st17" d="M197.2 72.5s3 .6 5.2-4.8c0 0 1.9-4.9.7-6.4 0 0-2.1-.9-4.8 4.1 0 .1-3.1 5.9-1.1 7.1zM193.2 81.8s1.8 2.4 7-.2c0 0 4.6-2.4 4.7-4.4 0 0-1-2.1-6.3 0 .1 0-6.1 2.3-5.4 4.6z"/><path class="st14" d="M186.1 84.1l3.8 5.6s-1.6 1.4-1.7 1c-.5-1.9-3.1-6-3.1-6l1-.6zM195 82.4l1.4 6.6s-1.7.7-1.7.3c.2-2-.7-6.8-.7-6.8l1-.1zM202.5 77.2l3.9 3.6s-.8 1.2-.9 1c-.8-1.3-3.6-4-3.6-4l.6-.6z"/><path class="st17" d="M178 79.6s-2.7 1.3-1.3 6.9c0 0 1.3 5.1 3.3 5.6 0 0 2.2-.5 1.4-6.2-.1 0-1.1-6.5-3.4-6.3z"/><path class="st17" d="M179 79.8s-1.6-2.5-7-.4c0 0-4.8 2-5.1 4 0 0 .8 2.2 6.3.6-.1-.1 6.3-1.9 5.8-4.2z"/><path class="st17" d="M178.6 80.5s1.1-2.8-3.8-5.9c0 0-4.4-2.7-6.2-1.8 0 0-1.2 1.9 3.3 5.4-.1 0 5.1 4 6.7 2.3zM183.5 75.4s1.5-2.6-2.8-6.5c0 0-3.9-3.4-5.9-2.8 0 0-1.5 1.7 2.3 5.9.1 0 4.6 4.9 6.4 3.4zM193.9 73s2.9-.8 2.6-6.5c0 0-.3-5.2-2.2-6.1 0 0-2.3.1-2.5 5.8 0-.1-.3 6.5 2.1 6.8z"/><path class="st17" d="M193.6 72.3s1.5-2.4-2.5-6.1c0 0-3.6-3.3-5.4-2.7 0 0-1.5 1.6 2.1 5.6 0-.1 4.1 4.5 5.8 3.2z"/><path class="st14" d="M177.748 79.444l4.818-4.94.86.838-4.82 4.94z"/><g><circle class="st18" cx="193.7" cy="79.9" r="5.2"/><circle class="st19" cx="193.6" cy="80.5" r="4.6"/><circle class="st19" cx="193.6" cy="83.1" r="1.6"/></g><circle class="st18" cx="187.9" cy="73.4" r="5.2"/><circle class="st19" cx="187.7" cy="72.8" r="4.6"/><g><circle class="st18" cx="185.4" cy="82.5" r="5.2"/><circle class="st19" cx="185.3" cy="82" r="4.6"/><circle class="st19" cx="184.1" cy="79.7" r="1.6"/></g><circle class="st18" cx="200.1" cy="72.4" r="5.2"/><circle class="st19" cx="199.7" cy="72" r="4.6"/><circle class="st19" cx="197.5" cy="70.6" r="1.6"/><circle class="st20" cx="186.5" cy="71.2" r="1.4"/><circle class="st20" cx="183.4" cy="82.2" r="1.4"/><circle class="st20" cx="198.9" cy="69.3" r="1.4"/></g></svg>