<?xml version="1.0" encoding="utf-8"?>
<!-- Generator: Adobe Illustrator 19.0.0, SVG Export Plug-In . SVG Version: 6.00 Build 0)  -->
<svg version="1.1" id="Layer_1" xmlns="http://www.w3.org/2000/svg" xmlns:xlink="http://www.w3.org/1999/xlink" x="0px" y="0px"
	 viewBox="0 0 160.2 91.9" style="enable-background:new 0 0 160.2 91.9;" xml:space="preserve">
<style type="text/css">
	.st0{fill:#EFEFEF;}
	.st1{fill:#DDDDDD;}
	.st2{fill:#E0E0E0;}
	.st3{fill:#FFFFFF;}
	.st4{fill:#AB1D43;}
	.st5{fill:#62BA47;}
	.st6{fill-rule:evenodd;clip-rule:evenodd;fill:#AB1D43;}
	.st7{fill-rule:evenodd;clip-rule:evenodd;fill:#62BA47;}
	.st8{fill:#ED265C;}
	.st9{fill:#62BA46;}
</style>
<g id="XMLID_184_">
	<path id="XMLID_189_" class="st0" d="M137.9,20.1h-17.6h-7.2H47.3h-7.1H22.5L30.1,70l0,0c0.7,4.9,5,8.7,10.1,8.7h80.1
		c5.5,0,10-4.3,10.2-9.8L137.9,20.1z"/>
	<path id="XMLID_188_" class="st1" d="M120.3,20.1h-7.2H80.2v58.5h40.1c5.5,0,10-4.3,10.2-9.8l7.4-48.8H120.3z"/>
	<path id="XMLID_187_" class="st2" d="M138.8,16.8c0,1.3-1.1,2.4-2.4,2.4H23.9c-1.3,0-2.4-1.1-2.4-2.4l0,0c0-1.3,1.1-2.4,2.4-2.4
		h112.5C137.7,14.4,138.8,15.4,138.8,16.8L138.8,16.8z"/>
	<path id="XMLID_186_" class="st3" d="M141.5,20.1c0,1.3-1.1,2.4-2.4,2.4H20.4c-1.3,0-2.4-1.1-2.4-2.4l0,0c0-1.3,1.1-2.4,2.4-2.4
		h118.7C140.5,17.7,141.5,18.8,141.5,20.1L141.5,20.1z"/>
	<path id="XMLID_185_" class="st3" d="M38.1,39.8c0.3,2.2-1.2,4.1-3.4,4.5l0,0c-2.2,0.3-4.2-1.2-4.5-3.4l-1.5-10.5
		c-0.3-2.2,1.2-4.2,3.4-4.5l0,0c2.2-0.3,4.2,1.2,4.5,3.4L38.1,39.8z"/>
</g>
<g id="XMLID_80_">
	<circle id="XMLID_183_" class="st4" cx="80.3" cy="49.5" r="16.1"/>
	<g id="XMLID_176_">
		<circle id="XMLID_182_" class="st5" cx="67.4" cy="63.9" r="5.1"/>
		<g id="XMLID_178_">
			<path id="XMLID_181_" class="st3" d="M69.7,62.4c-0.6,1-1.4,2-2.1,2.9c-0.3,0.4,0.2,0.4,0.4,0.1c0.8-1,1.6-2,2.2-3.1
				C70.5,62,69.9,62.2,69.7,62.4L69.7,62.4z"/>
			<path id="XMLID_180_" class="st3" d="M68.6,62.1c-0.4,0-0.7,0.4-0.7,0.7c-0.1,0.3,0.1,0.6,0.5,0.6C69,63.5,69.4,62.2,68.6,62.1
				c-0.2,0-0.5,0.4-0.2,0.4c0.2,0,0.3,0.2,0.3,0.3c0,0.1,0,0.1,0,0.2c0,0.1,0,0,0,0c0,0-0.1,0-0.1,0c-0.2,0-0.3-0.2-0.3-0.3
				c0-0.1,0-0.1,0-0.2c0,0,0,0,0,0c0,0,0.1,0,0.1,0C68.5,62.5,68.8,62.1,68.6,62.1z"/>
			<path id="XMLID_179_" class="st3" d="M69.6,64.3c-0.4,0-0.7,0.4-0.7,0.7c-0.1,0.3,0.1,0.6,0.5,0.6C70.1,65.7,70.5,64.4,69.6,64.3
				c-0.2,0-0.5,0.4-0.2,0.4c0.2,0,0.3,0.2,0.3,0.3c0,0.1,0,0.1,0,0.2c0,0.1,0,0,0,0c0,0-0.1,0-0.1,0c-0.2,0-0.3-0.2-0.3-0.3
				c0-0.1,0-0.1,0-0.2c0,0,0,0,0,0c0,0,0.1,0,0.1,0C69.6,64.7,69.9,64.3,69.6,64.3z"/>
		</g>
		<path id="XMLID_177_" class="st3" d="M65.7,63.6c-0.2-0.1-0.8-0.7-0.4-1c0.2-0.1,0.4-0.1,0.6,0c0.5,0.1,0.1,0.5-0.1,0.7
			c-0.1,0.1-0.9,0.7-0.6,0.9c0.4,0.3,1.1,0,1.1,0.6c0,0.4-0.7,0.5-1,0.3c-0.4-0.3-0.4-0.7,0.1-1c0.2-0.1,0.4-0.7,0-0.5
			c-0.5,0.3-1,0.7-1,1.3c0,0.4,0.4,0.8,0.8,0.9c0.6,0.1,1.2-0.3,1.5-0.8c0.3-0.4,0.3-1-0.3-1.2c-0.2,0-0.6-0.2-0.7,0
			c0.2-0.3,0.5-0.4,0.7-0.7c0.4-0.5,0.2-1.1-0.4-1.2c-0.6-0.1-1.1,0.3-1.3,0.8c-0.3,0.6,0,1.1,0.5,1.4C65.5,64.3,66,63.7,65.7,63.6
			L65.7,63.6z"/>
	</g>
	<path id="XMLID_175_" class="st6" d="M72.7,29.8c0,1.1-0.9,2.1-2.1,2.1c-1.1,0-2.1-0.9-2.1-2.1c0-1.1,0.9-2.1,2.1-2.1
		C71.7,27.7,72.7,28.6,72.7,29.8L72.7,29.8z"/>
	<path id="XMLID_174_" class="st7" d="M72.7,36.7c0,1.5-1.2,2.6-2.6,2.6c-1.5,0-2.7-1.2-2.7-2.6c0-1.5,1.2-2.7,2.7-2.7
		C71.6,34.1,72.7,35.2,72.7,36.7L72.7,36.7z"/>
	<path id="XMLID_173_" class="st7" d="M65.7,32.6c0,0.9-0.7,1.6-1.6,1.6c-0.9,0-1.6-0.7-1.6-1.6c0-0.9,0.7-1.6,1.6-1.6
		C65,31,65.7,31.7,65.7,32.6L65.7,32.6z"/>
	<g id="XMLID_159_">
		<circle id="XMLID_172_" class="st5" cx="94.1" cy="34.8" r="8.9"/>
		<g id="XMLID_160_">
			<path id="XMLID_169_" class="st3" d="M91.9,33.5c-0.7,0.1-0.9,1-1,1.6l0,0l0,0c0,0.1,0,0.2,0,0.3c0,0.3,0,0.5,0,0.8
				c0,0.1-0.1,0.3-0.1,0.3c-0.3,0-0.5-0.4-0.5-0.6c-0.2-0.5-0.3-0.9-0.4-1.4c-0.1-0.5-0.1-1-0.2-1.6c0-0.2,0-0.4,0-0.7
				c0-0.1,0-0.2,0-0.3c0-0.1,0-0.1,0-0.1c0.1-0.4-0.5,0-0.6,0.2c-0.6,1-0.4,2.3-0.4,3.4c0,0.3,0,0.6-0.1,0.9c0,0.2-0.1,0.6-0.2,0.7
				c-0.1,0.1-0.3,0-0.4,0c-0.1-0.1-0.2-0.2-0.3-0.4c0-0.2-0.2-0.1-0.3,0c-0.1,0.1-0.3,0.4-0.2,0.5c0.1,0.4,0.4,0.8,0.8,0.6
				c0.7-0.2,0.9-1,1.1-1.6c0.1-0.3,0.1-0.6,0.1-0.9c0.1,0.4,0.2,0.9,0.4,1.3c0.1,0.3,0.4,0.6,0.8,0.5c0.3-0.1,0.5-0.4,0.6-0.7
				c0.1,0.3,0.3,0.5,0.7,0.5c0.4,0,0.7-0.4,0.8-0.7c0.2-0.4,0.2-0.8,0.2-1.1C92.8,34.5,92.7,33.4,91.9,33.5z M92.1,36.1
				c0,0.1,0,0.1-0.1,0.2c-0.1,0-0.2-0.2-0.3-0.3c-0.1-0.2-0.2-0.5-0.2-0.8c0-0.3,0-0.6,0-0.8c0-0.1,0-0.1,0.1-0.2
				c0.4,0.2,0.4,0.7,0.5,1.1C92.2,35.5,92.2,35.8,92.1,36.1z"/>
			<path id="XMLID_166_" class="st3" d="M100.7,34.6c-0.8-0.3-1.2,0.8-1.4,1.4c-0.1,0.6-0.3,1.5,0.4,1.8c0.3,0.1,0.7-0.1,0.9-0.3
				c0.2-0.3,0.4-0.6,0.5-1C101.3,35.9,101.5,34.8,100.7,34.6z M100.3,37.1c0,0.1-0.1,0.1-0.1,0.2c-0.1-0.1-0.2-0.3-0.2-0.4
				c0-0.3,0-0.6,0-0.8c0.1-0.3,0.1-0.5,0.3-0.8c0-0.1,0.1-0.1,0.1-0.2c0.3,0.4,0.2,0.8,0.1,1.3C100.5,36.6,100.4,36.9,100.3,37.1z"
				/>
			<path id="XMLID_161_" class="st3" d="M98.6,34.7c0.1-0.2,0.3-0.4,0.4-0.6c0.3-0.4,0.6-1,0.6-1.5c0-0.5-0.7-0.5-1.1-0.4
				c-0.5,0.2-0.8,0.8-1,1.3c-0.2,0.7-0.3,1.4-0.3,2.1c0,0,0,0,0,0c-0.2,0.3-0.8,0.9-1.2,0.7c-0.1-0.1-0.2-0.2-0.2-0.3
				c0.3-0.3,0.6-0.7,0.9-1.1c0.2-0.4,0.4-1-0.1-1.2c-0.4-0.2-0.9,0-1.1,0.3c-0.3,0.3-0.4,0.7-0.4,1.1c0,0.2,0,0.6,0,0.9
				c-0.2,0.1-0.5,0.2-0.8,0.2c-0.3-0.1-0.4-0.4-0.5-0.6c-0.1-0.4-0.1-0.8,0-1.1c0-0.1,0-0.2,0.1-0.3c0,0,0-0.1,0-0.1
				c0.2,0.1,0.3,0.4,0.3,0.5c0.1,0.3,0.8-0.2,0.7-0.4c-0.1-0.3-0.2-0.5-0.5-0.7c-0.3-0.1-0.7,0.1-0.8,0.3c-0.5,0.5-0.5,1.2-0.5,1.8
				c0,0.4,0.1,0.9,0.5,1.1c0.5,0.3,1.1,0,1.6-0.3c0.1,0.3,0.3,0.5,0.7,0.5c0.5-0.1,0.9-0.3,1.3-0.7c0,0.4,0.1,0.8,0.4,0.9
				c0.4,0.2,0.9,0,1.2-0.4c0.4-0.5,0.6-1.1,0.4-1.7C99,34.8,98.8,34.7,98.6,34.7z M95.9,34.4c0-0.1,0.1-0.2,0.1-0.3c0,0,0,0,0,0
				c0.2,0,0.2,0.3,0.2,0.4c0,0.3-0.2,0.6-0.5,0.9c0-0.1,0-0.1,0-0.2C95.8,35,95.8,34.7,95.9,34.4z M98.5,32.9
				c0.1-0.1,0.1-0.2,0.2-0.3c0,0,0,0,0,0c0.3,0.3,0,0.8-0.2,1.2c-0.2,0.3-0.4,0.6-0.6,0.9c0-0.3,0.1-0.6,0.2-0.9
				C98.2,33.5,98.3,33.2,98.5,32.9z M98.3,36.6c0,0-0.1,0.1-0.1,0.1c0,0,0,0-0.1,0c-0.2-0.1-0.2-0.5-0.2-0.7c0-0.2,0-0.3,0-0.5
				c0.1-0.1,0.2-0.2,0.3-0.3c0.2-0.1,0.3,0.1,0.3,0.3C98.6,35.9,98.4,36.3,98.3,36.6z"/>
		</g>
	</g>
	<g id="XMLID_133_">
		<g id="XMLID_138_">
			<g id="XMLID_139_">
				<path id="XMLID_156_" class="st3" d="M80.1,44.9C80.1,44.9,80.1,44.9,80.1,44.9c-0.1,0-0.1,0-0.1,0c-0.9,0.1-1.1,1.3-1.1,2
					c0,0.6,0.1,1.8,0.9,1.8c0.4,0,0.7-0.4,0.9-0.7c0.2-0.4,0.3-0.8,0.3-1.2C81,46.2,80.9,44.9,80.1,44.9z M80.2,47.7
					c0,0.1,0,0.1-0.1,0.2c0,0,0,0.1,0,0.1c0,0,0,0,0,0c-0.5,0-0.6-1-0.6-1.3c0-0.3,0-0.6,0.1-0.9c0-0.1,0.1-0.2,0.1-0.3
					c0.5,0,0.6,1,0.6,1.3C80.3,47.1,80.3,47.4,80.2,47.7z"/>
				<path id="XMLID_150_" class="st3" d="M77.9,45.1c-0.3-0.1-0.6,0-0.9,0.2c0-0.2-0.1-0.4-0.2-0.7c-0.1-0.2-0.4,0-0.5,0.1
					c-0.1,0.1-0.2,0.2-0.2,0.3c0,0,0,0,0,0.1c0,0.2-0.1,0.3-0.1,0.4c0,0,0,0-0.1,0.1c-0.2,0.1-0.5,0-0.6-0.1c0,0,0,0,0,0
					c-0.1,0-0.2-0.1-0.4-0.1c0,0,0,0-0.1,0c0,0,0,0,0,0c-1,0.2-1,1.5-0.9,2.1c0.1,0.6,0.4,1.8,1.2,1.6c0.4-0.1,0.7-0.5,0.9-0.9
					c0.2-0.4,0.2-0.8,0.1-1.3c0-0.2-0.1-0.6-0.2-0.9c0.1-0.1,0.3-0.2,0.4-0.3c0.2,0.9,0.3,1.8,0.4,2.7c0.1,0.8,0.2,1.7,0.2,2.5
					c0,0.2,0.2,0.1,0.3,0.1c0.1-0.1,0.3-0.3,0.3-0.5c0-0.6,0-1.2-0.1-1.7c0.2,0,0.5-0.2,0.7-0.4c0.4-0.5,0.5-1.3,0.4-1.9
					C78.5,46.1,78.4,45.3,77.9,45.1z M75.5,48.2c0,0.1,0,0.1,0,0.2c0,0,0,0.1,0,0.1c0,0,0,0,0,0c-0.5,0.1-0.7-0.9-0.8-1.1
					c-0.1-0.3-0.1-0.6-0.1-0.9c0-0.1,0-0.2,0.1-0.3c0,0,0.1,0,0.1,0c0,0,0,0,0,0c0,0,0.1,0,0.1,0c0.3,0.2,0.5,0.8,0.5,1.1
					C75.5,47.6,75.5,47.9,75.5,48.2z M77.2,45.7C77.2,45.7,77.2,45.7,77.2,45.7L77.2,45.7z M77.9,48.1
					C77.9,48.1,77.9,48.1,77.9,48.1L77.9,48.1z M77.9,48.1C77.8,48.1,77.8,48.1,77.9,48.1C77.8,48.1,77.8,48.1,77.9,48.1
					c-0.3,0.1-0.5-0.1-0.5-0.3c0,0,0,0,0-0.1c0-0.5-0.1-1-0.2-1.5c0,0,0,0,0,0c0-0.2,0-0.3,0-0.5c0,0,0,0,0,0c0,0,0,0,0,0
					c0.1,0,0.2,0,0.3,0.1c0.3,0.3,0.4,0.7,0.4,1C77.9,47.3,78,47.7,77.9,48.1z"/>
				<path id="XMLID_146_" class="st3" d="M72.6,46.7c0.1-0.3,0.1-0.7,0.2-1c0.1-0.5,0.2-1.3-0.2-1.7c-0.3-0.5-0.9,0-1.2,0.3
					c-0.4,0.6-0.3,1.3-0.3,1.9c0.1,0.7,0.3,1.4,0.5,2.1c-0.1,0.3-0.1,0.7-0.3,1c0,0,0,0.1,0,0.1c0,0-0.1-0.1-0.1-0.1
					c-0.1-0.1-0.1-0.3-0.2-0.4c-0.4-1-0.6-2.2-1.1-3.1c-0.2-0.3-0.5-0.8-1-0.6c-0.4,0.2-0.5,0.5-0.6,0.9c-0.2-0.3-0.6-0.5-1-0.2
					c-0.2,0.1-0.3,0.3-0.4,0.5c-0.1-0.2-0.1-0.3-0.3-0.4c-0.3-0.2-0.8,0.6-0.6,0.8c0.2,0.1,0.2,0.3,0.3,0.5c0.2,0.4,0.3,0.7,0.5,1.1
					c0.1,0.2,0.2,0.4,0.2,0.6c0.3,0.8,0.6,1.6,0.9,2.4c0,0.1,0.1,0.1,0.1,0.1c0.2,0,0.5-0.5,0.4-0.7c-0.3-0.7-0.5-1.4-0.8-2.1
					c-0.1-0.3-0.2-0.6-0.3-0.9c-0.1-0.3-0.2-0.7-0.2-1c0,0,0-0.1,0-0.1c0.5-0.2,0.9,0.9,1,1.1c0.2,0.4,0.3,0.8,0.5,1.2
					c0.2,0.6,0.4,1.2,0.6,1.8c0,0.1,0.1,0.1,0.1,0.1c0.2,0,0.5-0.5,0.4-0.7c-0.2-0.6-0.4-1.3-0.6-1.9c0-0.2-0.1-0.3-0.1-0.5
					c-0.1-0.5-0.3-1.1-0.3-1.7c0,0,0,0,0,0c0.1,0,0.3,0.1,0.3,0.2c0.4,0.5,0.6,1.2,0.9,1.9c0.1,0.4,0.3,0.9,0.4,1.3
					c0.1,0.3,0.2,0.6,0.4,0.8c0.2,0.3,0.5,0,0.7-0.2c0.2-0.2,0.3-0.5,0.4-0.8c0.2,0.4,0.4,0.7,0.8,0.7c0.6-0.1,0.8-0.7,0.9-1.2
					c0.1-0.5,0-1.5-0.6-1.8C72.9,46.6,72.8,46.6,72.6,46.7z M71.8,46c-0.1-0.5-0.1-1,0-1.5c0,0,0,0,0,0c0.2,0,0.2,0.2,0.2,0.4
					c0.1,0.5,0.1,1,0,1.5c0,0.2-0.1,0.4-0.1,0.6C71.9,46.7,71.8,46.4,71.8,46z M73,48.2c0,0.2,0.1,0.5,0,0.7c0,0,0,0,0,0
					c0,0-0.1,0-0.1,0c-0.1,0-0.3-0.2-0.3-0.3c-0.2-0.2-0.3-0.5-0.4-0.7c0-0.1,0.1-0.3,0.1-0.4c0.1-0.1,0.2-0.1,0.3,0
					C72.9,47.6,73,48,73,48.2z"/>
				<path id="XMLID_140_" class="st3" d="M92.7,50.3c-0.1-0.1-0.3-0.1-0.4-0.1c0,0,0,0,0,0c0,0-0.1-0.1-0.1-0.1
					c-0.1-0.1,0-0.3,0-0.4c0-0.3,0.1-0.7,0.3-1c0,0,0,0,0,0c0.1-0.3,0.2-0.5,0.3-0.8c0,0,0,0,0,0c0,0,0,0,0,0
					c0.1-0.2,0.2-0.3,0.3-0.5c0.1-0.2-0.2-0.2-0.3-0.2c0,0,0,0-0.1,0c-0.2-0.2-0.4-0.2-0.7-0.2c-0.8,0.1-1.3,0.8-1.4,1.5
					c-0.1,0.4,0.2,0.8,0.6,0.9c0.1,0,0.1,0,0.2,0c-0.1,0.2-0.2,0.3-0.3,0.4c-0.1,0.1-0.3-0.2-0.3-0.4c0-0.1-0.1-0.1-0.2-0.1
					c0,0,0,0,0,0c-0.2,0-0.3,0.1-0.4,0.2c0,0,0,0,0-0.1c-0.1-0.2,0-0.4,0-0.6c0.1-0.6,0.3-1.3,0.5-1.9c0,0,0,0,0,0
					c0.1-0.4-0.2-0.7-0.6-0.7c-0.4,0-0.8,0.2-1.1,0.5c-0.4,0.4-0.6,1-0.7,1.5h0c-0.1,0.1-0.1,0.4-0.3,0.6c0,0,0,0,0,0
					c0,0-0.1,0-0.1,0c-0.1-0.1,0-0.5,0-0.7c0-0.6,0.2-1.2,0.4-1.8c0.1-0.1,0.1-0.3,0.2-0.4c0.1-0.1,0-0.3-0.2-0.3
					c-0.2,0-0.4,0.1-0.5,0.3c-0.1,0.1-0.2,0.3-0.2,0.4c-0.1,0.2-0.2,0.4-0.4,0.5c-0.1,0.1-0.2,0.2-0.4,0.3c0,0,0,0,0,0
					c0.1-0.6,0.1-1.2,0.2-1.8c0-0.1,0-0.1-0.1-0.2c0,0,0,0,0,0l0,0c0,0,0,0,0,0c0,0,0,0,0,0h0c-0.1,0-0.1,0-0.2,0
					c-0.1,0-0.3,0.1-0.4,0.3c0,0-0.1,0.1-0.1,0.1c-0.2,0.8-0.5,1.7-1,2.4c0,0-0.1,0.1-0.1,0.1c0,0,0,0,0,0c0,0,0,0,0,0c0,0,0,0,0,0
					c-0.2-0.1-0.2-0.3-0.3-0.4c-0.2-0.5-0.1-1,0-1.5c0-0.1,0.1-0.2,0.1-0.3c0-0.1,0.1-0.1,0.1-0.2c0,0,0,0,0,0c0,0,0,0,0,0
					c0.1,0.1,0.2,0.2,0.2,0.3c0.1,0.2,0.9-0.2,0.8-0.5c-0.2-0.4-0.7-0.5-1.1-0.3c-0.3,0.2-0.5,0.4-0.6,0.6c0,0,0,0,0,0.1
					c0,0,0,0,0,0c0,0,0,0.1-0.1,0.1c0,0,0,0,0,0c-0.1,0.1-0.1,0.3-0.2,0.4c0.1-0.5,0.1-1,0.2-1.5c0-0.4-0.7,0-0.7,0.2
					c-0.1,0.2-0.2,0.4-0.3,0.6c0-0.2-0.1-0.4-0.2-0.6c-0.3-0.5-0.8-0.5-1.2-0.1c-0.1,0.1-0.3,0.3-0.2,0.4c0.1,0.1,0.3,0,0.4-0.1
					c0,0,0,0,0,0c0,0,0.1,0.1,0.1,0.1c0.1,0.1,0.1,0.2,0.2,0.3c0.1,0.3,0.1,0.6,0.1,1c0,0.3,0,0.6-0.1,0.9c0,0,0,0,0,0.1
					c0,0,0,0.1,0,0.1c-0.1,0-0.2-0.2-0.2-0.2c-0.1-0.2-0.8,0.3-0.6,0.6c0.4,0.6,1,0.2,1.3-0.2c0.1-0.2,0.2-0.4,0.3-0.6
					c0.1-0.2,0.1-0.3,0.2-0.5c0,0.5-0.1,1-0.2,1.5c0,0.2,0.2,0.2,0.3,0.1c0.2-0.1,0.3-0.2,0.4-0.4c0-0.2,0.1-0.4,0.2-0.6
					c0,0.2,0,0.4,0.1,0.6c0.1,0.2,0.2,0.5,0.5,0.6c0.4,0.1,0.8-0.2,1-0.4c0.2-0.2,0.4-0.4,0.6-0.6c0,0.3-0.1,0.7-0.2,1
					c0,0.2,0.2,0.2,0.3,0.1c0.2-0.1,0.4-0.2,0.4-0.4c0.1-0.3,0.2-0.6,0.4-0.9c0.1-0.1,0.2-0.2,0.4-0.3c0,0,0,0,0,0
					c-0.1,0.5-0.2,0.9-0.1,1.4c0,0.4,0.3,0.5,0.7,0.4c0.2,0,0.3-0.1,0.5-0.2c0,0.2,0.1,0.3,0.2,0.4c0.3,0.2,0.7,0.1,1-0.1
					c0,0,0.1,0,0.1-0.1c0,0.1,0,0.1,0,0.2c0.1,0.4,0.4,0.5,0.7,0.4c0.2,0.4,0.8,0.4,1.2,0.2c0.1,0,0.2-0.1,0.2-0.1
					c0,0.1,0,0.2,0,0.2c0.1,0.5,0.6,0.6,1,0.4C92.5,50.6,92.8,50.5,92.7,50.3z M88.9,49.1c0,0-0.1,0-0.1,0c-0.1-0.1-0.1-0.3-0.1-0.5
					c0-0.2,0-0.4,0-0.6c0,0,0,0,0,0c0,0,0,0,0-0.1c0.1-0.3,0.2-0.5,0.3-0.8c0.1-0.1,0.2-0.3,0.3-0.4c0,0,0,0,0,0c0,0,0.1,0,0.1,0
					c0.2,0,0.2,0.2,0.2,0.3c-0.2,0.6-0.4,1.3-0.7,1.9C88.9,48.9,88.9,49,88.9,49.1z M89.9,49.5L89.9,49.5
					C89.9,49.5,89.9,49.5,89.9,49.5C89.9,49.5,89.9,49.5,89.9,49.5z M91.4,48.2c0-0.3,0.2-0.7,0.4-0.8c0,0,0.1,0,0.2,0.1
					c0.1,0.1,0.1,0.3,0.1,0.4c-0.1,0.3-0.2,0.6-0.3,0.9C91.4,48.7,91.4,48.4,91.4,48.2z M92.3,50.2C92.3,50.2,92.3,50.3,92.3,50.2
					L92.3,50.2z"/>
			</g>
		</g>
		<path id="XMLID_134_" class="st3" d="M85.7,54.7C85.7,54.7,85.6,54.7,85.7,54.7c-0.1-0.1-0.1-0.2-0.1-0.2c0-0.2,0-0.4,0-0.6
			c0-0.6,0.1-1.2,0.2-1.7c0,0,0,0,0,0c0-0.4-0.3-0.7-0.7-0.6c-0.4,0-0.7,0.3-1,0.6c-0.3,0.4-0.4,0.8-0.5,1.3
			c-0.1,0.2-0.1,0.4-0.2,0.6c0,0.1-0.1,0.1-0.1,0.2c0,0.1-0.1,0.1-0.1,0.1c0,0-0.1,0-0.1,0c-0.1,0,0,0-0.1,0c-0.2,0-0.4-0.1-0.5-0.3
			c-0.3-0.4-0.2-1-0.2-1.4c0-0.2,0.1-0.5,0.2-0.7c0,0,0.1,0,0.1,0.1c0.1,0.1,0.2,0.3,0.2,0.5c0.1,0.3,0.8-0.1,0.7-0.4
			c-0.1-0.3-0.2-0.8-0.6-0.8c-0.4,0-0.8,0.3-0.9,0.7c-0.2,0.4-0.3,0.8-0.3,1.3c0,0.2-0.1,0.5-0.2,0.7c0,0.1-0.1,0.1-0.1,0.2
			c0,0.1-0.1,0.1-0.1,0.1l-0.1,0c-0.1,0,0,0-0.1,0c-0.2,0-0.4-0.1-0.5-0.2c-0.3-0.3-0.3-1-0.2-1.4c0-0.2,0.1-0.5,0.2-0.8
			c0,0,0.1,0,0.1,0.1c0.1,0.1,0.2,0.3,0.2,0.5c0.1,0.3,0.8-0.2,0.7-0.5c-0.1-0.3-0.3-0.8-0.7-0.8c-0.4,0-0.8,0.4-0.9,0.7
			c-0.2,0.4-0.3,0.9-0.3,1.4c0,0.1,0,0.1,0,0.1c0,0.2-0.1,0.5-0.2,0.8c-0.2-0.1-0.2-0.6-0.2-0.7c-0.1-0.6-0.1-1.2,0-1.7c0,0,0,0,0,0
			c0-0.4-0.4-0.6-0.8-0.5c-0.4,0.1-0.7,0.4-0.9,0.8c-0.2,0.4-0.3,0.9-0.3,1.4c0,0.3-0.1,0.5-0.1,0.8c0,0,0,0.1,0,0.1
			c-0.1,0-0.1-0.1-0.1-0.2c-0.1-0.2-0.2-0.6-0.2-0.8c-0.1-0.5-0.2-1.2,0-1.7c0-0.1,0-0.2-0.2-0.2c-0.2,0-0.4,0.2-0.5,0.4
			c0,0,0,0.1,0,0.1l0,0l0,0c-0.1,0.3-0.2,0.6-0.3,1c-0.1-0.4-0.2-0.9-0.1-1.2c0-0.1,0-0.2-0.2-0.2c-0.2,0-0.3,0.2-0.4,0.3
			c-0.3,0.6-0.3,1.3-0.3,1.9c0,0.3,0,0.6-0.1,0.9c0,0,0,0,0,0c-0.2-0.1-0.2-0.4-0.2-0.6c0-0.2-0.3,0-0.4,0.1
			c-0.1,0.1-0.2,0.3-0.2,0.5c0.1,0.4,0.4,1,0.9,0.6c0.3-0.2,0.5-0.6,0.6-1c0.1,0.3,0.1,0.5,0.2,0.8c0.1,0.4,0.6-0.2,0.6-0.4
			c0-0.2,0-0.3,0-0.5c0.2,0.7,0.5,1.1,1,0.7c0.1-0.1,0.2-0.2,0.3-0.3c0.1,0.2,0.2,0.3,0.3,0.4c0.3,0.1,0.7-0.1,0.9-0.4c0,0,0,0,0,0
			c0,0.1,0.1,0.2,0.1,0.3c0.1,0.1,0.3,0.1,0.4,0.1c0.3,0,0.5-0.3,0.6-0.5c0.3,0.5,0.9,0.6,1.4,0.3c0.2-0.1,0.4-0.3,0.5-0.4
			c0,0,0,0.1,0.1,0.1c0.2,0.5,0.9,0.7,1.4,0.4c0.2-0.1,0.3-0.2,0.5-0.3c0,0.2,0.1,0.4,0.3,0.6c0.3,0.2,0.7,0,0.9-0.2c0,0,0,0,0,0
			c0,0.1,0.1,0.2,0.1,0.3c0.2,0.3,0.6,0.2,0.8,0c0.1-0.1,0.3-0.2,0.3-0.4C86,54.6,85.7,54.7,85.7,54.7z M78.3,54c0,0,0,0.1,0,0.2
			c0,0-0.1,0-0.1,0c-0.1,0-0.2-0.3-0.2-0.4c-0.2-0.5-0.1-1,0-1.5c0-0.1,0.1-0.4,0.2-0.5c0,0,0,0,0,0c0,0,0.1,0,0.1,0
			c0.2,0,0.3,0.1,0.3,0.3C78.4,52.7,78.4,53.4,78.3,54z M84.6,54.4c0,0,0,0.1-0.1,0.1c0,0-0.1,0-0.1,0c-0.1-0.1-0.2-0.3-0.2-0.4
			c-0.1-0.5,0-1,0.1-1.5c0-0.1,0.2-0.4,0.2-0.4c0,0,0,0,0,0c0,0,0.1,0,0.1,0c0.2,0,0.2,0.2,0.2,0.3C84.9,53.1,84.8,53.7,84.6,54.4z"
			/>
	</g>
	<g id="XMLID_119_">
		<g id="XMLID_120_">
			<path id="XMLID_132_" class="st3" d="M76.9,61.7c-0.1,0.5,0.7,0.5,1,0.3c0.3-0.2,0.3-0.4,0.4-0.7c0.1-0.4,0.2-0.8,0.4-1.1
				c-0.1,0-0.3,0.1-0.5,0.1c-0.1,0.4-0.1,0.8-0.1,1.2c0,0.2,0,0.6,0.2,0.8c0.1,0.1,0.4,0.1,0.5,0c0.3-0.1,0.6-0.3,0.7-0.6
				c0.1-0.3-0.4-0.1-0.4,0.1c-0.2,0.5-0.4,0.1-0.4-0.2c-0.1-0.5,0-1,0.1-1.5c0-0.3-0.4,0-0.5,0.1c-0.2,0.2-0.3,0.5-0.4,0.7
				c-0.1,0.2-0.1,0.3-0.2,0.5c0,0.1-0.1,0.2-0.1,0.2c-0.1,0.2-0.2,0-0.2-0.1C77.5,61.4,76.9,61.5,76.9,61.7L76.9,61.7z"/>
			<g id="XMLID_129_">
				<path id="XMLID_131_" class="st3" d="M80.5,60.1c-0.5,0.1-0.7,0.7-0.7,1.1c0,0.3-0.1,1.2,0.5,1.3c0.6,0,0.8-0.7,0.8-1.1
					C81.1,61.1,81,60.2,80.5,60.1c-0.1,0-0.4,0.4-0.3,0.4c0.5,0,0.4,1.3,0.2,1.6c0.1-0.1,0.1,0,0-0.1c-0.1,0-0.1-0.1-0.1-0.2
					c-0.1-0.1-0.1-0.3-0.1-0.5c0-0.2,0-0.3,0-0.5c0-0.1,0-0.1,0-0.2c0,0,0-0.1,0-0.1c0-0.1,0-0.1,0,0C80.4,60.5,80.7,60.1,80.5,60.1
					z"/>
				<path id="XMLID_130_" class="st3" d="M79.1,60.4c0.1,0.6,0,1.3-0.1,1.9c0,0.2,0.5,0,0.5-0.2c0.1-0.5,0.6-0.8,0.8-1.3
					c0.1-0.3-0.3,0-0.4,0.1c-0.1,0.3-0.3,0.5-0.5,0.7c-0.2,0.2-0.3,0.4-0.3,0.7c0.2-0.1,0.3-0.1,0.5-0.2c0.1-0.7,0.2-1.3,0-2
					C79.5,60,79.1,60.2,79.1,60.4L79.1,60.4z"/>
			</g>
			<path id="XMLID_128_" class="st3" d="M83.7,60.6c0.3-0.5,0.8,1.6,0.1,0.6c-0.3-0.5-0.4-1.1-0.5-1.6c0-0.2,0-0.4,0-0.6
				c0.1-0.1,0.2-0.1,0.2,0.1c0,0.1,0,0.3,0,0.4c0,0.5-0.1,1-0.3,1.5c-0.1,0.3,0.3,0.1,0.4-0.1c0.1-0.3,0.6-2.7-0.2-2.5
				c-0.9,0.2-0.5,2-0.4,2.5c0.1,0.3,0.2,1.2,0.7,1.2c0.4,0,0.7-0.4,0.8-0.7c0.2-0.4,0-1-0.4-1.2c-0.3-0.3-0.7,0.3-0.8,0.5
				C83.2,61,83.6,60.9,83.7,60.6L83.7,60.6z"/>
			<path id="XMLID_127_" class="st3" d="M85,59.1c-0.4,0.3-0.4,0.9-0.3,1.3c0.1,0.3,0.4,1.2,0.9,1c0.6-0.2,0.5-1,0.4-1.4
				C85.9,59.7,85.5,58.9,85,59.1c-0.1,0-0.3,0.5-0.1,0.5c0.3-0.1,0.5,0.2,0.6,0.4c0.1,0.2,0.2,0.3,0.2,0.5c0,0.1,0,0.1,0,0.2
				c0,0.1,0,0.2,0,0.1c-0.2,0.2-0.5-0.3-0.6-0.4c-0.1-0.2-0.1-0.3-0.2-0.5c0-0.1,0-0.2,0-0.3c0-0.1,0-0.1,0-0.1
				C85.1,59.5,85.2,58.9,85,59.1z"/>
			<path id="XMLID_126_" class="st3" d="M86.2,58.1c0.1,0,0.2,0.1,0.3,0c0.3-0.1,0.3-0.6,0.3-0.8c0-0.1-0.1-0.2-0.2-0.1
				c-0.1,0.1-0.1,0.2-0.1,0.4c0,0,0,0.1,0,0.1c0,0,0,0,0,0c0,0.1,0,0,0,0c0,0,0,0,0,0c0,0,0,0,0,0c0,0,0,0,0,0c0,0,0,0,0,0
				c0,0,0,0,0,0c0,0,0,0,0,0c0,0,0,0,0,0c0,0-0.1,0,0,0c-0.1-0.1-0.2,0.1-0.2,0.2C86.2,57.8,86.1,58.1,86.2,58.1L86.2,58.1z"/>
			<path id="XMLID_125_" class="st3" d="M88.4,59.3c-0.1,0.4-0.7-0.3-0.7-0.4c-0.2-0.3-0.4-0.6-0.6-0.9c-0.1-0.2-0.3,0.3-0.3,0.4
				c0.1,0.3,0.3,0.6,0.4,0.8c0.1,0.2,0.1,0.3,0.2,0.5c0,0.2,0.1,0.2-0.1,0.2c-0.5,0-0.8-1-0.9-1.4c-0.1-0.3-0.3,0.2-0.3,0.3
				c0.1,0.4,0.5,2.2,1.3,1.6c0.9-0.7,0-1.9-0.3-2.5c-0.1,0.2-0.2,0.3-0.3,0.4c0.3,0.5,0.5,1.1,1,1.4c0.4,0.3,0.8-0.2,0.9-0.6
				C88.9,58.9,88.5,58.9,88.4,59.3L88.4,59.3z"/>
			<path id="XMLID_124_" class="st3" d="M85.2,59.5c0.6,0.3,1-0.2,1.2-0.7c0.1-0.2,0-0.5-0.2-0.2C86,59,85.8,59.2,85.4,59
				C85.2,59,85,59.5,85.2,59.5L85.2,59.5z"/>
			<path id="XMLID_123_" class="st3" d="M73.6,58.5c0.1-0.4,0-0.7-0.5-0.7c-0.5,0-0.9,0.4-1.2,0.8c-0.2,0.3-0.4,0.7-0.1,1.1
				c0.3,0.4,1,0.4,1.4,0.4c0.3,0,0.2-0.3-0.1-0.3c-0.3,0-0.5,0-0.7-0.2c-0.2-0.2-0.1-0.5,0-0.6c0.1-0.2,0.2-0.4,0.4-0.6
				c0,0,0.1-0.1,0.1-0.1c0.1-0.1,0.2-0.1,0.1,0c0.1,0.1,0,0.3,0,0.4C73.1,58.7,73.6,58.7,73.6,58.5L73.6,58.5z"/>
			<path id="XMLID_122_" class="st3" d="M75.7,59.4c-0.1,0.8-0.4,1.5-0.7,2.1c-0.1,0.2,0.5,0.1,0.5,0c0.1-0.3,0.3-0.6,0.5-0.9
				c0.1-0.2,0.3-0.7,0.6-0.4c0.2-0.1,0.3-0.2,0.5-0.2c-0.7-0.7-1.4,0.4-1.6,0.8c-0.1,0.1,0.1,0.1,0.2,0.1c0.6,0,0.1,0.7,0.3,0.9
				c0.3,0.3,1,0,1.2-0.1c0.3-0.1,0.1-0.4-0.2-0.2c-0.4,0.1-0.6,0.2-0.5-0.1c0-0.2,0-0.3,0-0.5c-0.1-0.3-0.4-0.3-0.7-0.3
				c0.1,0,0.1,0.1,0.2,0.1c0.1-0.2,0.3-0.8,0.6-0.5c0.1,0.2,0.6-0.1,0.5-0.2c-0.9-1-1.9,1.2-2.1,1.6c0.2,0,0.4,0,0.5,0
				c0.3-0.7,0.6-1.5,0.7-2.2C76.2,59,75.8,59.2,75.7,59.4L75.7,59.4z"/>
			<path id="XMLID_121_" class="st3" d="M81.1,60.2c0.2,0.7,0.2,1.5,0.2,2.2c0,0.2,0.5-0.1,0.5-0.3c0-0.3,0-0.7,0.1-1
				c0-0.2,0-0.7,0.4-0.6c0.1-0.1,0.2-0.3,0.3-0.4c-0.9-0.3-1.1,0.9-1.2,1.4c0,0.1,0.2,0.1,0.2,0c0.5-0.3,0.4,0.6,0.6,0.7
				c0.4,0.1,0.9-0.4,1.1-0.6c0.3-0.3,0-0.4-0.3-0.1c-0.3,0.3-0.4,0.4-0.5,0.1c-0.1-0.1-0.1-0.3-0.2-0.4c-0.2-0.3-0.5-0.1-0.7,0
				c0.1,0,0.1,0,0.2,0c0-0.2,0-0.9,0.4-0.7c0.2,0.1,0.5-0.4,0.3-0.4c-1.2-0.5-1.2,1.9-1.2,2.3c0.2-0.1,0.3-0.2,0.5-0.3
				c0-0.8-0.1-1.6-0.3-2.3C81.4,59.7,81.1,60,81.1,60.2L81.1,60.2z"/>
		</g>
	</g>
	<g id="XMLID_106_">
		<path id="XMLID_118_" class="st5" d="M103.8,59.9c0,0,0.9,0.2,1.5-1.4c0,0,0.6-1.4,0.2-1.9c0,0-0.6-0.3-1.4,1.2
			C104.1,57.9,103.2,59.6,103.8,59.9z"/>
		<path id="XMLID_117_" class="st5" d="M102.6,62.7c0,0,0.5,0.7,2.1-0.1c0,0,1.4-0.7,1.4-1.3c0,0-0.3-0.6-1.9,0
			C104.2,61.3,102.4,62,102.6,62.7z"/>
		<path id="XMLID_116_" class="st7" d="M100.6,63.3l1.1,1.6c0,0-0.5,0.4-0.5,0.3c-0.1-0.6-0.9-1.8-0.9-1.8L100.6,63.3z"/>
		<path id="XMLID_115_" class="st7" d="M103.2,62.8l0.4,1.9c0,0-0.5,0.2-0.5,0.1c0.1-0.6-0.2-2-0.2-2L103.2,62.8z"/>
		<path id="XMLID_114_" class="st7" d="M105.4,61.3l1.2,1c0,0-0.2,0.4-0.3,0.3c-0.2-0.4-1-1.2-1-1.2L105.4,61.3z"/>
		<path id="XMLID_113_" class="st5" d="M98.2,62c0,0-0.8,0.4-0.4,2c0,0,0.4,1.5,1,1.6c0,0,0.7-0.2,0.4-1.8
			C99.1,63.9,98.8,62,98.2,62z"/>
		<path id="XMLID_112_" class="st5" d="M98.5,62.1c0,0-0.5-0.7-2.1-0.1c0,0-1.4,0.6-1.5,1.2c0,0,0.2,0.6,1.8,0.2
			C96.8,63.3,98.6,62.7,98.5,62.1z"/>
		<path id="XMLID_111_" class="st5" d="M98.3,62.3c0,0,0.3-0.8-1.1-1.7c0,0-1.3-0.8-1.8-0.5c0,0-0.4,0.6,1,1.6
			C96.4,61.6,97.9,62.8,98.3,62.3z"/>
		<path id="XMLID_110_" class="st5" d="M99.8,60.8c0,0,0.4-0.8-0.8-1.9c0,0-1.2-1-1.7-0.8c0,0-0.5,0.5,0.7,1.7
			C97.9,59.8,99.2,61.2,99.8,60.8z"/>
		<path id="XMLID_109_" class="st5" d="M102.8,60.1c0,0,0.9-0.2,0.8-1.9c0,0-0.1-1.5-0.6-1.8c0,0-0.7,0-0.7,1.7
			C102.2,58.1,102.1,60,102.8,60.1z"/>
		<path id="XMLID_108_" class="st5" d="M102.8,59.9c0,0,0.4-0.7-0.7-1.8c0,0-1.1-1-1.6-0.8c0,0-0.4,0.5,0.6,1.6
			C101.1,58.9,102.3,60.3,102.8,59.9z"/>
		
			<rect id="XMLID_107_" x="97.9" y="61.2" transform="matrix(0.6981 -0.716 0.716 0.6981 -14.0677 89.3578)" class="st7" width="2" height="0.3"/>
	</g>
	<g id="XMLID_101_">
		<circle id="XMLID_105_" class="st4" cx="102.8" cy="62.1" r="1.5"/>
		<circle id="XMLID_104_" class="st8" cx="102.7" cy="62.3" r="1.3"/>
		
			<ellipse id="XMLID_103_" transform="matrix(-0.9447 0.3278 -0.3278 -0.9447 220.4431 88.4504)" class="st4" cx="102.8" cy="62.8" rx="1" ry="0.8"/>
		<circle id="XMLID_102_" class="st8" cx="102.7" cy="63" r="0.5"/>
	</g>
	<g id="XMLID_96_">
		<circle id="XMLID_100_" class="st4" cx="101.1" cy="60.2" r="1.5"/>
		<circle id="XMLID_99_" class="st8" cx="101" cy="60" r="1.3"/>
		
			<ellipse id="XMLID_98_" transform="matrix(0.6981 -0.716 0.716 0.6981 -12.2292 90.1357)" class="st4" cx="100.8" cy="59.6" rx="1" ry="0.8"/>
		<circle id="XMLID_97_" class="st8" cx="100.7" cy="59.3" r="0.5"/>
	</g>
	<g id="XMLID_91_">
		<circle id="XMLID_95_" class="st4" cx="100.4" cy="62.9" r="1.5"/>
		<circle id="XMLID_94_" class="st8" cx="100.3" cy="62.7" r="1.3"/>
		
			<ellipse id="XMLID_93_" transform="matrix(0.6982 -0.7159 0.7159 0.6982 -14.3776 90.4223)" class="st4" cx="100.1" cy="62.3" rx="1" ry="0.8"/>
		<circle id="XMLID_92_" class="st8" cx="100" cy="62" r="0.5"/>
	</g>
	<g id="XMLID_86_">
		<circle id="XMLID_90_" class="st4" cx="104.7" cy="59.9" r="1.5"/>
		<circle id="XMLID_89_" class="st8" cx="104.5" cy="59.8" r="1.3"/>
		
			<ellipse id="XMLID_88_" transform="matrix(0.2674 -0.9636 0.9636 0.2674 18.8951 143.9058)" class="st4" cx="104.1" cy="59.5" rx="1" ry="0.8"/>
		<circle id="XMLID_87_" class="st8" cx="103.9" cy="59.4" r="0.5"/>
	</g>
	<g id="XMLID_81_">
		<path id="XMLID_85_" class="st9" d="M60.7,42.7c-0.1,0-0.2-0.1-0.2-0.2c-0.3-0.1-0.6,0.1-0.9,0.1c-0.8,0-1,0-2-0.3
			c0-0.8,0.5-1.3,0.7-1.9c0.2-0.5-0.1-1.2-0.1-1.8c0-0.4,0-0.7,0-1.1c-0.3,0.2-0.1,1-0.2,1.3c-0.1-0.5-0.1-1.1-0.3-1.5
			c-0.1,0.5,0,1.1,0,1.5c-0.1-0.4-0.2-0.9-0.3-1.3c-0.2,0.4,0.1,1.1,0.1,1.5c-0.2-0.4-0.2-0.8-0.4-1.2c-0.1,0.5,0.2,0.9,0.1,1.3
			c-0.2-0.3-0.2-0.7-0.5-0.9c0,0.3,0.2,0.7,0.3,1c-0.2-0.1-0.3-0.4-0.5-0.5c0,0.3,0.2,0.4,0.3,0.6c-0.2-0.1-0.2-0.3-0.4-0.3
			c0,0.2,0.2,0.3,0.3,0.5c-0.1-0.1-0.2-0.2-0.3-0.2c0,0.2,0.3,0.3,0.2,0.4c0,0-0.2-0.1-0.2,0c0,0,0.2,0.1,0.1,0.1
			c-0.1,0-0.1,0-0.1,0c0,0.1,0.1,0.1,0.1,0.2c0,0-0.1,0-0.1,0c0,0.1,0.1,0.1,0.1,0.2c-0.7,0.7-0.3,1.4-0.4,2.2c0-0.1-0.5-0.2-1-0.4
			c-0.2-0.1-0.3-0.4-0.5-0.5c0,0,0.1,0,0.1-0.1c-0.1,0-0.2-0.1-0.2-0.1c0.1,0,0.2,0,0.3,0c-0.1-0.1-0.4-0.1-0.4-0.3
			c0.2,0,0.3,0.1,0.4,0.1c-0.2-0.1-0.5-0.2-0.5-0.4c0.2,0.1,0.4,0.2,0.6,0.1c-0.3-0.1-0.7-0.4-0.7-0.6c0.2,0.1,0.5,0.3,0.7,0.3
			c-0.3-0.1-0.6-0.5-0.9-0.5c0.1,0.3,0.6,0.5,0.7,0.7c-0.2-0.2-0.5-0.3-0.8-0.4c0.1,0.3,0.5,0.4,0.7,0.6c-0.2,0-0.4-0.1-0.6-0.1
			c0.1,0.3,0.5,0.2,0.6,0.4c-0.1-0.1-0.3,0-0.4,0c0,0.2,0.3,0.1,0.4,0.2c-0.1,0-0.3,0-0.3,0.1c0.1,0.1,0.3,0,0.3,0.1
			c-0.1,0-0.2,0-0.2,0.1c0,0.1,0.2,0,0.2,0.1c0,0-0.1,0-0.1,0.1c0.1,0,0.1,0,0.1,0c0,0-0.1,0-0.1,0.1c0.4,0.2,0.5,0.8,1,0.9
			c-0.3,0.2,0.3,0.4-2.8,1.4c0.1,0,1.4-0.3,1.7-0.4c0.4-0.1,0.8-0.2,1.1-0.4c0.1,0,0.2-0.1,0.3-0.1c0.6-0.1,1.2,0.1,1.8-0.4
			c-0.5,0.1-1.3,0.2-1.6-0.1c0.4-0.7,0.1-2.3,0.5-2.7c0.4-0.3,0.9-1.4,1.5-0.5c0.1,0.1,0.1,0.4-0.1,0.7c-0.3,0.5-0.5,0.7-0.4,1.7
			c0,0.2,0,0.4-0.3,0.4c1.3,0.3,1.7,0.1,2.5,0c0.3,0,0.6-0.2,0.7,0c0,0.1-0.3,0.1-0.5,0.1c-0.4,0,0.2,0.1,0.3,0.1
			c0.1,0,0.8-0.1,1.2-0.2C61.1,42.8,61,42.8,60.7,42.7z"/>
		<path id="XMLID_82_" class="st9" d="M56.8,35.8c-3.1,0-5.6,2.5-5.6,5.6c0,3.1,2.5,5.6,5.6,5.6c3.1,0,5.6-2.5,5.6-5.6
			C62.4,38.3,59.9,35.8,56.8,35.8 M56.8,36c3,0,5.4,2.4,5.4,5.4c0,3-2.4,5.4-5.4,5.4c-3,0-5.4-2.4-5.4-5.4
			C51.4,38.4,53.8,36,56.8,36"/>
	</g>
</g>
</svg>
