<?xml version="1.0" encoding="utf-8"?>
<!-- Generator: Adobe Illustrator 19.0.0, SVG Export Plug-In . SVG Version: 6.00 Build 0)  -->
<svg version="1.1" id="Layer_1" xmlns="http://www.w3.org/2000/svg" xmlns:xlink="http://www.w3.org/1999/xlink" x="0px" y="0px"
	 viewBox="0 0 160.2 91.9" style="enable-background:new 0 0 160.2 91.9;" xml:space="preserve">
<style type="text/css">
	.st0{fill:#EFEFEF;}
	.st1{fill:#DDDDDD;}
	.st2{fill:#E0E0E0;}
	.st3{fill:#FFFFFF;}
	.st4{fill:#5C308F;}
	.st5{fill:#62BA47;}
	.st6{fill-rule:evenodd;clip-rule:evenodd;fill:#5C308F;}
	.st7{fill-rule:evenodd;clip-rule:evenodd;fill:#62BA47;}
	.st8{fill-rule:evenodd;clip-rule:evenodd;fill:#82BC00;}
	.st9{fill-rule:evenodd;clip-rule:evenodd;fill:#824098;}
	.st10{fill-rule:evenodd;clip-rule:evenodd;}
	.st11{fill-rule:evenodd;clip-rule:evenodd;fill:#F3F4F5;}
	.st12{fill:#62BA46;}
</style>
<g id="XMLID_191_">
	<path id="XMLID_196_" class="st0" d="M137.9,20.1h-17.6h-7.2H47.3h-7.1H22.5L30.1,70l0,0c0.7,4.9,5,8.7,10.1,8.7h80.1
		c5.5,0,10-4.3,10.2-9.8L137.9,20.1z"/>
	<path id="XMLID_195_" class="st1" d="M120.3,20.1h-7.2H80.2v58.5h40.1c5.5,0,10-4.3,10.2-9.8l7.4-48.8H120.3z"/>
	<path id="XMLID_194_" class="st2" d="M138.8,16.8c0,1.3-1.1,2.4-2.4,2.4H23.9c-1.3,0-2.4-1.1-2.4-2.4l0,0c0-1.3,1.1-2.4,2.4-2.4
		h112.5C137.7,14.4,138.8,15.4,138.8,16.8L138.8,16.8z"/>
	<path id="XMLID_193_" class="st3" d="M141.5,20.1c0,1.3-1.1,2.4-2.4,2.4H20.4c-1.3,0-2.4-1.1-2.4-2.4l0,0c0-1.3,1.1-2.4,2.4-2.4
		h118.7C140.5,17.7,141.5,18.8,141.5,20.1L141.5,20.1z"/>
	<path id="XMLID_192_" class="st3" d="M38.1,39.8c0.3,2.2-1.2,4.1-3.4,4.5l0,0c-2.2,0.3-4.2-1.2-4.5-3.4l-1.5-10.5
		c-0.3-2.2,1.2-4.2,3.4-4.5l0,0c2.2-0.3,4.2,1.2,4.5,3.4L38.1,39.8z"/>
</g>
<g id="XMLID_80_">
	<circle id="XMLID_190_" class="st4" cx="81.4" cy="49" r="16.1"/>
	<g id="XMLID_183_">
		<circle id="XMLID_189_" class="st5" cx="68.5" cy="63.3" r="5.1"/>
		<g id="XMLID_185_">
			<path id="XMLID_188_" class="st3" d="M70.8,61.9c-0.6,1-1.4,2-2.1,2.9c-0.3,0.4,0.2,0.4,0.4,0.1c0.8-1,1.6-2,2.2-3.1
				C71.6,61.4,70.9,61.6,70.8,61.9L70.8,61.9z"/>
			<path id="XMLID_187_" class="st3" d="M69.7,61.6c-0.4,0-0.7,0.4-0.7,0.7c-0.1,0.3,0.1,0.6,0.5,0.6C70.1,63,70.5,61.6,69.7,61.6
				c-0.2,0-0.5,0.4-0.2,0.4c0.2,0,0.3,0.2,0.3,0.3c0,0.1,0,0.1,0,0.2c0,0.1,0,0,0,0c0,0-0.1,0-0.1,0c-0.2,0-0.3-0.2-0.3-0.3
				c0-0.1,0-0.1,0-0.2c0,0,0,0,0,0c0,0,0.1,0,0.1,0C69.6,62,69.9,61.6,69.7,61.6z"/>
			<path id="XMLID_186_" class="st3" d="M70.7,63.8c-0.4,0-0.7,0.4-0.7,0.7c-0.1,0.3,0.1,0.6,0.5,0.6C71.2,65.1,71.6,63.8,70.7,63.8
				c-0.2,0-0.5,0.4-0.2,0.4c0.2,0,0.3,0.2,0.3,0.3c0,0.1,0,0.1,0,0.2c0,0.1,0,0,0,0c0,0-0.1,0-0.1,0c-0.2,0-0.3-0.2-0.3-0.3
				c0-0.1,0-0.1,0-0.2c0,0,0,0,0,0c0,0,0.1,0,0.1,0C70.7,64.2,71,63.8,70.7,63.8z"/>
		</g>
		<path id="XMLID_184_" class="st3" d="M66.8,63c-0.2-0.1-0.8-0.7-0.4-1c0.2-0.1,0.4-0.1,0.6,0c0.5,0.1,0.1,0.5-0.1,0.7
			c-0.1,0.1-0.9,0.7-0.6,0.9c0.4,0.3,1.1,0,1.1,0.6c0,0.4-0.7,0.5-1,0.3c-0.4-0.3-0.4-0.7,0.1-1c0.2-0.1,0.4-0.7,0-0.5
			c-0.5,0.3-1,0.7-1,1.3c0,0.4,0.4,0.8,0.8,0.9c0.6,0.1,1.2-0.3,1.5-0.8c0.3-0.4,0.3-1-0.3-1.2c-0.2,0-0.6-0.2-0.7,0
			c0.2-0.3,0.5-0.4,0.7-0.7c0.4-0.5,0.2-1.1-0.4-1.2c-0.6-0.1-1.1,0.3-1.3,0.8c-0.3,0.6,0,1.1,0.5,1.4C66.6,63.7,67,63.2,66.8,63
			L66.8,63z"/>
	</g>
	<path id="XMLID_182_" class="st6" d="M73.7,29.2c0,1.1-0.9,2.1-2.1,2.1c-1.1,0-2.1-0.9-2.1-2.1c0-1.1,0.9-2.1,2.1-2.1
		C72.8,27.1,73.7,28.1,73.7,29.2L73.7,29.2z"/>
	<path id="XMLID_181_" class="st7" d="M73.8,36.2c0,1.5-1.2,2.6-2.6,2.6c-1.5,0-2.7-1.2-2.7-2.6c0-1.5,1.2-2.7,2.7-2.7
		C72.6,33.5,73.8,34.7,73.8,36.2L73.8,36.2z"/>
	<path id="XMLID_180_" class="st7" d="M66.7,32.1c0,0.9-0.7,1.6-1.6,1.6c-0.9,0-1.6-0.7-1.6-1.6c0-0.9,0.7-1.6,1.6-1.6
		C66,30.5,66.7,31.2,66.7,32.1L66.7,32.1z"/>
	<g id="XMLID_166_">
		<circle id="XMLID_179_" class="st5" cx="95.2" cy="34.2" r="8.9"/>
		<g id="XMLID_167_">
			<path id="XMLID_176_" class="st3" d="M93,33c-0.7,0.1-0.9,1-1,1.6l0,0l0,0c0,0.1,0,0.2,0,0.3c0,0.3,0,0.5,0,0.8
				c0,0.1-0.1,0.3-0.1,0.3c-0.3,0-0.5-0.4-0.5-0.6c-0.2-0.5-0.3-0.9-0.4-1.4c-0.1-0.5-0.1-1-0.2-1.6c0-0.2,0-0.4,0-0.7
				c0-0.1,0-0.2,0-0.3c0-0.1,0-0.1,0-0.1c0.1-0.4-0.5,0-0.6,0.2c-0.6,1-0.4,2.3-0.4,3.4c0,0.3,0,0.6-0.1,0.9c0,0.2-0.1,0.6-0.2,0.7
				c-0.1,0.1-0.3,0-0.4,0c-0.1-0.1-0.2-0.2-0.3-0.4c0-0.2-0.2-0.1-0.3,0c-0.1,0.1-0.3,0.4-0.2,0.5c0.1,0.4,0.4,0.8,0.8,0.6
				c0.7-0.2,0.9-1,1.1-1.6c0.1-0.3,0.1-0.6,0.1-0.9c0.1,0.4,0.2,0.9,0.4,1.3c0.1,0.3,0.4,0.6,0.8,0.5c0.3-0.1,0.5-0.4,0.6-0.7
				c0.1,0.3,0.3,0.5,0.7,0.5c0.4,0,0.7-0.4,0.8-0.7c0.2-0.4,0.2-0.8,0.2-1.1C93.9,34,93.7,32.9,93,33z M93.2,35.5
				c0,0.1,0,0.1-0.1,0.2c-0.1,0-0.2-0.2-0.3-0.3c-0.1-0.2-0.2-0.5-0.2-0.8c0-0.3,0-0.6,0-0.8c0-0.1,0-0.1,0.1-0.2
				c0.4,0.2,0.4,0.7,0.5,1.1C93.3,35,93.3,35.3,93.2,35.5z"/>
			<path id="XMLID_173_" class="st3" d="M101.8,34c-0.8-0.3-1.2,0.8-1.4,1.4c-0.1,0.6-0.3,1.5,0.4,1.8c0.3,0.1,0.7-0.1,0.9-0.3
				c0.2-0.3,0.4-0.6,0.5-1C102.4,35.3,102.5,34.3,101.8,34z M101.3,36.6c0,0.1-0.1,0.1-0.1,0.2c-0.1-0.1-0.2-0.3-0.2-0.4
				c0-0.3,0-0.6,0-0.8c0.1-0.3,0.1-0.5,0.3-0.8c0-0.1,0.1-0.1,0.1-0.2c0.3,0.4,0.2,0.8,0.1,1.3C101.5,36,101.5,36.3,101.3,36.6z"/>
			<path id="XMLID_168_" class="st3" d="M99.7,34.1c0.1-0.2,0.3-0.4,0.4-0.6c0.3-0.4,0.6-1,0.6-1.5c0-0.5-0.7-0.5-1.1-0.4
				c-0.5,0.2-0.8,0.8-0.9,1.3c-0.2,0.7-0.3,1.4-0.3,2.1c0,0,0,0,0,0c-0.2,0.3-0.8,0.9-1.2,0.7c-0.1-0.1-0.2-0.2-0.2-0.3
				c0.3-0.3,0.6-0.7,0.9-1.1c0.2-0.4,0.4-1-0.1-1.2c-0.4-0.2-0.9,0-1.1,0.3c-0.3,0.3-0.4,0.7-0.4,1.1c0,0.2,0,0.6,0,0.9
				c-0.2,0.1-0.5,0.2-0.8,0.2c-0.3-0.1-0.4-0.4-0.5-0.6c-0.1-0.4-0.1-0.8,0-1.1c0-0.1,0-0.2,0.1-0.3c0,0,0-0.1,0-0.1
				c0.2,0.1,0.3,0.4,0.3,0.5c0.1,0.3,0.8-0.2,0.7-0.4c-0.1-0.3-0.2-0.5-0.5-0.7c-0.3-0.1-0.7,0.1-0.8,0.3c-0.5,0.5-0.5,1.2-0.5,1.8
				c0,0.4,0.1,0.9,0.5,1.1c0.5,0.3,1.1,0,1.6-0.3c0.1,0.3,0.3,0.5,0.7,0.5c0.5-0.1,0.9-0.3,1.3-0.7c0,0.4,0.1,0.8,0.4,0.9
				c0.4,0.2,0.9,0,1.2-0.4c0.4-0.5,0.6-1.1,0.4-1.7C100.1,34.3,99.9,34.1,99.7,34.1z M97,33.8c0-0.1,0.1-0.2,0.1-0.3c0,0,0,0,0,0
				c0.2,0,0.2,0.3,0.2,0.4c0,0.3-0.2,0.6-0.5,0.9c0-0.1,0-0.1,0-0.2C96.8,34.4,96.9,34.1,97,33.8z M99.5,32.4
				c0.1-0.1,0.1-0.2,0.2-0.3c0,0,0,0,0,0c0.3,0.3,0,0.8-0.2,1.2c-0.2,0.3-0.4,0.6-0.6,0.9c0-0.3,0.1-0.6,0.2-0.9
				C99.3,32.9,99.4,32.7,99.5,32.4z M99.4,36c0,0-0.1,0.1-0.1,0.1c0,0,0,0-0.1,0C99,36,99,35.6,99,35.4c0-0.2,0-0.3,0-0.5
				c0.1-0.1,0.2-0.2,0.3-0.3c0.2-0.1,0.3,0.1,0.3,0.3C99.6,35.3,99.5,35.7,99.4,36z"/>
		</g>
	</g>
	<g id="XMLID_140_">
		<g id="XMLID_145_">
			<g id="XMLID_146_">
				<path id="XMLID_163_" class="st3" d="M81.2,44.3C81.1,44.3,81.1,44.3,81.2,44.3c-0.1,0-0.1,0-0.1,0c-0.9,0.1-1.1,1.3-1.1,2
					c0,0.6,0.1,1.8,0.9,1.8c0.4,0,0.7-0.4,0.9-0.7c0.2-0.4,0.3-0.8,0.3-1.2C82,45.6,82,44.4,81.2,44.3z M81.3,47.2
					c0,0.1,0,0.1-0.1,0.2c0,0,0,0.1,0,0.1c0,0,0,0,0,0c-0.5,0-0.6-1-0.6-1.3c0-0.3,0-0.6,0.1-0.9c0-0.1,0.1-0.2,0.1-0.3
					c0.5,0,0.6,1,0.6,1.3C81.4,46.5,81.3,46.9,81.3,47.2z"/>
				<path id="XMLID_157_" class="st3" d="M78.9,44.5c-0.3-0.1-0.6,0-0.9,0.2c-0.1-0.2-0.1-0.4-0.2-0.7c-0.1-0.2-0.4,0-0.5,0.1
					c-0.1,0.1-0.2,0.2-0.2,0.3c0,0,0,0,0,0.1c0,0.2-0.1,0.3-0.1,0.4c0,0,0,0-0.1,0.1c-0.2,0.1-0.5,0-0.6-0.1c0,0,0,0,0,0
					c-0.1,0-0.2-0.1-0.4-0.1c0,0,0,0-0.1,0c0,0,0,0,0,0c-1,0.2-1,1.5-0.9,2.1c0.1,0.6,0.4,1.8,1.2,1.6c0.4-0.1,0.7-0.5,0.9-0.9
					c0.2-0.4,0.2-0.8,0.1-1.3c0-0.2-0.1-0.6-0.2-0.9c0.1-0.1,0.3-0.2,0.4-0.3c0.2,0.9,0.3,1.8,0.4,2.7c0.1,0.8,0.2,1.7,0.2,2.5
					c0,0.2,0.2,0.1,0.3,0.1c0.1-0.1,0.3-0.3,0.3-0.5c0-0.6,0-1.2-0.1-1.7c0.2,0,0.5-0.2,0.7-0.4c0.4-0.5,0.5-1.3,0.4-1.9
					C79.6,45.5,79.5,44.7,78.9,44.5z M76.5,47.6c0,0.1,0,0.1,0,0.2c0,0,0,0.1,0,0.1c0,0,0,0,0,0C76,48,75.7,47,75.7,46.8
					c-0.1-0.3-0.1-0.6-0.1-0.9c0-0.1,0-0.2,0.1-0.3c0,0,0.1,0,0.1,0c0,0,0,0,0,0c0,0,0.1,0,0.1,0c0.3,0.2,0.5,0.8,0.5,1.1
					C76.5,47,76.6,47.3,76.5,47.6z M78.3,45.1C78.3,45.1,78.3,45.1,78.3,45.1L78.3,45.1z M78.9,47.6C78.9,47.6,78.9,47.6,78.9,47.6
					L78.9,47.6z M78.9,47.5C78.9,47.5,78.9,47.6,78.9,47.5C78.9,47.6,78.9,47.6,78.9,47.5c-0.3,0.1-0.5-0.1-0.5-0.3c0,0,0,0,0-0.1
					c0-0.5-0.1-1-0.2-1.5c0,0,0,0,0,0c0-0.2,0-0.3,0-0.5c0,0,0,0,0,0c0,0,0,0,0,0c0.1,0,0.2,0,0.3,0.1c0.3,0.3,0.4,0.7,0.4,1
					C79,46.7,79.1,47.2,78.9,47.5z"/>
				<path id="XMLID_153_" class="st3" d="M73.7,46.1c0.1-0.3,0.1-0.7,0.2-1c0.1-0.5,0.2-1.3-0.2-1.7c-0.3-0.5-0.9,0-1.2,0.3
					c-0.4,0.6-0.3,1.3-0.3,1.9c0.1,0.7,0.3,1.4,0.5,2.1c-0.1,0.3-0.1,0.7-0.3,1c0,0,0,0.1,0,0.1c0,0-0.1-0.1-0.1-0.1
					c-0.1-0.1-0.1-0.3-0.2-0.4c-0.4-1-0.6-2.2-1.1-3.1c-0.2-0.3-0.5-0.8-1-0.6c-0.4,0.2-0.5,0.5-0.6,0.9c-0.2-0.3-0.6-0.5-1-0.2
					c-0.2,0.1-0.3,0.3-0.4,0.5c-0.1-0.2-0.1-0.3-0.3-0.4c-0.3-0.2-0.8,0.6-0.6,0.8c0.2,0.1,0.2,0.3,0.3,0.5c0.2,0.4,0.3,0.7,0.5,1.1
					c0.1,0.2,0.2,0.4,0.2,0.6c0.3,0.8,0.6,1.6,0.9,2.4c0,0.1,0.1,0.1,0.1,0.1c0.2,0,0.5-0.5,0.4-0.7c-0.3-0.7-0.5-1.4-0.8-2.1
					c-0.1-0.3-0.2-0.6-0.3-0.9c-0.1-0.3-0.2-0.7-0.2-1c0,0,0-0.1,0-0.1c0.5-0.2,0.9,0.9,1,1.1c0.2,0.4,0.3,0.8,0.5,1.2
					c0.2,0.6,0.4,1.2,0.6,1.8c0,0.1,0.1,0.1,0.1,0.1c0.2,0,0.5-0.5,0.4-0.7c-0.2-0.6-0.4-1.3-0.6-1.9c0-0.2-0.1-0.3-0.1-0.5
					c-0.1-0.5-0.3-1.1-0.3-1.7c0,0,0,0,0,0c0.1,0,0.3,0.1,0.3,0.2c0.4,0.5,0.6,1.2,0.9,1.9c0.1,0.4,0.3,0.9,0.4,1.3
					c0.1,0.3,0.2,0.6,0.4,0.8c0.2,0.3,0.5,0,0.7-0.2c0.2-0.2,0.3-0.5,0.4-0.8c0.2,0.4,0.4,0.7,0.8,0.7c0.6-0.1,0.8-0.7,0.9-1.2
					c0.1-0.5,0-1.5-0.6-1.8C74,46.1,73.8,46.1,73.7,46.1z M72.9,45.5c-0.1-0.5-0.1-1,0-1.5c0,0,0,0,0,0c0.2,0,0.2,0.2,0.2,0.4
					c0.1,0.5,0.1,1,0,1.5c0,0.2-0.1,0.4-0.1,0.6C73,46.2,72.9,45.8,72.9,45.5z M74.1,47.6c0,0.2,0.1,0.5,0,0.7c0,0,0,0,0,0
					c0,0-0.1,0-0.1,0c-0.1,0-0.3-0.2-0.3-0.3c-0.2-0.2-0.3-0.5-0.4-0.7c0-0.1,0.1-0.3,0.1-0.4c0.1-0.1,0.2-0.1,0.3,0
					C74,47.1,74.1,47.4,74.1,47.6z"/>
				<path id="XMLID_147_" class="st3" d="M93.8,49.7c-0.1-0.1-0.3-0.1-0.4-0.1c0,0,0,0,0,0c0,0-0.1-0.1-0.1-0.1
					c-0.1-0.1,0-0.3,0-0.4c0-0.3,0.1-0.7,0.3-1c0,0,0,0,0,0c0.1-0.3,0.2-0.5,0.3-0.8c0,0,0,0,0,0c0,0,0,0,0,0
					c0.1-0.2,0.2-0.3,0.3-0.5c0.1-0.2-0.2-0.2-0.3-0.2c0,0,0,0-0.1,0c-0.2-0.2-0.4-0.2-0.7-0.2c-0.8,0.1-1.3,0.8-1.4,1.5
					c-0.1,0.4,0.2,0.8,0.6,0.9c0.1,0,0.1,0,0.2,0c-0.1,0.2-0.2,0.3-0.4,0.4c-0.1,0.1-0.3-0.2-0.3-0.4c0-0.1-0.1-0.1-0.2-0.1
					c0,0,0,0,0,0c-0.2,0-0.3,0.1-0.4,0.2c0,0,0,0,0-0.1c-0.1-0.2,0-0.4,0-0.6c0.1-0.6,0.3-1.3,0.5-1.9c0,0,0,0,0,0
					c0.1-0.4-0.2-0.7-0.6-0.7c-0.4,0-0.8,0.2-1.1,0.5c-0.4,0.4-0.6,1-0.7,1.5h0c-0.1,0.1-0.1,0.4-0.3,0.6c0,0,0,0,0,0
					c0,0-0.1,0-0.1,0c-0.1-0.1,0-0.5,0-0.7c0-0.6,0.2-1.2,0.4-1.8c0.1-0.1,0.1-0.3,0.2-0.4c0.1-0.1,0-0.3-0.2-0.3
					c-0.2,0-0.4,0.1-0.5,0.3c-0.1,0.1-0.2,0.3-0.2,0.4c-0.1,0.2-0.2,0.4-0.4,0.5c-0.1,0.1-0.2,0.2-0.4,0.3c0,0,0,0,0,0
					c0.1-0.6,0.1-1.2,0.2-1.8c0-0.1,0-0.1-0.1-0.2c0,0,0,0,0,0l0,0c0,0,0,0,0,0c0,0,0,0,0,0h0c-0.1,0-0.1,0-0.2,0
					c-0.1,0-0.3,0.1-0.4,0.3c0,0-0.1,0.1-0.1,0.1c-0.2,0.8-0.5,1.7-1,2.4c0,0-0.1,0.1-0.1,0.1c0,0,0,0,0,0c0,0,0,0,0,0c0,0,0,0,0,0
					c-0.2-0.1-0.2-0.3-0.3-0.4c-0.2-0.5-0.1-1,0-1.5c0-0.1,0.1-0.2,0.1-0.3c0-0.1,0.1-0.1,0.1-0.2c0,0,0,0,0,0c0,0,0,0,0,0
					c0.1,0.1,0.2,0.2,0.2,0.3c0.1,0.2,0.9-0.2,0.8-0.5c-0.2-0.4-0.7-0.5-1.1-0.3c-0.3,0.2-0.5,0.4-0.6,0.6c0,0,0,0,0,0.1
					c0,0,0,0,0,0c0,0,0,0.1-0.1,0.1c0,0,0,0,0,0c-0.1,0.1-0.1,0.3-0.2,0.4c0.1-0.5,0.1-1,0.2-1.5c0-0.4-0.7,0-0.7,0.2
					c-0.1,0.2-0.2,0.4-0.3,0.6c0-0.2-0.1-0.4-0.2-0.6c-0.3-0.5-0.8-0.5-1.2-0.1c-0.1,0.1-0.3,0.3-0.2,0.4c0.1,0.1,0.3,0,0.4-0.1
					c0,0,0,0,0,0c0,0,0.1,0.1,0.1,0.1c0.1,0.1,0.1,0.2,0.2,0.3c0.1,0.3,0.1,0.6,0.1,1c0,0.3,0,0.6-0.1,0.9c0,0,0,0,0,0.1
					c0,0,0,0.1,0,0.1c-0.1,0-0.2-0.2-0.2-0.2c-0.1-0.2-0.8,0.3-0.6,0.6c0.4,0.6,1,0.2,1.3-0.2c0.1-0.2,0.2-0.4,0.3-0.6
					c0.1-0.2,0.1-0.3,0.2-0.5c0,0.5-0.1,1-0.2,1.5c0,0.2,0.2,0.2,0.3,0.1c0.2-0.1,0.3-0.2,0.4-0.4c0-0.2,0.1-0.4,0.2-0.6
					c0,0.2,0,0.4,0.1,0.6c0.1,0.2,0.2,0.5,0.5,0.6c0.4,0.1,0.8-0.2,1-0.4c0.2-0.2,0.4-0.4,0.6-0.6c0,0.3-0.1,0.7-0.2,1
					c0,0.2,0.2,0.2,0.3,0.1c0.2-0.1,0.4-0.2,0.4-0.4c0.1-0.3,0.2-0.6,0.4-0.9c0.1-0.1,0.2-0.2,0.4-0.3c0,0,0,0,0,0
					c-0.1,0.5-0.2,0.9-0.1,1.4c0,0.4,0.3,0.5,0.7,0.4c0.2,0,0.3-0.1,0.5-0.2c0,0.2,0.1,0.3,0.2,0.4c0.3,0.2,0.7,0.1,1-0.1
					c0,0,0.1,0,0.1-0.1c0,0.1,0,0.1,0,0.2c0.1,0.4,0.4,0.5,0.8,0.4c0.2,0.4,0.8,0.4,1.2,0.2c0.1,0,0.2-0.1,0.2-0.1
					c0,0.1,0,0.2,0,0.2c0.1,0.5,0.6,0.6,1,0.4C93.6,50,93.9,49.9,93.8,49.7z M89.9,48.5c0,0-0.1,0-0.1,0c-0.1-0.1-0.1-0.3-0.1-0.5
					c0-0.2,0-0.4,0-0.6c0,0,0,0,0,0c0,0,0,0,0-0.1c0.1-0.3,0.2-0.5,0.3-0.8c0.1-0.1,0.2-0.3,0.3-0.4c0,0,0,0,0,0c0,0,0.1,0,0.1,0
					c0.2,0,0.2,0.2,0.2,0.3c-0.2,0.6-0.4,1.3-0.7,1.9C90,48.4,90,48.4,89.9,48.5z M91,48.9L91,48.9C91,48.9,91,48.9,91,48.9
					C91,48.9,91,48.9,91,48.9z M92.4,47.7c0-0.3,0.2-0.7,0.4-0.8c0,0,0.1,0,0.2,0.1c0.1,0.1,0.1,0.3,0.1,0.4
					c-0.1,0.3-0.2,0.6-0.3,0.9C92.5,48.1,92.4,47.9,92.4,47.7z M93.4,49.7C93.4,49.7,93.4,49.7,93.4,49.7L93.4,49.7z"/>
			</g>
		</g>
		<path id="XMLID_141_" class="st3" d="M86.8,54.2C86.8,54.2,86.7,54.1,86.8,54.2c-0.1-0.1-0.1-0.2-0.1-0.2c0-0.2,0-0.4,0-0.6
			c0-0.6,0.1-1.2,0.2-1.7c0,0,0,0,0,0c0-0.4-0.3-0.7-0.7-0.6c-0.4,0-0.7,0.3-1,0.6c-0.3,0.4-0.4,0.8-0.5,1.3
			c-0.1,0.2-0.1,0.4-0.2,0.6c0,0.1-0.1,0.1-0.1,0.2c0,0.1-0.1,0.1-0.1,0.1c0,0-0.1,0-0.1,0c-0.1,0,0,0-0.1,0c-0.2,0-0.4-0.1-0.5-0.3
			c-0.3-0.4-0.2-1-0.2-1.4c0-0.2,0.1-0.5,0.2-0.7c0,0,0.1,0,0.1,0.1c0.1,0.1,0.2,0.3,0.2,0.5c0.1,0.3,0.8-0.1,0.7-0.4
			c-0.1-0.3-0.2-0.8-0.6-0.8c-0.4,0-0.8,0.3-0.9,0.7c-0.2,0.4-0.3,0.8-0.3,1.3c0,0.2-0.1,0.5-0.2,0.7c0,0.1-0.1,0.1-0.1,0.2
			c0,0.1-0.1,0.1-0.1,0.1l-0.1,0c-0.1,0,0,0-0.1,0c-0.2,0-0.4-0.1-0.5-0.2c-0.3-0.3-0.3-1-0.2-1.4c0-0.2,0.1-0.5,0.2-0.8
			c0,0,0.1,0,0.1,0.1c0.1,0.1,0.2,0.3,0.2,0.5c0.1,0.3,0.8-0.2,0.7-0.5c-0.1-0.3-0.3-0.8-0.7-0.8c-0.4,0-0.8,0.4-0.9,0.7
			c-0.2,0.4-0.3,0.9-0.3,1.4c0,0.1,0,0.1,0,0.1c0,0.2-0.1,0.5-0.2,0.8c-0.2-0.1-0.2-0.6-0.2-0.7c-0.1-0.6-0.1-1.2,0-1.7c0,0,0,0,0,0
			c0-0.4-0.4-0.6-0.8-0.5c-0.4,0.1-0.7,0.4-0.9,0.8c-0.2,0.4-0.3,0.9-0.3,1.4c0,0.3-0.1,0.5-0.1,0.8c0,0,0,0.1,0,0.1
			c-0.1,0-0.1-0.1-0.1-0.2c-0.1-0.2-0.2-0.6-0.2-0.8c-0.1-0.5-0.2-1.2,0-1.7c0-0.1,0-0.2-0.2-0.2c-0.2,0-0.4,0.2-0.5,0.4
			c0,0,0,0.1,0,0.1h0l0,0c-0.1,0.3-0.2,0.6-0.3,1c-0.1-0.4-0.2-0.9-0.1-1.2c0-0.1,0-0.2-0.2-0.2c-0.2,0-0.3,0.2-0.4,0.3
			c-0.3,0.6-0.3,1.3-0.3,1.9c0,0.3,0,0.6-0.1,0.9c0,0,0,0,0,0c-0.2-0.1-0.2-0.4-0.2-0.6c0-0.2-0.3,0-0.4,0.1
			c-0.1,0.1-0.2,0.3-0.2,0.5c0.1,0.4,0.4,1,0.9,0.6c0.3-0.2,0.5-0.6,0.6-1c0.1,0.3,0.1,0.5,0.2,0.8c0.1,0.4,0.6-0.2,0.6-0.4
			c0-0.2,0-0.3,0-0.5c0.2,0.7,0.5,1.1,1,0.7c0.1-0.1,0.2-0.2,0.3-0.3c0.1,0.2,0.2,0.3,0.3,0.4c0.3,0.1,0.7-0.1,0.9-0.4c0,0,0,0,0,0
			c0,0.1,0.1,0.2,0.1,0.3c0.1,0.1,0.3,0.1,0.4,0.1c0.3,0,0.5-0.3,0.6-0.5c0.3,0.5,0.9,0.6,1.4,0.3c0.2-0.1,0.4-0.3,0.5-0.4
			c0,0,0,0.1,0.1,0.1c0.2,0.5,0.9,0.7,1.4,0.4c0.2-0.1,0.3-0.2,0.5-0.3c0,0.2,0.1,0.4,0.3,0.6c0.3,0.2,0.7,0,0.9-0.2c0,0,0,0,0,0
			c0,0.1,0.1,0.2,0.1,0.3c0.2,0.3,0.6,0.2,0.8,0c0.1-0.1,0.3-0.2,0.3-0.4C87.1,54.1,86.8,54.2,86.8,54.2z M79.4,53.5
			c0,0,0,0.1,0,0.2c0,0-0.1,0-0.1,0c-0.1,0-0.2-0.3-0.2-0.4c-0.2-0.5-0.2-1,0-1.5c0-0.1,0.1-0.4,0.2-0.5c0,0,0,0,0,0
			c0,0,0.1,0,0.1,0c0.2,0,0.3,0.1,0.3,0.3C79.5,52.2,79.5,52.8,79.4,53.5z M85.7,53.8c0,0,0,0.1-0.1,0.1c0,0-0.1,0-0.1,0
			c-0.1-0.1-0.2-0.3-0.2-0.4c-0.1-0.5,0-1,0.1-1.5c0-0.1,0.2-0.4,0.2-0.4c0,0,0,0,0,0c0,0,0.1,0,0.1,0c0.2,0,0.2,0.2,0.2,0.3
			C86,52.5,85.9,53.2,85.7,53.8z"/>
	</g>
	<g id="XMLID_128_">
		<g id="XMLID_129_">
			<path id="XMLID_139_" class="st3" d="M81.7,59.8c-0.5,0.1-0.6,0.7-0.7,1.1c0,0.3-0.1,1.2,0.4,1.2c0.6,0,0.7-0.7,0.8-1
				C82.3,60.7,82.2,59.8,81.7,59.8c-0.1,0-0.4,0.4-0.2,0.4c0.5,0,0.4,1.3,0.3,1.5c0.1-0.1,0.1,0,0-0.1c-0.1,0-0.1-0.1-0.1-0.2
				c-0.1-0.1-0.1-0.3-0.1-0.5c0-0.2,0-0.3,0-0.5c0-0.1,0-0.1,0-0.2c0,0,0-0.1,0-0.1c0-0.1,0-0.1,0,0C81.7,60.2,82,59.7,81.7,59.8z"
				/>
			<path id="XMLID_138_" class="st3" d="M80.4,60.1c0.1,0.6,0,1.2-0.1,1.8c0,0.2,0.4,0,0.5-0.2c0.1-0.5,0.6-0.8,0.7-1.3
				c0.1-0.3-0.3,0-0.4,0.1c-0.1,0.3-0.3,0.4-0.5,0.7c-0.2,0.2-0.3,0.4-0.3,0.7c0.2-0.1,0.3-0.1,0.5-0.2c0.1-0.6,0.1-1.3,0-1.9
				C80.8,59.6,80.4,59.9,80.4,60.1L80.4,60.1z"/>
			<path id="XMLID_137_" class="st3" d="M82.3,61.5c0,0.2,0.2,0.6,0.6,0.5c0.2-0.1,0.4-0.3,0.5-0.5c0.1-0.3,0.1-0.6,0.1-0.9
				c0-0.2-0.1-0.6,0-0.8c-0.1,0-0.2,0.1-0.4,0.1c-0.1,0.6,0.3,1.3,0.4,1.9c0.1,0.2,0.5-0.2,0.4-0.3c-0.1-0.5,0-1.2,0.1-1.8
				c-0.1,0.1-0.2,0.1-0.3,0.2c0,0.4,0.3,2.4,1.1,1.7c0.2-0.1,0.2-0.6-0.1-0.3c-0.2,0.1-0.4-0.5-0.5-0.6c-0.1-0.3-0.2-0.6-0.2-1
				c0-0.3-0.3,0-0.3,0.2c-0.1,0.6-0.3,1.4-0.2,2c0.2-0.1,0.3-0.2,0.4-0.3c-0.1-0.3-0.2-0.6-0.3-0.9c-0.1-0.3-0.2-0.6-0.2-0.9
				c0-0.3-0.3,0-0.4,0.1c-0.1,0.3-0.1,0.7-0.1,1c0,0.2,0,0.4-0.1,0.7c0,0,0,0.1,0,0.1c0.1-0.1,0.1-0.1,0-0.1
				c-0.1-0.1-0.1-0.2-0.2-0.3C82.6,61,82.2,61.3,82.3,61.5L82.3,61.5z"/>
			<path id="XMLID_136_" class="st3" d="M85.8,60.6c0.1,0.2,0.4,0.5,0.7,0.2c0.2-0.2,0.3-0.4,0.3-0.7c0-0.3-0.1-0.6-0.2-0.9
				c-0.1-0.2-0.2-0.5-0.2-0.8c-0.1,0.1-0.2,0.2-0.3,0.3c0.1,0.6,0.7,1.2,1,1.7c0.1,0.2,0.4-0.3,0.3-0.4c-0.3-0.5-0.4-1.2-0.5-1.7
				c-0.1,0.1-0.2,0.2-0.3,0.3c0.1,0.4,0.9,2.2,1.5,1.2c0.1-0.2,0.1-0.6-0.2-0.3c-0.1,0.2-0.6-0.4-0.6-0.4c-0.2-0.2-0.4-0.5-0.5-0.8
				c-0.1-0.3-0.3,0.1-0.3,0.3c0.1,0.6,0.2,1.4,0.4,2c0.1-0.1,0.2-0.3,0.3-0.4c-0.2-0.3-0.4-0.5-0.6-0.7c-0.2-0.2-0.4-0.5-0.5-0.8
				c0-0.3-0.3,0.1-0.3,0.3c0,0.3,0.1,0.7,0.2,1c0.1,0.2,0.1,0.4,0.1,0.6c0,0,0,0.1,0,0.1c0.1-0.1,0.1-0.1-0.1-0.1
				c-0.1,0-0.2-0.2-0.2-0.3C86,60,85.7,60.4,85.8,60.6L85.8,60.6z"/>
			<path id="XMLID_135_" class="st3" d="M84.8,59.1c-0.4,0.2-0.4,0.8-0.4,1.2c0.1,0.3,0.3,1.2,0.9,1c0.6-0.2,0.6-0.9,0.4-1.3
				C85.7,59.7,85.3,58.9,84.8,59.1c-0.1,0-0.3,0.5-0.1,0.5c0.3-0.1,0.4,0.3,0.6,0.4c0.1,0.1,0.1,0.3,0.2,0.5c0,0.1,0,0.1,0,0.2
				c0,0.1,0,0.2,0,0.1C85.3,61,85,60.5,85,60.4c-0.1-0.2-0.1-0.3-0.2-0.5c0-0.1,0-0.2,0-0.3c0-0.1,0-0.1,0-0.1
				C84.9,59.5,85,59,84.8,59.1z"/>
			<g id="XMLID_132_">
				<path id="XMLID_134_" class="st3" d="M78.9,61.6c0.9,0.1,1.1-0.8,1.1-1.4c0-0.2-0.1-0.5-0.4-0.5c-0.4,0-0.8,0.4-0.8,0.7
					c-0.1,0.2,0.5,0,0.5-0.1c0-0.1,0.1-0.4,0.2-0.2c0.1,0.1,0.1,0.3,0.1,0.4c0,0.2-0.1,0.8-0.3,0.8C79.1,61.2,78.7,61.6,78.9,61.6
					L78.9,61.6z"/>
				<path id="XMLID_133_" class="st3" d="M80.6,61.1c-0.6,0.3-1.4,0.7-2,1.2c-0.3,0.2-0.7,0.6-0.5,1c0.2,0.3,0.5,0.3,0.8,0.3
					c1-0.2,1.6-2.6,0.2-2.3c-0.2,0-0.5,0.4-0.1,0.3c0.7-0.1,0.5,1.6,0,1.7c-0.5,0.1-0.3-0.5-0.2-0.6c0.2-0.2,0.4-0.4,0.7-0.5
					c0.4-0.2,0.8-0.5,1.2-0.7C81,61.3,81,61,80.6,61.1L80.6,61.1z"/>
			</g>
			<path id="XMLID_131_" class="st3" d="M78.4,61.2c-0.3,0.1-0.2-0.7-0.2-0.8c0.1-0.3,0.2-0.7,0.3-1c0.1-0.2-0.4-0.1-0.5,0.1
				c-0.1,0.3-0.2,0.6-0.3,0.9c-0.1,0.1-0.1,0.3-0.2,0.4c-0.1,0.2-0.1,0.2-0.2,0c-0.3-0.4,0.3-1.3,0.5-1.6c0.2-0.2-0.3-0.2-0.4,0
				c-0.2,0.3-1.2,1.7-0.4,2c1,0.3,1.3-1.2,1.5-1.8c-0.1,0-0.3,0.1-0.5,0.1c-0.2,0.5-0.4,1.1-0.4,1.6c0,0.5,0.6,0.5,0.9,0.3
				C78.9,61.3,78.7,61.1,78.4,61.2L78.4,61.2z"/>
			<path id="XMLID_130_" class="st3" d="M76.1,58.7c0.1-0.3,0-0.7-0.4-0.7c-0.5,0-0.9,0.4-1.1,0.8c-0.2,0.3-0.4,0.6-0.1,1
				c0.3,0.4,1,0.4,1.3,0.3c0.3-0.1,0.2-0.3-0.1-0.3c-0.2,0-0.5,0-0.7-0.2c-0.2-0.2-0.1-0.4,0-0.6c0.1-0.2,0.2-0.4,0.4-0.6
				c0,0,0.1-0.1,0.1-0.1c0.1-0.1,0.2-0.1,0.1,0c0.1,0.1,0,0.3,0,0.4C75.5,58.9,76.1,58.8,76.1,58.7L76.1,58.7z"/>
		</g>
	</g>
	<path id="XMLID_127_" class="st8" d="M102.9,55.4c0,0-1.2-0.9-0.2-2.1c0,0,0.2-0.2,0.4,0.1c0,0,0.8-1.1,0.9-0.1
		c0,0,0.2,0.4-0.2,0.7c-0.4,0.4-0.1,0.5,0.1,0.2c0.2-0.2,0.4-0.8,0.7-0.7c0.3,0.1,0.4-0.1,0.4-0.1s0.1,0,0.3,0.1
		c0.1,0.2,1.5-0.5,1,0.3c0,0-0.6,0.4-0.4,0.6c0.2,0.2-0.2,0.8-1,0.8c-0.8,0-0.3,0.4,0.3,0.3c0,0,0.6,0.3,0.6,0.6
		c0,0-0.6,0.8-0.9,0.4c-0.3-0.4-0.4,0.1-0.1,0.3C105,57,103.3,57.3,102.9,55.4"/>
	<path id="XMLID_126_" class="st9" d="M102.9,56.5c0.2,0.2,0.2,0.6,0,0.8c-0.2,0.2-0.6,0.2-0.8,0c-0.2-0.2-0.2-0.6,0-0.8
		C102.3,56.3,102.7,56.3,102.9,56.5"/>
	<path id="XMLID_125_" class="st9" d="M104,56.5c0.3,0.3,0.2,0.7-0.1,1c-0.3,0.3-0.7,0.2-1-0.1c-0.3-0.3-0.2-0.7,0.1-1
		C103.3,56.2,103.8,56.2,104,56.5"/>
	<path id="XMLID_124_" class="st6" d="M103.9,58.4c0.3,0.3,0.2,0.7-0.1,1c-0.3,0.3-0.7,0.2-1-0.1c-0.3-0.3-0.2-0.7,0.1-1
		C103.2,58.1,103.7,58.1,103.9,58.4"/>
	<path id="XMLID_123_" class="st9" d="M103.3,57.5c0.2,0.2,0.2,0.6,0,0.8c-0.2,0.2-0.6,0.2-0.8,0c-0.2-0.2-0.2-0.6,0-0.8
		C102.7,57.3,103.1,57.3,103.3,57.5"/>
	<path id="XMLID_122_" class="st9" d="M102.2,58.6c0.2,0.2,0.2,0.5,0,0.7c-0.2,0.2-0.5,0.2-0.7,0c-0.2-0.2-0.2-0.5,0-0.7
		C101.6,58.4,102,58.4,102.2,58.6"/>
	<path id="XMLID_121_" class="st9" d="M100.4,58.3c0.2,0.3,0.2,0.7,0,0.9c-0.3,0.2-0.7,0.2-0.9,0c-0.2-0.3-0.2-0.7,0-0.9
		C99.8,58,100.2,58,100.4,58.3"/>
	<path id="XMLID_120_" class="st9" d="M99.9,59.3c0.2,0.3,0.2,0.7,0,0.9c-0.3,0.2-0.7,0.2-0.9,0c-0.2-0.3-0.2-0.7,0-0.9
		C99.3,59.1,99.7,59.1,99.9,59.3"/>
	<path id="XMLID_119_" class="st6" d="M99.4,58.3c0.2,0.3,0.2,0.7,0,0.9c-0.3,0.2-0.7,0.2-0.9,0c-0.2-0.3-0.2-0.7,0-0.9
		C98.7,58,99.1,58,99.4,58.3"/>
	<path id="XMLID_118_" class="st6" d="M98.9,59.6c0.2,0.3,0.2,0.7,0,0.9c-0.3,0.2-0.7,0.2-0.9,0c-0.2-0.3-0.2-0.7,0-0.9
		C98.3,59.3,98.7,59.4,98.9,59.6"/>
	<path id="XMLID_117_" class="st9" d="M98.2,61.4c0.2,0.2,0.2,0.5,0,0.7c-0.2,0.2-0.5,0.2-0.7,0c-0.2-0.2-0.2-0.5,0-0.7
		C97.7,61.2,98,61.2,98.2,61.4"/>
	<path id="XMLID_116_" class="st9" d="M97.4,63.9c0.2,0.3,0.2,0.7-0.2,1c-0.3,0.3-0.8,0.3-1,0c-0.2-0.3-0.2-0.7,0.2-1
		C96.7,63.7,97.1,63.7,97.4,63.9"/>
	<path id="XMLID_115_" class="st6" d="M98.5,63.3c0.1,0.3-0.1,0.7-0.5,0.8c-0.4,0.1-0.8,0-0.9-0.4c-0.1-0.3,0.1-0.7,0.5-0.8
		C98,62.8,98.4,63,98.5,63.3"/>
	<path id="XMLID_114_" class="st9" d="M99.6,62.7c0.1,0.3-0.1,0.7-0.4,0.8c-0.3,0.1-0.7-0.1-0.8-0.4c-0.1-0.3,0.1-0.7,0.4-0.8
		C99.1,62.2,99.5,62.4,99.6,62.7"/>
	<path id="XMLID_113_" class="st9" d="M99.2,62.2c0.1,0.4-0.1,0.8-0.5,0.9c-0.4,0.1-0.9,0-1-0.4c-0.1-0.4,0.1-0.8,0.5-0.9
		C98.6,61.7,99.1,61.9,99.2,62.2"/>
	<path id="XMLID_112_" class="st9" d="M100.3,61.5c0.1,0.3-0.1,0.6-0.4,0.7c-0.3,0.1-0.7,0-0.8-0.3c-0.1-0.3,0.1-0.6,0.4-0.7
		C99.8,61.1,100.2,61.2,100.3,61.5"/>
	<path id="XMLID_111_" class="st9" d="M100.2,60.5c0.1,0.3-0.1,0.6-0.4,0.7c-0.3,0.1-0.7,0-0.8-0.3c-0.1-0.3,0.1-0.6,0.4-0.7
		C99.7,60,100.1,60.2,100.2,60.5"/>
	<path id="XMLID_110_" class="st9" d="M99.1,61c0.1,0.3-0.1,0.7-0.4,0.8c-0.3,0.1-0.7-0.1-0.8-0.4c-0.1-0.3,0.1-0.7,0.4-0.8
		C98.6,60.5,99,60.7,99.1,61"/>
	<path id="XMLID_109_" class="st6" d="M100.6,61.9c0.1,0.3-0.1,0.7-0.4,0.8c-0.3,0.1-0.7-0.1-0.8-0.4c-0.1-0.3,0.1-0.7,0.4-0.8
		C100.1,61.4,100.5,61.6,100.6,61.9"/>
	<path id="XMLID_108_" class="st9" d="M100.2,57.2c0.2,0.3,0.2,0.7-0.1,0.9c-0.3,0.2-0.7,0.2-0.9,0c-0.2-0.3-0.2-0.7,0.1-0.9
		C99.6,57,100,57,100.2,57.2"/>
	<path id="XMLID_107_" class="st9" d="M100.8,56.3c0.2,0.2,0.2,0.6-0.1,0.9c-0.3,0.2-0.7,0.2-0.9,0c-0.2-0.2-0.2-0.6,0.1-0.9
		C100.1,56.1,100.5,56.1,100.8,56.3"/>
	<path id="XMLID_106_" class="st6" d="M101.2,59.3c0.2,0.3,0.2,0.7-0.1,0.9c-0.3,0.2-0.7,0.2-0.9,0c-0.2-0.3-0.2-0.7,0.1-0.9
		C100.6,59,101,59.1,101.2,59.3"/>
	<path id="XMLID_105_" class="st6" d="M101.4,58.4c0.2,0.3,0.2,0.7-0.1,0.9c-0.3,0.2-0.7,0.2-0.9,0c-0.2-0.3-0.2-0.7,0.1-0.9
		C100.8,58.1,101.2,58.1,101.4,58.4"/>
	<path id="XMLID_104_" class="st6" d="M103.1,58.7c0.2,0.3,0.2,0.7-0.1,0.9c-0.3,0.2-0.7,0.2-0.9,0c-0.2-0.3-0.2-0.7,0.1-0.9
		C102.4,58.4,102.9,58.4,103.1,58.7"/>
	<path id="XMLID_103_" class="st9" d="M103.4,59.2c0.2,0.3,0.2,0.7-0.1,0.9c-0.3,0.2-0.7,0.2-0.9,0c-0.2-0.3-0.2-0.7,0.1-0.9
		C102.8,58.9,103.2,59,103.4,59.2"/>
	<path id="XMLID_102_" class="st9" d="M102,59.6c0.2,0.3,0.2,0.7-0.1,0.9c-0.3,0.2-0.7,0.2-0.9,0c-0.2-0.3-0.2-0.7,0.1-0.9
		C101.4,59.3,101.8,59.3,102,59.6"/>
	<path id="XMLID_101_" class="st6" d="M102.6,60c0.2,0.3,0.2,0.7-0.1,0.9c-0.3,0.2-0.7,0.2-0.9,0c-0.2-0.3-0.2-0.7,0.1-0.9
		C102,59.7,102.4,59.7,102.6,60"/>
	<path id="XMLID_100_" class="st6" d="M101.6,60.8c0.2,0.3,0.2,0.7-0.1,0.9c-0.3,0.3-0.7,0.3-0.9,0c-0.2-0.3-0.2-0.7,0.1-0.9
		C100.9,60.5,101.3,60.5,101.6,60.8"/>
	<path id="XMLID_99_" class="st9" d="M101,60.4c0.2,0.3,0.2,0.7-0.1,0.9c-0.3,0.3-0.7,0.3-0.9,0c-0.2-0.3-0.2-0.7,0.1-0.9
		C100.3,60.2,100.8,60.2,101,60.4"/>
	<path id="XMLID_98_" class="st9" d="M102.3,56.9c0.2,0.2,0.2,0.6-0.1,0.9c-0.3,0.2-0.7,0.2-0.9,0c-0.2-0.2-0.2-0.6,0.1-0.9
		C101.7,56.7,102.1,56.7,102.3,56.9"/>
	<path id="XMLID_97_" class="st6" d="M101.5,57.1c0.2,0.3,0.2,0.7-0.1,0.9c-0.3,0.3-0.7,0.3-0.9,0c-0.2-0.2-0.2-0.7,0.1-0.9
		C100.8,56.9,101.3,56.9,101.5,57.1"/>
	<path id="XMLID_96_" class="st10" d="M100.8,56.6l0.8-0.7l0.1-1.2l-0.2-0.2c0,0,0.7-0.3,0.4,0.5c0,0-0.3,0.8,0.1,0.8
		c0.4,0,1.1-0.5,1.1-0.5l0,0l0,0c0,0-0.6,0.6-1.2,0.6c0,0,0.2,0.3,0.6,0.4c0.4,0.1,0.4,0.2,0.4,0.2l-0.1,0.1c0,0-0.3-0.3-0.6-0.2
		c-0.3,0-0.6-0.4-0.6-0.4l-0.1,0.8l-0.1,0.1l0-0.7L100.8,56.6L100.8,56.6z"/>
	<path id="XMLID_95_" class="st11" d="M96.2,64.5c0,0,0.4-0.6,0.8-0.5C97,64.1,96.5,63.9,96.2,64.5"/>
	<path id="XMLID_94_" class="st11" d="M99.7,62.3c0,0,0.7,0.1,0.8-0.6C100.4,61.8,100.4,62.5,99.7,62.3"/>
	<path id="XMLID_93_" class="st11" d="M98.6,59.1c0,0-0.3-0.8,0.4-0.9C99,58.2,98.2,58.2,98.6,59.1"/>
	<path id="XMLID_92_" class="st11" d="M98.2,61.6c0,0-0.3-0.6,0.4-0.9C98.6,60.7,97.8,60.8,98.2,61.6"/>
	<path id="XMLID_91_" class="st11" d="M97.8,62.6c0,0,0.5-0.8,1.3-0.4C99.1,62.2,98.2,61.6,97.8,62.6"/>
	<path id="XMLID_90_" class="st11" d="M103,57.5c0,0-0.6-0.1-0.5,0.7C102.4,58.1,102.2,57.3,103,57.5"/>
	<path id="XMLID_89_" class="st11" d="M102.9,59.1c0,0,0.9,0.4,0.1,1.1C103,60.2,104,59.5,102.9,59.1"/>
	<path id="XMLID_88_" class="st11" d="M101,58.3c0,0-0.8,0.1-0.3,1C100.7,59.3,100.2,58.6,101,58.3"/>
	<path id="XMLID_87_" class="st11" d="M97.3,63.9c0,0-0.2-0.4,0.2-0.7C97.5,63.2,96.9,63.4,97.3,63.9"/>
	<path id="XMLID_86_" class="st10" d="M101.6,55c-0.2,0.5-0.8,0.8-1.3,0.5c-0.3-0.2-0.4-0.6-0.3-0.9c0.2-0.6,1-0.4,1,0.1
		c0,0.4-0.5,0.5-0.6,0.1c0-0.2,0.1-0.3,0.4-0.2c0.1,0.1-0.2,0.2-0.2,0.1c0,0-0.1,0-0.1,0c0,0.3,0.3,0.2,0.4,0
		c0.1-0.1-0.1-0.3-0.2-0.3c-0.1,0-0.2,0-0.2,0.1c-0.3,0.2,0,0.6,0.3,0.6c0.4,0,0.5-0.4,0.4-0.7c-0.1-0.3-0.5-0.3-0.8-0.2
		c-0.4,0.2-0.5,0.6-0.4,1C100.3,56,101.5,55.6,101.6,55C101.7,55,101.6,55,101.6,55z"/>
	<g id="XMLID_81_">
		<path id="XMLID_85_" class="st12" d="M61.8,42.1c-0.1,0-0.2-0.1-0.2-0.2C61.2,41.8,61,42,60.6,42c-0.8,0-1,0-2-0.3
			c0-0.8,0.5-1.3,0.7-1.9c0.2-0.5-0.1-1.2-0.1-1.8c0-0.4,0-0.7,0-1.1c-0.3,0.2-0.1,1-0.2,1.3c-0.1-0.5-0.1-1.1-0.3-1.5
			c-0.1,0.5,0,1.1,0,1.5c-0.1-0.4-0.2-0.9-0.3-1.3c-0.2,0.4,0.1,1.1,0.1,1.5c-0.2-0.4-0.2-0.8-0.4-1.2c-0.1,0.5,0.2,0.9,0.1,1.3
			c-0.2-0.3-0.2-0.7-0.5-0.9c0,0.3,0.2,0.7,0.3,1c-0.2-0.1-0.3-0.4-0.5-0.5c0,0.3,0.2,0.4,0.3,0.6c-0.2-0.1-0.2-0.3-0.4-0.3
			c0,0.2,0.2,0.3,0.3,0.5c-0.1-0.1-0.2-0.2-0.3-0.2c0,0.2,0.3,0.3,0.2,0.4c0,0-0.2-0.1-0.2,0c0,0,0.2,0.1,0.1,0.1
			c-0.1,0-0.1,0-0.1,0c0,0.1,0.1,0.1,0.1,0.2c0,0-0.1,0-0.1,0c0,0.1,0.1,0.1,0.1,0.2c-0.7,0.7-0.3,1.4-0.4,2.2c0-0.1-0.5-0.2-1-0.4
			c-0.2-0.1-0.3-0.4-0.5-0.5c0,0,0.1,0,0.1-0.1c-0.1,0-0.2-0.1-0.2-0.1c0.1,0,0.2,0,0.3,0c-0.1-0.1-0.4-0.1-0.4-0.3
			c0.2,0,0.3,0.1,0.4,0.1c-0.2-0.1-0.5-0.2-0.5-0.4c0.2,0.1,0.4,0.2,0.6,0.1c-0.3-0.1-0.7-0.4-0.7-0.6c0.2,0.1,0.5,0.3,0.7,0.3
			c-0.3-0.1-0.6-0.5-0.9-0.5c0.1,0.3,0.6,0.5,0.7,0.7c-0.2-0.2-0.5-0.3-0.8-0.4c0.1,0.3,0.5,0.4,0.7,0.6c-0.2,0-0.4-0.1-0.6-0.1
			c0.1,0.3,0.5,0.2,0.6,0.4c-0.1-0.1-0.3,0-0.4,0c0,0.2,0.3,0.1,0.4,0.2c-0.1,0-0.3,0-0.3,0.1c0.1,0.1,0.3,0,0.3,0.1
			c-0.1,0-0.2,0-0.2,0.1c0,0.1,0.2,0,0.2,0.1c0,0-0.1,0-0.1,0.1c0.1,0,0.1,0,0.1,0c0,0-0.1,0-0.1,0.1c0.4,0.2,0.5,0.8,1,0.9
			c-0.3,0.2,0.3,0.4-2.8,1.4c0.1,0,1.4-0.3,1.7-0.4c0.4-0.1,0.8-0.2,1.1-0.4c0.1,0,0.2-0.1,0.3-0.1c0.6-0.1,1.2,0.1,1.8-0.4
			c-0.5,0.1-1.3,0.2-1.6-0.1c0.4-0.7,0.1-2.3,0.5-2.7c0.3-0.3,0.9-1.4,1.5-0.5c0.1,0.1,0.1,0.4-0.1,0.7c-0.3,0.5-0.5,0.7-0.4,1.7
			c0,0.2,0,0.4-0.3,0.4c1.3,0.3,1.7,0.1,2.5,0c0.3,0,0.6-0.2,0.7,0c0,0.1-0.3,0.1-0.5,0.1c-0.4,0,0.2,0.1,0.3,0.1
			c0.1,0,0.8-0.1,1.2-0.2C62.2,42.2,62,42.2,61.8,42.1z"/>
		<path id="XMLID_82_" class="st12" d="M57.8,35.2c-3.1,0-5.6,2.5-5.6,5.6c0,3.1,2.5,5.6,5.6,5.6c3.1,0,5.6-2.5,5.6-5.6
			C63.4,37.7,60.9,35.2,57.8,35.2 M57.8,35.4c3,0,5.4,2.4,5.4,5.4c0,3-2.4,5.4-5.4,5.4c-3,0-5.4-2.4-5.4-5.4
			C52.5,37.9,54.9,35.4,57.8,35.4"/>
	</g>
</g>
</svg>
