<?xml version="1.0" encoding="utf-8"?>
<!-- Generator: Adobe Illustrator 19.0.0, SVG Export Plug-In . SVG Version: 6.00 Build 0)  -->
<svg version="1.1" id="Layer_1" xmlns="http://www.w3.org/2000/svg" xmlns:xlink="http://www.w3.org/1999/xlink" x="0px" y="0px"
	 viewBox="0 0 160.2 91.9" style="enable-background:new 0 0 160.2 91.9;" xml:space="preserve">
<style type="text/css">
	.st0{fill:#EFEFEF;}
	.st1{fill:#DDDDDD;}
	.st2{fill:#E0E0E0;}
	.st3{fill:#FFFFFF;}
	.st4{fill:#F05E24;}
	.st5{fill-rule:evenodd;clip-rule:evenodd;fill:#F05E24;}
	.st6{fill-rule:evenodd;clip-rule:evenodd;fill:#62BA47;}
	.st7{fill:#62BA47;}
	.st8{fill-rule:evenodd;clip-rule:evenodd;fill:#F05B24;}
	.st9{fill-rule:evenodd;clip-rule:evenodd;fill:#F8A78A;}
	.st10{fill-rule:evenodd;clip-rule:evenodd;fill:#FFFFFF;}
	.st11{fill-rule:evenodd;clip-rule:evenodd;}
	.st12{fill:#62BA46;}
</style>
<g>
	<path class="st0" d="M139.5,19.8h-17.6h-7.2H48.8h-7.1H24l7.6,49.8l0,0c0.7,4.9,5,8.7,10.1,8.7h80.1c5.5,0,10-4.3,10.2-9.8
		L139.5,19.8z"/>
	<path class="st1" d="M121.8,19.8h-7.2H81.7v58.5h40.1c5.5,0,10-4.3,10.2-9.8l7.4-48.8H121.8z"/>
	<path class="st2" d="M140.3,16.5c0,1.3-1.1,2.4-2.4,2.4H25.4c-1.3,0-2.4-1.1-2.4-2.4l0,0c0-1.3,1.1-2.4,2.4-2.4h112.5
		C139.2,14.1,140.3,15.1,140.3,16.5L140.3,16.5z"/>
	<path class="st3" d="M143.1,19.8c0,1.3-1.1,2.4-2.4,2.4H22c-1.3,0-2.4-1.1-2.4-2.4l0,0c0-1.3,1.1-2.4,2.4-2.4h118.7
		C142,17.4,143.1,18.5,143.1,19.8L143.1,19.8z"/>
	<path class="st3" d="M39.7,39.5c0.3,2.2-1.2,4.1-3.4,4.5l0,0c-2.2,0.3-4.2-1.2-4.5-3.4l-1.5-10.5c-0.3-2.2,1.2-4.2,3.4-4.5l0,0
		c2.2-0.3,4.2,1.2,4.5,3.4L39.7,39.5z"/>
</g>
<g>
	<circle class="st4" cx="81.9" cy="50.9" r="16.1"/>
	<path class="st5" d="M74.3,31.1c0,1.1-0.9,2.1-2.1,2.1c-1.1,0-2.1-0.9-2.1-2.1c0-1.1,0.9-2.1,2.1-2.1C73.3,29,74.3,30,74.3,31.1
		L74.3,31.1z"/>
	<path class="st6" d="M74.4,38.1c0,1.5-1.2,2.6-2.6,2.6c-1.5,0-2.7-1.2-2.7-2.6c0-1.5,1.2-2.7,2.7-2.7
		C73.2,35.4,74.4,36.6,74.4,38.1L74.4,38.1z"/>
	<path class="st6" d="M67.3,34c0,0.9-0.7,1.6-1.6,1.6c-0.9,0-1.6-0.7-1.6-1.6c0-0.9,0.7-1.6,1.6-1.6C66.6,32.4,67.3,33.1,67.3,34
		L67.3,34z"/>
	<g>
		<circle class="st7" cx="95.7" cy="36.1" r="8.9"/>
		<g>
			<path class="st3" d="M93.5,34.9c-0.7,0.1-0.9,1-1,1.6l0,0l0,0c0,0.1,0,0.2,0,0.3c0,0.3,0,0.5,0,0.8c0,0.1-0.1,0.3-0.1,0.3
				c-0.3,0-0.5-0.4-0.5-0.6c-0.2-0.5-0.3-0.9-0.4-1.4c-0.1-0.5-0.1-1-0.2-1.6c0-0.2,0-0.4,0-0.7c0-0.1,0-0.2,0-0.3
				c0-0.1,0-0.1,0-0.1c0.1-0.4-0.5,0-0.6,0.2c-0.6,1-0.4,2.3-0.4,3.4c0,0.3,0,0.6-0.1,0.9c0,0.2-0.1,0.6-0.2,0.7
				c-0.1,0.1-0.3,0-0.4,0c-0.1-0.1-0.2-0.2-0.3-0.4c0-0.2-0.2-0.1-0.3,0c-0.1,0.1-0.3,0.4-0.2,0.5c0.1,0.4,0.4,0.8,0.8,0.6
				c0.7-0.2,0.9-1,1.1-1.6c0.1-0.3,0.1-0.6,0.1-0.9c0.1,0.4,0.2,0.9,0.4,1.3c0.1,0.3,0.4,0.6,0.8,0.5c0.3-0.1,0.5-0.4,0.6-0.7
				c0.1,0.3,0.3,0.5,0.7,0.5c0.4,0,0.7-0.4,0.8-0.7c0.2-0.4,0.2-0.8,0.2-1.1C94.4,35.9,94.3,34.8,93.5,34.9z M93.7,37.4
				c0,0.1,0,0.1-0.1,0.2c-0.1,0-0.2-0.2-0.3-0.3c-0.1-0.2-0.2-0.5-0.2-0.8c0-0.3,0-0.6,0-0.8c0-0.1,0-0.1,0.1-0.2
				c0.4,0.2,0.4,0.7,0.5,1.1C93.8,36.9,93.8,37.2,93.7,37.4z"/>
			<path class="st3" d="M102.3,35.9c-0.8-0.3-1.2,0.8-1.4,1.4c-0.1,0.6-0.3,1.5,0.4,1.8c0.3,0.1,0.7-0.1,0.9-0.3
				c0.2-0.3,0.4-0.6,0.5-1C102.9,37.2,103.1,36.2,102.3,35.9z M101.9,38.5c0,0.1-0.1,0.1-0.1,0.2c-0.1-0.1-0.2-0.3-0.2-0.4
				c0-0.3,0-0.6,0-0.8c0.1-0.3,0.1-0.5,0.3-0.8c0-0.1,0.1-0.1,0.1-0.2c0.3,0.4,0.2,0.8,0.1,1.3C102.1,37.9,102,38.2,101.9,38.5z"/>
			<path class="st3" d="M100.2,36.1c0.1-0.2,0.3-0.4,0.4-0.6c0.3-0.4,0.6-1,0.6-1.5c0-0.5-0.7-0.5-1.1-0.4c-0.5,0.2-0.8,0.8-0.9,1.3
				c-0.2,0.7-0.3,1.4-0.3,2.1c0,0,0,0,0,0c-0.2,0.3-0.8,0.9-1.2,0.7c-0.1-0.1-0.2-0.2-0.2-0.3c0.3-0.3,0.6-0.7,0.9-1.1
				c0.2-0.4,0.4-1,0-1.2c-0.4-0.2-0.9,0-1.1,0.3c-0.3,0.3-0.4,0.7-0.4,1.1c0,0.2,0,0.6,0,0.9c-0.2,0.1-0.5,0.2-0.8,0.2
				c-0.3-0.1-0.4-0.4-0.5-0.6c-0.1-0.4-0.1-0.8,0-1.1c0-0.1,0-0.2,0.1-0.3c0,0,0-0.1,0-0.1c0.2,0.1,0.3,0.4,0.3,0.5
				c0.1,0.3,0.8-0.2,0.7-0.4c-0.1-0.3-0.2-0.5-0.5-0.7c-0.3-0.1-0.7,0.1-0.8,0.3c-0.5,0.5-0.5,1.2-0.5,1.8c0,0.4,0.1,0.9,0.5,1.1
				c0.5,0.3,1.1,0,1.6-0.3c0.1,0.3,0.3,0.5,0.7,0.5c0.5-0.1,0.9-0.3,1.3-0.7c0,0.4,0.1,0.8,0.4,0.9c0.4,0.2,0.9,0,1.2-0.4
				c0.4-0.5,0.6-1.1,0.4-1.7C100.6,36.2,100.4,36.1,100.2,36.1z M97.5,35.8c0-0.1,0.1-0.2,0.1-0.3c0,0,0,0,0,0
				c0.2,0,0.2,0.3,0.2,0.4c0,0.3-0.2,0.6-0.5,0.9c0-0.1,0-0.1,0-0.2C97.4,36.3,97.4,36,97.5,35.8z M100.1,34.3
				c0.1-0.1,0.1-0.2,0.2-0.3c0,0,0,0,0,0c0.3,0.3,0,0.8-0.2,1.2c-0.2,0.3-0.4,0.6-0.6,0.9c0-0.3,0.1-0.6,0.2-0.9
				C99.8,34.9,99.9,34.6,100.1,34.3z M99.9,37.9c0,0-0.1,0.1-0.1,0.1c0,0,0,0-0.1,0c-0.2-0.1-0.2-0.5-0.2-0.7c0-0.2,0-0.3,0-0.5
				c0.1-0.1,0.2-0.2,0.3-0.3c0.2-0.1,0.3,0.1,0.3,0.3C100.2,37.2,100,37.6,99.9,37.9z"/>
		</g>
	</g>
	<g>
		<g>
			<g>
				<path class="st3" d="M81.8,46.2C81.8,46.2,81.8,46.2,81.8,46.2c-0.1,0-0.1,0-0.1,0c-0.9,0.1-1.1,1.3-1.1,2
					c0,0.6,0.1,1.8,0.9,1.8c0.4,0,0.7-0.4,0.9-0.7c0.2-0.4,0.3-0.8,0.3-1.2C82.7,47.5,82.6,46.3,81.8,46.2z M81.9,49.1
					c0,0.1,0,0.1-0.1,0.2c0,0,0,0.1,0,0.1c0,0,0,0,0,0c-0.5,0-0.6-1-0.6-1.3c0-0.3,0-0.6,0.1-0.9c0-0.1,0.1-0.2,0.1-0.3
					c0.5,0,0.6,1,0.6,1.3C82,48.4,82,48.8,81.9,49.1z"/>
				<path class="st3" d="M79.6,46.4c-0.3-0.1-0.6,0-0.9,0.2c-0.1-0.2-0.1-0.4-0.2-0.7c-0.1-0.2-0.4,0-0.5,0.1
					c-0.1,0.1-0.2,0.2-0.2,0.3c0,0,0,0,0,0.1c0,0.2-0.1,0.3-0.1,0.4c0,0,0,0-0.1,0.1c-0.2,0.1-0.5,0-0.6-0.1c0,0,0,0,0,0
					c-0.1,0-0.2-0.1-0.4-0.1c0,0,0,0-0.1,0c0,0,0,0,0,0c-1,0.2-1,1.5-0.9,2.1c0.1,0.6,0.4,1.8,1.2,1.6c0.4-0.1,0.7-0.5,0.9-0.9
					c0.2-0.4,0.2-0.8,0.1-1.3c0-0.2-0.1-0.6-0.2-0.9c0.1-0.1,0.3-0.2,0.4-0.3c0.2,0.9,0.3,1.8,0.4,2.7c0.1,0.8,0.2,1.7,0.2,2.5
					c0,0.2,0.2,0.1,0.3,0.1c0.1-0.1,0.3-0.3,0.3-0.5c0-0.6,0-1.2-0.1-1.7c0.2,0,0.5-0.2,0.7-0.4c0.4-0.5,0.5-1.3,0.4-1.9
					C80.2,47.4,80.1,46.6,79.6,46.4z M77.2,49.5c0,0.1,0,0.1,0,0.2c0,0,0,0.1,0,0.1c0,0,0,0,0,0c-0.5,0.1-0.7-0.9-0.8-1.1
					c-0.1-0.3-0.1-0.6-0.1-0.9c0-0.1,0-0.2,0.1-0.3c0,0,0.1,0,0.1,0c0,0,0,0,0,0c0,0,0.1,0,0.1,0c0.3,0.2,0.5,0.8,0.5,1.1
					C77.2,48.9,77.2,49.2,77.2,49.5z M78.9,47C78.9,47,78.9,47,78.9,47L78.9,47z M79.6,49.5C79.6,49.5,79.6,49.5,79.6,49.5
					L79.6,49.5z M79.6,49.4C79.5,49.4,79.5,49.5,79.6,49.4C79.5,49.5,79.5,49.5,79.6,49.4c-0.3,0.1-0.5-0.1-0.5-0.3c0,0,0,0,0-0.1
					c0-0.5-0.1-1-0.2-1.5c0,0,0,0,0,0c0-0.2,0-0.3,0-0.5c0,0,0,0,0,0c0,0,0,0,0,0c0.1,0,0.2,0,0.3,0.1c0.3,0.3,0.4,0.7,0.4,1
					C79.6,48.6,79.7,49.1,79.6,49.4z"/>
				<path class="st3" d="M74.3,48.1c0.1-0.3,0.1-0.7,0.2-1c0.1-0.5,0.2-1.3-0.2-1.7c-0.3-0.5-0.9,0-1.2,0.3
					c-0.4,0.6-0.3,1.3-0.3,1.9c0.1,0.7,0.3,1.4,0.5,2.1c-0.1,0.3-0.1,0.7-0.3,1c0,0,0,0.1,0,0.1c0,0-0.1-0.1-0.1-0.1
					c-0.1-0.1-0.1-0.3-0.2-0.4c-0.4-1-0.6-2.2-1.1-3.1c-0.2-0.3-0.5-0.8-1-0.6c-0.4,0.2-0.5,0.5-0.6,0.9c-0.2-0.3-0.6-0.5-1-0.2
					c-0.2,0.1-0.3,0.3-0.4,0.5c-0.1-0.2-0.1-0.3-0.3-0.4c-0.3-0.2-0.8,0.6-0.6,0.8c0.2,0.1,0.2,0.3,0.3,0.5c0.2,0.4,0.3,0.7,0.5,1.1
					c0.1,0.2,0.2,0.4,0.2,0.6c0.3,0.8,0.6,1.6,0.9,2.4c0,0.1,0.1,0.1,0.1,0.1c0.2,0,0.5-0.5,0.4-0.7c-0.3-0.7-0.5-1.4-0.8-2.1
					c-0.1-0.3-0.2-0.6-0.3-0.9c-0.1-0.3-0.2-0.7-0.2-1c0,0,0-0.1,0-0.1c0.5-0.2,0.9,0.9,1,1.1c0.2,0.4,0.3,0.8,0.5,1.2
					c0.2,0.6,0.4,1.2,0.6,1.8c0,0.1,0.1,0.1,0.1,0.1c0.2,0,0.5-0.5,0.4-0.7c-0.2-0.6-0.4-1.3-0.6-1.9c0-0.2-0.1-0.3-0.1-0.5
					c-0.1-0.5-0.3-1.1-0.3-1.7c0,0,0,0,0,0c0.1,0,0.3,0.1,0.3,0.2c0.4,0.5,0.6,1.2,0.9,1.9c0.1,0.4,0.3,0.9,0.4,1.3
					c0.1,0.3,0.2,0.6,0.4,0.8c0.2,0.3,0.5,0,0.7-0.2c0.2-0.2,0.3-0.5,0.4-0.8c0.2,0.4,0.4,0.7,0.8,0.7c0.6-0.1,0.8-0.7,0.9-1.2
					c0.1-0.5,0-1.5-0.6-1.8C74.6,48,74.5,48,74.3,48.1z M73.5,47.4c-0.1-0.5-0.1-1,0-1.5c0,0,0,0,0,0c0.2,0,0.2,0.2,0.2,0.4
					c0.1,0.5,0.1,1,0,1.5c0,0.2-0.1,0.4-0.1,0.6C73.6,48.1,73.5,47.7,73.5,47.4z M74.7,49.5c0,0.2,0.1,0.5,0,0.7c0,0,0,0,0,0
					c0,0-0.1,0-0.1,0c-0.1,0-0.3-0.2-0.3-0.3c-0.2-0.2-0.3-0.5-0.4-0.7c0-0.1,0.1-0.3,0.1-0.4c0.1-0.1,0.2-0.1,0.3,0
					C74.6,49,74.7,49.3,74.7,49.5z"/>
				<path class="st3" d="M94.4,51.6c-0.1-0.1-0.3-0.1-0.4-0.1c0,0,0,0,0,0c0,0-0.1-0.1-0.1-0.1c-0.1-0.1,0-0.3,0-0.4
					c0-0.3,0.1-0.7,0.3-1c0,0,0,0,0,0c0.1-0.3,0.2-0.5,0.3-0.8c0,0,0,0,0,0c0,0,0,0,0,0c0.1-0.2,0.2-0.3,0.3-0.5
					c0.1-0.2-0.2-0.2-0.3-0.2c0,0,0,0-0.1,0c-0.2-0.2-0.4-0.2-0.7-0.2c-0.8,0.1-1.3,0.8-1.4,1.5c-0.1,0.4,0.2,0.8,0.6,0.9
					c0.1,0,0.1,0,0.2,0c-0.1,0.2-0.2,0.3-0.4,0.4c-0.1,0.1-0.3-0.2-0.3-0.4c0-0.1-0.1-0.1-0.2-0.1c0,0,0,0,0,0
					c-0.2,0-0.3,0.1-0.4,0.2c0,0,0,0,0-0.1c-0.1-0.2,0-0.4,0-0.6c0.1-0.6,0.3-1.3,0.5-1.9c0,0,0,0,0,0c0.1-0.4-0.2-0.7-0.6-0.7
					c-0.4,0-0.8,0.2-1.1,0.5c-0.4,0.4-0.6,1-0.7,1.5h0c-0.1,0.1-0.1,0.4-0.3,0.6c0,0,0,0,0,0c0,0-0.1,0-0.1,0c-0.1-0.1,0-0.5,0-0.7
					c0-0.6,0.2-1.2,0.4-1.8c0.1-0.1,0.1-0.3,0.2-0.4c0.1-0.1,0-0.3-0.2-0.3c-0.2,0-0.4,0.1-0.5,0.3c-0.1,0.1-0.2,0.3-0.2,0.4
					c-0.1,0.2-0.2,0.4-0.4,0.5c-0.1,0.1-0.2,0.2-0.4,0.3c0,0,0,0,0,0c0.1-0.6,0.1-1.2,0.2-1.8c0-0.1,0-0.1-0.1-0.2c0,0,0,0,0,0l0,0
					c0,0,0,0,0,0c0,0,0,0,0,0h0c-0.1,0-0.1,0-0.2,0c-0.1,0-0.3,0.1-0.4,0.3c0,0-0.1,0.1-0.1,0.1c-0.2,0.8-0.5,1.7-1,2.4
					c0,0-0.1,0.1-0.1,0.1c0,0,0,0,0,0c0,0,0,0,0,0c0,0,0,0,0,0c-0.2-0.1-0.2-0.3-0.3-0.4c-0.2-0.5-0.1-1,0-1.5
					c0-0.1,0.1-0.2,0.1-0.3c0-0.1,0.1-0.1,0.1-0.2c0,0,0,0,0,0c0,0,0,0,0,0c0.1,0.1,0.2,0.2,0.2,0.3c0.1,0.2,0.9-0.2,0.8-0.5
					c-0.2-0.4-0.7-0.5-1.1-0.3c-0.3,0.2-0.5,0.4-0.6,0.6c0,0,0,0,0,0.1c0,0,0,0,0,0c0,0,0,0.1-0.1,0.1c0,0,0,0,0,0
					c-0.1,0.1-0.1,0.3-0.2,0.4c0.1-0.5,0.1-1,0.2-1.5c0-0.4-0.7,0-0.7,0.2c-0.1,0.2-0.2,0.4-0.3,0.6c0-0.2-0.1-0.4-0.2-0.6
					c-0.3-0.5-0.8-0.5-1.2-0.1c-0.1,0.1-0.3,0.3-0.2,0.4c0.1,0.1,0.3,0,0.4-0.1c0,0,0,0,0,0c0,0,0.1,0.1,0.1,0.1
					c0.1,0.1,0.1,0.2,0.2,0.3c0.1,0.3,0.1,0.6,0.1,1c0,0.3,0,0.6-0.1,0.9c0,0,0,0,0,0.1c0,0,0,0.1,0,0.1c-0.1,0-0.2-0.2-0.2-0.2
					c-0.1-0.2-0.8,0.3-0.6,0.6c0.4,0.6,1,0.2,1.3-0.2c0.1-0.2,0.2-0.4,0.3-0.6c0.1-0.2,0.1-0.3,0.2-0.5c0,0.5-0.1,1-0.2,1.5
					c0,0.2,0.2,0.2,0.3,0.1c0.2-0.1,0.3-0.2,0.4-0.4c0-0.2,0.1-0.4,0.2-0.6c0,0.2,0,0.4,0.1,0.6c0.1,0.2,0.2,0.5,0.5,0.6
					c0.4,0.1,0.8-0.2,1-0.4c0.2-0.2,0.4-0.4,0.6-0.6c0,0.3-0.1,0.7-0.2,1c0,0.2,0.2,0.2,0.3,0.1c0.2-0.1,0.4-0.2,0.4-0.4
					c0.1-0.3,0.2-0.6,0.4-0.9c0.1-0.1,0.2-0.2,0.4-0.3c0,0,0,0,0,0c-0.1,0.5-0.2,0.9-0.1,1.4c0,0.4,0.3,0.5,0.7,0.4
					c0.2,0,0.3-0.1,0.5-0.2c0,0.2,0.1,0.3,0.2,0.4c0.3,0.2,0.7,0.1,1-0.1c0,0,0.1,0,0.1-0.1c0,0.1,0,0.1,0,0.2
					c0.1,0.4,0.4,0.5,0.8,0.4c0.2,0.4,0.8,0.4,1.2,0.2c0.1,0,0.2-0.1,0.2-0.1c0,0.1,0,0.2,0,0.2c0.1,0.5,0.6,0.6,1,0.4
					C94.2,52,94.5,51.8,94.4,51.6z M90.6,50.4c0,0-0.1,0-0.1,0c-0.1-0.1-0.1-0.3-0.1-0.5c0-0.2,0-0.4,0-0.6c0,0,0,0,0,0
					c0,0,0,0,0-0.1c0.1-0.3,0.2-0.5,0.3-0.8c0.1-0.1,0.2-0.3,0.3-0.4c0,0,0,0,0,0c0,0,0.1,0,0.1,0c0.2,0,0.2,0.2,0.2,0.3
					c-0.2,0.6-0.4,1.3-0.7,1.9C90.6,50.3,90.6,50.4,90.6,50.4z M91.6,50.8L91.6,50.8C91.6,50.8,91.6,50.8,91.6,50.8
					C91.6,50.8,91.6,50.8,91.6,50.8z M93.1,49.6c0-0.3,0.2-0.7,0.4-0.8c0,0,0.1,0,0.2,0.1c0.1,0.1,0.1,0.3,0.1,0.4
					c-0.1,0.3-0.2,0.6-0.3,0.9C93.1,50,93.1,49.8,93.1,49.6z M94,51.6C94,51.6,94,51.6,94,51.6L94,51.6z"/>
			</g>
		</g>
		<path class="st3" d="M87.4,56.1C87.4,56.1,87.3,56,87.4,56.1c-0.1-0.1-0.1-0.2-0.1-0.2c0-0.2,0-0.4,0-0.6c0-0.6,0.1-1.2,0.2-1.7
			c0,0,0,0,0,0c0-0.4-0.3-0.7-0.7-0.6c-0.4,0-0.7,0.3-1,0.6c-0.3,0.4-0.4,0.8-0.5,1.3c-0.1,0.2-0.1,0.4-0.2,0.6
			c0,0.1-0.1,0.1-0.1,0.2c0,0.1-0.1,0.1-0.1,0.1c0,0,0,0-0.1,0c-0.1,0,0,0-0.1,0c-0.2,0-0.4-0.1-0.5-0.3c-0.3-0.4-0.2-1-0.2-1.4
			c0-0.2,0.1-0.5,0.2-0.7c0,0,0.1,0,0.1,0.1c0.1,0.1,0.2,0.3,0.2,0.5c0.1,0.3,0.8-0.1,0.7-0.4c-0.1-0.3-0.2-0.8-0.6-0.8
			c-0.4,0-0.8,0.3-0.9,0.7c-0.2,0.4-0.3,0.8-0.3,1.3c0,0.2-0.1,0.5-0.2,0.7c0,0.1-0.1,0.1-0.1,0.2c0,0.1-0.1,0.1-0.1,0.1l-0.1,0
			c-0.1,0,0,0-0.1,0c-0.2,0-0.4-0.1-0.5-0.2c-0.3-0.3-0.3-1-0.2-1.4c0-0.2,0.1-0.5,0.2-0.8c0,0,0.1,0,0.1,0.1
			c0.1,0.1,0.2,0.3,0.2,0.5c0.1,0.3,0.8-0.2,0.7-0.5c-0.1-0.3-0.3-0.8-0.7-0.8c-0.4,0-0.8,0.4-0.9,0.7c-0.2,0.4-0.3,0.9-0.3,1.4
			c0,0.1,0,0.1,0,0.1c0,0.2-0.1,0.5-0.2,0.8c-0.2-0.1-0.2-0.6-0.2-0.7c-0.1-0.6-0.1-1.2,0-1.7c0,0,0,0,0,0c0-0.4-0.4-0.6-0.8-0.5
			c-0.4,0.1-0.7,0.4-0.9,0.8c-0.2,0.4-0.3,0.9-0.3,1.4c0,0.3-0.1,0.5-0.1,0.8c0,0,0,0.1,0,0.1c-0.1,0-0.1-0.1-0.1-0.2
			c-0.1-0.2-0.2-0.6-0.2-0.8c-0.1-0.5-0.2-1.2,0-1.7c0-0.1,0-0.2-0.2-0.2c-0.2,0-0.4,0.2-0.5,0.4c0,0,0,0.1,0,0.1h0v0
			c-0.1,0.3-0.2,0.6-0.3,1c-0.1-0.4-0.2-0.9-0.1-1.2c0-0.1,0-0.2-0.2-0.2c-0.2,0-0.3,0.2-0.4,0.3c-0.3,0.6-0.3,1.3-0.3,1.9
			c0,0.3,0,0.6-0.1,0.9c0,0,0,0,0,0c-0.2-0.1-0.2-0.4-0.2-0.6c0-0.2-0.3,0-0.4,0.1c-0.1,0.1-0.2,0.3-0.2,0.5c0.1,0.4,0.4,1,0.9,0.6
			c0.3-0.2,0.5-0.6,0.6-1c0.1,0.3,0.1,0.5,0.2,0.8c0.1,0.4,0.6-0.2,0.6-0.4c0-0.2,0-0.3,0-0.5c0.2,0.7,0.5,1.1,1,0.7
			c0.1-0.1,0.2-0.2,0.3-0.3c0.1,0.2,0.2,0.3,0.3,0.4c0.3,0.1,0.7-0.1,0.9-0.4c0,0,0,0,0,0c0,0.1,0.1,0.2,0.1,0.3
			c0.1,0.1,0.3,0.1,0.4,0.1c0.3,0,0.5-0.3,0.6-0.5c0.3,0.5,0.9,0.6,1.4,0.3c0.2-0.1,0.4-0.3,0.5-0.4c0,0,0,0.1,0.1,0.1
			c0.2,0.5,0.9,0.7,1.4,0.4c0.2-0.1,0.3-0.2,0.5-0.3c0,0.2,0.1,0.4,0.3,0.6c0.3,0.2,0.7,0,0.9-0.2c0,0,0,0,0,0
			c0,0.1,0.1,0.2,0.1,0.3c0.2,0.3,0.6,0.2,0.8,0c0.1-0.1,0.3-0.2,0.3-0.4C87.7,56,87.4,56.1,87.4,56.1z M80,55.4c0,0,0,0.1,0,0.2
			c0,0-0.1,0-0.1,0c-0.1,0-0.2-0.3-0.2-0.4c-0.2-0.5-0.1-1,0-1.5c0-0.1,0.1-0.4,0.2-0.5c0,0,0,0,0,0c0,0,0.1,0,0.1,0
			c0.2,0,0.3,0.1,0.3,0.3C80.1,54.1,80.1,54.8,80,55.4z M86.3,55.7c0,0,0,0.1-0.1,0.1c0,0-0.1,0-0.1,0C86,55.8,86,55.5,86,55.4
			c-0.1-0.5,0-1,0.1-1.5c0-0.1,0.2-0.4,0.2-0.4c0,0,0,0,0,0c0,0,0.1,0,0.1,0c0.2,0,0.2,0.2,0.2,0.3C86.6,54.4,86.5,55.1,86.3,55.7z"
			/>
	</g>
	<g>
		<circle class="st7" cx="69" cy="65.2" r="5.1"/>
		<g>
			<path class="st3" d="M71.3,63.8c-0.6,1-1.4,2-2.1,2.9c-0.3,0.4,0.2,0.4,0.4,0.1c0.8-1,1.6-2,2.2-3.1
				C72.1,63.3,71.5,63.5,71.3,63.8L71.3,63.8z"/>
			<path class="st3" d="M70.2,63.5c-0.4,0-0.7,0.4-0.7,0.7c-0.1,0.3,0.1,0.6,0.5,0.6C70.6,64.9,71,63.5,70.2,63.5
				c-0.2,0-0.5,0.4-0.2,0.4c0.2,0,0.3,0.2,0.3,0.3c0,0.1,0,0.1,0,0.2c0,0.1,0,0,0,0c0,0-0.1,0-0.1,0c-0.2,0-0.3-0.2-0.3-0.3
				c0-0.1,0-0.1,0-0.2c0,0,0,0,0,0c0,0,0.1,0,0.1,0C70.1,63.9,70.4,63.5,70.2,63.5z"/>
			<path class="st3" d="M71.2,65.7c-0.4,0-0.7,0.4-0.7,0.7C70.5,66.7,70.7,67,71,67C71.7,67,72.1,65.7,71.2,65.7
				c-0.2,0-0.5,0.4-0.2,0.4c0.2,0,0.3,0.2,0.3,0.3c0,0.1,0,0.1,0,0.2c0,0.1,0,0,0,0c0,0-0.1,0-0.1,0c-0.2,0-0.3-0.2-0.3-0.3
				c0-0.1,0-0.1,0-0.2c0,0,0,0,0,0c0,0,0.1,0,0.1,0C71.2,66.1,71.5,65.7,71.2,65.7z"/>
		</g>
		<path class="st3" d="M67.3,64.9c-0.2-0.1-0.8-0.7-0.4-1c0.2-0.1,0.4-0.1,0.6,0c0.5,0.1,0.1,0.5-0.1,0.7c-0.1,0.1-0.9,0.7-0.6,0.9
			c0.4,0.3,1.1,0,1.1,0.6c0,0.4-0.7,0.5-1,0.3c-0.4-0.3-0.4-0.7,0.1-1c0.2-0.1,0.4-0.7,0-0.5c-0.5,0.3-1,0.7-1,1.3
			c0,0.4,0.4,0.8,0.8,0.9c0.6,0.1,1.2-0.3,1.5-0.8c0.3-0.4,0.3-1-0.3-1.2c-0.2,0-0.6-0.2-0.7,0c0.2-0.3,0.5-0.4,0.7-0.7
			c0.4-0.5,0.2-1.1-0.4-1.2c-0.6-0.1-1.1,0.3-1.3,0.8c-0.3,0.6,0,1.1,0.5,1.4C67.1,65.6,67.6,65.1,67.3,64.9L67.3,64.9z"/>
	</g>
	<g>
		<g>
			<path class="st3" d="M82.5,61.8c-0.1-0.1-0.3,0-0.4,0.1c0-0.1,0-0.3,0-0.4c0-0.2-0.4,0.1-0.4,0.3c0,0.3,0,0.5,0.1,0.8
				c0,0,0,0,0,0c0,0,0,0,0,0c0,0.1,0,0.2,0,0.4c-0.1,0.1-0.2,0.2-0.3,0.2c0-0.5,0-1,0-1.4c0,0,0,0,0-0.1c0,0,0,0,0,0c0,0,0,0,0,0
				c0,0,0,0,0,0c-0.1,0-0.3,0.1-0.4,0.2c0,0,0,0,0,0c-0.1,0.4-0.1,0.7-0.3,1.1c0,0.1-0.1,0.4-0.3,0.3c-0.2-0.2-0.1-0.6,0-0.8
				c0.1-0.3,0.1-0.6,0.2-0.8c0-0.2-0.4,0-0.4,0.1c0,0.2-0.2,0.7-0.3,1.2c-0.2,0.1-0.5,0.3-0.6,0.1c-0.1-0.1,0-0.3,0-0.5
				c0-0.3-0.2-0.4-0.4-0.4c0,0,0,0,0,0c0-0.1,0.1-0.2,0.2-0.3c0.1-0.1,0.2-0.1,0.3,0c0.1,0.1,0.6-0.1,0.4-0.2
				c-0.3-0.3-0.6-0.2-0.9,0.1c0-0.2,0.1-0.4,0.1-0.7c0-0.2-0.4,0-0.4,0.1c-0.1,0.7-0.3,1.3-0.6,1.9c-0.1,0.2,0.5,0.1,0.5,0
				c0.1-0.2,0.2-0.3,0.2-0.5c0.3,0.1-0.1,0.7,0.2,0.8c0.3,0.2,0.7,0,1-0.1c0,0.2,0.2,0.4,0.4,0.4c0.3,0,0.5-0.1,0.6-0.2
				c0,0,0,0.1,0,0.1c-0.2,0.2-0.4,0.3-0.6,0.5c-0.2,0.2-1,1.1-0.2,1.3c0.6,0.1,1-0.3,1.1-0.7c0.1-0.3,0.2-0.7,0.2-1.1
				c0.1-0.1,0.2-0.2,0.3-0.3c0,0,0,0.1,0,0.1c0,0,0,0,0,0c0,0,0,0,0,0.1c0,0.5-0.1,1-0.2,1.5c0,0.2,0.5,0,0.5-0.2
				c0-0.3,0.1-0.6,0.1-1c0.1,0,0.3-0.1,0.4-0.2c0.3-0.3,0.4-0.7,0.3-1.1C82.9,62.4,82.8,62,82.5,61.8z M80.5,65.1
				c-0.5-0.1-0.1-0.5,0.4-1C80.8,64.7,80.7,65.1,80.5,65.1z M82.5,63.4c0,0.1,0,0.1-0.1,0.2c0,0,0,0-0.1,0c-0.1,0-0.2-0.1-0.2-0.2
				c0-0.3,0-0.6,0-0.9c0-0.3,0.1-0.3,0.2-0.1c0.1,0.1,0.1,0.3,0.1,0.5C82.6,63,82.6,63.2,82.5,63.4z"/>
			<path class="st3" d="M86.4,60.8C86.4,60.8,86.4,60.8,86.4,60.8C86,61,86.1,61.6,86.2,62c0,0.1,0.1,0.3,0.2,0.5
				c-0.1,0.2-0.3,0.5-0.6,0.5c-0.5-0.1,0-0.8,0-1.1c0.1-0.7-0.5-0.7-0.9-0.2c-0.1,0.2-0.1,0.5,0.1,0.2c0.2-0.2,0.4-0.1,0.4,0.1
				c0,0.2-0.2,0.5-0.3,0.7c0,0.1-0.1,0.2,0,0.4c-0.2,0.2-0.4,0.3-0.5,0c-0.1-0.2-0.2-0.4-0.2-0.6c0-0.1,0-0.3-0.1-0.4
				c0-0.1,0-0.1,0-0.2c0,0,0,0,0,0c-0.2-0.5-0.7-0.1-0.9,0.2c-0.2,0.4-0.2,0.9-0.1,1.3c0.1,0.4,0.6,0.5,0.9,0.1c0,0,0,0,0-0.1
				c0,0.1,0.1,0.1,0.1,0.2c0.2,0.2,0.6-0.1,0.8-0.4c0,0,0,0,0.1,0.1c0.4,0.3,0.9-0.2,1.2-0.7c0.1,0.2,0.3,0.3,0.5,0.2
				c0.5-0.2,0.4-0.9,0.3-1.3C87.2,61.3,86.8,60.6,86.4,60.8z M84,63.4c-0.1,0-0.2-0.1-0.2-0.1c-0.1-0.2-0.2-0.4-0.2-0.6
				c0-0.1,0-0.2,0-0.4c0-0.1,0-0.1,0.1-0.2c0.1-0.1,0.2,0.1,0.3,0.1c0,0.3,0.1,0.6,0.1,0.9C84,63.1,84,63.4,84,63.4z M87.1,62
				c0,0.1,0,0.1,0,0.2c0,0.1,0,0.1,0,0.1s-0.5-0.3-0.5-0.4c-0.1-0.1-0.1-0.3-0.2-0.5c0-0.1,0-0.2,0-0.3c0,0,0-0.1,0-0.1
				c0.2,0,0.4,0.2,0.5,0.4C86.9,61.7,87,61.9,87.1,62z"/>
			<path class="st3" d="M87.4,60c0.2-0.1,0.3-0.5,0.2-0.8c0-0.1-0.1-0.2-0.1-0.1c-0.1,0.1-0.1,0.2-0.1,0.3c0,0,0,0.1,0,0.1
				c0,0,0,0,0,0c0,0,0,0,0,0c0,0,0,0,0,0c0,0,0,0,0,0c0,0,0,0,0,0s-0.1,0.1-0.2,0.1c0,0.1-0.1,0.3,0,0.3C87.2,60,87.3,60,87.4,60z"
				/>
			<path class="st3" d="M89.1,61c-0.1,0.3-0.6-0.3-0.7-0.3c-0.1-0.1-0.1-0.1-0.2-0.2c-0.1-0.2-0.2-0.4-0.3-0.5c0,0,0-0.1-0.1-0.1
				c-0.1-0.2-0.3,0.3-0.2,0.4c0.1,0.3,0.3,0.5,0.4,0.8c0.1,0.1,0.1,0.3,0.2,0.4c0.1,0.2,0.1,0.2-0.1,0.2c-0.5,0-0.7-0.9-0.8-1.3
				c-0.1-0.3-0.3,0.2-0.2,0.3c0.1,0.3,0.5,1.9,1.2,1.4c0.2-0.2,0.3-0.3,0.3-0.5c0.3,0.2,0.7-0.2,0.8-0.5
				C89.5,60.6,89.2,60.6,89.1,61z"/>
			<path class="st3" d="M76.3,61.7c-0.2,0-0.5,0-0.7-0.2c-0.2-0.2-0.1-0.4,0-0.6c0.1-0.2,0.2-0.4,0.4-0.5c0,0,0.1-0.1,0.1-0.1
				c0.1-0.1,0.1-0.1,0.1,0c0.1,0.1,0,0.2,0,0.3c0,0.2,0.5,0.1,0.5,0c0.1-0.3,0-0.6-0.4-0.6c-0.5,0-0.8,0.4-1,0.7
				c-0.2,0.3-0.3,0.6,0,1c0.3,0.4,1,0.4,1.3,0.3C76.7,61.9,76.6,61.7,76.3,61.7z"/>
		</g>
	</g>
	<g>
		<path class="st8" d="M100,63.3c0,0.8-0.7,1.5-1.5,1.5c-0.8,0-1.5-0.7-1.5-1.5c0-0.8,0.7-1.5,1.5-1.5C99.4,61.8,100,62.5,100,63.3"
			/>
		<path class="st6" d="M100.3,60.6c0,0,0.7-1.6-1.9-2.8C98.4,57.8,96.5,60.1,100.3,60.6"/>
		<path class="st5" d="M97.3,65.8c0,0-2.5-2.6,0.3-5.3c0,0,1.3-1.3,2.9,0C100.5,60.5,97.6,62.3,97.3,65.8"/>
		<path class="st9" d="M98.6,66.1c-0.7,0.1-2.4,0.1-1.3-2.8c0.2-0.5,0.5-1.1,0.8-1.4c1.5-1.7,3.4-1.9,3.9,0.2
			C102.8,64.9,100,65.9,98.6,66.1"/>
		<path class="st10" d="M98.2,65.6c0,0,3-0.2,3.1-2.3C101.3,63.3,100.4,65.4,98.2,65.6"/>
		<path class="st10" d="M96.9,63.5c0,0,0.4-2.6,2.1-3.1C99,60.4,97,60.6,96.9,63.5"/>
		<path class="st6" d="M100.4,60.5c0,0,2.2,1,3.8-2.6C104.2,57.9,100,56.6,100.4,60.5 M100.8,60.2c1.3,0.3,3.1-2.1,3.1-2.1
			C102,61.2,100.6,60.2,100.8,60.2z"/>
		<path class="st5" d="M103.7,61.9c0.2,0.1,0.3,0.2,0.5,0.3c0.5,0.5-0.2,0.6,0,0.8c0.3,0.3,1.4-0.2,1.6,1.4c0.3,1.4-1.4,2.6-3,2.6
			c-1.6,0-3.1-1.2-3.1-2.6c0-1.4,1.4-2.6,3.1-2.6C103.2,61.7,103.4,61.8,103.7,61.9"/>
		<path class="st9" d="M100.5,65.9c0,0-1.9-2.1,0.6-3.6c0,0,1.8-1,3-0.1c0,0,0.3,0.3,0,0.6c-0.3,0.3,0.1,0.4,0.1,0.4
			c0,0,1.3,0,1.5,1.2C105.9,65.7,102.6,67.5,100.5,65.9"/>
		<path class="st11" d="M101.1,64.9c0,0-0.4-1,0.3-1.8c0.7-0.7,2.2-0.7,2.4,0C103.8,63.1,105.4,65.3,101.1,64.9L101.1,64.9z"/>
	</g>
	<g>
		<path class="st12" d="M62.3,44c-0.1,0-0.2-0.1-0.2-0.2c-0.3-0.1-0.6,0.1-0.9,0.1c-0.8,0-1,0-2-0.3c0-0.8,0.5-1.3,0.7-1.9
			c0.2-0.5-0.1-1.2-0.1-1.8c0-0.4,0-0.7,0-1.1c-0.3,0.2-0.1,1-0.2,1.3c-0.1-0.5-0.1-1.1-0.3-1.5c-0.1,0.5,0,1.1,0,1.5
			c-0.1-0.4-0.2-0.9-0.3-1.3c-0.2,0.4,0.1,1.1,0.1,1.5c-0.2-0.4-0.2-0.8-0.4-1.2c-0.1,0.5,0.2,0.9,0.1,1.3c-0.2-0.3-0.2-0.7-0.5-0.9
			c0,0.3,0.2,0.7,0.3,1c-0.2-0.1-0.3-0.4-0.5-0.5c0,0.3,0.2,0.4,0.3,0.6c-0.2-0.1-0.2-0.3-0.4-0.3c0,0.2,0.2,0.3,0.3,0.5
			c-0.1-0.1-0.2-0.2-0.3-0.2c0,0.2,0.3,0.3,0.2,0.4c0,0-0.2-0.1-0.2,0c0,0,0.2,0.1,0.1,0.1c-0.1,0-0.1,0-0.1,0
			c0,0.1,0.1,0.1,0.1,0.2c0,0-0.1,0-0.1,0c0,0.1,0.1,0.1,0.1,0.2c-0.7,0.7-0.3,1.4-0.4,2.2c0-0.1-0.5-0.2-1-0.4
			c-0.2-0.1-0.3-0.4-0.5-0.5c0,0,0.1,0,0.1-0.1c-0.1,0-0.2-0.1-0.2-0.1c0.1,0,0.2,0,0.3,0c-0.1-0.1-0.4-0.1-0.4-0.3
			c0.2,0,0.3,0.1,0.4,0.1c-0.2-0.1-0.5-0.2-0.5-0.4c0.2,0.1,0.4,0.2,0.6,0.1c-0.3-0.1-0.7-0.4-0.7-0.6c0.2,0.1,0.5,0.3,0.7,0.3
			c-0.3-0.1-0.6-0.5-0.9-0.5c0.1,0.3,0.6,0.5,0.7,0.7c-0.2-0.2-0.5-0.3-0.8-0.4c0.1,0.3,0.5,0.4,0.7,0.6c-0.2,0-0.4-0.1-0.6-0.1
			c0.1,0.3,0.5,0.2,0.6,0.4c-0.1-0.1-0.3,0-0.4,0c0,0.2,0.3,0.1,0.4,0.2c-0.1,0-0.3,0-0.3,0.1c0.1,0.1,0.3,0,0.3,0.1
			c-0.1,0-0.2,0-0.2,0.1c0,0.1,0.2,0,0.2,0.1c0,0-0.1,0-0.1,0.1c0.1,0,0.1,0,0.1,0c0,0-0.1,0-0.1,0.1c0.4,0.2,0.5,0.8,1,0.9
			c-0.3,0.2,0.3,0.4-2.8,1.4c0.1,0,1.4-0.3,1.7-0.4c0.4-0.1,0.8-0.2,1.1-0.4c0.1,0,0.2-0.1,0.3-0.1c0.6-0.1,1.2,0.1,1.8-0.4
			c-0.5,0.1-1.3,0.2-1.6-0.1c0.4-0.7,0.1-2.3,0.5-2.7c0.4-0.3,0.9-1.4,1.5-0.5c0.1,0.1,0.1,0.4-0.1,0.7c-0.3,0.5-0.5,0.7-0.4,1.7
			c0,0.2,0,0.4-0.3,0.4c1.3,0.3,1.7,0.1,2.5,0c0.3,0,0.6-0.2,0.7,0c0,0.1-0.3,0.1-0.5,0.1c-0.4,0,0.2,0.1,0.3,0.1
			c0.1,0,0.8-0.1,1.2-0.2C62.7,44.1,62.6,44.1,62.3,44z"/>
		<path class="st12" d="M58.4,37.1c-3.1,0-5.6,2.5-5.6,5.6c0,3.1,2.5,5.6,5.6,5.6c3.1,0,5.6-2.5,5.6-5.6
			C64,39.6,61.5,37.1,58.4,37.1 M58.4,37.4c3,0,5.4,2.4,5.4,5.4c0,3-2.4,5.4-5.4,5.4c-3,0-5.4-2.4-5.4-5.4
			C53,39.8,55.4,37.4,58.4,37.4"/>
	</g>
</g>
</svg>
