<svg xmlns="http://www.w3.org/2000/svg" viewBox="0 0 356 265"><style>.st0{fill:#EFEFEF;} .st1{fill:#DDDDDD;} .st2{fill:#E0E0E0;} .st3{fill:#FFFFFF;} .st4{fill:#F05E24;} .st5{fill-rule:evenodd;clip-rule:evenodd;fill:#F05E24;} .st6{fill-rule:evenodd;clip-rule:evenodd;fill:#62BA47;} .st7{fill:#62BA47;} .st8{fill-rule:evenodd;clip-rule:evenodd;fill:#F05B24;} .st9{fill-rule:evenodd;clip-rule:evenodd;fill:#F8A78A;} .st10{fill-rule:evenodd;clip-rule:evenodd;fill:#FFFFFF;} .st11{fill-rule:evenodd;clip-rule:evenodd;} .st12{fill:#62BA46;} .st13{fill:#5C308F;} .st14{fill-rule:evenodd;clip-rule:evenodd;fill:#5C308F;} .st15{fill-rule:evenodd;clip-rule:evenodd;fill:#82BC00;} .st16{fill-rule:evenodd;clip-rule:evenodd;fill:#824098;} .st17{fill-rule:evenodd;clip-rule:evenodd;fill:#F3F4F5;} .st18{fill:#AB1D43;} .st19{fill-rule:evenodd;clip-rule:evenodd;fill:#AB1D43;} .st20{fill:#ED265C;}</style><g id="tvorog"><path class="st0" d="M160.1 63.5H44.6l7.6 49.8c.7 4.9 5 8.7 10.1 8.7h80.1c5.5 0 10-4.3 10.2-9.8l7.5-48.7z"/><path class="st1" d="M142.4 63.5h-40.1V122h40.1c5.5 0 10-4.3 10.2-9.8l7.4-48.8h-17.6z"/><path class="st2" d="M160.9 60.2c0 1.3-1.1 2.4-2.4 2.4H46c-1.3 0-2.4-1.1-2.4-2.4 0-1.3 1.1-2.4 2.4-2.4h112.5c1.3 0 2.4 1.1 2.4 2.4z"/><path class="st3" d="M163.7 63.5c0 1.3-1.1 2.4-2.4 2.4H42.6c-1.3 0-2.4-1.1-2.4-2.4 0-1.3 1.1-2.4 2.4-2.4h118.7c1.3 0 2.4 1.1 2.4 2.4zM60.3 83.2c.3 2.2-1.2 4.1-3.4 4.5-2.2.3-4.2-1.2-4.5-3.4L51 73.8c-.3-2.2 1.2-4.2 3.4-4.5 2.2-.3 4.2 1.2 4.5 3.4l1.4 10.5z"/><path class="st0" d="M320.9 63.5H205.4l7.6 49.8c.7 4.9 5 8.7 10.1 8.7h80.1c5.5 0 10-4.3 10.2-9.8l7.5-48.7z"/><path class="st1" d="M303.2 63.5h-40.1V122h40.1c5.5 0 10-4.3 10.2-9.8l7.4-48.8h-17.6z"/><path class="st2" d="M321.7 60.2c0 1.3-1.1 2.4-2.4 2.4H206.8c-1.3 0-2.4-1.1-2.4-2.4 0-1.3 1.1-2.4 2.4-2.4h112.5c1.3 0 2.4 1.1 2.4 2.4z"/><path class="st3" d="M324.5 63.5c0 1.3-1.1 2.4-2.4 2.4H203.4c-1.3 0-2.4-1.1-2.4-2.4 0-1.3 1.1-2.4 2.4-2.4h118.7c1.3 0 2.4 1.1 2.4 2.4zM221.1 83.2c.3 2.2-1.2 4.1-3.4 4.5-2.2.3-4.2-1.2-4.5-3.4l-1.5-10.5c-.3-2.2 1.2-4.2 3.4-4.5 2.2-.3 4.2 1.2 4.5 3.4l1.5 10.5z"/><g><path class="st0" d="M240.5 164.4H125l7.6 49.8c.7 4.9 5 8.7 10.1 8.7h80.1c5.5 0 10-4.3 10.2-9.8l7.5-48.7z"/><path class="st1" d="M222.8 164.4h-40.1V223h40.1c5.5 0 10-4.3 10.2-9.8l7.4-48.8h-17.6z"/><path class="st2" d="M241.3 161.1c0 1.3-1.1 2.4-2.4 2.4H126.4c-1.3 0-2.4-1.1-2.4-2.4 0-1.3 1.1-2.4 2.4-2.4h112.5c1.3 0 2.4 1.1 2.4 2.4z"/><path class="st3" d="M244.1 164.4c0 1.3-1.1 2.4-2.4 2.4H122.9c-1.3 0-2.4-1.1-2.4-2.4 0-1.3 1.1-2.4 2.4-2.4h118.7c1.4 0 2.5 1.1 2.5 2.4zM140.7 184.1c.3 2.2-1.2 4.1-3.4 4.5-2.2.3-4.2-1.2-4.5-3.4l-1.5-10.5c-.3-2.2 1.2-4.2 3.4-4.5 2.2-.3 4.2 1.2 4.5 3.4l1.5 10.5z"/></g><g><circle class="st4" cx="102.5" cy="94.6" r="16.1"/><path class="st5" d="M94.9 74.8c0 1.1-.9 2.1-2.1 2.1-1.1 0-2.1-.9-2.1-2.1 0-1.1.9-2.1 2.1-2.1 1.2 0 2.1 1 2.1 2.1z"/><path class="st6" d="M95 81.8c0 1.5-1.2 2.6-2.6 2.6-1.5 0-2.7-1.2-2.7-2.6 0-1.5 1.2-2.7 2.7-2.7 1.4 0 2.6 1.2 2.6 2.7zM87.9 77.7c0 .9-.7 1.6-1.6 1.6-.9 0-1.6-.7-1.6-1.6 0-.9.7-1.6 1.6-1.6.9 0 1.6.7 1.6 1.6z"/><circle class="st7" cx="116.3" cy="79.8" r="8.9"/><path class="st3" d="M114.1 78.6c-.7.1-.9 1-1 1.6v1.1c0 .1-.1.3-.1.3-.3 0-.5-.4-.5-.6-.2-.5-.3-.9-.4-1.4-.1-.5-.1-1-.2-1.6v-.7-.3-.1c.1-.4-.5 0-.6.2-.6 1-.4 2.3-.4 3.4 0 .3 0 .6-.1.9 0 .2-.1.6-.2.7-.1.1-.3 0-.4 0-.1-.1-.2-.2-.3-.4 0-.2-.2-.1-.3 0-.1.1-.3.4-.2.5.1.4.4.8.8.6.7-.2.9-1 1.1-1.6.1-.3.1-.6.1-.9.1.4.2.9.4 1.3.1.3.4.6.8.5.3-.1.5-.4.6-.7.1.3.3.5.7.5.4 0 .7-.4.8-.7.2-.4.2-.8.2-1.1.1-.5 0-1.6-.8-1.5zm.3 2.5c0 .1 0 .1-.1.2-.1 0-.2-.2-.3-.3-.1-.2-.2-.5-.2-.8v-.8c0-.1 0-.1.1-.2.4.2.4.7.5 1.1v.8zM123 79.6c-.8-.3-1.2.8-1.4 1.4-.1.6-.3 1.5.4 1.8.3.1.7-.1.9-.3.2-.3.4-.6.5-1 .1-.6.3-1.6-.4-1.9zm-.5 2.6c0 .1-.1.1-.1.2-.1-.1-.2-.3-.2-.4v-.8c.1-.3.1-.5.3-.8 0-.1.1-.1.1-.2.3.4.2.8.1 1.3 0 .2-.1.4-.2.7z"/><path class="st3" d="M120.8 79.8c.1-.2.3-.4.4-.6.3-.4.6-1 .6-1.5s-.7-.5-1.1-.4c-.5.2-.8.8-.9 1.3-.2.7-.3 1.4-.3 2.1-.2.3-.8.9-1.2.7-.1-.1-.2-.2-.2-.3.3-.3.6-.7.9-1.1.2-.4.4-1 0-1.2-.4-.2-.9 0-1.1.3-.3.3-.4.7-.4 1.1v.9c-.2.1-.5.2-.8.2-.3-.1-.4-.4-.5-.6-.1-.4-.1-.8 0-1.1 0-.1 0-.2.1-.3v-.1c.2.1.3.4.3.5.1.3.8-.2.7-.4-.1-.3-.2-.5-.5-.7-.3-.1-.7.1-.8.3-.5.5-.5 1.2-.5 1.8 0 .4.1.9.5 1.1.5.3 1.1 0 1.6-.3.1.3.3.5.7.5.5-.1.9-.3 1.3-.7 0 .4.1.8.4.9.4.2.9 0 1.2-.4.4-.5.6-1.1.4-1.7-.3-.2-.6-.3-.8-.3zm-2.7-.3c0-.1.1-.2.1-.3.2 0 .2.3.2.4 0 .3-.2.6-.5.9v-.2c.1-.3.1-.6.2-.8zm2.6-1.5c.1-.1.1-.2.2-.3.3.3 0 .8-.2 1.2l-.6.9c0-.3.1-.6.2-.9.1-.3.2-.6.4-.9zm-.2 3.6l-.1.1h-.1c-.2-.1-.2-.5-.2-.7v-.5l.3-.3c.2-.1.3.1.3.3.1.4 0 .9-.2 1.1zM102.4 89.9h-.1c-.9.1-1.1 1.3-1.1 2 0 .6.1 1.8.9 1.8.4 0 .7-.4.9-.7.2-.4.3-.8.3-1.2 0-.6-.1-1.8-.9-1.9zm.1 2.9c0 .1 0 .1-.1.2v.1c-.5 0-.6-1-.6-1.3 0-.3 0-.6.1-.9 0-.1.1-.2.1-.3.5 0 .6 1 .6 1.3 0 .3 0 .6-.1.9zM100.2 90.1c-.3-.1-.6 0-.9.2-.1-.2-.1-.4-.2-.7-.1-.2-.4 0-.5.1-.1.1-.2.2-.2.3v.1c0 .2-.1.3-.1.4l-.1.1c-.2.1-.5 0-.6-.1-.1 0-.2-.1-.4-.1h-.1c-1 .2-1 1.5-.9 2.1.1.6.4 1.8 1.2 1.6.4-.1.7-.5.9-.9.2-.4.2-.8.1-1.3 0-.2-.1-.6-.2-.9.1-.1.3-.2.4-.3.2.9.3 1.8.4 2.7.1.8.2 1.7.2 2.5 0 .2.2.1.3.1.1-.1.3-.3.3-.5 0-.6 0-1.2-.1-1.7.2 0 .5-.2.7-.4.4-.5.5-1.3.4-1.9 0-.4-.1-1.2-.6-1.4zm-2.4 3.1V93.5c-.5.1-.7-.9-.8-1.1-.1-.3-.1-.6-.1-.9 0-.1 0-.2.1-.3h.2c.3.2.5.8.5 1.1.1.3.1.6.1.9zm1.7-2.5zm.7 2.5zm0-.1c0 .1 0 .1 0 0-.1.1-.1.1 0 0-.3.1-.5-.1-.5-.3v-.1c0-.5-.1-1-.2-1.5v-.5c.1 0 .2 0 .3.1.3.3.4.7.4 1 .1.5.1 1 0 1.3zM94.9 91.8c.1-.3.1-.7.2-1 .1-.5.2-1.3-.2-1.7-.3-.5-.9 0-1.2.3-.4.6-.3 1.3-.3 1.9.1.7.3 1.4.5 2.1-.1.3-.1.7-.3 1v.1l-.1-.1c-.1-.1-.1-.3-.2-.4-.4-1-.6-2.2-1.1-3.1-.2-.3-.5-.8-1-.6-.4.2-.5.5-.6.9-.2-.3-.6-.5-1-.2-.2.1-.3.3-.4.5-.1-.2-.1-.3-.3-.4-.3-.2-.8.6-.6.8.2.1.2.3.3.5.2.4.3.7.5 1.1.1.2.2.4.2.6l.9 2.4c0 .1.1.1.1.1.2 0 .5-.5.4-.7-.3-.7-.5-1.4-.8-2.1l-.3-.9c-.1-.3-.2-.7-.2-1v-.1c.5-.2.9.9 1 1.1.2.4.3.8.5 1.2l.6 1.8c0 .1.1.1.1.1.2 0 .5-.5.4-.7-.2-.6-.4-1.3-.6-1.9 0-.2-.1-.3-.1-.5-.1-.5-.3-1.1-.3-1.7.1 0 .3.1.3.2.4.5.6 1.2.9 1.9.1.4.3.9.4 1.3.1.3.2.6.4.8.2.3.5 0 .7-.2.2-.2.3-.5.4-.8.2.4.4.7.8.7.6-.1.8-.7.9-1.2.1-.5 0-1.5-.6-1.8 0-.4-.1-.4-.3-.3zm-.8-.7c-.1-.5-.1-1 0-1.5.2 0 .2.2.2.4.1.5.1 1 0 1.5 0 .2-.1.4-.1.6 0-.3 0-.7-.1-1zm1.3 2.1c0 .2.1.5 0 .7h-.1c-.1 0-.3-.2-.3-.3-.2-.2-.3-.5-.4-.7 0-.1.1-.3.1-.4.1-.1.2-.1.3 0 .2.2.3.5.4.7zM115 95.4c-.1-.1-.3-.1-.4-.1l-.1-.1c-.1-.1 0-.3 0-.4 0-.3.1-.7.3-1 .1-.3.2-.5.3-.8.1-.2.2-.3.3-.5.1-.2-.2-.2-.3-.2h-.1c-.2-.2-.4-.2-.7-.2-.8.1-1.3.8-1.4 1.5-.1.4.2.8.6.9h.2c-.1.2-.2.3-.4.4-.1.1-.3-.2-.3-.4 0-.1-.1-.1-.2-.1-.2 0-.3.1-.4.2v-.1c-.1-.2 0-.4 0-.6.1-.6.3-1.3.5-1.9.1-.4-.2-.7-.6-.7-.4 0-.8.2-1.1.5-.4.4-.6 1-.7 1.5-.1.1-.1.4-.3.6h-.1c-.1-.1 0-.5 0-.7 0-.6.2-1.2.4-1.8.1-.1.1-.3.2-.4.1-.1 0-.3-.2-.3s-.4.1-.5.3c-.1.1-.2.3-.2.4-.1.2-.2.4-.4.5-.1.1-.2.2-.4.3.1-.6.1-1.2.2-1.8 0-.1 0-.1-.1-.2h-.2c-.1 0-.3.1-.4.3l-.1.1c-.2.8-.5 1.7-1 2.4l-.1.1c-.2-.1-.2-.3-.3-.4-.2-.5-.1-1 0-1.5 0-.1.1-.2.1-.3 0-.1.1-.1.1-.2.1.1.2.2.2.3.1.2.9-.2.8-.5-.2-.4-.7-.5-1.1-.3-.3.2-.5.4-.6.6v.1s0 .1-.1.1c-.1.1-.1.3-.2.4.1-.5.1-1 .2-1.5 0-.4-.7 0-.7.2l-.3.6c0-.2-.1-.4-.2-.6-.3-.5-.8-.5-1.2-.1-.1.1-.3.3-.2.4.1.1.3 0 .4-.1l.1.1c.1.1.1.2.2.3.1.3.1.6.1 1 0 .3 0 .6-.1.9v.2c-.1 0-.2-.2-.2-.2-.1-.2-.8.3-.6.6.4.6 1 .2 1.3-.2l.3-.6c.1-.2.1-.3.2-.5 0 .5-.1 1-.2 1.5 0 .2.2.2.3.1.2-.1.3-.2.4-.4 0-.2.1-.4.2-.6 0 .2 0 .4.1.6.1.2.2.5.5.6.4.1.8-.2 1-.4l.6-.6c0 .3-.1.7-.2 1 0 .2.2.2.3.1.2-.1.4-.2.4-.4.1-.3.2-.6.4-.9.1-.1.2-.2.4-.3-.1.5-.2.9-.1 1.4 0 .4.3.5.7.4.2 0 .3-.1.5-.2 0 .2.1.3.2.4.3.2.7.1 1-.1 0 0 .1 0 .1-.1v.2c.1.4.4.5.8.4.2.4.8.4 1.2.2.1 0 .2-.1.2-.1v.2c.1.5.6.6 1 .4-.5.4-.2.2-.3.1zm-3.8-1.3h-.1c-.1-.1-.1-.3-.1-.5V93v-.1c.1-.3.2-.5.3-.8.1-.1.2-.3.3-.4h.1c.2 0 .2.2.2.3-.2.6-.4 1.3-.7 1.9.1.1 0 .2 0 .2zm1.1.4s0 .1 0 0c0 .1 0 0 0 0zm1.4-1.2c0-.3.2-.7.4-.8 0 0 .1 0 .2.1s.1.3.1.4l-.3.9c-.4-.2-.4-.4-.4-.6zm1 2zM108 99.8c-.1-.1-.1-.2-.1-.2V99c0-.6.1-1.2.2-1.7 0-.4-.3-.7-.7-.6-.4 0-.7.3-1 .6-.3.4-.4.8-.5 1.3-.1.2-.1.4-.2.6 0 .1-.1.1-.1.2s-.1.1-.1.1h-.2c-.2 0-.4-.1-.5-.3-.3-.4-.2-1-.2-1.4 0-.2.1-.5.2-.7 0 0 .1 0 .1.1.1.1.2.3.2.5.1.3.8-.1.7-.4-.1-.3-.2-.8-.6-.8-.4 0-.8.3-.9.7-.2.4-.3.8-.3 1.3 0 .2-.1.5-.2.7 0 .1-.1.1-.1.2s-.1.1-.1.1h-.2c-.2 0-.4-.1-.5-.2-.3-.3-.3-1-.2-1.4 0-.2.1-.5.2-.8 0 0 .1 0 .1.1.1.1.2.3.2.5.1.3.8-.2.7-.5-.1-.3-.3-.8-.7-.8-.4 0-.8.4-.9.7-.2.4-.3.9-.3 1.4v.1c0 .2-.1.5-.2.8-.2-.1-.2-.6-.2-.7-.1-.6-.1-1.2 0-1.7 0-.4-.4-.6-.8-.5-.4.1-.7.4-.9.8-.2.4-.3.9-.3 1.4 0 .3-.1.5-.1.8v.1c-.1 0-.1-.1-.1-.2-.1-.2-.2-.6-.2-.8-.1-.5-.2-1.2 0-1.7 0-.1 0-.2-.2-.2s-.4.2-.5.4v.1c-.1.3-.2.6-.3 1-.1-.4-.2-.9-.1-1.2 0-.1 0-.2-.2-.2s-.3.2-.4.3c-.5.3-.5 1-.5 1.6 0 .3 0 .6-.1.9-.2-.1-.2-.4-.2-.6 0-.2-.3 0-.4.1-.1.1-.2.3-.2.5.1.4.4 1 .9.6.3-.2.5-.6.6-1 .1.3.1.5.2.8.1.4.6-.2.6-.4v-.5c.2.7.5 1.1 1 .7l.3-.3c.1.2.2.3.3.4.3.1.7-.1.9-.4 0 .1.1.2.1.3.1.1.3.1.4.1.3 0 .5-.3.6-.5.3.5.9.6 1.4.3.2-.1.4-.3.5-.4 0 0 0 .1.1.1.2.5.9.7 1.4.4.2-.1.3-.2.5-.3 0 .2.1.4.3.6.3.2.7 0 .9-.2 0 .1.1.2.1.3.2.3.6.2.8 0 .1-.1.3-.2.3-.4.1-.1-.3 0-.3 0zm-7.4-.7v.2h-.1c-.1 0-.2-.3-.2-.4-.2-.5-.1-1 0-1.5 0-.1.1-.4.2-.5h.1c.2 0 .3.1.3.3-.1.6-.1 1.3-.3 1.9zm6.3.3s0 .1-.1.1h-.1c-.1-.1-.2-.3-.2-.4-.1-.5 0-1 .1-1.5 0-.1.2-.4.2-.4h.1c.2 0 .2.2.2.3.1.6 0 1.3-.2 1.9z"/><g><circle class="st7" cx="89.6" cy="108.9" r="5.1"/><path class="st3" d="M91.9 107.5c-.6 1-1.4 2-2.1 2.9-.3.4.2.4.4.1.8-1 1.6-2 2.2-3.1.3-.4-.3-.2-.5.1zM90.8 107.2c-.4 0-.7.4-.7.7-.1.3.1.6.5.6.7.1 1-1.3.2-1.3-.2 0-.5.4-.2.4.2 0 .3.2.3.3v.2c0 .1 0 0 0 0h-.1c-.2 0-.3-.2-.3-.3v-.2h.1c.1 0 .4-.4.2-.4zM91.9 109.4c-.4 0-.7.4-.7.7-.1.3.1.6.5.6.6.1 1-1.3.2-1.3-.2 0-.5.4-.2.4.2 0 .3.2.3.3v.2c0 .1 0 0 0 0h-.1c-.2 0-.3-.2-.3-.3v-.2h.1c.1 0 .4-.4.2-.4zM87.9 108.6c-.2-.1-.8-.7-.4-1 .2-.1.4-.1.6 0 .5.1.1.5-.1.7-.1.1-.9.7-.6.9.4.3 1.1 0 1.1.6 0 .4-.7.5-1 .3-.4-.3-.4-.7.1-1 .2-.1.4-.7 0-.5-.5.3-1 .7-1 1.3 0 .4.4.8.8.9.6.1 1.2-.3 1.5-.8.3-.4.3-1-.3-1.2-.2 0-.6-.2-.7 0 .2-.3.5-.4.7-.7.4-.5.2-1.1-.4-1.2-.6-.1-1.1.3-1.3.8-.3.6 0 1.1.5 1.4.3.2.8-.3.5-.5z"/></g><g><path class="st3" d="M103.2 105.6c-.1-.1-.3 0-.4.1v-.4c0-.2-.4.1-.4.3 0 .3 0 .5.1.8v.4c-.1.1-.2.2-.3.2v-1.4-.1c-.1 0-.3.1-.4.2-.1.4-.1.7-.3 1.1 0 .1-.1.4-.3.3-.2-.2-.1-.6 0-.8.1-.3.1-.6.2-.8 0-.2-.4 0-.4.1 0 .2-.2.7-.3 1.2-.2.1-.5.3-.6.1-.1-.1 0-.3 0-.5 0-.3-.2-.4-.4-.4 0-.1.1-.2.2-.3.1-.1.2-.1.3 0 .1.1.6-.1.4-.2-.3-.3-.6-.2-.9.1 0-.2.1-.4.1-.7 0-.2-.4 0-.4.1-.1.7-.3 1.3-.6 1.9-.1.2.5.1.5 0 .1-.2.2-.3.2-.5.3.1-.1.7.2.8.3.2.7 0 1-.1 0 .2.2.4.4.4.3 0 .5-.1.6-.2v.1c-.2.2-.4.3-.6.5-.2.2-1 1.1-.2 1.3.6.1 1-.3 1.1-.7.1-.3.2-.7.2-1.1l.3-.3v.2c0 .5-.1 1-.2 1.5 0 .2.5 0 .5-.2 0-.3.1-.6.1-1 .1 0 .3-.1.4-.2.3-.3.4-.7.3-1.1-.1-.2-.1-.6-.4-.7zm-2 3.2c-.5-.1-.1-.5.4-1-.2.6-.3 1-.4 1zm2-1.7c0 .1 0 .1-.1.2h-.1c-.1 0-.2-.1-.2-.2v-.9c0-.3.1-.3.2-.1.1.1.1.3.1.5.1.1.1.3.1.5zM107 104.5c-.4.3-.4.8-.3 1.2 0 .1.1.3.2.5-.1.2-.3.5-.6.5-.5-.1 0-.8 0-1.1.1-.7-.5-.7-.9-.2-.1.2-.1.5.1.2.2-.2.4-.1.4.1s-.2.5-.3.7c0 .1-.1.2 0 .4-.2.2-.4.3-.5 0-.1-.2-.2-.4-.2-.6 0-.1 0-.3-.1-.4v-.2c-.2-.5-.7-.1-.9.2-.2.4-.2.9-.1 1.3s.6.5.9.1v-.1c0 .1.1.1.1.2.2.2.6-.1.8-.4l.1.1c.4.3.9-.2 1.2-.7.1.2.3.3.5.2.5-.2.4-.9.3-1.3.1-.2-.3-.9-.7-.7zm-2.4 2.6c-.1 0-.2-.1-.2-.1-.1-.2-.2-.4-.2-.6v-.4c0-.1 0-.1.1-.2s.2.1.3.1c0 .3.1.6.1.9l-.1.3zm3.1-1.3V106.1s-.5-.3-.5-.4c-.1-.1-.1-.3-.2-.5v-.3-.1c.2 0 .4.2.5.4.1.3.1.4.2.6zM108 103.7c.2-.1.3-.5.2-.8 0-.1-.1-.2-.1-.1-.1.1-.1.2-.1.3v.1s-.1.1-.2.1c0 .1-.1.3 0 .3 0 .1.1.2.2.1zM109.8 104.7c-.1.3-.6-.3-.7-.3l-.2-.2c-.1-.2-.2-.4-.3-.5 0 0 0-.1-.1-.1-.1-.2-.3.3-.2.4.1.3.3.5.4.8.1.1.1.3.2.4.1.2.1.2-.1.2-.5 0-.7-.9-.8-1.3-.1-.3-.3.2-.2.3.1.3.5 1.9 1.2 1.4.2-.2.3-.3.3-.5.3.2.7-.2.8-.5 0-.4-.2-.4-.3-.1zM96.9 105.4c-.2 0-.5 0-.7-.2-.2-.2-.1-.4 0-.6.1-.2.2-.4.4-.5l.1-.1c.1-.1.1-.1.1 0 .1.1 0 .2 0 .3 0 .2.5.1.5 0 .1-.3 0-.6-.4-.6-.5 0-.8.4-1 .7-.2.3-.3.6 0 1s1 .4 1.3.3c.1-.1 0-.3-.3-.3z"/></g><g><path class="st8" d="M120.6 107c0 .8-.7 1.5-1.5 1.5s-1.5-.7-1.5-1.5.7-1.5 1.5-1.5c.9 0 1.5.7 1.5 1.5"/><path class="st6" d="M120.9 104.3s.7-1.6-1.9-2.8c0 0-1.9 2.3 1.9 2.8"/><path class="st5" d="M117.9 109.5s-2.5-2.6.3-5.3c0 0 1.3-1.3 2.9 0 0 0-2.8 1.8-3.2 5.3"/><path class="st9" d="M119.2 109.8c-.7.1-2.4.1-1.3-2.8.2-.5.5-1.1.8-1.4 1.5-1.7 3.4-1.9 3.9.2.8 2.9-2 3.8-3.4 4"/><path class="st10" d="M118.8 109.3s3-.2 3.1-2.3c0 0-.9 2.1-3.1 2.3M117.6 107.2s.4-2.6 2.1-3.1c0 0-2.1.2-2.1 3.1"/><path class="st6" d="M121 104.2s2.2 1 3.8-2.6c0 0-4.2-1.3-3.8 2.6m.4-.3c1.3.3 3.1-2.1 3.1-2.1-1.9 3.1-3.3 2.1-3.1 2.1z"/><path class="st5" d="M124.3 105.6c.2.1.3.2.5.3.5.5-.2.6 0 .8.3.3 1.4-.2 1.6 1.4.3 1.4-1.4 2.6-3 2.6s-3.1-1.2-3.1-2.6c0-1.4 1.4-2.6 3.1-2.6.4 0 .6 0 .9.1"/><path class="st9" d="M121.1 109.6s-1.9-2.1.6-3.6c0 0 1.8-1 3-.1 0 0 .3.3 0 .6s.1.4.1.4 1.3 0 1.5 1.2c.2 1.3-3 3.2-5.2 1.5"/><path class="st11" d="M121.7 108.6s-.4-1 .3-1.8c.7-.7 2.2-.7 2.4 0 .1 0 1.6 2.2-2.7 1.8z"/></g><g><path class="st12" d="M82.9 87.8c-.1 0-.2-.1-.2-.2-.3-.1-.6.1-.9.1-.8 0-1 0-2-.3 0-.8.5-1.3.7-1.9.2-.5-.1-1.2-.1-1.8v-1.1c-.3.2-.1 1-.2 1.3-.1-.5-.1-1.1-.3-1.5-.1.5 0 1.1 0 1.5-.1-.4-.2-.9-.3-1.3-.2.4.1 1.1.1 1.5-.2-.4-.2-.8-.4-1.2-.1.5.2.9.1 1.3-.2-.3-.2-.7-.5-.9 0 .3.2.7.3 1-.2-.1-.3-.4-.5-.5 0 .3.2.4.3.6-.2-.1-.2-.3-.4-.3 0 .2.2.3.3.5-.1-.1-.2-.2-.3-.2 0 .2.3.3.2.4 0 0-.2-.1-.2 0 0 0 .2.1.1.1h-.1c0 .1.1.1.1.2h-.1c0 .1.1.1.1.2-.7.7-.3 1.4-.4 2.2 0-.1-.5-.2-1-.4-.2-.1-.3-.4-.5-.5 0 0 .1 0 .1-.1-.1 0-.2-.1-.2-.1h.3c-.1-.1-.4-.1-.4-.3.2 0 .3.1.4.1-.2-.1-.5-.2-.5-.4.2.1.4.2.6.1-.3-.1-.7-.4-.7-.6.2.1.5.3.7.3-.3-.1-.6-.5-.9-.5.1.3.6.5.7.7-.2-.2-.5-.3-.8-.4.1.3.5.4.7.6-.2 0-.4-.1-.6-.1.1.3.5.2.6.4-.1-.1-.3 0-.4 0 0 .2.3.1.4.2-.1 0-.3 0-.3.1.1.1.3 0 .3.1-.1 0-.2 0-.2.1s.2 0 .2.1c0 0-.1 0-.1.1h.1s-.1 0-.1.1c.4.2.5.8 1 .9-.3.2.3.4-2.8 1.4.1 0 1.4-.3 1.7-.4.4-.1.8-.2 1.1-.4.1 0 .2-.1.3-.1.6-.1 1.2.1 1.8-.4-.5.1-1.3.2-1.6-.1.4-.7.1-2.3.5-2.7.4-.3.9-1.4 1.5-.5.1.1.1.4-.1.7-.3.5-.5.7-.4 1.7 0 .2 0 .4-.3.4 1.3.3 1.7.1 2.5 0 .3 0 .6-.2.7 0 0 .1-.3.1-.5.1-.4 0 .2.1.3.1.1 0 .8-.1 1.2-.2-.3.2-.4.2-.7.2z"/><path class="st12" d="M79 80.9c-3.1 0-5.6 2.5-5.6 5.6 0 3.1 2.5 5.6 5.6 5.6s5.6-2.5 5.6-5.6c0-3.1-2.5-5.6-5.6-5.6m0 .2c3 0 5.4 2.4 5.4 5.4 0 3-2.4 5.4-5.4 5.4-3 0-5.4-2.4-5.4-5.4 0-3 2.4-5.4 5.4-5.4"/></g></g><g><circle class="st13" cx="183.9" cy="193.3" r="16.1"/><circle class="st7" cx="171" cy="207.6" r="5.1"/><path class="st3" d="M173.3 206.2c-.6 1-1.4 2-2.1 2.9-.3.4.2.4.4.1.8-1 1.6-2 2.2-3.1.3-.4-.4-.1-.5.1zM172.2 205.9c-.4 0-.7.4-.7.7-.1.3.1.6.5.6.6.1 1-1.3.2-1.3-.2 0-.5.4-.2.4.2 0 .3.2.3.3v.2c0 .1 0 0 0 0h-.1c-.2 0-.3-.2-.3-.3v-.2h.1c.1 0 .4-.4.2-.4zM173.2 208.1c-.4 0-.7.4-.7.7-.1.3.1.6.5.6.7.1 1.1-1.3.2-1.3-.2 0-.5.4-.2.4.2 0 .3.2.3.3v.2c0 .1 0 0 0 0h-.1c-.2 0-.3-.2-.3-.3v-.2h.1c.2 0 .5-.4.2-.4zM169.3 207.3c-.2-.1-.8-.7-.4-1 .2-.1.4-.1.6 0 .5.1.1.5-.1.7-.1.1-.9.7-.6.9.4.3 1.1 0 1.1.6 0 .4-.7.5-1 .3-.4-.3-.4-.7.1-1 .2-.1.4-.7 0-.5-.5.3-1 .7-1 1.3 0 .4.4.8.8.9.6.1 1.2-.3 1.5-.8.3-.4.3-1-.3-1.2-.2 0-.6-.2-.7 0 .2-.3.5-.4.7-.7.4-.5.2-1.1-.4-1.2-.6-.1-1.1.3-1.3.8-.3.6 0 1.1.5 1.4.3.2.8-.3.5-.5z"/><path class="st14" d="M176.3 173.5c0 1.1-.9 2.1-2.1 2.1-1.1 0-2.1-.9-2.1-2.1 0-1.1.9-2.1 2.1-2.1 1.1.1 2.1 1 2.1 2.1z"/><path class="st6" d="M176.3 180.5c0 1.5-1.2 2.6-2.6 2.6-1.5 0-2.7-1.2-2.7-2.6 0-1.5 1.2-2.7 2.7-2.7 1.5 0 2.6 1.2 2.6 2.7zM169.2 176.4c0 .9-.7 1.6-1.6 1.6-.9 0-1.6-.7-1.6-1.6 0-.9.7-1.6 1.6-1.6.9 0 1.6.7 1.6 1.6z"/><circle class="st7" cx="197.7" cy="178.5" r="8.9"/><path class="st3" d="M195.5 177.3c-.7.1-.9 1-1 1.6v1.1c0 .1-.1.3-.1.3-.3 0-.5-.4-.5-.6-.2-.5-.3-.9-.4-1.4-.1-.5-.1-1-.2-1.6v-.7-.3-.1c.1-.4-.5 0-.6.2-.6 1-.4 2.3-.4 3.4 0 .3 0 .6-.1.9 0 .2-.1.6-.2.7-.1.1-.3 0-.4 0-.1-.1-.2-.2-.3-.4 0-.2-.2-.1-.3 0-.1.1-.3.4-.2.5.1.4.4.8.8.6.7-.2.9-1 1.1-1.6.1-.3.1-.6.1-.9.1.4.2.9.4 1.3.1.3.4.6.8.5.3-.1.5-.4.6-.7.1.3.3.5.7.5.4 0 .7-.4.8-.7.2-.4.2-.8.2-1.1.1-.5 0-1.6-.8-1.5zm.2 2.5c0 .1 0 .1-.1.2-.1 0-.2-.2-.3-.3-.1-.2-.2-.5-.2-.8v-.8c0-.1 0-.1.1-.2.4.2.4.7.5 1.1.1.3.1.6 0 .8zM204.3 178.3c-.8-.3-1.2.8-1.4 1.4-.1.6-.3 1.5.4 1.8.3.1.7-.1.9-.3.2-.3.4-.6.5-1 .2-.6.4-1.6-.4-1.9zm-.5 2.6c0 .1-.1.1-.1.2-.1-.1-.2-.3-.2-.4v-.8c.1-.3.1-.5.3-.8 0-.1.1-.1.1-.2.3.4.2.8.1 1.3 0 .2 0 .4-.2.7z"/><path class="st3" d="M202.2 178.5c.1-.2.3-.4.4-.6.3-.4.6-1 .6-1.5s-.7-.5-1.1-.4c-.5.2-.8.8-.9 1.3-.2.7-.3 1.4-.3 2.1-.2.3-.8.9-1.2.7-.1-.1-.2-.2-.2-.3.3-.3.6-.7.9-1.1.2-.4.4-1-.1-1.2-.4-.2-.9 0-1.1.3-.3.3-.4.7-.4 1.1v.9c-.2.1-.5.2-.8.2-.3-.1-.4-.4-.5-.6-.1-.4-.1-.8 0-1.1 0-.1 0-.2.1-.3v-.1c.2.1.3.4.3.5.1.3.8-.2.7-.4-.1-.3-.2-.5-.5-.7-.3-.1-.7.1-.8.3-.5.5-.5 1.2-.5 1.8 0 .4.1.9.5 1.1.5.3 1.1 0 1.6-.3.1.3.3.5.7.5.5-.1.9-.3 1.3-.7 0 .4.1.8.4.9.4.2.9 0 1.2-.4.4-.5.6-1.1.4-1.7-.3-.2-.5-.3-.7-.3zm-2.7-.3c0-.1.1-.2.1-.3.2 0 .2.3.2.4 0 .3-.2.6-.5.9v-.2c.1-.3.1-.6.2-.8zm2.6-1.5c.1-.1.1-.2.2-.3.3.3 0 .8-.2 1.2l-.6.9c0-.3.1-.6.2-.9.1-.3.2-.6.4-.9zm-.2 3.6l-.1.1h-.1c-.2-.1-.2-.5-.2-.7v-.5l.3-.3c.2-.1.3.1.3.3 0 .4-.1.9-.2 1.1zM183.7 188.6s-.1 0 0 0h-.1c-.9.1-1.1 1.3-1.1 2 0 .6.1 1.8.9 1.8.4 0 .7-.4.9-.7.2-.4.3-.8.3-1.2 0-.6-.1-1.8-.9-1.9zm.1 2.9c0 .1 0 .1-.1.2v.1c-.5 0-.6-1-.6-1.3 0-.3 0-.6.1-.9 0-.1.1-.2.1-.3.5 0 .6 1 .6 1.3 0 .3 0 .6-.1.9zM181.4 188.8c-.3-.1-.6 0-.9.2-.1-.2-.1-.4-.2-.7-.1-.2-.4 0-.5.1-.1.1-.2.2-.2.3v.1c0 .2-.1.3-.1.4l-.1.1c-.2.1-.5 0-.6-.1-.1 0-.2-.1-.4-.1h-.1c-1 .2-1 1.5-.9 2.1.1.6.4 1.8 1.2 1.6.4-.1.7-.5.9-.9.2-.4.2-.8.1-1.3 0-.2-.1-.6-.2-.9.1-.1.3-.2.4-.3.2.9.3 1.8.4 2.7.1.8.2 1.7.2 2.5 0 .2.2.1.3.1.1-.1.3-.3.3-.5 0-.6 0-1.2-.1-1.7.2 0 .5-.2.7-.4.4-.5.5-1.3.4-1.9.1-.4 0-1.2-.6-1.4zm-2.4 3.1V192.2c-.5.1-.7-.9-.8-1.1-.1-.3-.1-.6-.1-.9 0-.1 0-.2.1-.3h.2c.3.2.5.8.5 1.1.1.3.2.6.1.9zm1.8-2.4c0-.1 0-.1 0 0zm.6 2.4s.1 0 0 0zm0-.1c0 .1 0 .1 0 0 0 .1 0 .1 0 0-.3.1-.5-.1-.5-.3v-.1c0-.5-.1-1-.2-1.5v-.5c.1 0 .2 0 .3.1.3.3.4.7.4 1 .1.5.2 1 0 1.3zM176.2 190.5c.1-.3.1-.7.2-1 .1-.5.2-1.3-.2-1.7-.3-.5-.9 0-1.2.3-.4.6-.3 1.3-.3 1.9.1.7.3 1.4.5 2.1-.1.3-.1.7-.3 1v.1l-.1-.1c-.1-.1-.1-.3-.2-.4-.4-1-.6-2.2-1.1-3.1-.2-.3-.5-.8-1-.6-.4.2-.5.5-.6.9-.2-.3-.6-.5-1-.2-.2.1-.3.3-.4.5-.1-.2-.1-.3-.3-.4-.3-.2-.8.6-.6.8.2.1.2.3.3.5.2.4.3.7.5 1.1.1.2.2.4.2.6l.9 2.4c0 .1.1.1.1.1.2 0 .5-.5.4-.7-.3-.7-.5-1.4-.8-2.1l-.3-.9c-.1-.3-.2-.7-.2-1v-.1c.5-.2.9.9 1 1.1.2.4.3.8.5 1.2l.6 1.8c0 .1.1.1.1.1.2 0 .5-.5.4-.7-.2-.6-.4-1.3-.6-1.9 0-.2-.1-.3-.1-.5-.1-.5-.3-1.1-.3-1.7.1 0 .3.1.3.2.4.5.6 1.2.9 1.9.1.4.3.9.4 1.3.1.3.2.6.4.8.2.3.5 0 .7-.2.2-.2.3-.5.4-.8.2.4.4.7.8.7.6-.1.8-.7.9-1.2.1-.5 0-1.5-.6-1.8 0-.4-.2-.4-.3-.3zm-.8-.7c-.1-.5-.1-1 0-1.5.2 0 .2.2.2.4.1.5.1 1 0 1.5 0 .2-.1.4-.1.6 0-.3-.1-.7-.1-1zm1.2 2.2c0 .2.1.5 0 .7h-.1c-.1 0-.3-.2-.3-.3-.2-.2-.3-.5-.4-.7 0-.1.1-.3.1-.4.1-.1.2-.1.3 0 .3.1.4.4.4.7zM196.3 194.1c-.1-.1-.3-.1-.4-.1l-.1-.1c-.1-.1 0-.3 0-.4 0-.3.1-.7.3-1 .1-.3.2-.5.3-.8.1-.2.2-.3.3-.5.1-.2-.2-.2-.3-.2h-.1c-.2-.2-.4-.2-.7-.2-.8.1-1.3.8-1.4 1.5-.1.4.2.8.6.9h.2c-.1.2-.2.3-.4.4-.1.1-.3-.2-.3-.4 0-.1-.1-.1-.2-.1-.2 0-.3.1-.4.2v-.1c-.1-.2 0-.4 0-.6.1-.6.3-1.3.5-1.9.1-.4-.2-.7-.6-.7-.4 0-.8.2-1.1.5-.4.4-.6 1-.7 1.5-.1.1-.1.4-.3.6h-.1c-.1-.1 0-.5 0-.7 0-.6.2-1.2.4-1.8.1-.1.1-.3.2-.4.1-.1 0-.3-.2-.3s-.4.1-.5.3c-.1.1-.2.3-.2.4-.1.2-.2.4-.4.5-.1.1-.2.2-.4.3.1-.6.1-1.2.2-1.8 0-.1 0-.1-.1-.2h-.2c-.1 0-.3.1-.4.3l-.1.1c-.2.8-.5 1.7-1 2.4l-.1.1c-.2-.1-.2-.3-.3-.4-.2-.5-.1-1 0-1.5 0-.1.1-.2.1-.3 0-.1.1-.1.1-.2.1.1.2.2.2.3.1.2.9-.2.8-.5-.2-.4-.7-.5-1.1-.3-.3.2-.5.4-.6.6v.1s0 .1-.1.1c-.1.1-.1.3-.2.4.1-.5.1-1 .2-1.5 0-.4-.7 0-.7.2l-.3.6c0-.2-.1-.4-.2-.6-.3-.5-.8-.5-1.2-.1-.1.1-.3.3-.2.4.1.1.3 0 .4-.1l.1.1c.1.1.1.2.2.3.1.3.1.6.1 1 0 .3 0 .6-.1.9v.2c-.1 0-.2-.2-.2-.2-.1-.2-.8.3-.6.6.4.6 1 .2 1.3-.2l.3-.6c.1-.2.1-.3.2-.5 0 .5-.1 1-.2 1.5 0 .2.2.2.3.1.2-.1.3-.2.4-.4 0-.2.1-.4.2-.6 0 .2 0 .4.1.6.1.2.2.5.5.6.4.1.8-.2 1-.4l.6-.6c0 .3-.1.7-.2 1 0 .2.2.2.3.1.2-.1.4-.2.4-.4.1-.3.2-.6.4-.9.1-.1.2-.2.4-.3-.1.5-.2.9-.1 1.4 0 .4.3.5.7.4.2 0 .3-.1.5-.2 0 .2.1.3.2.4.3.2.7.1 1-.1 0 0 .1 0 .1-.1v.2c.1.4.4.5.8.4.2.4.8.4 1.2.2.1 0 .2-.1.2-.1v.2c.1.5.6.6 1 .4-.5.4-.2.2-.3.1zm-3.8-1.3h-.1c-.1-.1-.1-.3-.1-.5v-.6-.1c.1-.3.2-.5.3-.8.1-.1.2-.3.3-.4h.1c.2 0 .2.2.2.3-.2.6-.4 1.3-.7 1.9v.2zm1 .4c0 .1 0 .1 0 0 0 .1 0 .1 0 0zm1.4-1.2c0-.3.2-.7.4-.8 0 0 .1 0 .2.1s.1.3.1.4l-.3.9c-.3-.2-.4-.4-.4-.6zm1 2zM189.3 198.5s-.1 0 0 0c-.1-.1-.1-.2-.1-.2v-.6c0-.6.1-1.2.2-1.7 0-.4-.3-.7-.7-.6-.4 0-.7.3-1 .6-.3.4-.4.8-.5 1.3-.1.2-.1.4-.2.6 0 .1-.1.1-.1.2s-.1.1-.1.1h-.2c-.2 0-.4-.1-.5-.3-.3-.4-.2-1-.2-1.4 0-.2.1-.5.2-.7 0 0 .1 0 .1.1.1.1.2.3.2.5.1.3.8-.1.7-.4-.1-.3-.2-.8-.6-.8-.4 0-.8.3-.9.7-.2.4-.3.8-.3 1.3 0 .2-.1.5-.2.7 0 .1-.1.1-.1.2s-.1.1-.1.1h-.2c-.2 0-.4-.1-.5-.2-.3-.3-.3-1-.2-1.4 0-.2.1-.5.2-.8 0 0 .1 0 .1.1.1.1.2.3.2.5.1.3.8-.2.7-.5-.1-.3-.3-.8-.7-.8-.4 0-.8.4-.9.7-.2.4-.3.9-.3 1.4v.1c0 .2-.1.5-.2.8-.2-.1-.2-.6-.2-.7-.1-.6-.1-1.2 0-1.7 0-.4-.4-.6-.8-.5-.4.1-.7.4-.9.8-.2.4-.3.9-.3 1.4 0 .3-.1.5-.1.8v.1c-.1 0-.1-.1-.1-.2-.1-.2-.2-.6-.2-.8-.1-.5-.2-1.2 0-1.7 0-.1 0-.2-.2-.2s-.4.2-.5.4v.1c-.1.3-.2.6-.3 1-.1-.4-.2-.9-.1-1.2 0-.1 0-.2-.2-.2s-.3.2-.4.3c-.3.6-.3 1.3-.3 1.9 0 .3 0 .6-.1.9-.2-.1-.2-.4-.2-.6 0-.2-.3 0-.4.1-.1.1-.2.3-.2.5.1.4.4 1 .9.6.3-.2.5-.6.6-1 .1.3.1.5.2.8.1.4.6-.2.6-.4v-.5c.2.7.5 1.1 1 .7l.3-.3c.1.2.2.3.3.4.3.1.7-.1.9-.4 0 .1.1.2.1.3.1.1.3.1.4.1.3 0 .5-.3.6-.5.3.5.9.6 1.4.3.2-.1.4-.3.5-.4 0 0 0 .1.1.1.2.5.9.7 1.4.4.2-.1.3-.2.5-.3 0 .2.1.4.3.6.3.2.7 0 .9-.2 0 .1.1.2.1.3.2.3.6.2.8 0 .1-.1.3-.2.3-.4-.2-.4-.5-.3-.5-.3zm-7.4-.7v.2h-.1c-.1 0-.2-.3-.2-.4-.2-.5-.2-1 0-1.5 0-.1.1-.4.2-.5h.1c.2 0 .3.1.3.3-.2.6-.2 1.3-.3 1.9zm6.3.3s0 .1-.1.1h-.1c-.1-.1-.2-.3-.2-.4-.1-.5 0-1 .1-1.5 0-.1.2-.4.2-.4h.1c.2 0 .2.2.2.3.1.7 0 1.3-.2 1.9zM184.3 204.1c-.5.1-.6.7-.7 1.1 0 .3-.1 1.2.4 1.2.6 0 .7-.7.8-1 0-.4-.1-1.3-.5-1.3-.1 0-.4.4-.2.4.5 0 .4 1.3.3 1.5.1-.1.1 0 0-.1-.1 0-.1-.1-.1-.2-.1-.1-.1-.3-.1-.5v-.5-.2-.1c0-.1 0-.1 0 0s.3-.3.1-.3z"/><path class="st3" d="M182.9 204.4c.1.6 0 1.2-.1 1.8 0 .2.4 0 .5-.2.1-.5.6-.8.7-1.3.1-.3-.3 0-.4.1-.1.3-.3.4-.5.7-.2.2-.3.4-.3.7.2-.1.3-.1.5-.2.1-.6.1-1.3 0-1.9 0-.1-.4.1-.4.3zM184.8 205.8c0 .2.2.6.6.5.2-.1.4-.3.5-.5.1-.3.1-.6.1-.9 0-.2-.1-.6 0-.8-.1 0-.2.1-.4.1-.1.6.3 1.3.4 1.9.1.2.5-.2.4-.3-.1-.5 0-1.2.1-1.8-.1.1-.2.1-.3.2 0 .4.3 2.4 1.1 1.7.2-.1.2-.6-.1-.3-.2.1-.4-.5-.5-.6-.1-.3-.2-.6-.2-1 0-.3-.3 0-.3.2-.1.6-.3 1.4-.2 2 .2-.1.3-.2.4-.3l-.3-.9c-.1-.3-.2-.6-.2-.9 0-.3-.3 0-.4.1-.1.3-.1.7-.1 1 0 .2 0 .4-.1.7v.1c.1-.1.1-.1 0-.1-.1-.1-.1-.2-.2-.3 0-.3-.4 0-.3.2zM188.3 204.9c.1.2.4.5.7.2.2-.2.3-.4.3-.7 0-.3-.1-.6-.2-.9-.1-.2-.2-.5-.2-.8l-.3.3c.1.6.7 1.2 1 1.7.1.2.4-.3.3-.4-.3-.5-.4-1.2-.5-1.7l-.3.3c.1.4.9 2.2 1.5 1.2.1-.2.1-.6-.2-.3-.1.2-.6-.4-.6-.4-.2-.2-.4-.5-.5-.8-.1-.3-.3.1-.3.3.1.6.2 1.4.4 2 .1-.1.2-.3.3-.4-.2-.3-.4-.5-.6-.7-.2-.2-.4-.5-.5-.8 0-.3-.3.1-.3.3 0 .3.1.7.2 1 .1.2.1.4.1.6v.1c.1-.1.1-.1-.1-.1-.1 0-.2-.2-.2-.3.2-.3-.1.2 0 .3z"/><path class="st3" d="M187.4 203.4c-.4.2-.4.8-.4 1.2.1.3.3 1.2.9 1 .6-.2.6-.9.4-1.3-.1-.3-.5-1.1-.9-.9-.1 0-.3.5-.1.5.3-.1.4.3.6.4.1.1.1.3.2.5V205.1c-.2.2-.5-.3-.6-.4-.1-.2-.1-.3-.2-.5v-.3-.1c.1 0 .3-.5.1-.4zM181.4 205.9c.9.1 1.1-.8 1.1-1.4 0-.2-.1-.5-.4-.5-.4 0-.8.4-.8.7-.1.2.5 0 .5-.1s.1-.4.2-.2c.1.1.1.3.1.4 0 .2-.1.8-.3.8-.2-.1-.6.3-.4.3z"/><path class="st3" d="M183.2 205.4c-.6.3-1.4.7-2 1.2-.3.2-.7.6-.5 1 .2.3.5.3.8.3 1-.2 1.6-2.6.2-2.3-.2 0-.5.4-.1.3.7-.1.5 1.6 0 1.7-.5.1-.3-.5-.2-.6.2-.2.4-.4.7-.5.4-.2.8-.5 1.2-.7.2-.2.2-.5-.1-.4zM180.9 205.5c-.3.1-.2-.7-.2-.8.1-.3.2-.7.3-1 .1-.2-.4-.1-.5.1l-.3.9c-.1.1-.1.3-.2.4-.1.2-.1.2-.2 0-.3-.4.3-1.3.5-1.6.2-.2-.3-.2-.4 0-.2.3-1.2 1.7-.4 2 1 .3 1.3-1.2 1.5-1.8-.1 0-.3.1-.5.1-.2.5-.4 1.1-.4 1.6s.6.5.9.3c.4-.1.2-.3-.1-.2zM178.6 203c.1-.3 0-.7-.4-.7-.5 0-.9.4-1.1.8-.2.3-.4.6-.1 1 .3.4 1 .4 1.3.3.3-.1.2-.3-.1-.3-.2 0-.5 0-.7-.2-.2-.2-.1-.4 0-.6.1-.2.2-.4.4-.6l.1-.1c.1-.1.2-.1.1 0 .1.1 0 .3 0 .4 0 .2.5.2.5 0z"/><path class="st15" d="M205.4 199.7s-1.2-.9-.2-2.1c0 0 .2-.2.4.1 0 0 .8-1.1.9-.1 0 0 .2.4-.2.7-.4.4-.1.5.1.2.2-.2.4-.8.7-.7.3.1.4-.1.4-.1s.1 0 .3.1c.1.2 1.5-.5 1 .3 0 0-.6.4-.4.6.2.2-.2.8-1 .8s-.3.4.3.3c0 0 .6.3.6.6 0 0-.6.8-.9.4-.3-.4-.4.1-.1.3.2.3-1.5.5-1.9-1.4"/><path class="st16" d="M205.4 200.9c.2.2.2.6 0 .8-.2.2-.6.2-.8 0-.2-.2-.2-.6 0-.8.2-.3.6-.3.8 0"/><path class="st16" d="M206.5 200.8c.3.3.2.7-.1 1-.3.3-.7.2-1-.1-.3-.3-.2-.7.1-1 .3-.2.8-.2 1 .1"/><path class="st14" d="M206.4 202.7c.3.3.2.7-.1 1-.3.3-.7.2-1-.1-.3-.3-.2-.7.1-1 .3-.2.8-.2 1 .1"/><path class="st16" d="M205.8 201.9c.2.2.2.6 0 .8-.2.2-.6.2-.8 0-.2-.2-.2-.6 0-.8.2-.3.6-.3.8 0M204.7 202.9c.2.2.2.5 0 .7-.2.2-.5.2-.7 0-.2-.2-.2-.5 0-.7.1-.2.5-.2.7 0M202.9 202.6c.2.3.2.7 0 .9-.3.2-.7.2-.9 0-.2-.3-.2-.7 0-.9.3-.3.7-.3.9 0"/><path class="st16" d="M202.4 203.7c.2.3.2.7 0 .9-.3.2-.7.2-.9 0-.2-.3-.2-.7 0-.9.3-.3.7-.3.9 0"/><path class="st14" d="M201.9 202.6c.2.3.2.7 0 .9-.3.2-.7.2-.9 0-.2-.3-.2-.7 0-.9.3-.3.6-.2.9 0M201.4 203.9c.2.3.2.7 0 .9-.3.2-.7.2-.9 0-.2-.3-.2-.7 0-.9.3-.2.7-.2.9 0"/><path class="st16" d="M200.7 205.7c.2.2.2.5 0 .7-.2.2-.5.2-.7 0-.2-.2-.2-.5 0-.7.2-.2.5-.2.7 0M199.9 208.3c.2.3.2.7-.2 1-.3.3-.8.3-1 0-.2-.3-.2-.7.2-1 .3-.3.8-.3 1 0"/><path class="st14" d="M201 207.6c.1.3-.1.7-.5.8-.4.1-.8 0-.9-.4-.1-.3.1-.7.5-.8.4-.1.8.1.9.4"/><path class="st16" d="M202.1 207c.1.3-.1.7-.4.8-.3.1-.7-.1-.8-.4-.1-.3.1-.7.4-.8.3-.1.7.1.8.4"/><path class="st16" d="M201.7 206.5c.1.4-.1.8-.5.9-.4.1-.9 0-1-.4-.1-.4.1-.8.5-.9.4-.1.9.1 1 .4M202.8 205.8c.1.3-.1.6-.4.7-.3.1-.7 0-.8-.3-.1-.3.1-.6.4-.7.4-.1.7.1.8.3"/><path class="st16" d="M202.7 204.8c.1.3-.1.6-.4.7-.3.1-.7 0-.8-.3-.1-.3.1-.6.4-.7.3-.1.7 0 .8.3"/><path class="st16" d="M201.6 205.4c.1.3-.1.7-.4.8-.3.1-.7-.1-.8-.4-.1-.3.1-.7.4-.8.4-.2.7 0 .8.4"/><path class="st14" d="M203.1 206.2c.1.3-.1.7-.4.8-.3.1-.7-.1-.8-.4-.1-.3.1-.7.4-.8.4-.1.7.1.8.4"/><path class="st16" d="M202.8 201.6c.2.3.2.7-.1.9-.3.2-.7.2-.9 0-.2-.3-.2-.7.1-.9.2-.3.6-.3.9 0"/><path class="st16" d="M203.3 200.7c.2.2.2.6-.1.9-.3.2-.7.2-.9 0-.2-.2-.2-.6.1-.9.3-.3.6-.3.9 0"/><path class="st14" d="M203.7 203.6c.2.3.2.7-.1.9-.3.2-.7.2-.9 0-.2-.3-.2-.7.1-.9.3-.2.7-.2.9 0"/><path class="st14" d="M203.9 202.7c.2.3.2.7-.1.9-.3.2-.7.2-.9 0-.2-.3-.2-.7.1-.9.3-.3.7-.3.9 0M205.6 203c.2.3.2.7-.1.9-.3.2-.7.2-.9 0-.2-.3-.2-.7.1-.9.3-.3.7-.2.9 0"/><path class="st16" d="M205.9 203.5c.2.3.2.7-.1.9-.3.2-.7.2-.9 0-.2-.3-.2-.7.1-.9.3-.2.7-.2.9 0M204.5 203.9c.2.3.2.7-.1.9-.3.2-.7.2-.9 0-.2-.3-.2-.7.1-.9.3-.3.7-.2.9 0"/><path class="st14" d="M205.1 204.3c.2.3.2.7-.1.9-.3.2-.7.2-.9 0-.2-.3-.2-.7.1-.9.3-.3.7-.3.9 0"/><path class="st14" d="M204.1 205.1c.2.3.2.7-.1.9-.3.3-.7.3-.9 0-.2-.3-.2-.7.1-.9.2-.3.7-.3.9 0"/><path class="st16" d="M203.5 204.7c.2.3.2.7-.1.9-.3.3-.7.3-.9 0-.2-.3-.2-.7.1-.9.3-.2.7-.2.9 0M204.8 201.2c.2.2.2.6-.1.9-.3.2-.7.2-.9 0-.2-.2-.2-.6.1-.9.3-.2.7-.2.9 0"/><path class="st14" d="M204 201.4c.2.3.2.7-.1.9-.3.3-.7.3-.9 0-.2-.2-.2-.7.1-.9.3-.2.7-.2.9 0"/><path class="st11" d="M203.3 200.9l.8-.7.1-1.2-.2-.2s.7-.3.4.5c0 0-.3.8.1.8s1.1-.5 1.1-.5-.6.6-1.2.6c0 0 .2.3.6.4.4.1.4.2.4.2l-.1.1s-.3-.3-.6-.2c-.3 0-.6-.4-.6-.4l-.1.8-.1.1v-.7l-.6.4z"/><path class="st17" d="M198.7 208.9s.4-.6.8-.5c0 0-.4-.2-.8.5M202.2 206.7s.7.1.8-.6c-.1 0-.1.8-.8.6M201.1 203.5s-.3-.8.4-.9c0-.1-.8 0-.4.9M200.7 205.9s-.3-.6.4-.9c0 0-.8.1-.4.9M200.3 206.9s.5-.8 1.3-.4c0 0-.9-.6-1.3.4M205.5 201.8s-.6-.1-.5.7c0-.1-.3-.8.5-.7M205.4 203.4s.9.4.1 1.1c0 0 1-.6-.1-1.1M203.5 202.6s-.8.1-.3 1c0 0-.4-.7.3-1M199.8 208.2s-.2-.4.2-.7c0 0-.6.2-.2.7"/><path class="st11" d="M204.1 199.3c-.2.5-.8.8-1.3.5-.3-.2-.4-.6-.3-.9.2-.6 1-.4 1 .1 0 .4-.5.5-.6.1 0-.2.1-.3.4-.2.1.1-.2.2-.2.1h-.1c0 .3.3.2.4 0 .1-.1-.1-.3-.2-.3s-.2 0-.2.1c-.3.2 0 .6.3.6.4 0 .5-.4.4-.7-.1-.3-.5-.3-.8-.2-.4.2-.5.6-.4 1 .3.9 1.5.5 1.6-.2.1 0 0 0 0 0z"/><g><path class="st12" d="M164.3 186.5c-.1 0-.2-.1-.2-.2-.3-.1-.6.1-.9.1-.8 0-1 0-2-.3 0-.8.5-1.3.7-1.9.2-.5-.1-1.2-.1-1.8v-1.1c-.3.2-.1 1-.2 1.3-.1-.5-.1-1.1-.3-1.5-.1.5 0 1.1 0 1.5-.1-.4-.2-.9-.3-1.3-.2.4.1 1.1.1 1.5-.2-.4-.2-.8-.4-1.2-.1.5.2.9.1 1.3-.2-.3-.2-.7-.5-.9 0 .3.2.7.3 1-.2-.1-.3-.4-.5-.5 0 .3.2.4.3.6-.2-.1-.2-.3-.4-.3 0 .2.2.3.3.5-.1-.1-.2-.2-.3-.2 0 .2.3.3.2.4 0 0-.2-.1-.2 0 0 0 .2.1.1.1h-.1c0 .1.1.1.1.2h-.1c0 .1.1.1.1.2-.7.7-.3 1.4-.4 2.2 0-.1-.5-.2-1-.4-.2-.1-.3-.4-.5-.5 0 0 .1 0 .1-.1-.1 0-.2-.1-.2-.1h.3c-.1-.1-.4-.1-.4-.3.2 0 .3.1.4.1-.2-.1-.5-.2-.5-.4.2.1.4.2.6.1-.3-.1-.7-.4-.7-.6.2.1.5.3.7.3-.3-.1-.6-.5-.9-.5.1.3.6.5.7.7-.2-.2-.5-.3-.8-.4.1.3.5.4.7.6-.2 0-.4-.1-.6-.1.1.3.5.2.6.4-.1-.1-.3 0-.4 0 0 .2.3.1.4.2-.1 0-.3 0-.3.1.1.1.3 0 .3.1-.1 0-.2 0-.2.1s.2 0 .2.1c0 0-.1 0-.1.1h.1s-.1 0-.1.1c.4.2.5.8 1 .9-.3.2.3.4-2.8 1.4.1 0 1.4-.3 1.7-.4.4-.1.8-.2 1.1-.4.1 0 .2-.1.3-.1.6-.1 1.2.1 1.8-.4-.5.1-1.3.2-1.6-.1.4-.7.1-2.3.5-2.7.3-.3.9-1.4 1.5-.5.1.1.1.4-.1.7-.3.5-.5.7-.4 1.7 0 .2 0 .4-.3.4 1.3.3 1.7.1 2.5 0 .3 0 .6-.2.7 0 0 .1-.3.1-.5.1-.4 0 .2.1.3.1.1 0 .8-.1 1.2-.2-.3.2-.5.2-.7.2z"/><path class="st12" d="M160.4 179.6c-3.1 0-5.6 2.5-5.6 5.6 0 3.1 2.5 5.6 5.6 5.6 3.1 0 5.6-2.5 5.6-5.6-.1-3.1-2.6-5.6-5.6-5.6m0 .2c3 0 5.4 2.4 5.4 5.4 0 3-2.4 5.4-5.4 5.4-3 0-5.4-2.4-5.4-5.4 0-3 2.4-5.4 5.4-5.4"/></g></g><g><circle class="st18" cx="263.2" cy="92.9" r="16.1"/><circle class="st7" cx="250.3" cy="107.3" r="5.1"/><path class="st3" d="M252.6 105.8c-.6 1-1.4 2-2.1 2.9-.3.4.2.4.4.1.8-1 1.6-2 2.2-3.1.3-.3-.3-.1-.5.1zM251.5 105.6c-.4 0-.7.4-.7.7-.1.3.1.6.5.6.7 0 1-1.3.2-1.3-.2 0-.5.4-.2.4.2 0 .3.2.3.3v.2c0 .1 0 0 0 0h-.1c-.2 0-.3-.2-.3-.3v-.2h.1c.1 0 .4-.4.2-.4zM252.6 107.7c-.4 0-.7.4-.7.7-.1.3.1.6.5.6.6.1 1-1.2.2-1.3-.2 0-.5.4-.2.4.2 0 .3.2.3.3v.2c0 .1 0 0 0 0h-.1c-.2 0-.3-.2-.3-.3v-.2h.1c.1 0 .4-.4.2-.4zM248.6 107c-.2-.1-.8-.7-.4-1 .2-.1.4-.1.6 0 .5.1.1.5-.1.7-.1.1-.9.7-.6.9.4.3 1.1 0 1.1.6 0 .4-.7.5-1 .3-.4-.3-.4-.7.1-1 .2-.1.4-.7 0-.5-.5.3-1 .7-1 1.3 0 .4.4.8.8.9.6.1 1.2-.3 1.5-.8.3-.4.3-1-.3-1.2-.2 0-.6-.2-.7 0 .2-.3.5-.4.7-.7.4-.5.2-1.1-.4-1.2-.6-.1-1.1.3-1.3.8-.3.6 0 1.1.5 1.4.3.2.8-.4.5-.5z"/><path class="st19" d="M255.6 73.2c0 1.1-.9 2.1-2.1 2.1-1.1 0-2.1-.9-2.1-2.1 0-1.1.9-2.1 2.1-2.1 1.2 0 2.1.9 2.1 2.1z"/><path class="st6" d="M255.7 80.1c0 1.5-1.2 2.6-2.6 2.6-1.5 0-2.7-1.2-2.7-2.6 0-1.5 1.2-2.7 2.7-2.7 1.4.1 2.6 1.3 2.6 2.7zM248.6 76c0 .9-.7 1.6-1.6 1.6-.9 0-1.6-.7-1.6-1.6 0-.9.7-1.6 1.6-1.6.9.1 1.6.8 1.6 1.6z"/><circle class="st7" cx="277" cy="78.2" r="8.9"/><path class="st3" d="M274.8 76.9c-.7.1-.9 1-1 1.6v1.1c0 .1-.1.3-.1.3-.3 0-.5-.4-.5-.6-.2-.5-.3-.9-.4-1.4-.1-.5-.1-1-.2-1.6v-.7-.3-.1c.1-.4-.5 0-.6.2-.6 1-.4 2.3-.4 3.4 0 .3 0 .6-.1.9 0 .2-.1.6-.2.7-.1.1-.3 0-.4 0-.1-.1-.2-.2-.3-.4 0-.2-.2-.1-.3 0-.1.1-.3.4-.2.5.1.4.4.8.8.6.7-.2.9-1 1.1-1.6.1-.3.1-.6.1-.9.1.4.2.9.4 1.3.1.3.4.6.8.5.3-.1.5-.4.6-.7.1.3.3.5.7.5.4 0 .7-.4.8-.7.2-.4.2-.8.2-1.1.1-.4 0-1.5-.8-1.5zm.3 2.6c0 .1 0 .1-.1.2-.1 0-.2-.2-.3-.3-.1-.2-.2-.5-.2-.8v-.8c0-.1 0-.1.1-.2.4.2.4.7.5 1.1v.8zM283.7 78c-.8-.3-1.2.8-1.4 1.4-.1.6-.3 1.5.4 1.8.3.1.7-.1.9-.3.2-.3.4-.6.5-1 .1-.6.3-1.6-.4-1.9zm-.5 2.5c0 .1-.1.1-.1.2-.1-.1-.2-.3-.2-.4v-.8c.1-.3.1-.5.3-.8 0-.1.1-.1.1-.2.3.4.2.8.1 1.3 0 .2-.1.5-.2.7zM281.5 78.1c.1-.2.3-.4.4-.6.3-.4.6-1 .6-1.5s-.7-.5-1.1-.4c-.5.2-.8.8-1 1.3-.2.7-.3 1.4-.3 2.1-.2.3-.8.9-1.2.7-.1-.1-.2-.2-.2-.3.3-.3.6-.7.9-1.1.2-.4.4-1-.1-1.2-.4-.2-.9 0-1.1.3-.3.3-.4.7-.4 1.1v.9c-.2.1-.5.2-.8.2-.3-.1-.4-.4-.5-.6-.1-.4-.1-.8 0-1.1 0-.1 0-.2.1-.3v-.1c.2.1.3.4.3.5.1.3.8-.2.7-.4-.1-.3-.2-.5-.5-.7-.3-.1-.7.1-.8.3-.5.5-.5 1.2-.5 1.8 0 .4.1.9.5 1.1.5.3 1.1 0 1.6-.3.1.3.3.5.7.5.5-.1.9-.3 1.3-.7 0 .4.1.8.4.9.4.2.9 0 1.2-.4.4-.5.6-1.1.4-1.7-.1-.2-.4-.3-.6-.3zm-2.7-.3c0-.1.1-.2.1-.3.2 0 .2.3.2.4 0 .3-.2.6-.5.9v-.2c.1-.2.1-.5.2-.8zm2.6-1.5c.1-.1.1-.2.2-.3.3.3 0 .8-.2 1.2l-.6.9c0-.3.1-.6.2-.9.1-.3.2-.6.4-.9zm-.2 3.7l-.1.1h-.1c-.2-.1-.2-.5-.2-.7v-.5l.3-.3c.2-.1.3.1.3.3.1.4 0 .8-.2 1.1zM263 88.3h-.1c-.9.1-1.1 1.3-1.1 2 0 .6.1 1.8.9 1.8.4 0 .7-.4.9-.7.2-.4.3-.8.3-1.2 0-.6-.1-1.8-.9-1.9zm.1 2.8c0 .1 0 .1-.1.2v.1c-.5 0-.6-1-.6-1.3 0-.3 0-.6.1-.9 0-.1.1-.2.1-.3.5 0 .6 1 .6 1.3 0 .3 0 .6-.1.9zM260.8 88.5c-.3-.1-.6 0-.9.2 0-.2-.1-.4-.2-.7-.1-.2-.4 0-.5.1-.1.1-.2.2-.2.3v.1c0 .2-.1.3-.1.4l-.1.1c-.2.1-.5 0-.6-.1-.1 0-.2-.1-.4-.1h-.1c-1 .2-1 1.5-.9 2.1.1.6.4 1.8 1.2 1.6.4-.1.7-.5.9-.9.2-.4.2-.8.1-1.3 0-.2-.1-.6-.2-.9.1-.1.3-.2.4-.3.2.9.3 1.8.4 2.7.1.8.2 1.7.2 2.5 0 .2.2.1.3.1.1-.1.3-.3.3-.5 0-.6 0-1.2-.1-1.7.2 0 .5-.2.7-.4.4-.5.5-1.3.4-1.9 0-.4-.1-1.2-.6-1.4zm-2.4 3.1V91.9c-.5.1-.7-.9-.8-1.1-.1-.3-.1-.6-.1-.9 0-.1 0-.2.1-.3h.2c.3.2.5.8.5 1.1.1.3.1.6.1.9zm1.7-2.5zm.7 2.4zm0 0c-.3.1-.5-.1-.5-.3v-.1c0-.5-.1-1-.2-1.5v-.5c.1 0 .2 0 .3.1.3.3.4.7.4 1 .1.5.1.9 0 1.3zM255.5 90.1c.1-.3.1-.7.2-1 .1-.5.2-1.3-.2-1.7-.3-.5-.9 0-1.2.3-.4.6-.3 1.3-.3 1.9.1.7.3 1.4.5 2.1-.1.3-.1.7-.3 1v.1l-.1-.1c-.1-.1-.1-.3-.2-.4-.4-1-.6-2.2-1.1-3.1-.2-.3-.5-.8-1-.6-.4.2-.5.5-.6.9-.2-.3-.6-.5-1-.2-.2.1-.3.3-.4.5-.1-.2-.1-.3-.3-.4-.3-.2-.8.6-.6.8.2.1.2.3.3.5.2.4.3.7.5 1.1.1.2.2.4.2.6l.9 2.4c0 .1.1.1.1.1.2 0 .5-.5.4-.7-.3-.7-.5-1.4-.8-2.1l-.3-.9c-.1-.3-.2-.7-.2-1v-.1c.5-.2.9.9 1 1.1.2.4.3.8.5 1.2l.6 1.8c0 .1.1.1.1.1.2 0 .5-.5.4-.7-.2-.6-.4-1.3-.6-1.9 0-.2-.1-.3-.1-.5-.1-.5-.3-1.1-.3-1.7.1 0 .3.1.3.2.4.5.6 1.2.9 1.9.1.4.3.9.4 1.3.1.3.2.6.4.8.2.3.5 0 .7-.2.2-.2.3-.5.4-.8.2.4.4.7.8.7.6-.1.8-.7.9-1.2.1-.5 0-1.5-.6-1.8.1-.4-.1-.4-.3-.3zm-.8-.6c-.1-.5-.1-1 0-1.5.2 0 .2.2.2.4.1.5.1 1 0 1.5 0 .2-.1.4-.1.6 0-.4 0-.7-.1-1zm1.3 2.1c0 .2.1.5 0 .7h-.1c-.1 0-.3-.2-.3-.3-.2-.2-.3-.5-.4-.7 0-.1.1-.3.1-.4.1-.1.2-.1.3 0 .3.1.3.5.4.7zM275.7 93.7c-.1-.1-.3-.1-.4-.1l-.1-.1c-.1-.1 0-.3 0-.4 0-.3.1-.7.3-1 .1-.3.2-.5.3-.8.1-.2.2-.3.3-.5.1-.2-.2-.2-.3-.2h-.1c-.2-.2-.4-.2-.7-.2-.8.1-1.3.8-1.4 1.5-.1.4.2.8.6.9h.2c-.1.2-.2.3-.3.4-.1.1-.3-.2-.3-.4 0-.1-.1-.1-.2-.1-.2 0-.3.1-.4.2v-.1c-.1-.2 0-.4 0-.6.1-.6.3-1.3.5-1.9.1-.4-.2-.7-.6-.7-.4 0-.8.2-1.1.5-.4.4-.6 1-.7 1.5-.1.1-.1.4-.3.6h-.1c-.1-.1 0-.5 0-.7 0-.6.2-1.2.4-1.8.1-.1.1-.3.2-.4.1-.1 0-.3-.2-.3s-.4.1-.5.3c-.1.1-.2.3-.2.4-.1.2-.2.4-.4.5-.1.1-.2.2-.4.3.1-.6.1-1.2.2-1.8 0-.1 0-.1-.1-.2h-.2c-.1 0-.3.1-.4.3l-.1.1c-.2.8-.5 1.7-1 2.4l-.1.1c-.2-.1-.2-.3-.3-.4-.2-.5-.1-1 0-1.5 0-.1.1-.2.1-.3 0-.1.1-.1.1-.2.1.1.2.2.2.3.1.2.9-.2.8-.5-.2-.4-.7-.5-1.1-.3-.3.2-.5.4-.6.6v.1s0 .1-.1.1c-.1.1-.1.3-.2.4.1-.5.1-1 .2-1.5 0-.4-.7 0-.7.2l-.3.6c0-.2-.1-.4-.2-.6-.3-.5-.8-.5-1.2-.1-.1.1-.3.3-.2.4.1.1.3 0 .4-.1l.1.1c.1.1.1.2.2.3.1.3.1.6.1 1 0 .3 0 .6-.1.9v.2c-.1 0-.2-.2-.2-.2-.1-.2-.8.3-.6.6.4.6 1 .2 1.3-.2l.3-.6c.1-.2.1-.3.2-.5 0 .5-.1 1-.2 1.5 0 .2.2.2.3.1.2-.1.3-.2.4-.4 0-.2.1-.4.2-.6 0 .2 0 .4.1.6.1.2.2.5.5.6.4.1.8-.2 1-.4l.6-.6c0 .3-.1.7-.2 1 0 .2.2.2.3.1.2-.1.4-.2.4-.4.1-.3.2-.6.4-.9.1-.1.2-.2.4-.3-.1.5-.2.9-.1 1.4 0 .4.3.5.7.4.2 0 .3-.1.5-.2 0 .2.1.3.2.4.3.2.7.1 1-.1 0 0 .1 0 .1-.1v.2c.1.4.4.5.7.4.2.4.8.4 1.2.2.1 0 .2-.1.2-.1v.2c.1.5.6.6 1 .4-.5.4-.3.3-.3.1zm-3.9-1.2h-.1c-.1-.1-.1-.3-.1-.5v-.6-.1c.1-.3.2-.5.3-.8.1-.1.2-.3.3-.4h.1c.2 0 .2.2.2.3-.2.6-.4 1.3-.7 1.9.1.1 0 .1 0 .2zm1.1.4zm1.4-1.3c0-.3.2-.7.4-.8 0 0 .1 0 .2.1s.1.3.1.4l-.3.9c-.4-.1-.4-.4-.4-.6zm1 2.1zM268.6 98.2s0-.1 0 0c-.1-.1-.1-.2-.1-.2v-.6c0-.6.1-1.2.2-1.7 0-.4-.3-.7-.7-.6-.4 0-.7.3-1 .6-.3.4-.4.8-.5 1.3-.1.2-.1.4-.2.6 0 .1-.1.1-.1.2s-.1.1-.1.1h-.2c-.2 0-.4-.1-.5-.3-.3-.4-.2-1-.2-1.4 0-.2.1-.5.2-.7 0 0 .1 0 .1.1.1.1.2.3.2.5.1.3.8-.1.7-.4-.1-.3-.2-.8-.6-.8-.4 0-.8.3-.9.7-.2.4-.3.8-.3 1.3 0 .2-.1.5-.2.7 0 .1-.1.1-.1.2s-.1.1-.1.1h-.2c-.2 0-.4-.1-.5-.2-.3-.3-.3-1-.2-1.4 0-.2.1-.5.2-.8 0 0 .1 0 .1.1.1.1.2.3.2.5.1.3.8-.2.7-.5-.1-.3-.3-.8-.7-.8-.4 0-.8.4-.9.7-.2.4-.3.9-.3 1.4v.1c0 .2-.1.5-.2.8-.2-.1-.2-.6-.2-.7-.1-.6-.1-1.2 0-1.7 0-.4-.4-.6-.8-.5-.4.1-.7.4-.9.8-.2.4-.3.9-.3 1.4 0 .3-.1.5-.1.8v.1c-.1 0-.1-.1-.1-.2-.1-.2-.2-.6-.2-.8-.1-.5-.2-1.2 0-1.7 0-.1 0-.2-.2-.2s-.4.2-.5.4v.1c-.1.3-.2.6-.3 1-.1-.4-.2-.9-.1-1.2 0-.1 0-.2-.2-.2s-.3.2-.4.3c-.3.6-.3 1.3-.3 1.9 0 .3 0 .6-.1.9-.2-.1-.2-.4-.2-.6 0-.2-.3 0-.4.1-.1.1-.2.3-.2.5.1.4.4 1 .9.6.3-.2.5-.6.6-1 .1.3.1.5.2.8.1.4.6-.2.6-.4v-.5c.2.7.5 1.1 1 .7l.3-.3c.1.2.2.3.3.4.3.1.7-.1.9-.4 0 .1.1.2.1.3.1.1.3.1.4.1.3 0 .5-.3.6-.5.3.5.9.6 1.4.3.2-.1.4-.3.5-.4 0 0 0 .1.1.1.2.5.9.7 1.4.4.2-.1.3-.2.5-.3 0 .2.1.4.3.6.3.2.7 0 .9-.2 0 .1.1.2.1.3.2.3.6.2.8 0 .1-.1.3-.2.3-.4-.1-.5-.5-.3-.5-.3zm-7.4-.7v.2h-.1c-.1 0-.2-.3-.2-.4-.2-.5-.1-1 0-1.5 0-.1.1-.4.2-.5h.1c.2 0 .3.1.3.3-.1.6-.1 1.2-.3 1.9zm6.3.3s0 .1-.1.1h-.1c-.1-.1-.2-.3-.2-.4-.1-.5 0-1 .1-1.5 0-.1.2-.4.2-.4h.1c.2 0 .2.2.2.3.1.6.1 1.3-.2 1.9z"/><g><path class="st3" d="M259.8 105.1c-.1.5.7.5 1 .3.3-.2.3-.4.4-.7.1-.4.2-.8.4-1.1-.1 0-.3.1-.5.1-.1.4-.1.8-.1 1.2 0 .2 0 .6.2.8.1.1.4.1.5 0 .3-.1.6-.3.7-.6.1-.3-.4-.1-.4.1-.2.5-.4.1-.4-.2-.1-.5 0-1 .1-1.5 0-.3-.4 0-.5.1-.2.2-.3.5-.4.7-.1.2-.1.3-.2.5 0 .1-.1.2-.1.2-.1.2-.2 0-.2-.1.1-.1-.5.1-.5.2zM263.4 103.5c-.5.1-.7.7-.7 1.1 0 .3-.1 1.2.5 1.3.6 0 .8-.7.8-1.1 0-.3-.1-1.2-.6-1.3-.1 0-.4.4-.3.4.5 0 .4 1.3.2 1.6.1-.1.1 0 0-.1-.1 0-.1-.1-.1-.2-.1-.1-.1-.3-.1-.5v-.5-.2-.1c0-.1 0-.1 0 0 .3 0 .5-.4.3-.4z"/><path class="st3" d="M262 103.8c.1.6 0 1.3-.1 1.9 0 .2.5 0 .5-.2.1-.5.6-.8.8-1.3.1-.3-.3 0-.4.1-.1.3-.3.5-.5.7-.2.2-.3.4-.3.7.2-.1.3-.1.5-.2.1-.7.2-1.3 0-2-.1-.1-.5.2-.5.3zM266.7 104c.3-.5.8 1.6.1.6-.3-.5-.4-1.1-.5-1.6v-.6c.1-.1.2-.1.2.1v.4c0 .5-.1 1-.3 1.5-.1.3.3.1.4-.1.1-.3.6-2.7-.2-2.5-.9.2-.5 2-.4 2.5.1.3.2 1.2.7 1.2.4 0 .7-.4.8-.7.2-.4 0-1-.4-1.2-.3-.3-.7.3-.8.5-.2.3.2.2.4-.1zM268 102.5c-.4.3-.4.9-.3 1.3.1.3.4 1.2.9 1 .6-.2.5-1 .4-1.4-.1-.3-.5-1.1-1-.9-.1 0-.3.5-.1.5.3-.1.5.2.6.4.1.2.2.3.2.5V104.2c-.2.2-.5-.3-.6-.4-.1-.2-.1-.3-.2-.5v-.3-.1c.2 0 .3-.5.1-.4zM269.1 101.5c.1 0 .2.1.3 0 .3-.1.3-.6.3-.8 0-.1-.1-.2-.2-.1s-.1.2-.1.4v.1c0 .1 0 0 0 0s-.1 0 0 0c-.1-.1-.2.1-.2.2-.1 0-.2.2-.1.2zM271.3 102.7c-.1.4-.7-.3-.7-.4l-.6-.9c-.1-.2-.3.3-.3.4.1.3.3.6.4.8.1.2.1.3.2.5 0 .2.1.2-.1.2-.5 0-.8-1-.9-1.4-.1-.3-.3.2-.3.3.1.4.5 2.2 1.3 1.6.9-.7 0-1.9-.3-2.5-.1.2-.2.3-.3.4.3.5.5 1.1 1 1.4.4.3.8-.2.9-.6.2-.2-.1-.2-.3.2z"/><path class="st3" d="M268.1 103c.6.3 1-.2 1.2-.7.1-.2 0-.5-.2-.2-.2.4-.5.5-.8.4-.2-.1-.4.4-.2.5zM256.6 102c.1-.4 0-.7-.5-.7s-.9.4-1.2.8c-.2.3-.4.7-.1 1.1.3.4 1 .4 1.4.4.3 0 .2-.3-.1-.3-.3 0-.5 0-.7-.2-.2-.2-.1-.5 0-.6.1-.2.2-.4.4-.6l.1-.1c.1-.1.2-.1.1 0 .1.1 0 .3 0 .4 0 0 .5-.1.6-.2zM258.7 102.8c-.1.8-.4 1.5-.7 2.1-.1.2.5.1.5 0 .1-.3.3-.6.5-.9.1-.2.3-.7.6-.4.2-.1.3-.2.5-.2-.7-.7-1.4.4-1.6.8-.1.1.1.1.2.1.6 0 .1.7.3.9.3.3 1 0 1.2-.1.3-.1.1-.4-.2-.2-.4.1-.6.2-.5-.1v-.5c-.1-.3-.4-.3-.7-.3.1 0 .1.1.2.1.1-.2.3-.8.6-.5.1.2.6-.1.5-.2-.9-1-1.9 1.2-2.1 1.6h.5c.3-.7.6-1.5.7-2.2 0-.3-.5-.2-.5 0zM264 103.6c.2.7.2 1.5.2 2.2 0 .2.5-.1.5-.3 0-.3 0-.7.1-1 0-.2 0-.7.4-.6.1-.1.2-.3.3-.4-.9-.3-1.1.9-1.2 1.4 0 .1.2.1.2 0 .5-.3.4.6.6.7.4.1.9-.4 1.1-.6.3-.3 0-.4-.3-.1-.3.3-.4.4-.5.1-.1-.1-.1-.3-.2-.4-.2-.3-.5-.1-.7 0h.2c0-.2 0-.9.4-.7.2.1.5-.4.3-.4-1.2-.5-1.2 1.9-1.2 2.3.2-.1.3-.2.5-.3 0-.8-.1-1.6-.3-2.3 0-.1-.4.2-.4.4z"/></g><g><path class="st7" d="M286.7 103.4s.9.2 1.5-1.4c0 0 .6-1.4.2-1.9 0 0-.6-.3-1.4 1.2 0 0-.8 1.7-.3 2.1zM285.6 106.1s.5.7 2.1-.1c0 0 1.4-.7 1.4-1.3 0 0-.3-.6-1.9 0 0 0-1.8.7-1.6 1.4z"/><path class="st6" d="M283.5 106.7l1.1 1.6s-.5.4-.5.3c-.1-.6-.9-1.8-.9-1.8l.3-.1zM286.1 106.2l.4 1.9s-.5.2-.5.1c.1-.6-.2-2-.2-2h.3zM288.3 104.7l1.2 1s-.2.4-.3.3c-.2-.4-1-1.2-1-1.2l.1-.1z"/><path class="st7" d="M281.1 105.4s-.8.4-.4 2c0 0 .4 1.5 1 1.6 0 0 .7-.2.4-1.8 0 .1-.3-1.8-1-1.8z"/><path class="st7" d="M281.4 105.5s-.5-.7-2.1-.1c0 0-1.4.6-1.5 1.2 0 0 .2.6 1.8.2.1-.1 1.9-.6 1.8-1.3z"/><path class="st7" d="M281.3 105.7s.3-.8-1.1-1.7c0 0-1.3-.8-1.8-.5 0 0-.4.6 1 1.6-.1-.1 1.4 1.1 1.9.6zM282.7 104.2s.4-.8-.8-1.9c0 0-1.2-1-1.7-.8 0 0-.5.5.7 1.7 0 0 1.3 1.4 1.8 1zM285.8 103.5s.9-.2.8-1.9c0 0-.1-1.5-.6-1.8 0 0-.7 0-.7 1.7-.2 0-.2 1.9.5 2z"/><path class="st7" d="M285.7 103.3s.4-.7-.7-1.8c0 0-1.1-1-1.6-.8 0 0-.4.5.6 1.6 0 0 1.2 1.4 1.7 1z"/><path class="st6" d="M280.998 105.413l1.396-1.432.215.21-1.397 1.432z"/></g><g><circle class="st18" cx="285.7" cy="105.5" r="1.5"/><circle class="st20" cx="285.7" cy="105.7" r="1.3"/><ellipse transform="rotate(161 285.706 106.224)" class="st18" cx="285.7" cy="106.2" rx="1" ry=".8"/><circle class="st20" cx="285.7" cy="106.5" r=".5"/></g><g><circle class="st18" cx="284" cy="103.6" r="1.5"/><circle class="st20" cx="283.9" cy="103.4" r="1.3"/><ellipse transform="rotate(-46 283.708 102.98)" class="st18" cx="283.7" cy="103" rx="1" ry=".8"/><circle class="st20" cx="283.6" cy="102.8" r=".5"/></g><g><circle class="st18" cx="283.3" cy="106.3" r="1.5"/><circle class="st20" cx="283.2" cy="106.1" r="1.3"/><ellipse transform="rotate(-46 282.988 105.676)" class="st18" cx="283" cy="105.7" rx="1" ry=".8"/><circle class="st20" cx="282.9" cy="105.4" r=".5"/></g><g><circle class="st18" cx="287.6" cy="103.3" r="1.5"/><circle class="st20" cx="287.5" cy="103.2" r="1.3"/><ellipse transform="rotate(-74 287.006 102.938)" class="st18" cx="287" cy="102.9" rx="1" ry=".8"/><circle class="st20" cx="286.8" cy="102.8" r=".5"/></g><g><path class="st12" d="M243.7 86.1c-.1 0-.2-.1-.2-.2-.3-.1-.6.1-.9.1-.8 0-1 0-2-.3 0-.8.5-1.3.7-1.9.2-.5-.1-1.2-.1-1.8v-1.1c-.3.2-.1 1-.2 1.3-.1-.5-.1-1.1-.3-1.5-.1.5 0 1.1 0 1.5-.1-.4-.2-.9-.3-1.3-.2.4.1 1.1.1 1.5-.2-.4-.2-.8-.4-1.2-.1.5.2.9.1 1.3-.2-.3-.2-.7-.5-.9 0 .3.2.7.3 1-.2-.1-.3-.4-.5-.5 0 .3.2.4.3.6-.2-.1-.2-.3-.4-.3 0 .2.2.3.3.5-.1-.1-.2-.2-.3-.2 0 .2.3.3.2.4 0 0-.2-.1-.2 0 0 0 .2.1.1.1h-.1c0 .1.1.1.1.2h-.1c0 .1.1.1.1.2-.7.7-.3 1.4-.4 2.2 0-.1-.5-.2-1-.4-.2-.1-.3-.4-.5-.5 0 0 .1 0 .1-.1-.1 0-.2-.1-.2-.1h.3c-.1-.1-.4-.1-.4-.3.2 0 .3.1.4.1-.2-.1-.5-.2-.5-.4.2.1.4.2.6.1-.3-.1-.7-.4-.7-.6.2.1.5.3.7.3-.3-.1-.6-.5-.9-.5.1.3.6.5.7.7-.2-.2-.5-.3-.8-.4.1.3.5.4.7.6-.2 0-.4-.1-.6-.1.1.3.5.2.6.4-.1-.1-.3 0-.4 0 0 .2.3.1.4.2-.1 0-.3 0-.3.1.1.1.3 0 .3.1-.1 0-.2 0-.2.1s.2 0 .2.1c0 0-.1 0-.1.1h.1s-.1 0-.1.1c.4.2.5.8 1 .9-.3.2.3.4-2.8 1.4.1 0 1.4-.3 1.7-.4.4-.1.8-.2 1.1-.4.1 0 .2-.1.3-.1.6-.1 1.2.1 1.8-.4-.5.1-1.3.2-1.6-.1.4-.7.1-2.3.5-2.7.4-.3.9-1.4 1.5-.5.1.1.1.4-.1.7-.3.5-.5.7-.4 1.7 0 .2 0 .4-.3.4 1.3.3 1.7.1 2.5 0 .3 0 .6-.2.7 0 0 .1-.3.1-.5.1-.4 0 .2.1.3.1.1 0 .8-.1 1.2-.2-.3.3-.5.3-.7.2z"/><path class="st12" d="M239.7 79.2c-3.1 0-5.6 2.5-5.6 5.6 0 3.1 2.5 5.6 5.6 5.6 3.1 0 5.6-2.5 5.6-5.6 0-3.1-2.5-5.6-5.6-5.6m0 .2c3 0 5.4 2.4 5.4 5.4 0 3-2.4 5.4-5.4 5.4-3 0-5.4-2.4-5.4-5.4 0-3 2.4-5.4 5.4-5.4"/></g></g></g></svg>