<svg xmlns="http://www.w3.org/2000/svg" viewBox="0 0 258.6 171"><style>.st0{fill:#519E38;} .st1{fill:#FFFFFF;}</style><g id="tvorog_1_"><circle class="st0" cx="188.2" cy="82.2" r="3.1"/><path class="st0" d="M185.1 96.7c0-3.1-1.9-5.8-4.6-6.9.2-.4.3-.8.3-1.2 0-1.7-1.4-3.1-3.1-3.1-1.7 0-3.1 1.4-3.1 3.1 0 .4.1.9.3 1.2-.7.3-1.3.7-1.9 1.1-2.7-3-6.7-4.9-11-4.9h-.1c-.1-1.5-.5-2.9-1-4.2 2.6-.3 4.7-2.5 4.7-5.2 0-2.9-2.4-5.3-5.3-5.3-2.6 0-4.7 1.9-5.2 4.3-1.4-.7-2.9-1.2-4.5-1.4 1-1 1.7-2.3 1.7-3.9 0-2.9-2.4-5.3-5.3-5.3-2.2 0-4.1 1.4-4.9 3.3-2.7-2.4-6.2-3.9-10.1-3.9-5.7 0-10.7 3.2-13.2 7.9-.4-1.2-1.6-2-2.9-2-1.7 0-3.1 1.4-3.1 3.1 0 .8.3 1.5.8 2-2.2 1.1-4 2.7-5.3 4.8-.5-3.5-3.5-6.1-7.1-6.1-4 0-7.2 3.2-7.2 7.2 0 1.4.4 2.7 1.1 3.8-.7 0-1.1-.1-1.6-.1-5 0-9.3 3.5-10.4 8.2-1-.6-2.2-.9-3.5-.9-4.1 0-7.5 3.4-7.5 7.5s3.4 7.5 7.5 7.5c1.2 0 2.3-.3 3.2-.7v.7c0 8.3 6.7 15 15 15 2.6 0 5.1-.7 7.2-1.9.3 1.4 1.5 2.5 3.1 2.5 1.7 0 3.1-1.4 3.1-3.1 0-.2 0-.4-.1-.6 1.4.4 2.9.6 4.5.6s3.2-.2 4.7-.6c2.4 5.1 7.6 8.7 13.6 8.7 8.3 0 15-6.7 15-15 0-.4 0-.8-.1-1.2.5-.4.9-.7 1.4-1.2 2.8 3.3 6.9 5.4 11.5 5.4s8.6-2 11.4-5.2c1 1.3 2.6 2.2 4.4 2.2 3.1 0 5.6-2.5 5.6-5.6 0-1.7-.7-3.1-1.9-4.2 2.4-1.2 3.9-3.6 3.9-6.4zm-83.6-8l-.1-.1h.3c-.1 0-.1 0-.2.1z"/><circle class="st1" cx="87.7" cy="89.7" r="10.7"/><circle class="st1" cx="95.2" cy="75.4" r="7.2"/><circle class="st1" cx="141" cy="64.4" r="5.3"/><circle class="st1" cx="154.3" cy="70.7" r="5.3"/><circle class="st1" cx="171.8" cy="82.6" r="3.1"/><circle class="st1" cx="182.4" cy="76.2" r="3.1"/><circle class="st1" cx="102.4" cy="113.9" r="3.1"/><circle class="st1" cx="171.8" cy="101.4" r="5.6"/><circle class="st1" cx="109.9" cy="67.6" r="3.1"/><circle class="st1" cx="73.9" cy="93.9" r="7.5"/><circle class="st1" cx="171.8" cy="90.7" r="7.5"/><circle class="st1" cx="113.2" cy="81.1" r="12.8"/><circle class="st1" cx="143.2" cy="81.1" r="12.8"/><circle class="st1" cx="126" cy="73.6" r="15"/><circle class="st1" cx="134" cy="93.9" r="15"/><circle class="st1" cx="128.2" cy="107" r="15"/><circle class="st1" cx="109.9" cy="95.1" r="18.8"/><circle class="st1" cx="92.1" cy="101.4" r="15"/><circle class="st1" cx="156" cy="95.1" r="15"/></g></svg>