<svg xmlns="http://www.w3.org/2000/svg" viewBox="71 -4.6 272.1 258.6"><style>.st0{fill:#EAEAEA;} .st1{fill:#D8D8D8;} .st2{fill:#353535;} .st3{fill:#CECECE;} .st4{fill:#A0A0A0;} .st5{fill:#FFFFFF;} .st6{fill:#F70004;} .st7{fill:#F98F94;} .st8{fill:#777676;} .st9{fill:#1E1E1E;} .st10{fill:#F9F9F9;} .st11{fill:#1669B3;} .st12{fill:#EDEDED;} .st13{fill:none;stroke:#636363;stroke-width:0.75;} .st14{fill:#636363;} .st15{fill:#FCF7F0;} .st16{fill:#EDDDC8;}</style><g id="owen"><path class="st0" d="M290.4 201.7c0 8.3-6.7 15-15 15H135.1c-8.3 0-15-6.7-15-15V61.5c0-8.3 6.7-15 15-15h140.4c8.3 0 15 6.7 15 15v140.2h-.1z"/><path class="st1" d="M280.8 195c0 8.7-6.7 15.7-14.9 15.7h-122c-8.3 0-14.9-7-14.9-15.7v-85c0-8.7 6.7-15.7 14.9-15.7h121.9c8.3 0 14.9 7 14.9 15.7l.1 85z"/><path class="st2" d="M271.6 187.6c0 7.2-5.9 13.1-13.1 13.1H151.6c-7.2 0-13.1-5.9-13.1-13.1v-70.9c0-7.2 5.9-13.1 13.1-13.1h106.8c7.2 0 13.1 5.9 13.1 13.1v70.9h.1z"/><circle class="st3" cx="237.9" cy="72.5" r="5.1"/><path class="st4" d="M237.6 62.4h.5v2.9h-.5zM237.6 79.7h.5v2.9h-.5zM245 72.3h2.9v.5H245zM227.8 72.3h2.9v.5h-2.9zM242.95 67.406l-.353-.354 2.05-2.05.353.352zM230.748 79.614l-.353-.353 2.05-2.05.353.352zM243.038 77.602l.353-.354 2.054 2.048-.353.354zM230.836 65.394l.354-.354 2.053 2.05-.354.353z"/><circle class="st3" cx="208.8" cy="72.5" r="5.1"/><path class="st4" d="M208.6 62.4h.5v2.9h-.5zM208.6 79.7h.5v2.9h-.5zM216 72.3h2.9v.5H216zM198.7 72.3h2.9v.5h-2.9zM213.89 67.364l-.353-.354 2.048-2.053.354.354zM201.69 79.572l-.352-.353 2.048-2.054.354.353zM214.053 77.572l.353-.354 2.054 2.048-.353.354zM201.85 65.367l.353-.354 2.054 2.047-.353.354z"/><circle class="st3" cx="179.6" cy="72.5" r="5.1"/><path class="st4" d="M179.4 62.4h.5v2.9h-.5zM179.4 79.7h.5v2.9h-.5zM186.8 72.3h2.9v.5h-2.9zM169.5 72.3h2.9v.5h-2.9zM184.702 67.453l-.354-.354 2.05-2.052.353.353zM172.573 79.59l-.354-.353 2.048-2.052.354.354zM184.863 77.583l.354-.354 2.052 2.048-.354.354zM172.66 65.377l.354-.354 2.053 2.048-.353.355z"/><g><circle class="st5" cx="149.6" cy="72.8" r="5.4"/><circle class="st6" cx="149.6" cy="72.8" r="4.1"/><circle class="st7" cx="148.2" cy="71.4" r="1.1"/></g><path class="st8" d="M138.5 150.4h132.7v3.2H138.5z"/><path class="st1" d="M134.8 114.5h139.5v6.5H134.8z"/><path class="st9" d="M140.3 145.9h130.9v4.6H140.3z"/><path class="st8" d="M138.5 183.2h133v3.2h-133z"/><path class="st9" d="M140.3 178.6h130.9v4.6H140.3z"/><path class="st10" d="M134.8 75.5c0 1.6-1.3 2.9-2.9 2.9-1.6 0-2.9-1.3-2.9-2.9V63.9c0-1.6 1.3-2.9 2.9-2.9 1.6 0 2.9 1.3 2.9 2.9v11.6z"/></g><g id="clock_1_"><circle class="st11" cx="283" cy="51.4" r="29.8"/><circle class="st12" cx="283" cy="51.4" r="24.5"/><ellipse class="st13" cx="283" cy="51.4" rx="22.5" ry="22.7"/><path class="st14" d="M282.1 28.8h1.9v5h-1.9zM274.607 36.12l-1.543 1.11-2.92-4.06 1.544-1.11zM268.582 41.76l-.886 1.68-4.423-2.33.886-1.68zM294.62 31.704l1.543 1.11-2.92 4.058-1.54-1.11zM302.468 39.42l.886 1.68-4.423 2.332-.885-1.68zM271.704 71.07l-1.543-1.11 2.922-4.06 1.542 1.11zM263.47 62.563l-.888-1.68 4.423-2.333.886 1.68zM292.214 66.713l1.543-1.11 2.918 4.06-1.542 1.11zM298.072 60.576l.886-1.68 4.423 2.332-.885 1.68zM282.1 69.4h1.9v5h-1.9zM300.8 50.5h5v1.9h-5zM260.2 50.5h5v1.9h-5z"/><circle class="st9" cx="283.3" cy="50.7" r="1.8"/></g><path class="st9" d="M283.318 51.488l.14-1.293 11.433 1.245-.14 1.292z" id="hour"/><path class="st9" d="M283.776 51.15l-1.22-.447 6.212-16.895 1.22.448z" id="minute"/><g id="zapekankas"><path class="st15" d="M175.6 142.8c0 1.7-1.4 3.1-3.1 3.1h-24.7c-1.7 0-3.1-1.4-3.1-3.1v-8.6c0-1.7 1.4-3.1 3.1-3.1h24.7c1.7 0 3.1 1.4 3.1 3.1v8.6zM221.2 142.8c0 1.7-1.4 3.1-3.1 3.1h-24.7c-1.7 0-3.1-1.4-3.1-3.1v-8.6c0-1.7 1.4-3.1 3.1-3.1h24.7c1.7 0 3.1 1.4 3.1 3.1v8.6zM263.8 142.8c0 1.7-1.4 3.1-3.1 3.1H236c-1.7 0-3.1-1.4-3.1-3.1v-8.6c0-1.7 1.4-3.1 3.1-3.1h24.7c1.7 0 3.1 1.4 3.1 3.1v8.6zM175.6 175.6c0 1.7-1.4 3.1-3.1 3.1h-24.7c-1.7 0-3.1-1.4-3.1-3.1V167c0-1.7 1.4-3.1 3.1-3.1h24.7c1.7 0 3.1 1.4 3.1 3.1v8.6zM221.2 175.6c0 1.7-1.4 3.1-3.1 3.1h-24.7c-1.7 0-3.1-1.4-3.1-3.1V167c0-1.7 1.4-3.1 3.1-3.1h24.7c1.7 0 3.1 1.4 3.1 3.1v8.6zM263.8 175.6c0 1.7-1.4 3.1-3.1 3.1H236c-1.7 0-3.1-1.4-3.1-3.1V167c0-1.7 1.4-3.1 3.1-3.1h24.7c1.7 0 3.1 1.4 3.1 3.1v8.6z"/></g><g id="drops"><circle class="st16" cx="153.4" cy="135" r="1.3"/><circle class="st16" cx="167.3" cy="141.5" r="1.3"/><circle class="st16" cx="154" cy="138.5" r="2"/><circle class="st16" cx="147.7" cy="141.2" r=".9"/><circle class="st16" cx="147.7" cy="133.6" r=".9"/><circle class="st16" cx="159.2" cy="141.2" r=".9"/><circle class="st16" cx="173.1" cy="134" r=".6"/><circle class="st16" cx="167" cy="174" r="1.3"/><circle class="st16" cx="153.1" cy="167.5" r="1.3"/><circle class="st16" cx="158.3" cy="171.2" r="2"/><circle class="st16" cx="172.7" cy="167.8" r=".9"/><circle class="st16" cx="172.7" cy="175.4" r=".9"/><circle class="st16" cx="161.2" cy="167.8" r=".9"/><circle class="st16" cx="147.3" cy="175" r=".6"/><circle class="st16" cx="211.4" cy="137.1" r="1.3"/><circle class="st16" cx="214.1" cy="141.5" r="1.3"/><circle class="st16" cx="201.5" cy="141.2" r="2"/><circle class="st16" cx="194.5" cy="141.2" r=".9"/><circle class="st16" cx="209.7" cy="143.2" r=".9"/><circle class="st16" cx="205.3" cy="136.3" r=".9"/><circle class="st16" cx="196" cy="135.4" r=".6"/><circle class="st16" cx="197.6" cy="173.9" r="1.3"/><circle class="st16" cx="200.8" cy="171.8" r="1.3"/><circle class="st16" cx="207.5" cy="169.8" r="2"/><circle class="st16" cx="195.4" cy="167.5" r=".9"/><circle class="st16" cx="199.3" cy="167.8" r=".9"/><circle class="st16" cx="203.7" cy="174.7" r=".9"/><circle class="st16" cx="213" cy="175.6" r=".6"/><circle class="st16" cx="253.2" cy="137.1" r="1.3"/><circle class="st16" cx="242.8" cy="135.4" r="1.3"/><circle class="st16" cx="259.2" cy="135.4" r="2"/><circle class="st16" cx="236.3" cy="141.2" r=".9"/><circle class="st16" cx="237.2" cy="137.6" r=".9"/><circle class="st16" cx="245.2" cy="140.5" r=".9"/><circle class="st16" cx="237.8" cy="135.4" r=".6"/><circle class="st16" cx="248.3" cy="136.5" r=".6"/><circle class="st16" cx="240.3" cy="140.1" r=".6"/><circle class="st16" cx="240.8" cy="142.3" r=".6"/><circle class="st16" cx="243.4" cy="172.8" r="1.3"/><circle class="st16" cx="239.7" cy="175.6" r="1.3"/><circle class="st16" cx="238.4" cy="168.2" r="2"/><circle class="st16" cx="260.3" cy="168.7" r=".9"/><circle class="st16" cx="259.4" cy="172.3" r=".9"/><circle class="st16" cx="251.3" cy="169.4" r=".9"/><circle class="st16" cx="258.8" cy="174.5" r=".6"/><circle class="st16" cx="248.3" cy="173.5" r=".6"/><circle class="st16" cx="256.3" cy="169.8" r=".6"/><circle class="st16" cx="255.7" cy="167.6" r=".6"/></g></svg>