<svg xmlns="http://www.w3.org/2000/svg" viewBox="0 0 316 336.1"><style>.st0{fill:#519E38;} .st1{fill:#F9B23E;} .st2{fill:#E5B283;} .st3{fill:#F9C88F;} .st4{fill:#F9BD6E;} .st5{fill:#FFDEB6;} .st6{fill:#FCCC8B;} .st7{fill:#FAE6C0;} .st8{fill-rule:evenodd;clip-rule:evenodd;fill:#A16125;} .st9{fill:#A16125;} .st10{fill:#F9D4AF;} .st11{fill:#DA811F;} .st12{fill:#FFCA58;} .st13{fill:#FFFFFF;} .st14{fill:#B2603D;} .st15{fill:#2E723D;} .st16{fill:#F9A25A;} .st17{fill:#DB8B4F;} .st18{fill:#F9B17A;} .st19{fill:#BA703E;} .st20{fill:#E8904D;} .st21{fill:#4C2D15;} .st22{fill-rule:evenodd;clip-rule:evenodd;fill:#351000;} .st23{fill-rule:evenodd;clip-rule:evenodd;fill:#2C6D0F;} .st24{fill:#552D84;} .st25{fill:#72569B;}</style><g id="kolby"><path class="st0" d="M150.6 224.8l-13.7-16.2c1-.9 1.7-1.7 1.9-2.4.3-1.6-.5-2.4-1.6-2.6-1.1-.2.4-1.9.2-3s-2.1-1.2-2-2c.1-.8.4-1.1-.1-2.2s-1.8-1.8-2.6-1.8-.9-1.1-2.1-2.2-2.8.1-3-.2c-.3-.3-1.2-3.9-6.4 1 0 0-2.8 2-2.5 3.9.3 1.9 1.4 1.7.8 3.4-.5 1.7 1.1 2.7 1.7 3.2.6.4.2 1.2.2 1.2s-.6 1.5 1.9 2.2c2.5.7 1.9.7 2 1.5.1.9 1.5 2.2 3.2 1.3 1.1-.1.6.6.7 1.4.1.8 1.5 1.8 3.7.3.5-.3 1-.7 1.6-1.1l13.8 16.3c.6.7 1.6.7 2.2.2.6-.6.7-1.6.1-2.2z"/><path class="st1" d="M124.7 212.8c0-.1-.1-.2-.2-.3l-2.8-5.5-2.7 5.6c-.1.1-.1.2-.1.3-.2.4-.2.8-.2 1.2 0 1.7 1.4 3.1 3.2 3.1 1.7 0 3.1-1.4 3.1-3.2l-.3-1.2z"/><path class="st2" d="M149.2 224.9l-14.6-17.1c-.6-.7-.5-1.7.2-2.2.7-.6 1.7-.5 2.2.2l14.6 17.1c.6.7.5 1.7-.2 2.2-.6.6-1.6.5-2.2-.2z"/><path class="st1" d="M122.2 191.3s-2.8 2-2.5 3.9 1.4 1.7.8 3.4c-.5 1.7 1.1 2.7 1.7 3.2.6.4.2 1.2.2 1.2s-.6 1.5 1.9 2.2c2.5.7 1.9.7 2 1.5.1.9 1.5 2.2 3.2 1.3 1.1-.1.6.6.7 1.4s1.5 1.8 3.7.3c2.1-1.5 5.6-3.9 5.9-5.5.3-1.6-.5-2.4-1.6-2.6-1.1-.2.4-1.9.2-3s-2.1-1.2-2-2c.1-.8.4-1.1-.1-2.2-.5-1-1.8-1.8-2.6-1.8s-.9-1.1-2.1-2.2-2.8.1-3-.2-1.3-3.8-6.4 1.1z"/><ellipse transform="rotate(-40 129.323 199.09)" class="st3" cx="129.3" cy="199.1" rx="6.4" ry="9.2"/><path class="st4" d="M127.2 192l-4.5 3.8c-.7.6-1.7.5-2.2-.2-.6-.7-.5-1.7.2-2.2l4.5-3.8c.7-.6 1.7-.5 2.2.2.5.6.5 1.6-.2 2.2zM138.2 205l-4.5 3.8c-.7.6-1.7.5-2.2-.2-.6-.7-.5-1.7.2-2.2l4.5-3.8c.7-.6 1.7-.5 2.2.2.5.6.5 1.6-.2 2.2zM131.5 193.8l-7.7 6.6c-.7.6-1.7.5-2.2-.2-.6-.7-.5-1.7.2-2.2l7.7-6.6c.7-.6 1.7-.5 2.2.2.5.7.5 1.7-.2 2.2zM137 200.3l-7.7 6.6c-.7.6-1.7.5-2.2-.2-.6-.7-.5-1.7.2-2.2l7.7-6.6c.7-.6 1.7-.5 2.2.2.5.6.4 1.6-.2 2.2zM135.1 196.3l-9.5 8.1c-.7.6-1.7.5-2.2-.2-.6-.7-.5-1.7.2-2.2l9.5-8.1c.7-.6 1.7-.5 2.2.2.6.6.5 1.6-.2 2.2z"/><path class="st5" d="M123.4 199.9c-.1-.1-.2-.1-.3-.2-2-2.7-.9-5.5-.8-5.6.2-.4.7-.6 1.1-.5.4.2.6.7.5 1.1 0 .1-.8 2 .6 4 .3.4.2.9-.2 1.2-.3.2-.7.2-.9 0z"/><circle class="st5" cx="125.7" cy="202" r="1"/><circle class="st6" cx="120.4" cy="214.3" r="1"/></g><g id="nut_2"><path class="st7" d="M179.5 202c.3-.7.7-1.5 1.3-2.1.3-.3.7-.5 1-.8.3-.3.5-.6.8-.9.8-.7 1.9-1.1 2.8-1.7.9-.6 1.7-1.3 2.6-1.3 1 0 2-.1 2.9.4.9.4 1.1.8 1.7 1.4.4.4.8.6.9 1.2.2.6.2 1.1.1 1.7 0 .4-.1 1-.1 1.4 0 .3.3.5.3.7 0 .2-.2.6-.2.8-.1.6-1.9 8.1-2.3 8.7-.8 1.1-1.9 3.8-3.1 4.1-1.2.3-3 .4-4.3.4-1.4-.1-2.3-.6-3.4-1.4-.2-.1-2.3-1.5-2.6-2.5-.2-.8-.4-2.5-.6-3.4-.3-1.2 1-3 .9-3.3-.3-.5 1.4-2.7 1.3-3.4"/><path class="st8" d="M176.8 207.1c.1-.2.1-.3.3-.2.1 0 .1 0 .2.1.5.5.8 1 1 1.6.1.3.2.7.3 1h-1.2v.3c.1 0 .1-.1.2-.1.7-.2 1.2 0 1.5.6.8 1.3 1.6 2.6 2.8 3.6v.1c-1.3-.1-3.3-1.2-4.4-2.4-.2-.2-.3-.5-.4-.7-.1-1.2-.2-2.4-.4-3.7 0 0 0-.1.1-.2zM190.9 204.3l-1.2-1.5c-.4-.6-.9-1-1.6-1.2-.6-.2-1.2-.4-1.8-.5-.6-.2-1.1.1-1.6.3.3.6.7 1.1 1 1.6.2.4.4.7.7 1.1l.2.2h4.3c-.1 0 0 0 0 0zM189.1 212.2c-.2-.2-.3-.3-.4-.5l-.6-.6c-.5-.8-1.2-1.1-2.2-1-.8.1-1.6 0-2.5.1-.2 0-.4 0-.6.1 0 .1.1.1.1.2.8.8 1.5 1.6 2.3 2.5.1.1.2.2.3.1 1-.2 2.1-.4 3.1-.7.2-.1.3-.2.5-.2zM187.7 198.7c.7 1 1.5 1.8 1.7 2.9l3.6-.9c-.3-.9-.6-1.8-1.5-2.3-.1-.1-.3-.1-.4-.1H189c-.3 0-.8.2-1.3.4z"/><path class="st8" d="M189.2 201.6c-.2-.4-.4-.9-.6-1.2-.4-.6-.8-1.1-1.2-1.6-.1-.1-.2-.2-.3-.2-1-.2-2.1-.4-3.1-.6h-.4c.4 1.1.7 2.1 1.1 3.1h.1c.7-.5 1.4-.4 2.2-.1.6.2 1.3.4 1.9.6 0 0 .1.1.3 0-.1.1 0 0 0 0zM183.5 206c.7.8 1.4 1.5 2 2.2.1.1.3.2.5.2 1.3.1 2.5.1 3.8.2h.2c-.5-.5-1-.9-1.5-1.4-.6-.8-1.4-1.1-2.4-1.1-.7 0-1.5-.1-2.2-.1h-.4zM187.3 205.8c-.3-.4-.6-.7-.9-1-.2-.3-.5-.5-.7-.8-.2-.3-.5-.6-.9-.6-1-.2-2.1-.4-3.2-.6.3 1 .6 1.9 1.4 2.5.1.1.3.2.5.3 1.2.3 2.4.2 3.8.2zM180.7 207l1.8 2.7c0 .1.1.1.2.1h4c-.6-.6-1.1-1.1-1.7-1.6-.1-.1-.3-.2-.4-.4-.3-.4-.7-.5-1.2-.6-.8 0-1.7-.1-2.7-.2zM180.2 211.6c.5.9 1 1.7 1.7 2.3.4.4.9.6 1.4.6.9.1 1.7-.1 2.7-.3l-.4-.4c-.5-.4-.9-.9-1.4-1.3-.3-.3-.6-.4-1-.5-.9-.1-1.8-.2-2.8-.3 0-.1-.1-.1-.2-.1zM188.8 198.1h2.2c.6 0 1-.2 1.5-.4-.3-1.2-1.1-2-2.2-2.5-.2-.1-.6 0-.8.1-.3.1-.6.4-.9.6-.1.1-.2.3-.2.5.2.6.3 1.1.4 1.7zM189.4 201.9c.5.6 1 1.2 1.4 1.8.3.4.6.5 1 .3 1-.4 1.7-1.1 2.1-2 .2-.5-.4-1.2-.9-1l-3.6.9zM185.5 203.3c-.3-.5-.5-1-.8-1.5-.2-.4-.5-.9-.7-1.3-.1-.1-.1-.2-.2-.2-.8-.2-1.6-.3-2.4-.5-.3.6-.2 1.3-.1 1.9.2.8.2.8 1.1.8 1 .2 2 .3 3.1.8zM178.4 208.3c0 .1 0 .3.1.4.3.9.9 1.7 1.4 2.5 0 0 .1.1.2.1 1.2.1 2.3.3 3.6.4-.3-.3-.6-.6-.8-.9-.4-.4-.7-.9-1-1.4 0-.1-.1-.1-.2-.2-1.2-.3-2.2-.6-3.3-.9zM181.6 208.8c-.2-.4-.4-.7-.6-1-.6-.9-1.1-1.8-1.7-2.7-.2-.3-.4-.3-.6-.3-.7-.1-.7-.1-.9.5-.3.9-.1 1.7.4 2.5 0 .1.1.1.2.2l3 .9c.1 0 .1-.1.2-.1zM192.3 206c-.4-.4-.7-.8-1.1-1.1-.1-.1-.2-.1-.3-.1l-4.2-.3v.1l.5.5c.6.6 1.1 1.2 1.7 1.7.1.1.2.2.4.1.9-.3 1.9-.6 3-.9z"/><path class="st8" d="M184.1 206.9c-.3-.3-.5-.6-.8-.9-.5-.6-1-1.2-1.5-1.7-.1-.1-.2-.2-.4-.2h-1.5c-.4 0-.5.2-.5.6.1.8.6 1.4 1 2 0 0 .1.1.2.1 1.3 0 2.4.1 3.5.1zM188.5 198c-.2-.5-.3-1.1-.5-1.7-.1-.4-.8-.7-1.2-.5-.2.1-.4.1-.6.2-1.2.5-1.1.4-1.7 1.8.7.1 1.4.3 2 .5.8.2 1.4.2 2-.3zM186.3 208.9c.7.6 1.4 1.3 2.1 1.9 0 0 .1.1.2 0 .9-.3 1.8-.7 2.7-1.1-.6-.4-1.1-.8-1.8-.8-1.1-.1-2.1-.1-3.2-.1v.1zM185.8 213.3c.4.9 1.2 1.4 2.1 1.4.4 0 .8-.1 1.1-.5.4-.5.5-1.1.6-1.7-1.3.2-2.5.5-3.8.8zM189.1 207.2l1.5 1.5c.1.1.2.1.3.1.7-.4 1.5-.9 2.2-1.3-.4-.6-1-1-1.7-.8-.7 0-1.5.2-2.3.5zM181.7 203.9c-.4-.9-.7-1.8-1-2.7-.3.1-.7.2-1 .3-.1 0-.1.1-.1.2-.1.7-.2 1.3-.2 2 0 .1.1.2.2.2h2.1zM193.6 203.5c-.8.4-1.6.7-2.4 1.1.5.5.9 1.1 1.4 1.6 0 0 .2.1.3 0 .2-.1.3-.3.4-.5.2-.7.3-1.4.3-2.2zM191.6 210.3c-1.1.3-2 .5-3.1.8l1.3 1.3c.1.1.2.1.3 0 .7-.4 1.2-.9 1.5-1.6v-.5zM183 214.7c.1.2.2.3.2.3.7.5 1.4.8 2.2.7.5-.1 1-.6 1.1-1 0-.2-.3-.4-.5-.4-.5.1-1 .3-1.5.4-.4.1-.9 0-1.5 0zM184 200.1c-.4-.7-.8-1.4-1.2-2.2-.5.5-1 1-1.5 1.6.9.2 1.7.4 2.7.6zM193.5 197.8c-.5.1-1.1.2-1.7.4.7.7 1.1 1.4 1.4 2.2 0 .1.1.1.2.1s.2-.1.2-.2c0-.8.2-1.7-.1-2.5z"/><path class="st8" d="M185.1 216.2c.6.1 1.3.3 1.9.4.5.1.8-.3.7-.8-.1-.5-.4-.9-.9-1.2 0 .5-.1.9-.6 1.1-.3.1-.7.2-1.1.5 0-.1 0-.1 0 0zM184.5 215.8c-.6-.3-1.2-.5-1.8-.2l-1.2.3c.9 1.1 2 1.1 3-.1zM189.9 212.8c-.1.5-.2.8-.3 1.2-.1.5-.4.8-.9.8-.4.1-.9.1-1.4.1.2.1.3.2.5.2.6.2 1.2.1 1.7-.2.1-.1.3-.2.3-.3.4-.5.4-1.1.1-1.8zM190.9 209c.1.2.2.3.2.4.4.4.7.4 1 0 .3-.4.5-.8.7-1.2l-.1-.1c-.5.3-1.1.6-1.8.9zM178.7 202.8c-.4.5-.5 1-.6 1.6.4.1.7.2 1.2.3-.2-.7-.3-1.3-.5-1.9h-.1zM188.9 195.2h-1.7v.1c.4.3.7.6 1.2.9.2-.3.4-.6.6-.8-.1-.1-.1-.2-.1-.2zM180.2 201c.2 0 .4-.1.6-.1.1-.4.1-.9.2-1.3h-.1c-.3.4-.6.8-.7 1.4-.1-.1-.1-.1 0 0zM180 215.1c-.1 0-.3-.2-.3-.2-.6-.6-1-1.2-1.3-1.8 1.6.7 3.1 1.4 4.6 2.2v.1l-2.1.3c.1-.2-.4-.2-.9-.6z"/><path class="st9" d="M180.1 200.9l.8-1.4 1.8-1.5 2.5-1.7 2-1.2 1.7.1h1.5l.7.4.6.5 1.8 1.7.1 1 .2 2.9-.2.1v-1.5l-.2-1.9-.1-.5-.3-.3-1.5-1.4-1-.8-.8-.1-1.3.8-2.7.2-2.2 1.5-2.4 1.9-.6 1.1z"/><path class="st10" d="M195.2 212.8c0-.7-.6-1.3-1.3-1.3-.7 0-1.3.6-1.3 1.3 0 .7.6 2.2 1.3 2.2.7 0 1.3-1.5 1.3-2.2zM197.6 210.1c-.7-.3-1.4 0-1.7.7-.3.7 0 1.4.7 1.7.7.3 2.3.3 2.5-.4.3-.6-.9-1.7-1.5-2zM196.9 214.5c-.7-.3-1.4 0-1.7.7-.3.7 0 1.4.7 1.7.7.3 2.3.3 2.5-.4.3-.6-.8-1.7-1.5-2z"/></g><g id="nut"><path class="st11" d="M93.5 204.8l1.7-1.9 2.8-1.2s2.5-.2 3.3-.3c1.5-.1 4 1 4 1l2.1 1.1 2.4 2.1 1.5 1.9 1 2.6.5 2.6v2.8l-.8 3.6-1.1 2.9-3.7.3-3.6.2-2.6-.5-2.5-.8-2.8-1.6-1.8-1.7-1.5-2.5-1.1-3-.1-3 .8-2.8 1.5-1.8z"/><path class="st9" d="M112.9 214.7s.4-1.8-.7-5.4c0 0-.1 0-.1-.1l-.3-.6c-.2-.3-.3-.6-.4-1 0-.1-.8-1.8-3.2-3.9-2.6-2.2-5.7-3.3-9.2-2.7-5.2.9-8.6 5.3-8 10.6.3 2.3 1.1 4.6 2.8 6.3 3.2 3.3 7.2 4.8 11.8 4.4l3-.3c.8-.1 1.6 0 2.4 0 0-.3.1-.8.2-.7.2-.5 1.6-4 1.7-6.6zm-2.3 7c-1.3.1-2.8.2-4.2.4-2 .3-4 0-5.9-.5-.9-.2-1.8-.6-2.7-1-1.5-.7-2.9-1.6-3.9-3s-1.8-2.9-2.2-4.6c-.2-.9-.5-1.8-.4-2.8.1-.7.3-1.5.4-2.2.3-.7.5-1.3.8-2h.1v.3c.7-.6 1.3-1.1 2-1.7.2-.2.3-.6.4-1 1-1.1 2.1-2.1 3.7-2.2 1.5-.1 3.1-.3 4.6.1 0 .1 0 .4.1.4l1.5.6c.3.1.5.3.7.5 1.6.9 2.9 2.2 4.1 3.7 1.1 1.4 1.5 3 1.9 4.6.4 1.8.3 3.4-.4 5.1v.4c.2-.3.3-.4.4-.7 0 1.7-1.5 3-1.4 4.8.5-1.1.9-2 1.3-3 .7-2 1.2-4.1.7-6.3-.4-1.5-.8-3.2-1.6-4.5-.8-1.4-2.1-2.4-3.2-3.6-.1-.1-.2-.2-.2-.4.3.2.6.3.8.5.7.7 1.5 1.3 2.1 2.1 3.1 4.3 3.3 8.8 1.3 13.6-.4 1-.6 1.8-.8 2.4z"/><path class="st9" d="M94 214.6c.1 0 .1 0 .3.1 1.2.9 2.6.4 3.3 1.7.4.7.9 2 2.9 2.1 1.1.1 2 1.2 3.1 1.1.9-.1 3.3-.8 4-1.4.9-.7 2-2.7 2.9-3-.8 1.4.1 3.8-1.4 5-1.8 1.4-5.6.1-7.6-.3-1.9-.4-3.8-.9-5.2-2.2-1.1-1-1.5-2.3-2.4-3.4"/><path class="st12" d="M92.4 207.4h1.4l.7-.6-.1-1.3 1.4-.8.5-1.6 2.1-.3 2.5-.2 2.3.8 2.8.6 1.8 1.8.7 2 1.5 1.3.3 1.4v2.3l.1 2-.3.5-1.1.7-1 1.5-2.2 1.8h-3.3l-1.9-1.1h-1.3l-.9-.3-.8-1.9-2.9-1-1.5-1.9-1.2-3.5z"/><path class="st9" d="M110.4 212.3c-.1-.2-.1-.6 0-.8.4-.9.4-1.7-.2-2.5-.1-.2-.2-.4-.3-.7 0 0-.2.1-.3 0-.6-.4-1.2-.9-1.3-1.7-.1-.4-.1-.8-.4-1.2-.7-1.1-2.6-2.1-3.9-1.9-.2 0-.6 0-.7-.2-.9-.9-2.5-1.3-3.8-.8-.4.2-1 .2-1.5.1-1.3-.3-2.1.2-2.4 1.5-.1.4-.2.8-.7.9-.8.2-1 .7-.7 1.5 0 .2 0 .4-.1.5-.1.1-.3.2-.5.1-1.3-.2-1.5-.1-2 1.1.1.8 0 1.7.2 2.5.4 1.1 1 2.2 1.4 3.3.5 1.2 1.3 1.9 2.6 1.9 1 0 1.5.3 1.9 1.3.5 1.4 1.2 1.7 2.7 1.5.2 0 .4.1.6.2.7.7 1.6 1 2.6.9.5 0 1.1-.1 1.6-.1.9.1 1.6-.2 2.1-.9.1-.2.3-.3.5-.4.8-.4 1.3-1 1.5-2 .1-.4.2-.6.6-.7.3-.1.5-.4.6-.7.4-.9.2-1.8-.1-2.7zm-17.7-4.4c.8 0 1.1.2 1.4 1 .1.2.1.7.6.5l.3.6c.1-.1.2-.3.2-.3.2.1.3.2.4.3.4-.5.4-.7-.4-1.3-.4-.3-.8-.6-1.2-1 .2-.1.4-.2.7-.3l.3.9c.2-.1.3-.2.5-.3.2.5.4.8.9.7.2.8.7.2 1.2.5-.2.1-.3.2-.5.3-.8.3-1.6.7-1.9 1.5-.3.9-.3 1.9.5 2.6l.4.4c-.5-.1-.8-.2-1-.7-.1-.3-.5-.6-.7-.9-.2-.3-.7-.6-.6-1.1 0-.1-.4-.4-.6-.5-.1 0-.2.1-.3.2-.4-1.2-.8-2.1-.2-3.1zm15.6 8.3v-.6h-.1c-.1.2-.2.5-.3.6l-2.1-1.5c.3 0 .7 0 1 .1v-.1l-.9-.3c0-.1 0-.1.1-.2.2 0 .4 0 .6.1.6.3 1.2.7 1.7 1.1.2.1.1.5.1.8h-.1zm1.4-.9c-.2 0-.4-.1-.5-.2h-.8c.3-.3.5-.4.6-.6-.4-.4-.8-.8-1.3-1.2-.1 0-.1.1-.2.1.1.2.1.3.2.5h-.2c-.3 0-.6-.1-.9-.1-1.3.2-2.2-.6-2.7-1.8-.6-1.4-.5-2.8-.2-4.2.1-.4.1-1.4-.4-1.5-.6-.2-1.1.1-1.3.8-.1.6-.3 1.7-.2 1.7.2.6.2 1.2.5 1.7.2.5.1.7-.3.9-.6.3-1.2.3-1.8-.1-.7-.5-1.3-.5-2.1-.3-.4.1-.5.3-.4.6.1.3.4.8.7.9.9.2 1.8.3 2.7.3 1.1-.1 1.5.1 2.1 1 .4.5.8 1 1.3 1.3.8.6 1.9.9 2.1 2.2v.6c-.5.9-1 1.1-2 .9-.3 0-.6.1-.9.2-.2 0-.3.1-.5.2 0 0-.5 0-.8-.1-.2 0-.8-1-.8-1.1-.1-.1-.4-.1-.7-.1-.3.1-.6.3-.9.3-.5 0-.9-.3-1.3-.4-.1-.4-.2-.6-.3-.9v-.4c.1-.2.4-.3.4-.5 0-.1-.1-.4-.2-.5-.1-.1-.3-.1-.5-.1-.3 0-.7.1-1 .1H97c-.4.1-.7-.1-1.1-.2l-.9-.3s-.1 0-.1-.1c-.1-.1-.3-.1-.4-.2-.9-.7-1.1-1.8-1.7-2.8.7.2.9.6 1.2 1l.6.9c.1 0 .2.1.3.2.1.2.4.3.7.2.7 0 1.4-.1 2.2-.1.7 0 1.2.2 1.6.9.3.7.9 1.2 1.5 1.8.1.1.3.1.5.1.5-.1 1.2-.2 1.7 0 .2.1 0 .7.4.9.2.1.4.2.6.2.2 0 .6-.2.7-.5.2-.5-.2-1.1-.7-1.3-.3-.1-.6-.1-.8-.1-1.1.3-2-.2-2.8-.8-.2-.1-.1-.3-.1-.3 0-.2.3-.2.4-.3 1-.2.7-1.7-.2-1.5-.8.2-1.6.4-2.3.5-.1-.2-.2-.4-.3-.7-.1.2-.1.4-.1.6-.4-.2-.9-.5-1.3-.8l-.1.1c-.1-.2-.1-.4-.2-.7-.1.2-.1.3-.1.4-.3-.3-.5-1-.3-1.4.3-.6 1.3-1.1 2-1 .4 0 .6 0 .6-.3 0 0 0-.1.1-.2-.2-.1.3-.4.7-.3.4.1.6-.1.8-.4.2-.4-.1-.5-.4-.5-.1 0-.1-.3-.2-.5-.1.3-.1.5-.2.7-.1-.3-.1-.7-.5-.2 0 0-.1 0-.1.1 0-.1-.1-.3-.1-.5-.1.2-.2.4-.3.7-.5-.4-1-.7-1.5-1-.2-.1-.3-.2-.5-.2-.8-.3-1.2-1-1.4-1.8v-.4c.1-.2 1.6-.6 1.9-.6-.5-.4-.2-.9-.1-1.3.1-.3.6-.5.9-.5.4.1.8.4 1.1.7.2.2.3.3.5.3.3-.1.5-.1 1-.2 0-.1 0-.3-.1-.7.4-.1 1-.2 1.6-.2.7 0 1 .6 1.1 1.3-.9-.1-1.5.5-2.1 1.2v.1c-.2.5-.3 1-.5 1.6-.4-.3-.6-.6-1-.9l.6-.3v.3c.2-.2.5-.4.9-.7v-.1l.3-.9h-.7c0 .1-.1.2-.1.3-.4-.1-.8-.2-1.3-.3.1.2.1.3.1.3-.1-.1-.2-.3-.3-.5-.1.2-.1.3-.2.5-.4-.6-.8-1.1-1.5-1-.1.5-.1.7-.2 1-.1.3-.1.5-.2.7 1.4-.1 2.1.8 2.9 1.7.3.3.5.8.7 1.1.2-.7.4-1.4.7-2.1.3-.8 1.1-1.1 1.8-1.4h.3c.9.5 1.9 1 2 2.3 0 .2.1.4.3.6 0-.4-.1-.8-.1-1.1.5 1 .9 2 1 3.2 0 .7.6 1.4 1 2 .2.3.5.5.8.7.1-.1.2-.2.4-.3-.1.6.2.9.6 1.1v-.4c.2.1.3.3.6.5-.1-.3-.1-.4-.1-.5-.5-.5-.7-1.1-.8-1.8 0-.3 0-.6-.1-.8-.2-.4-.5-.8-.9-1.3.3.1.5.3.8.4l.1-.1-.3-.3c-.3-.2-.6-.3-.9-.4-.6-.2-.9-.5-1-1.3-.1-1.1-.7-1.9-1.7-2.4-.4-.2-.8-.4-1.1-.7.9.1 1.9 0 2.6.8l.1-.2-.5-.5c1.2.4 2 1 2.2 2 .1.4-.3.9-.6 1.5l.8.8.1-.1v-.4c.8-.2 1.9 1 2 2.2-.1 0-.2-.1-.3-.1-.2.4.1 1.1-.9 1 .4.4.3 1.1 1 1.3.2 0 .3.6.3.9-.1-.1-.2-.2-.4-.5.2.7.3 1.1.4 1.6-.1.5-.3.7-.7.8zm-5.7-2.2l-.1.1c-.3-.4-.5-.7-.8-1.1-.1.2-.1.4-.2.5h-.1c.1-.5.2-.9.3-1.2.2.5.5 1.1.9 1.7z"/></g><g id="tvorog_1_"><circle class="st0" cx="158.2" cy="240.2" r="2"/><path class="st0" d="M156.2 249.7c0-2.1-1.3-3.8-3-4.5.1-.2.2-.5.2-.8 0-1.1-.9-2-2-2s-2 .9-2 2c0 .3.1.6.2.8-.5.2-.9.4-1.2.7-1.8-2-4.4-3.2-7.2-3.2-.1-1-.3-1.9-.7-2.7 1.7-.2 3.1-1.7 3.1-3.4 0-1.9-1.6-3.5-3.5-3.5-1.7 0-3.1 1.2-3.4 2.8-.9-.5-1.9-.8-3-.9.7-.6 1.1-1.5 1.1-2.5 0-1.9-1.6-3.5-3.5-3.5-1.5 0-2.7.9-3.2 2.2-1.7-1.6-4.1-2.6-6.6-2.6-3.8 0-7 2.1-8.7 5.2-.3-.8-1-1.3-1.9-1.3-1.1 0-2 .9-2 2 0 .5.2 1 .5 1.3-1.4.7-2.6 1.8-3.5 3.1-.3-2.3-2.3-4-4.6-4-2.6 0-4.7 2.1-4.7 4.7 0 .9.3 1.8.7 2.5-.3 0-.6-.1-.9-.1-3.3 0-6.1 2.3-6.8 5.4-.7-.4-1.5-.6-2.3-.6-2.7 0-4.9 2.2-4.9 4.9s2.2 4.9 4.9 4.9c.8 0 1.5-.2 2.1-.5v.5c0 5.4 4.4 9.8 9.8 9.8 1.7 0 3.3-.4 4.8-1.2.2.9 1 1.6 2 1.6 1.1 0 2-.9 2-2v-.4c.9.2 1.9.4 2.9.4 1.1 0 2.1-.1 3.1-.4 1.6 3.4 5 5.7 8.9 5.7 5.4 0 9.8-4.4 9.8-9.8v-.8c.3-.2.6-.5.9-.8 1.8 2.2 4.5 3.6 7.6 3.6 3 0 5.7-1.3 7.5-3.4.7.9 1.7 1.4 2.9 1.4 2 0 3.7-1.6 3.7-3.7 0-1.1-.5-2.1-1.2-2.7 1.1-.8 2.1-2.4 2.1-4.2zm-54.9-5.3s0-.1 0 0c0-.1 0-.1.1-.1 0 0 0 .1-.1.1z"/><circle class="st13" cx="91.6" cy="245.1" r="7"/><circle class="st13" cx="96.5" cy="235.7" r="4.7"/><circle class="st13" cx="126.6" cy="228.5" r="3.5"/><circle class="st13" cx="135.3" cy="232.6" r="3.5"/><circle class="st13" cx="146.8" cy="240.4" r="2"/><circle class="st13" cx="153.8" cy="236.3" r="2"/><circle class="st13" cx="101.2" cy="261" r="2"/><circle class="st13" cx="146.8" cy="252.8" r="3.7"/><circle class="st13" cx="106.2" cy="230.6" r="2"/><circle class="st13" cx="82.5" cy="247.9" r="4.9"/><circle class="st13" cx="146.8" cy="245.8" r="4.9"/><circle class="st13" cx="108.3" cy="239.4" r="8.4"/><circle class="st13" cx="128" cy="239.4" r="8.4"/><circle class="st13" cx="116.8" cy="234.5" r="9.8"/><circle class="st13" cx="122" cy="247.9" r="9.8"/><circle class="st13" cx="118.2" cy="256.4" r="9.8"/><circle class="st13" cx="106.2" cy="248.6" r="12.4"/><circle class="st13" cx="94.5" cy="252.8" r="9.8"/><circle class="st13" cx="136.4" cy="248.6" r="9.8"/><g><circle class="st0" cx="246.8" cy="240.2" r="2"/><path class="st0" d="M244.8 249.7c0-2.1-1.3-3.8-3-4.5.1-.2.2-.5.2-.8 0-1.1-.9-2-2-2s-2 .9-2 2c0 .3.1.6.2.8-.5.2-.9.4-1.2.7-1.8-2-4.4-3.2-7.2-3.2-.1-1-.3-1.9-.7-2.7 1.7-.2 3.1-1.7 3.1-3.4 0-1.9-1.6-3.5-3.5-3.5-1.7 0-3.1 1.2-3.4 2.8-.9-.5-1.9-.8-3-.9.7-.6 1.1-1.5 1.1-2.5 0-1.9-1.6-3.5-3.5-3.5-1.5 0-2.7.9-3.2 2.2-1.7-1.6-4.1-2.6-6.6-2.6-3.8 0-7 2.1-8.7 5.2-.3-.8-1-1.3-1.9-1.3-1.1 0-2 .9-2 2 0 .5.2 1 .5 1.3-1.4.7-2.6 1.8-3.5 3.1-.3-2.3-2.3-4-4.6-4-2.6 0-4.7 2.1-4.7 4.7 0 .9.3 1.8.7 2.5-.3 0-.6-.1-.9-.1-3.3 0-6.1 2.3-6.8 5.4-.7-.4-1.5-.6-2.3-.6-2.7 0-4.9 2.2-4.9 4.9s2.2 4.9 4.9 4.9c.8 0 1.5-.2 2.1-.5v.5c0 5.4 4.4 9.8 9.8 9.8 1.7 0 3.3-.4 4.8-1.2.2.9 1 1.6 2 1.6 1.1 0 2-.9 2-2v-.4c.9.2 1.9.4 2.9.4 1.1 0 2.1-.1 3.1-.4 1.6 3.4 5 5.7 8.9 5.7 5.4 0 9.8-4.4 9.8-9.8v-.8c.3-.2.6-.5.9-.8 1.8 2.2 4.5 3.6 7.6 3.6 3 0 5.7-1.3 7.5-3.4.7.9 1.7 1.4 2.9 1.4 2 0 3.7-1.6 3.7-3.7 0-1.1-.5-2.1-1.2-2.7 1.1-.8 2.1-2.4 2.1-4.2zm-54.9-5.3s0-.1 0 0c0-.1 0-.1.1-.1 0 0 0 .1-.1.1z"/><circle class="st13" cx="180.2" cy="245.1" r="7"/><circle class="st13" cx="185.1" cy="235.7" r="4.7"/><circle class="st13" cx="215.2" cy="228.5" r="3.5"/><circle class="st13" cx="223.9" cy="232.6" r="3.5"/><circle class="st13" cx="235.4" cy="240.4" r="2"/><circle class="st13" cx="242.4" cy="236.3" r="2"/><circle class="st13" cx="189.8" cy="261" r="2"/><circle class="st13" cx="235.4" cy="252.8" r="3.7"/><circle class="st13" cx="194.8" cy="230.6" r="2"/><circle class="st13" cx="171.1" cy="247.9" r="4.9"/><circle class="st13" cx="235.4" cy="245.8" r="4.9"/><circle class="st13" cx="196.9" cy="239.4" r="8.4"/><circle class="st13" cx="216.6" cy="239.4" r="8.4"/><circle class="st13" cx="205.4" cy="234.5" r="9.8"/><circle class="st13" cx="210.6" cy="247.9" r="9.8"/><circle class="st13" cx="206.8" cy="256.4" r="9.8"/><circle class="st13" cx="194.8" cy="248.6" r="12.4"/><circle class="st13" cx="183.1" cy="252.8" r="9.8"/><circle class="st13" cx="225" cy="248.6" r="9.8"/></g><g><circle class="st0" cx="158.8" cy="128.7" r="2"/><path class="st0" d="M156.7 138.3c0-2.1-1.3-3.8-3-4.5.1-.2.2-.5.2-.8 0-1.1-.9-2-2-2s-2 .9-2 2c0 .3.1.6.2.8-.5.2-.9.4-1.2.7-1.8-2-4.4-3.2-7.2-3.2-.1-1-.3-1.9-.7-2.7 1.7-.2 3.1-1.7 3.1-3.4 0-1.9-1.6-3.5-3.5-3.5-1.7 0-3.1 1.2-3.4 2.8-.9-.5-1.9-.8-3-.9.7-.6 1.1-1.5 1.1-2.5 0-1.9-1.6-3.5-3.5-3.5-1.5 0-2.7.9-3.2 2.2-1.7-1.6-4.1-2.6-6.6-2.6-3.8 0-7 2.1-8.7 5.2-.3-.8-1-1.3-1.9-1.3-1.1 0-2 .9-2 2 0 .5.2 1 .5 1.3-1.4.7-2.6 1.8-3.5 3.1-.3-2.3-2.3-4-4.6-4-2.6 0-4.7 2.1-4.7 4.7 0 .9.3 1.8.7 2.5-.3 0-.6-.1-.9-.1-3.3 0-6.1 2.3-6.8 5.4-.7-.4-1.5-.6-2.3-.6-2.7 0-4.9 2.2-4.9 4.9s2.2 4.9 4.9 4.9c.8 0 1.5-.2 2.1-.5v.5c0 5.4 4.4 9.8 9.8 9.8 1.7 0 3.3-.4 4.8-1.2.2.9 1 1.6 2 1.6 1.1 0 2-.9 2-2v-.4c.9.2 1.9.4 2.9.4 1.1 0 2.1-.1 3.1-.4 1.6 3.4 5 5.7 8.9 5.7 5.4 0 9.8-4.4 9.8-9.8v-.8c.3-.2.6-.5.9-.8 1.8 2.2 4.5 3.6 7.6 3.6 3 0 5.7-1.3 7.5-3.4.7.9 1.7 1.4 2.9 1.4 2 0 3.7-1.6 3.7-3.7 0-1.1-.5-2.1-1.2-2.7 1.1-.8 2.1-2.4 2.1-4.2zm-54.8-5.3c0-.1-.1-.1 0 0 0-.1 0-.1.1-.1 0 0-.1 0-.1.1z"/><circle class="st13" cx="92.2" cy="133.7" r="7"/><circle class="st13" cx="97.1" cy="124.3" r="4.7"/><circle class="st13" cx="127.2" cy="117.1" r="3.5"/><circle class="st13" cx="135.9" cy="121.2" r="3.5"/><circle class="st13" cx="147.4" cy="129" r="2"/><circle class="st13" cx="154.3" cy="124.8" r="2"/><circle class="st13" cx="101.8" cy="149.6" r="2"/><circle class="st13" cx="147.4" cy="141.3" r="3.7"/><circle class="st13" cx="106.7" cy="119.1" r="2"/><circle class="st13" cx="83.1" cy="136.4" r="4.9"/><circle class="st13" cx="147.4" cy="134.3" r="4.9"/><circle class="st13" cx="108.9" cy="128" r="8.4"/><circle class="st13" cx="128.6" cy="128" r="8.4"/><circle class="st13" cx="117.3" cy="123.1" r="9.8"/><circle class="st13" cx="122.6" cy="136.4" r="9.8"/><circle class="st13" cx="118.7" cy="145" r="9.8"/><circle class="st13" cx="106.7" cy="137.2" r="12.4"/><circle class="st13" cx="95" cy="141.3" r="9.8"/><circle class="st13" cx="137" cy="137.2" r="9.8"/></g><g><circle class="st0" cx="248.3" cy="128.7" r="2"/><path class="st0" d="M246.3 138.3c0-2.1-1.3-3.8-3-4.5.1-.2.2-.5.2-.8 0-1.1-.9-2-2-2s-2 .9-2 2c0 .3.1.6.2.8-.5.2-.9.4-1.2.7-1.8-2-4.4-3.2-7.2-3.2-.1-1-.3-1.9-.7-2.7 1.7-.2 3.1-1.7 3.1-3.4 0-1.9-1.6-3.5-3.5-3.5-1.7 0-3.1 1.2-3.4 2.8-.9-.5-1.9-.8-3-.9.7-.6 1.1-1.5 1.1-2.5 0-1.9-1.6-3.5-3.5-3.5-1.5 0-2.7.9-3.2 2.2-1.7-1.6-4.1-2.6-6.6-2.6-3.8 0-7 2.1-8.7 5.2-.3-.8-1-1.3-1.9-1.3-1.1 0-2 .9-2 2 0 .5.2 1 .5 1.3-1.4.7-2.6 1.8-3.5 3.1-.3-2.3-2.3-4-4.6-4-2.6 0-4.7 2.1-4.7 4.7 0 .9.3 1.8.7 2.5-.3 0-.6-.1-.9-.1-3.3 0-6.1 2.3-6.8 5.4-.7-.4-1.5-.6-2.3-.6-2.7 0-4.9 2.2-4.9 4.9s2.2 4.9 4.9 4.9c.8 0 1.5-.2 2.1-.5v.5c0 5.4 4.4 9.8 9.8 9.8 1.7 0 3.3-.4 4.8-1.2.2.9 1 1.6 2 1.6 1.1 0 2-.9 2-2v-.4c.9.2 1.9.4 2.9.4 1.1 0 2.1-.1 3.1-.4 1.6 3.4 5 5.7 8.9 5.7 5.4 0 9.8-4.4 9.8-9.8v-.8c.3-.2.6-.5.9-.8 1.8 2.2 4.5 3.6 7.6 3.6 3 0 5.7-1.3 7.5-3.4.7.9 1.7 1.4 2.9 1.4 2 0 3.7-1.6 3.7-3.7 0-1.1-.5-2.1-1.2-2.7 1.1-.8 2.1-2.4 2.1-4.2zm-54.9-5.3c0-.1 0-.1 0 0 0-.1 0-.1.1-.1 0 0-.1 0-.1.1z"/><circle class="st13" cx="181.7" cy="133.7" r="7"/><circle class="st13" cx="186.6" cy="124.3" r="4.7"/><circle class="st13" cx="216.7" cy="117.1" r="3.5"/><circle class="st13" cx="225.4" cy="121.2" r="3.5"/><circle class="st13" cx="236.9" cy="129" r="2"/><circle class="st13" cx="243.9" cy="124.8" r="2"/><circle class="st13" cx="191.3" cy="149.6" r="2"/><circle class="st13" cx="236.9" cy="141.3" r="3.7"/><circle class="st13" cx="196.3" cy="119.1" r="2"/><circle class="st13" cx="172.6" cy="136.4" r="4.9"/><circle class="st13" cx="236.9" cy="134.3" r="4.9"/><circle class="st13" cx="198.4" cy="128" r="8.4"/><circle class="st13" cx="218.1" cy="128" r="8.4"/><circle class="st13" cx="206.8" cy="123.1" r="9.8"/><circle class="st13" cx="212.1" cy="136.4" r="9.8"/><circle class="st13" cx="208.3" cy="145" r="9.8"/><circle class="st13" cx="196.3" cy="137.2" r="12.4"/><circle class="st13" cx="184.6" cy="141.3" r="9.8"/><circle class="st13" cx="226.5" cy="137.2" r="9.8"/></g></g><g id="kuraga"><ellipse class="st14" cx="113" cy="89.4" rx="11.9" ry="11.8"/><path class="st15" d="M116.6 78.7s-2-8-11.5-8.5c0 0-1 7.9 11.4 8.7"/><path class="st15" d="M116.5 78.7s-1.8-8 6.4-12.8c0 0 4.5 6.6-6.2 12.9"/><path class="st16" d="M134.6 98.2c3.3-10.2-4.2-11.4-4.2-11.4s-4.9-5.8-11.9 2.3c-7.1 8.1-3.2 14.5 1.1 16.9 4.2 2.4 11.7 2.4 15-7.8z"/><path class="st17" d="M134.6 98.2c3.3-10.2-4.2-11.4-4.2-11.4L119.5 106c4.3 2.4 11.8 2.4 15.1-7.8z"/><path class="st18" d="M117.3 101.9c-.2 0-.5-.1-.6-.4-2-3.5-.1-7.6 0-7.7.2-.3.6-.5.9-.3.3.2.5.6.3.9 0 0-1.6 3.6 0 6.5.2.3.1.8-.3 1h-.3zM118.9 92.6c0 .3-.3.6-.6.6s-.6-.3-.6-.6.3-.6.6-.6c.4 0 .6.2.6.6z"/><path class="st19" d="M127.9 91.2s3.1 2.8.4 7.1c-2.7 4.2-6 2.9-6 2.9l5.6-10z"/><path class="st20" d="M127.9 91.2s-4-1.2-6.2 3.3.6 6.6.6 6.6l5.6-9.9z"/><path class="st21" d="M127.2 92.4s-2.7-.7-4.4 2.3c-1.7 3-.3 4.8 0 5.5.8-.1 3 .2 4.7-2.8 1.7-3-.3-5-.3-5z"/><g><ellipse class="st14" cx="217.4" cy="205.9" rx="11.9" ry="11.8"/><path class="st15" d="M221 195.1s-2-8-11.5-8.5c0 0-1 7.9 11.4 8.7"/><path class="st15" d="M220.9 195.2s-1.8-8 6.4-12.8c0 0 4.5 6.6-6.2 12.9"/><path class="st16" d="M239 214.7c3.3-10.2-4.2-11.4-4.2-11.4s-4.9-5.8-11.9 2.3c-7.1 8.1-3.2 14.5 1.1 16.9 4.2 2.4 11.7 2.4 15-7.8z"/><path class="st17" d="M239 214.7c3.3-10.2-4.2-11.4-4.2-11.4l-10.9 19.2c4.3 2.4 11.8 2.4 15.1-7.8z"/><path class="st18" d="M221.7 218.4c-.2 0-.5-.1-.6-.4-2-3.5-.1-7.6 0-7.7.2-.3.6-.5.9-.3.3.2.5.6.3.9 0 0-1.6 3.6 0 6.5.2.3.1.8-.3 1h-.3zM223.3 209c0 .3-.3.6-.6.6s-.6-.3-.6-.6.3-.6.6-.6c.4 0 .6.3.6.6z"/><path class="st19" d="M232.3 207.7s3.1 2.8.4 7.1c-2.7 4.2-6 2.9-6 2.9l5.6-10z"/><path class="st20" d="M232.3 207.7s-4-1.2-6.2 3.3.6 6.6.6 6.6l5.6-9.9z"/><path class="st21" d="M231.6 208.9s-2.7-.7-4.4 2.3c-1.7 3-.3 4.8 0 5.5.8-.1 3 .2 4.7-2.8 1.7-3.1-.3-5-.3-5z"/></g></g><g id="isum"><path class="st22" d="M208.9 73.2c-2 1.4-4.9 1-6.1-1.3-.8-1.5-.1-3.2 1-4.2 2.1-1.8 4.7.7 3.6 2.9-.8 1.5-3.2.7-2.8-1 .4-.9 1-.9 1.8.1 0 .7-1.3.4-.8-.2 0 0-.4-.2-.4-.1-.7 1 .6 1.4 1.3 1.1.8-.3.2-1.3-.1-1.6-.2-.2-.7-.3-1-.3-1.7 0-1.5 2.3-.3 2.9 1.5.7 2.9-.3 3.1-1.8.2-1.3-1.2-2.5-2.5-2.6-1.9-.2-3.4 1-3.7 2.9-.7 4 4.7 5.3 7.3 3.5.1-.2-.3-.4-.4-.3z"/><path class="st23" d="M213.1 77.8s-2.6-6.4 4.2-8.5c0 0 1.1-.4 1.3 1.2 0 0 5.8-2.1 3.9 1.7 0 0-.2 1.9-2.6 2.3-2.4.4-1.5 1.5-.2 1.2 1.3-.4 3.7-2 4.5-1 .8 1 1.6.4 1.6.4s.6.2.7 1.1c.1 1 6.8 1.6 3.1 3.6 0 0-3 0-2.8 1.4.2 1.4-2.8 2.7-5.8.6s-2.2.8.5 2c0 0 1.6 2.4 1 3.8 0 0-4.1 1.6-4.4-.5-.4-2.1-1.6-.4-1.3.7.2 1.3-6.8-2-3.7-10"/><path class="st22" d="M202 77.1l4.8-.8 3.1-4.2-.1-1.4s3.4.3.3 3.1c0 0-3.1 2.2-1.7 3.3 1.4 1.1 5.4.6 5.4.6l.1.1.1.2s-3.8.7-5.9-.6c0 0 .3 1.7 1.6 3s1.2 1.9 1.2 1.9l-.6.2s-.5-1.7-1.6-2.2c-1.1-.5-1.3-3.1-1.3-3.1l-2.4 3-.7-.1 1.9-2.6h-3.8l-.4-.4z"/><circle class="st24" cx="200.6" cy="76.6" r="2.2"/><circle class="st24" cx="202.7" cy="80.5" r="2.2"/><circle class="st24" cx="206.1" cy="82.6" r="2.2"/><circle class="st24" cx="210.1" cy="83.9" r="2.2"/><circle class="st24" cx="198.2" cy="80.3" r="2.2"/><circle class="st24" cx="201.4" cy="83.6" r="2.2"/><circle class="st24" cx="204.5" cy="86.1" r="2.2"/><circle class="st24" cx="197.3" cy="84.9" r="2.2"/><circle class="st24" cx="190.9" cy="107.8" r="2.2"/><circle class="st24" cx="191.3" cy="103.7" r="2.2"/><circle class="st24" cx="194.5" cy="106.2" r="2.2"/><circle class="st24" cx="198.5" cy="104" r="2.2"/><circle class="st24" cx="192.7" cy="99.4" r="2.2"/><circle class="st24" cx="195.5" cy="101.2" r="2.2"/><circle class="st24" cx="199.1" cy="99.7" r="2.2"/><circle class="st24" cx="195.1" cy="91.3" r="2.2"/><circle class="st24" cx="197.6" cy="97.1" r="2.2"/><circle class="st24" cx="203.5" cy="100.8" r="2.2"/><circle class="st24" cx="201.8" cy="96.2" r="2.2"/><circle class="st24" cx="198.9" cy="92.7" r="2.2"/><circle class="st24" cx="194" cy="87.1" r="2.2"/><circle class="st24" cx="198.2" cy="89.6" r="2.2"/><circle class="st24" cx="202.5" cy="92.5" r="2.2"/><circle class="st24" cx="201.8" cy="89.4" r="2.2"/><circle class="st24" cx="198.4" cy="92.4" r="2.2"/><circle class="st24" cx="198.8" cy="96.9" r="2.2"/><circle class="st24" cx="194.7" cy="95.2" r="2.2"/><circle class="st24" cx="194" cy="102.9" r="2.2"/><circle class="st24" cx="199.3" cy="92.9" r="2.2"/><circle class="st24" cx="200.1" cy="86.6" r="2.2"/><circle class="st24" cx="203.2" cy="87.3" r="2.2"/><circle class="st24" cx="209" cy="88.9" r="2.2"/><circle class="st24" cx="205.5" cy="89.3" r="2.2"/><circle class="st24" cx="206.3" cy="93.2" r="2.2"/><circle class="st24" cx="206.8" cy="93.3" r="2.2"/><circle class="st24" cx="210.2" cy="92" r="2.2"/><circle class="st24" cx="205.5" cy="96.9" r="2.2"/><circle class="st24" cx="207.5" cy="86.1" r="2.2"/><circle class="st24" cx="212.9" cy="87.7" r="2.2"/><circle class="st25" cx="200" cy="75.6" r=".9"/><circle class="st25" cx="193.4" cy="86.1" r=".9"/><circle class="st25" cx="190.5" cy="107" r=".9"/><circle class="st25" cx="201.2" cy="87.2" r=".9"/><circle class="st25" cx="197.6" cy="96.2" r=".9"/></g></svg>