<?xml version="1.0" encoding="utf-8"?>
<!-- Generator: Adobe Illustrator 19.0.0, SVG Export Plug-In . SVG Version: 6.00 Build 0)  -->
<svg version="1.1" id="Layer_1" xmlns="http://www.w3.org/2000/svg" xmlns:xlink="http://www.w3.org/1999/xlink" x="0px" y="0px"
	 viewBox="0 0 130 89.9" style="enable-background:new 0 0 130 89.9;" xml:space="preserve">
<style type="text/css">
	.st0{fill:#FFCC66;}
	.st1{fill:#EAB353;}
	.st2{fill:#FCD597;}
	.st3{fill:#F7F2EB;}
	.st4{fill:#F37521;}
	.st5{fill:#A16125;}
	.st6{fill-rule:evenodd;clip-rule:evenodd;fill:#F37521;}
	.st7{fill-rule:evenodd;clip-rule:evenodd;fill:#62BA47;}
	.st8{fill:#62BA47;}
	.st9{fill:#FFFFFF;}
	.st10{fill:#62BA46;}
	.st11{fill-rule:evenodd;clip-rule:evenodd;fill:#F05B24;}
	.st12{fill-rule:evenodd;clip-rule:evenodd;fill:#F05E24;}
	.st13{fill-rule:evenodd;clip-rule:evenodd;fill:#F8A78A;}
	.st14{fill-rule:evenodd;clip-rule:evenodd;fill:#FFFFFF;}
	.st15{fill-rule:evenodd;clip-rule:evenodd;}
	.st16{fill:#FAE6C0;}
	.st17{fill-rule:evenodd;clip-rule:evenodd;fill:#A16125;}
	.st18{fill:#CA7D1B;}
</style>
<g>
	<polygon class="st0" points="65.9,80.9 4.4,60.1 4.4,34 65.9,54.8 	"/>
	<polygon class="st1" points="65.9,80.9 127.4,60.1 127.4,34 65.9,54.8 	"/>
	<polygon class="st2" points="65.7,13.3 4.2,34 65.9,54.8 127.4,34 	"/>
	<polygon class="st3" points="67.6,23 34.9,34 67.7,45 100.4,34 	"/>
	<path class="st4" d="M67.7,45.8L32.7,34l34.9-11.8L102.7,34L67.7,45.8z M37.2,34l30.6,10.3L98.2,34L67.6,23.7L37.2,34z"/>
	<g>
		
			<ellipse transform="matrix(0.9986 -5.206100e-02 5.206100e-02 0.9986 -2.9372 5.085)" class="st4" cx="96.1" cy="58.9" rx="5.8" ry="6.4"/>
		<path class="st5" d="M95.8,52.6l0.7,12.7c3.2-0.2,5.7-3.1,5.5-6.7C101.8,55.1,99,52.4,95.8,52.6z"/>
		<path class="st6" d="M93,51.3c0,0.4-0.3,0.8-0.7,0.9c-0.4,0-0.8-0.3-0.8-0.8c0-0.5,0.3-0.8,0.7-0.9C92.6,50.5,92.9,50.8,93,51.3
			L93,51.3z"/>
		<path class="st7" d="M93.1,54c0,0.6-0.4,1.1-0.9,1.1c-0.5,0-1-0.4-1-1c0-0.6,0.4-1.1,0.9-1.1C92.7,53,93.1,53.4,93.1,54L93.1,54z"
			/>
		<path class="st7" d="M90.5,52.5c0,0.3-0.2,0.6-0.5,0.6c-0.3,0-0.6-0.2-0.6-0.6c0-0.3,0.2-0.6,0.5-0.7
			C90.2,51.9,90.5,52.2,90.5,52.5L90.5,52.5z"/>
		<g>
			
				<ellipse transform="matrix(0.9986 -5.206100e-02 5.206100e-02 0.9986 -2.615 5.32)" class="st8" cx="100.8" cy="52.9" rx="3.2" ry="3.5"/>
			<g>
				<path class="st9" d="M100,52.4c-0.3,0-0.3,0.4-0.3,0.6l0,0l0,0c0,0,0,0.1,0,0.1c0,0.1,0,0.2,0,0.3c0,0,0,0.1,0,0.1
					c-0.1,0-0.2-0.1-0.2-0.2c-0.1-0.2-0.1-0.4-0.2-0.5c0-0.2-0.1-0.4-0.1-0.6c0-0.1,0-0.2,0-0.3c0,0,0-0.1,0-0.1c0,0,0-0.1,0-0.1
					c0-0.2-0.2,0-0.2,0.1c-0.2,0.4-0.1,0.9-0.1,1.3c0,0.1,0,0.2,0,0.4c0,0.1,0,0.2-0.1,0.3c0,0-0.1,0-0.1,0c-0.1,0-0.1-0.1-0.1-0.2
					c0-0.1-0.1,0-0.1,0c0,0.1-0.1,0.1-0.1,0.2c0,0.2,0.2,0.3,0.3,0.2c0.2-0.1,0.3-0.4,0.4-0.7c0-0.1,0-0.2,0-0.4
					c0,0.2,0.1,0.3,0.2,0.5c0.1,0.1,0.2,0.2,0.3,0.2c0.1,0,0.2-0.1,0.2-0.3c0.1,0.1,0.1,0.2,0.2,0.2c0.1,0,0.2-0.2,0.3-0.3
					c0.1-0.1,0.1-0.3,0.1-0.4C100.3,52.8,100.3,52.4,100,52.4z M100.1,53.4C100.1,53.4,100.1,53.5,100.1,53.4c-0.1,0.1-0.1,0-0.1,0
					c0-0.1-0.1-0.2-0.1-0.3c0-0.1,0-0.2,0-0.3c0,0,0-0.1,0-0.1c0.1,0.1,0.2,0.3,0.2,0.4C100.1,53.2,100.1,53.3,100.1,53.4z"/>
				<path class="st9" d="M103.2,52.6c-0.3-0.1-0.4,0.3-0.5,0.6c0,0.2-0.1,0.6,0.2,0.7c0.1,0,0.3-0.1,0.3-0.1
					c0.1-0.1,0.1-0.3,0.2-0.4C103.4,53.2,103.5,52.7,103.2,52.6z M103.1,53.7C103.1,53.7,103.1,53.7,103.1,53.7
					c-0.1,0-0.1-0.1-0.1-0.1c0-0.1,0-0.2,0-0.3c0-0.1,0-0.2,0.1-0.3c0,0,0,0,0-0.1c0.1,0.1,0.1,0.3,0.1,0.5
					C103.1,53.5,103.1,53.6,103.1,53.7z"/>
				<path class="st9" d="M102.4,52.7c0-0.1,0.1-0.2,0.1-0.2c0.1-0.2,0.2-0.4,0.2-0.6c0-0.2-0.3-0.2-0.4-0.1
					c-0.2,0.1-0.3,0.3-0.3,0.5c-0.1,0.3-0.1,0.5-0.1,0.8c0,0,0,0,0,0c-0.1,0.1-0.3,0.4-0.4,0.3c0,0-0.1-0.1-0.1-0.1
					c0.1-0.1,0.2-0.3,0.3-0.4c0.1-0.1,0.1-0.4,0-0.5c-0.1-0.1-0.3,0-0.4,0.2c-0.1,0.1-0.1,0.3-0.1,0.5c0,0.1,0,0.2,0,0.4
					c-0.1,0.1-0.2,0.1-0.3,0.1c-0.1,0-0.2-0.1-0.2-0.2c0-0.1,0-0.3,0-0.4c0,0,0-0.1,0-0.1c0,0,0,0,0,0c0.1,0,0.1,0.1,0.1,0.2
					c0,0.1,0.3-0.1,0.2-0.2c0-0.1-0.1-0.2-0.2-0.3c-0.1,0-0.2,0.1-0.3,0.1c-0.2,0.2-0.2,0.5-0.1,0.7c0,0.2,0.1,0.4,0.2,0.4
					c0.2,0.1,0.4,0,0.6-0.1c0.1,0.1,0.1,0.2,0.3,0.2c0.2,0,0.3-0.1,0.4-0.3c0,0.1,0.1,0.3,0.1,0.4c0.2,0.1,0.3,0,0.4-0.2
					c0.1-0.2,0.2-0.4,0.1-0.7C102.6,52.8,102.5,52.7,102.4,52.7z M101.4,52.7c0,0,0-0.1,0-0.1c0,0,0,0,0,0c0.1,0,0.1,0.1,0.1,0.2
					c0,0.1-0.1,0.2-0.1,0.3c0,0,0,0,0-0.1C101.4,52.9,101.4,52.8,101.4,52.7z M102.3,52c0,0,0-0.1,0.1-0.1c0,0,0,0,0,0
					c0.1,0.1,0,0.3,0,0.5c-0.1,0.1-0.1,0.3-0.2,0.4c0-0.1,0-0.2,0-0.4C102.3,52.3,102.3,52.2,102.3,52z M102.4,53.5
					C102.4,53.5,102.3,53.5,102.4,53.5C102.3,53.5,102.3,53.5,102.4,53.5c-0.1,0-0.1-0.2-0.1-0.2c0-0.1,0-0.1,0-0.2
					c0,0,0.1-0.1,0.1-0.1c0.1,0,0.1,0,0.1,0.1C102.4,53.2,102.4,53.4,102.4,53.5z"/>
			</g>
		</g>
		<g>
			<g>
				<path class="st9" d="M96.6,63.2c0,0-0.1,0-0.1,0.1c0,0,0-0.1,0-0.1c0-0.1-0.1,0-0.1,0.1c0,0.1,0,0.2,0,0.3l0,0c0,0,0,0,0,0
					c0,0,0,0.1,0,0.1c0,0-0.1,0.1-0.1,0.1c0-0.2,0-0.4,0-0.5c0,0,0,0,0,0c0,0,0,0,0,0c0,0,0,0,0,0c0,0,0,0,0,0c0,0-0.1,0-0.1,0.1
					c0,0,0,0,0,0c0,0.1,0,0.3-0.1,0.4c0,0.1,0,0.2-0.1,0.1c-0.1-0.1,0-0.2,0-0.3c0-0.1,0-0.2,0-0.3c0-0.1-0.2,0-0.2,0.1
					c0,0.1-0.1,0.3-0.1,0.5c-0.1,0-0.2,0.1-0.2,0.1c0-0.1,0-0.1,0-0.2c0-0.1-0.1-0.1-0.2-0.1c0,0,0,0,0,0c0,0,0-0.1,0.1-0.1
					c0,0,0.1-0.1,0.1,0c0.1,0,0.2-0.1,0.2-0.1c-0.1-0.1-0.2-0.1-0.3,0c0-0.1,0-0.2,0-0.3c0-0.1-0.2,0-0.2,0.1c0,0.3-0.1,0.5-0.2,0.8
					c0,0.1,0.2,0,0.2,0c0-0.1,0-0.1,0.1-0.2c0.1,0,0,0.3,0.1,0.3c0.1,0.1,0.3,0,0.4-0.1c0,0.1,0.1,0.1,0.2,0.1c0.1,0,0.2,0,0.2-0.1
					c0,0,0,0,0,0c-0.1,0.1-0.1,0.1-0.2,0.2c-0.1,0.1-0.3,0.4,0,0.5c0.2,0,0.3-0.2,0.4-0.3c0-0.1,0-0.3,0-0.4c0,0,0.1-0.1,0.1-0.1
					c0,0,0,0,0,0c0,0,0,0,0,0c0,0,0,0,0,0c0,0.2,0,0.4,0,0.6c0,0.1,0.2,0,0.2-0.1c0-0.1,0-0.3,0-0.4c0.1,0,0.1,0,0.2-0.1
					c0.1-0.1,0.1-0.3,0.1-0.4C96.7,63.5,96.7,63.3,96.6,63.2z M95.9,64.5c-0.2,0-0.1-0.2,0.1-0.4C96,64.4,96,64.6,95.9,64.5z
					 M96.6,63.8C96.6,63.9,96.6,63.9,96.6,63.8C96.6,63.9,96.6,63.9,96.6,63.8c-0.1,0.1-0.1,0-0.1,0c0-0.1,0-0.2,0-0.4
					c0-0.1,0-0.1,0.1,0c0,0.1,0,0.1,0.1,0.2C96.6,63.7,96.6,63.8,96.6,63.8z"/>
				<path class="st9" d="M98,62.7C98,62.7,98,62.7,98,62.7c-0.1,0.1-0.1,0.3-0.1,0.5c0,0,0,0.1,0.1,0.2c0,0.1-0.1,0.2-0.2,0.2
					c-0.2,0,0-0.3,0-0.4c0-0.3-0.2-0.3-0.3-0.1c0,0.1,0,0.2,0.1,0.1c0.1-0.1,0.1,0,0.2,0c0,0.1-0.1,0.2-0.1,0.3c0,0,0,0.1,0,0.1
					c-0.1,0.1-0.1,0.1-0.2,0c0-0.1-0.1-0.2-0.1-0.2c0,0,0-0.1,0-0.1c0,0,0,0,0-0.1c0,0,0,0,0,0c-0.1-0.2-0.3,0-0.3,0.1
					c-0.1,0.2-0.1,0.4,0,0.5c0.1,0.2,0.2,0.2,0.3,0c0,0,0,0,0,0c0,0,0,0,0.1,0.1c0.1,0.1,0.2-0.1,0.3-0.2c0,0,0,0,0,0
					c0.1,0.1,0.3-0.1,0.4-0.3c0.1,0.1,0.1,0.1,0.2,0.1c0.2-0.1,0.1-0.4,0.1-0.5C98.3,62.9,98.1,62.7,98,62.7z M97.1,63.8
					C97.1,63.8,97.1,63.8,97.1,63.8C97,63.7,97,63.6,97,63.5c0,0,0-0.1,0-0.1c0,0,0,0,0-0.1c0-0.1,0.1,0,0.1,0c0,0.1,0,0.2,0,0.4
					C97.2,63.7,97.2,63.8,97.1,63.8z M98.2,63.2C98.2,63.3,98.2,63.3,98.2,63.2c0,0.1,0,0.1,0,0.1s-0.2-0.1-0.2-0.1
					c0-0.1-0.1-0.1-0.1-0.2c0,0,0-0.1,0-0.1c0,0,0,0,0,0c0.1,0,0.1,0.1,0.2,0.1C98.2,63.1,98.2,63.2,98.2,63.2z"/>
				<path class="st9" d="M98.3,62.4c0.1-0.1,0.1-0.2,0.1-0.3c0,0,0-0.1-0.1,0c0,0,0,0.1,0,0.1c0,0,0,0,0,0c0,0,0,0,0,0c0,0,0,0,0,0
					c0,0,0,0,0,0c0,0,0,0,0,0c0,0,0,0,0,0s-0.1,0-0.1,0.1C98.2,62.3,98.2,62.4,98.3,62.4C98.2,62.4,98.3,62.4,98.3,62.4z"/>
				<path class="st9" d="M98.9,62.8c0,0.1-0.2-0.1-0.2-0.1c0,0,0-0.1-0.1-0.1c0-0.1-0.1-0.1-0.1-0.2c0,0,0,0,0,0
					c0-0.1-0.1,0.1-0.1,0.2c0.1,0.1,0.1,0.2,0.2,0.3c0,0.1,0.1,0.1,0.1,0.2c0,0.1,0,0.1,0,0.1c-0.2,0-0.3-0.4-0.3-0.5
					c0-0.1-0.1,0.1-0.1,0.1c0,0.1,0.2,0.8,0.5,0.5c0.1-0.1,0.1-0.1,0.1-0.2C98.9,63.1,99,62.9,98.9,62.8
					C99.1,62.6,99,62.6,98.9,62.8z"/>
				<path class="st9" d="M94.3,63.3c-0.1,0-0.2,0-0.3-0.1c-0.1-0.1,0-0.2,0-0.2c0-0.1,0.1-0.2,0.1-0.2c0,0,0,0,0,0c0,0,0.1,0,0,0
					c0,0,0,0.1,0,0.1c0,0.1,0.2,0,0.2,0c0-0.1,0-0.3-0.2-0.2c-0.2,0-0.3,0.2-0.4,0.3c-0.1,0.1-0.1,0.2,0,0.4
					C94,63.5,94.2,63.4,94.3,63.3C94.5,63.4,94.4,63.3,94.3,63.3z"/>
			</g>
		</g>
		<g>
			<g>
				<g>
					<path class="st9" d="M96.1,57C96.1,57,96.1,57,96.1,57C96.1,57,96.1,57,96.1,57c-0.4,0-0.4,0.5-0.4,0.8c0,0.2,0.1,0.7,0.3,0.7
						c0.1,0,0.2-0.2,0.3-0.3c0.1-0.1,0.1-0.3,0.1-0.5C96.4,57.5,96.4,57,96.1,57z M96.2,58.1C96.2,58.1,96.2,58.1,96.2,58.1
						c0,0.1,0,0.1,0,0.1c0,0,0,0,0,0c-0.2,0-0.2-0.4-0.2-0.5c0-0.1,0-0.2,0-0.3c0,0,0-0.1,0-0.1c0.2,0,0.2,0.4,0.2,0.5
						C96.2,57.8,96.2,57.9,96.2,58.1z"/>
					<path class="st9" d="M95.4,57.1c-0.1,0-0.2,0-0.3,0.1c0-0.1,0-0.2-0.1-0.2c0-0.1-0.1,0-0.2,0c0,0-0.1,0.1-0.1,0.1c0,0,0,0,0,0
						c0,0.1,0,0.1,0,0.2c0,0,0,0,0,0c-0.1,0-0.2,0-0.2,0c0,0,0,0,0,0c0,0-0.1,0-0.1,0c0,0,0,0,0,0c0,0,0,0,0,0
						C94,57.3,94,57.8,94,58c0,0.2,0.1,0.7,0.4,0.6c0.1,0,0.2-0.2,0.3-0.3c0.1-0.1,0.1-0.3,0-0.5c0-0.1,0-0.2-0.1-0.3
						c0,0,0.1-0.1,0.1-0.1c0.1,0.3,0.1,0.7,0.2,1c0,0.3,0.1,0.6,0.1,0.9c0,0.1,0.1,0,0.1,0c0,0,0.1-0.1,0.1-0.2c0-0.2,0-0.4,0-0.7
						c0.1,0,0.2-0.1,0.2-0.2c0.1-0.2,0.2-0.5,0.1-0.7C95.6,57.5,95.6,57.2,95.4,57.1z M94.6,58.3C94.6,58.3,94.6,58.3,94.6,58.3
						c0,0.1,0,0.1,0,0.1c0,0,0,0,0,0c-0.2,0-0.3-0.3-0.3-0.4c0-0.1,0-0.2,0-0.3c0,0,0-0.1,0-0.1c0,0,0,0,0,0c0,0,0,0,0,0
						c0,0,0,0,0,0c0.1,0.1,0.2,0.3,0.2,0.4C94.6,58,94.6,58.2,94.6,58.3z M95.1,57.3C95.2,57.3,95.2,57.3,95.1,57.3L95.1,57.3z
						 M95.4,58.2C95.4,58.2,95.4,58.2,95.4,58.2L95.4,58.2z M95.4,58.2C95.4,58.2,95.4,58.2,95.4,58.2
						C95.4,58.2,95.4,58.2,95.4,58.2c-0.1,0-0.2,0-0.2-0.1c0,0,0,0,0,0c0-0.2,0-0.4-0.1-0.5c0,0,0,0,0,0c0-0.1,0-0.1,0-0.2
						c0,0,0,0,0,0c0,0,0,0,0,0c0,0,0.1,0,0.1,0c0.1,0.1,0.1,0.3,0.2,0.4C95.4,57.9,95.4,58.1,95.4,58.2z"/>
					<path class="st9" d="M93.6,57.7c0-0.1,0-0.3,0-0.4c0-0.2,0-0.5-0.1-0.6c-0.1-0.2-0.3,0-0.4,0.1c-0.1,0.2-0.1,0.5-0.1,0.7
						c0,0.3,0.1,0.5,0.2,0.8c0,0.1,0,0.3-0.1,0.4c0,0,0,0,0,0c0,0,0,0,0,0c0,0,0-0.1-0.1-0.1c-0.1-0.4-0.2-0.8-0.4-1.2
						c-0.1-0.1-0.2-0.3-0.3-0.2c-0.1,0.1-0.2,0.2-0.2,0.3c-0.1-0.1-0.2-0.2-0.4-0.1c-0.1,0.1-0.1,0.1-0.1,0.2c0-0.1-0.1-0.1-0.1-0.1
						c-0.1-0.1-0.3,0.2-0.2,0.3c0.1,0,0.1,0.1,0.1,0.2c0.1,0.1,0.1,0.3,0.2,0.4c0,0.1,0.1,0.1,0.1,0.2c0.1,0.3,0.2,0.6,0.3,0.9
						c0,0,0,0,0,0c0.1,0,0.2-0.2,0.1-0.3C92.1,59,92,58.8,92,58.5c0-0.1-0.1-0.2-0.1-0.3c0-0.1-0.1-0.2-0.1-0.4c0,0,0,0,0-0.1
						c0.2-0.1,0.3,0.3,0.3,0.4c0.1,0.1,0.1,0.3,0.2,0.4c0.1,0.2,0.2,0.5,0.2,0.7c0,0,0,0,0,0c0.1,0,0.2-0.2,0.1-0.3
						c-0.1-0.2-0.2-0.5-0.2-0.7c0-0.1,0-0.1,0-0.2c-0.1-0.2-0.1-0.4-0.1-0.6c0,0,0,0,0,0c0,0,0.1,0,0.1,0.1c0.2,0.2,0.2,0.5,0.3,0.7
						c0.1,0.2,0.1,0.3,0.2,0.5c0,0.1,0.1,0.2,0.1,0.3c0.1,0.1,0.2,0,0.2-0.1c0.1-0.1,0.1-0.2,0.1-0.3c0.1,0.1,0.2,0.3,0.3,0.2
						c0.2,0,0.3-0.3,0.3-0.5c0-0.2,0-0.6-0.2-0.7C93.7,57.7,93.6,57.7,93.6,57.7z M93.3,57.5c0-0.2,0-0.4,0-0.6c0,0,0,0,0,0
						c0.1,0,0.1,0.1,0.1,0.1c0,0.2,0,0.4,0,0.6c0,0.1,0,0.1,0,0.2C93.3,57.7,93.3,57.6,93.3,57.5z M93.7,58.3c0,0.1,0,0.2,0,0.3
						c0,0,0,0,0,0c0,0,0,0,0,0c-0.1,0-0.1-0.1-0.1-0.1c-0.1-0.1-0.1-0.2-0.1-0.3c0-0.1,0-0.1,0-0.2c0,0,0.1,0,0.1,0
						C93.7,58.1,93.7,58.2,93.7,58.3z"/>
					<path class="st9" d="M100.5,58.9c0,0-0.1,0-0.1,0c0,0,0,0,0,0c0,0,0,0,0,0c0,0,0-0.1,0-0.2c0-0.1,0-0.3,0.1-0.4c0,0,0,0,0,0
						c0-0.1,0.1-0.2,0.1-0.3c0,0,0,0,0,0c0,0,0,0,0,0c0-0.1,0.1-0.1,0.1-0.2c0-0.1-0.1-0.1-0.1-0.1c0,0,0,0,0,0
						c-0.1-0.1-0.1-0.1-0.3-0.1c-0.3,0-0.4,0.3-0.5,0.6c0,0.1,0.1,0.3,0.2,0.3c0,0,0,0,0.1,0c0,0.1-0.1,0.1-0.1,0.2
						c0,0-0.1-0.1-0.1-0.1c0,0,0,0-0.1,0c0,0,0,0,0,0c-0.1,0-0.1,0-0.2,0.1c0,0,0,0,0,0c0-0.1,0-0.1,0-0.2c0-0.2,0.1-0.5,0.1-0.7
						c0,0,0,0,0,0c0-0.2-0.1-0.3-0.2-0.3c-0.2,0-0.3,0.1-0.4,0.2c-0.1,0.1-0.2,0.4-0.2,0.6l0,0c0,0.1,0,0.2-0.1,0.2c0,0,0,0,0,0
						c0,0,0,0,0,0c0-0.1,0-0.2,0-0.3c0-0.2,0-0.5,0.1-0.7c0-0.1,0-0.1,0.1-0.2c0-0.1,0-0.1-0.1-0.1c-0.1,0-0.1,0.1-0.2,0.1
						c0,0.1-0.1,0.1-0.1,0.2c0,0.1-0.1,0.1-0.1,0.2c0,0.1-0.1,0.1-0.1,0.1c0,0,0,0,0,0c0-0.2,0-0.4,0-0.7c0,0,0,0,0-0.1c0,0,0,0,0,0
						c0,0,0,0,0,0c0,0,0,0,0,0c0,0,0,0,0,0l0,0c0,0,0,0-0.1,0c-0.1,0-0.1,0.1-0.1,0.1c0,0,0,0,0,0c-0.1,0.3-0.1,0.6-0.3,0.9
						c0,0,0,0,0,0c0,0,0,0,0,0l0,0c0,0,0,0,0,0c-0.1,0-0.1-0.1-0.1-0.1c-0.1-0.2,0-0.4,0-0.6c0,0,0-0.1,0-0.1c0,0,0-0.1,0-0.1
						c0,0,0,0,0,0c0,0,0,0,0,0c0,0,0.1,0.1,0.1,0.1c0,0.1,0.3-0.1,0.3-0.2c-0.1-0.2-0.2-0.2-0.4-0.1c-0.1,0.1-0.2,0.1-0.2,0.2
						c0,0,0,0,0,0c0,0,0,0,0,0c0,0,0,0,0,0.1c0,0,0,0,0,0c0,0.1,0,0.1-0.1,0.2c0-0.2,0-0.4,0-0.5c0-0.1-0.2,0-0.3,0.1
						c0,0.1-0.1,0.2-0.1,0.2c0-0.1,0-0.2-0.1-0.2c-0.1-0.2-0.3-0.2-0.4,0c0,0-0.1,0.1-0.1,0.2c0,0,0.1,0,0.1,0c0,0,0,0,0,0
						c0,0,0,0,0,0c0,0,0,0.1,0.1,0.1c0,0.1,0.1,0.2,0.1,0.4c0,0.1,0,0.2,0,0.4c0,0,0,0,0,0c0,0,0,0,0,0c0,0-0.1-0.1-0.1-0.1
						c0-0.1-0.3,0.1-0.2,0.2c0.1,0.2,0.3,0.1,0.4-0.1c0-0.1,0.1-0.1,0.1-0.2c0-0.1,0-0.1,0.1-0.2c0,0.2,0,0.4,0,0.6
						c0,0.1,0.1,0.1,0.1,0c0.1,0,0.1-0.1,0.1-0.2c0-0.1,0-0.1,0.1-0.2c0,0.1,0,0.1,0,0.2c0,0.1,0.1,0.2,0.2,0.2
						c0.1,0,0.3-0.1,0.4-0.1c0.1-0.1,0.1-0.1,0.2-0.2c0,0.1,0,0.3,0,0.4c0,0.1,0.1,0.1,0.1,0.1c0.1,0,0.1-0.1,0.1-0.1
						c0-0.1,0.1-0.2,0.1-0.3c0-0.1,0.1-0.1,0.1-0.1c0,0,0,0,0,0c0,0.2,0,0.4,0,0.5c0,0.2,0.1,0.2,0.2,0.2c0.1,0,0.1,0,0.2-0.1
						c0,0.1,0,0.1,0.1,0.2c0.1,0.1,0.2,0,0.3,0c0,0,0,0,0,0c0,0,0,0,0,0.1c0,0.2,0.1,0.2,0.3,0.1c0.1,0.1,0.3,0.1,0.4,0.1
						c0,0,0.1,0,0.1,0c0,0,0,0.1,0,0.1c0,0.2,0.2,0.2,0.4,0.1C100.5,59.1,100.6,59,100.5,58.9z M99.2,58.5
						C99.2,58.5,99.2,58.5,99.2,58.5c-0.1,0-0.1-0.1-0.1-0.2c0-0.1,0-0.1,0-0.2c0,0,0,0,0,0c0,0,0,0,0,0c0-0.1,0.1-0.2,0.1-0.3
						c0,0,0.1-0.1,0.1-0.2c0,0,0,0,0,0c0,0,0,0,0,0c0.1,0,0.1,0.1,0.1,0.1C99.4,58,99.3,58.2,99.2,58.5
						C99.2,58.5,99.2,58.5,99.2,58.5z M99.6,58.7L99.6,58.7L99.6,58.7L99.6,58.7z M100,58.2c0-0.1,0.1-0.3,0.1-0.3c0,0,0,0,0.1,0
						c0,0,0,0.1,0,0.1c0,0.1-0.1,0.2-0.1,0.3C100.1,58.3,100,58.3,100,58.2z M100.4,58.9C100.4,58.9,100.4,58.9,100.4,58.9
						L100.4,58.9z"/>
				</g>
			</g>
			<g>
				<path class="st9" d="M100.4,60.8c0,0.1-0.1,0.2-0.2,0.2c0,0,0,0,0,0c0,0,0-0.2,0-0.2c0-0.2,0-0.3,0.1-0.5c0,0,0-0.1,0-0.1
					c0-0.1,0-0.1,0-0.2c0,0,0,0,0,0c0-0.1-0.1-0.3-0.2-0.3c-0.2,0-0.3,0.1-0.4,0.2c-0.1,0.1-0.2,0.3-0.2,0.5c0,0,0,0,0,0
					c0,0.1-0.1,0.1-0.1,0.2c0,0,0,0,0,0c-0.1,0,0-0.1,0-0.2c0-0.1,0-0.2,0-0.3c0-0.1-0.1-0.1-0.2-0.1c0,0,0,0,0,0c0,0,0,0,0,0
					c0-0.1,0.1-0.2,0.1-0.2c0,0,0,0,0,0c0,0,0,0,0,0c0,0,0.1,0.1,0.1,0.1c0.1,0.1,0.3-0.1,0.3-0.1c-0.1-0.1-0.2-0.1-0.3-0.1
					c-0.1,0-0.1,0.1-0.2,0.1c0,0,0,0,0,0c0-0.1,0-0.3,0-0.4c0-0.1-0.3,0-0.3,0.1c0,0.2,0,0.4,0,0.6c0,0,0,0,0,0
					c0,0.2-0.1,0.3-0.3,0.4c0,0,0,0-0.1,0c0,0,0,0,0,0c0,0,0,0,0,0c0,0,0-0.1,0-0.1c0-0.2,0-0.3,0-0.5c0-0.1,0-0.2,0.1-0.3
					c0,0,0-0.1,0.1-0.1c0-0.1,0-0.1-0.1-0.1c-0.1,0-0.1,0.1-0.2,0.1c0,0.1,0,0.1-0.1,0.2c0,0.1-0.1,0.1-0.1,0.2
					c0,0.1-0.1,0.1-0.1,0.1c0,0,0,0,0,0c0-0.2,0-0.4,0-0.6c0-0.1-0.3,0-0.3,0.1c0,0.1,0,0.2,0,0.3c0,0,0,0,0,0c0,0.2,0,0.4-0.2,0.6
					c0,0,0,0,0,0c-0.1,0-0.1-0.1-0.1-0.2c0-0.2,0-0.3,0-0.5c0,0,0-0.1,0-0.1c0-0.1,0-0.1,0-0.2c0,0,0,0,0,0c0-0.2-0.1-0.2-0.3-0.2
					c-0.1,0-0.3,0.1-0.3,0.3c-0.1,0.2-0.1,0.4-0.1,0.6c0,0,0,0,0,0c0,0.1,0,0.2-0.1,0.2c0,0,0,0,0,0c-0.1,0-0.1-0.1-0.1-0.2
					c0-0.1,0-0.2-0.1-0.3c-0.1-0.1-0.1-0.1-0.2,0c0,0,0,0,0,0c0,0,0,0,0-0.1c0-0.1,0-0.2,0.1-0.3c0,0,0,0,0,0c0,0,0,0,0,0
					c0,0,0.1,0,0.1,0c0.1,0.1,0.3-0.2,0.2-0.2c-0.1-0.1-0.2-0.1-0.3,0c-0.1,0-0.1,0.1-0.2,0.2c0,0,0,0,0,0c0-0.1,0-0.3-0.1-0.4
					c0-0.1-0.3,0.1-0.2,0.2c0,0.1,0.1,0.2,0.1,0.4c0,0.2-0.1,0.4-0.2,0.5c0,0.1-0.1,0.2-0.2,0.2c-0.1,0.1-0.2,0.1-0.3,0c0,0,0,0,0,0
					c0.1-0.2,0.2-0.5,0.2-0.7c0-0.1-0.1-0.3-0.3-0.2c-0.2,0-0.3,0.2-0.3,0.4c0,0.2,0,0.3,0,0.5c0,0.1,0,0.1,0,0.2c0,0,0,0-0.1,0.1
					c0,0-0.1,0.1-0.1,0.1c0,0,0,0-0.1,0c-0.1-0.1-0.1-0.3-0.1-0.4c0-0.1,0-0.3-0.1-0.4c0-0.1-0.1-0.2-0.2-0.2
					c-0.1,0-0.2,0.2-0.2,0.3c0,0,0,0,0,0c0-0.1,0-0.1-0.1-0.2c0-0.1-0.2,0.2-0.2,0.2c0.1,0.1,0.1,0.3,0.1,0.4l0,0c0,0,0,0,0,0
					s0,0,0,0c0,0.1,0,0.1,0,0.2c0,0.1,0,0.2-0.1,0.3c0,0,0,0,0,0c0,0,0,0,0,0c0-0.1-0.1-0.1-0.1-0.2c-0.1-0.2-0.1-0.4-0.2-0.6
					c0,0,0,0,0,0c0-0.1-0.2-0.2-0.3-0.1c-0.1,0.1-0.2,0.2-0.2,0.4c0,0.2,0,0.5,0.1,0.7c-0.1,0.1-0.1,0.2-0.2,0.3
					c0,0-0.1-0.1-0.2-0.1c0-0.2,0-0.5-0.1-0.7c-0.1-0.1-0.2-0.2-0.3-0.2c-0.1,0-0.2,0.2-0.2,0.3c-0.1,0.1,0,0.3,0,0.4
					c0.1,0.1,0.2-0.2,0.2-0.2c0,0,0-0.1,0-0.1c0,0,0,0,0,0c0,0,0,0,0,0c0,0,0,0,0,0c0.1,0,0.1,0.1,0.2,0.2c0.1,0.1,0.1,0.2,0.1,0.3
					c0,0,0,0.1,0,0.1c0,0,0,0-0.1,0.1c0,0,0,0,0,0.1c0,0.1,0,0.1,0,0.2c0,0,0,0,0,0c0,0,0,0,0,0c0,0,0.1-0.1,0.1-0.1
					c0.1,0,0.1,0,0.2,0c-0.1,0.2-0.1,0.4-0.2,0.6c0,0.2,0,0.4,0.1,0.5c0.1,0.1,0.2,0,0.3-0.1c0.2-0.2,0.1-0.6,0.1-0.9
					c0-0.1-0.1-0.2-0.1-0.3c0-0.1,0.1-0.2,0.1-0.2c0,0.1,0.1,0.2,0.2,0.2c0.1,0,0.2-0.1,0.3-0.2c0,0,0,0,0,0
					c0.1,0.1,0.1,0.2,0.2,0.1c0.1-0.1,0.2-0.2,0.2-0.3c0,0.1,0,0.1,0.1,0.2c0,0.1,0.2-0.1,0.2-0.2c0-0.2-0.1-0.4-0.1-0.6
					c0-0.1,0-0.2,0-0.2c0,0,0-0.1,0-0.1c0,0,0,0,0,0c0,0,0,0,0,0c0,0,0.1,0.1,0.1,0.1c0.1,0.1,0.1,0.3,0.1,0.4
					c0,0.1,0.1,0.6,0.3,0.4c0.1-0.1,0.2-0.2,0.3-0.2c0,0,0,0.1,0.1,0.1c0.1,0.2,0.3,0,0.5-0.1c0.1-0.1,0.2-0.3,0.3-0.5
					c0,0.2,0,0.3,0,0.5c0,0.1,0.1,0.1,0.1,0c0.1,0,0.1-0.1,0.1-0.2c0-0.1,0-0.2,0-0.4c0.1,0,0.1,0.4,0.2,0.5c0.1,0.1,0.2,0,0.3-0.1
					c0,0,0,0,0.1-0.1c0,0.1,0.1,0.1,0.1,0.2c0.1,0.1,0.2,0,0.3-0.1c0,0,0,0,0,0c0,0.1,0.1,0.1,0.1,0.2c0.1,0,0.2,0,0.3-0.1
					c0,0,0.1-0.1,0.1-0.1c0,0.1,0,0.1,0,0.2c0,0.1,0.1,0.1,0.1,0c0.1,0,0.1-0.1,0.1-0.2c0-0.1,0-0.2,0.1-0.3c0-0.1,0.1-0.1,0.1-0.1
					c0,0,0,0,0,0c0,0,0,0,0,0.1c0,0.2,0,0.4,0,0.5c0.1,0.1,0.3,0,0.4,0c0.1,0,0.1-0.1,0.2-0.1c0,0.1,0,0.2,0,0.2
					c0,0.1,0.1,0.1,0.1,0.1c0.1,0,0.1-0.1,0.1-0.1c0-0.1,0.1-0.2,0.1-0.3c0.1,0.1,0,0.4,0.1,0.5c0.1,0.1,0.2,0.1,0.3,0
					c0,0,0.1,0,0.1-0.1c0,0.1,0,0.1,0.1,0.2c0.1,0.1,0.2,0,0.3,0c0,0,0,0,0,0c0,0.1,0,0.2,0.1,0.2c0.1,0,0.2,0,0.3,0
					c0.1,0,0.2-0.1,0.2-0.2C100.5,60.9,100.5,60.8,100.4,60.8z M93,62.4L93,62.4C93,62.4,93,62.4,93,62.4c0,0-0.1,0-0.1,0
					c-0.1,0-0.1-0.3-0.1-0.4c0-0.1,0-0.2,0.1-0.3c0,0,0,0,0,0.1c0.1,0.1,0.1,0.2,0.1,0.3C93,62.2,93,62.4,93,62.4z M93.4,61.1
					C93.4,61.1,93.4,61.1,93.4,61.1c-0.1,0-0.1-0.1-0.2-0.1c-0.1-0.1-0.2-0.3-0.2-0.5c0-0.1,0-0.2,0-0.2c0,0,0,0,0,0c0,0,0,0,0,0
					c0.1,0,0.1,0,0.1,0.1C93.3,60.6,93.4,60.8,93.4,61.1C93.4,61.1,93.4,61.1,93.4,61.1z M95.2,60.3c0-0.1,0-0.2,0-0.4
					c0-0.1,0-0.1,0-0.2c0,0,0,0,0,0c0,0,0,0,0,0c0,0,0.1,0.1,0.1,0.1C95.3,60,95.3,60.1,95.2,60.3z M97.1,60.4
					C97,60.4,97,60.4,97.1,60.4C97,60.5,97,60.5,97.1,60.4c-0.1,0-0.1-0.1-0.1-0.1c0-0.2,0-0.4,0-0.5c0-0.1,0-0.1,0.1-0.2
					c0,0,0,0,0,0c0,0,0,0,0,0c0.1,0,0.1,0,0.1,0.1C97.1,59.9,97.1,60.2,97.1,60.4z M100,60.2c-0.1,0.2-0.1,0.5-0.2,0.7c0,0,0,0,0,0
					c0,0,0,0,0,0c0,0,0-0.1,0-0.2c0-0.2,0-0.4,0.1-0.5c0,0,0.1-0.1,0.1-0.1c0,0,0,0,0,0c0,0,0,0,0,0C100,60.1,100,60.2,100,60.2z"/>
				<polygon class="st9" points="93,62.4 93,62.4 93,62.4 				"/>
				<path class="st9" d="M93,62.4C93,62.4,93,62.4,93,62.4L93,62.4z"/>
				<path class="st9" d="M95.1,59.7C95.1,59.7,95.1,59.7,95.1,59.7L95.1,59.7z"/>
			</g>
		</g>
		<g>
			<path class="st10" d="M88.9,56.6C88.9,56.6,88.9,56.5,88.9,56.6c-0.2-0.1-0.3,0-0.4,0c-0.3,0-0.4,0-0.7-0.1
				c0-0.3,0.1-0.5,0.2-0.8c0.1-0.2-0.1-0.5-0.1-0.7c0-0.1,0-0.3,0-0.5c-0.1,0.1,0,0.4,0,0.5c-0.1-0.2-0.1-0.4-0.1-0.6
				c0,0.2,0,0.4,0,0.6c-0.1-0.2-0.1-0.4-0.1-0.5c-0.1,0.2,0.1,0.4,0.1,0.6c-0.1-0.1-0.1-0.3-0.2-0.5c0,0.2,0.1,0.4,0.1,0.5
				c-0.1-0.1-0.1-0.3-0.2-0.3c0,0.1,0.1,0.3,0.1,0.4c-0.1,0-0.1-0.1-0.2-0.2c0,0.1,0.1,0.2,0.1,0.2c-0.1,0-0.1-0.1-0.2-0.1
				c0,0.1,0.1,0.1,0.1,0.2c0,0-0.1-0.1-0.1-0.1c0,0.1,0.1,0.1,0.1,0.2c0,0-0.1,0-0.1,0c0,0,0.1,0,0,0.1c0,0,0,0-0.1,0
				c0,0.1,0,0,0,0.1c0,0,0,0,0,0c0,0,0,0,0,0.1c-0.2,0.3-0.1,0.6-0.1,0.9c0,0-0.2-0.1-0.4-0.1c-0.1,0-0.1-0.1-0.2-0.2c0,0,0,0,0,0
				c0,0-0.1,0-0.1-0.1c0,0,0.1,0,0.1,0c0,0-0.2,0-0.1-0.1c0.1,0,0.1,0,0.2,0c-0.1,0-0.2-0.1-0.2-0.1c0.1,0,0.2,0.1,0.2,0
				c-0.1-0.1-0.2-0.1-0.3-0.2c0.1,0,0.2,0.1,0.2,0.1c-0.1,0-0.2-0.2-0.3-0.2c0.1,0.1,0.2,0.2,0.3,0.3c-0.1-0.1-0.2-0.1-0.3-0.1
				c0,0.1,0.2,0.2,0.3,0.2c-0.1,0-0.1,0-0.2,0c0,0.1,0.2,0.1,0.2,0.1c0,0-0.1,0-0.1,0c0,0.1,0.1,0,0.2,0.1c-0.1,0-0.1,0-0.1,0
				c0,0,0.1,0,0.1,0.1c0,0-0.1,0-0.1,0c0,0,0.1,0,0.1,0c0,0,0,0,0,0c0,0,0,0,0.1,0c0,0,0,0,0,0c0.1,0.1,0.2,0.3,0.4,0.3
				c-0.1,0.1,0.1,0.1-1,0.6c0,0,0.5-0.1,0.6-0.2c0.1-0.1,0.3-0.1,0.4-0.2c0,0,0.1,0,0.1,0c0.2,0,0.4,0,0.7-0.2c-0.2,0-0.5,0.1-0.6,0
				c0.1-0.3,0-0.9,0.1-1.1c0.1-0.1,0.3-0.6,0.5-0.2c0,0.1,0.1,0.1,0,0.3c-0.1,0.2-0.2,0.3-0.1,0.7c0,0.1,0,0.2-0.1,0.2
				c0.5,0.1,0.6,0,0.9,0c0.1,0,0.2-0.1,0.2,0c0,0-0.1,0-0.2,0c-0.1,0,0.1,0,0.1,0c0,0,0.3,0,0.4-0.1C89.1,56.6,89,56.6,88.9,56.6z"
				/>
			<path class="st10" d="M87.4,54c-1.1,0.1-2,1.1-1.9,2.3c0.1,1.2,1,2.2,2.1,2.1c1.1-0.1,2-1.1,1.9-2.3C89.4,54.8,88.5,53.9,87.4,54
				 M87.4,54c1.1-0.1,2,0.8,2.1,2c0.1,1.2-0.8,2.2-1.8,2.2c-1.1,0.1-2-0.9-2.1-2C85.5,55.1,86.3,54.1,87.4,54"/>
		</g>
		<g>
			<g>
				<path class="st11" d="M103.8,61.9c0,0.3-0.2,0.6-0.5,0.6c-0.3,0-0.5-0.2-0.5-0.5c0-0.3,0.2-0.6,0.5-0.6
					C103.6,61.3,103.8,61.6,103.8,61.9"/>
				<path class="st7" d="M103.9,60.8c0,0,0.2-0.6-0.7-1C103.2,59.8,102.6,60.7,103.9,60.8"/>
				<path class="st12" d="M102.9,62.8c0,0-0.9-0.9,0-2c0,0,0.4-0.5,1,0C103.9,60.8,103,61.5,102.9,62.8"/>
				<path class="st13" d="M103.4,62.9c-0.3,0.1-0.8,0.1-0.5-1c0.1-0.2,0.1-0.4,0.3-0.6c0.5-0.7,1.1-0.8,1.4,0
					C104.8,62.4,103.9,62.8,103.4,62.9"/>
				<path class="st14" d="M103.3,62.7c0,0,1-0.1,1-0.9C104.3,61.8,104,62.6,103.3,62.7"/>
				<path class="st14" d="M102.8,62c0,0,0.1-1,0.7-1.2C103.4,60.8,102.7,60.9,102.8,62"/>
				<path class="st7" d="M103.9,60.8c0,0,0.8,0.3,1.3-1C105.2,59.8,103.7,59.3,103.9,60.8 M104,60.7c0.4,0.1,1-0.8,1-0.8
					C104.5,61,104,60.7,104,60.7z"/>
			</g>
			<path class="st12" d="M105.1,61.3c0.1,0,0.1,0.1,0.2,0.1c0.2,0.2-0.1,0.2,0,0.3c0.1,0.1,0.5-0.1,0.6,0.5c0.1,0.5-0.4,1-1,1
				c-0.6,0-1.1-0.4-1.1-0.9c0-0.5,0.4-1,1-1.1C104.9,61.2,105,61.2,105.1,61.3"/>
			<path class="st13" d="M104.1,62.8c0,0-0.7-0.7,0.2-1.4c0,0,0.6-0.4,1-0.1c0,0,0.1,0.1,0,0.2c-0.1,0.1,0,0.1,0,0.1
				c0,0,0.5,0,0.5,0.4C105.9,62.6,104.8,63.4,104.1,62.8"/>
			<path class="st15" d="M104.2,62.4c0,0-0.2-0.4,0.1-0.7c0.2-0.3,0.7-0.3,0.8,0C105.2,61.7,105.7,62.5,104.2,62.4L104.2,62.4z"/>
		</g>
		<g>
			<path class="st16" d="M102.2,62.2c0.1-0.1,0.2-0.2,0.3-0.2c0.1,0,0.1,0,0.2-0.1c0.1,0,0.1-0.1,0.2-0.1c0.1-0.1,0.3,0,0.5-0.1
				c0.1,0,0.3-0.1,0.4,0c0.1,0.1,0.3,0.1,0.4,0.2c0.1,0.1,0.1,0.2,0.2,0.3c0,0.1,0.1,0.1,0.1,0.2c0,0.1,0,0.2-0.1,0.3
				c0,0.1-0.1,0.1-0.1,0.2c0,0,0,0.1,0,0.1c0,0-0.1,0.1-0.1,0.1c-0.1,0.1-0.1,0.2-0.2,0.2c-0.2,0.1-0.4,0-0.6,0
				c-0.2,0-0.4,0-0.6-0.1c-0.2-0.1-0.3-0.2-0.5-0.4c-0.1-0.1-0.1-0.2-0.1-0.3C102.2,62.5,102.1,62.3,102.2,62.2"/>
			<g>
				<path class="st17" d="M101.5,62.8C101.5,62.8,101.5,62.7,101.5,62.8C101.6,62.8,101.6,62.8,101.5,62.8
					C101.6,62.8,101.6,62.8,101.5,62.8c0.1,0.1,0.1,0.2,0.1,0.3c0,0.1,0,0.1,0,0.2c0,0-0.1,0-0.1,0c0,0,0,0-0.1,0c0,0,0,0,0,0
					c0,0,0,0,0,0c0.1,0,0.2,0.1,0.2,0.2c0,0.2,0.1,0.5,0.2,0.7c0,0,0,0,0,0c-0.2-0.1-0.4-0.4-0.5-0.6l0,0c0,0,0-0.1,0-0.1
					C101.4,63.2,101.5,63,101.5,62.8C101.5,62.8,101.5,62.8,101.5,62.8z"/>
				<path class="st7" d="M101.2,64c0.1-0.3,0.4-1.2,0.4-1.2c0.1-0.5,0.3-1,0.4-1.5c0,0,0,0,0,0.1c-0.1,0.5-0.3,0.9-0.4,1.4
					c0,0-0.2,0.6-0.2,0.8c0,0,0,0,0,0c0,0,0,0,0,0.1c0,0.2-0.1,0.3-0.1,0.5c0,0.1,0,0.2,0,0.3c0,0,0,0,0,0c0,0-0.1,0-0.1,0
					c0,0,0,0,0,0c0,0,0-0.1,0-0.1c0,0,0-0.1,0-0.1c0-0.6,0.1-1.3,0.1-1.9c0-0.1,0-0.1,0-0.2c0,0,0,0,0,0
					C101.2,62.7,101.2,63.3,101.2,64z"/>
				<path class="st17" d="M103.6,63.2c0-0.1-0.1-0.2-0.1-0.3c0-0.1-0.1-0.2-0.2-0.3c-0.1-0.1-0.1-0.1-0.2-0.2
					c-0.1-0.1-0.2-0.1-0.2,0c0,0.1,0,0.2,0,0.3c0,0.1,0,0.1,0,0.2c0,0,0,0,0,0C103.2,63.1,103.4,63.1,103.6,63.2
					C103.6,63.2,103.6,63.2,103.6,63.2z"/>
				<path class="st17" d="M102.9,64.3C102.9,64.3,102.9,64.2,102.9,64.3c0-0.1-0.1-0.2-0.1-0.2c0-0.1-0.1-0.2-0.3-0.3
					c-0.1,0-0.2-0.1-0.3-0.1c0,0-0.1,0-0.1,0c0,0,0,0,0,0c0.1,0.2,0.1,0.3,0.2,0.5c0,0,0,0,0,0C102.6,64.2,102.7,64.3,102.9,64.3
					C102.9,64.3,102.9,64.3,102.9,64.3z"/>
				<path class="st17" d="M103.5,62.2c0,0.2,0.1,0.4,0.1,0.5c0.2,0,0.4,0.1,0.5,0.1c0-0.2,0-0.3-0.1-0.4c0,0,0,0,0,0
					c-0.1,0-0.2-0.1-0.3-0.1C103.6,62.2,103.6,62.2,103.5,62.2z"/>
				<path class="st17" d="M103.5,62.7c0-0.1,0-0.2,0-0.2c0-0.1-0.1-0.2-0.1-0.3c0,0,0,0,0,0c-0.1-0.1-0.3-0.2-0.4-0.3c0,0,0,0-0.1,0
					c0,0.2,0,0.4,0,0.5c0,0,0,0,0,0c0.1,0,0.2,0,0.3,0.1C103.3,62.5,103.4,62.6,103.5,62.7C103.5,62.7,103.5,62.7,103.5,62.7
					C103.5,62.7,103.5,62.7,103.5,62.7z"/>
				<path class="st17" d="M102.5,63c0.1,0.2,0.1,0.3,0.2,0.5c0,0,0,0,0.1,0.1c0.2,0.1,0.3,0.2,0.5,0.3c0,0,0,0,0,0
					c0-0.1-0.1-0.2-0.1-0.3c0-0.2-0.1-0.3-0.3-0.3C102.8,63.2,102.7,63.1,102.5,63C102.5,63,102.5,63,102.5,63z"/>
				<path class="st17" d="M103,63.2c0-0.1,0-0.1-0.1-0.2c0-0.1,0-0.1,0-0.2c0-0.1,0-0.1-0.1-0.1c-0.1-0.1-0.3-0.2-0.4-0.3
					c0,0.2,0,0.3,0.1,0.5c0,0,0,0.1,0.1,0.1C102.7,63.1,102.8,63.2,103,63.2z"/>
				<path class="st17" d="M102.1,63c0,0.2,0.1,0.3,0.1,0.5c0,0,0,0,0,0c0.2,0.1,0.4,0.2,0.5,0.2c0,0,0,0,0,0c0-0.1-0.1-0.2-0.1-0.3
					c0,0,0-0.1,0-0.1c0-0.1-0.1-0.1-0.1-0.2C102.3,63.2,102.2,63.1,102.1,63z"/>
				<path class="st17" d="M101.7,63.7c0,0.2,0.1,0.3,0.1,0.4c0,0.1,0.1,0.1,0.2,0.2c0.1,0.1,0.2,0.1,0.4,0.1c0,0,0-0.1,0-0.1
					c0-0.1-0.1-0.2-0.1-0.3c0-0.1-0.1-0.1-0.1-0.1C102,63.8,101.9,63.8,101.7,63.7C101.8,63.7,101.8,63.7,101.7,63.7z"/>
				<path class="st17" d="M103.7,62.2c0.1,0,0.2,0.1,0.3,0.1c0.1,0,0.1,0,0.2,0c0-0.2,0-0.4-0.2-0.5c0,0-0.1,0-0.1,0
					c-0.1,0-0.1,0-0.2,0c0,0,0,0-0.1,0.1C103.7,62,103.7,62.1,103.7,62.2z"/>
				<path class="st17" d="M103.5,62.8c0,0.1,0.1,0.2,0.1,0.3c0,0.1,0.1,0.1,0.1,0.1c0.2,0,0.3-0.1,0.4-0.2c0.1-0.1,0-0.2-0.1-0.2
					C103.9,62.8,103.7,62.8,103.5,62.8z"/>
				<path class="st17" d="M102.9,62.7c0-0.1,0-0.2,0-0.3c0-0.1,0-0.2,0-0.2c0,0,0,0,0,0c-0.1-0.1-0.2-0.1-0.3-0.2
					c-0.1,0.1-0.1,0.2-0.1,0.3c0,0.1,0,0.1,0.1,0.2C102.7,62.5,102.8,62.6,102.9,62.7z"/>
				<path class="st17" d="M101.7,63.1C101.7,63.1,101.7,63.1,101.7,63.1c0,0.2,0,0.4,0,0.5c0,0,0,0,0,0c0.2,0.1,0.3,0.2,0.5,0.3
					c0-0.1,0-0.1-0.1-0.2c0-0.1,0-0.2-0.1-0.3c0,0,0,0,0,0C101.9,63.3,101.8,63.2,101.7,63.1z"/>
				<path class="st17" d="M102.1,63.3c0-0.1,0-0.1,0-0.2c0-0.2-0.1-0.3-0.1-0.5c0,0,0-0.1-0.1-0.1c-0.1-0.1-0.1-0.1-0.1,0
					c-0.1,0.1-0.1,0.3-0.1,0.4c0,0,0,0,0,0C101.8,63.1,101.9,63.2,102.1,63.3C102.1,63.3,102.1,63.3,102.1,63.3z"/>
				<path class="st17" d="M103.7,63.6c0-0.1-0.1-0.2-0.1-0.2c0,0,0,0,0,0c-0.2-0.1-0.4-0.2-0.6-0.3c0,0,0,0,0,0c0,0,0,0.1,0,0.1
					c0,0.1,0.1,0.2,0.1,0.4c0,0,0,0,0.1,0C103.4,63.5,103.6,63.5,103.7,63.6z"/>
				<path class="st17" d="M102.5,63.2c0-0.1,0-0.1-0.1-0.2c0-0.1-0.1-0.2-0.1-0.3c0,0,0,0,0-0.1c-0.1,0-0.1-0.1-0.2-0.1
					c-0.1,0-0.1,0-0.1,0.1c0,0.1,0,0.2,0,0.4c0,0,0,0,0,0C102.2,63.1,102.4,63.1,102.5,63.2z"/>
				<path class="st17" d="M103.6,62.1c0-0.1,0-0.2,0-0.3c0-0.1-0.1-0.2-0.1-0.2c0,0-0.1,0-0.1,0c-0.2,0-0.2,0-0.3,0.2
					c0.1,0.1,0.2,0.1,0.3,0.2C103.4,62.1,103.5,62.2,103.6,62.1z"/>
				<path class="st17" d="M102.7,63.6c0.1,0.1,0.1,0.3,0.2,0.4c0,0,0,0,0,0c0.1,0,0.3,0,0.4,0c-0.1-0.1-0.1-0.2-0.2-0.2
					C103,63.7,102.9,63.7,102.7,63.6C102.7,63.6,102.7,63.6,102.7,63.6z"/>
				<path class="st7" d="M104.2,65.7c-0.5-0.2-0.9-0.4-1.4-0.5c-0.4-0.2-0.8-0.3-1.2-0.5c-0.1,0-0.1,0-0.2,0c0,0,0,0,0,0
					C102.4,65.1,103.3,65.4,104.2,65.7C104.2,65.7,104.2,65.7,104.2,65.7z"/>
				<path class="st7" d="M104,65.9c-0.5-0.2-0.9-0.4-1.4-0.7c-0.4-0.2-0.8-0.4-1.1-0.6c0,0-0.1,0-0.2,0c0,0,0,0,0,0
					C102.2,65.1,103.1,65.5,104,65.9C104,65.9,104,65.9,104,65.9z"/>
				<path class="st7" d="M101.2,64.3c-0.1-0.9-0.2-1.8-0.3-2.7c0,0,0,0,0,0c0.1,0.5,0.1,1.1,0.2,1.6c0,0.4,0.1,0.8,0.1,1.2
					C101.2,64.4,101.2,64.3,101.2,64.3z"/>
				<path class="st17" d="M102.4,64.3c0,0.2,0.1,0.3,0.2,0.3c0.1,0,0.1,0,0.2,0c0.1-0.1,0.1-0.1,0.2-0.2
					C102.8,64.3,102.6,64.3,102.4,64.3z"/>
				<path class="st17" d="M103.2,63.5c0,0.1,0.1,0.2,0.1,0.3c0,0,0,0,0,0c0.1,0,0.2,0,0.4-0.1c0-0.1-0.1-0.2-0.2-0.2
					C103.5,63.6,103.3,63.6,103.2,63.5z"/>
				<path class="st17" d="M102.4,62.6c0-0.2,0-0.3,0-0.5c-0.1,0-0.1,0-0.2,0c0,0,0,0,0,0c0,0.1-0.1,0.2-0.1,0.3c0,0,0,0,0,0
					C102.2,62.5,102.3,62.6,102.4,62.6z"/>
				<path class="st17" d="M104,63.3c-0.1,0-0.3,0-0.4,0c0,0.1,0.1,0.2,0.1,0.3c0,0,0,0,0,0c0,0,0.1,0,0.1-0.1
					C103.9,63.5,104,63.4,104,63.3z"/>
				<path class="st17" d="M103.4,64.2c-0.2,0-0.3,0-0.5-0.1c0,0.1,0.1,0.2,0.1,0.3c0,0,0,0,0,0C103.2,64.4,103.3,64.3,103.4,64.2
					C103.4,64.2,103.4,64.2,103.4,64.2z"/>
				<path class="st7" d="M102.8,65.9c-0.1-0.1-0.2-0.1-0.3-0.2c-0.4-0.3-0.9-0.6-1.3-0.9c0,0-0.1,0-0.1,0
					C101.7,65.2,102.2,65.5,102.8,65.9C102.8,65.9,102.8,65.9,102.8,65.9z"/>
				<path class="st17" d="M102,64.3C102,64.3,102,64.4,102,64.3c0.1,0.2,0.2,0.3,0.3,0.3c0.1,0,0.2,0,0.2-0.1c0,0,0-0.1,0-0.1
					c-0.1,0-0.2,0-0.2,0C102.1,64.4,102.1,64.4,102,64.3z"/>
				<path class="st17" d="M102.9,62.2c0-0.1,0-0.3,0-0.4c-0.1,0.1-0.2,0.1-0.3,0.2C102.7,62,102.8,62.1,102.9,62.2z"/>
				<path class="st17" d="M104.3,62.4c-0.1,0-0.2,0-0.2,0c0.1,0.1,0.1,0.3,0.1,0.4c0,0,0,0,0,0c0,0,0,0,0,0
					C104.3,62.7,104.3,62.5,104.3,62.4z"/>
				<path class="st17" d="M102.2,64.7c0.1,0.1,0.2,0.1,0.2,0.2c0.1,0,0.1,0,0.1-0.1c0-0.1,0-0.2-0.1-0.2c0,0.1-0.1,0.1-0.1,0.1
					C102.3,64.6,102.2,64.6,102.2,64.7C102.2,64.6,102.2,64.7,102.2,64.7z"/>
				<path class="st17" d="M102.1,64.6c-0.1-0.1-0.1-0.1-0.2-0.1c-0.1,0-0.1,0-0.2,0C101.8,64.6,101.9,64.7,102.1,64.6z"/>
				<path class="st17" d="M103,64.4c0,0.1-0.1,0.1-0.1,0.2c0,0.1-0.1,0.1-0.2,0.1c-0.1,0-0.1,0-0.2-0.1c0,0,0,0,0.1,0.1
					c0.1,0.1,0.2,0.1,0.2,0.1c0,0,0,0,0.1,0C103,64.6,103,64.6,103,64.4z"/>
				<path class="st17" d="M103.4,63.9C103.4,64,103.4,64,103.4,63.9c0,0.2,0.1,0.2,0.2,0.1c0.1,0,0.1-0.1,0.2-0.1c0,0,0,0,0,0
					C103.6,63.9,103.5,63.9,103.4,63.9z"/>
				<path class="st17" d="M102,62.3c-0.1,0-0.1,0.1-0.2,0.2c0,0,0.1,0.1,0.2,0.1C102,62.5,102,62.4,102,62.3
					C102,62.3,102,62.3,102,62.3z"/>
				<path class="st17" d="M103.8,61.7c-0.1,0-0.2-0.1-0.2-0.1c0,0,0,0,0,0c0,0.1,0.1,0.1,0.1,0.2C103.7,61.8,103.8,61.8,103.8,61.7
					C103.8,61.8,103.8,61.7,103.8,61.7z"/>
				<path class="st17" d="M102.3,62.1C102.3,62.1,102.4,62.1,102.3,62.1c0.1,0,0.2-0.1,0.2-0.2c0,0,0,0,0,0
					C102.4,62,102.4,62,102.3,62.1C102.3,62.1,102.3,62.1,102.3,62.1z"/>
				<path class="st17" d="M101.5,64.2C101.5,64.2,101.5,64.1,101.5,64.2c-0.1-0.2-0.1-0.3-0.1-0.4c0.2,0.2,0.3,0.4,0.5,0.6
					c0,0,0,0,0,0c-0.1,0-0.2-0.1-0.3-0.1C101.6,64.3,101.6,64.3,101.5,64.2z"/>
				<path class="st7" d="M101.6,64.3c0,0,0.1,0.1,0.1,0.1c-0.1,0-0.2,0.1-0.2,0.1c-0.2,0.1-0.3,0.1-0.5,0.1c-0.1,0-0.1,0-0.1-0.1
					C101.1,64.6,101.3,64.5,101.6,64.3z"/>
			</g>
			<polygon class="st5" points="102.3,62.1 102.5,61.9 102.8,61.8 103.3,61.7 103.6,61.6 103.8,61.7 104,61.8 104.1,61.9 104.2,62 
				104.3,62.4 104.3,62.6 104.2,63 104.1,63 104.2,62.8 104.3,62.5 104.3,62.4 104.3,62.3 104.1,62 104,61.9 103.9,61.8 103.7,61.8 
				103.3,61.7 102.9,61.8 102.5,61.9 102.4,62.1 			"/>
		</g>
		<path class="st18" d="M104,64.7c0-0.1-0.1-0.2-0.2-0.2c-0.1,0-0.2,0.1-0.1,0.2c0,0.1,0.1,0.3,0.2,0.3C103.9,65,104,64.8,104,64.7z
			"/>
		<path class="st18" d="M104.5,64.2c-0.1,0-0.2,0-0.2,0.1c0,0.1,0,0.2,0.1,0.2c0.1,0,0.3,0,0.3-0.1
			C104.7,64.4,104.6,64.3,104.5,64.2z"/>
		<path class="st18" d="M104.7,64.8c-0.1,0-0.2,0-0.2,0.1c0,0.1,0,0.2,0.1,0.2c0.1,0,0.3,0,0.3-0.1
			C104.9,64.9,104.7,64.8,104.7,64.8z"/>
		<g>
			<g>
				<g>
					<path class="st4" d="M92.5,65.1c0.2,0-0.2,0.6-0.1,0.2c0-0.2,0.2-0.4,0.3-0.6c0-0.1,0.1-0.1,0.2-0.2c0.1,0,0.1,0,0,0.1
						c0,0-0.1,0.1-0.1,0.1c-0.1,0.1-0.3,0.2-0.5,0.3C92.2,65.1,92.4,65.2,92.5,65.1c0,0,0.8-0.5,0.5-0.7c-0.3-0.2-0.7,0.4-0.8,0.5
						c-0.1,0.1-0.2,0.4-0.1,0.5c0.1,0.1,0.3,0.1,0.4,0c0.1-0.1,0.2-0.3,0.2-0.4C92.8,65,92.5,65,92.5,65.1
						C92.3,65.1,92.4,65.2,92.5,65.1L92.5,65.1z"/>
				</g>
				<g>
					<path class="st4" d="M97.1,66.6c0.1-0.1,0.4-0.6,0.1-0.7c-0.2-0.1-0.3,0.2-0.3,0.3c0,0.2-0.1,0.4,0.1,0.6
						c0.1,0.2,0.4-0.1,0.5-0.2c0.1-0.1,0.1-0.2,0-0.1C97.4,66.5,97.2,66.7,97.1,66.6c0,0,0-0.2,0-0.3c0-0.1,0-0.1,0-0.2
						c0,0,0,0,0-0.1c0,0,0,0,0,0c0.2,0-0.1,0.4-0.1,0.5C96.9,66.7,97,66.6,97.1,66.6L97.1,66.6z"/>
				</g>
				<g>
					<path class="st4" d="M90.7,63.7c0.2,0,0.5,0,0.6-0.2c0-0.2-0.2-0.2-0.3-0.2c-0.2,0-0.3,0.2-0.4,0.3c-0.1,0.2,0.1,0.4,0.3,0.4
						c0.1,0,0.2-0.1,0.1-0.1c-0.3-0.1,0-0.3,0.1-0.4c0,0,0.1,0,0.1-0.1c0.1,0,0,0,0,0c0,0.2-0.3,0.2-0.4,0.1
						C90.5,63.6,90.6,63.7,90.7,63.7L90.7,63.7z"/>
				</g>
				<g>
					<path class="st4" d="M93.5,66.1c-0.1,0.2,0.2,0.3,0.3,0.2c0.1-0.1,0.1-0.2,0.2-0.3c0-0.1,0.1-0.2,0.2-0.3c0,0-0.1,0-0.1,0
						c-0.1,0.2-0.1,0.5-0.2,0.7c0,0.1,0.2,0,0.2,0c0.1-0.2,0.2-0.4,0.3-0.6c0,0-0.1,0-0.1,0c-0.1,0.2-0.2,0.4-0.2,0.7
						c0,0.2,0.4,0.1,0.5,0c0.1-0.1,0-0.1-0.1-0.1c-0.2,0.1-0.2-0.1-0.2-0.2c0-0.1,0.1-0.3,0.1-0.4c0.1-0.1-0.1-0.1-0.1,0
						c-0.2,0.2-0.3,0.4-0.4,0.7c0.1,0,0.1,0,0.2,0c0-0.2,0-0.5,0.1-0.7c0.1-0.1-0.1,0-0.1,0c-0.1,0.1-0.1,0.2-0.2,0.3
						c0,0.1-0.1,0.2-0.1,0.2c0,0.1,0,0,0,0c-0.1,0,0-0.1,0-0.2C93.7,66,93.6,66,93.5,66.1L93.5,66.1z"/>
				</g>
				<g>
					<path class="st4" d="M98.5,65.6c-0.1-0.2-0.3,0-0.3,0.2c-0.1,0.2,0,0.4,0,0.6c0.1,0.2,0.2,0.2,0.3,0
						C98.7,66.1,98.6,65.8,98.5,65.6c0,0.1-0.1,0.1-0.1,0.1c0,0.1,0.1,0.3,0.1,0.4c0,0.1,0,0.1,0.1,0.2c0.1,0.1,0.3-0.2,0.3-0.3
						c0-0.1-0.1-0.1-0.1,0c0,0.1-0.1,0.1-0.1,0C98.6,65.9,98.6,65.7,98.5,65.6c0-0.1-0.1,0.1-0.1,0.1c0,0.1,0.1,0.3,0.1,0.4
						c0,0,0,0.1,0,0.1c0,0-0.1,0-0.1,0c-0.1-0.1-0.1-0.2-0.1-0.3c0-0.1,0-0.1,0-0.2c0,0,0-0.1,0-0.1c0-0.1,0.1,0,0.1,0
						C98.4,65.8,98.6,65.6,98.5,65.6L98.5,65.6z"/>
				</g>
				<g>
					<g>
						<path class="st4" d="M96.4,66.7c0,0.2,0.2,0.2,0.4,0.1c0.1-0.1,0.2-0.3,0.1-0.5c0-0.1,0-0.3-0.2-0.4c-0.1,0-0.1,0-0.2,0.1
							c-0.1,0.1-0.1,0.2-0.1,0.3c0,0.1,0.2,0,0.2-0.1c0-0.1,0-0.1,0.1,0c0,0.1,0,0.1,0.1,0.2c0,0.1,0,0.2,0,0.2c0,0,0,0.1,0,0.1
							c0,0,0,0,0,0c-0.1,0-0.1-0.1-0.1-0.1C96.5,66.5,96.4,66.6,96.4,66.7L96.4,66.7z"/>
					</g>
					<g>
						<path class="st4" d="M96.3,65.9c0.1,0.5,0.1,0.9,0,1.4c0,0.1,0.2,0,0.2-0.1c0.1-0.5,0-1,0-1.4C96.5,65.8,96.3,65.9,96.3,65.9
							L96.3,65.9z"/>
					</g>
				</g>
				<g>
					<g>
						<path class="st4" d="M91.3,64.5c-0.1,0.1,0,0.3,0.2,0.3c0.2,0,0.3-0.1,0.4-0.2c0.1-0.1,0.2-0.3,0.1-0.4c0-0.1-0.1-0.1-0.2-0.1
							c-0.1,0-0.2,0-0.3,0.1c-0.1,0.1,0.1,0.1,0.2,0.1c0.1-0.1,0.1-0.1,0.1,0c0,0.1,0,0.1-0.1,0.2c0,0.1-0.1,0.1-0.1,0.2
							c0,0,0,0-0.1,0c0,0,0,0,0,0c0,0,0-0.1,0-0.1C91.5,64.5,91.3,64.5,91.3,64.5L91.3,64.5z"/>
					</g>
					<g>
						<path class="st4" d="M91.7,64c-0.2,0.4-0.5,0.7-0.9,1C90.8,65,91,65.1,91,65.1c0.3-0.3,0.6-0.7,0.8-1.1
							C91.9,63.9,91.7,63.9,91.7,64L91.7,64z"/>
					</g>
				</g>
				<g>
					<path class="st4" d="M96.1,65.9c-0.2,0-0.3,0.2-0.3,0.4c0,0.1-0.1,0.5,0.2,0.5c0.2,0,0.3-0.2,0.4-0.4
						C96.3,66.3,96.3,65.9,96.1,65.9c-0.1,0-0.2,0.1-0.1,0.2c0.1,0,0.1,0.2,0.1,0.2c0,0.1,0,0.1,0,0.2c0,0,0,0.1,0,0.1
						c0,0,0,0.1,0,0.1c-0.1,0-0.1-0.2-0.1-0.2c0-0.1,0-0.1,0-0.2c0,0,0-0.1,0-0.1c0,0,0,0,0,0C96.1,66.1,96.2,65.9,96.1,65.9z"/>
				</g>
				<g>
					<path class="st4" d="M92.3,64.5c-0.2-0.1-0.4,0-0.5,0.1c-0.1,0.1-0.3,0.4-0.1,0.5c0.2,0.2,0.4,0,0.5-0.1
						C92.3,65,92.4,64.7,92.3,64.5c0,0-0.2,0-0.2,0.1c0.1,0.1,0,0.2,0,0.3c0,0.1-0.1,0.1-0.1,0.2c0,0,0,0-0.1,0.1c0,0-0.1,0,0,0
						c-0.1,0,0-0.3,0-0.3c0-0.1,0.1-0.1,0.1-0.2c0,0,0.1,0,0.1-0.1c0,0,0,0,0,0C92.2,64.6,92.4,64.6,92.3,64.5z"/>
				</g>
				<g>
					<g>
						<path class="st4" d="M91.5,63.7c-0.1-0.1-0.3,0-0.4,0.1c-0.1,0.1-0.3,0.3-0.2,0.5c0.1,0.2,0.4,0.1,0.5,0
							C91.4,64.1,91.6,63.9,91.5,63.7c0,0-0.2,0-0.2,0c0.1,0.1,0,0.2-0.1,0.3c0,0.1-0.1,0.1-0.1,0.1c0,0,0,0-0.1,0c0,0-0.1,0,0,0
							c-0.1-0.1,0-0.2,0.1-0.3c0-0.1,0.1-0.1,0.1-0.1c0,0,0.1,0,0.1-0.1c0,0,0,0,0,0C91.3,63.8,91.5,63.8,91.5,63.7z"/>
					</g>
					<g>
						<path class="st4" d="M91.4,63.8c-0.2,0.2-0.4,0.5-0.6,0.7c0,0.1-0.2,0.3-0.3,0.1c-0.1-0.2,0.5-0.2,0.5-0.2
							c0.1,0,0-0.1-0.1-0.1c-0.2,0-0.5,0-0.6,0.2c-0.1,0.1,0,0.2,0.1,0.3c0.2,0.1,0.3,0,0.5-0.1c0.2-0.2,0.4-0.5,0.6-0.8
							C91.6,63.8,91.5,63.8,91.4,63.8L91.4,63.8z"/>
					</g>
				</g>
				<g>
					<path class="st4" d="M95.1,66.5C95,66.6,95,66.3,95,66.3c0-0.1,0-0.3,0.1-0.4c0-0.1-0.2,0-0.2,0.1c0,0.1-0.1,0.2-0.1,0.3
						c0,0.1,0,0.1-0.1,0.2c0,0.1,0,0.1-0.1,0c-0.1-0.1,0-0.5,0.1-0.6c0.1-0.1-0.1,0-0.2,0c-0.1,0.1-0.4,0.7,0,0.8
						c0.4,0.1,0.4-0.6,0.5-0.8c-0.1,0-0.1,0-0.2,0.1c0,0.2-0.1,0.4-0.1,0.6C94.9,66.7,95.1,66.7,95.1,66.5
						C95.3,66.6,95.2,66.5,95.1,66.5L95.1,66.5z"/>
				</g>
				<g>
					<path class="st4" d="M98.8,66.1c0.1,0.2,0.3,0.1,0.3-0.1c0-0.1,0-0.2,0-0.4c0-0.1-0.1-0.2-0.1-0.3c0,0-0.1,0.1-0.1,0.1
						c0,0.3,0.2,0.5,0.3,0.7c0,0.1,0.1-0.1,0.1-0.2c-0.1-0.2-0.1-0.5-0.1-0.7c0,0-0.1,0.1-0.1,0.1c0,0.2,0.1,0.5,0.3,0.6
						c0.2,0.2,0.3-0.2,0.4-0.4c0-0.1-0.1-0.1-0.1,0c-0.1,0.2-0.2,0.1-0.2,0c-0.1-0.1-0.1-0.3-0.2-0.4c0-0.1-0.1,0.1-0.1,0.1
						c0,0.3,0,0.6,0.1,0.8c0-0.1,0.1-0.1,0.1-0.2c-0.1-0.2-0.3-0.4-0.3-0.6c0-0.1-0.1,0.1-0.1,0.1c0,0.1,0,0.3,0,0.4
						c0,0.1,0,0.2,0,0.3c0,0.1,0,0,0,0c-0.1,0-0.1-0.1-0.1-0.1C98.9,65.8,98.8,66,98.8,66.1L98.8,66.1z"/>
				</g>
				<g>
					<path class="st4" d="M100.3,65.2c-0.1,0.1-0.2-0.1-0.3-0.1c-0.1-0.1-0.1-0.2-0.2-0.4c0-0.1-0.1,0.1-0.1,0.2
						c0,0.1,0.1,0.2,0.1,0.3c0,0.1,0,0.1,0.1,0.2c0,0.1,0,0.1-0.1,0.1c-0.2,0-0.3-0.4-0.3-0.6c0-0.1-0.1,0.1-0.1,0.1
						c0,0.1,0.2,0.8,0.5,0.6c0.4-0.3,0-0.8-0.1-1c0,0.1-0.1,0.1-0.1,0.2c0.1,0.2,0.2,0.4,0.3,0.6c0.1,0.1,0.3-0.1,0.3-0.2
						C100.5,65,100.4,65,100.3,65.2L100.3,65.2z"/>
				</g>
				<g>
					<g>
						<path class="st4" d="M93.6,65.4c-0.1,0.2-0.2,0.4-0.3,0.6c-0.1,0.3,0.2,0.2,0.4,0.1c0.1-0.1-0.1-0.1-0.1,0
							c-0.1,0.1-0.1,0.1,0,0c0-0.1,0-0.1,0.1-0.2c0-0.1,0.1-0.3,0.2-0.4C93.8,65.4,93.6,65.4,93.6,65.4L93.6,65.4z"/>
					</g>
					<g>
						<path class="st4" d="M92.8,65.7c0.1,0,0.3,0,0.2,0.1c0,0.1-0.1,0-0.1,0c-0.1-0.2,0.2-0.5,0.3-0.6c0.1-0.1-0.1-0.1-0.2,0
							c-0.1,0.1-0.6,0.7-0.1,0.8c0.1,0,0.3,0,0.3-0.2c0.1-0.2-0.2-0.2-0.3-0.3C92.9,65.6,92.8,65.6,92.8,65.7
							C92.8,65.6,92.8,65.7,92.8,65.7L92.8,65.7z"/>
					</g>
				</g>
				<g>
					<path class="st4" d="M90.7,62.6c-0.2,0.2-0.4,0.3-0.6,0.5c-0.1,0,0.1,0.1,0.2,0.1c0.1-0.1,0.2-0.1,0.3-0.2c0.1,0,0.2-0.1,0.2,0
						c0.1,0,0.1,0,0.2,0c0-0.4-0.4-0.2-0.6-0.2c0,0,0,0.1,0,0.1c0.1,0.1,0,0.2,0,0.2c-0.1,0.1-0.1,0.1-0.1,0.2
						c0.1,0.1,0.3,0.2,0.4,0.2c0.1,0,0-0.1-0.1-0.1c-0.1,0-0.1-0.1-0.1-0.2c0,0,0.1-0.1,0.1-0.1c0.1-0.1,0-0.2-0.1-0.3
						c0,0,0,0.1,0,0.1c0.1,0,0.3-0.2,0.3,0c0,0.1,0.2,0.1,0.2,0c0-0.5-0.7-0.1-0.9,0c0.1,0,0.1,0.1,0.2,0.1c0.2-0.2,0.5-0.3,0.7-0.5
						C90.9,62.6,90.8,62.5,90.7,62.6L90.7,62.6z"/>
				</g>
				<g>
					<path class="st4" d="M90,62.6c-0.1-0.1-0.1-0.2,0-0.3c0.1-0.1,0.3-0.2,0.4-0.3c0.1,0-0.1-0.2-0.1-0.1c-0.1,0-0.2,0.1-0.3,0.1
						c-0.1,0-0.1,0-0.2,0.1c-0.1,0-0.1,0-0.1-0.1c0-0.2,0.4-0.3,0.5-0.3c0.1,0-0.1-0.2-0.1-0.2c-0.1,0-0.8,0.1-0.6,0.5
						c0.2,0.4,0.7,0.1,0.9,0c0,0-0.1-0.1-0.1-0.1c-0.2,0.1-0.4,0.2-0.5,0.4c-0.1,0.2,0.1,0.4,0.2,0.4C90.1,62.7,90.1,62.6,90,62.6
						L90,62.6z"/>
				</g>
				<g>
					<g>
						<path class="st4" d="M98.1,65.9c-0.1-0.2-0.2-0.3-0.3-0.1c-0.1,0.1-0.1,0.4-0.1,0.5c0,0.1,0.1,0.3,0.3,0.3
							c0.2,0,0.3-0.3,0.4-0.5c0-0.1-0.1,0-0.1,0.1c0,0.1-0.1,0.2-0.2,0.2c-0.1,0-0.1-0.1-0.1-0.2c0-0.1,0-0.2,0-0.3c0,0,0,0,0,0
							c0-0.1,0,0,0,0c0.1,0,0.1,0.1,0.1,0.2C98,66.1,98.1,65.9,98.1,65.9L98.1,65.9z"/>
					</g>
					<g>
						<path class="st4" d="M97.4,66.6c0,0.2,0.2,0.2,0.3,0c0.1-0.1,0.1-0.3,0.1-0.5c0-0.1-0.1-0.3-0.2-0.3c-0.1,0-0.1,0.1-0.2,0.1
							c-0.1,0.1-0.1,0.2-0.1,0.3c0,0.1,0.2-0.1,0.1-0.1c0-0.1,0-0.1,0.1-0.1c0,0.1,0.1,0.1,0.1,0.2c0,0.1,0,0.2,0,0.2
							c0,0,0,0.1,0,0.1c0,0,0,0,0,0c-0.1,0-0.1,0-0.1-0.1C97.6,66.3,97.4,66.5,97.4,66.6L97.4,66.6z"/>
					</g>
				</g>
			</g>
		</g>
	</g>
	<g>
		
			<ellipse transform="matrix(0.9981 6.220171e-02 -6.220171e-02 0.9981 3.7349 -2.027)" class="st4" cx="34.4" cy="59" rx="5.8" ry="6.4"/>
		<path class="st5" d="M34.8,52.6L34,65.3c3.2,0.2,6-2.5,6.2-6C40.5,55.8,38,52.8,34.8,52.6z"/>
		<path class="st6" d="M32.1,51c0,0.4-0.4,0.8-0.8,0.8s-0.7-0.4-0.7-0.9c0-0.5,0.4-0.8,0.8-0.8C31.9,50.2,32.2,50.6,32.1,51L32.1,51
			z"/>
		<path class="st7" d="M32,53.8c0,0.6-0.5,1-1,1c-0.5,0-0.9-0.5-0.9-1.1c0-0.6,0.5-1,1-1C31.6,52.7,32,53.2,32,53.8L32,53.8z"/>
		<path class="st7" d="M29.6,52c0,0.3-0.3,0.6-0.6,0.6c-0.3,0-0.6-0.3-0.5-0.7c0-0.3,0.3-0.6,0.6-0.6C29.3,51.4,29.6,51.6,29.6,52
			L29.6,52z"/>
		<g>
			
				<ellipse transform="matrix(0.9981 6.220171e-02 -6.220171e-02 0.9981 3.4035 -2.3694)" class="st8" cx="39.8" cy="53.5" rx="3.2" ry="3.5"/>
			<g>
				<path class="st9" d="M39,52.9c-0.3,0-0.4,0.4-0.4,0.6l0,0l0,0c0,0,0,0.1,0,0.1c0,0.1,0,0.2,0,0.3c0,0,0,0.1,0,0.1
					c-0.1,0-0.2-0.2-0.2-0.2c-0.1-0.2-0.1-0.4-0.1-0.6c0-0.2,0-0.4,0-0.6c0-0.1,0-0.2,0-0.3c0,0,0-0.1,0-0.1c0,0,0-0.1,0-0.1
					c0-0.2-0.2,0-0.2,0c-0.2,0.4-0.2,0.9-0.2,1.3c0,0.1,0,0.2,0,0.4c0,0.1,0,0.2-0.1,0.3c0,0-0.1,0-0.1,0c0,0-0.1-0.1-0.1-0.2
					c0-0.1-0.1,0-0.1,0c0,0-0.1,0.1-0.1,0.2c0,0.2,0.1,0.3,0.3,0.3c0.2-0.1,0.4-0.4,0.4-0.6c0-0.1,0.1-0.2,0.1-0.4
					c0,0.2,0.1,0.3,0.1,0.5c0,0.1,0.1,0.2,0.3,0.2c0.1,0,0.2-0.1,0.2-0.3c0,0.1,0.1,0.2,0.2,0.2c0.1,0,0.3-0.2,0.3-0.3
					c0.1-0.1,0.1-0.3,0.1-0.4C39.3,53.4,39.3,52.9,39,52.9z M39,53.9C39,54,39,54,39,53.9c-0.1,0.1-0.1,0-0.1-0.1
					c0-0.1,0-0.2-0.1-0.3c0-0.1,0-0.2,0-0.3c0,0,0-0.1,0-0.1c0.1,0.1,0.1,0.3,0.1,0.4C39,53.7,39,53.8,39,53.9z"/>
				<path class="st9" d="M42.2,53.5c-0.3-0.1-0.5,0.3-0.5,0.5c-0.1,0.2-0.1,0.6,0.1,0.7c0.1,0.1,0.3,0,0.3-0.1
					c0.1-0.1,0.2-0.2,0.2-0.4C42.3,54.1,42.4,53.7,42.2,53.5z M41.9,54.5C41.9,54.6,41.9,54.6,41.9,54.5c-0.1,0-0.1-0.1-0.1-0.1
					c0-0.1,0-0.2,0-0.3c0-0.1,0.1-0.2,0.1-0.3c0,0,0,0,0-0.1c0.1,0.1,0.1,0.3,0,0.5C42,54.3,42,54.4,41.9,54.5z"/>
				<path class="st9" d="M41.4,53.5c0.1-0.1,0.1-0.2,0.2-0.2c0.1-0.2,0.2-0.4,0.2-0.6c0-0.2-0.2-0.2-0.4-0.2
					c-0.2,0.1-0.3,0.3-0.4,0.5c-0.1,0.3-0.1,0.5-0.2,0.8c0,0,0,0,0,0c-0.1,0.1-0.3,0.3-0.4,0.2c0,0-0.1-0.1-0.1-0.1
					c0.1-0.1,0.2-0.3,0.3-0.4c0.1-0.1,0.2-0.4,0-0.5c-0.1-0.1-0.3,0-0.4,0.1c-0.1,0.1-0.2,0.3-0.2,0.4c0,0.1,0,0.2,0,0.4
					C40,54,39.9,54.1,39.8,54c-0.1,0-0.1-0.2-0.2-0.3c0-0.1,0-0.3,0-0.4c0,0,0-0.1,0-0.1c0,0,0,0,0,0c0.1,0,0.1,0.2,0.1,0.2
					c0,0.1,0.3,0,0.3-0.1c0-0.1-0.1-0.2-0.2-0.3c-0.1-0.1-0.2,0-0.3,0.1c-0.2,0.2-0.2,0.5-0.2,0.7c0,0.2,0,0.4,0.1,0.5
					c0.2,0.1,0.4,0,0.6-0.1c0,0.1,0.1,0.2,0.3,0.2c0.2,0,0.3-0.1,0.5-0.2c0,0.1,0,0.3,0.1,0.4c0.1,0.1,0.3,0,0.4-0.1
					c0.1-0.2,0.2-0.4,0.2-0.6C41.5,53.6,41.5,53.6,41.4,53.5z M40.4,53.4c0,0,0-0.1,0.1-0.1l0,0c0.1,0,0.1,0.1,0.1,0.2
					c0,0.1-0.1,0.2-0.2,0.3c0,0,0,0,0-0.1C40.4,53.6,40.4,53.5,40.4,53.4z M41.4,52.9c0,0,0-0.1,0.1-0.1c0,0,0,0,0,0
					c0.1,0.1,0,0.3-0.1,0.4c-0.1,0.1-0.1,0.2-0.2,0.4c0-0.1,0.1-0.2,0.1-0.4C41.3,53.1,41.3,53,41.4,52.9z M41.2,54.3
					C41.2,54.3,41.2,54.3,41.2,54.3C41.2,54.3,41.2,54.3,41.2,54.3c-0.1,0-0.1-0.2-0.1-0.2c0-0.1,0-0.1,0-0.2c0,0,0.1-0.1,0.1-0.1
					c0.1,0,0.1,0.1,0.1,0.1C41.3,54,41.3,54.2,41.2,54.3z"/>
			</g>
		</g>
		<g>
			<g>
				<path class="st9" d="M34.4,63.3c0,0-0.1,0-0.2,0c0,0,0-0.1,0-0.2c0-0.1-0.1,0-0.1,0.1c0,0.1,0,0.2,0,0.3l0,0l0,0
					c0,0,0,0.1,0,0.1c0,0-0.1,0.1-0.1,0.1c0-0.2,0-0.4,0-0.5c0,0,0,0,0,0l0,0c0,0,0,0,0,0c0,0,0,0,0,0c0,0-0.1,0-0.1,0.1
					c0,0,0,0,0,0c0,0.1-0.1,0.3-0.1,0.4c0,0.1,0,0.2-0.1,0.1c-0.1-0.1,0-0.2,0-0.3c0-0.1,0.1-0.2,0.1-0.3c0-0.1-0.2,0-0.2,0
					c0,0.1-0.1,0.3-0.1,0.5c-0.1,0-0.2,0.1-0.2,0c0-0.1,0-0.1,0-0.2c0-0.1-0.1-0.1-0.1-0.2c0,0,0,0,0,0c0,0,0-0.1,0.1-0.1
					c0,0,0.1,0,0.1,0c0,0.1,0.2,0,0.2-0.1c-0.1-0.1-0.2-0.1-0.3,0c0-0.1,0-0.2,0.1-0.3c0-0.1-0.2,0-0.2,0c0,0.3-0.2,0.5-0.3,0.8
					c0,0.1,0.2,0,0.2,0c0-0.1,0.1-0.1,0.1-0.2c0.1,0.1-0.1,0.3,0,0.3c0.1,0.1,0.3,0,0.4,0c0,0.1,0,0.1,0.1,0.2c0.1,0,0.2,0,0.2-0.1
					c0,0,0,0,0,0c-0.1,0.1-0.2,0.1-0.2,0.2c-0.1,0.1-0.4,0.4-0.1,0.5c0.2,0.1,0.4-0.1,0.4-0.2c0.1-0.1,0.1-0.3,0.1-0.4
					c0,0,0.1-0.1,0.1-0.1c0,0,0,0,0,0c0,0,0,0,0,0c0,0,0,0,0,0c0,0.2-0.1,0.4-0.1,0.6c0,0.1,0.2,0,0.2-0.1c0-0.1,0-0.3,0.1-0.4
					c0.1,0,0.1,0,0.2-0.1c0.1-0.1,0.1-0.3,0.1-0.4C34.5,63.5,34.5,63.4,34.4,63.3z M33.6,64.5c-0.2-0.1,0-0.2,0.2-0.4
					C33.7,64.4,33.6,64.6,33.6,64.5z M34.3,63.9C34.3,63.9,34.3,64,34.3,63.9C34.3,64,34.3,64,34.3,63.9c-0.1,0.1-0.1,0-0.1,0
					c0-0.1,0-0.2,0-0.4c0-0.1,0-0.1,0.1,0c0,0.1,0,0.1,0,0.2C34.4,63.8,34.4,63.9,34.3,63.9z"/>
				<path class="st9" d="M35.8,63C35.8,63,35.8,63,35.8,63c-0.2,0.1-0.1,0.3-0.1,0.5c0,0,0,0.1,0,0.2c0,0.1-0.1,0.2-0.2,0.2
					c-0.2-0.1,0-0.3,0-0.4c0.1-0.3-0.2-0.3-0.3-0.1c-0.1,0.1,0,0.2,0,0.1c0.1-0.1,0.2,0,0.1,0.1c0,0.1-0.1,0.2-0.1,0.3
					c0,0,0,0.1,0,0.1c-0.1,0.1-0.1,0.1-0.2,0c0-0.1,0-0.2-0.1-0.3c0-0.1,0-0.1,0-0.1c0,0,0,0,0-0.1c0,0,0,0,0,0c0-0.2-0.3,0-0.3,0.1
					c-0.1,0.2-0.1,0.4-0.1,0.5c0,0.2,0.2,0.2,0.3,0.1c0,0,0,0,0,0c0,0,0,0,0,0.1c0.1,0.1,0.2,0,0.3-0.1c0,0,0,0,0,0
					c0.1,0.1,0.3-0.1,0.4-0.2c0,0.1,0.1,0.1,0.2,0.1c0.2-0.1,0.2-0.3,0.1-0.5C36.1,63.2,35.9,62.9,35.8,63z M34.9,63.9
					C34.8,63.9,34.8,63.9,34.9,63.9c-0.1-0.1-0.1-0.2-0.1-0.3c0,0,0-0.1,0-0.1c0,0,0,0,0-0.1c0,0,0.1,0,0.1,0c0,0.1,0,0.2,0,0.4
					C34.9,63.8,34.9,63.9,34.9,63.9z M36,63.5C36,63.5,36,63.5,36,63.5c0,0.1,0,0.1,0,0.1s-0.2-0.1-0.2-0.2c0-0.1,0-0.1-0.1-0.2
					c0,0,0-0.1,0-0.1c0,0,0,0,0,0c0.1,0,0.1,0.1,0.2,0.2C36,63.4,36,63.4,36,63.5z"/>
				<path class="st9" d="M36.2,62.7c0.1,0,0.1-0.2,0.1-0.3c0,0,0-0.1,0,0c0,0,0,0.1,0,0.1c0,0,0,0,0,0c0,0,0,0,0,0c0,0,0,0,0,0
					c0,0,0,0,0,0c0,0,0,0,0,0c0,0,0,0,0,0s-0.1,0-0.1,0C36.1,62.6,36.1,62.7,36.2,62.7C36.1,62.7,36.1,62.7,36.2,62.7z"/>
				<path class="st9" d="M36.8,63.1c0,0.1-0.2-0.1-0.2-0.1c0,0,0-0.1-0.1-0.1c0-0.1-0.1-0.1-0.1-0.2c0,0,0,0,0,0
					c0-0.1-0.1,0.1-0.1,0.2c0,0.1,0.1,0.2,0.1,0.3c0,0.1,0,0.1,0.1,0.2c0,0.1,0,0.1,0,0.1c-0.2,0-0.2-0.4-0.3-0.5
					c0-0.1-0.1,0.1-0.1,0.1c0,0.1,0.1,0.8,0.4,0.6c0.1-0.1,0.1-0.1,0.1-0.2C36.7,63.4,36.8,63.3,36.8,63.1
					C36.9,63,36.8,63,36.8,63.1z"/>
				<path class="st9" d="M32.1,63.1c-0.1,0-0.2,0-0.2-0.1c-0.1-0.1,0-0.2,0-0.2c0-0.1,0.1-0.1,0.1-0.2c0,0,0,0,0,0c0,0,0.1,0,0,0
					c0,0,0,0.1,0,0.1c0,0.1,0.2,0.1,0.2,0c0-0.1,0-0.3-0.1-0.3c-0.2,0-0.3,0.1-0.4,0.3c-0.1,0.1-0.1,0.2,0,0.4
					C31.8,63.2,32,63.2,32.1,63.1C32.3,63.2,32.2,63.1,32.1,63.1z"/>
			</g>
		</g>
		<g>
			<g>
				<g>
					<path class="st9" d="M34.6,57.1C34.6,57.1,34.6,57.1,34.6,57.1C34.6,57.1,34.6,57.1,34.6,57.1c-0.4,0-0.5,0.4-0.5,0.7
						c0,0.2,0,0.7,0.3,0.7c0.1,0,0.3-0.1,0.3-0.2c0.1-0.1,0.1-0.3,0.1-0.4C34.9,57.6,34.9,57.1,34.6,57.1z M34.6,58.1
						C34.6,58.1,34.6,58.2,34.6,58.1C34.6,58.2,34.5,58.2,34.6,58.1C34.5,58.2,34.5,58.2,34.6,58.1c-0.2,0.1-0.2-0.3-0.2-0.4
						c0-0.1,0-0.2,0.1-0.3c0,0,0-0.1,0-0.1c0.2,0,0.2,0.4,0.2,0.5C34.6,57.9,34.6,58,34.6,58.1z"/>
					<path class="st9" d="M33.9,57.1c-0.1-0.1-0.2,0-0.3,0.1c0-0.1,0-0.2,0-0.3c0-0.1-0.1,0-0.2,0c0,0-0.1,0.1-0.1,0.1c0,0,0,0,0,0
						c0,0.1,0,0.1-0.1,0.2c0,0,0,0,0,0c-0.1,0-0.2,0-0.2-0.1c0,0,0,0,0,0c0,0-0.1,0-0.1,0c0,0,0,0,0,0c0,0,0,0,0,0
						c-0.3,0.1-0.4,0.5-0.4,0.8c0,0.2,0.1,0.7,0.4,0.7c0.1,0,0.3-0.2,0.3-0.3c0.1-0.1,0.1-0.3,0.1-0.5c0-0.1,0-0.2,0-0.4
						c0.1,0,0.1-0.1,0.1-0.1c0,0.3,0.1,0.7,0.1,1c0,0.3,0,0.6,0,0.9c0,0.1,0.1,0.1,0.1,0c0.1,0,0.1-0.1,0.1-0.2c0-0.2,0-0.4,0-0.7
						c0.1,0,0.2,0,0.3-0.1c0.2-0.2,0.2-0.5,0.2-0.7C34.1,57.5,34,57.2,33.9,57.1z M32.9,58.1C32.9,58.2,32.9,58.2,32.9,58.1
						c0,0.1,0,0.1,0,0.1c0,0,0,0,0,0c-0.2,0-0.2-0.3-0.2-0.5c0-0.1,0-0.2,0-0.3c0,0,0-0.1,0-0.1c0,0,0,0,0,0c0,0,0,0,0,0
						c0,0,0,0,0,0c0.1,0.1,0.1,0.3,0.1,0.4C33,57.9,33,58,32.9,58.1z M33.6,57.3C33.6,57.3,33.6,57.3,33.6,57.3L33.6,57.3z
						 M33.8,58.2C33.8,58.2,33.8,58.2,33.8,58.2L33.8,58.2z M33.8,58.2C33.8,58.2,33.8,58.2,33.8,58.2
						C33.8,58.2,33.8,58.2,33.8,58.2c-0.1,0-0.2-0.1-0.2-0.1c0,0,0,0,0,0c0-0.2,0-0.4,0-0.5c0,0,0,0,0,0c0-0.1,0-0.1,0-0.2l0,0
						c0,0,0,0,0,0c0,0,0.1,0,0.1,0.1c0.1,0.1,0.1,0.3,0.1,0.4C33.8,57.9,33.8,58.1,33.8,58.2z"/>
					<path class="st9" d="M32,57.5c0-0.1,0.1-0.2,0.1-0.4c0-0.2,0.1-0.5,0-0.6c-0.1-0.2-0.3,0-0.4,0.1c-0.1,0.2-0.2,0.5-0.2,0.7
						c0,0.3,0,0.5,0.1,0.8c0,0.1-0.1,0.3-0.1,0.4c0,0,0,0,0,0c0,0,0,0,0,0c0,0,0-0.1,0-0.1c-0.1-0.4-0.1-0.8-0.3-1.2
						c0-0.1-0.1-0.3-0.3-0.2c-0.1,0.1-0.2,0.2-0.2,0.3c-0.1-0.1-0.2-0.2-0.4-0.1c-0.1,0-0.1,0.1-0.2,0.2c0-0.1,0-0.1-0.1-0.2
						c-0.1-0.1-0.3,0.2-0.2,0.3c0.1,0,0.1,0.1,0.1,0.2c0,0.1,0.1,0.3,0.1,0.4c0,0.1,0,0.1,0.1,0.2c0.1,0.3,0.2,0.6,0.2,0.9
						c0,0,0,0,0,0c0.1,0,0.2-0.2,0.2-0.3c-0.1-0.3-0.1-0.5-0.2-0.8c0-0.1,0-0.2-0.1-0.3c0-0.1,0-0.2,0-0.4c0,0,0,0,0-0.1
						c0.2-0.1,0.3,0.4,0.3,0.4c0,0.2,0.1,0.3,0.1,0.5c0,0.2,0.1,0.5,0.2,0.7c0,0,0,0,0,0c0.1,0,0.2-0.2,0.2-0.2
						c-0.1-0.2-0.1-0.5-0.1-0.7c0-0.1,0-0.1,0-0.2c0-0.2-0.1-0.4,0-0.6c0,0,0,0,0,0c0,0,0.1,0.1,0.1,0.1c0.1,0.2,0.2,0.5,0.2,0.7
						c0,0.2,0.1,0.3,0.1,0.5c0,0.1,0,0.2,0.1,0.3c0.1,0.1,0.2,0,0.2,0c0.1-0.1,0.1-0.2,0.2-0.3c0.1,0.1,0.1,0.3,0.2,0.3
						c0.2,0,0.3-0.2,0.4-0.4c0-0.2,0.1-0.6-0.1-0.7C32.1,57.5,32.1,57.5,32,57.5z M31.8,57.2c0-0.2,0-0.4,0.1-0.6c0,0,0,0,0,0
						c0.1,0,0.1,0.1,0.1,0.1c0,0.2,0,0.4-0.1,0.6c0,0.1,0,0.1-0.1,0.2C31.8,57.5,31.8,57.4,31.8,57.2z M32.1,58.1c0,0.1,0,0.2,0,0.3
						c0,0,0,0,0,0c0,0,0,0,0,0c0,0-0.1-0.1-0.1-0.1c0-0.1-0.1-0.2-0.1-0.3c0,0,0-0.1,0.1-0.2c0,0,0.1,0,0.1,0
						C32.1,57.9,32.1,58,32.1,58.1z"/>
					<path class="st9" d="M38.8,59.5c0,0-0.1-0.1-0.1,0c0,0,0,0,0,0c0,0,0,0,0-0.1c0,0,0-0.1,0-0.2c0-0.1,0.1-0.2,0.1-0.4
						c0,0,0,0,0,0c0-0.1,0.1-0.2,0.1-0.3c0,0,0,0,0,0l0,0c0-0.1,0.1-0.1,0.1-0.2c0-0.1-0.1-0.1-0.1-0.1c0,0,0,0,0,0
						c0-0.1-0.1-0.1-0.2-0.1c-0.3,0-0.5,0.3-0.5,0.5c0,0.1,0,0.3,0.2,0.4c0,0,0,0,0.1,0c0,0.1-0.1,0.1-0.1,0.1
						c-0.1,0-0.1-0.1-0.1-0.1c0,0,0-0.1-0.1-0.1c0,0,0,0,0,0c-0.1,0-0.1,0-0.2,0c0,0,0,0,0,0c0-0.1,0-0.1,0-0.2
						c0-0.2,0.1-0.5,0.2-0.7c0,0,0,0,0,0c0-0.1,0-0.3-0.2-0.3c-0.2,0-0.3,0-0.4,0.1c-0.1,0.1-0.2,0.3-0.3,0.5l0,0
						c0,0.1-0.1,0.2-0.1,0.2c0,0,0,0,0,0c0,0,0,0,0,0c0-0.1,0-0.2,0-0.3c0-0.2,0.1-0.4,0.2-0.6c0,0,0.1-0.1,0.1-0.1
						c0-0.1,0-0.1-0.1-0.1c-0.1,0-0.2,0-0.2,0.1c0,0-0.1,0.1-0.1,0.2c0,0.1-0.1,0.1-0.1,0.2c0,0-0.1,0.1-0.1,0.1c0,0,0,0,0,0
						c0-0.2,0.1-0.4,0.1-0.6c0,0,0,0,0-0.1c0,0,0,0,0,0c0,0,0,0,0,0c0,0,0,0,0,0c0,0,0,0,0,0l0,0c0,0,0,0-0.1,0
						c-0.1,0-0.1,0-0.1,0.1c0,0,0,0,0,0c-0.1,0.3-0.2,0.6-0.4,0.8c0,0,0,0,0,0c0,0,0,0,0,0l0,0c0,0,0,0,0,0c-0.1,0-0.1-0.1-0.1-0.2
						c0-0.2,0-0.4,0.1-0.6c0,0,0-0.1,0-0.1c0,0,0-0.1,0-0.1c0,0,0,0,0,0c0,0,0,0,0,0c0,0,0,0.1,0.1,0.1c0,0.1,0.3,0,0.3-0.2
						c-0.1-0.2-0.2-0.2-0.4-0.1c-0.1,0-0.2,0.1-0.2,0.2c0,0,0,0,0,0c0,0,0,0,0,0c0,0,0,0,0,0.1c0,0,0,0,0,0c0,0-0.1,0.1-0.1,0.1
						c0-0.2,0.1-0.4,0.1-0.5c0-0.1-0.2,0-0.3,0.1c0,0.1-0.1,0.2-0.1,0.2c0-0.1,0-0.2,0-0.2c-0.1-0.2-0.3-0.2-0.4-0.1
						c0,0-0.1,0.1-0.1,0.2c0,0,0.1,0,0.1,0c0,0,0,0,0,0c0,0,0,0,0,0c0,0,0,0.1,0,0.1c0,0.1,0,0.2,0,0.4c0,0.1,0,0.2-0.1,0.3
						c0,0,0,0,0,0c0,0,0,0,0,0c0,0,0-0.1-0.1-0.1c0-0.1-0.3,0.1-0.2,0.2c0.1,0.2,0.3,0.1,0.4,0c0-0.1,0.1-0.1,0.1-0.2
						c0-0.1,0.1-0.1,0.1-0.2c0,0.2-0.1,0.4-0.1,0.6c0,0.1,0.1,0.1,0.1,0.1c0.1,0,0.1-0.1,0.1-0.1c0-0.1,0.1-0.1,0.1-0.2
						c0,0.1,0,0.1,0,0.2c0,0.1,0.1,0.2,0.1,0.2c0.1,0.1,0.3,0,0.4-0.1c0.1-0.1,0.1-0.1,0.2-0.2c0,0.1-0.1,0.2-0.1,0.4
						c0,0.1,0.1,0.1,0.1,0.1c0.1,0,0.1-0.1,0.2-0.1c0-0.1,0.1-0.2,0.2-0.3c0,0,0.1-0.1,0.1-0.1c0,0,0,0,0,0c0,0.2-0.1,0.3-0.1,0.5
						c0,0.2,0.1,0.2,0.2,0.2c0.1,0,0.1,0,0.2-0.1c0,0.1,0,0.1,0.1,0.2c0.1,0.1,0.2,0.1,0.3,0c0,0,0,0,0,0c0,0,0,0,0,0.1
						c0,0.2,0.1,0.2,0.2,0.2c0.1,0.1,0.3,0.2,0.4,0.1c0,0,0.1,0,0.1,0c0,0,0,0.1,0,0.1c0,0.2,0.2,0.2,0.3,0.2
						C38.7,59.6,38.8,59.6,38.8,59.5z M37.5,58.9C37.5,58.9,37.5,58.9,37.5,58.9c-0.1-0.1-0.1-0.1-0.1-0.2c0-0.1,0-0.1,0-0.2
						c0,0,0,0,0,0c0,0,0,0,0,0c0-0.1,0.1-0.2,0.1-0.3c0,0,0.1-0.1,0.1-0.1c0,0,0,0,0,0c0,0,0,0,0,0c0.1,0,0.1,0.1,0.1,0.1
						C37.7,58.4,37.7,58.6,37.5,58.9C37.5,58.9,37.5,58.9,37.5,58.9z M37.8,59.1L37.8,59.1L37.8,59.1L37.8,59.1z M38.4,58.7
						c0-0.1,0.1-0.3,0.2-0.3c0,0,0,0,0,0c0,0,0,0.1,0,0.2c-0.1,0.1-0.1,0.2-0.1,0.3C38.4,58.8,38.4,58.8,38.4,58.7z M38.6,59.5
						C38.6,59.5,38.6,59.5,38.6,59.5L38.6,59.5z"/>
				</g>
			</g>
			<g>
				<path class="st9" d="M38.4,61.4c-0.1,0.1-0.1,0.2-0.2,0.2c0,0,0,0,0,0c0,0,0-0.2,0-0.2c0-0.2,0.1-0.3,0.1-0.4c0,0,0-0.1,0-0.1
					c0-0.1,0-0.1,0.1-0.2c0,0,0,0,0,0c0.1-0.1,0-0.3-0.2-0.3c-0.1,0-0.3,0-0.4,0.1c-0.1,0.1-0.2,0.3-0.3,0.5c0,0,0,0,0,0
					c0,0.1-0.1,0.1-0.1,0.2c0,0,0,0,0,0c-0.1,0,0-0.1,0-0.2c0-0.1,0-0.2,0-0.3c0-0.1-0.1-0.1-0.2-0.1c0,0,0,0,0,0c0,0,0,0,0,0
					c0-0.1,0.1-0.2,0.2-0.2c0,0,0,0,0,0c0,0,0,0,0,0c0,0,0.1,0.1,0.1,0.1c0.1,0.1,0.3,0,0.3-0.1c-0.1-0.1-0.2-0.2-0.3-0.1
					c-0.1,0-0.1,0-0.2,0.1c0,0,0,0,0,0c0-0.1,0.1-0.3,0.1-0.4c0-0.1-0.3,0-0.3,0.1c0,0.2,0,0.4-0.1,0.6c0,0,0,0,0,0
					c-0.1,0.2-0.2,0.3-0.3,0.4c0,0,0,0-0.1,0c0,0,0,0,0,0c0,0,0,0,0,0c0,0,0-0.1,0-0.1c0-0.2,0-0.3,0.1-0.5c0-0.1,0.1-0.2,0.1-0.3
					c0,0,0-0.1,0.1-0.1c0-0.1,0-0.1-0.1-0.1c-0.1,0-0.2,0-0.2,0.1c0,0.1-0.1,0.1-0.1,0.2c0,0.1-0.1,0.1-0.1,0.2c0,0-0.1,0.1-0.1,0.1
					c0,0,0,0,0,0c0-0.2,0.1-0.4,0.1-0.6c0-0.1-0.3,0-0.3,0.1c0,0.1,0,0.2,0,0.3c0,0,0,0,0,0c0,0.2-0.1,0.4-0.2,0.6c0,0,0,0,0,0
					c0,0,0-0.1-0.1-0.2c0-0.2,0-0.3,0-0.5c0,0,0-0.1,0-0.1c0-0.1,0-0.1,0-0.2c0,0,0,0,0,0c0-0.1-0.1-0.2-0.3-0.2
					c-0.2,0-0.3,0.1-0.4,0.2c-0.1,0.2-0.2,0.3-0.2,0.5c0,0,0,0,0,0c0,0.1,0,0.2-0.1,0.2c0,0,0,0,0,0c-0.1,0-0.1-0.1-0.1-0.2
					c0-0.1,0-0.2-0.1-0.3c0-0.1-0.1-0.1-0.2-0.1c0,0,0,0,0,0c0,0,0,0,0-0.1c0-0.1,0.1-0.2,0.1-0.2c0,0,0,0,0,0c0,0,0,0,0,0
					c0,0,0.1,0,0.1,0.1c0.1,0.1,0.3-0.1,0.2-0.2c-0.1-0.1-0.2-0.1-0.3,0c-0.1,0-0.1,0.1-0.2,0.1c0,0,0,0,0,0c0-0.1,0-0.3,0-0.4
					c0-0.1-0.3,0.1-0.2,0.2c0,0.1,0,0.2,0,0.4c-0.1,0.2-0.1,0.3-0.2,0.5c-0.1,0.1-0.1,0.2-0.2,0.2c-0.1,0.1-0.2,0-0.3-0.1
					c0,0,0,0,0,0c0.2-0.2,0.3-0.4,0.3-0.7c0-0.1-0.1-0.3-0.2-0.3c-0.2,0-0.3,0.2-0.3,0.3c-0.1,0.2-0.1,0.3-0.1,0.5
					c0,0.1,0,0.1,0,0.2c0,0,0,0-0.1,0.1c0,0-0.1,0.1-0.1,0.1c0,0,0,0-0.1,0c-0.1-0.1-0.1-0.3-0.1-0.4c0-0.1,0-0.3-0.1-0.4
					c0-0.1-0.1-0.2-0.2-0.2c-0.1,0-0.2,0.1-0.3,0.3c0,0,0,0,0,0c0-0.1,0-0.1-0.1-0.2c0-0.1-0.3,0.1-0.2,0.2c0.1,0.1,0.1,0.3,0.1,0.4
					l0,0c0,0,0,0,0,0l0,0c0,0.1,0,0.1,0,0.2c0,0.1-0.1,0.2-0.1,0.3c0,0,0,0,0,0c0,0,0,0,0-0.1c0-0.1-0.1-0.1-0.1-0.2
					c-0.1-0.2-0.1-0.4-0.1-0.6c0,0,0,0,0,0c0-0.1-0.2-0.2-0.3-0.1c-0.1,0.1-0.2,0.2-0.3,0.3c-0.1,0.2,0,0.5,0,0.7
					C31,60.8,31,60.9,30.9,61c0,0-0.1-0.1-0.2-0.1c0.1-0.2,0-0.5-0.1-0.7c0-0.1-0.1-0.3-0.3-0.2c-0.1,0-0.2,0.2-0.3,0.3
					c-0.1,0.1-0.1,0.3,0,0.4c0,0.1,0.2-0.1,0.2-0.2c0,0,0-0.1,0-0.1c0,0,0,0,0,0c0,0,0,0,0,0c0,0,0,0,0,0c0.1,0,0.1,0.1,0.2,0.2
					c0,0.1,0.1,0.2,0.1,0.3c0,0,0,0.1,0,0.1c0,0,0,0-0.1,0.1c0,0,0,0,0,0.1c0,0-0.1,0.1,0,0.2c0,0,0,0,0,0c0,0,0,0,0,0
					c0,0,0.1,0,0.1-0.1c0.1,0,0.1,0,0.1,0.1c-0.1,0.2-0.2,0.3-0.2,0.5c0,0.2,0,0.4,0.1,0.6c0.1,0.1,0.2,0.1,0.3,0
					c0.2-0.2,0.2-0.6,0.2-0.9c0-0.1,0-0.2-0.1-0.3c0.1-0.1,0.1-0.1,0.2-0.2c0,0.1,0.1,0.2,0.2,0.2c0.1,0,0.2-0.1,0.3-0.2
					c0,0,0,0,0,0c0,0.1,0.1,0.2,0.2,0.1c0.1-0.1,0.2-0.2,0.2-0.3c0,0.1,0,0.1,0,0.2c0,0.1,0.2-0.1,0.2-0.2c0-0.2,0-0.4,0-0.6
					c0-0.1,0-0.2,0-0.2c0,0,0-0.1,0-0.1c0,0,0,0,0,0c0,0,0,0,0,0c0,0,0.1,0.1,0.1,0.2c0,0.1,0,0.3,0,0.4c0,0.1,0,0.6,0.3,0.5
					c0.1,0,0.2-0.1,0.3-0.2c0,0,0,0.1,0.1,0.1c0.1,0.2,0.3,0,0.5,0c0.2-0.1,0.3-0.3,0.4-0.4c0,0.2,0,0.3,0,0.5c0,0.1,0.1,0.1,0.1,0
					c0.1,0,0.1-0.1,0.1-0.2c0-0.1,0-0.2,0.1-0.4c0.1,0,0,0.4,0.1,0.5c0.1,0.1,0.2,0,0.3,0c0,0,0.1,0,0.1-0.1c0,0.1,0,0.1,0.1,0.2
					c0.1,0.1,0.2,0,0.3-0.1c0,0,0,0,0,0c0,0.1,0,0.2,0.1,0.2c0.1,0,0.2,0,0.3-0.1c0,0,0.1-0.1,0.1-0.1c0,0.1,0,0.1,0,0.2
					c0,0.1,0.1,0.1,0.1,0.1c0.1,0,0.1-0.1,0.2-0.1c0-0.1,0.1-0.2,0.1-0.3c0,0,0.1-0.1,0.1-0.1c0,0,0,0,0,0c0,0,0,0,0,0.1
					c0,0.2-0.1,0.4,0,0.5c0,0.2,0.3,0,0.4,0c0.1,0,0.1-0.1,0.2-0.1c0,0.1-0.1,0.2-0.1,0.2c0,0.1,0,0.1,0.1,0.1
					c0.1,0,0.1-0.1,0.2-0.1c0-0.1,0.1-0.2,0.1-0.3c0.1,0.1-0.1,0.4,0,0.5c0.1,0.1,0.2,0.1,0.3,0c0,0,0.1,0,0.1,0
					c0,0.1,0,0.1,0.1,0.2c0.1,0.1,0.2,0.1,0.3,0c0,0,0,0,0,0c0,0.1,0,0.2,0.1,0.2c0.1,0.1,0.2,0,0.3,0c0.1,0,0.2-0.1,0.3-0.2
					C38.6,61.4,38.5,61.3,38.4,61.4z M30.9,62.1L30.9,62.1C30.9,62.1,30.9,62.1,30.9,62.1c0,0-0.1,0-0.1,0c-0.1-0.1-0.1-0.3-0.1-0.4
					c0-0.1,0.1-0.2,0.1-0.3c0,0,0,0,0,0.1c0,0.1,0.1,0.2,0.1,0.4C30.9,61.9,30.9,62,30.9,62.1z M31.5,60.8
					C31.5,60.8,31.5,60.8,31.5,60.8c-0.1,0-0.1-0.1-0.1-0.1c-0.1-0.2-0.1-0.4-0.1-0.5c0-0.1,0-0.1,0-0.2c0,0,0,0,0,0c0,0,0,0,0,0
					c0.1,0,0.1,0,0.1,0.1C31.5,60.3,31.5,60.5,31.5,60.8C31.5,60.8,31.5,60.8,31.5,60.8z M33.3,60.2c0-0.1,0-0.2,0-0.4
					c0-0.1,0-0.1,0-0.2c0,0,0,0,0,0c0,0,0,0,0,0c0,0,0.1,0.1,0.1,0.1C33.5,59.9,33.4,60.1,33.3,60.2z M35.2,60.6
					C35.2,60.6,35.1,60.6,35.2,60.6C35.1,60.6,35.1,60.6,35.2,60.6c-0.1,0-0.1-0.1-0.1-0.1c0-0.2,0-0.4,0.1-0.5c0,0,0.1-0.1,0.1-0.2
					c0,0,0,0,0,0c0,0,0,0,0,0c0.1,0,0.1,0.1,0.1,0.1C35.3,60.1,35.2,60.3,35.2,60.6z M38.1,60.7c-0.1,0.2-0.2,0.4-0.3,0.6
					c0,0,0,0,0,0c0,0,0,0,0,0c0,0,0-0.1,0-0.2c0-0.2,0.1-0.4,0.2-0.5c0,0,0.1-0.1,0.1-0.1c0,0,0,0,0,0c0,0,0,0,0,0
					C38.1,60.6,38.2,60.7,38.1,60.7z"/>
				<polygon class="st9" points="30.9,62.1 30.9,62.1 30.9,62.1 				"/>
				<path class="st9" d="M30.9,62.1C30.9,62.1,30.9,62.1,30.9,62.1L30.9,62.1z"/>
				<path class="st9" d="M33.3,59.7C33.3,59.7,33.3,59.7,33.3,59.7L33.3,59.7z"/>
			</g>
		</g>
		<g>
			<path class="st10" d="M27.5,55.8C27.5,55.8,27.5,55.8,27.5,55.8c-0.2-0.1-0.3-0.1-0.4-0.1c-0.3,0-0.4,0-0.7-0.2
				c0-0.3,0.2-0.5,0.3-0.7c0.1-0.2,0-0.5,0-0.7c0-0.1,0-0.3,0-0.5c-0.1,0.1-0.1,0.4-0.1,0.5c0-0.2,0-0.4-0.1-0.6
				c-0.1,0.2,0,0.4,0,0.6c0-0.2,0-0.4-0.1-0.5c-0.1,0.2,0,0.4,0,0.6c-0.1-0.2-0.1-0.3-0.1-0.5c0,0.2,0,0.4,0,0.5
				c0-0.1-0.1-0.3-0.2-0.4c0,0.1,0.1,0.3,0.1,0.4c-0.1,0-0.1-0.2-0.2-0.2c0,0.1,0.1,0.2,0.1,0.2c-0.1,0-0.1-0.1-0.1-0.1
				c0,0.1,0.1,0.1,0.1,0.2c0,0-0.1-0.1-0.1-0.1c0,0.1,0.1,0.1,0.1,0.2c0,0-0.1,0-0.1,0c0,0,0.1,0.1,0,0.1c0,0,0,0-0.1,0
				c0,0,0,0,0,0.1c0,0,0,0,0,0c0,0,0,0,0,0.1c-0.3,0.3-0.1,0.6-0.2,0.9c0,0-0.2-0.1-0.3-0.2c-0.1,0-0.1-0.2-0.2-0.2c0,0,0,0,0,0
				c0,0-0.1,0-0.1-0.1c0,0,0.1,0,0.1,0c0,0-0.2-0.1-0.1-0.1c0.1,0,0.1,0,0.2,0c-0.1,0-0.2-0.1-0.2-0.2c0.1,0,0.1,0.1,0.2,0.1
				c-0.1-0.1-0.2-0.2-0.3-0.2c0.1,0,0.2,0.1,0.2,0.1c-0.1,0-0.2-0.2-0.3-0.2c0,0.1,0.2,0.2,0.2,0.3c-0.1-0.1-0.2-0.1-0.3-0.2
				c0,0.1,0.2,0.2,0.2,0.3c-0.1,0-0.1-0.1-0.2-0.1c0,0.1,0.2,0.1,0.2,0.2c0,0-0.1,0-0.1,0c0,0.1,0.1,0.1,0.1,0.1c-0.1,0-0.1,0-0.1,0
				c0,0,0.1,0,0.1,0.1c0,0-0.1,0-0.1,0c0,0,0.1,0,0.1,0c0,0,0,0,0,0c0,0,0,0,0.1,0c0,0,0,0,0,0c0.1,0.1,0.2,0.3,0.4,0.4
				c-0.1,0.1,0.1,0.1-1.1,0.5c0,0,0.5-0.1,0.6-0.1c0.1,0,0.3-0.1,0.4-0.1c0,0,0.1,0,0.1,0c0.2,0,0.4,0,0.7-0.1c-0.2,0-0.5,0-0.6-0.1
				c0.2-0.2,0.1-0.9,0.2-1c0.1-0.1,0.3-0.5,0.6-0.2c0,0.1,0,0.1-0.1,0.3c-0.1,0.2-0.2,0.3-0.2,0.7c0,0.1,0,0.2-0.1,0.2
				c0.5,0.1,0.6,0.1,0.9,0.1c0.1,0,0.2-0.1,0.2,0c0,0-0.1,0-0.2,0c-0.1,0,0.1,0.1,0.1,0.1c0,0,0.3,0,0.4,0
				C27.7,55.9,27.6,55.9,27.5,55.8z"/>
			<path class="st10" d="M26.3,53c-1.1-0.1-2.1,0.9-2.2,2.1c-0.1,1.2,0.8,2.3,1.9,2.3c1.1,0.1,2.1-0.9,2.2-2.1
				C28.2,54.1,27.4,53.1,26.3,53 M26.3,53.1c1.1,0.1,1.9,1.1,1.8,2.2c-0.1,1.2-1,2.1-2.1,2c-1.1-0.1-1.9-1.1-1.8-2.2
				C24.3,53.9,25.2,53.1,26.3,53.1"/>
		</g>
		<g>
			<g>
				<path class="st11" d="M41.7,62.8c0,0.3-0.3,0.6-0.6,0.5c-0.3,0-0.5-0.3-0.5-0.6c0-0.3,0.3-0.6,0.6-0.5
					C41.5,62.2,41.8,62.5,41.7,62.8"/>
				<path class="st7" d="M41.9,61.7c0,0,0.3-0.6-0.6-1.1C41.3,60.6,40.6,61.5,41.9,61.7"/>
				<path class="st12" d="M40.7,63.6c0,0-0.8-1,0.2-2c0,0,0.5-0.5,1,0.1C42,61.7,40.9,62.3,40.7,63.6"/>
				<path class="st13" d="M41.2,63.8c-0.3,0-0.8,0-0.4-1.1c0.1-0.2,0.2-0.4,0.3-0.5c0.6-0.6,1.2-0.6,1.3,0.2
					C42.7,63.4,41.7,63.7,41.2,63.8"/>
				<path class="st14" d="M41.1,63.6c0,0,1,0,1.1-0.8C42.2,62.8,41.8,63.6,41.1,63.6"/>
				<path class="st14" d="M40.7,62.8c0,0,0.2-1,0.8-1.1C41.5,61.7,40.8,61.7,40.7,62.8"/>
				<path class="st7" d="M41.9,61.7c0,0,0.7,0.4,1.4-0.9C43.3,60.8,41.9,60.2,41.9,61.7 M42.1,61.6c0.4,0.1,1.1-0.7,1.1-0.7
					C42.5,62,42,61.6,42.1,61.6z"/>
			</g>
			<path class="st12" d="M43,62.3c0.1,0,0.1,0.1,0.2,0.1c0.2,0.2-0.1,0.2,0,0.3c0.1,0.1,0.5,0,0.5,0.5c0.1,0.5-0.5,1-1.1,0.9
				c-0.6,0-1-0.5-1-1.1c0-0.5,0.6-1,1.1-0.9C42.9,62.2,42.9,62.3,43,62.3"/>
			<path class="st13" d="M41.8,63.7c0,0-0.6-0.8,0.3-1.3c0,0,0.6-0.3,1,0c0,0,0.1,0.1,0,0.2c-0.1,0.1,0,0.2,0,0.2c0,0,0.5,0,0.5,0.5
				C43.7,63.8,42.5,64.4,41.8,63.7"/>
			<path class="st15" d="M42.1,63.4c0,0-0.1-0.4,0.2-0.7c0.3-0.3,0.8-0.2,0.8,0C43.1,62.8,43.5,63.6,42.1,63.4L42.1,63.4z"/>
		</g>
		<g>
			<path class="st16" d="M40,62.9c0.1-0.1,0.2-0.2,0.3-0.2c0.1,0,0.1,0,0.2,0c0.1,0,0.1,0,0.2-0.1c0.2,0,0.3,0,0.5,0
				c0.2,0,0.3-0.1,0.4,0c0.1,0.1,0.3,0.1,0.3,0.3c0.1,0.1,0.1,0.2,0.1,0.3c0,0.1,0.1,0.1,0,0.2c0,0.1-0.1,0.2-0.1,0.2
				c0,0.1-0.1,0.1-0.1,0.2c0,0,0,0.1,0,0.1c0,0-0.1,0.1-0.1,0.1c-0.1,0.1-0.1,0.2-0.2,0.2c-0.2,0.1-0.4,0-0.6-0.1
				c-0.2,0-0.4-0.1-0.5-0.2c-0.2-0.1-0.3-0.2-0.4-0.4c0-0.1-0.1-0.2-0.1-0.4C40,63.2,40,63,40,62.9"/>
			<g>
				<path class="st17" d="M39.3,63.4C39.3,63.4,39.4,63.4,39.3,63.4C39.4,63.4,39.4,63.4,39.3,63.4C39.4,63.4,39.4,63.4,39.3,63.4
					c0.1,0.1,0.1,0.2,0.1,0.3c0,0.1,0,0.1,0,0.2c0,0-0.1,0-0.1,0c0,0,0,0-0.1,0c0,0,0,0,0,0c0,0,0,0,0,0c0.1,0,0.1,0.1,0.2,0.2
					c0,0.2,0,0.5,0.1,0.7c0,0,0,0,0,0c-0.2-0.1-0.3-0.4-0.4-0.7l0,0c0,0,0-0.1,0-0.1C39.2,63.9,39.2,63.7,39.3,63.4
					C39.3,63.5,39.3,63.4,39.3,63.4z"/>
				<path class="st7" d="M38.9,64.6c0.1-0.3,0.5-1.2,0.5-1.2c0.2-0.5,0.4-1,0.6-1.4c0,0,0,0,0,0.1c-0.2,0.5-0.4,0.9-0.5,1.4
					c0,0-0.2,0.6-0.3,0.8c0,0,0,0,0,0c0,0,0,0,0,0c-0.1,0.2-0.1,0.3-0.2,0.5c0,0.1,0,0.2-0.1,0.3c0,0,0,0,0,0c0,0-0.1,0-0.1,0
					c0,0,0,0,0,0c0,0,0-0.1,0-0.1c0,0,0-0.1,0-0.1c0.1-0.6,0.2-1.3,0.3-1.9c0-0.1,0-0.1,0-0.2c0,0,0,0,0,0
					C39,63.3,38.9,63.9,38.9,64.6z"/>
				<path class="st17" d="M41.4,64.1c0-0.1,0-0.2,0-0.3c0-0.1-0.1-0.2-0.1-0.3c-0.1-0.1-0.1-0.1-0.2-0.2c-0.1-0.1-0.1-0.1-0.2-0.1
					c0,0.1,0,0.2,0,0.3c0,0.1,0,0.1,0,0.2c0,0,0,0,0,0C41,63.9,41.2,64,41.4,64.1C41.4,64.1,41.4,64.1,41.4,64.1z"/>
				<path class="st17" d="M40.6,65.1C40.6,65,40.6,65,40.6,65.1c0-0.1,0-0.2,0-0.2c0-0.1-0.1-0.2-0.2-0.3c-0.1,0-0.2-0.1-0.3-0.2
					c0,0-0.1,0-0.1,0c0,0,0,0,0,0c0,0.2,0.1,0.3,0.1,0.5c0,0,0,0,0,0C40.2,65,40.3,65,40.6,65.1C40.5,65.1,40.5,65.1,40.6,65.1z"/>
				<path class="st17" d="M41.3,63.1c0,0.2,0.1,0.4,0,0.5c0.2,0.1,0.4,0.1,0.5,0.2c0-0.2,0-0.3,0-0.4c0,0,0,0,0,0
					c-0.1-0.1-0.2-0.1-0.3-0.2C41.5,63.1,41.4,63.1,41.3,63.1z"/>
				<path class="st17" d="M41.3,63.6c0-0.1,0-0.2,0-0.2c0-0.1,0-0.2,0-0.3c0,0,0,0,0,0c-0.1-0.1-0.2-0.2-0.4-0.3c0,0,0,0-0.1,0
					c0,0.2-0.1,0.4-0.1,0.5c0,0,0,0,0,0c0.1,0,0.2,0.1,0.3,0.1C41.1,63.4,41.2,63.5,41.3,63.6C41.3,63.6,41.3,63.6,41.3,63.6
					C41.3,63.6,41.3,63.6,41.3,63.6z"/>
				<path class="st17" d="M40.3,63.8c0,0.2,0.1,0.3,0.1,0.5c0,0,0,0.1,0,0.1c0.2,0.1,0.3,0.2,0.5,0.3c0,0,0,0,0,0
					c0-0.1-0.1-0.2-0.1-0.3c0-0.2-0.1-0.3-0.2-0.3C40.5,63.9,40.4,63.9,40.3,63.8C40.3,63.8,40.3,63.8,40.3,63.8z"/>
				<path class="st17" d="M40.8,64c0-0.1,0-0.1,0-0.2c0-0.1,0-0.1,0-0.2c0-0.1,0-0.1-0.1-0.2c-0.1-0.1-0.2-0.2-0.4-0.3
					c0,0.2,0,0.3,0,0.5c0,0,0,0.1,0,0.1C40.4,63.9,40.6,63.9,40.8,64z"/>
				<path class="st17" d="M39.8,63.7c0,0.2,0,0.4,0,0.5c0,0,0,0,0,0c0.2,0.1,0.3,0.2,0.5,0.3c0,0,0,0,0,0c0-0.1-0.1-0.2-0.1-0.4
					c0,0,0-0.1,0-0.1c0-0.1-0.1-0.1-0.1-0.2C40.1,63.9,40,63.8,39.8,63.7z"/>
				<path class="st17" d="M39.5,64.3c0,0.2,0,0.3,0.1,0.5c0,0.1,0.1,0.1,0.1,0.2c0.1,0.1,0.2,0.1,0.4,0.2c0,0,0-0.1,0-0.1
					c0-0.1-0.1-0.2-0.1-0.3c0-0.1,0-0.1-0.1-0.1C39.7,64.5,39.6,64.4,39.5,64.3C39.5,64.3,39.5,64.3,39.5,64.3z"/>
				<path class="st17" d="M41.5,63.1c0.1,0.1,0.2,0.1,0.3,0.2c0.1,0,0.1,0,0.2,0c0-0.2,0-0.4-0.1-0.5c0,0-0.1,0-0.1,0
					c-0.1,0-0.1,0-0.2,0c0,0,0,0-0.1,0.1C41.6,62.9,41.6,63,41.5,63.1z"/>
				<path class="st17" d="M41.3,63.6c0,0.1,0,0.2,0.1,0.4c0,0.1,0,0.1,0.1,0.1c0.2,0,0.3,0,0.4-0.1c0.1-0.1,0-0.2,0-0.2
					C41.7,63.7,41.5,63.7,41.3,63.6z"/>
				<path class="st17" d="M40.7,63.5c0-0.1,0-0.2,0-0.3c0-0.1,0-0.2,0-0.2c0,0,0,0,0,0c-0.1-0.1-0.2-0.2-0.3-0.2
					c-0.1,0.1-0.1,0.2-0.1,0.3c0,0.1,0,0.1,0.1,0.2C40.5,63.3,40.6,63.4,40.7,63.5z"/>
				<path class="st17" d="M39.5,63.7C39.4,63.8,39.4,63.8,39.5,63.7c0,0.2,0,0.4,0,0.5c0,0,0,0,0,0c0.1,0.1,0.3,0.2,0.4,0.3
					c0-0.1,0-0.1,0-0.2c0-0.1,0-0.2,0-0.3c0,0,0,0,0,0C39.7,64,39.6,63.9,39.5,63.7z"/>
				<path class="st17" d="M39.8,64c0-0.1,0-0.1,0-0.2c0-0.2,0-0.3,0-0.5c0,0,0-0.1-0.1-0.1c-0.1-0.1-0.1-0.1-0.1,0
					c-0.1,0.1-0.1,0.2-0.1,0.4c0,0,0,0,0,0C39.6,63.8,39.7,63.9,39.8,64C39.8,64,39.8,64,39.8,64z"/>
				<path class="st17" d="M41.4,64.4c0-0.1,0-0.2-0.1-0.2c0,0,0,0,0,0c-0.2-0.1-0.4-0.2-0.5-0.4c0,0,0,0,0,0c0,0,0,0.1,0,0.1
					c0,0.1,0.1,0.3,0.1,0.4c0,0,0,0,0,0C41.1,64.4,41.3,64.4,41.4,64.4z"/>
				<path class="st17" d="M40.3,64c0-0.1,0-0.1,0-0.2c0-0.1,0-0.2-0.1-0.4c0,0,0,0,0-0.1c-0.1,0-0.1-0.1-0.2-0.1c-0.1,0-0.1,0-0.1,0
					c0,0.1,0,0.2,0,0.4c0,0,0,0,0,0C40,63.8,40.1,63.9,40.3,64z"/>
				<path class="st17" d="M41.5,63c0-0.1,0-0.2,0.1-0.3c0-0.1-0.1-0.2-0.1-0.2c0,0-0.1,0-0.1,0c-0.2,0-0.2,0-0.3,0.1
					c0.1,0.1,0.2,0.1,0.2,0.2C41.3,63,41.4,63,41.5,63z"/>
				<path class="st17" d="M40.4,64.4c0,0.1,0.1,0.3,0.1,0.4c0,0,0,0,0,0c0.1,0,0.3,0,0.4,0.1c0-0.1-0.1-0.2-0.2-0.3
					C40.7,64.6,40.6,64.5,40.4,64.4C40.4,64.4,40.4,64.4,40.4,64.4z"/>
				<path class="st7" d="M41.7,66.6c-0.4-0.2-0.9-0.5-1.3-0.7c-0.4-0.2-0.7-0.4-1.1-0.6c0,0-0.1,0-0.2,0c0,0,0,0,0,0
					C39.9,65.8,40.8,66.2,41.7,66.6C41.6,66.6,41.6,66.6,41.7,66.6z"/>
				<path class="st7" d="M41.5,66.8c-0.4-0.3-0.9-0.5-1.3-0.8c-0.4-0.2-0.7-0.5-1.1-0.7c0,0-0.1,0-0.2,0c0,0,0,0,0,0
					C39.8,65.8,40.6,66.3,41.5,66.8C41.5,66.8,41.5,66.8,41.5,66.8z"/>
				<path class="st7" d="M38.8,64.9c0-0.9,0-1.8,0-2.7c0,0,0,0,0,0c0,0.5,0,1.1,0,1.6c0,0.4,0,0.8,0,1.2
					C38.8,65,38.8,64.9,38.8,64.9z"/>
				<path class="st17" d="M40.1,65c0,0.2,0.1,0.3,0.2,0.4c0.1,0,0.1,0,0.2,0c0.1,0,0.1-0.1,0.2-0.2C40.4,65.1,40.2,65.1,40.1,65z"/>
				<path class="st17" d="M40.9,64.4c0,0.1,0.1,0.2,0.1,0.3c0,0,0,0,0,0c0.1,0,0.3,0,0.4,0c0-0.1-0.1-0.2-0.2-0.2
					C41.2,64.4,41.1,64.4,40.9,64.4z"/>
				<path class="st17" d="M40.2,63.3c0-0.2,0-0.3,0.1-0.5c-0.1,0-0.1,0-0.1,0c0,0,0,0,0,0C40,62.9,40,63,39.9,63.1c0,0,0,0,0,0.1
					C40,63.2,40.1,63.3,40.2,63.3z"/>
				<path class="st17" d="M41.8,64.2c-0.1,0-0.3,0-0.4,0c0,0.1,0,0.2,0.1,0.3c0,0,0,0,0,0c0,0,0.1,0,0.1,0
					C41.7,64.4,41.7,64.3,41.8,64.2z"/>
				<path class="st17" d="M41,65c-0.2,0-0.3-0.1-0.5-0.1c0,0.1,0.1,0.2,0.1,0.3c0,0,0,0,0,0C40.8,65.2,40.9,65.2,41,65
					C41,65.1,41,65,41,65z"/>
				<path class="st7" d="M40.2,66.6c-0.1-0.1-0.2-0.1-0.3-0.2c-0.4-0.3-0.8-0.7-1.2-1c0,0-0.1,0-0.1,0
					C39.2,65.8,39.7,66.2,40.2,66.6C40.2,66.6,40.2,66.6,40.2,66.6z"/>
				<path class="st17" d="M39.6,65C39.6,65,39.6,65,39.6,65c0.1,0.2,0.1,0.3,0.2,0.3c0.1,0,0.2,0,0.2-0.1c0,0,0-0.1,0-0.1
					c-0.1,0-0.1,0-0.2-0.1C39.7,65.1,39.7,65,39.6,65z"/>
				<path class="st17" d="M40.8,63c0-0.1,0-0.3,0-0.4c-0.1,0-0.2,0.1-0.3,0.1C40.6,62.8,40.7,62.9,40.8,63z"/>
				<path class="st17" d="M42.2,63.4c-0.1,0-0.2,0-0.2-0.1c0,0.1,0,0.3,0,0.4c0,0,0,0,0,0c0,0,0,0,0,0
					C42.1,63.6,42.1,63.5,42.2,63.4z"/>
				<path class="st17" d="M39.8,65.4c0.1,0.1,0.1,0.1,0.2,0.2c0.1,0,0.1,0,0.1-0.1c0-0.1,0-0.2,0-0.2c0,0.1-0.1,0.1-0.1,0.1
					C39.9,65.4,39.8,65.4,39.8,65.4C39.8,65.4,39.8,65.4,39.8,65.4z"/>
				<path class="st17" d="M39.7,65.3c-0.1-0.1-0.1-0.2-0.2-0.2c-0.1,0-0.1,0-0.2-0.1C39.4,65.3,39.5,65.4,39.7,65.3z"/>
				<path class="st17" d="M40.6,65.2c0,0.1-0.1,0.1-0.1,0.1c-0.1,0.1-0.1,0.1-0.2,0.1c-0.1,0-0.1-0.1-0.2-0.1c0,0,0,0.1,0,0.1
					c0.1,0.1,0.1,0.1,0.2,0.1c0,0,0,0,0.1,0C40.6,65.4,40.6,65.4,40.6,65.2z"/>
				<path class="st17" d="M41,64.8C41,64.8,41,64.8,41,64.8c0,0.2,0.1,0.2,0.1,0.1c0.1,0,0.1-0.1,0.2-0.1c0,0,0,0,0,0
					C41.2,64.8,41.1,64.8,41,64.8z"/>
				<path class="st17" d="M39.9,63c-0.1,0-0.1,0.1-0.2,0.2c0,0,0.1,0.1,0.1,0.1C39.8,63.2,39.9,63.1,39.9,63
					C39.9,63,39.9,63,39.9,63z"/>
				<path class="st17" d="M41.7,62.6c-0.1,0-0.1-0.1-0.2-0.1c0,0,0,0,0,0c0,0.1,0.1,0.1,0.1,0.2C41.7,62.7,41.7,62.7,41.7,62.6
					C41.7,62.7,41.7,62.7,41.7,62.6z"/>
				<path class="st17" d="M40.2,62.8C40.2,62.8,40.3,62.8,40.2,62.8c0.1,0,0.2-0.1,0.2-0.1c0,0,0,0,0,0
					C40.3,62.7,40.3,62.7,40.2,62.8C40.2,62.8,40.2,62.8,40.2,62.8z"/>
				<path class="st17" d="M39.2,64.8C39.2,64.8,39.2,64.8,39.2,64.8c-0.1-0.2-0.1-0.3-0.1-0.4c0.2,0.2,0.3,0.4,0.4,0.7c0,0,0,0,0,0
					c-0.1,0-0.2-0.1-0.3-0.1C39.3,65,39.2,64.9,39.2,64.8z"/>
				<path class="st7" d="M39.2,64.9c0,0,0.1,0.1,0.1,0.1c-0.1,0-0.2,0.1-0.3,0.1c-0.2,0.1-0.3,0.1-0.5,0c-0.1,0-0.1,0-0.1-0.2
					C38.7,65.1,39,65.1,39.2,64.9z"/>
			</g>
			<polygon class="st5" points="40.2,62.8 40.4,62.7 40.7,62.6 41.2,62.5 41.5,62.5 41.7,62.6 41.9,62.8 42,62.9 42,63 42.2,63.4 
				42.1,63.5 41.9,64 41.9,63.9 42,63.7 42.1,63.5 42.1,63.4 42.1,63.3 42,63 41.9,62.8 41.8,62.7 41.6,62.7 41.3,62.6 40.9,62.6 
				40.4,62.7 40.3,62.8 			"/>
		</g>
		<path class="st18" d="M41.6,65.6c0-0.1-0.1-0.2-0.1-0.2c-0.1,0-0.2,0.1-0.2,0.2c0,0.1,0.1,0.3,0.1,0.3
			C41.5,65.9,41.6,65.7,41.6,65.6z"/>
		<path class="st18" d="M42.1,65.2c-0.1,0-0.2,0-0.2,0.1c0,0.1,0,0.2,0.1,0.2c0.1,0,0.3,0.1,0.3,0C42.3,65.4,42.2,65.3,42.1,65.2z"
			/>
		<path class="st18" d="M42.2,65.7c-0.1,0-0.2,0-0.2,0.1c0,0.1,0,0.2,0.1,0.2c0.1,0,0.3,0.1,0.3,0C42.4,65.9,42.3,65.8,42.2,65.7z"
			/>
		<g>
			<g>
				<g>
					<path class="st4" d="M30.1,64.7c0.2,0-0.3,0.6-0.1,0.2c0.1-0.2,0.2-0.4,0.4-0.5c0.1-0.1,0.1-0.1,0.2-0.1c0.1,0,0.1,0.1,0,0.1
						c0,0-0.1,0.1-0.1,0.1c-0.1,0.1-0.3,0.2-0.5,0.3C29.8,64.7,30,64.8,30.1,64.7c0,0,0.8-0.4,0.6-0.6c-0.3-0.2-0.7,0.3-0.8,0.5
						c-0.1,0.1-0.3,0.3-0.2,0.5c0.1,0.1,0.2,0.1,0.3,0.1c0.2,0,0.3-0.2,0.3-0.4c0-0.2-0.3-0.2-0.3-0.1C29.9,64.6,30,64.7,30.1,64.7
						L30.1,64.7z"/>
				</g>
				<g>
					<path class="st4" d="M34.5,66.7c0.1-0.1,0.4-0.5,0.2-0.7c-0.2-0.1-0.3,0.1-0.3,0.3c-0.1,0.2-0.1,0.4,0,0.6
						c0.1,0.2,0.4,0,0.5-0.1c0.1-0.1,0.1-0.2,0-0.1C34.8,66.7,34.6,66.8,34.5,66.7c0,0,0-0.2,0-0.3c0-0.1,0-0.1,0-0.2c0,0,0,0,0-0.1
						c0,0,0,0,0,0c0.2,0-0.1,0.4-0.2,0.5C34.3,66.7,34.4,66.7,34.5,66.7L34.5,66.7z"/>
				</g>
				<g>
					<path class="st4" d="M28.5,63.1c0.2,0,0.5,0.1,0.6-0.2c0-0.2-0.2-0.2-0.3-0.2c-0.2,0-0.3,0.1-0.4,0.3c-0.1,0.2,0,0.4,0.2,0.4
						c0.1,0,0.2,0,0.1-0.1c-0.3-0.1,0-0.4,0.1-0.4c0,0,0.1,0,0.1,0c0.1,0,0,0,0,0c0,0.2-0.3,0.1-0.4,0.1
						C28.3,63,28.4,63.1,28.5,63.1L28.5,63.1z"/>
				</g>
				<g>
					<path class="st4" d="M31,65.8c-0.1,0.2,0.1,0.3,0.3,0.2c0.1-0.1,0.2-0.2,0.2-0.3c0.1-0.1,0.1-0.2,0.2-0.3c0,0-0.1,0-0.1,0
						c-0.2,0.2-0.2,0.5-0.3,0.7c0,0.1,0.2,0,0.2,0c0.1-0.2,0.3-0.4,0.4-0.6c0,0-0.1,0-0.1,0c-0.1,0.2-0.2,0.4-0.2,0.6
						c0,0.2,0.3,0.1,0.5,0.1c0.1-0.1,0-0.1-0.1-0.1c-0.2,0.1-0.2-0.1-0.1-0.2c0-0.1,0.1-0.3,0.2-0.4c0.1-0.1-0.1-0.1-0.1,0
						c-0.2,0.2-0.4,0.4-0.5,0.6c0.1,0,0.1,0,0.2,0c0.1-0.2,0.1-0.5,0.2-0.7c0.1-0.1-0.1-0.1-0.1,0c-0.1,0.1-0.2,0.2-0.2,0.3
						c0,0.1-0.1,0.1-0.2,0.2c-0.1,0.1,0,0,0,0c-0.1,0,0-0.1,0-0.2C31.2,65.7,31,65.7,31,65.8L31,65.8z"/>
				</g>
				<g>
					<path class="st4" d="M36,65.9c-0.1-0.2-0.3,0-0.4,0.1c-0.1,0.2-0.1,0.4,0,0.6c0.1,0.2,0.2,0.2,0.3,0
						C36.2,66.4,36.1,66.1,36,65.9c0,0-0.1,0.1-0.1,0.1c0,0.1,0,0.3,0.1,0.4c0,0.1,0,0.2,0.1,0.2c0.1,0.1,0.3-0.2,0.3-0.3
						c0.1-0.1-0.1-0.1-0.1,0c-0.1,0.1-0.1,0.1-0.1,0C36.1,66.2,36.1,66,36,65.9c0-0.1-0.1,0.1-0.1,0.1c0,0.1,0,0.3,0,0.4
						c0,0,0,0.1,0,0.1c0,0-0.1,0-0.1,0c0-0.1-0.1-0.2-0.1-0.3c0-0.1,0-0.1,0-0.2c0,0,0-0.1,0-0.1c0-0.1,0.1,0,0.1,0
						C35.9,66.1,36.1,65.9,36,65.9L36,65.9z"/>
				</g>
				<g>
					<g>
						<path class="st4" d="M33.8,66.7c0,0.2,0.2,0.2,0.3,0.1c0.2-0.1,0.2-0.3,0.2-0.4c0-0.1,0-0.3-0.1-0.4c-0.1,0-0.1,0-0.2,0
							c-0.1,0.1-0.2,0.2-0.2,0.3c0,0.1,0.2,0,0.2-0.1c0-0.1,0.1-0.1,0.1,0c0,0.1,0,0.1,0,0.2c0,0.1,0,0.2,0,0.2c0,0,0,0.1,0,0.1
							c0,0,0,0,0,0c-0.1,0-0.1-0.1-0.1-0.1C34,66.5,33.8,66.6,33.8,66.7L33.8,66.7z"/>
					</g>
					<g>
						<path class="st4" d="M33.8,66c0,0.5-0.1,0.9-0.2,1.4c0,0.1,0.2,0,0.2-0.1c0.1-0.5,0.2-0.9,0.1-1.4C34,65.8,33.8,65.9,33.8,66
							L33.8,66z"/>
					</g>
				</g>
				<g>
					<g>
						<path class="st4" d="M28.9,64c-0.1,0.1,0,0.3,0.1,0.3c0.2,0,0.3-0.1,0.4-0.2c0.1-0.1,0.2-0.2,0.1-0.4c0-0.1-0.1-0.1-0.2-0.1
							c-0.1,0-0.2,0-0.3,0.1c-0.1,0.1,0.1,0.1,0.2,0.1c0.1-0.1,0.1-0.1,0.1,0.1c0,0.1-0.1,0.1-0.1,0.2c0,0.1-0.1,0.1-0.2,0.2
							c0,0-0.1,0-0.1,0c0,0,0,0,0,0c0-0.1,0-0.1,0-0.1C29.2,64,29,63.9,28.9,64L28.9,64z"/>
					</g>
					<g>
						<path class="st4" d="M29.4,63.5c-0.3,0.3-0.6,0.7-1,0.9c-0.1,0,0.1,0.1,0.2,0.1c0.4-0.3,0.7-0.6,1-1
							C29.6,63.5,29.4,63.4,29.4,63.5L29.4,63.5z"/>
					</g>
				</g>
				<g>
					<path class="st4" d="M33.6,65.9c-0.2,0-0.3,0.2-0.4,0.4c0,0.1-0.1,0.5,0.1,0.5c0.2,0.1,0.4-0.2,0.4-0.3
						C33.8,66.3,33.8,66,33.6,65.9c-0.1,0-0.2,0.1-0.1,0.1c0.1,0,0.1,0.2,0.1,0.3c0,0.1,0,0.1,0,0.2c0,0,0,0.1,0,0.1
						c0,0-0.1,0.1,0,0.1c-0.1,0-0.1-0.2-0.1-0.3c0-0.1,0-0.1,0-0.2c0,0,0-0.1,0-0.1c0,0,0,0,0,0C33.6,66.1,33.7,65.9,33.6,65.9z"/>
				</g>
				<g>
					<path class="st4" d="M29.9,64.1c-0.2-0.1-0.4,0-0.5,0.1c-0.1,0.1-0.3,0.3-0.2,0.5c0.2,0.2,0.4,0.1,0.5-0.1
						C29.9,64.5,30.1,64.3,29.9,64.1c0,0-0.2,0-0.2,0c0.1,0.1,0,0.2,0,0.3c0,0.1-0.1,0.1-0.1,0.2c0,0,0,0-0.1,0c0,0-0.1,0,0,0
						c-0.1,0,0-0.3,0-0.3c0-0.1,0.1-0.1,0.1-0.1c0,0,0.1,0,0.1-0.1c0,0,0,0,0,0C29.8,64.2,30,64.2,29.9,64.1z"/>
				</g>
				<g>
					<g>
						<path class="st4" d="M29.2,63.2c-0.1-0.2-0.3-0.1-0.5,0c-0.1,0.1-0.4,0.3-0.3,0.5c0.1,0.2,0.4,0.1,0.5,0
							C29.1,63.6,29.3,63.4,29.2,63.2c0,0-0.2-0.1-0.2,0c0.1,0.1,0,0.2-0.1,0.3c0,0.1-0.1,0.1-0.1,0.1c0,0,0,0-0.1,0c0,0-0.1,0,0,0
							c-0.1-0.1,0.1-0.2,0.1-0.3c0,0,0.1-0.1,0.2-0.1c0,0,0.1,0,0.1,0c0,0,0,0,0,0C29.1,63.3,29.3,63.3,29.2,63.2z"/>
					</g>
					<g>
						<path class="st4" d="M29.2,63.3c-0.2,0.2-0.5,0.4-0.7,0.6c0,0-0.3,0.3-0.3,0.1c-0.1-0.2,0.5-0.2,0.5-0.2c0.1,0,0-0.1,0-0.1
							c-0.2,0-0.5-0.1-0.7,0.1c-0.1,0.1,0,0.2,0.1,0.3c0.2,0.1,0.3,0,0.5-0.1c0.3-0.2,0.5-0.5,0.7-0.7
							C29.4,63.3,29.2,63.3,29.2,63.3L29.2,63.3z"/>
					</g>
				</g>
				<g>
					<path class="st4" d="M32.5,66.4c-0.1,0.1-0.1-0.3-0.1-0.3c0-0.1,0.1-0.3,0.1-0.4c0-0.1-0.2,0-0.2,0c0,0.1-0.1,0.2-0.1,0.3
						c0,0.1-0.1,0.1-0.1,0.2c0,0.1,0,0.1-0.1,0c-0.1-0.2,0.1-0.5,0.2-0.6c0.1-0.1-0.1-0.1-0.2,0c-0.1,0.1-0.4,0.7-0.1,0.8
						c0.4,0.1,0.5-0.5,0.6-0.7c-0.1,0-0.1,0-0.2,0c-0.1,0.2-0.2,0.4-0.2,0.6C32.3,66.6,32.5,66.6,32.5,66.4
						C32.7,66.5,32.7,66.4,32.5,66.4L32.5,66.4z"/>
				</g>
				<g>
					<path class="st4" d="M36.2,66.4c0.1,0.2,0.3,0.1,0.4-0.1c0-0.1,0-0.2,0-0.4c0-0.1,0-0.2,0-0.3c0,0-0.1,0.1-0.1,0.1
						c0,0.3,0.1,0.5,0.2,0.7c0,0.1,0.2-0.1,0.1-0.2c0-0.2,0-0.5,0-0.7c0,0-0.1,0.1-0.1,0.1c0,0.2,0.1,0.5,0.2,0.6
						c0.2,0.2,0.3-0.2,0.4-0.3c0.1-0.1-0.1-0.1-0.1,0c-0.1,0.2-0.2,0.1-0.2,0c-0.1-0.1-0.1-0.3-0.1-0.4c0-0.1-0.1,0-0.1,0.1
						c0,0.3-0.1,0.6,0,0.8c0-0.1,0.1-0.1,0.1-0.2c-0.1-0.2-0.3-0.4-0.2-0.7c0-0.1-0.1,0-0.1,0.1c0,0.1,0,0.3,0,0.4
						c0,0.1,0,0.2,0,0.3c0,0.1,0,0,0,0c-0.1,0-0.1-0.1-0.1-0.1C36.4,66.1,36.2,66.3,36.2,66.4L36.2,66.4z"/>
				</g>
				<g>
					<path class="st4" d="M37.9,65.7c-0.1,0.1-0.2-0.2-0.2-0.2c-0.1-0.1-0.1-0.3-0.2-0.4c0-0.1-0.2,0.1-0.1,0.2
						c0,0.1,0.1,0.2,0.1,0.3c0,0.1,0,0.1,0,0.2c0,0.1,0,0.1-0.1,0.1c-0.2,0-0.2-0.4-0.2-0.6c0-0.1-0.1,0.1-0.1,0.1
						c0,0.2,0.1,0.8,0.4,0.7c0.4-0.2,0.1-0.7,0-1c0,0.1-0.1,0.1-0.1,0.2c0.1,0.2,0.1,0.4,0.3,0.6c0.1,0.1,0.3,0,0.4-0.2
						C38,65.5,37.9,65.5,37.9,65.7L37.9,65.7z"/>
				</g>
				<g>
					<g>
						<path class="st4" d="M31.1,65.2c-0.2,0.1-0.3,0.4-0.3,0.6c-0.1,0.3,0.2,0.2,0.4,0.1c0.1-0.1-0.1-0.1-0.1-0.1
							c-0.1,0.1-0.1,0.1,0,0c0-0.1,0.1-0.1,0.1-0.2c0.1-0.1,0.1-0.3,0.2-0.3C31.4,65.1,31.2,65.1,31.1,65.2L31.1,65.2z"/>
					</g>
					<g>
						<path class="st4" d="M30.4,65.3c0.1,0,0.2,0.1,0.2,0.2c0,0.1-0.1,0-0.1-0.1c0-0.2,0.2-0.4,0.3-0.5c0.1-0.1-0.1-0.1-0.2-0.1
							c-0.1,0.1-0.7,0.7-0.2,0.8c0.1,0,0.3,0,0.3-0.1c0.1-0.2-0.2-0.3-0.3-0.3C30.4,65.2,30.4,65.2,30.4,65.3
							C30.3,65.2,30.3,65.3,30.4,65.3L30.4,65.3z"/>
					</g>
				</g>
				<g>
					<path class="st4" d="M28.6,62c-0.2,0.2-0.5,0.3-0.7,0.4c-0.1,0,0.1,0.2,0.1,0.1c0.1,0,0.2-0.1,0.3-0.1c0.1,0,0.2-0.1,0.2,0
						c0.1,0,0.1,0,0.2,0.1c0-0.4-0.4-0.3-0.6-0.2c0,0,0,0.1,0,0.1c0.1,0.1,0,0.2-0.1,0.2c-0.1,0.1-0.1,0.1-0.1,0.2
						c0,0.1,0.3,0.2,0.4,0.2c0.1,0,0-0.1-0.1-0.1c-0.1,0-0.1-0.1-0.1-0.2c0,0,0.1-0.1,0.1-0.1c0.1-0.1,0-0.2-0.1-0.3
						c0,0,0,0.1,0,0.1c0.1,0,0.3-0.1,0.3,0c0,0.1,0.2,0.1,0.2,0.1c0.1-0.5-0.7-0.2-0.9-0.1c0,0,0.1,0.1,0.1,0.1
						c0.2-0.1,0.5-0.2,0.7-0.4C28.8,62,28.7,62,28.6,62L28.6,62z"/>
				</g>
				<g>
					<path class="st4" d="M27.9,61.9c-0.1-0.1,0-0.2,0-0.3c0.1-0.1,0.3-0.2,0.4-0.2c0.1,0-0.1-0.2-0.1-0.2c-0.1,0-0.2,0.1-0.3,0.1
						c-0.1,0-0.1,0-0.2,0c-0.1,0-0.1,0-0.1-0.1c0-0.2,0.4-0.2,0.6-0.3c0.1,0,0-0.2-0.1-0.2c-0.1,0-0.8,0-0.6,0.4
						c0.2,0.5,0.7,0.1,0.9,0.1c0,0-0.1-0.1-0.1-0.2c-0.2,0.1-0.5,0.1-0.6,0.3c-0.1,0.2,0.1,0.4,0.2,0.4C28,62.1,28,61.9,27.9,61.9
						L27.9,61.9z"/>
				</g>
				<g>
					<g>
						<path class="st4" d="M35.6,66.1c0-0.2-0.2-0.3-0.3-0.1c-0.1,0.1-0.1,0.3-0.1,0.5c0,0.1,0.1,0.3,0.2,0.3c0.2,0,0.4-0.3,0.4-0.4
							c0-0.1-0.1,0-0.1,0.1c0,0.1-0.1,0.2-0.2,0.2c-0.1,0-0.1-0.1-0.1-0.2c0-0.1,0-0.2,0-0.3c0,0,0,0,0,0c0-0.1,0,0,0,0
							c0.1,0,0.1,0.1,0.1,0.2C35.4,66.3,35.6,66.2,35.6,66.1L35.6,66.1z"/>
					</g>
					<g>
						<path class="st4" d="M34.8,66.7c0,0.2,0.2,0.2,0.3,0.1c0.1-0.1,0.1-0.3,0.1-0.5c0-0.1,0-0.3-0.2-0.4c-0.1,0-0.1,0-0.2,0.1
							c-0.1,0.1-0.1,0.2-0.1,0.3c0,0.1,0.2,0,0.2-0.1c0-0.1,0-0.1,0.1,0c0,0.1,0,0.1,0.1,0.2c0,0.1,0,0.2,0,0.2c0,0,0,0.1,0,0.1
							c0,0,0,0,0,0c-0.1,0-0.1,0-0.1-0.1C35,66.5,34.8,66.6,34.8,66.7L34.8,66.7z"/>
					</g>
				</g>
			</g>
		</g>
	</g>
</g>
</svg>
