<?xml version="1.0" encoding="utf-8"?>
<!-- Generator: Adobe Illustrator 19.0.0, SVG Export Plug-In . SVG Version: 6.00 Build 0)  -->
<svg version="1.1" id="Layer_1" xmlns="http://www.w3.org/2000/svg" xmlns:xlink="http://www.w3.org/1999/xlink" x="0px" y="0px"
	 viewBox="0 0 130 89.9" style="enable-background:new 0 0 130 89.9;" xml:space="preserve">
<style type="text/css">
	.st0{fill:#FFCC66;}
	.st1{fill:#EAB353;}
	.st2{fill:#FCD597;}
	.st3{fill:#F7F2EB;}
	.st4{fill:#5C308F;}
	.st5{fill-rule:evenodd;clip-rule:evenodd;fill:#5C308F;}
	.st6{fill-rule:evenodd;clip-rule:evenodd;fill:#62BA47;}
	.st7{fill:#62BA47;}
	.st8{fill:#FFFFFF;}
	.st9{fill-rule:evenodd;clip-rule:evenodd;fill:#82BC00;}
	.st10{fill-rule:evenodd;clip-rule:evenodd;fill:#824098;}
	.st11{fill-rule:evenodd;clip-rule:evenodd;}
	.st12{fill-rule:evenodd;clip-rule:evenodd;fill:#F3F4F5;}
	.st13{fill:#62BA46;}
</style>
<g id="XMLID_28_">
	<polygon id="XMLID_264_" class="st0" points="65,79.3 3.5,58.5 3.5,32.4 65,53.1 	"/>
	<polygon id="XMLID_263_" class="st1" points="65.1,79.3 126.6,58.5 126.6,32.4 65.1,53.1 	"/>
	<polygon id="XMLID_262_" class="st2" points="64.9,11.7 3.4,32.4 65.1,53.1 126.6,32.4 	"/>
	<g id="XMLID_257_">
		<polygon id="XMLID_261_" class="st3" points="66.8,21.4 34.1,32.4 67,43.4 99.7,32.4 		"/>
		<path id="XMLID_258_" class="st4" d="M67,44.2L31.9,32.4l34.9-11.8l35.1,11.8L67,44.2z M36.4,32.4L67,42.7l30.5-10.3L66.8,22.1
			L36.4,32.4z"/>
	</g>
	<g id="XMLID_143_">
		<path id="XMLID_256_" class="st4" d="M99.6,57.5c0.1-3.5-2-6.3-4.8-6.4c-2.8-0.1-5.1,2.7-5.2,6.2c-0.1,3.5,2,6.3,4.8,6.4
			C97.2,63.7,99.5,60.9,99.6,57.5z"/>
		<path id="XMLID_255_" class="st5" d="M92.5,49.6c0,0.4-0.3,0.8-0.7,0.8c-0.4,0-0.6-0.4-0.6-0.8c0-0.4,0.3-0.8,0.7-0.8
			C92.3,48.8,92.5,49.2,92.5,49.6L92.5,49.6z"/>
		<path id="XMLID_254_" class="st6" d="M92.4,52.3c0,0.6-0.4,1-0.9,1c-0.5,0-0.8-0.5-0.8-1c0-0.6,0.4-1,0.9-1
			C92.1,51.3,92.5,51.8,92.4,52.3L92.4,52.3z"/>
		<path id="XMLID_253_" class="st6" d="M90.3,50.7c0,0.3-0.2,0.6-0.5,0.6c-0.3,0-0.5-0.3-0.5-0.6c0-0.3,0.2-0.6,0.5-0.6
			C90.1,50.1,90.3,50.4,90.3,50.7L90.3,50.7z"/>
		<g id="XMLID_239_">
			<path id="XMLID_252_" class="st7" d="M101.9,51.8c-0.1,1.9-1.4,3.4-2.9,3.4c-1.5,0-2.7-1.6-2.6-3.5c0.1-1.9,1.4-3.4,2.9-3.4
				C100.8,48.3,102,49.9,101.9,51.8z"/>
			<g id="XMLID_240_">
				<path id="XMLID_249_" class="st8" d="M98.4,51.2c-0.2,0-0.3,0.4-0.3,0.6l0,0l0,0c0,0,0,0.1,0,0.1c0,0.1,0,0.2,0,0.3
					c0,0,0,0.1,0,0.1c-0.1,0-0.1-0.1-0.2-0.2c0-0.2-0.1-0.4-0.1-0.6c0-0.2,0-0.4,0-0.6c0-0.1,0-0.2,0-0.3c0,0,0-0.1,0-0.1
					c0,0,0-0.1,0-0.1c0-0.2-0.2,0-0.2,0.1c-0.2,0.4-0.2,0.9-0.2,1.3c0,0.1,0,0.2,0,0.4c0,0.1,0,0.2-0.1,0.3c0,0-0.1,0-0.1,0
					c0,0-0.1-0.1-0.1-0.2c0-0.1-0.1,0-0.1,0c0,0-0.1,0.1-0.1,0.2c0,0.2,0.1,0.3,0.3,0.3c0.2-0.1,0.3-0.4,0.4-0.6
					c0-0.1,0-0.2,0.1-0.3c0,0.2,0.1,0.3,0.1,0.5c0,0.1,0.1,0.2,0.2,0.2c0.1,0,0.2-0.1,0.2-0.3c0,0.1,0.1,0.2,0.2,0.2
					c0.1,0,0.2-0.2,0.3-0.3c0.1-0.1,0.1-0.3,0.1-0.4C98.7,51.6,98.7,51.2,98.4,51.2z M98.5,52.2C98.5,52.3,98.5,52.3,98.5,52.2
					c-0.1,0.1-0.1,0-0.1,0c0-0.1,0-0.2,0-0.3c0-0.1,0-0.2,0-0.3c0,0,0-0.1,0-0.1c0.1,0.1,0.1,0.3,0.1,0.4
					C98.5,52,98.5,52.1,98.5,52.2z"/>
				<path id="XMLID_246_" class="st8" d="M101.2,51.7c-0.2-0.1-0.4,0.3-0.5,0.5c-0.1,0.2-0.1,0.6,0.1,0.7c0.1,0.1,0.2,0,0.3-0.1
					c0.1-0.1,0.1-0.2,0.2-0.4C101.3,52.2,101.4,51.8,101.2,51.7z M101,52.7C101,52.7,101,52.7,101,52.7c-0.1,0-0.1-0.1-0.1-0.1
					c0-0.1,0-0.2,0-0.3c0-0.1,0-0.2,0.1-0.3c0,0,0,0,0-0.1c0.1,0.1,0.1,0.3,0,0.5C101.1,52.5,101,52.6,101,52.7z"/>
				<path id="XMLID_241_" class="st8" d="M100.5,51.7c0-0.1,0.1-0.2,0.1-0.2c0.1-0.2,0.2-0.4,0.2-0.6c0-0.2-0.2-0.2-0.3-0.2
					c-0.2,0.1-0.3,0.3-0.3,0.5c-0.1,0.3-0.1,0.5-0.1,0.8l0,0c-0.1,0.1-0.3,0.4-0.4,0.2c0,0,0-0.1-0.1-0.1c0.1-0.1,0.2-0.3,0.3-0.4
					c0.1-0.1,0.1-0.4,0-0.5c-0.1-0.1-0.3,0-0.4,0.1c-0.1,0.1-0.1,0.3-0.1,0.4c0,0.1,0,0.2,0,0.4c-0.1,0.1-0.2,0.1-0.2,0.1
					c-0.1,0-0.1-0.2-0.1-0.2c0-0.1,0-0.3,0-0.4c0,0,0-0.1,0-0.1c0,0,0,0,0,0c0.1,0,0.1,0.1,0.1,0.2c0,0.1,0.2-0.1,0.2-0.2
					c0-0.1-0.1-0.2-0.1-0.3c-0.1-0.1-0.2,0-0.3,0.1c-0.2,0.2-0.2,0.5-0.2,0.7c0,0.2,0,0.4,0.1,0.4c0.1,0.1,0.4,0,0.5-0.1
					c0,0.1,0.1,0.2,0.2,0.2c0.1,0,0.3-0.1,0.4-0.2c0,0.1,0,0.3,0.1,0.4c0.1,0.1,0.3,0,0.4-0.1c0.1-0.2,0.2-0.4,0.1-0.6
					C100.6,51.8,100.6,51.7,100.5,51.7z M99.7,51.6c0,0,0-0.1,0-0.1c0,0,0,0,0,0c0.1,0,0.1,0.1,0.1,0.2c0,0.1-0.1,0.2-0.2,0.3
					c0,0,0,0,0-0.1C99.6,51.8,99.6,51.7,99.7,51.6z M100.5,51c0,0,0-0.1,0.1-0.1c0,0,0,0,0,0c0.1,0.1,0,0.3-0.1,0.4
					c-0.1,0.1-0.1,0.2-0.2,0.4c0-0.1,0-0.2,0.1-0.4C100.4,51.3,100.4,51.2,100.5,51z M100.4,52.5C100.4,52.5,100.4,52.5,100.4,52.5
					C100.4,52.5,100.4,52.5,100.4,52.5c-0.1,0-0.1-0.2-0.1-0.2c0-0.1,0-0.1,0-0.2c0,0,0.1-0.1,0.1-0.1c0.1,0,0.1,0,0.1,0.1
					C100.5,52.2,100.4,52.4,100.4,52.5z"/>
			</g>
		</g>
		<g id="XMLID_227_">
			<g id="XMLID_228_">
				<path id="XMLID_238_" class="st8" d="M94.6,61.6c-0.1,0-0.2,0.3-0.2,0.4c0,0.1,0,0.5,0.1,0.5c0.2,0,0.2-0.3,0.2-0.4
					C94.7,61.9,94.7,61.6,94.6,61.6c0,0-0.1,0.1-0.1,0.2c0.1,0,0.1,0.5,0.1,0.6c0,0,0,0,0,0c0,0,0,0,0-0.1c0-0.1,0-0.1,0-0.2
					c0-0.1,0-0.1,0-0.2c0,0,0-0.1,0-0.1c0,0,0,0,0,0c0,0,0,0,0,0C94.6,61.7,94.6,61.6,94.6,61.6z"/>
				<path id="XMLID_237_" class="st8" d="M94.2,61.7c0,0.2,0,0.5-0.1,0.7c0,0.1,0.1,0,0.2-0.1c0-0.2,0.2-0.3,0.2-0.5
					c0-0.1-0.1,0-0.1,0c0,0.1-0.1,0.2-0.2,0.3c-0.1,0.1-0.1,0.2-0.1,0.3c0.1,0,0.1,0,0.2-0.1c0-0.2,0.1-0.5,0-0.7
					C94.3,61.5,94.2,61.6,94.2,61.7L94.2,61.7z"/>
				<path id="XMLID_236_" class="st8" d="M94.7,62.2c0,0.1,0.1,0.2,0.2,0.2c0.1,0,0.1-0.1,0.1-0.2c0-0.1,0-0.2,0-0.3
					c0-0.1,0-0.2,0-0.3c0,0-0.1,0-0.1,0.1c0,0.2,0.1,0.5,0.1,0.7c0,0.1,0.1-0.1,0.1-0.1c0-0.2,0-0.5,0-0.7c0,0-0.1,0-0.1,0.1
					c0,0.1,0,0.9,0.3,0.7c0.1-0.1,0.1-0.2,0-0.1c-0.1,0.1-0.1-0.2-0.1-0.2c0-0.1-0.1-0.2,0-0.4c0-0.1-0.1,0-0.1,0.1
					c-0.1,0.2-0.1,0.5-0.1,0.8c0,0,0.1-0.1,0.1-0.1c0-0.1-0.1-0.2-0.1-0.3c0-0.1-0.1-0.2,0-0.3c0-0.1-0.1,0-0.1,0.1
					c0,0.1,0,0.3,0,0.4c0,0.1,0,0.2,0,0.3c0,0,0,0,0,0c0,0,0,0,0,0c0,0,0-0.1,0-0.1C94.8,62,94.7,62.2,94.7,62.2L94.7,62.2z"/>
				<path id="XMLID_235_" class="st8" d="M95.8,61.9c0,0.1,0.1,0.2,0.2,0.1c0.1-0.1,0.1-0.2,0.1-0.3c0-0.1,0-0.2-0.1-0.3
					c0-0.1-0.1-0.2-0.1-0.3c0,0-0.1,0.1-0.1,0.1c0,0.2,0.2,0.5,0.3,0.7c0,0.1,0.1-0.1,0.1-0.2c-0.1-0.2-0.1-0.5-0.1-0.7
					c0,0-0.1,0.1-0.1,0.1c0,0.1,0.3,0.9,0.5,0.5c0-0.1,0-0.2,0-0.1c0,0.1-0.2-0.1-0.2-0.2c-0.1-0.1-0.1-0.2-0.1-0.3
					c0-0.1-0.1,0.1-0.1,0.1c0,0.2,0,0.5,0.1,0.8c0-0.1,0.1-0.1,0.1-0.2c-0.1-0.1-0.1-0.2-0.2-0.3c-0.1-0.1-0.1-0.2-0.1-0.3
					c0-0.1-0.1,0.1-0.1,0.1c0,0.1,0,0.3,0.1,0.4c0,0.1,0,0.2,0,0.3c0,0,0,0,0,0.1c0,0,0,0,0,0c0,0-0.1-0.1-0.1-0.1
					C95.9,61.7,95.8,61.9,95.8,61.9L95.8,61.9z"/>
				<path id="XMLID_234_" class="st8" d="M95.6,61.3c-0.1,0.1-0.1,0.3-0.1,0.5c0,0.1,0.1,0.5,0.3,0.4c0.2-0.1,0.2-0.4,0.2-0.5
					C95.8,61.6,95.7,61.3,95.6,61.3c0,0-0.1,0.2,0,0.2c0.1,0,0.1,0.1,0.2,0.2c0,0.1,0,0.1,0.1,0.2c0,0,0,0.1,0,0.1c0,0,0,0.1,0,0.1
					c-0.1,0.1-0.2-0.1-0.2-0.2c0-0.1,0-0.1,0-0.2c0,0,0-0.1,0-0.1c0,0,0,0,0,0C95.6,61.5,95.6,61.3,95.6,61.3z"/>
				<g id="XMLID_231_">
					<path id="XMLID_233_" class="st8" d="M93.7,62.3c0.3,0,0.4-0.3,0.4-0.5c0-0.1,0-0.2-0.1-0.2c-0.1,0-0.2,0.1-0.3,0.3
						c0,0.1,0.1,0,0.2,0c0,0,0-0.1,0.1-0.1c0,0,0,0.1,0,0.2c0,0.1,0,0.3-0.1,0.3C93.7,62.1,93.6,62.2,93.7,62.3L93.7,62.3z"/>
					<path id="XMLID_232_" class="st8" d="M94.2,62.1c-0.2,0.1-0.5,0.3-0.6,0.4c-0.1,0.1-0.2,0.2-0.2,0.4c0,0.1,0.2,0.1,0.3,0.1
						c0.3-0.1,0.5-1,0.1-0.9c-0.1,0-0.2,0.1,0,0.1c0.2,0,0.1,0.6,0,0.6c-0.1,0-0.1-0.2,0-0.2c0.1-0.1,0.1-0.2,0.2-0.2
						c0.1-0.1,0.3-0.2,0.4-0.2C94.3,62.1,94.3,62,94.2,62.1L94.2,62.1z"/>
				</g>
				<path id="XMLID_230_" class="st8" d="M93.5,62.1c-0.1,0.1,0-0.3,0-0.3c0-0.1,0.1-0.3,0.1-0.4c0-0.1-0.1,0-0.1,0
					c0,0.1-0.1,0.2-0.1,0.3c0,0.1,0,0.1-0.1,0.2c0,0.1,0,0.1-0.1,0c-0.1-0.2,0.1-0.5,0.2-0.6c0.1-0.1-0.1-0.1-0.1,0
					c-0.1,0.1-0.4,0.7-0.1,0.8c0.3,0.1,0.4-0.5,0.5-0.7c0,0-0.1,0-0.1,0c-0.1,0.2-0.2,0.4-0.2,0.6C93.3,62.3,93.5,62.3,93.5,62.1
					C93.7,62.1,93.6,62.1,93.5,62.1L93.5,62.1z"/>
				<path id="XMLID_229_" class="st8" d="M92.8,61.1c0-0.1,0-0.3-0.1-0.3c-0.1,0-0.3,0.2-0.4,0.3c-0.1,0.1-0.1,0.2,0,0.4
					c0.1,0.2,0.3,0.1,0.4,0.1c0.1,0,0.1-0.1,0-0.1c-0.1,0-0.2,0-0.2-0.1c-0.1-0.1,0-0.2,0-0.2c0-0.1,0.1-0.2,0.1-0.2c0,0,0,0,0,0
					c0,0,0,0,0,0c0,0,0,0.1,0,0.1C92.7,61.2,92.8,61.2,92.8,61.1L92.8,61.1z"/>
			</g>
		</g>
		<g id="XMLID_182_">
			<path id="XMLID_226_" class="st9" d="M101.2,60c0,0-0.4-0.4,0-0.8c0,0,0.1-0.1,0.1,0c0,0,0.3-0.4,0.3,0c0,0,0.1,0.1-0.1,0.3
				c-0.1,0.1,0,0.2,0,0.1c0.1-0.1,0.2-0.3,0.2-0.3c0.1,0,0.1,0,0.1,0s0,0,0.1,0.1c0,0.1,0.5-0.2,0.3,0.1c0,0-0.2,0.1-0.1,0.2
				c0.1,0.1-0.1,0.3-0.3,0.3c-0.2,0-0.1,0.2,0.1,0.1c0,0,0.2,0.1,0.2,0.2c0,0-0.2,0.3-0.3,0.2c-0.1-0.1-0.1,0,0,0.1
				C101.9,60.7,101.3,60.7,101.2,60"/>
			<path id="XMLID_225_" class="st10" d="M101.2,60.5c0.1,0.1,0.1,0.2,0,0.3c-0.1,0.1-0.2,0.1-0.3,0c-0.1-0.1-0.1-0.2,0-0.3
				C101,60.3,101.1,60.4,101.2,60.5"/>
			<path id="XMLID_224_" class="st10" d="M101.6,60.5c0.1,0.1,0.1,0.3,0,0.4c-0.1,0.1-0.2,0.1-0.3,0c-0.1-0.1-0.1-0.3,0-0.4
				C101.3,60.3,101.5,60.3,101.6,60.5"/>
			<path id="XMLID_223_" class="st5" d="M101.7,60.8c0.1,0.1,0.1,0.3,0,0.4c-0.1,0.1-0.2,0.1-0.3,0c-0.1-0.1-0.1-0.3,0-0.4
				C101.5,60.7,101.7,60.7,101.7,60.8"/>
			<path id="XMLID_222_" class="st5" d="M101.5,61.2c0.1,0.1,0.1,0.3,0,0.4c-0.1,0.1-0.2,0.1-0.3,0c-0.1-0.1-0.1-0.3,0-0.4
				C101.3,61.1,101.4,61.1,101.5,61.2"/>
			<path id="XMLID_221_" class="st10" d="M101.3,60.8c0.1,0.1,0.1,0.2,0,0.3c-0.1,0.1-0.2,0.1-0.3,0c-0.1-0.1-0.1-0.2,0-0.3
				C101.1,60.7,101.2,60.8,101.3,60.8"/>
			<path id="XMLID_220_" class="st10" d="M100.9,61.2c0.1,0.1,0,0.2,0,0.3c-0.1,0.1-0.2,0.1-0.2,0c-0.1-0.1,0-0.2,0-0.3
				C100.8,61.2,100.9,61.2,100.9,61.2"/>
			<path id="XMLID_219_" class="st10" d="M100.4,61.1c0.1,0.1,0.1,0.3,0,0.3c-0.1,0.1-0.2,0.1-0.3,0c-0.1-0.1-0.1-0.3,0-0.3
				C100.2,61,100.3,61,100.4,61.1"/>
			<path id="XMLID_218_" class="st10" d="M100.2,61.5c0.1,0.1,0.1,0.3,0,0.3c-0.1,0.1-0.2,0.1-0.3,0c-0.1-0.1-0.1-0.3,0-0.3
				C100,61.4,100.2,61.4,100.2,61.5"/>
			<path id="XMLID_217_" class="st5" d="M100.1,61.1c0.1,0.1,0.1,0.3,0,0.3c-0.1,0.1-0.2,0.1-0.3,0c-0.1-0.1-0.1-0.3,0-0.3
				C99.9,61,100,61,100.1,61.1"/>
			<path id="XMLID_216_" class="st5" d="M99.9,61.6c0.1,0.1,0.1,0.3,0,0.3c-0.1,0.1-0.2,0.1-0.3,0c-0.1-0.1-0.1-0.3,0-0.3
				C99.7,61.5,99.9,61.5,99.9,61.6"/>
			<path id="XMLID_215_" class="st10" d="M99.7,62.3c0.1,0.1,0,0.2,0,0.3c-0.1,0.1-0.2,0.1-0.2,0c-0.1-0.1,0-0.2,0-0.3
				C99.5,62.2,99.6,62.2,99.7,62.3"/>
			<path id="XMLID_214_" class="st10" d="M99.4,63.3c0.1,0.1,0,0.3-0.1,0.4c-0.1,0.1-0.2,0.1-0.3,0c-0.1-0.1,0-0.3,0.1-0.4
				C99.2,63.2,99.3,63.2,99.4,63.3"/>
			<path id="XMLID_213_" class="st5" d="M99.7,63.1c0,0.1-0.1,0.3-0.2,0.3c-0.1,0-0.3,0-0.3-0.1c0-0.1,0.1-0.3,0.2-0.3
				C99.6,62.9,99.7,62.9,99.7,63.1"/>
			<path id="XMLID_212_" class="st10" d="M100.1,62.8c0,0.1,0,0.3-0.1,0.3c-0.1,0-0.2,0-0.2-0.2c0-0.1,0-0.3,0.1-0.3
				C99.9,62.6,100.1,62.7,100.1,62.8"/>
			<path id="XMLID_211_" class="st10" d="M100,62.6c0,0.1-0.1,0.3-0.2,0.3c-0.1,0.1-0.3,0-0.3-0.2c0-0.1,0-0.3,0.2-0.3
				C99.8,62.4,99.9,62.5,100,62.6"/>
			<path id="XMLID_210_" class="st10" d="M100.3,62.4c0,0.1,0,0.2-0.1,0.3c-0.1,0-0.2,0-0.2-0.1c0-0.1,0-0.2,0.1-0.3
				C100.2,62.2,100.3,62.3,100.3,62.4"/>
			<path id="XMLID_209_" class="st10" d="M100.3,62c0,0.1,0,0.2-0.1,0.3c-0.1,0-0.2,0-0.2-0.1c0-0.1,0-0.2,0.1-0.3
				C100.2,61.8,100.3,61.9,100.3,62"/>
			<path id="XMLID_208_" class="st10" d="M100,62.2c0,0.1,0,0.3-0.1,0.3c-0.1,0-0.2,0-0.2-0.2c0-0.1,0-0.3,0.1-0.3
				C99.8,62,99.9,62,100,62.2"/>
			<path id="XMLID_207_" class="st5" d="M100.4,62.5c0,0.1,0,0.3-0.1,0.3c-0.1,0-0.2,0-0.2-0.2c0-0.1,0-0.3,0.1-0.3
				C100.3,62.3,100.4,62.4,100.4,62.5"/>
			<path id="XMLID_206_" class="st10" d="M100.4,60.7c0.1,0.1,0.1,0.3,0,0.4c-0.1,0.1-0.2,0.1-0.3,0c-0.1-0.1-0.1-0.3,0-0.4
				C100.2,60.6,100.3,60.6,100.4,60.7"/>
			<path id="XMLID_205_" class="st10" d="M100.5,60.4c0.1,0.1,0,0.2,0,0.3c-0.1,0.1-0.2,0.1-0.3,0c-0.1-0.1,0-0.2,0-0.3
				C100.4,60.3,100.5,60.3,100.5,60.4"/>
			<path id="XMLID_204_" class="st5" d="M100.6,61.5c0.1,0.1,0.1,0.3,0,0.3c-0.1,0.1-0.2,0.1-0.3,0c-0.1-0.1-0.1-0.3,0-0.3
				C100.4,61.4,100.6,61.4,100.6,61.5"/>
			<path id="XMLID_203_" class="st5" d="M100.7,61.2c0.1,0.1,0.1,0.3,0,0.3c-0.1,0.1-0.2,0.1-0.3,0c-0.1-0.1-0.1-0.3,0-0.3
				C100.5,61,100.6,61.1,100.7,61.2"/>
			<path id="XMLID_202_" class="st5" d="M101.2,61.3c0.1,0.1,0.1,0.3,0,0.3c-0.1,0.1-0.2,0.1-0.3,0c-0.1-0.1-0.1-0.3,0-0.3
				C101,61.2,101.2,61.2,101.2,61.3"/>
			<path id="XMLID_201_" class="st10" d="M101.3,61.5c0.1,0.1,0.1,0.3,0,0.3c-0.1,0.1-0.2,0.1-0.3,0c-0.1-0.1-0.1-0.3,0-0.3
				C101.1,61.4,101.3,61.4,101.3,61.5"/>
			<path id="XMLID_200_" class="st10" d="M100.9,61.6c0.1,0.1,0.1,0.3,0,0.3c-0.1,0.1-0.2,0.1-0.3,0c-0.1-0.1-0.1-0.3,0-0.3
				C100.7,61.5,100.8,61.5,100.9,61.6"/>
			<path id="XMLID_199_" class="st5" d="M101.1,61.8c0.1,0.1,0.1,0.3,0,0.3c-0.1,0.1-0.2,0.1-0.3,0c-0.1-0.1-0.1-0.3,0-0.3
				C100.9,61.7,101,61.7,101.1,61.8"/>
			<path id="XMLID_198_" class="st5" d="M100.7,62.1c0.1,0.1,0,0.3,0,0.4c-0.1,0.1-0.2,0.1-0.3,0c-0.1-0.1,0-0.3,0-0.4
				C100.5,62,100.7,62,100.7,62.1"/>
			<path id="XMLID_197_" class="st10" d="M100.6,62c0.1,0.1,0,0.3,0,0.4c-0.1,0.1-0.2,0.1-0.3,0c-0.1-0.1,0-0.3,0-0.4
				C100.4,61.8,100.5,61.8,100.6,62"/>
			<path id="XMLID_196_" class="st10" d="M101,60.6c0.1,0.1,0,0.2,0,0.3c-0.1,0.1-0.2,0.1-0.3,0c-0.1-0.1,0-0.2,0-0.3
				C100.8,60.5,100.9,60.5,101,60.6"/>
			<path id="XMLID_195_" class="st5" d="M100.8,60.7c0.1,0.1,0,0.3,0,0.4c-0.1,0.1-0.2,0.1-0.3,0c-0.1-0.1,0-0.3,0-0.4
				C100.6,60.6,100.7,60.6,100.8,60.7"/>
			<path id="XMLID_194_" class="st11" d="M100.6,60.5l0.3-0.3l0-0.4l-0.1-0.1c0,0,0.2-0.1,0.1,0.2c0,0-0.1,0.3,0,0.3
				c0.1,0,0.3-0.2,0.3-0.2l0,0l0,0c0,0-0.2,0.2-0.4,0.2c0,0,0.1,0.1,0.2,0.1c0.1,0,0.1,0.1,0.1,0.1l0,0c0,0-0.1-0.1-0.2-0.1
				c-0.1,0-0.2-0.2-0.2-0.2l0,0.3l0,0l0-0.3L100.6,60.5L100.6,60.5z"/>
			<path id="XMLID_193_" class="st12" d="M99,63.5c0,0,0.1-0.2,0.2-0.2C99.3,63.3,99.1,63.3,99,63.5"/>
			<path id="XMLID_192_" class="st12" d="M100.1,62.7c0,0,0.2,0,0.2-0.2C100.4,62.5,100.4,62.8,100.1,62.7"/>
			<path id="XMLID_191_" class="st12" d="M99.8,61.4c0,0-0.1-0.3,0.1-0.4C100,61.1,99.7,61.1,99.8,61.4"/>
			<path id="XMLID_190_" class="st12" d="M99.7,62.4c0,0-0.1-0.2,0.1-0.3C99.8,62.1,99.6,62.1,99.7,62.4"/>
			<path id="XMLID_189_" class="st12" d="M99.5,62.8c0,0,0.2-0.3,0.4-0.1C99.9,62.6,99.7,62.4,99.5,62.8"/>
			<path id="XMLID_188_" class="st12" d="M101.2,60.8c0,0-0.2,0-0.2,0.3C101,61.1,101,60.8,101.2,60.8"/>
			<path id="XMLID_187_" class="st12" d="M101.6,61.1c0,0,0.3,0,0.1-0.3C101.7,60.8,101.8,61.1,101.6,61.1"/>
			<path id="XMLID_186_" class="st12" d="M101.2,61.5c0,0,0.3,0.2,0,0.4C101.2,61.9,101.5,61.6,101.2,61.5"/>
			<path id="XMLID_185_" class="st12" d="M100.6,61.1c0,0-0.3,0.1-0.1,0.4C100.5,61.5,100.4,61.2,100.6,61.1"/>
			<path id="XMLID_184_" class="st12" d="M99.4,63.3c0,0-0.1-0.2,0.1-0.3C99.4,63,99.3,63.1,99.4,63.3"/>
			<path id="XMLID_183_" class="st11" d="M100.8,59.9c-0.1,0.2-0.3,0.3-0.4,0.2c-0.1-0.1-0.1-0.2-0.1-0.4c0.1-0.2,0.3-0.2,0.3,0
				c0,0.1-0.2,0.2-0.2,0.1c0-0.1,0-0.1,0.1-0.1c0,0-0.1,0.1-0.1,0c0,0,0,0,0,0c0,0.1,0.1,0.1,0.1,0c0-0.1,0-0.1-0.1-0.1
				c0,0-0.1,0-0.1,0c-0.1,0.1,0,0.2,0.1,0.2c0.1,0,0.2-0.1,0.1-0.3c0-0.1-0.2-0.1-0.2-0.1c-0.1,0.1-0.2,0.2-0.1,0.4
				C100.4,60.2,100.8,60.1,100.8,59.9C100.9,59.8,100.8,59.9,100.8,59.9z"/>
		</g>
		<g id="XMLID_149_">
			<g id="XMLID_161_">
				<g id="XMLID_162_">
					<path id="XMLID_179_" class="st8" d="M94.8,55.5C94.8,55.5,94.8,55.5,94.8,55.5C94.7,55.5,94.7,55.5,94.8,55.5
						c-0.3,0-0.4,0.5-0.4,0.7c0,0.2,0,0.7,0.2,0.7c0.1,0,0.2-0.1,0.3-0.3c0.1-0.1,0.1-0.3,0.1-0.4C95,56,95,55.5,94.8,55.5z
						 M94.7,56.5C94.7,56.5,94.7,56.6,94.7,56.5C94.7,56.6,94.7,56.6,94.7,56.5c0,0.1,0,0.1,0,0.1c-0.1,0-0.1-0.4-0.1-0.5
						c0-0.1,0-0.2,0-0.3c0,0,0-0.1,0-0.1c0.1,0,0.1,0.4,0.1,0.5C94.8,56.3,94.8,56.4,94.7,56.5z"/>
					<path id="XMLID_173_" class="st8" d="M94.1,55.5c-0.1-0.1-0.2,0-0.3,0.1c0-0.1,0-0.2,0-0.2c0-0.1-0.1,0-0.1,0
						c0,0-0.1,0.1-0.1,0.1c0,0,0,0,0,0c0,0.1,0,0.1,0,0.2c0,0,0,0,0,0c-0.1,0-0.1,0-0.2,0c0,0,0,0,0,0c0,0-0.1,0-0.1,0c0,0,0,0,0,0
						c0,0,0,0,0,0c-0.3,0.1-0.3,0.5-0.3,0.8c0,0.2,0.1,0.7,0.3,0.6c0.1,0,0.2-0.2,0.3-0.3c0.1-0.1,0.1-0.3,0.1-0.5
						c0-0.1,0-0.2,0-0.3c0,0,0.1-0.1,0.1-0.1c0,0.3,0.1,0.7,0.1,1c0,0.3,0,0.6,0,0.9c0,0.1,0.1,0,0.1,0c0,0,0.1-0.1,0.1-0.2
						c0-0.2,0-0.4,0-0.6c0.1,0,0.2-0.1,0.2-0.1c0.1-0.2,0.2-0.5,0.2-0.7C94.3,55.9,94.3,55.6,94.1,55.5z M93.3,56.6
						C93.3,56.6,93.3,56.7,93.3,56.6c0,0.1,0,0.1,0,0.1c0,0,0,0,0,0c-0.1,0-0.2-0.3-0.2-0.4c0-0.1,0-0.2,0-0.3c0,0,0-0.1,0-0.1
						c0,0,0,0,0,0c0,0,0,0,0,0c0,0,0,0,0,0c0.1,0.1,0.1,0.3,0.1,0.4C93.3,56.4,93.3,56.5,93.3,56.6z M93.9,55.7
						C93.9,55.7,93.9,55.7,93.9,55.7L93.9,55.7z M94,56.6C94,56.6,94,56.6,94,56.6L94,56.6z M94,56.6C94,56.6,94,56.6,94,56.6
						C94,56.6,94,56.6,94,56.6c-0.1,0-0.1-0.1-0.1-0.1c0,0,0,0,0,0c0-0.2,0-0.4,0-0.5c0,0,0,0,0,0c0-0.1,0-0.1,0-0.2l0,0
						c0,0,0,0,0,0c0,0,0.1,0,0.1,0.1c0.1,0.1,0.1,0.3,0.1,0.4C94.1,56.3,94.1,56.5,94,56.6z"/>
					<path id="XMLID_169_" class="st8" d="M92.5,56c0-0.1,0.1-0.2,0.1-0.4c0-0.2,0.1-0.5,0-0.6c-0.1-0.2-0.3,0-0.4,0.1
						c-0.1,0.2-0.1,0.5-0.1,0.7c0,0.3,0,0.5,0.1,0.8c0,0.1-0.1,0.3-0.1,0.4c0,0,0,0,0,0c0,0,0,0,0,0c0,0,0-0.1,0-0.1
						c-0.1-0.4-0.1-0.8-0.3-1.2c0-0.1-0.1-0.3-0.3-0.2c-0.1,0.1-0.2,0.2-0.2,0.3c-0.1-0.1-0.2-0.2-0.3-0.1c-0.1,0-0.1,0.1-0.1,0.2
						c0-0.1,0-0.1-0.1-0.2c-0.1-0.1-0.3,0.2-0.2,0.3c0,0,0.1,0.1,0.1,0.2c0,0.1,0.1,0.3,0.1,0.4c0,0.1,0,0.1,0.1,0.2
						c0.1,0.3,0.1,0.6,0.2,0.9c0,0,0,0,0,0c0.1,0,0.2-0.2,0.1-0.3c-0.1-0.3-0.1-0.5-0.2-0.8c0-0.1,0-0.2-0.1-0.3c0-0.1,0-0.2,0-0.4
						c0,0,0,0,0-0.1c0.1-0.1,0.2,0.3,0.3,0.4c0,0.1,0.1,0.3,0.1,0.5c0,0.2,0.1,0.5,0.1,0.7c0,0,0,0,0,0c0.1,0,0.1-0.2,0.1-0.2
						c-0.1-0.2-0.1-0.5-0.1-0.7c0-0.1,0-0.1,0-0.2c0-0.2-0.1-0.4,0-0.6c0,0,0,0,0,0c0,0,0.1,0.1,0.1,0.1c0.1,0.2,0.2,0.5,0.2,0.7
						c0,0.2,0.1,0.3,0.1,0.5c0,0.1,0,0.2,0.1,0.3c0.1,0.1,0.2,0,0.2-0.1c0.1-0.1,0.1-0.2,0.1-0.3c0,0.1,0.1,0.3,0.2,0.3
						c0.2,0,0.3-0.3,0.3-0.4c0-0.2,0-0.6-0.1-0.7C92.6,56,92.6,56,92.5,56z M92.3,55.8c0-0.2,0-0.4,0-0.5c0,0,0,0,0,0
						c0,0,0.1,0.1,0.1,0.1c0,0.2,0,0.4,0,0.6c0,0.1,0,0.1,0,0.2C92.3,56,92.3,55.9,92.3,55.8z M92.6,56.6c0,0.1,0,0.2,0,0.3
						c0,0,0,0,0,0c0,0,0,0,0,0c0,0-0.1-0.1-0.1-0.1c0-0.1-0.1-0.2-0.1-0.3c0,0,0-0.1,0-0.2c0,0,0,0,0.1,0
						C92.6,56.4,92.6,56.5,92.6,56.6z"/>
					<path id="XMLID_163_" class="st8" d="M98.4,57.7c0,0-0.1,0-0.1,0c0,0,0,0,0,0c0,0,0,0,0,0c0,0,0-0.1,0-0.1
						c0-0.1,0.1-0.2,0.1-0.4c0,0,0,0,0,0c0-0.1,0.1-0.2,0.1-0.3c0,0,0,0,0,0c0,0,0,0,0,0c0-0.1,0.1-0.1,0.1-0.2c0-0.1,0-0.1-0.1-0.1
						c0,0,0,0,0,0c0-0.1-0.1-0.1-0.2-0.1c-0.2,0-0.4,0.3-0.4,0.5c0,0.1,0,0.3,0.2,0.3c0,0,0,0,0.1,0c0,0.1-0.1,0.1-0.1,0.1
						c0,0-0.1-0.1-0.1-0.1c0,0,0-0.1,0-0.1c0,0,0,0,0,0c0,0-0.1,0-0.1,0.1c0,0,0,0,0,0c0-0.1,0-0.1,0-0.2c0-0.2,0.1-0.5,0.2-0.7
						c0,0,0,0,0,0c0-0.1,0-0.3-0.2-0.3c-0.1,0-0.2,0.1-0.3,0.2c-0.1,0.1-0.2,0.3-0.2,0.5l0,0c0,0.1-0.1,0.2-0.1,0.2c0,0,0,0,0,0
						c0,0,0,0,0,0c0-0.1,0-0.2,0-0.3c0-0.2,0.1-0.4,0.2-0.6c0,0,0-0.1,0.1-0.1c0-0.1,0-0.1,0-0.1c-0.1,0-0.1,0-0.2,0.1
						c0,0.1-0.1,0.1-0.1,0.2c0,0.1-0.1,0.1-0.1,0.2c0,0-0.1,0.1-0.1,0.1c0,0,0,0,0,0c0-0.2,0.1-0.4,0.1-0.6c0,0,0,0,0-0.1
						c0,0,0,0,0,0l0,0c0,0,0,0,0,0c0,0,0,0,0,0l0,0c0,0,0,0-0.1,0c0,0-0.1,0-0.1,0.1c0,0,0,0,0,0c-0.1,0.3-0.2,0.6-0.4,0.8
						c0,0,0,0,0,0c0,0,0,0,0,0l0,0c0,0,0,0,0,0c0,0-0.1-0.1-0.1-0.1c0-0.2,0-0.4,0-0.6c0,0,0-0.1,0-0.1c0,0,0-0.1,0-0.1c0,0,0,0,0,0
						c0,0,0,0,0,0c0,0,0,0.1,0.1,0.1c0,0.1,0.3-0.1,0.2-0.2c-0.1-0.2-0.2-0.2-0.3-0.1c-0.1,0.1-0.1,0.1-0.2,0.2c0,0,0,0,0,0
						c0,0,0,0,0,0c0,0,0,0,0,0.1c0,0,0,0,0,0c0,0,0,0.1-0.1,0.1c0-0.2,0.1-0.4,0.1-0.5c0-0.1-0.2,0-0.2,0.1c0,0.1-0.1,0.2-0.1,0.2
						c0-0.1,0-0.2,0-0.2c-0.1-0.2-0.2-0.2-0.4-0.1c0,0-0.1,0.1-0.1,0.2c0,0,0.1,0,0.1,0c0,0,0,0,0,0c0,0,0,0,0,0c0,0,0,0.1,0,0.1
						c0,0.1,0,0.2,0,0.4c0,0.1,0,0.2-0.1,0.3c0,0,0,0,0,0c0,0,0,0,0,0c0,0,0-0.1-0.1-0.1c0-0.1-0.2,0.1-0.2,0.2
						c0.1,0.2,0.3,0.1,0.4-0.1c0-0.1,0.1-0.1,0.1-0.2c0-0.1,0-0.1,0.1-0.2c0,0.2-0.1,0.4-0.1,0.6c0,0.1,0.1,0.1,0.1,0
						c0.1,0,0.1-0.1,0.1-0.2c0-0.1,0-0.1,0.1-0.2c0,0.1,0,0.1,0,0.2c0,0.1,0,0.2,0.1,0.2c0.1,0.1,0.2,0,0.3-0.1
						c0.1-0.1,0.1-0.1,0.2-0.2c0,0.1,0,0.2-0.1,0.4c0,0.1,0,0.1,0.1,0.1c0.1,0,0.1-0.1,0.1-0.1c0-0.1,0.1-0.2,0.1-0.3
						c0-0.1,0.1-0.1,0.1-0.1c0,0,0,0,0,0c0,0.2-0.1,0.3-0.1,0.5c0,0.2,0.1,0.2,0.2,0.2c0.1,0,0.1,0,0.1-0.1c0,0.1,0,0.1,0.1,0.2
						c0.1,0.1,0.2,0,0.3,0c0,0,0,0,0,0c0,0,0,0,0,0.1c0,0.2,0.1,0.2,0.2,0.1c0,0.1,0.2,0.2,0.3,0.1c0,0,0,0,0.1,0c0,0,0,0.1,0,0.1
						c0,0.2,0.2,0.2,0.3,0.2C98.3,57.8,98.4,57.8,98.4,57.7z M97.3,57.2C97.3,57.2,97.3,57.2,97.3,57.2c-0.1-0.1-0.1-0.1-0.1-0.2
						c0-0.1,0-0.1,0-0.2c0,0,0,0,0,0c0,0,0,0,0,0c0-0.1,0.1-0.2,0.1-0.3c0,0,0.1-0.1,0.1-0.1c0,0,0,0,0,0c0,0,0,0,0,0
						c0.1,0,0.1,0.1,0,0.1C97.5,56.7,97.4,56.9,97.3,57.2C97.3,57.1,97.3,57.2,97.3,57.2z M97.6,57.3L97.6,57.3L97.6,57.3L97.6,57.3
						z M98,56.9c0-0.1,0.1-0.3,0.1-0.3c0,0,0,0,0,0c0,0,0,0.1,0,0.1c0,0.1-0.1,0.2-0.1,0.3C98,57.1,98,57,98,56.9z M98.3,57.7
						C98.3,57.7,98.3,57.7,98.3,57.7L98.3,57.7z"/>
				</g>
			</g>
			<g id="XMLID_150_">
				<path id="XMLID_154_" class="st8" d="M98.1,59.6c0,0.1-0.1,0.2-0.2,0.2c0,0,0,0,0,0c0,0,0-0.2,0-0.2c0-0.2,0.1-0.3,0.1-0.4
					c0,0,0-0.1,0-0.1c0-0.1,0-0.1,0.1-0.2c0,0,0,0,0,0c0-0.1,0-0.3-0.2-0.3c-0.1,0-0.2,0-0.3,0.1c-0.1,0.1-0.2,0.3-0.2,0.5
					c0,0,0,0,0,0c0,0.1-0.1,0.1-0.1,0.2c0,0,0,0,0,0c-0.1,0,0-0.1,0-0.2c0-0.1,0-0.2,0-0.3c0-0.1-0.1-0.1-0.2-0.1c0,0,0,0,0,0
					c0,0,0,0,0,0c0-0.1,0.1-0.2,0.1-0.2c0,0,0,0,0,0c0,0,0,0,0,0c0,0,0.1,0.1,0.1,0.1c0.1,0.1,0.3,0,0.2-0.1
					c-0.1-0.1-0.2-0.1-0.3-0.1c-0.1,0-0.1,0-0.2,0.1c0,0,0,0,0,0c0-0.1,0-0.3,0-0.4c0-0.1-0.2,0-0.2,0.1c0,0.2,0,0.4-0.1,0.6
					c0,0,0,0,0,0c-0.1,0.2-0.1,0.3-0.3,0.4c0,0,0,0-0.1,0c0,0,0,0,0,0c0,0,0,0,0,0c0,0,0-0.1,0-0.1c0-0.2,0-0.3,0.1-0.5
					c0-0.1,0-0.2,0.1-0.3c0,0,0-0.1,0.1-0.1c0-0.1,0-0.1-0.1-0.1c-0.1,0-0.1,0.1-0.2,0.1c0,0.1,0,0.1-0.1,0.2c0,0.1-0.1,0.1-0.1,0.2
					c0,0-0.1,0.1-0.1,0.1c0,0,0,0,0,0c0-0.2,0-0.4,0.1-0.6c0-0.1-0.2,0-0.2,0.1c0,0.1,0,0.2,0,0.3c0,0,0,0,0,0
					c0,0.2-0.1,0.4-0.2,0.6c0,0,0,0,0,0c0,0,0-0.1,0-0.2c0-0.2,0-0.3,0-0.5c0,0,0-0.1,0-0.1c0-0.1,0-0.1,0-0.2l0,0
					c0-0.1-0.1-0.2-0.2-0.2c-0.1,0-0.2,0.1-0.3,0.2C95,58.3,95,58.5,95,58.6c0,0,0,0,0,0c0,0.1,0,0.2-0.1,0.2c0,0,0,0,0,0
					c-0.1,0,0-0.1-0.1-0.2c0-0.1,0-0.2-0.1-0.3c0-0.1-0.1-0.1-0.2,0c0,0,0,0,0,0c0,0,0,0,0-0.1c0-0.1,0-0.2,0.1-0.2c0,0,0,0,0,0
					c0,0,0,0,0,0c0,0,0.1,0,0.1,0c0.1,0.1,0.3-0.1,0.2-0.2c-0.1-0.1-0.2-0.1-0.3,0c-0.1,0-0.1,0.1-0.2,0.2c0,0,0,0,0,0
					c0-0.1,0-0.3,0-0.4c0-0.1-0.2,0.1-0.2,0.2c0,0.1,0,0.2,0,0.4c0,0.2-0.1,0.3-0.2,0.5c0,0.1-0.1,0.2-0.2,0.2
					c-0.1,0.1-0.2,0.1-0.2-0.1c0,0,0,0,0,0c0.1-0.2,0.2-0.4,0.3-0.7c0-0.1-0.1-0.3-0.2-0.3c-0.1,0-0.2,0.2-0.3,0.3
					c-0.1,0.2-0.1,0.3,0,0.5c0,0.1,0,0.1,0,0.2c0,0,0,0-0.1,0.1c0,0-0.1,0.1-0.1,0.1c0,0,0,0,0,0c-0.1-0.1-0.1-0.3-0.1-0.4
					c0-0.1,0-0.3-0.1-0.4c0-0.1-0.1-0.2-0.2-0.2c-0.1,0-0.2,0.2-0.2,0.3c0,0,0,0,0,0c0-0.1,0-0.1-0.1-0.2c0-0.1-0.2,0.1-0.2,0.2
					c0,0.1,0.1,0.3,0.1,0.4l0,0c0,0,0,0,0,0s0,0,0,0c0,0.1,0,0.1,0,0.2c0,0.1,0,0.2-0.1,0.3c0,0,0,0,0,0c0,0,0,0,0,0
					c0-0.1,0-0.1-0.1-0.2c-0.1-0.2-0.1-0.4-0.1-0.6c0,0,0,0,0,0c0-0.1-0.1-0.2-0.3-0.1c-0.1,0.1-0.2,0.2-0.2,0.4
					c-0.1,0.2,0,0.5,0,0.7c-0.1,0.1-0.1,0.2-0.1,0.2c0,0-0.1-0.1-0.1-0.1c0-0.2,0-0.5-0.1-0.7c0-0.1-0.1-0.3-0.3-0.2
					c-0.1,0-0.2,0.2-0.2,0.3c-0.1,0.1,0,0.3,0,0.4c0,0.1,0.2-0.1,0.2-0.2c0,0,0-0.1,0-0.1c0,0,0,0,0,0c0,0,0,0,0,0c0,0,0,0,0,0
					c0.1,0,0.1,0.1,0.1,0.2c0,0.1,0.1,0.2,0.1,0.3c0,0,0,0.1,0,0.1c0,0,0,0-0.1,0.1c0,0,0,0,0,0.1c0,0,0,0.1,0,0.2c0,0,0,0,0,0
					c0,0,0,0,0,0c0,0,0.1-0.1,0.1-0.1c0,0,0.1,0,0.1,0.1c-0.1,0.2-0.1,0.3-0.2,0.5c0,0.2,0,0.4,0.1,0.5c0.1,0.1,0.2,0,0.3-0.1
					c0.2-0.2,0.2-0.6,0.1-0.8c0-0.1,0-0.2-0.1-0.3c0-0.1,0.1-0.1,0.1-0.2c0,0.1,0.1,0.2,0.2,0.2c0.1,0,0.2-0.1,0.2-0.2c0,0,0,0,0,0
					c0,0.1,0.1,0.2,0.2,0.1c0.1-0.1,0.1-0.2,0.2-0.3c0,0.1,0,0.1,0,0.2c0,0.1,0.2-0.1,0.2-0.2c0-0.2,0-0.4,0-0.6c0-0.1,0-0.2,0-0.2
					c0,0,0-0.1,0-0.1c0,0,0,0,0,0c0,0,0,0,0,0c0,0,0.1,0.1,0.1,0.1c0,0.1,0,0.3,0,0.4c0,0.1,0,0.6,0.2,0.5c0.1-0.1,0.2-0.1,0.3-0.2
					c0,0,0,0.1,0,0.1c0.1,0.2,0.3,0,0.4-0.1c0.1-0.1,0.2-0.3,0.3-0.4c0,0.2,0,0.3,0,0.5c0,0.1,0.1,0.1,0.1,0c0,0,0.1-0.1,0.1-0.2
					c0-0.1,0-0.2,0-0.4c0.1,0,0,0.4,0.1,0.5c0.1,0.1,0.2,0,0.2-0.1c0,0,0,0,0.1-0.1c0,0.1,0,0.1,0.1,0.2c0.1,0.1,0.2,0,0.3-0.1
					c0,0,0,0,0,0c0,0.1,0,0.1,0.1,0.2c0.1,0,0.2,0,0.2-0.1c0,0,0.1-0.1,0.1-0.1c0,0.1,0,0.1,0,0.2c0,0.1,0.1,0.1,0.1,0.1
					c0.1,0,0.1-0.1,0.1-0.1c0-0.1,0.1-0.2,0.1-0.3c0-0.1,0.1-0.1,0.1-0.1c0,0,0,0,0,0c0,0,0,0,0,0.1c0,0.2-0.1,0.4,0,0.5
					c0,0.1,0.3,0,0.3,0c0.1,0,0.1-0.1,0.1-0.1c0,0.1,0,0.2-0.1,0.2c0,0.1,0,0.1,0.1,0.1c0.1,0,0.1-0.1,0.1-0.1
					c0-0.1,0.1-0.2,0.1-0.3c0.1,0.1,0,0.4,0,0.5c0.1,0.1,0.2,0.1,0.2,0c0,0,0.1,0,0.1,0c0,0.1,0,0.1,0,0.2c0.1,0.1,0.2,0.1,0.3,0
					c0,0,0,0,0,0c0,0.1,0,0.2,0.1,0.2c0.1,0.1,0.2,0,0.2,0c0.1,0,0.2-0.1,0.2-0.2C98.2,59.6,98.2,59.5,98.1,59.6z M91.7,60.6
					C91.7,60.6,91.7,60.6,91.7,60.6C91.6,60.6,91.6,60.6,91.7,60.6c0,0-0.1,0-0.1,0c-0.1-0.1-0.1-0.3-0.1-0.4c0-0.1,0.1-0.2,0.1-0.3
					c0,0,0,0,0,0.1c0,0.1,0.1,0.2,0.1,0.3C91.7,60.4,91.7,60.5,91.7,60.6z M92.1,59.3C92.1,59.3,92.1,59.3,92.1,59.3
					c-0.1,0-0.1-0.1-0.1-0.1c-0.1-0.1-0.1-0.3-0.1-0.5c0-0.1,0-0.1,0-0.2c0,0,0,0,0,0c0,0,0,0,0,0c0,0,0.1,0,0.1,0.1
					C92.1,58.8,92.1,59,92.1,59.3C92.1,59.3,92.1,59.3,92.1,59.3z M93.7,58.6c0-0.1,0-0.2,0-0.4c0-0.1,0-0.1,0-0.2c0,0,0,0,0,0
					c0,0,0,0,0,0c0,0,0,0.1,0.1,0.1C93.8,58.4,93.8,58.5,93.7,58.6z M95.3,58.9C95.3,58.9,95.3,58.9,95.3,58.9
					C95.3,58.9,95.2,58.9,95.3,58.9c-0.1,0-0.1-0.1-0.1-0.1c0-0.2,0-0.4,0-0.5c0-0.1,0.1-0.1,0.1-0.2c0,0,0,0,0,0c0,0,0,0,0,0
					c0.1,0,0.1,0.1,0.1,0.1C95.4,58.4,95.4,58.7,95.3,58.9z M97.9,58.9c-0.1,0.2-0.1,0.4-0.3,0.6c0,0,0,0,0,0c0,0,0,0,0,0
					c0,0,0-0.1,0-0.2c0-0.2,0.1-0.4,0.1-0.5c0,0,0.1-0.1,0.1-0.1c0,0,0,0,0,0c0,0,0,0,0,0C97.9,58.8,97.9,58.9,97.9,58.9z"/>
				<polygon id="XMLID_153_" class="st8" points="91.6,60.6 91.6,60.6 91.6,60.6 				"/>
				<path id="XMLID_152_" class="st8" d="M91.7,60.6C91.7,60.6,91.7,60.6,91.7,60.6L91.7,60.6z"/>
				<path id="XMLID_151_" class="st8" d="M93.7,58.1C93.7,58.1,93.7,58.1,93.7,58.1L93.7,58.1z"/>
			</g>
		</g>
		<g id="XMLID_144_">
			<path id="XMLID_148_" class="st13" d="M88.6,54.6C88.6,54.6,88.6,54.5,88.6,54.6c-0.2-0.1-0.3,0-0.4,0c-0.2,0-0.3,0-0.6-0.1
				c0-0.3,0.2-0.5,0.2-0.7c0.1-0.2,0-0.5,0-0.7c0-0.1,0-0.3,0-0.4c-0.1,0.1-0.1,0.4-0.1,0.5c0-0.2,0-0.4-0.1-0.6c0,0.2,0,0.4,0,0.6
				c0-0.2,0-0.4-0.1-0.5c-0.1,0.2,0,0.4,0,0.6c0-0.1-0.1-0.3-0.1-0.5c0,0.2,0,0.4,0,0.5c0-0.1-0.1-0.3-0.1-0.4
				c0,0.1,0.1,0.3,0.1,0.4c-0.1,0-0.1-0.1-0.2-0.2c0,0.1,0.1,0.2,0.1,0.2c0,0-0.1-0.1-0.1-0.1c0,0.1,0.1,0.1,0.1,0.2
				c0,0-0.1-0.1-0.1-0.1c0,0.1,0.1,0.1,0.1,0.2c0,0-0.1,0-0.1,0c0,0,0.1,0,0,0.1c0,0,0,0,0,0c0,0,0,0,0,0.1c0,0,0,0,0,0
				c0,0,0,0,0,0.1c-0.2,0.3-0.1,0.6-0.1,0.9c0,0-0.2-0.1-0.3-0.2c-0.1,0-0.1-0.2-0.1-0.2c0,0,0,0,0,0c0,0,0,0-0.1-0.1
				c0,0,0.1,0,0.1,0c0,0-0.1-0.1-0.1-0.1c0.1,0,0.1,0,0.1,0c-0.1,0-0.2-0.1-0.2-0.2c0,0,0.1,0.1,0.2,0.1c-0.1-0.1-0.2-0.1-0.2-0.2
				c0.1,0,0.1,0.1,0.2,0.1c-0.1,0-0.2-0.2-0.3-0.2c0,0.1,0.2,0.2,0.2,0.3c-0.1-0.1-0.2-0.1-0.2-0.2c0,0.1,0.1,0.2,0.2,0.2
				c-0.1,0-0.1-0.1-0.2-0.1c0,0.1,0.1,0.1,0.2,0.2c0,0-0.1,0-0.1,0c0,0.1,0.1,0.1,0.1,0.1c0,0-0.1,0-0.1,0c0,0,0.1,0,0.1,0.1
				c0,0-0.1,0-0.1,0c0,0,0.1,0,0.1,0c0,0,0,0,0,0c0,0,0,0,0,0c0,0,0,0,0,0c0.1,0.1,0.2,0.3,0.3,0.4c-0.1,0.1,0.1,0.1-0.9,0.5
				c0,0,0.4-0.1,0.5-0.2c0.1,0,0.2-0.1,0.4-0.1c0,0,0.1,0,0.1,0c0.2,0,0.4,0,0.6-0.1c-0.2,0-0.4,0.1-0.5-0.1c0.1-0.3,0.1-0.9,0.2-1
				c0.1-0.1,0.3-0.5,0.5-0.2c0,0.1,0,0.1,0,0.3c-0.1,0.2-0.2,0.3-0.1,0.7c0,0.1,0,0.2-0.1,0.2c0.4,0.1,0.5,0.1,0.8,0
				c0.1,0,0.2-0.1,0.2,0c0,0-0.1,0-0.2,0c-0.1,0,0,0.1,0.1,0.1c0,0,0.2,0,0.4-0.1C88.7,54.6,88.7,54.6,88.6,54.6z"/>
			<path id="XMLID_145_" class="st13" d="M87.5,51.9c-1,0-1.8,0.9-1.8,2.1c0,1.2,0.7,2.2,1.7,2.2c1,0,1.8-0.9,1.8-2.1
				C89.2,52.9,88.4,51.9,87.5,51.9 M87.5,52c0.9,0,1.6,1,1.6,2.1c0,1.2-0.8,2.1-1.7,2.1c-0.9,0-1.6-1-1.6-2.1
				C85.8,52.9,86.6,51.9,87.5,52"/>
		</g>
	</g>
	<g id="XMLID_29_">
		<path id="XMLID_142_" class="st4" d="M37.4,57.3c-0.1-3.5-2.3-6.3-5-6.3c-2.7,0-4.9,2.8-4.8,6.3s2.3,6.3,5,6.3
			C35.3,63.5,37.5,60.7,37.4,57.3z"/>
		<path id="XMLID_141_" class="st5" d="M30.1,49.6c0,0.4-0.3,0.8-0.6,0.8c-0.3,0-0.6-0.4-0.6-0.8c0-0.4,0.3-0.8,0.6-0.8
			C29.8,48.8,30.1,49.2,30.1,49.6L30.1,49.6z"/>
		<path id="XMLID_140_" class="st6" d="M30.1,52.3c0,0.6-0.3,1-0.8,1c-0.4,0-0.8-0.5-0.8-1c0-0.6,0.3-1,0.8-1
			C29.8,51.3,30.1,51.7,30.1,52.3L30.1,52.3z"/>
		<path id="XMLID_139_" class="st6" d="M28,50.7c0,0.3-0.2,0.6-0.5,0.6c-0.3,0-0.5-0.3-0.5-0.6c0-0.3,0.2-0.6,0.5-0.6
			C27.7,50.1,28,50.4,28,50.7L28,50.7z"/>
		<g id="XMLID_125_">
			<path id="XMLID_138_" class="st7" d="M39.3,51.5c0,1.9-1.2,3.5-2.7,3.5c-1.5,0-2.7-1.5-2.8-3.5c0-1.9,1.2-3.5,2.7-3.5
				C38.1,48.1,39.3,49.6,39.3,51.5z"/>
			<g id="XMLID_126_">
				<path id="XMLID_135_" class="st8" d="M35.9,51.1c-0.2,0-0.3,0.4-0.3,0.6l0,0l0,0c0,0,0,0.1,0,0.1c0,0.1,0,0.2,0,0.3
					c0,0,0,0.1,0,0.1c-0.1,0-0.1-0.1-0.2-0.2c-0.1-0.2-0.1-0.4-0.1-0.5c0-0.2,0-0.4-0.1-0.6c0-0.1,0-0.2,0-0.3c0,0,0-0.1,0-0.1
					c0,0,0-0.1,0-0.1c0-0.2-0.1,0-0.2,0.1c-0.2,0.4-0.1,0.9-0.1,1.3c0,0.1,0,0.2,0,0.4c0,0.1,0,0.2-0.1,0.3c0,0-0.1,0-0.1,0
					c0,0-0.1-0.1-0.1-0.2c0-0.1-0.1,0-0.1,0c0,0-0.1,0.1-0.1,0.2c0,0.2,0.1,0.3,0.3,0.2c0.2-0.1,0.3-0.4,0.3-0.6c0-0.1,0-0.2,0-0.4
					c0,0.2,0.1,0.3,0.1,0.5c0,0.1,0.1,0.2,0.2,0.2c0.1,0,0.1-0.1,0.2-0.3c0,0.1,0.1,0.2,0.2,0.2c0.1,0,0.2-0.2,0.2-0.3
					c0-0.1,0.1-0.3,0.1-0.4C36.2,51.5,36.2,51,35.9,51.1z M36,52.1C36,52.1,36,52.1,36,52.1c-0.1,0.1-0.1,0-0.1,0
					c0-0.1-0.1-0.2-0.1-0.3c0-0.1,0-0.2,0-0.3c0,0,0-0.1,0-0.1c0.1,0.1,0.1,0.3,0.2,0.4C36,51.8,36,51.9,36,52.1z"/>
				<path id="XMLID_132_" class="st8" d="M38.6,51.5c-0.2-0.1-0.4,0.3-0.4,0.5c0,0.2-0.1,0.6,0.1,0.7c0.1,0.1,0.2,0,0.3-0.1
					c0.1-0.1,0.1-0.2,0.1-0.4C38.8,52,38.9,51.6,38.6,51.5z M38.5,52.5C38.5,52.5,38.5,52.5,38.5,52.5c-0.1,0-0.1-0.1-0.1-0.1
					c0-0.1,0-0.2,0-0.3c0-0.1,0-0.2,0.1-0.3c0,0,0,0,0-0.1c0.1,0.1,0.1,0.3,0.1,0.5C38.6,52.2,38.5,52.4,38.5,52.5z"/>
				<path id="XMLID_127_" class="st8" d="M38,51.5c0-0.1,0.1-0.2,0.1-0.2c0.1-0.2,0.2-0.4,0.2-0.6c0-0.2-0.2-0.2-0.3-0.1
					c-0.2,0.1-0.2,0.3-0.3,0.5c-0.1,0.3-0.1,0.5-0.1,0.8c0,0,0,0,0,0c-0.1,0.1-0.2,0.4-0.4,0.3c0,0,0-0.1-0.1-0.1
					c0.1-0.1,0.2-0.3,0.3-0.4c0.1-0.1,0.1-0.4,0-0.5c-0.1-0.1-0.3,0-0.3,0.1c-0.1,0.1-0.1,0.3-0.1,0.4c0,0.1,0,0.2,0,0.4
					c-0.1,0.1-0.2,0.1-0.2,0.1c-0.1,0-0.1-0.1-0.1-0.2c0-0.1,0-0.3,0-0.4c0,0,0-0.1,0-0.1c0,0,0,0,0,0c0.1,0,0.1,0.1,0.1,0.2
					c0,0.1,0.2-0.1,0.2-0.2c0-0.1-0.1-0.2-0.2-0.3c-0.1-0.1-0.2,0-0.2,0.1c-0.1,0.2-0.2,0.5-0.1,0.7c0,0.2,0,0.4,0.1,0.4
					c0.1,0.1,0.3,0,0.5-0.1c0,0.1,0.1,0.2,0.2,0.2c0.1,0,0.3-0.1,0.4-0.3c0,0.1,0,0.3,0.1,0.4c0.1,0.1,0.3,0,0.4-0.1
					c0.1-0.2,0.2-0.4,0.1-0.7C38.1,51.6,38.1,51.5,38,51.5z M37.2,51.4c0,0,0-0.1,0-0.1c0,0,0,0,0,0c0.1,0,0.1,0.1,0.1,0.2
					c0,0.1-0.1,0.2-0.1,0.3c0,0,0,0,0-0.1C37.1,51.6,37.1,51.5,37.2,51.4z M37.9,50.8c0,0,0-0.1,0.1-0.1c0,0,0,0,0,0
					c0.1,0.1,0,0.3,0,0.4c0,0.1-0.1,0.2-0.2,0.4c0-0.1,0-0.2,0.1-0.4C37.9,51,37.9,50.9,37.9,50.8z M37.9,52.2
					C37.9,52.3,37.9,52.3,37.9,52.2C37.9,52.3,37.9,52.3,37.9,52.2c-0.1,0-0.1-0.2-0.1-0.2c0-0.1,0-0.1,0-0.2c0,0,0.1-0.1,0.1-0.1
					c0.1,0,0.1,0,0.1,0.1C38,52,37.9,52.1,37.9,52.2z"/>
			</g>
		</g>
		<g id="XMLID_113_">
			<g id="XMLID_114_">
				<path id="XMLID_124_" class="st8" d="M32.7,61.5c-0.1,0-0.2,0.3-0.2,0.4c0,0.1,0,0.5,0.1,0.5c0.2,0,0.2-0.3,0.2-0.4
					C32.9,61.8,32.8,61.5,32.7,61.5c0,0-0.1,0.2-0.1,0.2c0.1,0,0.1,0.5,0.1,0.6c0,0,0,0,0,0c0,0,0,0,0-0.1c0-0.1,0-0.1,0-0.2
					c0-0.1,0-0.1,0-0.2c0,0,0-0.1,0-0.1c0,0,0,0,0,0c0,0,0,0,0,0C32.7,61.6,32.8,61.5,32.7,61.5z"/>
				<path id="XMLID_123_" class="st8" d="M32.3,61.6c0,0.2,0,0.5,0,0.7c0,0.1,0.1,0,0.1-0.1c0-0.2,0.2-0.3,0.2-0.5
					c0-0.1-0.1,0-0.1,0c0,0.1-0.1,0.2-0.1,0.3c-0.1,0.1-0.1,0.2-0.1,0.3c0,0,0.1,0,0.1-0.1c0-0.3,0-0.5,0-0.8
					C32.4,61.4,32.3,61.5,32.3,61.6L32.3,61.6z"/>
				<path id="XMLID_122_" class="st8" d="M32.9,62.1c0,0.1,0.1,0.2,0.2,0.2c0.1,0,0.1-0.1,0.1-0.2c0-0.1,0-0.2,0-0.3
					c0-0.1,0-0.2,0-0.3c0,0-0.1,0-0.1,0.1c0,0.2,0.1,0.5,0.1,0.7c0,0.1,0.1-0.1,0.1-0.1c0-0.2,0-0.5,0-0.7c0,0-0.1,0-0.1,0.1
					c0,0.1,0.1,0.9,0.3,0.6c0-0.1,0.1-0.2,0-0.1c0,0.1-0.1-0.2-0.1-0.2c0-0.1-0.1-0.2-0.1-0.4c0-0.1-0.1,0-0.1,0.1
					c0,0.2-0.1,0.5,0,0.8c0,0,0.1-0.1,0.1-0.1c0-0.1-0.1-0.2-0.1-0.3c0-0.1-0.1-0.2-0.1-0.3c0-0.1-0.1,0-0.1,0.1c0,0.1,0,0.3,0,0.4
					c0,0.1,0,0.2,0,0.3c0,0,0,0,0,0.1c0,0,0,0,0,0c0,0,0-0.1,0-0.1C33,61.9,32.8,62.1,32.9,62.1L32.9,62.1z"/>
				<path id="XMLID_121_" class="st8" d="M33.9,61.8c0,0.1,0.1,0.2,0.2,0.1c0.1-0.1,0.1-0.2,0.1-0.3c0-0.1,0-0.2-0.1-0.3
					c0-0.1-0.1-0.2-0.1-0.3c0,0-0.1,0.1-0.1,0.1c0,0.2,0.2,0.4,0.3,0.6c0,0.1,0.1-0.1,0.1-0.2c-0.1-0.2-0.1-0.5-0.2-0.7
					c0,0-0.1,0.1-0.1,0.1c0,0.1,0.3,0.9,0.5,0.5c0-0.1,0-0.2,0-0.1c0,0.1-0.2-0.1-0.2-0.2c-0.1-0.1-0.1-0.2-0.1-0.3
					c0-0.1-0.1,0.1-0.1,0.1c0,0.2,0.1,0.5,0.1,0.8c0-0.1,0.1-0.1,0.1-0.2c-0.1-0.1-0.1-0.2-0.2-0.3c-0.1-0.1-0.1-0.2-0.1-0.3
					c0-0.1-0.1,0.1-0.1,0.1c0,0.1,0,0.3,0.1,0.4c0,0.1,0,0.2,0,0.3c0,0,0,0,0,0.1c0,0,0,0,0,0c0,0-0.1-0.1-0.1-0.1
					C34,61.6,33.9,61.7,33.9,61.8L33.9,61.8z"/>
				<path id="XMLID_120_" class="st8" d="M33.6,61.2c-0.1,0.1-0.1,0.3-0.1,0.5c0,0.1,0.1,0.5,0.3,0.4c0.2-0.1,0.2-0.4,0.1-0.5
					C33.9,61.5,33.8,61.2,33.6,61.2c0,0-0.1,0.2,0,0.2c0.1,0,0.1,0.1,0.2,0.2c0,0.1,0,0.1,0.1,0.2c0,0,0,0.1,0,0.1c0,0,0,0.1,0,0.1
					c-0.1,0.1-0.2-0.1-0.2-0.2c0-0.1,0-0.1,0-0.2c0,0,0-0.1,0-0.1c0,0,0,0,0,0C33.7,61.4,33.7,61.2,33.6,61.2z"/>
				<g id="XMLID_117_">
					<path id="XMLID_119_" class="st8" d="M31.8,62.2c0.3,0,0.3-0.3,0.3-0.6c0-0.1,0-0.2-0.1-0.2c-0.1,0-0.2,0.2-0.3,0.3
						c0,0.1,0.1,0,0.1,0c0,0,0-0.1,0.1-0.1c0,0,0,0.1,0,0.2c0,0.1,0,0.3-0.1,0.3C31.9,62,31.8,62.2,31.8,62.2L31.8,62.2z"/>
					<path id="XMLID_118_" class="st8" d="M32.4,62c-0.2,0.1-0.4,0.3-0.6,0.4c-0.1,0.1-0.2,0.3-0.1,0.4c0,0.1,0.2,0.1,0.3,0.1
						c0.3-0.1,0.5-1,0-0.9c-0.1,0-0.1,0.2,0,0.1c0.2,0,0.2,0.6,0,0.6c-0.1,0-0.1-0.2-0.1-0.2c0-0.1,0.1-0.2,0.2-0.2
						c0.1-0.1,0.2-0.2,0.4-0.3C32.5,62.1,32.5,61.9,32.4,62L32.4,62z"/>
				</g>
				<path id="XMLID_116_" class="st8" d="M31.7,62c-0.1,0.1-0.1-0.3-0.1-0.3c0-0.1,0.1-0.3,0.1-0.4c0-0.1-0.1,0-0.1,0
					c0,0.1-0.1,0.2-0.1,0.3c0,0.1,0,0.1-0.1,0.2c0,0.1,0,0.1-0.1,0c-0.1-0.2,0.1-0.5,0.1-0.6c0-0.1-0.1-0.1-0.1,0
					c-0.1,0.1-0.4,0.7-0.1,0.8c0.3,0.1,0.4-0.5,0.4-0.7c0,0-0.1,0-0.1,0c-0.1,0.2-0.1,0.4-0.1,0.6C31.5,62.2,31.6,62.2,31.7,62
					C31.8,62.1,31.8,62,31.7,62L31.7,62z"/>
				<path id="XMLID_115_" class="st8" d="M31,61.1c0-0.1,0-0.3-0.1-0.3c-0.1,0-0.3,0.2-0.3,0.3c-0.1,0.1-0.1,0.2,0,0.4
					c0.1,0.2,0.3,0.1,0.4,0.1c0.1,0,0.1-0.1,0-0.1c-0.1,0-0.2,0-0.2-0.1c-0.1-0.1,0-0.2,0-0.2c0-0.1,0.1-0.2,0.1-0.2c0,0,0,0,0-0.1
					c0,0,0,0,0,0c0,0,0,0.1,0,0.1C30.8,61.1,31,61.1,31,61.1L31,61.1z"/>
			</g>
		</g>
		<g id="XMLID_68_">
			<path id="XMLID_112_" class="st9" d="M39.1,59.8c0,0-0.4-0.3-0.1-0.8c0,0,0-0.1,0.1,0c0,0,0.2-0.4,0.3-0.1c0,0,0.1,0.1-0.1,0.3
				c-0.1,0.1,0,0.2,0,0.1c0.1-0.1,0.1-0.3,0.2-0.3c0.1,0,0.1,0,0.1,0s0,0,0.1,0.1c0,0.1,0.4-0.2,0.3,0.1c0,0-0.2,0.1-0.1,0.2
				c0.1,0.1-0.1,0.3-0.3,0.3c-0.2,0-0.1,0.2,0.1,0.1c0,0,0.2,0.1,0.2,0.2c0,0-0.2,0.3-0.3,0.2c-0.1-0.1-0.1,0,0,0.1
				C39.7,60.4,39.2,60.5,39.1,59.8"/>
			<path id="XMLID_111_" class="st10" d="M39.1,60.2c0.1,0.1,0.1,0.2,0,0.3c-0.1,0.1-0.2,0.1-0.3,0c-0.1-0.1-0.1-0.2,0-0.3
				C38.9,60.1,39,60.1,39.1,60.2"/>
			<path id="XMLID_110_" class="st10" d="M39.4,60.2c0.1,0.1,0.1,0.3,0,0.4c-0.1,0.1-0.2,0.1-0.3,0c-0.1-0.1-0.1-0.3,0-0.4
				C39.2,60.1,39.4,60.1,39.4,60.2"/>
			<path id="XMLID_109_" class="st5" d="M39.6,60.5c0.1,0.1,0.1,0.3,0,0.4c-0.1,0.1-0.2,0.1-0.3,0c-0.1-0.1-0.1-0.3,0-0.4
				C39.4,60.4,39.6,60.4,39.6,60.5"/>
			<path id="XMLID_108_" class="st5" d="M39.4,60.9c0.1,0.1,0.1,0.3,0,0.4c-0.1,0.1-0.2,0.1-0.3,0c-0.1-0.1-0.1-0.3,0-0.4
				C39.2,60.8,39.3,60.8,39.4,60.9"/>
			<path id="XMLID_107_" class="st10" d="M39.2,60.6c0.1,0.1,0.1,0.2,0,0.3C39.1,61,39,61,39,60.9c-0.1-0.1-0.1-0.2,0-0.3
				C39,60.5,39.1,60.5,39.2,60.6"/>
			<path id="XMLID_106_" class="st10" d="M38.9,61c0.1,0.1,0.1,0.2,0,0.3c-0.1,0.1-0.2,0.1-0.2,0c-0.1-0.1-0.1-0.2,0-0.3
				C38.7,60.9,38.8,60.9,38.9,61"/>
			<path id="XMLID_105_" class="st10" d="M38.3,60.9c0.1,0.1,0.1,0.3,0,0.3c-0.1,0.1-0.2,0.1-0.3,0c-0.1-0.1-0.1-0.3,0-0.3
				C38.2,60.8,38.3,60.8,38.3,60.9"/>
			<path id="XMLID_104_" class="st10" d="M38.2,61.3c0.1,0.1,0.1,0.3,0,0.3c-0.1,0.1-0.2,0.1-0.3,0c-0.1-0.1-0.1-0.3,0-0.3
				C38,61.2,38.1,61.2,38.2,61.3"/>
			<path id="XMLID_103_" class="st5" d="M38,60.9c0.1,0.1,0.1,0.3,0,0.3c-0.1,0.1-0.2,0.1-0.3,0c-0.1-0.1-0.1-0.3,0-0.3
				C37.8,60.8,38,60.8,38,60.9"/>
			<path id="XMLID_102_" class="st5" d="M37.9,61.4c0.1,0.1,0.1,0.3,0,0.3c-0.1,0.1-0.2,0.1-0.3,0c-0.1-0.1-0.1-0.3,0-0.3
				C37.7,61.3,37.8,61.3,37.9,61.4"/>
			<path id="XMLID_101_" class="st10" d="M37.7,62.1c0.1,0.1,0.1,0.2,0,0.3c-0.1,0.1-0.2,0.1-0.2,0c-0.1-0.1-0.1-0.2,0-0.3
				C37.5,62,37.6,62,37.7,62.1"/>
			<path id="XMLID_100_" class="st10" d="M37.5,63.1c0.1,0.1,0.1,0.3,0,0.4c-0.1,0.1-0.2,0.1-0.3,0c-0.1-0.1-0.1-0.3,0-0.4
				C37.3,63,37.4,63,37.5,63.1"/>
			<path id="XMLID_99_" class="st5" d="M37.8,62.8c0,0.1,0,0.3-0.2,0.3c-0.1,0.1-0.2,0-0.3-0.1c0-0.1,0-0.3,0.2-0.3
				C37.6,62.7,37.8,62.7,37.8,62.8"/>
			<path id="XMLID_98_" class="st10" d="M38.1,62.6c0,0.1,0,0.3-0.1,0.3c-0.1,0-0.2,0-0.2-0.2c0-0.1,0-0.3,0.1-0.3
				C38,62.4,38.1,62.5,38.1,62.6"/>
			<path id="XMLID_97_" class="st10" d="M38,62.4c0,0.1,0,0.3-0.2,0.3c-0.1,0.1-0.3,0-0.3-0.2c0-0.1,0-0.3,0.2-0.3
				C37.8,62.2,38,62.3,38,62.4"/>
			<path id="XMLID_96_" class="st10" d="M38.3,62.2c0,0.1,0,0.2-0.1,0.3c-0.1,0-0.2,0-0.2-0.1c0-0.1,0-0.2,0.1-0.3
				C38.2,62,38.3,62,38.3,62.2"/>
			<path id="XMLID_95_" class="st10" d="M38.3,61.7c0,0.1,0,0.2-0.1,0.3c-0.1,0-0.2,0-0.2-0.1c0-0.1,0-0.2,0.1-0.3
				C38.2,61.6,38.3,61.6,38.3,61.7"/>
			<path id="XMLID_94_" class="st10" d="M38,62c0,0.1,0,0.3-0.1,0.3c-0.1,0-0.2,0-0.2-0.2c0-0.1,0-0.3,0.1-0.3
				C37.8,61.8,37.9,61.8,38,62"/>
			<path id="XMLID_93_" class="st5" d="M38.4,62.3c0,0.1,0,0.3-0.1,0.3c-0.1,0-0.2,0-0.2-0.2c0-0.1,0-0.3,0.1-0.3
				C38.3,62.1,38.4,62.2,38.4,62.3"/>
			<path id="XMLID_92_" class="st10" d="M38.3,60.5c0.1,0.1,0.1,0.3,0,0.4c-0.1,0.1-0.2,0.1-0.3,0c-0.1-0.1-0.1-0.3,0-0.4
				C38.1,60.4,38.2,60.4,38.3,60.5"/>
			<path id="XMLID_91_" class="st10" d="M38.4,60.1c0.1,0.1,0.1,0.2,0,0.3c-0.1,0.1-0.2,0.1-0.3,0c-0.1-0.1-0.1-0.2,0-0.3
				C38.3,60,38.4,60,38.4,60.1"/>
			<path id="XMLID_90_" class="st5" d="M38.6,61.3c0.1,0.1,0.1,0.3,0,0.3c-0.1,0.1-0.2,0.1-0.3,0c-0.1-0.1-0.1-0.3,0-0.3
				C38.4,61.2,38.5,61.2,38.6,61.3"/>
			<path id="XMLID_89_" class="st5" d="M38.6,60.9c0.1,0.1,0.1,0.3,0,0.3c-0.1,0.1-0.2,0.1-0.3,0c-0.1-0.1-0.1-0.3,0-0.3
				C38.5,60.8,38.6,60.8,38.6,60.9"/>
			<path id="XMLID_88_" class="st5" d="M39.2,61.1c0.1,0.1,0.1,0.3,0,0.3c-0.1,0.1-0.2,0.1-0.3,0c-0.1-0.1-0.1-0.3,0-0.3
				C39,60.9,39.1,61,39.2,61.1"/>
			<path id="XMLID_87_" class="st10" d="M39.3,61.3c0.1,0.1,0.1,0.3,0,0.3c-0.1,0.1-0.2,0.1-0.3,0c-0.1-0.1-0.1-0.3,0-0.3
				C39.1,61.1,39.2,61.2,39.3,61.3"/>
			<path id="XMLID_86_" class="st10" d="M38.8,61.4c0.1,0.1,0.1,0.3,0,0.3c-0.1,0.1-0.2,0.1-0.3,0c-0.1-0.1-0.1-0.3,0-0.3
				C38.7,61.3,38.8,61.3,38.8,61.4"/>
			<path id="XMLID_85_" class="st5" d="M39,61.5c0.1,0.1,0.1,0.3,0,0.3c-0.1,0.1-0.2,0.1-0.3,0c-0.1-0.1-0.1-0.3,0-0.3
				C38.8,61.4,39,61.4,39,61.5"/>
			<path id="XMLID_84_" class="st5" d="M38.7,61.9c0.1,0.1,0.1,0.3,0,0.4c-0.1,0.1-0.2,0.1-0.3,0c-0.1-0.1-0.1-0.3,0-0.4
				C38.5,61.8,38.6,61.8,38.7,61.9"/>
			<path id="XMLID_83_" class="st10" d="M38.5,61.7c0.1,0.1,0.1,0.3,0,0.4c-0.1,0.1-0.2,0.1-0.3,0c-0.1-0.1-0.1-0.3,0-0.4
				C38.3,61.6,38.5,61.6,38.5,61.7"/>
			<path id="XMLID_82_" class="st10" d="M38.9,60.4c0.1,0.1,0.1,0.2,0,0.3c-0.1,0.1-0.2,0.1-0.3,0c-0.1-0.1-0.1-0.2,0-0.3
				C38.7,60.3,38.8,60.3,38.9,60.4"/>
			<path id="XMLID_81_" class="st5" d="M38.7,60.4c0.1,0.1,0.1,0.3,0,0.4c-0.1,0.1-0.2,0.1-0.3,0c-0.1-0.1-0.1-0.3,0-0.4
				C38.5,60.4,38.6,60.3,38.7,60.4"/>
			<path id="XMLID_80_" class="st11" d="M38.5,60.2l0.2-0.3l0-0.4l-0.1-0.1c0,0,0.2-0.1,0.1,0.2c0,0-0.1,0.3,0,0.3
				c0.1,0,0.3-0.2,0.3-0.2l0,0l0,0c0,0-0.2,0.2-0.4,0.2c0,0,0.1,0.1,0.2,0.1c0.1,0,0.1,0.1,0.1,0.1l0,0c0,0-0.1-0.1-0.2-0.1
				c-0.1,0-0.2-0.2-0.2-0.2l0,0.3l0,0l0-0.3L38.5,60.2L38.5,60.2z"/>
			<path id="XMLID_79_" class="st12" d="M37.1,63.3c0,0,0.1-0.2,0.2-0.2C37.3,63.1,37.2,63.1,37.1,63.3"/>
			<path id="XMLID_78_" class="st12" d="M38.1,62.5c0,0,0.2,0,0.2-0.2C38.4,62.3,38.4,62.5,38.1,62.5"/>
			<path id="XMLID_77_" class="st12" d="M37.8,61.2c0,0-0.1-0.3,0.1-0.4C37.9,60.9,37.7,60.9,37.8,61.2"/>
			<path id="XMLID_76_" class="st12" d="M37.7,62.2c0,0-0.1-0.2,0.1-0.3C37.8,61.8,37.6,61.9,37.7,62.2"/>
			<path id="XMLID_75_" class="st12" d="M37.6,62.6c0,0,0.1-0.3,0.4-0.2C38,62.4,37.7,62.2,37.6,62.6"/>
			<path id="XMLID_74_" class="st12" d="M39.1,60.6c0,0-0.2,0-0.2,0.3C39,60.8,38.9,60.5,39.1,60.6"/>
			<path id="XMLID_73_" class="st12" d="M39.5,60.9c0,0,0.3,0,0.1-0.3C39.6,60.5,39.7,60.8,39.5,60.9"/>
			<path id="XMLID_72_" class="st12" d="M39.1,61.2c0,0,0.3,0.2,0,0.4C39.1,61.6,39.4,61.4,39.1,61.2"/>
			<path id="XMLID_71_" class="st12" d="M38.5,60.9c0,0-0.2,0.1-0.1,0.4C38.4,61.3,38.3,61,38.5,60.9"/>
			<path id="XMLID_70_" class="st12" d="M37.4,63.1c0,0-0.1-0.2,0.1-0.3C37.5,62.8,37.3,62.9,37.4,63.1"/>
			<path id="XMLID_69_" class="st11" d="M38.7,59.6c-0.1,0.2-0.2,0.3-0.4,0.2c-0.1-0.1-0.1-0.2-0.1-0.3c0.1-0.2,0.3-0.2,0.3,0
				c0,0.1-0.2,0.2-0.2,0.1c0-0.1,0-0.1,0.1-0.1c0,0-0.1,0.1-0.1,0c0,0,0,0,0,0c0,0.1,0.1,0.1,0.1,0c0-0.1,0-0.1-0.1-0.1
				c0,0-0.1,0-0.1,0c-0.1,0.1,0,0.2,0.1,0.2c0.1,0,0.2-0.2,0.1-0.3c0-0.1-0.2-0.1-0.2-0.1c-0.1,0.1-0.2,0.2-0.1,0.4
				C38.3,60,38.7,59.9,38.7,59.6C38.7,59.6,38.7,59.6,38.7,59.6z"/>
		</g>
		<g id="XMLID_35_">
			<g id="XMLID_47_">
				<g id="XMLID_48_">
					<path id="XMLID_65_" class="st8" d="M32.6,55.4C32.6,55.4,32.6,55.4,32.6,55.4C32.5,55.4,32.5,55.4,32.6,55.4
						c-0.3,0-0.4,0.5-0.4,0.7c0,0.2,0,0.7,0.3,0.7c0.1,0,0.2-0.1,0.3-0.3c0.1-0.1,0.1-0.3,0.1-0.4C32.8,55.9,32.8,55.4,32.6,55.4z
						 M32.6,56.4C32.6,56.5,32.6,56.5,32.6,56.4c0,0.1,0,0.1,0,0.1c0,0,0,0,0,0c-0.1,0-0.2-0.4-0.2-0.5c0-0.1,0-0.2,0-0.3
						c0,0,0-0.1,0-0.1c0.1,0,0.2,0.4,0.2,0.5C32.6,56.2,32.6,56.3,32.6,56.4z"/>
					<path id="XMLID_59_" class="st8" d="M31.9,55.4c-0.1-0.1-0.2,0-0.3,0.1c0-0.1,0-0.2,0-0.2c0-0.1-0.1,0-0.1,0
						c0,0-0.1,0.1-0.1,0.1c0,0,0,0,0,0c0,0.1,0,0.1,0,0.2c0,0,0,0,0,0c-0.1,0-0.1,0-0.2,0c0,0,0,0,0,0c0,0-0.1,0-0.1,0c0,0,0,0,0,0
						c0,0,0,0,0,0c-0.3,0.1-0.3,0.5-0.3,0.8c0,0.2,0.1,0.7,0.3,0.6c0.1,0,0.2-0.2,0.3-0.3c0-0.1,0.1-0.3,0-0.5c0-0.1,0-0.2-0.1-0.3
						c0,0,0.1-0.1,0.1-0.1c0.1,0.3,0.1,0.7,0.1,1c0,0.3,0,0.6,0,0.9c0,0.1,0.1,0,0.1,0c0,0,0.1-0.1,0.1-0.2c0-0.2,0-0.4,0-0.6
						c0.1,0,0.1-0.1,0.2-0.1c0.1-0.2,0.1-0.5,0.1-0.7C32.1,55.8,32.1,55.5,31.9,55.4z M31.2,56.6C31.2,56.6,31.2,56.6,31.2,56.6
						c0,0.1,0,0.1,0,0.1c0,0,0,0,0,0c-0.1,0-0.2-0.3-0.2-0.4c0-0.1,0-0.2,0-0.3c0,0,0-0.1,0-0.1c0,0,0,0,0,0c0,0,0,0,0,0
						c0,0,0,0,0,0c0.1,0.1,0.1,0.3,0.1,0.4C31.2,56.3,31.2,56.4,31.2,56.6z M31.7,55.7C31.7,55.7,31.7,55.7,31.7,55.7L31.7,55.7z
						 M31.9,56.6C31.9,56.6,31.9,56.6,31.9,56.6L31.9,56.6z M31.9,56.5C31.9,56.6,31.9,56.6,31.9,56.5
						C31.9,56.6,31.9,56.6,31.9,56.5c-0.1,0-0.1,0-0.1-0.1c0,0,0,0,0,0c0-0.2,0-0.4,0-0.5c0,0,0,0,0,0c0-0.1,0-0.1,0-0.2l0,0
						c0,0,0,0,0,0c0,0,0.1,0,0.1,0c0.1,0.1,0.1,0.3,0.1,0.4C31.9,56.2,32,56.4,31.9,56.5z"/>
					<path id="XMLID_55_" class="st8" d="M30.4,56c0-0.1,0-0.2,0.1-0.4c0-0.2,0.1-0.5,0-0.6c-0.1-0.2-0.3,0-0.3,0.1
						C30,55.3,30,55.6,30,55.8c0,0.3,0.1,0.5,0.1,0.8c0,0.1,0,0.3-0.1,0.4c0,0,0,0,0,0c0,0,0,0,0,0c0,0,0-0.1,0-0.1
						c-0.1-0.4-0.2-0.8-0.3-1.2c0-0.1-0.1-0.3-0.3-0.2c-0.1,0.1-0.2,0.2-0.2,0.3c-0.1-0.1-0.2-0.2-0.3-0.1c-0.1,0-0.1,0.1-0.1,0.2
						c0-0.1,0-0.1-0.1-0.1c-0.1-0.1-0.2,0.2-0.2,0.3c0,0,0.1,0.1,0.1,0.2c0,0.1,0.1,0.3,0.1,0.4c0,0.1,0,0.1,0.1,0.2
						c0.1,0.3,0.2,0.6,0.3,0.9c0,0,0,0,0,0c0.1,0,0.1-0.2,0.1-0.3c-0.1-0.3-0.1-0.5-0.2-0.8c0-0.1-0.1-0.2-0.1-0.3
						c0-0.1,0-0.2,0-0.4c0,0,0,0,0-0.1c0.1-0.1,0.2,0.3,0.3,0.4c0,0.1,0.1,0.3,0.1,0.4c0.1,0.2,0.1,0.5,0.2,0.7c0,0,0,0,0,0
						c0.1,0,0.1-0.2,0.1-0.3c-0.1-0.2-0.1-0.5-0.2-0.7c0-0.1,0-0.1,0-0.2c0-0.2-0.1-0.4-0.1-0.6c0,0,0,0,0,0c0,0,0.1,0.1,0.1,0.1
						c0.1,0.2,0.2,0.5,0.2,0.7c0,0.2,0.1,0.3,0.1,0.5c0,0.1,0.1,0.2,0.1,0.3c0.1,0.1,0.1,0,0.2-0.1c0.1-0.1,0.1-0.2,0.1-0.3
						c0.1,0.1,0.1,0.3,0.2,0.3c0.2,0,0.2-0.3,0.3-0.5c0-0.2,0-0.6-0.2-0.7C30.5,56,30.5,56,30.4,56z M30.2,55.7c0-0.2,0-0.4,0-0.5
						c0,0,0,0,0,0c0,0,0.1,0.1,0.1,0.1c0,0.2,0,0.4,0,0.6c0,0.1,0,0.1,0,0.2C30.2,56,30.2,55.9,30.2,55.7z M30.5,56.5
						c0,0.1,0,0.2,0,0.3c0,0,0,0,0,0c0,0,0,0,0,0c0,0-0.1-0.1-0.1-0.1c0-0.1-0.1-0.2-0.1-0.3c0-0.1,0-0.1,0-0.2c0,0,0,0,0.1,0
						C30.5,56.3,30.5,56.5,30.5,56.5z"/>
					<path id="XMLID_49_" class="st8" d="M36.2,57.5c0,0-0.1,0-0.1,0c0,0,0,0,0,0c0,0,0,0,0,0c0,0,0-0.1,0-0.1c0-0.1,0-0.2,0.1-0.4
						c0,0,0,0,0,0c0-0.1,0.1-0.2,0.1-0.3c0,0,0,0,0,0c0,0,0,0,0,0c0-0.1,0-0.1,0.1-0.2c0-0.1-0.1-0.1-0.1-0.1c0,0,0,0,0,0
						c0-0.1-0.1-0.1-0.2-0.1c-0.2,0-0.4,0.3-0.4,0.5c0,0.1,0,0.3,0.2,0.3c0,0,0,0,0.1,0c0,0.1-0.1,0.1-0.1,0.2c0,0-0.1-0.1-0.1-0.1
						c0,0,0-0.1,0-0.1c0,0,0,0,0,0c0,0-0.1,0-0.1,0.1c0,0,0,0,0,0c0-0.1,0-0.1,0-0.2c0-0.2,0.1-0.5,0.1-0.7c0,0,0,0,0,0
						c0-0.1-0.1-0.3-0.2-0.3c-0.1,0-0.2,0.1-0.3,0.2c-0.1,0.1-0.2,0.3-0.2,0.6l0,0c0,0.1,0,0.2-0.1,0.2c0,0,0,0,0,0c0,0,0,0,0,0
						c0-0.1,0-0.2,0-0.3c0-0.2,0-0.4,0.1-0.6c0,0,0-0.1,0.1-0.1c0-0.1,0-0.1-0.1-0.1c-0.1,0-0.1,0.1-0.2,0.1c0,0.1,0,0.1-0.1,0.2
						c0,0.1-0.1,0.1-0.1,0.2c0,0-0.1,0.1-0.1,0.1c0,0,0,0,0,0c0-0.2,0-0.4,0.1-0.6c0,0,0,0,0-0.1c0,0,0,0,0,0l0,0c0,0,0,0,0,0
						c0,0,0,0,0,0l0,0c0,0,0,0-0.1,0c0,0-0.1,0-0.1,0.1c0,0,0,0,0,0c-0.1,0.3-0.1,0.6-0.3,0.9c0,0,0,0,0,0c0,0,0,0,0,0l0,0
						c0,0,0,0,0,0c0,0-0.1-0.1-0.1-0.1c0-0.2,0-0.4,0-0.6c0,0,0-0.1,0-0.1c0,0,0-0.1,0-0.1c0,0,0,0,0,0c0,0,0,0,0,0
						c0,0,0,0.1,0.1,0.1c0,0.1,0.3-0.1,0.2-0.2c-0.1-0.2-0.2-0.2-0.3-0.1c-0.1,0.1-0.1,0.1-0.2,0.2c0,0,0,0,0,0c0,0,0,0,0,0
						c0,0,0,0,0,0.1c0,0,0,0,0,0c0,0.1,0,0.1-0.1,0.1c0-0.2,0-0.4,0.1-0.5c0-0.1-0.2,0-0.2,0.1c0,0.1,0,0.2-0.1,0.2
						c0-0.1,0-0.2,0-0.2c-0.1-0.2-0.2-0.2-0.4-0.1c0,0-0.1,0.1,0,0.2c0,0,0.1,0,0.1,0c0,0,0,0,0,0c0,0,0,0,0,0c0,0,0,0.1,0,0.1
						c0,0.1,0,0.2,0,0.4c0,0.1,0,0.2,0,0.3c0,0,0,0,0,0c0,0,0,0,0,0c0,0,0-0.1-0.1-0.1c0-0.1-0.2,0.1-0.2,0.2
						c0.1,0.2,0.3,0.1,0.4-0.1c0-0.1,0.1-0.1,0.1-0.2c0-0.1,0-0.1,0.1-0.2c0,0.2,0,0.4-0.1,0.6c0,0.1,0.1,0.1,0.1,0
						c0.1,0,0.1-0.1,0.1-0.2c0-0.1,0-0.1,0.1-0.2c0,0.1,0,0.1,0,0.2c0,0.1,0.1,0.2,0.1,0.2c0.1,0,0.2,0,0.3-0.1
						c0.1-0.1,0.1-0.1,0.2-0.2c0,0.1,0,0.2,0,0.4c0,0.1,0.1,0.1,0.1,0.1c0.1,0,0.1-0.1,0.1-0.1c0-0.1,0.1-0.2,0.1-0.3
						c0-0.1,0-0.1,0.1-0.1c0,0,0,0,0,0c0,0.2-0.1,0.3,0,0.5c0,0.2,0.1,0.2,0.2,0.2c0,0,0.1,0,0.1-0.1c0,0.1,0,0.1,0.1,0.2
						c0.1,0.1,0.2,0,0.3,0c0,0,0,0,0,0c0,0,0,0,0,0.1c0,0.2,0.1,0.2,0.2,0.1c0.1,0.1,0.2,0.2,0.3,0.1c0,0,0,0,0.1,0c0,0,0,0.1,0,0.1
						c0,0.2,0.2,0.2,0.3,0.2C36.1,57.6,36.2,57.6,36.2,57.5z M35.1,57C35.1,57,35.1,57,35.1,57C35,57,35,56.9,35,56.8
						c0-0.1,0-0.1,0-0.2c0,0,0,0,0,0c0,0,0,0,0,0c0-0.1,0.1-0.2,0.1-0.3c0,0,0.1-0.1,0.1-0.1c0,0,0,0,0,0c0,0,0,0,0,0
						c0.1,0,0.1,0.1,0.1,0.1C35.3,56.5,35.2,56.8,35.1,57C35.1,57,35.1,57,35.1,57z M35.4,57.2L35.4,57.2L35.4,57.2L35.4,57.2z
						 M35.8,56.7c0-0.1,0.1-0.3,0.1-0.3c0,0,0,0,0,0c0,0,0,0.1,0,0.1c0,0.1-0.1,0.2-0.1,0.3C35.8,56.9,35.8,56.8,35.8,56.7z
						 M36.1,57.5C36.1,57.5,36.1,57.5,36.1,57.5L36.1,57.5z"/>
				</g>
			</g>
			<g id="XMLID_36_">
				<path id="XMLID_40_" class="st8" d="M36,59.4c0,0.1-0.1,0.2-0.2,0.2c0,0,0,0,0,0c0,0,0-0.2,0-0.2c0-0.2,0-0.3,0.1-0.4
					c0,0,0-0.1,0-0.1c0-0.1,0-0.1,0-0.2c0,0,0,0,0,0c0-0.1,0-0.3-0.2-0.3c-0.1,0-0.2,0-0.3,0.1c-0.1,0.1-0.2,0.3-0.2,0.5
					c0,0,0,0,0,0c0,0.1-0.1,0.1-0.1,0.2c0,0,0,0,0,0c-0.1,0,0-0.1,0-0.2c0-0.1,0-0.2,0-0.3c0-0.1-0.1-0.1-0.2-0.1c0,0,0,0,0,0
					c0,0,0,0,0,0c0-0.1,0.1-0.2,0.1-0.2c0,0,0,0,0,0c0,0,0,0,0,0c0,0,0.1,0.1,0.1,0.1c0.1,0.1,0.3,0,0.2-0.1
					c-0.1-0.1-0.2-0.1-0.3-0.1c-0.1,0-0.1,0-0.2,0.1c0,0,0,0,0,0c0-0.1,0-0.3,0-0.4c0-0.1-0.2,0-0.2,0.1c0,0.2,0,0.4,0,0.6
					c0,0,0,0,0,0c0,0.2-0.1,0.3-0.3,0.4c0,0,0,0-0.1,0c0,0,0,0,0,0c0,0,0,0,0,0c0,0,0-0.1,0-0.1c0-0.2,0-0.3,0-0.5
					c0-0.1,0-0.2,0.1-0.3c0,0,0-0.1,0-0.1c0-0.1,0-0.1-0.1-0.1c-0.1,0-0.1,0.1-0.2,0.1c0,0.1,0,0.1-0.1,0.2c0,0.1-0.1,0.1-0.1,0.2
					c0,0-0.1,0.1-0.1,0.1c0,0,0,0,0,0c0-0.2,0-0.4,0-0.6c0-0.1-0.2,0-0.2,0.1c0,0.1,0,0.2,0,0.3c0,0,0,0,0,0c0,0.2-0.1,0.4-0.1,0.6
					c0,0,0,0,0,0c0,0-0.1-0.1-0.1-0.2c0-0.2,0-0.3,0-0.5c0,0,0-0.1,0-0.1c0-0.1,0-0.1,0-0.2l0,0c0-0.1-0.1-0.2-0.2-0.2
					c-0.1,0-0.2,0.1-0.3,0.2c-0.1,0.2-0.1,0.4-0.1,0.5c0,0,0,0,0,0c0,0.1,0,0.2-0.1,0.2c0,0,0,0,0,0c-0.1,0-0.1-0.1-0.1-0.2
					c0-0.1,0-0.2-0.1-0.3c0-0.1-0.1-0.1-0.2,0c0,0,0,0,0,0c0,0,0,0,0-0.1c0-0.1,0-0.2,0.1-0.2c0,0,0,0,0,0c0,0,0,0,0,0
					c0,0,0.1,0,0.1,0c0.1,0.1,0.2-0.1,0.2-0.2c-0.1-0.1-0.2-0.1-0.3,0c-0.1,0-0.1,0.1-0.1,0.2c0,0,0,0,0,0c0-0.1,0-0.3-0.1-0.4
					c0-0.1-0.2,0.1-0.2,0.2c0,0.1,0,0.2,0.1,0.4c0,0.2-0.1,0.3-0.2,0.5c0,0.1-0.1,0.2-0.1,0.2c-0.1,0.1-0.2,0.1-0.2-0.1c0,0,0,0,0,0
					c0.1-0.2,0.2-0.4,0.2-0.7c0-0.1-0.1-0.3-0.2-0.2c-0.1,0-0.2,0.2-0.3,0.3c0,0.2,0,0.3,0,0.5c0,0.1,0,0.1,0,0.2c0,0,0,0-0.1,0.1
					c0,0-0.1,0.1-0.1,0.1c0,0,0,0,0,0c-0.1-0.1-0.1-0.3-0.1-0.4c0-0.1,0-0.3-0.1-0.4c0-0.1-0.1-0.2-0.2-0.2c-0.1,0-0.2,0.2-0.2,0.3
					c0,0,0,0,0,0c0-0.1,0-0.1-0.1-0.2c0-0.1-0.2,0.1-0.2,0.2c0.1,0.1,0.1,0.3,0.1,0.4l0,0c0,0,0,0,0,0s0,0,0,0c0,0.1,0,0.1,0,0.2
					c0,0.1,0,0.2-0.1,0.3c0,0,0,0,0,0c0,0,0,0,0,0c0-0.1-0.1-0.1-0.1-0.2c-0.1-0.2-0.1-0.4-0.1-0.6c0,0,0,0,0,0
					c0-0.1-0.1-0.2-0.3-0.1c-0.1,0.1-0.2,0.2-0.2,0.4c0,0.2,0,0.5,0.1,0.7c0,0.1-0.1,0.2-0.1,0.2c0,0-0.1-0.1-0.1-0.1
					c0-0.2,0-0.5-0.1-0.7c0-0.1-0.1-0.2-0.3-0.2c-0.1,0-0.2,0.2-0.2,0.3c0,0.1,0,0.3,0,0.4c0,0.1,0.2-0.1,0.2-0.2c0,0,0-0.1,0-0.1
					c0,0,0,0,0,0c0,0,0,0,0,0c0,0,0,0,0,0c0.1,0,0.1,0.1,0.2,0.2c0,0.1,0.1,0.2,0.1,0.3c0,0,0,0.1,0,0.1c0,0,0,0-0.1,0.1
					c0,0,0,0,0,0.1c0,0,0,0.1,0,0.2c0,0,0,0,0,0c0,0,0,0,0,0c0,0,0.1-0.1,0.1-0.1c0,0,0.1,0,0.1,0.1c-0.1,0.2-0.1,0.4-0.1,0.5
					c0,0.2,0,0.4,0.1,0.5c0.1,0.1,0.2,0,0.3-0.1c0.2-0.2,0.1-0.6,0.1-0.8c0-0.1,0-0.2-0.1-0.3c0-0.1,0.1-0.1,0.1-0.2
					c0,0.1,0.1,0.2,0.2,0.2c0.1,0,0.2-0.1,0.2-0.2c0,0,0,0,0,0c0,0.1,0.1,0.2,0.2,0.1c0.1-0.1,0.1-0.2,0.2-0.3c0,0.1,0,0.1,0,0.2
					c0,0.1,0.2-0.1,0.2-0.2c0-0.2,0-0.4,0-0.6c0-0.1,0-0.2,0-0.2c0,0,0-0.1,0-0.1l0,0c0,0,0,0,0,0c0,0,0.1,0.1,0.1,0.1
					c0,0.1,0.1,0.3,0.1,0.4c0,0.1,0.1,0.6,0.3,0.4c0.1-0.1,0.2-0.1,0.3-0.2c0,0,0,0.1,0.1,0.1c0.1,0.2,0.3,0,0.4-0.1
					c0.1-0.1,0.2-0.3,0.3-0.4c0,0.2,0,0.3,0,0.5c0,0.1,0.1,0.1,0.1,0c0,0,0.1-0.1,0.1-0.2c0-0.1,0-0.2,0-0.4c0.1,0,0.1,0.4,0.2,0.5
					c0.1,0.1,0.2,0,0.2-0.1c0,0,0,0,0.1-0.1c0,0.1,0,0.1,0.1,0.2c0.1,0.1,0.2,0,0.3-0.1c0,0,0,0,0,0c0,0.1,0,0.1,0.1,0.2
					c0.1,0,0.2,0,0.2-0.1c0,0,0.1-0.1,0.1-0.1c0,0.1,0,0.1,0,0.2c0,0.1,0.1,0.1,0.1,0c0.1,0,0.1-0.1,0.1-0.1c0-0.1,0-0.2,0.1-0.3
					c0-0.1,0-0.1,0.1-0.1c0,0,0,0,0,0c0,0,0,0,0,0.1c0,0.2,0,0.4,0,0.5c0.1,0.1,0.3,0,0.3,0c0,0,0.1-0.1,0.1-0.1c0,0.1,0,0.2,0,0.2
					c0,0.1,0,0.1,0.1,0.1c0,0,0.1-0.1,0.1-0.1c0-0.1,0.1-0.2,0.1-0.3c0.1,0.1,0,0.4,0.1,0.5c0.1,0.1,0.2,0.1,0.2,0c0,0,0,0,0.1,0
					c0,0.1,0,0.1,0.1,0.2c0.1,0.1,0.2,0.1,0.3,0c0,0,0,0,0,0c0,0.1,0,0.2,0.1,0.2c0.1,0,0.2,0,0.2,0c0.1,0,0.2-0.1,0.2-0.2
					C36.1,59.4,36.1,59.3,36,59.4z M29.8,60.6C29.8,60.6,29.8,60.6,29.8,60.6C29.8,60.6,29.8,60.6,29.8,60.6
					C29.8,60.6,29.7,60.6,29.8,60.6c-0.2,0-0.2-0.3-0.2-0.4c0-0.1,0-0.2,0.1-0.3c0,0,0,0,0,0.1c0,0.1,0.1,0.2,0.1,0.3
					C29.8,60.4,29.8,60.5,29.8,60.6z M30.2,59.3C30.2,59.3,30.2,59.3,30.2,59.3c-0.1,0-0.1-0.1-0.1-0.1c-0.1-0.1-0.1-0.3-0.1-0.5
					c0-0.1,0-0.1,0-0.2c0,0,0,0,0,0c0,0,0,0,0,0c0,0,0.1,0,0.1,0.1C30.1,58.8,30.2,59,30.2,59.3C30.2,59.2,30.2,59.3,30.2,59.3z
					 M31.7,58.6c0-0.1,0-0.2,0-0.4c0-0.1,0-0.1,0-0.2c0,0,0,0,0,0c0,0,0,0,0,0c0,0,0.1,0.1,0.1,0.1C31.8,58.3,31.7,58.4,31.7,58.6z
					 M33.2,58.8C33.2,58.8,33.2,58.8,33.2,58.8C33.2,58.8,33.2,58.8,33.2,58.8c-0.1,0-0.1-0.1-0.1-0.1c0-0.2,0-0.4,0-0.5
					c0-0.1,0-0.1,0.1-0.2c0,0,0,0,0,0c0,0,0,0,0,0c0.1,0,0.1,0.1,0.1,0.1C33.3,58.3,33.3,58.6,33.2,58.8z M35.7,58.7
					c-0.1,0.2-0.1,0.5-0.2,0.6c0,0,0,0,0,0c0,0,0,0,0,0c0,0,0-0.1,0-0.2c0-0.2,0-0.4,0.1-0.5c0,0,0.1-0.1,0.1-0.1c0,0,0,0,0,0
					c0,0,0,0,0,0C35.7,58.6,35.8,58.7,35.7,58.7z"/>
				<polygon id="XMLID_39_" class="st8" points="29.8,60.6 29.8,60.6 29.8,60.6 				"/>
				<path id="XMLID_38_" class="st8" d="M29.8,60.6C29.8,60.6,29.8,60.6,29.8,60.6L29.8,60.6z"/>
				<path id="XMLID_37_" class="st8" d="M31.7,58C31.7,58,31.7,58,31.7,58L31.7,58z"/>
			</g>
		</g>
		<g id="XMLID_30_">
			<path id="XMLID_34_" class="st13" d="M26.5,54.6C26.5,54.6,26.5,54.6,26.5,54.6c-0.2-0.1-0.3,0-0.4,0c-0.2,0-0.3,0-0.6-0.1
				c0-0.3,0.1-0.5,0.2-0.7c0.1-0.2,0-0.5,0-0.7c0-0.1,0-0.3,0-0.4c-0.1,0.1,0,0.4,0,0.5c0-0.2,0-0.4-0.1-0.6c0,0.2,0,0.4,0,0.6
				c0-0.2-0.1-0.4-0.1-0.5c-0.1,0.2,0,0.4,0,0.6c-0.1-0.1-0.1-0.3-0.1-0.5c0,0.2,0.1,0.4,0.1,0.5c0-0.1-0.1-0.3-0.2-0.3
				c0,0.1,0.1,0.3,0.1,0.4c-0.1,0-0.1-0.1-0.2-0.2c0,0.1,0.1,0.2,0.1,0.2c0,0-0.1-0.1-0.1-0.1c0,0.1,0.1,0.1,0.1,0.2
				c0,0-0.1-0.1-0.1-0.1c0,0.1,0.1,0.1,0.1,0.2c0,0-0.1,0-0.1,0c0,0,0.1,0,0,0.1c0,0,0,0,0,0c0,0,0,0,0,0.1c0,0,0,0,0,0
				c0,0,0,0,0,0.1c-0.2,0.3-0.1,0.6-0.1,0.9c0,0-0.2-0.1-0.3-0.2c-0.1,0-0.1-0.1-0.2-0.2c0,0,0,0,0,0c0,0,0,0-0.1-0.1
				c0,0,0.1,0,0.1,0c0,0-0.1-0.1-0.1-0.1c0,0,0.1,0,0.1,0c-0.1,0-0.2-0.1-0.2-0.2c0,0,0.1,0.1,0.2,0.1c-0.1-0.1-0.2-0.1-0.2-0.2
				c0.1,0,0.1,0.1,0.2,0.1c-0.1,0-0.2-0.2-0.3-0.2c0,0.1,0.2,0.2,0.2,0.3c-0.1-0.1-0.2-0.1-0.2-0.2c0,0.1,0.1,0.2,0.2,0.2
				c-0.1,0-0.1-0.1-0.2-0.1c0,0.1,0.1,0.1,0.2,0.2c0,0-0.1,0-0.1,0c0,0.1,0.1,0,0.1,0.1c0,0-0.1,0-0.1,0c0,0,0.1,0,0.1,0.1
				c0,0-0.1,0-0.1,0c0,0,0.1,0,0.1,0c0,0,0,0,0,0c0,0,0,0,0,0c0,0,0,0,0,0c0.1,0.1,0.2,0.3,0.3,0.4c-0.1,0.1,0.1,0.1-0.9,0.6
				c0,0,0.4-0.1,0.5-0.2C24.7,55,24.9,55,25,55c0,0,0.1,0,0.1,0c0.2,0,0.4,0,0.6-0.1c-0.1,0-0.4,0.1-0.5,0c0.1-0.3,0-0.9,0.1-1
				c0.1-0.1,0.3-0.5,0.5-0.2c0,0.1,0,0.1,0,0.3c-0.1,0.2-0.1,0.3-0.1,0.7c0,0.1,0,0.2-0.1,0.2c0.4,0.1,0.5,0.1,0.8,0
				c0.1,0,0.2-0.1,0.2,0c0,0-0.1,0-0.1,0c-0.1,0,0,0.1,0.1,0c0,0,0.2,0,0.4-0.1C26.7,54.7,26.6,54.7,26.5,54.6z"/>
			<path id="XMLID_31_" class="st13" d="M25.3,51.9c-0.9,0-1.7,1-1.7,2.2c0,1.2,0.8,2.2,1.7,2.2c0.9,0,1.7-1,1.7-2.2
				C27,52.9,26.2,51.9,25.3,51.9 M25.3,52c0.9,0,1.6,0.9,1.7,2.1c0,1.2-0.7,2.1-1.6,2.1c-0.9,0-1.6-0.9-1.7-2.1
				C23.7,53,24.4,52,25.3,52"/>
		</g>
	</g>
</g>
</svg>
