<?xml version="1.0" encoding="utf-8"?>
<!-- Generator: Adobe Illustrator 19.0.0, SVG Export Plug-In . SVG Version: 6.00 Build 0)  -->
<svg version="1.1" id="Layer_1" xmlns="http://www.w3.org/2000/svg" xmlns:xlink="http://www.w3.org/1999/xlink" x="0px" y="0px"
	 viewBox="0 0 130 89.9" style="enable-background:new 0 0 130 89.9;" xml:space="preserve">
<style type="text/css">
	.st0{fill:#FFCC66;}
	.st1{fill:#EAB353;}
	.st2{fill:#FCD597;}
	.st3{fill:#F7F2EB;}
	.st4{fill:#FCB61A;}
	.st5{fill:#DA811F;}
	.st6{fill-rule:evenodd;clip-rule:evenodd;fill:#FCB61A;}
	.st7{fill-rule:evenodd;clip-rule:evenodd;fill:#62BA47;}
	.st8{fill:#62BA47;}
	.st9{fill:#FFFFFF;}
	.st10{fill:#62BA46;}
	.st11{fill-rule:evenodd;clip-rule:evenodd;fill:#C6901B;}
	.st12{fill-rule:evenodd;clip-rule:evenodd;fill:#FFCA58;}
	.st13{fill-rule:evenodd;clip-rule:evenodd;fill:#DA811F;}
	.st14{fill-rule:evenodd;clip-rule:evenodd;fill:#A16125;}
	.st15{fill:#A16125;}
	.st16{fill:#FFCA58;}
</style>
<g id="XMLID_1_">
	<polygon id="XMLID_2_" class="st0" points="65.6,80.7 4.1,59.9 4.1,33.8 65.6,54.6 	"/>
	<polygon class="st1" points="65.5,80.7 127,60 127,33.9 65.5,54.6 	"/>
	<polygon id="XMLID_3_" class="st2" points="65.3,13.1 3.7,33.9 65.5,54.6 127,33.9 	"/>
	<polygon id="XMLID_4_" class="st3" points="67.2,22.9 34.5,33.9 67.3,44.9 100,33.9 	"/>
	<path id="XMLID_5_" class="st4" d="M67.3,45.7L32.3,33.9l34.9-11.8l35.1,11.8L67.3,45.7z M36.8,33.9l30.6,10.3l30.5-10.3L67.2,23.6
		L36.8,33.9z"/>
	<g id="XMLID_8_">
		
			<ellipse transform="matrix(0.9995 -3.076087e-02 3.076087e-02 0.9995 -1.7479 2.9982)" class="st4" cx="96.6" cy="58.3" rx="6.2" ry="6.6"/>
		<path class="st5" d="M96.4,51.7l0.4,13.2c3.4-0.1,6.1-3.2,6-6.8C102.7,54.5,99.8,51.6,96.4,51.7z"/>
		<path class="st6" d="M93.4,50.3c0,0.5-0.3,0.9-0.8,0.9c-0.4,0-0.8-0.4-0.8-0.8c0-0.5,0.3-0.9,0.8-0.9C93,49.4,93.4,49.8,93.4,50.3
			L93.4,50.3z"/>
		<path class="st7" d="M93.5,53.1c0,0.6-0.4,1.1-1,1.1c-0.6,0-1-0.5-1-1.1c0-0.6,0.4-1.1,1-1.1C93,52.1,93.5,52.5,93.5,53.1
			L93.5,53.1z"/>
		<path class="st7" d="M90.8,51.5c0,0.4-0.2,0.7-0.6,0.7c-0.3,0-0.6-0.3-0.6-0.6c0-0.4,0.2-0.7,0.6-0.7
			C90.5,50.9,90.7,51.2,90.8,51.5L90.8,51.5z"/>
		<g id="XMLID_9_">
			
				<ellipse transform="matrix(0.9995 -3.076087e-02 3.076087e-02 0.9995 -1.5542 3.1517)" class="st8" cx="101.7" cy="52.1" rx="3.4" ry="3.7"/>
			<g id="XMLID_10_">
				<path class="st9" d="M100.8,51.6c-0.3,0-0.3,0.4-0.3,0.7l0,0l0,0c0,0,0,0.1,0,0.1c0,0.1,0,0.2,0,0.3c0,0,0,0.1,0,0.1
					c-0.1,0-0.2-0.1-0.2-0.2c-0.1-0.2-0.1-0.4-0.2-0.6c0-0.2-0.1-0.4-0.1-0.6c0-0.1,0-0.2,0-0.3c0,0,0-0.1,0-0.1c0,0,0-0.1,0-0.1
					c0-0.2-0.2,0-0.2,0.1c-0.2,0.4-0.1,0.9-0.1,1.4c0,0.1,0,0.3,0,0.4c0,0.1,0,0.2-0.1,0.3c0,0-0.1,0-0.2,0c-0.1,0-0.1-0.1-0.1-0.2
					c0-0.1-0.1,0-0.1,0c0,0.1-0.1,0.1-0.1,0.2c0,0.2,0.2,0.3,0.3,0.2c0.2-0.1,0.4-0.4,0.4-0.7c0-0.1,0-0.2,0-0.4
					c0,0.2,0.1,0.4,0.2,0.5c0.1,0.1,0.2,0.2,0.3,0.2c0.1,0,0.2-0.1,0.2-0.3c0.1,0.1,0.1,0.2,0.3,0.2c0.1,0,0.3-0.2,0.3-0.3
					c0.1-0.1,0.1-0.3,0.1-0.5C101.2,52,101.1,51.6,100.8,51.6z M100.9,52.6C100.9,52.7,100.9,52.7,100.9,52.6c-0.1,0.1-0.1,0-0.1,0
					c0-0.1-0.1-0.2-0.1-0.3c0-0.1,0-0.2,0-0.3c0,0,0-0.1,0-0.1c0.1,0.1,0.2,0.3,0.2,0.4C100.9,52.4,100.9,52.5,100.9,52.6z"/>
				<path class="st9" d="M104.2,51.9c-0.3-0.1-0.5,0.3-0.5,0.6c0,0.2-0.1,0.6,0.2,0.7c0.1,0.1,0.3-0.1,0.4-0.1
					c0.1-0.1,0.1-0.3,0.2-0.4C104.4,52.5,104.5,52,104.2,51.9z M104,53C104,53,104,53,104,53c-0.1,0-0.1-0.1-0.1-0.1
					c0-0.1,0-0.2,0-0.3c0-0.1,0-0.2,0.1-0.3c0,0,0-0.1,0-0.1c0.1,0.1,0.1,0.3,0.1,0.5C104.1,52.8,104.1,52.9,104,53z"/>
				<path class="st9" d="M103.4,52c0.1-0.1,0.1-0.2,0.2-0.3c0.1-0.2,0.2-0.4,0.2-0.6c0-0.2-0.3-0.2-0.4-0.1
					c-0.2,0.1-0.3,0.3-0.3,0.6c-0.1,0.3-0.1,0.6-0.1,0.9l0,0c-0.1,0.1-0.3,0.4-0.4,0.3c0,0-0.1-0.1-0.1-0.1c0.1-0.1,0.2-0.3,0.3-0.5
					c0.1-0.2,0.1-0.4,0-0.5c-0.1-0.1-0.3,0-0.4,0.2c-0.1,0.1-0.1,0.3-0.1,0.5c0,0.1,0,0.2,0,0.4c-0.1,0.1-0.2,0.1-0.3,0.1
					c-0.1,0-0.2-0.2-0.2-0.3c0-0.1,0-0.3,0-0.5c0,0,0-0.1,0-0.1c0,0,0,0,0,0c0.1,0,0.1,0.1,0.1,0.2c0,0.1,0.3-0.1,0.3-0.2
					c0-0.1-0.1-0.2-0.2-0.3c-0.1,0-0.3,0.1-0.3,0.1c-0.2,0.2-0.2,0.5-0.2,0.8c0,0.2,0.1,0.4,0.2,0.5c0.2,0.1,0.4,0,0.6-0.1
					c0.1,0.1,0.1,0.2,0.3,0.2c0.2,0,0.3-0.1,0.5-0.3c0,0.1,0,0.3,0.1,0.4c0.2,0.1,0.4,0,0.5-0.2c0.1-0.2,0.2-0.5,0.1-0.7
					C103.5,52,103.5,52,103.4,52z M102.3,51.9c0,0,0-0.1,0-0.1c0,0,0,0,0,0c0.1,0,0.1,0.1,0.1,0.2c0,0.1-0.1,0.2-0.2,0.4
					c0,0,0,0,0-0.1C102.3,52.1,102.3,52,102.3,51.9z M103.3,51.3c0,0,0-0.1,0.1-0.1c0,0,0,0,0,0c0.1,0.1,0,0.3,0,0.5
					c-0.1,0.1-0.1,0.3-0.2,0.4c0-0.1,0-0.3,0.1-0.4C103.2,51.5,103.2,51.4,103.3,51.3z M103.3,52.8
					C103.3,52.8,103.3,52.8,103.3,52.8C103.2,52.8,103.2,52.8,103.3,52.8c-0.1,0-0.1-0.2-0.2-0.2c0-0.1,0-0.1,0-0.2
					c0,0,0.1-0.1,0.1-0.1c0.1-0.1,0.1,0,0.1,0.1C103.4,52.5,103.3,52.7,103.3,52.8z"/>
			</g>
		</g>
		<g id="XMLID_11_">
			<g id="XMLID_12_">
				<g id="XMLID_13_">
					<path class="st9" d="M96.6,56.3C96.6,56.3,96.6,56.3,96.6,56.3C96.6,56.3,96.6,56.3,96.6,56.3c-0.4,0-0.5,0.5-0.5,0.8
						c0,0.2,0.1,0.7,0.3,0.7c0.1,0,0.3-0.2,0.3-0.3c0.1-0.1,0.1-0.3,0.1-0.5C96.9,56.8,96.9,56.3,96.6,56.3z M96.7,57.4
						C96.7,57.4,96.6,57.5,96.7,57.4c0,0.1,0,0.1,0,0.1c0,0,0,0,0,0c-0.2,0-0.2-0.4-0.2-0.5c0-0.1,0-0.2,0-0.4c0,0,0-0.1,0-0.1
						c0.2,0,0.2,0.4,0.2,0.5C96.7,57.2,96.7,57.3,96.7,57.4z"/>
					<path class="st9" d="M95.8,56.4c-0.1,0-0.2,0-0.3,0.1c0-0.1,0-0.2-0.1-0.3c0-0.1-0.1,0-0.2,0c0,0-0.1,0.1-0.1,0.1c0,0,0,0,0,0
						c0,0.1,0,0.1,0,0.2c0,0,0,0,0,0c-0.1,0-0.2,0-0.2,0c0,0,0,0,0,0c0,0-0.1,0-0.1,0c0,0,0,0,0,0c0,0,0,0,0,0
						c-0.4,0.1-0.4,0.6-0.3,0.8c0,0.2,0.1,0.7,0.4,0.6c0.2,0,0.3-0.2,0.3-0.3c0.1-0.2,0.1-0.3,0-0.5c0-0.1,0-0.2-0.1-0.4
						c0.1,0,0.1-0.1,0.1-0.1c0.1,0.3,0.1,0.7,0.2,1c0,0.3,0.1,0.6,0.1,1c0,0.1,0.1,0,0.1,0c0.1,0,0.1-0.1,0.1-0.2c0-0.2,0-0.5,0-0.7
						c0.1,0,0.2-0.1,0.3-0.2c0.2-0.2,0.2-0.5,0.1-0.7C96,56.8,96,56.5,95.8,56.4z M94.9,57.6C94.9,57.6,94.9,57.6,94.9,57.6
						c0,0.1,0,0.1,0,0.1c0,0,0,0,0,0c-0.2,0-0.3-0.3-0.3-0.4c0-0.1,0-0.2,0-0.4c0,0,0-0.1,0-0.1c0,0,0,0,0,0c0,0,0,0,0,0
						c0,0,0,0,0,0c0.1,0.1,0.2,0.3,0.2,0.4C94.9,57.3,94.9,57.5,94.9,57.6z M95.6,56.6C95.6,56.6,95.6,56.6,95.6,56.6L95.6,56.6z
						 M95.8,57.6C95.8,57.6,95.8,57.6,95.8,57.6L95.8,57.6z M95.8,57.6C95.8,57.6,95.8,57.6,95.8,57.6
						C95.8,57.6,95.8,57.6,95.8,57.6c-0.1,0-0.2,0-0.2-0.1c0,0,0,0,0,0c0-0.2,0-0.4-0.1-0.6c0,0,0,0,0,0c0-0.1,0-0.1,0-0.2
						c0,0,0,0,0,0c0,0,0,0,0,0c0,0,0.1,0,0.1,0c0.1,0.1,0.1,0.3,0.2,0.4C95.8,57.2,95.9,57.4,95.8,57.6z"/>
					<path class="st9" d="M93.9,57c0-0.1,0-0.3,0.1-0.4c0-0.2,0.1-0.5-0.1-0.7c-0.1-0.2-0.3,0-0.4,0.1c-0.1,0.2-0.1,0.5-0.1,0.7
						c0,0.3,0.1,0.6,0.2,0.8c0,0.1-0.1,0.3-0.1,0.4c0,0,0,0,0,0c0,0,0,0,0,0c0,0,0-0.1-0.1-0.2c-0.1-0.4-0.2-0.8-0.4-1.2
						c-0.1-0.1-0.2-0.3-0.4-0.2c-0.1,0.1-0.2,0.2-0.2,0.3c-0.1-0.1-0.2-0.2-0.4-0.1c-0.1,0.1-0.1,0.1-0.2,0.2c0-0.1-0.1-0.1-0.1-0.2
						c-0.1-0.1-0.3,0.2-0.2,0.3c0.1,0,0.1,0.1,0.1,0.2c0.1,0.1,0.1,0.3,0.2,0.4c0,0.1,0.1,0.2,0.1,0.2c0.1,0.3,0.2,0.6,0.3,0.9
						c0,0,0,0,0,0c0.1,0,0.2-0.2,0.1-0.3c-0.1-0.3-0.2-0.5-0.3-0.8c0-0.1-0.1-0.2-0.1-0.4c0-0.1-0.1-0.3-0.1-0.4c0,0,0,0,0-0.1
						c0.2-0.1,0.3,0.3,0.3,0.4c0.1,0.2,0.1,0.3,0.2,0.5c0.1,0.2,0.2,0.5,0.2,0.7c0,0,0,0,0,0c0.1,0,0.2-0.2,0.1-0.3
						c-0.1-0.3-0.2-0.5-0.2-0.8c0-0.1,0-0.1,0-0.2c-0.1-0.2-0.1-0.4-0.1-0.7c0,0,0,0,0,0c0,0,0.1,0.1,0.1,0.1
						c0.2,0.2,0.2,0.5,0.3,0.7c0.1,0.2,0.1,0.3,0.1,0.5c0,0.1,0.1,0.2,0.1,0.3c0.1,0.1,0.2,0,0.3-0.1c0.1-0.1,0.1-0.2,0.1-0.3
						c0.1,0.1,0.2,0.3,0.3,0.3c0.2,0,0.3-0.3,0.3-0.5c0-0.2,0-0.6-0.2-0.7C94,57,93.9,57,93.9,57z M93.6,56.8c0-0.2,0-0.4,0-0.6
						c0,0,0,0,0,0c0.1,0,0.1,0.1,0.1,0.1c0,0.2,0,0.4,0,0.6c0,0.1,0,0.2,0,0.2C93.6,57,93.6,56.9,93.6,56.8z M94.1,57.6
						c0,0.1,0,0.2,0,0.3c0,0,0,0,0,0c0,0,0,0,0,0c-0.1,0-0.1-0.1-0.1-0.1c-0.1-0.1-0.1-0.2-0.1-0.3c0-0.1,0-0.1,0-0.2
						c0,0,0.1,0,0.1,0C94,57.4,94,57.5,94.1,57.6z"/>
					<path class="st9" d="M101.2,58.4c0,0-0.1,0-0.2,0c0,0,0,0,0,0c0,0,0,0,0-0.1c0,0,0-0.1,0-0.2c0-0.1,0-0.3,0.1-0.4c0,0,0,0,0,0
						c0-0.1,0.1-0.2,0.1-0.3c0,0,0,0,0,0c0,0,0,0,0,0c0-0.1,0.1-0.1,0.1-0.2c0-0.1-0.1-0.1-0.1-0.1c0,0,0,0,0,0
						c-0.1-0.1-0.2-0.1-0.3-0.1c-0.3,0-0.5,0.3-0.5,0.6c0,0.2,0.1,0.3,0.2,0.4c0,0,0.1,0,0.1,0c0,0.1-0.1,0.1-0.1,0.2
						c-0.1,0-0.1-0.1-0.1-0.1c0,0,0-0.1-0.1-0.1c0,0,0,0,0,0c-0.1,0-0.1,0-0.2,0.1c0,0,0,0,0,0c0-0.1,0-0.2,0-0.2
						c0-0.3,0.1-0.5,0.2-0.7c0,0,0,0,0,0c0-0.2-0.1-0.3-0.2-0.3c-0.2,0-0.3,0.1-0.4,0.2c-0.1,0.2-0.2,0.4-0.3,0.6l0,0
						c0,0.1,0,0.2-0.1,0.2c0,0,0,0,0,0c0,0,0,0,0,0c0-0.1,0-0.2,0-0.3c0-0.2,0.1-0.5,0.1-0.7c0-0.1,0.1-0.1,0.1-0.2
						c0-0.1,0-0.1-0.1-0.1c-0.1,0-0.2,0.1-0.2,0.1c0,0.1-0.1,0.1-0.1,0.2c0,0.1-0.1,0.1-0.1,0.2c0,0.1-0.1,0.1-0.1,0.1c0,0,0,0,0,0
						c0-0.2,0-0.5,0.1-0.7c0,0,0-0.1,0-0.1c0,0,0,0,0,0c0,0,0,0,0,0c0,0,0,0,0,0c0,0,0,0,0,0l0,0c0,0-0.1,0-0.1,0
						c-0.1,0-0.1,0.1-0.1,0.1c0,0,0,0,0,0.1c-0.1,0.3-0.2,0.7-0.4,0.9c0,0,0,0,0,0c0,0,0,0,0,0l0,0c0,0,0,0,0,0
						c-0.1,0-0.1-0.1-0.1-0.2c-0.1-0.2,0-0.4,0-0.6c0,0,0-0.1,0-0.1c0,0,0-0.1,0-0.1c0,0,0,0,0,0c0,0,0,0,0,0c0,0,0.1,0.1,0.1,0.1
						c0,0.1,0.3-0.1,0.3-0.2c-0.1-0.2-0.2-0.2-0.4-0.1c-0.1,0.1-0.2,0.1-0.2,0.2c0,0,0,0,0,0c0,0,0,0,0,0c0,0,0,0,0,0.1c0,0,0,0,0,0
						c0,0.1,0,0.1-0.1,0.2c0-0.2,0-0.4,0.1-0.6c0-0.2-0.2,0-0.3,0.1c0,0.1-0.1,0.2-0.1,0.3c0-0.1,0-0.2-0.1-0.3
						c-0.1-0.2-0.3-0.2-0.4,0c0,0-0.1,0.1-0.1,0.2c0,0,0.1,0,0.2,0c0,0,0,0,0,0c0,0,0,0,0,0c0,0,0,0.1,0.1,0.1
						c0,0.1,0.1,0.2,0.1,0.4c0,0.1,0,0.3,0,0.4c0,0,0,0,0,0c0,0,0,0,0,0c0,0-0.1-0.1-0.1-0.1c-0.1-0.1-0.3,0.1-0.2,0.2
						c0.1,0.2,0.4,0.1,0.5-0.1c0-0.1,0.1-0.1,0.1-0.2c0-0.1,0-0.1,0.1-0.2c0,0.2,0,0.4-0.1,0.6c0,0.1,0.1,0.1,0.1,0
						c0.1,0,0.1-0.1,0.1-0.2c0-0.1,0-0.1,0.1-0.2c0,0.1,0,0.2,0,0.2c0,0.1,0.1,0.2,0.2,0.2c0.1,0,0.3-0.1,0.4-0.1
						c0.1-0.1,0.1-0.1,0.2-0.2c0,0.1,0,0.3-0.1,0.4c0,0.1,0.1,0.1,0.1,0.1c0.1,0,0.1-0.1,0.2-0.2c0-0.1,0.1-0.2,0.1-0.3
						c0-0.1,0.1-0.1,0.1-0.1c0,0,0,0,0,0c0,0.2-0.1,0.4,0,0.6c0,0.2,0.1,0.2,0.3,0.2c0.1,0,0.1,0,0.2-0.1c0,0.1,0,0.1,0.1,0.2
						c0.1,0.1,0.3,0,0.4,0c0,0,0,0,0,0c0,0,0,0.1,0,0.1c0,0.2,0.2,0.2,0.3,0.1c0.1,0.1,0.3,0.2,0.4,0.1c0,0,0.1,0,0.1,0
						c0,0,0,0.1,0,0.1c0,0.2,0.2,0.2,0.4,0.2C101.1,58.5,101.2,58.5,101.2,58.4z M99.8,57.9C99.8,57.9,99.8,57.9,99.8,57.9
						c-0.1,0-0.1-0.1-0.1-0.2c0-0.1,0-0.2,0-0.2c0,0,0,0,0,0c0,0,0,0,0,0c0-0.1,0.1-0.2,0.1-0.3c0-0.1,0.1-0.1,0.1-0.2c0,0,0,0,0,0
						c0,0,0,0,0,0c0.1,0,0.1,0.1,0.1,0.1C100,57.4,100,57.7,99.8,57.9C99.8,57.9,99.8,57.9,99.8,57.9z M100.2,58.1L100.2,58.1
						L100.2,58.1L100.2,58.1z M100.7,57.6c0-0.1,0.1-0.3,0.1-0.3c0,0,0,0,0.1,0c0,0,0,0.1,0,0.2c0,0.1-0.1,0.2-0.1,0.3
						C100.7,57.8,100.7,57.7,100.7,57.6z M101.1,58.4C101.1,58.4,101.1,58.4,101.1,58.4L101.1,58.4z"/>
				</g>
			</g>
			<g id="XMLID_14_">
				<path class="st9" d="M101,60.4c-0.1,0.1-0.1,0.2-0.2,0.2c0,0,0,0,0,0c0,0,0-0.2,0-0.2c0-0.2,0.1-0.3,0.1-0.5c0,0,0-0.1,0-0.1
					c0-0.1,0-0.1,0.1-0.2c0,0,0,0,0,0c0-0.1-0.1-0.3-0.2-0.3c-0.2,0-0.3,0.1-0.4,0.2c-0.1,0.1-0.2,0.3-0.3,0.5c0,0,0,0,0,0
					c0,0.1-0.1,0.1-0.1,0.2c0,0,0,0,0,0c-0.1,0,0-0.1,0-0.2c0-0.1,0-0.2,0-0.3c0-0.1-0.1-0.1-0.2-0.1c0,0,0,0,0,0c0,0,0,0,0,0
					c0-0.1,0.1-0.2,0.2-0.2c0,0,0,0,0,0c0,0,0,0,0,0c0,0,0.1,0.1,0.1,0.1c0.1,0.1,0.3-0.1,0.3-0.1c-0.1-0.1-0.2-0.1-0.3-0.1
					c-0.1,0-0.1,0.1-0.2,0.1c0,0,0,0,0,0c0-0.1,0-0.3,0-0.4c0-0.1-0.3,0-0.3,0.1c0,0.2,0,0.4,0,0.6c0,0,0,0,0,0
					c-0.1,0.2-0.2,0.3-0.3,0.4c0,0,0,0-0.1,0c0,0,0,0,0,0c0,0,0,0,0,0c0,0,0-0.1,0-0.1c0-0.2,0-0.3,0-0.5c0-0.1,0-0.2,0.1-0.3
					c0,0,0-0.1,0.1-0.1c0-0.1,0-0.1-0.1-0.1c-0.1,0-0.2,0.1-0.2,0.1c0,0.1-0.1,0.1-0.1,0.2c0,0.1-0.1,0.1-0.1,0.2
					c0,0.1-0.1,0.1-0.1,0.1c0,0,0,0,0,0c0-0.2,0-0.4,0-0.7c0-0.1-0.3,0-0.3,0.1c0,0.1,0,0.2,0,0.3c0,0,0,0,0,0
					c0,0.2-0.1,0.4-0.2,0.6c0,0,0,0,0,0c-0.1,0-0.1-0.1-0.1-0.2c0-0.2,0-0.3,0-0.5c0,0,0-0.1,0-0.1c0-0.1,0-0.1,0-0.2c0,0,0,0,0,0
					c0-0.2-0.1-0.2-0.3-0.2c-0.2,0-0.3,0.1-0.4,0.3c-0.1,0.2-0.1,0.4-0.1,0.6c0,0,0,0,0,0c0,0.1,0,0.2-0.1,0.2c0,0,0,0,0,0
					c-0.1,0-0.1-0.1-0.1-0.2c0-0.1,0-0.2-0.1-0.3c-0.1-0.1-0.1-0.1-0.2,0c0,0,0,0,0,0c0,0,0,0,0-0.1c0-0.1,0-0.2,0.1-0.3
					c0,0,0,0,0,0c0,0,0,0,0,0c0,0,0.1,0,0.1,0c0.1,0.1,0.3-0.2,0.2-0.2c-0.1-0.1-0.2-0.1-0.3,0c-0.1,0-0.1,0.1-0.2,0.2c0,0,0,0,0,0
					c0-0.1,0-0.3-0.1-0.4c0-0.1-0.3,0.1-0.2,0.2c0,0.1,0.1,0.3,0.1,0.4c0,0.2-0.1,0.4-0.2,0.5c-0.1,0.1-0.1,0.2-0.2,0.2
					c-0.1,0.1-0.2,0.1-0.3,0c0,0,0,0,0,0c0.1-0.2,0.3-0.5,0.3-0.7c0-0.2-0.1-0.3-0.3-0.3c-0.2,0-0.3,0.2-0.3,0.4
					c-0.1,0.2,0,0.4,0,0.5c0,0.1,0,0.1,0,0.2c0,0,0,0-0.1,0.1c0,0-0.1,0.1-0.1,0.1c0,0,0,0-0.1,0C95,60,95,59.8,94.9,59.6
					c0-0.2,0-0.3-0.1-0.4c0-0.1-0.1-0.2-0.2-0.2c-0.1,0-0.2,0.2-0.3,0.3c0,0,0,0,0,0c0-0.1,0-0.1-0.1-0.2c0-0.1-0.3,0.2-0.2,0.2
					c0.1,0.1,0.1,0.3,0.1,0.5l0,0l0,0c0,0,0,0,0,0c0,0.1,0,0.1,0,0.2c0,0.1,0,0.2-0.1,0.3c0,0,0,0,0,0c0,0,0,0,0-0.1
					c0-0.1-0.1-0.1-0.1-0.2c-0.1-0.2-0.1-0.4-0.2-0.6c0,0,0,0,0,0c0-0.1-0.2-0.2-0.3-0.1c-0.1,0.1-0.2,0.2-0.2,0.4
					c-0.1,0.2,0,0.5,0.1,0.7c-0.1,0.1-0.1,0.2-0.2,0.3c-0.1,0-0.1-0.1-0.2-0.1c0-0.2,0-0.5-0.1-0.7c-0.1-0.1-0.2-0.3-0.3-0.2
					c-0.1,0-0.2,0.2-0.2,0.3c-0.1,0.1,0,0.3,0,0.4c0.1,0.1,0.2-0.2,0.2-0.2c0,0,0-0.1,0-0.1c0,0,0,0,0,0c0,0,0,0,0,0c0,0,0,0,0,0
					c0.1,0,0.2,0.1,0.2,0.2c0.1,0.1,0.1,0.2,0.1,0.4c0,0,0,0.1,0,0.1c0,0,0,0-0.1,0.1c0,0,0,0,0,0.1c0,0.1,0,0.1,0,0.2c0,0,0,0,0,0
					c0,0,0,0,0,0c0,0,0.1-0.1,0.1-0.1c0.1,0,0.1,0,0.2,0.1c-0.1,0.2-0.2,0.4-0.2,0.6c0,0.2,0,0.4,0.1,0.6c0.1,0.1,0.3,0,0.3-0.1
					c0.2-0.2,0.2-0.6,0.1-0.9c0-0.1-0.1-0.2-0.1-0.3c0-0.1,0.1-0.2,0.1-0.2c0,0.1,0.1,0.2,0.2,0.2c0.1,0,0.2-0.1,0.3-0.2
					c0,0,0,0,0,0c0.1,0.1,0.1,0.2,0.2,0.1c0.1-0.1,0.2-0.2,0.2-0.3c0,0.1,0,0.1,0,0.2c0,0.1,0.2-0.1,0.2-0.2c0-0.2-0.1-0.4-0.1-0.7
					c0-0.1,0-0.2,0-0.2c0,0,0-0.1,0-0.1c0,0,0,0,0,0c0,0,0,0,0,0c0,0,0.1,0.1,0.1,0.1c0.1,0.1,0.1,0.3,0.1,0.4
					c0,0.2,0.1,0.6,0.3,0.5c0.1-0.1,0.2-0.2,0.3-0.2c0,0,0,0.1,0.1,0.1c0.1,0.2,0.4,0,0.5-0.1c0.1-0.1,0.3-0.3,0.4-0.5
					c0,0.2,0,0.3,0,0.5c0,0.1,0.1,0.1,0.1,0c0.1,0,0.1-0.1,0.1-0.2c0-0.1,0-0.3,0-0.4c0.1,0,0.1,0.4,0.2,0.5c0.1,0.1,0.2,0,0.3-0.1
					c0,0,0.1,0,0.1-0.1c0,0.1,0.1,0.1,0.1,0.2c0.1,0.1,0.3,0,0.3-0.1c0,0,0,0,0,0c0,0.1,0,0.2,0.1,0.2c0.1,0,0.2,0,0.3-0.1
					c0,0,0.1-0.1,0.1-0.1c0,0.1,0,0.1,0,0.2c0,0.1,0.1,0.1,0.1,0c0.1,0,0.1-0.1,0.2-0.2c0-0.1,0.1-0.2,0.1-0.3
					c0-0.1,0.1-0.1,0.1-0.1c0,0,0,0,0,0c0,0,0,0,0,0.1c0,0.2-0.1,0.4,0,0.6c0.1,0.2,0.3,0,0.4,0c0.1,0,0.1-0.1,0.2-0.1
					c0,0.1,0,0.2-0.1,0.3c0,0.1,0.1,0.1,0.1,0.1c0.1,0,0.1-0.1,0.2-0.1c0-0.1,0.1-0.2,0.1-0.4c0.1,0.1,0,0.5,0.1,0.6
					c0.1,0.1,0.2,0.1,0.3,0c0,0,0.1,0,0.1-0.1c0,0.1,0,0.2,0.1,0.2c0.1,0.1,0.3,0.1,0.4,0c0,0,0,0,0,0c0,0.1,0,0.2,0.1,0.2
					c0.1,0,0.2,0,0.3,0c0.1,0,0.2-0.1,0.3-0.2C101.2,60.4,101.1,60.3,101,60.4z M93.2,61.9C93.2,61.9,93.2,61.9,93.2,61.9
					C93.2,61.9,93.2,61.9,93.2,61.9c0,0-0.1,0-0.1,0c-0.1,0-0.1-0.3-0.1-0.4c0-0.1,0-0.2,0.1-0.3c0,0,0,0,0,0.1
					c0.1,0.1,0.1,0.2,0.1,0.4C93.2,61.7,93.2,61.8,93.2,61.9z M93.7,60.5C93.7,60.5,93.6,60.5,93.7,60.5c-0.1,0-0.1-0.1-0.2-0.1
					c-0.1-0.2-0.2-0.4-0.2-0.5c0-0.1,0-0.2,0-0.2c0,0,0,0,0,0c0,0,0,0,0,0c0.1,0,0.1,0,0.1,0.1C93.6,60,93.7,60.2,93.7,60.5
					C93.7,60.5,93.7,60.5,93.7,60.5z M95.5,59.7c0-0.1,0-0.2,0-0.4c0-0.1,0-0.1,0-0.2c0,0,0,0,0,0c0,0,0,0,0,0c0,0,0.1,0.1,0.1,0.1
					C95.7,59.4,95.6,59.6,95.5,59.7z M97.5,59.9C97.5,59.9,97.5,59.9,97.5,59.9C97.5,59.9,97.5,59.9,97.5,59.9
					c-0.1,0-0.1-0.1-0.1-0.1c0-0.2,0-0.4,0-0.6c0-0.1,0.1-0.1,0.1-0.2c0,0,0,0,0,0c0,0,0,0,0,0c0.1,0,0.1,0.1,0.1,0.1
					C97.6,59.4,97.6,59.6,97.5,59.9z M100.7,59.7c-0.1,0.2-0.1,0.5-0.3,0.7c0,0,0,0,0,0.1c0,0,0,0,0,0c0,0,0-0.1,0-0.2
					c0-0.2,0.1-0.4,0.1-0.5c0,0,0.1-0.1,0.1-0.1c0,0,0,0,0,0c0,0,0,0,0,0C100.7,59.6,100.7,59.7,100.7,59.7z"/>
				<polygon class="st9" points="93.2,61.9 93.2,61.9 93.2,61.9 				"/>
				<path class="st9" d="M93.2,61.9C93.2,61.9,93.2,61.9,93.2,61.9L93.2,61.9z"/>
				<path class="st9" d="M95.5,59.1C95.5,59.1,95.5,59.1,95.5,59.1L95.5,59.1z"/>
			</g>
		</g>
		<g id="XMLID_15_">
			<path class="st10" d="M89,55.7C89,55.7,88.9,55.7,89,55.7c-0.2-0.1-0.3,0-0.4,0c-0.3,0-0.4,0-0.8-0.1c0-0.3,0.2-0.5,0.2-0.8
				c0.1-0.2,0-0.5-0.1-0.7c0-0.2,0-0.3,0-0.5c-0.1,0.1,0,0.4-0.1,0.5c-0.1-0.2,0-0.5-0.1-0.6c0,0.2,0,0.4,0,0.6
				c-0.1-0.2-0.1-0.4-0.1-0.5c-0.1,0.2,0.1,0.4,0,0.6c-0.1-0.2-0.1-0.3-0.2-0.5c0,0.2,0.1,0.4,0.1,0.5c-0.1-0.1-0.1-0.3-0.2-0.4
				c0,0.1,0.1,0.3,0.1,0.4c-0.1,0-0.1-0.1-0.2-0.2c0,0.1,0.1,0.2,0.1,0.2c-0.1,0-0.1-0.1-0.2-0.1c0,0.1,0.1,0.1,0.1,0.2
				c0,0-0.1-0.1-0.1-0.1c0,0.1,0.1,0.1,0.1,0.2c0,0-0.1,0-0.1,0c0,0,0.1,0,0,0.1c0,0,0,0-0.1,0c0,0.1,0.1,0,0,0.1c0,0,0,0,0,0
				c0,0,0,0,0,0.1c-0.2,0.3-0.1,0.6-0.1,0.9c0,0-0.2-0.1-0.4-0.2c-0.1,0-0.1-0.2-0.2-0.2c0,0,0,0,0,0c0,0-0.1,0-0.1-0.1
				c0,0,0.1,0,0.1,0c0,0-0.2,0-0.1-0.1c0.1,0,0.1,0,0.2,0c-0.1,0-0.2-0.1-0.2-0.2c0.1,0,0.2,0.1,0.2,0.1c-0.1-0.1-0.3-0.1-0.3-0.2
				c0.1,0,0.2,0.1,0.3,0.1c-0.1,0-0.2-0.2-0.4-0.2c0.1,0.1,0.2,0.2,0.3,0.3c-0.1-0.1-0.2-0.1-0.3-0.2c0,0.1,0.2,0.2,0.3,0.2
				c-0.1,0-0.1-0.1-0.2-0.1c0,0.1,0.2,0.1,0.2,0.2c0,0-0.1,0-0.2,0c0,0.1,0.1,0,0.2,0.1c-0.1,0-0.1,0-0.1,0c0,0,0.1,0,0.1,0.1
				c0,0-0.1,0-0.1,0c0,0,0.1,0,0.1,0c0,0,0,0,0,0c0,0,0.1,0,0.1,0c0,0,0,0,0,0c0.1,0.1,0.2,0.3,0.4,0.4c-0.1,0.1,0.1,0.1-1.1,0.6
				c0,0,0.5-0.1,0.7-0.2c0.1-0.1,0.3-0.1,0.4-0.2c0,0,0.1,0,0.1,0c0.2,0,0.5,0,0.7-0.2c-0.2,0-0.5,0.1-0.6,0c0.2-0.3,0-1,0.1-1.1
				c0.1-0.1,0.3-0.6,0.6-0.2c0,0.1,0.1,0.1,0,0.3c-0.1,0.2-0.2,0.3-0.1,0.7c0,0.1,0,0.2-0.1,0.2c0.5,0.1,0.7,0,1,0
				c0.1,0,0.2-0.1,0.3,0c0,0-0.1,0-0.2,0c-0.1,0,0.1,0.1,0.1,0c0,0,0.3,0,0.4-0.1C89.2,55.8,89.1,55.8,89,55.7z"/>
			<path class="st10" d="M87.4,52.9c-1.2,0-2.1,1.1-2.1,2.4c0,1.3,1,2.3,2.2,2.2c1.2,0,2.1-1.1,2.1-2.4
				C89.6,53.9,88.6,52.9,87.4,52.9 M87.4,53c1.1,0,2.1,0.9,2.1,2.1c0,1.2-0.9,2.2-2,2.3c-1.1,0-2.1-0.9-2.1-2.1
				C85.4,54.1,86.3,53.1,87.4,53"/>
		</g>
		<g id="XMLID_16_">
			<g id="XMLID_17_">
				<g id="XMLID_18_">
					<path class="st9" d="M95.1,63.2c-0.1,0.3,0.2,0.3,0.4,0.2c0.1-0.1,0.1-0.2,0.2-0.3c0-0.1,0.1-0.2,0.1-0.3c-0.1,0-0.1,0-0.2,0
						c-0.1,0.2-0.1,0.5-0.1,0.8c0,0.1,0.2,0,0.2,0c0.1-0.2,0.2-0.5,0.3-0.6c-0.1,0-0.1,0-0.2,0c-0.1,0.2-0.2,0.5-0.1,0.7
						c0.1,0.3,0.5,0,0.6-0.1c0.1-0.1-0.1-0.1-0.2,0c-0.2,0.2-0.2-0.1-0.2-0.2c0-0.1,0-0.3,0.1-0.4c0-0.1-0.1,0-0.2,0
						c-0.2,0.2-0.3,0.5-0.4,0.7c0.1,0,0.2,0,0.2,0c0-0.2,0-0.5,0.1-0.7c0.1-0.1-0.1,0-0.2,0c-0.1,0.1-0.1,0.2-0.2,0.3
						c0,0.1-0.1,0.2-0.1,0.2c-0.1,0.1,0,0,0,0c-0.1,0,0-0.1,0-0.2C95.4,63.1,95.1,63.2,95.1,63.2L95.1,63.2z"/>
				</g>
				<g id="XMLID_19_">
					<path class="st9" d="M98.1,63.2c0.1,0.2,0.4,0.1,0.4-0.1c0-0.1,0-0.2-0.1-0.3c0-0.1-0.1-0.2-0.1-0.3c0,0-0.1,0.1-0.1,0.1
						c0,0.2,0.3,0.5,0.4,0.7c0.1,0.1,0.2-0.1,0.1-0.2c-0.1-0.2-0.2-0.5-0.2-0.7c0,0-0.1,0.1-0.1,0.1c0.1,0.2,0.2,0.4,0.4,0.6
						c0.2,0.2,0.4-0.3,0.4-0.5c0-0.2-0.1,0.1-0.1,0.1c0,0.3-0.2,0.1-0.3,0c-0.1-0.1-0.2-0.2-0.2-0.4c0-0.1-0.1,0.1-0.1,0.1
						c0,0.3,0.1,0.6,0.2,0.8c0-0.1,0.1-0.1,0.1-0.2c-0.1-0.2-0.4-0.4-0.4-0.6c0-0.1-0.1,0.1-0.1,0.1c0,0.1,0.1,0.3,0.1,0.4
						c0,0.1,0,0.2,0.1,0.3c0,0.1,0,0,0,0c-0.1,0-0.1-0.1-0.1-0.1C98.2,63,98.1,63.2,98.1,63.2L98.1,63.2z"/>
				</g>
				<g id="XMLID_20_">
					<path class="st9" d="M97.7,62.6c-0.2,0.1-0.2,0.3-0.2,0.5c0,0.1,0.1,0.5,0.4,0.4c0.3-0.1,0.3-0.4,0.2-0.5
						C98.1,62.9,97.9,62.6,97.7,62.6c-0.1,0-0.1,0.2-0.1,0.2c0.1,0,0.2,0.1,0.2,0.2c0,0.1,0.1,0.1,0.1,0.2c0,0,0,0.1,0,0.1
						c0,0,0,0.1,0,0.1c-0.1,0.1-0.2-0.1-0.2-0.2c0-0.1,0-0.1-0.1-0.2c0,0,0-0.1,0-0.1c0,0,0,0,0,0C97.7,62.8,97.8,62.6,97.7,62.6z"
						/>
				</g>
				<g id="XMLID_21_">
					<g id="XMLID_22_">
						<path class="st9" d="M97.1,62.8c-0.2,0.1-0.3,0.3-0.3,0.5c0,0.1,0,0.5,0.3,0.5c0.3,0,0.4-0.3,0.3-0.5
							C97.4,63.1,97.3,62.8,97.1,62.8c-0.1,0-0.2,0.2-0.1,0.2c0.1,0,0.2,0.1,0.2,0.2c0,0.1,0,0.1,0,0.2c0,0,0,0.1,0,0.1
							c0,0,0,0.1,0,0.1c-0.1,0.1-0.2-0.2-0.2-0.2c0-0.1,0-0.1,0-0.2c0,0,0-0.1,0-0.1c0,0,0,0,0,0C97.1,62.9,97.2,62.7,97.1,62.8z"/>
					</g>
					<g id="XMLID_23_">
						<path class="st9" d="M97.2,62.9c0.1,0.3,0.1,0.6,0.2,1c0,0.1,0.1,0.4-0.1,0.4c-0.3,0,0.1-0.6,0.2-0.6c0.1-0.1-0.1-0.1-0.2,0
							c-0.2,0.2-0.4,0.5-0.3,0.7c0,0.1,0.3,0.1,0.4,0c0.3-0.2,0.3-0.3,0.3-0.5c0-0.4-0.2-0.7-0.2-1.1C97.3,62.7,97.2,62.8,97.2,62.9
							L97.2,62.9z"/>
					</g>
				</g>
				<g id="XMLID_24_">
					<path class="st9" d="M96.4,63.5c0.2-0.1,0.4-0.5,0.3-0.6c-0.1-0.1-0.3,0.1-0.4,0.2c-0.1,0.2-0.1,0.4-0.1,0.6
						c0.1,0.2,0.4,0.2,0.6,0c0.1-0.1,0.1-0.2,0-0.1c-0.3,0.2-0.3-0.2-0.3-0.3c0,0,0-0.1,0-0.1c0-0.1,0,0,0.1,0
						c0.1,0.1-0.1,0.4-0.2,0.5C96.2,63.6,96.3,63.6,96.4,63.5L96.4,63.5z"/>
				</g>
				<g id="XMLID_25_">
					<path class="st9" d="M96.5,62.7c0,0,0.1-0.1,0.1-0.2c0,0,0,0-0.1,0c0,0-0.1,0.1-0.1,0.1c0,0,0,0,0,0c0,0,0,0,0,0
						c0,0-0.1,0.1,0,0.1C96.5,62.8,96.5,62.7,96.5,62.7L96.5,62.7z"/>
				</g>
				<g id="XMLID_26_">
					<path class="st9" d="M96.8,62.6c0,0,0-0.1,0-0.1c0,0-0.1,0-0.1,0c0,0-0.1,0.1-0.1,0.1c0,0,0,0,0,0c0,0,0,0.1,0,0.1
						C96.7,62.7,96.8,62.7,96.8,62.6L96.8,62.6z"/>
				</g>
				<g id="XMLID_27_">
					<path class="st9" d="M94.9,62.6c0-0.1,0-0.3-0.2-0.3c-0.2,0-0.4,0.1-0.4,0.3c-0.1,0.1-0.1,0.3,0,0.4c0.1,0.2,0.4,0.2,0.6,0.1
						c0.1,0,0.1-0.1,0-0.1c-0.1,0-0.2,0-0.3-0.1c-0.1-0.1,0-0.2,0-0.2c0-0.1,0.1-0.2,0.2-0.2c0,0,0,0,0.1,0c0,0,0.1,0,0,0
						c0,0,0,0.1,0,0.2C94.7,62.6,94.9,62.6,94.9,62.6L94.9,62.6z"/>
				</g>
			</g>
		</g>
		<g id="XMLID_28_">
			<g id="XMLID_29_">
				<g id="XMLID_30_">
					<path class="st4" d="M90.8,62.2c0,0,0.1,0.1,0.1,0.1c0,0.1-0.1,0.1-0.2,0.1c-0.1,0-0.2,0-0.3,0c-0.1,0-0.2,0.1-0.2,0.2
						c0.1,0.3,0.5,0.4,0.7,0.3c0,0,0-0.1,0-0.1c0,0-0.1,0-0.1,0c-0.1,0-0.3,0-0.3-0.2c-0.1-0.3,0.3-0.2,0.4-0.2c0.1,0,0.2,0,0.2-0.2
						C91.1,62.2,91,62.1,90.8,62.2C90.8,62.1,90.7,62.1,90.8,62.2L90.8,62.2z"/>
				</g>
				<g id="XMLID_31_">
					<path class="st4" d="M91.2,63.6c0.2,0,0.7-0.1,0.6-0.4c-0.1-0.2-0.3-0.1-0.4,0c-0.1,0.1-0.4,0.3-0.3,0.5c0,0.1,0.1,0.1,0.1,0.2
						c0.1,0.1,0.3,0.1,0.5,0.1c0.1,0,0-0.1-0.1-0.1C91.4,63.8,91.2,63.8,91.2,63.6c0,0,0.1-0.1,0.2-0.2c0,0,0.1-0.1,0.1-0.1
						c0,0,0,0,0.1,0c0,0,0,0,0,0c0.1,0.2-0.4,0.2-0.4,0.2C91,63.5,91.1,63.6,91.2,63.6L91.2,63.6z"/>
				</g>
				<g id="XMLID_32_">
					<g id="XMLID_33_">
						<path class="st4" d="M90.6,63c-0.1,0.1,0,0.3,0.1,0.4c0.2,0,0.3-0.1,0.4-0.2c0.1-0.1,0.2-0.2,0.2-0.4c0-0.1-0.1-0.1-0.2-0.1
							c-0.1,0-0.2,0-0.3,0.1c-0.1,0.1,0.1,0.1,0.2,0.1c0.1-0.1,0.1-0.1,0.1,0.1c0,0.1-0.1,0.1-0.1,0.2c-0.1,0.1-0.1,0.1-0.2,0.2
							c0,0-0.1,0-0.1,0c0,0,0,0,0,0c0-0.1,0-0.1,0-0.1C90.9,63,90.7,62.9,90.6,63L90.6,63z"/>
					</g>
					<g id="XMLID_34_">
						<path class="st4" d="M91.2,62.5c-0.3,0.4-0.7,0.7-1.1,0.9c-0.1,0,0.1,0.1,0.2,0.1c0.4-0.3,0.8-0.6,1.1-1
							C91.4,62.5,91.2,62.4,91.2,62.5L91.2,62.5z"/>
					</g>
				</g>
				<g id="XMLID_35_">
					<g id="XMLID_36_">
						<path class="st4" d="M92,64.5c-0.1,0,0-0.3,0.1-0.3c0.1-0.1,0.2-0.2,0.3-0.4c0.1-0.1-0.1-0.1-0.2,0c-0.1,0.1-0.2,0.2-0.2,0.3
							c0,0-0.1,0.1-0.1,0.1c-0.1,0-0.1,0.1-0.1,0c-0.1-0.2,0.3-0.5,0.4-0.6c0.1-0.1-0.1-0.1-0.1-0.1c-0.1,0.1-0.7,0.5-0.4,0.7
							c0.3,0.3,0.7-0.3,0.8-0.5c-0.1,0-0.1,0-0.2,0c-0.1,0.2-0.3,0.4-0.4,0.6c-0.1,0.2,0.1,0.3,0.3,0.3C92.1,64.6,92.1,64.4,92,64.5
							L92,64.5z"/>
					</g>
					<g id="XMLID_37_">
						<path class="st4" d="M92,64.5c-0.2,0-0.5-0.1-0.6,0.2c0,0.1,0.2,0.1,0.2,0c0-0.1,0.1-0.1,0.1-0.1c0,0,0.1,0,0.1,0c0,0,0,0,0,0
							c0,0,0,0,0,0c0,0,0,0,0,0C92,64.6,92,64.6,92,64.5C92.1,64.5,92,64.5,92,64.5L92,64.5z"/>
					</g>
				</g>
				<g id="XMLID_38_">
					<path class="st4" d="M97.1,66.2c0.1-0.1,0.4-0.6,0.1-0.7c-0.2-0.1-0.3,0.2-0.3,0.3c0,0.2-0.1,0.4,0.1,0.6
						c0.2,0.2,0.5-0.1,0.6-0.2c0.1-0.1,0.1-0.2-0.1-0.1C97.5,66.2,97.3,66.3,97.1,66.2c0,0,0-0.2,0-0.3c0-0.1,0-0.1,0-0.2
						c0,0,0,0,0-0.1c0,0,0,0,0,0c0.2,0-0.1,0.5-0.1,0.5C96.9,66.3,97.1,66.3,97.1,66.2L97.1,66.2z"/>
				</g>
				<g id="XMLID_39_">
					<path class="st4" d="M93.4,65.4c-0.1,0.3,0.2,0.4,0.3,0.2c0.1-0.1,0.1-0.2,0.2-0.3c0.1-0.1,0.1-0.2,0.2-0.3c0,0-0.1,0-0.1,0
						c-0.2,0.2-0.2,0.5-0.2,0.8c0,0.1,0.2,0.1,0.2,0c0.1-0.2,0.2-0.5,0.4-0.6c0,0-0.1,0-0.1,0c-0.1,0.2-0.2,0.5-0.2,0.7
						c0,0.3,0.4,0.1,0.5,0c0.1-0.1,0-0.1-0.1-0.1c-0.2,0.1-0.2-0.1-0.1-0.2c0-0.1,0.1-0.3,0.2-0.4c0.1-0.1-0.1-0.1-0.1,0
						c-0.2,0.2-0.4,0.4-0.5,0.7c0.1,0,0.1,0,0.2,0c0.1-0.2,0.1-0.6,0.2-0.8c0.1-0.1-0.1-0.1-0.1,0c-0.1,0.1-0.2,0.2-0.2,0.3
						c0,0.1-0.1,0.2-0.2,0.2c-0.1,0.1,0,0,0,0c-0.1,0,0-0.2,0-0.2C93.7,65.3,93.5,65.3,93.4,65.4L93.4,65.4z"/>
				</g>
				<g id="XMLID_40_">
					<path class="st4" d="M98.7,65.3c-0.1-0.2-0.3,0-0.3,0.1c-0.1,0.2,0,0.4,0,0.6c0.1,0.2,0.2,0.2,0.3,0
						C98.8,65.8,98.7,65.5,98.7,65.3c0,0-0.1,0.1-0.1,0.1c0,0.1,0.1,0.3,0.1,0.4c0,0.1,0.1,0.2,0.1,0.2c0.1,0.1,0.3-0.2,0.3-0.3
						c0-0.1-0.1-0.1-0.1,0c0,0.1-0.1,0.1-0.1,0C98.8,65.6,98.7,65.4,98.7,65.3c0-0.1-0.1,0.1-0.1,0.1c0,0.1,0.1,0.3,0.1,0.4
						c0,0,0,0.1,0,0.2c0,0-0.1,0-0.1-0.1c-0.1-0.1-0.1-0.2-0.1-0.3c0-0.1,0-0.1,0-0.2c0,0,0-0.1,0-0.1c0-0.1,0.1,0,0.1,0
						C98.6,65.5,98.7,65.3,98.7,65.3L98.7,65.3z"/>
				</g>
				<g id="XMLID_41_">
					<g id="XMLID_42_">
						<path class="st4" d="M96.3,66.3c0,0.2,0.2,0.2,0.4,0.1c0.2-0.1,0.2-0.3,0.2-0.5c0-0.1,0-0.3-0.2-0.4c-0.1,0-0.2,0-0.2,0.1
							c-0.1,0.1-0.2,0.2-0.2,0.3c0,0.1,0.2,0,0.2-0.1c0-0.1,0.1-0.1,0.1,0c0,0.1,0.1,0.1,0.1,0.2c0,0.1,0,0.2,0,0.3c0,0,0,0.1,0,0.1
							c0,0,0,0,0,0c-0.1,0-0.1-0.1-0.1-0.1C96.5,66.1,96.3,66.2,96.3,66.3L96.3,66.3z"/>
					</g>
					<g id="XMLID_43_">
						<path class="st4" d="M96.3,65.5c0.1,0.5,0,1,0,1.5c0,0.1,0.2,0,0.2-0.1c0.1-0.5,0.1-1,0-1.5C96.5,65.3,96.3,65.4,96.3,65.5
							L96.3,65.5z"/>
					</g>
				</g>
				<g id="XMLID_44_">
					<path class="st4" d="M96.1,65.5c-0.2,0-0.3,0.2-0.3,0.4c0,0.1-0.1,0.5,0.2,0.6c0.2,0,0.4-0.2,0.4-0.4
						C96.3,65.9,96.3,65.5,96.1,65.5c-0.1,0-0.2,0.1-0.1,0.2c0.1,0,0.1,0.2,0.1,0.3c0,0.1,0,0.1,0,0.2c0,0,0,0.1,0,0.1
						c0,0-0.1,0.1,0,0.1c-0.1,0-0.1-0.2-0.1-0.3c0-0.1,0-0.1,0-0.2c0,0,0-0.1,0-0.1c0,0,0,0,0,0C96,65.6,96.2,65.5,96.1,65.5z"/>
				</g>
				<g id="XMLID_45_">
					<path class="st4" d="M95,66.1c-0.1,0.1-0.1-0.3-0.1-0.3c0-0.2,0.1-0.3,0.1-0.4c0-0.1-0.2,0-0.2,0c0,0.1-0.1,0.3-0.1,0.4
						c0,0.1,0,0.1-0.1,0.2c0,0.1,0,0.1-0.1,0c-0.1-0.2,0.1-0.6,0.1-0.7c0.1-0.1-0.1-0.1-0.2,0c-0.1,0.1-0.4,0.8-0.1,0.9
						c0.4,0.1,0.5-0.6,0.5-0.8c-0.1,0-0.1,0-0.2,0c-0.1,0.2-0.1,0.5-0.1,0.7C94.8,66.3,95,66.3,95,66.1C95.2,66.1,95.1,66,95,66.1
						L95,66.1z"/>
				</g>
				<g id="XMLID_46_">
					<path class="st4" d="M93.4,65.4c-0.2,0.1-0.1-0.3-0.1-0.3c0.1-0.1,0.1-0.3,0.2-0.4c0-0.1-0.2-0.1-0.2,0
						c-0.1,0.1-0.1,0.2-0.2,0.3c0,0.1-0.1,0.1-0.1,0.2c0,0.1-0.1,0.1-0.1,0c-0.1-0.2,0.2-0.5,0.3-0.6c0.1-0.1-0.1-0.1-0.2,0
						c-0.1,0.1-0.6,0.7-0.2,0.8c0.4,0.2,0.6-0.4,0.7-0.6c-0.1,0-0.1,0-0.2,0c-0.1,0.2-0.3,0.5-0.3,0.7c0,0.3,0.4,0.1,0.5,0.1
						C93.7,65.4,93.5,65.3,93.4,65.4L93.4,65.4z"/>
				</g>
				<g id="XMLID_47_">
					<path class="st4" d="M98.9,65.8c0.1,0.3,0.3,0.2,0.4-0.1c0-0.1,0-0.3,0-0.4c0-0.1-0.1-0.3-0.1-0.4c0,0-0.1,0.1-0.1,0.1
						c0,0.3,0.2,0.5,0.3,0.8c0,0.1,0.1-0.1,0.1-0.2c-0.1-0.2-0.1-0.5-0.1-0.8c0,0-0.1,0.1-0.1,0.1c0,0.2,0.1,0.5,0.3,0.7
						c0.2,0.2,0.3-0.2,0.4-0.3c0-0.2-0.1-0.1-0.1,0c-0.1,0.3-0.2,0.1-0.2,0c-0.1-0.1-0.1-0.3-0.1-0.4c0-0.1-0.1,0-0.1,0.1
						c0,0.3,0,0.6,0.1,0.9c0-0.1,0.1-0.1,0.1-0.2c-0.1-0.2-0.3-0.5-0.3-0.7c0-0.1-0.1,0-0.1,0.1c0,0.1,0,0.3,0,0.4
						c0,0.1,0,0.2,0,0.3c0,0.1,0,0,0,0c-0.1,0-0.1-0.1-0.1-0.1C99,65.6,98.9,65.8,98.9,65.8L98.9,65.8z"/>
				</g>
				<g id="XMLID_48_">
					<path class="st4" d="M100.5,65c-0.1,0.1-0.3-0.2-0.3-0.2c-0.1-0.1-0.1-0.3-0.2-0.4c0-0.1-0.1,0.1-0.1,0.2
						c0,0.1,0.1,0.2,0.1,0.4c0,0.1,0,0.1,0.1,0.2c0,0.1,0,0.1-0.1,0.1c-0.2,0-0.3-0.5-0.3-0.6c0-0.1-0.1,0.1-0.1,0.1
						c0,0.2,0.2,0.9,0.5,0.7c0.4-0.3,0-0.8-0.1-1c0,0.1-0.1,0.1-0.1,0.2c0.1,0.2,0.2,0.5,0.3,0.6c0.1,0.1,0.3,0,0.4-0.2
						C100.7,64.9,100.5,64.9,100.5,65L100.5,65z"/>
				</g>
				<g id="XMLID_49_">
					<path class="st4" d="M90,61.9c-0.2-0.1-0.1-0.2,0-0.3c0.1-0.1,0.3-0.2,0.5-0.3c0.1,0-0.1-0.2-0.2-0.1c-0.1,0-0.2,0.1-0.3,0.2
						c-0.1,0-0.1,0-0.2,0.1c-0.1,0-0.1,0-0.1-0.1c0-0.2,0.4-0.3,0.6-0.3c0.1,0-0.1-0.2-0.1-0.2c-0.2,0-0.8,0.1-0.6,0.5
						c0.2,0.4,0.7,0.1,1,0c-0.1,0-0.1-0.1-0.2-0.1c-0.2,0.1-0.5,0.2-0.6,0.4C89.7,61.8,89.9,62,90,62C90.2,62.1,90.2,62,90,61.9
						L90,61.9z"/>
				</g>
				<g id="XMLID_50_">
					<g id="XMLID_51_">
						<path class="st4" d="M98.2,65.5c-0.1-0.2-0.2-0.3-0.4-0.1c-0.1,0.1-0.1,0.4-0.1,0.5c0,0.1,0.1,0.4,0.3,0.3
							c0.2,0,0.4-0.3,0.4-0.5c0-0.1-0.1,0-0.1,0.1c0,0.1-0.1,0.2-0.2,0.2C98,66.1,98,66,98,65.9c0-0.1,0-0.2,0-0.3c0,0,0,0,0-0.1
							c0-0.1,0,0,0,0c0.1,0,0.1,0.1,0.1,0.2C98.1,65.8,98.2,65.6,98.2,65.5L98.2,65.5z"/>
					</g>
					<g id="XMLID_52_">
						<path class="st4" d="M97.5,66.2c0,0.2,0.3,0.2,0.4,0.1c0.1-0.1,0.1-0.3,0.1-0.5c0-0.1-0.1-0.3-0.2-0.4c-0.1,0-0.1,0-0.2,0.1
							c-0.1,0.1-0.1,0.2-0.1,0.3c0,0.1,0.2,0,0.2-0.1c0-0.1,0-0.1,0.1-0.1c0,0.1,0.1,0.1,0.1,0.2c0,0.1,0,0.2,0,0.3c0,0,0,0.1,0,0.1
							c0,0,0,0,0,0c-0.1,0-0.1,0-0.1-0.1C97.7,66,97.5,66.1,97.5,66.2L97.5,66.2z"/>
					</g>
				</g>
				<g id="XMLID_53_">
					<path class="st4" d="M92.5,63.9c-0.1,0.3-0.3,0.5-0.5,0.8c-0.1,0.1,0.2,0.1,0.2,0c0.1-0.1,0.2-0.2,0.3-0.3
						c0.1-0.1,0.2-0.2,0.3-0.1c0.1,0,0.1,0,0.2,0c-0.2-0.4-0.6,0-0.7,0.1c0,0,0,0.1,0.1,0.1c0.2,0.1,0,0.3,0,0.4
						c0.1,0.1,0.4,0.1,0.5,0.1c0.1,0,0.1-0.1,0-0.1c-0.1,0-0.2,0-0.2-0.1c0-0.1,0-0.1,0.1-0.2c0-0.1-0.1-0.2-0.2-0.2
						c0,0,0,0,0.1,0.1c0.1-0.1,0.2-0.3,0.3-0.1c0,0.1,0.2,0,0.2,0c-0.2-0.5-0.8,0.2-1,0.4c0.1,0,0.1,0,0.2,0
						c0.2-0.3,0.4-0.5,0.5-0.8C92.7,63.8,92.5,63.8,92.5,63.9L92.5,63.9z"/>
				</g>
			</g>
		</g>
		<g id="XMLID_54_">
			<path class="st6" d="M103.2,60.7c0,0-0.2-0.1-0.2-0.4l0.1-0.6c0,0,0-0.2,0.2-0.3l0.6-0.3c0,0,0.2-0.1,0.3,0l0.6,0.3
				c0,0,0.1,0.1,0.2,0l0.5-0.3c0,0,0.3-0.1,0.4,0l0.7,0.4c0,0,0.2,0,0.2,0.3l0.1,0.7c0,0,0.1,0.2-0.2,0.3l-0.7,0.4
				c0,0-0.1,0.1-0.1,0.2l0,0.9c0,0,0,0.1-0.2,0.2l-0.7,0.4c0,0-0.1,0.2-0.4,0l-0.6-0.4c0,0-0.2-0.2-0.2-0.4l0.1-0.8
				c0,0,0-0.1-0.2-0.2L103.2,60.7z"/>
			<path class="st11" d="M103.4,59.6c0,0-0.1,0-0.1,0.2l-0.1,0.6c0,0-0.1,0.2,0.1,0.3l0.6,0.4c0,0,0.1,0.1,0.3,0l0.5-0.3
				c0,0,0.1,0,0.1-0.3l0-0.6c0,0,0-0.1-0.1-0.2l-0.5-0.3c0,0-0.1-0.1-0.3,0L103.4,59.6z"/>
			<path class="st12" d="M104.8,60l-0.6-0.4c-0.1-0.1-0.1,0-0.1,0l-0.5,0.3c-0.1,0-0.1,0.1-0.1,0.1l-0.1,0.7l0.4,0.3
				c0,0,0.1,0.1,0.3,0l0.5-0.3c0,0,0.1-0.1,0.1-0.3L104.8,60z"/>
			<path class="st11" d="M105,59.8c0,0,0-0.1,0.1-0.2l0.6-0.3c0,0,0.1-0.1,0.2,0l0.6,0.4c0,0,0.1,0,0.1,0.2l0,0.7c0,0,0,0.1-0.1,0.2
				l-0.6,0.3c0,0-0.1,0.1-0.2,0l-0.6-0.4c0,0-0.1,0-0.1-0.2L105,59.8z"/>
			<path class="st12" d="M106.3,60.9l0-0.7c0-0.2-0.1-0.2-0.1-0.2l-0.5-0.3c-0.1-0.1-0.2,0-0.2,0L105,60l0,0.5c0,0,0,0.2,0.1,0.2
				l0.6,0.4c0,0,0.1,0.1,0.2,0L106.3,60.9z"/>
			<path class="st6" d="M104.3,62.8c0,0,0.4,0.4,0.5,0.5c0,0,0.1,0.2,0.1,0.5c0,0-0.1,0.7,0.1,0.6c0,0,0.3,0,0.1-0.5
				c0,0-0.2-0.6,0.1-0.8c0,0,0.2-0.2,0.2,0c0,0,0,0.3,0,0.4c0,0-0.1,0.3,0.1,0.3c0,0,0.2,0,0.1-0.3c0,0-0.1-0.2-0.1-0.4
				c0,0,0-0.2,0.1-0.3c0,0,0.1-0.1,0.2-0.2"/>
			<path class="st11" d="M104.1,61.5c0,0,0-0.1,0.1-0.2l0.6-0.4c0,0,0.1-0.1,0.2,0l0.6,0.4c0,0,0.1,0.1,0.1,0.2l0,0.8
				c0,0,0,0.2-0.1,0.3L105,63c0,0-0.1,0.1-0.3,0l-0.6-0.4c0,0-0.1-0.1-0.1-0.3L104.1,61.5z"/>
			<path class="st12" d="M104.3,61.4l0.5-0.3c0,0,0,0,0.1,0l0.5,0.3c0,0,0.1,0,0.1,0.2l0,0.6c0,0,0,0.1-0.1,0.2l-0.5,0.3
				c0,0-0.1,0.1-0.2,0l-0.5-0.3c0,0-0.1,0-0.1-0.2l0-0.6C104.2,61.6,104.2,61.5,104.3,61.4z"/>
		</g>
		<g id="XMLID_55_">
			<polygon class="st13" points="102.7,62.2 102.8,61.7 102.8,61.6 102.9,61.4 103.2,61.3 103.3,61.1 103.6,61.1 104,61.2 
				104.4,61.4 104.8,61.9 104.9,62.6 104.8,62.9 104.6,62.9 104.6,63.1 104.5,63.2 104.3,63.2 104.1,63.3 103.7,63.3 103.2,63.1 
				102.9,62.8 			"/>
			<g id="XMLID_56_">
				<path class="st14" d="M104.7,62.9C104.7,63,104.7,63,104.7,62.9c0,0.2-0.1,0.2-0.2,0.3c0,0,0,0-0.1,0c0,0-0.1,0-0.1,0.1
					c-0.1,0.1-0.2,0.1-0.2,0.1c-0.5,0-0.8-0.1-1.1-0.5c-0.2-0.2-0.2-0.5-0.2-0.7c0-0.2,0.1-0.3,0.2-0.5c0,0,0-0.1,0-0.1
					c0-0.1,0-0.2,0.1-0.2c0,0,0,0,0.1,0c0.1,0,0.1,0,0.1-0.1c0.1-0.1,0.3-0.1,0.4-0.1c0.5-0.1,0.9,0.3,1.1,0.7
					c0.1,0.2,0.1,0.3,0.1,0.5c0,0,0,0,0,0c0.1,0.2,0,0.3,0,0.5C104.8,62.9,104.7,62.9,104.7,62.9z M103.1,61.8
					C103.1,61.8,103.1,61.8,103.1,61.8c-0.1,0-0.2-0.1-0.3,0c0,0,0,0,0,0c0,0.2,0,0.3,0,0.5c0,0.3,0.2,0.5,0.4,0.7
					c0.2,0.2,0.5,0.3,0.8,0.3c0.1,0,0.2,0,0.3-0.1c0,0,0.1-0.1,0.1-0.1c0,0,0,0,0.1,0c0.1,0,0.1,0,0.1-0.1c0-0.1,0-0.2,0-0.3
					c0,0-0.1,0.1-0.1,0.1c0,0,0.1-0.1,0.1-0.1c0,0,0,0,0,0c0,0-0.1-0.1-0.1-0.1c-0.1-0.1-0.2-0.3-0.4-0.4c0,0-0.1-0.1-0.1-0.1
					c0,0,0,0,0,0c0.1,0.1,0.1,0.1,0.2,0.2c0.1,0.1,0.1,0.1,0.2,0.2c0.1,0.1,0.1,0.1,0.2,0.2c0-0.1-0.1-0.2-0.2-0.2
					c-0.1-0.1-0.1-0.1-0.2-0.2c-0.1-0.1-0.1-0.1-0.2-0.2c0,0,0,0,0,0c0.1,0.1,0.1,0.1,0.2,0.2c0.1,0.1,0.1,0.1,0.2,0.2
					c0.1,0.1,0.1,0.1,0.2,0.2c0,0,0,0,0,0c0-0.1-0.1-0.1-0.1-0.2c-0.2-0.2-0.4-0.4-0.6-0.6c-0.2-0.1-0.3-0.2-0.5-0.3
					c-0.1,0-0.1-0.1-0.2-0.1c0.2,0.1,0.4,0.2,0.6,0.4c0,0,0,0,0,0c0,0-0.1-0.1-0.1-0.1c-0.1-0.1-0.3-0.2-0.4-0.2c0,0-0.1,0-0.1,0.1
					c0,0,0,0,0,0c0.1,0,0.2,0,0.2,0.1c0.1,0.1,0.3,0.1,0.4,0.2c0.1,0.1,0.1,0.1,0.2,0.2c0,0,0,0,0,0c0,0,0,0,0,0
					c-0.2-0.1-0.3-0.2-0.5-0.3c-0.1,0-0.2-0.1-0.2-0.1c0,0-0.1,0-0.1,0c0.1,0,0.3,0.1,0.4,0.1c0.1,0.1,0.3,0.2,0.3,0.2
					c-0.1-0.1-0.2-0.1-0.3-0.2c-0.1-0.1-0.3-0.1-0.3-0.1C103,61.7,103,61.7,103.1,61.8c-0.1-0.1-0.1-0.1-0.1-0.1c0,0-0.1,0-0.1,0
					c0,0,0,0,0,0C103,61.7,103.1,61.8,103.1,61.8z M103.4,61.2C103.4,61.2,103.4,61.2,103.4,61.2C103.4,61.2,103.4,61.2,103.4,61.2
					c0.1,0.1,0.2,0.1,0.3,0.1c0.1,0.1,0.2,0.1,0.3,0.2c0,0,0.1,0.1,0.1,0.1c0.1,0.1,0.2,0.2,0.2,0.4c0,0,0,0,0,0
					c-0.1-0.1-0.2-0.2-0.3-0.3c-0.1-0.1-0.1-0.2-0.2-0.2c-0.1,0-0.2-0.1-0.3-0.2C103.6,61.3,103.5,61.3,103.4,61.2
					c0.1,0.2,0.2,0.3,0.2,0.4c-0.1-0.1-0.2-0.2-0.3-0.2c0.2,0.1,0.4,0.2,0.5,0.4c0.2,0.1,0.3,0.3,0.5,0.4c0,0,0,0,0,0c0,0,0,0,0,0
					c0-0.1-0.1-0.3-0.2-0.3c0,0-0.1,0-0.1-0.1c-0.1-0.1-0.1-0.1-0.1-0.2c0,0,0,0.1,0.1,0.1c0,0,0.1,0.1,0.2,0.1
					c0.1,0.1,0.1,0.1,0.2,0.2c0,0.1,0,0.1,0,0.2c0,0,0,0,0,0.1c0.1,0.1,0.1,0.1,0.2,0.2c0,0,0.1,0.1,0.1,0.1c0,0,0.1,0,0.1-0.1
					c0,0,0,0,0,0.1c-0.1,0,0,0.1,0,0.2c0,0,0,0,0,0.1c0,0,0,0,0.1,0c0,0,0,0,0.1,0c-0.1,0-0.1,0-0.1-0.1c0,0,0,0.1,0.1,0.1
					c0,0,0.1,0,0.1-0.1c0,0,0,0,0,0c0-0.1,0-0.2,0-0.3c0,0,0,0,0,0.1c0,0,0,0,0,0c0-0.2,0-0.3,0-0.5c-0.1-0.4-0.6-0.8-1-0.8
					c0,0-0.1,0-0.1,0c0,0,0,0,0,0c0.1,0.1,0.3,0.1,0.4,0.2c0,0-0.1,0-0.1,0c-0.1-0.1-0.2-0.1-0.3-0.2
					C103.5,61.2,103.5,61.2,103.4,61.2C103.4,61.2,103.4,61.2,103.4,61.2z"/>
				<path class="st14" d="M102.9,62.4c0.1,0.1,0.2,0.2,0.2,0.3c0,0,0,0.1,0,0.1c0,0.1,0.1,0.2,0.2,0.1c0,0,0,0,0.1,0
					c0,0.1,0.1,0.2,0.2,0.2c0.1,0,0.2,0,0.3,0.1c0,0-0.1,0-0.1,0c-0.1,0-0.1,0-0.2,0c0,0-0.1,0-0.1-0.1c0,0-0.1-0.1-0.1-0.1
					c0,0,0,0,0,0c0,0-0.1,0-0.1,0c-0.1,0-0.2-0.1-0.2-0.2c0,0,0-0.1,0-0.1C103,62.6,102.9,62.5,102.9,62.4z"/>
				<path class="st14" d="M102.9,62.2c0,0,0,0.1,0,0.1c0,0.1,0.1,0.1,0.2,0.1c0.1,0,0.1,0,0.2,0c0.1,0,0.2,0,0.3,0.1
					c0,0,0.1,0.1,0.2,0.1c0,0,0.1,0,0.1,0c0,0,0,0,0,0c-0.1,0.1-0.2,0.1-0.3,0c0,0-0.1,0-0.1-0.1c-0.1,0-0.1-0.1-0.2-0.1
					c-0.1,0-0.2,0-0.3,0C103,62.4,102.9,62.3,102.9,62.2z"/>
				<path class="st14" d="M103.6,62.8c0.1,0,0.1,0.1,0.2,0.1c0.1,0,0.1,0,0.2,0c0.1,0,0.1,0,0.2,0c0,0,0.1,0,0.1,0
					c-0.1,0-0.1,0-0.2,0c0,0-0.1,0-0.1,0C103.8,63,103.7,62.9,103.6,62.8z"/>
				<path class="st14" d="M104.4,63.1c-0.1,0.1-0.4,0.1-0.4,0c0.1,0,0.3,0,0.4-0.1c0,0.1-0.1,0.1-0.2,0.1c0,0,0,0,0,0
					C104.2,63.1,104.3,63.1,104.4,63.1z"/>
				<path class="st14" d="M103.6,62.7c0.1,0.1,0.3,0.1,0.4,0c0.1,0,0.1-0.1,0.2-0.1c-0.1,0.1-0.2,0.2-0.3,0.2
					C103.8,62.8,103.7,62.8,103.6,62.7z"/>
				<path class="st14" d="M103.1,62.6c0,0,0,0.1,0.1,0.1c0,0.1,0.1,0.1,0.2,0.1c0,0,0.1,0,0.1,0c-0.1,0-0.1,0.1-0.2,0.1
					c-0.1,0-0.1,0-0.1-0.1C103.1,62.7,103.1,62.7,103.1,62.6C103.1,62.6,103.1,62.6,103.1,62.6z"/>
				<path class="st14" d="M103.4,62.2c-0.1,0-0.2,0-0.2-0.1c0,0,0,0-0.1-0.1c0,0-0.1-0.1-0.1-0.1c0,0,0,0,0,0c-0.1,0-0.1-0.1,0-0.1
					c0,0.1,0,0.1,0.1,0.1c0,0,0,0,0,0c0,0.1,0,0.1,0.1,0.1c0,0,0,0,0,0C103.2,62.2,103.3,62.2,103.4,62.2z"/>
				<path class="st14" d="M103.4,62.9c0.1,0.1,0.3,0.2,0.4,0.2c0,0,0,0,0,0c-0.1,0-0.2,0-0.3-0.1C103.5,63,103.4,63,103.4,62.9z"/>
				<path class="st14" d="M103.6,62.7c-0.1,0-0.2,0-0.2,0c-0.1,0-0.1-0.1-0.1-0.1C103.3,62.7,103.5,62.7,103.6,62.7z"/>
				<path class="st14" d="M103.2,61.9C103.2,62,103.2,62,103.2,61.9c0.2,0.1,0.2,0.1,0.2,0.3c0,0,0,0,0-0.1c0,0-0.1-0.1-0.1-0.1
					c0,0,0,0-0.1,0C103.2,62,103.2,61.9,103.2,61.9z"/>
				<path class="st14" d="M103.6,62.2c0,0,0.1,0,0.1,0.1c0,0,0,0,0,0c0,0.1,0.1,0.1,0.2,0c0,0,0,0,0,0c0,0,0,0,0,0c0,0-0.1,0-0.1,0
					c0,0,0,0-0.1,0C103.7,62.3,103.6,62.3,103.6,62.2z"/>
				<path class="st14" d="M104.2,61.5c-0.2-0.2-0.2-0.2-0.3-0.2c0.1,0,0.1,0.1,0.1,0.1C104.1,61.4,104.1,61.4,104.2,61.5
					c0,0,0,0.1,0.1,0.2c0,0.1,0,0.1,0.1,0.2c0-0.1-0.1-0.1-0.1-0.2c0-0.1-0.1-0.2-0.2-0.3c-0.1-0.1-0.2-0.1-0.2-0.2c0,0,0,0,0,0
					C104,61.2,104.2,61.3,104.2,61.5z"/>
				<path class="st14" d="M104.2,61.4c0.1,0.1,0.2,0.2,0.3,0.4c0.1,0.2,0.1,0.4,0.1,0.6c0,0,0,0,0,0C104.6,62,104.5,61.6,104.2,61.4
					z"/>
				<path class="st14" d="M104.6,61.8c0,0.1,0.1,0.2,0.1,0.3c0,0,0,0,0,0.1c0,0.1,0,0.1,0,0.2c0,0,0,0.1,0,0.1c0,0,0-0.1,0-0.1
					c0,0,0-0.1,0-0.1c0-0.1,0-0.1,0-0.2C104.6,61.9,104.6,61.9,104.6,61.8C104.6,61.8,104.6,61.8,104.6,61.8z"/>
				<path class="st14" d="M103.7,61.6c0.1,0.1,0.2,0.2,0.3,0.3c0,0,0,0,0,0c0,0-0.1-0.1-0.1-0.1C103.9,61.8,103.8,61.7,103.7,61.6
					C103.8,61.6,103.7,61.6,103.7,61.6C103.7,61.6,103.7,61.6,103.7,61.6z"/>
			</g>
		</g>
		<g id="XMLID_57_">
			<path class="st5" d="M102,62.7l0.2-0.2l0.3-0.1c0,0,0.3,0,0.3,0c0.2,0,0.4,0.1,0.4,0.1l0.2,0.1l0.3,0.2l0.2,0.2l0.1,0.3l0.1,0.3
				l0,0.3l-0.1,0.4l-0.1,0.3l-0.4,0l-0.4,0l-0.3,0l-0.3-0.1l-0.3-0.2l-0.2-0.2l-0.2-0.3l-0.1-0.3l0-0.3l0.1-0.3L102,62.7z"/>
			<path class="st15" d="M104,63.7c0,0,0-0.2-0.1-0.6c0,0,0,0,0,0c0,0,0,0,0-0.1c0,0,0-0.1,0-0.1c0,0-0.1-0.2-0.4-0.4
				c-0.3-0.2-0.6-0.4-1-0.3c-0.5,0.1-0.9,0.6-0.8,1.2c0,0.3,0.1,0.5,0.3,0.7c0.3,0.4,0.8,0.5,1.3,0.5c0.1,0,0.2,0,0.3,0
				c0.1,0,0.2,0,0.3,0c0,0,0-0.1,0-0.1C103.9,64.4,104,64,104,63.7z M103.8,64.5c-0.1,0-0.3,0-0.4,0.1c-0.2,0-0.4,0-0.6,0
				c-0.1,0-0.2-0.1-0.3-0.1c-0.2-0.1-0.3-0.2-0.4-0.3c-0.1-0.2-0.2-0.3-0.3-0.5c0-0.1-0.1-0.2-0.1-0.3c0-0.1,0-0.2,0-0.2l0,0
				c0-0.1,0.1-0.2,0.1-0.2c0,0,0,0,0,0c0,0,0,0,0,0c0.1-0.1,0.1-0.1,0.2-0.2c0,0,0-0.1,0-0.1c0.1-0.1,0.2-0.2,0.4-0.3
				c0.2,0,0.3,0,0.5,0c0,0,0,0,0,0c0.1,0,0.1,0,0.2,0.1c0,0,0.1,0,0.1,0c0.2,0.1,0.3,0.2,0.4,0.4c0.1,0.2,0.2,0.3,0.2,0.5
				c0,0.2,0,0.4,0,0.6c0,0,0,0,0,0c0,0,0-0.1,0-0.1C103.9,64.1,103.7,64.2,103.8,64.5c0-0.2,0-0.3,0.1-0.4c0.1-0.2,0.1-0.5,0.1-0.7
				c0-0.2-0.1-0.4-0.2-0.5c-0.1-0.2-0.2-0.3-0.4-0.4c0,0,0,0,0,0c0,0,0.1,0,0.1,0.1c0.1,0.1,0.2,0.1,0.2,0.2c0.3,0.5,0.4,1,0.2,1.5
				C103.8,64.4,103.8,64.4,103.8,64.5z"/>
			<path class="st15" d="M102,63.8C102,63.8,102,63.8,102,63.8c0.2,0.1,0.3,0.1,0.4,0.2c0,0.1,0.1,0.2,0.3,0.2
				c0.1,0,0.2,0.1,0.3,0.1c0.1,0,0.3-0.1,0.4-0.2c0.1-0.1,0.2-0.3,0.3-0.3c-0.1,0.2,0,0.4-0.1,0.6c-0.2,0.2-0.6,0-0.8,0
				c-0.2,0-0.4-0.1-0.6-0.2C102.1,64,102.1,63.9,102,63.8"/>
			<polygon class="st16" points="101.8,63 102,63 102.1,62.9 102,62.7 102.2,62.6 102.2,62.5 102.5,62.4 102.7,62.4 103,62.5 
				103.3,62.5 103.5,62.7 103.5,63 103.7,63.1 103.7,63.3 103.7,63.5 103.8,63.7 103.7,63.8 103.6,63.9 103.5,64.1 103.3,64.3 
				102.9,64.3 102.7,64.2 102.6,64.2 102.5,64.1 102.4,63.9 102.1,63.8 101.9,63.6 101.8,63.2 			"/>
			<path class="st15" d="M103.8,63.5C103.7,63.4,103.7,63.4,103.8,63.5c0-0.2,0-0.3,0-0.4c0,0,0,0,0-0.1c0,0,0,0,0,0
				c-0.1,0-0.1-0.1-0.1-0.2c0,0,0-0.1,0-0.1c-0.1-0.1-0.3-0.2-0.4-0.2c0,0-0.1,0-0.1,0c-0.1-0.1-0.3-0.1-0.4-0.1c0,0-0.1,0-0.2,0
				c-0.1,0-0.2,0-0.2,0.2c0,0,0,0.1-0.1,0.1c-0.1,0-0.1,0.1-0.1,0.2c0,0,0,0,0,0.1c0,0,0,0-0.1,0c-0.1,0-0.2,0-0.2,0.1l0,0
				c0,0.1,0,0.2,0,0.3c0,0.1,0.1,0.2,0.2,0.4c0.1,0.1,0.1,0.2,0.3,0.2c0.1,0,0.2,0,0.2,0.1c0.1,0.2,0.1,0.2,0.3,0.2c0,0,0,0,0.1,0
				c0.1,0.1,0.2,0.1,0.3,0.1c0.1,0,0.1,0,0.2,0c0.1,0,0.2,0,0.2-0.1c0,0,0,0,0,0c0.1-0.1,0.1-0.1,0.1-0.2c0,0,0-0.1,0.1-0.1
				c0,0,0.1-0.1,0.1-0.1C103.8,63.7,103.8,63.6,103.8,63.5z M101.9,63c0.1,0,0.1,0,0.2,0.1c0,0,0,0.1,0.1,0.1c0,0,0,0,0,0.1
				c0,0,0,0,0,0c0,0,0,0,0,0c0-0.1,0-0.1-0.1-0.1c0,0-0.1-0.1-0.1-0.1c0,0,0,0,0.1,0c0,0,0,0.1,0,0.1c0,0,0,0,0.1,0
				c0,0.1,0,0.1,0.1,0.1c0,0.1,0.1,0,0.1,0.1c0,0,0,0-0.1,0c-0.1,0-0.2,0.1-0.2,0.2c0,0.1,0,0.2,0.1,0.3c0,0,0,0,0,0
				c-0.1,0-0.1,0-0.1-0.1c0,0-0.1-0.1-0.1-0.1c0,0-0.1-0.1-0.1-0.1c0,0,0,0-0.1-0.1c0,0,0,0,0,0C101.9,63.2,101.8,63.1,101.9,63z
				 M103.5,63.9L103.5,63.9C103.5,63.8,103.5,63.8,103.5,63.9C103.5,63.9,103.5,63.9,103.5,63.9c-0.1-0.1-0.2-0.1-0.3-0.2
				c0,0,0.1,0,0.1,0c0,0,0,0,0,0l-0.1,0c0,0,0,0,0,0c0,0,0,0,0.1,0C103.4,63.7,103.5,63.8,103.5,63.9
				C103.6,63.8,103.6,63.9,103.5,63.9C103.6,63.9,103.5,63.9,103.5,63.9z M103.7,63.8C103.7,63.8,103.6,63.8,103.7,63.8l-0.1,0
				C103.6,63.7,103.6,63.7,103.7,63.8c-0.1-0.1-0.2-0.2-0.2-0.2c0,0,0,0,0,0c0,0,0,0,0,0.1c0,0,0,0,0,0c0,0-0.1,0-0.1,0
				c-0.1,0-0.2-0.1-0.3-0.2c-0.1-0.2-0.1-0.3,0-0.5c0-0.1,0-0.2,0-0.2c-0.1,0-0.1,0-0.1,0.1c0,0.1,0,0.2,0,0.2c0,0.1,0,0.1,0.1,0.2
				c0,0.1,0,0.1,0,0.1c-0.1,0-0.1,0-0.2,0c-0.1-0.1-0.1-0.1-0.2,0c0,0-0.1,0,0,0.1c0,0,0,0.1,0.1,0.1c0.1,0,0.2,0,0.3,0
				c0.1,0,0.2,0,0.2,0.1c0,0.1,0.1,0.1,0.1,0.1c0.1,0.1,0.2,0.1,0.2,0.2c0,0,0,0,0,0.1c-0.1,0.1-0.1,0.1-0.2,0.1c0,0-0.1,0-0.1,0
				c0,0,0,0-0.1,0c0,0-0.1,0-0.1,0c0,0-0.1-0.1-0.1-0.1c0,0,0,0-0.1,0c0,0-0.1,0-0.1,0c0,0-0.1,0-0.1,0c0,0,0-0.1,0-0.1c0,0,0,0,0,0
				c0,0,0,0,0,0c0,0,0,0,0-0.1c0,0,0,0,0-0.1c0,0,0,0-0.1,0c0,0-0.1,0-0.1,0c0,0,0,0,0,0c0,0-0.1,0-0.1,0c0,0,0,0,0,0
				c0,0-0.1,0-0.1,0c0,0,0,0,0,0c0,0,0,0,0,0c-0.1-0.1-0.1-0.2-0.2-0.3c0.1,0,0.1,0.1,0.1,0.1c0,0,0,0.1,0.1,0.1c0,0,0,0,0,0
				c0,0,0,0,0.1,0l0,0c0.1,0,0.2,0,0.2,0c0.1,0,0.1,0,0.2,0.1c0,0.1,0.1,0.1,0.2,0.2c0,0,0,0,0.1,0c0.1,0,0.1,0,0.2,0
				c0,0,0,0.1,0,0.1c0,0,0,0,0.1,0c0,0,0.1,0,0.1-0.1c0-0.1,0-0.1-0.1-0.1c0,0-0.1,0-0.1,0c-0.1,0-0.2,0-0.3-0.1c0,0,0,0,0,0
				c0,0,0,0,0,0c0.1,0,0.1-0.2,0-0.2c-0.1,0-0.2,0-0.2,0.1c0,0,0,0,0-0.1c0,0,0,0,0,0.1c0,0-0.1-0.1-0.1-0.1c0,0,0,0,0,0
				c0,0,0,0,0-0.1c0,0,0,0,0,0c0,0-0.1-0.1,0-0.2c0-0.1,0.1-0.1,0.2-0.1c0,0,0.1,0,0.1,0c0,0,0,0,0,0c0,0,0,0,0.1,0
				c0,0,0.1,0,0.1-0.1c0,0,0-0.1,0-0.1c0,0,0,0,0-0.1c0,0,0,0.1,0,0.1c0,0,0-0.1-0.1,0c0,0,0,0,0,0c0,0,0,0,0-0.1c0,0,0,0,0,0.1
				c-0.1,0-0.1-0.1-0.2-0.1c0,0,0,0-0.1,0c-0.1,0-0.1-0.1-0.2-0.2c0,0,0,0,0,0c0,0,0.2-0.1,0.2-0.1l0,0l0,0c-0.1,0,0-0.1,0-0.1
				c0,0,0.1-0.1,0.1-0.1c0,0,0.1,0,0.1,0.1c0,0,0,0,0.1,0c0,0,0.1,0,0.1,0c0,0,0,0,0-0.1c0,0,0.1,0,0.2,0c0.1,0,0.1,0.1,0.1,0.1
				c-0.1,0-0.2,0.1-0.2,0.1c0,0,0,0,0,0c0,0,0,0,0,0c0,0.1,0,0.1,0,0.2c0,0-0.1-0.1-0.1-0.1c0,0,0,0,0.1,0c0,0,0,0,0,0
				c0,0,0.1-0.1,0.1-0.1c0,0,0,0,0,0c0,0,0,0,0,0c0,0,0-0.1,0-0.1c0,0,0,0-0.1,0c0,0,0,0,0,0c0,0-0.1,0-0.1,0c0,0,0,0,0,0
				c0,0,0,0,0,0c0,0,0,0,0-0.1c0,0,0,0,0,0.1c0-0.1-0.1-0.1-0.2-0.1c0,0.1,0,0.1,0,0.1l0,0l0,0c0,0,0,0.1,0,0.1
				c0.1,0,0.2,0.1,0.3,0.2c0,0,0.1,0.1,0.1,0.1c0-0.1,0-0.2,0.1-0.2c0-0.1,0.1-0.1,0.2-0.2c0,0,0,0,0,0c0.1,0.1,0.2,0.1,0.2,0.3
				c0,0,0,0,0,0.1c0,0,0-0.1,0-0.1c0.1,0.1,0.1,0.2,0.1,0.4c0,0.1,0.1,0.2,0.1,0.2c0,0,0.1,0,0.1,0.1c0,0,0,0,0,0
				c0,0.1,0,0.1,0.1,0.1l0,0c0,0,0,0,0.1,0.1c0,0,0,0,0-0.1c-0.1-0.1-0.1-0.1-0.1-0.2c0,0,0-0.1,0-0.1c0,0-0.1-0.1-0.1-0.1
				c0,0,0.1,0,0.1,0c0,0,0,0,0,0c0,0,0,0,0,0c0,0-0.1,0-0.1,0c-0.1,0-0.1-0.1-0.1-0.1c0-0.1-0.1-0.2-0.2-0.3c0,0-0.1,0-0.1-0.1
				c0.1,0,0.2,0,0.3,0.1l0,0c0,0,0,0-0.1-0.1c0.1,0,0.2,0.1,0.2,0.2c0,0,0,0.1-0.1,0.2c0,0,0.1,0.1,0.1,0.1c0,0,0,0,0,0c0,0,0,0,0,0
				c0.1,0,0.2,0.1,0.2,0.2c0,0,0,0,0,0c0,0,0,0.1-0.1,0.1c0,0,0,0.1,0.1,0.1c0,0,0,0.1,0,0.1c0,0,0,0,0-0.1
				C103.7,63.6,103.7,63.7,103.7,63.8C103.8,63.8,103.7,63.8,103.7,63.8z M103.1,63.6C103.1,63.6,103.1,63.6,103.1,63.6
				c0,0-0.1-0.1-0.1-0.1c0,0,0,0,0,0.1c0,0,0,0,0,0c0-0.1,0-0.1,0-0.1C103,63.4,103,63.5,103.1,63.6z"/>
		</g>
	</g>
	<g id="XMLID_58_">
		
			<ellipse transform="matrix(0.9998 2.102369e-02 -2.102369e-02 0.9998 1.2366 -0.685)" class="st4" cx="33.2" cy="58.5" rx="5.8" ry="6.2"/>
		<path class="st5" d="M33.4,52.2l-0.3,12.4c3.2,0.1,5.9-2.7,5.9-6.1C39.1,55.2,36.6,52.3,33.4,52.2z"/>
		<path class="st6" d="M30.6,50.8c0,0.4-0.3,0.8-0.8,0.8c-0.4,0-0.7-0.4-0.7-0.8c0-0.4,0.3-0.8,0.8-0.8C30.3,50,30.6,50.3,30.6,50.8
			L30.6,50.8z"/>
		<path class="st7" d="M30.6,53.5c0,0.6-0.4,1-1,1s-0.9-0.5-0.9-1c0-0.6,0.5-1,1-1C30.2,52.4,30.6,52.9,30.6,53.5L30.6,53.5z"/>
		<path class="st7" d="M28.1,51.8c0,0.3-0.3,0.6-0.6,0.6c-0.3,0-0.6-0.3-0.6-0.6c0-0.3,0.3-0.6,0.6-0.6
			C27.8,51.2,28.1,51.5,28.1,51.8L28.1,51.8z"/>
		<g id="XMLID_59_">
			
				<ellipse transform="matrix(0.9998 2.102369e-02 -2.102369e-02 0.9998 1.1203 -0.7929)" class="st8" cx="38.3" cy="52.9" rx="3.2" ry="3.4"/>
			<g id="XMLID_60_">
				<path class="st9" d="M37.5,52.4c-0.3,0-0.3,0.4-0.4,0.6l0,0l0,0c0,0,0,0.1,0,0.1c0,0.1,0,0.2,0,0.3c0,0,0,0.1,0,0.1
					c-0.1,0-0.2-0.1-0.2-0.2c-0.1-0.2-0.1-0.4-0.1-0.5c0-0.2,0-0.4-0.1-0.6c0-0.1,0-0.2,0-0.3c0,0,0-0.1,0-0.1c0,0,0-0.1,0-0.1
					c0-0.2-0.2,0-0.2,0.1c-0.2,0.4-0.2,0.9-0.2,1.3c0,0.1,0,0.2,0,0.4c0,0.1,0,0.2-0.1,0.3c0,0-0.1,0-0.1,0c-0.1,0-0.1-0.1-0.1-0.2
					c0-0.1-0.1,0-0.1,0c0,0-0.1,0.1-0.1,0.2c0,0.2,0.1,0.3,0.3,0.2c0.2-0.1,0.3-0.4,0.4-0.6c0-0.1,0-0.2,0.1-0.3
					c0,0.2,0.1,0.3,0.1,0.5c0.1,0.1,0.1,0.2,0.3,0.2c0.1,0,0.2-0.1,0.2-0.3c0,0.1,0.1,0.2,0.2,0.2c0.1,0,0.2-0.2,0.3-0.3
					c0.1-0.1,0.1-0.3,0.1-0.4C37.8,52.8,37.8,52.4,37.5,52.4z M37.5,53.4C37.5,53.4,37.5,53.4,37.5,53.4c-0.1,0.1-0.1,0-0.1,0
					c0-0.1-0.1-0.2-0.1-0.3c0-0.1,0-0.2,0-0.3c0,0,0-0.1,0-0.1c0.1,0.1,0.2,0.3,0.2,0.4C37.6,53.2,37.6,53.3,37.5,53.4z"/>
				<path class="st9" d="M40.7,52.9c-0.3-0.1-0.5,0.3-0.5,0.5c-0.1,0.2-0.1,0.6,0.1,0.7c0.1,0.1,0.3,0,0.3-0.1
					c0.1-0.1,0.1-0.2,0.2-0.4C40.8,53.4,40.9,53,40.7,52.9z M40.5,53.8C40.4,53.9,40.4,53.9,40.5,53.8c-0.1,0-0.1-0.1-0.1-0.1
					c0-0.1,0-0.2,0-0.3c0-0.1,0.1-0.2,0.1-0.3c0,0,0,0,0-0.1c0.1,0.1,0.1,0.3,0,0.5C40.5,53.6,40.5,53.7,40.5,53.8z"/>
				<path class="st9" d="M39.9,52.9c0.1-0.1,0.1-0.2,0.2-0.2c0.1-0.2,0.2-0.4,0.2-0.6c0-0.2-0.3-0.2-0.4-0.2
					c-0.2,0.1-0.3,0.3-0.4,0.5c-0.1,0.3-0.1,0.5-0.1,0.8l0,0c-0.1,0.1-0.3,0.4-0.4,0.2c0,0-0.1-0.1-0.1-0.1c0.1-0.1,0.2-0.3,0.3-0.4
					c0.1-0.1,0.1-0.4,0-0.5c-0.1-0.1-0.3,0-0.4,0.1c-0.1,0.1-0.1,0.3-0.2,0.4c0,0.1,0,0.2,0,0.4c-0.1,0.1-0.2,0.1-0.3,0.1
					c-0.1,0-0.1-0.2-0.2-0.2c0-0.1,0-0.3,0-0.4c0,0,0-0.1,0-0.1c0,0,0,0,0,0c0.1,0,0.1,0.1,0.1,0.2c0,0.1,0.3-0.1,0.2-0.2
					c0-0.1-0.1-0.2-0.2-0.3c-0.1-0.1-0.2,0-0.3,0.1c-0.2,0.2-0.2,0.5-0.2,0.7c0,0.2,0,0.4,0.2,0.4c0.2,0.1,0.4,0,0.6-0.1
					c0,0.1,0.1,0.2,0.3,0.2c0.2,0,0.3-0.1,0.5-0.2c0,0.1,0,0.3,0.1,0.4c0.1,0.1,0.3,0,0.4-0.1c0.1-0.2,0.2-0.4,0.1-0.6
					C40,52.9,40,52.9,39.9,52.9z M38.9,52.8c0,0,0-0.1,0-0.1l0,0c0.1,0,0.1,0.1,0.1,0.2c0,0.1-0.1,0.2-0.2,0.3c0,0,0,0,0-0.1
					C38.9,53,38.9,52.9,38.9,52.8z M39.9,52.2c0,0,0-0.1,0.1-0.1c0,0,0,0,0,0c0.1,0.1,0,0.3-0.1,0.4c-0.1,0.1-0.1,0.2-0.2,0.4
					c0-0.1,0-0.2,0.1-0.3C39.8,52.4,39.8,52.3,39.9,52.2z M39.8,53.6C39.8,53.6,39.7,53.6,39.8,53.6C39.7,53.7,39.7,53.7,39.8,53.6
					c-0.1,0-0.1-0.2-0.1-0.2c0-0.1,0-0.1,0-0.2c0,0,0.1-0.1,0.1-0.1c0.1,0,0.1,0,0.1,0.1C39.9,53.3,39.8,53.5,39.8,53.6z"/>
			</g>
		</g>
		<g id="XMLID_61_">
			<g id="XMLID_62_">
				<g id="XMLID_63_">
					<path class="st9" d="M33.3,56.6C33.3,56.6,33.3,56.6,33.3,56.6C33.3,56.6,33.3,56.6,33.3,56.6c-0.4,0-0.5,0.5-0.5,0.7
						c0,0.2,0,0.7,0.3,0.7c0.1,0,0.3-0.1,0.3-0.2c0.1-0.1,0.1-0.3,0.1-0.4C33.6,57.1,33.6,56.6,33.3,56.6z M33.3,57.6
						C33.3,57.7,33.3,57.7,33.3,57.6C33.3,57.7,33.3,57.7,33.3,57.6C33.3,57.7,33.3,57.7,33.3,57.6c-0.2,0.1-0.2-0.3-0.2-0.4
						c0-0.1,0-0.2,0-0.3c0,0,0-0.1,0-0.1c0.2,0,0.2,0.4,0.2,0.5C33.4,57.4,33.3,57.5,33.3,57.6z"/>
					<path class="st9" d="M32.6,56.6c-0.1-0.1-0.2,0-0.3,0.1c0-0.1,0-0.2,0-0.2c0-0.1-0.1,0-0.2,0c0,0-0.1,0.1-0.1,0.1c0,0,0,0,0,0
						c0,0.1,0,0.1-0.1,0.2c0,0,0,0,0,0c-0.1,0-0.2,0-0.2,0c0,0,0,0,0,0c0,0-0.1,0-0.1,0c0,0,0,0,0,0c0,0,0,0,0,0
						c-0.3,0.1-0.4,0.5-0.3,0.8c0,0.2,0.1,0.7,0.4,0.6c0.1,0,0.3-0.2,0.3-0.3c0.1-0.1,0.1-0.3,0.1-0.5c0-0.1,0-0.2-0.1-0.3
						c0,0,0.1-0.1,0.1-0.1c0.1,0.3,0.1,0.7,0.1,1c0,0.3,0,0.6,0,0.9c0,0.1,0.1,0,0.1,0c0.1,0,0.1-0.1,0.1-0.2c0-0.2,0-0.4,0-0.6
						c0.1,0,0.2-0.1,0.2-0.1c0.2-0.2,0.2-0.5,0.2-0.7C32.8,57,32.7,56.7,32.6,56.6z M31.7,57.7C31.7,57.7,31.7,57.8,31.7,57.7
						c0,0.1,0,0.1,0,0.1c0,0,0,0,0,0c-0.2,0-0.2-0.3-0.3-0.4c0-0.1,0-0.2,0-0.3c0,0,0-0.1,0-0.1c0,0,0,0,0,0c0,0,0,0,0,0
						c0,0,0,0,0,0c0.1,0.1,0.1,0.3,0.2,0.4C31.7,57.5,31.7,57.6,31.7,57.7z M32.3,56.8C32.3,56.8,32.3,56.8,32.3,56.8L32.3,56.8z
						 M32.5,57.7C32.5,57.7,32.5,57.7,32.5,57.7L32.5,57.7z M32.5,57.7C32.5,57.7,32.5,57.7,32.5,57.7
						C32.5,57.7,32.5,57.7,32.5,57.7c-0.1,0-0.2-0.1-0.2-0.1c0,0,0,0,0,0c0-0.2,0-0.4,0-0.5c0,0,0,0,0,0c0-0.1,0-0.1,0-0.2
						c0,0,0,0,0,0c0,0,0,0,0,0c0,0,0.1,0,0.1,0.1c0.1,0.1,0.1,0.3,0.1,0.4C32.6,57.4,32.6,57.6,32.5,57.7z"/>
					<path class="st9" d="M30.7,57.1c0-0.1,0.1-0.2,0.1-0.4c0-0.2,0.1-0.5,0-0.6c-0.1-0.2-0.3,0-0.4,0.1c-0.1,0.2-0.1,0.5-0.1,0.7
						c0,0.3,0.1,0.5,0.1,0.8c0,0.1-0.1,0.2-0.1,0.4c0,0,0,0,0,0c0,0,0,0,0,0c0,0,0-0.1-0.1-0.1c-0.1-0.4-0.2-0.8-0.3-1.2
						c-0.1-0.1-0.2-0.3-0.3-0.2c-0.1,0.1-0.2,0.2-0.2,0.3c-0.1-0.1-0.2-0.2-0.4-0.1c-0.1,0-0.1,0.1-0.2,0.2c0-0.1,0-0.1-0.1-0.2
						c-0.1-0.1-0.3,0.2-0.2,0.3c0.1,0,0.1,0.1,0.1,0.2c0.1,0.1,0.1,0.3,0.1,0.4c0,0.1,0,0.1,0.1,0.2c0.1,0.3,0.2,0.6,0.3,0.9
						c0,0,0,0,0,0c0.1,0,0.2-0.2,0.1-0.3c-0.1-0.3-0.2-0.5-0.2-0.8c0-0.1-0.1-0.2-0.1-0.3c0-0.1,0-0.2,0-0.4c0,0,0,0,0-0.1
						c0.2-0.1,0.3,0.3,0.3,0.4c0.1,0.1,0.1,0.3,0.1,0.4c0.1,0.2,0.1,0.5,0.2,0.7c0,0,0,0,0,0c0.1,0,0.2-0.2,0.1-0.2
						c-0.1-0.2-0.1-0.5-0.2-0.7c0-0.1,0-0.1,0-0.2c0-0.2-0.1-0.4-0.1-0.6c0,0,0,0,0,0c0,0,0.1,0.1,0.1,0.1c0.1,0.2,0.2,0.5,0.3,0.7
						c0,0.2,0.1,0.3,0.1,0.5c0,0.1,0.1,0.2,0.1,0.3c0.1,0.1,0.2,0,0.2-0.1c0.1-0.1,0.1-0.2,0.1-0.3c0.1,0.1,0.1,0.3,0.3,0.3
						c0.2,0,0.3-0.3,0.3-0.4c0-0.2,0-0.6-0.2-0.7C30.9,57.1,30.8,57.1,30.7,57.1z M30.5,56.9c0-0.2,0-0.4,0-0.5c0,0,0,0,0,0
						c0.1,0,0.1,0.1,0.1,0.1c0,0.2,0,0.4,0,0.6c0,0.1,0,0.1,0,0.2C30.5,57.1,30.5,57,30.5,56.9z M30.9,57.7c0,0.1,0,0.2,0,0.3
						c0,0,0,0,0,0c0,0,0,0,0,0c0,0-0.1-0.1-0.1-0.1c0-0.1-0.1-0.2-0.1-0.3c0,0,0-0.1,0-0.1c0,0,0.1,0,0.1,0
						C30.8,57.5,30.9,57.6,30.9,57.7z"/>
					<path class="st9" d="M37.5,58.8c0,0-0.1,0-0.1,0c0,0,0,0,0,0c0,0,0,0,0,0c0,0,0-0.1,0-0.1c0-0.1,0.1-0.2,0.1-0.4c0,0,0,0,0,0
						c0-0.1,0.1-0.2,0.1-0.3c0,0,0,0,0,0c0,0,0,0,0,0c0-0.1,0.1-0.1,0.1-0.2c0-0.1-0.1-0.1-0.1-0.1c0,0,0,0,0,0
						c-0.1-0.1-0.1-0.1-0.2-0.1c-0.3,0-0.5,0.3-0.5,0.5c0,0.1,0,0.3,0.2,0.3c0,0,0,0,0.1,0c0,0.1-0.1,0.1-0.1,0.1
						c-0.1,0-0.1-0.1-0.1-0.1c0,0,0-0.1-0.1-0.1c0,0,0,0,0,0c-0.1,0-0.1,0-0.2,0.1c0,0,0,0,0,0c0-0.1,0-0.1,0-0.2
						c0-0.2,0.1-0.5,0.2-0.7c0,0,0,0,0,0c0-0.1-0.1-0.3-0.2-0.3c-0.2,0-0.3,0.1-0.4,0.2c-0.1,0.1-0.2,0.3-0.3,0.5l0,0
						c0,0.1-0.1,0.2-0.1,0.2c0,0,0,0,0,0c0,0,0,0,0,0c0-0.1,0-0.2,0-0.3c0-0.2,0.1-0.4,0.2-0.6c0,0,0.1-0.1,0.1-0.1
						c0-0.1,0-0.1-0.1-0.1c-0.1,0-0.1,0-0.2,0.1c0,0-0.1,0.1-0.1,0.2c0,0.1-0.1,0.1-0.1,0.2c0,0-0.1,0.1-0.1,0.1c0,0,0,0,0,0
						c0-0.2,0.1-0.4,0.1-0.6c0,0,0,0,0-0.1c0,0,0,0,0,0c0,0,0,0,0,0c0,0,0,0,0,0c0,0,0,0,0,0l0,0c0,0,0,0-0.1,0
						c-0.1,0-0.1,0-0.1,0.1c0,0,0,0,0,0c-0.1,0.3-0.2,0.6-0.4,0.8c0,0,0,0,0,0c0,0,0,0,0,0l0,0c0,0,0,0,0,0c-0.1,0-0.1-0.1-0.1-0.1
						c0-0.2,0-0.4,0-0.6c0,0,0-0.1,0-0.1c0,0,0-0.1,0-0.1c0,0,0,0,0,0c0,0,0,0,0,0c0,0,0.1,0.1,0.1,0.1c0,0.1,0.3-0.1,0.3-0.2
						c-0.1-0.2-0.2-0.2-0.4-0.1c-0.1,0.1-0.2,0.1-0.2,0.2c0,0,0,0,0,0c0,0,0,0,0,0c0,0,0,0,0,0.1c0,0,0,0,0,0c0,0,0,0.1-0.1,0.1
						c0-0.2,0.1-0.4,0.1-0.5c0-0.1-0.2,0-0.3,0.1c0,0.1-0.1,0.2-0.1,0.2c0-0.1,0-0.2,0-0.2c-0.1-0.2-0.3-0.2-0.4-0.1
						c0,0-0.1,0.1-0.1,0.2c0,0,0.1,0,0.1,0c0,0,0,0,0,0c0,0,0,0,0,0c0,0,0,0.1,0.1,0.1c0,0.1,0,0.2,0,0.4c0,0.1,0,0.2-0.1,0.3
						c0,0,0,0,0,0c0,0,0,0,0,0c0,0-0.1-0.1-0.1-0.1c0-0.1-0.3,0.1-0.2,0.2c0.1,0.2,0.3,0.1,0.4-0.1c0-0.1,0.1-0.1,0.1-0.2
						c0-0.1,0.1-0.1,0.1-0.2c0,0.2-0.1,0.4-0.1,0.6c0,0.1,0.1,0.1,0.1,0c0.1,0,0.1-0.1,0.1-0.2c0-0.1,0-0.1,0.1-0.2
						c0,0.1,0,0.1,0,0.2c0,0.1,0.1,0.2,0.1,0.2c0.1,0.1,0.3,0,0.4-0.1c0.1-0.1,0.1-0.1,0.2-0.2c0,0.1,0,0.2-0.1,0.4
						c0,0.1,0.1,0.1,0.1,0.1c0.1,0,0.1-0.1,0.2-0.1c0-0.1,0.1-0.2,0.1-0.3c0-0.1,0.1-0.1,0.1-0.1c0,0,0,0,0,0c0,0.2-0.1,0.3-0.1,0.5
						c0,0.2,0.1,0.2,0.2,0.2c0.1,0,0.1,0,0.2-0.1c0,0.1,0,0.1,0.1,0.2c0.1,0.1,0.2,0,0.3,0c0,0,0,0,0,0c0,0,0,0,0,0.1
						c0,0.2,0.1,0.2,0.2,0.1c0.1,0.1,0.3,0.2,0.4,0.1c0,0,0.1,0,0.1,0c0,0,0,0.1,0,0.1c0,0.2,0.2,0.2,0.3,0.2
						C37.5,58.9,37.6,58.9,37.5,58.8z M36.2,58.3C36.2,58.3,36.2,58.3,36.2,58.3c-0.1-0.1-0.1-0.1-0.1-0.2c0-0.1,0-0.1,0-0.2
						c0,0,0,0,0,0c0,0,0,0,0,0c0-0.1,0.1-0.2,0.1-0.3c0,0,0.1-0.1,0.1-0.1c0,0,0,0,0,0c0,0,0,0,0,0c0.1,0,0.1,0.1,0.1,0.1
						C36.5,57.8,36.4,58,36.2,58.3C36.3,58.2,36.3,58.3,36.2,58.3z M36.6,58.5L36.6,58.5L36.6,58.5L36.6,58.5z M37.1,58
						c0-0.1,0.1-0.3,0.2-0.3c0,0,0,0,0,0c0,0,0,0.1,0,0.1c0,0.1-0.1,0.2-0.1,0.3C37.1,58.2,37.1,58.1,37.1,58z M37.4,58.8
						C37.4,58.8,37.4,58.8,37.4,58.8L37.4,58.8z"/>
				</g>
			</g>
			<g id="XMLID_64_">
				<path class="st9" d="M37.3,60.6c-0.1,0.1-0.1,0.2-0.2,0.2c0,0,0,0,0,0c0,0,0-0.2,0-0.2c0-0.2,0.1-0.3,0.1-0.4c0,0,0-0.1,0-0.1
					c0-0.1,0-0.1,0.1-0.1c0,0,0,0,0,0c0-0.1,0-0.3-0.2-0.3c-0.1,0-0.3,0-0.4,0.1c-0.1,0.1-0.2,0.3-0.3,0.5c0,0,0,0,0,0
					c0,0.1-0.1,0.1-0.1,0.2c0,0,0,0,0,0c-0.1,0,0-0.1,0-0.2c0-0.1,0-0.2,0-0.3c0-0.1-0.1-0.1-0.2-0.1c0,0,0,0,0,0c0,0,0,0,0,0
					c0-0.1,0.1-0.2,0.2-0.2c0,0,0,0,0,0c0,0,0,0,0,0c0,0,0.1,0.1,0.1,0.1c0.1,0.1,0.3,0,0.3-0.1c-0.1-0.1-0.2-0.1-0.3-0.1
					c-0.1,0-0.1,0-0.2,0.1c0,0,0,0,0,0c0-0.1,0-0.3,0-0.4c0-0.1-0.3,0-0.3,0.1c0,0.2,0,0.4-0.1,0.6c0,0,0,0,0,0
					c-0.1,0.2-0.2,0.3-0.3,0.4c0,0,0,0-0.1,0c0,0,0,0,0,0c0,0,0,0,0,0c0,0,0-0.1,0-0.1c0-0.2,0-0.3,0.1-0.5c0-0.1,0-0.2,0.1-0.3
					c0,0,0-0.1,0.1-0.1c0-0.1,0-0.1-0.1-0.1c-0.1,0-0.1,0.1-0.2,0.1c0,0.1-0.1,0.1-0.1,0.2c0,0.1-0.1,0.1-0.1,0.2
					c0,0-0.1,0.1-0.1,0.1c0,0,0,0,0,0c0-0.2,0-0.4,0.1-0.6c0-0.1-0.3,0-0.3,0.1c0,0.1,0,0.2,0,0.3c0,0,0,0,0,0
					c0,0.2-0.1,0.4-0.2,0.6c0,0,0,0,0,0c-0.1,0-0.1-0.1-0.1-0.2c0-0.2,0-0.3,0-0.5c0,0,0-0.1,0-0.1c0-0.1,0-0.1,0-0.2c0,0,0,0,0,0
					c0-0.1-0.1-0.2-0.3-0.2c-0.2,0-0.3,0.1-0.3,0.2c-0.1,0.2-0.1,0.3-0.2,0.5c0,0,0,0,0,0c0,0.1,0,0.1-0.1,0.2c0,0,0,0,0,0
					c-0.1,0-0.1-0.1-0.1-0.2c0-0.1,0-0.2-0.1-0.3c0-0.1-0.1-0.1-0.2,0c0,0,0,0,0,0c0,0,0,0,0-0.1c0-0.1,0.1-0.2,0.1-0.2l0,0
					c0,0,0,0,0,0c0,0,0.1,0,0.1,0c0.1,0.1,0.3-0.1,0.2-0.2c-0.1-0.1-0.2-0.1-0.3,0c-0.1,0-0.1,0.1-0.2,0.1c0,0,0,0,0,0
					c0-0.1,0-0.3-0.1-0.4c0-0.1-0.3,0.1-0.2,0.2c0,0.1,0,0.2,0.1,0.4c0,0.2-0.1,0.3-0.2,0.5c-0.1,0.1-0.1,0.2-0.2,0.2
					c-0.1,0.1-0.2,0.1-0.3-0.1c0,0,0,0,0,0c0.1-0.2,0.3-0.4,0.3-0.7c0-0.1-0.1-0.3-0.2-0.3c-0.2,0-0.3,0.2-0.3,0.3
					c-0.1,0.2-0.1,0.3,0,0.5c0,0.1,0,0.1,0,0.2c0,0,0,0-0.1,0.1c0,0-0.1,0.1-0.1,0.1c0,0,0,0-0.1,0c-0.1-0.1-0.1-0.3-0.1-0.4
					c0-0.1,0-0.3-0.1-0.4c0-0.1-0.1-0.2-0.2-0.2c-0.1,0-0.2,0.2-0.3,0.3c0,0,0,0,0,0c0-0.1,0-0.1-0.1-0.2c0-0.1-0.2,0.1-0.2,0.2
					c0.1,0.1,0.1,0.3,0.1,0.4l0,0c0,0,0,0,0,0s0,0,0,0c0,0.1,0,0.1,0,0.2c0,0.1-0.1,0.2-0.1,0.3c0,0,0,0,0,0c0,0,0,0,0,0
					c0-0.1-0.1-0.1-0.1-0.2c-0.1-0.2-0.1-0.4-0.1-0.6c0,0,0,0,0,0c0-0.1-0.2-0.2-0.3-0.1c-0.1,0.1-0.2,0.2-0.2,0.4
					c-0.1,0.2,0,0.4,0,0.7c-0.1,0.1-0.1,0.2-0.2,0.2c0,0-0.1-0.1-0.2-0.1c0-0.2,0-0.5-0.1-0.7c-0.1-0.1-0.2-0.3-0.3-0.2
					c-0.1,0-0.2,0.2-0.2,0.3c-0.1,0.1-0.1,0.3,0,0.4c0,0.1,0.2-0.1,0.2-0.2c0,0,0-0.1,0-0.1c0,0,0,0,0,0c0,0,0,0,0,0c0,0,0,0,0,0
					c0.1,0,0.1,0.1,0.2,0.2c0,0.1,0.1,0.2,0.1,0.3c0,0,0,0.1,0,0.1c0,0,0,0-0.1,0.1c0,0,0,0,0,0.1c0,0-0.1,0.1,0,0.2c0,0,0,0,0,0
					c0,0,0,0,0,0c0,0,0.1-0.1,0.1-0.1c0.1,0,0.1,0,0.1,0.1c-0.1,0.2-0.2,0.3-0.2,0.5c0,0.2,0,0.4,0.1,0.5c0.1,0.1,0.2,0,0.3-0.1
					c0.2-0.2,0.2-0.6,0.1-0.8c0-0.1,0-0.2-0.1-0.3c0-0.1,0.1-0.1,0.1-0.2c0,0.1,0.1,0.2,0.2,0.2c0.1,0,0.2-0.1,0.3-0.2c0,0,0,0,0,0
					c0,0.1,0.1,0.2,0.2,0.1c0.1-0.1,0.2-0.2,0.2-0.3c0,0.1,0,0.1,0,0.2c0,0.1,0.2-0.1,0.2-0.2c0-0.2,0-0.4,0-0.6c0-0.1,0-0.1,0-0.2
					c0,0,0-0.1,0-0.1c0,0,0,0,0,0c0,0,0,0,0,0c0,0,0.1,0.1,0.1,0.1c0,0.1,0.1,0.3,0.1,0.4c0,0.1,0,0.6,0.3,0.5
					c0.1,0,0.2-0.1,0.3-0.2c0,0,0,0.1,0.1,0.1c0.1,0.2,0.3,0,0.5-0.1c0.1-0.1,0.3-0.3,0.4-0.4c0,0.2,0,0.3,0,0.5
					c0,0.1,0.1,0.1,0.1,0c0.1,0,0.1-0.1,0.1-0.2c0-0.1,0-0.2,0-0.4c0.1,0,0.1,0.4,0.2,0.5c0.1,0.1,0.2,0,0.3-0.1c0,0,0.1,0,0.1-0.1
					c0,0.1,0,0.1,0.1,0.2c0.1,0.1,0.2,0,0.3-0.1c0,0,0,0,0,0c0,0.1,0,0.1,0.1,0.2c0.1,0,0.2,0,0.3-0.1c0,0,0.1-0.1,0.1-0.1
					c0,0.1,0,0.1,0,0.2c0,0.1,0.1,0.1,0.1,0.1c0.1,0,0.1-0.1,0.2-0.1c0-0.1,0.1-0.2,0.1-0.3c0-0.1,0.1-0.1,0.1-0.1c0,0,0,0,0,0
					c0,0,0,0,0,0.1c0,0.2-0.1,0.4,0,0.5c0.1,0.1,0.3,0,0.4,0c0.1,0,0.1-0.1,0.2-0.1c0,0.1,0,0.2-0.1,0.2c0,0.1,0.1,0.1,0.1,0.1
					c0.1,0,0.1-0.1,0.1-0.1c0-0.1,0.1-0.2,0.1-0.3c0.1,0.1,0,0.4,0,0.5c0.1,0.1,0.2,0.1,0.3,0c0,0,0.1,0,0.1,0c0,0.1,0,0.1,0.1,0.2
					c0.1,0.1,0.2,0.1,0.3,0c0,0,0,0,0,0c0,0.1,0,0.2,0.1,0.2c0.1,0.1,0.2,0,0.3,0c0.1,0,0.2-0.1,0.3-0.2
					C37.4,60.7,37.3,60.6,37.3,60.6z M29.8,61.7C29.8,61.7,29.8,61.7,29.8,61.7C29.8,61.7,29.8,61.7,29.8,61.7c0,0-0.1,0-0.1,0
					c-0.1-0.1-0.1-0.3-0.1-0.4c0-0.1,0.1-0.2,0.1-0.3c0,0,0,0,0,0.1c0,0.1,0.1,0.2,0.1,0.3C29.9,61.5,29.9,61.6,29.8,61.7z
					 M30.4,60.4C30.4,60.4,30.3,60.4,30.4,60.4c-0.1,0-0.1-0.1-0.1-0.1c-0.1-0.1-0.1-0.3-0.1-0.5c0-0.1,0-0.1,0-0.2c0,0,0,0,0,0
					c0,0,0,0,0,0c0.1,0,0.1,0,0.1,0.1C30.3,59.9,30.4,60.1,30.4,60.4C30.4,60.4,30.4,60.4,30.4,60.4z M32.2,59.7c0-0.1,0-0.2,0-0.4
					c0-0.1,0-0.1,0-0.2c0,0,0,0,0,0c0,0,0,0,0,0c0,0,0.1,0.1,0.1,0.1C32.3,59.5,32.2,59.6,32.2,59.7z M34,60C34,60,34,60,34,60
					C34,60,34,60,34,60c-0.1,0-0.1-0.1-0.1-0.1c0-0.2,0-0.4,0-0.5c0,0,0.1-0.1,0.1-0.2c0,0,0,0,0,0c0,0,0,0,0,0
					c0.1,0,0.1,0.1,0.1,0.1C34.1,59.5,34.1,59.8,34,60z M37,60c-0.1,0.2-0.2,0.4-0.3,0.6c0,0,0,0,0,0c0,0,0,0,0,0c0,0,0-0.1,0-0.2
					c0-0.2,0.1-0.4,0.2-0.5c0,0,0.1-0.1,0.1-0.1c0,0,0,0,0,0c0,0,0,0,0,0C37,59.9,37,60,37,60z"/>
				<polygon class="st9" points="29.8,61.7 29.8,61.7 29.8,61.7 				"/>
				<path class="st9" d="M29.8,61.7C29.8,61.7,29.8,61.7,29.8,61.7L29.8,61.7z"/>
				<path class="st9" d="M32.2,59.2C32.2,59.2,32.2,59.2,32.2,59.2L32.2,59.2z"/>
			</g>
		</g>
		<g id="XMLID_65_">
			<path class="st10" d="M26.2,55.7C26.2,55.7,26.2,55.6,26.2,55.7c-0.2-0.1-0.3,0-0.4,0c-0.3,0-0.4,0-0.7-0.1
				c0-0.3,0.2-0.5,0.3-0.7c0.1-0.2,0-0.5,0-0.7c0-0.1,0-0.3,0-0.4c-0.1,0.1-0.1,0.4-0.1,0.5c0-0.2,0-0.4-0.1-0.6c0,0.2,0,0.4,0,0.6
				c0-0.2-0.1-0.4-0.1-0.5c-0.1,0.2,0,0.4,0,0.6c-0.1-0.1-0.1-0.3-0.2-0.5c0,0.2,0.1,0.4,0,0.5c-0.1-0.1-0.1-0.3-0.2-0.3
				c0,0.1,0.1,0.3,0.1,0.4c-0.1,0-0.1-0.1-0.2-0.2c0,0.1,0.1,0.2,0.1,0.2c-0.1,0-0.1-0.1-0.1-0.1c0,0.1,0.1,0.1,0.1,0.2
				c0,0-0.1-0.1-0.1-0.1c0,0.1,0.1,0.1,0.1,0.2c0,0-0.1,0-0.1,0c0,0,0.1,0,0,0.1c0,0,0,0-0.1,0c0,0,0,0,0,0.1c0,0,0,0,0,0
				c0,0,0,0,0,0.1c-0.2,0.3-0.1,0.5-0.2,0.9c0,0-0.2-0.1-0.4-0.2c-0.1,0-0.1-0.2-0.2-0.2c0,0,0,0,0,0c0,0-0.1,0-0.1-0.1
				c0,0,0.1,0,0.1,0c0,0-0.2-0.1-0.1-0.1c0.1,0,0.1,0,0.2,0c-0.1,0-0.2-0.1-0.2-0.2c0.1,0,0.1,0.1,0.2,0.1c-0.1-0.1-0.2-0.1-0.3-0.2
				c0.1,0,0.2,0.1,0.2,0.1c-0.1,0-0.2-0.2-0.3-0.2c0.1,0.1,0.2,0.2,0.3,0.3c-0.1-0.1-0.2-0.1-0.3-0.2c0,0.1,0.2,0.2,0.2,0.2
				c-0.1,0-0.1-0.1-0.2-0.1c0,0.1,0.2,0.1,0.2,0.2c0,0-0.1,0-0.1,0c0,0.1,0.1,0.1,0.1,0.1c-0.1,0-0.1,0-0.1,0c0,0,0.1,0,0.1,0.1
				c0,0-0.1,0-0.1,0c0,0,0.1,0,0.1,0c0,0,0,0,0,0c0,0,0,0,0.1,0c0,0,0,0,0,0c0.1,0.1,0.2,0.3,0.4,0.4c-0.1,0.1,0.1,0.1-1,0.5
				c0,0,0.5-0.1,0.6-0.2c0.1,0,0.3-0.1,0.4-0.1c0,0,0.1,0,0.1,0c0.2,0,0.4,0,0.7-0.1c-0.2,0-0.5,0.1-0.6-0.1c0.2-0.2,0.1-0.9,0.2-1
				c0.1-0.1,0.3-0.5,0.5-0.2c0,0.1,0,0.1,0,0.3c-0.1,0.2-0.2,0.3-0.2,0.7c0,0.1,0,0.2-0.1,0.2c0.5,0.1,0.6,0.1,0.9,0
				c0.1,0,0.2-0.1,0.2,0c0,0-0.1,0-0.2,0c-0.1,0,0.1,0.1,0.1,0.1c0,0,0.3,0,0.4-0.1C26.4,55.7,26.3,55.7,26.2,55.7z"/>
			<path class="st10" d="M24.9,53c-1.1,0-2,0.9-2.1,2.1c0,1.2,0.9,2.2,2,2.2c1.1,0,2-0.9,2.1-2.1C26.8,54,26,53,24.9,53 M24.8,53.1
				c1.1,0,1.9,1,1.9,2.1c0,1.1-0.9,2.1-2,2c-1.1,0-1.9-1-1.9-2.1C22.9,54,23.8,53.1,24.8,53.1"/>
		</g>
		<g id="XMLID_66_">
			<g id="XMLID_67_">
				<g id="XMLID_68_">
					<path class="st9" d="M31.6,63c-0.1,0.2,0.2,0.3,0.4,0.2c0.1-0.1,0.1-0.2,0.2-0.3c0-0.1,0.1-0.2,0.2-0.3c-0.1,0-0.1,0-0.2,0
						C32,62.8,32,63.1,32,63.3c0,0.1,0.2,0,0.2,0c0.1-0.2,0.2-0.4,0.3-0.6c-0.1,0-0.1,0-0.2,0c-0.1,0.2-0.2,0.4-0.1,0.6
						c0.1,0.3,0.5,0,0.6-0.1c0.1-0.1-0.1-0.1-0.2,0c-0.2,0.2-0.2-0.1-0.2-0.2c0-0.1,0-0.3,0.1-0.4c0.1-0.1-0.1,0-0.2,0
						c-0.2,0.2-0.3,0.4-0.4,0.6c0.1,0,0.1,0,0.2,0c0-0.2,0-0.5,0.1-0.7c0.1-0.1-0.1,0-0.2,0c-0.1,0.1-0.1,0.2-0.2,0.3
						c0,0.1-0.1,0.1-0.1,0.2c-0.1,0.1,0,0,0,0c-0.1,0,0-0.1,0-0.2C31.8,62.9,31.6,63,31.6,63L31.6,63z"/>
				</g>
				<g id="XMLID_69_">
					<path class="st9" d="M34.4,63.2c0.1,0.2,0.4,0.1,0.4-0.1c0-0.1,0-0.2,0-0.3c0-0.1-0.1-0.2-0.1-0.3c0,0-0.1,0.1-0.1,0.1
						c0,0.2,0.2,0.4,0.3,0.6c0,0.1,0.2-0.1,0.1-0.2c-0.1-0.2-0.1-0.4-0.2-0.7c0,0-0.1,0.1-0.1,0.1c0,0.2,0.2,0.4,0.3,0.5
						c0.2,0.2,0.4-0.3,0.4-0.5c0-0.1-0.1,0-0.1,0.1c0,0.3-0.2,0.1-0.3,0c-0.1-0.1-0.2-0.2-0.2-0.3c0-0.1-0.1,0.1-0.1,0.1
						c0,0.2,0,0.5,0.1,0.7c0-0.1,0.1-0.1,0.1-0.2c-0.1-0.2-0.3-0.4-0.4-0.6c0-0.1-0.1,0-0.1,0.1c0,0.1,0,0.2,0.1,0.4
						c0,0.1,0,0.2,0,0.3c0,0.1,0,0,0,0c-0.1,0-0.1-0.1-0.1-0.1C34.5,62.9,34.4,63.1,34.4,63.2L34.4,63.2z"/>
				</g>
				<g id="XMLID_70_">
					<path class="st9" d="M34.1,62.6c-0.2,0.1-0.2,0.3-0.2,0.5c0,0.1,0.1,0.5,0.3,0.4c0.3,0,0.3-0.3,0.2-0.5
						C34.4,62.8,34.3,62.5,34.1,62.6c-0.1,0-0.1,0.2-0.1,0.2c0.1,0,0.2,0.1,0.2,0.2c0,0.1,0,0.1,0.1,0.2c0,0,0,0.1,0,0.1
						c0,0,0,0.1,0,0.1c-0.1,0.1-0.2-0.1-0.2-0.2c0-0.1,0-0.1,0-0.2c0,0,0-0.1,0-0.1c0,0,0,0,0,0C34.1,62.7,34.1,62.5,34.1,62.6z"/>
				</g>
				<g id="XMLID_71_">
					<g id="XMLID_72_">
						<path class="st9" d="M33.5,62.7c-0.2,0-0.3,0.3-0.3,0.4c0,0.1,0,0.5,0.2,0.5c0.3,0,0.3-0.3,0.3-0.4
							C33.8,63,33.7,62.7,33.5,62.7c-0.1,0-0.2,0.2-0.1,0.2c0.1,0,0.2,0.1,0.2,0.2c0,0.1,0,0.1,0,0.2c0,0,0,0.1,0,0.1
							c0,0,0,0.1,0,0.1c-0.1,0.1-0.2-0.2-0.2-0.2c0-0.1,0-0.1,0-0.2c0,0,0-0.1,0-0.1c0,0,0,0,0,0C33.5,62.8,33.6,62.7,33.5,62.7z"/>
					</g>
					<g id="XMLID_73_">
						<path class="st9" d="M33.5,62.8c0,0.3,0.1,0.6,0.1,0.9c0,0.1,0.1,0.4-0.1,0.3c-0.3,0,0.2-0.5,0.2-0.6c0.1-0.1-0.1-0.1-0.1,0
							c-0.2,0.2-0.4,0.4-0.4,0.7c0,0.1,0.2,0.1,0.4,0.1c0.2-0.1,0.3-0.3,0.3-0.5c0-0.3-0.1-0.7-0.2-1C33.7,62.6,33.5,62.7,33.5,62.8
							L33.5,62.8z"/>
					</g>
				</g>
				<g id="XMLID_74_">
					<path class="st9" d="M32.8,63.3c0.2-0.1,0.4-0.4,0.3-0.6c-0.1-0.1-0.3,0-0.4,0.1c-0.1,0.1-0.1,0.3-0.1,0.5
						c0.1,0.2,0.4,0.2,0.5,0.1c0.1-0.1,0.1-0.2,0-0.1c-0.3,0.2-0.3-0.2-0.3-0.3c0,0,0-0.1,0-0.1c0-0.1,0,0,0.1,0
						c0.1,0.1-0.2,0.4-0.2,0.4C32.6,63.4,32.7,63.4,32.8,63.3L32.8,63.3z"/>
				</g>
				<g id="XMLID_75_">
					<path class="st9" d="M32.9,62.6c0,0,0.1-0.1,0.1-0.1c0,0,0,0-0.1,0C32.9,62.4,32.9,62.5,32.9,62.6c-0.1-0.1-0.1-0.1-0.1,0
						c0,0,0,0,0,0c0,0-0.1,0.1,0,0.1C32.9,62.6,32.9,62.6,32.9,62.6L32.9,62.6z"/>
				</g>
				<g id="XMLID_76_">
					<path class="st9" d="M33.2,62.5c0,0,0-0.1,0-0.1c0,0,0,0-0.1,0c0,0-0.1,0.1-0.1,0.1c0,0,0,0,0,0c0,0,0,0.1,0,0.1
						C33.1,62.6,33.2,62.6,33.2,62.5L33.2,62.5z"/>
				</g>
				<g id="XMLID_77_">
					<path class="st9" d="M31.4,62.4c0-0.1,0-0.3-0.2-0.3c-0.2,0-0.3,0.1-0.4,0.2c-0.1,0.1-0.1,0.2,0,0.4c0.1,0.2,0.4,0.2,0.5,0.2
						c0.1,0,0.1-0.1,0-0.1c-0.1,0-0.2,0-0.3-0.1c-0.1-0.1,0-0.2,0-0.2c0-0.1,0.1-0.1,0.2-0.2c0,0,0,0,0.1,0c0,0,0.1,0,0,0
						c0,0,0,0.1,0,0.1C31.2,62.4,31.4,62.4,31.4,62.4L31.4,62.4z"/>
				</g>
			</g>
		</g>
		<g id="XMLID_78_">
			<g id="XMLID_79_">
				<g id="XMLID_80_">
					<path class="st4" d="M27.6,61.8c0,0,0.1,0.1,0.1,0.1c0,0.1-0.1,0.1-0.2,0.1c-0.1,0-0.2,0-0.3,0c-0.1,0-0.2,0.1-0.2,0.2
						c0,0.3,0.4,0.4,0.6,0.4c0,0,0,0,0-0.1c0,0-0.1,0-0.1,0c-0.1,0-0.3,0-0.3-0.2c-0.1-0.2,0.3-0.1,0.4-0.1c0.1,0,0.2,0,0.2-0.2
						C27.9,61.9,27.8,61.8,27.6,61.8C27.6,61.7,27.5,61.8,27.6,61.8L27.6,61.8z"/>
				</g>
				<g id="XMLID_81_">
					<path class="st4" d="M27.9,63.2c0.2,0,0.6,0,0.6-0.3c0-0.2-0.3-0.1-0.4,0c-0.1,0.1-0.3,0.2-0.3,0.4c0,0.1,0.1,0.1,0.1,0.2
						c0.1,0.1,0.3,0.1,0.4,0.1c0.1,0,0-0.1-0.1-0.1C28.1,63.4,27.9,63.4,27.9,63.2c0,0,0.1-0.1,0.2-0.2c0,0,0.1-0.1,0.1-0.1
						c0,0,0,0,0.1,0c0,0,0,0,0,0c0.1,0.2-0.4,0.2-0.4,0.2C27.7,63,27.8,63.2,27.9,63.2L27.9,63.2z"/>
				</g>
				<g id="XMLID_82_">
					<g id="XMLID_83_">
						<path class="st4" d="M27.4,62.6c-0.1,0.1-0.1,0.3,0.1,0.4c0.2,0,0.3-0.1,0.4-0.2c0.1-0.1,0.2-0.2,0.2-0.4
							c0-0.1-0.1-0.1-0.1-0.1c-0.1,0-0.2,0-0.3,0.1c-0.1,0.1,0.1,0.1,0.2,0.1c0.1-0.1,0.1,0,0.1,0.1c0,0.1-0.1,0.1-0.1,0.2
							c-0.1,0.1-0.1,0.1-0.2,0.1c0,0-0.1,0-0.1,0c0,0,0,0,0,0c0-0.1,0-0.1,0-0.1C27.6,62.6,27.4,62.5,27.4,62.6L27.4,62.6z"/>
					</g>
					<g id="XMLID_84_">
						<path class="st4" d="M27.9,62.1c-0.3,0.3-0.7,0.6-1.1,0.8C26.8,63,27,63.1,27,63c0.4-0.2,0.8-0.5,1.1-0.9
							C28.2,62.1,28,62.1,27.9,62.1L27.9,62.1z"/>
					</g>
				</g>
				<g id="XMLID_85_">
					<g id="XMLID_86_">
						<path class="st4" d="M28.6,64c-0.1,0,0.1-0.3,0.1-0.3c0.1-0.1,0.2-0.2,0.3-0.3c0.1-0.1-0.1-0.1-0.2,0
							c-0.1,0.1-0.2,0.2-0.2,0.3c0,0-0.1,0.1-0.1,0.1c-0.1,0-0.1,0.1-0.1,0c0-0.2,0.3-0.4,0.4-0.5c0.1-0.1-0.1-0.1-0.1-0.1
							c-0.1,0.1-0.7,0.4-0.4,0.7c0.3,0.3,0.6-0.2,0.8-0.4c-0.1,0-0.1,0-0.2,0c-0.1,0.2-0.3,0.3-0.4,0.5c-0.1,0.2,0.1,0.3,0.3,0.3
							C28.7,64.1,28.7,64,28.6,64L28.6,64z"/>
					</g>
					<g id="XMLID_87_">
						<path class="st4" d="M28.6,64c-0.2,0-0.5-0.1-0.5,0.1c0,0.1,0.2,0.1,0.2,0c0-0.1,0.1-0.1,0.1-0.1c0,0,0.1,0,0.1,0c0,0,0,0,0,0
							c0,0,0,0,0,0C28.5,64.1,28.5,64.1,28.6,64C28.6,64.1,28.6,64.1,28.6,64C28.7,64.1,28.6,64,28.6,64L28.6,64z"/>
					</g>
				</g>
				<g id="XMLID_88_">
					<path class="st4" d="M33.3,65.9c0.1-0.1,0.4-0.6,0.2-0.7c-0.2-0.1-0.3,0.1-0.3,0.3c-0.1,0.2-0.1,0.4,0,0.6
						c0.1,0.2,0.5,0,0.6-0.1c0.1-0.1,0.1-0.2,0-0.1C33.7,65.9,33.5,66,33.3,65.9c0,0,0-0.2,0-0.3c0-0.1,0-0.1,0-0.2c0,0,0,0,0-0.1
						c0,0,0,0,0,0c0.2,0-0.1,0.4-0.2,0.5C33.1,66,33.3,66,33.3,65.9L33.3,65.9z"/>
				</g>
				<g id="XMLID_89_">
					<path class="st4" d="M29.9,65c-0.1,0.2,0.1,0.4,0.3,0.2c0.1-0.1,0.1-0.2,0.2-0.3c0.1-0.1,0.1-0.2,0.2-0.3c0,0-0.1,0-0.1,0
						c-0.2,0.2-0.2,0.5-0.3,0.7c0,0.1,0.2,0.1,0.2,0c0.1-0.2,0.2-0.4,0.4-0.6c0,0-0.1,0-0.1,0c-0.1,0.2-0.2,0.4-0.2,0.7
						c0,0.3,0.3,0.1,0.4,0.1c0.1-0.1,0-0.1-0.1-0.1c-0.2,0.1-0.2-0.1-0.1-0.2c0-0.1,0.1-0.3,0.2-0.4c0.1-0.1-0.1-0.1-0.1,0
						c-0.2,0.2-0.4,0.4-0.5,0.6c0.1,0,0.1,0,0.2,0c0.1-0.2,0.1-0.5,0.2-0.7c0.1-0.1-0.1-0.1-0.1,0c-0.1,0.1-0.2,0.2-0.2,0.3
						c0,0.1-0.1,0.1-0.2,0.2c-0.1,0.1,0,0,0,0c-0.1,0,0-0.1,0-0.2C30.1,64.9,29.9,64.9,29.9,65L29.9,65z"/>
				</g>
				<g id="XMLID_90_">
					<path class="st4" d="M34.8,65.1c-0.1-0.2-0.3,0-0.3,0.1c-0.1,0.2-0.1,0.4,0,0.6c0.1,0.2,0.2,0.2,0.3,0
						C35,65.6,34.9,65.3,34.8,65.1c0,0-0.1,0.1-0.1,0.1c0,0.1,0,0.3,0.1,0.4c0,0.1,0,0.2,0.1,0.2c0.1,0.1,0.3-0.2,0.3-0.3
						c0-0.1-0.1-0.1-0.1,0c0,0.1-0.1,0.1-0.1,0C34.9,65.4,34.9,65.3,34.8,65.1c0-0.1-0.1,0.1-0.1,0.1c0,0.1,0,0.3,0.1,0.4
						c0,0,0,0.1,0,0.1c0,0-0.1,0-0.1-0.1c-0.1-0.1-0.1-0.2-0.1-0.3c0-0.1,0-0.1,0-0.2c0,0,0-0.1,0-0.1c0-0.1,0.1,0,0.1,0
						C34.7,65.3,34.8,65.2,34.8,65.1L34.8,65.1z"/>
				</g>
				<g id="XMLID_91_">
					<g id="XMLID_92_">
						<path class="st4" d="M32.6,65.9c0,0.2,0.2,0.2,0.4,0.1c0.2-0.1,0.2-0.3,0.2-0.4c0-0.1,0-0.3-0.2-0.4c-0.1,0-0.2,0-0.2,0
							c-0.1,0.1-0.2,0.2-0.2,0.3c0,0.1,0.2,0,0.2-0.1c0-0.1,0.1-0.1,0.1,0c0,0.1,0,0.1,0,0.2c0,0.1,0,0.2,0,0.2c0,0,0,0.1,0,0.1
							c0,0,0,0,0,0c-0.1,0-0.1-0.1-0.1-0.1C32.8,65.8,32.6,65.9,32.6,65.9L32.6,65.9z"/>
					</g>
					<g id="XMLID_93_">
						<path class="st4" d="M32.6,65.2c0,0.5,0,1-0.1,1.4c0,0.1,0.2,0,0.2-0.1c0.1-0.5,0.1-1,0.1-1.4C32.8,65,32.6,65.1,32.6,65.2
							L32.6,65.2z"/>
					</g>
				</g>
				<g id="XMLID_94_">
					<path class="st4" d="M32.4,65.2c-0.2,0-0.3,0.2-0.3,0.4c0,0.1-0.1,0.5,0.1,0.5c0.2,0.1,0.4-0.2,0.4-0.4
						C32.6,65.5,32.6,65.2,32.4,65.2c-0.1,0-0.2,0.1-0.1,0.1c0.1,0,0.1,0.2,0.1,0.3c0,0.1,0,0.1,0,0.2c0,0,0,0.1,0,0.1
						c0,0-0.1,0.1,0,0.1c-0.1,0-0.1-0.2-0.1-0.3c0-0.1,0-0.1,0-0.2c0,0,0-0.1,0-0.1c0,0,0,0,0,0C32.3,65.3,32.5,65.2,32.4,65.2z"/>
				</g>
				<g id="XMLID_95_">
					<path class="st4" d="M31.4,65.7c-0.1,0.1-0.1-0.3-0.1-0.3c0-0.1,0.1-0.3,0.1-0.4c0-0.1-0.1,0-0.2,0c0,0.1-0.1,0.2-0.1,0.3
						c0,0.1,0,0.1-0.1,0.2c0,0.1,0,0.1-0.1,0c-0.1-0.2,0.1-0.5,0.2-0.6c0.1-0.1-0.1-0.1-0.2,0c-0.1,0.1-0.4,0.7-0.1,0.8
						c0.4,0.1,0.5-0.5,0.5-0.7c-0.1,0-0.1,0-0.2,0c-0.1,0.2-0.2,0.4-0.1,0.7C31.1,65.9,31.3,65.9,31.4,65.7
						C31.5,65.7,31.5,65.6,31.4,65.7L31.4,65.7z"/>
				</g>
				<g id="XMLID_96_">
					<path class="st4" d="M29.9,64.9c-0.2,0.1-0.1-0.2,0-0.3c0.1-0.1,0.1-0.3,0.2-0.4c0-0.1-0.1-0.1-0.2,0c-0.1,0.1-0.1,0.2-0.2,0.3
						c0,0.1-0.1,0.1-0.1,0.2c0,0.1-0.1,0.1-0.1,0c-0.1-0.2,0.2-0.5,0.3-0.6c0.1-0.1-0.1-0.1-0.2,0c-0.1,0.1-0.6,0.6-0.3,0.8
						c0.4,0.2,0.6-0.4,0.7-0.6c-0.1,0-0.1,0-0.2,0c-0.1,0.2-0.3,0.4-0.3,0.7c0,0.2,0.3,0.1,0.4,0.1C30.1,64.9,30,64.9,29.9,64.9
						L29.9,64.9z"/>
				</g>
				<g id="XMLID_97_">
					<path class="st4" d="M35,65.6c0.1,0.2,0.3,0.2,0.3-0.1c0-0.1,0-0.2,0-0.4c0-0.1-0.1-0.2,0-0.4c0,0-0.1,0.1-0.1,0.1
						c0,0.3,0.2,0.5,0.2,0.7c0,0.1,0.1-0.1,0.1-0.2c-0.1-0.2-0.1-0.5,0-0.7c0,0-0.1,0.1-0.1,0.1c0,0.2,0.1,0.5,0.2,0.7
						c0.2,0.2,0.3-0.2,0.4-0.3c0-0.1-0.1-0.1-0.1,0c-0.1,0.2-0.2,0.1-0.2-0.1c-0.1-0.1-0.1-0.3-0.1-0.4c0-0.1-0.1,0-0.1,0.1
						c0,0.3,0,0.6,0,0.8c0,0,0.1-0.1,0.1-0.2c-0.1-0.2-0.3-0.5-0.3-0.7c0-0.1-0.1,0-0.1,0.1c0,0.1,0,0.3,0,0.4c0,0.1,0,0.2,0,0.3
						c0,0.1,0,0,0,0c-0.1,0-0.1-0.1-0.1-0.1C35.1,65.4,35,65.6,35,65.6L35,65.6z"/>
				</g>
				<g id="XMLID_98_">
					<path class="st4" d="M36.5,65c-0.1,0.1-0.2-0.2-0.2-0.2c-0.1-0.1-0.1-0.3-0.2-0.4c0-0.1-0.1,0.1-0.1,0.2c0,0.1,0.1,0.2,0.1,0.3
						c0,0.1,0,0.1,0,0.2c0,0.1,0,0.1-0.1,0.1c-0.2,0-0.2-0.4-0.3-0.6c0-0.1-0.1,0.1-0.1,0.1c0,0.2,0.1,0.9,0.4,0.7
						c0.4-0.2,0.1-0.7,0-1c0,0.1-0.1,0.1-0.1,0.2c0.1,0.2,0.1,0.4,0.3,0.6c0.1,0.1,0.3,0,0.3-0.2C36.7,64.9,36.6,64.8,36.5,65
						L36.5,65z"/>
				</g>
				<g id="XMLID_99_">
					<path class="st4" d="M26.9,61.5c-0.2-0.1-0.1-0.2,0-0.3c0.1-0.1,0.3-0.2,0.5-0.2c0.1,0-0.1-0.2-0.1-0.1c-0.1,0-0.2,0.1-0.3,0.1
						c-0.1,0-0.1,0-0.2,0c-0.1,0-0.1,0-0.1-0.1c0-0.2,0.4-0.3,0.6-0.3c0.1,0-0.1-0.2-0.1-0.2c-0.1,0-0.8,0.1-0.6,0.5
						c0.2,0.4,0.7,0.1,0.9,0c0,0-0.1-0.1-0.1-0.1C27,61,26.8,61,26.6,61.2c-0.1,0.2,0.1,0.4,0.2,0.4C27,61.7,27,61.6,26.9,61.5
						L26.9,61.5z"/>
				</g>
				<g id="XMLID_100_">
					<g id="XMLID_101_">
						<path class="st4" d="M34.4,65.3c-0.1-0.2-0.2-0.3-0.3-0.1C34,65.4,34,65.6,34,65.7c0,0.1,0.1,0.3,0.2,0.3
							c0.2,0,0.4-0.3,0.4-0.4c0-0.1-0.1,0-0.1,0.1c0,0.1-0.1,0.2-0.2,0.2c-0.1,0-0.1-0.1-0.1-0.2c0-0.1,0-0.2,0-0.3c0,0,0,0,0,0
							c0-0.1,0,0,0,0c0.1,0,0.1,0.1,0.1,0.2C34.3,65.6,34.4,65.4,34.4,65.3L34.4,65.3z"/>
					</g>
					<g id="XMLID_102_">
						<path class="st4" d="M33.7,65.9c0,0.2,0.2,0.2,0.3,0.1c0.1-0.1,0.1-0.3,0.1-0.5c0-0.1-0.1-0.3-0.2-0.4c-0.1,0-0.1,0-0.2,0.1
							c-0.1,0.1-0.1,0.2-0.1,0.3c0,0.1,0.2,0,0.2-0.1c0-0.1,0-0.1,0.1,0c0,0.1,0.1,0.1,0.1,0.2c0,0.1,0,0.2,0,0.2c0,0,0,0.1,0,0.1
							c0,0,0,0,0,0c-0.1,0-0.1,0-0.1-0.1C33.8,65.7,33.7,65.9,33.7,65.9L33.7,65.9z"/>
					</g>
				</g>
				<g id="XMLID_103_">
					<path class="st4" d="M29.1,63.5c-0.1,0.3-0.3,0.5-0.5,0.7c-0.1,0.1,0.2,0.1,0.2,0.1c0.1-0.1,0.2-0.2,0.3-0.3
						c0.1-0.1,0.2-0.2,0.2-0.1c0.1,0,0.1,0,0.2,0c-0.1-0.3-0.5,0-0.7,0.1c0,0,0,0.1,0.1,0.1c0.2,0.1-0.1,0.3,0,0.4
						c0.1,0.1,0.3,0.1,0.4,0.1c0.1,0,0.1-0.1,0-0.1c-0.1,0-0.2,0-0.2-0.1c0-0.1,0.1-0.1,0.1-0.2c0-0.1-0.1-0.2-0.2-0.2
						c0,0,0,0,0.1,0.1c0.1-0.1,0.2-0.3,0.3-0.1c0,0.1,0.2,0,0.2,0c-0.2-0.5-0.8,0.2-0.9,0.3c0.1,0,0.1,0,0.2,0.1
						c0.2-0.2,0.4-0.5,0.5-0.7C29.3,63.5,29.1,63.5,29.1,63.5L29.1,63.5z"/>
				</g>
			</g>
		</g>
		<g id="XMLID_104_">
			<path class="st6" d="M39.3,61.1c0,0-0.2-0.1-0.1-0.3l0.1-0.6c0,0,0-0.2,0.2-0.3l0.6-0.3c0,0,0.2-0.1,0.3,0.1l0.5,0.4
				c0,0,0.1,0.1,0.2,0l0.5-0.2c0,0,0.2-0.1,0.4,0l0.6,0.4c0,0,0.2,0,0.2,0.3l0,0.7c0,0,0.1,0.2-0.2,0.3l-0.7,0.3
				c0,0-0.1,0.1-0.1,0.2l0,0.9c0,0,0,0.1-0.2,0.2l-0.6,0.3c0,0-0.1,0.2-0.4-0.1L40,62.9c0,0-0.2-0.2-0.1-0.4l0.1-0.8
				c0,0,0-0.1-0.1-0.2L39.3,61.1z"/>
			<path class="st11" d="M39.6,60c0,0-0.1,0-0.1,0.2l-0.1,0.5c0,0-0.1,0.1,0.1,0.3l0.5,0.4c0,0,0.1,0.1,0.3,0l0.5-0.3
				c0,0,0.1,0,0.1-0.2l0-0.6c0,0,0-0.1-0.1-0.2l-0.4-0.3c0,0-0.1-0.1-0.3,0L39.6,60z"/>
			<path class="st12" d="M40.8,60.5l-0.5-0.4c-0.1-0.1-0.1,0-0.1,0l-0.5,0.2c-0.1,0-0.1,0.1-0.1,0.1l-0.1,0.7l0.4,0.3
				c0,0,0.1,0.1,0.3,0l0.5-0.3c0,0,0.1,0,0.1-0.2L40.8,60.5z"/>
			<path class="st11" d="M41.1,60.3c0,0,0-0.1,0.1-0.2l0.6-0.3c0,0,0.1-0.1,0.1,0l0.5,0.4c0,0,0.1,0,0.1,0.2l0,0.7
				c0,0,0,0.1-0.1,0.2l-0.5,0.3c0,0-0.1,0.1-0.2,0l-0.5-0.4c0,0-0.1,0-0.1-0.2L41.1,60.3z"/>
			<path class="st12" d="M42.2,61.4l0-0.6c0-0.2-0.1-0.2-0.1-0.2l-0.4-0.3c-0.1-0.1-0.2,0-0.2,0l-0.5,0.3l0,0.4c0,0,0,0.2,0.1,0.2
				l0.5,0.4c0,0,0.1,0.1,0.2,0L42.2,61.4z"/>
			<path class="st6" d="M40.2,63.1c0,0,0.4,0.4,0.4,0.5c0,0,0.1,0.2,0,0.4c0,0-0.1,0.6,0.1,0.6c0,0,0.3,0,0.1-0.5
				c0,0-0.1-0.5,0.2-0.7c0,0,0.2-0.2,0.2,0c0,0,0,0.3,0,0.3c0,0-0.1,0.3,0.1,0.3c0,0,0.2,0,0.1-0.3c0,0-0.1-0.2,0-0.3
				c0,0,0-0.2,0.1-0.2c0,0,0.1-0.1,0.2-0.2"/>
			<path class="st11" d="M40.1,61.8c0,0,0-0.1,0.1-0.2l0.6-0.3c0,0,0.1-0.1,0.2,0l0.5,0.4c0,0,0.1,0.1,0.1,0.2l0,0.7
				c0,0,0,0.1-0.2,0.3l-0.6,0.3c0,0-0.1,0.1-0.3,0l-0.5-0.4c0,0-0.1-0.1-0.1-0.3L40.1,61.8z"/>
			<path class="st12" d="M40.3,61.8l0.5-0.3c0,0,0,0,0.1,0l0.4,0.3c0,0,0.1,0,0.1,0.1l0,0.5c0,0,0,0.1-0.1,0.2L40.8,63
				c0,0-0.1,0.1-0.2,0l-0.4-0.3c0,0-0.1,0,0-0.2l0.1-0.5C40.2,61.9,40.2,61.8,40.3,61.8z"/>
		</g>
		<g id="XMLID_105_">
			<polygon class="st13" points="38.8,62.4 38.9,61.9 38.9,61.8 39,61.7 39.2,61.6 39.4,61.5 39.6,61.4 40,61.5 40.4,61.8 
				40.7,62.3 40.8,62.9 40.7,63.2 40.5,63.2 40.5,63.4 40.3,63.4 40.2,63.4 40.1,63.6 39.6,63.5 39.2,63.3 38.9,63 			"/>
			<g id="XMLID_106_">
				<path class="st14" d="M40.6,63.2C40.6,63.2,40.6,63.3,40.6,63.2c0,0.2-0.1,0.2-0.2,0.2c0,0,0,0-0.1,0c0,0-0.1,0-0.1,0
					c-0.1,0.1-0.2,0.1-0.2,0.1c-0.4,0-0.8-0.2-1-0.5c-0.1-0.2-0.2-0.4-0.2-0.7c0-0.2,0.1-0.3,0.2-0.5c0,0,0,0,0-0.1
					c0-0.1,0-0.2,0.1-0.2c0,0,0,0,0.1,0c0.1,0,0.1,0,0.1-0.1c0.1-0.1,0.2-0.1,0.4-0.1c0.5,0,0.9,0.3,1,0.7c0.1,0.2,0.1,0.3,0.1,0.5
					c0,0,0,0,0,0c0,0.2,0,0.3,0,0.4C40.7,63.2,40.6,63.2,40.6,63.2z M39.2,62.1C39.2,62.1,39.2,62.1,39.2,62.1
					C39.1,62,39,62,38.9,62c0,0,0,0,0,0c0,0.2-0.1,0.3,0,0.5c0,0.3,0.1,0.5,0.3,0.7c0.2,0.2,0.4,0.3,0.7,0.3c0.1,0,0.2,0,0.2-0.1
					c0,0,0.1-0.1,0.1,0c0,0,0,0,0.1,0c0.1,0,0.1,0,0.1-0.1c0.1-0.1,0-0.2,0-0.3c0,0-0.1,0.1-0.1,0.1c0,0,0.1-0.1,0.1-0.1
					c0,0,0,0,0,0c0,0-0.1-0.1-0.1-0.1c-0.1-0.1-0.2-0.3-0.3-0.4c0,0-0.1-0.1-0.1-0.1c0,0,0,0,0,0c0.1,0.1,0.1,0.1,0.2,0.2
					c0.1,0.1,0.1,0.1,0.2,0.2c0.1,0.1,0.1,0.1,0.2,0.2c0-0.1-0.1-0.2-0.1-0.2c-0.1-0.1-0.1-0.1-0.2-0.2c-0.1-0.1-0.1-0.1-0.2-0.2
					c0,0,0,0,0,0c0.1,0.1,0.1,0.1,0.2,0.2c0.1,0.1,0.1,0.1,0.2,0.2c0.1,0.1,0.1,0.1,0.1,0.2c0,0,0,0,0,0c0-0.1-0.1-0.1-0.1-0.2
					c-0.2-0.2-0.4-0.4-0.6-0.6c-0.1-0.1-0.3-0.2-0.5-0.3c-0.1,0-0.1-0.1-0.2-0.1c0.2,0.1,0.4,0.2,0.5,0.4c0,0,0,0,0,0
					c0,0-0.1-0.1-0.1-0.1c-0.1-0.1-0.2-0.2-0.4-0.2c0,0-0.1,0,0,0c0,0,0,0,0,0c0.1,0,0.2,0,0.2,0.1c0.1,0.1,0.2,0.1,0.3,0.2
					c0.1,0.1,0.1,0.1,0.2,0.2c0,0,0,0,0,0c0,0,0,0,0,0c-0.1-0.1-0.3-0.2-0.4-0.3c-0.1,0-0.1-0.1-0.2-0.1c0,0-0.1,0-0.1,0
					c0.1,0,0.2,0.1,0.3,0.1c0.1,0.1,0.3,0.2,0.3,0.2c-0.1-0.1-0.2-0.1-0.3-0.2C39.2,62,39,61.9,39,61.9C39,62,39.1,62,39.2,62.1
					C39.1,62,39.1,62,39,62c0,0-0.1,0-0.1,0l0,0C39,62,39.1,62,39.2,62.1z M39.5,61.5C39.5,61.5,39.4,61.5,39.5,61.5
					C39.5,61.5,39.5,61.5,39.5,61.5c0.1,0.1,0.2,0.1,0.3,0.1c0.1,0.1,0.2,0.1,0.3,0.2c0,0,0.1,0.1,0.1,0.1c0.1,0.1,0.1,0.2,0.2,0.4
					c0,0,0,0,0,0c-0.1-0.1-0.2-0.2-0.2-0.3c-0.1-0.1-0.1-0.1-0.2-0.2c-0.1,0-0.2-0.1-0.2-0.2C39.6,61.6,39.6,61.6,39.5,61.5
					c0.1,0.2,0.2,0.3,0.2,0.4c-0.1-0.1-0.2-0.2-0.3-0.2c0.2,0.1,0.3,0.2,0.5,0.4c0.1,0.1,0.3,0.3,0.4,0.4c0,0,0,0,0,0c0,0,0,0,0,0
					c0-0.1-0.1-0.2-0.2-0.3c0,0,0,0-0.1-0.1c-0.1-0.1-0.1-0.1-0.1-0.2c0,0,0,0.1,0.1,0.1c0,0,0.1,0.1,0.1,0.1
					c0.1,0.1,0.1,0.1,0.1,0.2c0,0.1,0,0.1,0,0.2c0,0,0,0,0,0.1c0,0.1,0.1,0.1,0.1,0.2c0,0,0,0.1,0.1,0.1c0,0,0.1,0,0.1-0.1
					c0,0,0,0,0,0.1c-0.1,0,0,0.1,0,0.1c0,0,0,0,0,0c0,0,0,0,0.1,0c0,0,0,0,0.1,0c-0.1,0-0.1,0-0.1-0.1c0,0,0,0.1,0.1,0.1
					c0,0,0.1,0,0.1,0c0,0,0,0,0,0c0-0.1,0-0.2,0-0.3c0,0,0,0,0,0.1c0,0,0,0,0,0c0-0.2,0-0.3,0-0.5c-0.1-0.4-0.5-0.8-0.9-0.8
					c0,0-0.1,0-0.1,0c0,0,0,0,0,0c0.1,0.1,0.2,0.1,0.3,0.2c0,0,0,0-0.1,0c-0.1-0.1-0.2-0.1-0.3-0.2C39.5,61.5,39.5,61.5,39.5,61.5
					C39.5,61.5,39.5,61.5,39.5,61.5z"/>
				<path class="st14" d="M38.9,62.6c0.1,0.1,0.1,0.2,0.2,0.3c0,0,0,0.1,0,0.1c0,0.1,0.1,0.2,0.2,0.1c0,0,0,0,0.1,0
					c0,0.1,0.1,0.2,0.2,0.2c0.1,0,0.2,0.1,0.3,0.1c0,0-0.1,0-0.1,0c-0.1,0-0.1,0-0.2,0c0,0-0.1,0-0.1-0.1c0,0,0-0.1-0.1-0.1
					c0,0,0,0,0,0c0,0,0,0-0.1,0c-0.1,0-0.2-0.1-0.2-0.2c0,0,0-0.1,0-0.1C39,62.8,39,62.7,38.9,62.6z"/>
				<path class="st14" d="M39,62.4C39,62.4,39,62.5,39,62.4c0.1,0.2,0.2,0.2,0.2,0.2c0.1,0,0.1,0,0.2,0c0.1,0,0.2,0,0.2,0.1
					c0,0,0.1,0.1,0.1,0.1c0,0,0.1,0,0.1,0c0,0,0,0,0,0c-0.1,0.1-0.2,0.1-0.3,0c0,0-0.1,0-0.1-0.1c-0.1,0-0.1-0.1-0.2-0.1
					c-0.1,0-0.2,0-0.3,0C39,62.6,38.9,62.5,39,62.4z"/>
				<path class="st14" d="M39.6,63c0.1,0,0.1,0.1,0.2,0.1c0.1,0,0.1,0,0.2,0c0.1,0,0.1,0,0.2,0c0,0,0.1,0,0.1,0c-0.1,0-0.1,0-0.2,0
					c0,0-0.1,0-0.1,0C39.7,63.2,39.6,63.2,39.6,63z"/>
				<path class="st14" d="M40.3,63.3c-0.1,0.1-0.3,0-0.4-0.1C40,63.3,40.1,63.3,40.3,63.3c0,0-0.1,0-0.2,0l0,0
					C40.1,63.3,40.2,63.3,40.3,63.3z"/>
				<path class="st14" d="M39.6,62.9c0.1,0.1,0.2,0.1,0.4,0c0,0,0.1,0,0.1-0.1C40.1,62.9,40,63,39.9,63C39.8,63,39.7,63,39.6,62.9z"
					/>
				<path class="st14" d="M39.1,62.8c0,0,0,0.1,0,0.1c0,0.1,0.1,0.1,0.2,0.1c0,0,0.1,0,0.1,0c-0.1,0-0.1,0.1-0.2,0.1
					c0,0-0.1,0-0.1-0.1C39.1,62.9,39.1,62.9,39.1,62.8C39.1,62.8,39.1,62.8,39.1,62.8z"/>
				<path class="st14" d="M39.4,62.5c-0.1,0-0.1,0-0.2-0.1c0,0,0,0-0.1-0.1c0,0-0.1-0.1-0.1-0.1c0,0,0,0,0,0c0,0-0.1-0.1,0-0.1
					c0,0.1,0,0.1,0.1,0.1c0,0,0,0,0,0c0,0.1,0,0.1,0.1,0.1c0,0,0,0,0,0C39.2,62.4,39.3,62.5,39.4,62.5z"/>
				<path class="st14" d="M39.4,63.1c0.1,0.1,0.2,0.2,0.4,0.2c0,0,0,0,0,0c-0.1,0-0.2-0.1-0.2-0.1C39.4,63.2,39.4,63.2,39.4,63.1z"
					/>
				<path class="st14" d="M39.6,63c-0.1,0-0.1,0-0.2,0c-0.1,0-0.1-0.1-0.1-0.1C39.3,62.9,39.4,62.9,39.6,63z"/>
				<path class="st14" d="M39.2,62.2C39.2,62.2,39.3,62.2,39.2,62.2c0.2,0.1,0.2,0.2,0.2,0.3c0,0,0,0,0-0.1c0,0,0-0.1-0.1-0.1
					c0,0,0,0-0.1,0C39.2,62.3,39.2,62.2,39.2,62.2z"/>
				<path class="st14" d="M39.6,62.5C39.6,62.5,39.7,62.5,39.6,62.5c0.1,0.1,0.1,0.1,0.1,0.1c0,0.1,0.1,0.1,0.2,0.1c0,0,0,0,0,0
					c0,0,0,0,0,0c0,0-0.1,0-0.1,0c0,0,0,0,0,0C39.7,62.6,39.6,62.5,39.6,62.5z"/>
				<path class="st14" d="M40.2,61.8c-0.1-0.2-0.2-0.2-0.3-0.2c0,0,0.1,0.1,0.1,0.1C40.1,61.7,40.1,61.8,40.2,61.8
					c0,0,0,0.1,0.1,0.2c0,0.1,0,0.1,0,0.2c0-0.1,0-0.1-0.1-0.2c0-0.1-0.1-0.2-0.2-0.3c-0.1-0.1-0.1-0.1-0.2-0.2c0,0,0,0,0,0
					C40,61.6,40.2,61.6,40.2,61.8z"/>
				<path class="st14" d="M40.2,61.7c0.1,0.1,0.2,0.2,0.2,0.4c0,0.2,0.1,0.4,0,0.5c0,0,0,0,0,0C40.5,62.3,40.5,62,40.2,61.7z"/>
				<path class="st14" d="M40.6,62.1c0,0.1,0.1,0.2,0.1,0.3c0,0,0,0,0,0.1c0,0,0,0.1,0,0.1c0,0,0,0.1,0,0.1c0,0,0-0.1,0-0.1
					c0,0,0-0.1,0-0.1c0-0.1,0-0.1,0-0.2C40.6,62.3,40.6,62.2,40.6,62.1C40.6,62.1,40.6,62.1,40.6,62.1z"/>
				<path class="st14" d="M39.7,61.9c0.1,0.1,0.2,0.2,0.3,0.3c0,0,0,0,0,0c0,0-0.1-0.1-0.1-0.1C39.9,62.1,39.8,62,39.7,61.9
					C39.8,61.9,39.8,61.9,39.7,61.9C39.7,61.9,39.7,61.9,39.7,61.9z"/>
			</g>
		</g>
		<g id="XMLID_107_">
			<path class="st5" d="M38,62.8l0.2-0.2l0.3-0.1c0,0,0.2,0,0.3,0c0.1,0,0.4,0.1,0.4,0.1l0.2,0.1l0.2,0.2l0.1,0.2l0.1,0.3l0,0.3
				l0,0.3l-0.1,0.4l-0.1,0.3l-0.4,0l-0.4,0l-0.3-0.1l-0.2-0.1l-0.3-0.2L38,64.2l-0.1-0.3l-0.1-0.3l0-0.3l0.1-0.3L38,62.8z"/>
			<path class="st15" d="M39.9,63.9c0,0,0-0.2-0.1-0.6c0,0,0,0,0,0c0,0,0,0,0-0.1c0,0,0-0.1,0-0.1c0,0-0.1-0.2-0.3-0.4
				c-0.3-0.2-0.6-0.4-0.9-0.3c-0.5,0.1-0.9,0.5-0.8,1.1c0,0.2,0.1,0.5,0.3,0.7c0.3,0.4,0.7,0.5,1.2,0.5c0.1,0,0.2,0,0.3,0
				c0.1,0,0.2,0,0.2,0c0,0,0-0.1,0-0.1C39.8,64.6,39.9,64.2,39.9,63.9z M39.7,64.7c-0.1,0-0.3,0-0.4,0c-0.2,0-0.4,0-0.6-0.1
				c-0.1,0-0.2-0.1-0.3-0.1c-0.1-0.1-0.3-0.2-0.4-0.3c-0.1-0.1-0.2-0.3-0.2-0.5c0-0.1,0-0.2,0-0.3c0-0.1,0-0.2,0-0.2l0,0
				c0-0.1,0.1-0.1,0.1-0.2c0,0,0,0,0,0c0,0,0,0,0,0c0.1-0.1,0.1-0.1,0.2-0.2c0,0,0-0.1,0-0.1c0.1-0.1,0.2-0.2,0.4-0.2
				c0.2,0,0.3,0,0.5,0c0,0,0,0,0,0c0,0,0.1,0,0.1,0.1c0,0,0,0,0.1,0.1c0.2,0.1,0.3,0.2,0.4,0.4c0.1,0.2,0.1,0.3,0.2,0.5
				c0,0.2,0,0.4,0,0.5c0,0,0,0,0,0c0,0,0,0,0-0.1C39.8,64.3,39.6,64.4,39.7,64.7c0-0.2,0-0.3,0.1-0.4c0.1-0.2,0.1-0.4,0.1-0.7
				c0-0.2-0.1-0.3-0.1-0.5c-0.1-0.1-0.2-0.3-0.3-0.4c0,0,0,0,0,0c0,0,0.1,0,0.1,0.1c0.1,0.1,0.2,0.1,0.2,0.2
				c0.3,0.5,0.3,0.9,0.1,1.4C39.7,64.5,39.7,64.6,39.7,64.7z"/>
			<path class="st15" d="M38,63.9C38.1,63.9,38.1,63.9,38,63.9c0.1,0.1,0.3,0.1,0.4,0.2c0,0.1,0.1,0.2,0.3,0.2
				c0.1,0,0.2,0.1,0.3,0.1c0.1,0,0.3-0.1,0.4-0.1c0.1-0.1,0.2-0.3,0.3-0.3c-0.1,0.1,0,0.4-0.2,0.5c-0.2,0.1-0.6,0-0.8,0
				c-0.2,0-0.4-0.1-0.5-0.2C38.1,64.1,38.1,64,38,63.9"/>
			<polygon class="st16" points="37.9,63.1 38.1,63.1 38.1,63 38.1,62.9 38.3,62.8 38.3,62.6 38.5,62.6 38.8,62.6 39,62.7 
				39.3,62.8 39.4,63 39.5,63.2 39.6,63.3 39.7,63.5 39.7,63.7 39.7,63.9 39.6,64 39.5,64 39.4,64.2 39.2,64.4 38.9,64.4 38.7,64.3 
				38.6,64.3 38.5,64.2 38.4,64 38.1,63.9 38,63.7 37.9,63.3 			"/>
			<path class="st15" d="M39.7,63.7C39.7,63.6,39.7,63.6,39.7,63.7c0-0.2,0-0.3,0-0.4c0,0,0,0,0-0.1c0,0,0,0,0,0
				c-0.1,0-0.1-0.1-0.1-0.2c0,0,0-0.1,0-0.1c-0.1-0.1-0.3-0.2-0.4-0.2c0,0-0.1,0-0.1,0c-0.1-0.1-0.2-0.1-0.4-0.1c0,0-0.1,0-0.1,0
				c-0.1,0-0.2,0-0.2,0.2c0,0,0,0.1-0.1,0.1c-0.1,0-0.1,0.1-0.1,0.2c0,0,0,0,0,0.1c0,0,0,0,0,0c-0.1,0-0.1,0-0.2,0.1l0,0
				c0,0.1,0,0.2,0,0.3c0,0.1,0.1,0.2,0.1,0.4c0,0.1,0.1,0.2,0.3,0.2c0.1,0,0.2,0,0.2,0.1c0,0.1,0.1,0.2,0.3,0.2c0,0,0,0,0.1,0
				c0.1,0.1,0.2,0.1,0.3,0.1c0.1,0,0.1,0,0.2,0c0.1,0,0.2,0,0.2-0.1c0,0,0,0,0,0c0.1,0,0.1-0.1,0.2-0.2c0,0,0-0.1,0.1-0.1
				c0,0,0.1,0,0.1-0.1C39.7,63.8,39.7,63.7,39.7,63.7z M37.9,63.1c0.1,0,0.1,0,0.1,0.1c0,0,0,0.1,0.1,0.1c0,0,0,0,0,0.1c0,0,0,0,0,0
				c0,0,0,0,0,0c0-0.1,0-0.1,0-0.1c0,0-0.1-0.1-0.1-0.1c0,0,0,0,0.1,0c0,0,0,0.1,0,0.1c0,0,0,0,0,0c0,0.1,0,0.1,0.1,0.1
				c0,0.1,0.1,0,0.1,0.1c0,0,0,0-0.1,0c-0.1,0-0.2,0.1-0.2,0.2c0,0.1,0,0.2,0,0.3c0,0,0,0,0,0c-0.1,0-0.1,0-0.1-0.1
				c0,0,0-0.1-0.1-0.1c0,0-0.1-0.1-0.1-0.1c0,0,0,0-0.1-0.1c0,0,0,0,0,0C37.9,63.4,37.9,63.3,37.9,63.1z M39.5,64.1L39.5,64.1
				C39.5,64,39.5,64,39.5,64.1C39.4,64,39.4,64.1,39.5,64.1c-0.1-0.1-0.2-0.1-0.2-0.2c0,0,0.1,0,0.1,0c0,0,0,0,0,0l-0.1,0
				c0,0,0,0,0,0c0,0,0,0,0.1,0C39.4,63.9,39.4,63.9,39.5,64.1C39.5,64,39.5,64,39.5,64.1C39.5,64.1,39.5,64.1,39.5,64.1z M39.6,64
				C39.6,64,39.6,64,39.6,64l-0.1,0C39.5,63.9,39.5,63.9,39.6,64c-0.1-0.1-0.2-0.2-0.2-0.2c0,0,0,0,0,0c0,0,0,0,0,0.1c0,0,0,0,0,0
				c0,0-0.1,0-0.1,0c-0.1,0-0.2-0.1-0.3-0.2c-0.1-0.2,0-0.3,0-0.4c0,0,0-0.1,0-0.2c-0.1,0-0.1,0-0.1,0.1c0,0.1,0,0.2,0,0.2
				c0,0.1,0,0.1,0,0.2c0,0.1,0,0.1,0,0.1c-0.1,0-0.1,0-0.2,0c-0.1-0.1-0.1-0.1-0.2,0c0,0-0.1,0,0,0.1c0,0,0,0.1,0.1,0.1
				c0.1,0,0.2,0,0.3,0c0.1,0,0.1,0,0.2,0.1c0,0.1,0.1,0.1,0.1,0.1c0.1,0.1,0.2,0.1,0.2,0.2c0,0,0,0,0,0.1c-0.1,0.1-0.1,0.1-0.2,0.1
				c0,0-0.1,0-0.1,0c0,0,0,0-0.1,0c0,0-0.1,0-0.1,0c0,0-0.1-0.1-0.1-0.1c0,0,0,0-0.1,0c0,0-0.1,0-0.1,0c0,0-0.1,0-0.1,0
				c0,0,0-0.1,0-0.1c0,0,0,0,0,0c0,0,0,0,0,0c0,0,0,0,0-0.1c0,0,0,0,0-0.1c0,0,0,0,0,0c0,0-0.1,0-0.1,0c0,0,0,0,0,0c0,0-0.1,0-0.1,0
				c0,0,0,0,0,0c0,0-0.1,0-0.1,0c0,0,0,0,0,0c0,0,0,0,0,0c-0.1-0.1-0.1-0.2-0.2-0.3c0.1,0,0.1,0.1,0.1,0.1c0,0,0,0.1,0.1,0.1
				c0,0,0,0,0,0c0,0,0,0,0.1,0l0,0c0.1,0,0.1,0,0.2,0c0.1,0,0.1,0,0.2,0.1c0,0.1,0.1,0.1,0.1,0.2c0,0,0,0,0.1,0c0.1,0,0.1,0,0.2,0
				c0,0,0,0.1,0,0.1c0,0,0,0,0.1,0c0,0,0.1,0,0.1,0c0-0.1,0-0.1-0.1-0.1c0,0-0.1,0-0.1,0c-0.1,0-0.2,0-0.3-0.1c0,0,0,0,0,0
				c0,0,0,0,0,0c0.1,0,0.1-0.2,0-0.2c-0.1,0-0.2,0-0.2,0.1c0,0,0,0,0-0.1c0,0,0,0,0,0.1c0,0-0.1-0.1-0.1-0.1c0,0,0,0,0,0
				c0,0,0,0,0-0.1c0,0,0,0,0,0c0,0,0-0.1,0-0.1c0-0.1,0.1-0.1,0.2-0.1c0,0,0.1,0,0.1,0c0,0,0,0,0,0c0,0,0,0,0.1,0c0,0,0.1,0,0.1,0
				c0,0,0,0,0-0.1c0,0,0,0,0-0.1c0,0,0,0.1,0,0.1c0,0,0-0.1,0,0c0,0,0,0,0,0c0,0,0,0,0-0.1c0,0,0,0,0,0.1c-0.1,0-0.1-0.1-0.1-0.1
				c0,0,0,0-0.1,0c-0.1,0-0.1-0.1-0.1-0.2c0,0,0,0,0,0c0,0,0.2-0.1,0.2-0.1l0,0l0,0c0,0,0-0.1,0-0.1c0,0,0.1-0.1,0.1,0
				c0,0,0.1,0,0.1,0.1c0,0,0,0,0,0c0,0,0.1,0,0.1,0c0,0,0,0,0-0.1c0,0,0.1,0,0.2,0c0.1,0,0.1,0.1,0.1,0.1c-0.1,0-0.2,0.1-0.2,0.1
				c0,0,0,0,0,0c0,0,0,0,0,0c0,0.1,0,0.1-0.1,0.2c0,0-0.1-0.1-0.1-0.1c0,0,0,0,0.1,0c0,0,0,0,0,0c0,0,0.1,0,0.1-0.1c0,0,0,0,0,0
				c0,0,0,0,0,0c0,0,0-0.1,0-0.1c0,0,0,0-0.1,0c0,0,0,0,0,0c0,0-0.1,0-0.1,0c0,0,0,0,0,0c0,0,0,0,0,0c0,0,0,0,0-0.1c0,0,0,0,0,0.1
				c0-0.1-0.1-0.1-0.1-0.1c0,0,0,0.1,0,0.1c0,0,0,0,0,0s0,0,0,0c0,0,0,0.1,0,0.1c0.1,0,0.2,0.1,0.3,0.2c0,0,0,0.1,0.1,0.1
				c0-0.1,0-0.1,0.1-0.2c0-0.1,0.1-0.1,0.2-0.1c0,0,0,0,0,0c0.1,0.1,0.2,0.1,0.2,0.2c0,0,0,0,0,0.1c0,0,0-0.1,0-0.1
				c0,0.1,0.1,0.2,0.1,0.3c0,0.1,0.1,0.1,0.1,0.2c0,0,0,0,0.1,0.1c0,0,0,0,0,0c0,0.1,0,0.1,0.1,0.1l0,0c0,0,0,0,0.1,0.1
				c0,0,0,0,0-0.1c0-0.1-0.1-0.1-0.1-0.2c0,0,0-0.1,0-0.1c0,0-0.1-0.1-0.1-0.1c0,0,0.1,0,0.1,0c0,0,0,0,0,0c0,0,0,0,0,0
				c0,0-0.1,0-0.1,0c-0.1,0-0.1-0.1-0.1-0.1c0-0.1-0.1-0.2-0.2-0.3c0,0-0.1,0-0.1-0.1c0.1,0,0.2,0,0.3,0.1l0,0c0,0,0,0,0-0.1
				c0.1,0,0.2,0.1,0.2,0.2c0,0,0,0.1-0.1,0.2c0,0,0.1,0.1,0.1,0.1c0,0,0,0,0,0c0,0,0,0,0,0c0.1,0,0.2,0.1,0.2,0.2c0,0,0,0,0,0
				c0,0,0,0.1-0.1,0.1c0,0,0,0.1,0.1,0.1c0,0,0,0.1,0,0.1c0,0,0,0,0-0.1C39.6,63.8,39.7,63.8,39.6,64C39.7,63.9,39.6,64,39.6,64z
				 M39,63.7C39,63.7,39,63.7,39,63.7c0,0-0.1-0.1-0.1-0.1c0,0,0,0,0,0.1c0,0,0,0,0,0c0,0,0-0.1,0-0.1C39,63.6,39,63.7,39,63.7z"/>
		</g>
	</g>
</g>
</svg>
