<svg xmlns="http://www.w3.org/2000/svg" viewBox="0 0 280.2 237"><style>.st0{fill:#519E38;} .st1{fill:#E2E2E2;} .st2{fill:#FFFFFF;} .st3{fill:#F4F4F4;}</style><g id="kolby"><path class="st0" d="M135.5 54c0-9.7-22.1-15.5-43.5-15.5S48.6 44.3 48.6 54c0 2 1 3.9 2.8 5.6l13.2 49.6h.2c1.6 4.6 13.2 8.2 27.3 8.2 14.1 0 25.7-3.6 27.3-8.2h.2l13.2-49.6c1.7-1.7 2.7-3.5 2.7-5.6z"/><path class="st1" d="M130.5 51.3H46.1l14.7 55.2h.2c1.6 4.6 13.2 8.2 27.3 8.2s25.7-3.6 27.3-8.2h.2l14.7-55.2z"/><ellipse class="st2" cx="88.3" cy="51.3" rx="42.2" ry="14.2"/><path class="st2" d="M88.3 66.7c-21.4 0-43.5-5.8-43.5-15.5s22.1-15.5 43.5-15.5 43.5 5.8 43.5 15.5-22.2 15.5-43.5 15.5zm0-28.3c-24.5 0-40.9 6.7-40.9 12.9s16.4 12.9 40.9 12.9 40.9-6.7 40.9-12.9-16.4-12.9-40.9-12.9z"/><path class="st1" d="M88.3 43.4c18.3 0 33.5 4.3 37.2 10.1.6-.9.9-1.8.9-2.7 0-7.1-17.1-12.8-38.1-12.8-21.1 0-38.1 5.7-38.1 12.8 0 .9.3 1.8.9 2.7 3.7-5.8 18.9-10.1 37.2-10.1z"/><path class="st3" d="M63.7 87.5c-1.6.3-3.1-.8-3.4-2.4l-2.4-13.2c-.3-1.6.8-3.1 2.4-3.4 1.6-.3 3.1.8 3.4 2.4l2.4 13.2c.3 1.6-.8 3.1-2.4 3.4z"/><path class="st0" d="M242.5 54c0-9.7-22.1-15.5-43.5-15.5s-43.5 5.8-43.5 15.5c0 2 1 3.9 2.8 5.6l13.2 49.6h.2c1.6 4.6 13.2 8.2 27.3 8.2 14.1 0 25.7-3.6 27.3-8.2h.2l13.2-49.6c1.8-1.7 2.8-3.5 2.8-5.6z"/><path class="st1" d="M237.4 51.3H153l14.7 55.2h.2c1.6 4.6 13.2 8.2 27.3 8.2s25.7-3.6 27.3-8.2h.2l14.7-55.2z"/><ellipse class="st2" cx="195.2" cy="51.3" rx="42.2" ry="14.2"/><path class="st2" d="M195.2 66.7c-21.4 0-43.5-5.8-43.5-15.5s22.1-15.5 43.5-15.5 43.5 5.8 43.5 15.5-22.1 15.5-43.5 15.5zm0-28.3c-24.5 0-40.9 6.7-40.9 12.9s16.4 12.9 40.9 12.9 40.9-6.7 40.9-12.9-16.4-12.9-40.9-12.9z"/><path class="st1" d="M195.2 43.4c18.3 0 33.5 4.3 37.2 10.1.6-.9.9-1.8.9-2.7 0-7.1-17.1-12.8-38.1-12.8-21.1 0-38.1 5.7-38.1 12.8 0 .9.3 1.8.9 2.7 3.7-5.8 19-10.1 37.2-10.1z"/><path class="st3" d="M170.7 87.5c-1.6.3-3.1-.8-3.4-2.4l-2.4-13.2c-.3-1.6.8-3.1 2.4-3.4 1.6-.3 3.1.8 3.4 2.4l2.4 13.2c.2 1.6-.8 3.1-2.4 3.4z"/><path class="st0" d="M135.5 147.3c0-9.7-22.1-15.5-43.5-15.5s-43.5 5.8-43.5 15.5c0 2 1 3.9 2.8 5.6l13.2 49.6h.2c1.6 4.6 13.2 8.2 27.3 8.2 14.1 0 25.7-3.6 27.3-8.2h.2l13.2-49.6c1.8-1.7 2.8-3.5 2.8-5.6z"/><path class="st1" d="M130.5 144.6H46.1l14.7 55.2h.2c1.6 4.6 13.2 8.2 27.3 8.2s25.7-3.6 27.3-8.2h.2l14.7-55.2z"/><ellipse class="st2" cx="88.3" cy="144.6" rx="42.2" ry="14.2"/><path class="st2" d="M88.3 160c-21.4 0-43.5-5.8-43.5-15.5S66.9 129 88.3 129s43.5 5.8 43.5 15.5c-.1 9.7-22.2 15.5-43.5 15.5zm0-28.3c-24.5 0-40.9 6.7-40.9 12.9s16.4 12.9 40.9 12.9 40.9-6.7 40.9-12.9-16.4-12.9-40.9-12.9z"/><path class="st1" d="M88.3 136.7c18.3 0 33.5 4.3 37.2 10.1.6-.9.9-1.8.9-2.7 0-7.1-17.1-12.8-38.1-12.8-21.1 0-38.1 5.7-38.1 12.8 0 .9.3 1.8.9 2.7 3.7-5.8 18.9-10.1 37.2-10.1z"/><path class="st3" d="M63.7 180.8c-1.6.3-3.1-.8-3.4-2.4l-2.4-13.2c-.3-1.6.8-3.1 2.4-3.4 1.6-.3 3.1.8 3.4 2.4l2.4 13.2c.3 1.6-.8 3.1-2.4 3.4z"/><path class="st0" d="M242.5 147.3c0-9.7-22.1-15.5-43.5-15.5s-43.5 5.8-43.5 15.5c0 2 1 3.9 2.8 5.6l13.2 49.6h.2c1.6 4.6 13.2 8.2 27.3 8.2 14.1 0 25.7-3.6 27.3-8.2h.2l13.2-49.6c1.8-1.7 2.8-3.5 2.8-5.6z"/><path class="st1" d="M237.4 144.6H153l14.7 55.2h.2c1.6 4.6 13.2 8.2 27.3 8.2s25.7-3.6 27.3-8.2h.2l14.7-55.2z"/><ellipse class="st2" cx="195.2" cy="144.6" rx="42.2" ry="14.2"/><path class="st2" d="M195.2 160c-21.4 0-43.5-5.8-43.5-15.5s22.1-15.5 43.5-15.5 43.5 5.8 43.5 15.5-22.1 15.5-43.5 15.5zm0-28.3c-24.5 0-40.9 6.7-40.9 12.9s16.4 12.9 40.9 12.9 40.9-6.7 40.9-12.9-16.4-12.9-40.9-12.9z"/><path class="st1" d="M195.2 136.7c18.3 0 33.5 4.3 37.2 10.1.6-.9.9-1.8.9-2.7 0-7.1-17.1-12.8-38.1-12.8-21.1 0-38.1 5.7-38.1 12.8 0 .9.3 1.8.9 2.7 3.7-5.8 19-10.1 37.2-10.1z"/><path class="st3" d="M170.7 180.8c-1.6.3-3.1-.8-3.4-2.4l-2.4-13.2c-.3-1.6.8-3.1 2.4-3.4 1.6-.3 3.1.8 3.4 2.4l2.4 13.2c.2 1.6-.8 3.1-2.4 3.4z"/></g></svg>