<svg xmlns="http://www.w3.org/2000/svg" viewBox="96 12 322.5 228"><style>.st0{fill:#519E38;} .st1{fill:#E2E2E2;} .st2{fill:#FFFFFF;} .st3{fill:#F4F4F4;} .st4{fill:url(#SVGID_1_);} .st5{fill:url(#SVGID_2_);} .st6{fill:url(#SVGID_3_);} .st7{fill:url(#SVGID_4_);} .st8{fill:url(#SVGID_5_);}</style><g id="Layer_1"><g id="kolby"><path class="st0" d="M243.5 55.5c0-9.7-22.1-15.5-43.5-15.5s-43.5 5.8-43.5 15.5c0 2 1 3.9 2.8 5.6l13.2 49.6h.2c1.6 4.6 13.2 8.2 27.3 8.2s25.7-3.6 27.3-8.2h.2l13.2-49.6c1.8-1.7 2.8-3.5 2.8-5.6z"/><path class="st1" d="M238.5 52.8h-84.4l14.7 55.2h.2c1.6 4.6 13.2 8.2 27.3 8.2s25.7-3.6 27.3-8.2h.2l14.7-55.2z"/><ellipse class="st2" cx="196.3" cy="52.8" rx="42.2" ry="14.2"/><path class="st2" d="M196.3 68.2c-21.4 0-43.5-5.8-43.5-15.5s22.1-15.5 43.5-15.5 43.5 5.8 43.5 15.5-22.2 15.5-43.5 15.5zm0-28.3c-24.5 0-40.9 6.7-40.9 12.9s16.4 12.9 40.9 12.9 40.9-6.7 40.9-12.9-16.4-12.9-40.9-12.9z"/><path class="st1" d="M196.3 44.9c18.3 0 33.5 4.3 37.2 10.1.6-.9.9-1.8.9-2.7 0-7.1-17.1-12.8-38.1-12.8-21.1 0-38.1 5.7-38.1 12.8 0 .9.3 1.8.9 2.7 3.7-5.8 18.9-10.1 37.2-10.1z"/><path class="st3" d="M171.7 89c-1.6.3-3.1-.8-3.4-2.4l-2.4-13.2c-.3-1.6.8-3.1 2.4-3.4 1.6-.3 3.1.8 3.4 2.4l2.4 13.2c.3 1.6-.8 3.1-2.4 3.4z"/><path class="st0" d="M350.5 55.5c0-9.7-22.1-15.5-43.5-15.5s-43.5 5.8-43.5 15.5c0 2 1 3.9 2.8 5.6l13.2 49.6h.2c1.6 4.6 13.2 8.2 27.3 8.2s25.7-3.6 27.3-8.2h.2l13.2-49.6c1.8-1.7 2.8-3.5 2.8-5.6z"/><path class="st1" d="M345.4 52.8H261l14.7 55.2h.2c1.6 4.6 13.2 8.2 27.3 8.2 14.1 0 25.7-3.6 27.3-8.2h.2l14.7-55.2z"/><ellipse class="st2" cx="303.2" cy="52.8" rx="42.2" ry="14.2"/><path class="st2" d="M303.2 68.2c-21.4 0-43.5-5.8-43.5-15.5s22.1-15.5 43.5-15.5 43.5 5.8 43.5 15.5-22.1 15.5-43.5 15.5zm0-28.3c-24.5 0-40.9 6.7-40.9 12.9s16.4 12.9 40.9 12.9 40.9-6.7 40.9-12.9-16.4-12.9-40.9-12.9z"/><path class="st1" d="M303.2 44.9c18.3 0 33.5 4.3 37.2 10.1.6-.9.9-1.8.9-2.7 0-7.1-17.1-12.8-38.1-12.8-21.1 0-38.1 5.7-38.1 12.8 0 .9.3 1.8.9 2.7 3.7-5.8 19-10.1 37.2-10.1z"/><path class="st3" d="M278.7 89c-1.6.3-3.1-.8-3.4-2.4l-2.4-13.2c-.3-1.6.8-3.1 2.4-3.4 1.6-.3 3.1.8 3.4 2.4l2.4 13.2c.2 1.6-.8 3.1-2.4 3.4z"/><path class="st0" d="M243.5 148.8c0-9.7-22.1-15.5-43.5-15.5s-43.5 5.8-43.5 15.5c0 2 1 3.9 2.8 5.6l13.2 49.6h.2c1.6 4.6 13.2 8.2 27.3 8.2s25.7-3.6 27.3-8.2h.2l13.2-49.6c1.8-1.7 2.8-3.5 2.8-5.6z"/><path class="st1" d="M238.5 146.1h-84.4l14.7 55.2h.2c1.6 4.6 13.2 8.2 27.3 8.2s25.7-3.6 27.3-8.2h.2l14.7-55.2z"/><ellipse class="st2" cx="196.3" cy="146.1" rx="42.2" ry="14.2"/><path class="st2" d="M196.3 161.5c-21.4 0-43.5-5.8-43.5-15.5s22.1-15.5 43.5-15.5 43.5 5.8 43.5 15.5c-.1 9.7-22.2 15.5-43.5 15.5zm0-28.3c-24.5 0-40.9 6.7-40.9 12.9s16.4 12.9 40.9 12.9 40.9-6.7 40.9-12.9c0-6.3-16.4-12.9-40.9-12.9z"/><path class="st1" d="M196.3 138.2c18.3 0 33.5 4.3 37.2 10.1.6-.9.9-1.8.9-2.7 0-7.1-17.1-12.8-38.1-12.8-21.1 0-38.1 5.7-38.1 12.8 0 .9.3 1.8.9 2.7 3.7-5.8 18.9-10.1 37.2-10.1z"/><path class="st3" d="M171.7 182.3c-1.6.3-3.1-.8-3.4-2.4l-2.4-13.2c-.3-1.6.8-3.1 2.4-3.4 1.6-.3 3.1.8 3.4 2.4l2.4 13.2c.3 1.6-.8 3.1-2.4 3.4z"/><path class="st0" d="M350.5 148.8c0-9.7-22.1-15.5-43.5-15.5s-43.5 5.8-43.5 15.5c0 2 1 3.9 2.8 5.6l13.2 49.6h.2c1.6 4.6 13.2 8.2 27.3 8.2s25.7-3.6 27.3-8.2h.2l13.2-49.6c1.8-1.7 2.8-3.5 2.8-5.6z"/><path class="st1" d="M345.4 146.1H261l14.7 55.2h.2c1.6 4.6 13.2 8.2 27.3 8.2 14.1 0 25.7-3.6 27.3-8.2h.2l14.7-55.2z"/><ellipse class="st2" cx="303.2" cy="146.1" rx="42.2" ry="14.2"/><path class="st2" d="M303.2 161.5c-21.4 0-43.5-5.8-43.5-15.5s22.1-15.5 43.5-15.5 43.5 5.8 43.5 15.5-22.1 15.5-43.5 15.5zm0-28.3c-24.5 0-40.9 6.7-40.9 12.9s16.4 12.9 40.9 12.9 40.9-6.7 40.9-12.9c.1-6.3-16.4-12.9-40.9-12.9z"/><path class="st1" d="M303.2 138.2c18.3 0 33.5 4.3 37.2 10.1.6-.9.9-1.8.9-2.7 0-7.1-17.1-12.8-38.1-12.8-21.1 0-38.1 5.7-38.1 12.8 0 .9.3 1.8.9 2.7 3.7-5.8 19-10.1 37.2-10.1z"/><path class="st3" d="M278.7 182.3c-1.6.3-3.1-.8-3.4-2.4l-2.4-13.2c-.3-1.6.8-3.1 2.4-3.4 1.6-.3 3.1.8 3.4 2.4l2.4 13.2c.2 1.6-.8 3.1-2.4 3.4z"/></g></g><g id="snow"><g id="sneg"><linearGradient id="SVGID_1_" gradientUnits="userSpaceOnUse" x1="570.251" y1="215.433" x2="586.238" y2="170.135" gradientTransform="rotate(180 375.733 127)"><stop offset="0" stop-color="#404B71"/><stop offset=".604" stop-color="#3C476E"/><stop offset="1" stop-color="#354169"/></linearGradient><path class="st4" d="M177.7 79.5l1.7-6.4-1.6-2.7-.2.8c-.2.8-1.1 1.3-1.9 1.1-.1 0-.3-.1-.4-.2-.6-.3-.9-1.1-.7-1.8l1-3.9-1.9-3.3-1.9 3.3 1 3.9c.2.8-.3 1.7-1.1 1.9-.4.1-.9 0-1.2-.2-.4-.2-.6-.5-.7-1l-.2-.8-1.6 3 1.7 6.4c.2.8-.3 1.7-1.1 1.9-.4.1-.9 0-1.2-.2-.4-.2-.6-.5-.7-1l-1-3.3-2.5 4.4c-.4.8-1.4 1-2.2.6-.8-.4-1-1.4-.6-2.2l2.5-4.4-3.3.9c-.4.1-.9 0-1.2-.2-.4-.2-.6-.5-.7-1-.2-.8.3-1.7 1.1-1.9l6.4-1.7 1.6-2.7-.8.3c-.4.1-.9 0-1.2-.2-.4-.2-.6-.5-.7-1-.2-.8.3-1.7 1.1-1.9l3.8-1 1.9-3.3h-3.8l-2.8 2.8c-.5.5-1.3.6-1.9.3l-.3-.3c-.6-.6-.6-1.6 0-2.2l.6-.6h-3.1l-4.7 4.7c-.5.5-1.3.6-1.9.3l-.3-.3c-.6-.6-.6-1.6 0-2.2l2.4-2.4h-5c-.3 0-.6-.1-.8-.2-.5-.3-.8-.8-.8-1.4 0-.9.7-1.6 1.6-1.6h5l-2.4-2.4c-.6-.6-.6-1.6 0-2.2.6-.6 1.6-.6 2.2 0l4.7 4.7h3.1l-.6-.6c-.6-.6-.6-1.6 0-2.2.6-.6 1.6-.6 2.2 0l2.8 2.8h3.9l-1.9-3.3-3.9-1c-.1 0-.3-.1-.4-.2-.6-.3-.9-1.1-.7-1.8.2-.8 1.1-1.3 1.9-1.1l.8.2-1.6-2.7-6.4-1.7c-.1 0-.3-.1-.4-.2-.6-.4-.9-1.1-.7-1.8.2-.8 1.1-1.3 1.9-1.1l3.3.9-2.5-4.4c-.4-.8-.2-1.7.6-2.2.8-.4 1.7-.2 2.2.6l2.5 4.4.9-3.3c.2-.8 1.1-1.3 1.9-1.1.8.2 1.4 1.1 1.1 1.9L168 47l1.6 2.7.2-.8c.2-.8 1.1-1.3 1.9-1.1s1.3 1.1 1.1 1.9l-1 3.9 1.9 3.3 1.9-3.3-1-3.9c-.2-.8.3-1.7 1.1-1.9s1.7.3 1.9 1.1l.2.8 1.6-2.7-1.7-6.4c-.2-.8.3-1.7 1.1-1.9.8-.2 1.7.3 1.9 1.1l.9 3.3 2.5-4.4c.4-.8 1.4-1 2.2-.6.8.4 1 1.4.6 2.2l-2.5 4.4 3.3-.9c.8-.2 1.7.3 1.9 1.1.2.8-.3 1.7-1.1 1.9l-6.4 1.7-1.6 2.7.8-.2c.8-.2 1.7.3 1.9 1.1.2.8-.3 1.7-1.1 1.9l-3.8 1-1.9 3.3h3.8l2.8-2.8c.6-.6 1.6-.6 2.2 0 .6.6.6 1.6 0 2.2l-.6.6h3.1l4.7-4.7c.6-.6 1.6-.6 2.2 0 .6.6.6 1.6 0 2.2l-2.4 2.4h5c.9 0 1.6.7 1.6 1.6 0 .9-.7 1.6-1.6 1.6h-5l2.4 2.4c.6.6.6 1.6 0 2.2-.5.5-1.3.6-1.9.3l-.3-.3-4.7-4.7h-3.1l.6.6c.6.6.6 1.6 0 2.2-.5.5-1.3.6-1.9.3l-.3-.3-2.8-2.8h-3.8l1.9 3.3 3.9 1c.8.2 1.3 1.1 1.1 1.9-.2.8-1.1 1.3-1.9 1.1l-.8-.2 1.6 2.7 6.4 1.7c.8.2 1.3 1.1 1.1 1.9-.2.8-1.1 1.3-1.9 1.1l-3.3-.9 2.5 4.4c.4.8.2 1.7-.6 2.2-.5.3-1.1.3-1.6 0-.2-.1-.4-.3-.6-.6l-2.5-3.9-.9 3.3c-.2.8-1.1 1.3-1.9 1.1-.1 0-.3-.1-.4-.2-.6-.2-1-.9-.8-1.7z"/><linearGradient id="SVGID_2_" gradientUnits="userSpaceOnUse" x1="451.448" y1="151.548" x2="456.282" y2="137.853" gradientTransform="rotate(180 375.733 127)"><stop offset="0" stop-color="#404B71"/><stop offset=".604" stop-color="#3C476E"/><stop offset="1" stop-color="#354169"/></linearGradient><path class="st5" d="M298.8 114.8l.5-1.9-.5-.8-.1.2c-.1.3-.3.4-.6.3h-.1c-.2-.1-.3-.3-.2-.5l.3-1.2-.6-1-.6 1 .3 1.2c.1.3-.1.5-.3.6h-.4c-.1-.1-.2-.2-.2-.3l-.1-.2-.5.8.5 1.9c.1.3-.1.5-.3.6h-.4c-.1-.1-.2-.2-.2-.3l-.3-1-.8 1.3c-.1.2-.4.3-.7.2-.2-.1-.3-.4-.2-.7l.8-1.3-1 .3h-.4c-.1-.1-.2-.2-.2-.3-.1-.3.1-.5.3-.6l1.9-.5.5-.8-.2.1h-.4c-.1-.1-.2-.2-.2-.3-.1-.3.1-.5.3-.6l1.2-.3.6-1h-1.2l-.9.9c-.2.2-.4.2-.6.1 0 0-.1 0-.1-.1-.2-.2-.2-.5 0-.7l.2-.2h-.9l-1.4 1.4c-.2.2-.4.2-.6.1 0 0-.1 0-.1-.1-.2-.2-.2-.5 0-.7l.7-.7h-1.5c-.1 0-.2 0-.2-.1-.1-.1-.2-.2-.2-.4 0-.3.2-.5.5-.5h1.5l-.7-.7c-.2-.2-.2-.5 0-.7.2-.2.5-.2.7 0l1.4 1.4h.9l-.2-.2c-.2-.2-.2-.5 0-.7.2-.2.5-.2.7 0l.9.9h1.2l-.6-1-1.2-.3h-.1c-.2-.1-.3-.3-.2-.5.1-.3.3-.4.6-.3l.2.1-.5-.8-1.9-.5h-.1c-.2-.1-.3-.3-.2-.5.1-.3.3-.4.6-.3l1 .3-.8-1.3c-.1-.2-.1-.5.2-.7.2-.1.5-.1.7.2l.8 1.3.3-1c.1-.3.3-.4.6-.3s.4.3.3.6l-.5 1.9.5.8.1-.2c.1-.3.3-.4.6-.3.3.1.4.3.3.6l-.3 1.2.6 1 .6-1-.3-1.2c-.1-.3.1-.5.3-.6.3-.1.5.1.6.3l.1.2.5-.8-.5-1.9c-.1-.3.1-.5.3-.6.3-.1.5.1.6.3l.3 1 .8-1.3c.1-.2.4-.3.7-.2.2.1.3.4.2.7l-.8 1.3 1-.3c.3-.1.5.1.6.3.1.3-.1.5-.3.6l-1.9.5-.5.8.2-.1c.3-.1.5.1.6.3.1.3-.1.5-.3.6l-1.2.3-.6 1h1.2l.9-.9c.2-.2.5-.2.7 0 .2.2.2.5 0 .7l-.2.2h.9l1.4-1.4c.2-.2.5-.2.7 0 .2.2.2.5 0 .7l-.7.7h1.5c.3 0 .5.2.5.5s-.2.5-.5.5h-1.5l.7.7c.2.2.2.5 0 .7-.2.2-.4.2-.6.1 0 0-.1 0-.1-.1l-1.4-1.4H301l.2.2c.2.2.2.5 0 .7-.2.2-.4.2-.6.1 0 0-.1 0-.1-.1l-.9-.9h-1.2l.6 1 1.2.3c.3.1.4.3.3.6-.1.3-.3.4-.6.3l-.2-.1.5.8 1.9.5c.3.1.4.3.3.6-.1.3-.3.4-.6.3l-1-.3.8 1.3c.1.2.1.5-.2.7-.2.1-.3.1-.5 0-.1 0-.1-.1-.2-.2l-.7-1.7-.3 1c-.1.3-.3.4-.6.3h-.1c-.1-.1-.2-.3-.2-.5z"/><linearGradient id="SVGID_3_" gradientUnits="userSpaceOnUse" x1="386.417" y1="126.938" x2="396.837" y2="97.414" gradientTransform="rotate(180 375.733 127)"><stop offset="0" stop-color="#404B71"/><stop offset=".604" stop-color="#3C476E"/><stop offset="1" stop-color="#354169"/></linearGradient><path class="st6" d="M362.5 153.7l1.1-4.2-1-1.8-.1.5c-.1.6-.7.9-1.3.7-.1 0-.2-.1-.2-.1-.4-.2-.6-.7-.5-1.2l.7-2.5-1.2-2.2-1.2 2.2.7 2.5c.1.6-.2 1.1-.7 1.3-.3.1-.6 0-.8-.1-.2-.1-.4-.4-.5-.6l-.1-.5-1 1.8 1.1 4.2c.1.6-.2 1.1-.7 1.3-.3.1-.6 0-.8-.1-.2-.1-.4-.4-.5-.6l-.6-2.2-1.6 2.8c-.3.5-.9.7-1.4.4s-.7-.9-.4-1.4l1.6-2.8-2.2.6c-.3.1-.6 0-.8-.1s-.4-.4-.5-.6c-.1-.6.2-1.1.7-1.3l4.2-1.1 1-1.8-.5.1c-.3.1-.6 0-.8-.1-.2-.1-.4-.4-.5-.6-.1-.6.2-1.1.7-1.3l2.5-.7 1.2-2.2h-2.5l-1.8 1.8c-.3.3-.9.4-1.2.2-.1 0-.1-.1-.2-.2-.4-.4-.4-1.1 0-1.5l.4-.4h-2l-3 3c-.3.3-.9.4-1.2.2-.1 0-.1-.1-.2-.2-.4-.4-.4-1.1 0-1.5l1.6-1.6h-3.3c-.2 0-.4 0-.5-.1-.3-.2-.5-.5-.5-.9 0-.6.5-1 1-1h3.3l-1.6-1.6c-.4-.4-.4-1.1 0-1.5.4-.4 1.1-.4 1.5 0l3 3h2l-.4-.4c-.4-.4-.4-1.1 0-1.5s1.1-.4 1.5 0l1.8 1.8h2.5l-1.2-2.2-2.5-.7c-.1 0-.2-.1-.2-.1-.4-.2-.6-.7-.5-1.2.1-.6.7-.9 1.3-.7l.5.1-1-1.8-4.2-1.1c-.1 0-.2-.1-.2-.1-.4-.2-.6-.7-.5-1.2.1-.6.7-.9 1.3-.7l2.2.6-1.6-2.8c-.3-.5-.1-1.1.4-1.4s1.1-.1 1.4.4l1.6 2.8.6-2.2c.1-.6.7-.9 1.3-.7.5.1.9.7.7 1.3l-1.1 4.2 1 1.8.1-.5c.1-.6.7-.9 1.3-.7.6.2.9.7.7 1.3l-.7 2.5 1.2 2.2 1.2-2.2-.7-2.5c-.1-.6.2-1.1.7-1.3.6-.1 1.1.2 1.3.7l.1.5 1-1.8-1.1-4.2c-.1-.6.2-1.1.7-1.3.6-.1 1.1.2 1.3.7l.6 2.2 1.6-2.8c.3-.5.9-.7 1.4-.4.5.3.7.9.4 1.4l-1.6 2.8 2.2-.6c.6-.1 1.1.2 1.3.7.1.6-.2 1.1-.7 1.3l-4.2 1.1-1 1.8.5-.1c.6-.1 1.1.2 1.3.7.1.6-.2 1.1-.7 1.3l-2.5.7-1.2 2.2h2.5l1.8-1.8c.4-.4 1.1-.4 1.5 0s.4 1.1 0 1.5l-.4.4h2l3-3c.4-.4 1.1-.4 1.5 0 .4.4.4 1.1 0 1.5l-1.6 1.6h3.3c.6 0 1 .5 1 1 0 .6-.5 1-1 1h-3.3l1.6 1.6c.4.4.4 1.1 0 1.5-.3.3-.9.4-1.2.2-.1 0-.1-.1-.2-.2l-3-3h-2l.4.4c.4.4.4 1.1 0 1.5-.3.3-.9.4-1.2.2-.1 0-.2-.1-.2-.2l-1.8-1.8h-2.5l1.2 2.2 2.5.7c.5.2.9.7.7 1.3-.1.6-.7.9-1.3.7l-.5-.1 1 1.8 4.2 1.1c.5.2.9.7.7 1.3-.1.6-.7.9-1.3.7l-2.2-.6 1.6 2.8c.3.5.1 1.1-.4 1.4-.3.2-.7.2-1 0-.2-.1-.3-.2-.4-.4l-1.6-2.8-.6 2.2c-.1.6-.7.9-1.3.7-.1 0-.2-.1-.3-.1-.7-.3-.9-.8-.8-1.2z"/><linearGradient id="SVGID_4_" gradientUnits="userSpaceOnUse" x1="503.739" y1="124.643" x2="532.837" y2="56.541" gradientTransform="rotate(180 375.733 127)"><stop offset="0" stop-color="#404B71"/><stop offset=".604" stop-color="#3C476E"/><stop offset="1" stop-color="#354169"/></linearGradient><path class="st7" d="M198.3 161.9c0 .7.4 1.4 1 1.7.3.2.6.3 1 .3h6.3l-3 3c-.8.8-.8 2 0 2.8.1.1.3.2.4.3.8.4 1.8.3 2.4-.3l5.9-5.9h3.9l-1.7 1.7c-.8.8-.8 2 0 2.8.1.1.3.2.4.3.8.4 1.8.3 2.4-.3l4.6-4.6h3.8l-.1.1c-.8.8-.8 2 0 2.8.2.5.5.8.9 1.1s1 .3 1.5.2h.2l-1.9 3.3-6.2 1.7c-1.1.3-1.7 1.4-1.4 2.4.1.5.5 1 .9 1.2.4.3 1 .3 1.5.2l2.4-.6-2 3.4-8 2.1c-1.1.3-1.7 1.4-1.4 2.4.1.5.5 1 .9 1.2.4.3 1 .3 1.5.2l4.2-1.1-3.2 5.5c-.5 1-.2 2.2.7 2.7 1 .5 2.2.2 2.7-.7l3.2-5.5 1.1 4.2c.1.5.5 1 .9 1.2.4.3 1 .3 1.5.2 1.1-.3 1.7-1.4 1.4-2.4l-2.1-8 2-3.4.6 2.4c.1.5.5 1 .9 1.2.4.3 1 .3 1.5.2 1.1-.3 1.7-1.4 1.4-2.4l-1.7-6.2 1.9-3.3v.2c.1.5.5 1 .9 1.2s.9.3 1.4.2c1 .2 2.1-.4 2.4-1.4v-.2l1.9 3.3-1.7 6.2c-.2.9.2 1.8.9 2.2.1.1.3.2.5.2 1.1.3 2.2-.3 2.4-1.4l.6-2.4 2 3.4-2.1 8c-.2.9.2 1.8.9 2.2.1.1.3.2.5.2 1.1.3 2.2-.3 2.4-1.4l1.1-4.2 3.2 5.5c.2.3.4.6.7.7.6.3 1.4.4 2 0 1-.5 1.3-1.8.7-2.7l-3.2-5.5 4.2 1.1c1.1.3 2.2-.3 2.4-1.4.3-1.1-.4-2.1-1.4-2.4l-8-2.1-2-3.4 2.4.6c1.1.3 2.2-.3 2.4-1.4.3-1.1-.4-2.2-1.4-2.4l-6.2-1.7-1.9-3.3h.2c1 .3 2.1-.3 2.4-1.3.7-.8.7-2-.1-2.7l-.1-.1h3.8l4.6 4.6c.1.1.3.2.4.3.8.4 1.8.3 2.4-.3.8-.8.8-2 0-2.8l-1.7-1.7h3.9l5.9 5.9c.1.1.3.2.4.3.8.4 1.8.3 2.4-.3.8-.8.8-2 0-2.8l-3-3h6.3c1.1 0 2-.9 2-2s-.9-2-2-2H261l3-3c.8-.8.8-2 0-2.8s-2-.8-2.8 0l-5.9 5.9h-3.9l1.7-1.7c.8-.8.8-2 0-2.8s-2-.8-2.8 0l-4.6 4.6h-3.8l.1-.1c.8-.8.8-2 0-2.8-.3-1-1.4-1.5-2.4-1.3h-.2l1.9-3.3 6.2-1.7c1.1-.3 1.7-1.4 1.4-2.4-.3-1.1-1.4-1.7-2.4-1.4l-2.4.6 2-3.4 8-2.1c1.1-.3 1.7-1.4 1.4-2.4-.3-1.1-1.4-1.7-2.4-1.4l-4.2 1.1 3.2-5.5c.5-1 .2-2.2-.7-2.7-1-.5-2.2-.2-2.7.7l-3.2 5.5-1.1-4.2c-.3-1.1-1.4-1.7-2.4-1.4-1.1.3-1.7 1.4-1.4 2.4l2.1 8-2 3.4-.6-2.4c-.3-1.1-1.4-1.7-2.4-1.4-1.1.3-1.7 1.4-1.4 2.4l1.7 6.2-1.9 3.3v-.2c-.3-1-1.3-1.6-2.3-1.4-1-.2-2.1.4-2.4 1.4v.2l-1.9-3.3 1.7-6.2c.3-1.1-.4-2.2-1.4-2.4-1.1-.3-2.2.3-2.4 1.4l-.6 2.4-2-3.4 2.1-8c.3-1.1-.4-2.1-1.4-2.4-1.1-.3-2.2.3-2.4 1.4l-1.1 4.2-3.2-5.5c-.6-1-1.8-1.3-2.7-.7-1 .5-1.3 1.8-.7 2.7l3.2 5.5-4.2-1.1c-1.1-.3-2.2.3-2.4 1.4-.2.9.2 1.8.9 2.2.1.1.3.2.5.2l8 2.1 2 3.4-2.4-.6c-1.1-.3-2.2.3-2.4 1.4-.2.9.2 1.8.9 2.2.1.1.3.2.5.2l6.2 1.7 1.9 3.3h-.2c-1-.3-2.1.3-2.4 1.3-.7.8-.7 2 .1 2.7l.1.1h-3.8l-4.6-4.6c-.8-.8-2-.8-2.8 0-.8.8-.8 2 0 2.8l1.7 1.7h-3.9l-5.9-5.9c-.8-.8-2-.8-2.8 0-.8.8-.8 2 0 2.8l3 3h-6.3c-1.1 0-2 .9-2 2zm33.4-1.3c.7-1.2 2.3-1.6 3.5-.9 1.2.7 1.6 2.3.9 3.5-.7 1.2-2.3 1.6-3.5.9s-1.6-2.3-.9-3.5z"/><linearGradient id="SVGID_5_" gradientUnits="userSpaceOnUse" x1="463.031" y1="208.958" x2="475.052" y2="180.816" gradientTransform="rotate(180 375.733 127)"><stop offset="0" stop-color="#404B71"/><stop offset=".604" stop-color="#3C476E"/><stop offset="1" stop-color="#354169"/></linearGradient><path class="st8" d="M266.1 60.1c0 .4.3.7.7.7h1l-.4.5c-.2.3-.1.8.2 1 .1.1.3.1.4.1.2 0 .5-.1.6-.3l.9-1.3h1.5l-2 2.8c-.2.3-.1.8.2 1 .1.1.3.1.4.1.2 0 .5-.1.6-.3l2.6-3.7h1.3l-1.2 1.7c-.2.3-.1.8.2 1 .1.1.3.1.4.1.2 0 .5-.1.6-.3l1.7-2.5h.9l-.4.5c-.2.3-.1.8.2 1 .1.1.3.1.4.1.2 0 .5-.1.6-.3l.9-1.3h.3l.8 1.5-.2.3-1.6.1c-.4 0-.7.4-.7.8s.4.7.7.7h.1l.6-.1-.4.8-3 .3c-.4 0-.7.4-.7.8s.4.7.7.7h.1l2-.2-.7 1.1-4.5.4c-.4 0-.7.4-.7.8s.4.7.7.7h.1l3.4-.3-.7 1.3-1.6.1c-.4 0-.7.4-.7.8s.4.7.7.7h.1l.6-.1-.5.9c-.2.3-.1.8.3 1 .1.1.2.1.4.1.3 0 .5-.1.6-.4l.5-.9.3.6c.1.3.4.4.7.4.1 0 .2 0 .3-.1.4-.2.5-.6.4-1l-.7-1.5.7-1.3 1.5 3.1c.1.3.4.4.7.4.1 0 .2 0 .3-.1.4-.2.5-.6.4-1l-1.9-4.1.7-1.1.9 1.8c.1.3.4.4.7.4.1 0 .2 0 .3-.1.4-.2.5-.6.4-1l-1.3-2.8.4-.8.3.6c.1.3.4.4.7.4.1 0 .2 0 .3-.1.4-.2.5-.6.4-1l-.7-1.5.1.2h1.7l.2.3-.7 1.5c-.2.4 0 .8.4 1 .1 0 .2.1.3.1.3 0 .5-.2.7-.4l.3-.6.4.8-1.3 2.8c-.2.4 0 .8.4 1 .1 0 .2.1.3.1.3 0 .5-.2.7-.4l.9-1.8.7 1.1-1.9 4.1c-.2.4 0 .8.4 1 .1 0 .2.1.3.1.3 0 .5-.2.7-.4l1.5-3.1.7 1.3-.7 1.5c-.2.4 0 .8.4 1 .1 0 .2.1.3.1.3 0 .5-.2.7-.4l.3-.6.5.9c.1.2.4.4.6.4.1 0 .2 0 .4-.1.3-.2.5-.6.3-1l-.5-.9.6.1h.1c.4 0 .7-.3.7-.7s-.3-.8-.7-.8l-1.6-.1-.7-1.3 3.4.3h.1c.4 0 .7-.3.7-.7s-.3-.8-.7-.8l-4.5-.4-.7-1.1 2 .2h.1c.4 0 .7-.3.7-.7 0-.4-.3-.8-.7-.8l-3-.3-.4-.8.6.1h.1c.4 0 .7-.3.7-.7 0-.4-.3-.8-.7-.8l-1.6-.1-.2-.3.8-1.5h.3l.9 1.3c.1.2.4.3.6.3.1 0 .3 0 .4-.1.3-.2.4-.7.2-1l-.4-.5h.9l1.7 2.5c.1.2.4.3.6.3.1 0 .3 0 .4-.1.3-.2.4-.7.2-1l-1.2-1.7h1.3l2.6 3.7c.1.2.4.3.6.3.1 0 .3 0 .4-.1.3-.2.4-.7.2-1l-2-2.8h1.5l.9 1.3c.1.2.4.3.6.3.1 0 .3 0 .4-.1.3-.2.4-.7.2-1l-.4-.5h1c.4 0 .7-.3.7-.7s-.3-.7-.7-.7h-1l.4-.5c.2-.3.1-.8-.2-1-.3-.2-.8-.1-1 .2l-.9 1.3h-1.5l2-2.8c.2-.3.1-.8-.2-1s-.8-.1-1 .2L291 60h-1.3l1.2-1.7c.2-.3.1-.8-.2-1-.3-.2-.8-.1-1 .2L288 60h-.9l.4-.5c.2-.3.1-.8-.2-1-.3-.2-.8-.1-1 .2l-.9 1.3h-.3l-.8-1.5.2-.3 1.6-.1c.4 0 .7-.4.7-.8s-.4-.7-.8-.7l-.6.1.4-.8 3-.3c.4 0 .7-.4.7-.8s-.4-.7-.8-.7l-2 .2.7-1.1 4.5-.4c.4 0 .7-.4.7-.8s-.4-.7-.8-.7l-3.4.3.7-1.3 1.6-.1c.4 0 .7-.4.7-.8s-.4-.7-.8-.7l-.6.1.5-.9c.2-.3.1-.8-.3-1-.3-.2-.8-.1-1 .3l-.5.9-.7-1.1c-.2-.4-.6-.5-1-.4-.4.2-.5.6-.4 1l.7 1.5-.7 1.3-1.5-3.1c-.2-.4-.6-.5-1-.4-.4.2-.5.6-.4 1l1.9 4.1-.7 1.1-.9-1.8c-.2-.4-.6-.5-1-.3s-.5.6-.4 1l1.3 2.8-.4.8-.3-.6c-.2-.4-.6-.5-1-.3s-.5.6-.4 1l.7 1.5-.2.3H281l-.2-.3.7-1.5c.2-.4 0-.8-.4-1s-.8 0-1 .3l-.3.6-.4-.8 1.3-2.8c.2-.4 0-.8-.4-1s-.8 0-1 .4l-.9 1.8-.7-1.1 1.9-4.1c.2-.4 0-.8-.4-1-.4-.2-.8 0-1 .3l-1.5 3.1-.7-1.3.7-1.5c.2-.4 0-.8-.4-1-.4-.2-.8 0-1 .4l-.3.6-.5-.9c-.2-.3-.6-.5-1-.3-.3.2-.5.6-.3 1l.5.9-.6-.1c-.4 0-.8.3-.8.7s.3.8.7.8l1.6.1.7 1.3-3.4-.3c-.4 0-.8.3-.8.7s.3.8.7.8l4.5.4.7 1.1-2-.2c-.4 0-.8.3-.8.7s.3.8.7.8l3 .3.4.8-.6-.1c-.4 0-.8.3-.8.7s.3.8.7.8l1.6.1.2.3-.8 1.5h-.3l-.9-1.3c-.2-.3-.7-.4-1-.2s-.4.7-.2 1l.4.5h-.9L274 57c-.2-.3-.7-.4-1-.2s-.4.7-.2 1l1.2 1.7h-1.3l-2.6-3.7c-.2-.3-.7-.4-1-.2-.3.2-.4.7-.2 1l2 2.8h-1.5l-.9-1.3c-.2-.3-.7-.4-1-.2s-.4.7-.2 1l.4.5h-1c-.3-.1-.6.3-.6.7zm14.9 1.4l-.8-1.5.8-1.5h1.7l.8 1.5-.8 1.5H281z"/><circle class="st2" cx="254.1" cy="41.4" r="3.4"/><circle class="st2" cx="379.8" cy="105.7" r="3.4"/><circle class="st2" cx="374.8" cy="118.7" r="1.5"/><circle class="st2" cx="386.6" cy="126.6" r="1.5"/><circle class="st2" cx="266.1" cy="38" r="1.5"/><circle class="st2" cx="238.5" cy="73.8" r="3.8"/><circle class="st2" cx="209.5" cy="197.6" r="3.8"/><circle class="st2" cx="217.6" cy="83.7" r="2.8"/><circle class="st2" cx="223" cy="92.2" r="1.5"/><circle class="st2" cx="249.1" cy="82.2" r="1.5"/><circle class="st2" cx="169.6" cy="105.7" r="1.5"/><circle class="st2" cx="200.5" cy="83.7" r="1.5"/><circle class="st2" cx="206.5" cy="95.2" r="1.5"/><circle class="st2" cx="208" cy="83.6" r="1.5"/><circle class="st2" cx="200.5" cy="73.8" r="1.5"/><circle class="st2" cx="160.3" cy="85.2" r="1.5"/><circle class="st2" cx="155.8" cy="79.2" r="1.5"/><circle class="st2" cx="203.5" cy="189.1" r="1.5"/><circle class="st2" cx="192.2" cy="187.6" r="1.5"/><circle class="st2" cx="199" cy="196.1" r="1.5"/><circle class="st2" cx="231" cy="72.3" r="1.5"/><circle class="st2" cx="224.5" cy="79.2" r="1.5"/></g></g></svg>