<svg xmlns="http://www.w3.org/2000/svg" viewBox="0 0 274.5 202.5"><style>.st0{fill:#519E38;} .st1{fill:none;stroke:#FFFFFF;stroke-width:4;stroke-miterlimit:10;} .st2{fill:#FFFFFF;} .st3{fill:#EFEFEF;}</style><g id="vanna_1"><path class="st0" d="M50.3 49.2h5.3v105.1h-5.3zM233.4 49.2l-.1 104.8s1.3 11.2-7.7 11.2H58.3s-5-.3-5-5.8 166.2-2.7 166.2-2.7l7-18.8 1.4-70.8.3-18.1h5.2z"/><path class="st0" d="M237.3 46.5c0 2.2-1.8 4-4 4h-183c-2.2 0-4-1.8-4-4s1.8-4 4-4h183c2.2 0 4 1.8 4 4z"/><path class="st1" d="M228.3 155.8c0 2-1.6 3.7-3.7 3.7H54c-2 0-3.7-1.6-3.7-3.7V49.2c0-2 1.6-3.7 3.7-3.7h170.6c2 0 3.7 1.6 3.7 3.7v106.6z"/><path class="st2" d="M50.3 95.3H228v64.1H50.3z"/><path class="st3" d="M234.3 43.5c0 2.2-1.8 4-4 4h-183c-2.2 0-4-1.8-4-4s1.8-4 4-4h183c2.2 0 4 1.8 4 4z"/><path class="st2" d="M67.1 81.4c0 1.7-1.4 3.1-3.1 3.1-1.7 0-3.1-1.4-3.1-3.1V58.6c0-1.7 1.4-3.1 3.1-3.1 1.7 0 3.1 1.4 3.1 3.1v22.8z"/></g></svg>