<svg id="Layer_1" xmlns="http://www.w3.org/2000/svg" viewBox="-63 21 285 236"><style>.st0{fill:#519E38;} .st1{fill:#FFFFFF;} .st2{fill:#EDEDED;} .st3{fill:#CA0000;} .st4{fill:#B00000;} .st5{opacity:0.6;fill:none;stroke:#FFFFFF;stroke-width:2;stroke-linecap:round;enable-background:new ;} .st6{fill:none;} .st7{fill:#FCF3E0;}</style><g id="thermometr"><path id="XMLID_37_" class="st0" d="M178.5 102.4V47.7c0-.5-.1-.9-.2-1.4 0 0-.8-5.5-6.2-6.1 0 0-3.8-.1-6 1.1-2.2 1.2 6.9 5.4 6.9 5.4s1.7.9 2.5 1.3v56.1l.8.4c.1 0 6.9 3.9 6.4 11.5-.4 5.9-3.8 10.3-8.9 12l-6.3-1.8s-7.5-.2-4.8 2.8c1.7 1.9 4.6 2.5 6.5 2.6.2.1.4.1.6.1.3 0 .6 0 .9-.1h.3c8.1-.7 14.1-6.9 14.6-15.3.6-7.9-5-12.4-7.1-13.9z"/><path id="XMLID_36_" class="st1" d="M175.5 103.1V48.2c0-4-3.2-7.2-7.2-7.2s-7.2 3.2-7.2 7.2V103c-4.4 2.5-7.3 7.2-7.3 12.6 0 8 6.5 14.4 14.4 14.4 8 0 14.4-6.5 14.4-14.4.1-5.3-2.8-10-7.1-12.5z"/><path id="XMLID_35_" class="st2" d="M175.5 103.1V48.2c0-4-3.2-7.2-7.2-7.2h-.1v89c8 0 14.4-6.5 14.4-14.4.1-5.3-2.8-10-7.1-12.5z"/><path id="XMLID_34_" class="st3" d="M172.8 105.3V60.9h-9.5v44.6c-3.9 1.9-6.6 5.8-6.6 10.4 0 6.4 5.2 11.5 11.5 11.5 6.4 0 11.5-5.2 11.5-11.5.1-4.7-2.8-8.8-6.9-10.6z"/><path id="XMLID_33_" class="st4" d="M172.8 105.3V60.9h-4.5v66.5c6.4 0 11.5-5.2 11.5-11.5 0-4.7-2.9-8.8-7-10.6z"/><path id="XMLID_32_" class="st5" d="M161.3 118.3s1.2 2.8 4 4"/><path id="XMLID_31_" class="st1" d="M169.7 68.1h-2.9c-.1 0-.2-.1-.2-.2s.1-.2.2-.2h2.9c.1 0 .2.1.2.2.1.1 0 .2-.2.2z"/><path id="XMLID_30_" class="st1" d="M169.7 69.8h-2.9c-.1 0-.2-.1-.2-.2s.1-.2.2-.2h2.9c.1 0 .2.1.2.2s0 .2-.2.2z"/><path id="XMLID_29_" class="st1" d="M171.5 71.4H165c-.1 0-.2-.1-.2-.2s.1-.2.2-.2h6.5c.1 0 .2.1.2.2s-.1.2-.2.2z"/><path id="XMLID_28_" class="st1" d="M169.7 73.1h-2.9c-.1 0-.2-.1-.2-.2s.1-.2.2-.2h2.9c.1 0 .2.1.2.2s0 .2-.2.2z"/><path id="XMLID_27_" class="st1" d="M169.7 74.7h-2.9c-.1 0-.2-.1-.2-.2s.1-.2.2-.2h2.9c.1 0 .2.1.2.2s0 .2-.2.2z"/><path id="XMLID_26_" class="st1" d="M171.5 76.4H165c-.1 0-.2-.1-.2-.2s.1-.2.2-.2h6.5c.1 0 .2.1.2.2s-.1.2-.2.2z"/><path id="XMLID_25_" class="st1" d="M169.7 78h-2.9c-.1 0-.2-.1-.2-.2s.1-.2.2-.2h2.9c.1 0 .2.1.2.2s0 .2-.2.2z"/><path id="XMLID_24_" class="st1" d="M169.7 79.6h-2.9c-.1 0-.2-.1-.2-.2s.1-.2.2-.2h2.9c.1 0 .2.1.2.2s0 .2-.2.2z"/><path id="XMLID_23_" class="st1" d="M171.5 81.3H165c-.1 0-.2-.1-.2-.2s.1-.2.2-.2h6.5c.1 0 .2.1.2.2s-.1.2-.2.2z"/><path id="XMLID_22_" class="st1" d="M169.7 82.9h-2.9c-.1 0-.2-.1-.2-.2s.1-.2.2-.2h2.9c.1 0 .2.1.2.2.1.1 0 .2-.2.2z"/><path id="XMLID_21_" class="st1" d="M169.7 84.6h-2.9c-.1 0-.2-.1-.2-.2s.1-.2.2-.2h2.9c.1 0 .2.1.2.2.1.1 0 .2-.2.2z"/><path id="XMLID_20_" class="st1" d="M171.5 86.2H165c-.1 0-.2-.1-.2-.2s.1-.2.2-.2h6.5c.1 0 .2.1.2.2s-.1.2-.2.2z"/><g id="thermometer_x5F_mask_2_"><path id="XMLID_9_" class="st6" d="M172.8 105.3V60.9h-9.5v44.6c-3.9 1.9-6.6 5.8-6.6 10.4 0 6.4 5.2 11.5 11.5 11.5 6.4 0 11.5-5.2 11.5-11.5.1-4.7-2.8-8.8-6.9-10.6z"/></g></g><g id="mask"><path id="XMLID_15_" class="st6" d="M172.8 105.3V60.9h-9.5v44.6c-3.9 1.9-6.6 5.8-6.6 10.4 0 6.4 5.2 11.5 11.5 11.5 6.4 0 11.5-5.2 11.5-11.5.1-4.7-2.8-8.8-6.9-10.6z"/></g><circle class="st0" cx="198.3" cy="141.6" r="6.1"/><path class="st0" d="M192.2 169.9c0-6.1-3.7-11.3-9-13.5.3-.7.5-1.5.5-2.4 0-3.4-2.7-6.1-6.1-6.1-3.4 0-6.1 2.7-6.1 6.1 0 .9.2 1.7.5 2.4-1.3.6-2.6 1.3-3.7 2.2-5.3-5.8-13-9.5-21.5-9.5h-.1c-.2-2.9-.9-5.6-2-8.1 5.1-.6 9.1-4.9 9.1-10.2 0-5.7-4.6-10.3-10.3-10.3-5 0-9.2 3.6-10.1 8.4-2.7-1.4-5.7-2.3-8.8-2.7 2-1.9 3.3-4.6 3.3-7.6 0-5.7-4.6-10.3-10.3-10.3-4.3 0-8 2.7-9.6 6.5-5.2-4.7-12.1-7.7-19.7-7.7-11.1 0-20.8 6.2-25.7 15.4-.9-2.3-3.1-4-5.7-4-3.4 0-6.1 2.7-6.1 6.1 0 1.5.6 2.9 1.5 3.9-4.2 2.1-7.8 5.3-10.3 9.3-1-6.7-6.8-11.9-13.8-11.9-7.7 0-14 6.3-14 14 0 2.7.8 5.2 2.1 7.3-.9-.1-1.8-.2-2.7-.2-9.8 0-18 6.8-20.2 16-2-1.1-4.4-1.7-6.8-1.7-8.1 0-14.6 6.5-14.6 14.6s6.5 14.6 14.6 14.6c2.3 0 4.4-.5 6.3-1.5 0 .5-.1 1-.1 1.5 0 16.1 13.1 29.2 29.2 29.2 5.1 0 9.9-1.3 14.1-3.6.6 2.8 3 4.8 5.9 4.8 3.4 0 6.1-2.7 6.1-6.1 0-.4 0-.7-.1-1.1 2.8.7 5.7 1.1 8.7 1.1 3.2 0 6.2-.4 9.1-1.2 4.6 10 14.7 16.9 26.5 16.9 16.1 0 29.2-13.1 29.2-29.2 0-.8-.1-1.5-.1-2.3.9-.7 1.8-1.4 2.6-2.3 5.4 6.5 13.4 10.6 22.5 10.6 8.9 0 16.8-4 22.2-10.2 2 2.6 5.1 4.2 8.6 4.2 6 0 10.9-4.9 10.9-10.9 0-3.2-1.4-6.1-3.6-8.1 4.6-2.3 7.6-7 7.6-12.4zM29.3 154.2l-.3-.3h.5c0 .1-.1.2-.2.3z"/><circle class="st7" cx="187" cy="130" r="6.1"/><path class="st7" d="M173.5 170.9c4.4-2.5 7.4-7.3 7.4-12.7 0-6.1-3.7-11.3-9-13.5.3-.7.5-1.6.5-2.4 0-3.4-2.7-6.1-6.1-6.1-3.4 0-6.1 2.7-6.1 6.1 0 .9.2 1.7.5 2.4-1.3.5-2.6 1.3-3.7 2.2-5.3-5.8-13-9.5-21.5-9.5h-.1c-.2-2.9-.9-5.6-2-8.1 5.1-.6 9.1-4.9 9.1-10.2 0-5.7-4.6-10.3-10.3-10.3-5 0-9.2 3.6-10.1 8.4-2.7-1.4-5.7-2.3-8.8-2.7 2-1.9 3.3-4.6 3.3-7.6 0-5.7-4.6-10.3-10.3-10.3-4.3 0-8 2.7-9.6 6.5-5.2-4.7-12.1-7.6-19.7-7.6-11.1 0-20.8 6.2-25.7 15.4-.9-2.3-3.1-3.9-5.7-3.9-3.4 0-6.1 2.7-6.1 6.1 0 1.5.5 2.8 1.4 3.9-4.2 2.1-7.8 5.3-10.2 9.3-1-6.7-6.8-11.9-13.8-11.9-7.7 0-14 6.3-14 14 0 2.7.8 5.2 2.1 7.3-.9-.1-1.8-.2-2.7-.2-9.8 0-18 6.8-20.2 16-2-1.1-4.4-1.7-6.8-1.7-8.1 0-14.6 6.5-14.6 14.6s6.5 14.6 14.6 14.6c2.3 0 4.4-.5 6.3-1.4v1.4c0 16.1 13.1 29.2 29.2 29.2 7.8 0 14.8-3 20-8 4.5 2 9.5 3.1 14.7 3.1 3.2 0 6.2-.4 9.1-1.1 4.7 10 14.8 16.9 26.5 16.9 16.1 0 29.2-13.1 29.2-29.2 0-.8 0-1.5-.1-2.3.9-.7 1.8-1.5 2.6-2.3 5.4 6.5 13.4 10.6 22.5 10.6 8.9 0 16.8-4 22.2-10.2 2 2.6 5.1 4.2 8.6 4.2 6 0 10.9-4.9 10.9-10.9.2-3.2-1.2-6.1-3.5-8.1zM17.8 142.3h.5c-.1.1-.2.2-.2.3-.2-.1-.2-.2-.3-.3z"/></svg>