<svg xmlns="http://www.w3.org/2000/svg" viewBox="0 0 331 225"><style>.st0{fill:#519E38;} .st1{fill:#FCF3E0;} .st2{fill:#FFFFFF;}</style><g id="kolba_3"><path class="st0" d="M147.6 81.1H62.4c-8.4 0-15.3-6.9-15.3-15.3v-5.3c0-8.4 6.9-15.3 15.3-15.3h85.2c8.4 0 15.3 6.9 15.3 15.3v5.3c0 8.4-6.9 15.3-15.3 15.3z"/><path class="st1" d="M143.2 76.7H58.1c-8.4 0-15.3-6.9-15.3-15.3v-5.3c0-8.4 6.9-15.3 15.3-15.3h85.2c8.4 0 15.3 6.9 15.3 15.3v5.3c0 8.4-6.9 15.3-15.4 15.3z"/><path class="st0" d="M147.6 137.7H62.4c-8.4 0-15.3-6.9-15.3-15.3v-5.3c0-8.4 6.9-15.3 15.3-15.3h85.2c8.4 0 15.3 6.9 15.3 15.3v5.3c0 8.4-6.9 15.3-15.3 15.3z"/><path class="st1" d="M143.2 133.4H58.1c-8.4 0-15.3-6.9-15.3-15.3v-5.3c0-8.4 6.9-15.3 15.3-15.3h85.2c8.4 0 15.3 6.9 15.3 15.3v5.3c0 8.4-6.9 15.3-15.4 15.3z"/><path class="st0" d="M147.6 192.3H62.4c-8.4 0-15.3-6.9-15.3-15.3v-5.3c0-8.4 6.9-15.3 15.3-15.3h85.2c8.4 0 15.3 6.9 15.3 15.3v5.3c0 8.4-6.9 15.3-15.3 15.3z"/><path class="st1" d="M143.2 188H58.1c-8.4 0-15.3-6.9-15.3-15.3v-5.3c0-8.4 6.9-15.3 15.3-15.3h85.2c8.4 0 15.3 6.9 15.3 15.3v5.3c0 8.4-6.9 15.3-15.4 15.3z"/></g><g id="kolby"><circle class="st0" cx="222.2" cy="133.5" r="11.1"/><circle class="st0" cx="209.3" cy="72.3" r="11.1"/><circle class="st0" cx="256.3" cy="50" r="11.1"/><circle class="st0" cx="240.2" cy="93.5" r="11.1"/><circle class="st0" cx="268.7" cy="93.5" r="11.1"/><circle class="st0" cx="256.5" cy="122.2" r="11.1"/><circle class="st0" cx="271.8" cy="161.5" r="11.1"/><path class="st2" d="M63 53h-6.3c-1.5 0-2.6-1.2-2.6-2.6 0-1.5 1.2-2.6 2.6-2.6H63c1.5 0 2.6 1.2 2.6 2.6.1 1.4-1.1 2.6-2.6 2.6zM63 109.6h-6.3c-1.5 0-2.6-1.2-2.6-2.6 0-1.5 1.2-2.6 2.6-2.6H63c1.5 0 2.6 1.2 2.6 2.6.1 1.4-1.1 2.6-2.6 2.6zM63 164.2h-6.3c-1.5 0-2.6-1.2-2.6-2.6 0-1.5 1.2-2.6 2.6-2.6H63c1.5 0 2.6 1.2 2.6 2.6.1 1.4-1.1 2.6-2.6 2.6z"/><circle class="st1" cx="206.1" cy="69.9" r="11.1"/><circle class="st2" cx="201.4" cy="66.4" r="3.2"/><circle class="st1" cx="253.1" cy="48" r="11.1"/><circle class="st1" cx="237.6" cy="90.7" r="11.1"/><circle class="st1" cx="219.6" cy="130.9" r="11.1"/><circle class="st1" cx="254" cy="119.2" r="11.1"/><circle class="st1" cx="266.2" cy="90.7" r="11.1"/><circle class="st2" cx="232.3" cy="87.4" r="3.2"/><circle class="st2" cx="248.8" cy="44.3" r="3.2"/><circle class="st2" cx="215.2" cy="128.4" r="3.2"/><circle class="st2" cx="261.5" cy="87.4" r="3.2"/><circle class="st2" cx="250.1" cy="116.8" r="3.2"/><circle class="st1" cx="268.3" cy="158.9" r="11.1"/><circle class="st2" cx="262.9" cy="156.4" r="3.2"/></g></svg>