<svg xmlns="http://www.w3.org/2000/svg" viewBox="99 -61 328.2 372"><style>.st0{fill:#519E38;} .st1{fill:#FFFFFF;} .st2{fill:#EFEFEF;} .st3{fill:#54A4AF;} .st4{fill:none;stroke:#FFFFFF;stroke-width:4;stroke-miterlimit:10;} .st5{fill:#F2F2F2;}</style><g id="bath"><path class="st0" d="M289.1 56l-7-18.7-31.7-31.8-1-.9-1.9 2.6 29.1 28.6 3.5 2.4 6.5 20.3z"/><path class="st0" d="M347 42.8c-.7-.5-1.3-.8-1.3-.8l-52.3-17.7-29.8-29.9-1.2-1-1.3 1.3.2 1.9L292.1 27l25.1 8.2 19.4 9.7.7 7.7-12.1 14.3-5.8 5.3S300 92 301.2 93.1c.4.3.8.5 1.3.5 0 0 1.7 1.9 5.4-1.9L341.6 58l2-3.3 1.9-1.9-1.3 2.1 5-4.1c3-4.8-2.2-8-2.2-8z"/><path class="st0" d="M349.3 46.9c1.1 1.1 1.1 2.9 0 3.9l-42.8 42.8c-1.1 1.1-2.9 1.1-3.9 0-1.1-1.1-1.1-2.9 0-3.9l42.8-42.8c1.1-1.1 2.8-1.1 3.9 0zM260.5-7.6L247.6 5.3c-.7.7-.7 1.9 0 2.6s1.9.7 2.6 0L263.1-5c.7-.7.7-1.9 0-2.6-.8-.7-1.9-.7-2.6 0z"/><path class="st1" d="M318.9 36.3l-30.3 30.3 8.2 23.5c1.3 3.7 4.6 4.6 7.4 1.8l40-40c2.8-2.8 1.9-6.1-1.8-7.4l-23.5-8.2z"/><path class="st2" d="M289.6 65.8l28.5-28.5-7.6-2.7-23.7 23.7z"/><path class="st1" d="M258.6-4.1l31.9 31.9c.3.3.6.4 1 .5s.8.2 1.1.3l26.3 9 24 8.2c1.2.4 2 1.1 2.2 1.9s-.2 1.7-1.1 2.6l-41.4 41.4c-.9.9-1.9 1.3-2.6 1.1-.8-.2-1.5-1-1.9-2.2l-8.2-24-9-26.3c-.1-.4-.2-.7-.3-1.1s-.2-.7-.5-1L248.2 6.3l10.4-10.4zm0-2.6L245.7 6.2l33.2 33.2c.1.5.2 1 .4 1.4l9 26.3 8.2 24c1.3 3.8 4.7 4.6 7.5 1.8l41.4-41.4c2.8-2.8 2.1-6.2-1.8-7.5l-24-8.2-26.3-9c-.4-.2-.9-.3-1.4-.4L258.6-6.7z"/><path class="st2" d="M258-7.3L245.1 5.6c-.7.7-.7 1.9 0 2.6s1.9.7 2.6 0l12.9-13c.7-.7.7-1.9 0-2.6-.7-.6-1.9-.6-2.6.1z"/><path class="st1" d="M289.2 47.6c-.2.2-.4.3-.6.4-.9.3-1.9-.1-2.2-1l-2.7-6.9c-.3-.9.1-1.9 1-2.2.9-.3 1.9.1 2.2 1l2.7 6.9c.3.6.1 1.3-.4 1.8zM282 33.7c-.6.6-1.6.6-2.2 0L255.2 9.1c-.6-.6-.6-1.6 0-2.2s1.6-.6 2.2 0L282 31.5c.6.6.6 1.6 0 2.2z"/><g><path class="st0" d="M177.7 131.3h5.3v105.1h-5.3zM360.8 131.3l-.1 104.8s1.3 11.2-7.7 11.2H185.7s-5-.3-5-5.8 166.2-2.7 166.2-2.7l7-18.8 1.4-70.7.3-18.1 5.2.1z"/><path class="st0" d="M364.7 128.7c0 2.2-1.8 4-4 4h-183c-2.2 0-4-1.8-4-4s1.8-4 4-4h183c2.2 0 4 1.8 4 4z"/><path class="st4" d="M355.7 237.9c0 2-1.6 3.7-3.7 3.7H181.4c-2 0-3.7-1.6-3.7-3.7V131.3c0-2 1.6-3.7 3.7-3.7H352c2 0 3.7 1.6 3.7 3.7v106.6z"/><path class="st1" d="M177.7 177.5h177.7v64.1H177.7z"/><path class="st2" d="M361.7 125.7c0 2.2-1.8 4-4 4h-183c-2.2 0-4-1.8-4-4s1.8-4 4-4h183c2.2 0 4 1.8 4 4z"/><path class="st1" d="M194.5 163.6c0 1.7-1.4 3.1-3.1 3.1-1.7 0-3.1-1.4-3.1-3.1v-22.8c0-1.7 1.4-3.1 3.1-3.1 1.7 0 3.1 1.4 3.1 3.1v22.8z"/></g></g><g id="drop"><path class="st5" d="M261.1 68.4c-.2-.4-.3-.7-.5-1.1l-9.4-19.1-9.5 19.2c-.2.3-.4.7-.5 1-.6 1.3-.9 2.7-.9 4.3 0 6 4.9 10.8 10.8 10.8 6 0 10.8-4.9 10.8-10.8.1-1.6-.2-3-.8-4.3z"/><ellipse class="st1" cx="246.5" cy="70.1" rx="2.9" ry="3"/></g></svg>