<svg xmlns="http://www.w3.org/2000/svg" viewBox="0 0 323 245"><style>.st0{fill:#99D384;} .st1{fill:#FFFFFF;} .st2{fill:#FCF3E0;} .st3{fill-rule:evenodd;clip-rule:evenodd;fill:#DD95C0;} .st4{fill:#62BA47;} .st5{fill-rule:evenodd;clip-rule:evenodd;fill:#62BA47;} .st6{fill:#62BA46;} .st7{fill:#DD95C0;} .st8{fill:#EFEFEF;} .st9{fill:#DDDDDD;} .st10{fill:#FCFCFC;}</style><g id="kolby"><path class="st0" d="M30.4 91.2s91.5-16.4 155-62c0 0-2.9 35.7 30.7 76.9 0 0-87.9 11.4-155.8 59.9 0 0-6.2-51.3-29.9-74.8z"/><path class="st1" d="M216.6 107.3c-.1 0-.2.1-.3.1-.9.1-88.4 11.9-155.2 59.6-.4.3-.8.3-1.2.1-.4-.2-.7-.6-.7-1-.1-.5-6.4-51.1-29.5-74.1-.3-.3-.5-.8-.3-1.3.1-.4.5-.8 1-.9.9-.2 91.9-16.9 154.5-61.7.4-.3.9-.3 1.3-.1.4.2.7.7.6 1.2 0 .4-2.4 35.7 30.5 76 .3.4.4.8.2 1.3-.3.4-.6.7-.9.8zm-91.3 22.5c41.9-16.8 79.2-23.2 88.5-24.6-27.1-34.2-29.6-64.7-29.7-73.5C126.8 71.8 47.3 89.1 32.9 92c6.7 7.3 15.6 20.8 22.5 45.1 3.4 12 5.2 22.4 5.8 26.7 20.6-14.4 42.9-25.5 64.1-34z"/><path class="st2" d="M177.6 97.5l-90.8 36.3c-7.8 3.1-16.8-.7-19.9-8.5l-3.4-8.5c-3.1-7.8.7-16.8 8.5-19.9l90.8-36.3c7.8-3.1 16.8.7 19.9 8.5l3.4 8.5c3.2 7.8-.7 16.7-8.5 19.9z"/><path class="st1" d="M84 106.5l-7.1 2.8c-1.4.5-2.9-.1-3.4-1.5l-.2-.5c-.5-1.4.1-2.9 1.5-3.4l7.1-2.8c1.4-.5 2.9.1 3.4 1.5l.2.5c.5 1.3-.2 2.9-1.5 3.4z"/><ellipse transform="rotate(-22 122.963 96.668)" class="st1" cx="123" cy="96.7" rx="26" ry="25.8"/><path class="st3" d="M121.6 84.5c.2 1-.3 2.1-1.4 2.5-1.1.5-2.4-.1-2.9-1.2-5.5 2.9-8.1 9.5-5.7 15.5.5 1.2 1.1 2.2 1.8 3.1 0 0 .1 0 .1-.1 1.1-.5 2.4.1 2.9 1.2.2.5.2 1 0 1.5 3 1.9 6.7 2.4 10.2 1.3.9-.2 2.8-1.1 3.7-1.8 2.5-1.8 4.2-4.5 4.8-7.4-.2-.2-.4-.5-.6-.8-.4-.9 0-2 .8-2.5-.1-1.3-.4-2.5-.8-3.8-2.1-5.1-7.5-8.1-12.9-7.5zm-8.9 12.8c-.6.2-1.3 0-1.5-.6-.2-.6.1-1.3.7-1.5.6-.2 1.3 0 1.5.7.2.5-.1 1.1-.7 1.4zm19.6-3.4c-.7.3-1.6-.1-1.9-.8-.3-.7.1-1.6.8-1.9s1.6.1 1.9.8c.3.8 0 1.6-.8 1.9z"/><ellipse transform="rotate(-22 117.925 110.586)" class="st4" cx="117.9" cy="110.6" rx="3.9" ry="3.9"/><path class="st1" d="M115.4 111.3c.1-.2.1-.4.2-.6 0-.1 0-.2.1-.3 0-.1 0-.1 0 0s.1.2.1.3c.3.6.5 1.3.7 1.9.1.2.4-.2.3-.4-.1-.4-.3-.9-.4-1.3-.1-.2-.3-1.2-.6-1.2-.5.1-.5 1.2-.6 1.5-.2.5.2.4.2.1zM117.4 110.5c-.2 0-.8-.2-.5-.6.1-.1.3-.2.4-.2.4 0 .2.3.1.5-.1.1-.4.7-.1.8.3.1.8-.3 1 .1.1.3-.4.5-.6.5-.4-.1-.5-.4-.2-.7 0-.1 0-.6-.1-.4-.4.4-.6.9-.4 1.3.1.3.5.5.8.4.4-.1.7-.6.8-1 .1-.4-.1-.8-.5-.7-.1 0-.5.1-.5.2.1-.2.3-.4.3-.7.1-.5-.1-.8-.6-.7-.4.1-.7.5-.7.9-.1.5.3.8.8.8 0 .1.2-.4 0-.5zM119.8 108.6c-.2 1-.5 1.9-.7 2.8-.1.4.3.2.3 0 .3-1 .6-2 .7-3 .2-.4-.2-.1-.3.2zM118.9 108.7c-.3.1-.4.5-.3.8.1.3.3.4.5.3.6-.2.4-1.3-.2-1.1-.1 0-.2.4 0 .4.1 0 .3 0 .3.2v.2h-.1c-.1.1-.3 0-.3-.1v-.2h.1c.1-.2.2-.6 0-.5zM120.4 110c-.3.1-.4.5-.3.8.1.3.3.4.5.3.5-.2.4-1.3-.2-1.1-.1 0-.2.4 0 .4.1 0 .3 0 .3.2v.2h-.1c-.1.1-.3 0-.3-.1v-.2h.1c0-.2.1-.6 0-.5z"/><path class="st3" d="M111.8 85c.3.8-.1 1.7-.9 2-.8.3-1.7-.1-2.1-.9-.3-.8.1-1.7.9-2.1.9-.2 1.8.2 2.1 1z"/><path class="st5" d="M113.9 89.9c.4 1-.1 2.2-1.1 2.6-1 .4-2.2-.1-2.6-1.1-.4-1 .1-2.2 1.1-2.6 1-.4 2.2.1 2.6 1.1zM107.7 89c.2.6-.1 1.3-.7 1.6-.6.2-1.3-.1-1.6-.7-.2-.6.1-1.3.7-1.6.6-.2 1.3.1 1.6.7z"/><g><ellipse transform="rotate(-22 128.56 82.47)" class="st4" cx="128.6" cy="82.5" rx="6.8" ry="6.8"/><path class="st1" d="M126.6 82.2c-.5.3-.4.9-.2 1.4 0 .1 0 .1.1.2.1.2.1.4.2.6 0 .1.1.3 0 .3-.2.1-.4-.1-.6-.2-.3-.3-.5-.6-.7-.9-.2-.3-.4-.7-.6-1.1-.1-.1-.1-.3-.2-.5 0-.1 0-.1-.1-.2v-.1c-.1-.3-.4.1-.4.3-.1.9.3 1.7.7 2.5.1.2.2.4.2.7 0 .2.1.4 0 .6 0 .1-.2.1-.3.1-.1 0-.2-.1-.3-.2-.1-.1-.2 0-.2.1-.1.1-.1.3 0 .4.2.3.5.4.8.2.4-.3.4-1 .3-1.4 0-.2-.1-.5-.2-.7.2.3.4.6.7.8.2.2.5.3.7.2.2-.1.2-.4.2-.7.2.2.4.3.6.2.3-.1.4-.5.4-.7 0-.3-.1-.6-.2-.9.1-.5-.4-1.3-.9-1zm.9 1.8v.2c-.1 0-.2-.1-.3-.1-.2-.1-.3-.3-.4-.5-.1-.2-.2-.4-.2-.6v-.2c.3.1.5.4.7.6.1.1.2.3.2.6zM133.2 80.4c-.7 0-.7.9-.6 1.4.1.4.2 1.2.8 1.2.3 0 .5-.3.6-.5.1-.3.1-.6.1-.8-.1-.5-.3-1.3-.9-1.3zm.4 2v.2c-.1 0-.2-.2-.3-.3-.1-.2-.2-.4-.2-.6 0-.2-.1-.4 0-.6v-.2c.3.2.4.5.5.9v.6z"/><path class="st1" d="M131.7 81.1c0-.2.1-.4.1-.6.1-.4.1-.9 0-1.2-.2-.4-.7-.2-.9 0-.3.3-.3.8-.3 1.2.1.5.2 1.1.4 1.6-.1.3-.3.9-.7.8-.1 0-.2-.1-.2-.2.1-.3.2-.7.3-1 .1-.3 0-.8-.4-.9-.3 0-.6.3-.7.6-.1.3-.1.6 0 .9 0 .2.1.4.3.7-.1.2-.3.3-.5.4-.2 0-.4-.2-.5-.3-.2-.2-.3-.5-.3-.8V82v-.1c.2 0 .3.2.4.3.1.2.5-.3.4-.5-.1-.2-.3-.3-.5-.3s-.4.3-.5.4c-.2.5 0 1 .2 1.4.1.3.3.6.7.7.4.1.8-.3 1.1-.6.2.2.4.3.7.1.3-.2.6-.5.7-.8.1.3.3.5.5.5.4.1.7-.3.8-.6.1-.4.1-.9-.2-1.3-.5-.1-.7-.1-.9-.1zm-2 .6v-.2c.1 0 .2.1.3.3.1.2 0 .5-.1.7v-.1c-.1-.3-.2-.5-.2-.7zm1.4-1.8c0-.1 0-.2.1-.3.3.2.3.6.2.9 0 .3-.1.6-.1.8-.1-.2-.1-.5-.1-.7-.1-.2-.1-.5-.1-.7zm1 2.6v.1h-.1c-.2 0-.3-.3-.4-.4-.1-.1-.1-.2-.1-.3 0-.1.1-.2.1-.3.1-.1.2 0 .3.1.1.3.2.6.2.8z"/></g><g><path class="st1" d="M127.5 93.2c0-.6-.2-1.4-.8-1.6-.4-.2-.8 0-1.1.2-.1-.2-.1-.5-.2-.7-.1-.2-.5 0-.5.1-.2.1-.4.3-.3.5.3.9.5 1.8.7 2.7l-.5.5c-.1.1-.2.2-.3.2-.3 0-.4-.3-.5-.5-.3-.7-.6-1.6-.4-2.4 0-.2-.2-.3-.4-.1-.3.1-.5.4-.5.6-.1 1 .3 2 .8 2.9.2.3.3.5.8.4.5-.1.9-.6 1.1-.9v.2c.1.9.2 1.7.3 2.6 0 .2.2.1.3.1.1-.1.2-.3.2-.5 0-.6-.1-1.2-.1-1.8.2 0 .5-.1.7-.3.6-.8.8-1.5.7-2.2zm-1.7-1.1c.1 0 .1 0 0 0zm.7 2.7zm0-.1s0 .1 0 0c0 .1 0 .1 0 0-.3.1-.5-.2-.5-.4v-.1c0-.5-.1-1-.2-1.6v-.5c.1 0 .2.1.3.2.3.3.4.8.5 1.1.1.5.1 1-.1 1.3z"/><path class="st1" d="M121.5 93.4h-.1c-.2.1-.4.2-.5.4-.1-.3-.3-.6-.5-.9-.1-.1-.3.1-.4.2-.2.2-.3.5-.3.7l.3 1.2c.1.3.1.7.2 1V96.6c-.1.2-.3.4-.6.4s-.5-.1-.8-.2c-.6-.3-1.2-.8-1.5-1.5-.2-.3-.3-.6-.4-1 0-.1-.1-.3-.1-.4v-.2-.1-.1s.2-.2.3-.2c.5-.3 1 0 1.2.3.2.2.8-.8.6-1-.4-.5-1.1-.6-1.7-.3-.5.3-.8.7-1 1.1-.3 1-.1 2.1.5 2.9.5.8 1.3 1.4 2.2 1.6.3.1.7 0 1-.1.6-.4.8-1.4.8-2.1v-.1c.3.6.9 1 1.6.8.7-.3.7-1.3.6-1.9-.1-.7-.6-1.3-1.4-1.1zm1 2v.1h-.1c-.4.2-.8-.3-.9-.6 0 0 0-.1-.1-.1 0-.1 0-.1-.1-.2 0-.1-.1-.2-.1-.4V94c.4-.2.8.3 1 .6.2.4.3.6.3.8z"/></g><g><path class="st1" d="M124.4 100.6c-.1.1-.3-.3-.4-.4-.2-.4-.3-.7-.5-1.1-.1-.3-.4-.3-.6-.1-.2.2-.3.5-.4.7 0 .5.1 1 .4 1.4v.1c0 .1-.1.1-.1.2-.2.1-.5-.4-.6-.5l-.6-1.2c-.1-.1-.2 0-.2.1-.1.1-.2.3-.1.4.2.4.4.7.5 1.1.1.2.1.3.1.5h-.1c-.3 0-.6-.4-.7-.6-.2-.3-.3-.6-.4-1v-.1c0-.1-.1-.1-.2 0s-.2.3-.1.4c0 .2-.1.2-.3.3h-.3-.4c-.5.4-.1 1.1.1 1.5.1.1.2.4.4.5 0 .1-.1.2-.3.3-.1 0-.2-.1-.3-.1-.3-.2-.5-.5-.7-.7-.4-.5-.7-1-1-1.5 0-.1-.1 0-.2 0-.1.1-.1.3-.1.4.1.4.3.8.5 1.2l-.1-.1c-.2-.3-.5-.5-.7-.8-.1-.2-.3-.4-.4-.6-.1-.3-.3.2-.3.3 0 .9.7 1.6 1.2 2.3l.3.6c.1.1.2.4.1.6 0 .1-.2.1-.3.1-.1 0-.3-.1-.3-.2-.1-.1-.2 0-.2.1s-.1.3 0 .4c.2.2.6.3.9.1.4-.4.3-1 .1-1.4-.1-.3-.2-.5-.4-.8.4.4.7.8 1.1 1.2.2.2.3-.3.2-.5-.2-.3-.4-.6-.6-1 .1.1.2.2.2.3.2.2.5.5.8.6.1 0 .3-.1.4-.1.1-.1.2-.3.2-.5.1.1.3.1.4 0 .2-.1.3-.5.2-.7 0-.3-.2-.6-.3-.8 0-.1-.1-.2-.2-.3.2-.1.3-.2.4-.3.1.3.2.6.4.8.2.3.5.7.9.5.3-.1.4-.4.4-.6.1.1.2.1.3.1-.1.3-.1.7.2.8.2.1.4-.4.2-.5-.2-.1-.2-.2-.1-.4.1-.1.2-.3.2-.4.1.1.2.2.3.2.2 0 .4-.3.5-.5l.2.2c.2.1.4-.2.4-.3 0-.1.1-.3 0-.3.1-.1 0 0 0 .1zm-3.9 2.1zm-.1-.2v.2c-.1 0-.2-.1-.3-.1-.2-.1-.3-.3-.4-.4l-.3-.6v-.2c.2-.1.6.4.7.6.2.1.3.3.3.5zm1.6-.7zm1.7-.9s-.1 0 0 0c-.2 0-.3-.1-.3-.2-.2-.3-.4-.6-.4-.9v-.3h.1c.1-.1.2 0 .2.1.2.4.4.8.4 1.3 0-.1 0-.1 0 0zM133 99.1c-.1-.1-.2 0-.3 0-.2 0-.2-.4-.2-.5v-1.2c0-.3-.3-.4-.6-.3-.3.1-.5.3-.6.5-.2.4-.2 1-.1 1.4-.1.1-.2.1-.4.2-.1 0-.2-.1-.2-.2-.2-.6-.3-1.2-.3-1.8 0-.1-.1-.1-.2-.1l-.3.3c-.1.4-.1.9-.1 1.3v.5c-.1 0-.2-.1-.2-.2 0-.2-.3 0-.4.2h-.1l-.1-.1c-.1-.1-.1-.3-.2-.5-.2-.4-.2-.9-.3-1.4 0-.1-.1-.1-.2-.1l-.3.3c-.1.4-.1.9 0 1.3v.5c-.1 0-.2-.1-.2-.1-.1-.1-.3 0-.4.2-.1.1-.3.2-.4.2-.1 0-.2-.1-.2-.2.2-.4.4-.8.4-1.2 0-.2 0-.5-.3-.7-.4-.2-.7.2-.8.5-.3.3-.7.2-1 .1-.1 0-.1-.1-.2-.1-.2 0-.4.1-.5.3-.1-.1-.1-.3-.2-.4-.1-.1-.2.1-.3.1-.1.1-.1.3-.1.4.4.7.7 1.4.9 2.1.2.5.4 1.1.5 1.6 0 .1.1.1.2 0s.1-.2.1-.4c-.1-.4-.2-.8-.3-1.1.1-.1.3-.2.4-.4.2-.4.1-.9 0-1.3 0-.1 0-.1-.1-.2.2 0 .4-.1.5-.2 0 .4.1.9.4 1.3.1.1.2.3.4.3s.4-.2.6-.3c.1.1.2.1.3.1.3 0 .5-.2.5-.5 0-.1.1-.2.1-.3 0 0 0 .1.1.1.1.1.1.3.3.4.2.1.3 0 .4-.1.1.1.2.1.3.1.2 0 .4-.2.5-.4 0-.1.1-.2.1-.3 0 .2.1.3.2.4.2.3.6.1.9-.2 0 .1.1.2.2.3.2.1.5-.1.6-.2 0 .1.1.2.1.2.2.1.4 0 .6-.1.4.2.6 0 .5-.1zm-8.4-.4zm.8 1.5zm0 0c-.2.1-.3 0-.4-.2-.1-.3-.2-.6-.4-.9 0-.1-.1-.2-.1-.3h.2c.2.1.3.4.4.6.2.2.3.5.3.8zm1.4-1.6c0 .2-.1.4-.1.5-.1-.2-.1-.5-.1-.7v-.2-.1h.1c.1.1.1.4.1.5zm5.1.5s-.1 0 0 0c-.2 0-.2-.2-.2-.3-.1-.3-.1-.7 0-1 0-.1.1-.3.1-.3h.1c.1 0 .2.1.2.2 0 .5 0 .9-.1 1.4-.1-.1-.1 0-.1 0z"/></g><g><path class="st6" d="M107 97.6c-.1 0-.2-.1-.2-.1-.3 0-.4.2-.6.3-.5.2-.7.3-1.5.4-.2-.6 0-1-.1-1.5 0-.4-.4-.8-.6-1.3-.1-.3-.2-.5-.3-.8-.1.2.2.7.2 1-.2-.3-.4-.8-.6-1 0 .4.3.8.4 1.1-.2-.3-.4-.6-.6-.8 0 .4.4.7.5 1-.2-.2-.4-.5-.7-.7.1.4.4.6.5.9-.2-.2-.4-.4-.6-.5.1.2.4.5.5.6-.2 0-.3-.2-.5-.2.1.2.3.2.4.3-.1 0-.2-.1-.4-.1.1.2.2.1.3.3-.1 0-.2-.1-.3-.1.1.1.3.1.3.2 0 0-.1 0-.1.1 0 0 .2 0 .1.1h-.1c0 .1.1 0 .1.1h-.1c0 .1.1 0 .1.1-.3.7.2 1.1.4 1.7 0-.1-.5 0-.8 0-.2 0-.3-.2-.5-.2v-.1h-.2s.2 0 .2-.1c-.1 0-.3 0-.3-.1.1 0 .3 0 .3-.1-.2 0-.4 0-.5-.1.1 0 .4 0 .5-.1-.2 0-.6-.1-.7-.2.2 0 .4.1.6 0-.3 0-.6-.2-.8-.1.2.2.6.2.7.3-.2 0-.4 0-.7-.1.2.2.4.2.7.2-.2.1-.3 0-.5.1.1.2.4 0 .5.1-.1 0-.2.1-.3.1.1.1.2 0 .4 0-.1 0-.2.1-.2.1h.3c-.1 0-.1 0-.1.1 0 0 .1-.1.2 0v.1h.1v.1c.3 0 .6.4 1 .4-.1.2.3.2-1.6 1.8.1 0 .9-.6 1.1-.8.2-.2.5-.4.7-.6.1 0 .1-.1.2-.1.4-.2.9-.3 1.2-.8-.3.2-.9.5-1.2.4.1-.6-.6-1.7-.4-2 .2-.3.2-1.2.9-.8.1.1.2.2.1.6-.1.4-.1.6.2 1.3.1.1.1.3-.1.4 1-.2 1.3-.4 1.8-.7.2-.1.4-.3.5-.2 0 .1-.2.1-.3.2-.3.1.2 0 .3 0 .1 0 .5-.3.8-.4-.3.1-.4.2-.6.2z"/><path class="st6" d="M102.2 93.8c-2.2.9-3.3 3.4-2.4 5.6.9 2.2 3.4 3.3 5.6 2.4 2.2-.9 3.3-3.4 2.4-5.6-.9-2.2-3.4-3.2-5.6-2.4m.1.2c2.1-.8 4.5.2 5.4 2.3.8 2.1-.2 4.5-2.3 5.4-2.1.8-4.5-.2-5.4-2.3-.9-2.2.2-4.6 2.3-5.4"/></g><path class="st7" d="M103.2 112.6l-.6.3c1.9 2.3 4.1 4.3 6.6 5.8.4-1.1.5-2.3 0-3.5-.8-2.4-3.6-3.5-6-2.6z"/><ellipse transform="rotate(-22 141.3 87.978)" class="st7" cx="141.3" cy="88" rx="3.1" ry="3.1"/><path class="st7" d="M146.8 100.4c.3.7.8 1.3 1.4 1.8.5-2.3.7-4.8.6-7.2-1.9 1-2.8 3.3-2 5.4zM113.3 72.6c-.9.3-1.7.7-2.5 1.2v.1c1 2.4 3.8 3.6 6.2 2.6 2.3-.9 3.4-3.3 2.9-5.6-2.2.3-4.4.8-6.6 1.7z"/><ellipse transform="rotate(-22 135.117 109.986)" class="st7" cx="135.1" cy="110" rx="4.2" ry="4.2"/><path class="st1" d="M64.4 139.7c-.1 0-.2 0-.2.1-1.6.3-3.1-.8-3.4-2.4-2.6-14.8-6.9-19.9-6.9-20-1.1-1.2-1-3 .2-4.1 1.2-1.1 3-1 4.1.2.6.6 5.5 6.4 8.4 22.9.2 1.5-.7 3-2.2 3.3z"/><circle class="st1" cx="65.9" cy="145.5" r="3.1"/><g><path class="st8" d="M282.4 162.5H156.7l8.3 30.6c.8 3 5.4 5.3 11 5.3h87.2c6 0 10.8-2.7 11.1-6l8.1-29.9z"/><path class="st9" d="M263.3 162.5H219.7v36h43.6c6 0 10.8-2.7 11.1-6l8.1-30h-19.2z"/><path class="st1" d="M173.3 180.6c.5 1.7-.4 3.5-2.1 4-1.7.5-3.5-.4-4-2.1l-2.5-8.2c-.5-1.7.4-3.5 2.1-4 1.7-.5 3.5.4 4 2.1l2.5 8.2z"/><path class="st8" d="M282.4 158.1H156l11-19.8h103.7z"/><path class="st10" d="M270.7 138.3l11.7 19.8H156l11-19.8h103.7m0-5.5H167c-2 0-3.9 1.1-4.9 2.9l-11 19.8c-1 1.7-.9 3.8.1 5.5 1 1.7 2.8 2.7 4.8 2.7h126.4c2 0 3.9-1.1 4.8-2.8 1-1.7 1-3.9 0-5.6l-11.7-19.8c-1.1-1.7-2.9-2.7-4.8-2.7z"/><path class="st7" d="M264 198.3c0-3.7-3-6.6-6.6-6.6-3.7 0-6.6 3-6.6 6.6v.2H264v-.2z"/><circle class="st7" cx="179.6" cy="172.1" r="4.2"/><path class="st7" d="M254.8 170.4c2.7 0 4.9-2.2 4.9-4.9 0-.7-.1-1.3-.4-1.8h-9.1c-.2.6-.4 1.2-.4 1.8.1 2.7 2.3 4.9 5 4.9z"/><g><path class="st3" d="M222.2 142c-.2.6-1 1-2 1-1.1 0-2-.5-2-1.2-5.5.4-9.8 3.2-9.9 6.7 0 .7.2 1.3.5 2h.1c1.1 0 2 .5 2 1.2 0 .3-.2.6-.5.8 1.8 1.6 4.7 2.6 8 2.8.8.1 2.6 0 3.7-.2 2.7-.4 4.9-1.4 6.4-2.8-.1-.2-.2-.3-.2-.5 0-.6.7-1 1.5-1.1.4-.7.6-1.4.6-2.1 0-3.2-3.5-5.9-8.2-6.6zm-11.6 4.7c-.6 0-1.1-.3-1.1-.6 0-.4.5-.6 1.1-.6s1.1.3 1.1.6-.5.6-1.1.6zM228 149c-.7 0-1.3-.4-1.3-.8s.6-.8 1.3-.8c.7 0 1.3.4 1.3.8s-.6.8-1.3.8z"/><ellipse class="st4" cx="210.6" cy="154.6" rx="3.5" ry="2.1"/><path class="st1" d="M208.3 154.4l.3-.3s.1-.1.2-.1.1-.1 0 0v.2c0 .4 0 .8-.1 1.1 0 .1.4 0 .4-.1 0-.2.1-.5.1-.7 0-.1.1-.7-.1-.7-.4-.1-.8.5-1 .6-.3.1.1.1.2 0zM210.2 154.4c-.2-.1-.6-.3-.3-.4h.4c.3.1.1.2-.1.3-.1 0-.6.3-.4.4.3.1.8 0 .8.3 0 .2-.5.2-.7.1-.3-.1-.3-.3.1-.4.1-.1.3-.3 0-.2-.3.1-.7.3-.7.6 0 .2.3.3.5.4.4 0 .8-.1 1-.3.2-.2.2-.4-.2-.5-.1 0-.4-.1-.5 0 .2-.1.4-.2.5-.3.3-.2.2-.4-.3-.5-.4 0-.7.1-.9.3-.2.2 0 .5.4.6.2-.1.6-.3.4-.4zM212.8 153.9c-.4.5-1 .9-1.5 1.3-.2.2.1.2.3.1.5-.4 1.1-.9 1.6-1.4.2-.2-.3-.1-.4 0zM212 153.8c-.3 0-.5.2-.5.3 0 .1.1.3.3.3.6 0 .8-.6.2-.6-.1 0-.3.2-.2.2.1 0 .2.1.2.1v.1h-.1c-.1 0-.2-.1-.2-.1v-.1h.1c.2 0 .4-.2.2-.2zM212.8 154.8c-.3 0-.5.2-.5.3 0 .1.1.3.3.3.5 0 .8-.6.2-.6-.1 0-.3.2-.2.2.1 0 .2.1.2.1v.1h-.1c-.1 0-.2-.1-.2-.1v-.1h.1c.2-.1.4-.2.2-.2z"/><path class="st3" d="M214.1 140.2c0 .5-.6.9-1.4.9-.8 0-1.4-.4-1.4-.9s.6-.9 1.4-.9c.8.1 1.4.4 1.4.9z"/><path class="st5" d="M214.2 143.2c0 .6-.8 1.1-1.8 1.1s-1.8-.5-1.8-1.1c0-.6.8-1.1 1.8-1.1 1-.1 1.8.4 1.8 1.1zM209.3 141.4c0 .4-.5.7-1.1.7-.6 0-1.1-.3-1.1-.7 0-.4.5-.7 1.1-.7.6.1 1.1.4 1.1.7z"/><g><ellipse class="st4" cx="228.8" cy="142.3" rx="6.1" ry="3.7"/><path class="st1" d="M227.3 141.8c-.5 0-.6.4-.7.7v.4s0 .1-.1.1c-.2 0-.3-.2-.4-.2l-.3-.6c-.1-.2-.1-.4-.1-.7v-.3-.1-.1c0-.2-.3 0-.4.1-.4.4-.3.9-.3 1.4v.4c0 .1 0 .2-.2.3h-.3c-.1 0-.2-.1-.2-.2s-.1 0-.2 0c-.1.1-.2.1-.2.2 0 .2.3.3.6.3.5-.1.6-.4.8-.7.1-.1.1-.3.1-.4.1.2.2.4.3.5.1.1.3.3.5.2.2 0 .3-.1.4-.3.1.1.2.2.5.2s.5-.2.6-.3c.1-.2.1-.3.1-.5.1 0 0-.4-.5-.4zm.1 1.1s0 .1 0 0c-.1.1-.2 0-.2 0-.1-.1-.1-.2-.1-.3v-.4-.1c.3.1.3.3.3.5.1.1.1.2 0 .3zM233.3 142.3c-.5-.1-.9.3-1 .6-.1.2-.2.6.3.8.2.1.5 0 .6-.1.2-.1.3-.3.3-.4.2-.4.3-.8-.2-.9zm-.3 1c0 .1-.1.1 0 0-.2 0-.2-.1-.2-.1v-.3c0-.1.1-.2.2-.3 0 0 0-.1.1-.1.2.1.2.4.1.5-.1.1-.1.2-.2.3z"/><path class="st1" d="M231.8 142.3l.3-.3c.2-.2.4-.4.4-.6 0-.2-.5-.2-.7-.2-.3.1-.5.3-.6.6-.1.3-.2.6-.2.9-.2.1-.5.4-.8.3-.1 0-.1-.1-.1-.1.2-.1.4-.3.6-.5.2-.2.3-.4 0-.5-.3-.1-.6 0-.8.1-.2.1-.3.3-.3.5v.4c-.2.1-.4.1-.5.1-.2 0-.3-.2-.3-.3-.1-.2 0-.3 0-.5 0 0 0-.1.1-.1s.2.2.2.2c.1.1.5-.1.5-.2-.1-.1-.1-.2-.3-.3-.2-.1-.5 0-.6.1-.3.2-.4.5-.3.8 0 .2.1.4.3.5.3.1.8 0 1.1-.1.1.1.2.2.5.2s.6-.1.9-.3c0 .2.1.3.2.4.3.1.6 0 .8-.2.2-.2.4-.5.2-.7-.2-.1-.4-.2-.6-.2zm-1.8-.1s0-.1.1-.1.2.1.1.2c0 .1-.2.2-.3.4v-.1c0-.2 0-.3.1-.4zm1.8-.6l.1-.1c.2.1 0 .3-.1.5-.1.1-.2.3-.4.4 0-.1.1-.3.1-.4.1-.2.2-.3.3-.4zm-.1 1.5c-.1 0-.1 0 0 0-.1.1-.1.1-.1 0-.1 0-.1-.2-.2-.3v-.2c.1 0 .1-.1.2-.1s.2 0 .2.1c0 .2-.1.4-.1.5z"/></g><g><path class="st1" d="M224.5 147.6c.2-.3.3-.7-.1-1-.3-.2-.7-.2-1-.1 0-.1.1-.3.1-.4 0-.1-.4-.1-.5-.1-.2 0-.4.1-.4.2 0 .5-.2 1-.3 1.5-.2.1-.4.1-.6.2-.1 0-.2.1-.3 0-.2 0-.2-.3-.2-.4 0-.5 0-1 .5-1.3.1-.1 0-.2-.3-.1-.3 0-.5.1-.6.2-.4.5-.4 1.1-.3 1.6 0 .2.1.3.5.4.4 0 .9-.1 1.2-.2v.1c-.2.5-.4.9-.6 1.4-.1.1.1.1.2.1s.3-.1.3-.2c.2-.3.4-.6.5-1h.7c.6-.2 1-.5 1.2-.9zm-1.1-.9zm-.3 1.5zm0 0c-.3 0-.3-.2-.3-.3.1-.3.3-.6.4-.8 0-.1.1-.2.2-.2s.2.1.2.1c.2.2.1.5 0 .7-.1.1-.2.3-.5.5zM219.4 146.5h-.1c-.2 0-.4.1-.5.1 0-.2-.1-.4-.1-.6 0-.1-.3 0-.4 0-.2.1-.4.2-.4.3 0 .2-.1.5-.2.7-.1.2-.1.4-.2.6 0 .1-.1.2-.1.2s0 .1-.1.1c-.2.1-.4.1-.6.1-.2 0-.4-.1-.6-.2-.4-.3-.7-.7-.8-1.1-.1-.2-.1-.4 0-.6 0-.1 0-.2.1-.2 0-.1 0-.1.1-.1h.1s.2 0 .3-.1c.6-.1.8.2.9.4.1.2.9-.2.8-.4-.2-.3-.7-.6-1.3-.5-.5 0-.9.2-1.2.4-.6.4-.8 1-.6 1.6.2.5.6 1 1.3 1.2.3.1.6.2.9.1.7-.1 1.1-.5 1.3-.9v-.1c0 .3.4.7 1 .7.7 0 1-.5 1.1-.9.2-.3 0-.8-.7-.8zm.1 1.2c0 .1 0 .1 0 0l-.1.1c-.4 0-.5-.3-.6-.5v-.1-.1-.2s0-.1.1-.1c.4 0 .6.3.6.5.1.2.1.3 0 .4z"/></g><g><path class="st1" d="M219.4 150.6c-.1 0-.2-.2-.2-.3v-.7c0-.2-.2-.2-.5-.2-.2 0-.4.2-.5.3-.2.2-.2.5-.1.8h-.1s-.1 0-.1.1c-.2 0-.3-.3-.3-.4-.1-.2-.1-.5-.1-.7 0-.1-.1-.1-.2 0-.1 0-.2.1-.2.2 0 .2.1.5.1.7 0 .1 0 .2-.1.3h-.1c-.3 0-.3-.3-.3-.4v-.6-.1s-.1-.1-.2 0c-.1 0-.2.1-.3.2-.1.1-.2.1-.4.1-.1 0-.2 0-.3-.1h-.1c-.1 0-.2-.1-.3-.1-.5.1-.5.5-.4.8 0 .1.1.2.2.4-.1.1-.2.1-.3.1-.1 0-.1-.1-.2-.1-.2-.2-.3-.3-.4-.5-.2-.3-.3-.6-.3-1 0-.1-.1 0-.2 0s-.2.1-.2.2c-.1.2 0 .5 0 .7v-.1l-.3-.6c-.1-.1-.1-.3-.1-.4 0-.2-.3 0-.3.1-.3.5 0 1 .2 1.4 0 .1.1.2.1.4 0 .1 0 .2-.1.3h-.3c-.1 0-.2-.1-.2-.2s-.2 0-.2 0c-.1.1-.2.1-.1.2.1.2.4.3.7.2.4-.1.5-.5.6-.7 0-.2 0-.3-.1-.5.2.3.3.6.5.8.1.1.3-.1.3-.2-.1-.2-.1-.4-.1-.6 0 .1.1.1.1.2.1.2.2.4.5.5h.4c.2 0 .3-.1.4-.2.1.1.2.1.4.1s.4-.2.4-.3c.1-.2.1-.3 0-.5 0-.1 0-.1-.1-.2.2 0 .3 0 .4-.1 0 .2 0 .3.1.5s.2.5.6.4c.3 0 .4-.1.5-.2 0 .1.1.1.2.1-.2.1-.3.3-.1.5.1.1.5-.1.4-.2-.1-.1-.1-.2.1-.2.1 0 .2-.1.3-.1 0 .1.1.1.2.1.2.1.4 0 .5-.1 0 .1.1.1.1.1.2.1.3 0 .5-.1 0 0 .2-.1.1-.2-.3.1-.4.1-.5.1zm-3.9.3zm0-.1s0 .1 0 0c-.1.1-.2 0-.2 0-.1-.1-.2-.2-.2-.3 0-.1-.1-.2-.1-.3v-.1c.2 0 .4.3.4.4.1.1.1.2.1.3zm1.6-.1c0 .1 0 .1 0 0zm1.6-.1c-.1 0-.2-.1-.2-.1-.1-.2-.1-.4 0-.6 0-.1.1-.1.1-.2h.1c.1 0 .2 0 .2.1-.1.3-.1.5-.2.8.1 0 .1 0 0 0z"/><path class="st1" d="M227 151.6h-.2c-.1 0 0-.3 0-.3.1-.2.2-.4.4-.6.1-.1-.1-.3-.4-.3-.3 0-.5 0-.7.1-.3.2-.5.4-.6.7h-.3c-.1 0-.1-.1-.1-.2 0-.3.2-.7.3-1 0 0 0-.1-.1-.1s-.2 0-.3.1c-.3.2-.4.4-.5.7 0 .1-.1.1-.1.2v.1c-.1 0-.1-.1-.1-.1 0-.1-.2-.1-.4 0h-.1v-.1-.3c0-.3.1-.5.2-.8 0-.1 0-.1-.1-.1s-.2.1-.3.1c-.2.2-.4.4-.5.7 0 .1-.1.1-.1.2v.1c-.1 0-.1-.1-.1-.1 0-.1-.2 0-.4 0-.1 0-.3.1-.4 0-.1 0-.1-.1-.1-.1.3-.2.6-.3.7-.5.1-.1.2-.3 0-.4-.2-.2-.6 0-.8.1-.3.1-.7 0-.9-.1l-.1-.1c-.2-.1-.4 0-.5 0v-.3c0-.1-.2 0-.3 0-.1 0-.2.1-.2.2.1.4.1.8.1 1.3 0 .3 0 .6-.1.9 0 .1.1.1.2 0 .1 0 .2-.1.2-.2 0-.2.1-.4.1-.7.1 0 .3 0 .4-.1.3-.2.4-.4.4-.7v-.1h.5c-.1.2-.2.5-.1.7 0 .1.1.2.3.2h.6c0 .1.1.1.2.1.2 0 .5 0 .6-.1.1 0 .1-.1.2-.1v.1c0 .1 0 .2.1.3.1.1.3 0 .4 0 0 .1.1.1.2.1.2 0 .4 0 .6-.1.1 0 .1-.1.2-.1v.3c.1.2.5.2.8.1 0 .1 0 .1.1.2s.4.1.6 0v.2c.1.1.4.1.5.1-.1 0 .1-.1 0-.2zm-6.8-1.9zm.2.9zm0 0c-.2 0-.2-.1-.2-.2v-.5-.2c.1 0 .1 0 .1.1.1.1.1.3.2.4 0 .1 0 .3-.1.4zm1.6-.5c-.1.1-.2.2-.3.2 0-.1 0-.3.1-.4l.1-.1h.2c.1.1 0 .2-.1.3zm4.1 1.3c-.1-.1-.1-.1-.1-.2 0-.2.1-.4.3-.5l.2-.1h.1c.1 0 .1.1.1.1-.2.2-.3.5-.6.7z"/></g><g><path class="st6" d="M205.9 145.7c-.1 0-.1-.1-.2-.1-.2-.1-.4 0-.6 0-.5 0-.7 0-1.3-.1 0-.3.3-.5.5-.8.1-.2-.1-.5-.1-.8v-.5c-.2.1-.1.4-.1.6-.1-.2-.1-.5-.2-.6-.1.2 0 .5 0 .6-.1-.2-.1-.4-.2-.6-.1.2.1.5.1.6-.1-.2-.2-.4-.3-.5 0 .2.1.4.1.5-.1-.1-.2-.3-.3-.4 0 .1.1.3.2.4-.1 0-.2-.2-.4-.2 0 .1.1.2.2.3-.1 0-.2-.1-.3-.1 0 .1.1.1.2.2-.1 0-.1-.1-.2-.1 0 .1.2.1.2.2h-.1s.1 0 .1.1h-.1c0 .1.1 0 .1.1h-.1s.1 0 .1.1c-.5.3-.2.6-.3.9 0 0-.4-.1-.7-.2-.2 0-.2-.2-.3-.2 0 0-.1 0-.1-.1h.2c-.1 0-.3-.1-.3-.1h.3c-.1 0-.4-.1-.4-.2.1 0 .3.1.4.1-.2-.1-.5-.2-.5-.2.1 0 .3.1.5.1-.2 0-.4-.2-.6-.2.1.1.4.2.5.3-.2-.1-.4-.1-.5-.2.1.1.3.2.5.3-.2 0-.3-.1-.4-.1 0 .1.3.1.4.2h-.3c0 .1.2.1.3.1h-.2c.1 0 .2 0 .2.1h-.1.2s-.1 0 0 0h0c.2.1.4.3.7.4-.2.1.2.2-1.9.6.1 0 .9-.1 1.2-.2.3-.1.5-.1.8-.2h.2c.4 0 .8 0 1.3-.1-.3 0-.9.1-1.1 0 .3-.3.1-1 .3-1.1.2-.1.6-.6 1-.2.1.1.1.2-.1.3-.2.2-.3.3-.3.7 0 .1 0 .2-.2.2.9.1 1.2.1 1.7 0 .2 0 .4-.1.5 0h-.3c-.3 0 .1.1.2.1s.5 0 .8-.1c-.6.1-.7.1-.9.1z"/><path class="st6" d="M203.2 142.8c-2.1 0-3.8 1.1-3.8 2.4 0 1.3 1.7 2.4 3.8 2.4 2.1 0 3.8-1.1 3.8-2.4.1-1.4-1.7-2.4-3.8-2.4m0 .1c2 0 3.7 1 3.7 2.3 0 1.2-1.7 2.3-3.7 2.3s-3.7-1-3.7-2.3c0-1.3 1.7-2.3 3.7-2.3"/></g></g><g><path class="st7" d="M207.1 183.7c.1 2.3 2.2 2.1 3.3.6 2.1-2.8.7-6.6 2.4-9.5-.4.1-.8.3-1.2.4-.6 3.1 0 6.7.1 9.8 0 .8 1.3-.3 1.3-.7.3-2.6.6-5.7 1.7-8.1-.4.1-.8.3-1.2.4-.4 2.4-.5 5.2.2 7.6.8 2.8 3-.5 3.6-1.7.4-.9-1.1-.1-1.3.4-.7 1.7-.9.6-1.1-.4-.2-.9-.2-1.8-.2-2.7 0-1.3 0-2.7.2-4 .1-.8-1.1.1-1.2.4-1.2 2.6-1.6 5.9-1.9 8.7.4-.2.9-.5 1.3-.7-.2-3.1-.8-6.7-.1-9.8.2-.8-1.1.2-1.2.4-.8 1.3-1 2.7-1.1 4.2-.1.9-.2 1.9-.3 2.8-.1.5-.2 1-.4 1.4-.6 1.9-1.4.1-1.4-.4-.1-.7-1.5.3-1.5.9zM191.3 176.4c-.4-1.8-1.9-3-3.5-1.5-1.5 1.4-1.8 3.7-1.9 5.7 0 1.6.2 4 1.9 4.6 2.1.8 3.8-2.4 4.3-3.9.3-.9-1.1-.1-1.2.4-.4 1.4-1.6 3.2-2.9 1.6-.7-.9-.8-2.4-.8-3.4 0-1.1.2-2.2.5-3.3.7-2 2-.7 2.3.8.2.6 1.4-.4 1.3-1zM239 183.8c.1 1.5 1.6 1.2 2.5.5.7-.7.7-1.8.8-2.6.1-1.3.3-2.6.8-3.9-.4.2-.9.4-1.3.6 0 1.1-.3 8.2 2.3 6.2.6-.5.7-1.6-.3-.9.2-.1-.1-.5-.2-.8-.2-.4-.2-.9-.3-1.4-.2-1.3-.2-2.6-.2-3.9 0-.9-1.2.3-1.3.6-.4 1-.6 2-.8 3-.1.7-.2 1.4-.2 2.1-.1.6-.1.7 0 .4-.3 0-.5-.3-.5-.5 0-.9-1.3.1-1.3.6z"/><path class="st7" d="M244.1 183.8c.1 1.6 1.8 1.3 2.6.3.6-.7.6-1.6.7-2.5.1-1.3.3-2.6.8-3.9-.4.2-.9.4-1.3.6 0 1.5 0 3 .3 4.5.1.7.2 1.9 1 2.2 1.6.6 2.6-2.2 2.8-3.2.1-.7-1.2.2-1.3.7-.2 1.2-.5 1.6-.9.3-.5-1.6-.4-3.4-.4-5.1 0-.9-1.2.3-1.3.6-.4.8-.6 1.7-.7 2.6-.1.5-.1 1.1-.2 1.6 0 .3-.1.6-.1.9-.1.8-.5.2-.5-.1-.3-1-1.6 0-1.5.5zM237.3 183c1-1.2 3-3.8 1.7-5.3-.9-1.1-2.4.6-2.7 1.4-.6 1.4-.7 3.2-.2 4.7.6 1.9 2.4 1.1 3.5.2.6-.5.6-1.6-.3-.9-2.1 1.8-2.3-1.5-2.1-2.9 0-.4.1-.8.2-1.2.2-.6 0-.4.4-.1 1.1.9-.9 3.2-1.4 3.9-.8.9.4.8.9.2zM230.3 178.3c-.1-2-2.4-.9-3.1.1-.9 1.4-1 3.2-.8 4.8.3 1.5 1.5 2 2.6.9 1.5-1.4 1.2-3.9 1.3-5.8-.4.2-.9.5-1.3.7 0 1.1-.1 2.3 0 3.5.1.7.1 1.5.5 2.1.8 1.1 2.8-1.1 3.1-1.6.7-.9-.4-.9-.9-.3-.8 1.1-1.2.8-1.4-.3-.1-1.3 0-2.7 0-4.1 0-.8-1.3.2-1.3.7-.1 1.1-.1 2.2-.2 3.3 0 .3-.2 1.1-.3 1.1-.3 0-.4-.4-.5-.6-.3-.7-.3-1.6-.2-2.4 0-.4.1-.9.2-1.3.1-.2.1-.4.3-.6.3-.4.8.4.8.5-.1.8 1.2-.2 1.2-.7z"/><path class="st7" d="M253.6 178.3c-.1-2-2.4-.9-3.1.1-.9 1.4-1 3.2-.8 4.8.3 1.5 1.5 2 2.6.9 1.5-1.4 1.2-3.9 1.3-5.8-.4.2-.9.5-1.3.7 0 1.2-.6 7.3 2.1 5.4.7-.5.7-1.6-.3-.9-.3.2-.5-1.9-.5-1.9-.1-1.1 0-2.2 0-3.3 0-.8-1.3.2-1.3.7-.1 1.1-.1 2.2-.2 3.3 0 .3-.2 1.1-.3 1.1-.3 0-.4-.4-.5-.6-.3-.7-.3-1.6-.2-2.4 0-.4.1-.9.3-1.3.1-.2.1-.4.3-.6.3-.4.8.4.8.5-.2.8 1.1-.2 1.1-.7zM198.5 183.6c.1 1.6 1.5 1.9 2.6.9 1-1 1.2-2.4 1.2-3.8 0-1.1-.2-2.7-1.2-3.2-.5-.3-1.2.2-1.6.4-.8.6-1.1 1.6-1.1 2.5 0 .8 1.3-.2 1.3-.7 0-1 .4-1.1.8-.3.2.5.3 1.1.4 1.7.1.7.1 1.4-.1 2-.1.2-.1.5-.3.7.1-.1 0-.1-.2-.1-.4-.1-.6-.5-.6-.9.1-.7-1.2.3-1.2.8z"/><path class="st7" d="M198.2 177.5c.5 3.9.4 8 0 11.8-.1.7 1.3-.2 1.3-.7.4-4 .5-8.1-.1-12.1 0-.6-1.3.4-1.2 1zM231.6 183.6c.1 1.6 1.5 1.9 2.6.9 1-1 1.2-2.4 1.2-3.8 0-1.1-.2-2.7-1.2-3.2-.5-.3-1.2.2-1.6.4-.8.6-1.1 1.6-1.1 2.5 0 .8 1.3-.2 1.3-.7 0-1 .4-1.1.8-.3.2.5.3 1.1.4 1.7.1.7.1 1.4-.1 2 0 .2-.1.5-.3.7.1-.1 0-.1-.2-.1-.4-.1-.6-.5-.6-.9 0-.7-1.3.3-1.2.8z"/><path class="st7" d="M231.2 177.5c.5 3.9.4 8 0 11.8-.1.7 1.3-.2 1.3-.7.4-4 .5-8.1-.1-12.1.1-.6-1.3.4-1.2 1zM218.3 177.4c-1.6.1-2.2 2.1-2.4 3.5-.1 1.1-.1 4 1.5 4.2 1.7.1 2.4-2.2 2.6-3.5.1-1.1 0-4-1.6-4.2-.6-.1-1.5 1.3-1 1.3.9.1 1.1 1.4 1.2 2.1.1.6.1 1.2 0 1.7 0 .2-.1.5-.1.7 0 .2-.3.6-.1.5-.8.4-1.1-1.6-1.2-2-.1-.6 0-1.2 0-1.7 0-.3.1-.6.2-.9.1-.3.2-.3.1-.3.6-.1 1.6-1.5.8-1.4zM195.8 178.3c-.6 1.8-.7 4.4-.1 6.2.6 2 3.7-1.5 4.1-2.2.5-1-.8-.4-1.1.1-.1.2-1.2 1.6-1.6 1.3-.3-.2-.3-1.2-.3-1.6-.1-1.4-.1-3 .3-4.3.3-.9-1.1 0-1.3.5zM191.5 183.1c.6-.2 1.8-.8 2.1.1.3.8-.5.5-.9.1-1-1.3-.4-4.1 0-5.5.3-1-1.2-.1-1.3.4-.4 1.5-1.4 7.9 1.9 6.8 1-.4 1.8-1.5 1.8-2.5-.1-1.6-2.2-1.1-3.1-.7-.4.2-.7.5-.9.9-.2.2 0 .5.4.4z"/><g><path class="st7" d="M225.9 183.5c-.7.7-1-2.1-1-2.3-.1-1.2 0-2.4 0-3.6 0-.8-1.3.2-1.3.7-.1 1-.1 2.1-.2 3.1 0 .5-.1 1.1-.2 1.6-.1.6-.1.8-.6.4-1.3-.9-.6-4.3-.2-5.5.2-.9-1.1-.1-1.3.4-.3 1.2-1.4 6.9 1.2 6.6 3-.3 2.5-5.4 2.6-7.4-.4.2-.9.5-1.3.7-.1 1.8-.3 3.8.3 5.6.5 1.5 1.8 1 2.7.1.6-.5 0-1.1-.7-.4z"/><path class="st7" d="M226.2 183.3c-1.2.7-3.4 2.4-2.5 4 .3.6 1.6-.5 1.3-1-.3-.5-.1-.9.3-1.3.2-.2.4-.3.6-.4l.1-.1c-.1.1-.1.1 0 0 0 0 .1 0 .1-.1.3-.2.7-.5.7-.9.1-.4-.4-.4-.6-.2z"/></g><path class="st7" d="M217.5 178.6c1.3 1.5 2.9.9 4.3 0 .7-.4.7-1.5-.3-.9-1.1.7-2 .8-2.9-.3-.3-.4-1.5.8-1.1 1.2z"/></g></g></g></svg>