<svg xmlns="http://www.w3.org/2000/svg" viewBox="100 10 330 232"><style>.st0{fill:#9DD887;} .st1{fill:#FCF3E0;} .st2{fill:#FFFFFF;} .st3{fill:#EFEFEF;}</style><g id="Layer_1"><path class="st0" d="M139.1 65.1h255.1v145.7H139.1z"/><path class="st1" d="M265.2 191L181 178.7c-8.3-1.2-14.2-9-12.9-17.4l.8-5.2c1.2-8.3 9-14.2 17.4-12.9l84.3 12.3c8.3 1.2 14.2 9 12.9 17.4l-.8 5.2c-1.3 8.3-9.1 14.1-17.5 12.9z"/><path class="st2" d="M189.3 155.9l-6.3-.9c-1.4-.2-2.4-1.6-2.2-3 .2-1.4 1.6-2.4 3-2.2l6.3.9c1.4.2 2.4 1.6 2.2 3-.2 1.4-1.6 2.4-3 2.2z"/><path class="st1" d="M274.5 108.2l-83.6 16.1c-8.3 1.6-16.3-3.9-17.9-12.1l-1-5.2c-1.6-8.3 3.9-16.3 12.1-17.9L267.7 73c8.3-1.6 16.3 3.9 17.9 12.1l1 5.2c1.7 8.3-3.8 16.4-12.1 17.9z"/><path class="st2" d="M191.3 100.1l-6.3 1.2c-1.4.3-2.8-.7-3.1-2.1-.3-1.4.7-2.8 2.1-3.1l6.2-1.2c1.4-.3 2.8.7 3.1 2.1.3 1.4-.6 2.8-2 3.1z"/><path class="st1" d="M354.8 176.9l-80-29.3c-7.9-2.9-12-11.7-9.1-19.6l1.8-5c2.9-7.9 11.7-12 19.6-9.1l80 29.3c7.9 2.9 12 11.7 9.1 19.6l-1.8 5c-2.8 7.9-11.7 12-19.6 9.1z"/><path class="st2" d="M287.7 127l-6-2.2c-1.4-.5-2.1-2-1.6-3.4s2-2.1 3.4-1.6l6 2.2c1.4.5 2.1 2 1.6 3.4s-2 2.1-3.4 1.6z"/><path class="st2" d="M388 213.7H144.5c-4.4 0-7.9-3.6-7.9-7.9V53.6c0-4.4 3.6-7.9 7.9-7.9H388c4.4 0 7.9 3.6 7.9 7.9v152.2c0 4.3-3.5 7.9-7.9 7.9zM144.5 51c-1.4 0-2.6 1.2-2.6 2.6v152.2c0 1.4 1.2 2.6 2.6 2.6H388c1.4 0 2.6-1.2 2.6-2.6V53.6c0-1.4-1.2-2.6-2.6-2.6H144.5z"/><path class="st3" d="M401.8 46.5c0 3.2-2.6 5.7-5.7 5.7H134.9c-3.2 0-5.7-2.6-5.7-5.7 0-3.2 2.6-5.7 5.7-5.7h261.2c3.1 0 5.7 2.6 5.7 5.7z"/><path class="st2" d="M166.4 116c-2.1 0-3.9-1.7-3.9-3.9 0-2.1 1.7-3.9 3.9-3.9s3.9 1.7 3.9 3.9-1.8 3.9-3.9 3.9zm0-6.4c-1.4 0-2.5 1.1-2.5 2.5s1.1 2.5 2.5 2.5 2.5-1.1 2.5-2.5c0-1.3-1.1-2.5-2.5-2.5zM250.6 146.9c-2.1 0-3.9-1.7-3.9-3.9 0-2.1 1.7-3.9 3.9-3.9s3.9 1.7 3.9 3.9c-.1 2.1-1.8 3.9-3.9 3.9zm0-6.4c-1.4 0-2.5 1.1-2.5 2.5s1.1 2.5 2.5 2.5 2.5-1.1 2.5-2.5-1.1-2.5-2.5-2.5zM374.8 123.6c-1.8 0-3.2-1.4-3.2-3.2s1.4-3.2 3.2-3.2c1.8 0 3.2 1.5 3.2 3.2s-1.4 3.2-3.2 3.2zm0-5.2c-1 0-1.9.9-1.9 1.9s.9 1.9 1.9 1.9 1.9-.9 1.9-1.9c0-1-.9-1.9-1.9-1.9zM372.2 87.7c-1.8 0-3.2-1.4-3.2-3.2s1.4-3.2 3.2-3.2c1.8 0 3.2 1.5 3.2 3.2s-1.4 3.2-3.2 3.2zm0-5.1c-1 0-1.9.9-1.9 1.9s.9 1.9 1.9 1.9 1.9-.9 1.9-1.9c0-1.1-.8-1.9-1.9-1.9zM374.7 97.5c-1.8 0-3.2-1.5-3.2-3.2s1.4-3.2 3.2-3.2c1.8 0 3.2 1.5 3.2 3.2s-1.4 3.2-3.2 3.2zm0-5.1c-1 0-1.9.9-1.9 1.9s.9 1.9 1.9 1.9 1.9-.9 1.9-1.9c0-1.1-.9-1.9-1.9-1.9zM296.6 188.2c-1.8 0-3.2-1.5-3.2-3.2 0-1.8 1.4-3.2 3.2-3.2s3.2 1.4 3.2 3.2c.1 1.8-1.4 3.2-3.2 3.2zm0-5.1c-1 0-1.9.9-1.9 1.9s.9 1.9 1.9 1.9 1.9-.9 1.9-1.9c0-1.1-.8-1.9-1.9-1.9zM174.3 132.9c-1.8 0-3.2-1.4-3.2-3.2 0-1.8 1.4-3.2 3.2-3.2s3.2 1.5 3.2 3.2c0 1.7-1.4 3.2-3.2 3.2zm0-5.1c-1 0-1.9.9-1.9 1.9s.9 1.9 1.9 1.9 1.9-.9 1.9-1.9c0-1.1-.9-1.9-1.9-1.9zM161.8 199.3c-1.8 0-3.2-1.5-3.2-3.2 0-1.8 1.4-3.2 3.2-3.2s3.2 1.5 3.2 3.2c.1 1.7-1.4 3.2-3.2 3.2zm0-5.1c-1 0-1.9.9-1.9 1.9s.9 1.9 1.9 1.9 1.9-.9 1.9-1.9-.8-1.9-1.9-1.9zM207 83.8c-1.8 0-3.2-1.4-3.2-3.2s1.4-3.2 3.2-3.2c1.8 0 3.2 1.5 3.2 3.2s-1.4 3.2-3.2 3.2zm0-5.2c-1 0-1.9.9-1.9 1.9s.9 1.9 1.9 1.9 1.9-.9 1.9-1.9-.8-1.9-1.9-1.9zM356.1 196.7c-1.8 0-3.2-1.5-3.2-3.2 0-1.8 1.4-3.2 3.2-3.2 1.8 0 3.2 1.5 3.2 3.2 0 1.8-1.5 3.2-3.2 3.2zm0-5.1c-1 0-1.9.9-1.9 1.9s.9 1.9 1.9 1.9 1.9-.9 1.9-1.9-.9-1.9-1.9-1.9zM163.2 131.5c-3.3 0-5.9-2.7-5.9-5.9 0-3.3 2.7-5.9 5.9-5.9 3.3 0 5.9 2.7 5.9 5.9 0 3.3-2.6 5.9-5.9 5.9zm0-10.5c-2.5 0-4.6 2.1-4.6 4.6 0 2.5 2.1 4.6 4.6 4.6s4.6-2.1 4.6-4.6c0-2.5-2.1-4.6-4.6-4.6zM366.5 109.8c-3.3 0-5.9-2.7-5.9-5.9 0-3.3 2.7-5.9 5.9-5.9 3.3 0 5.9 2.7 5.9 5.9s-2.6 5.9-5.9 5.9zm0-10.6c-2.5 0-4.6 2.1-4.6 4.6s2.1 4.6 4.6 4.6 4.6-2.1 4.6-4.6c0-2.5-2.1-4.6-4.6-4.6zM156.7 87.9H155c-1.4 0-2.6-1.2-2.6-2.6V63.6c0-1.4 1.2-2.6 2.6-2.6h1.7c1.4 0 2.6 1.2 2.6 2.6v21.6c0 1.5-1.2 2.7-2.6 2.7z"/></g></svg>