<?xml version="1.0" encoding="utf-8"?>
<!-- Generator: Adobe Illustrator 19.0.0, SVG Export Plug-In . SVG Version: 6.00 Build 0)  -->
<svg version="1.1" id="Layer_1" xmlns="http://www.w3.org/2000/svg" xmlns:xlink="http://www.w3.org/1999/xlink" x="0px" y="0px"
	 viewBox="0 0 154.3 102.8" style="enable-background:new 0 0 154.3 102.8;" xml:space="preserve">
<style type="text/css">
	.st0{fill:#EFEFEF;}
	.st1{fill:#DDDDDD;}
	.st2{fill:#E0E0E0;}
	.st3{fill:#FFFFFF;}
	.st4{fill:#814195;}
	.st5{fill:#62BA47;}
	.st6{fill:#62BA46;}
</style>
<path id="XMLID_114_" class="st0" d="M136.4,24.7h-17.6h-7.2H45.8h-7.1H21l7.6,49.8l0,0c0.7,4.9,5,8.7,10.1,8.7h80.1
	c5.5,0,10-4.3,10.2-9.8L136.4,24.7z"/>
<path id="XMLID_101_" class="st1" d="M118.8,24.7h-7.2H78.7v58.5h40.1c5.5,0,10-4.3,10.2-9.8l7.4-48.8h-17.6V24.7z"/>
<path id="XMLID_100_" class="st2" d="M137.2,21.3c0,1.3-1.1,2.4-2.4,2.4H22.3c-1.3,0-2.4-1.1-2.4-2.4l0,0c0-1.3,1.1-2.4,2.4-2.4
	h112.5C136.2,19,137.2,20,137.2,21.3L137.2,21.3z"/>
<path id="XMLID_99_" class="st3" d="M140,24.7c0,1.3-1.1,2.4-2.4,2.4H18.9c-1.3,0-2.4-1.1-2.4-2.4l0,0c0-1.3,1.1-2.4,2.4-2.4h118.7
	C138.9,22.3,140,23.4,140,24.7L140,24.7z"/>
<path id="XMLID_98_" class="st3" d="M36.6,44.4c0.3,2.2-1.2,4.1-3.4,4.5l0,0c-2.2,0.3-4.2-1.2-4.5-3.4L27.2,35
	c-0.3-2.2,1.2-4.2,3.4-4.5l0,0c2.2-0.3,4.2,1.2,4.5,3.4L36.6,44.4z"/>
<g id="XMLID_55_">
	<circle id="XMLID_97_" class="st4" cx="77.1" cy="56.8" r="14.4"/>
	<circle id="XMLID_96_" class="st5" cx="65.6" cy="69.6" r="4.5"/>
	<path id="XMLID_95_" class="st4" d="M70.3,39.2c0,1-0.8,1.8-1.8,1.8s-1.8-0.8-1.8-1.8s0.8-1.8,1.8-1.8
		C69.5,37.3,70.3,38.1,70.3,39.2L70.3,39.2z"/>
	<path id="XMLID_94_" class="st5" d="M70.4,45.4c0,1.3-1.1,2.4-2.4,2.4c-1.3,0-2.4-1.1-2.4-2.4c0-1.3,1.1-2.4,2.4-2.4
		C69.3,43,70.4,44.1,70.4,45.4L70.4,45.4z"/>
	<path id="XMLID_93_" class="st5" d="M64,41.7c0,0.8-0.6,1.4-1.4,1.4c-0.8,0-1.4-0.6-1.4-1.4c0-0.8,0.6-1.4,1.4-1.4S64,40.9,64,41.7
		L64,41.7z"/>
	<g id="XMLID_79_">
		<circle id="XMLID_92_" class="st5" cx="89.4" cy="43.7" r="8"/>
		<g id="XMLID_80_">
			<path id="XMLID_89_" class="st3" d="M87.5,42.5c-0.7,0.1-0.8,0.9-0.9,1.4l0,0l0,0c0,0.1,0,0.2,0,0.2c0,0.3,0,0.5,0,0.7
				c0,0.1,0,0.3-0.1,0.3c-0.2,0-0.4-0.3-0.5-0.5c-0.2-0.4-0.3-0.8-0.4-1.3c-0.1-0.5-0.1-0.9-0.2-1.4c0-0.2,0-0.4,0-0.6
				c0-0.1,0-0.2,0-0.2c0-0.1,0-0.1,0-0.1c0.1-0.3-0.4,0-0.5,0.1c-0.5,0.9-0.4,2-0.4,3c0,0.3,0,0.5-0.1,0.8c0,0.2-0.1,0.5-0.2,0.7
				c-0.1,0.1-0.3,0-0.4,0c-0.1-0.1-0.2-0.2-0.2-0.4s-0.2-0.1-0.3,0s-0.2,0.3-0.2,0.5c0.1,0.4,0.4,0.7,0.8,0.6c0.6-0.2,0.8-0.9,1-1.4
				c0.1-0.3,0.1-0.5,0.1-0.8c0.1,0.4,0.2,0.8,0.4,1.1c0.1,0.3,0.4,0.5,0.7,0.5c0.2,0,0.4-0.3,0.5-0.6c0.1,0.3,0.3,0.5,0.6,0.4
				c0.3,0,0.6-0.4,0.7-0.6c0.1-0.3,0.2-0.7,0.2-1C88.3,43.4,88.2,42.5,87.5,42.5z M87.7,44.8c0,0.1,0,0.1-0.1,0.2
				c-0.1,0-0.2-0.2-0.3-0.3c-0.1-0.2-0.1-0.5-0.2-0.7c0-0.2,0-0.5,0-0.8c0-0.1,0-0.1,0.1-0.2c0.3,0.2,0.4,0.6,0.4,1
				C87.7,44.3,87.7,44.6,87.7,44.8z"/>
			<path id="XMLID_86_" class="st3" d="M95.4,43.5c-0.7-0.3-1.1,0.7-1.2,1.2c-0.1,0.5-0.3,1.4,0.3,1.6c0.3,0.1,0.7-0.1,0.8-0.3
				c0.2-0.2,0.4-0.6,0.4-0.9C95.9,44.6,96,43.7,95.4,43.5z M95,45.7c0,0.1-0.1,0.1-0.1,0.2c-0.1-0.1-0.1-0.3-0.2-0.4
				c0-0.2,0-0.5,0-0.7s0.1-0.5,0.2-0.7c0-0.1,0.1-0.1,0.1-0.2c0.3,0.3,0.2,0.8,0.1,1.1C95.1,45.3,95.1,45.5,95,45.7z"/>
			<path id="XMLID_81_" class="st3" d="M93.5,43.6c0.1-0.2,0.3-0.4,0.4-0.5c0.3-0.4,0.5-0.9,0.5-1.3c0-0.5-0.6-0.5-1-0.3
				c-0.5,0.2-0.7,0.7-0.8,1.2c-0.2,0.6-0.3,1.2-0.3,1.9l0,0c-0.2,0.3-0.7,0.8-1.1,0.6c-0.1-0.1-0.1-0.2-0.2-0.3
				c0.3-0.3,0.5-0.6,0.8-1c0.2-0.3,0.4-0.9,0-1.1c-0.3-0.2-0.8,0-1,0.3s-0.3,0.6-0.4,1c0,0.2,0,0.5,0,0.8c-0.2,0.1-0.5,0.2-0.7,0.2
				c-0.3-0.1-0.4-0.3-0.4-0.6c-0.1-0.3-0.1-0.7,0-1c0-0.1,0-0.2,0.1-0.3V43c0.2,0.1,0.2,0.3,0.3,0.5s0.7-0.2,0.6-0.4
				c-0.1-0.2-0.2-0.5-0.4-0.6s-0.6,0.1-0.7,0.2c-0.4,0.4-0.5,1.1-0.4,1.6c0,0.4,0.1,0.8,0.4,1c0.4,0.3,1,0,1.4-0.2
				c0.1,0.3,0.3,0.5,0.7,0.4s0.8-0.3,1.1-0.6c0,0.3,0.1,0.7,0.3,0.8c0.4,0.2,0.8,0,1.1-0.3c0.3-0.4,0.5-1,0.3-1.5
				C93.9,43.7,93.7,43.6,93.5,43.6z M91,43.3c0-0.1,0.1-0.2,0.1-0.3l0,0c0.2,0,0.2,0.3,0.2,0.4c0,0.3-0.2,0.5-0.4,0.8v-0.1
				C90.9,43.8,91,43.6,91,43.3z M93.3,42c0-0.1,0.1-0.2,0.2-0.3l0,0c0.3,0.3,0,0.7-0.1,1c-0.2,0.3-0.3,0.6-0.5,0.8
				c0-0.3,0.1-0.5,0.2-0.8C93.1,42.5,93.2,42.3,93.3,42z M93.2,45.3c0,0,0,0.1-0.1,0.1c0,0,0,0-0.1,0c-0.2-0.1-0.2-0.5-0.2-0.6
				s0-0.3,0-0.4c0.1-0.1,0.1-0.2,0.2-0.3c0.2-0.1,0.3,0.1,0.3,0.3C93.4,44.6,93.3,45,93.2,45.3z"/>
		</g>
	</g>
	<g id="XMLID_75_">
		<path id="XMLID_78_" class="st3" d="M67.8,68.4c-0.5,0.9-1.2,1.8-1.9,2.6c-0.3,0.4,0.2,0.4,0.4,0.1c0.7-0.9,1.4-1.8,2-2.8
			C68.5,67.9,67.9,68.2,67.8,68.4L67.8,68.4z"/>
		<path id="XMLID_77_" class="st3" d="M66.8,68.1c-0.3,0-0.6,0.3-0.6,0.6c-0.1,0.3,0.1,0.5,0.4,0.6C67.2,69.3,67.5,68.2,66.8,68.1
			c-0.1,0-0.4,0.4-0.2,0.4s0.2,0.1,0.3,0.3c0,0.1,0,0.1,0,0.2l0,0h-0.1c-0.2,0-0.3-0.1-0.3-0.3c0-0.1,0-0.1,0-0.2l0,0h0.1
			C66.7,68.5,67,68.1,66.8,68.1z"/>
		<path id="XMLID_76_" class="st3" d="M67.7,70.1c-0.3,0-0.6,0.3-0.6,0.6c-0.1,0.3,0.1,0.5,0.4,0.6C68.1,71.3,68.5,70.1,67.7,70.1
			c-0.1,0-0.4,0.4-0.2,0.4s0.2,0.1,0.3,0.3c0,0.1,0,0.1,0,0.2l0,0h-0.1c-0.2,0-0.3-0.1-0.3-0.3c0-0.1,0-0.1,0-0.2l0,0h0.1
			C67.7,70.4,67.9,70.1,67.7,70.1z"/>
	</g>
	<g id="XMLID_62_">
		<path id="XMLID_71_" class="st3" d="M81.6,55.2c-0.4-0.3-0.9-0.1-1.3,0c0-0.3,0-0.6-0.1-0.9c0-0.3-0.5-0.1-0.6,0
			c-0.1,0-0.1,0.1-0.2,0.1c-0.1,0.1-0.2,0.2-0.2,0.3c-0.4,0.9-1,0.4-1.2,0.3l0,0c-0.2-0.1-0.3-0.2-0.6-0.2c-1.3,0-1.7,1.6-1.7,2.7
			c0,0.8,0,2.4,1.1,2.5c0.6,0,1.1-0.5,1.3-0.9c0.3-0.5,0.4-1.1,0.5-1.7c0-0.3,0-0.9-0.1-1.5c0.3-0.1,0.5-0.2,0.7-0.3
			c0,1.3,0,2.7-0.1,4c-0.1,1.1-0.2,2.3-0.4,3.4c0,0.3,0.3,0.2,0.4,0.2c0.2-0.1,0.5-0.3,0.5-0.6c0.1-0.8,0.2-1.6,0.3-2.3
			c0.4,0,0.8-0.1,1.1-0.3c0.7-0.5,1-1.5,1.1-2.4C82.3,56.7,82.3,55.7,81.6,55.2z M77.5,58.7c0,0.1-0.1,0.2-0.1,0.3
			c-0.2-0.1-0.4-0.4-0.4-0.6c-0.1-0.4-0.2-0.8-0.2-1.2s0-0.9,0.2-1.3c0-0.1,0.1-0.2,0.1-0.3c0.5,0.4,0.6,1.1,0.6,1.8
			C77.6,57.9,77.6,58.3,77.5,58.7z M80.8,59.2C80.8,59.3,80.8,59.3,80.8,59.2C80.8,59.3,80.8,59.3,80.8,59.2
			c-0.4,0.1-0.6-0.3-0.6-0.7c0.1-0.7,0.1-1.3,0.1-2l0,0c0-0.2,0-0.4,0.1-0.6l0,0l0,0c0.1,0,0.2,0.1,0.3,0.3c0.3,0.4,0.3,1.1,0.3,1.5
			C81.2,58.2,81.1,58.8,80.8,59.2z"/>
		<path id="XMLID_68_" class="st3" d="M84.6,55.7c-1.3-0.3-1.8,1.3-2,2.3c-0.2,0.9-0.3,2.4,0.8,2.7c0.5,0.2,1.1-0.3,1.4-0.6
			c0.4-0.4,0.6-1,0.7-1.6C85.6,57.6,85.8,56,84.6,55.7z M84.1,59.6c0,0.1-0.1,0.2-0.2,0.3c-0.2-0.1-0.3-0.5-0.3-0.6
			c-0.1-0.4-0.1-0.8,0-1.2s0.2-0.8,0.3-1.2c0-0.1,0.1-0.2,0.2-0.3c0.5,0.5,0.4,1.3,0.3,1.9C84.4,58.8,84.3,59.3,84.1,59.6z"/>
		<path id="XMLID_64_" class="st3" d="M74,56c0.2-0.4,0.4-0.9,0.5-1.3c0.3-0.9,0.5-1.6,0.2-2.3c-0.2-0.7-1.4-0.2-1.8,0.2
			c-0.6,0.7-0.9,1.6-0.9,2.5c-0.1,1,0,2,0.1,2.9c-0.2,0.4-0.4,0.9-0.7,1.3c0,0,0,0.1-0.1,0.1c0,0-0.1-0.1-0.1-0.2
			c-0.1-0.2-0.1-0.4-0.1-0.6c-0.2-1.5-0.2-3-0.6-4.5c-0.1-0.4-0.5-1.2-1.2-0.9c-0.5,0.2-0.9,0.6-1.1,1.1c-0.2-0.4-0.7-0.8-1.4-0.4
			c-0.3,0.2-0.5,0.4-0.7,0.6c0-0.2-0.1-0.5-0.3-0.6c-0.3-0.3-1.2,0.8-0.9,1c0.2,0.2,0.2,0.5,0.3,0.7c0.1,0.5,0.2,1.1,0.3,1.6
			c0.1,0.3,0.1,0.6,0.1,0.8c0.2,1.1,0.4,2.3,0.6,3.4c0,0.1,0.1,0.1,0.1,0.1c0.2,0,0.7-0.7,0.7-1c-0.2-1-0.3-2-0.5-3
			c-0.1-0.4-0.1-0.9-0.1-1.3c0-0.5,0-0.9,0-1.4c0-0.1,0-0.1,0-0.2c0.8,0.1,0.9,1.1,1,1.7c0.1,0.6,0.2,1.2,0.3,1.7
			c0.1,0.9,0.2,1.8,0.4,2.6c0,0.1,0.1,0.2,0.1,0.1c0.3,0,0.8-0.6,0.7-0.9c-0.1-0.9-0.2-1.8-0.3-2.8c0-0.2,0-0.4-0.1-0.7
			c0-0.8,0-1.6,0.1-2.4c0,0,0,0,0-0.1c0.2,0,0.3,0.2,0.4,0.3c0.5,0.8,0.6,1.8,0.7,2.7c0.1,0.6,0.1,1.2,0.2,1.8
			c0,0.4,0.1,0.8,0.3,1.1c0.3,0.4,0.7,0.1,1-0.1c0.3-0.3,0.6-0.7,0.8-1.1c0.2,0.5,0.4,1.1,0.9,1.1c0.8-0.1,1.4-0.7,1.7-1.5
			s0.5-2-0.3-2.6C74.5,55.9,74.2,55.9,74,56z M73,54.9c0-0.7,0.2-1.4,0.5-2l0,0c0.2,0.1,0.2,0.4,0.2,0.5c0,0.7-0.2,1.4-0.4,2.1
			c-0.1,0.3-0.2,0.5-0.3,0.8C73,55.9,73,55.4,73,54.9z M74.2,58.1c0,0.3,0,0.7-0.1,1c0,0,0,0,0,0.1H74c-0.2,0-0.3-0.4-0.4-0.5
			c-0.2-0.3-0.2-0.7-0.3-1.1c0.1-0.2,0.2-0.4,0.3-0.5c0.1-0.2,0.3-0.1,0.4,0C74.2,57.3,74.2,57.8,74.2,58.1z"/>
		<path id="XMLID_63_" class="st3" d="M88.3,60.9c-0.1-0.2-0.5-0.1-0.7-0.1c-0.2,0.1-0.4,0.1-0.7,0c-0.2-0.1-0.3-0.3-0.3-0.5
			c-0.1-0.8,0.8-1.2,1.4-1.5c0.4-0.3,0.9-1,0.5-1.6s-1.3-0.7-1.9-0.5c-0.2,0.1-0.6,0.2-0.5,0.5c0,0.3,0.5,0.2,0.6,0.2
			c0.3-0.1,0.6,0,0.8,0.3s0.1,0.5-0.1,0.7c-0.3,0.3-0.8,0.5-1.1,0.8c-0.3,0.2-0.5,0.5-0.6,0.9c-0.2,0.5,0,1,0.4,1.3
			c0.6,0.5,1.3,0.3,2,0.1C88.1,61.4,88.4,61.2,88.3,60.9z"/>
	</g>
	<path id="XMLID_61_" class="st3" d="M63.2,70.7c0.4,1.3,2.3,0.4,2-0.7c-0.2-0.6-0.8-0.5-1.3-0.6c-0.2-0.1-0.3-0.3-0.3-0.5
		c0.1-0.2,0.1-0.3-0.1-0.1c0.1,0,0.1,0,0.2-0.1c0.4-0.1,0.8-0.1,1.2,0.1c0.2,0.1,0.6-0.4,0.3-0.5c-0.5-0.2-1-0.2-1.5-0.1
		c-0.5,0.1-0.6,0.5-0.6,1s0.5,0.6,0.9,0.7c0.3,0.1,0.6,0.1,0.6,0.5c0,0.6-0.6,0.5-0.9,0.3c-0.1-0.1-0.2-0.2-0.3-0.4
		C63.6,70.1,63.1,70.5,63.2,70.7L63.2,70.7z"/>
	<g id="XMLID_56_">
		<path id="XMLID_60_" class="st6" d="M59.6,50.7c-0.1,0-0.1-0.1-0.2-0.2c-0.3-0.1-0.5,0.1-0.8,0.1c-0.7,0-0.9,0-1.8-0.2
			c0-0.7,0.4-1.1,0.6-1.7c0.2-0.5-0.1-1.1-0.1-1.6c0-0.3,0-0.7,0-1c-0.2,0.2-0.1,0.9-0.2,1.2c-0.1-0.4-0.1-1-0.2-1.3
			c-0.1,0.4,0,1,0,1.3c-0.1-0.4-0.2-0.8-0.3-1.2c-0.2,0.4,0.1,1,0.1,1.3c-0.1-0.3-0.2-0.7-0.4-1.1c-0.1,0.5,0.1,0.8,0.1,1.2
			c-0.1-0.3-0.2-0.6-0.4-0.8c0,0.3,0.2,0.7,0.3,0.9c-0.2-0.1-0.3-0.3-0.5-0.4c0,0.2,0.2,0.4,0.3,0.5c-0.1-0.1-0.2-0.2-0.4-0.3
			c0,0.2,0.2,0.3,0.2,0.4c-0.1-0.1-0.2-0.1-0.3-0.2c0,0.2,0.2,0.3,0.2,0.4c0,0-0.2-0.1-0.2,0c0,0,0.2,0.1,0.1,0.1
			c-0.1,0-0.1,0-0.1,0c0,0.1,0.1,0.1,0.1,0.2c0,0,0,0-0.1,0c0,0.1,0.1,0.1,0.1,0.2c-0.6,0.6-0.3,1.3-0.3,2c0-0.1-0.5-0.2-0.9-0.4
			c-0.2-0.1-0.3-0.3-0.4-0.4c0,0,0.1,0,0.1-0.1c-0.1,0-0.1-0.1-0.2-0.1c0.1,0,0.2,0,0.2,0c-0.1-0.1-0.4-0.1-0.3-0.2
			c0.1,0,0.3,0.1,0.4,0.1c-0.2-0.1-0.5-0.2-0.5-0.4c0.1,0.1,0.4,0.2,0.5,0.1c-0.2-0.1-0.6-0.3-0.7-0.5c0.2,0.1,0.4,0.3,0.6,0.3
			c-0.3-0.1-0.5-0.4-0.8-0.4c0.1,0.3,0.6,0.4,0.7,0.6c-0.2-0.1-0.5-0.2-0.7-0.4c0.1,0.3,0.4,0.4,0.6,0.5c-0.2,0-0.3-0.1-0.6-0.1
			c0.1,0.2,0.4,0.2,0.5,0.4c-0.1-0.1-0.2,0-0.4,0c0,0.1,0.3,0.1,0.4,0.2c-0.1,0-0.2,0-0.3,0.1c0.1,0.1,0.2,0,0.3,0.1
			c-0.1,0-0.2,0-0.2,0.1s0.2,0,0.2,0.1c0,0-0.1,0-0.1,0.1h0.1c0,0-0.1,0-0.1,0.1c0.3,0.2,0.5,0.7,0.9,0.8c-0.2,0.2,0.2,0.3-2.5,1.3
			c0.1,0,1.2-0.3,1.6-0.4c0.3-0.1,0.7-0.2,1-0.3c0.1,0,0.2-0.1,0.2-0.1c0.6-0.1,1.1,0.1,1.7-0.3c-0.4,0.1-1.2,0.2-1.5-0.1
			c0.4-0.6,0.1-2.1,0.4-2.4c0.3-0.3,0.8-1.3,1.3-0.4c0.1,0.1,0.1,0.3-0.1,0.7c-0.3,0.4-0.4,0.6-0.4,1.5c0,0.2,0,0.4-0.3,0.4
			c1.2,0.3,1.6,0.1,2.3,0c0.2,0,0.6-0.2,0.6,0c0,0.1-0.2,0.1-0.4,0.1c-0.3,0,0.1,0.1,0.3,0.1c0.1,0,0.7-0.1,1-0.1
			C60,50.8,59.8,50.8,59.6,50.7z"/>
		<path id="XMLID_57_" class="st6" d="M56.1,44.6c-2.8,0-5,2.2-5,5s2.2,5,5,5s5-2.2,5-5S58.8,44.6,56.1,44.6 M56.1,44.8
			c2.7,0,4.8,2.2,4.8,4.8c0,2.7-2.2,4.8-4.8,4.8c-2.7,0-4.8-2.2-4.8-4.8C51.3,46.9,53.4,44.8,56.1,44.8"/>
	</g>
</g>
</svg>
