<svg xmlns="http://www.w3.org/2000/svg" viewBox="0 0 390 246"><style>.st0{fill:#EFEFEF;} .st1{fill:#DDDDDD;} .st2{fill:#E0E0E0;} .st3{fill:#FFFFFF;} .st4{fill:#B66FAD;} .st5{fill:#62BA47;} .st6{fill-rule:evenodd;clip-rule:evenodd;fill:#B66FAD;} .st7{fill-rule:evenodd;clip-rule:evenodd;fill:#62BA47;} .st8{fill:#62BA46;} .st9{fill:#814195;} .st10{fill-rule:evenodd;clip-rule:evenodd;fill:#814195;} .st11{fill:#712F8F;} .st12{fill-rule:evenodd;clip-rule:evenodd;fill:#712F8F;}</style><g id="tvorog"><path class="st0" d="M172.3 48.9H56.8l7.6 49.8c.7 4.9 5 8.7 10.1 8.7h80.1c5.5 0 10-4.3 10.2-9.8l7.5-48.7z"/><path class="st1" d="M154.6 48.9h-40.1v58.5h40.1c5.5 0 10-4.3 10.2-9.8l7.4-48.8h-17.6z"/><path class="st2" d="M173.1 45.5c0 1.3-1.1 2.4-2.4 2.4H58.2c-1.3 0-2.4-1.1-2.4-2.4 0-1.3 1.1-2.4 2.4-2.4h112.5c1.3.1 2.4 1.1 2.4 2.4z"/><path class="st3" d="M175.9 48.9c0 1.3-1.1 2.4-2.4 2.4H54.8c-1.3 0-2.4-1.1-2.4-2.4 0-1.3 1.1-2.4 2.4-2.4h118.7c1.3 0 2.4 1.1 2.4 2.4z"/><circle class="st4" cx="115" cy="79.3" r="15.5"/><circle class="st5" cx="102.6" cy="93.1" r="4.9"/><path class="st6" d="M107.6 60.4c0 1.1-.9 2-2 2s-2-.9-2-2 .9-2 2-2 2 .9 2 2z"/><path class="st7" d="M107.7 67c0 1.4-1.1 2.5-2.5 2.5s-2.5-1.1-2.5-2.5 1.1-2.5 2.5-2.5 2.5 1.1 2.5 2.5zM100.9 63.1c0 .8-.7 1.5-1.5 1.5s-1.5-.7-1.5-1.5.7-1.5 1.5-1.5 1.5.7 1.5 1.5z"/><circle class="st5" cx="128.2" cy="65.2" r="8.5"/><path class="st3" d="M126.1 64c-.7.1-.9.9-.9 1.5v1c0 .1 0 .3-.1.3-.3 0-.5-.4-.5-.5-.2-.4-.3-.9-.4-1.4-.1-.5-.1-1-.2-1.5v-.6-.2-.1c.1-.4-.5 0-.6.2-.6 1-.4 2.2-.4 3.2 0 .3 0 .6-.1.9 0 .2-.1.6-.2.7-.1.1-.3 0-.4 0-.1-.1-.2-.2-.2-.4s-.2-.1-.3 0c-.1.1-.3.3-.2.5.1.4.4.7.8.6.6-.2.9-1 1.1-1.5.1-.3.1-.6.1-.9.1.4.2.8.4 1.2.1.3.4.6.8.5.3-.1.5-.3.6-.7.1.3.3.5.6.5.4 0 .7-.4.8-.7.2-.3.2-.7.2-1.1 0-.5-.2-1.6-.9-1.5zm.2 2.4c0 .1 0 .1-.1.2-.1 0-.2-.2-.3-.3-.1-.2-.2-.5-.2-.7v-.8c0-.1 0-.1.1-.2.4.2.4.7.5 1.1.1.2.1.5 0 .7zM134.6 65c-.8-.3-1.2.8-1.3 1.3-.1.5-.3 1.5.4 1.8.3.1.7-.1.9-.3.2-.3.4-.6.5-.9 0-.7.2-1.7-.5-1.9zm-.5 2.4c0 .1-.1.1-.1.2-.1-.1-.2-.3-.2-.4v-.8c0-.3.1-.5.2-.8 0-.1.1-.1.1-.2.3.3.2.8.1 1.2.1.3 0 .6-.1.8zM132.5 65.1c.1-.2.3-.4.4-.6.3-.4.6-.9.5-1.4 0-.5-.7-.5-1-.4-.5.2-.8.8-.9 1.3-.2.7-.3 1.3-.3 2-.2.3-.7.9-1.1.6-.1-.1-.1-.2-.2-.3.3-.3.6-.7.8-1.1.2-.3.4-.9 0-1.2-.4-.2-.8 0-1.1.3-.2.3-.4.7-.4 1.1v.9c-.2.1-.5.2-.8.2-.3-.1-.4-.4-.5-.6-.1-.3-.1-.7 0-1.1 0-.1 0-.2.1-.3v-.1c.2.1.3.4.3.5.1.3.7-.2.7-.4-.1-.3-.2-.5-.5-.6-.3-.1-.6.1-.8.3-.5.5-.5 1.1-.5 1.8 0 .4.1.9.4 1.1.5.3 1.1 0 1.5-.2.1.3.3.5.7.4.5-.1.9-.3 1.2-.6 0 .3.1.7.3.9.4.2.9 0 1.2-.4.4-.4.5-1.1.3-1.6.1-.4-.1-.5-.3-.5zm-2.6-.3c0-.1.1-.2.1-.3.2 0 .2.3.2.4 0 .3-.2.6-.4.8v-.1c0-.2 0-.5.1-.8zm2.5-1.4c.1-.1.1-.2.2-.3.3.3 0 .8-.1 1.1-.2.3-.3.6-.6.9 0-.3.1-.6.2-.9.1-.2.2-.5.3-.8zm-.2 3.5s0 .1-.1.1h-.1c-.2-.1-.2-.5-.2-.7v-.4c.1-.1.2-.2.2-.3.2-.1.3.1.3.3.2.3.1.7-.1 1zM104.6 91.7c-.6 1-1.3 1.9-2 2.8-.3.4.2.4.4.1.7-1 1.5-1.9 2.1-3 .3-.3-.3-.1-.5.1zM103.5 91.5c-.4 0-.6.4-.7.7-.1.3.1.6.5.6.7 0 1-1.3.2-1.3-.2 0-.4.4-.2.4s.3.2.3.3v.2c0 .1 0 0 0 0h-.1c-.2 0-.3-.2-.3-.3v-.2h.1c.2-.1.5-.5.2-.4zM104.6 93.5c-.4 0-.6.4-.7.7-.1.3.1.6.5.6.6.1 1-1.2.2-1.3-.2 0-.4.4-.2.4s.3.2.3.3v.2h-.1c-.2 0-.3-.2-.3-.3v-.2h.1c.1 0 .4-.4.2-.4zM119.8 77.6c-.4-.3-1-.2-1.4 0 0-.3 0-.7-.1-1 0-.3-.6-.1-.7 0-.1 0-.1.1-.2.1l-.3.3c-.4 1-1.1.4-1.3.3-.2-.1-.4-.2-.6-.2-1.4 0-1.8 1.7-1.8 2.9 0 .9 0 2.6 1.2 2.7.6 0 1.2-.6 1.4-1 .3-.5.4-1.2.5-1.8 0-.4 0-1-.1-1.6.3-.1.5-.2.8-.4 0 1.4 0 2.9-.1 4.3-.1 1.2-.2 2.4-.4 3.6 0 .3.3.2.4.2.2-.1.5-.3.6-.6.1-.8.3-1.7.4-2.5.4 0 .8-.1 1.2-.3.8-.6 1.1-1.6 1.2-2.5 0-.9 0-1.9-.7-2.5zm-4.5 3.8c0 .1-.1.2-.1.3-.2-.1-.4-.4-.4-.6-.2-.4-.2-.9-.2-1.3 0-.5 0-.9.2-1.4 0-.1.1-.2.1-.3.6.5.7 1.2.6 1.9 0 .4 0 .9-.2 1.4zm3.6.5s0 .1 0 0c0 .1 0 .1 0 0-.5.1-.7-.3-.6-.7.1-.7.1-1.4.1-2.1 0-.2 0-.4.1-.6.1 0 .3.1.4.3.3.5.4 1.1.4 1.6 0 .4-.1 1.1-.4 1.5zM123 78.2c-1.4-.3-2 1.4-2.2 2.4-.2.9-.4 2.6.8 2.9.6.2 1.2-.3 1.5-.7.4-.5.6-1.1.7-1.7.3-.9.5-2.7-.8-2.9zm-.5 4.1c0 .1-.1.2-.2.3-.2-.1-.3-.5-.4-.7-.1-.4-.1-.9 0-1.3s.2-.9.4-1.3c0-.1.1-.2.2-.3.5.5.5 1.3.4 2-.2.5-.2.9-.4 1.3zM111.6 78.4c.2-.5.4-.9.6-1.4.3-.9.5-1.7.3-2.5-.2-.7-1.5-.2-1.9.2-.7.7-.9 1.7-1 2.7-.1 1 0 2.1.2 3.2-.2.5-.4 1-.7 1.4l-.1.1s-.1-.1-.1-.2c-.1-.2-.1-.4-.1-.6-.2-1.6-.2-3.2-.7-4.8-.1-.5-.5-1.3-1.3-1-.6.2-1 .6-1.2 1.1-.3-.5-.7-.8-1.5-.4-.3.2-.5.4-.7.6 0-.2-.1-.5-.3-.6-.4-.3-1.3.8-1 1.1.2.2.2.5.3.8.1.6.2 1.1.3 1.7.1.3.1.6.2.9.2 1.2.4 2.5.7 3.7 0 .1.1.2.1.2.3 0 .8-.7.7-1-.2-1.1-.4-2.1-.5-3.2-.1-.5-.1-.9-.1-1.4 0-.5 0-1 .1-1.5 0-.1 0-.2.1-.2.8.1.9 1.1 1 1.8.1.6.2 1.2.3 1.9.1.9.3 1.9.4 2.8 0 .1.1.2.2.2.3 0 .8-.7.8-1l-.3-3c0-.2 0-.5-.1-.7 0-.9 0-1.7.1-2.5v-.1c.2 0 .3.3.4.4.5.9.6 1.9.7 2.9.1.6.1 1.3.2 2 .1.4.1.9.3 1.2.3.4.8.2 1.1-.1.4-.3.6-.7.9-1.1.2.6.5 1.2 1 1.1.9-.1 1.5-.8 1.8-1.6.3-.9.5-2.1-.3-2.7-.4-.4-.7-.4-.9-.4zm-1-1.1c0-.7.2-1.5.5-2.1.2.1.3.4.3.6 0 .8-.2 1.5-.5 2.2-.1.3-.2.6-.3.8-.1-.5-.1-1 0-1.5zm1.2 3.4c0 .4 0 .7-.2 1.1v.1h-.1c-.2 0-.4-.4-.4-.5-.2-.4-.3-.8-.3-1.2l.3-.6c.1-.2.3-.1.5 0 .2.2.2.7.2 1.1zM127 83.7c-.1-.3-.6-.1-.7-.1-.3.1-.5.1-.7-.1-.2-.1-.3-.4-.4-.6-.1-.8.9-1.3 1.5-1.7.4-.3 1-1 .6-1.7s-1.4-.8-2.1-.5c-.2.1-.6.3-.6.5 0 .3.5.2.6.2.3-.1.6 0 .8.3.2.3.1.6-.1.8-.3.4-.9.6-1.2.9-.3.3-.5.6-.7.9-.2.5 0 1.1.4 1.4.6.5 1.4.4 2.1.1.2.1.6-.1.5-.4zM101.2 91.3c-.8.1-1.1 1.1-1.2 1.7-.1.6-.1 2 .7 2 .9.1 1.2-1.1 1.3-1.7.1-.5 0-1.9-.8-2-.2 0-.7.6-.4.7.4 0 .5.7.6 1v.9c0 .1 0 .2-.1.3 0 .1-.2.3 0 .2-.4.2-.6-.8-.6-1v-.9c0-.2.1-.3.1-.4 0-.2.1-.2 0-.1.3-.1.7-.8.4-.7z"/><g><path class="st8" d="M96.2 72.8c-.1 0-.1-.1-.2-.2-.3-.1-.6.1-.9.1-.7 0-1 0-1.9-.3 0-.8.4-1.2.6-1.8.2-.5-.1-1.1-.1-1.8v-1.1c-.3.2-.1.9-.2 1.3-.1-.5-.1-1.1-.2-1.4-.1.4 0 1 0 1.4-.1-.4-.2-.9-.3-1.3-.2.4.1 1 .1 1.4-.2-.4-.2-.8-.4-1.1-.1.5.2.9.1 1.2-.1-.3-.2-.6-.5-.9 0 .3.2.7.3 1-.2-.1-.3-.4-.5-.4 0 .3.2.4.3.6-.1-.1-.2-.3-.4-.3 0 .2.2.3.2.5-.1-.1-.2-.2-.3-.2 0 .2.2.3.2.4 0 0-.2-.1-.2 0 0 0 .2.1.1.1h-.1c0 .1.1.1.1.2h-.1c0 .1.1.1.1.2-.6.7-.3 1.4-.4 2.1 0-.1-.5-.2-1-.4-.2-.1-.3-.4-.5-.5 0 0 .1 0 .1-.1-.1 0-.2-.1-.2-.1h.2c-.1-.1-.4-.1-.4-.2.2 0 .3.1.4.1.1-.2-.2-.3-.2-.5.2.1.4.2.6.1-.3-.1-.6-.3-.7-.5.2.1.4.3.6.3-.3-.1-.6-.5-.9-.4.1.3.6.4.7.7-.2-.1-.5-.3-.7-.4.1.3.4.4.7.6-.2 0-.4-.1-.6-.1.1.2.4.2.6.4-.1-.1-.3 0-.4 0 0 .2.3.1.4.2-.1 0-.3 0-.3.1.1.1.3 0 .3.1-.1 0-.2 0-.2.1s.2 0 .2.1c0 0-.1 0-.1.1h.1s-.1 0-.1.1c.3.2.5.7 1 .9-.3.2.2.3-2.7 1.4.1 0 1.3-.3 1.7-.4.4-.1.7-.2 1.1-.3.1 0 .2-.1.3-.1.6-.1 1.2.1 1.8-.3-.5.1-1.2.2-1.6-.1.4-.6.1-2.2.4-2.6.3-.3.8-1.4 1.4-.5.1.1.1.3-.1.7-.3.5-.4.7-.4 1.6 0 .2 0 .4-.3.4 1.3.3 1.7.1 2.4 0 .2 0 .6-.2.6 0 0 .1-.2.1-.5.1-.4 0 .2.1.3.1.1 0 .8-.1 1.1-.2-.1-.1-.3-.1-.5-.2z"/><path class="st8" d="M92.4 66.2c-3 0-5.4 2.4-5.4 5.4 0 3 2.4 5.4 5.4 5.4 3 0 5.4-2.4 5.4-5.4-.1-3-2.5-5.4-5.4-5.4m0 .2c2.8 0 5.2 2.3 5.2 5.2 0 2.8-2.3 5.2-5.2 5.2-2.8 0-5.2-2.3-5.2-5.2 0-2.9 2.3-5.2 5.2-5.2"/></g><path class="st3" d="M72.5 68.6c.3 2.2-1.2 4.1-3.4 4.5-2.2.3-4.2-1.2-4.5-3.4l-1.5-10.5c-.3-2.2 1.2-4.2 3.4-4.5 2.2-.3 4.2 1.2 4.5 3.4l1.5 10.5z"/><path class="st0" d="M333.1 48.9H217.7l7.6 49.8c.7 4.9 5 8.7 10.1 8.7h80.1c5.5 0 10-4.3 10.2-9.8l7.4-48.7z"/><path class="st1" d="M315.4 48.9h-40.1v58.5h40.1c5.5 0 10-4.3 10.2-9.8l7.4-48.8h-17.6z"/><path class="st2" d="M333.9 45.5c0 1.3-1.1 2.4-2.4 2.4H219c-1.3 0-2.4-1.1-2.4-2.4 0-1.3 1.1-2.4 2.4-2.4h112.5c1.3.1 2.4 1.1 2.4 2.4z"/><path class="st3" d="M336.6 48.9c0 1.3-1.1 2.4-2.4 2.4H215.5c-1.3 0-2.4-1.1-2.4-2.4 0-1.3 1.1-2.4 2.4-2.4h118.7c1.4 0 2.4 1.1 2.4 2.4zM233.3 68.6c.3 2.2-1.2 4.1-3.4 4.5-2.2.3-4.2-1.2-4.5-3.4L224 59.2c-.3-2.2 1.2-4.2 3.4-4.5 2.2-.3 4.2 1.2 4.5 3.4l1.4 10.5z"/><path class="st0" d="M254.4 147.4H139l7.6 49.8c.7 4.9 5 8.7 10.1 8.7h80.1c5.5 0 10-4.3 10.2-9.8l7.4-48.7z"/><path class="st1" d="M236.8 147.4h-40.1v58.5h40.1c5.5 0 10-4.3 10.2-9.8l7.4-48.8h-17.6z"/><path class="st2" d="M255.2 144c0 1.3-1.1 2.4-2.4 2.4H140.3c-1.3 0-2.4-1.1-2.4-2.4 0-1.3 1.1-2.4 2.4-2.4h112.5c1.4.1 2.4 1.1 2.4 2.4z"/><path class="st3" d="M258 147.4c0 1.3-1.1 2.4-2.4 2.4H136.9c-1.3 0-2.4-1.1-2.4-2.4 0-1.3 1.1-2.4 2.4-2.4h118.7c1.3 0 2.4 1.1 2.4 2.4zM154.6 167.1c.3 2.2-1.2 4.1-3.4 4.5-2.2.3-4.2-1.2-4.5-3.4l-1.5-10.5c-.3-2.2 1.2-4.2 3.4-4.5 2.2-.3 4.2 1.2 4.5 3.4l1.5 10.5z"/><g><circle class="st9" cx="195.1" cy="179.5" r="14.4"/><circle class="st5" cx="183.6" cy="192.3" r="4.5"/><path class="st10" d="M188.3 161.9c0 1-.8 1.8-1.8 1.8s-1.8-.8-1.8-1.8.8-1.8 1.8-1.8c1-.1 1.8.7 1.8 1.8z"/><path class="st7" d="M188.4 168.1c0 1.3-1.1 2.4-2.4 2.4-1.3 0-2.4-1.1-2.4-2.4 0-1.3 1.1-2.4 2.4-2.4 1.3 0 2.4 1.1 2.4 2.4zM182 164.4c0 .8-.6 1.4-1.4 1.4-.8 0-1.4-.6-1.4-1.4 0-.8.6-1.4 1.4-1.4.8 0 1.4.6 1.4 1.4z"/><circle class="st5" cx="207.4" cy="166.4" r="8"/><path class="st3" d="M205.5 165.2c-.7.1-.8.9-.9 1.4V167.5c0 .1 0 .3-.1.3-.2 0-.4-.3-.5-.5-.2-.4-.3-.8-.4-1.3-.1-.5-.1-.9-.2-1.4v-.6-.2-.1c.1-.3-.4 0-.5.1-.5.9-.4 2-.4 3 0 .3 0 .5-.1.8 0 .2-.1.5-.2.7-.1.1-.3 0-.4 0-.1-.1-.2-.2-.2-.4s-.2-.1-.3 0c-.1.1-.2.3-.2.5.1.4.4.7.8.6.6-.2.8-.9 1-1.4.1-.3.1-.5.1-.8.1.4.2.8.4 1.1.1.3.4.5.7.5.2 0 .4-.3.5-.6.1.3.3.5.6.4.3 0 .6-.4.7-.6.1-.3.2-.7.2-1 .2-.5.1-1.4-.6-1.4zm.2 2.3c0 .1 0 .1-.1.2-.1 0-.2-.2-.3-.3-.1-.2-.1-.5-.2-.7v-.8c0-.1 0-.1.1-.2.3.2.4.6.4 1 .1.3.1.6.1.8zM213.4 166.2c-.7-.3-1.1.7-1.2 1.2-.1.5-.3 1.4.3 1.6.3.1.7-.1.8-.3.2-.2.4-.6.4-.9.2-.5.3-1.4-.3-1.6zm-.4 2.2c0 .1-.1.1-.1.2-.1-.1-.1-.3-.2-.4v-.7c0-.2.1-.5.2-.7 0-.1.1-.1.1-.2.3.3.2.8.1 1.1 0 .3 0 .5-.1.7z"/><path class="st3" d="M211.5 166.3c.1-.2.3-.4.4-.5.3-.4.5-.9.5-1.3 0-.5-.6-.5-1-.3-.5.2-.7.7-.8 1.2-.2.6-.3 1.2-.3 1.9-.2.3-.7.8-1.1.6-.1-.1-.1-.2-.2-.3.3-.3.5-.6.8-1 .2-.3.4-.9 0-1.1-.3-.2-.8 0-1 .3-.2.3-.3.6-.4 1v.8c-.2.1-.5.2-.7.2-.3-.1-.4-.3-.4-.6-.1-.3-.1-.7 0-1 0-.1 0-.2.1-.3v-.1c.2.1.2.3.3.5.1.2.7-.2.6-.4-.1-.2-.2-.5-.4-.6-.2-.1-.6.1-.7.2-.4.4-.5 1.1-.4 1.6 0 .4.1.8.4 1 .4.3 1 0 1.4-.2.1.3.3.5.7.4.4-.1.8-.3 1.1-.6 0 .3.1.7.3.8.4.2.8 0 1.1-.3.3-.4.5-1 .3-1.5-.2-.3-.4-.4-.6-.4zm-2.5-.3c0-.1.1-.2.1-.3.2 0 .2.3.2.4 0 .3-.2.5-.4.8v-.1c0-.3.1-.5.1-.8zm2.3-1.3c0-.1.1-.2.2-.3.3.3 0 .7-.1 1-.2.3-.3.6-.5.8 0-.3.1-.5.2-.8 0-.2.1-.4.2-.7zm-.1 3.3s0 .1-.1.1h-.1c-.2-.1-.2-.5-.2-.6v-.4c.1-.1.1-.2.2-.3.2-.1.3.1.3.3.1.2 0 .6-.1.9zM185.8 191.1c-.5.9-1.2 1.8-1.9 2.6-.3.4.2.4.4.1.7-.9 1.4-1.8 2-2.8.2-.4-.4-.1-.5.1zM184.8 190.8c-.3 0-.6.3-.6.6-.1.3.1.5.4.6.6 0 .9-1.1.2-1.2-.1 0-.4.4-.2.4s.2.1.3.3v.2h-.1c-.2 0-.3-.1-.3-.3v-.2h.1c.1 0 .4-.4.2-.4zM185.7 192.8c-.3 0-.6.3-.6.6-.1.3.1.5.4.6.6 0 1-1.2.2-1.2-.1 0-.4.4-.2.4s.2.1.3.3v.2h-.1c-.2 0-.3-.1-.3-.3v-.2h.1c.2-.1.4-.4.2-.4z"/><g><path class="st3" d="M199.6 177.9c-.4-.3-.9-.1-1.3 0 0-.3 0-.6-.1-.9 0-.3-.5-.1-.6 0-.1 0-.1.1-.2.1-.1.1-.2.2-.2.3-.4.9-1 .4-1.2.3-.2-.1-.3-.2-.6-.2-1.3 0-1.7 1.6-1.7 2.7 0 .8 0 2.4 1.1 2.5.6 0 1.1-.5 1.3-.9.3-.5.4-1.1.5-1.7 0-.3 0-.9-.1-1.5.3-.1.5-.2.7-.3 0 1.3 0 2.7-.1 4-.1 1.1-.2 2.3-.4 3.4 0 .3.3.2.4.2.2-.1.5-.3.5-.6.1-.8.2-1.6.3-2.3.4 0 .8-.1 1.1-.3.7-.5 1-1.5 1.1-2.4.2-.9.2-1.9-.5-2.4zm-4.1 3.5c0 .1-.1.2-.1.3-.2-.1-.4-.4-.4-.6-.1-.4-.2-.8-.2-1.2 0-.4 0-.9.2-1.3 0-.1.1-.2.1-.3.5.4.6 1.1.6 1.8-.1.5-.1.9-.2 1.3zm3.3.5c0 .1 0 .1 0 0 0 .1 0 .1 0 0-.4.1-.6-.3-.6-.7.1-.7.1-1.3.1-2 0-.2 0-.4.1-.6.1 0 .2.1.3.3.3.4.3 1.1.3 1.5.2.5.1 1.1-.2 1.5zM202.6 178.4c-1.3-.3-1.8 1.3-2 2.3-.2.9-.3 2.4.8 2.7.5.2 1.1-.3 1.4-.6.4-.4.6-1 .7-1.6.1-.9.3-2.5-.9-2.8zm-.5 3.9c0 .1-.1.2-.2.3-.2-.1-.3-.5-.3-.6-.1-.4-.1-.8 0-1.2l.3-1.2c0-.1.1-.2.2-.3.5.5.4 1.3.3 1.9 0 .3-.1.8-.3 1.1zM192 178.7c.2-.4.4-.9.5-1.3.3-.9.5-1.6.2-2.3-.2-.7-1.4-.2-1.8.2-.6.7-.9 1.6-.9 2.5-.1 1 0 2 .1 2.9-.2.4-.4.9-.7 1.3 0 0 0 .1-.1.1 0 0-.1-.1-.1-.2-.1-.2-.1-.4-.1-.6-.2-1.5-.2-3-.6-4.5-.1-.4-.5-1.2-1.2-.9-.5.2-.9.6-1.1 1.1-.2-.4-.7-.8-1.4-.4-.3.2-.5.4-.7.6 0-.2-.1-.5-.3-.6-.3-.3-1.2.8-.9 1 .2.2.2.5.3.7.1.5.2 1.1.3 1.6.1.3.1.6.1.8.2 1.1.4 2.3.6 3.4 0 .1.1.1.1.1.2 0 .7-.7.7-1-.2-1-.3-2-.5-3-.1-.4-.1-.9-.1-1.3v-1.4-.2c.8.1.9 1.1 1 1.7.1.6.2 1.2.3 1.7.1.9.2 1.8.4 2.6 0 .1.1.2.1.1.3 0 .8-.6.7-.9-.1-.9-.2-1.8-.3-2.8 0-.2 0-.4-.1-.7 0-.8 0-1.6.1-2.4v-.1c.2 0 .3.2.4.3.5.8.6 1.8.7 2.7.1.6.1 1.2.2 1.8 0 .4.1.8.3 1.1.3.4.7.1 1-.1.3-.3.6-.7.8-1.1.2.5.4 1.1.9 1.1.8-.1 1.4-.7 1.7-1.5.3-.8.5-2-.3-2.6.2.4-.1.4-.3.5zm-1-1.1c0-.7.2-1.4.5-2 .2.1.2.4.2.5 0 .7-.2 1.4-.4 2.1-.1.3-.2.5-.3.8v-1.4zm1.2 3.2c0 .3 0 .7-.1 1v.1h-.1c-.2 0-.3-.4-.4-.5-.2-.3-.2-.7-.3-1.1.1-.2.2-.4.3-.5.1-.2.3-.1.4 0 .2.2.2.7.2 1zM206.3 183.6c-.1-.2-.5-.1-.7-.1-.2.1-.4.1-.7 0-.2-.1-.3-.3-.3-.5-.1-.8.8-1.2 1.4-1.5.4-.3.9-1 .5-1.6-.4-.6-1.3-.7-1.9-.5-.2.1-.6.2-.5.5 0 .3.5.2.6.2.3-.1.6 0 .8.3.2.3.1.5-.1.7-.3.3-.8.5-1.1.8-.3.2-.5.5-.6.9-.2.5 0 1 .4 1.3.6.5 1.3.3 2 .1 0-.1.3-.3.2-.6z"/></g><path class="st3" d="M181.2 193.4c.4 1.3 2.3.4 2-.7-.2-.6-.8-.5-1.3-.6-.2-.1-.3-.3-.3-.5.1-.2.1-.3-.1-.1.1 0 .1 0 .2-.1.4-.1.8-.1 1.2.1.2.1.6-.4.3-.5-.5-.2-1-.2-1.5-.1s-.6.5-.6 1 .5.6.9.7c.3.1.6.1.6.5 0 .6-.6.5-.9.3-.1-.1-.2-.2-.3-.4.2-.2-.3.2-.2.4z"/><g><path class="st8" d="M177.6 173.4c-.1 0-.1-.1-.2-.2-.3-.1-.5.1-.8.1-.7 0-.9 0-1.8-.2 0-.7.4-1.1.6-1.7.2-.5-.1-1.1-.1-1.6v-1c-.2.2-.1.9-.2 1.2-.1-.4-.1-1-.2-1.3-.1.4 0 1 0 1.3l-.3-1.2c-.2.4.1 1 .1 1.3-.1-.3-.2-.7-.4-1.1-.1.5.1.8.1 1.2-.1-.3-.2-.6-.4-.8 0 .3.2.7.3.9-.2-.1-.3-.3-.5-.4 0 .2.2.4.3.5-.1-.1-.2-.2-.4-.3 0 .2.2.3.2.4-.1-.1-.2-.1-.3-.2 0 .2.2.3.2.4 0 0-.2-.1-.2 0 0 0 .2.1.1.1h-.1c0 .1.1.1.1.2h-.1c0 .1.1.1.1.2-.6.6-.3 1.3-.3 2 0-.1-.5-.2-.9-.4-.2-.1-.3-.3-.4-.4 0 0 .1 0 .1-.1-.1 0-.1-.1-.2-.1h.2c-.1-.1-.4-.1-.3-.2.1 0 .3.1.4.1-.2-.1-.5-.2-.5-.4.1.1.4.2.5.1-.2-.1-.6-.3-.7-.5.2.1.4.3.6.3-.3-.1-.5-.4-.8-.4.1.3.6.4.7.6-.2-.1-.5-.2-.7-.4.1.3.4.4.6.5-.2 0-.3-.1-.6-.1.1.2.4.2.5.4-.1-.1-.2 0-.4 0 0 .1.3.1.4.2-.1 0-.2 0-.3.1.1.1.2 0 .3.1-.1 0-.2 0-.2.1s.2 0 .2.1c0 0-.1 0-.1.1h.1s-.1 0-.1.1c.3.2.5.7.9.8-.2.2.2.3-2.5 1.3.1 0 1.2-.3 1.6-.4.3-.1.7-.2 1-.3.1 0 .2-.1.2-.1.6-.1 1.1.1 1.7-.3-.4.1-1.2.2-1.5-.1.4-.6.1-2.1.4-2.4.3-.3.8-1.3 1.3-.4.1.1.1.3-.1.7-.3.4-.4.6-.4 1.5 0 .2 0 .4-.3.4 1.2.3 1.6.1 2.3 0 .2 0 .6-.2.6 0 0 .1-.2.1-.4.1-.3 0 .1.1.3.1.1 0 .7-.1 1-.1.1-.3-.1-.3-.3-.4z"/><path class="st8" d="M174.1 167.3c-2.8 0-5 2.2-5 5s2.2 5 5 5 5-2.2 5-5-2.3-5-5-5m0 .2c2.7 0 4.8 2.2 4.8 4.8 0 2.7-2.2 4.8-4.8 4.8-2.7 0-4.8-2.2-4.8-4.8 0-2.7 2.1-4.8 4.8-4.8"/></g></g><g><circle class="st11" cx="276" cy="80.1" r="15"/><path class="st5" d="M268.8 93.4c0-2.6-2.1-4.7-4.7-4.7s-4.7 2.1-4.7 4.7 2.1 4.7 4.7 4.7c2.5 0 4.7-2.1 4.7-4.7z"/><path class="st12" d="M268.9 61.7c0 1.1-.9 1.9-1.9 1.9-1.1 0-1.9-.9-1.9-1.9 0-1.1.9-1.9 1.9-1.9 1.1 0 1.9.9 1.9 1.9z"/><path class="st7" d="M269 68.2c0 1.4-1.1 2.5-2.5 2.5s-2.5-1.1-2.5-2.5 1.1-2.5 2.5-2.5 2.5 1.1 2.5 2.5zM262.4 64.4c0 .8-.7 1.5-1.5 1.5s-1.5-.7-1.5-1.5.7-1.5 1.5-1.5c.9 0 1.5.7 1.5 1.5z"/><circle class="st5" cx="288.8" cy="66.4" r="8.3"/><path class="st3" d="M286.8 65.2c-.7.1-.9.9-.9 1.5V67.6c0 .1 0 .3-.1.3-.2 0-.4-.3-.5-.5-.2-.4-.3-.9-.4-1.3-.1-.5-.1-1-.2-1.5V64v-.2-.1c.1-.4-.4 0-.5.1-.6 1-.4 2.1-.4 3.1 0 .3 0 .6-.1.9 0 .2-.1.5-.2.7-.1.1-.3 0-.4 0-.1-.1-.2-.2-.2-.4s-.2-.1-.3 0c-.1.1-.2.3-.2.5.1.4.4.7.8.6.6-.2.9-.9 1-1.5.1-.3.1-.6.1-.8.1.4.2.8.4 1.2.1.3.4.6.7.5.3 0 .4-.3.6-.6.1.3.3.5.6.4.3 0 .6-.4.8-.7.2-.3.2-.7.2-1 0-.5-.1-1.5-.8-1.5zm.2 2.4c0 .1 0 .1-.1.2-.1 0-.2-.2-.3-.3-.1-.2-.2-.5-.2-.7V66c0-.1 0-.1.1-.2.3.2.4.7.4 1 .1.3.1.6.1.8zM295 66.2c-.7-.3-1.2.7-1.3 1.3-.1.5-.3 1.4.4 1.7.3.1.7-.1.9-.3.2-.2.4-.6.5-.9 0-.6.1-1.5-.5-1.8zm-.5 2.4c0 .1-.1.1-.1.2-.1-.1-.2-.3-.2-.4v-.8c0-.3.1-.5.2-.7 0-.1.1-.1.1-.2.3.3.2.8.1 1.2.1.2 0 .4-.1.7zM293 66.3c.1-.2.3-.4.4-.6.3-.4.5-.9.5-1.4 0-.5-.7-.5-1-.3-.5.2-.7.7-.9 1.2-.2.6-.3 1.3-.3 1.9-.2.3-.7.9-1.1.6-.1-.1-.1-.2-.2-.3.3-.3.6-.6.8-1 .2-.3.4-.9 0-1.1-.4-.2-.8 0-1.1.3-.2.3-.3.7-.4 1v.9c-.2.1-.5.2-.7.2-.3-.1-.4-.4-.4-.6-.1-.3-.1-.7 0-1 0-.1 0-.2.1-.3v-.1c.2.1.2.3.3.5.1.2.7-.2.6-.4-.1-.2-.2-.5-.4-.6-.3-.1-.6.1-.8.3-.4.4-.5 1.1-.5 1.7 0 .4.1.9.4 1.1.4.3 1.1 0 1.5-.2.1.3.3.5.7.4.4-.1.8-.3 1.2-.6 0 .3.1.7.3.8.4.2.9 0 1.1-.4.3-.4.5-1 .3-1.6 0-.3-.2-.4-.4-.4zm-2.5-.2c0-.1.1-.2.1-.3.2 0 .2.3.2.4 0 .3-.2.6-.4.8v-.1c0-.3 0-.6.1-.8zm2.4-1.4c.1-.1.1-.2.2-.3.3.3 0 .8-.1 1.1-.2.3-.3.6-.5.9 0-.3.1-.6.2-.8-.1-.4 0-.7.2-.9zm-.2 3.4s0 .1-.1.1h-.1c-.2-.1-.2-.5-.2-.6v-.4c.1-.1.2-.2.2-.3.2-.1.3.1.3.3.1.2 0 .6-.1.9zM266.1 92.1c-.6 1-1.3 1.8-2 2.7-.3.4.2.4.4.1.7-.9 1.5-1.9 2-2.9.3-.4-.2-.2-.4.1zM265.1 91.8c-.4 0-.6.3-.7.7-.1.3.1.6.4.6.7 0 1.1-1.3.3-1.3-.1 0-.4.4-.2.4s.3.1.3.3v.2h-.1c-.2 0-.3-.1-.3-.3v-.2h.1c.1 0 .4-.4.2-.4zM266.1 93.8c-.4 0-.6.3-.7.7-.1.3.1.6.4.6.7 0 1-1.2.3-1.3-.1 0-.4.4-.2.4s.3.1.3.3v.2h-.1c-.2 0-.3-.1-.3-.3v-.2h.1c.1 0 .4-.4.2-.4z"/><g><path class="st3" d="M280.7 78.4c-.4-.3-.9-.1-1.3 0 0-.3 0-.6-.1-1 0-.3-.5-.1-.7 0-.1 0-.1.1-.2.1-.1.1-.2.2-.2.3-.4.9-1.1.4-1.3.3-.2-.1-.3-.2-.6-.2-1.4 0-1.7 1.7-1.8 2.8 0 .9 0 2.5 1.2 2.6.6 0 1.1-.5 1.4-1 .3-.5.4-1.1.5-1.7 0-.3 0-1-.1-1.5.3-.1.5-.2.8-.4 0 1.4 0 2.8-.1 4.1-.1 1.2-.2 2.3-.4 3.5 0 .3.3.2.4.2.2-.1.5-.3.5-.6.1-.8.3-1.6.4-2.4.4 0 .8-.1 1.1-.3.8-.6 1.1-1.6 1.1-2.5.1-.8.1-1.8-.6-2.3zm-4.3 3.6c0 .1-.1.2-.1.3-.2-.1-.4-.4-.4-.6-.2-.4-.2-.8-.2-1.3 0-.4 0-.9.2-1.3 0-.1.1-.2.1-.3.5.5.6 1.2.6 1.8-.1.5-.1 1-.2 1.4zm3.4.6c-.5.1-.7-.3-.6-.7.1-.7.1-1.4.1-2.1 0-.2 0-.4.1-.6.1 0 .3.1.4.3.3.4.3 1.1.3 1.6.1.4 0 1-.3 1.5zM283.8 78.9c-1.3-.3-1.9 1.4-2.1 2.4-.2.9-.3 2.5.8 2.8.6.2 1.2-.3 1.5-.7.4-.5.6-1 .7-1.6.1-.9.3-2.6-.9-2.9zm-.5 4.1c0 .1-.1.2-.2.3-.2-.1-.3-.5-.3-.7-.1-.4-.1-.9 0-1.3s.2-.9.3-1.3c0-.1.1-.2.2-.3.5.5.4 1.3.4 1.9-.2.5-.3 1-.4 1.4zM272.7 79.2c.2-.4.4-.9.5-1.4.3-.9.5-1.6.3-2.4-.2-.7-1.4-.2-1.8.2-.7.7-.9 1.7-1 2.6-.1 1 0 2 .2 3.1-.2.5-.4.9-.7 1.4l-.1.1s-.1-.1-.1-.2c-.1-.2-.1-.4-.1-.6-.2-1.5-.2-3.1-.7-4.6-.1-.5-.5-1.2-1.3-1-.6.2-.9.6-1.2 1.1-.3-.5-.7-.8-1.4-.4-.3.2-.5.4-.7.6 0-.2-.1-.5-.3-.6-.4-.3-1.2.8-.9 1 .2.2.2.5.3.8.1.5.2 1.1.3 1.7.1.3.1.6.2.9l.6 3.6c0 .1.1.2.1.1.3 0 .8-.7.7-1-.2-1-.3-2.1-.5-3.1-.1-.4-.1-.9-.1-1.3v-1.5-.2c.8.1.9 1.1 1 1.7l.3 1.8c.1.9.2 1.8.4 2.7 0 .1.1.2.1.2.3 0 .8-.6.7-.9-.1-1-.2-1.9-.3-2.9 0-.2 0-.5-.1-.7 0-.8 0-1.6.1-2.4v-.1c.2 0 .3.3.4.4.5.8.6 1.8.7 2.8.1.6.1 1.3.2 1.9 0 .4.1.8.3 1.2.3.4.7.1 1.1-.1.3-.3.6-.7.8-1.1.2.5.5 1.1 1 1.1.8-.1 1.5-.8 1.7-1.5.3-.8.5-2-.3-2.7.2-.4-.1-.4-.4-.3zm-1-1.1c0-.7.2-1.4.5-2.1.2.1.3.4.3.5 0 .7-.2 1.5-.5 2.1-.1.3-.2.5-.3.8v-1.3zm1.2 3.3c0 .3 0 .7-.1 1v.1h-.1c-.2 0-.3-.4-.4-.5-.2-.4-.2-.7-.3-1.1l.3-.6c.1-.2.3-.1.5 0 .2.3.1.7.1 1.1zM287.6 84.3c-.1-.2-.5-.1-.7-.1-.3.1-.4.1-.7-.1-.2-.1-.3-.3-.4-.5-.1-.8.9-1.2 1.4-1.6.4-.3 1-1 .6-1.6-.4-.6-1.3-.7-2-.5-.2.1-.6.2-.5.5 0 .3.5.2.6.2.3-.1.6 0 .8.3.2.3.1.6-.1.7-.3.4-.8.5-1.2.9-.3.3-.5.5-.6.9-.2.5 0 1 .4 1.4.6.5 1.4.4 2 .1.2-.1.5-.3.4-.6z"/></g><path class="st3" d="M263.4 93.2c-.3.2-.6.2-.9.1-.5-.2-.2-1 .2-1.1.5-.1.6.9.5 1.2 0 .4-.2.8-.5 1-.3.3-.6-.2-.7-.4-.1-.2-.6.2-.5.4.2.3.5.7.9.5.4-.1.7-.5.9-.8.3-.5.4-1 .4-1.5 0-.4-.2-.9-.6-1-.8-.2-1.5 1-1.3 1.7.2.7 1.2.4 1.6.2.2 0 .4-.5 0-.3z"/><g><path class="st8" d="M257.8 73.8c-.1 0-.1-.1-.2-.2-.3-.1-.6.1-.9.1-.7 0-1 0-1.8-.3 0-.7.4-1.2.6-1.8.2-.5-.1-1.1-.1-1.7v-1.1c-.2.2-.1.9-.2 1.2-.1-.4-.1-1-.2-1.4-.1.4 0 1 0 1.4-.1-.4-.2-.9-.3-1.2-.2.4.1 1 .1 1.4-.2-.3-.2-.8-.4-1.1-.1.5.2.9.1 1.2-.1-.3-.2-.6-.4-.8 0 .3.2.7.3 1-.2-.1-.3-.3-.5-.4 0 .2.2.4.3.6-.1-.1-.2-.2-.4-.3 0 .2.2.3.2.5-.1-.1-.2-.2-.3-.2 0 .2.2.3.2.4 0 0-.2-.1-.2 0 0 0 .2.1.1.1h-.1c0 .1.1.1.1.2h-.1c0 .1.1.1.1.2-.6.6-.3 1.3-.3 2.1 0-.1-.5-.2-.9-.4-.2-.1-.3-.4-.5-.4 0 0 .1 0 .1-.1-.1 0-.1-.1-.2-.1h.2c-.1-.1-.4-.1-.3-.2.2 0 .3.1.4.1-.2-.1-.5-.2-.5-.4.1.1.4.2.5.1-.3-.1-.6-.3-.7-.5.2.1.4.3.6.3-.3-.1-.6-.4-.9-.4.1.3.6.4.7.6-.2-.1-.5-.2-.7-.4.1.3.4.4.7.6-.2 0-.4-.1-.6-.1.1.2.4.2.5.4-.1-.1-.3 0-.4 0 0 .2.3.1.4.2-.1 0-.2 0-.3.1.1.1.3 0 .3.1-.1 0-.2 0-.2.1s.2 0 .2.1c0 0-.1 0-.1.1h.1s-.1 0-.1.1c.3.2.5.7 1 .9-.3.2.2.3-2.6 1.3.1 0 1.3-.3 1.6-.4.4-.1.7-.2 1.1-.3.1 0 .2-.1.3-.1.6-.1 1.1.1 1.7-.3-.5.1-1.2.2-1.5-.1.4-.6.1-2.1.4-2.5.3-.3.8-1.3 1.4-.5.1.1.1.3-.1.7-.3.4-.4.6-.4 1.6 0 .2 0 .4-.3.4 1.2.3 1.6.1 2.3 0 .2 0 .6-.2.6 0 0 .1-.2.1-.4.1-.3 0 .1.1.3.1.1 0 .7-.1 1.1-.1-.1-.6-.2-.6-.5-.6z"/><path class="st8" d="M254.2 67.4c-2.9 0-5.2 2.3-5.2 5.2 0 2.9 2.3 5.2 5.2 5.2 2.9 0 5.2-2.3 5.2-5.2 0-2.9-2.4-5.2-5.2-5.2m0 .2c2.8 0 5 2.2 5 5s-2.2 5-5 5-5-2.2-5-5 2.2-5 5-5"/></g></g></g></svg>