<svg xmlns="http://www.w3.org/2000/svg" viewBox="118 -1 366 252"><style>.st0{fill:#519E38;} .st1{fill:#FFFFFF;} .st2{fill:#EFEFEF;} .st3{fill:url(#SVGID_1_);} .st4{fill:url(#SVGID_2_);} .st5{fill:url(#SVGID_3_);} .st6{fill:url(#SVGID_4_);} .st7{fill:url(#SVGID_5_);}</style><g id="Layer_1"><g id="clock"><path class="st0" d="M239.8 111.1h-53.9c-6.6 0-12-5.4-12-12V73.5c0-6.6 5.4-12 12-12h53.9c6.6 0 12 5.4 12 12v25.6c0 6.6-5.4 12-12 12z"/><path class="st1" d="M234.9 106.5h-54c-6.6 0-12-5.4-12-12V69c0-6.6 5.4-12 12-12h53.9c6.6 0 12 5.4 12 12v25.6c.1 6.5-5.3 11.9-11.9 11.9z"/><circle class="st1" cx="189.8" cy="57" r="5.2"/><circle class="st2" cx="182.5" cy="71.1" r="3.3"/><circle class="st2" cx="210.2" cy="72.8" r="3.3"/><circle class="st2" cx="203.6" cy="74.4" r="1.6"/><circle class="st2" cx="215.6" cy="84.3" r="5.8"/><circle class="st1" cx="207.4" cy="105.3" r="3.8"/><circle class="st1" cx="229.8" cy="57" r="3.8"/><circle class="st1" cx="246.9" cy="81.7" r="3.8"/><circle class="st1" cx="216.7" cy="57" r="2.3"/><circle class="st1" cx="246.9" cy="76.6" r="2.3"/><circle class="st1" cx="222.5" cy="106.5" r="2.3"/><circle class="st1" cx="168.9" cy="76.6" r="3.8"/><circle class="st1" cx="168.9" cy="84.5" r="5.6"/><circle class="st1" cx="216.7" cy="103.3" r="5.6"/><g><path class="st0" d="M340.6 111.1h-53.9c-6.6 0-12-5.4-12-12V73.5c0-6.6 5.4-12 12-12h53.9c6.6 0 12 5.4 12 12v25.6c0 6.6-5.4 12-12 12z"/><path class="st1" d="M335.6 106.5h-53.9c-6.6 0-12-5.4-12-12V69c0-6.6 5.4-12 12-12h53.9c6.6 0 12 5.4 12 12v25.6c0 6.5-5.4 11.9-12 11.9z"/><circle class="st1" cx="290.6" cy="57" r="5.2"/><circle class="st2" cx="283.2" cy="71.1" r="3.3"/><circle class="st2" cx="310.9" cy="72.8" r="3.3"/><circle class="st2" cx="304.3" cy="74.4" r="1.6"/><circle class="st2" cx="316.3" cy="84.3" r="5.8"/><circle class="st1" cx="308.1" cy="105.3" r="3.8"/><circle class="st1" cx="330.5" cy="57" r="3.8"/><circle class="st1" cx="347.6" cy="81.7" r="3.8"/><circle class="st1" cx="317.4" cy="57" r="2.3"/><circle class="st1" cx="347.6" cy="76.6" r="2.3"/><circle class="st1" cx="323.2" cy="106.5" r="2.3"/><circle class="st1" cx="269.6" cy="76.6" r="3.8"/><circle class="st1" cx="269.6" cy="84.5" r="5.6"/><circle class="st1" cx="317.4" cy="103.3" r="5.6"/></g><g><path class="st0" d="M237.5 188.2h-54c-6.6 0-12-5.4-12-12v-25.6c0-6.6 5.4-12 12-12h53.9c6.6 0 12 5.4 12 12v25.6c.1 6.6-5.3 12-11.9 12z"/><path class="st1" d="M232.5 183.7h-54c-6.6 0-12-5.4-12-12v-25.6c0-6.6 5.4-12 12-12h53.9c6.6 0 12 5.4 12 12v25.6c.1 6.6-5.3 12-11.9 12z"/><circle class="st1" cx="187.5" cy="134.1" r="5.2"/><circle class="st2" cx="180.1" cy="148.2" r="3.3"/><circle class="st2" cx="207.8" cy="149.9" r="3.3"/><circle class="st2" cx="201.2" cy="151.5" r="1.6"/><circle class="st2" cx="213.2" cy="161.4" r="5.8"/><circle class="st1" cx="205" cy="182.5" r="3.8"/><circle class="st1" cx="227.4" cy="134.1" r="3.8"/><circle class="st1" cx="244.5" cy="158.9" r="3.8"/><circle class="st1" cx="214.3" cy="134.1" r="2.3"/><circle class="st1" cx="244.5" cy="153.8" r="2.3"/><circle class="st1" cx="220.1" cy="183.7" r="2.3"/><circle class="st1" cx="166.5" cy="153.8" r="3.8"/><circle class="st1" cx="166.5" cy="161.6" r="5.6"/><circle class="st1" cx="214.3" cy="180.5" r="5.6"/></g><g><path class="st0" d="M340.9 188.2H287c-6.6 0-12-5.4-12-12v-25.6c0-6.6 5.4-12 12-12h53.9c6.6 0 12 5.4 12 12v25.6c0 6.6-5.4 12-12 12z"/><path class="st1" d="M335.9 183.7H282c-6.6 0-12-5.4-12-12v-25.6c0-6.6 5.4-12 12-12h53.9c6.6 0 12 5.4 12 12v25.6c0 6.6-5.4 12-12 12z"/><circle class="st1" cx="290.9" cy="134.1" r="5.2"/><circle class="st2" cx="283.5" cy="148.2" r="3.3"/><circle class="st2" cx="311.2" cy="149.9" r="3.3"/><circle class="st2" cx="304.6" cy="151.5" r="1.6"/><circle class="st2" cx="316.7" cy="161.4" r="5.8"/><circle class="st1" cx="308.4" cy="182.5" r="3.8"/><circle class="st1" cx="330.8" cy="134.1" r="3.8"/><circle class="st1" cx="347.9" cy="158.9" r="3.8"/><circle class="st1" cx="317.7" cy="134.1" r="2.3"/><circle class="st1" cx="347.9" cy="153.8" r="2.3"/><circle class="st1" cx="323.5" cy="183.7" r="2.3"/><circle class="st1" cx="270" cy="153.8" r="3.8"/><circle class="st1" cx="270" cy="161.6" r="5.6"/><circle class="st1" cx="317.7" cy="180.5" r="5.6"/></g><g><path class="st0" d="M437.5 187h-53.9c-6.6 0-12-5.4-12-12v-25.6c0-6.6 5.4-12 12-12h53.9c6.6 0 12 5.4 12 12V175c0 6.6-5.4 12-12 12z"/><path class="st1" d="M432.5 182.4h-53.9c-6.6 0-12-5.4-12-12v-25.6c0-6.6 5.4-12 12-12h53.9c6.6 0 12 5.4 12 12v25.6c0 6.6-5.4 12-12 12z"/><circle class="st1" cx="387.5" cy="132.9" r="5.2"/><circle class="st2" cx="380.1" cy="147" r="3.3"/><circle class="st2" cx="407.8" cy="148.7" r="3.3"/><circle class="st2" cx="401.2" cy="150.3" r="1.6"/><circle class="st2" cx="413.3" cy="160.2" r="5.8"/><circle class="st1" cx="405.1" cy="181.2" r="3.8"/><circle class="st1" cx="427.4" cy="132.9" r="3.8"/><circle class="st1" cx="444.5" cy="157.7" r="3.8"/><circle class="st1" cx="414.3" cy="132.9" r="2.3"/><circle class="st1" cx="444.5" cy="152.5" r="2.3"/><circle class="st1" cx="420.2" cy="182.4" r="2.3"/><circle class="st1" cx="366.6" cy="152.5" r="3.8"/><circle class="st1" cx="366.6" cy="160.4" r="5.6"/><circle class="st1" cx="414.3" cy="179.3" r="5.6"/></g><g><path class="st0" d="M439.9 111.4H386c-6.6 0-12-5.4-12-12V73.8c0-6.6 5.4-12 12-12h53.9c6.6 0 12 5.4 12 12v25.6c0 6.6-5.4 12-12 12z"/><path class="st1" d="M434.9 106.9H381c-6.6 0-12-5.4-12-12V69.3c0-6.6 5.4-12 12-12h53.9c6.6 0 12 5.4 12 12v25.6c0 6.6-5.4 12-12 12z"/><circle class="st1" cx="389.9" cy="57.3" r="5.2"/><circle class="st2" cx="382.5" cy="71.4" r="3.3"/><circle class="st2" cx="410.2" cy="73.1" r="3.3"/><circle class="st2" cx="403.6" cy="74.7" r="1.6"/><circle class="st2" cx="415.7" cy="84.6" r="5.8"/><circle class="st1" cx="407.5" cy="105.6" r="3.8"/><circle class="st1" cx="429.8" cy="57.3" r="3.8"/><circle class="st1" cx="446.9" cy="82.1" r="3.8"/><circle class="st1" cx="416.7" cy="57.3" r="2.3"/><circle class="st1" cx="446.9" cy="76.9" r="2.3"/><circle class="st1" cx="422.5" cy="106.9" r="2.3"/><circle class="st1" cx="369" cy="76.9" r="3.8"/><circle class="st1" cx="369" cy="84.8" r="5.6"/><circle class="st1" cx="416.7" cy="103.7" r="5.6"/></g></g><g id="sneg_1_"><linearGradient id="SVGID_1_" gradientUnits="userSpaceOnUse" x1="397.716" y1="218.813" x2="415.492" y2="168.448" gradientTransform="matrix(1 0 0 -1 0 250)"><stop offset="0" stop-color="#404B71"/><stop offset=".604" stop-color="#3C476E"/><stop offset="1" stop-color="#354169"/></linearGradient><path class="st3" d="M401.8 76.7l-1.9-7.1 1.7-3 .2.9c.3.9 1.2 1.5 2.2 1.2.2 0 .3-.1.4-.2.7-.4 1-1.2.8-2l-1.1-4.3 2.1-3.7 2.1 3.7-1.2 4.3c-.3.9.3 1.9 1.2 2.2.5.1.9 0 1.3-.2s.7-.6.8-1.1l.2-.9 1.7 3-1.9 7.1c-.3.9.3 1.9 1.2 2.2.5.1.9 0 1.3-.2s.7-.6.8-1.1l1-3.7 2.8 4.8c.5.8 1.6 1.1 2.4.6s1.1-1.6.6-2.4l-2.8-4.8 3.7 1c.5.1.9 0 1.3-.2s.7-.6.8-1.1c.3-.9-.3-1.9-1.2-2.2l-7.1-1.9-1.7-3 .9.2c.5.1.9.1 1.3-.2.4-.2.7-.6.8-1.1.3-.9-.3-1.9-1.2-2.2l-4.3-1.1-2.1-3.7h4.2l3.1 3.1c.6.6 1.5.7 2.1.3.1-.1.3-.2.4-.3.7-.7.7-1.8 0-2.5l-.6-.6h3.5l5.2 5.2c.6.6 1.5.7 2.1.3.1-.1.3-.2.4-.3.7-.7.7-1.8 0-2.5l-2.7-2.7h5.6c.3 0 .6-.1.9-.2.5-.3.9-.9.9-1.5 0-1-.8-1.8-1.8-1.8h-5.6l2.7-2.7c.7-.7.7-1.8 0-2.5s-1.8-.7-2.5 0l-5.2 5.2h-3.5l.6-.6c.7-.7.7-1.8 0-2.5s-1.8-.7-2.5 0l-3.1 3.1h-4.2l2.1-3.7 4.3-1.1c.2 0 .3-.1.4-.2.7-.4 1-1.2.8-2-.3-.9-1.2-1.5-2.2-1.2l-.9.2 1.7-3 7.1-1.9c.2 0 .3-.1.4-.2.7-.4 1-1.2.8-2-.3-.9-1.2-1.5-2.2-1.2l-3.7 1 2.8-4.8c.5-.8.2-1.9-.6-2.4s-1.9-.2-2.4.6l-2.8 4.8-1-3.7c-.3-.9-1.2-1.5-2.2-1.2-.9.3-1.5 1.2-1.2 2.2l1.9 7.1-1.7 3-.2-.9c-.3-.9-1.2-1.5-2.2-1.2-.9.3-1.5 1.2-1.2 2.2l1.1 4.3-2.1 3.7-2.1-3.7 1.1-4.3c.3-.9-.3-1.9-1.2-2.2-.9-.3-1.9.3-2.2 1.2l-.2.9-1.7-3 1.9-7.1c.3-.9-.3-1.9-1.2-2.2-.9-.3-1.9.3-2.2 1.2l-1 3.7-2.8-4.8c-.5-.8-1.6-1.1-2.4-.6-.8.5-1.1 1.6-.6 2.4l2.8 4.8-3.7-1c-.9-.3-1.9.3-2.2 1.2-.3.9.3 1.9 1.2 2.2l7.1 1.9 1.7 3-.9-.2c-.9-.3-1.9.3-2.2 1.2-.3.9.3 1.9 1.2 2.2l4.3 1.1 2.1 3.7H399l-3.1-3.1c-.7-.7-1.8-.7-2.5 0s-.7 1.8 0 2.5l.6.6h-3.5l-5.2-5.2c-.7-.7-1.8-.7-2.5 0s-.7 1.8 0 2.5l2.7 2.7h-5.6c-1 0-1.8.8-1.8 1.8s.8 1.8 1.8 1.8h5.6l-2.7 2.7c-.7.7-.7 1.8 0 2.5.6.6 1.5.7 2.1.3.1-.1.3-.2.4-.3l5.2-5.2h3.5l-.6.6c-.7.7-.7 1.8 0 2.5.6.6 1.5.7 2.1.3.1-.1.3-.2.4-.3l3.1-3.1h4.2l-2.1 3.7-4.3 1.1c-.9.3-1.5 1.2-1.2 2.2.3.9 1.2 1.5 2.2 1.2l.9-.2-1.7 3-7.1 1.9c-.9.3-1.5 1.2-1.2 2.2.3.9 1.2 1.5 2.2 1.2l3.7-1-2.8 4.8c-.5.8-.2 1.9.6 2.4.6.3 1.2.3 1.8 0 .3-.1.5-.4.6-.6l2.8-4.8 1 3.7c.3.9 1.2 1.5 2.2 1.2.2 0 .3-.1.4-.2.5-.1.9-1 .6-1.7z"/><linearGradient id="SVGID_2_" gradientUnits="userSpaceOnUse" x1="265.457" y1="147.723" x2="270.831" y2="132.496" gradientTransform="matrix(1 0 0 -1 0 250)"><stop offset="0" stop-color="#404B71"/><stop offset=".604" stop-color="#3C476E"/><stop offset="1" stop-color="#354169"/></linearGradient><path class="st4" d="M267.2 115.9l-.6-2.1.5-.9.1.3c.1.3.4.5.7.4 0 0 .1 0 .1-.1.2-.1.3-.4.2-.6l-.3-1.3.6-1.1.6 1.1-.3 1.3c-.1.3.1.6.4.7.1 0 .3 0 .4-.1.1-.1.2-.2.2-.3l.1-.3.5.9-.6 2.1c-.1.3.1.6.4.7.1 0 .3 0 .4-.1.1-.1.2-.2.2-.3l.3-1.1.8 1.5c.1.3.5.3.7.2.3-.1.3-.5.2-.7l-.8-1.5 1.1.3c.1 0 .3 0 .4-.1s.2-.2.2-.3c.1-.3-.1-.6-.4-.7l-2.1-.6-.5-.9.3.1c.1 0 .3 0 .4-.1.1-.1.2-.2.2-.3.1-.3-.1-.6-.4-.7l-1.3-.3-.6-1.1h1.3l.9.9c.2.2.4.2.6.1l.1-.1c.2-.2.2-.5 0-.8l-.2-.2h1.1l1.6 1.6c.2.2.4.2.6.1 0 0 .1 0 .1-.1.2-.2.2-.5 0-.8l-.8-.8h1.7c.1 0 .2 0 .3-.1.2-.1.3-.3.3-.5 0-.3-.2-.5-.5-.5h-1.7l.8-.8c.2-.2.2-.5 0-.8-.2-.2-.5-.2-.8 0l-1.6 1.6H272l.2-.2c.2-.2.2-.5 0-.8-.2-.2-.5-.2-.8 0l-.9.9h-1.3l.6-1.1 1.3-.3s.1 0 .1-.1c.2-.1.3-.4.2-.6-.1-.3-.4-.5-.7-.4l-.3.1.5-.9 2.1-.6s.1 0 .1-.1c.2-.1.3-.4.2-.6-.1-.3-.4-.5-.7-.4l-1.1.3.8-1.5c.1-.3.1-.6-.2-.7s-.6-.1-.7.2l-.8 1.5-.3-1.1c-.1-.3-.4-.5-.7-.4s-.5.4-.4.7l.6 2.1-.5.9-.1-.3c-.1-.3-.4-.5-.7-.4-.3.1-.5.4-.4.7l.3 1.3-.6 1.1-.6-1.1.3-1.3c.1-.3-.1-.6-.4-.7-.3-.1-.6.1-.7.4l-.1.3-.5-.9.6-2.1c.1-.3-.1-.6-.4-.7-.3-.1-.6.1-.7.4l-.3 1.1-.8-1.5c-.1-.3-.5-.3-.7-.2-.3.1-.3.5-.2.7l.8 1.5-1.1-.3c-.3-.1-.6.1-.7.4-.1.3.1.6.4.7l2.1.6.5.9-.3-.1c-.3-.1-.6.1-.7.4-.1.3.1.6.4.7l1.3.3.6 1.1h-1.3l-.9-.9c-.2-.2-.5-.2-.8 0-.2.2-.2.5 0 .8l.2.2h-1.1l-1.6-1.6c-.2-.2-.5-.2-.8 0-.2.2-.2.5 0 .8l.8.8h-1.7c-.3 0-.5.2-.5.5s.2.5.5.5h1.7l-.8.8c-.2.2-.2.5 0 .8.2.2.4.2.6.1 0 0 .1 0 .1-.1l1.6-1.6h1.1l-.2.2c-.2.2-.2.5 0 .8.2.2.4.2.6.1l.1-.1.9-.9h1.3l.6 1.2-1.3.3c-.3.1-.5.4-.4.7.1.3.4.5.7.4l.3-.1-.5.9-2.1.6c-.3.1-.5.4-.4.7.1.3.4.5.7.4l1.1-.3-.8 1.5c-.1.3-.1.6.2.7.2.1.4.1.5 0 .1 0 .1-.1.2-.2l.8-1.5.3 1.1c.1.3.4.5.7.4 0 0 .1 0 .1-.1 0-.2.2-.4.1-.6z"/><linearGradient id="SVGID_3_" gradientUnits="userSpaceOnUse" x1="193.86" y1="120.61" x2="205.446" y2="87.784" gradientTransform="matrix(1 0 0 -1 0 250)"><stop offset="0" stop-color="#404B71"/><stop offset=".604" stop-color="#3C476E"/><stop offset="1" stop-color="#354169"/></linearGradient><path class="st5" d="M196.4 159.1l-1.2-4.6 1.1-2 .2.6c.2.6.8 1 1.4.8.1 0 .2-.1.3-.1.4-.3.7-.8.5-1.3l-.7-2.8 1.4-2.4 1.4 2.4-.8 2.8c-.2.6.2 1.2.8 1.4.3.1.6 0 .9-.1s.5-.4.5-.7l.2-.6 1.1 2-1.2 4.6c-.2.6.2 1.2.8 1.4.3.1.6 0 .9-.1s.5-.4.5-.7l.6-2.4 1.8 3.2c.3.5 1 .7 1.6.4.5-.3.7-1 .4-1.6l-1.8-3.2 2.4.6c.3.1.6 0 .9-.1.3-.1.5-.4.5-.7.2-.6-.2-1.2-.8-1.4l-4.6-1.2-1.1-2 .6.2c.3.1.6 0 .9-.1.3-.1.5-.4.5-.7.2-.6-.2-1.2-.8-1.4l-2.8-.7-1.4-2.4h2.8l2 2c.4.4.9.4 1.4.2.1-.1.2-.1.2-.2.4-.4.4-1.2 0-1.6l-.4-.4h2.3l3.4 3.4c.4.4.9.4 1.4.2.1-.1.2-.1.2-.2.4-.4.4-1.2 0-1.6l-1.8-1.8h3.6c.2 0 .4-.1.6-.2.3-.2.6-.6.6-1 0-.6-.5-1.2-1.2-1.2h-3.6l1.8-1.8c.4-.4.4-1.2 0-1.6-.4-.5-1.2-.4-1.6 0l-3.4 3.4h-2.3l.4-.4c.4-.4.4-1.2 0-1.6-.5-.4-1.2-.4-1.6 0l-2 2h-2.8l1.4-2.4 2.8-.7c.1 0 .2-.1.3-.1.4-.3.7-.8.5-1.3-.2-.6-.8-1-1.4-.8l-.6.2 1.1-2 4.6-1.2c.1 0 .2-.1.3-.1.4-.3.7-.8.5-1.3-.2-.6-.8-1-1.4-.8l-2.4.6 1.8-3.2c.3-.6.1-1.3-.4-1.6s-1.3-.1-1.6.4l-1.8 3.2-.6-2.4c-.2-.6-.8-1-1.4-.8-.6.2-1 .8-.8 1.4l1.2 4.6-1.1 2-.2-.6c-.2-.6-.8-1-1.4-.8-.6.2-1 .8-.8 1.4l.7 2.8-1.4 2.4-1.4-2.4.7-2.8c.2-.6-.2-1.2-.8-1.4-.6-.2-1.2.2-1.4.8l-.2.6-1.1-2 1.2-4.6c.2-.6-.2-1.2-.8-1.4s-1.2.2-1.4.8l-.6 2.4-1.8-3.2c-.3-.5-1-.7-1.6-.4s-.7 1-.4 1.6l1.8 3.2-2.4-.6c-.6-.2-1.2.2-1.4.8-.2.6.2 1.2.8 1.4l4.6 1.2 1.1 2-.6-.2c-.6-.2-1.2.2-1.4.8-.2.6.2 1.2.8 1.4l2.8.7 1.4 2.4h-2.8l-2-2c-.4-.5-1.2-.4-1.6 0-.4.5-.4 1.2 0 1.6l.4.4h-2.3l-3.4-3.4c-.4-.4-1.2-.4-1.6 0s-.4 1.2 0 1.6l1.8 1.8h-3.6c-.6 0-1.1.5-1.1 1.1s.5 1.1 1.1 1.1h3.6l-1.8 1.8c-.4.5-.4 1.2 0 1.6.4.4.9.4 1.4.2.1 0 .2-.1.2-.2l3.4-3.4h2.3l-.4.4c-.4.4-.4 1.2 0 1.6.4.4.9.4 1.4.2.1 0 .2-.1.2-.2l2-2h2.8l-1.4 2.4-2.8.7c-.6.2-1 .8-.8 1.4.2.6.8 1 1.4.8l.6-.2-1.1 2-4.6 1.2c-.6.2-1 .8-.8 1.4.2.6.8 1 1.4.8l2.4-.6-1.8 3.2c-.3.6-.1 1.3.4 1.6.4.2.8.2 1.2 0 .2-.1.3-.2.4-.4l1.8-3.2.6 2.4c.2.6.8 1 1.4.8.1 0 .2-.1.3-.1.5-.1.8-.6.6-1.1z"/><linearGradient id="SVGID_4_" gradientUnits="userSpaceOnUse" x1="324.086" y1="117.987" x2="356.439" y2="42.268" gradientTransform="matrix(1 0 0 -1 0 250)"><stop offset="0" stop-color="#404B71"/><stop offset=".604" stop-color="#3C476E"/><stop offset="1" stop-color="#354169"/></linearGradient><path class="st6" d="M376.8 166h-7l3.4-3.4c.9-.9.9-2.3 0-3.1-.9-.9-2.3-.9-3.1 0l-6.5 6.5h-4.4l1.9-1.9c.9-.9.9-2.3 0-3.1-.9-.9-2.3-.9-3.1 0l-5.1 5.1h-4.3l.1-.1c.8-.8.9-2.2.1-3-.3-1.1-1.5-1.8-2.7-1.5l-.2.1 2.1-3.7 6.9-1.9c.2 0 .4-.1.5-.2.8-.5 1.3-1.5 1-2.5-.3-1.2-1.5-1.9-2.7-1.6l-2.6.7 2.2-3.8 8.9-2.4c.2-.1.4-.1.5-.2.8-.5 1.3-1.5 1-2.5-.3-1.2-1.5-1.9-2.7-1.6l-4.6 1.2 3.5-6.1c.6-1.1.2-2.4-.8-3-1.1-.6-2.4-.2-3 .8l-3.5 6.1-1.2-4.6c-.3-1.2-1.5-1.9-2.7-1.6-1.2.3-1.9 1.5-1.6 2.7l2.4 8.9-2.2 3.8-.7-2.6c-.3-1.2-1.5-1.9-2.7-1.6-1.2.3-1.9 1.5-1.6 2.7l1.9 6.9-2.1 3.7v-.2c-.3-1.2-1.5-1.8-2.6-1.6-1.1-.2-2.3.4-2.6 1.6v.2l-2.1-3.7 1.9-6.9c.3-1.2-.4-2.4-1.6-2.7s-2.4.4-2.7 1.6l-.7 2.6-2.2-3.8 2.4-8.9c.3-1.2-.4-2.4-1.6-2.7s-2.4.4-2.7 1.6l-1.2 4.6-3.5-6.1c-.6-1.1-2-1.4-3-.8-1.1.6-1.4 2-.8 3l3.5 6.1-4.6-1.2c-1.2-.3-2.4.4-2.7 1.6-.3 1.2.4 2.4 1.6 2.7l8.9 2.4 2.2 3.8-2.6-.7c-1.2-.3-2.4.4-2.7 1.6-.3 1.2.4 2.4 1.6 2.7l6.9 1.9 2.1 3.7h-.2c-1.1-.3-2.3.3-2.6 1.4-.9.9-.8 2.3 0 3.1l.1.1h-4.3l-5.1-5.1c-.9-.9-2.3-.9-3.1 0-.9.9-.9 2.3 0 3.1l1.9 1.9h-4.4l-6.5-6.5c-.9-.9-2.3-.9-3.1 0-.9.9-.9 2.3 0 3.1l3.4 3.4h-7c-1.2 0-2.2 1-2.2 2.2s1 2.2 2.2 2.2h7l-3.4 3.4c-.9.9-.9 2.3 0 3.1.7.7 1.8.8 2.7.4.2-.1.3-.2.5-.4l6.5-6.5h4.4l-1.9 1.9c-.9.9-.9 2.3 0 3.1.7.7 1.8.8 2.7.4.2-.1.3-.2.5-.4l5.1-5.1h4.3l-.1.1c-.8.8-.9 2.2-.1 3 .3 1.1 1.5 1.8 2.7 1.5h.2l-2.1 3.7-6.9 1.9c-1.2.3-1.9 1.5-1.6 2.7.3 1.2 1.5 1.9 2.7 1.6l2.6-.7-2.2 3.8-8.9 2.4c-1.2.3-1.9 1.5-1.6 2.7s1.5 1.9 2.7 1.6l4.6-1.2-3.5 6.1c-.6 1.1-.2 2.4.8 3 .7.4 1.6.4 2.2 0 .3-.2.6-.5.8-.8l3.5-6.1 1.2 4.6c.3 1.2 1.5 1.9 2.7 1.6.2-.1.4-.1.5-.2.8-.5 1.3-1.5 1-2.5l-2.4-8.9 2.2-3.8.7 2.6c.3 1.2 1.5 1.9 2.7 1.6.2 0 .4-.1.5-.2.8-.5 1.3-1.5 1-2.5l-1.9-6.9 2.1-3.7v.2c.3 1.2 1.5 1.8 2.6 1.6.6.1 1.1 0 1.6-.2.5-.3.9-.8 1-1.3v-.2l2.1 3.7-1.9 6.9c-.3 1.2.4 2.4 1.6 2.7.6.2 1.2.1 1.7-.2s.9-.8 1-1.3l.7-2.6 2.2 3.8-2.4 8.9c-.3 1.2.4 2.4 1.6 2.7.6.2 1.2.1 1.7-.2s.9-.8 1-1.3l1.2-4.6 3.5 6.1c.6 1.1 2 1.4 3 .8 1.1-.6 1.4-2 .8-3l-3.5-6.1 4.6 1.2c.6.2 1.2.1 1.7-.2s.9-.8 1-1.3c.3-1.2-.4-2.4-1.6-2.7l-8.9-2.4-2.2-3.8 2.6.7c.6.2 1.2.1 1.7-.2s.9-.8 1-1.3c.3-1.2-.4-2.4-1.6-2.7l-6.9-1.9-2.1-3.7h.2c.6.2 1.2.1 1.7-.2.4-.3.8-.7 1-1.2.9-.9.8-2.3 0-3.1l-.1-.1h4.3l5.1 5.1c.7.7 1.8.8 2.7.4.2-.1.3-.2.5-.4.9-.9.9-2.3 0-3.1l-1.9-1.9h4.4l6.5 6.5c.7.7 1.8.8 2.7.4.2-.1.3-.2.5-.4.9-.9.9-2.3 0-3.1l-3.4-3.4h7c.4 0 .8-.1 1.1-.3.7-.4 1.1-1.1 1.1-1.9-.1-1.8-1.1-2.8-2.3-2.8zm-36 4.7c-1.4.8-3.1.3-3.9-1-.8-1.4-.3-3.1 1-3.9 1.4-.8 3.1-.3 3.9 1 .9 1.3.4 3.1-1 3.9z"/><linearGradient id="SVGID_5_" gradientUnits="userSpaceOnUse" x1="278.812" y1="211.727" x2="292.178" y2="180.437" gradientTransform="matrix(1 0 0 -1 0 250)"><stop offset="0" stop-color="#404B71"/><stop offset=".604" stop-color="#3C476E"/><stop offset="1" stop-color="#354169"/></linearGradient><path class="st7" d="M302.8 54.2h-1.1l.4-.6c.3-.4.2-.9-.2-1.1-.4-.3-.9-.2-1.1.2l-1 1.5h-1.6l2.2-3.2c.3-.4.2-.9-.2-1.1-.4-.3-.9-.2-1.1.2l-2.8 4.1h-1.5l1.3-1.9c.3-.4.2-.9-.2-1.1-.4-.3-.9-.2-1.1.2l-1.9 2.8h-1l.4-.6c.3-.4.2-.9-.2-1.1-.4-.3-.9-.2-1.1.2l-1 1.5h-.4l-.9-1.6.2-.3 1.8-.2c.4 0 .8-.4.7-.9 0-.4-.4-.8-.9-.7l-.7.1.5-.9 3.4-.3c.4 0 .8-.4.7-.9 0-.4-.4-.8-.9-.7l-2.3.2.7-1.3 5-.4c.4 0 .8-.4.7-.9 0-.4-.4-.8-.9-.7l-3.8.3.8-1.4 1.8-.2c.4 0 .8-.4.7-.9 0-.4-.4-.8-.9-.7l-.7.1.6-1c.2-.4.1-.9-.3-1.1-.4-.2-.9-.1-1.1.3l-.6 1-.3-.6c-.2-.4-.7-.6-1.1-.4-.4.2-.6.7-.4 1.1l.8 1.7-.8 1.4-1.6-3.5c-.2-.4-.7-.6-1.1-.4-.4.2-.6.7-.4 1.1l2.1 4.5-.7 1.3-1-2.1c-.2-.4-.7-.6-1.1-.4-.4.2-.6.7-.4 1.1l1.4 3.1-.5.9-.3-.6c-.2-.4-.7-.6-1.1-.4-.4.2-.6.7-.4 1.1l.8 1.7-.2.3H285l-.2-.3.8-1.7c.2-.4 0-.9-.4-1.1-.4-.2-.9 0-1.1.4l-.3.6-.5-.9 1.4-3.1c.2-.4 0-.9-.4-1.1-.4-.2-.9 0-1.1.4l-1 2.1-.7-1.3 2.1-4.5c.2-.4 0-.9-.4-1.1-.4-.2-.9 0-1.1.4l-1.6 3.5-.8-1.4.8-1.7c.2-.4 0-.9-.4-1.1-.4-.2-.9 0-1.1.4l-.3.6-.6-1c-.2-.4-.7-.5-1.1-.3s-.5.7-.3 1.1l.6 1-.7-.1c-.4 0-.8.3-.9.7 0 .4.3.8.7.9l1.8.2.8 1.4-3.8-.3c-.4 0-.8.3-.9.7 0 .4.3.8.7.9l5 .4.7 1.3-2.3-.2c-.4 0-.8.3-.9.7 0 .4.3.8.7.9l3.4.3.5.9-.7-.1c-.4 0-.8.3-.9.7 0 .4.3.8.7.9l1.8.2.2.3-.9 1.6h-.4l-1-1.5c-.3-.4-.8-.5-1.1-.2-.4.3-.5.8-.2 1.1l.4.6h-1l-1.9-2.8c-.3-.4-.8-.5-1.1-.2-.4.3-.5.8-.2 1.1l1.3 1.9h-1.5l-2.8-4.1c-.3-.4-.8-.5-1.1-.2-.4.3-.5.8-.2 1.1l2.2 3.2h-1.6l-1-1.5c-.3-.4-.8-.5-1.1-.2-.4.3-.5.8-.2 1.1l.4.6h-1.1c-.4 0-.8.4-.8.8s.4.8.8.8h1.1l-.4.6c-.3.4-.2.9.2 1.1.1.1.3.1.5.1.3 0 .5-.1.7-.3l1-1.5h1.6l-2.2 3.2c-.3.4-.2.9.2 1.1.1.1.3.1.5.1.3 0 .5-.1.7-.3l2.8-4.1h1.5l-1.3 1.9c-.3.4-.2.9.2 1.1.1.1.3.1.5.1.3 0 .5-.1.7-.3l1.9-2.8h1l-.4.6c-.3.4-.2.9.2 1.1.1.1.3.1.5.1.3 0 .5-.1.7-.3l1-1.5h.4l.9 1.6-.2.3-1.8.2c-.4 0-.8.4-.7.9 0 .4.4.7.8.7h.1l.7-.1-.5.9-3.4.3c-.4 0-.8.4-.7.9 0 .4.4.7.8.7h.1l2.3-.2-.7 1.3-5 .4c-.4 0-.8.4-.7.9 0 .4.4.7.8.7h.1l3.8-.3-.8 1.4-1.8.2c-.4 0-.8.4-.7.9 0 .4.4.7.8.7h.1l.7-.1-.6 1c-.2.4-.1.9.3 1.1.1.1.3.1.4.1.3 0 .6-.1.7-.4l.6-1 .3.6c.1.3.4.5.7.5.1 0 .2 0 .3-.1.4-.2.6-.7.4-1.1l-.8-1.7.8-1.4 1.6 3.5c.1.3.4.5.7.5.1 0 .2 0 .3-.1.4-.2.6-.7.4-1.1l-2.1-4.5.7-1.3 1 2.1c.1.3.4.5.7.5.1 0 .2 0 .3-.1.4-.2.6-.7.4-1.1l-1.4-3.1.5-.9.3.6c.1.3.4.5.7.5.1 0 .2 0 .3-.1.4-.2.6-.7.4-1.1l-.8-1.7.2-.3h1.9l.2.3-.8 1.7c-.2.4 0 .9.4 1.1.1.1.2.1.3.1.3 0 .6-.2.7-.5l.3-.6.5.9-1.4 3.1c-.2.4 0 .9.4 1.1.1.1.2.1.3.1.3 0 .6-.2.7-.5l1-2.1.7 1.3-2.1 4.5c-.2.4 0 .9.4 1.1.1.1.2.1.3.1.3 0 .6-.2.7-.5l1.6-3.5.8 1.4-.8 1.7c-.2.4 0 .9.4 1.1.1.1.2.1.3.1.3 0 .6-.2.7-.5l.3-.6.6 1c.2.3.4.4.7.4.1 0 .3 0 .4-.1.4-.2.5-.7.3-1.1l-.6-1 .7.1h.1c.4 0 .8-.3.8-.7 0-.4-.3-.8-.7-.9l-1.8-.2-.8-1.4 3.8.3h.1c.4 0 .8-.3.8-.7 0-.4-.3-.8-.7-.9l-5-.4-.7-1.3 2.3.2h.1c.4 0 .8-.3.8-.7s-.3-.8-.7-.9l-3.4-.3-.5-.9.7.1h.1c.4 0 .8-.3.8-.7s-.3-.8-.7-.9l-1.8-.2-.2-.3.9-1.6h.4l1 1.5c.2.2.4.3.7.3.2 0 .3 0 .5-.1.4-.3.5-.8.2-1.1l-.4-.6h1l1.9 2.8c.2.2.4.3.7.3.2 0 .3 0 .5-.1.4-.3.5-.8.2-1.1l-1.3-1.9h1.5l2.8 4.1c.2.2.4.3.7.3.2 0 .3 0 .5-.1.4-.3.5-.8.2-1.1l-2.2-3.2h1.6l1 1.5c.2.2.4.3.7.3.2 0 .3 0 .5-.1.4-.3.5-.8.2-1.1l-.4-.6h1.1c.4 0 .8-.4.8-.8s-.3-.8-.8-.8zm-17.6 2.4l-.9-1.6.9-1.6h1.9l.9 1.6-.9 1.6h-1.9z"/><circle class="st1" cx="317" cy="34.2" r="3.8"/><circle class="st1" cx="177.2" cy="105.7" r="3.8"/><circle class="st1" cx="182.7" cy="120.2" r="1.7"/><circle class="st1" cx="169.6" cy="128.9" r="1.7"/><circle class="st1" cx="303.6" cy="30.4" r="1.7"/><circle class="st1" cx="334.3" cy="70.3" r="4.2"/><circle class="st1" cx="366.5" cy="207.9" r="4.2"/><circle class="st1" cx="357.5" cy="81.3" r="3.1"/><circle class="st1" cx="351.5" cy="90.7" r="1.7"/><circle class="st1" cx="322.4" cy="79.6" r="1.7"/><circle class="st1" cx="410.8" cy="105.7" r="1.7"/><circle class="st1" cx="376.5" cy="81.3" r="1.7"/><circle class="st1" cx="369.8" cy="94.1" r="1.7"/><circle class="st1" cx="368.1" cy="81.1" r="1.7"/><circle class="st1" cx="376.5" cy="70.3" r="1.7"/><circle class="st1" cx="421.2" cy="83" r="1.7"/><circle class="st1" cx="426.2" cy="76.2" r="1.7"/><circle class="st1" cx="373.2" cy="198.4" r="1.7"/><circle class="st1" cx="385.8" cy="196.7" r="1.7"/><circle class="st1" cx="378.2" cy="206.2" r="1.7"/><circle class="st1" cx="342.6" cy="68.6" r="1.7"/><circle class="st1" cx="349.8" cy="76.2" r="1.7"/></g></g></svg>