<?xml version="1.0" encoding="utf-8"?>
<!-- Generator: Adobe Illustrator 19.0.0, SVG Export Plug-In . SVG Version: 6.00 Build 0)  -->
<svg version="1.1" id="Layer_1" xmlns="http://www.w3.org/2000/svg" xmlns:xlink="http://www.w3.org/1999/xlink" x="0px" y="0px"
	 viewBox="0 0 130 250" style="enable-background:new 0 0 130 250;" xml:space="preserve">
<style type="text/css">
	.st0{fill:#519E38;}
	.st1{fill:#F4F4F4;}
	.st2{fill:#D6D6D6;}
	.st3{fill:#EAEAEA;}
	.st4{fill:#FFFFFF;}
	.st5{fill-rule:evenodd;clip-rule:evenodd;fill:#904720;}
	.st6{fill-rule:evenodd;clip-rule:evenodd;fill:#EDA820;}
	.st7{fill:#F5A3BD;}
	.st8{fill:#62BA47;}
	.st9{fill-rule:evenodd;clip-rule:evenodd;fill:#F5A3BD;}
	.st10{fill-rule:evenodd;clip-rule:evenodd;fill:#62BA47;}
	.st11{fill:#62BA46;}
</style>
<g>
	<path class="st0" d="M105,211.2c0,0,0-63.1,0-97.4c0-34.3-14.2-47.4-14.2-47.4c3.8-21.2-6.4-27.6-6.4-27.6v-7.7h2.2
		c0,0,0-8.2,0-10.9c0-2.7-3.8-2.4-3.8-2.4h-14h-1.3h-14c0,0-3.8-0.3-3.8,2.4c0,2.7,0,10.9,0,10.9h2.3v7.7H52c0,0-10.2,6.4-6.4,27.6
		c0,0-14.2,13.1-14.2,47.4c0,34.3,0,97.4,0,97.4s-1.5,20.9,14,20.9c4.2,0,7.7,0,10.6,0c7.9,0,11.5,0,11.5,0h0.7h0.8H69h11.4h0.1
		c2.9,0,6.4,0,10.5,0c0,0,0,0,0.1,0C106.5,232.1,105,211.2,105,211.2z"/>
	<path class="st1" d="M97.6,206.3c0,0,0-63.1,0-97.4c0-34.3-14.2-47.4-14.2-47.4c3.8-21.2-6.4-27.6-6.4-27.6v-7.8H44.6v7.8h-0.1
		c0,0-10.2,6.4-6.4,27.6c0,0-14.2,13.1-14.2,47.4c0,34.3,0,97.4,0,97.4s-1.5,20.9,14,20.9c4.2,0,7.7,0,10.6,0c7.9,0,11.5,0,11.5,0
		h1.6H73c2.9,0,6.4,0,10.6,0C99,227.2,97.6,206.3,97.6,206.3z"/>
	<path class="st2" d="M75.3,12.9h-14h-1.3h-14c0,0-3.8-0.3-3.8,2.4c0,2.7,0,10.9,0,10.9h17.7h1.3h17.7c0,0,0-8.2,0-10.9
		C79.1,12.6,75.3,12.9,75.3,12.9z"/>
	<path class="st3" d="M97.5,206.3c0,0,0-63.1,0-97.4c0-34.3-14.2-47.4-14.2-47.4c3.8-21.2-6.4-27.6-6.4-27.6v-7.8H60.7v201.2h0.8
		h11.5c2.9,0,6.4,0,10.6,0C98.9,227.2,97.5,206.3,97.5,206.3z"/>
	<path class="st4" d="M35.9,97.6c-0.2,0-0.4,0-0.5,0c-2.2-0.3-3.8-2.3-3.5-4.6c1.8-14.1,8.6-22.6,8.9-23c1.4-1.8,4-2,5.7-0.6
		c1.7,1.4,2,4,0.6,5.7c-0.1,0.1-5.7,7.3-7.2,18.9C39.7,96.1,37.9,97.6,35.9,97.6z"/>
</g>
<g>
	<g>
		<path class="st5" d="M85.1,150.3l-0.1,0.2C85,150.4,85.1,150.3,85.1,150.3L85.1,150.3z M86.4,149.8L86.4,149.8l-0.2,0.3
			C86.3,150,86.4,149.9,86.4,149.8L86.4,149.8z M91.5,150.6L91.5,150.6c0,0,1.1,0.2,1.9,0.8c-0.5-0.4-1.3-0.7-2.1-0.9
			c-0.7-0.2-1.2-0.3-1.6-0.2c0.4-0.2,0.6-0.3,0.8-0.3c0.6,0,1.1,0.2,1.8,0.6c-0.6-0.4-1.5-0.7-2.3-0.7c-0.4-0.1-0.8-0.1-1.2,0.1
			l0.8-0.5c0.5,0,1.1,0,1.8,0.3c-0.5-0.2-1.3-0.4-2-0.4c-0.8-0.1-1.4,0.1-1.9,0.5l0.7-0.7c0.5-0.1,1-0.1,1.7-0.1
			c-0.7-0.1-1.6-0.1-2.3,0.1c-0.6,0.2-1,0.3-1.3,0.6l0.4-0.6c0.6-0.3,1.7-0.5,2.3-0.5c-1.2-0.1-3.1,0.6-3.3,0.8
			c-0.4,0.2-0.6,0.5-0.8,0.8l0.4-0.8c0.6-0.4,1.3-0.7,2.3-0.8c-0.8,0.1-1.6,0.3-2.4,0.7c-0.8,0.4-1.3,0.9-1.5,1.6l0.2-0.9
			c0.5-0.5,1.2-1,2.3-1.3c-0.9,0.2-2,0.8-2.7,1.5c-0.3,0.4-0.6,0.7-0.6,1.1c0-0.2-0.1-0.3-0.1-0.3c0.2-0.3,1.2-1.4,2.2-2
			c-1.3,0.8-2.1,1.6-2.4,2c-0.5,0.7-0.5,1.3,0,2c0.4,0.3,0.9,0.3,1.6-0.1c0.6-0.1,1.2-0.1,2.1,0c-0.6-0.2-1.3-0.2-2-0.2l-0.1,0
			c0.3,0,0.6-0.1,0.9-0.3c0.5,0,1.1,0.1,1.7,0.4c-0.4-0.2-1.1-0.4-1.7-0.5l-0.3-0.1c0.4,0.1,0.8,0.2,1.3,0.1c0.4,0.1,1,0.2,1.4,0.2
			c-0.6-0.1-1-0.2-1.4-0.3l-0.7-0.5c0.6,0.3,1.1,0.3,1.8,0.3c0.4,0.1,0.9,0.3,1.3,0.5c-0.3-0.2-0.8-0.5-1.3-0.6l-0.6-0.4
			c0.4,0.2,0.8,0.3,1.4,0.5c0,0,0.7,0.2,1.2,0.5c-0.3-0.3-0.8-0.5-1.3-0.7l-0.3-0.4l0.2,0.1c0.3,0.2,0.6,0.3,1,0.3
			c0.3,0.1,0.6,0.3,1,0.6c-0.2-0.2-0.6-0.4-0.9-0.6l-0.3-0.5c0.4,0.3,1.1,0.6,1.8,0.8c0.3,0.2,0.6,0.4,0.9,0.6
			c-0.2-0.2-0.5-0.4-0.8-0.6c-0.1-0.2-0.3-0.4-0.5-0.6c0.3,0.2,0.9,0.4,1.7,0.7l0,0c0.3,0.2,0.6,0.4,0.9,0.6c-0.3-0.3-0.6-0.5-1-0.7
			l-0.6-0.6l0.2,0.1c0.6,0.1,1,0.4,1.7,0.9c-0.4-0.4-1-0.8-1.6-1c0.4,0.1,0.9,0.1,1.4,0.1c0.6,0.1,1,0.4,1.7,0.9
			c-0.3-0.4-0.9-0.7-1.5-0.9c-0.7-0.4-1.3-0.7-2-0.8L91.5,150.6z"/>
		<path class="st6" d="M85.1,152.4c-0.8-0.3-1.5-0.4-1.7-0.1C83.7,152.7,84,152.7,85.1,152.4L85.1,152.4z M86.1,152.3L86.1,152.3
			c-0.8-0.7-1.6-0.9-1.9-0.7C84.3,152.1,85,152.2,86.1,152.3L86.1,152.3z M87.1,152L87.1,152c-0.8-0.7-1.6-1-2-0.8
			C85.2,151.7,86,151.9,87.1,152L87.1,152z M87.8,151.8L87.8,151.8c-0.6-0.8-1.3-1.2-1.7-1.1C86.1,151.3,86.8,151.5,87.8,151.8
			L87.8,151.8z M88.8,151.7L88.8,151.7c-0.6-0.8-1.1-1.1-1.5-1C87.2,151.1,87.7,151.4,88.8,151.7L88.8,151.7z M88.4,150.9
			L88.4,150.9c0.1,0.3,0.6,0.6,1.7,1C89.4,151.1,88.8,150.8,88.4,150.9L88.4,150.9z M89.4,150.9L89.4,150.9c0.1,0.3,0.8,0.7,2,1.1
			C90.5,151.2,89.8,150.8,89.4,150.9L89.4,150.9z M89.2,150.7L89.2,150.7c0.3,0.2,0.9,0.1,2.1-0.1C90.1,150.3,89.4,150.4,89.2,150.7
			L89.2,150.7z M88.1,150.7L88.1,150.7c0.2-0.1,0.3-0.2,0.5-0.2c-0.1,0-0.2,0.1-0.3,0.2c0.8-0.1,1.2-0.6,1.8-0.8
			C89.1,149.8,88.3,150,88.1,150.7L88.1,150.7z M87.4,150.5L87.4,150.5c0.1-0.1,0.4-0.3,0.5-0.3c-0.1,0.1-0.3,0.2-0.4,0.4
			c0.6-0.1,1-0.6,1.8-1.1C88.2,149.4,87.3,149.9,87.4,150.5L87.4,150.5z M86.3,150.5L86.3,150.5c0.1-0.2,0.4-0.3,0.5-0.3
			c-0.1,0.1-0.3,0.2-0.3,0.4c0.5-0.2,1-0.9,1.7-1.4C86.9,149.4,86.1,150,86.3,150.5L86.3,150.5z M85.2,150.9L85.2,150.9
			c0.1-0.2,0.3-0.4,0.4-0.4c-0.1,0.1-0.2,0.3-0.2,0.5c0.5-0.3,0.7-1,1.3-1.7C85.5,149.6,84.8,150.4,85.2,150.9L85.2,150.9z
			 M85.2,149.6L85.2,149.6c-0.9,0.5-1.5,1.2-1.2,1.9c0.2-0.4,0.4-0.6,0.6-0.8c-0.2,0.2-0.3,0.5-0.4,0.8
			C84.8,151.2,84.8,150.4,85.2,149.6L85.2,149.6z M83.9,150.2L83.9,150.2c-0.8,0.5-1,1.2-0.7,2c0.1-0.1,0.2-0.5,0.3-1
			c0,0.5,0,0.9-0.1,1.1C84,151.8,83.6,150.8,83.9,150.2L83.9,150.2z M82.9,151.1L82.9,151.1c-0.5,0.7-0.5,1.3-0.1,1.8
			C83.5,152.7,83,152,82.9,151.1L82.9,151.1z M84.2,152.8L84.2,152.8c-0.8-0.2-1.2-0.1-1.3,0.2C83.1,153.1,83.2,153.3,84.2,152.8
			L84.2,152.8z M90.1,150.9L90.1,150.9c0.3,0.2,1,0.5,2.2,0.5C91.2,151,90.6,150.8,90.1,150.9L90.1,150.9z"/>
		<path class="st5" d="M73.2,152.2c0.6,0.3,1,0.7,1.4,1.1c1.7,2.6,2.4,4.2,2.7,4.5c0.2,0.4-0.2,0.9-1,1.4c-0.4,0.2-3.3-1.9-7.7-4.3
			l0-1c1.6,0.5,3.1,1.3,4.4,2.3c1.6,1.2,2.7,1.9,3.4,2.1c0.1-0.3-0.4-1.4-1.6-3.4c-0.3-0.6-0.5-1.1-0.6-1.5
			C74,153,73.7,152.6,73.2,152.2L73.2,152.2z"/>
		<path class="st6" d="M76.5,158.4l0,0.2c-0.5,0-1.4-0.5-3-1.4c1.3,0.9,2.3,1.4,2.9,1.5c-0.2,0.2-0.8,0-1.7-0.5
			c0.8,0.5,1.3,0.7,1.6,0.7c0,0.1,0,0.1-0.1,0.2c-0.6,0-3.2-1.7-7.6-4.3l0-0.6c2.3,0.7,3.3,1.7,4.6,2.5
			C74.8,157.6,75.9,158.5,76.5,158.4L76.5,158.4z M73.7,152.6L73.7,152.6c1,0.8,1.3,1.7,2.2,3.2c0.6,1,1,1.8,1.3,2.2
			c0,0.4-0.2,0.7-0.7,0.9c0.4-0.4-0.3-1.8-1-2.9C74.5,154.3,74.8,153.7,73.7,152.6L73.7,152.6z"/>
		<path class="st5" d="M83.2,146c0.6-1.8,1.3-2.6,1.9-3.5c-0.9,1.5-1.2,1.9-1.6,3l0,0.5c0-0.3,0.1-0.6,0.3-0.8
			c0.6-1.8,1.5-2.7,2.1-3.5c-0.9,1.5-1.3,1.9-1.7,2.9l0.1,0.4c0.1-0.5,0.3-0.9,0.5-1.1c0.8-1.7,1.5-2.2,2.2-3
			c-1.1,1.5-1.5,1.9-2,3.1l0.1,0.4c0.1-0.5,0.2-0.7,0.4-1c1-1.8,1.8-2.3,2.5-3.1c-1.2,1.5-1.7,1.8-2.3,3c0,0.1,0.1,0.2,0.1,0.3
			c0.1-0.5,0.4-1,0.8-1.5c0.5-0.6,1.5-1.7,2.4-2.7c-1.2,1.3-2.2,2.5-2.4,2.8l0,0.2c0.2-0.4,0.5-0.7,0.7-0.9c0.4-0.5,1.4-1.5,2.5-2.6
			c-1.1,1.2-2.2,2.3-2.4,2.7l0,0.5c0.4-0.4,0.9-0.7,1.4-1c0.5-0.4,1.4-1.4,2.4-2.5c-0.8,1-1.7,2-2.3,2.5c-0.2,0.6-0.5,1.1-0.9,1.6
			c0.1,0,0.3,0,0.5-0.1c0.4-0.3,1.5-1.4,2.5-2.6c-1,1.2-2.1,2.5-2.6,2.8c-0.2,0.2-0.4,0.5-0.7,0.7l0.3,0c0.3-0.2,1.1-1,2.3-2
			c-0.9,1-1.8,1.8-2.2,2.2c-0.2,0.2-0.4,0.4-0.7,0.6l0.4,0c0.4-0.3,1.1-1,2.1-1.8c-0.9,1-1.8,1.8-2.2,2.2c-0.2,0.2-0.5,0.4-0.8,0.6
			l0.4,0c0.4-0.3,1.1-0.8,2-1.5c-0.9,0.8-1.6,1.4-2.2,1.8c-0.3,0.2-0.6,0.4-0.9,0.6l0.4,0c0.4-0.2,1.1-0.7,2-1.4
			c-0.8,0.7-1.5,1.2-2.1,1.5c-0.3,0.3-0.5,0.5-0.9,0.7l0.1,0.1c0.5-0.3,1.3-0.8,2.1-1.4c-0.9,0.8-1.6,1.3-2.2,1.6
			c-0.2,0.2-0.4,0.4-0.7,0.5l0.2,0c0.4-0.2,1.1-0.7,2.1-1.4c-0.8,0.8-1.6,1.3-2.3,1.7c-0.9,0.9-1.7,1.3-2.6,1.1
			c-0.5-0.7-0.5-1.5,0-2.5c0.7-2,1.4-2.7,1.9-3.6c-0.9,1.5-1.2,1.9-1.6,3l0.1,0.4C82.9,146.6,83,146.3,83.2,146L83.2,146z"/>
		<path class="st6" d="M87.5,144.8c-0.7,0.7-1,0.9-2,0.7c0.2-0.1,0.2-0.2,0.8-0.4c-0.6,0-0.6,0.1-0.8,0.2
			C86.2,144.5,86.7,144.9,87.5,144.8L87.5,144.8z M84.6,148.5L84.6,148.5c-0.6,0.9-1,1.2-2.1,1.2c0.1-0.2,0.5-0.4,1.1-0.7
			c-0.6,0.2-1,0.4-1.2,0.5C83,148.4,83.9,148.7,84.6,148.5L84.6,148.5z M85.3,147.6L85.3,147.6c-0.7,0.7-1.1,1-2.1,0.7
			c0.2-0.1,0.6-0.4,1.3-0.5c-0.6,0-1.1,0.2-1.3,0.3C84,147.3,84.5,147.7,85.3,147.6L85.3,147.6z M86.1,146.7L86.1,146.7
			c-0.7,0.7-1.1,1-2.1,0.7c0.2-0.1,0.6-0.4,1.3-0.5c-0.6,0-1.1,0.2-1.3,0.3C84.8,146.4,85.3,146.8,86.1,146.7L86.1,146.7z
			 M86.8,145.8L86.8,145.8c-0.7,0.7-1.1,1-2.1,0.7c0.2-0.1,0.4-0.3,1-0.4c-0.6,0-0.8,0.1-1,0.2C85.5,145.4,86.1,145.8,86.8,145.8
			L86.8,145.8z M87.8,144.1L87.8,144.1c-0.7,0.7-0.9,0.8-1.8,0.6c0.1-0.1,0.1-0.2,0.7-0.3c-0.6,0-0.6,0-0.8,0.1
			C86.6,143.9,87.1,144.1,87.8,144.1L87.8,144.1z M88.3,143.1L88.3,143.1c-0.5,0.7-0.6,0.9-1.5,0.8c0.1-0.1,0.1-0.2,0.6-0.4
			c-0.5,0.1-0.5,0.1-0.7,0.2C87.1,143.2,87.6,143.2,88.3,143.1L88.3,143.1z M82.6,147L82.6,147c0.1,0.8,0.5,1.5-0.2,2.4
			c0.1-0.2-0.1-0.5,0-1c-0.2,0.5-0.1,0.9-0.2,1C81.8,148.5,82,147.8,82.6,147L82.6,147z M83.4,146L83.4,146c0.1,0.7,0.5,1.3-0.2,2.1
			c0.1-0.2-0.1-0.4,0-0.9c-0.1,0.4-0.1,0.7-0.2,0.9C82.7,147.3,82.9,146.8,83.4,146L83.4,146z M84.1,145.2L84.1,145.2
			c0.1,0.7,0.4,1.6-0.3,2.1C83.4,146.5,83.6,145.9,84.1,145.2L84.1,145.2z M84.8,144.3L84.8,144.3c0.1,0.7,0.4,1.6-0.3,2.1
			C84.2,145.5,84.3,145,84.8,144.3L84.8,144.3z M85.6,143.6L85.6,143.6c0.1,0.6,0.3,1.3-0.3,1.8C85,144.7,85.1,144.2,85.6,143.6
			L85.6,143.6z M86.4,142.7L86.4,142.7c0,0.6,0.1,1.4-0.6,1.7C85.7,143.7,85.9,143.3,86.4,142.7L86.4,142.7z M87.1,142.1L87.1,142.1
			c0,0.5,0.1,1.2-0.5,1.5C86.5,143,86.6,142.6,87.1,142.1L87.1,142.1z M88.5,141.6L88.5,141.6c-0.2,0.5-0.5,1.4-1.4,1.6
			C87.2,142.3,88.1,141.9,88.5,141.6L88.5,141.6z"/>
		<path class="st5" d="M78.9,156.9c-0.2,0.2-0.5,0.3-0.8,0.3c-2.8,0.3-6-0.5-9.3-2.5l0-0.6c3.4,2.1,6.4,2.9,9.1,2.5
			c0.1-0.2,0.3-0.3,0.4-0.3L78.9,156.9z"/>
		<path class="st5" d="M81.8,153.9l-0.2,0.1C81.7,154,81.8,154,81.8,153.9L81.8,153.9z M82.4,152.4L82.4,152.4l-0.4,0.2
			C82.2,152.6,82.3,152.5,82.4,152.4L82.4,152.4z M81.3,146.7L81.3,146.7c0,0-0.2-1.3-1-2.2c0.5,0.6,0.9,1.5,1.2,2.4
			c0.3,0.8,0.4,1.4,0.3,1.8c0.2-0.4,0.3-0.7,0.3-0.9c-0.1-0.6-0.3-1.2-0.7-2c0.5,0.7,0.9,1.8,1,2.7c0.1,0.5,0.1,0.9-0.1,1.3l0.6-0.9
			c0-0.6-0.1-1.2-0.4-2c0.3,0.6,0.5,1.5,0.5,2.2c0.1,0.9-0.1,1.6-0.6,2.1l0.9-0.8c0.2-0.6,0.2-1.2,0.1-2c0.2,0.8,0.2,1.8-0.1,2.6
			c-0.2,0.6-0.4,1.1-0.8,1.4l0.7-0.5c0.3-0.7,0.6-2,0.6-2.6c0.1,1.3-0.8,3.5-1,3.7c-0.2,0.4-0.6,0.7-0.9,0.9l1-0.4
			c0.5-0.7,0.8-1.5,1-2.6c-0.1,0.8-0.4,1.8-0.8,2.7c-0.4,0.9-1.1,1.5-2,1.7l1.1-0.2c0.6-0.6,1.2-1.4,1.6-2.5c-0.3,1.1-1,2.2-1.8,3
			c-0.4,0.4-0.9,0.7-1.3,0.7c0.2,0,0.3,0.1,0.4,0.2c0.4-0.2,1.7-1.3,2.5-2.4c-1,1.5-2,2.3-2.5,2.7c-0.9,0.5-1.7,0.5-2.5,0
			c-0.4-0.5-0.4-1.1,0.1-1.8c0.2-0.7,0.1-1.4-0.1-2.3c0.2,0.7,0.3,1.5,0.2,2.3l0,0.1c0-0.3,0.1-0.6,0.4-1.1c0-0.5-0.2-1.2-0.5-1.9
			c0.3,0.5,0.5,1.2,0.6,1.9l0.2,0.3c-0.1-0.5-0.2-0.9-0.2-1.5c-0.2-0.5-0.3-1.1-0.3-1.6c0.1,0.7,0.2,1.2,0.4,1.6l0.6,0.8
			c-0.3-0.7-0.4-1.3-0.4-2c-0.1-0.4-0.4-1-0.7-1.5c0.3,0.4,0.6,0.9,0.8,1.5l0.6,0.7c-0.2-0.4-0.4-1-0.6-1.6c0,0-0.3-0.8-0.7-1.4
			c0.4,0.4,0.7,0.9,0.9,1.5l0.5,0.3l-0.1-0.2c-0.2-0.3-0.3-0.7-0.4-1.1c-0.2-0.4-0.4-0.7-0.7-1.1c0.3,0.3,0.5,0.7,0.7,1.1l0.6,0.4
			c-0.4-0.5-0.8-1.2-1.1-2.1c-0.2-0.3-0.5-0.7-0.8-1c0.3,0.2,0.6,0.6,0.8,0.9c0.3,0.1,0.5,0.3,0.8,0.6c-0.3-0.4-0.6-1-0.9-1.9l0,0
			c-0.2-0.3-0.5-0.7-0.8-1c0.3,0.3,0.7,0.7,0.9,1.2l0.8,0.7l-0.1-0.2c-0.2-0.7-0.5-1.2-1.2-1.9c0.5,0.4,1,1.1,1.3,1.8
			c-0.1-0.5-0.1-1-0.1-1.6c-0.2-0.6-0.5-1.2-1.2-1.9c0.5,0.4,0.9,1,1.2,1.7c0.5,0.8,0.9,1.5,1,2.3L81.3,146.7z"/>
		<path class="st6" d="M79.2,153.9c0.4,0.9,0.6,1.7,0.1,1.9C78.8,155.4,78.8,155.1,79.2,153.9L79.2,153.9z M79.3,152.8L79.3,152.8
			c0.8,0.9,1.1,1.8,0.8,2.2C79.6,154.8,79.4,154,79.3,152.8L79.3,152.8z M79.7,151.6L79.7,151.6c0.8,0.9,1.3,1.9,1,2.3
			C80.1,153.8,79.8,152.9,79.7,151.6L79.7,151.6z M79.9,150.8L79.9,150.8c1,0.7,1.5,1.5,1.3,1.9C80.6,152.7,80.3,152,79.9,150.8
			L79.9,150.8z M80,149.7L80,149.7c1,0.7,1.4,1.3,1.2,1.7C80.8,151.5,80.4,150.9,80,149.7L80,149.7z M81,150.1L81,150.1
			c-0.3-0.1-0.8-0.8-1.3-2C80.8,149,81.2,149.7,81,150.1L81,150.1z M81,149L81,149c-0.4-0.2-0.8-0.9-1.4-2.3
			C80.7,147.8,81.1,148.5,81,149L81,149z M81.3,149.3L81.3,149.3c-0.2-0.3-0.2-1.1,0.1-2.4C81.7,148.3,81.7,149.1,81.3,149.3
			L81.3,149.3z M81.3,150.5L81.3,150.5c0.2-0.2,0.2-0.4,0.2-0.6c0,0.1-0.1,0.2-0.3,0.4c0.1-0.9,0.8-1.4,0.9-2
			C82.4,149.4,82.1,150.3,81.3,150.5L81.3,150.5z M81.6,151.3L81.6,151.3c0.2-0.2,0.3-0.5,0.3-0.6c-0.1,0.1-0.2,0.3-0.5,0.4
			c0.2-0.6,0.8-1.1,1.3-2C82.8,150.5,82.3,151.5,81.6,151.3L81.6,151.3z M81.5,152.5L81.5,152.5c0.2-0.1,0.4-0.4,0.4-0.5
			c-0.1,0.1-0.3,0.3-0.5,0.4c0.3-0.6,1.1-1.1,1.7-1.8C83,151.9,82.2,152.8,81.5,152.5L81.5,152.5z M81,153.8L81,153.8
			c0.2-0.1,0.5-0.3,0.5-0.4c-0.2,0.1-0.3,0.2-0.6,0.3c0.4-0.5,1.3-0.8,2.1-1.4C82.6,153.5,81.6,154.2,81,153.8L81,153.8z
			 M82.7,153.8L82.7,153.8c-0.6,1-1.5,1.6-2.3,1.3c0.5-0.2,0.8-0.4,1-0.6c-0.3,0.2-0.6,0.4-1,0.4C80.8,154.3,81.7,154.3,82.7,153.8
			L82.7,153.8z M81.9,155.2L81.9,155.2c-0.6,0.9-1.5,1.1-2.5,0.7c0.2-0.1,0.6-0.2,1.3-0.3c-0.6,0-1.1,0-1.3,0.1
			C79.9,155.1,81.2,155.7,81.9,155.2L81.9,155.2z M80.8,156.4L80.8,156.4c-0.8,0.6-1.6,0.6-2.2,0.1
			C78.8,155.7,79.7,156.3,80.8,156.4L80.8,156.4z M78.7,154.9L78.7,154.9c0.2,0.9,0.1,1.4-0.2,1.5C78.3,156.1,78,156,78.7,154.9
			L78.7,154.9z M81,148.2L81,148.2c-0.3-0.3-0.7-1.1-0.7-2.6C80.9,147,81.1,147.6,81,148.2L81,148.2z"/>
		<path class="st6" d="M78.6,156.9c-0.2-0.1-0.3-0.2-0.4-0.4c-0.1,0-0.2,0.1-0.3,0.2c-2.6,0.5-5.7-0.3-9.1-2.4l0,0.3
			c3.5,2.1,6.6,2.9,9.1,2.5C78.2,157,78.5,156.9,78.6,156.9L78.6,156.9z"/>
	</g>
	<circle class="st7" cx="60.8" cy="139.8" r="19.8"/>
	<g>
		<path class="st4" d="M76.6,139.3c-0.3-0.3-0.7-0.3-1.1-0.2c0-0.3,0-0.6,0.1-0.8c0-0.2-0.4-0.2-0.5-0.1c-0.2,0.1-0.4,0.2-0.5,0.4
			c-0.3,0-0.5,0-0.7,0.1c-0.7,0.3-1,1.1-1.1,1.8c0,0.1-0.1,0.3-0.1,0.5c0,0,0,0,0,0c-0.1,0.3-0.2,0.7-0.4,0.8
			c-0.2,0.1-0.3-0.8-0.3-0.9c0-1,0.2-1.9,0.4-2.8c0-0.2-0.2-0.3-0.4-0.2c-0.2,0.1-0.5,0.2-0.6,0.4c-0.2,0.7-0.3,1.4-0.4,2.1
			c-0.1,0.3-0.2,0.6-0.3,0.9c0,0,0,0,0,0c-0.1,0-0.1-0.1-0.2-0.1c-0.5-0.3-0.3-1.2-0.3-1.6c0.1-0.6,0.2-1.2,0.5-1.8
			c0.1-0.2,0-0.3-0.2-0.3c-0.2,0-0.5,0.2-0.6,0.4c-0.2,0.5-0.3,1-0.5,1.5c-0.1,0.5-0.4,1-0.6,1.3c0,0-0.1,0.1-0.1,0.1c0,0,0,0,0-0.1
			c-0.1-0.4-0.1-0.8,0-1.2c0-0.6,0.1-1.2,0.2-1.8c0,0,0,0,0,0c0-0.5-0.4-0.8-0.9-0.8c-0.5,0-1,0.4-1.3,0.7c-0.3,0.5-0.5,1.2-0.6,1.3
			c-0.1,0.5-0.3,1-0.6,1.4c-0.1,0-0.1-0.1-0.1-0.2c-0.1-0.3-0.2-0.6-0.2-0.9c-0.1-0.9-0.1-1.7,0-2.6c0,0,0,0,0,0c0,0,0-0.1,0-0.1
			c0,0-0.1,0-0.1-0.1c-0.2-0.1-0.5,0.1-0.7,0.3c-0.5,0.6-0.5,1.4-0.6,2c-0.1,0.4-0.2,0.8-0.3,1.2c0,0,0,0.1-0.1,0.2
			c-0.1-0.1-0.2-0.2-0.2-0.3c0,0,0,0,0,0c0-0.2-0.1-0.2-0.3-0.2c-0.2,0.1-0.5,0.3-0.6,0.5c0,0,0,0,0,0c0,0,0,0,0,0
			c-0.2,0-0.2-0.2-0.3-0.3c-0.1-0.3-0.1-0.6-0.1-0.9c0-0.2,0-0.4,0-0.6c0-0.5,0.1-0.9,0.1-1.4c0-0.1,0-0.3,0-0.4
			c0-0.2-0.3-0.2-0.4-0.1c-0.2,0.1-0.5,0.3-0.5,0.6c0,0.3,0,0.5,0,0.8c0,0.3,0,0.5,0,0.8c0,0.2,0,0.4-0.1,0.7c0,0.3-0.1,0.6-0.2,1
			c0,0,0,0,0,0c-0.1,0-0.1,0-0.2,0c-0.5-0.2-0.5-1.1-0.5-1.5c0-0.6,0-1.3,0.2-1.8c0-0.1,0.1-0.2,0-0.3c-0.1-0.1-0.3,0-0.4,0.1
			c-0.1,0.1-0.4,0.4-0.6,0.5c-0.4,0.2-0.8,0.1-1.1-0.1c-0.1-0.1-0.2-0.2-0.4-0.3c-0.4-0.2-0.8,0-1.1,0.3c0-0.3-0.1-0.5-0.2-0.8
			c-0.1-0.2-0.5,0-0.5,0.1c-0.2,0.1-0.4,0.4-0.3,0.6c-0.3,0.1-0.5,0.3-0.7,0.4c-0.6,0.6-0.6,1.4-0.6,2.1c0,0.1,0,0.3,0,0.5
			c0,0.1,0,0.8-0.2,1c-0.2,0.2-0.6-0.6-0.6-0.7c-0.3-0.9-0.3-1.9-0.4-2.8c0-0.2-0.3-0.1-0.4,0c-0.2,0.1-0.4,0.4-0.4,0.6
			c0,0.7,0.1,1.5,0.1,2.2c0,0.3,0,0.7-0.1,1c0,0,0,0,0,0c-0.1,0-0.1,0-0.2,0c-0.5-0.1-0.6-1-0.7-1.4c-0.1-0.6-0.1-1.3,0-1.9
			c0-0.2-0.1-0.3-0.3-0.2c-0.2,0.1-0.5,0.4-0.5,0.6c-0.1,0.8-0.1,1.6,0.1,2.4c0.1,0.6,0.4,1.5,1.1,1.4c0.5-0.1,0.8-0.4,1.1-0.8
			c0.1,0.1,0.1,0.2,0.2,0.3c0.4,0.5,1.1,0,1.5-0.4c0-0.1,0.1-0.1,0.1-0.2c0.1,0.1,0.2,0.2,0.3,0.3c0.2,0.2,0.5,0.2,0.8,0.1
			c0.1,0,0.2-0.1,0.3-0.1c0,0.9,0.1,1.8,0.1,2.7c0,0.2,0.3,0.2,0.4,0.1c0.2-0.1,0.4-0.4,0.4-0.6c0-0.7,0-1.4,0-2.1
			c0.3,0,0.7-0.2,0.9-0.5c0.6-0.6,0.7-1.5,0.6-2.3c0-0.1,0-0.3-0.1-0.4c0.3,0,0.5-0.2,0.8-0.3c-0.1,0.6-0.1,1.2-0.1,1.8
			c0,0.6,0.2,1.5,0.9,1.6c0.4,0,0.8-0.2,1.1-0.5c0.2,0.3,0.5,0.5,0.9,0.5c0.2,0,0.3-0.1,0.4-0.2c0.3,0.3,0.8,0.3,1.2,0
			c0.3-0.3,0.5-0.6,0.6-0.9c0,0.1,0,0.2,0,0.3c0.1,0.3,0.1,0.6,0.3,0.9c0.2,0.3,0.6,0.1,0.9,0c0.2-0.1,0.5-0.3,0.6-0.5
			c0.1,0.3,0.2,0.6,0.4,0.7c0.4,0.2,0.9,0,1.2-0.2c0,0.2,0.1,0.4,0.3,0.5c0.5,0.2,1-0.2,1.3-0.5c0,0,0,0,0,0
			c0.1,0.4,0.2,0.8,0.7,0.9c0.5,0.2,0.9,0,1.2-0.3c0,0.1,0.1,0.2,0.1,0.3c0.3,0.7,1,0.4,1.4,0.2c0.1,0,0.1-0.1,0.2-0.1
			c0,0.1,0.1,0.3,0.2,0.4c0.1,0.3,0.4,0.4,0.7,0.5c0.1,0,0.2,0,0.3,0c-0.2,0.9-0.4,1.7-0.7,2.6c-0.1,0.2,0.2,0.3,0.3,0.2
			c0.2,0,0.5-0.2,0.5-0.4c0.2-0.7,0.4-1.3,0.6-2c0.3,0.1,0.7,0.1,1-0.1c0.7-0.3,1-1.2,1.2-2C76.9,140.8,77.1,139.8,76.6,139.3z
			 M55.8,140.6c0,0-0.1,0-0.1,0c-0.2-0.1-0.3-0.2-0.4-0.3c-0.3-0.4-0.3-0.9-0.4-1.4c0-0.4,0-0.8,0.1-1.2c0,0,0.1,0,0.1,0
			c0.3,0.2,0.5,0.6,0.6,1l0,0C55.8,139.3,55.8,139.9,55.8,140.6C55.9,140.6,55.9,140.6,55.8,140.6z M57.3,140.4
			C57.3,140.4,57.3,140.4,57.3,140.4C57.3,140.5,57.3,140.5,57.3,140.4c-0.4,0.1-0.6-0.1-0.6-0.4c0,0,0,0,0,0c0-0.7-0.1-1.3-0.2-2
			c0-0.2,0-0.3,0-0.5c0,0,0,0,0,0c0,0,0,0,0,0c0.1,0,0.2,0,0.3,0.1c0,0,0,0,0,0c0,0,0.1,0.1,0.1,0.1c0.3,0.3,0.4,0.8,0.4,1.2
			C57.5,139.4,57.5,139.9,57.3,140.4z M67.7,138.1c-0.1,0.8-0.2,1.6-0.5,2.4c0,0-0.1,0.1-0.1,0.2c0,0-0.1,0-0.1,0
			c-0.2-0.1-0.2-0.4-0.3-0.5c-0.1-0.6,0-1.3,0.2-1.8c0.1-0.2,0.2-0.5,0.3-0.5c0,0,0,0,0,0c0,0,0.1,0,0.1,0
			C67.6,137.8,67.7,138,67.7,138.1z M74.4,140.5L74.4,140.5c-0.1,0.6-0.2,1.2-0.3,1.8c0,0,0,0,0,0c0,0,0,0,0,0c0,0-0.1-0.1-0.1-0.1
			c-0.1-0.1-0.2-0.3-0.2-0.5c-0.1-0.5-0.1-1,0-1.5c0.1-0.4,0.2-0.8,0.4-1.1c0,0,0,0.1,0.1,0.1C74.4,139.6,74.5,140.1,74.4,140.5z
			 M75.9,141.4c-0.1,0.5-0.2,1-0.5,1.3c0,0,0,0,0,0c0,0,0,0,0,0c-0.3-0.1-0.4-0.4-0.4-0.7c0,0,0,0,0,0c0.1-0.6,0.3-1.3,0.4-2
			c0-0.2,0.1-0.3,0.2-0.5c0,0,0,0,0,0c0,0,0,0,0,0c0.1,0,0.2,0.2,0.3,0.3C76,140.4,76,141,75.9,141.4z"/>
		<path class="st4" d="M72.7,136.9c0.1-0.1,0.4-0.3,0.3-0.5c-0.1-0.2-0.5-0.1-0.6,0c-0.3,0.2-0.6,0.3-1,0c-0.1-0.1-0.3-0.2-0.4-0.3
			c-0.2-0.3-1.1,0.2-0.9,0.5C70.7,137.6,72,137.3,72.7,136.9z"/>
		<path class="st4" d="M47.5,138.4c-0.1-0.4-0.2-0.7-0.3-1.1c0.8-0.2,1.5-0.5,2.2-0.8c0.2-0.1,0.4-0.4,0.5-0.6
			c0-0.2-0.1-0.3-0.3-0.2c-1.3,0.6-2.8,0.9-4.1,1.4c-0.5,0.2-1.1,0.6-1.3,1.1c-0.3,0.6-0.2,1.2,0.1,1.7c0.2,0.3,0.9-0.6,0.7-0.9
			c-0.1-0.2-0.2-0.4-0.3-0.6c0,0,0-0.1,0-0.1c0.3-0.3,0.8-0.4,1.2-0.5c0.1,0,0.2-0.1,0.3-0.1c0.2,0.4,0.3,0.8,0.4,1.2
			c-0.5,0.3-0.8,0.8-1.1,1.2c-0.5,1-0.6,3.7,1.2,3.4c1.2-0.2,1.3-1.6,1.2-2.6c-0.1-0.5-0.1-1.1-0.2-1.6c0.1,0,0.2,0,0.3,0
			c0.7,0.1,1,0.7,1.1,1.3c0.1,0.5,0,1.2-0.4,1.6c-0.1,0.1-0.3,0.5-0.2,0.7c0.1,0.2,0.4-0.1,0.5-0.2c0.9-1,1.3-2.7,0.4-3.9
			C49,138.3,48.2,138.3,47.5,138.4z M47.1,142.5c-0.3,0-0.5-0.1-0.7-0.2c-0.5-0.4-0.6-1.5-0.2-2.2c0.2-0.3,0.4-0.4,0.7-0.6
			c0.2,0.6,0.3,1.3,0.4,1.9c0,0.3,0.1,0.6,0.1,0.9c0,0,0,0.1,0,0.1C47.2,142.5,47.1,142.5,47.1,142.5z"/>
	</g>
	<g>
		<path id="XMLID_7_" class="st4" d="M65.7,148.6c-0.2,0.3-0.6-0.5-0.6-0.6c0-0.1-0.1-0.2-0.1-0.3c-0.1-0.2-0.2-0.5-0.2-0.7
			c0,0,0-0.1,0-0.1c-0.1-0.2-0.3,0.2-0.3,0.4c0.1,0.3,0.2,0.6,0.2,1c0,0.2,0.1,0.3,0.1,0.5c0,0.2,0,0.3-0.2,0.2
			c-0.5-0.2-0.5-1.3-0.5-1.7c0-0.3-0.3,0.1-0.3,0.2c0,0.2,0,0.9,0.2,1.4c-0.1,0.2-0.3,0.4-0.4,0.3c-0.1-0.1-0.1-0.4-0.2-0.5
			c-0.1-0.3-0.3-0.3-0.6-0.2c0,0,0,0,0,0c0-0.1,0-0.3,0.1-0.4c0-0.1,0.1-0.2,0.3-0.2c0.2,0.1,0.5-0.4,0.3-0.5
			c-0.4-0.2-0.7,0-0.9,0.5c0-0.3-0.1-0.5-0.2-0.8c-0.1-0.2-0.4,0.2-0.4,0.4c0.2,0.5,0.2,1.1,0.2,1.7c0,0,0,0,0,0
			c-0.2,0.2-0.5,0.5-0.6,0.2c-0.1-0.2-0.1-0.5-0.1-0.7c0-0.2,0-0.4,0-0.6c0-0.1,0-0.1,0-0.2c0,0,0,0,0,0c-0.1-0.6-0.7-0.3-0.9,0.1
			c-0.3,0.4-0.4,0.9-0.4,1.4c-0.3,0.1-0.4,0.1-0.5-0.3c-0.1-0.5,0-1.1,0.1-1.6c0-0.3-0.4,0-0.4,0.1c-0.2,0.2-0.3,0.5-0.4,0.8
			c-0.1,0.2-0.1,0.3-0.2,0.5c0,0.1-0.1,0.2-0.1,0.3c-0.1,0.2-0.2,0-0.2-0.1c0-0.1,0-0.1-0.1-0.1c0,0-0.1,0-0.1,0
			c-0.2,0-0.3,0.1-0.5,0.1c0-0.1-0.1-0.2-0.2-0.3c0.3-0.3,0.5-0.8,0.6-1.2c0-0.3,0-0.6-0.3-0.6c-0.4-0.1-0.8,0.3-1,0.6
			c-0.1,0.2,0.5,0.1,0.5,0c0-0.1,0.1-0.4,0.2-0.2c0.1,0.1,0,0.3,0,0.4c0,0.2-0.2,0.7-0.4,0.8c-0.1,0-0.1,0-0.2,0
			c-0.1,0-0.3,0.1-0.3,0.2c-0.1,0.1-0.1,0.1,0,0.1c0.1,0,0.2,0,0.3,0c0.1,0,0.2,0.1,0.2,0.3c-0.5,0.2-1.1,0.4-1.4,0.9
			c-0.4,0.5,0.2,1,0.8,0.9c0.7-0.1,1-0.8,1.1-1.4c0-0.1,0-0.2,0-0.2c0.1,0,0.1,0,0.2,0c0,0.4,0.6,0.4,0.9,0.2
			c0.1-0.1,0.2-0.2,0.2-0.3c0,0.2,0.1,0.3,0.1,0.4c0.2,0.3,0.7,0.2,1,0c0.1,0.3,0.5,0.4,0.8,0.1c0,0,0,0,0.1-0.1
			c0,0.1,0.1,0.2,0.1,0.2c0.2,0.2,0.7-0.1,1-0.4c0,0.1,0,0.2,0,0.3c0,0.3,0.5-0.1,0.5-0.3c0-0.2,0-0.4,0-0.7c0.3,0,0.2,0.8,0.5,0.8
			c0.3,0.1,0.6-0.2,0.8-0.5c0.1,0.2,0.3,0.3,0.6,0.2c0.2-0.1,0.4-0.3,0.5-0.5c0.3,0.4,0.7,0,0.9-0.3
			C66.1,148.3,65.9,148.3,65.7,148.6z M57.2,149.6c-0.1,0.4-0.2,0.8-0.6,1c-0.1,0.1-0.2,0-0.3-0.1c-0.1-0.2,0-0.3,0.1-0.4
			c0.2-0.3,0.5-0.5,0.8-0.6C57.2,149.5,57.2,149.5,57.2,149.6z M60.8,149.5c-0.1,0-0.1-0.1-0.2-0.2c-0.1-0.2-0.1-0.5,0-0.8
			c0-0.1,0.1-0.3,0.1-0.4c0-0.1,0.1-0.1,0.1-0.2c0.1-0.1,0.2,0.1,0.2,0.2c0,0.3,0,0.7-0.1,1C60.9,149.3,60.8,149.5,60.8,149.5z"/>
	</g>
	<g>
		<g id="XMLID_1_">
			<path id="XMLID_94_" class="st4" d="M59.4,152.9c0.1,0.8-0.1,1.6-0.2,2.4c0,0.3,0.5,0,0.5-0.2c0.1-0.4,0.1-0.7,0.2-1.1
				c0.1-0.2,0.1-0.8,0.4-0.5c0.1-0.1,0.3-0.2,0.4-0.4c-0.8-0.5-1.2,0.7-1.4,1.3c0,0.1,0.1,0.1,0.2,0.1c0.5-0.2,0.3,0.6,0.4,0.8
				c0.2,0.3,0.6,0,0.8-0.1c0.3-0.2,0-0.4-0.2-0.2c-0.2,0.2-0.2-0.3-0.2-0.3c0-0.1,0-0.3-0.1-0.4c-0.2-0.3-0.4-0.2-0.7-0.1
				c0.1,0,0.1,0,0.2,0.1c0.1-0.2,0.1-0.9,0.5-0.7c0.2,0.1,0.5-0.3,0.4-0.4c-1-0.8-1.5,1.7-1.6,2.2c0.2-0.1,0.3-0.1,0.5-0.2
				c0.1-0.8,0.2-1.6,0.1-2.5C59.8,152.4,59.3,152.7,59.4,152.9L59.4,152.9z"/>
			<path id="XMLID_93_" class="st4" d="M68.4,151.5c-0.3-0.6-0.8,0.1-1,0.5c-0.2,0.6-0.1,1.1,0.2,1.6c0.2,0.4,0.7,0.4,1-0.2
				C68.9,152.8,68.5,152,68.4,151.5c-0.1,0.1-0.2,0.3-0.3,0.4c0.1,0.4,0.6,2.3,1.3,1.3c0.2-0.2,0-0.6-0.2-0.2
				c-0.1,0.1-0.4-0.4-0.4-0.4C68.6,152.2,68.5,151.8,68.4,151.5c-0.1-0.2-0.4,0.3-0.3,0.4c0.1,0.3,0.2,0.7,0.3,1
				c0,0.1,0.1,0.4,0,0.4c-0.1,0-0.2,0-0.2-0.1c-0.2-0.2-0.3-0.4-0.3-0.7c0-0.1,0-0.3,0-0.4c0-0.1,0-0.2,0-0.2c0-0.2,0.3,0,0.3,0
				C68.1,152.1,68.4,151.6,68.4,151.5L68.4,151.5z"/>
			<path id="XMLID_92_" class="st4" d="M55.3,154.1c-0.1,0.5,0.4,0.8,0.9,0.6c0.5-0.2,0.6-0.6,0.7-1.1c0.1-0.3,0.1-0.9-0.2-1.1
				c-0.1-0.1-0.4-0.1-0.6,0c-0.3,0.1-0.5,0.4-0.6,0.6c-0.1,0.2,0.5,0.1,0.5-0.1c0.1-0.3,0.2-0.3,0.3,0c0,0.2,0,0.4,0,0.6
				c0,0.2-0.1,0.4-0.2,0.6c0,0.1-0.1,0.1-0.2,0.2c0,0,0,0-0.1-0.1c-0.2-0.1-0.2-0.2-0.2-0.3C56,153.8,55.4,153.9,55.3,154.1
				L55.3,154.1z"/>
			<path id="XMLID_91_" class="st4" d="M55.8,152.1c-0.2,1.3-0.5,2.5-1,3.7c-0.1,0.2,0.5,0.1,0.6,0c0.5-1.2,0.8-2.5,1-3.8
				C56.3,151.8,55.8,151.9,55.8,152.1L55.8,152.1z"/>
			<path id="XMLID_90_" class="st4" d="M61.2,153.3c0.1,0.7,0,1.4,0,2c0,0.3,0.5-0.1,0.5-0.2c0-0.5,0-0.9,0.1-1.4
				c0-0.1,0-0.1,0.1-0.2c0,0,0-0.1,0-0.1c0.1-0.1,0-0.1-0.1,0c0.1,0,0.1,0.2,0.1,0.2c0.2,0.5,0.1,1.1,0.1,1.7
				c0.2-0.1,0.3-0.2,0.5-0.3c0-0.5,0-1,0.1-1.5c0-0.1,0-0.2,0.1-0.3c-0.1,0.2-0.1,0.1,0,0.2c0.1,0.2,0.1,0.5,0.1,0.7
				c0,0.3,0,0.8,0.2,1c0.2,0.2,0.6-0.1,0.7-0.3c0.3-0.3,0-0.4-0.2-0.2c-0.1,0.1-0.1-0.2-0.2-0.3c0-0.3-0.1-0.6-0.1-0.8
				c0-0.2-0.1-0.8-0.4-0.8c-0.3,0-0.5,0.5-0.6,0.7c-0.2,0.5-0.2,1.2-0.2,1.7c0,0.3,0.5-0.1,0.5-0.3c0-0.4,0-0.9-0.1-1.3
				c0-0.2,0-0.8-0.3-0.8c-0.3-0.1-0.5,0.3-0.6,0.5c-0.2,0.6-0.3,1.2-0.3,1.9c0.2-0.1,0.3-0.2,0.5-0.2c0-0.7,0-1.4-0.1-2
				C61.7,152.8,61.2,153.1,61.2,153.3L61.2,153.3z"/>
			<path id="XMLID_89_" class="st4" d="M64.5,152.6c-0.5,0.2-0.7,0.8-0.7,1.3c0,0.4,0.1,1.3,0.7,1.2c0.7-0.1,0.8-0.9,0.8-1.3
				C65.3,153.4,65.1,152.5,64.5,152.6c-0.2,0-0.4,0.5-0.2,0.5c0.3,0,0.4,0.3,0.5,0.6c0.1,0.2,0.1,0.4,0.1,0.5c0,0.1,0,0.2,0,0.2
				c0,0.1-0.1,0.2,0,0.2c-0.3,0.2-0.5-0.4-0.5-0.5c-0.1-0.2-0.1-0.4-0.1-0.5c0-0.1,0-0.2,0-0.3c0-0.1,0.1-0.1,0-0.1
				C64.5,153,64.7,152.5,64.5,152.6z"/>
			<path id="XMLID_88_" class="st4" d="M66.1,154.2c0.8-0.4,0.8-1.4,0.5-2c-0.1-0.2-0.3-0.4-0.6-0.3c-0.5,0.2-0.6,0.8-0.5,1.2
				c0,0.2,0.4-0.2,0.4-0.4c0-0.1-0.1-0.4,0.1-0.3c0.1,0.1,0.2,0.2,0.2,0.3c0.1,0.2,0.2,0.8,0,1C66.1,153.8,65.8,154.3,66.1,154.2
				L66.1,154.2z"/>
			<path id="XMLID_87_" class="st4" d="M66.9,153.9c-0.6,0.6-1.1,1.5-0.9,2.2c0.2,0.6,1.1-0.2,1.3-0.5c0.3-0.7,0.1-2.8-1.1-1.8
				c-0.2,0.2-0.3,0.6,0,0.4c0.6-0.5,0.8,0.9,0.8,1.1c0,0.2-0.1,0.6-0.4,0.5c-0.5-0.2,0.1-1.2,0.4-1.5
				C67.1,154.1,67.2,153.6,66.9,153.9L66.9,153.9z"/>
			<path id="XMLID_86_" class="st4" d="M54.4,152.3c0.1-0.5-0.1-1.1-0.7-0.9c-0.4,0.1-0.6,0.5-0.8,0.8c-0.2,0.3-0.3,0.8-0.1,1.2
				c0.3,0.5,1,0.2,1.2,0c0.2-0.2-0.4-0.2-0.5-0.1c-0.1,0.2-0.2-0.3-0.2-0.3c0-0.2,0-0.5,0.1-0.7c0.1-0.2,0.2-0.4,0.3-0.5
				c0,0,0.1-0.1,0.1-0.1c0,0,0.1,0,0,0.1c0.1,0.2,0.1,0.4,0,0.6C53.8,152.6,54.4,152.5,54.4,152.3L54.4,152.3z"/>
			<path id="XMLID_85_" class="st4" d="M53.5,153.3c-0.1,0.5,0.4,0.8,0.9,0.7c0.5-0.1,0.7-0.6,0.8-1c0.1-0.3,0.2-0.9-0.1-1.2
				c-0.1-0.2-0.4-0.1-0.6-0.1c-0.3,0.1-0.5,0.3-0.6,0.6c-0.1,0.2,0.5,0.2,0.5,0c0.1-0.3,0.2-0.3,0.3,0c0,0.2,0,0.4,0,0.6
				c0,0.2-0.1,0.4-0.2,0.6c0,0.1-0.1,0.1-0.2,0.2c0,0,0,0-0.1-0.1c-0.2-0.1-0.2-0.2-0.1-0.4C54.1,153.1,53.6,153.1,53.5,153.3
				L53.5,153.3z"/>
			<path id="XMLID_84_" class="st4" d="M54.1,151.4c-0.3,1.3-0.7,2.5-1.3,3.6c-0.1,0.2,0.5,0.2,0.6,0c0.6-1.1,1-2.4,1.3-3.7
				C54.7,151.1,54.1,151.2,54.1,151.4L54.1,151.4z"/>
			<path id="XMLID_83_" class="st4" d="M57.5,153c-0.1,0.4-0.8,2.1,0.1,2.2c1.1,0.1,1.2-1.6,1.4-2.2c0.1-0.2-0.4,0-0.5,0.2
				c-0.1,0.4-0.2,0.9-0.4,1.3c-0.1,0.2-0.1,0.5-0.3,0.3c-0.2-0.2,0-0.7,0-0.9c0.1-0.3,0.2-0.6,0.2-1C58,152.6,57.5,152.8,57.5,153
				L57.5,153z"/>
			<path id="XMLID_82_" class="st4" d="M58.5,153.2c-0.1,0.9-0.2,1.7-0.3,2.6c0,0.2-0.1,1-0.5,0.9c-0.7-0.3,0.7-1.4,0.8-1.5
				c0.3-0.2-0.1-0.3-0.3-0.1c-0.5,0.4-1.3,0.9-1.2,1.6c0,0.3,0.5,0.5,0.8,0.4c0.6-0.2,0.8-0.7,0.9-1.2c0.2-0.9,0.2-1.9,0.3-2.9
				C59,152.8,58.5,153,58.5,153.2L58.5,153.2z"/>
		</g>
	</g>
	<circle class="st8" cx="44.9" cy="157.4" r="6.2"/>
	<path class="st9" d="M51.4,115.5c0,1.4-1.1,2.5-2.5,2.5c-1.4,0-2.5-1.1-2.5-2.5c0-1.4,1.1-2.5,2.5-2.5
		C50.2,112.9,51.4,114.1,51.4,115.5L51.4,115.5z"/>
	<path class="st10" d="M51.5,124c0,1.8-1.5,3.3-3.3,3.3c-1.8,0-3.3-1.5-3.3-3.3c0-1.8,1.5-3.3,3.3-3.3C50,120.8,51.5,122.2,51.5,124
		L51.5,124z"/>
	<path class="st10" d="M42.8,119c0,1.1-0.9,1.9-1.9,1.9c-1.1,0-1.9-0.9-1.9-1.9c0-1.1,0.9-1.9,1.9-1.9
		C41.9,117.1,42.8,117.9,42.8,119L42.8,119z"/>
	<g>
		<circle class="st8" cx="77.7" cy="121.7" r="10.9"/>
		<g>
			<path class="st4" d="M75,120.1c-0.9,0.1-1.2,1.2-1.2,1.9l0,0v0c0,0.1,0,0.2,0,0.3c0,0.4,0,0.6-0.1,1c0,0.1-0.1,0.4-0.1,0.4
				c-0.3,0-0.6-0.5-0.7-0.7c-0.2-0.6-0.4-1.1-0.5-1.7c-0.1-0.6-0.2-1.3-0.2-1.9c0-0.3,0-0.5,0-0.8c0-0.1,0-0.2,0-0.3
				c0-0.1,0-0.2,0-0.2c0.1-0.5-0.6,0-0.7,0.2c-0.7,1.3-0.5,2.8-0.5,4.2c0,0.4,0,0.8-0.1,1.1c0,0.3-0.1,0.7-0.3,0.9
				c-0.1,0.1-0.4,0-0.5,0c-0.2-0.1-0.3-0.3-0.3-0.5c0-0.2-0.3-0.1-0.4,0c-0.2,0.2-0.3,0.4-0.3,0.6c0.1,0.5,0.5,0.9,1,0.8
				c0.8-0.2,1.2-1.2,1.4-2c0.1-0.4,0.1-0.7,0.2-1.1c0.1,0.5,0.3,1.1,0.5,1.6c0.2,0.4,0.5,0.7,1,0.6c0.3-0.1,0.6-0.4,0.7-0.8
				c0.2,0.4,0.4,0.6,0.8,0.6c0.5,0,0.8-0.5,1-0.9c0.2-0.4,0.3-0.9,0.3-1.4C76.1,121.4,75.9,120,75,120.1z M75.3,123.3
				c0,0.1,0,0.2-0.1,0.3c-0.2,0-0.3-0.3-0.4-0.4c-0.1-0.3-0.2-0.6-0.2-1c0-0.3,0-0.7,0-1c0-0.1,0-0.2,0.1-0.3
				c0.5,0.3,0.5,0.9,0.6,1.4C75.4,122.6,75.4,122.9,75.3,123.3z"/>
			<path class="st4" d="M85.9,121.4c-1-0.4-1.5,1-1.7,1.7c-0.2,0.7-0.4,1.9,0.5,2.2c0.4,0.2,0.9-0.1,1.1-0.4
				c0.3-0.3,0.5-0.8,0.6-1.2C86.6,123,86.8,121.7,85.9,121.4z M85.3,124.5c0,0.1-0.1,0.2-0.1,0.2c-0.2-0.1-0.2-0.4-0.2-0.5
				c-0.1-0.3,0-0.7,0-1c0.1-0.3,0.2-0.7,0.3-1c0-0.1,0.1-0.1,0.1-0.2c0.4,0.4,0.3,1,0.2,1.5C85.5,123.9,85.4,124.2,85.3,124.5z"/>
			<path class="st4" d="M83.2,121.6c0.2-0.2,0.4-0.5,0.5-0.8c0.4-0.5,0.7-1.2,0.7-1.9c0-0.6-0.9-0.7-1.3-0.5c-0.6,0.3-1,1-1.2,1.6
				c-0.2,0.8-0.4,1.7-0.4,2.6v0c-0.3,0.4-0.9,1.1-1.4,0.8c-0.1-0.1-0.2-0.2-0.2-0.4c0.4-0.4,0.8-0.9,1.1-1.3
				c0.3-0.4,0.5-1.2-0.1-1.5c-0.5-0.3-1.1,0-1.4,0.4c-0.3,0.4-0.5,0.9-0.5,1.4c0,0.3-0.1,0.7,0,1.1c-0.3,0.2-0.6,0.3-1,0.2
				c-0.4-0.1-0.5-0.5-0.6-0.8c-0.1-0.4-0.1-0.9,0-1.4c0-0.1,0.1-0.3,0.1-0.4c0,0,0-0.1,0-0.1c0.2,0.1,0.3,0.5,0.4,0.6
				c0.1,0.3,0.9-0.2,0.8-0.5c-0.1-0.3-0.2-0.6-0.6-0.8c-0.3-0.2-0.8,0.1-1,0.3c-0.6,0.6-0.7,1.5-0.6,2.2c0,0.5,0.1,1.1,0.6,1.4
				c0.6,0.4,1.4,0,2-0.3c0.1,0.4,0.4,0.6,0.9,0.6c0.6-0.1,1.1-0.4,1.5-0.8c0,0.4,0.1,0.9,0.4,1.1c0.5,0.3,1.2,0,1.5-0.5
				c0.4-0.6,0.7-1.4,0.4-2.1C83.8,121.7,83.5,121.6,83.2,121.6z M79.9,121.2c0-0.1,0.1-0.2,0.2-0.4c0,0,0,0,0,0
				c0.2,0.1,0.3,0.4,0.3,0.5c-0.1,0.4-0.3,0.7-0.6,1c0-0.1,0-0.1,0-0.2C79.8,121.9,79.8,121.5,79.9,121.2z M83.1,119.4
				c0.1-0.1,0.1-0.3,0.2-0.4c0,0,0,0,0,0c0.4,0.4,0,1-0.2,1.4c-0.2,0.4-0.4,0.8-0.7,1.1c0.1-0.4,0.1-0.8,0.2-1.1
				C82.8,120.1,82.9,119.7,83.1,119.4z M82.9,123.9c0,0-0.1,0.1-0.1,0.2c0,0-0.1,0-0.1,0c-0.2-0.1-0.3-0.7-0.3-0.9
				c0-0.2,0-0.4,0-0.6c0.1-0.1,0.2-0.2,0.3-0.3c0.2-0.1,0.4,0.1,0.4,0.4C83.2,123,83,123.5,82.9,123.9z"/>
		</g>
	</g>
	<g>
		<path class="st4" d="M40.6,156.4c0.2-0.6,0.7-0.2,0.8,0.1c0.2,0.4,0,0.9-0.3,1.2c-0.2,0.3-0.5,0.5-0.8,0.7
			c-0.2,0.1-0.3,0.2-0.4,0.3c0,0.1-0.1,0.2,0,0.2c0.2,0.2,0.7,0.2,0.9,0.2c0.5,0,1,0,1.4-0.2c0.2-0.1,0.5-0.7,0-0.5
			c-0.3,0.2-0.7,0.1-1.1,0.1c-0.2,0-0.6,0-0.7-0.1c0,0.1,0,0.2,0,0.2c-0.2,0.3-0.1,0.2,0.1,0.1c0.1-0.1,0.3-0.2,0.4-0.3
			c0.2-0.2,0.4-0.4,0.6-0.7c0.4-0.5,0.6-1,0.5-1.6c-0.2-1.4-1.7-0.4-2,0.4C39.9,157,40.5,156.6,40.6,156.4L40.6,156.4z"/>
		<path class="st4" d="M44.1,158.6c0.5,1.5,2.7,0.5,2.4-0.9c-0.2-0.7-1-0.6-1.5-0.7c-0.3-0.1-0.3-0.3-0.3-0.6
			c0.1-0.3,0.1-0.3-0.1-0.2c0.1,0,0.2,0,0.3-0.1c0.5-0.1,1-0.1,1.4,0.1c0.2,0.1,0.7-0.4,0.4-0.5c-0.5-0.3-1.2-0.2-1.8-0.1
			c-0.6,0.1-0.7,0.6-0.7,1.2c0,0.6,0.6,0.7,1.1,0.8c0.4,0.1,0.7,0.2,0.8,0.6c0.1,0.7-0.7,0.6-1,0.4c-0.2-0.1-0.2-0.3-0.3-0.5
			C44.6,158,44,158.4,44.1,158.6L44.1,158.6z"/>
		<g>
			<path class="st4" d="M49.3,155.9c-0.6,1.1-1.4,2-2.2,3c-0.3,0.4,0.2,0.4,0.4,0.1c0.8-1,1.6-2.1,2.3-3.2
				C50.1,155.4,49.5,155.7,49.3,155.9L49.3,155.9z"/>
			<path class="st4" d="M48.2,155.6c-0.4,0-0.7,0.4-0.7,0.7c-0.1,0.3,0.1,0.6,0.5,0.6C48.6,157,49,155.6,48.2,155.6
				c-0.2,0-0.5,0.4-0.2,0.4c0.2,0,0.3,0.2,0.3,0.3c0,0.1,0,0.1,0,0.2c0,0.1,0,0,0,0c0,0-0.1,0-0.1,0c-0.2,0-0.3-0.2-0.3-0.3
				c0-0.1,0-0.2,0-0.2c0,0,0,0,0,0c0,0,0.1,0,0.1,0C48.1,156,48.4,155.6,48.2,155.6z"/>
			<path class="st4" d="M49.3,157.9c-0.4,0-0.7,0.4-0.7,0.7c-0.1,0.3,0.1,0.6,0.5,0.6C49.7,159.3,50.1,157.9,49.3,157.9
				c-0.2,0-0.5,0.4-0.2,0.4c0.2,0,0.3,0.2,0.3,0.3c0,0.1,0,0.1,0,0.2c0,0.1,0,0,0,0c0,0-0.1,0-0.1,0c-0.2,0-0.3-0.2-0.3-0.3
				c0-0.1,0-0.2,0-0.2c0,0,0,0,0,0c0,0,0.1,0,0.1,0C49.2,158.3,49.5,157.9,49.3,157.9z"/>
		</g>
		<path class="st4" d="M43.2,160c0.3-0.2,0.5-0.6,0.5-1c0-0.1,0-0.3-0.1-0.3c-0.1-0.1-0.4,0-0.5,0c-0.2,0.1-0.3,0.3-0.3,0.4
			c0,0.2,0.2,0.1,0.3,0.1c0,0,0,0,0,0c0,0,0,0,0,0c0,0.1,0,0.1,0,0.1c0,0.1,0,0.1-0.1,0.2c0,0,0,0,0,0.1c0,0,0,0,0,0c0,0,0,0,0,0.1
			c0.1-0.1,0,0,0,0c-0.1,0.1-0.3,0.3-0.1,0.4C42.9,160.2,43.1,160.1,43.2,160L43.2,160z"/>
	</g>
	<g>
		<path class="st11" d="M36.7,131.4c-0.1,0-0.2-0.2-0.3-0.2c-0.4-0.2-0.7,0.1-1.1,0.1c-0.9,0-1.3,0-2.4-0.3c0-1,0.6-1.6,0.8-2.3
			c0.2-0.7-0.1-1.5-0.1-2.2c0-0.5,0-0.9,0-1.4c-0.3,0.3-0.2,1.2-0.2,1.6c-0.1-0.6-0.1-1.4-0.3-1.9c-0.1,0.6,0,1.3,0,1.9
			c-0.2-0.5-0.2-1.2-0.4-1.6c-0.3,0.5,0.2,1.3,0.1,1.8c-0.2-0.5-0.3-1-0.5-1.5c-0.1,0.6,0.2,1.2,0.2,1.6c-0.2-0.4-0.3-0.8-0.6-1.1
			c0,0.4,0.3,0.9,0.4,1.3c-0.3-0.1-0.4-0.5-0.6-0.6c0,0.3,0.3,0.5,0.4,0.8c-0.2-0.1-0.3-0.3-0.5-0.4c0,0.3,0.3,0.4,0.3,0.6
			c-0.1-0.1-0.3-0.2-0.4-0.3c0,0.2,0.3,0.4,0.3,0.5c0,0-0.2-0.1-0.2,0c0,0,0.2,0.1,0.1,0.2c-0.1,0-0.1,0-0.2,0
			c0,0.2,0.2,0.1,0.1,0.3c-0.1,0-0.1-0.1-0.1,0c0,0.1,0.1,0.1,0.1,0.2c-0.8,0.8-0.4,1.8-0.5,2.7c0.1-0.1-0.7-0.3-1.2-0.5
			c-0.3-0.1-0.4-0.5-0.6-0.6c0-0.1,0.1,0,0.1-0.1c-0.1,0-0.2-0.1-0.2-0.2c0.1,0,0.3,0.1,0.3,0c-0.1-0.1-0.5-0.2-0.5-0.3
			c0.2,0,0.4,0.1,0.5,0.1c-0.2-0.1-0.6-0.3-0.6-0.5c0.2,0.1,0.5,0.3,0.7,0.2c-0.3-0.2-0.8-0.4-0.9-0.7c0.2,0.1,0.6,0.4,0.8,0.4
			c-0.4-0.1-0.7-0.6-1.1-0.6c0.2,0.4,0.8,0.6,0.9,0.8c-0.3-0.2-0.6-0.3-1-0.5c0.1,0.4,0.6,0.5,0.9,0.7c-0.3,0-0.5-0.2-0.8-0.2
			c0.1,0.3,0.6,0.2,0.7,0.5c-0.1-0.1-0.3,0-0.5,0c0,0.2,0.4,0.2,0.5,0.3c-0.2,0-0.3,0-0.4,0.1c0.1,0.1,0.3,0.1,0.4,0.2
			c-0.1,0-0.2,0-0.2,0.1c0,0.1,0.3,0,0.3,0.1c-0.1,0-0.1,0.1-0.1,0.1c0.1,0,0.2,0,0.2,0c-0.1,0-0.1,0-0.1,0.1
			c0.4,0.2,0.7,0.9,1.3,1.1c-0.3,0.2,0.3,0.4-3.5,1.8c0.1,0,1.7-0.4,2.1-0.5c0.5-0.2,0.9-0.3,1.4-0.4c0.1,0,0.2-0.1,0.3-0.1
			c0.8-0.1,1.5,0.1,2.3-0.4c-0.6,0.1-1.6,0.2-2-0.1c0.5-0.8,0.2-2.8,0.6-3.3c0.4-0.4,1.1-1.7,1.9-0.6c0.1,0.2,0.1,0.4-0.1,0.9
			c-0.3,0.6-0.6,0.8-0.5,2.1c0,0.2,0,0.5-0.4,0.5c1.6,0.3,2.1,0.2,3.1,0c0.3,0,0.8-0.3,0.8,0c0,0.1-0.3,0.1-0.6,0.1
			c-0.5,0,0.2,0.2,0.4,0.2c0.1,0,1-0.1,1.4-0.2C37.2,131.5,37,131.5,36.7,131.4z"/>
		<path class="st11" d="M31.9,122.9c-3.8,0-6.9,3.1-6.9,6.9c0,3.8,3.1,6.9,6.9,6.9c3.8,0,6.9-3.1,6.9-6.9
			C38.7,126,35.7,122.9,31.9,122.9 M31.9,123.1c3.6,0,6.6,3,6.6,6.6c0,3.6-3,6.6-6.6,6.6c-3.6,0-6.6-3-6.6-6.6
			C25.2,126.1,28.2,123.1,31.9,123.1"/>
	</g>
</g>
</svg>
