<svg xmlns="http://www.w3.org/2000/svg" viewBox="0 0 241.3 173"><style>.st0{fill:#519E38;} .st1{fill:none;stroke:#FFFFFF;stroke-width:4;stroke-miterlimit:10;} .st2{fill:#FFFFFF;} .st3{fill:#EFEFEF;} .st4{fill:#1669B3;} .st5{fill:#EDEDED;} .st6{fill:none;stroke:#636363;stroke-width:0.75;} .st7{fill:#636363;} .st8{fill:#1E1E1E;}</style><g id="bath"><g id="XMLID_1_"><path id="XMLID_27_" class="st0" d="M26.5 43.6h5.3v105.1h-5.3z"/><path id="XMLID_26_" class="st0" d="M209.5 43.6l-.1 104.8s1.3 11.2-7.7 11.2H34.5s-5-.3-5-5.8 166.2-2.7 166.2-2.7l7-18.8 1.4-70.8.3-18.1h5.1z"/><path id="XMLID_25_" class="st0" d="M213.5 41c0 2.2-1.8 4-4 4h-183c-2.2 0-4-1.8-4-4s1.8-4 4-4h183c2.2 0 4 1.7 4 4z"/><path id="XMLID_24_" class="st1" d="M204.5 150.2c0 2-1.6 3.7-3.7 3.7H30.2c-2 0-3.7-1.6-3.7-3.7V43.6c0-2 1.6-3.7 3.7-3.7h170.6c2 0 3.7 1.6 3.7 3.7v106.6z"/><path id="XMLID_23_" class="st2" d="M26.5 89.8h177.7v64.1H26.5z"/><path id="XMLID_22_" class="st3" d="M210.5 38c0 2.2-1.8 4-4 4h-183c-2.2 0-4-1.8-4-4s1.8-4 4-4h183c2.2 0 4 1.7 4 4z"/><path id="XMLID_21_" class="st2" d="M43.3 75.8c0 1.7-1.4 3.1-3.1 3.1-1.7 0-3.1-1.4-3.1-3.1V53.1c0-1.7 1.4-3.1 3.1-3.1 1.7 0 3.1 1.4 3.1 3.1v22.7z"/></g></g><g id="clock"><circle id="XMLID_20_" class="st4" cx="200.8" cy="43.6" r="30.3"/><circle id="XMLID_19_" class="st5" cx="200.8" cy="43.6" r="25"/><ellipse id="XMLID_18_" class="st6" cx="200.8" cy="43.6" rx="23" ry="23.1"/><path id="XMLID_17_" class="st7" d="M199.9 20.6h1.9v5.1h-1.9z"/><path id="XMLID_16_" class="st7" d="M187.72 25.04l1.542-1.108 2.978 4.14-1.542 1.11z"/><path id="XMLID_15_" class="st7" d="M180.733 33.233l.886-1.68 4.51 2.38-.886 1.68z"/><path id="XMLID_14_" class="st7" d="M211.278 28.815l-1.543-1.11 2.978-4.14 1.543 1.11z"/><path id="XMLID_13_" class="st7" d="M217.046 35.55l-.886-1.68 4.51-2.38.887 1.68z"/><path id="XMLID_12_" class="st7" d="M190.694 58.4l1.542 1.11-2.977 4.14-1.544-1.11z"/><path id="XMLID_11_" class="st7" d="M184.473 50.857l.886 1.68-4.512 2.38-.886-1.68z"/><path id="XMLID_10_" class="st7" d="M214.725 62.197l-1.542 1.11-2.978-4.14 1.543-1.11z"/><path id="XMLID_9_" class="st7" d="M221.664 53.632l-.886 1.68-4.51-2.378.885-1.68z"/><path id="XMLID_8_" class="st7" d="M199.9 62h1.9v5.1h-1.9z"/><path id="XMLID_7_" class="st7" d="M218.9 42.7h5.1v1.9h-5.1z"/><path id="XMLID_6_" class="st7" d="M177.6 42.7h5.1v1.9h-5.1z"/><circle id="XMLID_5_" class="st8" cx="201.2" cy="42.9" r="1.8"/></g><g id="hour_x5F_arrow"><path id="XMLID_4_" class="st8" d="M206.71 25.728l1.315.483-6.315 17.178-1.314-.484z"/><path id="XMLID_3_" class="st8" d="M212.926 43.612l-.15 1.392-11.633-1.263.15-1.39z"/></g></svg>