<svg xmlns="http://www.w3.org/2000/svg" viewBox="0 0 322.5 244.5"><style>.st0{fill:#519E38;} .st1{fill:#FFFFFF;}</style><g id="vanna_1"><circle class="st0" cx="289.1" cy="113.4" r="6.1"/><path class="st0" d="M283.1 141.6c0-6.1-3.7-11.3-9-13.5.3-.7.5-1.5.5-2.4 0-3.4-2.7-6.1-6.1-6.1-3.4 0-6.1 2.7-6.1 6.1 0 .9.2 1.7.5 2.4-1.3.6-2.6 1.3-3.7 2.2-5.3-5.8-13-9.5-21.5-9.5h-.1c-.2-2.9-.9-5.6-2-8.1 5.1-.6 9.1-4.9 9.1-10.2 0-5.7-4.6-10.3-10.3-10.3-5 0-9.2 3.6-10.1 8.4-2.7-1.4-5.7-2.3-8.8-2.7 2-1.9 3.3-4.6 3.3-7.6 0-5.7-4.6-10.3-10.3-10.3-4.3 0-8 2.7-9.6 6.5-5.2-4.7-12.1-7.7-19.7-7.7-11.1 0-20.8 6.2-25.7 15.4-.9-2.3-3.1-4-5.7-4-3.4 0-6.1 2.7-6.1 6.1 0 1.5.6 2.9 1.5 3.9-4.2 2.1-7.8 5.3-10.3 9.3-1-6.7-6.8-11.9-13.8-11.9-7.7 0-14 6.3-14 14 0 2.7.8 5.2 2.1 7.3-.9-.1-1.8-.2-2.7-.2-9.8 0-18 6.8-20.2 16-2-1.1-4.4-1.7-6.8-1.7-8.1 0-14.6 6.5-14.6 14.6s6.5 14.6 14.6 14.6c2.3 0 4.4-.5 6.3-1.5 0 .5-.1 1-.1 1.5 0 16.1 13.1 29.2 29.2 29.2 5.1 0 9.9-1.3 14.1-3.6.6 2.8 3 4.8 5.9 4.8 3.4 0 6.1-2.7 6.1-6.1 0-.4 0-.7-.1-1.1 2.8.7 5.7 1.1 8.7 1.1 3.2 0 6.2-.4 9.1-1.2 4.6 10 14.7 16.9 26.5 16.9 16.1 0 29.2-13.1 29.2-29.2 0-.8-.1-1.5-.1-2.3.9-.7 1.8-1.4 2.6-2.3 5.4 6.5 13.4 10.6 22.5 10.6 8.9 0 16.8-4 22.2-10.2 2 2.6 5.1 4.2 8.6 4.2 6 0 10.9-4.9 10.9-10.9 0-3.2-1.4-6.1-3.6-8.1 4.6-2.2 7.6-6.9 7.6-12.4zm-162.9-15.7l-.3-.3h.5c0 .1-.1.2-.2.3z"/><g><circle class="st1" cx="93.3" cy="128.1" r="20.8"/><circle class="st1" cx="107.9" cy="100.1" r="14"/><circle class="st1" cx="197.2" cy="78.8" r="10.3"/><circle class="st1" cx="223.1" cy="90.9" r="10.3"/><circle class="st1" cx="257.2" cy="114.1" r="6.1"/><circle class="st1" cx="277.9" cy="101.8" r="6.1"/><circle class="st1" cx="121.8" cy="175.2" r="6.1"/><circle class="st1" cx="257.2" cy="150.8" r="10.9"/><circle class="st1" cx="136.5" cy="84.8" r="6.1"/><circle class="st1" cx="66.3" cy="136.2" r="14.6"/><circle class="st1" cx="257.2" cy="130" r="14.6"/><circle class="st1" cx="143" cy="111.2" r="25"/><circle class="st1" cx="201.4" cy="111.2" r="25"/><circle class="st1" cx="168" cy="96.6" r="29.2"/><circle class="st1" cx="183.5" cy="136.2" r="29.2"/><circle class="st1" cx="172.2" cy="161.7" r="29.2"/><path class="st1" d="M173.2 138.5c0 20.3-16.4 36.7-36.7 36.7-20.3 0-36.7-16.4-36.7-36.7 0-20.3 16.4-36.7 36.7-36.7 20.3 0 36.7 16.4 36.7 36.7z"/><circle class="st1" cx="101.8" cy="150.8" r="29.2"/><circle class="st1" cx="226.4" cy="138.5" r="29.2"/><circle class="st1" cx="95.8" cy="130" r="8.4"/></g></g></svg>