<svg xmlns="http://www.w3.org/2000/svg" viewBox="0 0 285 213"><style>.st0{fill:#519E38;} .st1{fill:none;stroke:#FFFFFF;stroke-width:4;stroke-miterlimit:10;} .st2{fill:#FFFFFF;} .st3{fill:#EFEFEF;} .st4{fill:#EDEDED;} .st5{fill:#CA0000;} .st6{fill:#B00000;} .st7{opacity:0.6;fill:none;stroke:#FFFFFF;stroke-width:2;stroke-linecap:round;}</style><g id="vanna_1"><path class="st0" d="M50.3 60.7h5.3v105.1h-5.3zM233.4 60.7l-.1 104.8s1.3 11.2-7.7 11.2H58.3s-5-.3-5-5.8 166.2-2.7 166.2-2.7l7-18.8 1.4-70.8.3-18.1h5.2z"/><path class="st0" d="M237.3 58c0 2.2-1.8 4-4 4h-183c-2.2 0-4-1.8-4-4s1.8-4 4-4h183c2.2 0 4 1.8 4 4z"/><path class="st1" d="M228.3 167.3c0 2-1.6 3.7-3.7 3.7H54c-2 0-3.7-1.6-3.7-3.7V60.7c0-2 1.6-3.7 3.7-3.7h170.6c2 0 3.7 1.6 3.7 3.7v106.6z"/><path class="st2" d="M50.3 106.8H228v64.1H50.3z"/><path class="st3" d="M234.3 55c0 2.2-1.8 4-4 4h-183c-2.2 0-4-1.8-4-4s1.8-4 4-4h183c2.2 0 4 1.8 4 4z"/><path class="st2" d="M67.1 92.9c0 1.7-1.4 3.1-3.1 3.1-1.7 0-3.1-1.4-3.1-3.1V70.1c0-1.7 1.4-3.1 3.1-3.1 1.7 0 3.1 1.4 3.1 3.1v22.8z"/></g><g id="sneg"><path class="st0" d="M256.8 83.5V28.8c0-.5-.1-.9-.2-1.4s-.8-5.5-6.2-6.1c0 0-3.8-.1-6 1.1-2.2 1.2 6.9 5.4 6.9 5.4s1.7.9 2.5 1.3v56.1l.8.4c.1 0 6.9 3.9 6.4 11.5-.4 5.9-3.8 10.3-8.9 12l-6.3-1.8s-7.5-.2-4.8 2.8c1.7 1.9 4.6 2.5 6.5 2.6.2.1.4.1.6.1.3 0 .6 0 .9-.1h.3c8.1-.7 14.1-6.9 14.6-15.3.6-8-5-12.5-7.1-13.9z"/><path class="st2" d="M253.8 84.2v-55c0-4-3.2-7.2-7.2-7.2s-7.2 3.2-7.2 7.2V84c-4.4 2.5-7.3 7.2-7.3 12.6 0 8 6.5 14.4 14.4 14.4 8 0 14.4-6.5 14.4-14.4 0-5.3-2.8-9.9-7.1-12.4z"/><path class="st4" d="M253.8 84.2v-55c0-4-3.2-7.2-7.2-7.2h-.1v89c8 0 14.4-6.5 14.4-14.4 0-5.3-2.8-9.9-7.1-12.4z"/><path class="st5" d="M251.1 86.4V42h-9.5v44.6c-3.9 1.9-6.6 5.8-6.6 10.4 0 6.4 5.2 11.5 11.5 11.5 6.4 0 11.5-5.2 11.5-11.5 0-4.8-2.8-8.9-6.9-10.6z"/><path class="st6" d="M251.1 86.4V42h-4.6v66.5c6.4 0 11.5-5.2 11.5-11.5 0-4.8-2.8-8.9-6.9-10.6z"/><path class="st7" d="M239.6 99.3s1.2 2.8 4 4"/><path class="st2" d="M248 49.1h-2.9c-.1 0-.2-.1-.2-.2s.1-.2.2-.2h2.9c.1 0 .2.1.2.2s-.1.2-.2.2zM248 50.8h-2.9c-.1 0-.2-.1-.2-.2s.1-.2.2-.2h2.9c.1 0 .2.1.2.2s-.1.2-.2.2zM249.8 52.4h-6.5c-.1 0-.2-.1-.2-.2s.1-.2.2-.2h6.5c.1 0 .2.1.2.2s-.1.2-.2.2zM248 54.1h-2.9c-.1 0-.2-.1-.2-.2s.1-.2.2-.2h2.9c.1 0 .2.1.2.2s-.1.2-.2.2zM248 55.7h-2.9c-.1 0-.2-.1-.2-.2s.1-.2.2-.2h2.9c.1 0 .2.1.2.2s-.1.2-.2.2zM249.8 57.4h-6.5c-.1 0-.2-.1-.2-.2s.1-.2.2-.2h6.5c.1 0 .2.1.2.2s-.1.2-.2.2zM248 59h-2.9c-.1 0-.2-.1-.2-.2s.1-.2.2-.2h2.9c.1 0 .2.1.2.2s-.1.2-.2.2zM248 60.7h-2.9c-.1 0-.2-.1-.2-.2s.1-.2.2-.2h2.9c.1 0 .2.1.2.2s-.1.2-.2.2zM249.8 62.3h-6.5c-.1 0-.2-.1-.2-.2s.1-.2.2-.2h6.5c.1 0 .2.1.2.2s-.1.2-.2.2zM248 64h-2.9c-.1 0-.2-.1-.2-.2s.1-.2.2-.2h2.9c.1 0 .2.1.2.2s-.1.2-.2.2zM248 65.6h-2.9c-.1 0-.2-.1-.2-.2s.1-.2.2-.2h2.9c.1 0 .2.1.2.2s-.1.2-.2.2zM249.8 67.3h-6.5c-.1 0-.2-.1-.2-.2s.1-.2.2-.2h6.5c.1 0 .2.1.2.2s-.1.2-.2.2z"/></g></svg>