<svg xmlns="http://www.w3.org/2000/svg" viewBox="77 -1 283 252"><style>.st0{fill:#FFFFFF;} .st1{fill:#519E38;} .st2{fill:none;stroke:#FFFFFF;stroke-width:4;stroke-miterlimit:10;} .st3{fill:#EFEFEF;}</style><g id="Layer_1"><circle class="st0" cx="228.2" cy="48.4" r="1.7"/><circle class="st0" cx="233.3" cy="41.9" r="1.7"/><circle class="st0" cx="216" cy="32.2" r="1.7"/><circle class="st0" cx="210.7" cy="40.2" r="1.7"/><circle class="st0" cx="217" cy="45.1" r="1.7"/><circle class="st0" cx="218.8" cy="60.7" r="1.7"/><circle class="st0" cx="228.2" cy="64.1" r="1.7"/><circle class="st0" cx="224.9" cy="36.9" r="1.7"/><circle class="st0" cx="220" cy="38.6" r="1.7"/><circle class="st0" cx="228.2" cy="30.5" r="1.7"/><circle class="st0" cx="222.1" cy="46.7" r="1.7"/><circle class="st0" cx="222.1" cy="53.4" r="1.7"/><circle class="st0" cx="215.4" cy="53.4" r="1.7"/><circle class="st0" cx="224.9" cy="74.4" r="1.7"/><path class="st1" d="M131.1 96.9h5.3V202h-5.3zM314.2 96.9l-.1 104.8s1.3 11.2-7.7 11.2H139.1s-5-.3-5-5.8 166.2-2.7 166.2-2.7l7-18.8 1.4-70.8.3-18.1h5.2v.2z"/><path class="st1" d="M318.1 94.3c0 2.2-1.8 4-4 4h-183c-2.2 0-4-1.8-4-4s1.8-4 4-4h183c2.2 0 4 1.8 4 4z"/><path class="st2" d="M309.1 203.6c0 2-1.6 3.7-3.7 3.7H134.8c-2 0-3.7-1.6-3.7-3.7V96.9c0-2 1.6-3.7 3.7-3.7h170.6c2 0 3.7 1.6 3.7 3.7v106.7z"/><path class="st0" d="M131.1 143.1h177.7v64.1H131.1z"/><path class="st3" d="M315.1 91.3c0 2.2-1.8 4-4 4h-183c-2.2 0-4-1.8-4-4s1.8-4 4-4h183c2.2 0 4 1.8 4 4z"/><path class="st0" d="M147.9 129.2c0 1.7-1.4 3.1-3.1 3.1-1.7 0-3.1-1.4-3.1-3.1v-22.8c0-1.7 1.4-3.1 3.1-3.1 1.7 0 3.1 1.4 3.1 3.1v22.8z"/></g></svg>