<svg xmlns="http://www.w3.org/2000/svg" viewBox="0 0 344 280"><style>.st0{fill:#4F9E35;} .st1{fill:#4F4F51;} .st2{fill:#FFFFFF;} .st3{fill:#414042;} .st4{fill:#F9A455;} .st5{fill:#A04D15;} .st6{fill:#F2D291;} .st7{fill:#DDB97A;} .st8{fill:#BFF9AA;} .st9{fill:#A9E291;} .st10{fill:#80D15E;} .st11{fill:#98E080;} .st12{fill:#2EEBFF;}</style><g id="lupa"><path class="st0" d="M272.2 89.1c0-5.1-4.1-9.2-9.2-9.2s-9.2 4.1-9.2 9.2v.6c-.1-1.7-1.5-3.1-3.3-3.1s-3.2 1.4-3.3 3.1h-42c0-.2.1-.4.1-.6 0-2.1-1.7-3.7-3.7-3.7s-3.7 1.7-3.7 3.7c0 .2 0 .4.1.6h-15.7c.2-.6.3-1.2.3-1.8 0-2.7-2.2-5-5-5-2.7 0-5 2.2-5 5 0 .6.1 1.2.3 1.8h-22.1v-.6c0-5.1-4.1-9.2-9.2-9.2s-9.2 4.1-9.2 9.2v.6c-.1-2.8-2.4-5.1-5.3-5.1s-5.2 2.3-5.3 5.1c-.1-5.2-4.4-9.5-9.6-9.5-5.3 0-9.6 4.3-9.6 9.6 0 .6.1 1.1.2 1.7v105c0 6.6 5.4 12 12 12h145.4c6.6 0 12-5.4 12-12V89.6v-.5z"/><path class="st1" d="M93.1 120.7C77.3 104.9 70.4 93.3 74 86.2c4.2-8.3 18.8-6.4 20.5-6.1l-.9 5.9c-3.9-.6-12.5-.6-14.3 2.9-3.1 6.1 10.8 20.6 15.5 25.3l-1.7 6.5zM281 120.9l-1.2-6.8c4.7-4.7 18.4-19.1 15.3-25.2-1.7-3.5-10.4-3.4-14.3-2.9l-.9-5.9c1.7-.2 16.3-2.2 20.5 6.1 3.7 7.1-3.6 18.9-19.4 34.7z"/><path class="st2" d="M249.8 181.4c-3.9 0-7.1-3.2-7.1-7.1s3.2-7.1 7.1-7.1c3.9 0 7.1 3.2 7.1 7.1s-3.1 7.1-7.1 7.1zm0-13.3c-3.4 0-6.1 2.8-6.1 6.1s2.8 6.1 6.1 6.1 6.1-2.8 6.1-6.1-2.7-6.1-6.1-6.1z"/><path class="st2" d="M249.8 181.6c-4 0-7.3-3.3-7.3-7.3s3.3-7.3 7.3-7.3 7.3 3.3 7.3 7.3-3.3 7.3-7.3 7.3zm0-14.3c-3.9 0-7 3.1-7 7s3.1 7 7 7 7-3.1 7-7-3.1-7-7-7zm0 13.3c-3.5 0-6.3-2.8-6.3-6.3s2.8-6.3 6.3-6.3 6.3 2.8 6.3 6.3c0 3.4-2.8 6.3-6.3 6.3zm0-12.3c-3.3 0-6 2.7-6 6s2.7 6 6 6 6-2.7 6-6-2.7-6-6-6zM128.3 197.8c-5.3 0-9.5-4.3-9.5-9.5 0-5.3 4.3-9.5 9.5-9.5 5.3 0 9.5 4.3 9.5 9.5.1 5.2-4.2 9.5-9.5 9.5zm0-17.8c-4.5 0-8.2 3.7-8.2 8.2 0 4.5 3.7 8.2 8.2 8.2 4.5 0 8.2-3.7 8.2-8.2 0-4.5-3.7-8.2-8.2-8.2z"/><path class="st2" d="M128.3 197.9c-5.3 0-9.7-4.3-9.7-9.7s4.3-9.7 9.7-9.7c5.3 0 9.7 4.3 9.7 9.7s-4.3 9.7-9.7 9.7zm0-19.1c-5.2 0-9.4 4.2-9.4 9.4s4.2 9.4 9.4 9.4 9.4-4.2 9.4-9.4c0-5.1-4.2-9.4-9.4-9.4zm0 17.8c-4.6 0-8.3-3.7-8.3-8.3 0-4.6 3.7-8.3 8.3-8.3 4.6 0 8.3 3.7 8.3 8.3.1 4.5-3.7 8.3-8.3 8.3zm0-16.4c-4.5 0-8.1 3.6-8.1 8.1s3.6 8.1 8.1 8.1 8.1-3.6 8.1-8.1-3.6-8.1-8.1-8.1zM128.3 168.1c-2.5 0-4.5-2-4.5-4.5s2-4.5 4.5-4.5 4.5 2 4.5 4.5-2 4.5-4.5 4.5zm0-8.4c-2.1 0-3.9 1.7-3.9 3.9 0 2.1 1.7 3.9 3.9 3.9 2.1 0 3.9-1.7 3.9-3.9 0-2.1-1.7-3.9-3.9-3.9z"/><path class="st2" d="M128.3 168.3c-2.6 0-4.7-2.1-4.7-4.7s2.1-4.7 4.7-4.7 4.7 2.1 4.7 4.7-2.1 4.7-4.7 4.7zm0-9.1c-2.4 0-4.4 2-4.4 4.4s2 4.4 4.4 4.4 4.4-2 4.4-4.4-2-4.4-4.4-4.4zm0 8.4c-2.2 0-4-1.8-4-4s1.8-4 4-4 4 1.8 4 4-1.8 4-4 4zm0-7.7c-2.1 0-3.8 1.7-3.8 3.8s1.7 3.8 3.8 3.8 3.8-1.7 3.8-3.8-1.7-3.8-3.8-3.8zM136.5 157c-2.5 0-4.5-2-4.5-4.5s2-4.5 4.5-4.5 4.5 2 4.5 4.5-2 4.5-4.5 4.5zm0-8.4c-2.1 0-3.9 1.7-3.9 3.9s1.7 3.9 3.9 3.9c2.1 0 3.9-1.7 3.9-3.9s-1.7-3.9-3.9-3.9z"/><path class="st2" d="M136.5 157.1c-2.6 0-4.7-2.1-4.7-4.7s2.1-4.7 4.7-4.7 4.7 2.1 4.7 4.7-2.1 4.7-4.7 4.7zm0-9c-2.4 0-4.4 2-4.4 4.4s2 4.4 4.4 4.4c2.4 0 4.4-2 4.4-4.4s-1.9-4.4-4.4-4.4zm0 8.4c-2.2 0-4-1.8-4-4s1.8-4 4-4 4 1.8 4 4c.1 2.2-1.8 4-4 4zm0-7.8c-2.1 0-3.8 1.7-3.8 3.8s1.7 3.8 3.8 3.8c2.1 0 3.8-1.7 3.8-3.8s-1.7-3.8-3.8-3.8zM247.6 146.1c-3.7 0-6.6-3-6.6-6.6s3-6.6 6.6-6.6c3.7 0 6.6 3 6.6 6.6s-3 6.6-6.6 6.6zm0-12.3c-3.1 0-5.7 2.6-5.7 5.7s2.6 5.7 5.7 5.7 5.7-2.6 5.7-5.7c0-3.2-2.6-5.7-5.7-5.7z"/><path class="st2" d="M247.6 146.2c-3.7 0-6.8-3-6.8-6.8 0-3.7 3-6.8 6.8-6.8s6.8 3 6.8 6.8c-.1 3.8-3.1 6.8-6.8 6.8zm0-13.2c-3.6 0-6.5 2.9-6.5 6.5s2.9 6.5 6.5 6.5 6.5-2.9 6.5-6.5-2.9-6.5-6.5-6.5zm0 12.3c-3.2 0-5.8-2.6-5.8-5.8 0-3.2 2.6-5.8 5.8-5.8s5.8 2.6 5.8 5.8c0 3.2-2.6 5.8-5.8 5.8zm0-11.4c-3.1 0-5.6 2.5-5.6 5.6 0 3.1 2.5 5.6 5.6 5.6s5.6-2.5 5.6-5.6c0-3.1-2.5-5.6-5.6-5.6zM256 157.5c-2 0-3.5-1.6-3.5-3.5 0-2 1.6-3.5 3.5-3.5 2 0 3.5 1.6 3.5 3.5s-1.6 3.5-3.5 3.5zm0-6.6c-1.7 0-3.1 1.4-3.1 3.1s1.4 3.1 3.1 3.1c1.7 0 3.1-1.4 3.1-3.1s-1.5-3.1-3.1-3.1z"/><path class="st2" d="M256 157.6c-2 0-3.7-1.6-3.7-3.7 0-2 1.6-3.7 3.7-3.7 2 0 3.7 1.6 3.7 3.7-.1 2.1-1.7 3.7-3.7 3.7zm0-7.1c-1.9 0-3.4 1.5-3.4 3.4s1.5 3.4 3.4 3.4 3.4-1.5 3.4-3.4c0-1.8-1.5-3.4-3.4-3.4zm0 6.6c-1.8 0-3.2-1.4-3.2-3.2s1.4-3.2 3.2-3.2c1.8 0 3.2 1.4 3.2 3.2s-1.5 3.2-3.2 3.2zm0-6.1c-1.6 0-2.9 1.3-2.9 2.9s1.3 2.9 2.9 2.9c1.6 0 2.9-1.3 2.9-2.9s-1.3-2.9-2.9-2.9zM214.1 107.5c-2 0-3.5-1.6-3.5-3.5 0-2 1.6-3.5 3.5-3.5 2 0 3.5 1.6 3.5 3.5.1 1.9-1.5 3.5-3.5 3.5zm0-6.6c-1.7 0-3.1 1.4-3.1 3.1s1.4 3.1 3.1 3.1 3.1-1.4 3.1-3.1-1.4-3.1-3.1-3.1z"/><path class="st2" d="M214.1 107.6c-2 0-3.7-1.6-3.7-3.7s1.6-3.7 3.7-3.7c2 0 3.7 1.6 3.7 3.7s-1.7 3.7-3.7 3.7zm0-7.1c-1.9 0-3.4 1.5-3.4 3.4s1.5 3.4 3.4 3.4 3.4-1.5 3.4-3.4-1.5-3.4-3.4-3.4zm0 6.6c-1.8 0-3.2-1.4-3.2-3.2s1.4-3.2 3.2-3.2c1.8 0 3.2 1.4 3.2 3.2s-1.4 3.2-3.2 3.2zm0-6.1c-1.6 0-2.9 1.3-2.9 2.9s1.3 2.9 2.9 2.9c1.6 0 2.9-1.3 2.9-2.9s-1.3-2.9-2.9-2.9zM262.6 103.3c-2 0-3.5-1.6-3.5-3.5 0-2 1.6-3.5 3.5-3.5 2 0 3.5 1.6 3.5 3.5s-1.6 3.5-3.5 3.5zm0-6.6c-1.7 0-3.1 1.4-3.1 3.1s1.4 3.1 3.1 3.1 3.1-1.4 3.1-3.1-1.4-3.1-3.1-3.1z"/><path class="st2" d="M262.6 103.4c-2 0-3.7-1.6-3.7-3.7s1.6-3.7 3.7-3.7c2 0 3.7 1.6 3.7 3.7s-1.7 3.7-3.7 3.7zm0-7.1c-1.9 0-3.4 1.5-3.4 3.4s1.5 3.4 3.4 3.4 3.4-1.5 3.4-3.4-1.5-3.4-3.4-3.4zm0 6.6c-1.8 0-3.2-1.4-3.2-3.2s1.4-3.2 3.2-3.2c1.8 0 3.2 1.4 3.2 3.2s-1.5 3.2-3.2 3.2zm0-6.1c-1.6 0-2.9 1.3-2.9 2.9s1.3 2.9 2.9 2.9c1.6 0 2.9-1.3 2.9-2.9s-1.3-2.9-2.9-2.9zM127.5 107.2c-2.5 0-4.5-2-4.5-4.5s2-4.5 4.5-4.5 4.5 2 4.5 4.5-2 4.5-4.5 4.5zm0-8.5c-2.1 0-3.9 1.7-3.9 3.9s1.7 3.9 3.9 3.9 3.9-1.7 3.9-3.9-1.8-3.9-3.9-3.9z"/><path class="st2" d="M127.5 107.3c-2.6 0-4.7-2.1-4.7-4.7s2.1-4.7 4.7-4.7 4.7 2.1 4.7 4.7-2.1 4.7-4.7 4.7zm0-9.1c-2.4 0-4.4 2-4.4 4.4s2 4.4 4.4 4.4c2.4 0 4.4-2 4.4-4.4s-2-4.4-4.4-4.4zm0 8.5c-2.2 0-4-1.8-4-4s1.8-4 4-4 4 1.8 4 4-1.8 4-4 4zm0-7.8c-2.1 0-3.8 1.7-3.8 3.8s1.7 3.8 3.8 3.8c2.1 0 3.8-1.7 3.8-3.8s-1.7-3.8-3.8-3.8z"/><path class="st2" d="M268.6 219.3H106c-7.4 0-13.5-6.1-13.5-13.5V68.2c0-7.4 6.1-13.5 13.5-13.5h162.6c7.4 0 13.5 6.1 13.5 13.5v137.6c0 7.4-6.1 13.5-13.5 13.5zM106 57.7c-5.8 0-10.5 4.7-10.5 10.5v137.6c0 5.8 4.7 10.5 10.5 10.5h162.6c5.8 0 10.5-4.7 10.5-10.5V68.2c0-5.8-4.7-10.5-10.5-10.5H106z"/><path class="st3" d="M281 66.9H93c-4.7 0-8.5-3.8-8.5-8.5s3.8-8.5 8.5-8.5h188c4.7 0 8.5 3.8 8.5 8.5s-3.8 8.5-8.5 8.5z"/><circle class="st3" cx="187" cy="47" r="10.8"/><g><path class="st4" d="M191.6 102.7s-2.7-11-38.2 9c-35.6 19.9-46.1 24.9-46.3 28.3 2.7 2.2 13.4-2.3 52.1-15.1s32.4-22.2 32.4-22.2z"/><path class="st5" d="M170.5 118.8l-2.9-6c-.3-.5 0-1.2.5-1.4.5-.3 1.2 0 1.4.5l2.9 6c.3.5 0 1.2-.5 1.4-.5.3-1.2.1-1.4-.5zM175.1 111.5l-2.9-6c-.3-.5 0-1.2.5-1.4.5-.3 1.2 0 1.4.5l2.9 6c.3.5 0 1.2-.5 1.4-.5.3-1.1 0-1.4-.5zM161.5 113.4l-1.3-2.7c-.3-.5 0-1.2.5-1.4.5-.3 1.2 0 1.4.5l1.3 2.7c.3.5 0 1.2-.5 1.4-.5.2-1.1 0-1.4-.5zM152.1 123.5l-1.3-2.7c-.3-.5 0-1.2.5-1.4.5-.3 1.2 0 1.4.5l1.3 2.7c.3.5 0 1.2-.5 1.4-.5.3-1.2.1-1.4-.5zM147.3 122.5l-1.3-2.7c-.3-.5 0-1.2.5-1.4.5-.3 1.2 0 1.4.5l1.3 2.7c.3.5 0 1.2-.5 1.4-.6.3-1.2.1-1.4-.5zM127.3 132.9l-1.3-2.7c-.3-.5 0-1.2.5-1.4.5-.3 1.2 0 1.4.5l1.3 2.7c.3.5 0 1.2-.5 1.4-.5.3-1.2.1-1.4-.5z"/></g><g><path class="st6" d="M258.2 121.3s1.3-8.1-9.9-13.8c-11.2-5.8-24.6-1.6-26.6 6.2-2 7.8 9.3 16.6 17.8 16.9 8.5.3 15.7-.1 18.7-9.3z"/><circle class="st7" cx="229.9" cy="112.4" r="2.1"/><circle class="st7" cx="241.9" cy="126.5" r="2.1"/><circle class="st7" cx="234.7" cy="111.4" r="1.2"/><circle class="st7" cx="229.3" cy="118.6" r="1.2"/><circle class="st7" cx="249.8" cy="114.4" r="1.2"/><circle class="st7" cx="246.3" cy="122.6" r="1.2"/><circle class="st7" cx="251.8" cy="124.4" r="2.1"/></g><g><circle class="st8" cx="191.3" cy="160.2" r="38.2"/><path class="st9" d="M226.4 169.8s-.1 0-.1.1c-.3.1-.6-.1-.7-.4-5.2-16.7-17.8-26.7-37.4-29.8-14.7-2.3-28.1.4-28.2.5-.3.1-.6-.1-.7-.4-.1-.3.1-.6.4-.7.1 0 13.7-2.8 28.6-.5 19.9 3.1 33.1 13.6 38.4 30.6 0 .2-.1.4-.3.6z"/><path class="st9" d="M205.3 161.6c-.2.1-.5.1-.7-.1-5.5-5.4-4.2-18.5-4.1-19 0-.3.3-.5.6-.5s.5.3.5.6c0 .1-1.4 13 3.8 18.1.2.2.2.6 0 .8l-.1.1zM191.1 161.5c-.2.1-.4.1-.6 0-3.5-2.6-5.5-7.1-5.7-13.2-.2-4.5.7-8.3.7-8.4.1-.3.4-.5.7-.4.3.1.5.4.4.7 0 .1-3.3 14.8 4.6 20.5.3.2.3.5.1.8-.1-.1-.2-.1-.2 0zM171.8 159.5c-.2.1-.4.1-.6 0-3.8-2.5-5.5-6.9-4.8-12.8.5-4.4 2.1-8 2.1-8.1.1-.3.5-.4.8-.3.3.1.4.5.3.8-.1.1-6.1 14 2.2 19.5.3.2.3.5.2.8-.1 0-.1.1-.2.1zM203 136.5c-.2.1-.4.1-.6 0-1.5-.9-2.8-1.1-4-.7-2.5.9-3.8 4.3-3.8 4.3-.1.3-.4.4-.7.3-.3-.1-.4-.4-.3-.7.1-.2 1.5-3.9 4.5-5 1.6-.6 3.3-.3 5 .8.3.2.4.5.2.8-.1.1-.2.2-.3.2zM178.2 138.8c-.1.1-.2.1-.4.1-.3 0-.5-.3-.5-.6 0-.1.8-7.1 8.1-7.9.3 0 .6.2.6.5s-.2.6-.5.6c-6.4.7-7 6.6-7.1 6.8.1.2 0 .4-.2.5z"/><path class="st9" d="M196.8 158.8c-.1.1-.3.1-.4.1-.3-.1-.5-.4-.5-.7.9-4.7 4.8-5.7 4.9-5.8.3-.1.6.1.7.4.1.3-.1.6-.4.7-.1 0-3.4.9-4.1 4.9 0 .2-.1.3-.2.4zM208.2 151.9s-.1.1 0 0c-.3.2-.7 0-.8-.2-1.8-3.9-5.5-3-5.7-3-.3.1-.6-.1-.7-.4-.1-.3.1-.6.4-.7 0 0 4.8-1.2 7 3.6.1.3 0 .6-.2.7zM192.1 154.6c-.3.2-.7 0-.8-.2-.4-.9-1-1.4-1.8-1.6-1.6-.5-3.4.6-3.4.6-.3.2-.6.1-.8-.2-.2-.3-.1-.6.2-.8.1-.1 2.2-1.3 4.3-.7 1.1.3 1.9 1.1 2.5 2.2.1.2 0 .5-.2.7zM180 148.3c-.2.1-.4.1-.5 0-.3-.1-.4-.5-.3-.8 1.9-4.1 5.8-3.5 5.9-3.5.3.1.5.3.5.7-.1.3-.3.5-.7.5-.1 0-3.1-.4-4.7 2.9 0 .1-.1.2-.2.2zM195.2 137.7c-.2.1-.4.1-.5 0-.1 0-1.9-.9-2.3-2.6-.2-1 .1-2 1-3 .2-.2.6-.3.8-.1.2.2.3.6.1.8-.6.7-.9 1.4-.7 2 .2 1.1 1.7 1.8 1.7 1.8.3.1.4.5.3.8-.2.2-.3.3-.4.3zM165.3 159.8c-.1.1-.2.1-.3.1-.3 0-.6-.3-.6-.6.1-3.5 2.8-5.2 2.9-5.3.3-.2.6-.1.8.2.2.3.1.6-.2.8-.1.1-2.2 1.4-2.3 4.3 0 .2-.1.4-.3.5zM174.8 150.3c-.1 0-.1 0 0 0-.4.2-.7 0-.8-.3-1.7-4.6-6.5-3.1-6.7-3-.3.1-.6-.1-.7-.4s.1-.6.4-.7c.1 0 6.1-1.9 8.2 3.7-.1.2-.2.5-.4.7zM179.4 135.4c-.1.1-.3.1-.5.1-1.2-.4-3.4-1.7-3-4 .1-.3.3-.5.7-.5.3.1.5.3.5.7-.3 1.9 2.1 2.7 2.2 2.7.3.1.5.4.4.7-.1.2-.2.3-.3.3z"/><path class="st10" d="M216.3 122.9s-8.7 1.9-8.7 15.3c.1 13.4-16.3 32.7-16.3 32.7s-8.9 24.2 17.3 25.5c0 .1 44.8-28.5 7.7-73.5z"/><path class="st11" d="M226 176.2s-15.7-12-41.9-11.6-26-.7-33.8-3.5c0 0-6.4-4.6 4.5 16.8s48.9 40.9 71.2-1.7z"/><path class="st8" d="M215.6 190.9c-.1 0-.1.1-.2.1s-13.7 2.8-28.6.5c-19.9-3.1-33.1-13.6-38.4-30.6-.1-.3.1-.6.4-.7.3-.1.6.1.7.4 5.2 16.7 17.8 26.7 37.4 29.8 14.7 2.3 28.1-.4 28.2-.5.3-.1.6.1.7.4.1.2 0 .5-.2.6z"/><path class="st8" d="M174.3 187.9c-.1.1-.2.1-.4.1-.3 0-.5-.3-.5-.6 0-.1 1.4-13-3.8-18.1-.2-.2-.2-.6 0-.8.2-.2.6-.2.8 0 5.5 5.4 4.2 18.5 4.1 19 0 .2-.1.3-.2.4zM189.3 190.6c-.1.1-.3.1-.4.1-.3-.1-.5-.4-.4-.7 0-.1 3.3-14.8-4.6-20.5-.3-.2-.3-.5-.1-.8.2-.3.5-.3.8-.1 3.5 2.6 5.5 7.1 5.7 13.2.2 4.5-.7 8.3-.7 8.4 0 .2-.1.3-.3.4zM206.2 191.7c-.2.1-.4.1-.5 0-.3-.1-.4-.5-.3-.8.1-.1 6.1-14-2.2-19.5-.3-.2-.3-.5-.2-.8.2-.3.5-.3.8-.2 3.8 2.5 5.5 6.9 4.8 12.8-.5 4.4-2.1 8-2.1 8.1-.1.2-.2.3-.3.4zM178 194.7c-.3.2-.7.4-1 .5-1.6.6-3.3.3-5-.8-.3-.2-.4-.5-.2-.8.2-.3.5-.4.8-.2 1.5.9 2.8 1.1 4 .7 2.5-.9 3.8-4.3 3.8-4.3.1-.3.4-.4.7-.3.3.1.4.4.3.7.1.1-1 3.1-3.4 4.5zM193.5 198.4c-1 .6-2.3 1.1-3.9 1.3-.3 0-.6-.2-.6-.5s.2-.6.5-.6c6.4-.7 7-6.6 7.1-6.8 0-.3.3-.5.6-.5s.5.3.5.6c0-.1-.5 4.2-4.2 6.5z"/><path class="st8" d="M175.7 176.8c-.8.5-1.5.7-1.6.7-.3.1-.6-.1-.7-.4-.1-.3.1-.6.4-.7.1 0 3.4-.9 4.1-4.9.1-.3.4-.5.7-.5.3.1.5.4.5.7-.5 2.8-2.1 4.3-3.4 5.1zM173.8 182.3s-.1.1-.2.1c0 0-4.8 1.2-7-3.6-.1-.3 0-.6.3-.8.3-.1.6 0 .8.3 1.8 3.9 5.5 3 5.7 3 .3-.1.6.1.7.4 0 .2-.1.5-.3.6zM189.5 177.6c-.1.1-2.2 1.3-4.3.7-1.1-.3-1.9-1.1-2.5-2.2-.1-.3 0-.6.3-.8.3-.1.6 0 .8.3.4.9 1 1.4 1.8 1.6 1.6.5 3.4-.6 3.4-.6.3-.2.6-.1.8.2s0 .7-.3.8zM193.5 185.1c-1.7 1.1-3.5.8-3.5.8-.3-.1-.5-.3-.5-.7.1-.3.3-.5.7-.5.1 0 3.1.4 4.7-2.9.1-.3.5-.4.8-.3.3.1.4.5.3.8-.8 1.4-1.6 2.3-2.5 2.8zM181.6 197.9c-.2.1-.5.1-.7-.1-.2-.2-.3-.6-.1-.8.6-.7.9-1.4.7-2-.2-1.1-1.7-1.8-1.7-1.8-.3-.1-.4-.5-.3-.8.1-.3.5-.4.8-.3.1 0 1.9.9 2.3 2.6.2 1-.1 2-1 3 .1.1 0 .2 0 .2zM207.7 175.9c-.3.2-.6.1-.8-.2-.2-.3-.1-.6.2-.8.1-.1 2.2-1.4 2.3-4.3 0-.3.3-.6.6-.6s.6.3.6.6c-.2 3.6-2.8 5.3-2.9 5.3zM208.3 184s-.1 0-.1.1c-.1 0-6.1 1.9-8.2-3.7-.1-.3 0-.6.3-.7.3-.1.6 0 .7.3 1.7 4.6 6.5 3.1 6.7 3 .3-.1.6.1.7.4.2.2.1.5-.1.6zM198.9 198.8c-.1.1-.3.1-.4.1-.3-.1-.5-.3-.5-.7.3-1.9-2.2-2.7-2.2-2.7-.3-.1-.5-.4-.4-.7.1-.3.4-.5.7-.4 1.2.4 3.4 1.7 3 4 0 .2-.1.4-.2.4z"/></g><path class="st2" d="M114.6 118.6c-2.3 0-4.1-1.9-4.1-4.1V79.6c0-2.3 1.9-4.1 4.1-4.1 2.3 0 4.1 1.9 4.1 4.1v34.8c.1 2.3-1.8 4.2-4.1 4.2z"/><path class="st1" d="M207.2 244.2h-41.4c-1.8 0-3.2-1.5-3.2-3.2 0-1.8 1.5-3.2 3.2-3.2h41.4c1.8 0 3.2 1.5 3.2 3.2.1 1.7-1.4 3.2-3.2 3.2z"/><path class="st12" d="M186.2 221.4s-8.3 7.8 0 19.5c8.3-11.7 0-19.5 0-19.5z"/><path class="st12" d="M199.1 222.7s-10.6 4.2-7 18.2c12-7.9 7-18.2 7-18.2zM173.5 222.7s10.6 4.2 7 18.2c-12-7.9-7-18.2-7-18.2z"/></g></svg>