<svg xmlns="http://www.w3.org/2000/svg" viewBox="0 0 368 238"><style>.st0{fill:#BFF9AA;} .st1{fill:#A9E291;} .st2{fill:#80D15E;} .st3{fill:#98E080;} .st4{fill:#519E38;} .st5{fill:#F9A455;} .st6{fill:#A04D15;} .st7{fill:#F2D291;} .st8{fill:#DDB97A;} .st9{fill:#0E3656;} .st10{fill:#446666;} .st11{fill:#FFFFFF;}</style><g id="lupa"><circle class="st0" cx="186" cy="124.1" r="50.6"/><path class="st1" d="M232.5 136.7c-.1 0-.1.1-.2.1-.4.1-.8-.1-1-.5-6.9-22.2-23.6-35.4-49.6-39.5-19.5-3-37.3.6-37.4.6-.4.1-.8-.2-.9-.6-.1-.4.2-.8.6-.9.2 0 18.2-3.7 37.9-.6 26.3 4.1 43.9 18.1 50.9 40.5.1.4-.1.8-.3.9z"/><path class="st1" d="M204.5 125.9c-.3.2-.7.1-.9-.1-7.3-7.2-5.5-24.5-5.4-25.2 0-.4.4-.7.8-.7s.7.4.7.8c0 .2-1.8 17.3 5 24 .3.3.3.8 0 1.1-.1 0-.1.1-.2.1zM185.7 125.7c-.3.2-.6.2-.8 0-4.7-3.4-7.3-9.5-7.6-17.5-.2-6 .9-11 1-11.2.1-.4.5-.7.9-.6.4.1.7.5.6.9 0 .2-4.4 19.6 6 27.1.3.2.4.7.2 1.1-.2.1-.3.2-.3.2zM160.1 123.1c-.2.1-.6.2-.8 0-5-3.3-7.2-9.2-6.3-17 .7-5.8 2.8-10.5 2.8-10.7.2-.4.6-.6 1-.4.4.2.6.6.4 1-.1.2-8.1 18.6 2.9 25.9.4.2.4.7.2 1.1 0 0-.1.1-.2.1zM201.5 92.7c-.2.1-.5.2-.8 0-1.9-1.2-3.7-1.4-5.4-.9-3.4 1.2-5.1 5.7-5.1 5.7-.1.4-.6.6-1 .4-.4-.1-.6-.6-.4-1 .1-.2 2-5.2 6-6.6 2.1-.7 4.3-.4 6.6 1 .4.2.5.7.3 1 0 .2-.1.3-.2.4zM168.7 95.6c-.1.1-.3.1-.5.1-.4 0-.7-.4-.7-.8 0-.1 1-9.4 10.7-10.4.4 0 .8.3.8.7 0 .4-.3.8-.7.8-8.5.9-9.3 8.7-9.4 9.1.1.2 0 .4-.2.5z"/><path class="st1" d="M193.3 122.2c-.2.1-.3.1-.5.1-.4-.1-.7-.5-.6-.9 1.1-6.2 6.3-7.6 6.6-7.6.4-.1.8.1.9.6.1.4-.1.8-.5.9-.2.1-4.5 1.2-5.4 6.4l-.5.5zM208.3 113.1c-.5.2-.9.1-1.1-.3-2.4-5.1-7.3-4-7.5-3.9-.4.1-.8-.1-.9-.5-.1-.4.1-.8.5-.9.1 0 6.3-1.6 9.3 4.7.2.3.1.7-.3.9zM187 116.6c-.4.2-.9.1-1.1-.3-.6-1.2-1.3-1.9-2.3-2.1-2.1-.6-4.5.8-4.5.8-.4.2-.8.1-1-.3-.2-.4-.1-.8.3-1 .1-.1 3-1.8 5.7-1 1.4.4 2.5 1.4 3.3 2.9.1.3 0 .8-.4 1zM171 108.3c-.2.1-.5.2-.7 0-.4-.2-.5-.6-.4-1 2.5-5.4 7.7-4.7 7.8-4.7.4.1.7.5.6.9-.1.4-.5.7-.9.6-.2 0-4.1-.6-6.2 3.8 0 .2-.1.3-.2.4zM191.1 94.3c-.2.1-.5.2-.7 0-.1 0-2.6-1.2-3.1-3.4-.3-1.3.2-2.6 1.3-4 .3-.3.8-.4 1.1-.1.3.3.4.8.1 1.1-.8 1-1.1 1.8-1 2.6.3 1.5 2.2 2.3 2.2 2.3.4.2.6.6.4 1 0 .3-.1.4-.3.5zM151.6 123.5c-.1.1-.3.1-.4.1-.4 0-.7-.4-.7-.8.2-4.7 3.7-6.9 3.8-7 .3-.2.8-.1 1 .3.2.4.1.8-.3 1-.1.1-3 1.9-3.1 5.7 0 .4-.1.6-.3.7zM164.1 110.9s-.1 0-.1.1c-.4.1-.8-.1-1-.4-2.3-6.1-8.7-4.1-8.9-4-.4.1-.8-.1-1-.5-.1-.4.1-.8.5-1 .1 0 8-2.5 10.8 4.9.1.3 0 .7-.3.9zM170.2 91.2c-.2.1-.4.1-.6.1-1.6-.5-4.5-2.2-4-5.3.1-.4.5-.7.9-.6.4.1.7.5.6.9-.4 2.5 2.8 3.5 3 3.6.4.1.6.5.5 1-.1.1-.3.2-.4.3z"/><path class="st2" d="M219.1 74.6s-11.5 2.5-11.5 20.3-21.6 43.5-21.6 43.5-11.8 32.1 22.9 33.8c0 0 59.4-37.9 10.2-97.6z"/><path class="st3" d="M232 145.3s-20.8-15.9-55.6-15.4-34.4-.9-44.8-4.7c0 0-8.5-6.2 6 22.2s64.8 54.3 94.4-2.1z"/><path class="st0" d="M218.2 164.7c-.1 0-.2.1-.2.1-.2 0-18.2 3.7-37.9.6-26.3-4.1-43.9-18.1-50.9-40.5-.1-.4.1-.8.5-1 .4-.1.8.1 1 .5 6.9 22.2 23.6 35.4 49.6 39.5 19.5 3 37.3-.6 37.4-.6.4-.1.8.2.9.6 0 .3-.1.6-.4.8z"/><path class="st0" d="M163.4 160.8c-.1.1-.3.1-.5.1-.4 0-.7-.4-.7-.8 0-.2 1.8-17.3-5-24-.3-.3-.3-.8 0-1.1.3-.3.8-.3 1.1 0 7.3 7.2 5.5 24.5 5.4 25.2.1.3-.1.5-.3.6zM183.4 164.3c-.2.1-.4.1-.6.1-.4-.1-.7-.5-.6-.9 0-.2 4.4-19.6-6-27.1-.3-.2-.4-.7-.2-1.1.2-.3.7-.4 1.1-.2 4.7 3.4 7.3 9.5 7.6 17.5.2 6-.9 11-1 11.2 0 .2-.1.4-.3.5zM205.8 165.8c-.2.1-.5.2-.7 0-.4-.2-.6-.6-.4-1 .1-.2 8.1-18.6-2.9-25.9-.4-.2-.4-.7-.2-1.1.2-.4.7-.4 1.1-.2 5 3.3 7.2 9.2 6.3 17-.7 5.8-2.8 10.5-2.8 10.7-.2.3-.3.4-.4.5zM168.4 169.8c-.4.3-.9.5-1.3.6-2.1.7-4.3.4-6.6-1-.4-.2-.5-.7-.3-1 .2-.4.7-.5 1-.3 1.9 1.2 3.7 1.4 5.4.9 3.4-1.2 5.1-5.7 5.1-5.7.1-.4.6-.6 1-.4.4.1.6.6.4 1-.1.1-1.6 4-4.7 5.9zM188.9 174.6c-1.4.8-3.1 1.4-5.2 1.7-.4 0-.8-.3-.8-.7 0-.4.3-.8.7-.8 8.5-.9 9.3-8.7 9.4-9.1 0-.4.4-.7.8-.7s.7.4.7.8c-.1.1-.7 5.8-5.6 8.8z"/><path class="st0" d="M165.3 146.1c-1.1.7-2 .9-2.1.9-.4.1-.8-.1-.9-.6-.1-.4.1-.8.5-.9.2-.1 4.5-1.2 5.4-6.4.1-.4.5-.7.9-.6.4.1.7.5.6.9-.6 3.7-2.7 5.6-4.4 6.7zM162.8 153.3c-.1 0-.1.1-.2.1s-6.3 1.6-9.3-4.7c-.2-.4 0-.8.4-1 .4-.2.8 0 1 .4 2.4 5.1 7.3 4 7.5 3.9.4-.1.8.1.9.5.1.3 0 .7-.3.8zM183.6 147.2c-.1.1-3 1.8-5.7 1-1.4-.4-2.5-1.4-3.3-2.9-.2-.4 0-.8.3-1 .4-.2.8 0 1 .3.6 1.2 1.3 1.9 2.3 2.1 2.1.6 4.4-.8 4.5-.8.4-.2.8-.1 1 .3.3.3.2.7-.1 1zM188.9 157.1c-2.3 1.4-4.6 1.1-4.7 1-.4-.1-.7-.5-.6-.9.1-.4.5-.7.9-.6.2 0 4.1.6 6.2-3.8.2-.4.6-.5 1-.4.4.2.5.6.4 1-.9 1.9-2.1 3-3.2 3.7zM173.1 174c-.3.2-.6.1-.9-.1-.3-.3-.4-.8-.1-1.1.8-1 1.1-1.8 1-2.6-.3-1.5-2.2-2.3-2.2-2.3-.4-.2-.6-.6-.4-1 .2-.4.6-.6 1-.4.1 0 2.6 1.2 3.1 3.4.3 1.3-.2 2.6-1.3 4-.1 0-.1.1-.2.1zM207.7 144.9c-.4.2-.8.1-1-.3-.2-.4-.1-.8.3-1 .1-.1 3-1.9 3.1-5.7 0-.4.4-.7.8-.7s.7.4.7.8c-.2 4.6-3.8 6.8-3.9 6.9zM208.5 155.6s-.1.1-.2.1-8 2.5-10.8-4.9c-.1-.4 0-.8.4-1 .4-.1.8.1 1 .4 2.3 6.1 8.7 4.1 8.9 4 .4-.1.8.1 1 .5.2.4 0 .8-.3.9zM196 175.3c-.2.1-.3.1-.5.1-.4-.1-.7-.5-.6-.9.4-2.5-2.9-3.6-3-3.6-.4-.1-.6-.5-.5-.9.1-.4.5-.6 1-.5 1.6.5 4.5 2.2 4 5.3-.1.2-.2.4-.4.5z"/><g><path class="st4" d="M166.7 50.3s-4.7-14.2-49.5 16c-44.8 30.3-58.2 38-58 42.5 3.8 2.6 17.5-4.5 67.2-25.7s40.3-32.8 40.3-32.8z"/><path class="st5" d="M168.6 43.2s-4.7-14.2-49.5 16c-44.8 30.3-58.2 38-58 42.5 3.8 2.6 17.5-4.5 67.2-25.7 49.7-21.1 40.3-32.8 40.3-32.8z"/><path class="st6" d="M142.6 67.1l-4.8-8.3c-.3-.5-.1-1.2.4-1.5l.6-.3c.5-.3 1.2-.1 1.5.4l4.8 8.3c.3.5.1 1.2-.4 1.5l-.6.3c-.5.3-1.2.1-1.5-.4zM148 56.9l-4.8-8.3c-.3-.5-.1-1.2.4-1.5l.6-.3c.5-.3 1.2-.1 1.5.4l4.8 8.3c.3.5.1 1.2-.4 1.5l-.6.3c-.6.3-1.2.1-1.5-.4zM130.2 60.9l-2.3-4c-.3-.5-.1-1.2.4-1.5l.6-.3c.5-.3 1.2-.1 1.5.4l2.3 4c.3.5.1 1.2-.4 1.5l-.6.3c-.5.3-1.2.1-1.5-.4zM118.8 75.3l-2.3-4c-.3-.5-.1-1.2.4-1.5l.6-.3c.5-.3 1.2-.1 1.5.4l2.3 4c.3.5.1 1.2-.4 1.5l-.6.3c-.5.3-1.2.1-1.5-.4zM112.4 74.6l-2.3-4c-.3-.5-.1-1.2.4-1.5l.6-.3c.5-.3 1.2-.1 1.5.4l2.3 4c.3.5.1 1.2-.4 1.5l-.6.3c-.6.3-1.2.1-1.5-.4zM87.1 90.5l-2.3-4c-.3-.5-.1-1.2.4-1.5l.6-.3c.5-.3 1.2-.1 1.5.4l2.3 4c.3.5.1 1.2-.4 1.5l-.6.3c-.5.3-1.2.1-1.5-.4z"/></g><g><path class="st4" d="M263 48.4s-4.9-9.6-21.5-6.9C225 44.2 214.1 59.2 218 69.1s23 10.3 32.4 3.9c9.4-6.4 16.8-12.5 12.6-24.6z"/><path class="st7" d="M258.8 44.2s-4.9-9.6-21.5-6.9-27.4 17.7-23.5 27.6 23 10.3 32.4 3.9 16.8-12.5 12.6-24.6z"/><circle class="st8" cx="221.6" cy="57.1" r="2.7"/><circle class="st8" cx="245.6" cy="62.5" r="2.7"/><circle class="st8" cx="225.9" cy="52.2" r="1.6"/><circle class="st8" cx="225.9" cy="64.1" r="1.6"/><circle class="st8" cx="244.4" cy="43.4" r="1.6"/><circle class="st8" cx="247.2" cy="54.9" r="1.6"/><circle class="st8" cx="254.5" cy="52.6" r="2.8"/></g><g><path class="st9" d="M263.6 95.2c-12.8-12.8-33.7-12.8-46.5 0-12.8 12.8-12.8 33.7 0 46.5 12.8 12.8 33.7 12.8 46.5 0 12.8-12.8 12.8-33.6 0-46.5zm-5.8 40.7c-4.7 4.7-10.9 7.2-17.4 7.2-6.6 0-12.8-2.6-17.4-7.2-4.7-4.7-7.2-10.9-7.2-17.4 0-6.6 2.6-12.8 7.2-17.4 4.7-4.7 10.9-7.2 17.4-7.2 6.6 0 12.8 2.6 17.4 7.2 4.7 4.7 7.2 10.9 7.2 17.4 0 6.6-2.6 12.8-7.2 17.4z"/><path class="st10" d="M260.668 144.627l5.798-5.798 23.263 23.263-5.8 5.798z"/><path class="st9" d="M265.543 155.358l11.597-11.597 31.042 31.043-11.597 11.597z"/><path class="st11" d="M233.5 131.1c-1.6 1.6-4.2 1.6-5.8 0-3.4-3.4-5.2-7.8-5.2-12.6s1.9-9.2 5.2-12.6c1.6-1.6 4.2-1.6 5.8 0 1.6 1.6 1.6 4.2 0 5.8-1.8 1.8-2.8 4.2-2.8 6.8 0 2.6 1 5 2.8 6.8 1.7 1.6 1.7 4.2 0 5.8z"/></g></g></svg>