<svg xmlns="http://www.w3.org/2000/svg" viewBox="0 0 311 218"><style>.st0{fill:#519E38;} .st1{fill:#D1C97D;} .st2{fill:#DDD9A8;} .st3{fill:#F7F3A4;} .st4{fill:#D98A5A;} .st5{fill:#40AE77;} .st6{fill:#FFFFFF;} .st7{fill:url(#SVGID_1_);} .st8{fill:url(#SVGID_2_);} .st9{fill:url(#SVGID_3_);} .st10{fill:url(#SVGID_4_);} .st11{fill:url(#SVGID_5_);}</style><g id="kotlety"><path class="st0" d="M116.5 72.9c-.3-9.2-13.5-16.7-29.7-16.7-16.3 0-29.5 7.4-29.7 16.7V83c.6 9.1 13.7 16.3 29.7 16.3s29.1-7.2 29.7-16.3V72.9zM194.6 72.9c-.3-9.2-13.5-16.7-29.7-16.7-16.3 0-29.5 7.4-29.7 16.7V83c.6 9.1 13.7 16.3 29.7 16.3S194 92.1 194.6 83V72.9zM269.9 72.9c-.3-9.2-13.5-16.7-29.7-16.7-16.3 0-29.5 7.4-29.7 16.7V83c.6 9.1 13.7 16.3 29.7 16.3s29.1-7.2 29.7-16.3V72.9zM116.5 139.1c-.3-9.2-13.5-16.7-29.7-16.7-16.3 0-29.5 7.4-29.7 16.7v10.1c.6 9.1 13.7 16.3 29.7 16.3s29.1-7.2 29.7-16.3v-10.1zM194.6 139.1c-.3-9.2-13.5-16.7-29.7-16.7-16.3 0-29.5 7.4-29.7 16.7v10.1c.6 9.1 13.7 16.3 29.7 16.3s29.1-7.2 29.7-16.3v-10.1zM269.9 139.1c-.3-9.2-13.5-16.7-29.7-16.7-16.3 0-29.5 7.4-29.7 16.7v10.1c.6 9.1 13.7 16.3 29.7 16.3s29.1-7.2 29.7-16.3v-10.1z"/><ellipse class="st1" cx="81.5" cy="144" rx="29.7" ry="17"/><path class="st1" d="M51.7 134.5h59.5v10.1H51.7z"/><ellipse class="st2" cx="81.5" cy="134.8" rx="29.7" ry="17"/><ellipse class="st1" cx="160.5" cy="144" rx="29.7" ry="17"/><path class="st1" d="M130.7 134.5h59.5v10.1h-59.5z"/><ellipse class="st2" cx="160.5" cy="134.8" rx="29.7" ry="17"/><ellipse class="st1" cx="234.6" cy="144" rx="29.7" ry="17"/><path class="st1" d="M204.9 134.5h59.5v10.1h-59.5z"/><ellipse class="st2" cx="234.6" cy="134.8" rx="29.7" ry="17"/><ellipse class="st1" cx="81.5" cy="77.8" rx="29.7" ry="17"/><path class="st1" d="M51.7 68.3h59.5v10.1H51.7z"/><ellipse class="st2" cx="81.5" cy="68.6" rx="29.7" ry="17"/><ellipse class="st1" cx="160.5" cy="77.8" rx="29.7" ry="17"/><path class="st1" d="M130.7 68.3h59.5v10.1h-59.5z"/><ellipse class="st2" cx="160.5" cy="68.6" rx="29.7" ry="17"/><ellipse class="st1" cx="234.6" cy="77.8" rx="29.7" ry="17"/><path class="st1" d="M204.9 68.3h59.5v10.1h-59.5z"/><ellipse class="st2" cx="234.6" cy="68.6" rx="29.7" ry="17"/><path class="st3" d="M234.6 55.4l6.8 6-10.7 4.8zM64.3 58.4l6.8 6-10.7 4.8zM81.2 67.6L76.3 60 88 58.2zM150.8 58.4l6.8 6-10.7 4.8zM175.3 67.4l6.8 6-10.7 4.8z"/><path class="st4" d="M218.9 72.8l1.1-9 10 6.1zM150.4 77.3l1.1-9 10 6.1zM90.7 77.3l1-9 10.1 6.1z"/><path class="st5" d="M246.4 62.6l8 4.3-9.3 7.1zM166.1 57.8l8 4.3-9.3 7.1z"/><path class="st3" d="M94.1 144.4l-6.8-5.9 10.7-4.9zM69.6 135.4l-6.8-6 10.7-4.8z"/><path class="st4" d="M94.4 125.5l-1 9-10.1-6z"/><path class="st5" d="M78.8 145l-8.1-4.2 9.4-7.2zM73.4 67.7l8.1 4.2-9.4 7.2z"/><path class="st3" d="M251.4 145.7l-6.8-6 10.7-4.8zM234.5 136.5l4.9 7.6-11.7 1.7z"/><path class="st4" d="M225 126.8l-1 9-10.1-6.1z"/><path class="st5" d="M242.3 136.4l-8.1-4.2 9.4-7.2zM238.9 75.2l-4.8 7.7-6.5-9.7z"/><path class="st3" d="M162.3 148.5l-6.8-6 10.7-4.8z"/><path class="st4" d="M178 131.1l-1 9-10.1-6.1z"/><path class="st5" d="M150.5 141.3l-8-4.3 9.3-7.2zM158 128.7l4.8-7.7 6.6 9.7z"/></g><g id="snow"><circle class="st6" cx="267.7" cy="70.5" r="1.5"/><linearGradient id="SVGID_1_" gradientUnits="userSpaceOnUse" x1="242.199" y1="29.971" x2="258.187" y2="75.269"><stop offset="0" stop-color="#404B71"/><stop offset=".604" stop-color="#3C476E"/><stop offset="1" stop-color="#354169"/></linearGradient><path class="st7" d="M245.8 70.9l-1.7-6.4 1.6-2.7.2.8c.2.8 1.1 1.3 1.9 1.1.1 0 .3-.1.4-.2.6-.3.9-1.1.7-1.8l-1-3.9 1.9-3.3 1.9 3.3-1 3.9c-.2.8.3 1.7 1.1 1.9.4.1.9 0 1.2-.2.4-.2.6-.5.7-1l.2-.8 1.6 2.7-1.7 6.4c-.2.8.3 1.7 1.1 1.9.4.1.9 0 1.2-.2.4-.2.6-.5.7-1l.9-3.3 2.5 4.4c.4.8 1.4 1 2.2.6.8-.4 1-1.4.6-2.2l-2.5-4.4 3.3.9c.4.1.9 0 1.2-.2.4-.2.6-.5.7-1 .2-.8-.3-1.7-1.1-1.9l-6.4-1.7-1.6-2.7.8.2c.4.1.9 0 1.2-.2.4-.2.6-.5.7-1 .2-.8-.3-1.7-1.1-1.9l-3.8-1-1.9-3.3h3.8l2.8 2.8c.5.5 1.3.6 1.9.3l.3-.3c.6-.6.6-1.6 0-2.2l-.6-.6h3.1l4.7 4.7c.5.5 1.3.6 1.9.3l.3-.3c.6-.6.6-1.6 0-2.2l-2.4-2.4h5c.3 0 .6-.1.8-.2.5-.3.8-.8.8-1.4 0-.9-.7-1.6-1.6-1.6h-5l2.4-2.4c.6-.6.6-1.6 0-2.2-.6-.6-1.6-.6-2.2 0l-4.7 4.7h-3.1l.6-.6c.6-.6.6-1.6 0-2.2-.6-.6-1.6-.6-2.2 0l-2.8 2.8h-3.8l1.9-3.3 3.9-1c.1 0 .3-.1.4-.2.6-.3.9-1.1.7-1.8-.2-.8-1.1-1.3-1.9-1.1l-.8.2 1.6-2.7 6.4-1.7c.1 0 .3-.1.4-.2.6-.4.9-1.1.7-1.8-.2-.8-1.1-1.3-1.9-1.1l-3.3.9 2.5-4.4c.4-.8.2-1.7-.6-2.2-.8-.4-1.7-.2-2.2.6l-2.5 4.4-.9-3.3c-.2-.8-1.1-1.3-1.9-1.1-.8.2-1.4 1.1-1.1 1.9l1.7 6.4-1.6 2.7-.2-.8c-.2-.8-1.1-1.3-1.9-1.1-.8.2-1.3 1.1-1.1 1.9l1 3.9-1.9 3.3-1.9-3.3 1-3.9c.2-.8-.3-1.7-1.1-1.9-.8-.2-1.7.3-1.9 1.1l-.2.8-1.6-2.7 1.7-6.4c.2-.8-.3-1.7-1.1-1.9-.8-.2-1.7.3-1.9 1.1l-.9 3.3-2.5-4.4c-.4-.8-1.4-1-2.2-.6-.8.4-1 1.4-.6 2.2l2.5 4.4-3.3-.9c-.8-.2-1.7.3-1.9 1.1-.2.8.3 1.7 1.1 1.9l6.4 1.7 1.6 2.7-.8-.2c-.8-.2-1.7.3-1.9 1.1-.2.8.3 1.7 1.1 1.9l3.8 1 1.9 3.3h-3.8l-2.8-2.8c-.6-.6-1.6-.6-2.2 0-.6.6-.6 1.6 0 2.2l.6.6h-3.1l-4.7-4.7c-.6-.6-1.6-.6-2.2 0-.6.6-.6 1.6 0 2.2l2.4 2.4h-5c-.9 0-1.6.7-1.6 1.6 0 .9.7 1.6 1.6 1.6h5L229 55c-.6.6-.6 1.6 0 2.2.5.5 1.3.6 1.9.3l.3-.3 4.7-4.7h3.1l-.6.6c-.6.6-.6 1.6 0 2.2.5.5 1.3.6 1.9.3l.3-.3 2.8-2.8h3.8l-1.9 3.3-3.9 1c-.8.2-1.3 1.1-1.1 1.9.2.8 1.1 1.3 1.9 1.1l.8-.2-1.6 2.7L235 64c-.8.2-1.3 1.1-1.1 1.9.2.8 1.1 1.3 1.9 1.1l3.3-.9-2.5 4.4c-.4.8-.2 1.7.6 2.2.5.3 1.1.3 1.6 0 .2-.1.4-.3.6-.6l2.5-4.4.9 3.3c.2.8 1.1 1.3 1.9 1.1.1 0 .3-.1.4-.2.5.5.9-.3.7-1z"/><linearGradient id="SVGID_2_" gradientUnits="userSpaceOnUse" x1="123.582" y1="93.79" x2="128.416" y2="107.485"><stop offset="0" stop-color="#404B71"/><stop offset=".604" stop-color="#3C476E"/><stop offset="1" stop-color="#354169"/></linearGradient><path class="st8" d="M124.7 106.2l-.5-1.9.5-.8.1.2c.1.3.3.4.6.3h.1c.2-.1.3-.3.2-.5l-.3-1.2.6-1 .6 1-.3 1.2c-.1.3.1.5.3.6h.4c.1-.1.2-.2.2-.3l.1-.2.5.8-.5 1.9c-.1.3.1.5.3.6h.4c.1-.1.2-.2.2-.3l.3-1 .8 1.3c.1.2.4.3.7.2.2-.1.3-.4.2-.7l-.8-1.3 1 .3h.4c.1-.1.2-.2.2-.3.1-.3-.1-.5-.3-.6l-1.9-.5-.5-.8.2.1h.4c.1-.1.2-.2.2-.3.1-.3-.1-.5-.3-.6l-1.2-.3-.6-1h1.2l.9.9c.2.2.4.2.6.1 0 0 .1 0 .1-.1.2-.2.2-.5 0-.7l-.2-.2h.9l1.4 1.4c.2.2.4.2.6.1 0 0 .1 0 .1-.1.2-.2.2-.5 0-.7l-.7-.7h1.5c.1 0 .2 0 .2-.1.1-.1.2-.2.2-.4 0-.3-.2-.5-.5-.5h-1.5l.7-.7c.2-.2.2-.5 0-.7-.2-.2-.5-.2-.7 0l-1.4 1.4h-.9l.2-.2c.2-.2.2-.5 0-.7-.2-.2-.5-.2-.7 0l-.9.9h-1.2l.6-1 1.2-.3h.1c.2-.1.3-.3.2-.5-.1-.3-.3-.4-.6-.3l-.2.1.5-.8 1.9-.5h.1c.2-.1.3-.3.2-.5-.1-.3-.3-.4-.6-.3l-1 .3.8-1.3c.1-.2.1-.5-.2-.7-.2-.1-.5-.1-.7.2l-.8 1.3-.3-1c-.1-.3-.3-.4-.6-.3-.3.1-.4.3-.3.6l.5 1.9-.5.8-.1-.2c-.1-.3-.3-.4-.6-.3-.3.1-.4.3-.3.6l.3 1.2-.6 1-.6-1 .3-1.2c.1-.3-.1-.5-.3-.6-.3-.1-.5.1-.6.3l-.1.2-.5-.8.5-1.9c.1-.3-.1-.5-.3-.6-.3-.1-.5.1-.6.3l-.3 1-.8-1.3c-.1-.2-.4-.3-.7-.2-.2.1-.3.4-.2.7l.8 1.3-1-.3c-.3-.1-.5.1-.6.3-.1.3.1.5.3.6l1.9.5.5.8-.2-.1c-.3-.1-.5.1-.6.3-.1.3.1.5.3.6l1.2.3.6 1h-1.2L123 99c-.2-.2-.5-.2-.7 0-.2.2-.2.5 0 .7l.2.2h-.9l-1.4-1.4c-.2-.2-.5-.2-.7 0-.2.2-.2.5 0 .7l.7.7h-1.5c-.3 0-.5.2-.5.5s.2.5.5.5h1.5l-.7.7c-.2.2-.2.5 0 .7.2.2.4.2.6.1 0 0 .1 0 .1-.1l1.4-1.4h.9l-.2.2c-.2.2-.2.5 0 .7.2.2.4.2.6.1 0 0 .1 0 .1-.1l.9-.9h1.2l-.6 1-1.2.3c-.3.1-.4.3-.3.6.1.3.3.4.6.3l.2-.1-.5.8-1.9.5c-.3.1-.4.3-.3.6.1.3.3.4.6.3l1-.3-.8 1.3c-.1.2-.1.5.2.7.2.1.3.1.5 0 .1 0 .1-.1.2-.2l.8-1.3.3 1c.1.3.3.4.6.3h.1c0-.1.1-.3.1-.5z"/><linearGradient id="SVGID_3_" gradientUnits="userSpaceOnUse" x1="58.692" y1="118.35" x2="69.112" y2="147.874"><stop offset="0" stop-color="#404B71"/><stop offset=".604" stop-color="#3C476E"/><stop offset="1" stop-color="#354169"/></linearGradient><path class="st9" d="M61 145l-1.1-4.2 1-1.8.1.5c.1.6.7.9 1.3.7.1 0 .2-.1.2-.1.4-.2.6-.7.5-1.2l-.7-2.5 1.2-2.2 1.2 2.2-.7 2.5c-.1.6.2 1.1.7 1.3.3.1.6 0 .8-.1.2-.1.4-.4.5-.6l.1-.5 1 1.8L66 145c-.1.6.2 1.1.7 1.3.3.1.6 0 .8-.1.2-.1.4-.4.5-.6l.6-2.2 1.6 2.8c.3.5.9.7 1.4.4.5-.3.7-.9.4-1.4l-1.6-2.8 2.2.6c.3.1.6 0 .8-.1.2-.1.4-.4.5-.6.1-.6-.2-1.1-.7-1.3l-4.2-1.1-1-1.8.5.1c.3.1.6 0 .8-.1.2-.1.4-.4.5-.6.1-.6-.2-1.1-.7-1.3l-2.5-.7-1.2-2.2h2.5l1.8 1.8c.3.3.9.4 1.2.2.1 0 .1-.1.2-.2.4-.4.4-1.1 0-1.5l-.4-.4h2l3 3c.3.3.9.4 1.2.2.1 0 .1-.1.2-.2.4-.4.4-1.1 0-1.5l-1.6-1.6h3.3c.2 0 .4 0 .5-.1.3-.2.5-.5.5-.9 0-.6-.5-1-1-1h-3.3l1.6-1.6c.4-.4.4-1.1 0-1.5-.4-.4-1.1-.4-1.5 0l-3 3h-2l.4-.4c.4-.4.4-1.1 0-1.5-.4-.4-1.1-.4-1.5 0l-1.8 1.8h-2.5l1.2-2.2 2.5-.7c.1 0 .2-.1.2-.1.4-.2.6-.7.5-1.2-.1-.6-.7-.9-1.3-.7l-.5.1 1-1.8 4.2-1.1c.1 0 .2-.1.2-.1.4-.2.6-.7.5-1.2-.1-.6-.7-.9-1.3-.7l-2.2.6 1.6-2.8c.3-.5.1-1.1-.4-1.4-.5-.3-1.1-.1-1.4.4l-1.6 2.8-.6-2.2c-.1-.6-.7-.9-1.3-.7-.5.1-.9.7-.7 1.3l1.1 4.2-1 1.8-.1-.5c-.1-.6-.7-.9-1.3-.7-.6.2-.9.7-.7 1.3l.7 2.5-1.2 2.2-1.2-2.2.7-2.5c.1-.6-.2-1.1-.7-1.3-.6-.1-1.1.2-1.3.7l-.1.5-1-1.8 1.1-4.2c.1-.6-.2-1.1-.7-1.3-.6-.1-1.1.2-1.3.7l-.6 2.2-1.6-2.8c-.3-.5-.9-.7-1.4-.4-.5.3-.7.9-.4 1.4l1.6 2.8-2.2-.6c-.6-.1-1.1.2-1.3.7-.1.6.2 1.1.7 1.3l4.2 1.1 1 1.8-.5-.1c-.6-.1-1.1.2-1.3.7-.1.6.2 1.1.7 1.3l2.5.7 1.2 2.2h-2.5l-1.8-1.8c-.4-.4-1.1-.4-1.5 0-.4.4-.4 1.1 0 1.5l.4.4h-2l-3-3c-.4-.4-1.1-.4-1.5 0-.4.4-.4 1.1 0 1.5l1.6 1.6h-3.3c-.6 0-1 .5-1 1 0 .6.5 1 1 1h3.3l-1.6 1.6c-.4.4-.4 1.1 0 1.5.3.3.9.4 1.2.2.1 0 .1-.1.2-.2l3-3h2l-.4.4c-.4.4-.4 1.1 0 1.5.3.3.9.4 1.2.2.1 0 .2-.1.2-.2l1.8-1.8h2.5l-1.2 2.2-2.5.7c-.5.2-.9.7-.7 1.3.1.6.7.9 1.3.7l.5-.1-1 1.8L54 141c-.5.2-.9.7-.7 1.3.1.6.7.9 1.3.7l2.2-.6-1.6 2.8c-.3.5-.1 1.1.4 1.4.3.2.7.2 1 0 .2-.1.3-.2.4-.4l1.6-2.8.6 2.2c.1.6.7.9 1.3.7.1 0 .2-.1.3-.1.1-.2.3-.7.2-1.2z"/><linearGradient id="SVGID_4_" gradientUnits="userSpaceOnUse" x1="175.741" y1="120.743" x2="204.839" y2="188.845"><stop offset="0" stop-color="#404B71"/><stop offset=".604" stop-color="#3C476E"/><stop offset="1" stop-color="#354169"/></linearGradient><path class="st10" d="M223.2 151.3h-6.3l3-3c.8-.8.8-2 0-2.8-.8-.8-2-.8-2.8 0l-5.9 5.9h-3.9l1.7-1.7c.8-.8.8-2 0-2.8-.8-.8-2-.8-2.8 0l-4.6 4.6h-3.8l.1-.1c.8-.8.8-2 .1-2.7-.3-1-1.4-1.6-2.4-1.3h-.2l1.9-3.3 6.2-1.7c.2 0 .3-.1.5-.2.8-.4 1.2-1.4.9-2.2-.3-1.1-1.4-1.7-2.4-1.4l-2.4.6 2-3.4 8-2.1c.2 0 .3-.1.5-.2.8-.4 1.2-1.4.9-2.2-.3-1.1-1.4-1.7-2.4-1.4l-4.2 1.1 3.2-5.5c.6-1 .2-2.2-.7-2.7-1-.5-2.2-.2-2.7.7l-3.2 5.5-1.1-4.2c-.3-1.1-1.4-1.7-2.4-1.4-1.1.3-1.7 1.4-1.4 2.4l2.1 8-2 3.4-.6-2.4c-.3-1.1-1.4-1.7-2.4-1.4-1.1.3-1.7 1.4-1.4 2.4l1.7 6.2-1.9 3.3v-.2c-.3-1-1.3-1.7-2.4-1.4-1-.2-2.1.4-2.3 1.4v.2l-1.9-3.3 1.7-6.2c.3-1.1-.3-2.2-1.4-2.4-1.1-.3-2.2.3-2.4 1.4l-.6 2.4-2-3.4 2.1-8c.3-1.1-.3-2.2-1.4-2.4-1.1-.3-2.2.3-2.4 1.4L178 129l-3.2-5.5c-.5-1-1.8-1.3-2.7-.7-1 .5-1.3 1.8-.7 2.7l3.2 5.5-4.2-1.1c-1.1-.3-2.2.3-2.4 1.4-.3 1.1.3 2.2 1.4 2.4l8 2.1 2 3.4-2.4-.6c-1.1-.3-2.2.3-2.4 1.4-.3 1.1.3 2.2 1.4 2.4l6.2 1.7 1.9 3.3h-.2c-1-.3-2 .3-2.4 1.3-.8.8-.8 2 0 2.8l.1.1h-3.8l-4.6-4.6c-.8-.8-2-.8-2.8 0-.8.8-.8 2 0 2.8l1.7 1.7h-3.9l-5.9-5.9c-.8-.8-2-.8-2.8 0-.8.8-.8 2 0 2.8l3 3H156c-1.1 0-2 .9-2 2s.9 2 2 2h6.3l-3 3c-.8.8-.8 2 0 2.8.7.7 1.6.8 2.4.3.1-.1.3-.2.4-.3l5.9-5.9h3.9l-1.7 1.7c-.8.8-.8 2 0 2.8.7.7 1.6.8 2.4.3.1-.1.3-.2.4-.3l4.6-4.6h3.8l-.1.1c-.8.8-.8 2-.1 2.7.3 1 1.4 1.6 2.4 1.3h.2l-1.9 3.3-6.2 1.7c-1.1.3-1.7 1.4-1.4 2.4.3 1.1 1.4 1.7 2.4 1.4l2.4-.6-2 3.4-8 2.1c-1.1.3-1.7 1.4-1.4 2.4.3 1.1 1.4 1.7 2.4 1.4l4.2-1.1-3.2 5.5c-.5 1-.2 2.2.7 2.7.6.4 1.4.3 2 0 .3-.2.5-.4.7-.7l3.2-5.5 1.1 4.2c.3 1.1 1.4 1.7 2.4 1.4.2 0 .3-.1.5-.2.8-.4 1.2-1.3.9-2.2l-2.1-8 2-3.4.6 2.4c.3 1.1 1.4 1.7 2.4 1.4.2 0 .3-.1.5-.2.8-.4 1.2-1.3.9-2.2l-1.7-6.2 1.9-3.3v.2c.3 1 1.3 1.7 2.4 1.4.5.1 1 0 1.4-.2.4-.3.8-.7.9-1.2v-.2l1.9 3.3-1.7 6.2c-.3 1.1.3 2.2 1.4 2.4.5.1 1.1.1 1.5-.2.4-.3.8-.7.9-1.2l.6-2.4 2 3.4-2.1 8c-.3 1.1.3 2.2 1.4 2.4.5.1 1.1.1 1.5-.2.4-.3.8-.7.9-1.2l1.1-4.2 3.2 5.5c.5 1 1.8 1.3 2.7.7 1-.6 1.3-1.8.7-2.7l-3.2-5.5 4.2 1.1c.5.1 1.1.1 1.5-.2.4-.3.8-.7.9-1.2.3-1.1-.3-2.2-1.4-2.4l-8-2.1-2-3.4 2.4.6c.5.1 1.1.1 1.5-.2.4-.3.8-.7.9-1.2.3-1.1-.3-2.2-1.4-2.4l-6.2-1.7-1.9-3.3h.2c.5.1 1.1.1 1.5-.2.4-.2.7-.6.9-1.1.8-.8.8-2 0-2.8l-.1-.1h3.8l4.6 4.6c.7.7 1.6.8 2.4.3.1-.1.3-.2.4-.3.8-.8.8-2 0-2.8l-1.7-1.7h3.9l5.9 5.9c.7.7 1.6.8 2.4.3.1-.1.3-.2.4-.3.8-.8.8-2 0-2.8l-3-3h6.3c.4 0 .7-.1 1-.3.6-.3 1-1 1-1.7.2-1.1-.7-2-1.8-2zm-32.3 4.2c-1.2.7-2.8.3-3.5-.9-.7-1.2-.3-2.8.9-3.5 1.2-.7 2.8-.3 3.5.9.7 1.2.3 2.8-.9 3.5z"/><linearGradient id="SVGID_5_" gradientUnits="userSpaceOnUse" x1="135.206" y1="36.354" x2="147.228" y2="64.496"><stop offset="0" stop-color="#404B71"/><stop offset=".604" stop-color="#3C476E"/><stop offset="1" stop-color="#354169"/></linearGradient><path class="st11" d="M156.7 50.7h-1l.4-.5c.2-.3.1-.8-.2-1-.3-.2-.8-.1-1 .2l-.9 1.3h-1.5l2-2.8c.2-.3.1-.8-.2-1-.3-.2-.8-.1-1 .2l-2.6 3.7h-1.3l1.2-1.7c.2-.3.1-.8-.2-1-.3-.2-.8-.1-1 .2l-1.7 2.5h-.9l.4-.5c.2-.3.1-.8-.2-1-.3-.2-.8-.1-1 .2l-.9 1.3h-.3l-.8-1.5.2-.3 1.6-.1c.4 0 .7-.4.7-.8s-.4-.7-.8-.7l-.6.1.4-.8 3-.3c.4 0 .7-.4.7-.8s-.4-.7-.8-.7l-2 .2.7-1.1 4.5-.4c.4 0 .7-.4.7-.8s-.4-.7-.8-.7l-3.4.3.7-1.3 1.6-.1c.4 0 .7-.4.7-.8s-.4-.7-.8-.7l-.6.1.5-.9c.2-.3.1-.8-.3-1-.3-.2-.8-.1-1 .3l-.5.9-.3-.6c-.2-.4-.6-.5-1-.4-.4.2-.5.6-.4 1l.7 1.5-.7 1.3-1.5-3.1c-.2-.4-.6-.5-1-.3s-.5.6-.4 1l1.9 4.1-.7 1.1-.9-1.8c-.2-.4-.6-.5-1-.4-.4.2-.5.6-.4 1l1.3 2.8-.4.8-.3-.6c-.2-.4-.6-.5-1-.3s-.5.6-.4 1l.7 1.5-.2.3h-1.7l-.2-.3.7-1.5c.2-.4 0-.8-.4-1-.4-.2-.8 0-1 .3l-.3.6-.4-.8 1.3-2.8c.2-.4 0-.8-.4-1-.4-.2-.8 0-1 .3l-.9 1.8-.7-1.1 1.9-4.1c.2-.4 0-.8-.4-1-.4-.2-.8 0-1 .4l-1.5 3.1-.7-1.3.7-1.5c.2-.4 0-.8-.4-1-.4-.2-.8 0-1 .4l-.3.6-.5-.9c-.2-.3-.6-.5-1-.3-.3.2-.5.6-.3 1l.5.9-.6-.1c-.4 0-.8.3-.8.7 0 .4.3.8.7.8l1.6.1.7 1.3-3.4-.3c-.4 0-.8.3-.8.7 0 .4.3.8.7.8l4.5.4.7 1.1-2-.2c-.4 0-.8.3-.8.7 0 .4.3.8.7.8l3 .3.4.8-.6-.1c-.4 0-.8.3-.8.7 0 .4.3.8.7.8l1.6.1.2.3-.8 1.5h-.3l-.9-1.3c-.2-.3-.7-.4-1-.2-.3.2-.4.7-.2 1l.4.5h-.9l-1.7-2.5c-.2-.3-.7-.4-1-.2-.3.2-.4.7-.2 1l1.2 1.7h-1.3l-2.6-3.7c-.2-.3-.7-.4-1-.2-.3.2-.4.7-.2 1l2 2.8h-1.5l-.9-1.3c-.2-.3-.7-.4-1-.2-.3.2-.4.7-.2 1l.4.5h-1c-.4 0-.7.3-.7.7 0 .4.3.7.7.7h1l-.4.5c-.2.3-.1.8.2 1 .1.1.3.1.4.1.2 0 .5-.1.6-.3l.9-1.3h1.5l-2 2.8c-.2.3-.1.8.2 1 .1.1.3.1.4.1.2 0 .5-.1.6-.3l2.6-3.7h1.3l-1.2 1.7c-.2.3-.1.8.2 1 .1.1.3.1.4.1.2 0 .5-.1.6-.3l1.7-2.5h.9l-.4.5c-.2.3-.1.8.2 1 .1.1.3.1.4.1.2 0 .5-.1.6-.3l.9-1.3h.3l.8 1.5-.2.3-1.6.1c-.4 0-.7.4-.7.8s.4.7.7.7h.1l.6-.1-.4.8-3 .3c-.4 0-.7.4-.7.8s.4.7.7.7h.1l2-.2-.7 1.1-4.5.4c-.4 0-.7.4-.7.8s.4.7.7.7h.1l3.4-.3-.7 1.3-1.6.1c-.4 0-.7.4-.7.8s.4.7.7.7h.1l.6-.1-.5.9c-.2.3-.1.8.3 1 .1.1.2.1.4.1.3 0 .5-.1.6-.4l.5-.9.3.6c.1.3.4.4.7.4.1 0 .2 0 .3-.1.4-.2.5-.6.4-1l-.7-1.5.7-1.3 1.5 3.1c.1.3.4.4.7.4.1 0 .2 0 .3-.1.4-.2.5-.6.4-1l-1.9-4.1.7-1.1.9 1.8c.1.3.4.4.7.4.1 0 .2 0 .3-.1.4-.2.5-.6.4-1l-1.3-2.8.4-.8.3.6c.1.3.4.4.7.4.1 0 .2 0 .3-.1.4-.2.5-.6.4-1l-.7-1.5.2-.3h1.7l.2.3-.7 1.5c-.2.4 0 .8.4 1 .1 0 .2.1.3.1.3 0 .5-.2.7-.4l.3-.6.4 1.3-1.3 2.8c-.2.4 0 .8.4 1 .1 0 .2.1.3.1.3 0 .5-.2.7-.4l.9-1.8.7 1.1-1.9 4.1c-.2.4 0 .8.4 1 .1 0 .2.1.3.1.3 0 .5-.2.7-.4l1.5-3.1.7 1.3-.7 1.5c-.2.4 0 .8.4 1 .1 0 .2.1.3.1.3 0 .5-.2.7-.4l-.1-1 .5.9c.1.2.4.4.6.4.1 0 .2 0 .4-.1.3-.2.5-.6.3-1l-.5-.9.6.1h.1c.4 0 .7-.3.7-.7 0-.4-.3-.8-.7-.8l-1.6-.1-.7-1.3 3.4.3h.1c.4 0 .7-.3.7-.7 0-.4-.3-.8-.7-.8l-4.5-.4-.7-1.1 2 .2h.1c.4 0 .7-.3.7-.7 0-.4-.3-.8-.7-.8l-3-.3-.4-.8.6.1h.1c.4 0 .7-.3.7-.7 0-.4-.3-.8-.7-.8l-1.6-.1-.2-.3.8-1.5h.3l.9 1.3c.1.2.4.3.6.3.1 0 .3 0 .4-.1.3-.2.4-.7.2-1l-.4-.5h.9l1.7 2.5c.1.2.4.3.6.3.1 0 .3 0 .4-.1.3-.2.4-.7.2-1l-1.2-1.7h1.3l2.6 3.7c.1.2.4.3.6.3.1 0 .3 0 .4-.1.3-.2.4-.7.2-1l-2-2.8h1.5l.9 1.3c.1.2.4.3.6.3.1 0 .3 0 .4-.1.3-.2.4-.7.2-1l-.4-.5h1c.4 0 .7-.3.7-.7.4-.4.1-.8-.3-.8zm-15.9 2.2l-.8-1.5.8-1.5h1.7l.8 1.5-.8 1.5h-1.7z"/><circle class="st6" cx="169.4" cy="32.8" r="3.4"/><circle class="st6" cx="43.7" cy="97" r="3.4"/><circle class="st6" cx="48.7" cy="110.1" r="1.5"/><circle class="st6" cx="36.8" cy="117.9" r="1.5"/><circle class="st6" cx="157.4" cy="29.3" r="1.5"/><circle class="st6" cx="185" cy="65.2" r="3.8"/><circle class="st6" cx="213.9" cy="189" r="3.8"/><circle class="st6" cx="205.9" cy="75.1" r="2.8"/><circle class="st6" cx="200.5" cy="83.6" r="1.5"/><circle class="st6" cx="174.4" cy="73.6" r="1.5"/><circle class="st6" cx="253.8" cy="97" r="1.5"/><circle class="st6" cx="223" cy="75.1" r="1.5"/><circle class="st6" cx="217" cy="86.6" r="1.5"/><circle class="st6" cx="215.5" cy="75" r="1.5"/><circle class="st6" cx="223" cy="65.2" r="1.5"/><circle class="st6" cx="263.2" cy="76.6" r="1.5"/><circle class="st6" cx="220" cy="180.4" r="1.5"/><circle class="st6" cx="231.3" cy="178.9" r="1.5"/><circle class="st6" cx="224.5" cy="187.4" r="1.5"/><circle class="st6" cx="192.5" cy="63.7" r="1.5"/><circle class="st6" cx="199" cy="70.5" r="1.5"/></g></svg>