<svg xmlns="http://www.w3.org/2000/svg" viewBox="0 0 227.6 244"><style>.st0{fill:#2D2D2D;} .st1{fill:#4D4C4B;} .st2{fill:#F9DDC5;} .st3{fill:#EC145A;} .st4{fill:#62BA47;} .st5{fill:#FFFFFF;} .st6{fill:#231F20;} .st7{fill:#D1C97D;} .st8{fill:#DDD9A8;} .st9{fill:#F7F3A4;} .st10{fill:#D98A5A;} .st11{fill:#40AE77;}</style><g id="lupa"><path class="st0" d="M174.9 209.6H52.7c-4.3 0-7.9-3.5-7.9-7.9V44.4c0-4.3 3.5-7.9 7.9-7.9H175c4.3 0 7.9 3.5 7.9 7.9v157.3c-.1 4.3-3.6 7.9-8 7.9z"/><path class="st1" d="M171.4 36.5c6.3 0 11.4 5.1 11.4 11.4v150.3c0 6.3-5.1 11.4-11.4 11.4H56.2c-6.3 0-11.4-5.1-11.4-11.4V47.9c0-6.3 5.1-11.4 11.4-11.4h115.2m0-6.6H56.2c-9.9 0-18 8.1-18 18v150.3c0 9.9 8.1 18 18 18h115.3c9.9 0 18-8.1 18-18V47.9c0-9.9-8.1-18-18.1-18z"/><path class="st2" d="M38.1 143.2v55c0 9.9 8.1 18 18 18h115.3c9.9 0 18-8.1 18-18v-55H38.1z"/><path class="st3" d="M126 168.2h-.6c-1.7-3.9-5.6-6.6-10.1-6.6s-8.4 2.7-10.1 6.6h-.3c-5.4 0-10.6 5.4-10.6 10.8 0 4.3 3.5 10 7.3 11.3 1.2-.3 3-.8 5.3-1.2-2.6-.9-2.8-2.7-2.8-2.7 0-.2.1-.4.4-.4.2 0 .4.1.4.4 0 .1.3 2 4.1 2.5h.1c.9-.1 1.8-.2 2.8-.3-.8-1.1-1.3-3-1.3-3.3 0-.2.1-.4.3-.5.2 0 .4.1.5.3.2.7.7 2.7 1.5 3.3l.1.1c2.9-.1 6-.1 9.5.4.2-.1.3-.1.4-.1 3.4-.7 3.6-2.4 3.6-2.5 0-.2.2-.4.4-.4s.4.2.4.4c0 .1-.2 1.8-2.8 2.8 1.7.3 3.4.6 5.1 1.1 3.7-1.4 7-7 7-11.1-.1-5.3-5.2-10.9-10.6-10.9z"/><circle class="st4" cx="133.8" cy="163.3" r="11.9"/><path class="st5" d="M130.9 161.6c-1 .1-1.3 1.3-1.3 2.1v.3c0 .4 0 .7-.1 1.1 0 .2-.1.5-.1.5-.4 0-.6-.5-.7-.7-.2-.6-.4-1.2-.5-1.9-.1-.7-.2-1.4-.2-2.1v-.9-.3-.2c.1-.5-.6 0-.8.2-.8 1.4-.6 3-.5 4.5 0 .4 0 .8-.1 1.2 0 .3-.1.8-.3 1-.1.1-.4 0-.5 0-.2-.1-.3-.3-.3-.5s-.3-.1-.4 0c-.2.2-.4.5-.3.7.1.5.6 1 1.1.8.9-.3 1.3-1.3 1.5-2.1.1-.4.2-.8.2-1.2.1.6.3 1.2.6 1.7.2.4.5.8 1 .7.4-.1.6-.5.8-.9.2.4.4.7.9.6.5 0 .9-.6 1.1-1 .2-.5.3-1 .3-1.5-.2-.7-.4-2.2-1.4-2.1zm.3 3.4c0 .1 0 .2-.1.3-.2 0-.3-.3-.4-.4-.2-.3-.2-.7-.3-1v-1.1c0-.1 0-.2.1-.3.5.3.6.9.6 1.5.2.3.2.6.1 1zM142.7 163c-1.1-.4-1.7 1-1.9 1.8-.2.8-.4 2.1.5 2.4.4.2 1-.1 1.2-.4.3-.4.5-.8.7-1.3.2-.8.4-2.1-.5-2.5zm-.7 3.4c0 .1-.1.2-.1.2-.2-.1-.2-.4-.2-.6-.1-.4 0-.7 0-1.1.1-.4.2-.7.3-1 0-.1.1-.2.1-.2.4.5.3 1.1.2 1.7 0 .3-.1.7-.3 1zM139.8 163.2c.2-.3.4-.5.6-.8.4-.6.8-1.3.7-2 0-.7-1-.7-1.4-.5-.7.3-1.1 1.1-1.3 1.8-.3.9-.4 1.8-.4 2.8-.3.4-1 1.2-1.6.9-.1-.1-.2-.3-.3-.4.4-.5.8-.9 1.2-1.5.3-.5.5-1.3-.1-1.6-.5-.3-1.2 0-1.5.5-.3.4-.5 1-.6 1.5 0 .3-.1.8 0 1.2-.3.2-.7.3-1.1.2-.4-.1-.6-.5-.6-.8-.1-.5-.1-1 0-1.5 0-.2.1-.3.1-.5v-.1c.3.1.4.5.4.7.1.4 1-.2.9-.6-.1-.4-.3-.7-.6-.9-.4-.2-.9.1-1.1.4-.6.6-.7 1.6-.7 2.4 0 .5.1 1.2.6 1.5.6.4 1.5 0 2.1-.3.2.4.5.7 1 .6.6-.1 1.2-.4 1.7-.9 0 .5.1 1 .5 1.2.6.3 1.3 0 1.6-.5.5-.6.7-1.5.5-2.2 0-.5-.3-.6-.6-.6zm-3.6-.4c0-.1.1-.3.2-.4.3.1.3.4.3.6-.1.4-.3.8-.6 1.1v-.2c-.1-.4 0-.8.1-1.1zm3.4-2c.1-.1.2-.3.3-.4.4.5 0 1.1-.2 1.5-.2.4-.5.9-.8 1.2.1-.4.1-.8.2-1.2.2-.3.3-.7.5-1.1zm-.2 4.9s-.1.1-.1.2h-.1c-.3-.1-.3-.7-.3-.9v-.6c.1-.1.2-.3.3-.4.2-.2.4.1.5.4.1.3-.1.9-.3 1.3z"/><path class="st4" d="M80.6 171.3c-.1.1.3.2.4.3 0 .1-.2 0-.3 0 0 .1.1.1.2.2 0 0-.1 0-.1.1.2.1.3.5.6.6.5.2 1.2.4 1.2.5.1-1-.4-1.9.4-2.7 0-.1-.1-.1-.1-.2h.1c0-.2-.2-.1-.1-.3h.2c.1 0-.1-.1-.1-.2s.2 0 .2 0c0-.1-.3-.3-.3-.5.2.1.3.2.4.3-.1-.2-.3-.3-.3-.6.2.1.3.3.5.4-.1-.3-.3-.4-.4-.7.3.1.4.4.6.6-.2-.4-.4-.9-.4-1.3.3.3.4.7.6 1.1 0-.4-.3-.9-.2-1.6.2.4.3 1 .5 1.4.1-.5-.3-1.3-.1-1.8.2.5.2 1.1.4 1.6 0-.5-.1-1.3 0-1.8.2.5.2 1.2.3 1.8.1-.4-.1-1.3.2-1.6v1.4c0 .8.4 1.5.1 2.2-.3.7-.8 1.3-.8 2.3 1.1.3 1.4.4 2.4.3.4 0 .7-.2 1.1-.1.1 0 .2.2.3.2.3.1.5.1.8.1-.5.1-1.3.2-1.4.2-.2 0-.9-.1-.4-.1.3 0 .6 0 .6-.1 0-.3-.5-.1-.8 0-1 .1-1.4.3-3 0 .4 0 .4-.3.4-.5-.1-1.2.1-1.5.5-2 .6-1-.2-1-.5-1.4-.1.1 0 .4 0 .5-.1-.1-.2-.4-.4-.5-.1.1.1.3.1.5l-.3-.3c-.1.1.1.3.1.4-.1 0-.2-.2-.3-.2-.1.1.1.1 0 .3-.1 0-.1-.1-.2 0 0 .1 0 .2.1.2 0 .1-.1 0-.1 0-.1 0 0 .1 0 .2-.8-.1-.2 2.4-.8 3.3.4.3 1.4.2 2 .1-.8.5-1.4.3-2.2.4-.1 0-.2.1-.3.1-.4.1-.9.3-1.4.4-.5.2-2 .5-2.1.5 3.7-1.3 3.1-1.5 3.4-1.7-.6-.2-.8-.9-1.2-1.1 0 0 0-.1.1-.1 0-.1-.1 0-.2 0 0-.1 0-.1.1-.1 0-.1-.2 0-.3-.1 0-.1.1-.1.2-.1-.1-.1-.3-.1-.4-.2.1-.1.2-.1.4-.1-.1-.1-.4-.1-.5-.3h.5c-.2-.2-.6-.2-.7-.5.3 0 .5.1.8.2-.3-.2-.7-.3-.8-.7.3.2.7.3.9.5-.1-.3-.7-.5-.9-.8.4 0 .7.4 1.1.6-.3 0-.6-.3-.8-.4.1.3.6.5.9.7-.2.1-.5-.1-.7-.2 0 .2.4.4.6.5 0 0-.2-.1-.4-.1"/><path class="st4" d="M83.9 164.6c-4.1 0-7.5 3.3-7.5 7.5 0 4.1 3.3 7.5 7.5 7.5 4.1 0 7.5-3.3 7.5-7.5 0-4.1-3.4-7.5-7.5-7.5m0 .3c4 0 7.2 3.2 7.2 7.2s-3.2 7.2-7.2 7.2-7.2-3.2-7.2-7.2 3.2-7.2 7.2-7.2"/><path class="st5" d="M99.5 184.7c.8 1.5 2.5.2 2.7-1.1.2-1.9-1-3.9-2-5.5-.1-.2-.4.1-.5.1-1 .9-2 2.4-1.3 3.4.2.3.9-.7.7-1-.3-.5.4-1.3.8-1.7-.2 0-.3.1-.5.1.4.7.8 1.3 1.2 2 .2.4.3.8.5 1.2.1.3.2.5.3.8-.3 1.3-.7 1.6-1.2.7-.2-.2-.9.7-.7 1z"/><path class="st5" d="M104.5 182.8c-.3.9-.8-.7-.9-.9-.1-.3-.3-.6-.5-.8-.5-.5-1.1-.2-1.7.2h.4c-.3-.8-.8-2.9.9-2.2.4.2 1-.8.6-1-1-.5-1.7-.1-2.3.8-.6 1-.3 2.2.1 3.1.1.2.2.2.4 0 1.4-1.1 1.5 1.3 2.3 1.8.6.5 1.2-.9 1.3-1.3.3-.4-.4-.2-.6.3zM108.1 182.3c.3 1 1.4.6 1.8-.1.3-.5.3-1.1.3-1.7 0-.9 0-1.7.3-2.5-.3.2-.7.3-1 .5.2 1.2.3 3.1 1.3 4 .7.6 1.7-.8 1.9-1.2.3-.7-.6-.2-.8.1-.3.8-.8-.4-.9-.6-.3-.9-.5-1.9-.6-2.8-.1-.5-.9.3-1 .5-.2.6-.3 1.1-.3 1.7v1.5c0 .5-.3.2-.4 0 .1-.5-.7.3-.6.6zM115.4 177.9c.1 1.3.2 2.7.1 4 0 .5.8-.2.8-.5.1-.8.3-1.2.8-1.7.6-.6.9-1.3 1.2-2.1.2-.6-.8-.1-.9.2-.4 1-.4 2.3-.4 3.4 0 .3 0 .7.3.9.4.3 1-.2 1.3-.4.5-.4.1-.8-.4-.4-.4.3-.4-1.3-.3-1.5 0-.7.1-1.5.4-2.2-.3.1-.6.1-.9.2-.2.8-.6 1.3-1.1 1.9-.6.6-.7 1.4-.8 2.2.3-.2.6-.3.8-.5.1-1.3 0-2.7-.1-4.1.1-.4-.8.3-.8.6zM122 181.8c-.1 1 .8 1.4 1.7.9.8-.5 1.1-1.4 1.3-2.2.1-.7.3-1.7-.4-2.2-.3-.2-.9-.1-1.2.1-.7.3-1 .9-1.1 1.5-.1.5 1 0 1.1-.3.1-.6.4-.7.6-.1.1.4.1.7.1 1.1 0 .4-.1.9-.3 1.3-.1.1-.1.3-.3.4.1-.1 0-.1-.1-.1-.3-.1-.3-.4-.3-.6 0-.6-1.1-.1-1.1.2z"/><path class="st5" d="M122.4 177.9c0 2.5-.5 5.1-1.1 7.5-.1.5.8 0 .9-.3.7-2.5 1.3-5.1 1.3-7.6 0-.4-1.1 0-1.1.4zM131.3 180.9c-.5.9-.9 1.8-1.2 2.7-.1.4-.2 1 .1 1.3.4.5 1.2.3 1.7.1.7-.3 0-.6-.5-.4-.3.1-.3-.8-.3-.8.1-.4.2-.9.4-1.3.2-.6.5-1.1.9-1.7.3-.3-.9-.2-1.1.1z"/><path class="st5" d="M128.1 183.6c0 .8.8.9 1.4.8.9-.3 1.5-1.1 1.9-1.9.2-.4-.9-.2-1.1.1-.1.2 0 0 .1 0-.1 0-.1-.1-.2-.1-.2-.1-.2-.3-.2-.5 0-.3.2-.7.4-.9.3-.5.5.2.4.5-.2.5 1 .3 1.1 0 .3-.7-.2-1.3-1.1-1.3-1 0-1.7.9-1.9 1.7-.4 1.6 1.8 1.7 2.4.6-.4 0-.7 0-1.1.1-.2.4-.4.7-.7 1.1-.3.3-.6 0-.6-.3.3-.6-.8-.2-.8.1zM115.3 181.3c-.5.5-.7-1.3-.7-1.5-.1-.8-.1-1.5-.1-2.3 0-.5-.9.2-.9.5v2c0 .3 0 .7-.1 1-.1.4 0 .5-.4.3-.9-.5-.6-2.7-.4-3.5.1-.6-.8 0-.9.4-.2.8-.5 4.4 1.2 4.1 1.9-.4 1.5-3.5 1.5-4.8-.3.2-.6.3-.9.5 0 1.2 0 2.5.4 3.6.3 1 1.2.6 1.7 0 .5-.4.1-.7-.4-.3z"/><path class="st5" d="M128.2 183.2c-.6.3-.2-1.5-.2-1.6.2-.7.5-1.5.7-2.2.2-.5-.9-.1-1 .2-.2.6-.4 1.2-.7 1.9-.1.3-.3.7-.4 1-.2.4-.2.5-.4.2-.6-.8.4-2.7.8-3.5.3-.5-.8-.3-.9 0-.4.7-1.9 4-.3 4.3 1.9.3 2.5-2.8 3-4-.4.1-.7.1-1 .2-.4 1.1-.8 2.3-.8 3.5 0 1 .9.9 1.6.6.4-.4.2-.9-.4-.6zM121.6 178.5c.1-1.3-1.8-.8-2.3-.2-.7.8-.9 2-.8 3 .1 1 .9 1.3 1.7.7 1.1-.7 1.2-2.3 1.4-3.5-.4.1-.7.2-1.1.3-.1.7-1 4.6 1.1 3.6.5-.2.6-.9-.1-.6-.2.1-.2-1.1-.2-1.1 0-.7.2-1.4.3-2.2.1-.5-1 0-1.1.3-.1.7-.2 1.4-.4 2.1-.1.2-.2.7-.3.7-.2 0-.3-.3-.3-.4-.2-.5-.1-1 0-1.5 0-.3.1-.5.3-.8.1-.1.1-.3.2-.4.2-.2.5.3.5.4 0 .5 1.1 0 1.1-.4z"/><g><path class="st5" d="M104.2 179.6c.3.8.5 4.4 1.9 3.9 1.7-.7 1-3.8.9-5 0-.5-.9.3-.8.7.1.9.2 1.7.3 2.6 0 .3.1 1-.3.8-.5-.2-.6-1.3-.7-1.7-.1-.6-.2-1.3-.4-1.9-.3-.6-1 .2-.9.6z"/><path class="st5" d="M106.2 179.1c.4 1.7.9 3.4 1.3 5 .1.4.5 2-.1 1.9-1.1-.1.1-3 .3-3.3.4-.6-.4-.5-.6 0-.6 1.1-1.1 2.6-.5 3.9.2.5.9.5 1.2.1.7-.8.7-1.7.5-2.7-.2-1.9-.9-3.7-1.3-5.6-.1-.5-.9.3-.8.7z"/></g><path class="st5" d="M123.8 178.9c.8.8 1.8 1 2.8.6.1-.1.4-.2.3-.4-.1-.2-.4 0-.5 0-.6.3-1.3-.2-1.7-.6-.4-.3-1.2.1-.9.4z"/><g><path class="st3" d="M129.5 199.4v-8.3c-13-3.6-24-1.1-27.8 0v8.6c3.6-1.1 14.7-3.7 27.8-.3z"/><path class="st3" d="M103 200.1c2.1.6 6.5 1.6 12.3 1.6 5.9 0 10.6-1.2 12.8-1.9-11.3-2.6-20.9-.8-25.1.3z"/></g><g><path class="st6" d="M178.4 70.3c-.2-8.4-12.3-15.2-27.1-15.2s-26.8 6.8-27.1 15.2v9.2c.6 8.2 12.4 14.8 27 14.8s26.5-6.6 27-14.8l.2-9.2z"/><ellipse class="st7" cx="146.3" cy="74.8" rx="27.1" ry="15.4"/><path class="st7" d="M119.3 66.2h54.1v9.2h-54.1z"/><ellipse class="st8" cx="146.3" cy="66.5" rx="27.1" ry="15.4"/><path class="st9" d="M161.6 76.3l-6.2-5.4 9.8-4.4zM146.2 68l4.5 6.9-10.6 1.6z"/><path class="st10" d="M137.6 59.1l-.9 8.2-9.2-5.5z"/><path class="st11" d="M153.3 67.9l-7.3-3.8 8.5-6.6z"/></g><g><path class="st6" d="M114.3 70.3c-.2-8.4-12.3-15.2-27.1-15.2s-26.8 6.8-27.1 15.2v9.2c.6 8.2 12.4 14.8 27 14.8s26.5-6.6 27-14.8l.2-9.2z"/><ellipse class="st7" cx="82.3" cy="74.8" rx="27.1" ry="15.4"/><path class="st7" d="M55.2 66.2h54.1v9.2H55.2z"/><ellipse class="st8" cx="82.3" cy="66.5" rx="27.1" ry="15.4"/><path class="st9" d="M97.5 76.3l-6.2-5.4 9.8-4.4zM82.1 68l4.5 6.9L76 76.5z"/><path class="st10" d="M73.5 59.1l-.9 8.2-9.2-5.5z"/><path class="st11" d="M89.2 67.9l-7.3-3.8 8.5-6.6z"/></g><g><path class="st6" d="M178.4 113.7c-.2-8.4-12.3-15.2-27.1-15.2s-26.8 6.8-27.1 15.2v9.2c.6 8.2 12.4 14.8 27 14.8s26.5-6.6 27-14.8l.2-9.2z"/><ellipse class="st7" cx="146.3" cy="118.1" rx="27.1" ry="15.4"/><path class="st7" d="M119.3 109.5h54.1v9.2h-54.1z"/><ellipse class="st8" cx="146.3" cy="109.8" rx="27.1" ry="15.4"/><path class="st9" d="M161.6 119.6l-6.2-5.4 9.8-4.4zM146.2 111.3l4.5 6.9-10.6 1.6z"/><path class="st10" d="M137.6 102.4l-.9 8.2-9.2-5.5z"/><path class="st11" d="M153.3 111.2l-7.3-3.8 8.5-6.6z"/></g><g><path class="st6" d="M114.3 113.7c-.2-8.4-12.3-15.2-27.1-15.2s-26.8 6.8-27.1 15.2v9.2c.6 8.2 12.4 14.8 27 14.8s26.5-6.6 27-14.8l.2-9.2z"/><ellipse class="st7" cx="82.3" cy="118.1" rx="27.1" ry="15.4"/><path class="st7" d="M55.2 109.5h54.1v9.2H55.2z"/><ellipse class="st8" cx="82.3" cy="109.8" rx="27.1" ry="15.4"/><path class="st9" d="M97.5 119.6l-6.2-5.4 9.8-4.4zM82.1 111.3l4.5 6.9-10.6 1.6z"/><path class="st10" d="M73.5 102.4l-.9 8.2-9.2-5.5z"/><path class="st11" d="M89.2 111.2l-7.3-3.8 8.5-6.6z"/></g><path class="st5" d="M61.6 94.8h-1.7c-2 0-3.6-1.6-3.6-3.6V64.8c0-2 1.6-3.6 3.6-3.6h1.7c2 0 3.6 1.6 3.6 3.6v26.4c-.1 1.9-1.7 3.6-3.6 3.6z"/><circle class="st5" cx="60.7" cy="51.4" r="4.7"/></g></svg>