<svg xmlns="http://www.w3.org/2000/svg" viewBox="0 0 299 188"><style>.st0{fill:#519E38;} .st1{fill:#D1C97D;} .st2{fill:#DDD9A8;} .st3{fill:#F7F3A4;} .st4{fill:#D98A5A;} .st5{fill:#40AE77;}</style><g id="lupa"><path class="st0" d="M104.5 57.8c-.3-9.2-13.5-16.7-29.7-16.7-16.3 0-29.5 7.4-29.7 16.7v10.1c.6 9.1 13.7 16.3 29.7 16.3s29.1-7.2 29.7-16.3V57.8zM182.6 57.8c-.3-9.2-13.5-16.7-29.7-16.7-16.3 0-29.5 7.4-29.7 16.7v10.1c.6 9.1 13.7 16.3 29.7 16.3S182 77 182.6 67.9V57.8zM257.9 57.8c-.3-9.2-13.5-16.7-29.7-16.7-16.3 0-29.5 7.4-29.7 16.7v10.1c.6 9.1 13.7 16.3 29.7 16.3s29.1-7.2 29.7-16.3V57.8zM104.5 124c-.3-9.2-13.5-16.7-29.7-16.7-16.3 0-29.5 7.4-29.7 16.7v10.1c.6 9.1 13.7 16.3 29.7 16.3s29.1-7.2 29.7-16.3V124zM182.6 124c-.3-9.2-13.5-16.7-29.7-16.7-16.3 0-29.5 7.4-29.7 16.7v10.1c.6 9.1 13.7 16.3 29.7 16.3s29.1-7.2 29.7-16.3V124zM257.9 124c-.3-9.2-13.5-16.7-29.7-16.7-16.3 0-29.5 7.4-29.7 16.7v10.1c.6 9.1 13.7 16.3 29.7 16.3s29.1-7.2 29.7-16.3V124z"/><ellipse class="st1" cx="69.5" cy="128.8" rx="29.7" ry="17"/><path class="st1" d="M39.7 119.4h59.5v10.1H39.7z"/><ellipse class="st2" cx="69.5" cy="119.7" rx="29.7" ry="17"/><ellipse class="st1" cx="148.5" cy="128.8" rx="29.7" ry="17"/><path class="st1" d="M118.7 119.4h59.5v10.1h-59.5z"/><ellipse class="st2" cx="148.5" cy="119.7" rx="29.7" ry="17"/><ellipse class="st1" cx="222.6" cy="128.8" rx="29.7" ry="17"/><path class="st1" d="M192.9 119.4h59.5v10.1h-59.5z"/><ellipse class="st2" cx="222.6" cy="119.7" rx="29.7" ry="17"/><ellipse class="st1" cx="69.5" cy="62.6" rx="29.7" ry="17"/><path class="st1" d="M39.7 53.2h59.5v10.1H39.7z"/><ellipse class="st2" cx="69.5" cy="53.5" rx="29.7" ry="17"/><ellipse class="st1" cx="148.5" cy="62.6" rx="29.7" ry="17"/><path class="st1" d="M118.7 53.2h59.5v10.1h-59.5z"/><ellipse class="st2" cx="148.5" cy="53.5" rx="29.7" ry="17"/><ellipse class="st1" cx="222.6" cy="62.6" rx="29.7" ry="17"/><path class="st1" d="M192.9 53.2h59.5v10.1h-59.5z"/><ellipse class="st2" cx="222.6" cy="53.5" rx="29.7" ry="17"/><path class="st3" d="M222.6 40.3l6.8 6-10.7 4.8zM52.3 43.3l6.8 6-10.7 4.8zM69.2 52.5l-4.9-7.7L76 43.1zM138.8 43.3l6.8 6-10.7 4.8zM163.3 52.3l6.8 6-10.7 4.8z"/><path class="st4" d="M206.9 57.7l1.1-9 10 6zM138.4 62.2l1.1-9 10 6zM78.7 62.2l1-9 10.1 6z"/><path class="st5" d="M234.4 47.5l8 4.2-9.3 7.2zM154.1 42.7l8 4.2-9.3 7.2z"/><path class="st3" d="M82.1 129.3l-6.8-6 10.7-4.8zM57.6 120.3l-6.8-6 10.7-4.8z"/><path class="st4" d="M82.4 110.4l-1 9-10.1-6z"/><path class="st5" d="M66.8 129.9l-8.1-4.2 9.4-7.2zM61.4 52.5l8.1 4.3-9.4 7.2z"/><path class="st3" d="M239.4 130.6l-6.8-6 10.7-4.9zM222.5 121.4l4.9 7.6-11.7 1.7z"/><path class="st4" d="M213 111.6l-1 9-10.1-6z"/><path class="st5" d="M230.3 121.3l-8.1-4.2 9.4-7.2zM226.9 60.1l-4.8 7.7-6.5-9.8z"/><path class="st3" d="M150.3 133.4l-6.8-6 10.7-4.9z"/><path class="st4" d="M166 115.9l-1 9-10.1-6z"/><path class="st5" d="M138.5 126.2l-8-4.3 9.3-7.2zM146 113.5l4.8-7.7 6.6 9.8z"/></g></svg>