<svg xmlns="http://www.w3.org/2000/svg" viewBox="0 0 306 202"><style>.st0{fill:#DDD9A8;} .st1{fill:#EFEFEF;} .st2{fill:#DDDDDD;} .st3{fill:#FFFFFF;} .st4{fill:#D98A5A;} .st5{fill:#F7F3A4;} .st6{fill:#40AE77;}</style><g id="lupa"><ellipse class="st0" cx="157.9" cy="97.5" rx="79.2" ry="55"/><path class="st1" d="M58.4 97.5c14.4 41 53.5 70.5 99.5 70.5s85.1-29.4 99.5-70.5h-199z"/><path class="st2" d="M258.5 97.5H57.3c-2.1 0-3.9-1.7-3.9-3.9 0-2.1 1.7-3.9 3.9-3.9h201.2c2.1 0 3.9 1.7 3.9 3.9 0 2.1-1.7 3.9-3.9 3.9z"/><path class="st3" d="M94.3 132c-.9 0-1.8-.2-2.7-.7-12.1-7.1-17.8-20.2-18-20.7-1.2-2.7.1-5.9 2.8-7 2.7-1.2 5.9.1 7 2.8.1.1 4.6 10.4 13.6 15.7 2.6 1.5 3.4 4.8 1.9 7.3-1 1.6-2.8 2.6-4.6 2.6z"/><path class="st4" d="M122.3 59l8.7-2.7-1.5 11.7z"/><path class="st5" d="M128.5 76l8.6-2.7-1.5 11.7zM198.2 66.5l6.8 6-10.8 4.8zM179.9 48.3l6 6.8-11.3 3.4zM91.6 79.2l6 6.8-11.2 3.4z"/><path class="st4" d="M174.4 74.9l1.1-9 10 6.1zM155.5 77.2l5.3 7.3-11.5 2.3zM151.6 56.3l1-9 10.1 6.1zM111.2 86.6l1-9 10.1 6z"/><path class="st6" d="M157 59.4l8 4.2-9.3 7.2zM213.4 71.9l8 4.2-9.3 7.2zM93.4 74.3l4-8.2 7.4 9.2zM176.6 85.7l4-8.2 7.4 9.2z"/></g></svg>