<svg xmlns="http://www.w3.org/2000/svg" viewBox="0 0 259.5 184.5"><style>.st0{fill:#EFEFEF;} .st1{fill:#DDDDDD;} .st2{fill:#FFFFFF;} .st3{fill:#FCFCFC;} .st4{fill:#FDED07;} .st5{fill:#62BA47;} .st6{fill-rule:evenodd;clip-rule:evenodd;fill:#FDED07;} .st7{fill-rule:evenodd;clip-rule:evenodd;fill:#62BA47;} .st8{fill:#62BA46;}</style><g id="butylka_2"><path class="st0" d="M206.8 95.1H59.2l9.7 36c.9 3.6 6.3 6.3 12.9 6.3h102.4c7 0 12.7-3.1 13-7l9.6-35.3z"/><path class="st1" d="M184.2 95.1H133v42.3h51.2c7 0 12.7-3.1 13-7l9.5-35.2h-22.5z"/><path class="st2" d="M78.5 116.3c.6 2-.5 4.1-2.5 4.7-2 .6-4.1-.5-4.7-2.5l-3-9.6c-.6-2 .5-4.1 2.5-4.7 2-.6 4.1.5 4.7 2.5l3 9.6z"/><path class="st0" d="M206.7 89.9H58.2l12.9-23.2h121.8z"/><path class="st3" d="M192.9 66.7l13.8 23.2H58.2l12.9-23.2h121.8m0-6.5H71.1c-2.4 0-4.6 1.3-5.7 3.4L52.5 86.8c-1.1 2-1.1 4.5.1 6.5 1.2 2 3.3 3.2 5.6 3.2h148.5c2.4 0 4.5-1.3 5.7-3.3 1.2-2 1.1-4.6-.1-6.6l-13.8-23.2c-1.1-2-3.3-3.2-5.6-3.2z"/><g><ellipse class="st4" cx="134.5" cy="79" rx="13.9" ry="6.8"/><ellipse class="st5" cx="123.3" cy="85.1" rx="4.4" ry="2.1"/><path class="st6" d="M127.9 70.7c0 .5-.8.9-1.8.9s-1.8-.4-1.8-.9.8-.9 1.8-.9 1.8.4 1.8.9z"/><path class="st7" d="M127.9 73.6c0 .6-1 1.1-2.3 1.1-1.3 0-2.3-.5-2.3-1.1 0-.6 1-1.1 2.3-1.1 1.3 0 2.3.5 2.3 1.1zM121.8 71.9c0 .4-.6.7-1.4.7-.8 0-1.4-.3-1.4-.7 0-.4.6-.7 1.4-.7.8 0 1.4.3 1.4.7z"/><ellipse class="st5" cx="146.4" cy="72.8" rx="7.7" ry="3.7"/><path class="st2" d="M144.5 72.3c-.6 0-.8.4-.8.7v.4s0 .1-.1.1c-.2 0-.4-.2-.5-.2-.2-.2-.3-.4-.3-.6-.1-.2-.1-.4-.2-.7v-.3-.1-.1c.1-.2-.4 0-.5.1-.5.4-.4.9-.3 1.4 0 .1 0 .3-.1.4 0 .1-.1.2-.2.3h-.3c-.1 0-.2-.1-.2-.2s-.2 0-.3 0c-.1.1-.2.1-.2.2.1.2.4.3.7.3.6-.1.8-.4 1-.7.1-.1.1-.3.1-.4.1.2.2.4.4.5.1.1.4.3.7.2.2 0 .4-.1.5-.3.1.1.3.2.6.2s.6-.2.7-.3c.1-.2.2-.3.2-.5-.1 0-.3-.4-.9-.4zm.2 1.1s-.1 0 0 0c-.2.1-.3 0-.3 0-.1-.1-.1-.2-.2-.3v-.4s0-.1.1-.1c.3.1.4.3.4.5v.3zM152.1 72.7c-.7-.1-1.1.3-1.2.6-.1.2-.3.7.3.8.3.1.6 0 .8-.1.2-.1.3-.3.4-.4.2-.3.3-.8-.3-.9zm-.4 1.1s-.1.1 0 0c-.2 0-.2-.1-.3-.1v-.3c0-.1.1-.2.2-.3l.1-.1c.3.1.2.4.1.5.1.1 0 .2-.1.3z"/><path class="st2" d="M150.2 72.8c.1-.1.2-.2.4-.3.3-.2.5-.4.5-.6 0-.2-.6-.2-.9-.2-.4.1-.7.3-.8.6-.2.3-.3.6-.3.9-.2.1-.7.4-1 .3-.1 0-.1-.1-.2-.1.3-.1.5-.3.8-.5.2-.2.3-.4 0-.5-.3-.1-.8 0-1 .1-.2.1-.3.3-.4.5v.4c-.2.1-.4.1-.7.1-.3 0-.4-.2-.4-.3-.1-.2-.1-.3 0-.5 0 0 0-.1.1-.1.2 0 .2.2.3.2.1.1.7-.1.6-.2-.1-.1-.2-.2-.4-.3-.2-.1-.6 0-.7.1-.4.2-.5.5-.4.8 0 .2.1.4.4.5.4.1 1 0 1.4-.1.1.1.3.2.6.2.4 0 .8-.1 1.1-.3 0 .2.1.3.3.4.4.1.8 0 1-.2.3-.2.5-.5.3-.7-.2-.2-.4-.2-.6-.2zm-2.3-.1l.1-.1c.2 0 .2.1.2.2s-.2.2-.4.4v-.1c0-.2 0-.3.1-.4zm2.2-.7s.1-.1.2-.1c.3.1 0 .3-.1.5-.1.1-.3.3-.5.4 0-.1.1-.3.2-.4 0-.1.1-.2.2-.4zm-.1 1.6s-.1 0 0 0c-.1.1-.1.1-.1 0-.2 0-.2-.2-.2-.3v-.2c.1 0 .1-.1.2-.1.2 0 .3 0 .3.1 0 .2-.1.4-.2.5zM144.8 78.9h-.2c-1.3-.1-1.9.6-2.2 1.1-.2.4-.7.7-.8.8h-.2s-.1-.1-.1-.2c-.1-.2-.1-.4-.1-.5 0-.5.1-1 .2-1.5 0-.1-.1-.1-.3-.1-.3 0-.6.1-.8.2-.5.4-.7.8-.9 1.2l-.3.6c-.1 0-.2-.1-.2-.2l-.1-.1h-.2c-.2 0-.4.1-.5.1-.1 0-.1.1-.2.1 0 0-.1.1-.3 0-.2 0-.4-.1-.5-.2-.2-.2-.2-.5-.2-.7 0-.3.1-.6.3-.9l.1-.1h.1c.2.1.3.3.4.4.1.2 1.2-.1 1.1-.3-.1-.2-.2-.4-.6-.5-.4-.1-.9 0-1.3.1-.8.3-1.1.8-1.1 1.3v.1c-.1.2-.2.4-.4.5 0 0-.1.1-.3.1-.1 0-.1-.1-.2-.2-.2-.3-.2-.6-.2-.9 0-.2 0-.4.1-.6v-.2c0-.3-.5-.4-1.2-.4-.7.1-1.1.3-1.4.6-.3.3-.5.6-.5.9 0 .3 0 .8-.3.8-.4 0-.7-.3-.8-.5-.3-.3-.4-.7-.4-1.1-.1-.6-.2-1.2 0-1.8 0-.1-.2-.1-.4-.1-.3.1-.5.2-.6.3-.4.4-.5.9-.7 1.4v-.1c-.1-.4-.2-.8-.3-1.1 0-.2-.1-.5 0-.7.1-.3-.8 0-.9.1-1 .8-.7 1.8-.7 2.7 0 .2 0 .5-.1.7-.1.2-.1.5-.4.6-.2.1-.5 0-.6 0-.2-.1-.4-.2-.4-.3 0-.1-.3-.1-.5 0s-.4.3-.4.4c.1.3.6.6 1.3.5 1.1-.2 1.6-.8 1.9-1.3.2-.3.2-.6.2-.9.2.6.4 1.1.6 1.7.1.3.9-.2.9-.3 0-.4.1-.8.2-1.2.2.5.6 1.5 1.8 1.5.4 0 .7-.2 1-.4.1.1.3.2.5.3.5.1 1.1-.1 1.4-.3.1.1.2.2.3.2.7.2 1.4-.1 1.8-.3l.3.3c.5.3 1.1.2 1.6 0 .5.4 1.6.2 2-.2.1 0 .1-.1.1-.1v.1c0 .2.1.4.3.5.3.2.7.1 1 0 .3-.1.5-.2.8-.4 0 .3.2.7.8.8.6.1 1.2-.1 1.5-.3.4-.2.6-.5.8-.8.2-.2.4-.9-.6-1.2zm-11.5 1.2s0 .1-.1.1h-.2c-.2 0-.3-.2-.4-.3-.2-.3-.2-.7 0-1.1.1-.1.2-.3.3-.3h.2c.3 0 .4.1.4.2 0 .4 0 .9-.2 1.4zm10.4.7c0 .1-.1.1-.2.1-.2-.1-.3-.3-.3-.3-.1-.2 0-.5 0-.7.1-.2.2-.4.4-.6 0 0 .1-.1.2-.1.5.2.3.8.3 1-.1.2-.2.4-.4.6z"/><g><path class="st2" d="M121.4 84.8c.1-.2.4-.1.5 0 .1.1 0 .2-.2.3-.1.1-.3.1-.5.2-.1 0-.2 0-.2.1v.1h.5c.3 0 .5 0 .8-.1.1 0 .3-.2 0-.1h-1v.1c-.1.1 0 0 0 0 .1 0 .2-.1.2-.1.1-.1.2-.1.4-.2s.4-.3.3-.4c-.1-.4-1-.1-1.1.1-.1.2.3.1.3 0z"/><path class="st2" d="M120.3 85c-.1 0-.5-.2-.2-.3h.3c.3.1.1.2-.1.3 0 0-.4.1-.2.2s.6 0 .6.2c0 .1-.4.1-.5.1-.2-.1-.2-.2 0-.3.1-.1.2-.3.1-.2-.4.1-.6.2-.6.4 0 .1.2.2.4.2.3 0 .6-.1.8-.2.2-.1.1-.3-.2-.3-.1 0-.3-.1-.4-.1.1 0 .3 0 .4-.1.2-.1.1-.3-.2-.3-.3 0-.6.1-.7.2-.2.2 0 .3.3.4.1 0 .4-.2.2-.2zM123.4 85.4c.3.4 1.5.1 1.3-.2-.1-.2-.5-.2-.8-.2-.2 0-.2-.1-.2-.2.1-.1 0-.1-.1 0h.9c.1 0 .4-.1.2-.1-.3-.1-.7-.1-1 0-.3 0-.4.2-.4.3 0 .2.3.2.6.2.2 0 .4 0 .4.2s-.4.2-.5.1c-.1 0-.1-.1-.2-.1 0-.2-.2-.1-.2 0zM126.4 84.7c-.4.3-.8.6-1.2.8-.2.1.1.1.2 0 .4-.3.9-.6 1.3-.9.1-.1-.2 0-.3.1zM125.7 84.6c-.2 0-.4.1-.4.2s.1.2.3.2c.4 0 .6-.4.1-.4-.1 0-.3.1-.1.1.1 0 .2 0 .2.1v.1h-.1c-.1 0-.2 0-.2-.1v-.1c.2 0 .4-.1.2-.1zM126.4 85.2c-.2 0-.4.1-.4.2s.1.2.3.2c.3 0 .5-.4.1-.4-.1 0-.3.1-.1.1.1 0 .2 0 .2.1v.1h-.1c-.1 0-.2 0-.2-.1v-.1c.1 0 .3-.1.2-.1zM122.9 85.8c.2-.1.3-.2.3-.3v-.1h-.3c-.1 0-.2.1-.2.1 0 .1.1 0 .2 0v.1l-.1.1c-.1.1 0 .1.1.1z"/></g><g><path class="st8" d="M117.6 76.2c-.1 0-.1-.1-.2-.1-.3-.1-.5 0-.8 0-.7 0-.9 0-1.7-.1 0-.3.4-.5.6-.8.2-.2-.1-.5-.1-.8v-.5c-.2.1-.1.4-.2.6-.1-.2-.1-.5-.2-.6-.1.2 0 .5 0 .6-.1-.2-.1-.4-.3-.6-.2.2.1.5.1.6-.1-.2-.2-.4-.4-.5-.1.2.1.4.1.5-.1-.1-.2-.3-.4-.4 0 .1.2.3.3.4-.2 0-.2-.2-.4-.2 0 .1.2.2.3.3-.1 0-.2-.1-.4-.1 0 .1.2.1.2.2-.1 0-.2-.1-.3-.1 0 .1.2.1.2.2h-.2s.2 0 .1.1h-.1c0 .1.1 0 .1.1h-.1s.1 0 .1.1c-.6.3-.3.6-.3.9 0 0-.5-.1-.9-.2-.2 0-.3-.2-.4-.2h.1c-.1 0-.1 0-.2-.1h.2c-.1 0-.4-.1-.3-.1h.4c-.2 0-.4-.1-.4-.2.1 0 .4.1.5.1-.2-.1-.6-.2-.6-.2.2 0 .4.1.6.1-.3 0-.5-.2-.8-.2.1.1.5.2.6.3-.2-.1-.4-.1-.7-.2.1.1.4.2.6.3-.2 0-.3-.1-.5-.1.1.1.4.1.5.2h-.4c0 .1.3.1.4.1h-.3c.1 0 .2 0 .3.1h-.2.1c.3.1.5.3.9.4-.2.1.2.2-2.5.6.1 0 1.2-.1 1.5-.2.3-.1.7-.1 1-.2h.2c.6 0 1.1 0 1.6-.1-.4 0-1.1.1-1.4 0 .4-.3.1-1 .4-1.1.3-.1.7-.6 1.3-.2.1.1.1.2-.1.3-.2.2-.4.3-.4.7 0 .1 0 .2-.3.2 1.2.1 1.5.1 2.2 0 .2 0 .5-.1.6 0h-.4c-.3 0 .1.1.3.1.1 0 .7 0 1-.1-.2.1-.3.1-.5.1z"/><path class="st8" d="M114.1 73.2c-2.7 0-4.8 1.1-4.8 2.4 0 1.3 2.2 2.4 4.8 2.4 2.7 0 4.8-1.1 4.8-2.4.1-1.3-2.1-2.4-4.8-2.4m0 .1c2.6 0 4.6 1 4.6 2.3 0 1.2-2.1 2.3-4.6 2.3-2.6 0-4.6-1-4.6-2.3 0-1.2 2.1-2.3 4.6-2.3"/></g></g></g></svg>