<svg xmlns="http://www.w3.org/2000/svg" viewBox="0 0 318 213"><style>.st0{fill:#519E38;} .st1{fill:#FEBEBD;} .st2{fill:#9D360A;} .st3{fill:#CA655F;} .st4{fill:#0E3656;} .st5{fill:#446666;} .st6{fill:#FFFFFF;} .st7{fill:#F4E6C6;} .st8{fill:none;stroke:#FCF1D9;stroke-width:10;stroke-linecap:round;stroke-miterlimit:10;}</style><g id="lupa"><path class="st0" d="M222.7 77c-24.6-45.8-78-20.2-78-20.2s-16.4 8.2-49.6 2.4c-27.8-4.8-40.1 21.2-36.3 35-1.5 7.3-.2 14.2 4.1 17.3 12 8.7 28.4 13 50.6 11.6 22.2-1.4 83.8 8.7 83.8 8.7s37.3 1.4 31.7-27.7c1.5-6.4.2-15.1-6.3-27.1z"/><path class="st1" d="M194 114.8s50.1 1.9 25.5-43.8-78-20.2-78-20.2-16.4 8.2-49.6 2.4-44.4 32.7-32.3 41.3 28.4 13 50.6 11.6c22.1-1.4 83.8 8.7 83.8 8.7z"/><path class="st2" d="M194 114.6s-61.7-10.1-83.8-8.7C88 107.3 71.6 103 59.6 94.3c-2-1.4-3.3-3.7-4-6.4-1.6 7.4-.3 14.4 4 17.5 12 8.7 28.4 13 50.6 11.6 22.2-1.4 83.8 8.7 83.8 8.7s37.5 1.4 31.7-27.9c-4.6 17.8-31.7 16.8-31.7 16.8z"/><path class="st3" d="M102.9 62.8s-19.6-10.6-34.4 1.6-9 36.6 21.5 34.7c30.5-1.9 34 1.3 35-3.2 1-4.6-22.1-33.1-22.1-33.1zM193.8 106.8s27.6 6.7 28.3-18.9-27-15.9-27-15.9-8 9-15.1 9.6c-7.1.6-19.9 1.9-14.1 11.9s27.9 13.3 27.9 13.3zM205.7 63.7s-5.1-21.2-49.5-11.6 4.2 6.1 10.6 10.3 24.4 12.3 38.9 1.3zM128.9 94.2s6.7 6.4 16.1 6.7c9.3.3 17.3 2.2 19.4 0 2.1-2.2-23.8-22.1-23.8-22.1s-28.7-18-31.3-17c-2.6 1 19.6 32.4 19.6 32.4z"/><path class="st3" d="M174.2 72.4s-9-8-20.2-8.3c-11.2-.3-16.1-4.7-19.3-4.6s-12.5 3.1 0 9.8 15.5 11 25 12.7c9.6 1.6 22.5-6.7 14.5-9.6z"/><path class="st4" d="M248.6 74.6c-13.8-13.8-36.2-13.8-49.9 0-13.8 13.8-13.8 36.2 0 49.9 13.8 13.8 36.2 13.8 49.9 0 13.8-13.8 13.8-36.1 0-49.9zm-6.2 43.7c-5 5-11.7 7.8-18.7 7.8-7.1 0-13.7-2.8-18.7-7.8s-7.8-11.7-7.8-18.7c0-7.1 2.8-13.7 7.8-18.7s11.7-7.8 18.7-7.8c7.1 0 13.7 2.8 18.7 7.8s7.8 11.7 7.8 18.7-2.8 13.7-7.8 18.7z"/><path class="st5" d="M245.476 127.61l6.223-6.223 24.96 24.96-6.223 6.223z"/><path class="st4" d="M250.704 139.055l12.515-12.515 33.304 33.304-12.516 12.516z"/><path class="st6" d="M216.4 113.1c-1.7 1.7-4.5 1.7-6.2 0-3.6-3.6-5.6-8.4-5.6-13.5s2-9.9 5.6-13.5c1.7-1.7 4.5-1.7 6.2 0 1.7 1.7 1.7 4.5 0 6.2-1.9 1.9-3 4.5-3 7.3s1.1 5.3 3 7.3c1.7 1.6 1.7 4.4 0 6.2z"/><g><path class="st0" d="M176.4 143.2s-6.5-29-38.2-24-59.7 28.2-71.1 34.7c-11.4 6.4 46.7 16.1 71.1 12.5 24.4-3.5 38.5-7.8 38.2-23.2z"/><path class="st7" d="M172.4 137s-6.5-29-38.2-24c-31.7 5-59.7 28.2-71.1 34.7-11.4 6.4 46.7 16.1 71.1 12.5s38.4-7.9 38.2-23.2z"/><path class="st8" d="M137.8 121.9s-9.6.8-23.2 6.6"/></g></g></svg>