<svg xmlns="http://www.w3.org/2000/svg" viewBox="0 0 333 309"><style>.st0{fill:#519E38;} .st1{fill:#F4D162;} .st2{fill:#FFEBCF;} .st3{fill:#1D3805;} .st4{fill:#001700;} .st5{fill:#A11D21;} .st6{fill:#FFFFFF;} .st7{fill:#CA655F;} .st8{fill:#FEBEBD;} .st9{fill:#B75856;} .st10{fill:#EFA8A8;} .st11{fill:#EFEFEF;} .st12{fill:#DDDDDD;}</style><g id="potato"><circle class="st0" cx="99.6" cy="94.5" r="22.3"/><circle class="st0" cx="92.7" cy="133.7" r="14.3"/><circle class="st0" cx="144.1" cy="47.4" r="18.2"/><circle class="st1" cx="97" cy="91" r="22.3"/><circle class="st2" cx="97.8" cy="90.6" r="20.4"/><circle class="st1" cx="97.9" cy="91" r="18.6"/><circle class="st2" cx="98.4" cy="91.4" r="16.6"/><circle class="st1" cx="98.4" cy="91" r="14.8"/><circle class="st2" cx="98.4" cy="91.4" r="11.6"/><circle class="st1" cx="98.4" cy="92.5" r="9.3"/><circle class="st1" cx="139.8" cy="43.9" r="18.5"/><circle class="st2" cx="140.1" cy="44.6" r="16.9"/><circle class="st1" cx="139.7" cy="44.7" r="15.5"/><circle class="st2" cx="139.4" cy="45" r="13.8"/><circle class="st1" cx="139.7" cy="45" r="12.3"/><circle class="st2" cx="139.4" cy="45" r="9.6"/><circle class="st1" cx="138.5" cy="44.9" r="7.7"/><circle class="st1" cx="89.3" cy="131.1" r="14.1"/><circle class="st2" cx="89.6" cy="131.6" r="12.9"/><circle class="st1" cx="89.3" cy="131.7" r="11.8"/><circle class="st2" cx="89" cy="132" r="10.5"/><circle class="st1" cx="89.3" cy="132" r="9.4"/><circle class="st2" cx="89" cy="132" r="7.4"/><circle class="st1" cx="88.3" cy="131.9" r="5.9"/><circle class="st3" cx="225.9" cy="96.5" r="2.6"/><circle class="st4" cx="219.5" cy="112.5" r="2.6"/><circle class="st4" cx="225.9" cy="116.1" r="2.6"/><circle class="st4" cx="236.9" cy="101.9" r="2.6"/><circle class="st4" cx="200.9" cy="64.7" r="2.6"/><circle class="st4" cx="221.5" cy="46.6" r="2.6"/><circle class="st5" cx="225.9" cy="79.3" r="2.6"/><circle class="st5" cx="206.7" cy="92.5" r="2.6"/><circle class="st5" cx="209.3" cy="76.7" r="2.6"/><circle class="st3" cx="214.4" cy="87.4" r="2.6"/><circle class="st3" cx="213.3" cy="64.7" r="2.6"/><circle class="st3" cx="227.5" cy="64.7" r="2.6"/><circle class="st3" cx="239.5" cy="41.9" r="2.6"/><circle class="st3" cx="224.1" cy="30.5" r="2.6"/><circle class="st3" cx="219.5" cy="143.9" r="2.6"/><circle class="st5" cx="219" cy="127.2" r="2.6"/><circle class="st3" cx="239.5" cy="90" r="2.6"/><circle class="st6" cx="210.3" cy="101.9" r="2.6"/><circle class="st6" cx="236.9" cy="74.9" r="2.6"/><circle class="st6" cx="245.2" cy="62.9" r="2.6"/><circle class="st6" cx="195.6" cy="77.9" r="2.6"/><circle class="st6" cx="207.7" cy="48.4" r="2.6"/><circle class="st3" cx="201.4" cy="107.4" r="2.6"/></g><g id="lupa"><path class="st0" d="M279.7 207.5h-15.8c1.4-16.3-8.6-31.5-24.1-36.7-2-1.4-4.1-2.8-6.5-4.2-.3-.2-.5-.3-.8-.3-1.1-.2-2.3.3-2.9 1.3-.3.4-.4.9-.3 1.4-2.2 0-4.4.1-6.6.5-.7-.5-1.5-1-2.2-1.5-.3-.2-.6-.3-.9-.4-1.1-.2-2.2.2-2.8 1.2-.3.5-.4 1.1-.4 1.6-.3-.5-.8-.9-1.4-1.2-.1 0-.6-.2-1.3-.4-.4-2.3-1-4.5-1.8-6.6.6-.3 1.2-.8 1.4-1.4.6-1.4-.1-2.9-1.4-3.5-.1-.1-1.2-.5-2.9-1-1.4-2.3-3.1-4.5-5.1-6.5.2-.2.3-.4.5-.6.7-1.3.1-2.9-1.2-3.6-.2-.1-3.7-1.8-9.2-2.8-1-.5-2.1-1-3.2-1.4-17-6.1-35.7 1.6-43.6 17.3-1.7 1.7-3.4 3.7-5.1 5.8-.2.2-.3.5-.4.8-.4 1.1-.1 2.3.9 3 .4.3.9.5 1.3.5 0 .3-.1.5-.1.8-1.4-.8-3-1.4-4.5-2-.2-.8-.2-1.2-.2-1.2-.2-1.5-1.5-2.5-3-2.3-1.2.1-2.1 1-2.3 2.1-2.1-.4-4.2-.6-6.3-.6-1.1 0-2.2.1-3.2.2-.3-.7-.4-1-.4-1.1-.5-1.4-2-2.1-3.4-1.6s-2.1 2-1.6 3.4c0 0 0 .1.1.2-1.2.3-2.4.7-3.6 1.1-.4-1-1.4-1.7-2.5-1.7-1.5 0-2.7 1.2-2.7 2.7v1.4c-2 1.1-3.9 2.4-5.6 3.9-.5-.5-1.1-.8-1.8-.9-1.5-.1-2.7 1-2.8 2.5 0 .1-.1 1.3 0 3.1-1.7 2.1-3.2 4.5-4.4 7-.2-.1-.5-.2-.8-.2-1.5-.2-2.8.9-3 2.4 0 .2-.4 4 .4 9.6-.1 1.1-.2 2.3-.2 3.5 0 2.2.2 4.3.6 6.4H78.4c-2.1 0-3.9 1.7-3.9 3.9 0 2.1 1.7 3.9 3.9 3.9h1.1c14.4 41 53.5 70.5 99.5 70.5s85.1-29.4 99.5-70.5h1.2c2.1 0 3.9-1.7 3.9-3.9 0-2.1-1.8-3.9-3.9-3.9zm-115.2 0c-.1-.2-.2-.3-.3-.5.4.2.8.3 1.2.5h-.9z"/><circle class="st7" cx="116" cy="196.9" r="35.4"/><path class="st8" d="M119.6 235c-.3 0-.6 0-.9-.1-21.9-7.4-31.2-20.8-35.2-30.8-4.3-10.8-3.4-19.9-3.4-20.3.2-1.5 1.5-2.5 3-2.4 1.5.2 2.5 1.5 2.4 3-.1 1.4-2.9 32.7 34.9 45.4 1.4.5 2.2 2 1.7 3.4-.3 1.1-1.3 1.8-2.5 1.8z"/><path class="st8" d="M132 231.1c-.3 0-.6-.1-1-.2-23.3-8.9-33.7-24.6-38.3-36.1-5-12.5-4.5-22.9-4.5-23.3.1-1.5 1.4-2.6 2.8-2.5 1.5.1 2.6 1.3 2.5 2.8 0 .1-.5 9.8 4.2 21.2 6.2 15.2 18 26.3 35.1 32.9 1.4.5 2.1 2.1 1.5 3.5-.2 1.1-1.2 1.7-2.3 1.7z"/><path class="st8" d="M139.6 225.9c-.5 0-.9-.1-1.4-.4-39.2-23.7-39.7-59.4-39.7-60.9s1.2-2.7 2.7-2.7c1.5 0 2.7 1.2 2.7 2.7 0 .5.6 34.3 37.1 56.3 1.3.8 1.7 2.4.9 3.7-.5.9-1.4 1.3-2.3 1.3z"/><path class="st8" d="M146.9 216.9c-.4 0-.8-.1-1.2-.3-22.9-11.8-37.8-52.5-38.4-54.2-.5-1.4.2-2.9 1.6-3.4 1.4-.5 2.9.2 3.4 1.6.1.4 14.8 40.5 35.8 51.3 1.3.7 1.8 2.3 1.2 3.6-.5.8-1.5 1.4-2.4 1.4z"/><path class="st8" d="M150.6 207.1c-.6 0-1.2-.2-1.7-.6-23.5-20.1-26.5-42.6-26.6-43.6-.2-1.5.9-2.8 2.3-3 1.5-.2 2.8.9 3 2.3 0 .2 3 21.5 24.8 40.1 1.1 1 1.3 2.7.3 3.8-.6.7-1.4 1-2.1 1z"/><path class="st8" d="M150.6 192c-.3 0-.7-.1-1-.2-4.2-1.7-8.1-6.1-11.6-13.1-2.4-5-3.8-9.5-3.8-9.7-.4-1.4.4-2.9 1.8-3.3 1.4-.4 2.9.4 3.3 1.8 1.3 4.6 6.1 17 12.2 19.4 1.4.5 2.1 2.1 1.5 3.5-.3 1-1.4 1.6-2.4 1.6z"/><g><circle class="st9" cx="167.4" cy="170.5" r="35.4"/><path class="st10" d="M130.3 161.1c.1-.3.2-.5.4-.8 14.4-18.1 30.2-22.3 40.9-22.6 11.7-.4 19.9 3.6 20.2 3.7 1.3.7 1.9 2.3 1.2 3.6-.7 1.3-2.3 1.9-3.6 1.2-1.2-.6-29.7-13.8-54.6 17.4-.9 1.2-2.6 1.4-3.8.4-.8-.7-1.1-1.9-.7-2.9z"/><path class="st10" d="M129.7 174c.1-.3.3-.6.5-.8 16.3-18.9 34.5-23.3 47-23.7 13.5-.5 23 3.5 23.4 3.7 1.4.6 2 2.2 1.4 3.5-.6 1.4-2.2 2-3.5 1.4-.1 0-9-3.7-21.4-3.3-16.4.6-30.8 8-42.8 21.9-1 1.1-2.7 1.2-3.8.3-.9-.8-1.2-2-.8-3z"/><path class="st10" d="M132 182.9c.2-.4.4-.9.8-1.2 35.6-28.9 69.3-17.2 70.8-16.6 1.4.5 2.1 2 1.6 3.4s-2 2.1-3.4 1.6c-.4-.2-32.5-11.1-65.6 15.8-1.2.9-2.8.8-3.8-.4-.6-.7-.7-1.7-.4-2.6z"/><path class="st10" d="M138.1 192.8c.1-.4.4-.8.7-1.1 18.8-17.5 62.2-17.7 64-17.7 1.5 0 2.7 1.2 2.7 2.7 0 1.5-1.2 2.7-2.7 2.7-.4 0-43.1.2-60.4 16.3-1.1 1-2.8.9-3.8-.1-.7-.8-.9-1.8-.5-2.8z"/><path class="st10" d="M146 199.6c.2-.6.6-1.1 1.2-1.4 26.8-15.3 49.1-10.4 50-10.2 1.4.3 2.3 1.8 2 3.2-.3 1.4-1.8 2.3-3.2 2-.2 0-21.2-4.5-46.2 9.7-1.3.7-2.9.3-3.7-1-.3-.7-.4-1.6-.1-2.3z"/><path class="st10" d="M160.2 204.8c.1-.3.3-.6.5-.9 3-3.4 8.5-5.6 16.3-6.4 5.5-.6 10.2-.3 10.4-.3 1.5.1 2.6 1.4 2.5 2.8-.1 1.5-1.4 2.6-2.8 2.5-4.8-.3-18 0-22.3 4.9-1 1.1-2.7 1.2-3.8.2-.9-.7-1.2-1.8-.8-2.8z"/></g><g><circle class="st7" cx="217.2" cy="200.2" r="35.4"/><path class="st8" d="M221.1 162.2c.3.1.6.2.8.3 20 11.5 26.5 26.6 28.4 37.1 2.1 11.5-.6 20.2-.7 20.5-.4 1.4-2 2.2-3.4 1.7-1.4-.4-2.2-2-1.7-3.4.4-1.3 9.3-31.4-25.3-51.4-1.3-.7-1.7-2.4-1-3.7.6-.9 1.8-1.4 2.9-1.1z"/><path class="st8" d="M208.2 163.5c.3.1.6.2.9.4 21.1 13.3 28.2 30.7 30.4 42.9 2.4 13.3-.1 23.3-.2 23.7-.4 1.4-1.8 2.3-3.3 1.9-1.4-.4-2.3-1.8-1.9-3.3 0-.1 2.4-9.5.1-21.6-3-16.2-12.4-29.3-28-39.2-1.3-.8-1.6-2.5-.8-3.7.6-.9 1.7-1.3 2.8-1.1z"/><path class="st8" d="M199.7 167.1c.5.1.9.3 1.3.7 33.8 30.9 27.2 66.1 26.9 67.5-.3 1.5-1.7 2.4-3.2 2.1-1.5-.3-2.4-1.7-2.1-3.2.1-.5 6.2-33.8-25.3-62.5-1.1-1-1.2-2.7-.2-3.8.8-.7 1.7-1 2.6-.8z"/><path class="st8" d="M190.8 174.6c.4.1.8.3 1.1.5 20.1 16 26.7 58.9 26.9 60.7.2 1.5-.8 2.8-2.3 3-1.5.2-2.8-.8-3-2.3-.1-.4-6.5-42.6-25-57.3-1.2-.9-1.3-2.6-.4-3.8.7-.7 1.8-1 2.7-.8z"/><path class="st8" d="M185.3 183.4c.6.1 1.2.5 1.6 1 19.1 24.3 17.6 47 17.5 47.9-.1 1.5-1.4 2.6-2.9 2.5-1.5-.1-2.6-1.4-2.5-2.9 0-.2 1.3-21.7-16.4-44.2-.9-1.2-.7-2.9.5-3.8.6-.5 1.4-.7 2.2-.5z"/><path class="st8" d="M182.3 198.2c.3.1.6.2.9.4 3.8 2.5 6.8 7.6 8.7 15.2 1.4 5.4 1.8 10.1 1.8 10.3.1 1.5-1 2.8-2.4 2.9-1.5.1-2.8-1-2.9-2.4-.4-4.7-2.7-17.8-8.1-21.4-1.2-.8-1.6-2.5-.8-3.7.6-1.1 1.7-1.5 2.8-1.3z"/></g><path class="st11" d="M68.1 211.1c14.4 41 53.5 70.5 99.5 70.5s85.1-29.4 99.5-70.5h-199z"/><path class="st12" d="M268.2 211.1H67c-2.1 0-3.9-1.7-3.9-3.9 0-2.1 1.7-3.9 3.9-3.9h201.2c2.1 0 3.9 1.7 3.9 3.9 0 2.1-1.7 3.9-3.9 3.9z"/><path class="st6" d="M104 245.6c-.9 0-1.8-.2-2.7-.7-12.1-7.1-17.8-20.2-18-20.7-1.2-2.7.1-5.9 2.8-7 2.7-1.2 5.9.1 7 2.8.1.1 4.6 10.4 13.6 15.7 2.6 1.5 3.4 4.8 1.9 7.3-1 1.6-2.8 2.6-4.6 2.6z"/></g></svg>