<svg xmlns="http://www.w3.org/2000/svg" viewBox="0 0 298.5 171"><style>.st0{fill:#519E38;} .st1{fill:#E29A9A;} .st2{fill:#FEBEBD;}</style><g id="potato"><path class="st0" d="M110.9 47.2c-.3-9.2-13.5-16.7-29.7-16.7-16.3 0-29.5 7.4-29.7 16.7v10.1c.6 9.1 13.7 16.3 29.7 16.3s29.1-7.2 29.7-16.3V47.2zM189 47.2c-.3-9.2-13.5-16.7-29.7-16.7-16.3 0-29.5 7.4-29.7 16.7v10.1c.6 9.1 13.7 16.3 29.7 16.3s29.1-7.2 29.7-16.3V47.2zM264.3 47.2c-.3-9.2-13.5-16.7-29.7-16.7-16.3 0-29.5 7.4-29.7 16.7v10.1c.6 9.1 13.7 16.3 29.7 16.3s29.1-7.2 29.7-16.3V47.2zM110.9 113.4c-.3-9.2-13.5-16.7-29.7-16.7-16.3 0-29.5 7.4-29.7 16.7v10.1c.6 9.1 13.7 16.3 29.7 16.3s29.1-7.2 29.7-16.3v-10.1zM189 113.4c-.3-9.2-13.5-16.7-29.7-16.7-16.3 0-29.5 7.4-29.7 16.7v10.1c.6 9.1 13.7 16.3 29.7 16.3s29.1-7.2 29.7-16.3v-10.1zM264.3 113.4c-.3-9.2-13.5-16.7-29.7-16.7-16.3 0-29.5 7.4-29.7 16.7v10.1c.6 9.1 13.7 16.3 29.7 16.3s29.1-7.2 29.7-16.3v-10.1z"/><ellipse class="st1" cx="75.8" cy="118.2" rx="29.7" ry="17"/><path class="st1" d="M46.1 108.8h59.5v10.1H46.1z"/><ellipse class="st2" cx="75.8" cy="109.1" rx="29.7" ry="17"/><ellipse class="st1" cx="154.9" cy="118.2" rx="29.7" ry="17"/><path class="st1" d="M125.1 108.8h59.5v10.1h-59.5z"/><ellipse class="st2" cx="154.9" cy="109.1" rx="29.7" ry="17"/><ellipse class="st1" cx="229" cy="118.2" rx="29.7" ry="17"/><path class="st1" d="M199.3 108.8h59.5v10.1h-59.5z"/><ellipse class="st2" cx="229" cy="109.1" rx="29.7" ry="17"/><ellipse class="st1" cx="75.8" cy="52" rx="29.7" ry="17"/><path class="st1" d="M46.1 42.6h59.5v10.1H46.1z"/><ellipse class="st2" cx="75.8" cy="42.9" rx="29.7" ry="17"/><ellipse class="st1" cx="154.9" cy="52" rx="29.7" ry="17"/><path class="st1" d="M125.1 42.6h59.5v10.1h-59.5z"/><ellipse class="st2" cx="154.9" cy="42.9" rx="29.7" ry="17"/><ellipse class="st1" cx="229" cy="52" rx="29.7" ry="17"/><path class="st1" d="M199.3 42.6h59.5v10.1h-59.5z"/><ellipse class="st2" cx="229" cy="42.9" rx="29.7" ry="17"/></g></svg>