<svg xmlns="http://www.w3.org/2000/svg" viewBox="0 0 204.1 229.5"><style>.st0{fill:#2D2D2D;} .st1{fill:#4D4C4B;} .st2{fill:#F9DDC5;} .st3{fill:#EC145A;} .st4{fill:#62BA47;} .st5{fill:#FFFFFF;} .st6{fill:#231F20;} .st7{fill:#E29A9A;} .st8{fill:#FEBEBD;}</style><g id="lupa"><path class="st0" d="M162.6 198.1H45.2c-4.3 0-7.9-3.5-7.9-7.9V39c0-4.3 3.5-7.9 7.9-7.9h117.4c4.3 0 7.9 3.5 7.9 7.9v151.1c0 4.4-3.6 8-7.9 8z"/><path class="st1" d="M159.5 31.2c6 0 11 4.9 11 11v144.9c0 6-4.9 11-11 11H48.3c-6 0-11-4.9-11-11v-145c0-6 4.9-11 11-11h111.2m0-6.3H48.3c-9.6 0-17.4 7.8-17.4 17.4v144.9c0 9.6 7.8 17.4 17.4 17.4h111.2c9.6 0 17.4-7.8 17.4-17.4v-145c0-9.5-7.8-17.3-17.4-17.3z"/><path class="st2" d="M30.9 134v53.1c0 9.6 7.8 17.4 17.4 17.4h111.2c9.6 0 17.4-7.8 17.4-17.4V134h-146z"/><path class="st3" d="M115.7 158.2h-.6c-1.6-3.7-5.4-6.4-9.7-6.4-4.3 0-8.1 2.6-9.7 6.4h-.3c-5.2 0-10.2 5.2-10.2 10.4 0 4.1 3.4 9.6 7.1 10.9 1.2-.3 2.9-.8 5.1-1.1-2.5-.9-2.7-2.6-2.7-2.7 0-.2.1-.4.3-.4.2 0 .4.1.4.3 0 .1.3 2 3.9 2.4h.1c.8-.1 1.7-.2 2.7-.3-.8-1.1-1.2-2.9-1.3-3.2 0-.2.1-.4.3-.4.2 0 .4.1.4.3.1.7.7 2.6 1.5 3.2v.1c2.8-.1 5.8-.1 9.1.4.2-.1.3-.1.4-.1 3.2-.7 3.4-2.3 3.4-2.4 0-.2.2-.4.4-.3.2 0 .4.2.3.4 0 .1-.2 1.7-2.7 2.7 1.6.3 3.2.6 4.9 1.1 3.5-1.4 6.7-6.7 6.7-10.7.3-5.3-4.6-10.6-9.8-10.6z"/><circle class="st4" cx="123.2" cy="153.4" r="11.5"/><path class="st5" d="M120.4 151.8c-.9.1-1.2 1.2-1.2 2v.3c0 .4 0 .7-.1 1 0 .1-.1.4-.1.4-.3 0-.6-.5-.7-.7-.2-.6-.4-1.2-.5-1.8-.1-.7-.2-1.4-.2-2v-.8-.3-.2c.1-.5-.6 0-.8.2-.8 1.3-.5 2.9-.5 4.4 0 .4 0 .8-.1 1.2 0 .3-.1.7-.3 1-.1.1-.4 0-.5 0-.2-.1-.3-.3-.3-.5s-.3-.1-.4 0c-.2.2-.3.5-.3.7.1.5.6 1 1.1.8.8-.3 1.2-1.3 1.4-2.1.1-.4.2-.8.2-1.2.1.6.3 1.1.6 1.6.2.4.5.8 1 .7.4-.1.6-.5.8-.9.2.4.4.7.9.6.5 0 .9-.6 1-.9.2-.5.3-1 .3-1.5-.1-.7-.3-2.1-1.3-2zm.3 3.3c0 .1 0 .2-.1.3-.2 0-.3-.3-.4-.4-.2-.3-.2-.7-.2-1v-1.1c0-.1 0-.2.1-.3.5.3.6.9.6 1.4 0 .3.1.7 0 1.1zM131.8 153.1c-1-.4-1.6 1-1.8 1.8-.2.7-.4 2 .5 2.4.4.2.9-.1 1.2-.4.3-.3.5-.8.6-1.3.2-.8.4-2.1-.5-2.5zm-.6 3.3c0 .1-.1.2-.1.2-.2-.1-.2-.4-.2-.6-.1-.4 0-.7 0-1.1.1-.3.2-.7.3-1 0-.1.1-.2.1-.2.4.5.3 1.1.2 1.6-.1.4-.2.8-.3 1.1zM129 153.3c.2-.3.4-.5.5-.8.4-.6.7-1.2.7-1.9s-.9-.7-1.4-.5c-.6.3-1 1-1.2 1.7-.3.9-.4 1.8-.4 2.7-.3.4-1 1.2-1.5.8-.1-.1-.2-.3-.2-.4.4-.4.8-.9 1.1-1.4.3-.5.5-1.2-.1-1.6-.5-.3-1.1 0-1.5.4-.3.4-.5.9-.5 1.4 0 .3-.1.7 0 1.2-.3.2-.7.3-1 .2-.4-.1-.5-.5-.6-.8-.1-.5-.1-1 0-1.5 0-.1.1-.3.1-.4v-.1c.2.1.3.5.4.7.1.3 1-.2.9-.5-.1-.3-.2-.7-.6-.9-.4-.2-.9.1-1.1.3-.6.6-.7 1.5-.6 2.4 0 .5.1 1.2.6 1.5.6.4 1.5 0 2.1-.3.2.4.4.7.9.6.6-.1 1.2-.4 1.6-.8 0 .5.1 1 .5 1.2.5.3 1.2 0 1.6-.5.5-.6.7-1.4.5-2.2-.2-.4-.5-.5-.8-.5zm-3.5-.4c0-.1.1-.3.2-.4.2.1.3.4.3.6-.1.4-.3.8-.6 1.1v-.2c0-.4 0-.7.1-1.1zm3.3-1.9c.1-.1.2-.3.3-.4.4.4 0 1.1-.2 1.5-.2.4-.5.8-.7 1.2.1-.4.1-.8.2-1.2.1-.4.3-.7.4-1.1zm-.2 4.7s-.1.1-.1.2h-.1c-.3-.1-.3-.7-.3-.9v-.6c.1-.1.2-.2.3-.4.2-.2.4.1.4.4.2.4 0 .9-.2 1.3z"/><path class="st4" d="M71.9 161.1c-.1.1.3.2.4.3 0 .1-.2 0-.3 0 0 .1.1.1.2.2 0 0-.1 0-.1.1.2.1.3.4.6.6.5.2 1.2.4 1.2.5.1-.9-.3-1.8.4-2.6 0-.1-.1-.1-.1-.2h.1c0-.1-.2-.1-.1-.2h.2c.1 0-.1-.1-.1-.2s.2 0 .2 0c0-.1-.3-.2-.3-.5.2.1.3.2.4.3-.1-.2-.3-.3-.3-.6.2.1.3.3.5.4-.1-.2-.3-.4-.3-.7.3.1.3.4.6.5-.1-.4-.4-.8-.4-1.2.3.3.4.7.6 1 0-.4-.2-.9-.2-1.5.2.4.3.9.5 1.4.1-.5-.3-1.2-.1-1.7.2.5.2 1 .4 1.5 0-.5-.1-1.2 0-1.8.2.5.2 1.2.3 1.8.1-.4-.1-1.3.2-1.5v1.3c0 .7.4 1.5.1 2.1-.2.7-.8 1.3-.8 2.2 1.1.3 1.4.3 2.3.3.4 0 .7-.2 1.1-.1.1 0 .2.2.3.2.3.1.5.1.8.1-.4.1-1.3.2-1.4.2-.2 0-.8-.1-.4-.1.3 0 .6 0 .6-.1 0-.3-.5-.1-.8 0-.9.1-1.4.3-2.9 0 .4 0 .4-.3.4-.5-.1-1.2.1-1.4.5-2 .6-1-.2-1-.4-1.4-.1.1 0 .4 0 .5-.1-.1-.2-.4-.3-.5-.1.1.1.3.1.5l-.3-.3c-.1.1.1.3.1.4-.1 0-.2-.2-.3-.2-.1.1.1.1 0 .2-.1 0-.1-.1-.2 0 0 .1 0 .2.1.2 0 .1-.1 0-.1 0-.1 0 0 .1 0 .2-.8-.1-.2 2.3-.8 3.2.4.3 1.3.2 1.9.1-.7.5-1.4.3-2.1.4-.1 0-.2.1-.3.1-.4.1-.9.3-1.3.4-.4.2-1.9.5-2 .5 3.6-1.2 3-1.4 3.3-1.7-.6-.2-.8-.9-1.2-1.1 0 0 0-.1.1-.1 0-.1-.1 0-.2 0 0-.1 0-.1.1-.1 0-.1-.2 0-.3-.1 0-.1.1-.1.2-.1-.1-.1-.3-.1-.4-.2.1-.1.2-.1.4-.1-.1-.1-.4-.1-.5-.2h.5c-.2-.2-.6-.2-.7-.5.3 0 .5.1.7.2-.3-.2-.7-.3-.8-.7.3.1.6.3.9.5-.1-.2-.7-.4-.9-.8.4 0 .7.4 1.1.5-.2 0-.5-.3-.8-.4.1.2.5.5.9.7-.2.1-.5-.1-.7-.2 0 .2.4.4.6.5-.4.2-.5.1-.7.1"/><path class="st4" d="M75.1 154.7c-4 0-7.2 3.2-7.2 7.2s3.2 7.2 7.2 7.2 7.2-3.2 7.2-7.2-3.3-7.2-7.2-7.2m0 .3c3.8 0 6.9 3.1 6.9 6.9 0 3.8-3.1 6.9-6.9 6.9-3.8 0-6.9-3.1-6.9-6.9-.1-3.8 3-6.9 6.9-6.9"/><path class="st5" d="M90.1 174.1c.8 1.4 2.4.2 2.6-1.1.2-1.9-1-3.7-1.9-5.3-.1-.2-.4.1-.4.1-.9.9-1.9 2.3-1.3 3.3.2.3.9-.7.7-1-.3-.5.4-1.2.8-1.6-.1 0-.3.1-.4.1.4.6.8 1.3 1.1 1.9.2.4.3.8.5 1.2.1.3.2.5.3.8-.3 1.3-.6 1.5-1.2.7-.3-.3-.9.6-.8.9z"/><path class="st5" d="M95 172.2c-.3.8-.8-.6-.8-.8-.1-.3-.2-.6-.5-.8-.5-.4-1.1-.2-1.6.2h.3c-.3-.8-.8-2.8.9-2.1.4.2.9-.8.6-1-1-.5-1.7-.1-2.3.8-.6.9-.3 2.1.1 3 .1.2.2.1.4 0 1.4-1.1 1.5 1.2 2.2 1.8.6.5 1.2-.9 1.3-1.2.2-.6-.5-.4-.6.1zM98.4 171.8c.3.9 1.3.6 1.8-.1.3-.5.3-1 .3-1.6 0-.8 0-1.6.3-2.5-.3.2-.6.3-.9.5.2 1.1.3 3 1.2 3.8.7.6 1.7-.8 1.9-1.2.3-.6-.6-.2-.7.1-.3.8-.8-.4-.9-.6-.3-.9-.4-1.8-.5-2.7-.1-.5-.9.3-.9.5-.2.6-.2 1.1-.3 1.7v1.5c0 .5-.3.2-.4 0-.3-.5-1 .3-.9.6zM105.5 167.5c.1 1.3.2 2.6.1 3.9 0 .5.8-.1.8-.4.1-.8.3-1.2.8-1.7.6-.6.9-1.3 1.2-2 .2-.6-.8-.1-.9.2-.4 1-.4 2.2-.3 3.2 0 .3 0 .7.3.9.4.3 1-.2 1.3-.4.5-.4.1-.8-.4-.4-.4.3-.3-1.2-.3-1.4 0-.7.1-1.5.4-2.1-.3.1-.6.1-.9.2-.2.8-.5 1.3-1.1 1.9-.6.6-.7 1.3-.8 2.1.3-.2.5-.3.8-.4.1-1.3 0-2.6-.1-3.9 0-.6-.9 0-.9.3zM111.8 171.3c-.1 1 .8 1.3 1.6.8.8-.4 1.1-1.3 1.3-2.1.1-.6.2-1.6-.4-2.1-.3-.2-.9-.1-1.2.1-.6.3-.9.8-1 1.4-.1.5 1 0 1-.3.1-.6.4-.6.6-.1.1.3.1.7.1 1.1 0 .4-.1.8-.3 1.2-.1.1-.1.3-.3.4.1-.1 0-.1-.1-.1-.3-.1-.3-.4-.3-.6.1-.5-.9 0-1 .3z"/><path class="st5" d="M112.2 167.5c0 2.4-.5 4.9-1.1 7.2-.1.4.8 0 .9-.3.7-2.4 1.2-4.9 1.3-7.4 0-.3-1.1.2-1.1.5zM120.8 170.4c-.5.8-.9 1.7-1.2 2.6-.1.4-.2.9.1 1.3.4.5 1.2.3 1.7.1.7-.3 0-.6-.5-.4-.3.1-.3-.7-.3-.8.1-.4.2-.8.4-1.2.2-.6.5-1.1.9-1.6.2-.4-.9-.3-1.1 0z"/><path class="st5" d="M117.7 173c0 .8.8.9 1.4.7.9-.3 1.5-1.1 1.9-1.8.2-.4-.9-.2-1 .1-.1.2 0 0 .1 0-.1 0-.1-.1-.2-.1-.2-.1-.2-.3-.2-.5 0-.3.2-.7.4-.9.3-.5.5.2.4.5-.2.4.9.3 1.1 0 .3-.7-.2-1.2-1-1.2-.9 0-1.6.9-1.8 1.6-.4 1.5 1.7 1.7 2.3.6-.4 0-.7 0-1 .1-.2.4-.4.7-.7 1-.3.3-.6 0-.5-.3-.2-.5-1.2-.1-1.2.2zM105.4 170.8c-.5.4-.7-1.3-.7-1.4-.1-.7-.1-1.5-.1-2.2 0-.5-.9.2-.9.5v1.9c0 .3 0 .7-.1 1-.1.4 0 .5-.4.3-.9-.5-.6-2.6-.4-3.4.1-.6-.8 0-.9.3-.1.8-.4 4.3 1.1 4 1.9-.3 1.4-3.4 1.5-4.6-.3.2-.6.3-.9.5 0 1.1 0 2.4.4 3.4.3.9 1.1.5 1.6 0 .6-.4.2-.8-.2-.3z"/><path class="st5" d="M117.8 172.6c-.6.3-.2-1.5-.2-1.6.2-.7.4-1.4.7-2.1.2-.4-.9-.1-1 .2l-.6 1.8c-.1.3-.3.6-.4.9-.2.3-.2.4-.4.2-.6-.8.3-2.6.8-3.3.3-.5-.7-.2-.9 0-.4.7-1.8 3.9-.3 4.1 1.8.3 2.5-2.7 2.9-3.9-.3.1-.7.1-1 .2-.4 1.1-.8 2.2-.8 3.4 0 1 .9.9 1.5.6.5-.3.2-.8-.3-.5zM111.5 168.1c.1-1.3-1.7-.8-2.3-.2-.7.8-.8 1.9-.7 2.9.1.9.8 1.3 1.7.7 1-.7 1-2.3 1.3-3.4-.4.1-.7.2-1 .3-.1.7-1 4.4 1.1 3.5.5-.2.6-.9-.1-.6-.2.1-.2-1-.2-1.1-.1-.7 0-1.4.2-2.1.1-.5-1 0-1 .3-.1.7-.2 1.3-.4 2 0 .2-.2.7-.3.7-.2 0-.2-.3-.3-.4-.2-.5-.1-1 0-1.5 0-.3.1-.5.2-.8.1-.1.1-.3.2-.4.2-.2.5.3.5.4 0 .5 1 0 1.1-.3z"/><g><path class="st5" d="M94.6 169.1c.2.7.5 4.3 1.9 3.7 1.6-.6 1-3.6.8-4.8 0-.5-.9.3-.8.6.1.8.2 1.7.3 2.5 0 .3.1 1-.3.8-.5-.2-.6-1.3-.7-1.7-.1-.6-.2-1.3-.4-1.9-.1-.3-.9.5-.8.8z"/><path class="st5" d="M96.5 168.6c.4 1.6.8 3.2 1.2 4.9.1.4.5 1.9-.1 1.9-1-.1.1-2.8.3-3.2.3-.6-.4-.5-.6 0-.6 1.1-1 2.5-.5 3.7.2.5.9.5 1.2.1.6-.7.7-1.7.5-2.6-.2-1.8-.8-3.6-1.2-5.4 0-.5-.8.3-.8.6z"/></g><path class="st5" d="M113.5 168.4c.8.8 1.7 1 2.7.5.1-.1.4-.2.3-.4-.1-.2-.4 0-.5 0-.6.3-1.3-.2-1.7-.6-.2-.2-1 .3-.8.5z"/><g><path class="st3" d="M119 188.3v-8c-12.5-3.5-23.2-1-26.8 0v8.3c3.5-1.1 14.2-3.7 26.8-.3z"/><path class="st3" d="M93.5 188.9c2 .6 6.2 1.6 11.9 1.6s10.2-1.1 12.3-1.8c-10.9-2.6-20.1-.9-24.2.2z"/></g><g><path class="st6" d="M166.5 66c-.2-8.4-12.3-15.3-27.2-15.3-14.9 0-27 6.8-27.2 15.3v9.2c.6 8.3 12.5 14.9 27.2 14.9s26.7-6.6 27.2-14.9V66z"/><ellipse class="st7" cx="134.2" cy="70.4" rx="27.2" ry="15.5"/><path class="st7" d="M107 61.8h54.5V71H107z"/><ellipse class="st8" cx="134.2" cy="62.1" rx="27.2" ry="15.5"/></g><g><path class="st6" d="M105.9 66c-.2-8.4-12.3-15.3-27.2-15.3-14.9 0-27 6.8-27.2 15.3v9.2c.5 8.3 12.5 15 27.1 15 14.7 0 26.7-6.6 27.2-14.9l.1-9.3z"/><ellipse class="st7" cx="73.6" cy="70.4" rx="27.2" ry="15.5"/><path class="st7" d="M46.4 61.8h54.5V71H46.4z"/><ellipse class="st8" cx="73.6" cy="62.1" rx="27.2" ry="15.5"/></g><g><path class="st6" d="M166.5 109.6c-.2-8.4-12.3-15.3-27.2-15.3-14.9 0-27 6.8-27.2 15.3v9.2c.6 8.3 12.5 14.9 27.2 14.9s26.7-6.6 27.2-14.9v-9.2z"/><ellipse class="st7" cx="134.2" cy="114" rx="27.2" ry="15.5"/><path class="st7" d="M107 105.4h54.5v9.2H107z"/><ellipse class="st8" cx="134.2" cy="105.7" rx="27.2" ry="15.5"/></g><g><path class="st6" d="M105.9 109.6c-.2-8.4-12.3-15.3-27.2-15.3-14.9 0-27 6.8-27.2 15.3v9.2c.6 8.3 12.5 14.9 27.2 14.9s26.7-6.6 27.2-14.9v-9.2z"/><ellipse class="st7" cx="73.6" cy="114" rx="27.2" ry="15.5"/><path class="st7" d="M46.4 105.4h54.5v9.2H46.4z"/><ellipse class="st8" cx="73.6" cy="105.7" rx="27.2" ry="15.5"/></g><path class="st5" d="M53.4 87.3H52c-2 0-3.6-1.6-3.6-3.6V58.5c0-2 1.6-3.6 3.6-3.6h1.4c2 0 3.6 1.6 3.6 3.6v25.2c0 2-1.6 3.6-3.6 3.6z"/><circle class="st5" cx="52.7" cy="45.5" r="4.6"/></g></svg>