<svg xmlns="http://www.w3.org/2000/svg" viewBox="0 0 303.8 216"><style>.st0{fill:#519E38;} .st1{fill:#FEBEBD;} .st2{fill:#9D360A;} .st3{fill:#CA655F;} .st4{fill:#0E3656;} .st5{fill:#446666;} .st6{fill:#FFFFFF;} .st7{fill:#F4E6C6;} .st8{fill:none;stroke:#FCF1D9;stroke-width:10;stroke-linecap:round;stroke-miterlimit:10;}</style><g id="lupa"><path class="st0" d="M205.4 81.2c-24.6-45.8-78-20.2-78-20.2s-16.4 8.2-49.6 2.4c-27.8-4.8-40.1 21.2-36.3 35-1.5 7.3-.2 14.2 4.1 17.3 12 8.7 28.4 13 50.6 11.6 22.2-1.4 83.8 8.7 83.8 8.7s37.3 1.4 31.7-27.7c1.5-6.4.2-15.1-6.3-27.1z"/><path class="st1" d="M176.6 119s50.1 1.9 25.5-43.8-78-20.2-78-20.2-16.4 8.2-49.6 2.4-44.3 32.7-32.2 41.3 28.4 13 50.6 11.6c22.1-1.4 83.7 8.7 83.7 8.7z"/><path class="st2" d="M176.6 118.7s-61.7-10.1-83.8-8.7c-22.2 1.4-38.5-2.9-50.6-11.6-2-1.4-3.3-3.7-4-6.4-1.6 7.4-.3 14.4 4 17.5 12 8.7 28.4 13 50.6 11.6 22.2-1.4 83.8 8.7 83.8 8.7s37.5 1.4 31.7-27.9c-4.5 17.9-31.7 16.8-31.7 16.8z"/><path class="st3" d="M85.6 67S66 56.4 51.2 68.6s-9 36.6 21.5 34.7c30.5-1.9 34 1.3 35-3.2 1-4.6-22.1-33.1-22.1-33.1zM176.4 111s27.6 6.7 28.3-18.9c.6-25.5-27-15.9-27-15.9s-8 9-15.1 9.6-19.9 1.9-14.1 11.9c5.8 10 27.9 13.3 27.9 13.3zM188.3 67.9s-5.1-21.2-49.5-11.6 4.2 6.1 10.6 10.3c6.5 4.2 24.5 12.2 38.9 1.3zM111.6 98.4s6.7 6.4 16.1 6.7c9.3.3 17.3 2.2 19.4 0S123.2 83 123.2 83 94.6 65 92 66c-2.6 1 19.6 32.4 19.6 32.4zM156.9 76.6s-9-8-20.2-8.3c-11.2-.3-16.1-4.7-19.3-4.6-3.2.1-12.5 3.1 0 9.8s15.5 11 25 12.7c9.6 1.6 22.5-6.7 14.5-9.6z"/><path class="st4" d="M231.3 78.8c-13.8-13.8-36.2-13.8-49.9 0-13.8 13.8-13.8 36.2 0 49.9 13.8 13.8 36.2 13.8 49.9 0 13.8-13.8 13.8-36.1 0-49.9zm-6.2 43.7c-5 5-11.7 7.8-18.7 7.8s-13.7-2.8-18.7-7.8-7.8-11.7-7.8-18.7c0-7.1 2.8-13.7 7.8-18.7s11.7-7.8 18.7-7.8 13.7 2.8 18.7 7.8 7.8 11.7 7.8 18.7c-.1 7-2.8 13.7-7.8 18.7z"/><path class="st5" d="M228.17 131.786l6.223-6.222 24.96 24.96-6.222 6.223z"/><path class="st4" d="M233.326 143.302l12.516-12.516 33.304 33.304-12.515 12.516z"/><path class="st6" d="M199 117.3c-1.7 1.7-4.5 1.7-6.2 0-3.6-3.6-5.6-8.4-5.6-13.5s2-9.9 5.6-13.5c1.7-1.7 4.5-1.7 6.2 0 1.7 1.7 1.7 4.5 0 6.2-1.9 1.9-3 4.5-3 7.3s1.1 5.3 3 7.3c1.8 1.6 1.8 4.4 0 6.2z"/><g><path class="st0" d="M159.1 147.4s-6.5-29-38.2-24-59.7 28.2-71.1 34.7c-11.4 6.4 46.7 16.1 71.1 12.5 24.3-3.6 38.4-7.8 38.2-23.2z"/><path class="st7" d="M155 141.2s-6.5-29-38.2-24c-31.7 5-59.7 28.2-71.1 34.7-11.4 6.4 46.7 16.1 71.1 12.5s38.5-7.9 38.2-23.2z"/><path class="st8" d="M120.5 126.1s-9.6.8-23.2 6.6"/></g></g></svg>