<svg xmlns="http://www.w3.org/2000/svg" viewBox="0 0 275.1 230"><style>.st0{fill:#519E38;} .st1{fill:#EAAEA4;} .st2{fill:#1D3805;} .st3{fill:#001700;} .st4{fill:#A11D21;} .st5{fill:#FFFFFF;} .st6{fill:#D77B80;} .st7{fill:#EFEFEF;} .st8{fill:#DDDDDD;}</style><g id="lupa"><path class="st0" d="M252.6 129h-22.2C225 102.3 192 81.8 152 81.8c-40 0-73 20.5-78.4 47.2H51.4c-2.1 0-3.9 1.7-3.9 3.9 0 2.1 1.7 3.9 3.9 3.9h1.1c14.4 41 53.5 70.5 99.5 70.5s85.1-29.4 99.5-70.5h1.2c2.1 0 3.9-1.7 3.9-3.9-.1-2.2-1.9-3.9-4-3.9z"/><ellipse class="st1" cx="142.8" cy="130.9" rx="79.2" ry="55"/><circle class="st2" cx="137.9" cy="50.1" r="2.1"/><circle class="st3" cx="124.6" cy="44.9" r="2.1"/><circle class="st3" cx="121.6" cy="50.1" r="2.1"/><circle class="st3" cx="133.4" cy="59.3" r="2.1"/><circle class="st3" cx="164.4" cy="29.4" r="2.1"/><circle class="st3" cx="179.4" cy="46.5" r="2.1"/><circle class="st4" cx="152.3" cy="50.1" r="2.1"/><circle class="st4" cx="141.2" cy="34.2" r="2.1"/><circle class="st4" cx="154.4" cy="36.3" r="2.1"/><circle class="st2" cx="145.5" cy="40.6" r="2.1"/><circle class="st2" cx="164.4" cy="39.7" r="2.1"/><circle class="st2" cx="164.4" cy="51.5" r="2.1"/><circle class="st2" cx="183.4" cy="61.4" r="2.1"/><circle class="st2" cx="192.8" cy="48.6" r="2.1"/><circle class="st2" cx="98.6" cy="44.9" r="2.1"/><circle class="st4" cx="112.5" cy="44.4" r="2.1"/><circle class="st2" cx="143.4" cy="61.4" r="2.1"/><circle class="st5" cx="133.4" cy="37.2" r="2.1"/><circle class="st5" cx="155.9" cy="59.3" r="2.1"/><circle class="st5" cx="165.9" cy="66.1" r="2.1"/><circle class="st5" cx="177.9" cy="35" r="2.1"/><circle class="st2" cx="128.9" cy="29.8" r="2.1"/><path class="st6" d="M72.8 132.5h6c0-21 18.1-41.8 25.5-49.4-5 1.9-9.6 4.2-13.9 6.9-.7 1-1.5 1.9-2.2 3-10.2 14-15.4 27.3-15.4 39.5zM149.7 91.7c-11.7 14.5-17.6 28.2-17.6 40.9h6c0-24.2 26-48.2 31.7-53.2-2.4-.6-4.8-1.1-7.2-1.6-3.3 3.2-8.1 7.9-12.9 13.9zM150.9 132.5h6c0-19.7 17.3-39.3 26.7-48.6-2-.8-4.1-1.6-6.2-2.3-2.7 2.8-5.8 6.1-9 10-11.6 14.5-17.5 28.3-17.5 40.9zM170.9 132.5h6c0-15.6 10.9-31.2 20.1-41.6-1.7-1.1-3.4-2.1-5.3-3.1-1.1 1.2-2.1 2.5-3.2 3.8-11.7 14.5-17.6 28.3-17.6 40.9zM205.4 97.3c-8.8 12.4-13.3 24.2-13.3 35.2h6c0-10.9 5.3-21.8 11.6-30.9-1.4-1.5-2.8-2.9-4.3-4.3zM148.2 76.3c-1.6-.1-3.1-.1-4.7-.1-3.2 2.9-8.9 8.4-14.7 15.5-11.7 14.5-17.6 28.2-17.6 40.9h6c0-27 32.4-53.8 32.8-54.1l2.6-1.7-4.4-.5zM127.7 77.2c-2.7.4-5.4.8-8 1.4-3.3 3.1-7.7 7.6-12.1 13.1C95.9 106.1 90 119.9 90 132.5h6c0-27 32.4-53.8 32.8-54.1l1.8-1.6-2.9.4z"/><path class="st7" d="M43.2 130.9c14.4 41 53.5 70.5 99.5 70.5s85.1-29.4 99.5-70.5h-199z"/><path class="st8" d="M243.4 130.9H42.2c-2.1 0-3.9-1.7-3.9-3.9 0-2.1 1.7-3.9 3.9-3.9h201.2c2.1 0 3.9 1.7 3.9 3.9 0 2.1-1.8 3.9-3.9 3.9z"/><path class="st5" d="M79.1 165.4c-.9 0-1.8-.2-2.7-.7-12.1-7.1-17.8-20.2-18-20.7-1.2-2.7.1-5.9 2.8-7 2.7-1.2 5.9.1 7 2.8.1.1 4.6 10.4 13.6 15.7 2.6 1.5 3.4 4.8 1.9 7.3-.9 1.6-2.7 2.6-4.6 2.6z"/></g></svg>