<svg xmlns="http://www.w3.org/2000/svg" viewBox="0 0 348 169"><style>.st0{fill:#2D2D2D;} .st1{fill:#4D4C4B;} .st2{fill:#FFFFFF;} .st3{fill:#231F20;} .st4{fill:#F9F5DC;} .st5{fill:#F9DDC5;} .st6{fill:#EC145A;} .st7{fill:#62BA47;}</style><g id="lupa"><path class="st0" d="M210.5 136.9h-70c-3.4 0-6.2-2.8-6.2-6.2v-91c0-3.4 2.8-6.2 6.2-6.2h70c3.4 0 6.2 2.8 6.2 6.2v91c0 3.4-2.8 6.2-6.2 6.2z"/><path class="st1" d="M209.9 33.4c3.7 0 6.8 3.1 6.8 6.8V130c0 3.7-3.1 6.8-6.8 6.8H141c-3.7 0-6.8-3.1-6.8-6.8V40.2c0-3.7 3.1-6.8 6.8-6.8h68.9m0-3.9H141c-5.9 0-10.8 4.8-10.8 10.8v89.8c0 5.9 4.8 10.8 10.8 10.8h68.9c5.9 0 10.8-4.8 10.8-10.8V40.2c0-5.9-4.8-10.7-10.8-10.7z"/><path class="st2" d="M143.7 68.2c-1.5 0-2.6-1.2-2.6-2.6V50.8c0-1.5 1.2-2.6 2.6-2.6 1.5 0 2.6 1.2 2.6 2.6v14.8c.1 1.4-1.1 2.6-2.6 2.6z"/><circle class="st2" cx="143.7" cy="42.3" r="2.8"/><path class="st0" d="M313.9 136.9h-69.2c-3.7 0-6.6-3-6.6-6.6V40.1c0-3.7 3-6.6 6.6-6.6h69.2c3.7 0 6.6 3 6.6 6.6v90.1c.1 3.7-2.9 6.7-6.6 6.7z"/><path class="st1" d="M313.8 33.4c3.7 0 6.8 3.1 6.8 6.8V130c0 3.7-3.1 6.8-6.8 6.8h-68.9c-3.7 0-6.8-3.1-6.8-6.8V40.2c0-3.7 3.1-6.8 6.8-6.8h68.9m0-3.9h-68.9c-5.9 0-10.8 4.8-10.8 10.8v89.8c0 5.9 4.8 10.8 10.8 10.8h68.9c5.9 0 10.8-4.8 10.8-10.8V40.2c-.1-5.9-4.9-10.7-10.8-10.7z"/><path class="st2" d="M247.6 68.2c-1.5 0-2.6-1.2-2.6-2.6V50.8c0-1.5 1.2-2.6 2.6-2.6 1.5 0 2.6 1.2 2.6 2.6v14.8c0 1.4-1.2 2.6-2.6 2.6z"/><circle class="st2" cx="247.6" cy="42.3" r="2.8"/><path class="st0" d="M106.8 136.9H35.3c-3 0-5.5-2.5-5.5-5.5V38.9c0-3 2.5-5.5 5.5-5.5h71.5c3 0 5.5 2.5 5.5 5.5v92.4c0 3.1-2.5 5.6-5.5 5.6z"/><path class="st1" d="M105.5 33.4c3.7 0 6.8 3.1 6.8 6.8V130c0 3.7-3.1 6.8-6.8 6.8H36.6c-3.7 0-6.8-3.1-6.8-6.8V40.2c0-3.7 3.1-6.8 6.8-6.8h68.9m0-3.9H36.6c-5.9 0-10.8 4.8-10.8 10.8v89.8c0 5.9 4.8 10.8 10.8 10.8h68.9c5.9 0 10.8-4.8 10.8-10.8V40.2c0-5.9-4.8-10.7-10.8-10.7z"/><path class="st3" d="M94 58.4c-9.8-10.3-26.1-11-36.8-1.5s-11.9 25.8-2.8 36.7l1.5 1.6c.8.9 2.2 1 3.1.2L95.4 63c.9-.8 1-2.2.2-3.1L94 58.4z"/><circle class="st3" cx="51.3" cy="90.3" r="3.5"/><circle class="st3" cx="48.5" cy="84.3" r="3.5"/><circle class="st3" cx="47.9" cy="77.5" r="3.5"/><circle class="st3" cx="48.6" cy="70.8" r="3.5"/><circle class="st3" cx="51" cy="64.6" r="3.5"/><circle class="st3" cx="54.9" cy="59" r="3.5"/><circle class="st3" cx="60.5" cy="54.6" r="3.5"/><circle class="st3" cx="66.7" cy="51.4" r="3.5"/><circle class="st3" cx="73.2" cy="50.3" r="3.5"/><circle class="st3" cx="79.7" cy="50.4" r="3.5"/><circle class="st3" cx="85.8" cy="52.7" r="3.5"/><circle class="st3" cx="91.8" cy="55.9" r="3.5"/><path class="st4" d="M89.4 57.4c-9.8-10.3-26.1-11-36.8-1.5s-11.9 25.8-2.8 36.7l1.5 1.6c.8.9 2.2 1 3.1.2L90.7 62c.9-.8 1-2.2.2-3.1l-1.5-1.5z"/><circle class="st4" cx="46.7" cy="89.2" r="3.5"/><circle class="st4" cx="43.9" cy="83.2" r="3.5"/><circle class="st4" cx="43.2" cy="76.5" r="3.5"/><circle class="st4" cx="44" cy="69.7" r="3.5"/><circle class="st4" cx="46.4" cy="63.6" r="3.5"/><circle class="st4" cx="50.3" cy="57.9" r="3.5"/><circle class="st4" cx="55.8" cy="53.6" r="3.5"/><circle class="st4" cx="62" cy="50.4" r="3.5"/><circle class="st4" cx="68.5" cy="49.3" r="3.5"/><circle class="st4" cx="75.1" cy="49.3" r="3.5"/><circle class="st4" cx="81.1" cy="51.7" r="3.5"/><circle class="st4" cx="87.1" cy="54.8" r="3.5"/><path class="st3" d="M51.5 104.9c9.8 10.3 26.1 11 36.8 1.5s11.9-25.8 2.8-36.7L89.7 68c-.8-.9-2.2-1-3.1-.2l-36.4 32.4c-.9.8-1 2.2-.2 3.1l1.5 1.6z"/><circle class="st3" cx="94.2" cy="73.1" r="3.5"/><circle class="st3" cx="97" cy="79.1" r="3.5"/><circle class="st3" cx="97.6" cy="85.8" r="3.5"/><circle class="st3" cx="96.9" cy="92.5" r="3.5"/><circle class="st3" cx="94.5" cy="98.7" r="3.5"/><circle class="st3" cx="90.6" cy="104.4" r="3.5"/><circle class="st3" cx="85.1" cy="108.7" r="3.5"/><circle class="st3" cx="78.9" cy="111.9" r="3.5"/><circle class="st3" cx="72.3" cy="113" r="3.5"/><circle class="st3" cx="65.8" cy="113" r="3.5"/><circle class="st3" cx="59.7" cy="110.6" r="3.5"/><circle class="st3" cx="53.7" cy="107.5" r="3.5"/><g><path class="st4" d="M56.1 106c9.8 10.3 26.1 11 36.8 1.5s11.9-25.8 2.8-36.7L94.3 69c-.8-.9-2.2-1-3.1-.2l-36.4 32.4c-.9.8-1 2.2-.2 3.1l1.5 1.7z"/><circle class="st4" cx="98.9" cy="74.1" r="3.5"/><circle class="st4" cx="101.6" cy="80.1" r="3.5"/><circle class="st4" cx="102.3" cy="86.9" r="3.5"/><circle class="st4" cx="101.6" cy="93.6" r="3.5"/><circle class="st4" cx="99.2" cy="99.8" r="3.5"/><circle class="st4" cx="95.2" cy="105.4" r="3.5"/><circle class="st4" cx="89.7" cy="109.8" r="3.5"/><circle class="st4" cx="83.5" cy="113" r="3.5"/><circle class="st4" cx="77" cy="114.1" r="3.5"/><circle class="st4" cx="70.4" cy="114.1" r="3.5"/><circle class="st4" cx="64.4" cy="111.7" r="3.5"/><circle class="st4" cx="58.4" cy="108.5" r="3.5"/></g><g><path class="st3" d="M160.9 46.5s-7-1.8-9.7 4.3c-2.7 6.1 3.9 8.4 4.3 9.3.4.9 1.6 1.6 2.2.4.7-1.2.7-2.9 2.3-1.8 1.6 1.1.6 2.1 0 2.6-.7.4.7 2.3 2.6 1 1.9-1.3 5.2-2.2 5.9-5.4.8-3.2.1-9.3-7.6-10.4z"/><path class="st4" d="M160.2 44.7s-7-1.8-9.7 4.3c-2.7 6.1 3.9 8.4 4.3 9.3.4.9 1.6 1.6 2.2.4.7-1.2.7-2.9 2.3-1.8 1.6 1.1.6 2.1 0 2.6-.7.4.7 2.3 2.6 1s5.2-2.2 5.9-5.4c.8-3.2.2-9.2-7.6-10.4z"/></g><g><path class="st3" d="M208.9 64.5s-7-1.8-9.7 4.3c-2.7 6.1 3.9 8.4 4.3 9.3.4.9 1.6 1.6 2.2.4.7-1.2.7-2.9 2.3-1.8 1.6 1.1.6 2.1 0 2.6-.7.4.7 2.3 2.6 1s5.2-2.2 5.9-5.4.1-9.2-7.6-10.4z"/><path class="st4" d="M208.2 62.8s-7-1.8-9.7 4.3c-2.7 6.1 3.9 8.4 4.3 9.3s1.6 1.6 2.2.4c.7-1.2.7-2.9 2.3-1.8 1.6 1.1.6 2.1 0 2.6-.7.4.7 2.3 2.6 1s5.2-2.2 5.9-5.4c.7-3.2.1-9.3-7.6-10.4z"/></g><g><path class="st3" d="M154.5 67.9s-7.2 1.1-7.2 7.7c-.1 6.7 6.9 6.2 7.6 6.8.7.7 2.1.9 2.2-.5.1-1.3-.5-3 1.4-2.6s1.4 1.7 1 2.4c-.4.7 1.5 1.9 2.8-.1 1.3-2 3.9-4.1 3.3-7.3-.6-3-3.5-8.4-11.1-6.4z"/><path class="st4" d="M153.2 66.6s-7.2 1.1-7.2 7.7c-.1 6.7 6.9 6.2 7.6 6.8.7.7 2.1.9 2.2-.5s-.5-3 1.4-2.6 1.4 1.7 1 2.4 1.5 1.9 2.8-.1 3.9-4.1 3.3-7.3-3.5-8.4-11.1-6.4z"/></g><path class="st3" d="M174.3 76.7s6.2 3.7 10.5-1.4-1.4-9.2-1.6-10.1c-.1-1-1.1-2-2-1-1 .9-1.5 2.6-2.7 1.1-1.3-1.5 0-2.2.7-2.5.7-.2 0-2.4-2.2-1.7s-5.6.7-7.2 3.5c-1.5 2.9-2.6 8.9 4.5 12.1z"/><path class="st4" d="M173.4 74.6s6.2 3.7 10.5-1.4-1.4-9.2-1.6-10.1c-.1-1-1.1-2-2-1-1 .9-1.5 2.6-2.7 1.1-1.3-1.5 0-2.2.7-2.5.7-.2 0-2.4-2.2-1.7s-5.6.7-7.2 3.5c-1.5 2.9-2.6 8.9 4.5 12.1z"/><path class="st3" d="M181.6 50.9s6.3-3.6 3.8-9.9-8.7-3.2-9.6-3.5-2.2 0-1.9 1.3c.4 1.3 1.6 2.6-.4 2.9s-2-1.1-1.8-1.9c.2-.8-2.1-1.2-2.5 1.1-.4 2.3-2.1 5.2-.4 8 1.8 2.8 6.5 6.6 12.8 2z"/><path class="st4" d="M179.7 49.7s6.3-3.6 3.8-9.9-8.7-3.2-9.6-3.5-2.2 0-1.9 1.3 1.6 2.6-.4 2.9-2-1.1-1.8-1.9c.2-.8-2.1-1.2-2.5 1.1-.4 2.3-2.1 5.2-.4 8 1.8 2.7 6.5 6.6 12.8 2z"/><path class="st3" d="M199.5 64s6.3-3.6 3.8-9.9c-2.4-6.2-8.7-3.2-9.6-3.5-.9-.4-2.2 0-1.9 1.3s1.6 2.6-.4 2.9-2-1.1-1.8-1.9c.2-.8-2.1-1.2-2.5 1.1-.4 2.3-2.1 5.2-.4 8s6.5 6.6 12.8 2z"/><path class="st4" d="M197.6 62.7s6.3-3.6 3.8-9.9-8.7-3.2-9.6-3.5c-.9-.4-2.2 0-1.9 1.3s1.6 2.6-.4 2.9-2-1.1-1.8-1.9c.2-.8-2.1-1.2-2.5 1.1-.4 2.3-2.1 5.2-.4 8 1.7 2.8 6.5 6.7 12.8 2z"/><path class="st3" d="M193.3 92.1s7.2-.6 7.7-7.2c.5-6.7-6.5-6.6-7.1-7.3-.7-.7-2-1-2.3.3-.2 1.3.3 3-1.6 2.5-1.9-.5-1.3-1.8-.8-2.4.5-.6-1.4-1.9-2.8-.1-1.4 1.9-4.2 3.8-3.8 7s3 8.6 10.7 7.2z"/><path class="st4" d="M192 90.1s7.2-.6 7.7-7.2c.5-6.7-6.5-6.6-7.1-7.3-.7-.7-2-1-2.3.3s.3 3-1.6 2.5-1.3-1.8-.8-2.4c.5-.6-1.4-1.9-2.8-.1-1.4 1.9-4.2 3.8-3.8 7 .5 3.1 3.1 8.7 10.7 7.2z"/><path class="st3" d="M199 94.9s-5.8-4.3-10.6.4c-4.7 4.7.6 9.2.6 10.2s.9 2.1 1.9 1.2c1-.8 1.7-2.5 2.8-.8 1.1 1.7-.2 2.2-1 2.4s-.2 2.4 2 1.9c2.3-.5 5.6-.1 7.5-2.8 1.9-2.7 3.5-8.6-3.2-12.5z"/><path class="st4" d="M198.6 97.2s-5.8-4.3-10.6.4c-4.7 4.7.6 9.2.6 10.2s.9 2.1 1.9 1.2 1.7-2.5 2.8-.8c1.1 1.7-.2 2.2-1 2.4-.8.2-.2 2.4 2 1.9s5.6-.1 7.5-2.8 3.6-8.6-3.2-12.5z"/><path class="st3" d="M151.2 102.6s7.2-.6 7.7-7.2c.5-6.7-6.5-6.6-7.1-7.3-.7-.7-2-1-2.3.3-.2 1.3.3 3-1.6 2.5-1.9-.5-1.3-1.8-.8-2.4.5-.6-1.4-1.9-2.8-.1-1.4 1.9-4.2 3.8-3.8 7s3.1 8.7 10.7 7.2z"/><path class="st4" d="M150 100.7s7.2-.6 7.7-7.2c.5-6.7-6.5-6.6-7.1-7.3-.7-.7-2-1-2.3.3-.2 1.3.3 3-1.6 2.5-1.9-.5-1.3-1.8-.8-2.4.5-.6-1.4-1.9-2.8-.1-1.4 1.9-4.2 3.8-3.8 7 .4 3.1 3 8.6 10.7 7.2z"/><path class="st3" d="M166.9 98.6s6.2 3.7 10.5-1.4-1.4-9.2-1.6-10.1c-.1-1-1.1-2-2-1-1 .9-1.5 2.6-2.7 1.1-1.3-1.5 0-2.2.7-2.5.7-.2 0-2.4-2.2-1.7s-5.6.7-7.2 3.5-2.6 8.9 4.5 12.1z"/><path class="st4" d="M166.1 96.5s6.2 3.7 10.5-1.4-1.4-9.2-1.6-10.1c-.1-1-1.1-2-2-1-1 .9-1.5 2.6-2.7 1.1-1.3-1.5 0-2.2.7-2.5.7-.2 0-2.4-2.2-1.7s-5.6.7-7.2 3.5-2.6 8.9 4.5 12.1z"/><g><path class="st3" d="M263.6 51.5s-13.3 7.8-3.6 18.3c9.7 10.5 25.6 4 27.3-1.6 1.6-5.5 1.5-10.8-5.7-16.7s-18 0-18 0z"/><path class="st4" d="M261.5 49.3s-13.3 7.8-3.6 18.3c9.7 10.5 25.6 4 27.3-1.6 1.6-5.5 1.5-10.8-5.7-16.7s-18 0-18 0z"/><path class="st4" d="M267 47.2s3.3-.6 1.3-4.5c-2-3.8 2.4-3.2 3.3-2.5.9.7 1.1 3.6 1.9 2.1.8-1.4 2.3-3.4 5-1.3 2.8 2.1-2.6 2.5-1.6 3.4 1 1 3-.4 3.1-1s4.4-.1 2.4 2.6-2.3.1-3.4 1.2c-1.1 1-1.3 2.1-.3 2.8 1 .7-4.3.3-4.3.3l-7.4-3.1z"/></g><g><path class="st3" d="M253.8 86.1s-13.3 7.8-3.6 18.3c9.7 10.5 25.6 4 27.3-1.6 1.6-5.5 1.5-10.8-5.7-16.7-7.2-5.9-18 0-18 0z"/><path class="st4" d="M251.7 83.9s-13.3 7.8-3.6 18.3 25.6 4 27.3-1.6c1.6-5.5 1.5-10.8-5.7-16.7-7.2-6-18 0-18 0z"/><path class="st4" d="M257.3 81.8s3.3-.6 1.3-4.5c-2-3.8 2.4-3.2 3.3-2.5.9.7 1.1 3.6 1.9 2.1.8-1.4 2.3-3.4 5-1.3 2.8 2.1-2.6 2.5-1.6 3.4 1 1 3-.4 3.1-1 .1-.6 4.4-.1 2.4 2.6s-2.3.1-3.4 1.2c-1.1 1-1.3 2.1-.3 2.8 1 .7-4.3.3-4.3.3l-7.4-3.1z"/></g><g><path class="st3" d="M306 70.5s13.3 7.8 3.6 18.3c-9.7 10.5-25.6 4-27.3-1.6-1.6-5.5-1.5-10.8 5.7-16.7 7.2-5.9 18 0 18 0z"/><path class="st4" d="M308.1 68.3s13.3 7.8 3.6 18.3c-9.7 10.5-25.6 4-27.3-1.6-1.6-5.5-1.5-10.8 5.7-16.7 7.2-5.9 18 0 18 0z"/><path class="st4" d="M302.5 66.2s-3.3-.6-1.3-4.5c2-3.8-2.4-3.2-3.3-2.5-.9.7-1.1 3.6-1.9 2.1-.8-1.4-2.3-3.4-5-1.3-2.8 2.1 2.6 2.5 1.6 3.4-1 1-3-.4-3.1-1-.1-.6-4.4-.1-2.4 2.6 2 2.7 2.3.1 3.4 1.2 1.1 1 1.3 2.1.3 2.8-1 .7 4.3.3 4.3.3l7.4-3.1z"/></g><path class="st5" d="M130.2 97.2v32.9c0 5.9 4.8 10.8 10.8 10.8h68.9c5.9 0 10.8-4.8 10.8-10.8V97.2h-90.5z"/><g><path class="st6" d="M182.7 112.1h-.4c-1-2.3-3.3-3.9-6-3.9s-5 1.6-6 3.9h-.2c-3.2 0-6.3 3.2-6.3 6.4 0 2.5 2.1 6 4.4 6.8.7-.2 1.8-.5 3.2-.7-1.6-.5-1.7-1.6-1.7-1.6 0-.1.1-.2.2-.3.1 0 .2.1.3.2 0 .1.2 1.2 2.4 1.5h.1c.5-.1 1.1-.1 1.7-.2-.5-.7-.8-1.8-.8-2 0-.1.1-.3.2-.3s.3.1.3.2c.1.4.4 1.6.9 2 1.7-.1 3.6-.1 5.7.2.1 0 .2 0 .2-.1 2-.4 2.1-1.4 2.1-1.5 0-.1.1-.2.3-.2.1 0 .2.1.2.2 0 0-.1 1.1-1.7 1.7 1 .2 2 .4 3 .7 2.2-.8 4.2-4.2 4.2-6.6 0-3-3-6.4-6.3-6.4z"/><circle class="st7" cx="187.4" cy="109.2" r="7.1"/><path class="st2" d="M185.7 108.2c-.6.1-.7.8-.8 1.2v.8c0 .1 0 .3-.1.3-.2 0-.4-.3-.4-.4-.1-.4-.2-.7-.3-1.1-.1-.4-.1-.8-.1-1.3v-.5-.2-.1c.1-.3-.4 0-.5.1-.5.8-.3 1.8-.3 2.7v.7c0 .2-.1.5-.2.6-.1.1-.2 0-.3 0-.1-.1-.2-.2-.2-.3 0-.1-.2-.1-.2 0-.1.1-.2.3-.2.4.1.3.3.6.7.5.5-.2.8-.8.9-1.3.1-.2.1-.5.1-.7.1.4.2.7.3 1 .1.2.3.5.6.4.2 0 .4-.3.5-.5.1.2.3.4.5.4.3 0 .5-.3.6-.6.1-.3.2-.6.2-.9-.1-.4-.2-1.3-.8-1.2zm.2 2v.2c-.1 0-.2-.2-.2-.3-.1-.2-.1-.4-.2-.6v-.7-.2c.3.2.4.6.4.9v.7zM192.7 109c-.6-.2-1 .6-1.1 1.1-.1.5-.2 1.2.3 1.5.3.1.6-.1.7-.3.2-.2.3-.5.4-.8.2-.4.3-1.3-.3-1.5zm-.3 2l-.1.1c-.1-.1-.1-.3-.1-.4v-.7c0-.2.1-.4.2-.6l.1-.1c.2.3.2.7.1 1-.1.3-.2.6-.2.7z"/><path class="st2" d="M191 109.1c.1-.2.2-.3.3-.5.2-.4.5-.8.4-1.2 0-.4-.6-.4-.9-.3-.4.2-.6.6-.8 1-.2.5-.2 1.1-.3 1.7-.2.2-.6.7-.9.5-.1 0-.1-.2-.2-.3.3-.3.5-.6.7-.9.2-.3.3-.8 0-1-.3-.2-.7 0-.9.3-.2.2-.3.6-.3.9v.7c-.2.1-.4.2-.6.1-.2 0-.3-.3-.4-.5-.1-.3-.1-.6 0-.9 0-.1 0-.2.1-.3v-.1c.2.1.2.3.2.4.1.2.6-.1.5-.3-.1-.2-.1-.4-.4-.5-.2-.1-.5.1-.7.2-.4.4-.4 1-.4 1.5 0 .3.1.7.4.9.4.2.9 0 1.3-.2.1.2.3.4.6.4.4-.1.7-.3 1-.5 0 .3.1.6.3.7.3.2.7 0 1-.3.3-.4.4-.9.3-1.3.1-.1-.1-.2-.3-.2zm-2.1-.2c0-.1.1-.2.1-.2.2 0 .2.2.2.4s-.2.5-.4.7v-.1c0-.4 0-.6.1-.8zm2-1.2c0-.1.1-.2.2-.2.2.3 0 .7-.1.9-.1.2-.3.5-.5.7 0-.2.1-.5.1-.7.1-.2.2-.5.3-.7zm-.1 2.9s0 .1-.1.1h-.1c-.2-.1-.2-.4-.2-.6v-.4l.2-.2c.1-.1.2.1.3.2.1.4 0 .7-.1.9z"/><g><path class="st7" d="M155.6 114c0 .1.2.1.3.2 0 .1-.1 0-.2 0 0 .1.1.1.1.1s-.1 0-.1.1c.1.1.2.3.4.3.3.1.7.2.7.3 0-.6-.2-1.1.3-1.6 0-.1-.1 0-.1-.1h.1c0-.1-.1-.1-.1-.2h.1c.1 0-.1-.1-.1-.1 0-.1.1 0 .1 0 0-.1-.2-.2-.2-.3.1 0 .2.1.2.2 0-.1-.2-.2-.2-.4.1 0 .2.2.3.2-.1-.2-.2-.3-.2-.4.2.1.2.3.4.3-.1-.2-.3-.5-.2-.7.2.2.2.4.3.6 0-.3-.2-.6-.1-.9.1.2.2.6.3.9 0-.3-.2-.7-.1-1.1.1.3.1.6.2 1 0-.3-.1-.8 0-1.1.1.3.1.7.2 1.1 0-.3-.1-.8.1-1v.8c0 .5.2.9.1 1.3-.2.4-.5.8-.5 1.4.7.2.9.2 1.4.2.2 0 .4-.1.7-.1.1 0 .1.1.2.1.2.1.3.1.5.1-.3.1-.8.1-.8.1-.1 0-.5-.1-.2-.1.2 0 .4 0 .3-.1 0-.2-.3 0-.5 0-.6.1-.9.2-1.8 0 .3 0 .2-.2.2-.3 0-.7.1-.9.3-1.2.4-.6-.1-.6-.3-.9-.1.1 0 .2 0 .3-.1-.1-.1-.2-.2-.3-.1.1 0 .2.1.3-.1 0-.1-.1-.2-.2-.1.1.1.2.1.2-.1 0-.1-.1-.2-.1-.1.1 0 .1 0 .2h-.1c0 .1 0 .1.1.1h-.1c-.1 0 0 .1 0 .1-.5-.1-.1 1.4-.5 2 .2.2.8.1 1.2.1-.5.3-.9.2-1.3.3-.1 0-.1 0-.2.1-.3.1-.5.2-.8.3-.3.1-1.2.3-1.3.3 2.2-.8 1.9-.9 2-1-.4-.1-.5-.5-.7-.7l.1-.1h-.1s0-.1.1-.1c0-.1-.1 0-.2-.1 0-.1.1-.1.1-.1 0-.1-.2 0-.2-.1s.1-.1.2-.1c-.1-.1-.3 0-.3-.2h.3c-.1-.1-.4-.1-.4-.3.2 0 .3.1.5.1-.2-.1-.4-.2-.5-.4l.6.3c-.1-.2-.4-.3-.5-.5.2 0 .4.3.7.3-.1 0-.3-.2-.5-.2.1.2.3.3.5.4-.1.1-.3-.1-.4-.1 0 .1.2.2.4.3-.2.2-.3.2-.4.2"/><path class="st7" d="M157.6 110c-2.5 0-4.5 2-4.5 4.5s2 4.5 4.5 4.5 4.5-2 4.5-4.5-2-4.5-4.5-4.5m0 .2c2.4 0 4.3 1.9 4.3 4.3s-1.9 4.3-4.3 4.3-4.3-1.9-4.3-4.3 1.9-4.3 4.3-4.3"/></g><g><path class="st2" d="M166.9 122c.5.9 1.5.1 1.6-.7.1-1.2-.6-2.3-1.2-3.3-.1-.1-.2 0-.3.1-.6.5-1.2 1.4-.8 2 .1.2.5-.4.4-.6-.2-.3.2-.8.5-1-.1 0-.2.1-.3.1.2.4.5.8.7 1.2.1.2.2.5.3.7.1.2.1.3.2.5-.2.8-.4.9-.7.4-.1-.2-.5.4-.4.6z"/><path class="st2" d="M169.9 120.8c-.2.5-.5-.4-.5-.5-.1-.2-.2-.4-.3-.5-.3-.3-.7-.1-1 .1h.2c-.2-.5-.5-1.8.6-1.3.2.1.6-.5.4-.6-.6-.3-1-.1-1.4.5-.4.6-.2 1.3.1 1.9 0 .1.1.1.2 0 .8-.7.9.7 1.4 1.1.4.3.7-.6.8-.8 0-.3-.4-.2-.5.1zM172 120.6c.2.6.8.4 1.1-.1.2-.3.2-.6.2-1 0-.5 0-1 .2-1.5l-.6.3c.1.7.2 1.8.8 2.4.4.4 1-.5 1.1-.7.2-.4-.4-.1-.5.1-.2.5-.5-.2-.5-.4-.2-.5-.3-1.1-.3-1.7 0-.3-.5.2-.6.3-.1.3-.2.7-.2 1V120.2c0 .3-.2.1-.2 0 0-.3-.5.2-.5.4zM176.4 117.9c.1.8.1 1.6.1 2.4 0 .3.5-.1.5-.3.1-.5.2-.7.5-1 .4-.4.6-.8.7-1.3.1-.4-.5 0-.6.1-.3.6-.3 1.3-.2 2 0 .2 0 .4.2.6.2.2.6-.1.8-.2.3-.2.1-.5-.2-.2-.2.2-.2-.8-.2-.9 0-.4.1-.9.2-1.3-.2 0-.4.1-.6.1-.1.5-.3.8-.7 1.2-.3.4-.4.8-.5 1.3.2-.1.3-.2.5-.3.1-.8 0-1.6 0-2.4.1-.3-.5 0-.5.2zM180.4 120.3c-.1.6.5.8 1 .5.5-.3.7-.8.8-1.3.1-.4.2-1-.3-1.3-.2-.1-.5 0-.7 0-.4.2-.6.5-.6.9-.1.3.6 0 .6-.2.1-.4.2-.4.4 0 .1.2.1.4 0 .7 0 .3-.1.5-.2.8 0 .1-.1.2-.2.2 0 0 0-.1-.1 0-.2-.1-.2-.2-.2-.4.1-.4-.5-.1-.5.1z"/><path class="st2" d="M180.6 117.9c0 1.5-.3 3-.7 4.5-.1.3.5 0 .6-.2.4-1.5.8-3 .8-4.6 0-.2-.7.1-.7.3zM185.9 119.7c-.3.5-.6 1.1-.7 1.6-.1.2-.1.6.1.8.3.3.7.2 1 .1.4-.2 0-.4-.3-.3-.2.1-.2-.5-.2-.5 0-.3.1-.5.2-.8.1-.3.3-.7.5-1 .2-.1-.5-.1-.6.1z"/><path class="st2" d="M184 121.4c0 .5.5.6.9.5.5-.2.9-.7 1.2-1.1.1-.3-.5-.1-.6 0-.1.1 0 0 .1 0 0 0-.1 0-.1-.1-.1-.1-.1-.2-.1-.3 0-.2.1-.4.2-.6.2-.3.3.1.3.3-.1.3.6.2.7 0 .2-.4-.1-.8-.6-.8-.6 0-1 .6-1.1 1-.2.9 1 1 1.4.4h-.6c-.1.2-.3.4-.4.6-.2.2-.3 0-.3-.2-.3-.2-1 0-1 .3zM176.4 120c-.3.3-.4-.8-.4-.9v-1.4c0-.3-.6.1-.6.3V119.8c0 .2 0 .3-.2.2-.5-.3-.4-1.6-.3-2.1.1-.4-.5 0-.5.2-.1.5-.3 2.7.7 2.5 1.2-.2.9-2.1.9-2.9l-.6.3c0 .7 0 1.5.2 2.1.2.6.7.3 1 0 .3-.2.1-.4-.2-.1z"/><path class="st2" d="M184.1 121.1c-.4.2-.1-.9-.1-1 .1-.4.3-.9.4-1.3.1-.3-.6-.1-.6.1-.1.4-.3.7-.4 1.1l-.3.6c-.1.2-.1.3-.3.1-.4-.5.2-1.6.5-2.1.2-.3-.5-.2-.6 0-.2.4-1.1 2.4-.2 2.6 1.1.2 1.5-1.7 1.8-2.4-.2 0-.4.1-.6.1-.2.7-.5 1.4-.5 2.1 0 .6.5.6 1 .4.4-.2.2-.5-.1-.3zM180.1 118.3c.1-.8-1.1-.5-1.4-.1-.4.5-.5 1.2-.5 1.8.1.6.5.8 1 .4.8-.4.8-1.4.9-2.1-.2.1-.4.1-.6.2-.1.4-.6 2.7.7 2.2.3-.1.4-.5-.1-.4-.1 0-.1-.6-.1-.7 0-.4.1-.9.1-1.3.1-.3-.6 0-.6.2-.1.4-.1.8-.2 1.2 0 .1-.1.4-.2.4s-.2-.2-.2-.2c-.1-.3-.1-.6 0-.9 0-.2.1-.3.2-.5 0-.1.1-.2.1-.2.1-.1.3.2.3.2 0 .3.6 0 .6-.2z"/><g><path class="st2" d="M169.7 118.9c.2.5.3 2.6 1.2 2.3 1-.4.6-2.3.5-3 0-.3-.5.2-.5.4.1.5.1 1 .2 1.6 0 .2.1.6-.2.5-.3-.1-.4-.8-.4-1-.1-.4-.1-.8-.3-1.2-.1-.3-.5.2-.5.4z"/><path class="st2" d="M170.9 118.6c.2 1 .5 2 .8 3 .1.2.3 1.2 0 1.2-.6 0 .1-1.8.2-2 .2-.4-.2-.3-.4 0-.4.7-.7 1.6-.3 2.3.1.3.5.3.7.1.4-.5.4-1 .3-1.6-.1-1.1-.5-2.2-.8-3.3-.1-.4-.5.1-.5.3z"/></g><path class="st2" d="M181.4 118.5c.5.5 1.1.6 1.7.3.1 0 .2-.1.2-.2-.1-.1-.2 0-.3 0-.3.2-.8-.1-1-.4-.2-.1-.7.2-.6.3z"/></g><g><path class="st6" d="M184.8 130.8v-5c-7.8-2.2-14.4-.6-16.6 0v5.1c2.2-.6 8.8-2.2 16.6-.1z"/><path class="st6" d="M169 131.2c1.2.4 3.9 1 7.4 1 3.5 0 6.3-.7 7.6-1.1-6.7-1.6-12.5-.6-15 .1z"/></g></g><path class="st5" d="M25.8 97.2v32.9c0 5.9 4.8 10.8 10.8 10.8h68.9c5.9 0 10.8-4.8 10.8-10.8V97.2H25.8z"/><g><path class="st6" d="M78.3 112.1h-.4c-1-2.3-3.3-3.9-6-3.9s-5 1.6-6 3.9h-.2c-3.2 0-6.3 3.2-6.3 6.4 0 2.5 2.1 6 4.4 6.8.7-.2 1.8-.5 3.2-.7-1.6-.5-1.7-1.6-1.7-1.6 0-.1.1-.2.2-.3.1 0 .2.1.3.2 0 .1.2 1.2 2.4 1.5h.1c.5-.1 1.1-.1 1.7-.2-.5-.7-.8-1.8-.8-2 0-.1.1-.3.2-.3s.3.1.3.2c.1.4.4 1.6.9 2 1.7-.1 3.6-.1 5.7.2.1 0 .2 0 .2-.1 2-.4 2.1-1.4 2.1-1.5 0-.1.1-.2.3-.2.1 0 .2.1.2.2 0 0-.1 1.1-1.7 1.7 1 .2 2 .4 3 .7 2.2-.8 4.2-4.2 4.2-6.6 0-3-3-6.4-6.3-6.4z"/><circle class="st7" cx="83" cy="109.2" r="7.1"/><path class="st2" d="M81.3 108.2c-.6.1-.7.8-.8 1.2v.8c0 .1 0 .3-.1.3-.2 0-.4-.3-.4-.4-.1-.4-.2-.7-.3-1.1-.1-.4-.1-.8-.1-1.3v-.5-.2-.1c.1-.3-.4 0-.5.1-.5.8-.3 1.8-.3 2.7v.7c0 .2-.1.5-.2.6-.1.1-.2 0-.3 0-.1-.1-.2-.2-.2-.3 0-.1-.2-.1-.2 0-.1.1-.2.3-.2.4.1.3.3.6.7.5.5-.2.8-.8.9-1.3.1-.2.1-.5.1-.7.1.4.2.7.3 1 .1.2.3.5.6.4.2 0 .4-.3.5-.5.1.2.3.4.5.4.3 0 .5-.3.6-.6.1-.3.2-.6.2-.9-.1-.4-.2-1.3-.8-1.2zm.2 2v.2c-.1 0-.2-.2-.2-.3-.1-.2-.1-.4-.2-.6v-.7-.2c.3.2.4.6.4.9v.7zM88.3 109c-.6-.2-1 .6-1.1 1.1-.1.5-.2 1.2.3 1.5.3.1.6-.1.7-.3.2-.2.3-.5.4-.8.2-.4.3-1.3-.3-1.5zm-.4 2l-.1.1c-.1-.1-.1-.3-.1-.4v-.7c0-.2.1-.4.2-.6l.1-.1c.2.3.2.7.1 1 0 .3-.1.6-.2.7z"/><path class="st2" d="M86.6 109.1c.1-.2.2-.3.3-.5.2-.4.5-.8.4-1.2 0-.4-.6-.4-.9-.3-.4.2-.6.6-.8 1-.2.5-.2 1.1-.3 1.7-.2.2-.6.7-.9.5-.1 0-.1-.2-.2-.3.3-.3.5-.6.7-.9.2-.3.3-.8 0-1-.3-.2-.7 0-.9.3-.2.2-.3.6-.3.9v.7c-.2.1-.4.2-.6.1-.2 0-.3-.3-.4-.5-.1-.3-.1-.6 0-.9 0-.1 0-.2.1-.3v-.1c.2.1.2.3.2.4.1.2.6-.1.5-.3-.1-.2-.1-.4-.4-.5-.2-.1-.5.1-.7.2-.4.4-.4 1-.4 1.5 0 .3.1.7.4.9.4.2.9 0 1.3-.2.1.2.3.4.6.4.4-.1.7-.3 1-.5 0 .3.1.6.3.7.3.2.7 0 1-.3.3-.4.4-.9.3-1.3.1-.1-.1-.2-.3-.2zm-2.1-.2c0-.1.1-.2.1-.2.2 0 .2.2.2.4s-.2.5-.4.7v-.1c0-.4 0-.6.1-.8zm2-1.2c0-.1.1-.2.2-.2.2.3 0 .7-.1.9-.1.2-.3.5-.5.7 0-.2.1-.5.1-.7.1-.2.2-.5.3-.7zm-.1 2.9s0 .1-.1.1h-.1c-.2-.1-.2-.4-.2-.6v-.4l.2-.2c.1-.1.2.1.3.2.1.4 0 .7-.1.9z"/><g><path class="st7" d="M51.2 114c0 .1.2.1.3.2 0 .1-.1 0-.2 0 0 .1.1.1.1.1s-.1 0-.1.1c.1.1.2.3.4.3.3.1.7.2.7.3 0-.6-.2-1.1.3-1.6 0-.1-.1 0-.1-.1h.1c0-.1-.1-.1-.1-.2h.1c.1 0-.1-.1-.1-.1 0-.1.1 0 .1 0 0-.1-.2-.2-.2-.3.1 0 .2.1.2.2 0-.1-.2-.2-.2-.4.1 0 .2.2.3.2-.1-.2-.2-.3-.2-.4.2.1.2.3.4.3-.1-.2-.3-.5-.2-.7.2.2.2.4.3.6 0-.3-.2-.6-.1-.9.1.2.2.6.3.9 0-.3-.2-.7-.1-1.1.1.3.1.6.2 1 0-.3-.1-.8 0-1.1.1.3.1.7.2 1.1 0-.3-.1-.8.1-1v.8c0 .5.2.9.1 1.3-.2.4-.5.8-.5 1.4.7.2.9.2 1.4.2.2 0 .4-.1.7-.1.1 0 .1.1.2.1.2.1.3.1.5.1-.3.1-.8.1-.8.1-.1 0-.5-.1-.2-.1.2 0 .4 0 .3-.1 0-.2-.3 0-.5 0-.6.1-.9.2-1.8 0 .3 0 .2-.2.2-.3 0-.7.1-.9.3-1.2.4-.6-.1-.6-.3-.9-.1.1 0 .2 0 .3-.1-.1-.1-.2-.2-.3-.1.1 0 .2.1.3-.1 0-.1-.1-.2-.2-.1.1.1.2.1.2-.1 0-.1-.1-.2-.1-.1.1 0 .1 0 .2h-.1c0 .1 0 .1.1.1h-.1c-.1 0 0 .1 0 .1-.5-.1-.1 1.4-.5 2 .2.2.8.1 1.2.1-.5.3-.9.2-1.3.3-.1 0-.1 0-.2.1-.3.1-.5.2-.8.3-.3.1-1.2.3-1.3.3 2.2-.8 1.9-.9 2-1-.4-.1-.5-.5-.7-.7l.1-.1h-.1s0-.1.1-.1c0-.1-.1 0-.2-.1 0-.1.1-.1.1-.1 0-.1-.2 0-.2-.1s.1-.1.2-.1c-.1-.1-.3 0-.3-.2h.3c-.1-.1-.4-.1-.4-.3.2 0 .3.1.5.1-.2-.1-.4-.2-.5-.4l.6.3c-.1-.2-.4-.3-.5-.5.2 0 .4.3.7.3-.1 0-.3-.2-.5-.2.1.2.3.3.5.4-.1.1-.3-.1-.4-.1 0 .1.2.2.4.3-.2.2-.3.2-.4.2"/><path class="st7" d="M53.2 110c-2.5 0-4.5 2-4.5 4.5s2 4.5 4.5 4.5 4.5-2 4.5-4.5-2-4.5-4.5-4.5m0 .2c2.4 0 4.3 1.9 4.3 4.3s-1.9 4.3-4.3 4.3-4.3-1.9-4.3-4.3 1.9-4.3 4.3-4.3"/></g><g><path class="st2" d="M62.5 122c.5.9 1.5.1 1.6-.7.1-1.2-.6-2.3-1.2-3.3-.1-.1-.2 0-.3.1-.6.5-1.2 1.4-.8 2 .1.2.5-.4.4-.6-.2-.3.2-.8.5-1-.1 0-.2.1-.3.1.2.4.5.8.7 1.2.1.2.2.5.3.7.1.2.1.3.2.5-.2.8-.4.9-.7.4-.1-.2-.5.4-.4.6z"/><path class="st2" d="M65.5 120.8c-.2.5-.5-.4-.5-.5-.1-.2-.2-.4-.3-.5-.3-.3-.7-.1-1 .1h.2c-.2-.5-.5-1.8.6-1.3.2.1.6-.5.4-.6-.6-.3-1-.1-1.4.5-.4.6-.2 1.3.1 1.9 0 .1.1.1.2 0 .8-.7.9.7 1.4 1.1.4.3.7-.6.8-.8 0-.3-.4-.2-.5.1zM67.6 120.6c.2.6.8.4 1.1-.1.2-.3.2-.6.2-1 0-.5 0-1 .2-1.5l-.6.3c.1.7.2 1.8.8 2.4.4.4 1-.5 1.1-.7.2-.4-.4-.1-.5.1-.2.5-.5-.2-.5-.4-.2-.5-.3-1.1-.3-1.7 0-.3-.5.2-.6.3-.1.3-.2.7-.2 1V120.2c0 .3-.2.1-.2 0 0-.3-.5.2-.5.4zM72 117.9c.1.8.1 1.6.1 2.4 0 .3.5-.1.5-.3.1-.5.2-.7.5-1 .4-.4.6-.8.7-1.3.1-.4-.5 0-.6.1-.3.6-.3 1.3-.2 2 0 .2 0 .4.2.6.2.2.6-.1.8-.2.3-.2.1-.5-.2-.2-.2.2-.2-.8-.2-.9 0-.4.1-.9.2-1.3-.2 0-.4.1-.6.1-.1.5-.3.8-.7 1.2-.3.4-.4.8-.5 1.3.2-.1.3-.2.5-.3.1-.8 0-1.6 0-2.4.1-.3-.5 0-.5.2zM76 120.3c-.1.6.5.8 1 .5.5-.3.7-.8.8-1.3.1-.4.2-1-.3-1.3-.2-.1-.5 0-.7 0-.4.2-.6.5-.6.9-.1.3.6 0 .6-.2.1-.4.2-.4.4 0 .1.2.1.4 0 .7 0 .3-.1.5-.2.8 0 .1-.1.2-.2.2 0 0 0-.1-.1 0-.2-.1-.2-.2-.2-.4.1-.4-.5-.1-.5.1z"/><path class="st2" d="M76.2 117.9c0 1.5-.3 3-.7 4.5-.1.3.5 0 .6-.2.4-1.5.8-3 .8-4.6 0-.2-.7.1-.7.3zM81.5 119.7c-.3.5-.6 1.1-.7 1.6-.1.2-.1.6.1.8.3.3.7.2 1 .1.4-.2 0-.4-.3-.3-.2.1-.2-.5-.2-.5 0-.3.1-.5.2-.8.1-.3.3-.7.5-1 .2-.1-.5-.1-.6.1z"/><path class="st2" d="M79.6 121.4c0 .5.5.6.9.5.5-.2.9-.7 1.2-1.1.1-.3-.5-.1-.6 0-.1.1 0 0 .1 0 0 0-.1 0-.1-.1-.1-.1-.1-.2-.1-.3 0-.2.1-.4.2-.6.2-.3.3.1.3.3-.1.3.6.2.7 0 .2-.4-.1-.8-.6-.8-.6 0-1 .6-1.1 1-.2.9 1 1 1.4.4h-.6c-.1.2-.3.4-.4.6-.2.2-.3 0-.3-.2-.3-.2-1 0-1 .3zM72 120c-.3.3-.4-.8-.4-.9v-1.4c0-.3-.6.1-.6.3V119.8c0 .2 0 .3-.2.2-.5-.3-.4-1.6-.3-2.1.1-.4-.5 0-.5.2-.1.5-.3 2.7.7 2.5 1.2-.2.9-2.1.9-2.9l-.6.3c0 .7 0 1.5.2 2.1.2.6.7.3 1 0 .3-.2.1-.4-.2-.1z"/><path class="st2" d="M79.7 121.1c-.4.2-.1-.9-.1-1 .1-.4.3-.9.4-1.3.1-.3-.6-.1-.6.1-.1.4-.3.7-.4 1.1l-.3.6c-.1.2-.1.3-.3.1-.4-.5.2-1.6.5-2.1.2-.3-.5-.2-.6 0-.2.4-1.1 2.4-.2 2.6 1.1.2 1.5-1.7 1.8-2.4-.2 0-.4.1-.6.1-.2.7-.5 1.4-.5 2.1 0 .6.5.6 1 .4.4-.2.2-.5-.1-.3zM75.7 118.3c.1-.8-1.1-.5-1.4-.1-.4.5-.5 1.2-.5 1.8.1.6.5.8 1 .4.8-.4.8-1.4.9-2.1-.2.1-.4.1-.6.2-.1.4-.6 2.7.7 2.2.3-.1.4-.5-.1-.4-.1 0-.1-.6-.1-.7 0-.4.1-.9.1-1.3.1-.3-.6 0-.6.2-.1.4-.1.8-.2 1.2 0 .1-.1.4-.2.4s-.2-.2-.2-.2c-.1-.3-.1-.6 0-.9 0-.2.1-.3.2-.5 0-.1.1-.2.1-.2.1-.1.3.2.3.2 0 .3.6 0 .6-.2z"/><g><path class="st2" d="M65.3 118.9c.2.5.3 2.6 1.2 2.3 1-.4.6-2.3.5-3 0-.3-.5.2-.5.4.1.5.1 1 .2 1.6 0 .2.1.6-.2.5-.3-.1-.4-.8-.4-1-.1-.4-.1-.8-.3-1.2-.1-.3-.5.2-.5.4z"/><path class="st2" d="M66.5 118.6c.2 1 .5 2 .8 3 .1.2.3 1.2 0 1.2-.6 0 .1-1.8.2-2 .2-.4-.2-.3-.4 0-.4.7-.7 1.6-.3 2.3.1.3.5.3.7.1.4-.5.4-1 .3-1.6-.1-1.1-.5-2.2-.8-3.3-.1-.4-.5.1-.5.3z"/></g><path class="st2" d="M77 118.5c.5.5 1.1.6 1.7.3.1 0 .2-.1.2-.2-.1-.1-.2 0-.3 0-.3.2-.8-.1-1-.4-.2-.1-.7.2-.6.3z"/></g><g><path class="st6" d="M80.4 130.8v-5c-7.8-2.2-14.4-.6-16.6 0v5.1c2.2-.6 8.8-2.2 16.6-.1z"/><path class="st6" d="M64.6 131.2c1.2.4 3.9 1 7.4 1 3.5 0 6.3-.7 7.6-1.1-6.7-1.6-12.5-.6-15 .1z"/></g></g><path class="st2" d="M39.3 68.2c-1.5 0-2.6-1.2-2.6-2.6V50.8c0-1.5 1.2-2.6 2.6-2.6 1.5 0 2.6 1.2 2.6 2.6v14.8c.1 1.4-1.1 2.6-2.6 2.6z"/><circle class="st2" cx="39.3" cy="42.3" r="2.8"/><path class="st5" d="M234.1 97.2v32.9c0 5.9 4.8 10.8 10.8 10.8h68.9c5.9 0 10.8-4.8 10.8-10.8V97.2h-90.5z"/><g><path class="st6" d="M286.6 112.1h-.4c-1-2.3-3.3-3.9-6-3.9s-5 1.6-6 3.9h-.2c-3.2 0-6.3 3.2-6.3 6.4 0 2.5 2.1 6 4.4 6.8.7-.2 1.8-.5 3.2-.7-1.6-.5-1.7-1.6-1.7-1.6 0-.1.1-.2.2-.3.1 0 .2.1.3.2 0 .1.2 1.2 2.4 1.5h.1c.5-.1 1.1-.1 1.7-.2-.5-.7-.8-1.8-.8-2 0-.1.1-.3.2-.3s.3.1.3.2c.1.4.4 1.6.9 2 1.7-.1 3.6-.1 5.7.2.1 0 .2 0 .2-.1 2-.4 2.1-1.4 2.1-1.5 0-.1.1-.2.3-.2.1 0 .2.1.2.2 0 0-.1 1.1-1.7 1.7 1 .2 2 .4 3 .7 2.2-.8 4.2-4.2 4.2-6.6 0-3-3.1-6.4-6.3-6.4z"/><circle class="st7" cx="291.3" cy="109.2" r="7.1"/><path class="st2" d="M289.5 108.2c-.6.1-.7.8-.8 1.2v.8c0 .1 0 .3-.1.3-.2 0-.4-.3-.4-.4-.1-.4-.2-.7-.3-1.1-.1-.4-.1-.8-.1-1.3v-.5-.2-.1c.1-.3-.4 0-.5.1-.5.8-.3 1.8-.3 2.7v.7c0 .2-.1.5-.2.6-.1.1-.2 0-.3 0-.1-.1-.2-.2-.2-.3 0-.1-.2-.1-.2 0-.1.1-.2.3-.2.4.1.3.3.6.7.5.5-.2.8-.8.9-1.3.1-.2.1-.5.1-.7.1.4.2.7.3 1 .1.2.3.5.6.4.2 0 .4-.3.5-.5.1.2.3.4.5.4.3 0 .5-.3.6-.6.1-.3.2-.6.2-.9 0-.4-.2-1.3-.8-1.2zm.2 2v.2c-.1 0-.2-.2-.2-.3-.1-.2-.1-.4-.2-.6v-.7-.2c.3.2.4.6.4.9 0 .3.1.5 0 .7zM296.6 109c-.6-.2-1 .6-1.1 1.1-.1.5-.2 1.2.3 1.5.3.1.6-.1.7-.3.2-.2.3-.5.4-.8.1-.4.3-1.3-.3-1.5zm-.4 2l-.1.1c-.1-.1-.1-.3-.1-.4v-.7c0-.2.1-.4.2-.6l.1-.1c.2.3.2.7.1 1 0 .3-.1.6-.2.7zM294.9 109.1c.1-.2.2-.3.3-.5.2-.4.5-.8.4-1.2 0-.4-.6-.4-.9-.3-.4.2-.6.6-.8 1-.2.5-.2 1.1-.3 1.7-.2.2-.6.7-.9.5-.1 0-.1-.2-.2-.3.3-.3.5-.6.7-.9.2-.3.3-.8 0-1-.3-.2-.7 0-.9.3-.2.2-.3.6-.3.9v.7c-.2.1-.4.2-.6.1-.2 0-.3-.3-.4-.5-.1-.3-.1-.6 0-.9 0-.1 0-.2.1-.3v-.1c.2.1.2.3.2.4.1.2.6-.1.5-.3-.1-.2-.1-.4-.4-.5-.2-.1-.5.1-.7.2-.4.4-.4 1-.4 1.5 0 .3.1.7.4.9.4.2.9 0 1.3-.2.1.2.3.4.6.4.4-.1.7-.3 1-.5 0 .3.1.6.3.7.3.2.7 0 1-.3.3-.4.4-.9.3-1.3 0-.1-.2-.2-.3-.2zm-2.2-.2c0-.1.1-.2.1-.2.2 0 .2.2.2.4s-.2.5-.4.7v-.1c0-.4 0-.6.1-.8zm2.1-1.2c0-.1.1-.2.2-.2.2.3 0 .7-.1.9-.1.2-.3.5-.5.7 0-.2.1-.5.1-.7.1-.2.1-.5.3-.7zm-.2 2.9s0 .1-.1.1h-.1c-.2-.1-.2-.4-.2-.6v-.4l.2-.2c.1-.1.2.1.3.2.1.4 0 .7-.1.9z"/><g><path class="st7" d="M259.5 114c0 .1.2.1.3.2 0 .1-.1 0-.2 0 0 .1.1.1.1.1s-.1 0-.1.1c.1.1.2.3.4.3.3.1.7.2.7.3 0-.6-.2-1.1.3-1.6 0-.1-.1 0-.1-.1h.1c0-.1-.1-.1-.1-.2h.1c.1 0-.1-.1-.1-.1 0-.1.1 0 .1 0 0-.1-.2-.2-.2-.3.1 0 .2.1.2.2 0-.1-.2-.2-.2-.4.1 0 .2.2.3.2-.1-.2-.2-.3-.2-.4.2.1.2.3.4.3-.1-.2-.3-.5-.2-.7.2.2.2.4.3.6 0-.3-.2-.6-.1-.9.1.2.2.6.3.9 0-.3-.2-.7-.1-1.1.1.3.1.6.2 1 0-.3-.1-.8 0-1.1.1.3.1.7.2 1.1 0-.3-.1-.8.1-1v.8c0 .5.2.9.1 1.3-.2.4-.5.8-.5 1.4.7.2.9.2 1.4.2.2 0 .4-.1.7-.1.1 0 .1.1.2.1.2.1.3.1.5.1-.3.1-.8.1-.8.1-.1 0-.5-.1-.2-.1.2 0 .4 0 .3-.1 0-.2-.3 0-.5 0-.6.1-.9.2-1.8 0 .3 0 .2-.2.2-.3 0-.7.1-.9.3-1.2.4-.6-.1-.6-.3-.9-.1.1 0 .2 0 .3-.1-.1-.1-.2-.2-.3-.1.1 0 .2.1.3-.1 0-.1-.1-.2-.2-.1.1.1.2.1.2-.1 0-.1-.1-.2-.1-.1.1 0 .1 0 .2h-.1c0 .1 0 .1.1.1h-.1c-.1 0 0 .1 0 .1-.5-.1-.1 1.4-.5 2 .2.2.8.1 1.2.1-.5.3-.9.2-1.3.3-.1 0-.1 0-.2.1-.3.1-.5.2-.8.3-.3.1-1.2.3-1.3.3 2.2-.8 1.9-.9 2-1-.4-.1-.5-.5-.7-.7l.1-.1h-.1s0-.1.1-.1c0-.1-.1 0-.2-.1 0-.1.1-.1.1-.1 0-.1-.2 0-.2-.1s.1-.1.2-.1c-.1-.1-.3 0-.3-.2h.3c-.1-.1-.4-.1-.4-.3.2 0 .3.1.5.1-.2-.1-.4-.2-.5-.4l.6.3c-.1-.2-.4-.3-.5-.5.2 0 .4.3.7.3-.1 0-.3-.2-.5-.2.1.2.3.3.5.4-.1.1-.3-.1-.4-.1 0 .1.2.2.4.3-.2.2-.3.2-.4.2"/><path class="st7" d="M261.4 110c-2.5 0-4.5 2-4.5 4.5s2 4.5 4.5 4.5 4.5-2 4.5-4.5-2-4.5-4.5-4.5m0 .2c2.4 0 4.3 1.9 4.3 4.3s-1.9 4.3-4.3 4.3-4.3-1.9-4.3-4.3 2-4.3 4.3-4.3"/></g><g><path class="st2" d="M270.8 122c.5.9 1.5.1 1.6-.7.1-1.2-.6-2.3-1.2-3.3-.1-.1-.2 0-.3.1-.6.5-1.2 1.4-.8 2 .1.2.5-.4.4-.6-.2-.3.2-.8.5-1-.1 0-.2.1-.3.1.2.4.5.8.7 1.2.1.2.2.5.3.7.1.2.1.3.2.5-.2.8-.4.9-.7.4-.2-.2-.5.4-.4.6z"/><path class="st2" d="M273.8 120.8c-.2.5-.5-.4-.5-.5-.1-.2-.2-.4-.3-.5-.3-.3-.7-.1-1 .1h.2c-.2-.5-.5-1.8.6-1.3.2.1.6-.5.4-.6-.6-.3-1-.1-1.4.5-.4.6-.2 1.3.1 1.9 0 .1.1.1.2 0 .8-.7.9.7 1.4 1.1.4.3.7-.6.8-.8 0-.3-.4-.2-.5.1zM275.9 120.6c.2.6.8.4 1.1-.1.2-.3.2-.6.2-1 0-.5 0-1 .2-1.5l-.6.3c.1.7.2 1.8.8 2.4.4.4 1-.5 1.1-.7.2-.4-.4-.1-.5.1-.2.5-.5-.2-.5-.4-.2-.5-.3-1.1-.3-1.7 0-.3-.5.2-.6.3-.1.3-.2.7-.2 1V120.2c0 .3-.2.1-.2 0-.1-.3-.6.2-.5.4zM280.3 117.9c.1.8.1 1.6.1 2.4 0 .3.5-.1.5-.3.1-.5.2-.7.5-1 .4-.4.6-.8.7-1.3.1-.4-.5 0-.6.1-.3.6-.3 1.3-.2 2 0 .2 0 .4.2.6.2.2.6-.1.8-.2.3-.2.1-.5-.2-.2-.2.2-.2-.8-.2-.9 0-.4.1-.9.2-1.3-.2 0-.4.1-.6.1-.1.5-.3.8-.7 1.2-.3.4-.4.8-.5 1.3.2-.1.3-.2.5-.3.1-.8 0-1.6 0-2.4 0-.3-.5 0-.5.2zM284.2 120.3c-.1.6.5.8 1 .5.5-.3.7-.8.8-1.3.1-.4.2-1-.3-1.3-.2-.1-.5 0-.7 0-.4.2-.6.5-.6.9-.1.3.6 0 .6-.2.1-.4.2-.4.4 0 .1.2.1.4 0 .7 0 .3-.1.5-.2.8 0 .1-.1.2-.2.2 0 0 0-.1-.1 0-.2-.1-.2-.2-.2-.4.2-.4-.5-.1-.5.1z"/><path class="st2" d="M284.4 117.9c0 1.5-.3 3-.7 4.5-.1.3.5 0 .6-.2.4-1.5.8-3 .8-4.6 0-.2-.7.1-.7.3zM289.8 119.7c-.3.5-.6 1.1-.7 1.6-.1.2-.1.6.1.8.3.3.7.2 1 .1.4-.2 0-.4-.3-.3-.2.1-.2-.5-.2-.5 0-.3.1-.5.2-.8.1-.3.3-.7.5-1 .2-.1-.5-.1-.6.1z"/><path class="st2" d="M287.9 121.4c0 .5.5.6.9.5.5-.2.9-.7 1.2-1.1.1-.3-.5-.1-.6 0-.1.1 0 0 .1 0 0 0-.1 0-.1-.1-.1-.1-.1-.2-.1-.3 0-.2.1-.4.2-.6.2-.3.3.1.3.3-.1.3.6.2.7 0 .2-.4-.1-.8-.6-.8-.6 0-1 .6-1.1 1-.2.9 1 1 1.4.4h-.6c-.1.2-.3.4-.4.6-.2.2-.3 0-.3-.2-.4-.2-1 0-1 .3zM280.2 120c-.3.3-.4-.8-.4-.9v-1.4c0-.3-.6.1-.6.3V119.8c0 .2 0 .3-.2.2-.5-.3-.4-1.6-.3-2.1.1-.4-.5 0-.5.2-.1.5-.3 2.7.7 2.5 1.2-.2.9-2.1.9-2.9l-.6.3c0 .7 0 1.5.2 2.1.2.6.7.3 1 0 .3-.2.1-.4-.2-.1z"/><path class="st2" d="M287.9 121.1c-.4.2-.1-.9-.1-1 .1-.4.3-.9.4-1.3.1-.3-.6-.1-.6.1-.1.4-.3.7-.4 1.1l-.3.6c-.1.2-.1.3-.3.1-.4-.5.2-1.6.5-2.1.2-.3-.5-.2-.6 0-.2.4-1.1 2.4-.2 2.6 1.1.2 1.5-1.7 1.8-2.4-.2 0-.4.1-.6.1-.2.7-.5 1.4-.5 2.1 0 .6.5.6 1 .4.4-.2.3-.5-.1-.3zM284 118.3c.1-.8-1.1-.5-1.4-.1-.4.5-.5 1.2-.5 1.8.1.6.5.8 1 .4.7-.4.7-1.4.9-2.1-.2.1-.4.1-.6.2-.1.4-.6 2.7.7 2.2.3-.1.4-.5-.1-.4-.1 0-.1-.6-.1-.7-.1-.4 0-.9.1-1.3.1-.3-.6 0-.6.2-.1.4-.1.8-.2 1.2 0 .1-.1.4-.2.4s-.2-.2-.2-.2c-.1-.3-.1-.6 0-.9 0-.2.1-.3.2-.5 0-.1.1-.2.1-.2.1-.1.3.2.3.2-.1.3.6 0 .6-.2z"/><g><path class="st2" d="M273.6 118.9c.2.5.3 2.6 1.2 2.3 1-.4.6-2.3.5-3 0-.3-.5.2-.5.4.1.5.1 1 .2 1.6 0 .2.1.6-.2.5-.3-.1-.4-.8-.4-1-.1-.4-.1-.8-.3-1.2-.1-.3-.6.2-.5.4z"/><path class="st2" d="M274.7 118.6c.2 1 .5 2 .8 3 .1.2.3 1.2 0 1.2-.6 0 .1-1.8.2-2 .2-.4-.2-.3-.4 0-.4.7-.7 1.6-.3 2.3.1.3.5.3.7.1.4-.5.4-1 .3-1.6-.1-1.1-.5-2.2-.8-3.3 0-.4-.5.1-.5.3z"/></g><path class="st2" d="M285.3 118.5c.5.5 1.1.6 1.7.3.1 0 .2-.1.2-.2-.1-.1-.2 0-.3 0-.3.2-.8-.1-1-.4-.3-.1-.8.2-.6.3z"/></g><g><path class="st6" d="M288.7 130.8v-5c-7.8-2.2-14.4-.6-16.6 0v5.1c2.1-.6 8.8-2.2 16.6-.1z"/><path class="st6" d="M272.9 131.2c1.2.4 3.9 1 7.4 1 3.5 0 6.3-.7 7.6-1.1-6.8-1.6-12.5-.6-15 .1z"/></g></g></g></svg>