<svg xmlns="http://www.w3.org/2000/svg" viewBox="0 0 310.6 230"><style>.st0{fill:#519E38;} .st1{fill:#F9F5DC;} .st2{fill:#FFFFFF;} .st3{fill:url(#SVGID_1_);} .st4{fill:url(#SVGID_2_);} .st5{fill:url(#SVGID_3_);} .st6{fill:url(#SVGID_4_);} .st7{fill:url(#SVGID_5_);}</style><g id="manty"><path class="st0" d="M217.7 70.7s-35.3 20.6-9.7 48.4 68 10.5 72.3-4.2c4.3-14.7 4-28.5-15-44.3s-47.6.1-47.6.1zM182.5 123.6s-29.8-7.8-41.3 18.2c-11.4 26 16.7 35.8 18.3 39.5 1.6 3.8 6.7 6.9 9.5 1.9s3-12.5 9.9-7.7 2.7 9.2-.1 11c-2.8 1.9 2.8 9.8 11 4.2 8.2-5.6 22.1-9.4 25.1-22.9 3.2-13.4.5-39.2-32.4-44.2zM182.4 62.9c-27.2-28.4-72.2-30.4-101.8-4.1S47.8 130 72.8 160.3h-.1l4 4.5c2.2 2.5 6 2.7 8.5.5L186 75.9c2.5-2.2 2.7-6 .5-8.5l-4.1-4.5z"/><circle class="st0" cx="64.4" cy="150.9" r="9.7"/><circle class="st0" cx="56.7" cy="134.3" r="9.7"/><circle class="st0" cx="54.9" cy="115.7" r="9.7"/><circle class="st0" cx="56.9" cy="97.1" r="9.7"/><circle class="st0" cx="63.5" cy="80" r="9.7"/><circle class="st0" cx="74.4" cy="64.4" r="9.7"/><circle class="st0" cx="89.7" cy="52.4" r="9.7"/><circle class="st0" cx="106.8" cy="43.6" r="9.7"/><circle class="st0" cx="124.8" cy="40.5" r="9.7"/><circle class="st0" cx="142.9" cy="40.6" r="9.7"/><circle class="st0" cx="159.7" cy="47.1" r="9.7"/><circle class="st0" cx="176.3" cy="55.9" r="9.7"/><g><path class="st1" d="M169.6 59.9c-27.2-28.4-72.2-30.4-101.8-4S35 127.2 60.1 157.4H60l4 4.5c2.2 2.5 6 2.7 8.5.5l100.6-89.6c2.5-2.2 2.7-6 .5-8.5l-4-4.4z"/><circle class="st1" cx="51.5" cy="148" r="9.7"/><circle class="st1" cx="43.9" cy="131.3" r="9.7"/><circle class="st1" cx="42.1" cy="112.8" r="9.7"/><circle class="st1" cx="44.1" cy="94.1" r="9.7"/><circle class="st1" cx="50.7" cy="77" r="9.7"/><circle class="st1" cx="61.6" cy="61.5" r="9.7"/><circle class="st1" cx="76.8" cy="49.4" r="9.7"/><circle class="st1" cx="93.9" cy="40.6" r="9.7"/><circle class="st1" cx="111.9" cy="37.6" r="9.7"/><circle class="st1" cx="130.1" cy="37.6" r="9.7"/><circle class="st1" cx="146.8" cy="44.2" r="9.7"/><circle class="st1" cx="163.4" cy="52.9" r="9.7"/></g><path class="st1" d="M179.6 116.2s-29.8-7.8-41.3 18.2c-11.4 26 16.7 35.8 18.3 39.5 1.6 3.8 6.7 6.9 9.5 1.9s3-12.5 9.9-7.7 2.7 9.2-.1 11c-2.8 1.9 2.8 9.8 11 4.2s22.1-9.4 25.1-22.9.5-39.2-32.4-44.2zM212.1 64.8s-35.3 20.6-9.7 48.4 68 10.5 72.3-4.2 4-28.5-15-44.3-47.6.1-47.6.1z"/><path class="st1" d="M226.9 59.3s8.9-1.7 3.5-11.8 6.3-8.4 8.7-6.6c2.3 1.8 3 9.4 5 5.6s6-9.1 13.3-3.5c7.3 5.7-7 6.5-4.3 9.1 2.7 2.6 8-1 8.3-2.7.3-1.7 11.7-.4 6.3 6.8-5.3 7.2-6.1.3-9 3.1s-3.3 5.7-.7 7.5c2.7 1.9-11.3.9-11.3.9l-19.8-8.4z"/></g><g id="snow"><circle class="st2" cx="283.2" cy="80" r="1.5"/><linearGradient id="SVGID_1_" gradientUnits="userSpaceOnUse" x1="257.733" y1="39.465" x2="273.721" y2="84.763"><stop offset="0" stop-color="#404B71"/><stop offset=".604" stop-color="#3C476E"/><stop offset="1" stop-color="#354169"/></linearGradient><path class="st3" d="M261.3 80.4l-1.7-6.4 1.6-2.7.2.8c.2.8 1.1 1.3 1.9 1.1.1 0 .3-.1.4-.2.6-.3.9-1.1.7-1.8l-1-3.9 1.9-3.3 1.9 3.3-1 3.9c-.2.8.3 1.7 1.1 1.9.4.1.9 0 1.2-.2.4-.2.6-.5.7-1l.2-.8L271 74l-1.7 6.4c-.2.8.3 1.7 1.1 1.9.4.1.9 0 1.2-.2.4-.2.6-.5.7-1l.9-3.3 2.5 4.4c.4.8 1.4 1 2.2.6.8-.4 1-1.4.6-2.2l-2.5-4.4 3.3.9c.4.1.9 0 1.2-.2.4-.2.6-.5.7-1 .2-.8-.3-1.7-1.1-1.9l-6.4-1.7-1.6-2.7.8.2c.4.1.9 0 1.2-.2.4-.2.6-.5.7-1 .2-.8-.3-1.7-1.1-1.9l-3.8-1-1.9-3.3h3.8l2.8 2.8c.5.5 1.3.6 1.9.3l.3-.3c.6-.6.6-1.6 0-2.2l-.6-.6h3.1l4.7 4.7c.5.5 1.3.6 1.9.3l.3-.3c.6-.6.6-1.6 0-2.2l-2.4-2.4h5c.3 0 .6-.1.8-.2.5-.3.8-.8.8-1.4 0-.9-.7-1.6-1.6-1.6h-5l2.4-2.4c.6-.6.6-1.6 0-2.2-.6-.6-1.6-.6-2.2 0l-4.7 4.7h-3.1l.6-.6c.6-.6.6-1.6 0-2.2-.6-.6-1.6-.6-2.2 0l-2.8 2.8H268l1.9-3.3 3.9-1c.1 0 .3-.1.4-.2.6-.3.9-1.1.7-1.8-.2-.8-1.1-1.3-1.9-1.1l-.8.2 1.6-2.7 6.4-1.7c.1 0 .3-.1.4-.2.6-.4.9-1.1.7-1.8-.2-.8-1.1-1.3-1.9-1.1l-3.3.9 2.5-4.4c.4-.8.2-1.7-.6-2.2-.8-.4-1.7-.2-2.2.6l-2.5 4.4-.9-3.3c-.2-.8-1.1-1.3-1.9-1.1-.8.2-1.4 1.1-1.1 1.9l1.7 6.4-1.6 2.7-.2-.8c-.2-.8-1.1-1.3-1.9-1.1-.8.2-1.3 1.1-1.1 1.9l1 3.9-1.9 3.3-1.9-3.3 1-3.9c.2-.8-.3-1.7-1.1-1.9-.8-.2-1.7.3-1.9 1.1l-.2.8-1.6-2.7 1.7-6.4c.2-.8-.3-1.7-1.1-1.9-.8-.2-1.7.3-1.9 1.1l-.9 3.3-2.5-4.4c-.4-.8-1.4-1-2.2-.6-.8.4-1 1.4-.6 2.2l2.5 4.4-3.3-.9c-.8-.2-1.7.3-1.9 1.1-.2.8.3 1.7 1.1 1.9l6.4 1.7 1.6 2.7-.8-.2c-.8-.2-1.7.3-1.9 1.1-.2.8.3 1.7 1.1 1.9l3.8 1 1.9 3.3h-3.8l-2.8-2.8c-.6-.6-1.6-.6-2.2 0-.6.6-.6 1.6 0 2.2l.6.6h-3.1l-4.7-4.7c-.6-.6-1.6-.6-2.2 0-.6.6-.6 1.6 0 2.2l2.4 2.4h-5c-.9 0-1.6.7-1.6 1.6 0 .9.7 1.6 1.6 1.6h5l-2.4 2.4c-.6.6-.6 1.6 0 2.2.5.5 1.3.6 1.9.3l.3-.3 4.7-4.7h3.1l-.6.6c-.6.6-.6 1.6 0 2.2.5.5 1.3.6 1.9.3l.3-.3 2.8-2.8h3.8l-1.9 3.3-3.9 1c-.8.2-1.3 1.1-1.1 1.9.2.8 1.1 1.3 1.9 1.1l.8-.2-1.6 2.7-6.4 1.7c-.8.2-1.3 1.1-1.1 1.9.2.8 1.1 1.3 1.9 1.1l3.3-.9-2.5 4.4c-.4.8-.2 1.7.6 2.2.5.3 1.1.3 1.6 0 .2-.1.4-.3.6-.6l2.5-4.4.9 3.3c.2.8 1.1 1.3 1.9 1.1.1 0 .3-.1.4-.2.6.2.9-.5.7-1.2z"/><linearGradient id="SVGID_2_" gradientUnits="userSpaceOnUse" x1="139.116" y1="103.284" x2="143.95" y2="116.98"><stop offset="0" stop-color="#404B71"/><stop offset=".604" stop-color="#3C476E"/><stop offset="1" stop-color="#354169"/></linearGradient><path class="st4" d="M140.2 115.7l-.5-1.9.5-.8.1.2c.1.3.3.4.6.3h.1c.2-.1.3-.3.2-.5l-.3-1.2.6-1 .6 1-.3 1.2c-.1.3.1.5.3.6h.4c.1-.1.2-.2.2-.3l.1-.2.5.8-.5 1.9c-.1.3.1.5.3.6h.4c.1-.1.2-.2.2-.3l.3-1 .8 1.3c.1.2.4.3.7.2.2-.1.3-.4.2-.7l-.8-1.3 1 .3h.4c.1-.1.2-.2.2-.3.1-.3-.1-.5-.3-.6l-1.9-.5-.5-.8.2.1h.4c.1-.1.2-.2.2-.3.1-.3-.1-.5-.3-.6l-1.2-.3-.6-1h1.2l.9.9c.2.2.4.2.6.1 0 0 .1 0 .1-.1.2-.2.2-.5 0-.7l-.2-.2h.9l1.4 1.4c.2.2.4.2.6.1 0 0 .1 0 .1-.1.2-.2.2-.5 0-.7l-.7-.7h1.5c.1 0 .2 0 .2-.1.1-.1.2-.2.2-.4 0-.3-.2-.5-.5-.5h-1.5l.7-.7c.2-.2.2-.5 0-.7-.2-.2-.5-.2-.7 0l-1.4 1.4h-.9l.2-.2c.2-.2.2-.5 0-.7-.2-.2-.5-.2-.7 0l-.9.9h-1.2l.6-1 1.2-.3h.1c.2-.1.3-.3.2-.5-.1-.3-.3-.4-.6-.3l-.2.1.5-.8 1.9-.5h.1c.2-.1.3-.3.2-.5-.1-.3-.3-.4-.6-.3l-1 .3.8-1.3c.1-.2.1-.5-.2-.7-.2-.1-.5-.1-.7.2l-.8 1.3-.3-1c-.1-.3-.3-.4-.6-.3-.3.1-.4.3-.3.6l.5 1.9-.5.8-.1-.2c-.1-.3-.3-.4-.6-.3-.3.1-.4.3-.3.6l.3 1.2-.6 1-.6-1 .3-1.2c.1-.3-.1-.5-.3-.6-.3-.1-.5.1-.6.3l-.1.2-.5-.8.5-1.9c.1-.3-.1-.5-.3-.6-.3-.1-.5.1-.6.3l-.3 1-.8-1.3c-.1-.2-.4-.3-.7-.2-.2.1-.3.4-.2.7l.8 1.3-1-.3c-.3-.1-.5.1-.6.3-.1.3.1.5.3.6l1.9.5.5.8-.2-.1c-.3-.1-.5.1-.6.3-.1.3.1.5.3.6l1.2.3.6 1h-1.2l-.9-.9c-.2-.2-.5-.2-.7 0-.2.2-.2.5 0 .7l.2.2h-.9l-1.4-1.4c-.2-.2-.5-.2-.7 0-.2.2-.2.5 0 .7l.7.7H134c-.3 0-.5.2-.5.5s.2.5.5.5h1.5l-.5.2c-.2.2-.2.5 0 .7.2.2.4.2.6.1 0 0 .1 0 .1-.1l1.4-1.4h.9l-.2.2c-.2.2-.2.5 0 .7.2.2.4.2.6.1 0 0 .1 0 .1-.1l.9-.9h1.2l-.6 1-1.2.3c-.3.1-.4.3-.3.6.1.3.3.4.6.3l.2-.1-.5.8-1.9.5c-.3.1-.4.3-.3.6.1.3.3.4.6.3l1-.3-.8 1.3c-.1.2-.1.5.2.7.2.1.3.1.5 0 .1 0 .1-.1.2-.2l.8-1.3.3 1c.1.3.3.4.6.3h.1c.1 0 .2-.2.1-.4z"/><linearGradient id="SVGID_3_" gradientUnits="userSpaceOnUse" x1="74.226" y1="127.844" x2="84.647" y2="157.368"><stop offset="0" stop-color="#404B71"/><stop offset=".604" stop-color="#3C476E"/><stop offset="1" stop-color="#354169"/></linearGradient><path class="st5" d="M76.6 154.5l-1.1-4.2 1-1.8.1.5c.1.6.7.9 1.3.7.1 0 .2-.1.2-.1.4-.2.6-.7.5-1.2l-.7-2.5 1.2-2.2 1.2 2.2-.7 2.5c-.1.6.2 1.1.7 1.3.3.1.6 0 .8-.1.2-.1.4-.4.5-.6l.1-.5 1 1.8-1.1 4.2c-.1.6.2 1.1.7 1.3.3.1.6 0 .8-.1.2-.1.4-.4.5-.6l.6-2.2 1.6 2.8c.3.5.9.7 1.4.4.5-.3.7-.9.4-1.4l-1.6-2.8 2.2.6c.3.1.6 0 .8-.1.2-.1.4-.4.5-.6.1-.6-.2-1.1-.7-1.3l-4.2-1.1-1-1.8.5.1c.3.1.6 0 .8-.1.2-.1.4-.4.5-.6.1-.6-.2-1.1-.7-1.3l-2.5-.7-1.2-2.2h2.5l1.8 1.8c.3.3.9.4 1.2.2.1 0 .1-.1.2-.2.4-.4.4-1.1 0-1.5l-.4-.4h2l3 3c.3.3.9.4 1.2.2.1 0 .1-.1.2-.2.4-.4.4-1.1 0-1.5l-1.6-1.6h3.3c.2 0 .4 0 .5-.1.3-.2.5-.5.5-.9 0-.6-.5-1-1-1h-3.3l1.6-1.6c.4-.4.4-1.1 0-1.5-.4-.4-1.1-.4-1.5 0l-3 3h-2l.4-.4c.4-.4.4-1.1 0-1.5-.4-.4-1.1-.4-1.5 0l-1.8 1.8H81l1.2-2.2 2.5-.7c.1 0 .2-.1.2-.1.4-.2.6-.7.5-1.2-.1-.6-.7-.9-1.3-.7l-.5.1 1-1.8 4.2-1.1c.1 0 .2-.1.2-.1.4-.2.6-.7.5-1.2-.1-.6-.7-.9-1.3-.7l-2.2.6 1.6-2.8c.3-.5.1-1.1-.4-1.4-.5-.3-1.1-.1-1.4.4l-1.6 2.8-.6-2.2c-.1-.6-.7-.9-1.3-.7-.5.1-.9.7-.7 1.3l1.1 4.2-1 1.8-.1-.5c-.1-.6-.7-.9-1.3-.7-.6.2-.9.7-.7 1.3l.7 2.5-1.2 2.2-1.2-2.2.7-2.5c.1-.6-.2-1.1-.7-1.3-.6-.1-1.1.2-1.3.7l-.1.5-1-1.8 1.1-4.2c.1-.6-.2-1.1-.7-1.3-.6-.1-1.1.2-1.3.7l-.6 2.2-1.6-2.8c-.3-.5-.9-.7-1.4-.4-.5.3-.7.9-.4 1.4l1.6 2.8-2.2-.6c-.6-.1-1.1.2-1.3.7-.1.6.2 1.1.7 1.3l4.2 1.1 1 1.8-.5-.1c-.6-.1-1.1.2-1.3.7-.1.6.2 1.1.7 1.3l2.5.7 1.2 2.2h-2.5l-1.8-1.8c-.4-.4-1.1-.4-1.5 0-.4.4-.4 1.1 0 1.5l.4.4h-2l-3-3c-.4-.4-1.1-.4-1.5 0-.4.4-.4 1.1 0 1.5l1.6 1.6h-3.3c-.6 0-1 .5-1 1 0 .6.5 1 1 1h3.3l-1.6 1.6c-.4.4-.4 1.1 0 1.5.3.3.9.4 1.2.2.1 0 .1-.1.2-.2l3-3h2l-.4.4c-.4.4-.4 1.1 0 1.5.3.3.9.4 1.2.2.1 0 .2-.1.2-.2l1.8-1.8H77l-1.2 2.2-2.5.7c-.5.2-.9.7-.7 1.3.1.6.7.9 1.3.7l.5-.1-1 1.8-4.2 1.1c-.5.2-.9.7-.7 1.3.1.6.7.9 1.3.7l2.2-.6-1.6 2.8c-.3.5-.1 1.1.4 1.4.3.2.7.2 1 0 .2-.1.3-.2.4-.4l1.6-2.8.6 2.2c.1.6.7.9 1.3.7.1 0 .2-.1.3-.1.5-.2.7-.7.6-1.2z"/><linearGradient id="SVGID_4_" gradientUnits="userSpaceOnUse" x1="191.275" y1="130.237" x2="220.373" y2="198.339"><stop offset="0" stop-color="#404B71"/><stop offset=".604" stop-color="#3C476E"/><stop offset="1" stop-color="#354169"/></linearGradient><path class="st6" d="M238.8 160.8h-6.3l3-3c.8-.8.8-2 0-2.8-.8-.8-2-.8-2.8 0l-5.9 5.9h-3.9l1.7-1.7c.8-.8.8-2 0-2.8-.8-.8-2-.8-2.8 0l-4.6 4.6h-3.8l.1-.1c.8-.8.8-2 .1-2.7-.3-1-1.4-1.6-2.4-1.3h-.2l1.9-3.3 6.2-1.7c.2 0 .3-.1.5-.2.8-.4 1.2-1.4.9-2.2-.3-1.1-1.4-1.7-2.4-1.4l-2.4.6 2-3.4 8-2.1c.2 0 .3-.1.5-.2.8-.4 1.2-1.4.9-2.2-.3-1.1-1.4-1.7-2.4-1.4l-4.2 1.1 3.2-5.5c.6-1 .2-2.2-.7-2.7-1-.5-2.2-.2-2.7.7l-3.2 5.5-1.1-4.5c-.3-1.1-1.4-1.7-2.4-1.4-1.1.3-1.7 1.4-1.4 2.4l2.1 8-2 3.4-.6-2.4c-.3-1.1-1.4-1.7-2.4-1.4-1.1.3-1.7 1.4-1.4 2.4l1.7 6.2-1.9 3.3v-.2c-.3-1-1.3-1.7-2.4-1.4-1-.2-2.1.4-2.3 1.4v.2l-1.9-3.3 1.7-6.2c.3-1.1-.3-2.2-1.4-2.4-1.1-.3-2.2.3-2.4 1.4l-.6 2.4-2-3.4 2.1-8c.3-1.1-.3-2.2-1.4-2.4-1.1-.3-2.2.3-2.4 1.4l-1.1 4.2-3.2-5.5c-.5-1-1.8-1.3-2.7-.7-1 .5-1.3 1.8-.7 2.7l3.2 5.5-4.2-1.1c-1.1-.3-2.2.3-2.4 1.4-.3 1.1.3 2.2 1.4 2.4l8 2.1 2 3.4-2.4-.6c-1.1-.3-2.2.3-2.4 1.4-.3 1.1.3 2.2 1.4 2.4l6.2 1.7 1.9 3.3h-.2c-1-.3-2 .3-2.4 1.3-.8.8-.8 2 0 2.8l.1.1h-3.8l-4.6-4.6c-.8-.8-2-.8-2.8 0-.8.8-.8 2 0 2.8l1.7 1.7h-3.9l-5.9-5.9c-.8-.8-2-.8-2.8 0-.8.8-.8 2 0 2.8l3 3h-6.3c-1.1 0-2 .9-2 2s.9 2 2 2h6.3l-3 3c-.8.8-.8 2 0 2.8.7.7 1.6.8 2.4.3.1-.1.3-.2.4-.3l5.9-5.9h3.9l-1.7 1.7c-.8.8-.8 2 0 2.8.7.7 1.6.8 2.4.3.1-.1.3-.2.4-.3l4.6-4.6h3.8l-.1.1c-.8.8-.8 2-.1 2.7.3 1 1.4 1.6 2.4 1.3h.2l-1.9 3.3-6.2 1.7c-1.1.3-1.7 1.4-1.4 2.4.3 1.1 1.4 1.7 2.4 1.4l2.4-.6-2 3.4-8 2.1c-1.1.3-1.7 1.4-1.4 2.4.3 1.1 1.4 1.7 2.4 1.4l4.2-1.1-3.2 5.5c-.5 1-.2 2.2.7 2.7.6.4 1.4.3 2 0 .3-.2.5-.4.7-.7l3.2-5.5 1.1 4.2c.3 1.1 1.4 1.7 2.4 1.4.2 0 .3-.1.5-.2.8-.4 1.2-1.3.9-2.2l-2.1-8 2-3.4.6 2.4c.3 1.1 1.4 1.7 2.4 1.4.2 0 .3-.1.5-.2.8-.4 1.2-1.3.9-2.2l-1.7-6.2 1.9-3.3v.2c.3 1 1.3 1.7 2.4 1.4.5.1 1 0 1.4-.2.4-.3.8-.7.9-1.2v-.2l1.9 3.3-1.7 6.2c-.3 1.1.3 2.2 1.4 2.4.5.1 1.1.1 1.5-.2.4-.3.8-.7.9-1.2l.6-2.4 2 3.4-2.1 8c-.3 1.1.3 2.2 1.4 2.4.5.1 1.1.1 1.5-.2.4-.3.8-.7.9-1.2l1.1-4.2 3.2 5.5c.5 1 1.8 1.3 2.7.7 1-.6 1.3-1.8.7-2.7l-3.2-5.5 4.2 1.1c.5.1 1.1.1 1.5-.2.4-.3.8-.7.9-1.2.3-1.1-.3-2.2-1.4-2.4l-8-2.1-2-3.4 2.4.6c.5.1 1.1.1 1.5-.2.4-.3.8-.7.9-1.2.3-1.1-.3-2.2-1.4-2.4l-6.2-1.7-1.9-3.3h.2c.5.1 1.1.1 1.5-.2.4-.2.7-.6.9-1.1.8-.8.8-2 0-2.8l-.1-.1h3.8l4.6 4.6c.7.7 1.6.8 2.4.3.1-.1.3-.2.4-.3.8-.8.8-2 0-2.8l-1.7-1.7h3.9l5.9 5.9c.7.7 1.6.8 2.4.3.1-.1.3-.2.4-.3.8-.8.8-2 0-2.8l-3-3h6.3c.4 0 .7-.1 1-.3.6-.3 1-1 1-1.7 0-.9-.9-1.7-2-1.7zm-32.4 4.1c-1.2.7-2.8.3-3.5-.9-.7-1.2-.3-2.8.9-3.5 1.2-.7 2.8-.3 3.5.9.8 1.3.4 2.8-.9 3.5z"/><linearGradient id="SVGID_5_" gradientUnits="userSpaceOnUse" x1="150.74" y1="45.848" x2="162.762" y2="73.99"><stop offset="0" stop-color="#404B71"/><stop offset=".604" stop-color="#3C476E"/><stop offset="1" stop-color="#354169"/></linearGradient><path class="st7" d="M172.2 60.2h-1l.4-.5c.2-.3.1-.8-.2-1-.3-.2-.8-.1-1 .2l-.9 1.3H168l2-2.8c.2-.3.1-.8-.2-1-.3-.2-.8-.1-1 .2l-2.6 3.7h-1.3l1.2-1.7c.2-.3.1-.8-.2-1-.3-.2-.8-.1-1 .2l-1.7 2.5h-.9l.4-.5c.2-.3.1-.8-.2-1-.3-.2-.8-.1-1 .2l-.9 1.3h-.3l-.8-1.5.2-.3 1.6-.1c.4 0 .7-.4.7-.8s-.4-.7-.8-.7l-.6.1.4-.8 3-.3c.4 0 .7-.4.7-.8s-.4-.7-.8-.7l-2 .2.7-1.1 4.5-.4c.4 0 .7-.4.7-.8s-.4-.7-.8-.7l-3.4.3.7-1.3 1.6-.1c.4 0 .7-.4.7-.8s-.4-.7-.8-.7l-.6.1.5-.9c.2-.3.1-.8-.3-1-.3-.2-.8-.1-1 .3l-.5.9-.3-.6c-.2-.4-.6-.5-1-.4-.4.2-.5.6-.4 1l.7 1.5-.7 1.3-1.5-3.1c-.2-.4-.6-.5-1-.3s-.5.6-.4 1l1.9 4.1-.7 1.1-.9-1.8c-.2-.4-.6-.5-1-.4-.4.2-.5.6-.4 1l1.3 2.8-.4.8-.3-.6c-.2-.4-.6-.5-1-.3s-.5.6-.4 1l.7 1.5h-1.8l-.2-.3.7-1.5c.2-.4 0-.8-.4-1-.4-.2-.8 0-1 .3l-.3.6-.4-.8 1.3-2.8c.2-.4 0-.8-.4-1-.4-.2-.8 0-1 .3l-.9 1.8-.7-1.1 1.9-4.1c.2-.4 0-.8-.4-1-.4-.2-.8 0-1 .4l-1.5 3.1-.7-1.3.7-1.5c.2-.4 0-.8-.4-1-.4-.2-.8 0-1 .4l-.3.6-.5-.9c-.2-.3-.6-.5-1-.3-.3.2-.5.6-.3 1l.5.9-.6-.1c-.4 0-.8.3-.8.7 0 .4.3.8.7.8l1.6.1.7 1.3-3.4-.3c-.4 0-.8.3-.8.7 0 .4.3.8.7.8l4.5.4.7 1.1-2-.2c-.4 0-.8.3-.8.7 0 .4.3.8.7.8l3 .3.4.8-.6-.1c-.4 0-.8.3-.8.7 0 .4.3.8.7.8l1.6.1.2.3-.8 1.5h-.3l-.9-1.3c-.2-.3-.7-.4-1-.2-.3.2-.4.7-.2 1l.4.5h-.9l-1.7-2.5c-.2-.3-.7-.4-1-.2-.3.2-.4.7-.2 1l1.2 1.7H148l-2.6-3.7c-.2-.3-.7-.4-1-.2-.3.2-.4.7-.2 1l2 2.8h-1.5l-.9-1.3c-.2-.3-.7-.4-1-.2-.3.2-.4.7-.2 1l.4.5h-1c-.4 0-.7.3-.7.7 0 .4.3.7.7.7h1l-.4.5c-.2.3-.1.8.2 1 .1.1.3.1.4.1.2 0 .5-.1.6-.3l.9-1.3h1.5l-2 2.8c-.2.3-.1.8.2 1 .1.1.3.1.4.1.2 0 .5-.1.6-.3l2.6-3.7h1.3l-1.2 1.7c-.2.3-.1.8.2 1 .1.1.3.1.4.1.2 0 .5-.1.6-.3l1.7-2.5h.9l-.4.5c-.2.3-.1.8.2 1 .1.1.3.1.4.1.2 0 .5-.1.6-.3l.9-1.3h.3l.8 1.5-.2.3-1.6.1c-.4 0-.7.4-.7.8s.4.7.7.7h.1l1 .4-.4.8-3 .3c-.4 0-.7.4-.7.8s.4.7.7.7h.1l2-.2-.7 1.1-4.5.4c-.4 0-.7.4-.7.8s.4.7.7.7h.1l3.4-.3-.7 1.3-1.6.1c-.4 0-.7.4-.7.8s.4.7.7.7h.1l.6-.1-.5.9c-.2.3-.1.8.3 1 .1.1.2.1.4.1.3 0 .5-.1.6-.4l.5-.9.3.6c.1.3.4.4.7.4.1 0 .2 0 .3-.1.4-.2.5-.6.4-1l-.7-1.5.7-1.3 1.5 3.1c.1.3.4.4.7.4.1 0 .2 0 .3-.1.4-.2.5-.6.4-1l-1.9-4.1.6-1 .9 1.8c.1.3.4.4.7.4.1 0 .2 0 .3-.1.4-.2.5-.6.4-1l-1.3-2.8.4-.8.3.6c.1.3.4.4.7.4.1 0 .2 0 .3-.1.4-.2.5-.6.4-1l-.7-1.5.2-.3h1.7l.2.3-.7 1.5c-.2.4 0 .8.4 1 .1 0 .2.1.3.1.3 0 .5-.2.7-.4l.3-.6.4.8-1.3 2.8c-.2.4 0 .8.4 1 .1 0 .2.1.3.1.3 0 .5-.2.7-.4l.9-1.8.7 1.1-1.9 4.1c-.2.4 0 .8.4 1 .1 0 .2.1.3.1.3 0 .5-.2.7-.4l1.5-3.1.7 1.3-.7 1.5c-.2.4 0 .8.4 1 .1 0 .2.1.3.1.3 0 .5-.2.7-.4l.3-.6.5.9c.1.2.4.4.6.4.1 0 .2 0 .4-.1.3-.2.5-.6.3-1l-.5-.9.6.1h.1c.4 0 .7-.3.7-.7 0-.4-.3-.8-.7-.8l-1.6-.1-.7-1.3 3.4.3h.1c.4 0 .7-.3.7-.7 0-.4-.3-.8-.7-.8l-4.5-.4-.7-1.1 2 .2h.1c.4 0 .7-.3.7-.7 0-.4-.3-.8-.7-.8l-3-.3-.4-.8V65h.1c.4 0 .7-.3.7-.7 0-.4-.3-.8-.7-.8l-1.6-.1-.2-.3.8-1.5h.3l.9 1.3c.1.2.4.3.6.3.1 0 .3 0 .4-.1.3-.2.4-.7.2-1l-.4-.5h.9l1.7 2.5c.1.2.4.3.6.3.1 0 .3 0 .4-.1.3-.2.4-.7.2-1l-1.2-1.7h1.3l2.6 3.7c.1.2.4.3.6.3.1 0 .3 0 .4-.1.3-.2.4-.7.2-1l-2-2.8h1.5l.9 1.3c.1.2.4.3.6.3.1 0 .3 0 .4-.1.3-.2.4-.7.2-1l-.4-.5h1c.4 0 .7-.3.7-.7.3-.5-.1-.8-.5-.8zm-15.8 2.2l-.8-1.5.8-1.5h1.7l.8 1.5-.8 1.5h-1.7z"/><circle class="st2" cx="184.9" cy="42.3" r="3.4"/><circle class="st2" cx="59.2" cy="106.5" r="3.4"/><circle class="st2" cx="64.2" cy="119.6" r="1.5"/><circle class="st2" cx="52.4" cy="127.4" r="1.5"/><circle class="st2" cx="173" cy="38.8" r="1.5"/><circle class="st2" cx="200.6" cy="74.7" r="3.8"/><circle class="st2" cx="229.5" cy="198.4" r="3.8"/><circle class="st2" cx="221.4" cy="84.6" r="2.8"/><circle class="st2" cx="216" cy="93.1" r="1.5"/><circle class="st2" cx="189.9" cy="83.1" r="1.5"/><circle class="st2" cx="269.4" cy="106.5" r="1.5"/><circle class="st2" cx="238.5" cy="84.6" r="1.5"/><circle class="st2" cx="232.5" cy="96.1" r="1.5"/><circle class="st2" cx="231" cy="84.4" r="1.5"/><circle class="st2" cx="238.5" cy="74.7" r="1.5"/><circle class="st2" cx="278.7" cy="86.1" r="1.5"/><circle class="st2" cx="235.5" cy="189.9" r="1.5"/><circle class="st2" cx="246.9" cy="188.4" r="1.5"/><circle class="st2" cx="240" cy="196.9" r="1.5"/><circle class="st2" cx="208" cy="73.2" r="1.5"/><circle class="st2" cx="214.5" cy="80" r="1.5"/></g></svg>