<svg xmlns="http://www.w3.org/2000/svg" viewBox="0 0 214.8 252"><style>.st0{fill:#519E38;} .st1{fill:#F2F2F2;} .st2{fill:#FFFFFF;}</style><g id="vigimka"><path class="st0" d="M151.9 141.9c-.4-1-.9-2-1.5-3L124.8 87l-25.7 52c-.5.9-1 1.8-1.4 2.7-1.5 3.5-2.4 7.4-2.4 11.5 0 16.2 13.1 29.4 29.4 29.4s29.4-13.1 29.4-29.4c.1-3.9-.8-7.8-2.2-11.3z"/><path class="st1" d="M138.1 135c-.4-1-.9-2-1.5-3L111 80.1 85.4 132c-.5.9-1 1.8-1.4 2.7-1.5 3.5-2.4 7.4-2.4 11.5 0 16.2 13.1 29.4 29.4 29.4s29.4-13.1 29.4-29.4c0-3.9-.8-7.7-2.3-11.2z"/><ellipse class="st2" cx="98.4" cy="139.4" rx="8" ry="8.2"/></g></svg>