<svg xmlns="http://www.w3.org/2000/svg" viewBox="115 -1 360.9 252"><style>.st0{fill:#519E38;} .st1{fill:#FFFFFF;} .st2{fill:#EFEFEF;} .st3{fill:url(#SVGID_1_);} .st4{fill:url(#SVGID_2_);} .st5{fill:url(#SVGID_3_);} .st6{fill:url(#SVGID_4_);} .st7{fill:url(#SVGID_5_);}</style><g id="Layer_1"><path class="st0" d="M228.6 118.4h-53.9c-6.6 0-12-5.4-12-12V80.8c0-6.6 5.4-12 12-12h53.9c6.6 0 12 5.4 12 12v25.6c0 6.6-5.4 12-12 12z"/><path class="st1" d="M223.6 113.8h-53.9c-6.6 0-12-5.4-12-12V76.2c0-6.6 5.4-12 12-12h53.9c6.6 0 12 5.4 12 12v25.6c0 6.6-5.4 12-12 12z"/><circle class="st1" cx="178.6" cy="64.2" r="5.2"/><circle class="st2" cx="171.2" cy="78.4" r="3.3"/><circle class="st2" cx="198.9" cy="80.1" r="3.3"/><circle class="st2" cx="192.4" cy="81.6" r="1.6"/><circle class="st2" cx="204.4" cy="91.6" r="5.8"/><circle class="st1" cx="196.2" cy="112.6" r="3.8"/><circle class="st1" cx="218.6" cy="64.2" r="3.8"/><circle class="st1" cx="235.6" cy="89" r="3.8"/><circle class="st1" cx="205.5" cy="64.2" r="2.3"/><circle class="st1" cx="235.6" cy="83.9" r="2.3"/><circle class="st1" cx="211.3" cy="113.8" r="2.3"/><circle class="st1" cx="157.7" cy="83.9" r="3.8"/><circle class="st1" cx="157.7" cy="91.8" r="5.6"/><circle class="st1" cx="205.5" cy="110.6" r="5.6"/><path class="st0" d="M329.3 118.4h-53.9c-6.6 0-12-5.4-12-12V80.8c0-6.6 5.4-12 12-12h53.9c6.6 0 12 5.4 12 12v25.6c0 6.6-5.4 12-12 12z"/><path class="st1" d="M324.3 113.8h-53.9c-6.6 0-12-5.4-12-12V76.2c0-6.6 5.4-12 12-12h53.9c6.6 0 12 5.4 12 12v25.6c0 6.6-5.4 12-12 12z"/><circle class="st1" cx="279.3" cy="64.2" r="5.2"/><circle class="st2" cx="272" cy="78.4" r="3.3"/><circle class="st2" cx="299.7" cy="80.1" r="3.3"/><circle class="st2" cx="293.1" cy="81.6" r="1.6"/><circle class="st2" cx="305.1" cy="91.6" r="5.8"/><circle class="st1" cx="296.9" cy="112.6" r="3.8"/><circle class="st1" cx="319.3" cy="64.2" r="3.8"/><circle class="st1" cx="336.3" cy="89" r="3.8"/><circle class="st1" cx="306.2" cy="64.2" r="2.3"/><circle class="st1" cx="336.3" cy="83.9" r="2.3"/><circle class="st1" cx="312" cy="113.8" r="2.3"/><circle class="st1" cx="258.4" cy="83.9" r="3.8"/><circle class="st1" cx="258.4" cy="91.8" r="5.6"/><circle class="st1" cx="306.2" cy="110.6" r="5.6"/><g><path class="st0" d="M226.2 195.5h-53.9c-6.6 0-12-5.4-12-12v-25.6c0-6.6 5.4-12 12-12h53.9c6.6 0 12 5.4 12 12v25.6c0 6.6-5.4 12-12 12z"/><path class="st1" d="M221.2 191h-53.9c-6.6 0-12-5.4-12-12v-25.6c0-6.6 5.4-12 12-12h53.9c6.6 0 12 5.4 12 12V179c0 6.6-5.4 12-12 12z"/><circle class="st1" cx="176.2" cy="141.4" r="5.2"/><circle class="st2" cx="168.8" cy="155.5" r="3.3"/><circle class="st2" cx="196.6" cy="157.2" r="3.3"/><circle class="st2" cx="190" cy="158.8" r="1.6"/><circle class="st2" cx="202" cy="168.7" r="5.8"/><circle class="st1" cx="193.8" cy="189.8" r="3.8"/><circle class="st1" cx="216.2" cy="141.4" r="3.8"/><circle class="st1" cx="233.2" cy="166.2" r="3.8"/><circle class="st1" cx="203.1" cy="141.4" r="2.3"/><circle class="st1" cx="233.2" cy="161" r="2.3"/><circle class="st1" cx="208.9" cy="191" r="2.3"/><circle class="st1" cx="155.3" cy="161" r="3.8"/><circle class="st1" cx="155.3" cy="168.9" r="5.6"/><circle class="st1" cx="203.1" cy="187.8" r="5.6"/></g><g><path class="st0" d="M329.7 195.5h-53.9c-6.6 0-12-5.4-12-12v-25.6c0-6.6 5.4-12 12-12h53.9c6.6 0 12 5.4 12 12v25.6c0 6.6-5.4 12-12 12z"/><path class="st1" d="M324.7 191h-53.9c-6.6 0-12-5.4-12-12v-25.6c0-6.6 5.4-12 12-12h53.9c6.6 0 12 5.4 12 12V179c0 6.6-5.4 12-12 12z"/><circle class="st1" cx="279.7" cy="141.4" r="5.2"/><circle class="st2" cx="272.3" cy="155.5" r="3.3"/><circle class="st2" cx="300" cy="157.2" r="3.3"/><circle class="st2" cx="293.4" cy="158.8" r="1.6"/><circle class="st2" cx="305.4" cy="168.7" r="5.8"/><circle class="st1" cx="297.2" cy="189.8" r="3.8"/><circle class="st1" cx="319.6" cy="141.4" r="3.8"/><circle class="st1" cx="336.7" cy="166.2" r="3.8"/><circle class="st1" cx="306.5" cy="141.4" r="2.3"/><circle class="st1" cx="336.7" cy="161" r="2.3"/><circle class="st1" cx="312.3" cy="191" r="2.3"/><circle class="st1" cx="258.7" cy="161" r="3.8"/><circle class="st1" cx="258.7" cy="168.9" r="5.6"/><circle class="st1" cx="306.5" cy="187.8" r="5.6"/></g><g><path class="st0" d="M426.3 194.3h-53.9c-6.6 0-12-5.4-12-12v-25.6c0-6.6 5.4-12 12-12h53.9c6.6 0 12 5.4 12 12v25.6c0 6.6-5.4 12-12 12z"/><path class="st1" d="M421.3 189.7h-53.9c-6.6 0-12-5.4-12-12v-25.6c0-6.6 5.4-12 12-12h53.9c6.6 0 12 5.4 12 12v25.6c0 6.6-5.4 12-12 12z"/><circle class="st1" cx="376.3" cy="140.1" r="5.2"/><circle class="st2" cx="368.9" cy="154.3" r="3.3"/><circle class="st2" cx="396.6" cy="156" r="3.3"/><circle class="st2" cx="390" cy="157.6" r="1.6"/><circle class="st2" cx="402.1" cy="167.5" r="5.8"/><circle class="st1" cx="393.8" cy="188.5" r="3.8"/><circle class="st1" cx="416.2" cy="140.1" r="3.8"/><circle class="st1" cx="433.3" cy="164.9" r="3.8"/><circle class="st1" cx="403.1" cy="140.1" r="2.3"/><circle class="st1" cx="433.3" cy="159.8" r="2.3"/><circle class="st1" cx="408.9" cy="189.7" r="2.3"/><circle class="st1" cx="355.4" cy="159.8" r="3.8"/><circle class="st1" cx="355.4" cy="167.7" r="5.6"/><circle class="st1" cx="403.1" cy="186.5" r="5.6"/></g><g><path class="st0" d="M428.7 118.7h-53.9c-6.6 0-12-5.4-12-12V81.1c0-6.6 5.4-12 12-12h53.9c6.6 0 12 5.4 12 12v25.6c0 6.6-5.4 12-12 12z"/><path class="st1" d="M423.7 114.1h-53.9c-6.6 0-12-5.4-12-12V76.5c0-6.6 5.4-12 12-12h53.9c6.6 0 12 5.4 12 12v25.6c0 6.6-5.4 12-12 12z"/><circle class="st1" cx="378.7" cy="64.5" r="5.2"/><circle class="st2" cx="371.3" cy="78.7" r="3.3"/><circle class="st2" cx="399" cy="80.4" r="3.3"/><circle class="st2" cx="392.4" cy="82" r="1.6"/><circle class="st2" cx="404.5" cy="91.9" r="5.8"/><circle class="st1" cx="396.2" cy="112.9" r="3.8"/><circle class="st1" cx="418.6" cy="64.5" r="3.8"/><circle class="st1" cx="435.7" cy="89.3" r="3.8"/><circle class="st1" cx="405.5" cy="64.5" r="2.3"/><circle class="st1" cx="435.7" cy="84.2" r="2.3"/><circle class="st1" cx="411.3" cy="114.1" r="2.3"/><circle class="st1" cx="357.8" cy="84.2" r="3.8"/><circle class="st1" cx="357.8" cy="92.1" r="5.6"/><circle class="st1" cx="405.5" cy="110.9" r="5.6"/></g></g><g id="snow"><linearGradient id="SVGID_1_" gradientUnits="userSpaceOnUse" x1="386.226" y1="211.443" x2="404.001" y2="161.079" gradientTransform="matrix(1 0 0 -1 0 250)"><stop offset="0" stop-color="#404B71"/><stop offset=".604" stop-color="#3C476E"/><stop offset="1" stop-color="#354169"/></linearGradient><path class="st3" d="M390.6 83.9l-1.9-7.1 1.7-3 .2.9c.3.9 1.2 1.5 2.2 1.2.2 0 .3-.1.4-.2.7-.4 1-1.2.8-2l-1.1-4.3 2.1-3.7 2.1 3.7-1.2 4.3c-.3.9.3 1.9 1.2 2.2.5.1.9 0 1.3-.2s.7-.6.8-1.1l.2-.9 1.7 3-1.9 7.1c-.3.9.3 1.9 1.2 2.2.5.1.9 0 1.3-.2s.7-.6.8-1.1l1-3.7 2.8 4.8c.5.8 1.6 1.1 2.4.6s1.1-1.6.6-2.4l-2.8-4.8 3.7 1c.5.1.9 0 1.3-.2s.7-.6.8-1.1c.3-.9-.3-1.9-1.2-2.2l-7.1-1.9-1.7-3 .9.2c.5.1.9.1 1.3-.2.4-.2.7-.6.8-1.1.3-.9-.3-1.9-1.2-2.2l-4.3-1.1-2.1-3.7h4.2l3.1 3.1c.6.6 1.5.7 2.1.3.1-.1.3-.2.4-.3.7-.7.7-1.8 0-2.5l-.6-.6h3.5l5.2 5.2c.6.6 1.5.7 2.1.3.1-.1.3-.2.4-.3.7-.7.7-1.8 0-2.5l-2.7-2.7h5.6c.3 0 .6-.1.9-.2.5-.3.9-.9.9-1.5 0-1-.8-1.8-1.8-1.8h-5.6l2.7-2.7c.7-.7.7-1.8 0-2.5s-1.8-.7-2.5 0l-5.2 5.2h-3.5l.6-.6c.7-.7.7-1.8 0-2.5s-1.8-.7-2.5 0l-3.1 3.1h-4.2l2.1-3.7 4.3-1.1c.2 0 .3-.1.4-.2.7-.4 1-1.2.8-2-.3-.9-1.2-1.5-2.2-1.2l-.9.2 1.7-3 7.1-1.9c.2 0 .3-.1.4-.2.7-.4 1-1.2.8-2-.3-.9-1.2-1.5-2.2-1.2l-3.7 1 2.8-4.8c.5-.8.2-1.9-.6-2.4s-1.9-.2-2.4.6l-2.8 4.8-1-3.7c-.3-.9-1.2-1.5-2.2-1.2-.9.3-1.5 1.2-1.2 2.2l1.9 7.1-1.7 3-.2-.9c-.3-.9-1.2-1.5-2.2-1.2-.9.3-1.5 1.2-1.2 2.2l1.1 4.3-2.1 3.7-2.1-3.7 1.1-4.3c.3-.9-.3-1.9-1.2-2.2-.9-.3-1.9.3-2.2 1.2l-.2.9-1.7-3 1.9-7.1c.3-.9-.3-1.9-1.2-2.2-.9-.3-1.9.3-2.2 1.2l-1 3.7-2.8-4.8c-.5-.8-1.6-1.1-2.4-.6s-1.1 1.6-.6 2.4l2.8 4.8-3.7-1c-.9-.3-1.9.3-2.2 1.2-.3.9.3 1.9 1.2 2.2l7.1 1.9 1.7 3-.9-.2c-.9-.3-1.9.3-2.2 1.2-.3.9.3 1.9 1.2 2.2l4.3 1.1 2.1 3.7h-4.2l-3.1-3.1c-.7-.7-1.8-.7-2.5 0s-.7 1.8 0 2.5l.6.6h-3.5l-5.2-5.2c-.7-.7-1.8-.7-2.5 0s-.7 1.8 0 2.5l2.7 2.7H368c-1 0-1.8.8-1.8 1.8s.8 1.8 1.8 1.8h5.6l-2.7 2.7c-.7.7-.7 1.8 0 2.5.6.6 1.5.7 2.1.3.1-.1.3-.2.4-.3l5.2-5.2h3.5l-.6.6c-.7.7-.7 1.8 0 2.5.6.6 1.5.7 2.1.3.1-.1.3-.2.4-.3l3.1-3.1h4.2l-2.1 3.7-4.3 1.1c-.9.3-1.5 1.2-1.2 2.2.3.9 1.2 1.5 2.2 1.2l.9-.2-1.7 3-7.1 1.9c-.9.3-1.5 1.2-1.2 2.2.3.9 1.2 1.5 2.2 1.2l3.7-1-2.8 4.8c-.5.8-.2 1.9.6 2.4.6.3 1.2.3 1.8 0 .3-.1.5-.4.6-.6l2.8-4.8 1 3.7c.3.9 1.2 1.5 2.2 1.2.2 0 .3-.1.4-.2 1.2-.1 1.5-.9 1.3-1.7z"/><linearGradient id="SVGID_2_" gradientUnits="userSpaceOnUse" x1="254.366" y1="140.495" x2="259.741" y2="125.268" gradientTransform="matrix(1 0 0 -1 0 250)"><stop offset="0" stop-color="#404B71"/><stop offset=".604" stop-color="#3C476E"/><stop offset="1" stop-color="#354169"/></linearGradient><path class="st4" d="M256 123.1l-.6-2.1.5-.9.1.3c.1.3.4.5.7.4 0 0 .1 0 .1-.1.2-.1.3-.4.2-.6l-.3-1.3.6-1.1.6 1.1-.3 1.3c-.1.3.1.6.4.7.1 0 .3 0 .4-.1s.2-.2.2-.3l.1-.3.5.9-.6 2.1c-.1.3.1.6.4.7.1 0 .3 0 .4-.1.1-.1.2-.2.2-.3l.3-1.1.8 1.5c.1.3.5.3.7.2.3-.1.3-.5.2-.7l-.8-1.5 1.1.3c.1 0 .3 0 .4-.1.1-.1.2-.2.2-.3.1-.3-.1-.6-.4-.7l-2.1-.6-.5-.9.3.1c.1 0 .3 0 .4-.1.1-.1.2-.2.2-.3.1-.3-.1-.6-.4-.7l-1.3-.3-.6-1.1h1.3l.9.9c.2.2.4.2.6.1l.1-.1c.2-.2.2-.5 0-.8l-.2-.2h1.1l1.6 1.6c.2.2.4.2.6.1 0 0 .1 0 .1-.1.2-.2.2-.5 0-.8l-.8-.8h1.7c.1 0 .2 0 .3-.1.2-.1.3-.3.3-.5 0-.3-.2-.5-.5-.5h-1.7l.8-.8c.2-.2.2-.5 0-.8-.2-.2-.5-.2-.8 0l-1.6 1.6h-.9l.2-.2c.2-.2.2-.5 0-.8-.2-.2-.5-.2-.8 0l-.9.9h-1.3l.6-1.1 1.3-.3s.1 0 .1-.1c.2-.1.3-.4.2-.6-.1-.3-.4-.5-.7-.4l-.3.1.5-.9 2.1-.6s.1 0 .1-.1c.2-.1.3-.4.2-.6-.1-.3-.4-.5-.7-.4l-1.1.3.8-1.5c.1-.3.1-.6-.2-.7-.3-.1-.6-.1-.7.2l-.8 1.5-.3-1.1c-.1-.3-.4-.5-.7-.4-.3.1-.5.4-.4.7l.6 2.1-.5.9-.1-.3c-.1-.3-.4-.5-.7-.4s-.5.4-.4.7l.3 1.3-.6 1.1-.6-1.1.3-1.3c.1-.3-.1-.6-.4-.7-.3-.1-.6.1-.7.4l-.1.3-.5-.9.6-2.1c.1-.3-.1-.6-.4-.7-.3-.1-.6.1-.7.4l-.3 1.1-.8-1.5c-.1-.3-.5-.3-.7-.2-.3.1-.3.5-.2.7l.8 1.5-1.1-.3c-.3-.1-.6.1-.7.4-.1.3.1.6.4.7l2.1.6.5.9-.3-.1c-.3-.1-.6.1-.7.4-.1.3.1.6.4.7l1.3.3.6 1.1h-1.3l-.9-.9c-.2-.2-.5-.2-.8 0-.2.2-.2.5 0 .8l.2.2h-1.1l-1.6-1.6c-.2-.2-.5-.2-.8 0-.2.2-.2.5 0 .8l.8.8h-1.7c-.3 0-.5.2-.5.5s.2.5.5.5h1.7l-.8.8c-.2.2-.2.5 0 .8.2.2.4.2.6.1 0 0 .1 0 .1-.1l1.6-1.6h1.1l-.2.2c-.2.2-.2.5 0 .8.2.2.4.2.6.1l.1-.1.9-.9h1.3l-.6 1.1-1.3.3c-.3.1-.5.4-.4.7.1.3.4.5.7.4l.3-.1-.5.9-2.1.6c-.3.1-.5.4-.4.7.1.3.4.5.7.4l1.1-.3-.8 1.5c-.1.3-.1.6.2.7.2.1.4.1.5 0 .1 0 .1-.1.2-.2l.8-1.5.3 1.1c.1.3.4.5.7.4 0 0 .1 0 .1-.1 1 0 1.1-.2 1.1-.5z"/><linearGradient id="SVGID_3_" gradientUnits="userSpaceOnUse" x1="182.681" y1="113.351" x2="194.266" y2="80.525" gradientTransform="matrix(1 0 0 -1 0 250)"><stop offset="0" stop-color="#404B71"/><stop offset=".604" stop-color="#3C476E"/><stop offset="1" stop-color="#354169"/></linearGradient><path class="st5" d="M185.2 166.3l-1.2-4.6 1.1-2 .2.6c.2.6.8 1 1.4.8.1 0 .2-.1.3-.1.4-.3.7-.8.5-1.3l-.7-2.8 1.4-2.4 1.4 2.4-.8 2.8c-.2.6.2 1.2.8 1.4.3.1.6 0 .9-.1.3-.1.5-.4.5-.7l.2-.6 1.1 2-1.2 4.6c-.2.6.2 1.2.8 1.4.3.1.6 0 .9-.1.3-.1.5-.4.5-.7l.6-2.4 1.8 3.2c.3.5 1 .7 1.6.4.5-.3.7-1 .4-1.6l-1.8-3.2 2.4.6c.3.1.6 0 .9-.1s.5-.4.5-.7c.2-.6-.2-1.2-.8-1.4l-4.6-1.2-1.1-2 .6.2c.3.1.6 0 .9-.1s.5-.4.5-.7c.2-.6-.2-1.2-.8-1.4l-2.8-.7-1.4-2.4h2.8l2 2c.4.4.9.4 1.4.2.1-.1.2-.1.2-.2.4-.4.4-1.2 0-1.6l-.4-.4h2.3l3.4 3.4c.4.4.9.4 1.4.2.1-.1.2-.1.2-.2.4-.4.4-1.2 0-1.6l-1.8-1.8h3.6c.2 0 .4-.1.6-.2.3-.2.6-.6.6-1 0-.6-.5-1.2-1.2-1.2h-3.6l1.8-1.8c.4-.4.4-1.2 0-1.6-.5-.5-1.2-.4-1.6 0l-3.4 3.4h-2.3l.4-.4c.4-.4.4-1.2 0-1.6-.5-.4-1.2-.4-1.6 0l-2 2h-2.8l1.4-2.4 2.8-.7c.1 0 .2-.1.3-.1.4-.3.7-.8.5-1.3-.2-.6-.8-1-1.4-.8l-.6.2 1.1-2 4.6-1.2c.1 0 .2-.1.3-.1.4-.3.7-.8.5-1.3-.2-.6-.8-1-1.4-.8l-2.4.6 1.8-3.2c.3-.6.1-1.3-.4-1.6s-1.3-.1-1.6.4l-1.8 3.2-.6-2.4c-.2-.6-.8-1-1.4-.8s-1 .8-.8 1.4l1.2 4.6-1.1 2-.2-.6c-.2-.6-.8-1-1.4-.8s-1 .8-.8 1.4l.7 2.8-1.4 2.4-1.4-2.4.7-2.8c.2-.6-.2-1.2-.8-1.4-.6-.2-1.2.2-1.4.8l-.2.6-1.1-2 1.2-4.6c.2-.6-.2-1.2-.8-1.4s-1.2.2-1.4.8l-.6 2.4-1.8-3.2c-.3-.5-1-.7-1.6-.4-.6.3-.7 1-.4 1.6l1.8 3.2-2.4-.6c-.6-.2-1.2.2-1.4.8s.2 1.2.8 1.4l4.6 1.2 1.1 2-.6-.2c-.6-.2-1.2.2-1.4.8s.2 1.2.8 1.4l2.8.7 1.4 2.4h-2.8l-2-2c-.4-.5-1.2-.4-1.6 0-.4.5-.4 1.2 0 1.6l.4.4h-2.3l-3.4-3.4c-.4-.4-1.2-.4-1.6 0-.4.4-.4 1.2 0 1.6l1.8 1.8h-3.6c-.6 0-1.1.5-1.1 1.1s.5 1.1 1.1 1.1h3.6l-1.8 1.8c-.4.5-.4 1.2 0 1.6.4.4.9.4 1.4.2.1 0 .2-.1.2-.2l3.4-3.4h2.3l-.4.4c-.4.4-.4 1.2 0 1.6.4.4.9.4 1.4.2.1 0 .2-.1.2-.2l2-2h2.8l-1.4 2.4-2.8.7c-.6.2-1 .8-.8 1.4.2.6.8 1 1.4.8l.6-.2-1.1 2-4.6 1.2c-.6.2-1 .8-.8 1.4.2.6.8 1 1.4.8l2.4-.6-1.8 3.2c-.3.6-.1 1.3.4 1.6.4.2.8.2 1.2 0 .2-.1.3-.2.4-.4l1.8-3.2.6 2.4c.2.6.8 1 1.4.8.1 0 .2-.1.3-.1.5 0 .7-.5.6-1.1z"/><linearGradient id="SVGID_4_" gradientUnits="userSpaceOnUse" x1="312.874" y1="110.717" x2="345.226" y2="34.998" gradientTransform="matrix(1 0 0 -1 0 250)"><stop offset="0" stop-color="#404B71"/><stop offset=".604" stop-color="#3C476E"/><stop offset="1" stop-color="#354169"/></linearGradient><path class="st6" d="M365.6 173.3h-7l3.4-3.4c.9-.9.9-2.3 0-3.1-.9-.9-2.3-.9-3.1 0l-6.5 6.5H348l1.9-1.9c.9-.9.9-2.3 0-3.1-.9-.9-2.3-.9-3.1 0l-5.1 5.1h-4.3l.1-.1c.8-.8.9-2.2.1-3-.3-1.1-1.5-1.8-2.7-1.5l-.2.1 2.1-3.7 6.9-1.9c.2 0 .4-.1.5-.2.8-.5 1.3-1.5 1-2.5-.3-1.2-1.5-1.9-2.7-1.6l-2.6.7 2.2-3.8 8.9-2.4c.2-.1.4-.1.5-.2.8-.5 1.3-1.5 1-2.5-.3-1.2-1.5-1.9-2.7-1.6l-4.6 1.2 3.5-6.1c.6-1.1.2-2.4-.8-3-1.1-.6-2.4-.2-3 .8l-3.5 6.1-1.2-4.6c-.3-1.2-1.5-1.9-2.7-1.6-1.2.3-1.9 1.5-1.6 2.7l2.4 8.9-2.2 3.8-.7-2.6c-.3-1.2-1.5-1.9-2.7-1.6-1.2.3-1.9 1.5-1.6 2.7l1.9 6.9-2.1 3.7v-.2c-.3-1.2-1.5-1.8-2.6-1.6-1.1-.2-2.3.4-2.6 1.6v.2l-2.1-3.7 1.9-6.9c.3-1.2-.4-2.4-1.6-2.7-1.2-.3-2.4.4-2.7 1.6l-.7 2.6-2.2-3.8 2.4-8.9c.3-1.2-.4-2.4-1.6-2.7-1.2-.3-2.4.4-2.7 1.6l-1.2 4.6-3.5-6.1c-.6-1.1-2-1.4-3-.8-1.1.6-1.4 2-.8 3l3.5 6.1-4.6-1.2c-1.2-.3-2.4.4-2.7 1.6-.3 1.2.4 2.4 1.6 2.7l8.9 2.4 2.2 3.8-2.6-.7c-1.2-.3-2.4.4-2.7 1.6-.3 1.2.4 2.4 1.6 2.7l6.9 1.9 2.1 3.7h-.2c-1.1-.3-2.3.3-2.6 1.4-.9.9-.8 2.3 0 3.1l.1.1h-4.3l-5.1-5.1c-.9-.9-2.3-.9-3.1 0-.9.9-.9 2.3 0 3.1l1.9 1.9h-4.4l-6.5-6.5c-.9-.9-2.3-.9-3.1 0-.9.9-.9 2.3 0 3.1l3.4 3.4h-7c-1.2 0-2.2 1-2.2 2.2s1 2.2 2.2 2.2h7l-3.4 3.4c-.9.9-.9 2.3 0 3.1.7.7 1.8.8 2.7.4.2-.1.3-.2.5-.4l6.5-6.5h4.4l-1.9 1.9c-.9.9-.9 2.3 0 3.1.7.7 1.8.8 2.7.4.2-.1.3-.2.5-.4l5.1-5.1h4.3l-.1.1c-.8.8-.9 2.2-.1 3 .3 1.1 1.5 1.8 2.7 1.5h.2l-2.1 3.7-6.9 1.9c-1.2.3-1.9 1.5-1.6 2.7s1.5 1.9 2.7 1.6l2.6-.7-2.2 3.8-8.9 2.4c-1.2.3-1.9 1.5-1.6 2.7.3 1.2 1.5 1.9 2.7 1.6l4.6-1.2-3.5 6.1c-.6 1.1-.2 2.4.8 3 .7.4 1.6.4 2.2 0 .3-.2.6-.5.8-.8l3.5-6.1 1.2 4.6c.3 1.2 1.5 1.9 2.7 1.6.2-.1.4-.1.5-.2.8-.5 1.3-1.5 1-2.5l-2.4-8.9 2.2-3.8.7 2.6c.3 1.2 1.5 1.9 2.7 1.6.2 0 .4-.1.5-.2.8-.5 1.3-1.5 1-2.5l-1.9-6.9 2.1-3.7v.2c.3 1.2 1.5 1.8 2.6 1.6.6.1 1.1 0 1.6-.2.5-.3.9-.8 1-1.3v-.2l2.1 3.7-1.9 6.9c-.3 1.2.4 2.4 1.6 2.7.6.2 1.2.1 1.7-.2s.9-.8 1-1.3l.7-2.6 2.2 3.8-2.4 8.9c-.3 1.2.4 2.4 1.6 2.7.6.2 1.2.1 1.7-.2s.9-.8 1-1.3l1.2-4.6 3.5 6.1c.6 1.1 2 1.4 3 .8 1.1-.6 1.4-2 .8-3l-3.5-6.1 4.6 1.2c.6.2 1.2.1 1.7-.2s.9-.8 1-1.3c.3-1.2-.4-2.4-1.6-2.7l-8.9-2.4-2.2-3.8 2.6.7c.6.2 1.2.1 1.7-.2s.9-.8 1-1.3c.3-1.2-.4-2.4-1.6-2.7l-6.9-1.9-2.1-3.7h.2c.6.2 1.2.1 1.7-.2.4-.3.8-.7 1-1.2.9-.9.8-2.3 0-3.1l-.1-.1h4.3l5.1 5.1c.7.7 1.8.8 2.7.4.2-.1.3-.2.5-.4.9-.9.9-2.3 0-3.1l-1.9-1.9h4.4l6.5 6.5c.7.7 1.8.8 2.7.4.2-.1.3-.2.5-.4.9-.9.9-2.3 0-3.1l-3.4-3.4h7c.4 0 .8-.1 1.1-.3.7-.4 1.1-1.1 1.1-1.9-.1-1.8-1.1-2.8-2.3-2.8zm-36 4.6c-1.4.8-3.1.3-3.9-1-.8-1.4-.3-3.1 1-3.9 1.4-.8 3.1-.3 3.9 1 .8 1.4.4 3.1-1 3.9z"/><linearGradient id="SVGID_5_" gradientUnits="userSpaceOnUse" x1="267.732" y1="204.514" x2="281.098" y2="173.224" gradientTransform="matrix(1 0 0 -1 0 250)"><stop offset="0" stop-color="#404B71"/><stop offset=".604" stop-color="#3C476E"/><stop offset="1" stop-color="#354169"/></linearGradient><path class="st7" d="M291.6 61.5h-1.1l.4-.6c.3-.4.2-.9-.2-1.1-.4-.3-.9-.2-1.1.2l-1 1.5H287l2.2-3.2c.3-.4.2-.9-.2-1.1-.4-.3-.9-.2-1.1.2l-2.8 4.1h-1.5l1.3-1.9c.3-.4.2-.9-.2-1.1-.4-.3-.9-.2-1.1.2l-1.9 2.8h-1l.4-.6c.3-.4.2-.9-.2-1.1-.4-.3-.9-.2-1.1.2l-1 1.5h-.4l-.9-1.6.2-.3 1.8-.2c.4 0 .8-.4.7-.9 0-.4-.4-.8-.9-.7l-.7.1.5-.9 3.4-.3c.4 0 .8-.4.7-.9 0-.4-.4-.8-.9-.7l-2.3.2.7-1.3 5-.4c.4 0 .8-.4.7-.9 0-.4-.4-.8-.9-.7l-3.8.3.8-1.4 1.8-.2c.4 0 .8-.4.7-.9 0-.4-.4-.8-.9-.7l-.7.1.6-1c.2-.4.1-.9-.3-1.1-.4-.2-.9-.1-1.1.3l-.6 1-.3-.6c-.2-.4-.7-.6-1.1-.4-.4.2-.6.7-.4 1.1l.8 1.7-.8 1.4-1.6-3.5c-.2-.4-.7-.6-1.1-.4-.4.2-.6.7-.4 1.1l2.1 4.5-.7 1.3-1-2.1c-.2-.4-.7-.6-1.1-.4-.4.2-.6.7-.4 1.1l1.4 3.1-.4.7-.3-.6c-.2-.4-.7-.6-1.1-.4-.4.2-.6.7-.4 1.1l.8 1.7-.2.3h-1.9l-.2-.3.8-1.7c.2-.4 0-.9-.4-1.1-.4-.2-.9 0-1.1.4l-.3.6-.5-.9 1.4-3.1c.2-.4 0-.9-.4-1.1-.4-.2-.9 0-1.1.4l-1 2.1-.7-1.3 2.1-4.5c.2-.4 0-.9-.4-1.1-.4-.2-.9 0-1.1.4l-1.6 3.5-.8-1.4.8-1.7c.2-.4 0-.9-.4-1.1-.4-.2-.9 0-1.1.4l-.3.6-.6-1c-.2-.4-.7-.5-1.1-.3s-.5.7-.3 1.1l.6 1-.7-.1c-.4 0-.8.3-.9.7 0 .4.3.8.7.9l1.8.2.8 1.4-3.8-.3c-.4 0-.8.3-.9.7 0 .4.3.8.7.9l5 .4.7 1.3-2.3-.2c-.4 0-.8.3-.9.7 0 .4.3.8.7.9l3.4.3.5.9-.7-.1c-.4 0-.8.3-.9.7 0 .4.3.8.7.9l1.8.2.2.3-.9 1.6h-.4l-1-1.5c-.3-.4-.8-.5-1.1-.2-.4.3-.5.8-.2 1.1l.4.6h-1l-1.9-2.8c-.3-.4-.8-.5-1.1-.2-.4.3-.5.8-.2 1.1l1.3 1.9h-1.5l-2.8-4.1c-.3-.4-.8-.5-1.1-.2-.4.3-.5.8-.2 1.1l2.2 3.2H261l-1-1.5c-.3-.4-.8-.5-1.1-.2-.4.3-.5.8-.2 1.1l.4.6H258c-.4 0-.8.4-.8.8s.4.8.8.8h1.1l-.4.6c-.3.4-.2.9.2 1.1.1.1.3.1.5.1.3 0 .5-.1.7-.3l1-1.5h1.6l-2.2 3.2c-.3.4-.2.9.2 1.1.1.1.3.1.5.1.3 0 .5-.1.7-.3l2.8-4.1h1.5L265 65c-.3.4-.2.9.2 1.1.1.1.3.1.5.1.3 0 .5-.1.7-.3l1.9-2.8h1l-.4.6c-.3.4-.2.9.2 1.1.1.1.3.1.5.1.3 0 .5-.1.7-.3l1-1.5h.4l.9 1.6-.2.3-1.8.2c-.4 0-.8.4-.7.9 0 .4.4.7.8.7h.1l.7-.1-.5.9-3.4.3c-.4 0-.8.4-.7.9 0 .4.4.7.8.7h.1l2.3-.2-.7 1.3-5 .4c-.4 0-.8.4-.7.9 0 .4.4.7.8.7h.1l3.8-.3-.8 1.4-1.8.2c-.4 0-.8.4-.7.9 0 .4.4.7.8.7h.1l.7-.1-.6 1c-.2.4-.1.9.3 1.1.1.1.3.1.4.1.3 0 .6-.1.7-.4l.6-1 .3.6c.1.3.4.5.7.5.1 0 .2 0 .3-.1.4-.2.6-.7.4-1.1l-.8-1.7.8-1.4 1.6 3.5c.1.3.4.5.7.5.1 0 .2 0 .3-.1.4-.2.6-.7.4-1.1l-2.1-4.5.7-1.3 1 2.1c.1.3.4.5.7.5.1 0 .2 0 .3-.1.4-.2.6-.7.4-1.1l-1.4-3.1.5-.9.3.6c.1.3.4.5.7.5.1 0 .2 0 .3-.1.4-.2.6-.7.4-1.1l-.8-1.7.2-.3h1.9l.2.3-.8 1.7c-.2.4 0 .9.4 1.1.1.1.2.1.3.1.3 0 .6-.2.7-.5l.3-.6.5.9-1.4 3.1c-.2.4 0 .9.4 1.1.1.1.2.1.3.1.3 0 .6-.2.7-.5l1-2.1.7 1.3-2.1 4.5c-.2.4 0 .9.4 1.1.1.1.2.1.3.1.3 0 .6-.2.7-.5l1.6-3.5.8 1.4-.8 1.7c-.2.4 0 .9.4 1.1.1.1.2.1.3.1.3 0 .6-.2.7-.5l.3-.6.6 1c.2.3.4.4.7.4.1 0 .3 0 .4-.1.4-.2.5-.7.3-1.1l-.6-1 .7.1h.1c.4 0 .8-.3.8-.7 0-.4-.3-.8-.7-.9l-1.8-.2-.8-1.4 3.8.3h.1c.4 0 .8-.3.8-.7 0-.4-.3-.8-.7-.9l-5-.4-.7-1.3 2.3.2h.1c.4 0 .8-.3.8-.7 0-.4-.3-.8-.7-.9l-3.4-.3-.5-.9.7.1h.1c.4 0 .8-.3.8-.7 0-.4-.3-.8-.7-.9l-1.8-.2-.2-.3.9-1.6h.4l1 1.5c.2.2.4.3.7.3.2 0 .3 0 .5-.1.4-.3.5-.8.2-1.1l-.4-.6h1l1.9 2.8c.2.2.4.3.7.3.2 0 .3 0 .5-.1.4-.3.5-.8.2-1.1l-1.3-1.9h1.5l2.8 4.1c.2.2.4.3.7.3.2 0 .3 0 .5-.1.4-.3.5-.8.2-1.1l-2.2-3.2h1.6l1 1.5c.2.2.4.3.7.3.2 0 .3 0 .5-.1.4-.3.5-.8.2-1.1l-.4-.6h1.1c.4 0 .8-.4.8-.8-.2-.5-.6-.8-1-.8zm-17.7 2.4l-.9-1.6.9-1.6h1.9l.9 1.6-.9 1.6h-1.9z"/><circle class="st1" cx="305.7" cy="41.5" r="3.8"/><circle class="st1" cx="166" cy="113" r="3.8"/><circle class="st1" cx="171.5" cy="127.5" r="1.7"/><circle class="st1" cx="158.3" cy="136.2" r="1.7"/><circle class="st1" cx="292.4" cy="37.7" r="1.7"/><circle class="st1" cx="323.1" cy="77.6" r="4.2"/><circle class="st1" cx="355.2" cy="215.2" r="4.2"/><circle class="st1" cx="346.3" cy="88.6" r="3.1"/><circle class="st1" cx="340.3" cy="98" r="1.7"/><circle class="st1" cx="311.2" cy="86.9" r="1.7"/><circle class="st1" cx="399.6" cy="113" r="1.7"/><circle class="st1" cx="365.3" cy="88.6" r="1.7"/><circle class="st1" cx="358.6" cy="101.4" r="1.7"/><circle class="st1" cx="356.9" cy="88.4" r="1.7"/><circle class="st1" cx="365.3" cy="77.6" r="1.7"/><circle class="st1" cx="410" cy="90.2" r="1.7"/><circle class="st1" cx="415" cy="83.5" r="1.7"/><circle class="st1" cx="362" cy="205.7" r="1.7"/><circle class="st1" cx="374.6" cy="204" r="1.7"/><circle class="st1" cx="367" cy="213.5" r="1.7"/><circle class="st1" cx="331.4" cy="75.9" r="1.7"/><circle class="st1" cx="338.6" cy="83.5" r="1.7"/></g></svg>