<svg xmlns="http://www.w3.org/2000/svg" viewBox="0 0 243.7 162"><style>.st0{fill:#519E38;} .st1{fill:#FCF3E0;} .st2{fill:#FFFFFF;}</style><g id="car"><path class="st0" d="M165.7 111.4H90.2c-13.7 0-24.8-11.2-24.8-24.8 0-13.7 11.2-24.8 24.8-24.8h75.5c13.7 0 24.8 11.2 24.8 24.8.1 13.6-11.1 24.8-24.8 24.8z"/><path class="st1" d="M157.4 106.8H81.9c-13.7 0-24.8-11.2-24.8-24.8 0-13.7 11.2-24.8 24.8-24.8h75.5c13.7 0 24.8 11.2 24.8 24.8.1 13.6-11.1 24.8-24.8 24.8z"/><path class="st2" d="M83.6 76.6h-7.3c-1.5 0-2.6-1.2-2.6-2.6v-4.4c0-1.5 1.2-2.6 2.6-2.6h7.3c1.5 0 2.6 1.2 2.6 2.6V74c.1 1.4-1.1 2.6-2.6 2.6z"/></g></svg>