<svg xmlns="http://www.w3.org/2000/svg" viewBox="0 0 333 273"><style>.st0{fill:#FFF33B;} .st1{fill:#FFFCDC;} .st2{fill:#FFFFFF;}</style><g id="masloboika"><path class="st0" d="M198.2 217.8l-69.7-21.2c-6.3-1.9-9.9-8.7-8-15l21.2-69.7c1.9-6.3 8.7-9.9 15-8l69.7 21.2c6.3 1.9 9.9 8.7 8 15l-21.2 69.7c-1.9 6.4-8.7 10-15 8z"/><path class="st1" d="M152.3 155.2c-4.2-1.3-6.6-5.8-5.3-10l6.4-20.8c1.3-4.2 5.8-6.6 10-5.3 4.2 1.3 6.6 5.8 5.3 10l-6.4 20.8c-1.3 4.2-5.8 6.6-10 5.3z"/><path class="st2" d="M188 24.1l17.1 34.7c.4.6.7 1.3 1 2 1 2.3 1.5 4.9 1.5 7.6 0 10.8-8.8 19.6-19.6 19.6s-19.6-8.8-19.6-19.6c0-2.7.6-5.3 1.6-7.7l.9-1.8L188 24.1m0-2c-.8 0-1.5.4-1.8 1.1L169.1 58c-.4.6-.7 1.3-1 2v.1c-1.1 2.7-1.7 5.5-1.7 8.5 0 11.9 9.7 21.6 21.6 21.6 11.9 0 21.6-9.7 21.6-21.6 0-2.9-.6-5.7-1.7-8.3v-.1c-.3-.7-.6-1.4-1-2.1l-17.1-34.6c-.3-.9-1-1.4-1.8-1.4z"/><ellipse class="st2" cx="178.6" cy="71.5" rx="3.5" ry="3.6"/><path class="st2" d="M179.4 61.3c-1.6-.7-2.3-2.4-1.7-4l5.3-12.9c.6-1.6 2.4-2.3 4-1.7 1.6.6 2.3 2.4 1.7 4l-5.3 12.9c-.6 1.6-2.4 2.3-4 1.7z"/></g></svg>