<?xml version="1.0" encoding="utf-8"?>
<!-- Generator: Adobe Illustrator 19.0.0, SVG Export Plug-In . SVG Version: 6.00 Build 0)  -->
<svg version="1.1" id="lupa" xmlns="http://www.w3.org/2000/svg" xmlns:xlink="http://www.w3.org/1999/xlink" x="0px" y="0px"
	 viewBox="-139 320.9 316.5 201" style="enable-background:new -139 320.9 316.5 201;" xml:space="preserve">
<style type="text/css">
	.st0{fill:#519E38;}
	.st1{fill:#F2D291;}
	.st2{fill:#DDB97A;}
	.st3{fill:#0E3656;}
	.st4{fill:#446666;}
	.st5{fill:#FFFFFF;}
	.st6{fill:#EAD8CA;}
	.st7{fill:#E2CEC0;}
	.st8{fill:#664938;}
	.st9{fill:#563C2E;}
</style>
<path class="st0" d="M-26,475c-0.2-0.5-0.4-1.1-0.7-1.6l-10.2-17.2l11.4-6.7c-6.1-10.4-19.5-13.8-29.9-7.7
	c-10.4,6.1-13.8,19.5-7.7,29.9l11.4-6.7l10.2,17.2c2.4,4.1,7.7,5.5,11.8,3.1l0,0v0c1.5-0.9,2.7-2.2,3.4-3.7c0.4-0.8,0.6-1.6,0.7-2.4
	c0.1-0.5,0.1-1.1,0.1-1.7C-25.6,476.7-25.7,475.8-26,475z"/>
<g>
	<path class="st0" d="M68.7,393.3c0,0,2.6-15.8-19.4-27.1s-48.2-3-52.2,12.2c-4,15.2,18.2,32.4,35,33.1
		C48.9,412.2,63,411.4,68.7,393.3z"/>
	<path class="st1" d="M67.4,384.7c0,0,2.6-15.8-19.4-27.1c-22-11.3-48.2-3-52.2,12.2c-4,15.2,18.2,32.4,35,33.1
		C47.6,403.6,61.7,402.8,67.4,384.7z"/>
	<circle class="st2" cx="12" cy="367.3" r="4"/>
	<circle class="st2" cx="35.6" cy="394.8" r="4"/>
	<circle class="st2" cx="21.4" cy="365.3" r="2.3"/>
	<circle class="st2" cx="10.9" cy="379.4" r="2.3"/>
	<circle class="st2" cx="51.1" cy="371.1" r="2.3"/>
	<circle class="st2" cx="44.2" cy="387.2" r="2.3"/>
	<circle class="st2" cx="55" cy="390.8" r="4.2"/>
</g>
<g>
	<path class="st0" d="M62.9,457.8c0,0,1.2-15.9-21.7-25.4S-7.1,433.5-9.7,449s20.9,30.7,37.7,30C44.7,478.2,58.8,476.3,62.9,457.8z"
		/>
	<path class="st1" d="M60.9,449.3c0,0,1.2-15.9-21.7-25.4s-48.3,1.1-50.9,16.6c-2.7,15.5,20.9,30.7,37.7,30
		C42.7,469.7,56.7,467.8,60.9,449.3z"/>
	<circle class="st2" cx="4.2" cy="436.7" r="4"/>
	<circle class="st2" cx="30.1" cy="462.1" r="4"/>
	<circle class="st2" cx="13.3" cy="433.9" r="2.3"/>
	<circle class="st2" cx="4.1" cy="448.8" r="2.3"/>
	<circle class="st2" cx="43.4" cy="437.2" r="2.3"/>
	<circle class="st2" cx="37.9" cy="453.8" r="2.3"/>
	<circle class="st2" cx="49" cy="456.5" r="4.2"/>
</g>
<g>
	<path class="st0" d="M-7.9,395.4c0,0-4.9-15.2-29.7-15.3s-44.2,19.3-40.8,34.7s31,20.5,46.2,13.5C-16.9,421.2-4.7,414.1-7.9,395.4z
		"/>
	<path class="st1" d="M-13,388.3c0,0-4.9-15.2-29.7-15.3c-24.8-0.1-44.2,19.3-40.8,34.7s31,20.5,46.2,13.5
		C-22,414.1-9.8,407-13,388.3z"/>
	<circle class="st2" cx="-70.2" cy="398.1" r="4"/>
	<circle class="st2" cx="-36.6" cy="411.8" r="4"/>
	<circle class="st2" cx="-62.8" cy="392.1" r="2.3"/>
	<circle class="st2" cx="-65.6" cy="409.4" r="2.3"/>
	<circle class="st2" cx="-33.7" cy="383.7" r="2.3"/>
	<circle class="st2" cx="-32.5" cy="401.2" r="2.3"/>
	<circle class="st2" cx="-21.2" cy="399.4" r="4.2"/>
</g>
<g>
	<path class="st3" d="M96,406.5c-12.8-12.8-33.7-12.8-46.5,0c-12.8,12.8-12.8,33.7,0,46.5c12.8,12.8,33.7,12.8,46.5,0
		C108.8,440.2,108.8,419.4,96,406.5z M90.2,447.2c-4.7,4.7-10.9,7.2-17.4,7.2c-6.6,0-12.8-2.6-17.4-7.2c-4.7-4.7-7.2-10.9-7.2-17.4
		c0-6.6,2.6-12.8,7.2-17.4c4.7-4.7,10.9-7.2,17.4-7.2c6.6,0,12.8,2.6,17.4,7.2c4.7,4.7,7.2,10.9,7.2,17.4
		C97.4,436.4,94.8,442.5,90.2,447.2z"/>
	<g>
		<g>
			<g>
				<g>
					
						<rect x="103.5" y="448.2" transform="matrix(-0.7071 0.7071 -0.7071 -0.7071 512.2377 717.1149)" class="st4" width="8.2" height="32.9"/>
				</g>
			</g>
		</g>
	</g>
	<g>
		<g>
			<g>
				<g>
					
						<rect x="111.1" y="454.4" transform="matrix(-0.7071 0.7071 -0.7071 -0.7071 540.4339 728.8731)" class="st3" width="16.4" height="43.9"/>
				</g>
			</g>
		</g>
	</g>
	<g>
		<g>
			<g>
				<g>
					<g>
						<path class="st5" d="M65.9,442.4c-1.6,1.6-4.2,1.6-5.8,0c-3.4-3.4-5.2-7.8-5.2-12.6c0-4.8,1.9-9.2,5.2-12.6
							c1.6-1.6,4.2-1.6,5.8,0s1.6,4.2,0,5.8c-1.8,1.8-2.8,4.2-2.8,6.8s1,5,2.8,6.8C67.5,438.2,67.5,440.8,65.9,442.4z"/>
					</g>
				</g>
			</g>
		</g>
	</g>
</g>
<g>
	<path class="st6" d="M-33.8,484.8L-33.8,484.8c-4.1,2.4-9.4,1-11.8-3.1L-57,462.5c-2.4-4.1-1-9.4,3.1-11.8h0
		c4.1-2.4,9.4-1,11.8,3.1l11.3,19.2C-28.3,477-29.7,482.3-33.8,484.8z"/>
	<path class="st7" d="M-53.9,450.7l20.1,34.1c4.1-2.4,5.5-7.7,3.1-11.8l-11.3-19.2C-44.5,449.6-49.8,448.2-53.9,450.7z"/>
	<path class="st8" d="M-59.5,441.3c-10.4,6.1-13.8,19.5-7.7,29.9l37.6-22.2C-35.7,438.6-49.1,435.1-59.5,441.3z"/>
	<path class="st9" d="M-48.4,460.1l18.8-11.1c-6.1-10.4-19.5-13.8-29.9-7.7L-48.4,460.1z"/>
	<path class="st5" d="M-63.6,460.2c-0.2,0.1-0.5,0.2-0.7,0.2c-0.8,0-1.5-0.6-1.5-1.5c-0.2-6.3,3.8-10.3,3.9-10.4
		c0.6-0.6,1.5-0.6,2.1,0c0.6,0.6,0.6,1.5,0,2.1c-0.1,0.1-3.2,3.3-3.1,8.2C-62.8,459.4-63.1,459.9-63.6,460.2z"/>
</g>
<path class="st0" d="M88.8,392.8c0.3-0.2,0.7-0.4,1-0.7l10.1-9.4l6.2,6.6c6.1-5.6,6.4-15.1,0.8-21.2c-5.6-6.1-15.1-6.4-21.2-0.8
	l6.2,6.6l-10.1,9.4c-2.4,2.2-2.5,6-0.3,8.4l0,0l0,0c0.8,0.9,1.9,1.5,3,1.7c0.6,0.1,1.1,0.2,1.7,0.1c0.4,0,0.8-0.1,1.1-0.2
	C87.8,393.3,88.3,393.1,88.8,392.8z"/>
<g>
	<path class="st6" d="M81.1,389L81.1,389c-2.2-2.4-2.1-6.2,0.3-8.4l11.2-10.4c2.4-2.2,6.2-2.1,8.4,0.3l0,0c2.2,2.4,2.1,6.2-0.3,8.4
		l-11.2,10.4C87.1,391.5,83.3,391.4,81.1,389z"/>
	<path class="st7" d="M101.1,370.5L81.1,389c2.2,2.4,6,2.5,8.4,0.3l11.2-10.4C103.2,376.6,103.3,372.9,101.1,370.5z"/>
	<path class="st8" d="M106.6,365.3c-5.6-6.1-15.1-6.4-21.2-0.8l20.5,22C111.9,380.9,112.2,371.4,106.6,365.3z"/>
	<path class="st9" d="M95.6,375.6l10.2,11c6.1-5.6,6.4-15.1,0.8-21.2L95.6,375.6z"/>
	<path class="st5" d="M93.2,365.4c-0.1-0.1-0.2-0.3-0.2-0.5c-0.1-0.6,0.2-1.1,0.7-1.3c4.2-1.1,7.5,1,7.6,1.1c0.5,0.3,0.6,1,0.3,1.4
		c-0.3,0.5-0.9,0.6-1.4,0.3c0,0-2.7-1.7-6-0.8C93.9,365.8,93.5,365.6,93.2,365.4z"/>
</g>
<path class="st0" d="M-20.9,368.4c0.2-0.3,0.3-0.5,0.4-0.8l3.5-9.7l6.4,2.3c2.1-5.8-0.9-12.3-6.7-14.4c-5.8-2.1-12.3,0.9-14.4,6.7
	l6.4,2.3l-3.5,9.7c-0.8,2.3,0.3,4.9,2.6,5.7h0l0,0c0.9,0.3,1.8,0.3,2.6,0.1c0.4-0.1,0.8-0.3,1.2-0.5c0.2-0.1,0.5-0.3,0.7-0.5
	C-21.4,369.1-21.1,368.7-20.9,368.4z"/>
<g>
	<path class="st6" d="M-27.3,368.4L-27.3,368.4c-2.3-0.8-3.5-3.4-2.6-5.7l4-10.8c0.8-2.3,3.4-3.5,5.7-2.6h0c2.3,0.8,3.5,3.4,2.6,5.7
		l-4,10.8C-22.5,368.1-25,369.3-27.3,368.4z"/>
	<path class="st7" d="M-20.3,349.3l-7,19.1c2.3,0.8,4.9-0.3,5.7-2.6l4-10.8C-16.8,352.7-18,350.1-20.3,349.3z"/>
	<path class="st8" d="M-18.4,344c-5.8-2.1-12.3,0.9-14.4,6.7l21.1,7.7C-9.6,352.6-12.6,346.2-18.4,344z"/>
	<path class="st9" d="M-22.3,354.6l10.6,3.9c2.1-5.8-0.9-12.3-6.7-14.4L-22.3,354.6z"/>
	<path class="st5" d="M-27.3,348.6c-0.1,0-0.2-0.1-0.3-0.2c-0.3-0.3-0.2-0.8,0.1-1.1c2.4-2.1,5.3-1.8,5.4-1.8c0.4,0,0.7,0.4,0.7,0.8
		c0,0.4-0.4,0.7-0.8,0.7c0,0-2.4-0.2-4.3,1.5C-26.7,348.6-27,348.7-27.3,348.6z"/>
</g>
</svg>
