<svg id="lupa" xmlns="http://www.w3.org/2000/svg" viewBox="0 0 354 223.5"><style>.st0{fill:#519E38;} .st1{fill:#F4F4F4;} .st2{fill:#D6D6D6;} .st3{fill:#EAEAEA;} .st4{fill:#FFFFFF;} .st5{fill:#009373;} .st6{fill:#58A840;} .st7{fill:#DDD9A8;} .st8{fill:#EFEFEF;} .st9{fill:#DDDDDD;} .st10{fill:#E0E0E0;} .st11{fill:#342F90;} .st12{fill:#282271;} .st13{fill:#1D3805;} .st14{fill:#001700;} .st15{fill:#A11D21;}</style><path class="st0" d="M164.3 52c.1 0 2.1 1.1 4.2.6 1.1-.2 2.3-.9 3.2-2.2.8-1.2 1.6-2.6 2.3-4.1 3.6-7.3 4-13.9 1.2-19.8-1.5-3.2-3.6-5.1-6.4-5.8-2-.5-4.2-.4-6.3.1-.7.2-1.5.4-2.2.6-.5.3-9.8 5.4-5.5 16.6 2.5 5.7 6.3 10.5 9.5 14zM157 26.3c1.5-2.2 3.5-3.4 4-3.7.7-.2 1.3-.4 2-.5 2.2-.5 4.1-.5 5.7-.1 2.4.6 4.2 2.3 5.6 5.1 2.6 5.5 2.2 11.7-1.2 18.6-.6 1.3-1.4 2.6-2.2 3.9-.7.9-1.5 1.5-2.4 1.7-1.4.3-2.7-.2-3.1-.4-4-4.4-7.1-8.9-9-13.4-1.9-4.3-1.6-8 .6-11.2z"/><path class="st0" d="M181.5 72.6c-.9-4.3-2.9-8.2-5.8-11.7-1.9-2.7.3-6.1.4-6.2l.3-.4c1.1-1.7 2.2-3.4 3-5.2 4.5-8.9 4.9-17.6 1.3-25.2-2.3-4.8-5.8-7.9-10.4-9.1-2.7-.7-5.8-.7-9.1 0-1.5.3-3.1.8-4.6 1.4-.2.1-.5.1-.7.3-.8.3-1.6.7-2.4 1.1-.9.3-1.6.5-1.8.6l-15.1 3.3-15.9 3.4-.8.2-5.9 1.3-1.5.3.5 1.4c.4 1.1 2 3.1 5.3 2.8.9-.1 3.5-.4 6 6.2 3.9 14.3-4.8 30.6-4.9 30.7l-.2.4c-3 5.8-3.9 12.2-2.5 18.3 1.4 6.6 5.3 12.5 11.1 16.6l1 .7c.2.2.5.3.7.4l.2.2 12.5 8 .5.3.5-.1 12.4-2.7 12.4-2.7.5-.1.3-.5 8.1-12.4.2-.3c.1-.2.2-.3.3-.5l.8-1.2h-.1c3.7-6.1 4.9-13 3.4-19.6zm-60.8-4.2s9.1-16.7 5-31.8c-1.9-5-4.4-7.4-7.5-7.1-3.1.3-3.9-1.9-3.9-1.9l5.9-1.3.8-.2 15.9-3.4 15.2-3.3s.9-.3 2-.6c.8-.4 1.6-.7 2.5-1.1.2-.1.3-.2.4-.2h.1c1.4-.6 3-1 4.6-1.4 2.8-.6 5.7-.8 8.5 0 4.2 1.1 7.4 3.9 9.5 8.4 3.4 7.2 2.9 15.5-1.3 24-1 2.1-2.2 3.9-3.2 5.4 0 0-2.3 3.3-1 6.5L124.9 71c-.4 0-.8.1-1.2.3l-4.6 1c.3-1.3.9-2.6 1.6-3.9zm54-6.7c-.1-.2-.3-.4-.4-.6.1.2.2.4.4.6zm-55.8 10.7c-.1.3-.2.5-.2.8.1-.3.1-.5.2-.8zm-.6 2c-.1.3-.1.6-.2.9.1-.3.2-.6.2-.9zm-.4 2.1c0 .3-.1.5-.1.8 0-.3 0-.5.1-.8zm-.4 2.7v0zm0 2.1v0zm.1 2.2c0 .2 0 .4.1.7 0-.3-.1-.5-.1-.7z"/><path class="st0" d="M128.6 50.2c-.5 1 0 2.2 1 2.7.4.2.8.2 1.3.1.6-.1 1.1-.5 1.4-1.1 2.8-6.2-.6-14.7-.7-15.1-.4-1-1.6-1.5-2.6-1.1-1 .4-1.5 1.6-1.1 2.6-.1 0 2.8 7.3.7 11.9z"/><circle class="st0" cx="126" cy="67.8" r="2"/><path class="st0" d="M314.8 60.7l-3.8-.9-42.5-10.4c-6.2-1.5-12.5 2.3-14 8.5l-9.1 37.3h-.2l-6.5 26.5c-1.5 6.2 2.3 12.5 8.5 14h.2l35.1 8.6 10.1 2.5 1 .3h.2c6.2 1.5 12.5-2.3 14-8.5l15.7-63.8c1.3-6.3-2.5-12.5-8.7-14.1zM264.1 152.8h-16c-3.9-19.2-27.7-34-56.5-34s-52.6 14.8-56.5 34h-16c-1.5 0-2.8 1.3-2.8 2.8s1.3 2.8 2.8 2.8h.8c10.4 29.6 38.6 50.8 71.8 50.8 33.2 0 61.4-21.2 71.8-50.8h.8c1.5 0 2.8-1.3 2.8-2.8s-1.4-2.8-3-2.8zM115.2 180.5s-7.6-37.2-11.8-57.4c-4.2-20.2-14.1-26.2-14.1-26.2-.3-13-7.1-15.5-7.1-15.5l-.9-4.5 1.3-.3s-1-4.9-1.3-6.5c-.3-1.6-2.5-1-2.5-1l-8.2 1.7-.7.2-8.2 1.7s-2.3.3-1.9 1.9c.3 1.6 1.3 6.5 1.3 6.5l1.3-.3.9 4.5h-.1s-5.2 5-.4 17.1c0 0-6.8 9.4-2.7 29.7 4.2 20.2 11.8 57.4 11.8 57.4s1.7 12.5 10.8 10.7c2.5-.5 4.5-.9 6.2-1.3 4.7-1 6.8-1.4 6.8-1.4l.4-.1.5-.1 2.8-.6 4-.8c1.7-.3 3.7-.8 6-1.2h.2c9-2 5.6-14.2 5.6-14.2z"/><path class="st1" d="M108.8 176.7s-7.6-37.2-11.8-57.4c-4.2-20.2-14.1-26.2-14.1-26.2-.3-13-7.1-15.5-7.1-15.5l-1-4.6-19 3.9 1 4.6h-.1s-5.2 5-.4 17.1c0 0-6.8 9.4-2.7 29.7 4.2 20.2 11.8 57.4 11.8 57.4s1.7 12.5 10.8 10.7c2.5-.5 4.5-.9 6.2-1.3 4.7-1 6.8-1.4 6.8-1.4l.9-.2 6.8-1.4c1.7-.4 3.8-.8 6.2-1.3 9.1-1.9 5.7-14.1 5.7-14.1z"/><path class="st2" d="M72.2 65.4L64 67.1l-.7.2-8.3 1.6s-2.3.3-1.9 1.9c.3 1.6 1.3 6.5 1.3 6.5l10.5-2.1.7-.2 10.5-2.1s-1-4.9-1.3-6.5c-.4-1.7-2.6-1-2.6-1z"/><path class="st3" d="M108.7 176.7s-7.6-37.2-11.8-57.4c-4.2-20.2-14.1-26.2-14.1-26.2-.3-13-7.1-15.5-7.1-15.5l-1-4.6-9.5 2 24.4 118.6.5-.1 6.8-1.4c1.7-.4 3.8-.8 6.2-1.3 9-1.9 5.6-14.1 5.6-14.1z"/><path class="st4" d="M59.2 120.1h-.3c-1.3.1-2.5-.9-2.6-2.3-.6-8.5 2.4-14.4 2.5-14.6.6-1.2 2.1-1.7 3.3-1.1 1.2.6 1.7 2.1 1.1 3.3 0 .1-2.5 5-2 12 .1 1.4-.8 2.4-2 2.7z"/><circle class="st5" cx="79.4" cy="142.5" r="16.3"/><path class="st4" d="M92.7 142c0-.9-.2-2-.9-2.5-.4-.3-1-.2-1.5 0 0-.4-.1-.7-.2-1.1-.1-.3-.6-.1-.7 0-.3.1-.5.4-.5.7.2 1.2.3 2.4.4 3.6 0 .4 0 .9-.4 1.2-.3.2-.7-.9-.7-1-.2-1.2-.3-2.4-.3-3.6 0-.3-.4-.3-.6-.2-.3.1-.6.4-.6.7v2.8c0 .4-.1.8-.2 1.2v.1c-.1 0-.2 0-.3-.1-.7-.2-.8-1.4-.8-1.9-.1-.8 0-1.6.1-2.4.1-.3-.1-.4-.4-.3-.2.1-.3.2-.5.3l-.3.3c-.1.1-.2.1-.3.2-.6.3-1.1.2-1.6-.3-.1-.1-.3-.2-.4-.2-.5-.2-1 .1-1.4.4-.1-.3-.2-.7-.3-1-.1-.3-.6.1-.7.2-.2.2-.4.5-.4.8-.3.1-.7.4-.8.6-.6.8-.7 1.8-.5 2.7.1.8-.1 2.1-1.1 2.2-.2 0-.4-.2-.6-.4l.6-1.5c.3-.9.4-2-.3-2.7-.5-.4-1.4.2-1.7.7-.5.7-.5 1.5-.4 2.2.1.5.3 1.4.7 2-.1.2-.3.5-.5.5-.2-.1-.3-.3-.4-.5-.3-.6-.5-1.3-.9-1.9-.6-.8-1.5-.7-2.3-.1-.3-.8-.5-1.6-.3-2.5.2-1 1.3-.8 1.9-.5.4.2 1.3-1.1.8-1.3-.6-.3-1.4-.4-2.1 0-.6.4-1 1-1.3 1.6-.1.1-.1.2-.1.3-.3-.6-.7-1.1-1-1.6-.1-.2-.5.1-.6.2-1.1 1.1-2.8 3.3-1.6 4.8.3.3 1-1 .7-1.3-.5-.6.1-1.5.7-2.2.8 1.3 1.4 2.6 2.1 3.9.4.8.7 1.8.5 2.7-.3.9-1.5.6-1.7 0-.2-.6-.9.7-.7 1.1.2.5.5.8 1 .9.5.1.9-.2 1.3-.6.8-.8 1.2-2.1 1.1-3.2-.1-.5-.2-.9-.3-1.4.3-.1.6-.2.9 0 .6.4.8 1.3 1.1 1.9.2.5.6 1 1.2.8.5-.2.8-.6 1.1-1.1.3.2.6.4 1 .3.7-.1 1.3-.7 1.6-1.2.1-.2.3-.4.4-.6.2.3.4.5.7.7.3.2.7.2 1.1.1.1-.1.3-.1.4-.2.2 1.1.3 2.2.5 3.4 0 .3.4.2.5.1.2-.2.4-.5.4-.8l-.3-2.7c.4-.1.9-.3 1.1-.7.7-.8.7-1.9.5-2.9 0-.2-.1-.4-.1-.6.4-.1.7-.2 1-.4-.1.7-.1 1.5.1 2.2.1.7.4 1.9 1.4 2 .7.1 1.1-.3 1.5-.8.1.1.1.3.2.4.5.7 1.3.4 1.8 0 0 1.2 0 2.5-.1 3.7 0 .3.3.3.5.2.3-.1.5-.4.5-.7.1-.9.1-1.8.2-2.7.4 0 .9-.1 1.2-.3.7-.6.9-1.8.9-2.7zm-17.2 1.2c-.1-.4-.2-.9-.1-1.3h.2c.6.2.4 1.2.3 1.7 0 .2-.1.4-.2.6 0-.4-.1-.7-.2-1zm5 1.3h-.2c-.2-.1-.4-.2-.5-.4-.4-.5-.6-1.1-.7-1.7-.1-.5-.1-1 0-1.5h.1c.5.2.7.7.9 1.1.1.8.3 1.6.4 2.5 0-.1 0-.1 0 0 0-.1 0 0 0 0zm1.9-.4c-.5.2-.8-.1-.9-.5-.1-.8-.3-1.7-.5-2.5-.1-.4 0-.6 0-.6.1 0 .3 0 .5.2.5.4.7 1.1.8 1.6.2.5.3 1.2.1 1.8zm8.8 0c-.5.1-.7-.4-.8-.7 0 0 0-1.6-.1-2.4 0-.1 0-.5.1-.7.2 0 .3.1.4.3.4.5.5 1.2.5 1.8.2.5.2 1.2-.1 1.7z"/><g><path class="st6" d="M166.1 57.1c-.3-.4-.5-.8-.7-1.3l-55 11.9c-1.6 4.4-2 9.2-.9 14 1.6 7.3 6.2 13.2 12.4 17l12.5 8 12.4-2.7 12.4-2.7 8.1-12.4c4.1-6 5.9-13.3 4.3-20.6-.9-4.3-2.8-8.1-5.5-11.2z"/><path class="st4" d="M153 11.6c2.8-.6 5.7-.8 8.5 0 4.2 1.1 7.4 3.9 9.5 8.4 3.4 7.2 2.9 15.5-1.3 24-1 2.1-2.2 3.9-3.2 5.4 0 0-2.9 4.2-.4 7.7 2.7 3.2 4.6 6.9 5.5 11.1 1.6 7.3-.2 14.6-4.3 20.6l-8.1 12.4-12.4 2.7-12.4 2.7-12.5-8c-6.3-3.8-10.9-9.7-12.4-17-1.3-6.2-.3-12.4 2.6-17.9 0 0 9.1-16.7 5-31.8-1.9-5-4.4-7.4-7.5-7.1-3.1.3-3.9-1.9-3.9-1.9l5.9-1.3.8-.2 15.9-3.4 15.2-3.3s.9-.3 2-.6c.8-.4 1.6-.7 2.5-1.1.2-.1.3-.2.4-.2h.1c1.3-.4 2.9-.9 4.5-1.2m6.9 36.4c1.1-.2 2.3-.9 3.2-2.2.8-1.2 1.6-2.6 2.3-4.1 3.6-7.3 4-13.9 1.2-19.8-1.5-3.2-3.6-5.1-6.4-5.8-2-.5-4.2-.4-6.3.1-.7.2-1.5.4-2.2.6-.5.3-9.8 5.4-5.5 16.6 2.4 5.7 6.2 10.6 9.4 14 .2 0 2.2 1 4.3.6m-7.2-37.7c-1.5.3-3.1.8-4.6 1.4-.2.1-.5.1-.7.3-.8.3-1.6.7-2.4 1.1-.9.3-1.6.5-1.8.6L128 16.9l-16 3.4-.8.2-5.9 1.3-1.5.3.5 1.4c.4 1.1 2 3.1 5.3 2.8.9-.1 3.5-.4 6 6.2 3.9 14.3-4.8 30.6-4.9 30.7l-.2.4c-3 5.8-3.9 12.2-2.5 18.3 1.4 6.6 5.3 12.5 11.1 16.6l1 .7c.2.2.5.3.7.4l.2.2 12.5 8 .5.3.5-.1 12.4-2.7 12.4-2.7.5-.1.3-.5 8.1-12.4.2-.3c.1-.2.2-.3.3-.5l.8-1.2h-.1c3.5-6.1 4.7-13 3.3-19.7-.9-4.3-2.9-8.2-5.8-11.7-1.9-2.7.3-6.1.4-6.2l.3-.4c1.1-1.7 2.2-3.4 3-5.2 4.5-8.9 4.9-17.6 1.3-25.2-2.3-4.8-5.8-7.9-10.4-9.1-2.4-.6-5.5-.6-8.8.2zm-.4 7.7c.7-.2 1.3-.4 2-.5 2.2-.5 4.1-.5 5.7-.1 2.4.6 4.2 2.3 5.6 5.1 2.6 5.5 2.2 11.7-1.2 18.6-.6 1.3-1.4 2.6-2.2 3.9-.7.9-1.5 1.5-2.4 1.7-1.4.3-2.7-.2-3.1-.4-4-4.4-7.1-8.9-9-13.4-1.6-4.2-1.3-8 .8-11.1 1.4-2.3 3.3-3.6 3.8-3.8z"/><path class="st4" d="M122.2 48.4c-.4.1-.8.1-1.3-.1-1-.5-1.5-1.7-1-2.7 2.1-4.6-.8-11.9-.8-11.9-.4-1 .1-2.2 1.1-2.6 1-.4 2.2.1 2.6 1.1.1.4 3.5 8.9.7 15.1-.2.5-.7.9-1.3 1.1zM116.7 84c-.9.2-1.9-.3-2.3-1.2-3.8-9.1-.3-15.2-.2-15.4.6-1 1.8-1.3 2.8-.7 1 .6 1.3 1.8.7 2.7-.1.2-2.6 4.7.4 11.8.4 1 0 2.2-1.1 2.6-.1.2-.2.2-.3.2z"/><circle class="st4" cx="117.4" cy="63.2" r="2"/><path class="st4" d="M150.3 75.1c-2 .4-3.9-.8-4.4-2.8-.4-2 .8-3.9 2.8-4.4 2-.4 3.9.8 4.4 2.8.5 2-.8 3.9-2.8 4.4zm-1.4-6.6c-1.6.4-2.7 2-2.3 3.6.4 1.6 2 2.7 3.6 2.3 1.6-.4 2.7-2 2.3-3.6-.4-1.6-2-2.6-3.6-2.3zM141 83.1c-1.3.3-2.6-.6-2.9-1.9-.3-1.3.6-2.6 1.9-2.9 1.3-.3 2.6.6 2.9 1.9.3 1.3-.6 2.6-1.9 2.9zm-.8-4.1c-.9.2-1.6 1.1-1.3 2.1.2.9 1.1 1.6 2.1 1.3.9-.2 1.6-1.1 1.3-2.1-.3-.9-1.2-1.5-2.1-1.3zM138.2 69.8c-1.3.3-2.6-.6-2.9-1.9-.3-1.3.6-2.6 1.9-2.9 1.3-.3 2.6.6 2.9 1.9.2 1.3-.6 2.6-1.9 2.9zm-.9-4.1c-.9.2-1.6 1.1-1.3 2.1.2.9 1.1 1.6 2.1 1.3s1.6-1.1 1.3-2.1c-.2-.9-1.2-1.5-2.1-1.3z"/></g><g><ellipse class="st7" cx="186.4" cy="152.2" rx="57.1" ry="39.6"/><path class="st8" d="M114.6 152.2c10.4 29.6 38.6 50.8 71.8 50.8s61.4-21.2 71.8-50.8H114.6z"/><path class="st9" d="M259 152.2H113.8c-1.5 0-2.8-1.3-2.8-2.8 0-1.5 1.3-2.8 2.8-2.8H259c1.5 0 2.8 1.3 2.8 2.8 0 1.6-1.3 2.8-2.8 2.8z"/><path class="st4" d="M140.5 177.1c-.7 0-1.3-.2-1.9-.5-8.7-5.1-12.8-14.5-13-14.9-.8-2 .1-4.2 2-5.1 2-.8 4.2.1 5.1 2 0 .1 3.3 7.5 9.8 11.3 1.8 1.1 2.5 3.4 1.4 5.3-.8 1.2-2.1 1.9-3.4 1.9z"/></g><g><path class="st4" d="M302.9 132.1c-1.5 6.2-7.8 10-14 8.5l-46.2-11.3c-6.2-1.5-10-7.8-8.5-14l15.7-63.8c1.5-6.2 7.8-10 14-8.5l46.2 11.3c6.2 1.5 10 7.8 8.5 14l-15.7 63.8z"/><path class="st10" d="M310.2 54.3l-22.4-5.5-21.2 86.3 22.4 5.5c6.2 1.5 12.5-2.3 14-8.5l15.7-63.8c1.5-6.2-2.3-12.5-8.5-14z"/><path class="st11" d="M259.3 79.6s.5-5.1-4.4-6.3c0 0-2 4.7 4.4 6.3zM259.8 77.1s4.4-2.6 2.4-7.3c0 0-4.9 1.3-2.4 7.3z"/><path class="st11" d="M258.2 84.1s.5-5.1-4.4-6.3c0 0-2 4.7 4.4 6.3z"/><path class="st11" d="M257.1 88.8s.5-5.1-4.4-6.3c-.1 0-2 4.7 4.4 6.3zM259.3 79.6s1.9-4.8 6.9-3.5c0 0-.5 5.1-6.9 3.5z"/><path class="st11" d="M258.2 84.1s1.9-4.8 6.9-3.5c0 0-.5 5.1-6.9 3.5z"/><path class="st11" d="M257.1 88.8s1.9-4.8 6.9-3.5c-.1-.1-.5 5-6.9 3.5z"/><path class="st11" d="M259.835 76.572l.485.12-3.825 15.638-.486-.118z"/><g><path class="st11" d="M279.1 84.5s.5-5.1-4.4-6.3c-.1-.1-2 4.7 4.4 6.3zM279.6 82s4.4-2.6 2.4-7.3c0 0-5 1.2-2.4 7.3z"/><path class="st11" d="M278 89s.5-5.1-4.4-6.3c-.1 0-2 4.7 4.4 6.3z"/><path class="st11" d="M276.8 93.6s.5-5.1-4.4-6.3c0 0-2 4.7 4.4 6.3zM279.1 84.5s1.9-4.8 6.9-3.5c-.1-.1-.5 5-6.9 3.5z"/><path class="st11" d="M278 89s1.9-4.8 6.9-3.5c-.1-.1-.5 5-6.9 3.5z"/><path class="st11" d="M276.8 93.6s1.9-4.8 6.9-3.5c0 0-.5 5.1-6.9 3.5z"/><path class="st11" d="M279.55 81.36l.486.118-3.825 15.64-.485-.12z"/></g><g><path class="st11" d="M298.8 89.3s.5-5.1-4.4-6.3c0 0-2 4.7 4.4 6.3zM299.3 86.8s4.4-2.6 2.4-7.3c0 0-4.9 1.3-2.4 7.3z"/><path class="st11" d="M297.7 93.8s.5-5.1-4.4-6.3c0 0-2 4.7 4.4 6.3z"/><path class="st11" d="M296.6 98.5s.5-5.1-4.4-6.3c-.1 0-2 4.7 4.4 6.3zM298.8 89.3s1.9-4.8 6.9-3.5c0 0-.5 5.1-6.9 3.5z"/><path class="st11" d="M297.7 93.8s1.9-4.8 6.9-3.5c0 0-.5 5.1-6.9 3.5z"/><path class="st11" d="M296.6 98.5s1.9-4.8 6.9-3.5c-.1-.1-.6 5-6.9 3.5z"/><path class="st11" d="M299.338 86.272l.485.12-3.825 15.638-.486-.118z"/></g><path class="st11" d="M277.7 137.8L287 100l-46.5-11.4-6.5 26.5c-1.5 6.2 2.3 12.5 8.5 14l46.2 11.3-11-2.6z"/><path class="st12" d="M275.9 97.3l-9.3 37.8 22.4 5.5c6.2 1.5 12.5-2.3 14-8.5l6.5-26.5-33.6-8.3z"/><g><path class="st4" d="M263.1 110.2c.2-1 .4-2.1.7-3.2-.5.9-1.1 2-1.6 2.8l-1.7 2.8-1.4-.3-.1-3.3v-3.2c-.3 1-.6 2.3-.9 3.2l-.9 2.9-1.6-.4 2.4-7.7 2.4.6.1 2.8v3c.4-.9 1-1.8 1.4-2.6l1.5-2.4 2.3.6-1.5 8-1.7-.4.6-3.2zM268.7 106.5l.5 3c.1.6.1 1.1.2 1.6.2-.3.4-.8.8-1.4l1.5-2.5 1.9.5-2.4 3.4c-.8 1.1-1.6 2.2-2.3 2.8-.7.5-1.4.8-2.3.5-.4-.1-.6-.2-.8-.3l.5-1.4c.1.1.3.1.6.2.5.1 1-.1 1.2-.5.1-.1.1-.2.1-.4l-1.3-6 1.8.5zM276 108.3l-.8 3.3h.2l3-2.7 2.2.5-3.6 2.8c1 .5 1.2 1.3 1.3 2.3.1.9.1 1.8.3 2.7l-1.9-.5c-.1-.6-.1-1.2-.2-1.9-.1-1-.2-1.7-1.2-1.9l-.3-.1-.8 3.3-1.8-.4 1.9-7.9 1.7.5zM281.9 115.9l-1.1 1.9-1.8-.5 4.3-7.3 2.3.6.5 8.4-1.9-.5-.1-2.2-2.2-.4zm2.3-.8l-.1-1.8v-1.6l-.7 1.4-.9 1.6 1.7.4z"/></g></g><g><circle class="st13" cx="215.2" cy="70.1" r="1.6"/><circle class="st14" cx="211.2" cy="80.1" r="1.6"/><circle class="st14" cx="215.2" cy="82.4" r="1.6"/><circle class="st14" cx="222.1" cy="73.5" r="1.6"/><circle class="st14" cx="199.6" cy="50.2" r="1.6"/><circle class="st14" cx="212.5" cy="38.9" r="1.6"/><circle class="st15" cx="215.2" cy="59.3" r="1.6"/><circle class="st15" cx="203.2" cy="67.6" r="1.6"/><circle class="st15" cx="204.8" cy="57.7" r="1.6"/><circle class="st13" cx="208.1" cy="64.4" r="1.6"/><circle class="st13" cx="207.4" cy="50.2" r="1.6"/><circle class="st13" cx="216.2" cy="50.2" r="1.6"/><circle class="st13" cx="223.7" cy="35.9" r="1.6"/><circle class="st13" cx="214.1" cy="28.8" r="1.6"/><circle class="st13" cx="211.2" cy="99.7" r="1.6"/><circle class="st15" cx="210.9" cy="89.3" r="1.6"/><circle class="st13" cx="223.7" cy="66" r="1.6"/><circle class="st4" cx="205.5" cy="73.5" r="1.6"/><circle class="st4" cx="222.1" cy="56.6" r="1.6"/><circle class="st4" cx="227.3" cy="49.1" r="1.6"/><circle class="st4" cx="203.9" cy="40" r="1.6"/><circle class="st13" cx="199.9" cy="76.9" r="1.6"/></g></svg>