<svg id="lupa" xmlns="http://www.w3.org/2000/svg" viewBox="0 0 292 228"><style>.st0{fill:#519E38;} .st1{fill:#DDD9A8;} .st2{fill:#EFEFEF;} .st3{fill:#DDDDDD;} .st4{fill:#FFFFFF;} .st5{fill:#D98A5A;} .st6{fill:#F7F3A4;} .st7{fill:#40AE77;} .st8{fill:#1D3805;} .st9{fill:#001700;} .st10{fill:#A11D21;}</style><path class="st0" d="M260 124.9h-22.2c-5.4-26.7-38.4-47.2-78.4-47.2-39.9 0-72.9 20.5-78.4 47.2H58.8c-2.1 0-3.9 1.7-3.9 3.9 0 2.1 1.7 3.9 3.9 3.9h1.1c14.4 41 53.5 70.5 99.5 70.5s85.1-29.4 99.5-70.5h1.2c2.1 0 3.9-1.7 3.9-3.9-.1-2.2-1.8-3.9-4-3.9z"/><ellipse class="st1" cx="150.2" cy="126.8" rx="79.2" ry="55"/><path class="st2" d="M50.7 126.8c14.4 41 53.5 70.5 99.5 70.5s85.1-29.4 99.5-70.5h-199z"/><path class="st3" d="M250.8 126.8H49.6c-2.1 0-3.9-1.7-3.9-3.9 0-2.1 1.7-3.9 3.9-3.9h201.2c2.1 0 3.9 1.7 3.9 3.9 0 2.1-1.7 3.9-3.9 3.9z"/><path class="st4" d="M86.6 161.3c-.9 0-1.8-.2-2.7-.7-12.1-7.1-17.8-20.2-18-20.7-1.2-2.7.1-5.9 2.8-7 2.7-1.2 5.9.1 7 2.8.1.1 4.6 10.4 13.6 15.7 2.6 1.5 3.4 4.8 1.9 7.3-1 1.7-2.8 2.6-4.6 2.6z"/><path class="st5" d="M114.6 88.3l8.7-2.6-1.5 11.6z"/><path class="st6" d="M120.8 105.3l8.6-2.7-1.5 11.7zM190.5 95.8l6.8 6-10.8 4.8zM172.2 77.6l6 6.8-11.3 3.4zM83.9 108.5l6 6.8-11.2 3.4z"/><path class="st5" d="M166.7 104.3l1.1-9 10 6zM147.8 106.5l5.3 7.3-11.5 2.4zM143.9 85.7l1-9.1 10.1 6.1zM103.5 115.9l1-9 10.1 6.1z"/><path class="st7" d="M149.3 88.7l8 4.2-9.3 7.2zM205.7 101.2l8 4.3-9.3 7.1zM85.7 103.6l4-8.1 7.4 9.1zM168.9 115l4-8.1 7.4 9.1z"/><circle class="st8" cx="145.4" cy="46" r="2.1"/><circle class="st9" cx="132.1" cy="40.8" r="2.1"/><circle class="st9" cx="129.1" cy="46" r="2.1"/><circle class="st9" cx="140.9" cy="55.2" r="2.1"/><circle class="st9" cx="171.9" cy="25.3" r="2.1"/><circle class="st9" cx="186.8" cy="42.4" r="2.1"/><circle class="st10" cx="159.7" cy="46" r="2.1"/><circle class="st10" cx="148.7" cy="30.1" r="2.1"/><circle class="st10" cx="161.8" cy="32.2" r="2.1"/><circle class="st8" cx="152.9" cy="36.5" r="2.1"/><circle class="st8" cx="171.9" cy="35.6" r="2.1"/><circle class="st8" cx="171.9" cy="47.4" r="2.1"/><circle class="st8" cx="190.8" cy="57.4" r="2.1"/><circle class="st8" cx="200.3" cy="44.6" r="2.1"/><circle class="st8" cx="106" cy="40.8" r="2.1"/><circle class="st10" cx="119.9" cy="40.3" r="2.1"/><circle class="st8" cx="150.8" cy="57.4" r="2.1"/><circle class="st4" cx="140.9" cy="33.1" r="2.1"/><circle class="st4" cx="163.3" cy="55.2" r="2.1"/><circle class="st4" cx="173.4" cy="62.1" r="2.1"/><circle class="st4" cx="185.4" cy="31" r="2.1"/><circle class="st8" cx="136.4" cy="25.7" r="2.1"/></svg>