<svg id="lupa" xmlns="http://www.w3.org/2000/svg" viewBox="0 0 173.9 214.5"><style>.st0{fill:#2D2D2D;} .st1{fill:#4D4C4B;} .st2{fill:#231F20;} .st3{fill:#F9F5DC;} .st4{fill:#FFFFFF;} .st5{fill:#F9DDC5;} .st6{fill:#EC145A;} .st7{fill:#62BA47;}</style><path class="st0" d="M148.1 194.7H28c-4.3 0-7.9-3.5-7.9-7.9V32.3c0-4.3 3.5-7.9 7.9-7.9h120.1c4.3 0 7.9 3.5 7.9 7.9v154.6c0 4.3-3.6 7.8-7.9 7.8z"/><path class="st1" d="M144.8 24.4c6.2 0 11.2 5 11.2 11.2v147.9c0 6.2-5 11.2-11.2 11.2H31.3c-6.2 0-11.2-5-11.2-11.2V35.6c0-6.2 5-11.2 11.2-11.2h113.5m0-6.5H31.3c-9.8 0-17.7 8-17.7 17.7v147.9c0 9.8 8 17.7 17.7 17.7h113.4c9.8 0 17.7-8 17.7-17.7V35.6c.1-9.8-7.8-17.7-17.6-17.7z"/><path class="st2" d="M86 58.9c-4-11-16.1-16.9-27.3-13.2-11.2 3.7-17.4 15.5-14.2 26.8l.6 1.7c.3.9 1.3 1.5 2.3 1.1l38.1-12.4c.9-.3 1.5-1.3 1.1-2.3l-.6-1.7z"/><circle class="st2" cx="43.3" cy="68.9" r="2.9"/><circle class="st2" cx="43.2" cy="63.4" r="2.9"/><circle class="st2" cx="44.9" cy="58.1" r="2.9"/><circle class="st2" cx="47.7" cy="53.3" r="2.9"/><circle class="st2" cx="51.5" cy="49.4" r="2.9"/><circle class="st2" cx="56.4" cy="46.5" r="2.9"/><circle class="st2" cx="61.9" cy="45" r="2.9"/><circle class="st2" cx="67.7" cy="44.6" r="2.9"/><circle class="st2" cx="72.9" cy="46" r="2.9"/><circle class="st2" cx="77.9" cy="48.1" r="2.9"/><circle class="st2" cx="81.7" cy="51.9" r="2.9"/><circle class="st2" cx="85.1" cy="56.2" r="2.9"/><g><path class="st3" d="M81.1 54.5c-4-11-16.1-16.9-27.3-13.2C42.6 45 36.4 56.8 39.6 68.1l.6 1.7c.3.9 1.3 1.5 2.3 1.1l38.1-12.4c.9-.3 1.5-1.3 1.1-2.3l-.6-1.7z"/><circle class="st3" cx="38.4" cy="64.5" r="2.9"/><circle class="st3" cx="38.3" cy="59" r="2.9"/><circle class="st3" cx="40" cy="53.7" r="2.9"/><circle class="st3" cx="42.8" cy="48.9" r="2.9"/><circle class="st3" cx="46.6" cy="45" r="2.9"/><circle class="st3" cx="51.4" cy="42.1" r="2.9"/><circle class="st3" cx="57" cy="40.6" r="2.9"/><circle class="st3" cx="62.7" cy="40.2" r="2.9"/><circle class="st3" cx="68" cy="41.6" r="2.9"/><circle class="st3" cx="72.9" cy="43.7" r="2.9"/><circle class="st3" cx="76.7" cy="47.5" r="2.9"/><circle class="st3" cx="80.2" cy="51.9" r="2.9"/></g><g><path class="st2" d="M139.9 78.7c6.7-9.6 4.7-22.8-4.7-29.9s-22.7-5.5-30.1 3.6l-1.1 1.4c-.6.8-.4 1.9.3 2.5l31.9 24.2c.8.6 1.9.4 2.5-.3l1.2-1.5z"/><circle class="st2" cx="107.4" cy="49.3" r="2.9"/><circle class="st2" cx="111.8" cy="46.1" r="2.9"/><circle class="st2" cx="117.1" cy="44.5" r="2.9"/><circle class="st2" cx="122.7" cy="44" r="2.9"/><circle class="st2" cx="128" cy="45" r="2.9"/><circle class="st2" cx="133.2" cy="47.2" r="2.9"/><circle class="st2" cx="137.6" cy="51" r="2.9"/><circle class="st2" cx="141.1" cy="55.5" r="2.9"/><circle class="st2" cx="143.1" cy="60.6" r="2.9"/><circle class="st2" cx="144.1" cy="65.9" r="2.9"/><circle class="st2" cx="143.1" cy="71.1" r="2.9"/><circle class="st2" cx="141.6" cy="76.5" r="2.9"/><g><path class="st3" d="M140.7 72.1c6.7-9.6 4.7-22.8-4.7-29.9s-22.7-5.5-30.1 3.6l-1.1 1.4c-.6.8-.4 1.9.3 2.5L137 73.9c.8.6 1.9.4 2.5-.3l1.2-1.5z"/><circle class="st3" cx="108.2" cy="42.7" r="2.9"/><circle class="st3" cx="112.6" cy="39.5" r="2.9"/><circle class="st3" cx="117.9" cy="37.9" r="2.9"/><circle class="st3" cx="123.5" cy="37.5" r="2.9"/><circle class="st3" cx="128.8" cy="38.4" r="2.9"/><circle class="st3" cx="134" cy="40.7" r="2.9"/><circle class="st3" cx="138.4" cy="44.4" r="2.9"/><circle class="st3" cx="142" cy="48.9" r="2.9"/><circle class="st3" cx="143.9" cy="54" r="2.9"/><circle class="st3" cx="144.9" cy="59.3" r="2.9"/><circle class="st3" cx="144" cy="64.6" r="2.9"/><circle class="st3" cx="142.4" cy="69.9" r="2.9"/></g></g><g><path class="st2" d="M151 162c6.7-9.6 4.7-22.8-4.7-29.9-9.4-7.1-22.7-5.5-30.1 3.6l-1.1 1.4c-.6.8-.4 1.9.3 2.5l31.9 24.2c.8.6 1.9.4 2.5-.3l1.2-1.5z"/><circle class="st2" cx="118.5" cy="132.6" r="2.9"/><circle class="st2" cx="122.9" cy="129.4" r="2.9"/><circle class="st2" cx="128.2" cy="127.8" r="2.9"/><circle class="st2" cx="133.8" cy="127.3" r="2.9"/><circle class="st2" cx="139.1" cy="128.3" r="2.9"/><circle class="st2" cx="144.3" cy="130.5" r="2.9"/><circle class="st2" cx="148.7" cy="134.3" r="2.9"/><circle class="st2" cx="152.3" cy="138.8" r="2.9"/><circle class="st2" cx="154.2" cy="143.9" r="2.9"/><circle class="st2" cx="155.2" cy="149.1" r="2.9"/><circle class="st2" cx="154.2" cy="154.4" r="2.9"/><circle class="st2" cx="152.7" cy="159.8" r="2.9"/><g><path class="st3" d="M151.8 155.4c6.7-9.6 4.7-22.8-4.7-29.9-9.4-7.1-22.7-5.5-30.1 3.6l-1.1 1.4c-.6.8-.4 1.9.3 2.5l31.9 24.2c.8.6 1.9.4 2.5-.3l1.2-1.5z"/><circle class="st3" cx="119.3" cy="126" r="2.9"/><circle class="st3" cx="123.7" cy="122.8" r="2.9"/><circle class="st3" cx="129" cy="121.2" r="2.9"/><circle class="st3" cx="134.6" cy="120.8" r="2.9"/><circle class="st3" cx="139.9" cy="121.7" r="2.9"/><circle class="st3" cx="145.1" cy="124" r="2.9"/><circle class="st3" cx="149.5" cy="127.7" r="2.9"/><circle class="st3" cx="153.1" cy="132.2" r="2.9"/><circle class="st3" cx="155" cy="137.3" r="2.9"/><circle class="st3" cx="156" cy="142.6" r="2.9"/><circle class="st3" cx="155.1" cy="147.9" r="2.9"/><circle class="st3" cx="153.5" cy="153.2" r="2.9"/></g></g><g><path class="st2" d="M139.6 107c-5.7-10.2-18.5-14.1-29-8.8s-14.8 18.1-9.8 28.7l.8 1.6c.5.9 1.5 1.2 2.4.8l35.6-18.3c.9-.5 1.2-1.5.8-2.4l-.8-1.6z"/><circle class="st2" cx="99.1" cy="123.6" r="2.9"/><circle class="st2" cx="98.1" cy="118.2" r="2.9"/><circle class="st2" cx="99" cy="112.7" r="2.9"/><circle class="st2" cx="100.9" cy="107.5" r="2.9"/><circle class="st2" cx="104.1" cy="103.1" r="2.9"/><circle class="st2" cx="108.4" cy="99.4" r="2.9"/><circle class="st2" cx="113.7" cy="97.1" r="2.9"/><circle class="st2" cx="119.3" cy="95.8" r="2.9"/><circle class="st2" cx="124.7" cy="96.3" r="2.9"/><circle class="st2" cx="129.9" cy="97.6" r="2.9"/><circle class="st2" cx="134.2" cy="100.8" r="2.9"/><circle class="st2" cx="138.4" cy="104.5" r="2.9"/><g><path class="st3" d="M134.1 103.4c-5.7-10.2-18.5-14.1-29-8.8-10.5 5.4-14.8 18.1-9.8 28.7l.7 1.7c.5.9 1.5 1.2 2.4.8l35.6-18.3c.9-.5 1.2-1.5.8-2.4l-.7-1.7z"/><circle class="st3" cx="93.5" cy="120" r="2.9"/><circle class="st3" cx="92.5" cy="114.6" r="2.9"/><circle class="st3" cx="93.4" cy="109.1" r="2.9"/><circle class="st3" cx="95.4" cy="103.9" r="2.9"/><circle class="st3" cx="98.6" cy="99.5" r="2.9"/><circle class="st3" cx="102.8" cy="95.8" r="2.9"/><circle class="st3" cx="108.1" cy="93.5" r="2.9"/><circle class="st3" cx="113.7" cy="92.2" r="2.9"/><circle class="st3" cx="119.1" cy="92.7" r="2.9"/><circle class="st3" cx="124.3" cy="94.1" r="2.9"/><circle class="st3" cx="128.7" cy="97.2" r="2.9"/><circle class="st3" cx="132.8" cy="101" r="2.9"/></g></g><g><path class="st2" d="M117.4 84.3c-2.5-11.4-13.6-18.9-25.2-16.8-11.6 2.1-19.4 13-17.8 24.5l.3 1.8c.2 1 1.1 1.6 2.1 1.4l39.4-7.1c1-.2 1.6-1.1 1.4-2.1l-.2-1.7z"/><circle class="st2" cx="73.8" cy="88.3" r="2.9"/><circle class="st2" cx="74.4" cy="82.9" r="2.9"/><circle class="st2" cx="76.8" cy="77.9" r="2.9"/><circle class="st2" cx="80.2" cy="73.5" r="2.9"/><circle class="st2" cx="84.6" cy="70.2" r="2.9"/><circle class="st2" cx="89.8" cy="67.9" r="2.9"/><circle class="st2" cx="95.5" cy="67.2" r="2.9"/><circle class="st2" cx="101.2" cy="67.6" r="2.9"/><circle class="st2" cx="106.2" cy="69.7" r="2.9"/><circle class="st2" cx="110.8" cy="72.5" r="2.9"/><circle class="st2" cx="114.1" cy="76.8" r="2.9"/><circle class="st2" cx="116.9" cy="81.5" r="2.9"/><g><path class="st3" d="M113.1 79.3c-2.5-11.4-13.6-18.9-25.2-16.8-11.6 2.1-19.4 13-17.8 24.5l.3 1.8c.2 1 1.1 1.6 2.1 1.4l39.4-7.1c1-.2 1.6-1.1 1.4-2.1l-.2-1.7z"/><circle class="st3" cx="69.5" cy="83.2" r="2.9"/><circle class="st3" cx="70.1" cy="77.8" r="2.9"/><circle class="st3" cx="72.6" cy="72.8" r="2.9"/><circle class="st3" cx="76" cy="68.4" r="2.9"/><circle class="st3" cx="80.3" cy="65.1" r="2.9"/><circle class="st3" cx="85.5" cy="62.9" r="2.9"/><circle class="st3" cx="91.2" cy="62.2" r="2.9"/><circle class="st3" cx="96.9" cy="62.6" r="2.9"/><circle class="st3" cx="102" cy="64.6" r="2.9"/><circle class="st3" cx="106.6" cy="67.5" r="2.9"/><circle class="st3" cx="109.8" cy="71.7" r="2.9"/><circle class="st3" cx="112.6" cy="76.5" r="2.9"/></g></g><g><path class="st2" d="M73.7 124.6c3-11.3-3.4-23-14.7-26.5-11.3-3.5-23.2 2.7-27 13.7l-.5 1.7c-.3.9.2 2 1.2 2.2L71 127.6c.9.3 2-.2 2.2-1.2l.5-1.8z"/><circle class="st2" cx="33.1" cy="108.2" r="2.9"/><circle class="st2" cx="36.1" cy="103.7" r="2.9"/><circle class="st2" cx="40.6" cy="100.4" r="2.9"/><circle class="st2" cx="45.6" cy="98" r="2.9"/><circle class="st2" cx="51" cy="97.1" r="2.9"/><circle class="st2" cx="56.6" cy="97.4" r="2.9"/><circle class="st2" cx="62" cy="99.4" r="2.9"/><circle class="st2" cx="66.9" cy="102.4" r="2.9"/><circle class="st2" cx="70.5" cy="106.5" r="2.9"/><circle class="st2" cx="73.3" cy="111.2" r="2.9"/><circle class="st2" cx="74.2" cy="116.4" r="2.9"/><circle class="st2" cx="74.5" cy="122" r="2.9"/><g><path class="st3" d="M72.2 118.2c3-11.3-3.4-23-14.7-26.5-11.3-3.5-23.2 2.7-27 13.7l-.5 1.7c-.3.9.2 2 1.2 2.2L69.5 121c.9.3 2-.2 2.2-1.2l.5-1.6z"/><circle class="st3" cx="31.6" cy="101.8" r="2.9"/><circle class="st3" cx="34.6" cy="97.3" r="2.9"/><circle class="st3" cx="39.1" cy="94" r="2.9"/><circle class="st3" cx="44.1" cy="91.6" r="2.9"/><circle class="st3" cx="49.5" cy="90.6" r="2.9"/><circle class="st3" cx="55.1" cy="91" r="2.9"/><circle class="st3" cx="60.6" cy="93" r="2.9"/><circle class="st3" cx="65.4" cy="96" r="2.9"/><circle class="st3" cx="69" cy="100.1" r="2.9"/><circle class="st3" cx="71.8" cy="104.7" r="2.9"/><circle class="st3" cx="72.7" cy="110" r="2.9"/><circle class="st3" cx="73" cy="115.6" r="2.9"/></g></g><g><path class="st2" d="M68.5 158.6c3-11.3-3.4-23-14.7-26.5-11.3-3.5-23.2 2.7-27 13.7l-.5 1.7c-.3.9.2 2 1.2 2.2l38.3 11.7c.9.3 2-.2 2.2-1.2l.5-1.6z"/><circle class="st2" cx="27.9" cy="142.2" r="2.9"/><circle class="st2" cx="30.9" cy="137.7" r="2.9"/><circle class="st2" cx="35.3" cy="134.3" r="2.9"/><circle class="st2" cx="40.4" cy="132" r="2.9"/><circle class="st2" cx="45.8" cy="131" r="2.9"/><circle class="st2" cx="51.4" cy="131.4" r="2.9"/><circle class="st2" cx="56.8" cy="133.4" r="2.9"/><circle class="st2" cx="61.7" cy="136.4" r="2.9"/><circle class="st2" cx="65.2" cy="140.5" r="2.9"/><circle class="st2" cx="68" cy="145.1" r="2.9"/><circle class="st2" cx="68.9" cy="150.4" r="2.9"/><circle class="st2" cx="69.3" cy="155.9" r="2.9"/><g><path class="st3" d="M67 152.2c3-11.3-3.4-23-14.7-26.5-11.3-3.5-23.2 2.7-27 13.7l-.5 1.7c-.3.9.2 2 1.2 2.2L64.3 155c.9.3 2-.2 2.2-1.2l.5-1.6z"/><circle class="st3" cx="26.4" cy="135.7" r="2.9"/><circle class="st3" cx="29.4" cy="131.2" r="2.9"/><circle class="st3" cx="33.9" cy="127.9" r="2.9"/><circle class="st3" cx="38.9" cy="125.5" r="2.9"/><circle class="st3" cx="44.3" cy="124.6" r="2.9"/><circle class="st3" cx="49.9" cy="124.9" r="2.9"/><circle class="st3" cx="55.3" cy="127" r="2.9"/><circle class="st3" cx="60.2" cy="130" r="2.9"/><circle class="st3" cx="63.8" cy="134.1" r="2.9"/><circle class="st3" cx="66.5" cy="138.7" r="2.9"/><circle class="st3" cx="67.5" cy="143.9" r="2.9"/><circle class="st3" cx="67.8" cy="149.5" r="2.9"/></g></g><path class="st4" d="M36.6 81.7H35c-2 0-3.6-1.6-3.6-3.6V52.3c0-2 1.6-3.6 3.6-3.6h1.6c2 0 3.6 1.6 3.6 3.6v25.9c0 1.9-1.6 3.5-3.6 3.5z"/><circle class="st4" cx="35.8" cy="39" r="4.7"/><path class="st5" d="M13.6 129.3v54.2c0 9.8 8 17.7 17.7 17.7h113.4c9.8 0 17.7-8 17.7-17.7v-54.2H13.6z"/><g><path class="st6" d="M100.1 154h-.6c-1.7-3.8-5.5-6.5-9.9-6.5s-8.2 2.7-9.9 6.5h-.3c-5.3 0-10.4 5.3-10.4 10.6 0 4.2 3.5 9.8 7.2 11.1 1.2-.3 3-.8 5.3-1.2-2.6-.9-2.8-2.6-2.8-2.7 0-.2.1-.4.3-.4.2 0 .4.1.4.3 0 .1.3 2 4 2.4h.1l2.7-.3c-.8-1.1-1.3-3-1.3-3.2 0-.2.1-.4.3-.5.2 0 .4.1.5.3.2.7.7 2.7 1.5 3.3v.1c2.9-.1 5.9-.1 9.3.4.2-.1.3-.1.4-.1 3.3-.7 3.5-2.4 3.5-2.4 0-.2.2-.4.4-.3.2 0 .4.2.3.4 0 .1-.2 1.8-2.8 2.8 1.6.3 3.3.6 5 1.1 3.6-1.4 6.9-6.8 6.9-10.9.2-5.3-4.8-10.8-10.1-10.8z"/><circle class="st7" cx="107.8" cy="149.1" r="11.7"/><path class="st4" d="M104.9 147.5c-1 .1-1.2 1.3-1.3 2.1v.3c0 .4 0 .7-.1 1 0 .2-.1.5-.1.5-.4 0-.6-.5-.7-.7-.2-.6-.4-1.2-.5-1.8-.1-.7-.2-1.4-.2-2.1v-.9-.3-.2c.1-.5-.6 0-.8.2-.8 1.4-.5 3-.5 4.4 0 .4 0 .8-.1 1.2 0 .3-.1.8-.3 1-.1.1-.4 0-.5 0-.2-.1-.3-.3-.3-.5s-.3-.1-.4 0c-.2.2-.3.5-.3.7.1.5.6 1 1.1.8.9-.3 1.2-1.3 1.5-2.1.1-.4.2-.8.2-1.2.1.6.3 1.1.6 1.7.2.4.5.8 1 .7.4-.1.6-.5.8-.9.2.4.4.7.9.6.5 0 .9-.6 1.1-.9.2-.5.3-1 .3-1.5-.2-.8-.4-2.2-1.4-2.1zm.3 3.3c0 .1 0 .2-.1.3-.2 0-.3-.3-.4-.4-.2-.3-.2-.7-.3-1v-1.1c0-.1 0-.2.1-.3.5.3.6.9.6 1.4.1.4.2.8.1 1.1zM116.5 148.9c-1-.4-1.6 1-1.8 1.8-.2.7-.4 2 .5 2.4.4.2 1-.1 1.2-.4.3-.4.5-.8.6-1.3.2-.8.4-2.2-.5-2.5zm-.6 3.3c0 .1-.1.2-.1.2-.2-.1-.2-.4-.2-.6-.1-.4 0-.7 0-1.1.1-.4.2-.7.3-1 0-.1.1-.2.1-.2.4.5.3 1.1.2 1.7-.1.3-.2.7-.3 1z"/><path class="st4" d="M113.7 149c.2-.3.4-.5.6-.8.4-.6.8-1.3.7-2 0-.7-.9-.7-1.4-.5-.7.3-1.1 1-1.2 1.7-.3.9-.4 1.8-.4 2.7-.3.4-1 1.2-1.5.9-.1-.1-.2-.3-.3-.4.4-.5.8-.9 1.2-1.4.3-.5.5-1.3-.1-1.6-.5-.3-1.1 0-1.5.5-.3.4-.5 1-.5 1.5 0 .3-.1.8 0 1.2-.3.2-.7.3-1 .2-.4-.1-.5-.5-.6-.8-.1-.5-.1-1 0-1.5 0-.2.1-.3.1-.4v-.1c.2.1.4.5.4.7.1.3 1-.2.9-.5-.1-.3-.2-.7-.6-.9-.4-.2-.9.1-1.1.4-.6.6-.7 1.6-.7 2.4 0 .5.1 1.2.6 1.5.6.4 1.5 0 2.1-.3.2.4.5.7 1 .6.6-.1 1.2-.4 1.7-.9 0 .5.1 1 .5 1.2.6.3 1.2 0 1.6-.5.5-.6.7-1.5.5-2.2-.4-.5-.7-.7-1-.7zm-3.6-.4c0-.1.1-.3.2-.4.3.1.3.4.3.6-.1.4-.3.8-.6 1.1v-.2c0-.3 0-.7.1-1.1zm3.4-1.9c.1-.1.2-.3.3-.4.4.5 0 1.1-.2 1.5-.2.4-.5.8-.8 1.2.1-.4.1-.8.2-1.2.2-.3.3-.7.5-1.1zm-.2 4.8s-.1.1-.1.2h-.1c-.3-.1-.3-.7-.3-.9v-.6c.1-.1.2-.2.3-.4.2-.2.4.1.4.4.1.4 0 .9-.2 1.3z"/><g><path class="st7" d="M55.4 157c-.1.1.3.2.4.3 0 .1-.2 0-.3 0 0 .1.1.1.2.2 0 0-.1 0-.1.1.2.1.3.5.6.6.5.2 1.2.4 1.2.5.1-.9-.3-1.8.4-2.6 0-.1-.1-.1-.1-.2h.1c0-.2-.2-.1-.1-.3h.2c.1 0-.1-.1-.1-.2s.2 0 .2 0c0-.1-.3-.3-.3-.5.2.1.3.2.4.3-.1-.2-.3-.3-.3-.6.2.1.3.3.5.4-.1-.3-.3-.4-.4-.7.3.1.4.4.6.6-.1-.4-.4-.8-.4-1.2.3.3.4.7.6 1.1 0-.4-.3-.9-.2-1.5.2.4.3 1 .5 1.4.1-.5-.3-1.2-.1-1.7.2.5.2 1.1.4 1.6 0-.5-.1-1.2 0-1.8.2.5.2 1.2.3 1.8.1-.4-.1-1.3.2-1.6v1.4c0 .8.4 1.5.1 2.2-.3.7-.8 1.3-.8 2.3 1.1.3 1.4.3 2.3.3.4 0 .7-.2 1.1-.1.1 0 .2.2.3.2.3.1.5.1.8.1-.4.1-1.3.2-1.4.2-.2 0-.8-.1-.4-.1.3 0 .6 0 .6-.1 0-.3-.5-.1-.8 0-.9.1-1.4.3-3 0 .4 0 .4-.3.4-.5-.1-1.2.1-1.5.5-2 .6-1-.2-1-.4-1.4-.1.1 0 .4 0 .5-.1-.1-.2-.4-.4-.5-.1.1.1.3.1.5l-.3-.3c-.1.1.1.3.1.4-.1 0-.2-.2-.3-.2-.1.1.1.1 0 .3-.1 0-.1-.1-.2 0 0 .1 0 .2.1.2 0 .1-.1 0-.1 0-.1 0 0 .1 0 .2-.8-.1-.2 2.4-.8 3.3.4.3 1.4.2 1.9.1-.7.5-1.4.3-2.2.4-.1 0-.2.1-.3.1-.4.1-.9.3-1.3.4-.5.2-1.9.5-2.1.5 3.7-1.3 3-1.5 3.4-1.7-.6-.2-.8-.9-1.2-1.1 0 0 0-.1.1-.1 0-.1-.1 0-.2 0 0-.1 0-.1.1-.1 0-.1-.2 0-.3-.1 0-.1.1-.1.2-.1-.1-.1-.3-.1-.4-.2.1-.1.2-.1.4-.1-.1-.1-.4-.1-.5-.3h.5c-.2-.2-.6-.2-.7-.5.3 0 .5.1.7.2-.3-.2-.7-.3-.8-.7.3.2.6.3.9.5-.1-.3-.7-.5-.9-.8.4 0 .7.4 1.1.6-.2 0-.5-.3-.8-.4.1.3.6.5.9.7-.2.1-.5-.1-.7-.2 0 .2.4.4.6.5 0-.4-.1-.5-.3-.5"/><path class="st7" d="M58.6 150.5c-4.1 0-7.4 3.3-7.4 7.4 0 4.1 3.3 7.4 7.4 7.4 4.1 0 7.4-3.3 7.4-7.4 0-4.1-3.3-7.4-7.4-7.4m0 .2c3.9 0 7.1 3.2 7.1 7.1 0 3.9-3.2 7.1-7.1 7.1-3.9 0-7.1-3.2-7.1-7.1 0-3.9 3.2-7.1 7.1-7.1"/></g><g><path class="st4" d="M74 170.3c.8 1.5 2.5.2 2.6-1.1.2-1.9-1-3.8-1.9-5.4-.1-.2-.4.1-.5.1-.9.9-2 2.3-1.3 3.4.2.3.9-.7.7-1-.3-.5.4-1.3.8-1.7-.1 0-.3.1-.4.1.4.6.8 1.3 1.2 2 .2.4.3.8.5 1.2.1.3.2.5.3.8-.3 1.3-.7 1.5-1.2.7-.3-.4-1 .6-.8.9z"/><path class="st4" d="M78.9 168.3c-.3.8-.8-.7-.9-.9-.1-.3-.3-.6-.5-.8-.5-.4-1.1-.2-1.6.2h.4c-.3-.8-.8-2.9.9-2.1.4.2 1-.8.6-1-1-.5-1.7-.1-2.3.8-.6 1-.3 2.2.1 3.1.1.2.2.1.4 0 1.4-1.1 1.5 1.2 2.3 1.8.6.5 1.2-.9 1.3-1.2.2-.6-.5-.4-.7.1zM82.4 167.9c.3.9 1.3.6 1.8-.1.3-.5.3-1.1.3-1.6 0-.8 0-1.7.3-2.5-.3.2-.6.3-1 .5.2 1.1.3 3 1.3 3.9.7.6 1.7-.8 1.9-1.2.3-.7-.6-.2-.7.1-.3.8-.8-.4-.9-.6-.3-.9-.5-1.8-.6-2.8-.1-.5-.9.3-1 .5-.2.6-.3 1.1-.3 1.7v1.5c0 .5-.3.2-.4 0 0-.5-.8.3-.7.6zM89.7 163.5c.1 1.3.2 2.7.1 4 0 .5.8-.2.8-.5.1-.8.3-1.2.8-1.7.6-.6.9-1.3 1.2-2.1.2-.6-.8-.1-.9.2-.4 1-.4 2.2-.3 3.3 0 .3 0 .7.3.9.4.3 1-.2 1.3-.4.5-.4.1-.8-.4-.4-.4.3-.3-1.3-.3-1.5 0-.7.1-1.5.4-2.2-.3.1-.6.1-.9.2-.2.8-.5 1.3-1.1 1.9-.6.6-.7 1.3-.8 2.1.3-.2.6-.3.8-.5.1-1.3 0-2.7-.1-4 0-.2-1 .4-.9.7zM96.2 167.4c-.1 1 .8 1.3 1.7.9.8-.5 1.1-1.3 1.3-2.2.1-.7.3-1.7-.4-2.2-.3-.2-.9-.1-1.2.1-.7.3-1 .8-1.1 1.4-.1.5 1 0 1-.3.1-.6.4-.6.6-.1.1.4.1.7.1 1.1 0 .4-.1.9-.3 1.2-.1.1-.1.3-.3.4.1-.1 0-.1-.1-.1-.3-.1-.3-.4-.3-.6 0-.4-1 .1-1 .4z"/><path class="st4" d="M96.5 163.5c0 2.5-.5 5-1.1 7.4-.1.5.8 0 .9-.3.7-2.4 1.3-5 1.3-7.5 0-.4-1.1.1-1.1.4zM105.3 166.5c-.5.8-.9 1.8-1.2 2.7-.1.4-.2 1 .1 1.3.4.5 1.2.3 1.7.1.7-.3 0-.6-.5-.4-.3.1-.3-.7-.3-.8.1-.4.2-.9.4-1.3.2-.6.5-1.1.9-1.6.2-.5-.9-.3-1.1 0z"/><path class="st4" d="M102.2 169.2c0 .8.8.9 1.4.7.9-.3 1.5-1.1 1.9-1.8.2-.4-.9-.2-1.1.1-.1.2 0 0 .1 0-.1 0-.1-.1-.2-.1-.2-.1-.2-.3-.2-.5 0-.3.2-.7.4-.9.3-.5.5.2.4.5-.2.5 1 .3 1.1 0 .3-.7-.2-1.3-1-1.2-.9 0-1.7.9-1.8 1.7-.4 1.5 1.7 1.7 2.4.6-.4 0-.7 0-1.1.1-.2.4-.4.7-.7 1.1-.3.3-.6 0-.6-.3 0-.7-1-.4-1 0zM89.6 166.9c-.5.5-.7-1.3-.7-1.4-.1-.7-.1-1.5-.1-2.3 0-.5-.9.2-.9.5v1.9c0 .3 0 .7-.1 1-.1.4 0 .5-.4.3-.9-.5-.6-2.6-.4-3.5.1-.6-.8 0-.9.4-.2.8-.4 4.4 1.2 4.1 1.9-.4 1.5-3.5 1.5-4.7-.3.2-.6.3-.9.5 0 1.1 0 2.4.4 3.5.3.9 1.1.6 1.7 0 .4-.4 0-.8-.4-.3z"/><path class="st4" d="M102.2 168.7c-.6.3-.2-1.5-.2-1.6.2-.7.4-1.4.7-2.1.2-.5-.9-.1-1 .2l-.6 1.8c-.1.3-.3.6-.4.9-.2.3-.2.4-.4.2-.6-.8.3-2.7.8-3.4.3-.5-.8-.3-.9 0-.4.7-1.9 4-.3 4.2 1.8.3 2.5-2.8 3-4-.3.1-.7.1-1 .2-.4 1.1-.8 2.3-.8 3.4 0 1 .9.9 1.6.6.3-.1.1-.6-.5-.4zM95.8 164.2c.1-1.3-1.7-.8-2.3-.2-.7.8-.9 2-.8 3 .1.9.8 1.3 1.7.7 1.1-.8 1.1-2.4 1.4-3.5-.4.1-.7.2-1.1.3-.1.7-1 4.5 1.1 3.6.5-.2.6-.9-.1-.6-.2.1-.2-1.1-.2-1.1 0-.8.1-1.5.3-2.2.1-.5-1 0-1.1.3-.1.7-.2 1.4-.4 2 0 .2-.2.7-.3.7-.2 0-.3-.3-.3-.4-.2-.5-.1-1 0-1.5 0-.3.1-.5.3-.8.1-.1.1-.3.2-.4.2-.2.5.3.5.4 0 .5 1 0 1.1-.3z"/><g><path class="st4" d="M78.6 165.2c.3.8.5 4.3 1.9 3.8 1.7-.7 1-3.7.8-4.9 0-.5-.9.3-.8.6.1.9.2 1.7.3 2.6 0 .3.1 1-.3.8-.5-.2-.6-1.3-.7-1.7-.1-.6-.2-1.3-.4-1.9-.2-.5-.9.3-.8.7z"/><path class="st4" d="M80.5 164.7c.4 1.7.8 3.3 1.3 5 .1.4.5 2-.1 1.9-1-.1.1-2.9.3-3.2.3-.6-.4-.5-.6 0-.6 1.1-1.1 2.6-.5 3.8.2.5.9.5 1.2.1.6-.7.7-1.7.5-2.7-.2-1.8-.8-3.7-1.2-5.5-.1-.6-.9.2-.9.6z"/></g><path class="st4" d="M97.9 164.5c.8.8 1.8 1 2.7.5.1-.1.4-.2.3-.4-.1-.2-.4 0-.5 0-.6.3-1.3-.2-1.7-.6-.3-.2-1 .3-.8.5z"/></g><g><path class="st6" d="M103.5 184.7v-8.2c-12.8-3.6-23.6-1.1-27.3 0v8.4c3.5-1 14.4-3.6 27.3-.2z"/><path class="st6" d="M77.4 185.4c2 .6 6.4 1.6 12.1 1.6 5.8 0 10.4-1.2 12.6-1.8-11.1-2.7-20.5-.9-24.7.2z"/></g></g></svg>