<svg id="Layer_1" xmlns="http://www.w3.org/2000/svg" viewBox="0 0 204.7 159.1"><style>.st0{fill:#D3D3D3;} .st1{fill:#969696;} .st2{fill:#D6D6D6;} .st3{fill:#FFFFFF;} .st4{fill:#FC315B;} .st5{fill:#62BA47;}</style><path class="st0" d="M186.9 25.5c-40 15.2-43.2 54.6-43.4 63.2-3.3-3.3-10.8-4.8-17.2-5.5 0-6.8-1-13.5-3.2-20-.9-2.6-1.8-5-2.9-7.2 2.3-2.8 3.6-5.9 3.6-9.3 0-1.5-.2-2.9-.7-4.3.5-1.4.7-2.8.7-4.3 0-12-16.5-21.5-37.6-21.5S48.6 26 48.6 38.1c0 1.5.2 2.9.7 4.3-.5 1.4-.7 2.8-.7 4.3 0 3.3 1.3 6.5 3.6 9.3-1 2.2-2 4.5-2.9 7-3.1 9.3-4 19.1-2.6 29 1.7 12.3 6.9 24.9 15.5 37.5 3.4 7 13 11.7 24 11.7h.7c6.6 0 12.8-1.7 17.5-4.7 3.9-2.5 6.5-5.8 7.4-9.4 2.5-3.8 4.6-7.6 6.5-11.4 3.6-.2 12.2-1.5 19.4-10.4.5 0 1 0 1.7-.1 9.4-1 8-12.2 8-12.2-.3-45.9 47.7-59.4 47.7-65.2s-8.2-2.3-8.2-2.3zM65.4 23.6c1.3-.5 2.7-1 4.2-1.4 1.5-.4 3-.8 4.6-1.1 3.7-.7 7.7-1.1 11.9-1.1-4.2 0-8.2.4-11.9 1.1-1.6.3-3.1.7-4.6 1.1-1.5.4-2.9.9-4.2 1.4-2.7 1.1-5 2.3-7 3.7 2-1.4 4.3-2.6 7-3.7z"/><path class="st1" d="M135.4 88.4s-1.6-47.8 43.4-64.9c0 0 8-3.3 8 2.5s-48 19.3-47.7 65.2c0 0 1.4 11.2-8 12.2s1.6-6.1 1.6-6.1l.6-.2 2.1-8.7z"/><path class="st2" d="M97.6 38H58.5s-39 34.5-2.3 88.3c2.8 6 11.5 10.4 21.8 10.4 10 0 18.5-4.2 21.6-10 37.3-54-2-88.7-2-88.7z"/><path class="st3" d="M97.6 38s39.2 34.7 2 88.8c-3 5.8-11.5 10-21.6 10-10.3 0-19-4.4-21.8-10.4C19.5 72.5 58.5 38 58.5 38h39.1m1-2.6H57.5l-.7.7c-.4.4-10.3 9.3-15.7 25.1-3.1 9.3-4 19.1-2.6 29 1.7 12.3 6.9 24.9 15.5 37.5 3.4 7 13 11.7 24 11.7 10.7 0 20.2-4.5 23.8-11.3 8.7-12.6 14-25.3 15.8-37.7 1.4-10 .6-19.8-2.5-29.2-5.3-15.9-15.3-24.8-15.7-25.2l-.8-.6z"/><ellipse class="st2" cx="78.8" cy="122.2" rx="22.7" ry="14.6"/><path class="st3" d="M78.8 107.5c12.5 0 22.7 6.6 22.7 14.6s-10.2 14.6-22.7 14.6-22.7-6.6-22.7-14.6 10.2-14.6 22.7-14.6m0-2.6c-6.6 0-12.8 1.7-17.5 4.7-5.1 3.3-7.8 7.7-7.8 12.5s2.8 9.3 7.8 12.5c4.7 3 10.9 4.7 17.5 4.7s12.8-1.7 17.5-4.7c5.1-3.3 7.8-7.7 7.8-12.5s-2.8-9.3-7.8-12.5c-4.7-3-10.9-4.7-17.5-4.7z"/><path id="XMLID_19_" class="st4" d="M95.8 45.4H60.4s-35.3 29.8-2 76.4c2.5 5.2 10.4 9 19.7 9h.7c10.3 0 18.9-4.7 20.3-10.8 31.1-45.6-3.3-74.6-3.3-74.6z"/><ellipse class="st2" cx="78.1" cy="44.9" rx="34.6" ry="18.4"/><path class="st3" d="M78.1 26.5c19.1 0 34.6 8.2 34.6 18.4S97.2 63.3 78.1 63.3 43.5 55 43.5 44.9c0-10.2 15.5-18.4 34.6-18.4m0-3.1c-21.1 0-37.6 9.4-37.6 21.5 0 12 16.5 21.5 37.6 21.5s37.6-9.4 37.6-21.5-16.5-21.5-37.6-21.5z"/><ellipse class="st2" cx="78.1" cy="36.4" rx="34.6" ry="18.4"/><path class="st3" d="M78.1 18c19.1 0 34.6 8.2 34.6 18.4S97.2 54.8 78.1 54.8s-34.6-8.2-34.6-18.4S59 18 78.1 18m0-3.1c-21.1 0-37.6 9.4-37.6 21.5S57 57.8 78.1 57.8s37.6-9.4 37.6-21.5-16.5-21.4-37.6-21.4z"/><path class="st5" d="M53.9 71.4s-3.9 9.5.7 22.1"/><path class="st3" d="M55.2 96.5c-1.5.3-3-.5-3.6-2-5-13.5-.8-23.9-.7-24.3.7-1.6 2.5-2.3 4.1-1.7 1.6.7 2.3 2.5 1.7 4-.1.2-3.4 8.7.7 19.8.6 1.6-.2 3.4-1.8 4-.1.1-.3.2-.4.2z"/><path class="st1" d="M80.3 90.6s-.5 23.3 28.1 23.3c0 0 19.3 2 28.1-23.3H80.3z"/><ellipse class="st2" cx="107" cy="90.6" rx="28.1" ry="7.3"/><path class="st4" d="M135.2 92.8c-3.6-2.9-14.2-5.1-26.8-5.1-12.6 0-23.2 2.1-26.8 5.1 3.6 2.9 14.2 5.1 26.8 5.1 12.5-.1 23.2-2.2 26.8-5.1z"/><path class="st3" d="M107.6 83.7c14.7 0 26.5 3.1 26.5 6.9 0 3.8-11.9 6.9-26.5 6.9-14.7 0-26.5-3.1-26.5-6.9 0-3.8 11.9-6.9 26.5-6.9m0-3c-3 0-29.5.3-29.5 9.9s26.5 9.9 29.5 9.9 29.5-.3 29.5-9.9-26.4-9.9-29.5-9.9zM96.6 108.9c-.2 0-.4 0-.7-.1-6-1.4-8.6-5.6-8.9-6.1-.8-1.4-.3-3.3 1.1-4.1 1.4-.8 3.2-.3 4.1 1.1.1.2 1.6 2.5 5.1 3.3 1.6.4 2.6 2 2.3 3.6-.4 1.3-1.6 2.3-3 2.3z"/></svg>