<svg id="Layer_1" xmlns="http://www.w3.org/2000/svg" viewBox="0 0 272.5 194.6"><style>.st0{fill:#D6D6D6;} .st1{fill:#FFFFFF;} .st2{fill:#FC315B;} .st3{fill:#62BA47;} .st4{fill:#0E3656;} .st5{fill:#446666;} .st6{fill:#D3D3D3;} .st7{fill:#9B4B29;} .st8{fill:#EAEAEA;} .st9{fill:#231F20;} .st10{fill:#8C8C8C;} .st11{fill:#E51A4B;}</style><path id="XMLID_108_" class="st0" d="M144.1 43.2H105s-39 34.5-2.3 88.3c2.8 6 11.5 10.4 21.8 10.4 10 0 18.5-4.2 21.6-10 37.2-54-2-88.7-2-88.7z"/><path id="XMLID_105_" class="st1" d="M144.1 43.2s39.2 34.7 2 88.8c-3 5.8-11.5 10-21.6 10-10.3 0-19-4.4-21.8-10.4C66 77.7 105 43.2 105 43.2h39.1m1-2.6H104l-.7.7c-.4.4-10.3 9.3-15.7 25.1-3.1 9.3-4 19.1-2.6 29 1.7 12.3 6.9 24.9 15.5 37.5 3.4 7 13 11.7 24 11.7 10.7 0 20.2-4.5 23.8-11.3 8.7-12.6 14-25.3 15.8-37.7 1.4-10 .6-19.8-2.5-29.2-5.3-15.9-15.3-24.8-15.7-25.2l-.8-.6z"/><ellipse id="XMLID_104_" class="st0" cx="125.3" cy="127.3" rx="22.7" ry="14.6"/><path id="XMLID_101_" class="st1" d="M125.3 112.7c12.5 0 22.7 6.6 22.7 14.6S137.8 142 125.3 142s-22.7-6.6-22.7-14.6 10.1-14.7 22.7-14.7m0-2.6c-6.6 0-12.8 1.7-17.5 4.7-5.1 3.3-7.8 7.7-7.8 12.5s2.8 9.3 7.8 12.5c4.7 3 10.9 4.7 17.5 4.7s12.8-1.7 17.5-4.7c5.1-3.3 7.8-7.7 7.8-12.5s-2.8-9.3-7.8-12.5c-4.8-3-11-4.7-17.5-4.7z"/><g id="XMLID_98_"><path id="XMLID_46_" class="st2" d="M142.2 50.5h-35.4s-35.3 29.8-2 76.4c2.5 5.2 10.4 9 19.7 9h.7c10.3 0 18.9-4.7 20.3-10.8 31.1-45.5-3.3-74.6-3.3-74.6z"/></g><ellipse id="XMLID_97_" class="st0" cx="124.5" cy="50.1" rx="34.6" ry="18.4"/><path id="XMLID_94_" class="st1" d="M124.5 31.7c19.1 0 34.6 8.2 34.6 18.4s-15.5 18.4-34.6 18.4S90 60.2 90 50.1c0-10.2 15.5-18.4 34.5-18.4m0-3.1c-21.1 0-37.6 9.4-37.6 21.5 0 12 16.5 21.5 37.6 21.5s37.6-9.4 37.6-21.5c.1-12.1-16.4-21.5-37.6-21.5z"/><ellipse id="XMLID_93_" class="st0" cx="124.5" cy="41.5" rx="34.6" ry="18.4"/><path id="XMLID_90_" class="st1" d="M124.5 23.2c19.1 0 34.6 8.2 34.6 18.4S143.6 60 124.5 60 90 51.7 90 41.5s15.5-18.3 34.5-18.3m0-3.1c-21.1 0-37.6 9.4-37.6 21.5S103.4 63 124.5 63s37.6-9.4 37.6-21.5-16.4-21.4-37.6-21.4z"/><g id="XMLID_87_"><path id="XMLID_89_" class="st3" d="M100.3 76.5s-3.9 9.5.7 22.1"/><path id="XMLID_88_" class="st1" d="M101.7 101.7c-1.5.3-3-.5-3.6-2-5-13.5-.8-23.9-.7-24.3.7-1.6 2.5-2.3 4.1-1.7 1.6.7 2.3 2.5 1.7 4-.1.2-3.4 8.7.7 19.8.6 1.6-.2 3.4-1.8 4-.2.1-.3.1-.4.2z"/></g><g id="XMLID_67_"><path id="XMLID_84_" class="st4" d="M111.1 56.3c9.7-7.4 11.6-21.3 4.2-31-7.4-9.7-21.3-11.6-31-4.2-9.7 7.4-11.6 21.3-4.2 31 7.4 9.7 21.2 11.6 31 4.2zm-26.6-7.6c-2.7-3.5-3.8-7.9-3.2-12.3.6-4.4 2.9-8.3 6.4-11 3.5-2.7 7.9-3.8 12.3-3.2 4.4.6 8.3 2.9 11 6.4 2.7 3.5 3.8 7.9 3.2 12.3s-2.9 8.3-6.4 11c-3.5 2.7-7.9 3.8-12.3 3.2-4.5-.6-8.4-2.9-11-6.4z"/><g id="XMLID_79_"><g id="XMLID_80_"><g id="XMLID_81_"><g id="XMLID_82_"><path id="XMLID_83_" class="st5" d="M78.38 49.86l3.33 4.377L64.123 67.62l-3.33-4.38z"/></g></g></g></g><g id="XMLID_74_"><g id="XMLID_75_"><g id="XMLID_76_"><g id="XMLID_77_"><path id="XMLID_78_" class="st4" d="M70.824 52.08l6.72 8.834L54.07 78.777l-6.723-8.834z"/></g></g></g></g><g id="XMLID_68_"><g id="XMLID_69_"><g id="XMLID_70_"><g id="XMLID_71_"><g id="XMLID_72_"><path id="XMLID_73_" class="st1" d="M89.9 33c-.9-1.2-.7-2.9.5-3.9 2.5-1.9 5.7-2.8 8.9-2.3 3.2.4 6 2.1 7.9 4.6.9 1.2.7 2.9-.5 3.9-1.2.9-2.9.7-3.9-.5-1-1.4-2.6-2.3-4.3-2.5-1.7-.2-3.4.2-4.8 1.3-1.2.9-2.9.6-3.8-.6z"/></g></g></g></g></g></g><g id="XMLID_29_"><path id="XMLID_66_" class="st6" d="M211 170c-.5 2.2-2.7 3.6-4.9 3.1l-64.8-14.5c-2.2-.5-3.6-2.7-3.1-4.9l19.2-86c.5-2.2 2.7-3.6 4.9-3.1l64.8 14.5c2.2.5 3.6 2.7 3.1 4.9L211 170z"/><path id="XMLID_65_" class="st7" d="M207.8 166.2c-.5 2.2-2.7 3.6-4.9 3.1l-64.8-14.5c-2.2-.5-3.6-2.7-3.1-4.9l19.2-86c.5-2.2 2.7-3.6 4.9-3.1l64.8 14.5c2.2.5 3.6 2.7 3.1 4.9l-19.2 86z"/><path id="XMLID_64_" class="st1" d="M159.79 65.86l60.895 13.603-17.68 79.146-60.896-13.604z"/><path id="XMLID_63_" class="st8" d="M181.852 63.134l17.76 3.967-2.07 9.272-17.76-3.967z"/><path id="XMLID_62_" class="st9" d="M192.5 67.2c-.3 1.2-1.4 1.9-2.6 1.7-1.2-.3-1.9-1.4-1.7-2.6l1-4.6c.3-1.2 1.4-1.9 2.6-1.7 1.2.3 1.9 1.4 1.7 2.6l-1 4.6z"/><path id="XMLID_59_" class="st10" d="M170.4 89.2l-8.6-1.9 1.9-8.6 8.6 1.9-1.9 8.6zm-7.6-2.5l7 1.6 1.6-7-7-1.6-1.6 7z"/><path id="XMLID_56_" class="st10" d="M167.5 101.9l-8.6-1.9 1.9-8.6 8.6 1.9-1.9 8.6zm-7.6-2.6l7 1.6 1.6-7-7-1.6-1.6 7z"/><path id="XMLID_53_" class="st10" d="M164.7 114.6l-8.6-1.9 1.9-8.6 8.6 1.9-1.9 8.6zm-7.6-2.6l7 1.6 1.6-7-7-1.6-1.6 7z"/><path id="XMLID_50_" class="st10" d="M161.9 127.3l-8.6-1.9 1.9-8.6 8.6 1.9-1.9 8.6zm-7.6-2.6l7 1.6 1.6-7-7-1.6-1.6 7z"/><path id="XMLID_47_" class="st10" d="M159 140l-8.6-1.9 1.9-8.6 8.6 1.9-1.9 8.6zm-7.6-2.6l7 1.6 1.6-7-7-1.6-1.6 7z"/><path id="XMLID_45_" class="st10" d="M175.563 82.172l34.35 7.674-.478 2.147-34.352-7.674z"/><path id="XMLID_44_" class="st10" d="M174.676 86.225l19.615 4.382-.478 2.147-19.616-4.382z"/><path id="XMLID_43_" class="st10" d="M172.66 95.277l34.353 7.674-.48 2.148-34.352-7.674z"/><path id="XMLID_42_" class="st10" d="M171.77 99.344l11.418 2.55-.48 2.147-11.418-2.55z"/><path id="XMLID_40_" class="st10" d="M169.86 107.984l34.35 7.674-.48 2.147-34.35-7.674z"/><path id="XMLID_39_" class="st10" d="M168.968 112.01l26.935 6.018-.48 2.147-26.934-6.017z"/><path id="XMLID_38_" class="st10" d="M164.156 133.376l34.352 7.674-.48 2.147-34.35-7.674z"/><path id="XMLID_37_" class="st10" d="M163.25 137.38l33.376 7.455-.48 2.147-33.376-7.456z"/><path id="XMLID_36_" class="st10" d="M166.96 120.67l34.35 7.673-.48 2.147-34.35-7.674z"/><g id="XMLID_30_"><path id="XMLID_35_" class="st11" d="M165.3 86.2l-2.5-4.1c-.2-.3-.1-.8.2-1 .3-.2.8-.1 1 .2l1.7 2.7 5.6-4.1c.3-.2.8-.2 1 .2.2.3.2.8-.2 1l-6.8 5.1z"/><path id="XMLID_34_" class="st11" d="M162.4 99.1l-2.5-4.1c-.2-.3-.1-.8.2-1 .3-.2.8-.1 1 .2l1.7 2.7 5.6-4.1c.3-.2.8-.2 1 .2.2.3.2.8-.2 1l-6.8 5.1z"/><path id="XMLID_33_" class="st11" d="M159.5 111.7l-2.5-4.1c-.2-.3-.1-.8.2-1 .3-.2.8-.1 1 .2l1.7 2.7 5.6-4.1c.3-.2.8-.2 1 .2.2.3.2.8-.2 1l-6.8 5.1z"/><path id="XMLID_32_" class="st11" d="M156.6 124.4l-2.5-4.1c-.2-.3-.1-.8.2-1 .3-.2.8-.1 1 .2l1.7 2.7 5.6-4.1c.3-.2.8-.2 1 .2.2.3.2.8-.2 1l-6.8 5.1z"/><path id="XMLID_31_" class="st11" d="M153.7 137.1l-2.5-4.1c-.2-.3-.1-.8.2-1 .3-.2.8-.1 1 .2l1.7 2.7 5.6-4.1c.3-.2.8-.2 1 .2.2.3.2.8-.2 1l-6.8 5.1z"/></g></g></svg>