<svg id="Layer_1" xmlns="http://www.w3.org/2000/svg" viewBox="0 0 272.5 194.6"><style>.st0{fill:#D3D3D3;} .st1{fill:#FFFFFF;} .st2{fill:#FC315B;} .st3{fill:#D6D6D6;} .st4{fill:#C17F3E;}</style><g id="XMLID_63_"><path id="XMLID_70_" class="st0" d="M64.2 131.7H92c23.7-30.3 11.8-54.9 4.2-65.5h2.1c1 0 1.7-.8 1.7-1.7v-2.9c0-1-.8-1.7-1.7-1.7H57c-1 0-1.7.8-1.7 1.7v2.9c0 1 .8 1.7 1.7 1.7h3c-7.6 10.5-19.5 35.2 4.2 65.5z"/><path id="XMLID_69_" class="st0" d="M57 59.6h41.4c1 0 1.7-.8 1.7-1.7V55c0-1-.8-1.7-1.7-1.7H57c-1 0-1.7.8-1.7 1.7v2.9c-.1.9.7 1.7 1.7 1.7z"/><path id="XMLID_68_" class="st0" d="M136.2 131.7H164c23.7-30.3 11.8-54.9 4.2-65.5h2.1c1 0 1.7-.8 1.7-1.7v-2.9c0-1-.8-1.7-1.7-1.7H129c-1 0-1.7.8-1.7 1.7v2.9c0 1 .8 1.7 1.7 1.7h3c-7.6 10.5-19.5 35.2 4.2 65.5z"/><path id="XMLID_67_" class="st0" d="M129 59.6h41.4c1 0 1.7-.8 1.7-1.7V55c0-1-.8-1.7-1.7-1.7H129c-1 0-1.7.8-1.7 1.7v2.9c-.1.9.7 1.7 1.7 1.7z"/><path id="XMLID_66_" class="st0" d="M205.5 131.7H233.3c23.7-30.3 11.8-54.9 4.2-65.5h2.1c1 0 1.7-.8 1.7-1.7v-2.9c0-1-.8-1.7-1.7-1.7h-41.4c-1 0-1.7.8-1.7 1.7v2.9c0 1 .8 1.7 1.7 1.7h3c-7.5 10.5-19.4 35.2 4.3 65.5z"/><path id="XMLID_65_" class="st0" d="M198.3 59.6h41.4c1 0 1.7-.8 1.7-1.7V55c0-1-.8-1.7-1.7-1.7h-41.4c-1 0-1.7.8-1.7 1.7v2.9c-.1.9.7 1.7 1.7 1.7z"/><path id="XMLID_64_" class="st0" d="M259 132.5H41.7c-3.3 0-6 2.7-6 6s2.7 6 6 6H259c3.3 0 6-2.7 6-6s-2.7-6-6-6z"/></g><g id="XMLID_57_"><path id="XMLID_62_" class="st1" d="M81.6 55.2H54.7s-32.3 30.5-.5 71.1H82c31.9-40.6-.4-71.1-.4-71.1z"/><path id="XMLID_61_" class="st2" d="M79.5 59.9H56s-28.3 26.6-.4 62.1h24.3c27.8-35.5-.4-62.1-.4-62.1z"/><path id="XMLID_60_" class="st3" d="M88.4 60.8H47c-1 0-1.7-.8-1.7-1.7v-2.9c0-1 .8-1.7 1.7-1.7h41.4c1 0 1.7.8 1.7 1.7v2.9c0 .9-.8 1.7-1.7 1.7z"/><path id="XMLID_59_" class="st1" d="M88.4 54.3H47c-1 0-1.7-.8-1.7-1.7v-2.9c0-1 .8-1.7 1.7-1.7h41.4c1 0 1.7.8 1.7 1.7v2.9c0 .9-.8 1.7-1.7 1.7z"/><path id="XMLID_58_" class="st1" d="M53.6 91.1c-1.3 0-2.5-.9-2.7-2.3-1.8-10.6 2.7-15.4 3.2-15.9 1.1-1.1 2.8-1.1 3.9 0s1.1 2.8 0 3.9c-.2.2-3 3.4-1.7 11.1.3 1.5-.7 2.9-2.3 3.2-.1-.1-.2 0-.4 0z"/></g><g id="XMLID_51_"><path id="XMLID_56_" class="st1" d="M153.6 55.2H126.8s-32.3 30.5-.5 71.1H154.1c31.8-40.6-.5-71.1-.5-71.1z"/><path id="XMLID_55_" class="st2" d="M151.5 59.9H128s-28.3 26.6-.4 62.1h24.3c27.8-35.5-.4-62.1-.4-62.1z"/><path id="XMLID_54_" class="st3" d="M160.4 60.8H119c-1 0-1.7-.8-1.7-1.7v-2.9c0-1 .8-1.7 1.7-1.7h41.4c1 0 1.7.8 1.7 1.7v2.9c0 .9-.8 1.7-1.7 1.7z"/><path id="XMLID_53_" class="st1" d="M160.4 54.3H119c-1 0-1.7-.8-1.7-1.7v-2.9c0-1 .8-1.7 1.7-1.7h41.4c1 0 1.7.8 1.7 1.7v2.9c0 .9-.8 1.7-1.7 1.7z"/><path id="XMLID_52_" class="st1" d="M125.6 91.1c-1.3 0-2.5-.9-2.7-2.3-1.8-10.6 2.7-15.4 3.2-15.9 1.1-1.1 2.8-1.1 3.9 0s1.1 2.8 0 3.9c-.2.2-3 3.4-1.7 11.1.3 1.5-.7 2.9-2.3 3.2-.1-.1-.2 0-.4 0z"/></g><g id="XMLID_45_"><path id="XMLID_50_" class="st1" d="M222.9 55.2H196s-32.3 30.5-.5 71.1H223.3c31.9-40.6-.4-71.1-.4-71.1z"/><path id="XMLID_49_" class="st2" d="M220.8 59.9h-23.4s-28.3 26.6-.4 62.1h24.4c27.7-35.5-.6-62.1-.6-62.1z"/><path id="XMLID_48_" class="st3" d="M229.7 60.8h-41.4c-1 0-1.7-.8-1.7-1.7v-2.9c0-1 .8-1.7 1.7-1.7h41.4c1 0 1.7.8 1.7 1.7v2.9c.1.9-.7 1.7-1.7 1.7z"/><path id="XMLID_47_" class="st1" d="M229.7 54.3h-41.4c-1 0-1.7-.8-1.7-1.7v-2.9c0-1 .8-1.7 1.7-1.7h41.4c1 0 1.7.8 1.7 1.7v2.9c.1.9-.7 1.7-1.7 1.7z"/><path id="XMLID_46_" class="st1" d="M194.9 91.1c-1.3 0-2.5-.9-2.7-2.3-1.8-10.6 2.7-15.4 3.2-15.9 1.1-1.1 2.8-1.1 3.9 0s1.1 2.8 0 3.9c-.2.2-3 3.4-1.7 11.1.3 1.5-.7 2.9-2.3 3.2 0-.1-.2 0-.4 0z"/></g><g id="XMLID_40_"><path id="XMLID_44_" class="st1" d="M76.9 94.6c-.2-.1-.3-.3-.5-.4-.7-.3-1.3.2-2 .2-1.7 0-2.3 0-4.2-.6-.1-1.7 1-2.8 1.4-4.1.4-1.2-.2-2.6-.2-3.9 0-.8.1-1.6 0-2.5-.6.5-.3 2.1-.4 2.9-.3-1-.2-2.4-.6-3.3-.2 1 0 2.3 0 3.3-.3-.9-.4-2-.7-2.9-.5.9.3 2.3.2 3.2-.4-.8-.5-1.8-1-2.6-.1 1.1.4 2 .3 2.8-.3-.7-.5-1.5-1-1.9 0 .7.5 1.6.7 2.2-.5-.2-.6-.8-1.1-1 .1.6.4.9.6 1.3-.3-.2-.5-.6-.9-.7 0 .5.5.6.6 1.1-.2-.2-.4-.3-.7-.5 0 .4.6.6.5.9 0 0-.4-.2-.4 0 .1 0 .4.3.2.3-.1 0-.3 0-.3-.1 0 .3.3.2.2.5-.1 0-.1-.1-.2-.1-.1.2.2.2.2.4-1.4 1.5-.6 3.1-.8 4.8.1-.2-1.2-.5-2.1-.9-.5-.2-.6-.8-1.1-1 0-.1.1-.1.2-.2-.2-.1-.3-.1-.4-.3.2 0 .5.1.6-.1-.2-.1-.9-.3-.8-.5.4 0 .7.2 1 .2-.4-.2-1.1-.5-1.1-.8.3.1.9.5 1.3.3-.6-.3-1.4-.8-1.6-1.2.4.2 1 .7 1.4.7-.7-.2-1.3-1-2-1 .3.6 1.4 1 1.6 1.5-.5-.3-1.1-.6-1.7-.9.2.7 1 .9 1.5 1.3-.5 0-.8-.3-1.4-.3.2.5 1 .4 1.3.8-.2-.1-.6 0-.9-.1.1.4.6.3.9.5-.3 0-.6 0-.7.2.2.2.6.1.7.3-.2 0-.4 0-.4.2.1.1.4 0 .5.2-.1 0-.2.1-.2.2.1 0 .3 0 .3.1-.1 0-.1.1-.2.2.8.4 1.2 1.7 2.2 2-.6.4.6.8-6.1 3.1.2 0 2.9-.7 3.8-.9.8-.3 1.7-.5 2.4-.8.2-.1.4-.1.6-.2 1.4-.1 2.6.1 4-.8-1 .2-2.8.4-3.5-.2.9-1.4.3-5 1-5.8.8-.7 1.9-3 3.3-1.1.2.3.3.8-.2 1.6-.6 1-1 1.5-.9 3.7 0 .4.1.9-.7.9 2.9.6 3.8.3 5.5.1.6-.1 1.4-.5 1.4 0 0 .2-.6.2-1 .2-.8 0 .3.3.7.3.2 0 1.7-.2 2.5-.3-.7-.4-1.1-.3-1.6-.5z"/><path id="XMLID_41_" class="st1" d="M68.4 79.7c-6.7 0-12.1 5.4-12.1 12.1 0 6.7 5.4 12.1 12.1 12.1 6.7 0 12.1-5.4 12.1-12.1-.1-6.7-5.5-12.1-12.1-12.1m0 .4c6.4 0 11.6 5.2 11.6 11.6s-5.2 11.6-11.6 11.6c-6.4 0-11.6-5.2-11.6-11.6s5.1-11.6 11.6-11.6"/></g><g id="XMLID_35_"><path id="XMLID_39_" class="st1" d="M147.7 94.6c-.2-.1-.3-.3-.5-.4-.7-.3-1.3.2-2 .2-1.7 0-2.3 0-4.2-.6-.1-1.7 1-2.8 1.4-4.1.4-1.2-.2-2.6-.2-3.9 0-.8.1-1.6 0-2.5-.6.5-.3 2.1-.4 2.9-.3-1-.2-2.4-.6-3.3-.2 1 0 2.3 0 3.3-.3-.9-.4-2-.7-2.9-.5.9.3 2.3.2 3.2-.4-.8-.5-1.8-1-2.6-.1 1.1.4 2 .3 2.8-.3-.7-.5-1.5-1-1.9 0 .7.5 1.6.7 2.2-.5-.2-.6-.8-1.1-1 .1.6.4.9.6 1.3-.3-.2-.5-.6-.9-.7 0 .5.5.6.6 1.1-.2-.2-.4-.3-.7-.5 0 .4.6.6.5.9 0 0-.4-.2-.4 0 .1 0 .4.3.2.3-.1 0-.3 0-.3-.1 0 .3.3.2.2.5-.1 0-.1-.1-.2-.1-.1.2.2.2.2.4-1.4 1.5-.6 3.1-.8 4.8.1-.2-1.2-.5-2.1-.9-.5-.2-.6-.8-1.1-1 0-.1.1-.1.2-.2-.2-.1-.3-.1-.4-.3.2 0 .5.1.6-.1-.2-.1-.9-.3-.8-.5.4 0 .7.2 1 .2-.4-.2-1.1-.5-1.1-.8.3.1.9.5 1.3.3-.6-.3-1.4-.8-1.6-1.2.4.2 1 .7 1.4.7-.7-.2-1.3-1-2-1 .3.6 1.4 1 1.6 1.5-.5-.3-1.1-.6-1.7-.9.2.7 1 .9 1.5 1.3-.5 0-.8-.3-1.4-.3.2.5 1 .4 1.3.8-.2-.1-.6 0-.9-.1.1.4.6.3.9.5-.3 0-.6 0-.7.2.2.2.6.1.7.3-.2 0-.4 0-.4.2.1.1.4 0 .5.2-.1 0-.2.1-.2.2.1 0 .3 0 .3.1-.1 0-.1.1-.2.2.8.4 1.2 1.7 2.2 2-.6.4.6.8-6.1 3.1.2 0 2.9-.7 3.8-.9.8-.3 1.7-.5 2.4-.8.2-.1.4-.1.6-.2 1.4-.1 2.6.1 4-.8-1 .2-2.8.4-3.5-.2.9-1.4.3-5 1-5.8.8-.7 1.9-3 3.3-1.1.2.3.3.8-.2 1.6-.6 1-1 1.5-.9 3.7 0 .4.1.9-.7.9 2.9.6 3.8.3 5.5.1.6-.1 1.4-.5 1.4 0 0 .2-.6.2-1 .2-.8 0 .3.3.7.3.2 0 1.7-.2 2.5-.3-.8-.4-1.1-.3-1.6-.5z"/><path id="XMLID_36_" class="st1" d="M139.1 79.7c-6.7 0-12.1 5.4-12.1 12.1 0 6.7 5.4 12.1 12.1 12.1 6.7 0 12.1-5.4 12.1-12.1 0-6.7-5.4-12.1-12.1-12.1m0 .4c6.4 0 11.6 5.2 11.6 11.6s-5.2 11.6-11.6 11.6c-6.4 0-11.6-5.2-11.6-11.6s5.2-11.6 11.6-11.6"/></g><g id="XMLID_30_"><path id="XMLID_34_" class="st1" d="M217.3 94.6c-.2-.1-.3-.3-.5-.4-.7-.3-1.3.2-2 .2-1.7 0-2.3 0-4.2-.6-.1-1.7 1-2.8 1.4-4.1.4-1.2-.2-2.6-.2-3.9 0-.8.1-1.6 0-2.5-.6.5-.3 2.1-.4 2.9-.3-1-.2-2.4-.6-3.3-.2 1 0 2.3 0 3.3-.3-.9-.4-2-.7-2.9-.5.9.3 2.3.2 3.2-.4-.8-.5-1.8-1-2.6-.1 1.1.4 2 .3 2.8-.3-.7-.5-1.5-1-1.9 0 .7.5 1.6.7 2.2-.5-.2-.6-.8-1.1-1 .1.6.4.9.6 1.3-.3-.2-.5-.6-.9-.7 0 .5.5.6.6 1.1-.2-.2-.4-.3-.7-.5 0 .4.6.6.5.9 0 0-.4-.2-.4 0 .1 0 .4.3.2.3-.1 0-.3 0-.3-.1 0 .3.3.2.2.5-.1 0-.1-.1-.2-.1-.1.2.2.2.2.4-1.4 1.5-.6 3.1-.8 4.8.1-.2-1.2-.5-2.1-.9-.5-.2-.6-.8-1.1-1 0-.1.1-.1.2-.2-.2-.1-.3-.1-.4-.3.2 0 .5.1.6-.1-.2-.1-.9-.3-.8-.5.4 0 .7.2 1 .2-.4-.2-1.1-.5-1.1-.8.3.1.9.5 1.3.3-.6-.3-1.4-.8-1.6-1.2.4.2 1 .7 1.4.7-.7-.2-1.3-1-2-1 .3.6 1.4 1 1.6 1.5-.5-.3-1.1-.6-1.7-.9.2.7 1 .9 1.5 1.3-.5 0-.8-.3-1.4-.3.2.5 1 .4 1.3.8-.2-.1-.6 0-.9-.1.1.4.6.3.9.5-.3 0-.6 0-.7.2.2.2.6.1.7.3-.2 0-.4 0-.4.2.1.1.4 0 .5.2-.1 0-.2.1-.2.2.1 0 .3 0 .3.1-.1 0-.1.1-.2.2.8.4 1.2 1.7 2.2 2-.6.4.6.8-6.1 3.1.2 0 2.9-.7 3.8-.9.8-.3 1.7-.5 2.4-.8.2-.1.4-.1.6-.2 1.4-.1 2.6.1 4-.8-1 .2-2.8.4-3.5-.2.9-1.4.3-5 1-5.8.8-.7 1.9-3 3.3-1.1.2.3.3.8-.2 1.6-.6 1-1 1.5-.9 3.7 0 .4.1.9-.7.9 2.9.6 3.8.3 5.5.1.6-.1 1.4-.5 1.4 0 0 .2-.6.2-1 .2-.8 0 .3.3.7.3.2 0 1.7-.2 2.5-.3-.8-.4-1.1-.3-1.6-.5z"/><path id="XMLID_31_" class="st1" d="M208.7 79.7c-6.7 0-12.1 5.4-12.1 12.1 0 6.7 5.4 12.1 12.1 12.1 6.7 0 12.1-5.4 12.1-12.1 0-6.7-5.4-12.1-12.1-12.1m0 .4c6.4 0 11.6 5.2 11.6 11.6s-5.2 11.6-11.6 11.6c-6.4 0-11.6-5.2-11.6-11.6s5.2-11.6 11.6-11.6"/></g><path id="XMLID_29_" class="st4" d="M249 139.2H31.7c-3.3 0-6-2.7-6-6s2.7-6 6-6H249c3.3 0 6 2.7 6 6s-2.7 6-6 6z"/></svg>