<svg xmlns="http://www.w3.org/2000/svg" viewBox="0 0 326 243"><style>.st0{fill:#519E38;} .st1{fill:#FEBEBD;} .st2{fill:#9D360A;} .st3{fill:#CA655F;} .st4{fill:#0E3656;} .st5{fill:#446666;} .st6{fill:#FFFFFF;}</style><g id="ticks"><path class="st0" d="M252.4 93.5c-30.3-56.5-96.3-25-96.3-25s-20.2 10.1-61.2 3c-34.2-6-49.4 26.2-44.8 43.2-1.9 9-.3 17.5 5 21.4 14.9 10.7 35.1 16 62.4 14.3 27.3-1.8 103.4 10.7 103.4 10.7s46.1 1.7 39.1-34.2c1.9-7.9.3-18.6-7.6-33.4z"/><path class="st1" d="M216.9 140.1s61.8 2.4 31.5-54.1-96.3-25-96.3-25-20.2 10.1-61.2 3-54.7 40.4-39.8 51.1 35.1 16 62.4 14.3c27.3-1.8 103.4 10.7 103.4 10.7z"/><path class="st2" d="M216.9 139.8s-76.1-12.5-103.4-10.7c-27.3 1.8-47.5-3.6-62.4-14.3-2.4-1.8-4.1-4.5-5-7.8-2 9.1-.3 17.7 5 21.6 14.9 10.7 35.1 16 62.4 14.3 27.3-1.8 103.4 10.7 103.4 10.7s46.3 1.8 39.1-34.4c-5.6 21.9-39.1 20.6-39.1 20.6z"/><path class="st3" d="M104.5 75.9s-24.2-13.1-42.4 2-11.1 45.2 26.6 42.8 42 1.6 43.2-4c1.1-5.5-27.4-40.8-27.4-40.8zM216.6 130.3s34.1 8.2 34.9-23.3-33.3-19.6-33.3-19.6-9.9 11.1-18.6 11.9-24.6 2.4-17.4 14.7c7.1 12.3 34.4 16.3 34.4 16.3zM231.3 77.1s-6.3-26.1-61-14.3 5.2 7.5 13.1 12.7c7.9 5.2 30.1 15.1 47.9 1.6zM136.6 114.8s8.3 7.9 19.8 8.3c11.5.4 21.4 2.8 24 0 2.6-2.8-29.4-27.3-29.4-27.3s-35.4-22.2-38.6-21c-3.1 1.1 24.2 40 24.2 40zM192.5 87.8s-11.1-9.9-25-10.3c-13.9-.4-19.8-5.8-23.8-5.7s-15.5 3.8 0 12.1 19.1 13.5 30.9 15.7c11.8 2.1 27.8-8.2 17.9-11.8z"/><path class="st4" d="M249.7 117.3c-13.8-13.8-36.2-13.8-49.9 0-13.8 13.8-13.8 36.2 0 49.9 13.8 13.8 36.2 13.8 49.9 0 13.8-13.7 13.8-36.1 0-49.9zm-6.3 43.7c-5 5-11.7 7.8-18.7 7.8S211 166 206 161s-7.8-11.7-7.8-18.7c0-7.1 2.8-13.7 7.8-18.7s11.7-7.8 18.7-7.8 13.7 2.8 18.7 7.8 7.8 11.7 7.8 18.7c0 7.1-2.8 13.7-7.8 18.7z"/><path class="st5" d="M246.523 170.42l6.222-6.22 24.96 24.96-6.222 6.222z"/><path class="st4" d="M251.748 181.87l12.516-12.517 33.304 33.305-12.515 12.515z"/><path class="st6" d="M217.4 155.8c-1.7 1.7-4.5 1.7-6.2 0-3.6-3.6-5.6-8.4-5.6-13.5s2-9.9 5.6-13.5c1.7-1.7 4.5-1.7 6.2 0 1.7 1.7 1.7 4.5 0 6.2-1.9 1.9-3 4.5-3 7.3s1.1 5.3 3 7.3c1.7 1.7 1.7 4.5 0 6.2z"/></g></svg>