<svg xmlns="http://www.w3.org/2000/svg" viewBox="0 0 296 224"><style>.st0{fill:#519E38;} .st1{fill:#CA655F;} .st2{fill:#FEBEBD;} .st3{fill:#B75856;} .st4{fill:#EFA8A8;} .st5{fill:#EFEFEF;} .st6{fill:#DDDDDD;} .st7{fill:#FFFFFF;}</style><g id="ticks"><path class="st0" d="M275.1 111.1h-17.6c1.6-18.2-9.6-35.3-27-41-2.2-1.6-4.6-3.2-7.2-4.7-.3-.2-.6-.3-.9-.3-1.2-.2-2.5.3-3.2 1.4-.3.5-.4 1-.4 1.5-2.5-.1-5 .1-7.4.5-.8-.5-1.6-1.1-2.5-1.6-.3-.2-.7-.3-1-.4-1.2-.2-2.4.3-3.1 1.3-.4.6-.5 1.2-.5 1.8-.3-.6-.9-1.1-1.6-1.3-.2-.1-.6-.2-1.4-.5-.4-2.5-1.1-5-2-7.4.7-.3 1.3-.8 1.6-1.6.6-1.5-.1-3.3-1.6-3.9-.1-.1-1.3-.5-3.3-1.2-1.6-2.6-3.5-5.1-5.6-7.3.2-.2.4-.4.5-.7.7-1.5.1-3.3-1.4-4-.2-.1-4.1-2-10.2-3.2-1.2-.6-2.4-1.1-3.6-1.5-19-6.9-39.9 1.7-48.8 19.4-1.9 2-3.8 4.1-5.7 6.4-.2.3-.4.5-.5.8-.4 1.2-.1 2.5 1 3.4.4.4 1 .5 1.5.6-.1.3-.1.6-.2.9-1.6-.8-3.3-1.6-5-2.2-.2-.8-.2-1.3-.2-1.4-.2-1.6-1.7-2.8-3.3-2.6-1.3.2-2.3 1.1-2.6 2.3-2.3-.4-4.7-.6-7.1-.6-1.2 0-2.4.1-3.6.2-.3-.7-.4-1.1-.5-1.2-.6-1.6-2.3-2.4-3.8-1.8-1.6.6-2.4 2.3-1.8 3.8 0 0 0 .1.1.2-1.4.3-2.7.8-4 1.2-.4-1.1-1.5-1.9-2.8-1.9-1.7 0-3 1.3-3 3 0 .2 0 .7.1 1.5-2.2 1.3-4.3 2.7-6.3 4.4-.5-.6-1.2-.9-2-1-1.6-.1-3.1 1.2-3.2 2.8 0 .2-.1 1.4 0 3.5-1.9 2.4-3.6 5-4.9 7.8-.3-.1-.5-.2-.9-.2-1.6-.2-3.1 1-3.3 2.7 0 .3-.5 4.5.5 10.7-.1 1.3-.2 2.6-.2 3.9 0 2.5.2 4.9.7 7.2H50.1c-2.4 0-4.3 2-4.3 4.3 0 2.4 2 4.3 4.3 4.3h1.2c16.1 45.9 59.8 78.8 111.2 78.8s95.1-32.9 111.2-78.8h1.3c2.4 0 4.3-2 4.3-4.3.2-2-1.8-4-4.2-4zm-128.8 0l-.3-.6c.4.2.9.4 1.3.6h-1z"/><circle class="st1" cx="92.1" cy="99.2" r="39.6"/><path class="st2" d="M96.2 141.8c-.3 0-.6-.1-1-.2-24.5-8.2-34.9-23.3-39.3-34.4-4.8-12.1-3.8-22.3-3.8-22.7.2-1.6 1.7-2.8 3.3-2.7 1.6.2 2.8 1.7 2.7 3.3-.2 1.5-3.3 36.5 39 50.8 1.6.5 2.4 2.2 1.9 3.8-.4 1.3-1.6 2.1-2.8 2.1z"/><path class="st2" d="M110 137.5c-.4 0-.7-.1-1.1-.2-26-10-37.6-27.5-42.8-40.4-5.6-14-5-25.6-5-26 .1-1.7 1.5-2.9 3.2-2.8 1.7.1 2.9 1.5 2.8 3.2 0 .1-.5 10.9 4.7 23.7 6.9 17 20.1 29.4 39.3 36.8 1.5.6 2.3 2.3 1.7 3.9-.4 1.1-1.5 1.8-2.8 1.8z"/><path class="st2" d="M118.5 131.7c-.5 0-1.1-.1-1.5-.4-43.9-26.4-44.4-66.4-44.4-68.1 0-1.7 1.3-3 3-3s3 1.3 3 3c0 .5.7 38.4 41.5 63 1.4.9 1.9 2.7 1 4.1-.6.9-1.6 1.4-2.6 1.4z"/><path class="st2" d="M126.6 121.6c-.5 0-.9-.1-1.4-.3C99.7 108.1 83 62.6 82.3 60.7c-.6-1.6.2-3.3 1.8-3.8 1.6-.6 3.3.2 3.8 1.8.2.5 16.6 45.2 40 57.3 1.5.8 2.1 2.6 1.3 4-.4 1-1.5 1.6-2.6 1.6z"/><path class="st2" d="M130.8 110.7c-.7 0-1.4-.2-1.9-.7-26.2-22.4-29.6-47.6-29.7-48.7-.2-1.6 1-3.1 2.6-3.3 1.6-.2 3.1 1 3.3 2.6 0 .2 3.3 24.1 27.7 44.9 1.3 1.1 1.4 3 .3 4.2-.6.6-1.5 1-2.3 1z"/><path class="st2" d="M130.8 93.8c-.4 0-.7-.1-1.1-.2-4.7-1.9-9.1-6.8-12.9-14.7-2.7-5.6-4.2-10.6-4.3-10.8-.5-1.6.5-3.3 2-3.7 1.6-.5 3.3.5 3.7 2 1.5 5.1 6.9 19 13.6 21.6 1.5.6 2.3 2.3 1.7 3.9-.4 1.2-1.5 1.9-2.7 1.9z"/><g><circle class="st3" cx="149.5" cy="69.8" r="39.6"/><path class="st4" d="M108.1 59.2c.1-.3.3-.6.5-.8 16.1-20.2 33.7-24.9 45.7-25.3 13-.4 22.2 4 22.6 4.2 1.5.7 2.1 2.5 1.4 4-.7 1.5-2.5 2.1-4 1.4-1.4-.7-33.2-15.5-61 19.5-1 1.3-2.9 1.5-4.2.5-1.1-1-1.5-2.3-1-3.5z"/><path class="st4" d="M107.4 73.7c.1-.3.3-.7.6-.9 18.2-21.1 38.6-26.1 52.5-26.5 15.1-.5 25.7 4 26.2 4.2 1.5.6 2.2 2.4 1.6 3.9-.6 1.5-2.4 2.2-3.9 1.6-.1 0-10.1-4.2-23.9-3.7-18.4.7-34.5 8.9-47.9 24.5-1.1 1.3-3 1.4-4.2.3-1.1-1-1.4-2.3-1-3.4z"/><path class="st4" d="M110 83.6c.2-.5.5-1 .9-1.3C150.7 50 188.4 63.1 190 63.7c1.6.6 2.4 2.3 1.8 3.8-.6 1.6-2.3 2.4-3.8 1.8-.5-.2-36.3-12.4-73.3 17.6-1.3 1-3.2.8-4.2-.4-.7-.8-.8-1.9-.5-2.9z"/><path class="st4" d="M116.8 94.7c.2-.4.4-.8.8-1.2 21.1-19.6 69.5-19.8 71.6-19.8 1.7 0 3 1.3 3 3s-1.3 3-3 3c-.5 0-48.2.2-67.5 18.2-1.2 1.1-3.1 1.1-4.2-.2-.9-.8-1.1-2-.7-3z"/><path class="st4" d="M125.6 102.3c.2-.6.7-1.2 1.3-1.6 30-17.1 54.9-11.7 55.9-11.4 1.6.4 2.6 2 2.3 3.6-.4 1.6-2 2.6-3.6 2.3-.2-.1-23.7-5-51.6 10.8-1.4.8-3.3.3-4.1-1.1-.4-.9-.4-1.8-.2-2.6z"/><path class="st4" d="M141.5 108c.1-.3.3-.7.6-1 3.4-3.8 9.5-6.2 18.2-7.2 6.2-.7 11.4-.3 11.7-.3 1.7.1 2.9 1.5 2.8 3.2-.1 1.7-1.5 2.9-3.2 2.8-5.3-.3-20.2 0-25 5.5-1.1 1.2-3 1.4-4.2.3-1-.8-1.3-2.1-.9-3.3z"/></g><g><circle class="st1" cx="205.3" cy="103" r="39.6"/><path class="st2" d="M209.6 60.4l.9.3c22.4 12.9 29.6 29.7 31.8 41.5 2.3 12.8-.7 22.6-.8 23-.5 1.6-2.2 2.5-3.8 2-1.6-.5-2.5-2.2-2-3.8.5-1.5 10.4-35.2-28.3-57.5-1.4-.8-1.9-2.7-1.1-4.1.8-1.1 2.1-1.7 3.3-1.4z"/><path class="st2" d="M195.2 61.9c.3.1.7.2 1 .4 23.5 14.9 31.5 34.3 34 48 2.7 14.8-.1 26-.2 26.5-.4 1.6-2.1 2.5-3.7 2.1-1.6-.4-2.6-2.1-2.1-3.7 0-.1 2.7-10.6.1-24.2-3.4-18.1-13.9-32.8-31.3-43.8-1.4-.9-1.8-2.7-.9-4.1.6-1 1.9-1.5 3.1-1.2z"/><path class="st2" d="M185.7 65.9c.5.1 1 .3 1.4.7 37.8 34.6 30.4 73.9 30.1 75.5-.3 1.6-1.9 2.7-3.5 2.3-1.6-.3-2.7-1.9-2.3-3.5.1-.5 6.9-37.8-28.2-69.9-1.2-1.1-1.3-3-.2-4.2.7-.8 1.7-1.1 2.7-.9z"/><path class="st2" d="M175.8 74.3c.5.1.9.3 1.3.6 22.5 17.9 29.8 65.8 30.1 67.9.2 1.6-.9 3.2-2.5 3.4-1.6.2-3.2-.9-3.4-2.5-.1-.5-7.3-47.6-27.9-64.1-1.3-1-1.5-2.9-.5-4.2.7-1 1.8-1.4 2.9-1.1z"/><path class="st2" d="M169.6 84.1c.7.1 1.3.5 1.8 1.1 21.3 27.2 19.6 52.5 19.6 53.6-.1 1.7-1.6 2.9-3.2 2.8-1.6-.1-2.9-1.6-2.8-3.2 0-.2 1.5-24.2-18.3-49.5-1-1.3-.8-3.2.5-4.2.6-.6 1.5-.7 2.4-.6z"/><path class="st2" d="M166.2 100.7c.4.1.7.2 1 .4 4.3 2.8 7.6 8.5 9.8 17 1.6 6 2 11.3 2 11.5.1 1.7-1.1 3.1-2.7 3.2-1.7.1-3.1-1.1-3.2-2.7-.5-5.3-3-19.9-9.1-23.9-1.4-.9-1.8-2.8-.9-4.1.7-1.2 2-1.7 3.1-1.4z"/></g><path class="st5" d="M38.5 115.1c16.1 45.9 59.8 78.8 111.2 78.8S244.9 161 261 115.1H38.5z"/><path class="st6" d="M262.3 115.1h-225c-2.4 0-4.3-2-4.3-4.3 0-2.4 2-4.3 4.3-4.3h225c2.4 0 4.3 1.9 4.3 4.3.1 2.3-1.9 4.3-4.3 4.3z"/><path class="st7" d="M78.7 153.7c-1 0-2.1-.3-3-.8-13.6-7.9-19.9-22.6-20.2-23.2-1.3-3 .1-6.6 3.2-7.9 3-1.3 6.6.1 7.9 3.2.1.2 5.1 11.7 15.2 17.5 2.9 1.7 3.8 5.3 2.2 8.2-1.3 1.9-3.3 3-5.3 3z"/></g></svg>