<svg xmlns="http://www.w3.org/2000/svg" viewBox="0 0 252.3 203"><style>.st0{fill:#519E38;} .st1{fill:#D96F47;} .st2{fill:#FCDAD0;}</style><g id="ticks"><path class="st0" d="M197.8 36.2c-36-.4-58.8 15.8-71.6 29.4-9.1 9.6-14.4 19.2-17.2 25-3.4 4.6-3.7 11-.4 16.1 4.3 6.6 13.1 8.4 19.6 4.2 2.2-1.4 3.9-3.3 5-5.5h.1v.1c.6-1.7 15.8-41.6 64.3-41.1 2.9 0 5.6-.8 7.8-2.3 3.8-2.5 6.4-6.8 6.4-11.7 0-7.8-6.2-14.2-14-14.2zM205.6 77.7c-34.6 9.8-51.9 31.8-60.3 48.5-6 11.8-8.4 22.5-9.4 28.9-1.9 5.4-.4 11.6 4.2 15.5 6 5.1 14.9 4.4 20-1.6 1.7-2 2.7-4.3 3.2-6.7h.1v.1c.1-1.8 3.3-44.4 50-57.7 2.8-.8 5.1-2.3 6.8-4.4 3-3.5 4.2-8.3 2.8-13-2.1-7.4-9.9-11.7-17.4-9.6zM52.4 67.6c-6.6 35.3 5.3 60.6 16.5 75.7 7.9 10.6 16.4 17.6 21.7 21.3 4 4.1 10.2 5.6 15.8 3.2 7.2-3.1 10.6-11.4 7.5-18.6-1-2.4-2.6-4.4-4.6-5.8l.1-.1h.1c-1.6-.9-38.3-22.8-29.3-70.5.5-2.8.2-5.6-.9-8.1-1.8-4.2-5.6-7.4-10.4-8.3-7.7-1.5-15.1 3.5-16.5 11.2z"/><path class="st1" d="M190.2 32c-36-.4-58.8 15.8-71.6 29.4-9.1 9.6-14.4 19.2-17.2 25-3.4 4.6-3.7 11-.4 16.1 4.3 6.6 13.1 8.4 19.6 4.2 2.2-1.4 3.9-3.3 5-5.5h.1v.1c.6-1.7 15.8-41.6 64.3-41.1 2.9 0 5.6-.8 7.8-2.3 3.8-2.5 6.4-6.8 6.4-11.7 0-7.8-6.2-14.1-14-14.2z"/><path class="st2" d="M109.9 90.3c-.2 0-.4-.1-.6-.1-1.2-.4-1.9-1.8-1.4-3 2.9-8.3 9.1-16.9 18.4-25.6 6.9-6.4 12.8-10.4 13.1-10.5 1.1-.7 2.5-.4 3.3.7.7 1.1.4 2.5-.7 3.3-.2.2-23.3 15.6-29.6 33.7-.5.9-1.5 1.5-2.5 1.5z"/><circle class="st2" cx="107.7" cy="95.3" r="3"/><path class="st1" d="M203.8 70.4c-34.6 9.8-52 31.7-60.5 48.4-6 11.8-8.4 22.5-9.5 28.9-1.9 5.4-.5 11.6 4.1 15.5 5.9 5.1 14.9 4.4 20-1.5 1.7-2 2.8-4.3 3.2-6.7h.1v.1c.1-1.8 3.4-44.4 50.1-57.6 2.8-.8 5.1-2.3 6.9-4.4 3-3.5 4.2-8.3 2.9-13-2-7.4-9.8-11.8-17.3-9.7z"/><path class="st2" d="M143.2 149c-.2 0-.4.1-.6 0-1.3-.1-2.3-1.2-2.2-2.5.4-8.8 3.9-18.8 10.4-29.7 4.8-8.1 9.4-13.6 9.6-13.8.8-1 2.3-1.1 3.3-.3s1.1 2.3.3 3.3c-.2.2-18 21.5-18.9 40.7-.1 1.2-.9 2-1.9 2.3z"/><circle class="st2" cx="142.5" cy="154.4" r="3"/><path class="st1" d="M48.2 62.3c-9 34.8 1.2 60.9 11.3 76.6 7.2 11.1 15.2 18.6 20.2 22.7 3.7 4.4 9.8 6.2 15.5 4.3 7.4-2.6 11.3-10.6 8.8-18.1-.9-2.5-2.3-4.5-4.2-6.1l.1-.1h.1c-1.5-1-36.6-25.3-24.5-72.3.7-2.8.6-5.6-.3-8.1-1.5-4.3-5-7.8-9.8-9-7.6-2-15.3 2.5-17.2 10.1z"/><path class="st2" d="M85.4 154.2l-.3.6c-.7 1.1-2.2 1.4-3.2.7-7.4-4.8-14.2-12.9-20.4-24-4.6-8.2-7-15-7.1-15.2-.4-1.2.2-2.6 1.4-3 1.2-.4 2.6.2 3 1.4.1.3 9.5 26.4 25.6 36.8 1 .6 1.4 1.7 1 2.7z"/><circle class="st2" cx="89.9" cy="157.5" r="3"/></g></svg>