<svg id="Layer_1" xmlns="http://www.w3.org/2000/svg" viewBox="0 0 130 250"><style>.st0{fill:#519E38;} .st1{fill:#F4F4F4;} .st2{fill:#D6D6D6;} .st3{fill:#EAEAEA;} .st4{fill:#FFFFFF;} .st5{fill:#00AA55;} .st6{fill:#62BA47;} .st7{fill:#63B746;}</style><path class="st0" d="M105.7 215v-99.6L91.1 67c3.9-21.7-6.5-28.2-6.5-28.2V31h2.2V19.8l-3.9-2.5H53s-3.9-.3-3.9 2.5V31h2.3v7.8h-.1S40.9 45.3 44.8 67c0 0-14.6 13.4-14.6 48.4V215s-1.5 21.4 14.3 21.4H91.4c15.8 0 14.3-21.4 14.3-21.4z"/><path class="st1" d="M98.1 210v-99.6L83.5 62C87.4 40.3 77 33.8 77 33.8v-8H44v8h-.1S33.5 40.3 37.4 62c0 0-14.6 13.4-14.6 48.4V210s-1.5 21.4 14.3 21.4h46.7c15.8 0 14.3-21.4 14.3-21.4z"/><path class="st2" d="M75.3 12.2H45.5s-3.9-.3-3.9 2.5v11.2h37.5V14.7l-3.8-2.5z"/><path class="st3" d="M98 210v-99.6L83.4 62c3.9-21.7-6.5-28.2-6.5-28.2v-8H60.3v205.6H83.7C99.5 231.4 98 210 98 210z"/><path class="st4" d="M35 98.9h-.5c-2.3-.3-3.9-2.4-3.6-4.7 1.9-14.4 8.8-23.1 9.1-23.5 1.4-1.8 4.1-2.1 5.9-.6 1.8 1.4 2.1 4.1.6 5.8-.1.1-5.8 7.4-7.4 19.3-.2 2.1-2 3.7-4.1 3.7z"/><g><circle class="st5" cx="60.4" cy="145.6" r="19.4"/><circle class="st6" cx="44.9" cy="162.8" r="6.1"/><path class="st5" d="M51.2 121.8c0 1.4-1.1 2.5-2.5 2.5s-2.5-1.1-2.5-2.5 1.1-2.5 2.5-2.5 2.5 1.1 2.5 2.5z"/><path class="st6" d="M51.3 130.2c0 1.8-1.4 3.2-3.2 3.2-1.8 0-3.2-1.4-3.2-3.2s1.4-3.2 3.2-3.2 3.2 1.4 3.2 3.2zM42.8 125.3c0 1-.8 1.9-1.9 1.9s-1.9-.8-1.9-1.9c0-1.1.8-1.9 1.9-1.9 1 0 1.9.8 1.9 1.9z"/><circle class="st6" cx="77" cy="127.9" r="10.7"/><path class="st4" d="M74.3 126.3c-.9.1-1.1 1.2-1.2 1.9v.3c0 .3 0 .6-.1.9 0 .1-.1.4-.1.4-.3 0-.6-.4-.7-.7-.2-.5-.4-1.1-.5-1.7-.1-.6-.2-1.3-.2-1.9v-.8-.3-.2c.1-.5-.6 0-.7.2-.7 1.2-.5 2.7-.5 4.1 0 .4 0 .7-.1 1.1 0 .2-.1.7-.3.9-.1.1-.4 0-.5 0-.2-.1-.3-.3-.3-.5s-.3-.1-.4 0c-.2.2-.3.4-.3.6.1.5.5.9 1 .8.8-.2 1.1-1.2 1.3-1.9.1-.4.1-.7.2-1.1.1.5.3 1.1.5 1.5s.5.7.9.6c.3-.1.6-.4.7-.8.2.4.4.6.8.6s.8-.5 1-.9.3-.9.2-1.4c.4-.4.2-1.8-.7-1.7zm.3 3.1c0 .1 0 .2-.1.3-.2 0-.3-.3-.4-.4-.1-.3-.2-.6-.2-.9v-1c0-.1 0-.2.1-.3.4.3.5.8.6 1.3.1.3.1.7 0 1zM84.9 127.6c-1-.4-1.5.9-1.7 1.7-.2.7-.4 1.9.5 2.2.4.2.9-.1 1.1-.4.3-.3.5-.8.6-1.2.2-.7.4-2-.5-2.3zm-.5 3.1c0 .1-.1.2-.1.2-.1-.1-.2-.4-.2-.5-.1-.3 0-.7 0-1 .1-.3.2-.7.3-.9 0-.1.1-.1.1-.2.4.4.3 1 .2 1.5-.1.2-.2.6-.3.9zM82.4 127.8c.2-.2.3-.5.5-.7.4-.5.7-1.2.7-1.8s-.9-.7-1.3-.4c-.6.3-1 .9-1.1 1.6-.2.8-.4 1.7-.4 2.5-.3.4-.9 1.1-1.4.8-.1-.1-.2-.2-.2-.4.4-.4.7-.8 1.1-1.3.3-.4.5-1.2-.1-1.5-.5-.3-1.1 0-1.4.4-.3.4-.5.9-.5 1.4 0 .3-.1.7 0 1.1-.3.2-.6.3-1 .2s-.5-.5-.6-.8c-.1-.4-.1-.9 0-1.4 0-.1.1-.3.1-.4v-.1c.2.1.3.4.4.6.1.3.9-.2.8-.5s-.2-.6-.6-.8c-.3-.2-.8.1-1 .3-.6.6-.6 1.4-.6 2.2 0 .5.1 1.1.6 1.4.6.4 1.4 0 1.9-.3.1.4.4.6.9.6.6-.1 1.1-.4 1.5-.8 0 .4.1.9.4 1.1.5.3 1.1 0 1.5-.5.4-.6.7-1.3.4-2-.1-.4-.4-.5-.6-.5zm-3.3-.4c0-.1.1-.2.1-.3.2.1.3.4.2.5 0 .4-.3.7-.6 1v-.2c.2-.3.2-.7.3-1zm3.1-1.8c.1-.1.1-.2.2-.4.4.4 0 1-.2 1.4s-.4.8-.7 1.1c.1-.4.1-.7.2-1.1.2-.3.3-.6.5-1zM82 130s-.1.1-.1.2h-.1c-.2-.1-.3-.6-.3-.8v-.5l.3-.3c.2-.1.4.1.4.3.1.3 0 .8-.2 1.1z"/><g><path class="st4" d="M42 162.5c.2-.2.4-.5.6-.8.1-.1.2-.2.3-.4.1-.1.1-.1 0 0v.6c0 1.1 0 2.1-.1 3.2 0 .4.7-.1.7-.4.1-.7.1-1.4.1-2.1 0-.3.2-1.9-.1-2-.7-.2-1.4 1.4-1.8 1.8-.6.4 0 .4.3.1zM47.4 161.1c-.7 1.2-1.7 2.4-2.5 3.5-.4.5.2.5.5.1.9-1.2 1.9-2.4 2.7-3.7.2-.5-.5-.2-.7.1zM46.1 160.8c-.5 0-.8.4-.9.9-.1.4.2.7.6.7.8 0 1.3-1.6.3-1.6-.2 0-.6.5-.3.5.2 0 .3.2.4.4v.2c0 .1 0 0 0 0h-.1c-.2 0-.3-.2-.4-.4v-.3h.1c.2 0 .5-.5.3-.4zM47.3 163.4c-.5 0-.8.4-.9.9-.1.4.2.7.6.7.9 0 1.3-1.6.3-1.6-.2 0-.6.5-.3.5.2 0 .3.2.4.4v.2c0 .1 0 0 0 0h-.1c-.2 0-.3-.2-.4-.4v-.3h.1c.3.1.6-.4.3-.4z"/></g><g><path class="st4" d="M75.8 148.2c.2-1 .3-2.3-.5-3.2-.4-.5-1.2-.4-1.7-.3 0-.4.1-.8.1-1.3 0-.4-.7-.3-.9-.2-.3.1-.7.4-.7.7 0 1.4-.2 2.9-.4 4.3-.1.4-.3 1.1-.7 1.3-.4.2-.6-1.2-.6-1.4 0-1.4.3-2.9.6-4.3.1-.3-.4-.4-.6-.3-.4.1-.8.3-.9.7-.2 1.1-.4 2.2-.7 3.3-.1.5-.3.9-.5 1.4v.1c-.1 0-.2-.1-.3-.1-.7-.4-.6-1.9-.5-2.4.1-.9.3-1.9.7-2.7.1-.3 0-.5-.4-.5-.2 0-.4.1-.6.2-.1.1-.4.2-.4.2-.1 0-.2.1-.3.1-.8.3-1.4-.1-1.8-.7-.1-.2-.3-.3-.4-.4-.6-.3-1.2-.1-1.8.1 0-.4-.1-.8-.1-1.3-.1-.3-.7-.1-.9 0-.3.2-.6.5-.6.8-.4 0-.9.3-1.1.5-.9.7-1.2 1.9-1.2 3-.1 1-.7 2.5-1.8 2.4-.2 0-.5-.4-.6-.6.4-.5.7-1.1 1-1.6.6-.9 1-2.3.3-3.2-.5-.6-1.7-.1-2.2.4-.7.7-.9 1.6-.9 2.4 0 .6 0 1.6.3 2.5-.2.2-.4.6-.7.4-.2-.1-.3-.4-.4-.7-.3-.8-.3-1.6-.6-2.4-.5-1.1-1.6-1.1-2.7-.6-.1-1-.2-2 .3-2.9.5-1.1 1.7-.7 2.4-.2.5.3 1.7-1 1.2-1.3-.7-.5-1.5-.9-2.5-.5-.8.3-1.5.9-1.9 1.6-.1.1-.2.2-.2.4-.2-.7-.5-1.4-.8-2.1-.1-.3-.6 0-.7.1-1.5 1-4 3.2-3 5.2.2.5 1.4-.9 1.2-1.4-.4-.8.5-1.7 1.3-2.4.6 1.7 1.1 3.4 1.5 5.1.2 1.1.4 2.3-.1 3.2-.5 1-1.8.4-2-.4-.1-.7-1.2.7-1.1 1.1.1.6.4 1 1 1.3.5.2 1.1-.1 1.6-.4 1.2-.8 1.9-2.1 2-3.5.1-.6 0-1.1 0-1.7.4-.1.8-.1 1 .3.6.6.6 1.7.8 2.5.2.6.4 1.3 1.2 1.2.6-.1 1.1-.5 1.5-1 .3.3.6.6 1 .6.8.1 1.7-.6 2.2-1l.6-.6c.1.4.3.7.6 1 .3.3.8.4 1.2.4.2 0 .4-.1.5-.1-.1 1.3-.1 2.7-.3 4 0 .4.4.3.6.2.3-.2.6-.5.7-.8.1-1.1.2-2.1.3-3.2.5 0 1.1-.2 1.5-.5 1-.8 1.3-2.1 1.3-3.3v-.7c.4 0 .9-.1 1.3-.2-.3.8-.4 1.7-.5 2.6 0 .9 0 2.3 1.2 2.6.8.2 1.4-.1 1.9-.5 0 .2.1.3.2.5.4 1 1.4.7 2.1.4-.3 1.4-.6 2.9-1 4.3-.1.3.3.4.5.3.3-.1.7-.3.8-.6.3-1 .6-2.1.8-3.1.5.1 1 .1 1.5-.1 1.1-.7 1.6-1.9 1.8-3zm-20.3-2.7c0-.5 0-1.1.2-1.6.1 0 .2 0 .3.1.7.4.2 1.5 0 2l-.3.6c-.1-.4-.2-.8-.2-1.1zm5.5 2.6c-.1 0-.2 0-.2-.1-.2-.1-.4-.4-.5-.6-.3-.7-.4-1.4-.4-2.1 0-.6.1-1.2.4-1.8l.1.1c.5.3.7 1 .8 1.5-.1 1-.1 2-.2 3 .1 0 0 0 0 0zm2.3 0s0 .1 0 0c0 .1 0 .1 0 0-.6.1-.9-.3-.9-.7 0-1 .1-2 0-3 0-.5.1-.7.1-.7.1 0 .4.1.5.3.5.6.5 1.4.6 2 .1.7.1 1.5-.3 2.1zm10.3 2.1c0 .1 0 .1 0 0 0 .1 0 .1 0 0-.6 0-.8-.6-.7-1 0 0 .4-1.8.5-2.8 0-.1.2-.6.3-.8.2 0 .3.2.4.4.3.7.3 1.5.2 2.2 0 .7-.2 1.5-.7 2z"/></g><g><path class="st7" d="M36.9 137.4c-.1 0-.2-.2-.3-.2-.4-.1-.7.1-1.1.1-.9 0-1.3 0-2.4-.3 0-1 .5-1.5.8-2.3.2-.7-.1-1.4-.1-2.2v-1.4c-.3.3-.2 1.2-.2 1.6-.1-.6-.1-1.3-.3-1.8-.1.5 0 1.3 0 1.8-.2-.5-.2-1.1-.4-1.6-.3.5.2 1.3.1 1.8-.2-.5-.3-1-.5-1.4-.1.6.2 1.1.2 1.6-.2-.4-.3-.8-.6-1.1 0 .4.3.9.4 1.3-.3-.1-.3-.4-.6-.6 0 .3.3.5.4.7-.2-.1-.3-.3-.5-.4 0 .3.3.4.3.6-.1-.1-.2-.2-.4-.3 0 .2.3.4.3.5 0 0-.2-.1-.2 0 0 0 .2.1.1.2h-.2c0 .2.2.1.1.3-.1 0-.1-.1-.1 0s.1.1.1.2c-.8.8-.4 1.7-.4 2.7.1-.1-.7-.3-1.2-.5-.3-.1-.4-.5-.6-.6 0-.1.1 0 .1-.1-.1 0-.2-.1-.2-.2.1 0 .3.1.3 0-.1-.1-.5-.2-.4-.3.2 0 .4.1.5.1-.2-.1-.6-.3-.6-.5.2.1.5.3.7.2-.3-.2-.8-.4-.9-.7.2.1.6.4.8.4-.4-.1-.7-.6-1.1-.6.2.4.8.6.9.8-.3-.2-.6-.3-.9-.5.1.4.6.5.8.7-.3 0-.5-.2-.8-.2.1.3.6.2.7.5-.1-.1-.3 0-.5 0 0 .2.3.2.5.3-.2 0-.3 0-.4.1.1.1.3.1.4.2-.1 0-.2 0-.2.1s.2 0 .3.1c-.1 0-.1.1-.1.1h.2c-.1 0-.1 0-.1.1.4.2.7.9 1.2 1.1-.3.2.3.4-3.4 1.7.1 0 1.6-.4 2.1-.5.5-.2.9-.3 1.4-.4.1 0 .2-.1.3-.1.8-.1 1.5.1 2.2-.4-.6.1-1.6.2-2-.1.5-.8.2-2.8.5-3.2.4-.4 1-1.7 1.8-.6.1.2.1.4-.1.9-.3.6-.6.8-.5 2 0 .2 0 .5-.4.5 1.6.3 2.1.2 3 0 .3 0 .8-.3.8 0 0 .1-.3.1-.6.1-.4 0 .2.2.4.1.1 0 1-.1 1.4-.2-.4-.1-.6-.1-.8-.2z"/><path class="st7" d="M32.1 129.1c-3.7 0-6.7 3-6.7 6.7s3 6.7 6.7 6.7 6.7-3 6.7-6.7-3-6.7-6.7-6.7m0 .2c3.6 0 6.5 2.9 6.5 6.5s-2.9 6.5-6.5 6.5-6.5-2.9-6.5-6.5 2.9-6.5 6.5-6.5"/></g></g></svg>