<?xml version="1.0" encoding="utf-8"?>
<!-- Generator: Adobe Illustrator 19.0.0, SVG Export Plug-In . SVG Version: 6.00 Build 0)  -->
<svg version="1.1" id="Layer_1" xmlns="http://www.w3.org/2000/svg" xmlns:xlink="http://www.w3.org/1999/xlink" x="0px" y="0px"
	 viewBox="-195 306.4 204.1 229.5" style="enable-background:new -195 306.4 204.1 229.5;" xml:space="preserve">
<style type="text/css">
	.st0{fill:#2D2D2D;}
	.st1{fill:#4D4C4B;}
	.st2{fill:#231F20;}
	.st3{fill:#FEBEBD;}
	.st4{fill:#E29A9A;}
	.st5{fill:#FFFFFF;}
	.st6{fill:#F9DDC5;}
	.st7{fill:#EC145A;}
	.st8{fill:#62BA47;}
</style>
<g id="Layer_2">
</g>
<g id="kolba_4">
</g>
<g id="kolba_3">
</g>
<g id="kolby">
</g>
<g id="doma">
</g>
<g id="butylka_3">
</g>
<g id="butylka_2">
</g>
<g id="butylka_1">
</g>
<g id="vanna_2">
</g>
<g id="sneg">
</g>
<g id="vanna_1">
</g>
<g id="shariki_2">
</g>
<g id="shariki_1">
</g>
<g id="voronka">
</g>
<g id="gradusnik">
</g>
<g id="kolba_2">
</g>
<g id="kolba_1">
</g>
<g id="probirki">
</g>
<g id="zavod">
</g>
<g id="blank">
</g>
<g id="ticks">
</g>
<g id="car">
</g>
<path class="st0" d="M-32.4,504.5h-117.4c-4.3,0-7.9-3.5-7.9-7.9V345.4c0-4.3,3.5-7.9,7.9-7.9h117.4c4.3,0,7.9,3.5,7.9,7.9v151.1
	C-24.5,500.9-28.1,504.5-32.4,504.5z"/>
<path class="st1" d="M-35.5,337.6c6,0,11,4.9,11,11v144.9c0,6-4.9,11-11,11h-111.2c-6,0-11-4.9-11-11v-145c0-6,4.9-11,11-11h111.2
	 M-35.5,331.2h-111.2c-9.6,0-17.4,7.8-17.4,17.4v144.9c0,9.6,7.8,17.4,17.4,17.4h111.2c9.6,0,17.4-7.8,17.4-17.4v-145
	C-18.1,339-25.9,331.2-35.5,331.2L-35.5,331.2z"/>
<g>
	<g>
		<circle class="st2" cx="-128.7" cy="372.1" r="12.7"/>
		<path class="st2" d="M-128.7,388.9c-0.3,0-0.5,0-0.8,0c-1,0-2-0.5-2.7-1.2c-0.9,0.3-2,0.3-2.9-0.1c-0.3-0.1-0.5-0.2-0.8-0.3
			c-0.9-0.4-1.6-1.2-2-2.1c-1-0.1-1.9-0.5-2.7-1.2c-0.2-0.2-0.4-0.4-0.6-0.6c-0.7-0.8-1.1-1.7-1.1-2.7c-0.9-0.4-1.6-1.2-2-2.1
			c-0.1-0.3-0.2-0.5-0.3-0.8c-0.4-1-0.3-2,0-2.9c-0.6-0.7-1-1.6-1-2.7c0,0,0-0.1,0-0.1c0-0.3,0-0.5,0-0.8c0-1,0.5-2,1.2-2.7
			c-0.3-0.9-0.3-2,0.1-2.9c0.1-0.3,0.2-0.5,0.3-0.8c0.4-1,1.2-1.7,2.1-2c0.1-1,0.5-1.9,1.2-2.7c0.2-0.2,0.4-0.4,0.6-0.6
			c0.8-0.7,1.7-1.1,2.7-1.1c0.4-0.9,1.2-1.6,2.1-2c0.3-0.1,0.5-0.2,0.8-0.3c1-0.4,2-0.3,2.9,0c0.7-0.6,1.7-1,2.7-1h0
			c0.3,0,0.5,0,0.8,0c1,0,2,0.5,2.7,1.2c0.9-0.3,2-0.3,2.9,0.1c0.3,0.1,0.5,0.2,0.8,0.3c1,0.4,1.7,1.2,2,2.1c1,0.1,1.9,0.5,2.7,1.2
			c0.2,0.2,0.4,0.4,0.6,0.6c0.7,0.8,1.1,1.7,1.1,2.7c0.9,0.4,1.6,1.2,2,2.1c0.1,0.3,0.2,0.5,0.3,0.8c0.4,1,0.3,2,0,2.9
			c0.6,0.7,1,1.7,1,2.7c0,0,0,0,0,0.1c0,0.3,0,0.5,0,0.8c-0.1,1-0.5,2-1.2,2.7c0.3,0.9,0.3,2-0.1,2.9c-0.1,0.3-0.2,0.5-0.3,0.8
			c-0.4,0.9-1.2,1.6-2.1,2c-0.1,1-0.5,1.9-1.2,2.7c-0.2,0.2-0.4,0.4-0.6,0.6c-0.8,0.7-1.7,1.1-2.7,1.1c-0.4,0.9-1.2,1.6-2.1,2
			c-0.2,0.1-0.5,0.2-0.8,0.3c-1,0.4-2,0.3-2.9,0c-0.7,0.6-1.6,1-2.6,1C-128.7,388.9-128.7,388.9-128.7,388.9z M-128.7,380.6
			c0.5,0,1.1,0.1,1.5,0.3c0.4-0.3,0.8-0.6,1.3-0.8c0.1,0,0.3-0.1,0.4-0.2c0.5-0.2,1-0.3,1.5-0.3c0.2-0.5,0.5-0.9,0.9-1.2
			c0.1-0.1,0.2-0.2,0.3-0.3c0.4-0.4,0.8-0.7,1.3-0.9c0-0.5,0.2-1,0.4-1.5c0.1-0.1,0.1-0.2,0.2-0.4c0.2-0.5,0.5-0.9,0.8-1.3
			c-0.2-0.5-0.2-1-0.2-1.5c0-0.1,0-0.3,0-0.4c0,0,0-0.1,0-0.1c0-0.5,0.1-1,0.3-1.5c-0.3-0.4-0.6-0.8-0.8-1.3c0-0.1-0.1-0.3-0.1-0.4
			c-0.2-0.5-0.3-1-0.3-1.5c-0.5-0.2-0.9-0.5-1.2-0.9c-0.1-0.1-0.2-0.2-0.3-0.3c-0.4-0.4-0.7-0.8-0.9-1.3c-0.5,0-1-0.2-1.5-0.4
			c-0.1-0.1-0.3-0.1-0.4-0.2c-0.5-0.2-0.9-0.5-1.3-0.8c-0.5,0.2-1,0.2-1.5,0.2c-0.1,0-0.3,0-0.4,0c-0.5,0-1.1-0.1-1.5-0.3
			c-0.4,0.3-0.8,0.6-1.3,0.8c-0.1,0-0.3,0.1-0.4,0.2c-0.5,0.2-1,0.3-1.5,0.3c-0.2,0.5-0.5,0.9-0.9,1.2c-0.1,0.1-0.2,0.2-0.3,0.3
			c-0.4,0.4-0.8,0.7-1.3,0.9c0,0.5-0.2,1-0.4,1.5c-0.1,0.1-0.1,0.3-0.2,0.4c-0.2,0.5-0.5,0.9-0.8,1.3c0.2,0.5,0.2,1,0.2,1.5
			c0,0.1,0,0.2,0,0.4c0,0,0,0,0,0.1c0,0.5-0.1,1-0.3,1.5c0.3,0.4,0.6,0.8,0.8,1.3c0,0.1,0.1,0.3,0.1,0.4c0.2,0.5,0.3,1,0.3,1.5
			c0.5,0.2,0.9,0.5,1.2,0.9c0.1,0.1,0.2,0.2,0.3,0.3c0.4,0.4,0.7,0.8,0.9,1.3c0.5,0,1,0.2,1.5,0.4c0.1,0.1,0.2,0.1,0.4,0.2
			c0.5,0.2,0.9,0.5,1.3,0.8c0.5-0.2,1-0.2,1.5-0.2C-129,380.6-128.9,380.6-128.7,380.6z"/>
	</g>
	<g>
		<circle class="st3" cx="-131.1" cy="369.3" r="12.7"/>
		<path class="st3" d="M-131.1,386.1c-0.3,0-0.5,0-0.8,0c-1,0-2-0.5-2.7-1.2c-0.9,0.3-2,0.3-2.9-0.1c-0.3-0.1-0.5-0.2-0.8-0.3
			c-0.9-0.4-1.6-1.2-2-2.1c-1-0.1-1.9-0.5-2.7-1.2c-0.2-0.2-0.4-0.4-0.6-0.6c-0.7-0.8-1.1-1.7-1.1-2.7c-0.9-0.4-1.6-1.2-2-2.1
			c-0.1-0.3-0.2-0.5-0.3-0.8c-0.4-1-0.3-2,0-2.9c-0.6-0.7-1-1.6-1-2.7c0,0,0-0.1,0-0.1c0-0.3,0-0.5,0-0.8c0-1,0.5-2,1.2-2.7
			c-0.3-0.9-0.3-2,0.1-2.9c0.1-0.3,0.2-0.5,0.3-0.8c0.4-1,1.2-1.7,2.1-2c0.1-1,0.5-1.9,1.2-2.7c0.2-0.2,0.4-0.4,0.6-0.6
			c0.8-0.7,1.7-1.1,2.7-1.1c0.4-0.9,1.2-1.6,2.1-2c0.3-0.1,0.5-0.2,0.8-0.3c1-0.4,2-0.3,2.9,0c0.7-0.6,1.7-1,2.7-1h0
			c0.3,0,0.5,0,0.8,0c1,0,2,0.5,2.7,1.2c0.9-0.3,2-0.3,2.9,0.1c0.3,0.1,0.5,0.2,0.8,0.3c1,0.4,1.7,1.2,2,2.1c1,0.1,1.9,0.5,2.7,1.2
			c0.2,0.2,0.4,0.4,0.6,0.6c0.7,0.8,1.1,1.7,1.1,2.7c0.9,0.4,1.6,1.2,2,2.1c0.1,0.3,0.2,0.5,0.3,0.8c0.4,1,0.3,2,0,2.9
			c0.6,0.7,1,1.7,1,2.7c0,0,0,0,0,0.1c0,0.3,0,0.5,0,0.8c-0.1,1-0.5,2-1.2,2.7c0.3,0.9,0.3,2-0.1,2.9c-0.1,0.3-0.2,0.5-0.3,0.8
			c-0.4,0.9-1.2,1.6-2.1,2c-0.1,1-0.5,1.9-1.2,2.7c-0.2,0.2-0.4,0.4-0.6,0.6c-0.8,0.7-1.7,1.1-2.7,1.1c-0.4,0.9-1.2,1.6-2.1,2
			c-0.2,0.1-0.5,0.2-0.8,0.3c-1,0.4-2,0.3-2.9,0c-0.7,0.6-1.6,1-2.6,1C-131,386.1-131,386.1-131.1,386.1z M-131.1,377.8
			c0.5,0,1.1,0.1,1.5,0.3c0.4-0.3,0.8-0.6,1.3-0.8c0.1,0,0.3-0.1,0.4-0.2c0.5-0.2,1-0.3,1.5-0.3c0.2-0.5,0.5-0.9,0.9-1.2
			c0.1-0.1,0.2-0.2,0.3-0.3c0.4-0.4,0.8-0.7,1.3-0.9c0-0.5,0.2-1,0.4-1.5c0.1-0.1,0.1-0.2,0.2-0.4c0.2-0.5,0.5-0.9,0.8-1.3
			c-0.2-0.5-0.2-1-0.2-1.5c0-0.1,0-0.3,0-0.4c0,0,0-0.1,0-0.1c0-0.5,0.1-1,0.3-1.5c-0.3-0.4-0.6-0.8-0.8-1.3c0-0.1-0.1-0.3-0.1-0.4
			c-0.2-0.5-0.3-1-0.3-1.5c-0.5-0.2-0.9-0.5-1.2-0.9c-0.1-0.1-0.2-0.2-0.3-0.3c-0.4-0.4-0.7-0.8-0.9-1.3c-0.5,0-1-0.2-1.5-0.4
			c-0.1-0.1-0.3-0.1-0.4-0.2c-0.5-0.2-0.9-0.5-1.3-0.8c-0.5,0.2-1,0.2-1.5,0.2c-0.1,0-0.3,0-0.4,0c-0.5,0-1.1-0.1-1.5-0.3
			c-0.4,0.3-0.8,0.6-1.3,0.8c-0.1,0-0.3,0.1-0.4,0.2c-0.5,0.2-1,0.3-1.5,0.3c-0.2,0.5-0.5,0.9-0.9,1.2c-0.1,0.1-0.2,0.2-0.3,0.3
			c-0.4,0.4-0.8,0.7-1.3,0.9c0,0.5-0.2,1-0.4,1.5c-0.1,0.1-0.1,0.3-0.2,0.4c-0.2,0.5-0.5,0.9-0.8,1.3c0.2,0.5,0.2,1,0.2,1.5
			c0,0.1,0,0.2,0,0.4c0,0,0,0,0,0.1c0,0.5-0.1,1-0.3,1.5c0.3,0.4,0.6,0.8,0.8,1.3c0,0.1,0.1,0.3,0.1,0.4c0.2,0.5,0.3,1,0.3,1.5
			c0.5,0.2,0.9,0.5,1.2,0.9c0.1,0.1,0.2,0.2,0.3,0.3c0.4,0.4,0.7,0.8,0.9,1.3c0.5,0,1,0.2,1.5,0.4c0.1,0.1,0.2,0.1,0.4,0.2
			c0.5,0.2,0.9,0.5,1.3,0.8c0.5-0.2,1-0.2,1.5-0.2C-131.3,377.8-131.2,377.8-131.1,377.8z"/>
	</g>
	<circle class="st4" cx="-136.3" cy="364" r="2"/>
	<circle class="st4" cx="-122.8" cy="366.9" r="2.8"/>
	<circle class="st4" cx="-132.3" cy="374.1" r="4"/>
</g>
<g>
	<g>
		<circle class="st2" cx="-88.7" cy="372.1" r="12.7"/>
		<path class="st2" d="M-88.7,388.9c-0.3,0-0.5,0-0.8,0c-1,0-2-0.5-2.7-1.2c-0.9,0.3-2,0.3-2.9-0.1c-0.3-0.1-0.5-0.2-0.8-0.3
			c-0.9-0.4-1.6-1.2-2-2.1c-1-0.1-1.9-0.5-2.7-1.2c-0.2-0.2-0.4-0.4-0.6-0.6c-0.7-0.8-1.1-1.7-1.1-2.7c-0.9-0.4-1.6-1.2-2-2.1
			c-0.1-0.3-0.2-0.5-0.3-0.8c-0.4-1-0.3-2,0-2.9c-0.6-0.7-1-1.6-1-2.7c0,0,0-0.1,0-0.1c0-0.3,0-0.5,0-0.8c0-1,0.5-2,1.2-2.7
			c-0.3-0.9-0.3-2,0.1-2.9c0.1-0.3,0.2-0.5,0.3-0.8c0.4-1,1.2-1.7,2.1-2c0.1-1,0.5-1.9,1.2-2.7c0.2-0.2,0.4-0.4,0.6-0.6
			c0.8-0.7,1.7-1.1,2.7-1.1c0.4-0.9,1.2-1.6,2.1-2c0.3-0.1,0.5-0.2,0.8-0.3c1-0.4,2-0.3,2.9,0c0.7-0.6,1.7-1,2.7-1h0
			c0.3,0,0.5,0,0.8,0c1,0,2,0.5,2.7,1.2c0.9-0.3,2-0.3,2.9,0.1c0.3,0.1,0.5,0.2,0.8,0.3c1,0.4,1.7,1.2,2,2.1c1,0.1,1.9,0.5,2.7,1.2
			c0.2,0.2,0.4,0.4,0.6,0.6c0.7,0.8,1.1,1.7,1.1,2.7c0.9,0.4,1.6,1.2,2,2.1c0.1,0.3,0.2,0.5,0.3,0.8c0.4,1,0.3,2,0,2.9
			c0.6,0.7,1,1.7,1,2.7c0,0,0,0,0,0.1c0,0.3,0,0.5,0,0.8c-0.1,1-0.5,2-1.2,2.7c0.3,0.9,0.3,2-0.1,2.9c-0.1,0.3-0.2,0.5-0.3,0.8
			c-0.4,0.9-1.2,1.6-2.1,2c-0.1,1-0.5,1.9-1.2,2.7c-0.2,0.2-0.4,0.4-0.6,0.6c-0.8,0.7-1.7,1.1-2.7,1.1c-0.4,0.9-1.2,1.6-2.1,2
			c-0.2,0.1-0.5,0.2-0.8,0.3c-1,0.4-2,0.3-2.9,0c-0.7,0.6-1.6,1-2.6,1C-88.7,388.9-88.7,388.9-88.7,388.9z M-88.7,380.6
			c0.5,0,1.1,0.1,1.5,0.3c0.4-0.3,0.8-0.6,1.3-0.8c0.1,0,0.3-0.1,0.4-0.2c0.5-0.2,1-0.3,1.5-0.3c0.2-0.5,0.5-0.9,0.9-1.2
			c0.1-0.1,0.2-0.2,0.3-0.3c0.4-0.4,0.8-0.7,1.3-0.9c0-0.5,0.2-1,0.4-1.5c0.1-0.1,0.1-0.2,0.2-0.4c0.2-0.5,0.5-0.9,0.8-1.3
			c-0.2-0.5-0.2-1-0.2-1.5c0-0.1,0-0.3,0-0.4c0,0,0-0.1,0-0.1c0-0.5,0.1-1,0.3-1.5c-0.3-0.4-0.6-0.8-0.8-1.3c0-0.1-0.1-0.3-0.1-0.4
			c-0.2-0.5-0.3-1-0.3-1.5c-0.5-0.2-0.9-0.5-1.2-0.9c-0.1-0.1-0.2-0.2-0.3-0.3c-0.4-0.4-0.7-0.8-0.9-1.3c-0.5,0-1-0.2-1.5-0.4
			c-0.1-0.1-0.3-0.1-0.4-0.2c-0.5-0.2-0.9-0.5-1.3-0.8c-0.5,0.2-1,0.2-1.5,0.2c-0.1,0-0.3,0-0.4,0c-0.5,0-1.1-0.1-1.5-0.3
			c-0.4,0.3-0.8,0.6-1.3,0.8c-0.1,0-0.3,0.1-0.4,0.2c-0.5,0.2-1,0.3-1.5,0.3c-0.2,0.5-0.5,0.9-0.9,1.2c-0.1,0.1-0.2,0.2-0.3,0.3
			c-0.4,0.4-0.8,0.7-1.3,0.9c0,0.5-0.2,1-0.4,1.5c-0.1,0.1-0.1,0.3-0.2,0.4c-0.2,0.5-0.5,0.9-0.8,1.3c0.2,0.5,0.2,1,0.2,1.5
			c0,0.1,0,0.2,0,0.4c0,0,0,0,0,0.1c0,0.5-0.1,1-0.3,1.5c0.3,0.4,0.6,0.8,0.8,1.3c0,0.1,0.1,0.3,0.1,0.4c0.2,0.5,0.3,1,0.3,1.5
			c0.5,0.2,0.9,0.5,1.2,0.9c0.1,0.1,0.2,0.2,0.3,0.3c0.4,0.4,0.7,0.8,0.9,1.3c0.5,0,1,0.2,1.5,0.4c0.1,0.1,0.2,0.1,0.4,0.2
			c0.5,0.2,0.9,0.5,1.3,0.8c0.5-0.2,1-0.2,1.5-0.2C-89,380.6-88.9,380.6-88.7,380.6z"/>
	</g>
	<g>
		<circle class="st3" cx="-91.1" cy="369.3" r="12.7"/>
		<path class="st3" d="M-91.1,386.1c-0.3,0-0.5,0-0.8,0c-1,0-2-0.5-2.7-1.2c-0.9,0.3-2,0.3-2.9-0.1c-0.3-0.1-0.5-0.2-0.8-0.3
			c-0.9-0.4-1.6-1.2-2-2.1c-1-0.1-1.9-0.5-2.7-1.2c-0.2-0.2-0.4-0.4-0.6-0.6c-0.7-0.8-1.1-1.7-1.1-2.7c-0.9-0.4-1.6-1.2-2-2.1
			c-0.1-0.3-0.2-0.5-0.3-0.8c-0.4-1-0.3-2,0-2.9c-0.6-0.7-1-1.6-1-2.7c0,0,0-0.1,0-0.1c0-0.3,0-0.5,0-0.8c0-1,0.5-2,1.2-2.7
			c-0.3-0.9-0.3-2,0.1-2.9c0.1-0.3,0.2-0.5,0.3-0.8c0.4-1,1.2-1.7,2.1-2c0.1-1,0.5-1.9,1.2-2.7c0.2-0.2,0.4-0.4,0.6-0.6
			c0.8-0.7,1.7-1.1,2.7-1.1c0.4-0.9,1.2-1.6,2.1-2c0.3-0.1,0.5-0.2,0.8-0.3c1-0.4,2-0.3,2.9,0c0.7-0.6,1.7-1,2.7-1h0
			c0.3,0,0.5,0,0.8,0c1,0,2,0.5,2.7,1.2c0.9-0.3,2-0.3,2.9,0.1c0.3,0.1,0.5,0.2,0.8,0.3c1,0.4,1.7,1.2,2,2.1c1,0.1,1.9,0.5,2.7,1.2
			c0.2,0.2,0.4,0.4,0.6,0.6c0.7,0.8,1.1,1.7,1.1,2.7c0.9,0.4,1.6,1.2,2,2.1c0.1,0.3,0.2,0.5,0.3,0.8c0.4,1,0.3,2,0,2.9
			c0.6,0.7,1,1.7,1,2.7c0,0,0,0,0,0.1c0,0.3,0,0.5,0,0.8c-0.1,1-0.5,2-1.2,2.7c0.3,0.9,0.3,2-0.1,2.9c-0.1,0.3-0.2,0.5-0.3,0.8
			c-0.4,0.9-1.2,1.6-2.1,2c-0.1,1-0.5,1.9-1.2,2.7c-0.2,0.2-0.4,0.4-0.6,0.6c-0.8,0.7-1.7,1.1-2.7,1.1c-0.4,0.9-1.2,1.6-2.1,2
			c-0.2,0.1-0.5,0.2-0.8,0.3c-1,0.4-2,0.3-2.9,0c-0.7,0.6-1.6,1-2.6,1C-91,386.1-91,386.1-91.1,386.1z M-91.1,377.8
			c0.5,0,1.1,0.1,1.5,0.3c0.4-0.3,0.8-0.6,1.3-0.8c0.1,0,0.3-0.1,0.4-0.2c0.5-0.2,1-0.3,1.5-0.3c0.2-0.5,0.5-0.9,0.9-1.2
			c0.1-0.1,0.2-0.2,0.3-0.3c0.4-0.4,0.8-0.7,1.3-0.9c0-0.5,0.2-1,0.4-1.5c0.1-0.1,0.1-0.2,0.2-0.4c0.2-0.5,0.5-0.9,0.8-1.3
			c-0.2-0.5-0.2-1-0.2-1.5c0-0.1,0-0.3,0-0.4c0,0,0-0.1,0-0.1c0-0.5,0.1-1,0.3-1.5c-0.3-0.4-0.6-0.8-0.8-1.3c0-0.1-0.1-0.3-0.1-0.4
			c-0.2-0.5-0.3-1-0.3-1.5c-0.5-0.2-0.9-0.5-1.2-0.9c-0.1-0.1-0.2-0.2-0.3-0.3c-0.4-0.4-0.7-0.8-0.9-1.3c-0.5,0-1-0.2-1.5-0.4
			c-0.1-0.1-0.3-0.1-0.4-0.2c-0.5-0.2-0.9-0.5-1.3-0.8c-0.5,0.2-1,0.2-1.5,0.2c-0.1,0-0.3,0-0.4,0c-0.5,0-1.1-0.1-1.5-0.3
			c-0.4,0.3-0.8,0.6-1.3,0.8c-0.1,0-0.3,0.1-0.4,0.2c-0.5,0.2-1,0.3-1.5,0.3c-0.2,0.5-0.5,0.9-0.9,1.2c-0.1,0.1-0.2,0.2-0.3,0.3
			c-0.4,0.4-0.8,0.7-1.3,0.9c0,0.5-0.2,1-0.4,1.5c-0.1,0.1-0.1,0.3-0.2,0.4c-0.2,0.5-0.5,0.9-0.8,1.3c0.2,0.5,0.2,1,0.2,1.5
			c0,0.1,0,0.2,0,0.4c0,0,0,0,0,0.1c0,0.5-0.1,1-0.3,1.5c0.3,0.4,0.6,0.8,0.8,1.3c0,0.1,0.1,0.3,0.1,0.4c0.2,0.5,0.3,1,0.3,1.5
			c0.5,0.2,0.9,0.5,1.2,0.9c0.1,0.1,0.2,0.2,0.3,0.3c0.4,0.4,0.7,0.8,0.9,1.3c0.5,0,1,0.2,1.5,0.4c0.1,0.1,0.2,0.1,0.4,0.2
			c0.5,0.2,0.9,0.5,1.3,0.8c0.5-0.2,1-0.2,1.5-0.2C-91.3,377.8-91.2,377.8-91.1,377.8z"/>
	</g>
	<circle class="st4" cx="-96.3" cy="364" r="2"/>
	<circle class="st4" cx="-82.8" cy="366.9" r="2.8"/>
	<circle class="st4" cx="-92.3" cy="374.1" r="4"/>
</g>
<g>
	<g>
		<circle class="st2" cx="-128.7" cy="410" r="12.7"/>
		<path class="st2" d="M-128.7,426.8c-0.3,0-0.5,0-0.8,0c-1,0-2-0.5-2.7-1.2c-0.9,0.3-2,0.3-2.9-0.1c-0.3-0.1-0.5-0.2-0.8-0.3
			c-0.9-0.4-1.6-1.2-2-2.1c-1-0.1-1.9-0.5-2.7-1.2c-0.2-0.2-0.4-0.4-0.6-0.6c-0.7-0.8-1.1-1.7-1.1-2.7c-0.9-0.4-1.6-1.2-2-2.1
			c-0.1-0.3-0.2-0.5-0.3-0.8c-0.4-1-0.3-2,0-2.9c-0.6-0.7-1-1.6-1-2.7c0,0,0-0.1,0-0.1c0-0.3,0-0.5,0-0.8c0-1,0.5-2,1.2-2.7
			c-0.3-0.9-0.3-2,0.1-2.9c0.1-0.3,0.2-0.5,0.3-0.8c0.4-1,1.2-1.7,2.1-2c0.1-1,0.5-1.9,1.2-2.7c0.2-0.2,0.4-0.4,0.6-0.6
			c0.8-0.7,1.7-1.1,2.7-1.1c0.4-0.9,1.2-1.6,2.1-2c0.3-0.1,0.5-0.2,0.8-0.3c1-0.4,2-0.3,2.9,0c0.7-0.6,1.7-1,2.7-1h0
			c0.3,0,0.5,0,0.8,0c1,0,2,0.5,2.7,1.2c0.9-0.3,2-0.3,2.9,0.1c0.3,0.1,0.5,0.2,0.8,0.3c1,0.4,1.7,1.2,2,2.1c1,0.1,1.9,0.5,2.7,1.2
			c0.2,0.2,0.4,0.4,0.6,0.6c0.7,0.8,1.1,1.7,1.1,2.7c0.9,0.4,1.6,1.2,2,2.1c0.1,0.3,0.2,0.5,0.3,0.8c0.4,1,0.3,2,0,2.9
			c0.6,0.7,1,1.7,1,2.7c0,0,0,0,0,0.1c0,0.3,0,0.5,0,0.8c-0.1,1-0.5,2-1.2,2.7c0.3,0.9,0.3,2-0.1,2.9c-0.1,0.3-0.2,0.5-0.3,0.8
			c-0.4,0.9-1.2,1.6-2.1,2c-0.1,1-0.5,1.9-1.2,2.7c-0.2,0.2-0.4,0.4-0.6,0.6c-0.8,0.7-1.7,1.1-2.7,1.1c-0.4,0.9-1.2,1.6-2.1,2
			c-0.2,0.1-0.5,0.2-0.8,0.3c-1,0.4-2,0.3-2.9,0c-0.7,0.6-1.6,1-2.6,1C-128.7,426.8-128.7,426.8-128.7,426.8z M-128.7,418.5
			c0.5,0,1.1,0.1,1.5,0.3c0.4-0.3,0.8-0.6,1.3-0.8c0.1,0,0.3-0.1,0.4-0.2c0.5-0.2,1-0.3,1.5-0.3c0.2-0.5,0.5-0.9,0.9-1.2
			c0.1-0.1,0.2-0.2,0.3-0.3c0.4-0.4,0.8-0.7,1.3-0.9c0-0.5,0.2-1,0.4-1.5c0.1-0.1,0.1-0.2,0.2-0.4c0.2-0.5,0.5-0.9,0.8-1.3
			c-0.2-0.5-0.2-1-0.2-1.5c0-0.1,0-0.3,0-0.4c0,0,0-0.1,0-0.1c0-0.5,0.1-1,0.3-1.5c-0.3-0.4-0.6-0.8-0.8-1.3c0-0.1-0.1-0.3-0.1-0.4
			c-0.2-0.5-0.3-1-0.3-1.5c-0.5-0.2-0.9-0.5-1.2-0.9c-0.1-0.1-0.2-0.2-0.3-0.3c-0.4-0.4-0.7-0.8-0.9-1.3c-0.5,0-1-0.2-1.5-0.4
			c-0.1-0.1-0.3-0.1-0.4-0.2c-0.5-0.2-0.9-0.5-1.3-0.8c-0.5,0.2-1,0.2-1.5,0.2c-0.1,0-0.3,0-0.4,0c-0.5,0-1.1-0.1-1.5-0.3
			c-0.4,0.3-0.8,0.6-1.3,0.8c-0.1,0-0.3,0.1-0.4,0.2c-0.5,0.2-1,0.3-1.5,0.3c-0.2,0.5-0.5,0.9-0.9,1.2c-0.1,0.1-0.2,0.2-0.3,0.3
			c-0.4,0.4-0.8,0.7-1.3,0.9c0,0.5-0.2,1-0.4,1.5c-0.1,0.1-0.1,0.3-0.2,0.4c-0.2,0.5-0.5,0.9-0.8,1.3c0.2,0.5,0.2,1,0.2,1.5
			c0,0.1,0,0.2,0,0.4c0,0,0,0,0,0.1c0,0.5-0.1,1-0.3,1.5c0.3,0.4,0.6,0.8,0.8,1.3c0,0.1,0.1,0.3,0.1,0.4c0.2,0.5,0.3,1,0.3,1.5
			c0.5,0.2,0.9,0.5,1.2,0.9c0.1,0.1,0.2,0.2,0.3,0.3c0.4,0.4,0.7,0.8,0.9,1.3c0.5,0,1,0.2,1.5,0.4c0.1,0.1,0.2,0.1,0.4,0.2
			c0.5,0.2,0.9,0.5,1.3,0.8c0.5-0.2,1-0.2,1.5-0.2C-129,418.5-128.9,418.5-128.7,418.5z"/>
	</g>
	<g>
		<circle class="st3" cx="-131.1" cy="407.3" r="12.7"/>
		<path class="st3" d="M-131.1,424.1c-0.3,0-0.5,0-0.8,0c-1,0-2-0.5-2.7-1.2c-0.9,0.3-2,0.3-2.9-0.1c-0.3-0.1-0.5-0.2-0.8-0.3
			c-0.9-0.4-1.6-1.2-2-2.1c-1-0.1-1.9-0.5-2.7-1.2c-0.2-0.2-0.4-0.4-0.6-0.6c-0.7-0.8-1.1-1.7-1.1-2.7c-0.9-0.4-1.6-1.2-2-2.1
			c-0.1-0.3-0.2-0.5-0.3-0.8c-0.4-1-0.3-2,0-2.9c-0.6-0.7-1-1.6-1-2.7c0,0,0-0.1,0-0.1c0-0.3,0-0.5,0-0.8c0-1,0.5-2,1.2-2.7
			c-0.3-0.9-0.3-2,0.1-2.9c0.1-0.3,0.2-0.5,0.3-0.8c0.4-1,1.2-1.7,2.1-2c0.1-1,0.5-1.9,1.2-2.7c0.2-0.2,0.4-0.4,0.6-0.6
			c0.8-0.7,1.7-1.1,2.7-1.1c0.4-0.9,1.2-1.6,2.1-2c0.3-0.1,0.5-0.2,0.8-0.3c1-0.4,2-0.3,2.9,0c0.7-0.6,1.7-1,2.7-1h0
			c0.3,0,0.5,0,0.8,0c1,0,2,0.5,2.7,1.2c0.9-0.3,2-0.3,2.9,0.1c0.3,0.1,0.5,0.2,0.8,0.3c1,0.4,1.7,1.2,2,2.1c1,0.1,1.9,0.5,2.7,1.2
			c0.2,0.2,0.4,0.4,0.6,0.6c0.7,0.8,1.1,1.7,1.1,2.7c0.9,0.4,1.6,1.2,2,2.1c0.1,0.3,0.2,0.5,0.3,0.8c0.4,1,0.3,2,0,2.9
			c0.6,0.7,1,1.7,1,2.7c0,0,0,0,0,0.1c0,0.3,0,0.5,0,0.8c-0.1,1-0.5,2-1.2,2.7c0.3,0.9,0.3,2-0.1,2.9c-0.1,0.3-0.2,0.5-0.3,0.8
			c-0.4,0.9-1.2,1.6-2.1,2c-0.1,1-0.5,1.9-1.2,2.7c-0.2,0.2-0.4,0.4-0.6,0.6c-0.8,0.7-1.7,1.1-2.7,1.1c-0.4,0.9-1.2,1.6-2.1,2
			c-0.2,0.1-0.5,0.2-0.8,0.3c-1,0.4-2,0.3-2.9,0c-0.7,0.6-1.6,1-2.6,1C-131,424.1-131,424.1-131.1,424.1z M-131.1,415.8
			c0.5,0,1.1,0.1,1.5,0.3c0.4-0.3,0.8-0.6,1.3-0.8c0.1,0,0.3-0.1,0.4-0.2c0.5-0.2,1-0.3,1.5-0.3c0.2-0.5,0.5-0.9,0.9-1.2
			c0.1-0.1,0.2-0.2,0.3-0.3c0.4-0.4,0.8-0.7,1.3-0.9c0-0.5,0.2-1,0.4-1.5c0.1-0.1,0.1-0.2,0.2-0.4c0.2-0.5,0.5-0.9,0.8-1.3
			c-0.2-0.5-0.2-1-0.2-1.5c0-0.1,0-0.3,0-0.4c0,0,0-0.1,0-0.1c0-0.5,0.1-1,0.3-1.5c-0.3-0.4-0.6-0.8-0.8-1.3c0-0.1-0.1-0.3-0.1-0.4
			c-0.2-0.5-0.3-1-0.3-1.5c-0.5-0.2-0.9-0.5-1.2-0.9c-0.1-0.1-0.2-0.2-0.3-0.3c-0.4-0.4-0.7-0.8-0.9-1.3c-0.5,0-1-0.2-1.5-0.4
			c-0.1-0.1-0.3-0.1-0.4-0.2c-0.5-0.2-0.9-0.5-1.3-0.8c-0.5,0.2-1,0.2-1.5,0.2c-0.1,0-0.3,0-0.4,0c-0.5,0-1.1-0.1-1.5-0.3
			c-0.4,0.3-0.8,0.6-1.3,0.8c-0.1,0-0.3,0.1-0.4,0.2c-0.5,0.2-1,0.3-1.5,0.3c-0.2,0.5-0.5,0.9-0.9,1.2c-0.1,0.1-0.2,0.2-0.3,0.3
			c-0.4,0.4-0.8,0.7-1.3,0.9c0,0.5-0.2,1-0.4,1.5c-0.1,0.1-0.1,0.3-0.2,0.4c-0.2,0.5-0.5,0.9-0.8,1.3c0.2,0.5,0.2,1,0.2,1.5
			c0,0.1,0,0.2,0,0.4c0,0,0,0,0,0.1c0,0.5-0.1,1-0.3,1.5c0.3,0.4,0.6,0.8,0.8,1.3c0,0.1,0.1,0.3,0.1,0.4c0.2,0.5,0.3,1,0.3,1.5
			c0.5,0.2,0.9,0.5,1.2,0.9c0.1,0.1,0.2,0.2,0.3,0.3c0.4,0.4,0.7,0.8,0.9,1.3c0.5,0,1,0.2,1.5,0.4c0.1,0.1,0.2,0.1,0.4,0.2
			c0.5,0.2,0.9,0.5,1.3,0.8c0.5-0.2,1-0.2,1.5-0.2C-131.3,415.8-131.2,415.8-131.1,415.8z"/>
	</g>
	<circle class="st4" cx="-136.3" cy="402" r="2"/>
	<circle class="st4" cx="-122.8" cy="404.9" r="2.8"/>
	<circle class="st4" cx="-132.3" cy="412" r="4"/>
</g>
<g>
	<g>
		<circle class="st2" cx="-88.7" cy="410" r="12.7"/>
		<path class="st2" d="M-88.7,426.8c-0.3,0-0.5,0-0.8,0c-1,0-2-0.5-2.7-1.2c-0.9,0.3-2,0.3-2.9-0.1c-0.3-0.1-0.5-0.2-0.8-0.3
			c-0.9-0.4-1.6-1.2-2-2.1c-1-0.1-1.9-0.5-2.7-1.2c-0.2-0.2-0.4-0.4-0.6-0.6c-0.7-0.8-1.1-1.7-1.1-2.7c-0.9-0.4-1.6-1.2-2-2.1
			c-0.1-0.3-0.2-0.5-0.3-0.8c-0.4-1-0.3-2,0-2.9c-0.6-0.7-1-1.6-1-2.7c0,0,0-0.1,0-0.1c0-0.3,0-0.5,0-0.8c0-1,0.5-2,1.2-2.7
			c-0.3-0.9-0.3-2,0.1-2.9c0.1-0.3,0.2-0.5,0.3-0.8c0.4-1,1.2-1.7,2.1-2c0.1-1,0.5-1.9,1.2-2.7c0.2-0.2,0.4-0.4,0.6-0.6
			c0.8-0.7,1.7-1.1,2.7-1.1c0.4-0.9,1.2-1.6,2.1-2c0.3-0.1,0.5-0.2,0.8-0.3c1-0.4,2-0.3,2.9,0c0.7-0.6,1.7-1,2.7-1h0
			c0.3,0,0.5,0,0.8,0c1,0,2,0.5,2.7,1.2c0.9-0.3,2-0.3,2.9,0.1c0.3,0.1,0.5,0.2,0.8,0.3c1,0.4,1.7,1.2,2,2.1c1,0.1,1.9,0.5,2.7,1.2
			c0.2,0.2,0.4,0.4,0.6,0.6c0.7,0.8,1.1,1.7,1.1,2.7c0.9,0.4,1.6,1.2,2,2.1c0.1,0.3,0.2,0.5,0.3,0.8c0.4,1,0.3,2,0,2.9
			c0.6,0.7,1,1.7,1,2.7c0,0,0,0,0,0.1c0,0.3,0,0.5,0,0.8c-0.1,1-0.5,2-1.2,2.7c0.3,0.9,0.3,2-0.1,2.9c-0.1,0.3-0.2,0.5-0.3,0.8
			c-0.4,0.9-1.2,1.6-2.1,2c-0.1,1-0.5,1.9-1.2,2.7c-0.2,0.2-0.4,0.4-0.6,0.6c-0.8,0.7-1.7,1.1-2.7,1.1c-0.4,0.9-1.2,1.6-2.1,2
			c-0.2,0.1-0.5,0.2-0.8,0.3c-1,0.4-2,0.3-2.9,0c-0.7,0.6-1.6,1-2.6,1C-88.7,426.8-88.7,426.8-88.7,426.8z M-88.7,418.5
			c0.5,0,1.1,0.1,1.5,0.3c0.4-0.3,0.8-0.6,1.3-0.8c0.1,0,0.3-0.1,0.4-0.2c0.5-0.2,1-0.3,1.5-0.3c0.2-0.5,0.5-0.9,0.9-1.2
			c0.1-0.1,0.2-0.2,0.3-0.3c0.4-0.4,0.8-0.7,1.3-0.9c0-0.5,0.2-1,0.4-1.5c0.1-0.1,0.1-0.2,0.2-0.4c0.2-0.5,0.5-0.9,0.8-1.3
			c-0.2-0.5-0.2-1-0.2-1.5c0-0.1,0-0.3,0-0.4c0,0,0-0.1,0-0.1c0-0.5,0.1-1,0.3-1.5c-0.3-0.4-0.6-0.8-0.8-1.3c0-0.1-0.1-0.3-0.1-0.4
			c-0.2-0.5-0.3-1-0.3-1.5c-0.5-0.2-0.9-0.5-1.2-0.9c-0.1-0.1-0.2-0.2-0.3-0.3c-0.4-0.4-0.7-0.8-0.9-1.3c-0.5,0-1-0.2-1.5-0.4
			c-0.1-0.1-0.3-0.1-0.4-0.2c-0.5-0.2-0.9-0.5-1.3-0.8c-0.5,0.2-1,0.2-1.5,0.2c-0.1,0-0.3,0-0.4,0c-0.5,0-1.1-0.1-1.5-0.3
			c-0.4,0.3-0.8,0.6-1.3,0.8c-0.1,0-0.3,0.1-0.4,0.2c-0.5,0.2-1,0.3-1.5,0.3c-0.2,0.5-0.5,0.9-0.9,1.2c-0.1,0.1-0.2,0.2-0.3,0.3
			c-0.4,0.4-0.8,0.7-1.3,0.9c0,0.5-0.2,1-0.4,1.5c-0.1,0.1-0.1,0.3-0.2,0.4c-0.2,0.5-0.5,0.9-0.8,1.3c0.2,0.5,0.2,1,0.2,1.5
			c0,0.1,0,0.2,0,0.4c0,0,0,0,0,0.1c0,0.5-0.1,1-0.3,1.5c0.3,0.4,0.6,0.8,0.8,1.3c0,0.1,0.1,0.3,0.1,0.4c0.2,0.5,0.3,1,0.3,1.5
			c0.5,0.2,0.9,0.5,1.2,0.9c0.1,0.1,0.2,0.2,0.3,0.3c0.4,0.4,0.7,0.8,0.9,1.3c0.5,0,1,0.2,1.5,0.4c0.1,0.1,0.2,0.1,0.4,0.2
			c0.5,0.2,0.9,0.5,1.3,0.8c0.5-0.2,1-0.2,1.5-0.2C-89,418.5-88.9,418.5-88.7,418.5z"/>
	</g>
	<g>
		<circle class="st3" cx="-91.1" cy="407.3" r="12.7"/>
		<path class="st3" d="M-91.1,424.1c-0.3,0-0.5,0-0.8,0c-1,0-2-0.5-2.7-1.2c-0.9,0.3-2,0.3-2.9-0.1c-0.3-0.1-0.5-0.2-0.8-0.3
			c-0.9-0.4-1.6-1.2-2-2.1c-1-0.1-1.9-0.5-2.7-1.2c-0.2-0.2-0.4-0.4-0.6-0.6c-0.7-0.8-1.1-1.7-1.1-2.7c-0.9-0.4-1.6-1.2-2-2.1
			c-0.1-0.3-0.2-0.5-0.3-0.8c-0.4-1-0.3-2,0-2.9c-0.6-0.7-1-1.6-1-2.7c0,0,0-0.1,0-0.1c0-0.3,0-0.5,0-0.8c0-1,0.5-2,1.2-2.7
			c-0.3-0.9-0.3-2,0.1-2.9c0.1-0.3,0.2-0.5,0.3-0.8c0.4-1,1.2-1.7,2.1-2c0.1-1,0.5-1.9,1.2-2.7c0.2-0.2,0.4-0.4,0.6-0.6
			c0.8-0.7,1.7-1.1,2.7-1.1c0.4-0.9,1.2-1.6,2.1-2c0.3-0.1,0.5-0.2,0.8-0.3c1-0.4,2-0.3,2.9,0c0.7-0.6,1.7-1,2.7-1h0
			c0.3,0,0.5,0,0.8,0c1,0,2,0.5,2.7,1.2c0.9-0.3,2-0.3,2.9,0.1c0.3,0.1,0.5,0.2,0.8,0.3c1,0.4,1.7,1.2,2,2.1c1,0.1,1.9,0.5,2.7,1.2
			c0.2,0.2,0.4,0.4,0.6,0.6c0.7,0.8,1.1,1.7,1.1,2.7c0.9,0.4,1.6,1.2,2,2.1c0.1,0.3,0.2,0.5,0.3,0.8c0.4,1,0.3,2,0,2.9
			c0.6,0.7,1,1.7,1,2.7c0,0,0,0,0,0.1c0,0.3,0,0.5,0,0.8c-0.1,1-0.5,2-1.2,2.7c0.3,0.9,0.3,2-0.1,2.9c-0.1,0.3-0.2,0.5-0.3,0.8
			c-0.4,0.9-1.2,1.6-2.1,2c-0.1,1-0.5,1.9-1.2,2.7c-0.2,0.2-0.4,0.4-0.6,0.6c-0.8,0.7-1.7,1.1-2.7,1.1c-0.4,0.9-1.2,1.6-2.1,2
			c-0.2,0.1-0.5,0.2-0.8,0.3c-1,0.4-2,0.3-2.9,0c-0.7,0.6-1.6,1-2.6,1C-91,424.1-91,424.1-91.1,424.1z M-91.1,415.8
			c0.5,0,1.1,0.1,1.5,0.3c0.4-0.3,0.8-0.6,1.3-0.8c0.1,0,0.3-0.1,0.4-0.2c0.5-0.2,1-0.3,1.5-0.3c0.2-0.5,0.5-0.9,0.9-1.2
			c0.1-0.1,0.2-0.2,0.3-0.3c0.4-0.4,0.8-0.7,1.3-0.9c0-0.5,0.2-1,0.4-1.5c0.1-0.1,0.1-0.2,0.2-0.4c0.2-0.5,0.5-0.9,0.8-1.3
			c-0.2-0.5-0.2-1-0.2-1.5c0-0.1,0-0.3,0-0.4c0,0,0-0.1,0-0.1c0-0.5,0.1-1,0.3-1.5c-0.3-0.4-0.6-0.8-0.8-1.3c0-0.1-0.1-0.3-0.1-0.4
			c-0.2-0.5-0.3-1-0.3-1.5c-0.5-0.2-0.9-0.5-1.2-0.9c-0.1-0.1-0.2-0.2-0.3-0.3c-0.4-0.4-0.7-0.8-0.9-1.3c-0.5,0-1-0.2-1.5-0.4
			c-0.1-0.1-0.3-0.1-0.4-0.2c-0.5-0.2-0.9-0.5-1.3-0.8c-0.5,0.2-1,0.2-1.5,0.2c-0.1,0-0.3,0-0.4,0c-0.5,0-1.1-0.1-1.5-0.3
			c-0.4,0.3-0.8,0.6-1.3,0.8c-0.1,0-0.3,0.1-0.4,0.2c-0.5,0.2-1,0.3-1.5,0.3c-0.2,0.5-0.5,0.9-0.9,1.2c-0.1,0.1-0.2,0.2-0.3,0.3
			c-0.4,0.4-0.8,0.7-1.3,0.9c0,0.5-0.2,1-0.4,1.5c-0.1,0.1-0.1,0.3-0.2,0.4c-0.2,0.5-0.5,0.9-0.8,1.3c0.2,0.5,0.2,1,0.2,1.5
			c0,0.1,0,0.2,0,0.4c0,0,0,0,0,0.1c0,0.5-0.1,1-0.3,1.5c0.3,0.4,0.6,0.8,0.8,1.3c0,0.1,0.1,0.3,0.1,0.4c0.2,0.5,0.3,1,0.3,1.5
			c0.5,0.2,0.9,0.5,1.2,0.9c0.1,0.1,0.2,0.2,0.3,0.3c0.4,0.4,0.7,0.8,0.9,1.3c0.5,0,1,0.2,1.5,0.4c0.1,0.1,0.2,0.1,0.4,0.2
			c0.5,0.2,0.9,0.5,1.3,0.8c0.5-0.2,1-0.2,1.5-0.2C-91.3,415.8-91.2,415.8-91.1,415.8z"/>
	</g>
	<circle class="st4" cx="-96.3" cy="402" r="2"/>
	<circle class="st4" cx="-82.8" cy="404.9" r="2.8"/>
	<circle class="st4" cx="-92.3" cy="412" r="4"/>
</g>
<g>
	<g>
		<circle class="st2" cx="-47.7" cy="372.1" r="12.7"/>
		<path class="st2" d="M-47.7,388.9c-0.3,0-0.5,0-0.8,0c-1,0-2-0.5-2.7-1.2c-0.9,0.3-2,0.3-2.9-0.1c-0.3-0.1-0.5-0.2-0.8-0.3
			c-0.9-0.4-1.6-1.2-2-2.1c-1-0.1-1.9-0.5-2.7-1.2c-0.2-0.2-0.4-0.4-0.6-0.6c-0.7-0.8-1.1-1.7-1.1-2.7c-0.9-0.4-1.6-1.2-2-2.1
			c-0.1-0.3-0.2-0.5-0.3-0.8c-0.4-1-0.3-2,0-2.9c-0.6-0.7-1-1.6-1-2.7c0,0,0-0.1,0-0.1c0-0.3,0-0.5,0-0.8c0-1,0.5-2,1.2-2.7
			c-0.3-0.9-0.3-2,0.1-2.9c0.1-0.3,0.2-0.5,0.3-0.8c0.4-1,1.2-1.7,2.1-2c0.1-1,0.5-1.9,1.2-2.7c0.2-0.2,0.4-0.4,0.6-0.6
			c0.8-0.7,1.7-1.1,2.7-1.1c0.4-0.9,1.2-1.6,2.1-2c0.3-0.1,0.5-0.2,0.8-0.3c1-0.4,2-0.3,2.9,0c0.7-0.6,1.7-1,2.7-1h0
			c0.3,0,0.5,0,0.8,0c1,0,2,0.5,2.7,1.2c0.9-0.3,2-0.3,2.9,0.1c0.3,0.1,0.5,0.2,0.8,0.3c1,0.4,1.7,1.2,2,2.1c1,0.1,1.9,0.5,2.7,1.2
			c0.2,0.2,0.4,0.4,0.6,0.6c0.7,0.8,1.1,1.7,1.1,2.7c0.9,0.4,1.6,1.2,2,2.1c0.1,0.3,0.2,0.5,0.3,0.8c0.4,1,0.3,2,0,2.9
			c0.6,0.7,1,1.7,1,2.7c0,0,0,0,0,0.1c0,0.3,0,0.5,0,0.8c-0.1,1-0.5,2-1.2,2.7c0.3,0.9,0.3,2-0.1,2.9c-0.1,0.3-0.2,0.5-0.3,0.8
			c-0.4,0.9-1.2,1.6-2.1,2c-0.1,1-0.5,1.9-1.2,2.7c-0.2,0.2-0.4,0.4-0.6,0.6c-0.8,0.7-1.7,1.1-2.7,1.1c-0.4,0.9-1.2,1.6-2.1,2
			c-0.2,0.1-0.5,0.2-0.8,0.3c-1,0.4-2,0.3-2.9,0c-0.7,0.6-1.6,1-2.6,1C-47.7,388.9-47.7,388.9-47.7,388.9z M-47.7,380.6
			c0.5,0,1.1,0.1,1.5,0.3c0.4-0.3,0.8-0.6,1.3-0.8c0.1,0,0.3-0.1,0.4-0.2c0.5-0.2,1-0.3,1.5-0.3c0.2-0.5,0.5-0.9,0.9-1.2
			c0.1-0.1,0.2-0.2,0.3-0.3c0.4-0.4,0.8-0.7,1.3-0.9c0-0.5,0.2-1,0.4-1.5c0.1-0.1,0.1-0.2,0.2-0.4c0.2-0.5,0.5-0.9,0.8-1.3
			c-0.2-0.5-0.2-1-0.2-1.5c0-0.1,0-0.3,0-0.4c0,0,0-0.1,0-0.1c0-0.5,0.1-1,0.3-1.5c-0.3-0.4-0.6-0.8-0.8-1.3c0-0.1-0.1-0.3-0.1-0.4
			c-0.2-0.5-0.3-1-0.3-1.5c-0.5-0.2-0.9-0.5-1.2-0.9c-0.1-0.1-0.2-0.2-0.3-0.3c-0.4-0.4-0.7-0.8-0.9-1.3c-0.5,0-1-0.2-1.5-0.4
			c-0.1-0.1-0.3-0.1-0.4-0.2c-0.5-0.2-0.9-0.5-1.3-0.8c-0.5,0.2-1,0.2-1.5,0.2c-0.1,0-0.3,0-0.4,0c-0.5,0-1.1-0.1-1.5-0.3
			c-0.4,0.3-0.8,0.6-1.3,0.8c-0.1,0-0.3,0.1-0.4,0.2c-0.5,0.2-1,0.3-1.5,0.3c-0.2,0.5-0.5,0.9-0.9,1.2c-0.1,0.1-0.2,0.2-0.3,0.3
			c-0.4,0.4-0.8,0.7-1.3,0.9c0,0.5-0.2,1-0.4,1.5c-0.1,0.1-0.1,0.3-0.2,0.4c-0.2,0.5-0.5,0.9-0.8,1.3c0.2,0.5,0.2,1,0.2,1.5
			c0,0.1,0,0.2,0,0.4c0,0,0,0,0,0.1c0,0.5-0.1,1-0.3,1.5c0.3,0.4,0.6,0.8,0.8,1.3c0,0.1,0.1,0.3,0.1,0.4c0.2,0.5,0.3,1,0.3,1.5
			c0.5,0.2,0.9,0.5,1.2,0.9c0.1,0.1,0.2,0.2,0.3,0.3c0.4,0.4,0.7,0.8,0.9,1.3c0.5,0,1,0.2,1.5,0.4c0.1,0.1,0.2,0.1,0.4,0.2
			c0.5,0.2,0.9,0.5,1.3,0.8c0.5-0.2,1-0.2,1.5-0.2C-48,380.6-47.9,380.6-47.7,380.6z"/>
	</g>
	<g>
		<circle class="st3" cx="-50.1" cy="369.3" r="12.7"/>
		<path class="st3" d="M-50.1,386.1c-0.3,0-0.5,0-0.8,0c-1,0-2-0.5-2.7-1.2c-0.9,0.3-2,0.3-2.9-0.1c-0.3-0.1-0.5-0.2-0.8-0.3
			c-0.9-0.4-1.6-1.2-2-2.1c-1-0.1-1.9-0.5-2.7-1.2c-0.2-0.2-0.4-0.4-0.6-0.6c-0.7-0.8-1.1-1.7-1.1-2.7c-0.9-0.4-1.6-1.2-2-2.1
			c-0.1-0.3-0.2-0.5-0.3-0.8c-0.4-1-0.3-2,0-2.9c-0.6-0.7-1-1.6-1-2.7c0,0,0-0.1,0-0.1c0-0.3,0-0.5,0-0.8c0-1,0.5-2,1.2-2.7
			c-0.3-0.9-0.3-2,0.1-2.9c0.1-0.3,0.2-0.5,0.3-0.8c0.4-1,1.2-1.7,2.1-2c0.1-1,0.5-1.9,1.2-2.7c0.2-0.2,0.4-0.4,0.6-0.6
			c0.8-0.7,1.7-1.1,2.7-1.1c0.4-0.9,1.2-1.6,2.1-2c0.3-0.1,0.5-0.2,0.8-0.3c1-0.4,2-0.3,2.9,0c0.7-0.6,1.7-1,2.7-1h0
			c0.3,0,0.5,0,0.8,0c1,0,2,0.5,2.7,1.2c0.9-0.3,2-0.3,2.9,0.1c0.3,0.1,0.5,0.2,0.8,0.3c1,0.4,1.7,1.2,2,2.1c1,0.1,1.9,0.5,2.7,1.2
			c0.2,0.2,0.4,0.4,0.6,0.6c0.7,0.8,1.1,1.7,1.1,2.7c0.9,0.4,1.6,1.2,2,2.1c0.1,0.3,0.2,0.5,0.3,0.8c0.4,1,0.3,2,0,2.9
			c0.6,0.7,1,1.7,1,2.7c0,0,0,0,0,0.1c0,0.3,0,0.5,0,0.8c-0.1,1-0.5,2-1.2,2.7c0.3,0.9,0.3,2-0.1,2.9c-0.1,0.3-0.2,0.5-0.3,0.8
			c-0.4,0.9-1.2,1.6-2.1,2c-0.1,1-0.5,1.9-1.2,2.7c-0.2,0.2-0.4,0.4-0.6,0.6c-0.8,0.7-1.7,1.1-2.7,1.1c-0.4,0.9-1.2,1.6-2.1,2
			c-0.2,0.1-0.5,0.2-0.8,0.3c-1,0.4-2,0.3-2.9,0c-0.7,0.6-1.6,1-2.6,1C-50,386.1-50.1,386.1-50.1,386.1z M-50.1,377.8
			c0.5,0,1.1,0.1,1.5,0.3c0.4-0.3,0.8-0.6,1.3-0.8c0.1,0,0.3-0.1,0.4-0.2c0.5-0.2,1-0.3,1.5-0.3c0.2-0.5,0.5-0.9,0.9-1.2
			c0.1-0.1,0.2-0.2,0.3-0.3c0.4-0.4,0.8-0.7,1.3-0.9c0-0.5,0.2-1,0.4-1.5c0.1-0.1,0.1-0.2,0.2-0.4c0.2-0.5,0.5-0.9,0.8-1.3
			c-0.2-0.5-0.2-1-0.2-1.5c0-0.1,0-0.3,0-0.4c0,0,0-0.1,0-0.1c0-0.5,0.1-1,0.3-1.5c-0.3-0.4-0.6-0.8-0.8-1.3c0-0.1-0.1-0.3-0.1-0.4
			c-0.2-0.5-0.3-1-0.3-1.5c-0.5-0.2-0.9-0.5-1.2-0.9c-0.1-0.1-0.2-0.2-0.3-0.3c-0.4-0.4-0.7-0.8-0.9-1.3c-0.5,0-1-0.2-1.5-0.4
			c-0.1-0.1-0.3-0.1-0.4-0.2c-0.5-0.2-0.9-0.5-1.3-0.8c-0.5,0.2-1,0.2-1.5,0.2c-0.1,0-0.3,0-0.4,0c-0.5,0-1.1-0.1-1.5-0.3
			c-0.4,0.3-0.8,0.6-1.3,0.8c-0.1,0-0.3,0.1-0.4,0.2c-0.5,0.2-1,0.3-1.5,0.3c-0.2,0.5-0.5,0.9-0.9,1.2c-0.1,0.1-0.2,0.2-0.3,0.3
			c-0.4,0.4-0.8,0.7-1.3,0.9c0,0.5-0.2,1-0.4,1.5c-0.1,0.1-0.1,0.3-0.2,0.4c-0.2,0.5-0.5,0.9-0.8,1.3c0.2,0.5,0.2,1,0.2,1.5
			c0,0.1,0,0.2,0,0.4c0,0,0,0,0,0.1c0,0.5-0.1,1-0.3,1.5c0.3,0.4,0.6,0.8,0.8,1.3c0,0.1,0.1,0.3,0.1,0.4c0.2,0.5,0.3,1,0.3,1.5
			c0.5,0.2,0.9,0.5,1.2,0.9c0.1,0.1,0.2,0.2,0.3,0.3c0.4,0.4,0.7,0.8,0.9,1.3c0.5,0,1,0.2,1.5,0.4c0.1,0.1,0.2,0.1,0.4,0.2
			c0.5,0.2,0.9,0.5,1.3,0.8c0.5-0.2,1-0.2,1.5-0.2C-50.4,377.8-50.2,377.8-50.1,377.8z"/>
	</g>
	<circle class="st4" cx="-55.4" cy="364" r="2"/>
	<circle class="st4" cx="-41.8" cy="366.9" r="2.8"/>
	<circle class="st4" cx="-51.3" cy="374.1" r="4"/>
</g>
<g>
	<g>
		<circle class="st2" cx="-47.7" cy="410" r="12.7"/>
		<path class="st2" d="M-47.7,426.8c-0.3,0-0.5,0-0.8,0c-1,0-2-0.5-2.7-1.2c-0.9,0.3-2,0.3-2.9-0.1c-0.3-0.1-0.5-0.2-0.8-0.3
			c-0.9-0.4-1.6-1.2-2-2.1c-1-0.1-1.9-0.5-2.7-1.2c-0.2-0.2-0.4-0.4-0.6-0.6c-0.7-0.8-1.1-1.7-1.1-2.7c-0.9-0.4-1.6-1.2-2-2.1
			c-0.1-0.3-0.2-0.5-0.3-0.8c-0.4-1-0.3-2,0-2.9c-0.6-0.7-1-1.6-1-2.7c0,0,0-0.1,0-0.1c0-0.3,0-0.5,0-0.8c0-1,0.5-2,1.2-2.7
			c-0.3-0.9-0.3-2,0.1-2.9c0.1-0.3,0.2-0.5,0.3-0.8c0.4-1,1.2-1.7,2.1-2c0.1-1,0.5-1.9,1.2-2.7c0.2-0.2,0.4-0.4,0.6-0.6
			c0.8-0.7,1.7-1.1,2.7-1.1c0.4-0.9,1.2-1.6,2.1-2c0.3-0.1,0.5-0.2,0.8-0.3c1-0.4,2-0.3,2.9,0c0.7-0.6,1.7-1,2.7-1h0
			c0.3,0,0.5,0,0.8,0c1,0,2,0.5,2.7,1.2c0.9-0.3,2-0.3,2.9,0.1c0.3,0.1,0.5,0.2,0.8,0.3c1,0.4,1.7,1.2,2,2.1c1,0.1,1.9,0.5,2.7,1.2
			c0.2,0.2,0.4,0.4,0.6,0.6c0.7,0.8,1.1,1.7,1.1,2.7c0.9,0.4,1.6,1.2,2,2.1c0.1,0.3,0.2,0.5,0.3,0.8c0.4,1,0.3,2,0,2.9
			c0.6,0.7,1,1.7,1,2.7c0,0,0,0,0,0.1c0,0.3,0,0.5,0,0.8c-0.1,1-0.5,2-1.2,2.7c0.3,0.9,0.3,2-0.1,2.9c-0.1,0.3-0.2,0.5-0.3,0.8
			c-0.4,0.9-1.2,1.6-2.1,2c-0.1,1-0.5,1.9-1.2,2.7c-0.2,0.2-0.4,0.4-0.6,0.6c-0.8,0.7-1.7,1.1-2.7,1.1c-0.4,0.9-1.2,1.6-2.1,2
			c-0.2,0.1-0.5,0.2-0.8,0.3c-1,0.4-2,0.3-2.9,0c-0.7,0.6-1.6,1-2.6,1C-47.7,426.8-47.7,426.8-47.7,426.8z M-47.7,418.5
			c0.5,0,1.1,0.1,1.5,0.3c0.4-0.3,0.8-0.6,1.3-0.8c0.1,0,0.3-0.1,0.4-0.2c0.5-0.2,1-0.3,1.5-0.3c0.2-0.5,0.5-0.9,0.9-1.2
			c0.1-0.1,0.2-0.2,0.3-0.3c0.4-0.4,0.8-0.7,1.3-0.9c0-0.5,0.2-1,0.4-1.5c0.1-0.1,0.1-0.2,0.2-0.4c0.2-0.5,0.5-0.9,0.8-1.3
			c-0.2-0.5-0.2-1-0.2-1.5c0-0.1,0-0.3,0-0.4c0,0,0-0.1,0-0.1c0-0.5,0.1-1,0.3-1.5c-0.3-0.4-0.6-0.8-0.8-1.3c0-0.1-0.1-0.3-0.1-0.4
			c-0.2-0.5-0.3-1-0.3-1.5c-0.5-0.2-0.9-0.5-1.2-0.9c-0.1-0.1-0.2-0.2-0.3-0.3c-0.4-0.4-0.7-0.8-0.9-1.3c-0.5,0-1-0.2-1.5-0.4
			c-0.1-0.1-0.3-0.1-0.4-0.2c-0.5-0.2-0.9-0.5-1.3-0.8c-0.5,0.2-1,0.2-1.5,0.2c-0.1,0-0.3,0-0.4,0c-0.5,0-1.1-0.1-1.5-0.3
			c-0.4,0.3-0.8,0.6-1.3,0.8c-0.1,0-0.3,0.1-0.4,0.2c-0.5,0.2-1,0.3-1.5,0.3c-0.2,0.5-0.5,0.9-0.9,1.2c-0.1,0.1-0.2,0.2-0.3,0.3
			c-0.4,0.4-0.8,0.7-1.3,0.9c0,0.5-0.2,1-0.4,1.5c-0.1,0.1-0.1,0.3-0.2,0.4c-0.2,0.5-0.5,0.9-0.8,1.3c0.2,0.5,0.2,1,0.2,1.5
			c0,0.1,0,0.2,0,0.4c0,0,0,0,0,0.1c0,0.5-0.1,1-0.3,1.5c0.3,0.4,0.6,0.8,0.8,1.3c0,0.1,0.1,0.3,0.1,0.4c0.2,0.5,0.3,1,0.3,1.5
			c0.5,0.2,0.9,0.5,1.2,0.9c0.1,0.1,0.2,0.2,0.3,0.3c0.4,0.4,0.7,0.8,0.9,1.3c0.5,0,1,0.2,1.5,0.4c0.1,0.1,0.2,0.1,0.4,0.2
			c0.5,0.2,0.9,0.5,1.3,0.8c0.5-0.2,1-0.2,1.5-0.2C-48,418.5-47.9,418.5-47.7,418.5z"/>
	</g>
	<g>
		<circle class="st3" cx="-50.1" cy="407.3" r="12.7"/>
		<path class="st3" d="M-50.1,424.1c-0.3,0-0.5,0-0.8,0c-1,0-2-0.5-2.7-1.2c-0.9,0.3-2,0.3-2.9-0.1c-0.3-0.1-0.5-0.2-0.8-0.3
			c-0.9-0.4-1.6-1.2-2-2.1c-1-0.1-1.9-0.5-2.7-1.2c-0.2-0.2-0.4-0.4-0.6-0.6c-0.7-0.8-1.1-1.7-1.1-2.7c-0.9-0.4-1.6-1.2-2-2.1
			c-0.1-0.3-0.2-0.5-0.3-0.8c-0.4-1-0.3-2,0-2.9c-0.6-0.7-1-1.6-1-2.7c0,0,0-0.1,0-0.1c0-0.3,0-0.5,0-0.8c0-1,0.5-2,1.2-2.7
			c-0.3-0.9-0.3-2,0.1-2.9c0.1-0.3,0.2-0.5,0.3-0.8c0.4-1,1.2-1.7,2.1-2c0.1-1,0.5-1.9,1.2-2.7c0.2-0.2,0.4-0.4,0.6-0.6
			c0.8-0.7,1.7-1.1,2.7-1.1c0.4-0.9,1.2-1.6,2.1-2c0.3-0.1,0.5-0.2,0.8-0.3c1-0.4,2-0.3,2.9,0c0.7-0.6,1.7-1,2.7-1h0
			c0.3,0,0.5,0,0.8,0c1,0,2,0.5,2.7,1.2c0.9-0.3,2-0.3,2.9,0.1c0.3,0.1,0.5,0.2,0.8,0.3c1,0.4,1.7,1.2,2,2.1c1,0.1,1.9,0.5,2.7,1.2
			c0.2,0.2,0.4,0.4,0.6,0.6c0.7,0.8,1.1,1.7,1.1,2.7c0.9,0.4,1.6,1.2,2,2.1c0.1,0.3,0.2,0.5,0.3,0.8c0.4,1,0.3,2,0,2.9
			c0.6,0.7,1,1.7,1,2.7c0,0,0,0,0,0.1c0,0.3,0,0.5,0,0.8c-0.1,1-0.5,2-1.2,2.7c0.3,0.9,0.3,2-0.1,2.9c-0.1,0.3-0.2,0.5-0.3,0.8
			c-0.4,0.9-1.2,1.6-2.1,2c-0.1,1-0.5,1.9-1.2,2.7c-0.2,0.2-0.4,0.4-0.6,0.6c-0.8,0.7-1.7,1.1-2.7,1.1c-0.4,0.9-1.2,1.6-2.1,2
			c-0.2,0.1-0.5,0.2-0.8,0.3c-1,0.4-2,0.3-2.9,0c-0.7,0.6-1.6,1-2.6,1C-50,424.1-50.1,424.1-50.1,424.1z M-50.1,415.8
			c0.5,0,1.1,0.1,1.5,0.3c0.4-0.3,0.8-0.6,1.3-0.8c0.1,0,0.3-0.1,0.4-0.2c0.5-0.2,1-0.3,1.5-0.3c0.2-0.5,0.5-0.9,0.9-1.2
			c0.1-0.1,0.2-0.2,0.3-0.3c0.4-0.4,0.8-0.7,1.3-0.9c0-0.5,0.2-1,0.4-1.5c0.1-0.1,0.1-0.2,0.2-0.4c0.2-0.5,0.5-0.9,0.8-1.3
			c-0.2-0.5-0.2-1-0.2-1.5c0-0.1,0-0.3,0-0.4c0,0,0-0.1,0-0.1c0-0.5,0.1-1,0.3-1.5c-0.3-0.4-0.6-0.8-0.8-1.3c0-0.1-0.1-0.3-0.1-0.4
			c-0.2-0.5-0.3-1-0.3-1.5c-0.5-0.2-0.9-0.5-1.2-0.9c-0.1-0.1-0.2-0.2-0.3-0.3c-0.4-0.4-0.7-0.8-0.9-1.3c-0.5,0-1-0.2-1.5-0.4
			c-0.1-0.1-0.3-0.1-0.4-0.2c-0.5-0.2-0.9-0.5-1.3-0.8c-0.5,0.2-1,0.2-1.5,0.2c-0.1,0-0.3,0-0.4,0c-0.5,0-1.1-0.1-1.5-0.3
			c-0.4,0.3-0.8,0.6-1.3,0.8c-0.1,0-0.3,0.1-0.4,0.2c-0.5,0.2-1,0.3-1.5,0.3c-0.2,0.5-0.5,0.9-0.9,1.2c-0.1,0.1-0.2,0.2-0.3,0.3
			c-0.4,0.4-0.8,0.7-1.3,0.9c0,0.5-0.2,1-0.4,1.5c-0.1,0.1-0.1,0.3-0.2,0.4c-0.2,0.5-0.5,0.9-0.8,1.3c0.2,0.5,0.2,1,0.2,1.5
			c0,0.1,0,0.2,0,0.4c0,0,0,0,0,0.1c0,0.5-0.1,1-0.3,1.5c0.3,0.4,0.6,0.8,0.8,1.3c0,0.1,0.1,0.3,0.1,0.4c0.2,0.5,0.3,1,0.3,1.5
			c0.5,0.2,0.9,0.5,1.2,0.9c0.1,0.1,0.2,0.2,0.3,0.3c0.4,0.4,0.7,0.8,0.9,1.3c0.5,0,1,0.2,1.5,0.4c0.1,0.1,0.2,0.1,0.4,0.2
			c0.5,0.2,0.9,0.5,1.3,0.8c0.5-0.2,1-0.2,1.5-0.2C-50.4,415.8-50.2,415.8-50.1,415.8z"/>
	</g>
	<circle class="st4" cx="-55.4" cy="402" r="2"/>
	<circle class="st4" cx="-41.8" cy="404.9" r="2.8"/>
	<circle class="st4" cx="-51.3" cy="412" r="4"/>
</g>
<g>
	<g>
		<circle class="st2" cx="-128.7" cy="449.7" r="12.7"/>
		<path class="st2" d="M-128.7,466.5c-0.3,0-0.5,0-0.8,0c-1,0-2-0.5-2.7-1.2c-0.9,0.3-2,0.3-2.9-0.1c-0.3-0.1-0.5-0.2-0.8-0.3
			c-0.9-0.4-1.6-1.2-2-2.1c-1-0.1-1.9-0.5-2.7-1.2c-0.2-0.2-0.4-0.4-0.6-0.6c-0.7-0.8-1.1-1.7-1.1-2.7c-0.9-0.4-1.6-1.2-2-2.1
			c-0.1-0.3-0.2-0.5-0.3-0.8c-0.4-1-0.3-2,0-2.9c-0.6-0.7-1-1.6-1-2.7c0,0,0-0.1,0-0.1c0-0.3,0-0.5,0-0.8c0-1,0.5-2,1.2-2.7
			c-0.3-0.9-0.3-2,0.1-2.9c0.1-0.3,0.2-0.5,0.3-0.8c0.4-1,1.2-1.7,2.1-2c0.1-1,0.5-1.9,1.2-2.7c0.2-0.2,0.4-0.4,0.6-0.6
			c0.8-0.7,1.7-1.1,2.7-1.1c0.4-0.9,1.2-1.6,2.1-2c0.3-0.1,0.5-0.2,0.8-0.3c1-0.4,2-0.3,2.9,0c0.7-0.6,1.7-1,2.7-1h0
			c0.3,0,0.5,0,0.8,0c1,0,2,0.5,2.7,1.2c0.9-0.3,2-0.3,2.9,0.1c0.3,0.1,0.5,0.2,0.8,0.3c1,0.4,1.7,1.2,2,2.1c1,0.1,1.9,0.5,2.7,1.2
			c0.2,0.2,0.4,0.4,0.6,0.6c0.7,0.8,1.1,1.7,1.1,2.7c0.9,0.4,1.6,1.2,2,2.1c0.1,0.3,0.2,0.5,0.3,0.8c0.4,1,0.3,2,0,2.9
			c0.6,0.7,1,1.7,1,2.7c0,0,0,0,0,0.1c0,0.3,0,0.5,0,0.8c-0.1,1-0.5,2-1.2,2.7c0.3,0.9,0.3,2-0.1,2.9c-0.1,0.3-0.2,0.5-0.3,0.8
			c-0.4,0.9-1.2,1.6-2.1,2c-0.1,1-0.5,1.9-1.2,2.7c-0.2,0.2-0.4,0.4-0.6,0.6c-0.8,0.7-1.7,1.1-2.7,1.1c-0.4,0.9-1.2,1.6-2.1,2
			c-0.2,0.1-0.5,0.2-0.8,0.3c-1,0.4-2,0.3-2.9,0c-0.7,0.6-1.6,1-2.6,1C-128.7,466.5-128.7,466.5-128.7,466.5z M-128.7,458.2
			c0.5,0,1.1,0.1,1.5,0.3c0.4-0.3,0.8-0.6,1.3-0.8c0.1,0,0.3-0.1,0.4-0.2c0.5-0.2,1-0.3,1.5-0.3c0.2-0.5,0.5-0.9,0.9-1.2
			c0.1-0.1,0.2-0.2,0.3-0.3c0.4-0.4,0.8-0.7,1.3-0.9c0-0.5,0.2-1,0.4-1.5c0.1-0.1,0.1-0.2,0.2-0.4c0.2-0.5,0.5-0.9,0.8-1.3
			c-0.2-0.5-0.2-1-0.2-1.5c0-0.1,0-0.3,0-0.4c0,0,0-0.1,0-0.1c0-0.5,0.1-1,0.3-1.5c-0.3-0.4-0.6-0.8-0.8-1.3c0-0.1-0.1-0.3-0.1-0.4
			c-0.2-0.5-0.3-1-0.3-1.5c-0.5-0.2-0.9-0.5-1.2-0.9c-0.1-0.1-0.2-0.2-0.3-0.3c-0.4-0.4-0.7-0.8-0.9-1.3c-0.5,0-1-0.2-1.5-0.4
			c-0.1-0.1-0.3-0.1-0.4-0.2c-0.5-0.2-0.9-0.5-1.3-0.8c-0.5,0.2-1,0.2-1.5,0.2c-0.1,0-0.3,0-0.4,0c-0.5,0-1.1-0.1-1.5-0.3
			c-0.4,0.3-0.8,0.6-1.3,0.8c-0.1,0-0.3,0.1-0.4,0.2c-0.5,0.2-1,0.3-1.5,0.3c-0.2,0.5-0.5,0.9-0.9,1.2c-0.1,0.1-0.2,0.2-0.3,0.3
			c-0.4,0.4-0.8,0.7-1.3,0.9c0,0.5-0.2,1-0.4,1.5c-0.1,0.1-0.1,0.3-0.2,0.4c-0.2,0.5-0.5,0.9-0.8,1.3c0.2,0.5,0.2,1,0.2,1.5
			c0,0.1,0,0.2,0,0.4c0,0,0,0,0,0.1c0,0.5-0.1,1-0.3,1.5c0.3,0.4,0.6,0.8,0.8,1.3c0,0.1,0.1,0.3,0.1,0.4c0.2,0.5,0.3,1,0.3,1.5
			c0.5,0.2,0.9,0.5,1.2,0.9c0.1,0.1,0.2,0.2,0.3,0.3c0.4,0.4,0.7,0.8,0.9,1.3c0.5,0,1,0.2,1.5,0.4c0.1,0.1,0.2,0.1,0.4,0.2
			c0.5,0.2,0.9,0.5,1.3,0.8c0.5-0.2,1-0.2,1.5-0.2C-129,458.2-128.9,458.2-128.7,458.2z"/>
	</g>
	<g>
		<circle class="st3" cx="-131.1" cy="446.9" r="12.7"/>
		<path class="st3" d="M-131.1,463.7c-0.3,0-0.5,0-0.8,0c-1,0-2-0.5-2.7-1.2c-0.9,0.3-2,0.3-2.9-0.1c-0.3-0.1-0.5-0.2-0.8-0.3
			c-0.9-0.4-1.6-1.2-2-2.1c-1-0.1-1.9-0.5-2.7-1.2c-0.2-0.2-0.4-0.4-0.6-0.6c-0.7-0.8-1.1-1.7-1.1-2.7c-0.9-0.4-1.6-1.2-2-2.1
			c-0.1-0.3-0.2-0.5-0.3-0.8c-0.4-1-0.3-2,0-2.9c-0.6-0.7-1-1.6-1-2.7c0,0,0-0.1,0-0.1c0-0.3,0-0.5,0-0.8c0-1,0.5-2,1.2-2.7
			c-0.3-0.9-0.3-2,0.1-2.9c0.1-0.3,0.2-0.5,0.3-0.8c0.4-1,1.2-1.7,2.1-2c0.1-1,0.5-1.9,1.2-2.7c0.2-0.2,0.4-0.4,0.6-0.6
			c0.8-0.7,1.7-1.1,2.7-1.1c0.4-0.9,1.2-1.6,2.1-2c0.3-0.1,0.5-0.2,0.8-0.3c1-0.4,2-0.3,2.9,0c0.7-0.6,1.7-1,2.7-1h0
			c0.3,0,0.5,0,0.8,0c1,0,2,0.5,2.7,1.2c0.9-0.3,2-0.3,2.9,0.1c0.3,0.1,0.5,0.2,0.8,0.3c1,0.4,1.7,1.2,2,2.1c1,0.1,1.9,0.5,2.7,1.2
			c0.2,0.2,0.4,0.4,0.6,0.6c0.7,0.8,1.1,1.7,1.1,2.7c0.9,0.4,1.6,1.2,2,2.1c0.1,0.3,0.2,0.5,0.3,0.8c0.4,1,0.3,2,0,2.9
			c0.6,0.7,1,1.7,1,2.7c0,0,0,0,0,0.1c0,0.3,0,0.5,0,0.8c-0.1,1-0.5,2-1.2,2.7c0.3,0.9,0.3,2-0.1,2.9c-0.1,0.3-0.2,0.5-0.3,0.8
			c-0.4,0.9-1.2,1.6-2.1,2c-0.1,1-0.5,1.9-1.2,2.7c-0.2,0.2-0.4,0.4-0.6,0.6c-0.8,0.7-1.7,1.1-2.7,1.1c-0.4,0.9-1.2,1.6-2.1,2
			c-0.2,0.1-0.5,0.2-0.8,0.3c-1,0.4-2,0.3-2.9,0c-0.7,0.6-1.6,1-2.6,1C-131,463.7-131,463.7-131.1,463.7z M-131.1,455.4
			c0.5,0,1.1,0.1,1.5,0.3c0.4-0.3,0.8-0.6,1.3-0.8c0.1,0,0.3-0.1,0.4-0.2c0.5-0.2,1-0.3,1.5-0.3c0.2-0.5,0.5-0.9,0.9-1.2
			c0.1-0.1,0.2-0.2,0.3-0.3c0.4-0.4,0.8-0.7,1.3-0.9c0-0.5,0.2-1,0.4-1.5c0.1-0.1,0.1-0.2,0.2-0.4c0.2-0.5,0.5-0.9,0.8-1.3
			c-0.2-0.5-0.2-1-0.2-1.5c0-0.1,0-0.3,0-0.4c0,0,0-0.1,0-0.1c0-0.5,0.1-1,0.3-1.5c-0.3-0.4-0.6-0.8-0.8-1.3c0-0.1-0.1-0.3-0.1-0.4
			c-0.2-0.5-0.3-1-0.3-1.5c-0.5-0.2-0.9-0.5-1.2-0.9c-0.1-0.1-0.2-0.2-0.3-0.3c-0.4-0.4-0.7-0.8-0.9-1.3c-0.5,0-1-0.2-1.5-0.4
			c-0.1-0.1-0.3-0.1-0.4-0.2c-0.5-0.2-0.9-0.5-1.3-0.8c-0.5,0.2-1,0.2-1.5,0.2c-0.1,0-0.3,0-0.4,0c-0.5,0-1.1-0.1-1.5-0.3
			c-0.4,0.3-0.8,0.6-1.3,0.8c-0.1,0-0.3,0.1-0.4,0.2c-0.5,0.2-1,0.3-1.5,0.3c-0.2,0.5-0.5,0.9-0.9,1.2c-0.1,0.1-0.2,0.2-0.3,0.3
			c-0.4,0.4-0.8,0.7-1.3,0.9c0,0.5-0.2,1-0.4,1.5c-0.1,0.1-0.1,0.3-0.2,0.4c-0.2,0.5-0.5,0.9-0.8,1.3c0.2,0.5,0.2,1,0.2,1.5
			c0,0.1,0,0.2,0,0.4c0,0,0,0,0,0.1c0,0.5-0.1,1-0.3,1.5c0.3,0.4,0.6,0.8,0.8,1.3c0,0.1,0.1,0.3,0.1,0.4c0.2,0.5,0.3,1,0.3,1.5
			c0.5,0.2,0.9,0.5,1.2,0.9c0.1,0.1,0.2,0.2,0.3,0.3c0.4,0.4,0.7,0.8,0.9,1.3c0.5,0,1,0.2,1.5,0.4c0.1,0.1,0.2,0.1,0.4,0.2
			c0.5,0.2,0.9,0.5,1.3,0.8c0.5-0.2,1-0.2,1.5-0.2C-131.3,455.4-131.2,455.4-131.1,455.4z"/>
	</g>
	<circle class="st4" cx="-136.3" cy="441.6" r="2"/>
	<circle class="st4" cx="-122.8" cy="444.5" r="2.8"/>
	<circle class="st4" cx="-132.3" cy="451.7" r="4"/>
</g>
<g>
	<g>
		<circle class="st2" cx="-88.7" cy="449.7" r="12.7"/>
		<path class="st2" d="M-88.7,466.5c-0.3,0-0.5,0-0.8,0c-1,0-2-0.5-2.7-1.2c-0.9,0.3-2,0.3-2.9-0.1c-0.3-0.1-0.5-0.2-0.8-0.3
			c-0.9-0.4-1.6-1.2-2-2.1c-1-0.1-1.9-0.5-2.7-1.2c-0.2-0.2-0.4-0.4-0.6-0.6c-0.7-0.8-1.1-1.7-1.1-2.7c-0.9-0.4-1.6-1.2-2-2.1
			c-0.1-0.3-0.2-0.5-0.3-0.8c-0.4-1-0.3-2,0-2.9c-0.6-0.7-1-1.6-1-2.7c0,0,0-0.1,0-0.1c0-0.3,0-0.5,0-0.8c0-1,0.5-2,1.2-2.7
			c-0.3-0.9-0.3-2,0.1-2.9c0.1-0.3,0.2-0.5,0.3-0.8c0.4-1,1.2-1.7,2.1-2c0.1-1,0.5-1.9,1.2-2.7c0.2-0.2,0.4-0.4,0.6-0.6
			c0.8-0.7,1.7-1.1,2.7-1.1c0.4-0.9,1.2-1.6,2.1-2c0.3-0.1,0.5-0.2,0.8-0.3c1-0.4,2-0.3,2.9,0c0.7-0.6,1.7-1,2.7-1h0
			c0.3,0,0.5,0,0.8,0c1,0,2,0.5,2.7,1.2c0.9-0.3,2-0.3,2.9,0.1c0.3,0.1,0.5,0.2,0.8,0.3c1,0.4,1.7,1.2,2,2.1c1,0.1,1.9,0.5,2.7,1.2
			c0.2,0.2,0.4,0.4,0.6,0.6c0.7,0.8,1.1,1.7,1.1,2.7c0.9,0.4,1.6,1.2,2,2.1c0.1,0.3,0.2,0.5,0.3,0.8c0.4,1,0.3,2,0,2.9
			c0.6,0.7,1,1.7,1,2.7c0,0,0,0,0,0.1c0,0.3,0,0.5,0,0.8c-0.1,1-0.5,2-1.2,2.7c0.3,0.9,0.3,2-0.1,2.9c-0.1,0.3-0.2,0.5-0.3,0.8
			c-0.4,0.9-1.2,1.6-2.1,2c-0.1,1-0.5,1.9-1.2,2.7c-0.2,0.2-0.4,0.4-0.6,0.6c-0.8,0.7-1.7,1.1-2.7,1.1c-0.4,0.9-1.2,1.6-2.1,2
			c-0.2,0.1-0.5,0.2-0.8,0.3c-1,0.4-2,0.3-2.9,0c-0.7,0.6-1.6,1-2.6,1C-88.7,466.5-88.7,466.5-88.7,466.5z M-88.7,458.2
			c0.5,0,1.1,0.1,1.5,0.3c0.4-0.3,0.8-0.6,1.3-0.8c0.1,0,0.3-0.1,0.4-0.2c0.5-0.2,1-0.3,1.5-0.3c0.2-0.5,0.5-0.9,0.9-1.2
			c0.1-0.1,0.2-0.2,0.3-0.3c0.4-0.4,0.8-0.7,1.3-0.9c0-0.5,0.2-1,0.4-1.5c0.1-0.1,0.1-0.2,0.2-0.4c0.2-0.5,0.5-0.9,0.8-1.3
			c-0.2-0.5-0.2-1-0.2-1.5c0-0.1,0-0.3,0-0.4c0,0,0-0.1,0-0.1c0-0.5,0.1-1,0.3-1.5c-0.3-0.4-0.6-0.8-0.8-1.3c0-0.1-0.1-0.3-0.1-0.4
			c-0.2-0.5-0.3-1-0.3-1.5c-0.5-0.2-0.9-0.5-1.2-0.9c-0.1-0.1-0.2-0.2-0.3-0.3c-0.4-0.4-0.7-0.8-0.9-1.3c-0.5,0-1-0.2-1.5-0.4
			c-0.1-0.1-0.3-0.1-0.4-0.2c-0.5-0.2-0.9-0.5-1.3-0.8c-0.5,0.2-1,0.2-1.5,0.2c-0.1,0-0.3,0-0.4,0c-0.5,0-1.1-0.1-1.5-0.3
			c-0.4,0.3-0.8,0.6-1.3,0.8c-0.1,0-0.3,0.1-0.4,0.2c-0.5,0.2-1,0.3-1.5,0.3c-0.2,0.5-0.5,0.9-0.9,1.2c-0.1,0.1-0.2,0.2-0.3,0.3
			c-0.4,0.4-0.8,0.7-1.3,0.9c0,0.5-0.2,1-0.4,1.5c-0.1,0.1-0.1,0.3-0.2,0.4c-0.2,0.5-0.5,0.9-0.8,1.3c0.2,0.5,0.2,1,0.2,1.5
			c0,0.1,0,0.2,0,0.4c0,0,0,0,0,0.1c0,0.5-0.1,1-0.3,1.5c0.3,0.4,0.6,0.8,0.8,1.3c0,0.1,0.1,0.3,0.1,0.4c0.2,0.5,0.3,1,0.3,1.5
			c0.5,0.2,0.9,0.5,1.2,0.9c0.1,0.1,0.2,0.2,0.3,0.3c0.4,0.4,0.7,0.8,0.9,1.3c0.5,0,1,0.2,1.5,0.4c0.1,0.1,0.2,0.1,0.4,0.2
			c0.5,0.2,0.9,0.5,1.3,0.8c0.5-0.2,1-0.2,1.5-0.2C-89,458.2-88.9,458.2-88.7,458.2z"/>
	</g>
	<g>
		<circle class="st3" cx="-91.1" cy="446.9" r="12.7"/>
		<path class="st3" d="M-91.1,463.7c-0.3,0-0.5,0-0.8,0c-1,0-2-0.5-2.7-1.2c-0.9,0.3-2,0.3-2.9-0.1c-0.3-0.1-0.5-0.2-0.8-0.3
			c-0.9-0.4-1.6-1.2-2-2.1c-1-0.1-1.9-0.5-2.7-1.2c-0.2-0.2-0.4-0.4-0.6-0.6c-0.7-0.8-1.1-1.7-1.1-2.7c-0.9-0.4-1.6-1.2-2-2.1
			c-0.1-0.3-0.2-0.5-0.3-0.8c-0.4-1-0.3-2,0-2.9c-0.6-0.7-1-1.6-1-2.7c0,0,0-0.1,0-0.1c0-0.3,0-0.5,0-0.8c0-1,0.5-2,1.2-2.7
			c-0.3-0.9-0.3-2,0.1-2.9c0.1-0.3,0.2-0.5,0.3-0.8c0.4-1,1.2-1.7,2.1-2c0.1-1,0.5-1.9,1.2-2.7c0.2-0.2,0.4-0.4,0.6-0.6
			c0.8-0.7,1.7-1.1,2.7-1.1c0.4-0.9,1.2-1.6,2.1-2c0.3-0.1,0.5-0.2,0.8-0.3c1-0.4,2-0.3,2.9,0c0.7-0.6,1.7-1,2.7-1h0
			c0.3,0,0.5,0,0.8,0c1,0,2,0.5,2.7,1.2c0.9-0.3,2-0.3,2.9,0.1c0.3,0.1,0.5,0.2,0.8,0.3c1,0.4,1.7,1.2,2,2.1c1,0.1,1.9,0.5,2.7,1.2
			c0.2,0.2,0.4,0.4,0.6,0.6c0.7,0.8,1.1,1.7,1.1,2.7c0.9,0.4,1.6,1.2,2,2.1c0.1,0.3,0.2,0.5,0.3,0.8c0.4,1,0.3,2,0,2.9
			c0.6,0.7,1,1.7,1,2.7c0,0,0,0,0,0.1c0,0.3,0,0.5,0,0.8c-0.1,1-0.5,2-1.2,2.7c0.3,0.9,0.3,2-0.1,2.9c-0.1,0.3-0.2,0.5-0.3,0.8
			c-0.4,0.9-1.2,1.6-2.1,2c-0.1,1-0.5,1.9-1.2,2.7c-0.2,0.2-0.4,0.4-0.6,0.6c-0.8,0.7-1.7,1.1-2.7,1.1c-0.4,0.9-1.2,1.6-2.1,2
			c-0.2,0.1-0.5,0.2-0.8,0.3c-1,0.4-2,0.3-2.9,0c-0.7,0.6-1.6,1-2.6,1C-91,463.7-91,463.7-91.1,463.7z M-91.1,455.4
			c0.5,0,1.1,0.1,1.5,0.3c0.4-0.3,0.8-0.6,1.3-0.8c0.1,0,0.3-0.1,0.4-0.2c0.5-0.2,1-0.3,1.5-0.3c0.2-0.5,0.5-0.9,0.9-1.2
			c0.1-0.1,0.2-0.2,0.3-0.3c0.4-0.4,0.8-0.7,1.3-0.9c0-0.5,0.2-1,0.4-1.5c0.1-0.1,0.1-0.2,0.2-0.4c0.2-0.5,0.5-0.9,0.8-1.3
			c-0.2-0.5-0.2-1-0.2-1.5c0-0.1,0-0.3,0-0.4c0,0,0-0.1,0-0.1c0-0.5,0.1-1,0.3-1.5c-0.3-0.4-0.6-0.8-0.8-1.3c0-0.1-0.1-0.3-0.1-0.4
			c-0.2-0.5-0.3-1-0.3-1.5c-0.5-0.2-0.9-0.5-1.2-0.9c-0.1-0.1-0.2-0.2-0.3-0.3c-0.4-0.4-0.7-0.8-0.9-1.3c-0.5,0-1-0.2-1.5-0.4
			c-0.1-0.1-0.3-0.1-0.4-0.2c-0.5-0.2-0.9-0.5-1.3-0.8c-0.5,0.2-1,0.2-1.5,0.2c-0.1,0-0.3,0-0.4,0c-0.5,0-1.1-0.1-1.5-0.3
			c-0.4,0.3-0.8,0.6-1.3,0.8c-0.1,0-0.3,0.1-0.4,0.2c-0.5,0.2-1,0.3-1.5,0.3c-0.2,0.5-0.5,0.9-0.9,1.2c-0.1,0.1-0.2,0.2-0.3,0.3
			c-0.4,0.4-0.8,0.7-1.3,0.9c0,0.5-0.2,1-0.4,1.5c-0.1,0.1-0.1,0.3-0.2,0.4c-0.2,0.5-0.5,0.9-0.8,1.3c0.2,0.5,0.2,1,0.2,1.5
			c0,0.1,0,0.2,0,0.4c0,0,0,0,0,0.1c0,0.5-0.1,1-0.3,1.5c0.3,0.4,0.6,0.8,0.8,1.3c0,0.1,0.1,0.3,0.1,0.4c0.2,0.5,0.3,1,0.3,1.5
			c0.5,0.2,0.9,0.5,1.2,0.9c0.1,0.1,0.2,0.2,0.3,0.3c0.4,0.4,0.7,0.8,0.9,1.3c0.5,0,1,0.2,1.5,0.4c0.1,0.1,0.2,0.1,0.4,0.2
			c0.5,0.2,0.9,0.5,1.3,0.8c0.5-0.2,1-0.2,1.5-0.2C-91.3,455.4-91.2,455.4-91.1,455.4z"/>
	</g>
	<circle class="st4" cx="-96.3" cy="441.6" r="2"/>
	<circle class="st4" cx="-82.8" cy="444.5" r="2.8"/>
	<circle class="st4" cx="-92.3" cy="451.7" r="4"/>
</g>
<g>
	<g>
		<circle class="st2" cx="-47.7" cy="449.7" r="12.7"/>
		<path class="st2" d="M-47.7,466.5c-0.3,0-0.5,0-0.8,0c-1,0-2-0.5-2.7-1.2c-0.9,0.3-2,0.3-2.9-0.1c-0.3-0.1-0.5-0.2-0.8-0.3
			c-0.9-0.4-1.6-1.2-2-2.1c-1-0.1-1.9-0.5-2.7-1.2c-0.2-0.2-0.4-0.4-0.6-0.6c-0.7-0.8-1.1-1.7-1.1-2.7c-0.9-0.4-1.6-1.2-2-2.1
			c-0.1-0.3-0.2-0.5-0.3-0.8c-0.4-1-0.3-2,0-2.9c-0.6-0.7-1-1.6-1-2.7c0,0,0-0.1,0-0.1c0-0.3,0-0.5,0-0.8c0-1,0.5-2,1.2-2.7
			c-0.3-0.9-0.3-2,0.1-2.9c0.1-0.3,0.2-0.5,0.3-0.8c0.4-1,1.2-1.7,2.1-2c0.1-1,0.5-1.9,1.2-2.7c0.2-0.2,0.4-0.4,0.6-0.6
			c0.8-0.7,1.7-1.1,2.7-1.1c0.4-0.9,1.2-1.6,2.1-2c0.3-0.1,0.5-0.2,0.8-0.3c1-0.4,2-0.3,2.9,0c0.7-0.6,1.7-1,2.7-1h0
			c0.3,0,0.5,0,0.8,0c1,0,2,0.5,2.7,1.2c0.9-0.3,2-0.3,2.9,0.1c0.3,0.1,0.5,0.2,0.8,0.3c1,0.4,1.7,1.2,2,2.1c1,0.1,1.9,0.5,2.7,1.2
			c0.2,0.2,0.4,0.4,0.6,0.6c0.7,0.8,1.1,1.7,1.1,2.7c0.9,0.4,1.6,1.2,2,2.1c0.1,0.3,0.2,0.5,0.3,0.8c0.4,1,0.3,2,0,2.9
			c0.6,0.7,1,1.7,1,2.7c0,0,0,0,0,0.1c0,0.3,0,0.5,0,0.8c-0.1,1-0.5,2-1.2,2.7c0.3,0.9,0.3,2-0.1,2.9c-0.1,0.3-0.2,0.5-0.3,0.8
			c-0.4,0.9-1.2,1.6-2.1,2c-0.1,1-0.5,1.9-1.2,2.7c-0.2,0.2-0.4,0.4-0.6,0.6c-0.8,0.7-1.7,1.1-2.7,1.1c-0.4,0.9-1.2,1.6-2.1,2
			c-0.2,0.1-0.5,0.2-0.8,0.3c-1,0.4-2,0.3-2.9,0c-0.7,0.6-1.6,1-2.6,1C-47.7,466.5-47.7,466.5-47.7,466.5z M-47.7,458.2
			c0.5,0,1.1,0.1,1.5,0.3c0.4-0.3,0.8-0.6,1.3-0.8c0.1,0,0.3-0.1,0.4-0.2c0.5-0.2,1-0.3,1.5-0.3c0.2-0.5,0.5-0.9,0.9-1.2
			c0.1-0.1,0.2-0.2,0.3-0.3c0.4-0.4,0.8-0.7,1.3-0.9c0-0.5,0.2-1,0.4-1.5c0.1-0.1,0.1-0.2,0.2-0.4c0.2-0.5,0.5-0.9,0.8-1.3
			c-0.2-0.5-0.2-1-0.2-1.5c0-0.1,0-0.3,0-0.4c0,0,0-0.1,0-0.1c0-0.5,0.1-1,0.3-1.5c-0.3-0.4-0.6-0.8-0.8-1.3c0-0.1-0.1-0.3-0.1-0.4
			c-0.2-0.5-0.3-1-0.3-1.5c-0.5-0.2-0.9-0.5-1.2-0.9c-0.1-0.1-0.2-0.2-0.3-0.3c-0.4-0.4-0.7-0.8-0.9-1.3c-0.5,0-1-0.2-1.5-0.4
			c-0.1-0.1-0.3-0.1-0.4-0.2c-0.5-0.2-0.9-0.5-1.3-0.8c-0.5,0.2-1,0.2-1.5,0.2c-0.1,0-0.3,0-0.4,0c-0.5,0-1.1-0.1-1.5-0.3
			c-0.4,0.3-0.8,0.6-1.3,0.8c-0.1,0-0.3,0.1-0.4,0.2c-0.5,0.2-1,0.3-1.5,0.3c-0.2,0.5-0.5,0.9-0.9,1.2c-0.1,0.1-0.2,0.2-0.3,0.3
			c-0.4,0.4-0.8,0.7-1.3,0.9c0,0.5-0.2,1-0.4,1.5c-0.1,0.1-0.1,0.3-0.2,0.4c-0.2,0.5-0.5,0.9-0.8,1.3c0.2,0.5,0.2,1,0.2,1.5
			c0,0.1,0,0.2,0,0.4c0,0,0,0,0,0.1c0,0.5-0.1,1-0.3,1.5c0.3,0.4,0.6,0.8,0.8,1.3c0,0.1,0.1,0.3,0.1,0.4c0.2,0.5,0.3,1,0.3,1.5
			c0.5,0.2,0.9,0.5,1.2,0.9c0.1,0.1,0.2,0.2,0.3,0.3c0.4,0.4,0.7,0.8,0.9,1.3c0.5,0,1,0.2,1.5,0.4c0.1,0.1,0.2,0.1,0.4,0.2
			c0.5,0.2,0.9,0.5,1.3,0.8c0.5-0.2,1-0.2,1.5-0.2C-48,458.2-47.9,458.2-47.7,458.2z"/>
	</g>
	<g>
		<circle class="st3" cx="-50.1" cy="446.9" r="12.7"/>
		<path class="st3" d="M-50.1,463.7c-0.3,0-0.5,0-0.8,0c-1,0-2-0.5-2.7-1.2c-0.9,0.3-2,0.3-2.9-0.1c-0.3-0.1-0.5-0.2-0.8-0.3
			c-0.9-0.4-1.6-1.2-2-2.1c-1-0.1-1.9-0.5-2.7-1.2c-0.2-0.2-0.4-0.4-0.6-0.6c-0.7-0.8-1.1-1.7-1.1-2.7c-0.9-0.4-1.6-1.2-2-2.1
			c-0.1-0.3-0.2-0.5-0.3-0.8c-0.4-1-0.3-2,0-2.9c-0.6-0.7-1-1.6-1-2.7c0,0,0-0.1,0-0.1c0-0.3,0-0.5,0-0.8c0-1,0.5-2,1.2-2.7
			c-0.3-0.9-0.3-2,0.1-2.9c0.1-0.3,0.2-0.5,0.3-0.8c0.4-1,1.2-1.7,2.1-2c0.1-1,0.5-1.9,1.2-2.7c0.2-0.2,0.4-0.4,0.6-0.6
			c0.8-0.7,1.7-1.1,2.7-1.1c0.4-0.9,1.2-1.6,2.1-2c0.3-0.1,0.5-0.2,0.8-0.3c1-0.4,2-0.3,2.9,0c0.7-0.6,1.7-1,2.7-1h0
			c0.3,0,0.5,0,0.8,0c1,0,2,0.5,2.7,1.2c0.9-0.3,2-0.3,2.9,0.1c0.3,0.1,0.5,0.2,0.8,0.3c1,0.4,1.7,1.2,2,2.1c1,0.1,1.9,0.5,2.7,1.2
			c0.2,0.2,0.4,0.4,0.6,0.6c0.7,0.8,1.1,1.7,1.1,2.7c0.9,0.4,1.6,1.2,2,2.1c0.1,0.3,0.2,0.5,0.3,0.8c0.4,1,0.3,2,0,2.9
			c0.6,0.7,1,1.7,1,2.7c0,0,0,0,0,0.1c0,0.3,0,0.5,0,0.8c-0.1,1-0.5,2-1.2,2.7c0.3,0.9,0.3,2-0.1,2.9c-0.1,0.3-0.2,0.5-0.3,0.8
			c-0.4,0.9-1.2,1.6-2.1,2c-0.1,1-0.5,1.9-1.2,2.7c-0.2,0.2-0.4,0.4-0.6,0.6c-0.8,0.7-1.7,1.1-2.7,1.1c-0.4,0.9-1.2,1.6-2.1,2
			c-0.2,0.1-0.5,0.2-0.8,0.3c-1,0.4-2,0.3-2.9,0c-0.7,0.6-1.6,1-2.6,1C-50,463.7-50.1,463.7-50.1,463.7z M-50.1,455.4
			c0.5,0,1.1,0.1,1.5,0.3c0.4-0.3,0.8-0.6,1.3-0.8c0.1,0,0.3-0.1,0.4-0.2c0.5-0.2,1-0.3,1.5-0.3c0.2-0.5,0.5-0.9,0.9-1.2
			c0.1-0.1,0.2-0.2,0.3-0.3c0.4-0.4,0.8-0.7,1.3-0.9c0-0.5,0.2-1,0.4-1.5c0.1-0.1,0.1-0.2,0.2-0.4c0.2-0.5,0.5-0.9,0.8-1.3
			c-0.2-0.5-0.2-1-0.2-1.5c0-0.1,0-0.3,0-0.4c0,0,0-0.1,0-0.1c0-0.5,0.1-1,0.3-1.5c-0.3-0.4-0.6-0.8-0.8-1.3c0-0.1-0.1-0.3-0.1-0.4
			c-0.2-0.5-0.3-1-0.3-1.5c-0.5-0.2-0.9-0.5-1.2-0.9c-0.1-0.1-0.2-0.2-0.3-0.3c-0.4-0.4-0.7-0.8-0.9-1.3c-0.5,0-1-0.2-1.5-0.4
			c-0.1-0.1-0.3-0.1-0.4-0.2c-0.5-0.2-0.9-0.5-1.3-0.8c-0.5,0.2-1,0.2-1.5,0.2c-0.1,0-0.3,0-0.4,0c-0.5,0-1.1-0.1-1.5-0.3
			c-0.4,0.3-0.8,0.6-1.3,0.8c-0.1,0-0.3,0.1-0.4,0.2c-0.5,0.2-1,0.3-1.5,0.3c-0.2,0.5-0.5,0.9-0.9,1.2c-0.1,0.1-0.2,0.2-0.3,0.3
			c-0.4,0.4-0.8,0.7-1.3,0.9c0,0.5-0.2,1-0.4,1.5c-0.1,0.1-0.1,0.3-0.2,0.4c-0.2,0.5-0.5,0.9-0.8,1.3c0.2,0.5,0.2,1,0.2,1.5
			c0,0.1,0,0.2,0,0.4c0,0,0,0,0,0.1c0,0.5-0.1,1-0.3,1.5c0.3,0.4,0.6,0.8,0.8,1.3c0,0.1,0.1,0.3,0.1,0.4c0.2,0.5,0.3,1,0.3,1.5
			c0.5,0.2,0.9,0.5,1.2,0.9c0.1,0.1,0.2,0.2,0.3,0.3c0.4,0.4,0.7,0.8,0.9,1.3c0.5,0,1,0.2,1.5,0.4c0.1,0.1,0.2,0.1,0.4,0.2
			c0.5,0.2,0.9,0.5,1.3,0.8c0.5-0.2,1-0.2,1.5-0.2C-50.4,455.4-50.2,455.4-50.1,455.4z"/>
	</g>
	<circle class="st4" cx="-55.4" cy="441.6" r="2"/>
	<circle class="st4" cx="-41.8" cy="444.5" r="2.8"/>
	<circle class="st4" cx="-51.3" cy="451.7" r="4"/>
</g>
<path class="st5" d="M-141.6,393.7h-1.4c-2,0-3.6-1.6-3.6-3.6v-25.2c0-2,1.6-3.6,3.6-3.6h1.4c2,0,3.6,1.6,3.6,3.6v25.2
	C-138,392.1-139.6,393.7-141.6,393.7z"/>
<circle class="st5" cx="-142.3" cy="351.9" r="4.6"/>
<path class="st6" d="M-164.1,440.4v53.1c0,9.6,7.8,17.4,17.4,17.4h111.2c9.6,0,17.4-7.8,17.4-17.4v-53.1H-164.1z"/>
<path class="st7" d="M-79.3,464.6c-0.2,0-0.4,0-0.6,0c-1.6-3.7-5.4-6.4-9.7-6.4c-4.3,0-8.1,2.6-9.7,6.4c-0.1,0-0.2,0-0.3,0
	c-5.2,0-10.2,5.2-10.2,10.4c0,4.1,3.4,9.6,7.1,10.9c1.2-0.3,2.9-0.8,5.1-1.1c-2.5-0.9-2.7-2.6-2.7-2.7c0-0.2,0.1-0.4,0.3-0.4
	c0.2,0,0.4,0.1,0.4,0.3c0,0.1,0.3,2,3.9,2.4h0.1c0.8-0.1,1.7-0.2,2.7-0.3c-0.8-1.1-1.2-2.9-1.3-3.2c0-0.2,0.1-0.4,0.3-0.4
	c0.2,0,0.4,0.1,0.4,0.3c0.1,0.7,0.7,2.6,1.5,3.2c0,0,0,0,0,0.1c2.8-0.1,5.8-0.1,9.1,0.4c0.2-0.1,0.3-0.1,0.4-0.1
	c3.2-0.7,3.4-2.3,3.4-2.4c0-0.2,0.2-0.4,0.4-0.3c0.2,0,0.4,0.2,0.3,0.4c0,0.1-0.2,1.7-2.7,2.7c1.6,0.3,3.2,0.6,4.9,1.1
	c3.5-1.4,6.7-6.7,6.7-10.7C-69.2,469.9-74.1,464.6-79.3,464.6z"/>
<g>
	<circle class="st8" cx="-71.8" cy="459.8" r="11.5"/>
	<g>
		<path class="st5" d="M-74.6,458.2c-0.9,0.1-1.2,1.2-1.2,2l0,0l0,0c0,0.1,0,0.2,0,0.3c0,0.4,0,0.7-0.1,1c0,0.1-0.1,0.4-0.1,0.4
			c-0.3,0-0.6-0.5-0.7-0.7c-0.2-0.6-0.4-1.2-0.5-1.8c-0.1-0.7-0.2-1.4-0.2-2c0-0.3,0-0.6,0-0.8c0-0.1,0-0.2,0-0.3s0-0.2,0-0.2
			c0.1-0.5-0.6,0-0.8,0.2c-0.8,1.3-0.5,2.9-0.5,4.4c0,0.4,0,0.8-0.1,1.2c0,0.3-0.1,0.7-0.3,1c-0.1,0.1-0.4,0-0.5,0
			c-0.2-0.1-0.3-0.3-0.3-0.5c0-0.2-0.3-0.1-0.4,0c-0.2,0.2-0.3,0.5-0.3,0.7c0.1,0.5,0.6,1,1.1,0.8c0.8-0.3,1.2-1.3,1.4-2.1
			c0.1-0.4,0.2-0.8,0.2-1.2c0.1,0.6,0.3,1.1,0.6,1.6c0.2,0.4,0.5,0.8,1,0.7c0.4-0.1,0.6-0.5,0.8-0.9c0.2,0.4,0.4,0.7,0.9,0.6
			c0.5,0,0.9-0.6,1-0.9c0.2-0.5,0.3-1,0.3-1.5C-73.4,459.5-73.6,458.1-74.6,458.2z M-74.3,461.5c0,0.1,0,0.2-0.1,0.3
			c-0.2,0-0.3-0.3-0.4-0.4c-0.2-0.3-0.2-0.7-0.2-1c0-0.4,0-0.7,0-1.1c0-0.1,0-0.2,0.1-0.3c0.5,0.3,0.6,0.9,0.6,1.4
			C-74.3,460.7-74.2,461.1-74.3,461.5z"/>
		<path class="st5" d="M-63.2,459.5c-1-0.4-1.6,1-1.8,1.8c-0.2,0.7-0.4,2,0.5,2.4c0.4,0.2,0.9-0.1,1.2-0.4s0.5-0.8,0.6-1.3
			C-62.5,461.2-62.3,459.9-63.2,459.5z M-63.8,462.8c0,0.1-0.1,0.2-0.1,0.2c-0.2-0.1-0.2-0.4-0.2-0.6c-0.1-0.4,0-0.7,0-1.1
			c0.1-0.3,0.2-0.7,0.3-1c0-0.1,0.1-0.2,0.1-0.2c0.4,0.5,0.3,1.1,0.2,1.6C-63.6,462.1-63.7,462.5-63.8,462.8z"/>
		<path class="st5" d="M-66,459.7c0.2-0.3,0.4-0.5,0.5-0.8c0.4-0.6,0.7-1.2,0.7-1.9c0-0.7-0.9-0.7-1.4-0.5c-0.6,0.3-1,1-1.2,1.7
			c-0.3,0.9-0.4,1.8-0.4,2.7l0,0c-0.3,0.4-1,1.2-1.5,0.8c-0.1-0.1-0.2-0.3-0.2-0.4c0.4-0.4,0.8-0.9,1.1-1.4c0.3-0.5,0.5-1.2-0.1-1.6
			c-0.5-0.3-1.1,0-1.5,0.4c-0.3,0.4-0.5,0.9-0.5,1.4c0,0.3-0.1,0.7,0,1.2c-0.3,0.2-0.7,0.3-1,0.2c-0.4-0.1-0.5-0.5-0.6-0.8
			c-0.1-0.5-0.1-1,0-1.5c0-0.1,0.1-0.3,0.1-0.4v-0.1c0.2,0.1,0.3,0.5,0.4,0.7c0.1,0.3,1-0.2,0.9-0.5c-0.1-0.3-0.2-0.7-0.6-0.9
			c-0.4-0.2-0.9,0.1-1.1,0.3c-0.6,0.6-0.7,1.5-0.6,2.4c0,0.5,0.1,1.2,0.6,1.5c0.6,0.4,1.5,0,2.1-0.3c0.2,0.4,0.4,0.7,0.9,0.6
			c0.6-0.1,1.2-0.4,1.6-0.8c0,0.5,0.1,1,0.5,1.2c0.5,0.3,1.2,0,1.6-0.5c0.5-0.6,0.7-1.4,0.5-2.2C-65.4,459.8-65.7,459.7-66,459.7z
			 M-69.5,459.3c0-0.1,0.1-0.3,0.2-0.4l0,0c0.2,0.1,0.3,0.4,0.3,0.6c-0.1,0.4-0.3,0.8-0.6,1.1c0-0.1,0-0.1,0-0.2
			C-69.6,460-69.6,459.7-69.5,459.3z M-66.2,457.4c0.1-0.1,0.2-0.3,0.3-0.4l0,0c0.4,0.4,0,1.1-0.2,1.5s-0.5,0.8-0.7,1.2
			c0.1-0.4,0.1-0.8,0.2-1.2C-66.5,458.1-66.3,457.8-66.2,457.4z M-66.4,462.1c0,0-0.1,0.1-0.1,0.2h-0.1c-0.3-0.1-0.3-0.7-0.3-0.9
			c0-0.2,0-0.4,0-0.6c0.1-0.1,0.2-0.2,0.3-0.4c0.2-0.2,0.4,0.1,0.4,0.4C-66,461.2-66.2,461.7-66.4,462.1z"/>
	</g>
</g>
<g>
	<path class="st8" d="M-123.1,467.5c-0.1,0.1,0.3,0.2,0.4,0.3c0,0.1-0.2,0-0.3,0c0,0.1,0.1,0.1,0.2,0.2c0,0-0.1,0-0.1,0.1
		c0.2,0.1,0.3,0.4,0.6,0.6c0.5,0.2,1.2,0.4,1.2,0.5c0.1-0.9-0.3-1.8,0.4-2.6c0-0.1-0.1-0.1-0.1-0.2c0.1,0,0.1,0,0.1,0
		c0-0.1-0.2-0.1-0.1-0.2c0,0,0.1,0,0.2,0s-0.1-0.1-0.1-0.2s0.2,0,0.2,0c0-0.1-0.3-0.2-0.3-0.5c0.2,0.1,0.3,0.2,0.4,0.3
		c-0.1-0.2-0.3-0.3-0.3-0.6c0.2,0.1,0.3,0.3,0.5,0.4c-0.1-0.2-0.3-0.4-0.3-0.7c0.3,0.1,0.3,0.4,0.6,0.5c-0.1-0.4-0.4-0.8-0.4-1.2
		c0.3,0.3,0.4,0.7,0.6,1c0-0.4-0.2-0.9-0.2-1.5c0.2,0.4,0.3,0.9,0.5,1.4c0.1-0.5-0.3-1.2-0.1-1.7c0.2,0.5,0.2,1,0.4,1.5
		c0-0.5-0.1-1.2,0-1.8c0.2,0.5,0.2,1.2,0.3,1.8c0.1-0.4-0.1-1.3,0.2-1.5c0,0.5,0,0.9,0,1.3c0,0.7,0.4,1.5,0.1,2.1
		c-0.2,0.7-0.8,1.3-0.8,2.2c1.1,0.3,1.4,0.3,2.3,0.3c0.4,0,0.7-0.2,1.1-0.1c0.1,0,0.2,0.2,0.3,0.2c0.3,0.1,0.5,0.1,0.8,0.1
		c-0.4,0.1-1.3,0.2-1.4,0.2c-0.2,0-0.8-0.1-0.4-0.1c0.3,0,0.6,0,0.6-0.1c0-0.3-0.5-0.1-0.8,0c-0.9,0.1-1.4,0.3-2.9,0
		c0.4,0,0.4-0.3,0.4-0.5c-0.1-1.2,0.1-1.4,0.5-2c0.6-1-0.2-1-0.4-1.4c-0.1,0.1,0,0.4,0,0.5c-0.1-0.1-0.2-0.4-0.3-0.5
		c-0.1,0.1,0.1,0.3,0.1,0.5c-0.1-0.1-0.2-0.2-0.3-0.3c-0.1,0.1,0.1,0.3,0.1,0.4c-0.1,0-0.2-0.2-0.3-0.2c-0.1,0.1,0.1,0.1,0,0.2
		c-0.1,0-0.1-0.1-0.2,0c0,0.1,0,0.2,0.1,0.2c0,0.1-0.1,0-0.1,0c-0.1,0,0,0.1,0,0.2c-0.8-0.1-0.2,2.3-0.8,3.2
		c0.4,0.3,1.3,0.2,1.9,0.1c-0.7,0.5-1.4,0.3-2.1,0.4c-0.1,0-0.2,0.1-0.3,0.1c-0.4,0.1-0.9,0.3-1.3,0.4c-0.4,0.2-1.9,0.5-2,0.5
		c3.6-1.2,3-1.4,3.3-1.7c-0.6-0.2-0.8-0.9-1.2-1.1c0,0,0-0.1,0.1-0.1c0-0.1-0.1,0-0.2,0c0-0.1,0-0.1,0.1-0.1c0-0.1-0.2,0-0.3-0.1
		c0-0.1,0.1-0.1,0.2-0.1c-0.1-0.1-0.3-0.1-0.4-0.2c0.1-0.1,0.2-0.1,0.4-0.1c-0.1-0.1-0.4-0.1-0.5-0.2c0.2,0,0.4,0,0.5,0
		c-0.2-0.2-0.6-0.2-0.7-0.5c0.3,0,0.5,0.1,0.7,0.2c-0.3-0.2-0.7-0.3-0.8-0.7c0.3,0.1,0.6,0.3,0.9,0.5c-0.1-0.2-0.7-0.4-0.9-0.8
		c0.4,0,0.7,0.4,1.1,0.5c-0.2,0-0.5-0.3-0.8-0.4c0.1,0.2,0.5,0.5,0.9,0.7c-0.2,0.1-0.5-0.1-0.7-0.2c0,0.2,0.4,0.4,0.6,0.5
		C-122.8,467.6-122.9,467.5-123.1,467.5"/>
	<path class="st8" d="M-119.9,461.1c-4,0-7.2,3.2-7.2,7.2s3.2,7.2,7.2,7.2s7.2-3.2,7.2-7.2C-112.7,464.3-116,461.1-119.9,461.1
		 M-119.9,461.4c3.8,0,6.9,3.1,6.9,6.9s-3.1,6.9-6.9,6.9s-6.9-3.1-6.9-6.9C-126.9,464.5-123.8,461.4-119.9,461.4"/>
</g>
<g>
	<g>
		<g>
			<path class="st5" d="M-104.9,480.5c0.8,1.4,2.4,0.2,2.6-1.1c0.2-1.9-1-3.7-1.9-5.3c-0.1-0.2-0.4,0.1-0.4,0.1
				c-0.9,0.9-1.9,2.3-1.3,3.3c0.2,0.3,0.9-0.7,0.7-1c-0.3-0.5,0.4-1.2,0.8-1.6c-0.1,0-0.3,0.1-0.4,0.1c0.4,0.6,0.8,1.3,1.1,1.9
				c0.2,0.4,0.3,0.8,0.5,1.2c0.1,0.3,0.2,0.5,0.3,0.8c-0.3,1.3-0.6,1.5-1.2,0.7C-104.4,479.3-105,480.2-104.9,480.5L-104.9,480.5z"
				/>
			<path class="st5" d="M-100,478.6c-0.3,0.8-0.8-0.6-0.8-0.8c-0.1-0.3-0.2-0.6-0.5-0.8c-0.5-0.4-1.1-0.2-1.6,0.2c0.1,0,0.2,0,0.3,0
				c-0.3-0.8-0.8-2.8,0.9-2.1c0.4,0.2,0.9-0.8,0.6-1c-1-0.5-1.7-0.1-2.3,0.8c-0.6,0.9-0.3,2.1,0.1,3c0.1,0.2,0.2,0.1,0.4,0
				c1.4-1.1,1.5,1.2,2.2,1.8c0.6,0.5,1.2-0.9,1.3-1.2C-99.2,477.9-99.9,478.1-100,478.6L-100,478.6z"/>
		</g>
		<path class="st5" d="M-96.6,478.2c0.3,0.9,1.3,0.6,1.8-0.1c0.3-0.5,0.3-1,0.3-1.6c0-0.8,0-1.6,0.3-2.5c-0.3,0.2-0.6,0.3-0.9,0.5
			c0.2,1.1,0.3,3,1.2,3.8c0.7,0.6,1.7-0.8,1.9-1.2c0.3-0.6-0.6-0.2-0.7,0.1c-0.3,0.8-0.8-0.4-0.9-0.6c-0.3-0.9-0.4-1.8-0.5-2.7
			c-0.1-0.5-0.9,0.3-0.9,0.5c-0.2,0.6-0.2,1.1-0.3,1.7c0,0.3,0,0.7,0,1c0,0.2,0,0.4,0,0.5c0,0.5-0.3,0.2-0.4,0
			C-96,477.1-96.7,477.9-96.6,478.2L-96.6,478.2z"/>
		<path class="st5" d="M-89.5,473.9c0.1,1.3,0.2,2.6,0.1,3.9c0,0.5,0.8-0.1,0.8-0.4c0.1-0.8,0.3-1.2,0.8-1.7c0.6-0.6,0.9-1.3,1.2-2
			c0.2-0.6-0.8-0.1-0.9,0.2c-0.4,1-0.4,2.2-0.3,3.2c0,0.3,0,0.7,0.3,0.9c0.4,0.3,1-0.2,1.3-0.4c0.5-0.4,0.1-0.8-0.4-0.4
			c-0.4,0.3-0.3-1.2-0.3-1.4c0-0.7,0.1-1.5,0.4-2.1c-0.3,0.1-0.6,0.1-0.9,0.2c-0.2,0.8-0.5,1.3-1.1,1.9s-0.7,1.3-0.8,2.1
			c0.3-0.2,0.5-0.3,0.8-0.4c0.1-1.3,0-2.6-0.1-3.9C-88.6,473-89.5,473.6-89.5,473.9L-89.5,473.9z"/>
		<g>
			<path class="st5" d="M-83.2,477.7c-0.1,1,0.8,1.3,1.6,0.8c0.8-0.4,1.1-1.3,1.3-2.1c0.1-0.6,0.2-1.6-0.4-2.1
				c-0.3-0.2-0.9-0.1-1.2,0.1c-0.6,0.3-0.9,0.8-1,1.4c-0.1,0.5,1,0,1-0.3c0.1-0.6,0.4-0.6,0.6-0.1c0.1,0.3,0.1,0.7,0.1,1.1
				s-0.1,0.8-0.3,1.2c-0.1,0.1-0.1,0.3-0.3,0.4c0.1-0.1,0-0.1-0.1-0.1c-0.3-0.1-0.3-0.4-0.3-0.6C-82.1,476.9-83.1,477.4-83.2,477.7
				L-83.2,477.7z"/>
			<path class="st5" d="M-82.8,473.9c0,2.4-0.5,4.9-1.1,7.2c-0.1,0.4,0.8,0,0.9-0.3c0.7-2.4,1.2-4.9,1.3-7.4
				C-81.7,473.1-82.8,473.6-82.8,473.9L-82.8,473.9z"/>
		</g>
		<g>
			<path class="st5" d="M-74.2,476.8c-0.5,0.8-0.9,1.7-1.2,2.6c-0.1,0.4-0.2,0.9,0.1,1.3c0.4,0.5,1.2,0.3,1.7,0.1
				c0.7-0.3,0-0.6-0.5-0.4c-0.3,0.1-0.3-0.7-0.3-0.8c0.1-0.4,0.2-0.8,0.4-1.2c0.2-0.6,0.5-1.1,0.9-1.6
				C-72.9,476.4-74,476.5-74.2,476.8L-74.2,476.8z"/>
			<path class="st5" d="M-77.3,479.4c0,0.8,0.8,0.9,1.4,0.7c0.9-0.3,1.5-1.1,1.9-1.8c0.2-0.4-0.9-0.2-1,0.1c-0.1,0.2,0,0,0.1,0
				c-0.1,0-0.1-0.1-0.2-0.1c-0.2-0.1-0.2-0.3-0.2-0.5c0-0.3,0.2-0.7,0.4-0.9c0.3-0.5,0.5,0.2,0.4,0.5c-0.2,0.4,0.9,0.3,1.1,0
				c0.3-0.7-0.2-1.2-1-1.2c-0.9,0-1.6,0.9-1.8,1.6c-0.4,1.5,1.7,1.7,2.3,0.6c-0.4,0-0.7,0-1,0.1c-0.2,0.4-0.4,0.7-0.7,1
				c-0.3,0.3-0.6,0-0.5-0.3C-76.3,478.7-77.3,479.1-77.3,479.4L-77.3,479.4z"/>
		</g>
		<path class="st5" d="M-89.6,477.2c-0.5,0.4-0.7-1.3-0.7-1.4c-0.1-0.7-0.1-1.5-0.1-2.2c0-0.5-0.9,0.2-0.9,0.5c0,0.6,0,1.3,0,1.9
			c0,0.3,0,0.7-0.1,1c-0.1,0.4,0,0.5-0.4,0.3c-0.9-0.5-0.6-2.6-0.4-3.4c0.1-0.6-0.8,0-0.9,0.3c-0.1,0.8-0.4,4.3,1.1,4
			c1.9-0.3,1.4-3.4,1.5-4.6c-0.3,0.2-0.6,0.3-0.9,0.5c0,1.1,0,2.4,0.4,3.4c0.3,0.9,1.1,0.5,1.6,0C-88.8,477.1-89.2,476.7-89.6,477.2
			L-89.6,477.2z"/>
		<path class="st5" d="M-77.2,479c-0.6,0.3-0.2-1.5-0.2-1.6c0.2-0.7,0.4-1.4,0.7-2.1c0.2-0.4-0.9-0.1-1,0.2
			c-0.2,0.6-0.4,1.2-0.6,1.8c-0.1,0.3-0.3,0.6-0.4,0.9c-0.2,0.3-0.2,0.4-0.4,0.2c-0.6-0.8,0.3-2.6,0.8-3.3c0.3-0.5-0.7-0.2-0.9,0
			c-0.4,0.7-1.8,3.9-0.3,4.1c1.8,0.3,2.5-2.7,2.9-3.9c-0.3,0.1-0.7,0.1-1,0.2c-0.4,1.1-0.8,2.2-0.8,3.4c0,1,0.9,0.9,1.5,0.6
			C-76.4,479.2-76.7,478.7-77.2,479L-77.2,479z"/>
		<path class="st5" d="M-83.5,474.5c0.1-1.3-1.7-0.8-2.3-0.2c-0.7,0.8-0.8,1.9-0.7,2.9c0.1,0.9,0.8,1.3,1.7,0.7
			C-83.8,477.2-83.8,475.6-83.5,474.5c-0.4,0.1-0.7,0.2-1,0.3c-0.1,0.7-1,4.4,1.1,3.5c0.5-0.2,0.6-0.9-0.1-0.6
			c-0.2,0.1-0.2-1-0.2-1.1C-83.8,475.9-83.7,475.2-83.5,474.5c0.1-0.5-1,0-1,0.3c-0.1,0.7-0.2,1.3-0.4,2c0,0.2-0.2,0.7-0.3,0.7
			c-0.2,0-0.2-0.3-0.3-0.4c-0.2-0.5-0.1-1,0-1.5c0-0.3,0.1-0.5,0.2-0.8c0.1-0.1,0.1-0.3,0.2-0.4c0.2-0.2,0.5,0.3,0.5,0.4
			C-84.6,475.3-83.6,474.8-83.5,474.5L-83.5,474.5z"/>
		<g>
			<path class="st5" d="M-100.4,475.5c0.2,0.7,0.5,4.3,1.9,3.7c1.6-0.6,1-3.6,0.8-4.8c0-0.5-0.9,0.3-0.8,0.6
				c0.1,0.8,0.2,1.7,0.3,2.5c0,0.3,0.1,1-0.3,0.8c-0.5-0.2-0.6-1.3-0.7-1.7c-0.1-0.6-0.2-1.3-0.4-1.9
				C-99.7,474.4-100.5,475.2-100.4,475.5L-100.4,475.5z"/>
			<path class="st5" d="M-98.5,475c0.4,1.6,0.8,3.2,1.2,4.9c0.1,0.4,0.5,1.9-0.1,1.9c-1-0.1,0.1-2.8,0.3-3.2c0.3-0.6-0.4-0.5-0.6,0
				c-0.6,1.1-1,2.5-0.5,3.7c0.2,0.5,0.9,0.5,1.2,0.1c0.6-0.7,0.7-1.7,0.5-2.6c-0.2-1.8-0.8-3.6-1.2-5.4
				C-97.7,473.9-98.5,474.7-98.5,475L-98.5,475z"/>
		</g>
		<path class="st5" d="M-81.5,474.8c0.8,0.8,1.7,1,2.7,0.5c0.1-0.1,0.4-0.2,0.3-0.4c-0.1-0.2-0.4,0-0.5,0c-0.6,0.3-1.3-0.2-1.7-0.6
			C-80.9,474.1-81.7,474.6-81.5,474.8L-81.5,474.8z"/>
	</g>
</g>
<g>
	<path class="st7" d="M-76,494.7v-8c-12.5-3.5-23.2-1-26.8,0v8.3C-99.3,493.9-88.6,491.3-76,494.7z"/>
	<path class="st7" d="M-101.5,495.3c2,0.6,6.2,1.6,11.9,1.6c5.7,0,10.2-1.1,12.3-1.8C-88.2,492.5-97.4,494.2-101.5,495.3z"/>
</g>
</svg>
