<?xml version="1.0" encoding="utf-8"?>
<!-- Generator: Adobe Illustrator 19.0.0, SVG Export Plug-In . SVG Version: 6.00 Build 0)  -->
<svg version="1.1" id="Layer_1" xmlns="http://www.w3.org/2000/svg" xmlns:xlink="http://www.w3.org/1999/xlink" x="0px" y="0px"
	 viewBox="-157 267.9 281 307" style="enable-background:new -157 267.9 281 307;" xml:space="preserve">
<style type="text/css">
	.st0{fill:none;}
	.st1{fill:#FFFFFF;}
</style>
<path class="st0" d="M-36.2,512.1c-0.3,0.3-0.5,0.7-0.8,1.1c-4,6.4-9.1,12.8-9.6,21.9c-0.1,1.1-0.8,2.5-1.2,3.6
	c-1.1,2,0.5,5.1,2.7,6c2,0.9,3.2,0,6,0c2.3,0,4.6,0.9,6.3,0.9c3.1-0.1,8.4-2,9.9-3.3c1.7-1.5,4.5-8.2,3.6-11.9
	c-0.4-1.6-3.1-2.6-4.4-4.1c-3.8-4-6.5-7.9-9.3-11.9l-1.5,0.9C-34.5,515.2-35.2,514.1-36.2,512.1z"/>
<path class="st1" d="M-60.9,413.6c-2.9-4.5-3.1-10.2-0.6-15.7c0.7-1.5,1.8-2.9,3.3-4c-0.1-0.3-0.2-0.5-0.3-0.8c0,0,0-0.1,0-0.1
	c-4.8-7.4-20.4-14.7-21.8-15.4c-0.2,0-0.4-0.1-0.5-0.3c0,0,0,0,0,0c-3.4,2.7-6.6,5.5-9,8.4c-1.2,1.6-1.9,3.6-3.3,4.9
	c-0.6,0.5-1.6,0.4-2.3-0.2c-4.5,2.5-15,6.7-36.7,8.6c-0.2,2,0.4,4.2,0,6.7c-0.4,2.7-1.7,5.1-2.1,8c-1.1,8.8-0.9,20.3-0.5,29.8
	c0.3,7.9,2.3,10.4,4.4,16.2c3.5,9.5,5.9,19.7,12.8,25.4c2,1.6,5.9,2.7,8.7,4.1c3.1,1.7,5.8,5.1,9.2,7.2c3.5,2.1,7.8,4.3,11.9,4.8
	c5.9,0.8,11.1,1.7,16.6,2.3c0.3-0.2,0.6-0.5,0.9-0.7c15.3-17.7,17.4-75.9,17.6-82.7C-57,418.4-59.5,415.9-60.9,413.6z"/>
<path class="st1" d="M97.4,413.8c3.7-3.9,6.4-8.6,6.6-14.2c-0.1-5.9-2.5-10.4-6.3-13.9c-0.8-0.7-2-1.9-2.3-2.8
	c-0.3-0.5-0.4-1.2-0.4-1.7c-0.1-2,1.1-4,0.9-6c-0.4-6.7-3.7-10.8-8.3-14.3c-0.8-0.7-1.5-2.1-1.3-3.2c0.4-5.9-2.8-9-4.4-13.4
	c-0.3-0.9-1.1-2.7-1.7-3.5c-1.5-1.6-3.3-2.9-6-3.5c-1.2-0.3-2.5-1.1-3.1-2c-2.1-4-2.9-8.8-7.1-11.8c-1.1-0.7-2.4-0.7-3.3-1.5
	c-1.7-1.5-2.4-4.1-3.9-5.6c-2.4-2.3-6.3-3.7-10-3.3c-1.2,0-2.5-0.4-3.2-1.3c-2-3.1-3.5-6.4-7.8-6.4c-1.6,0-5.1,2-6,2.7
	c-2.3,1.7-4.4,4.8-6.8,7.2c-4.7,4.7-9.1,9.9-12.8,15.2c-2,3.1-4.3,6.2-5.6,8.7c-1.3,2.3-4,7.8-5.1,10.7c-1.1,2.8-0.9,5.2-2.7,6
	c-3.2,1.5-9.8-0.4-13.8-0.3c-4.7,0.1-10.8,0.7-15.5,1.5c-6,1.1-11.6,3.2-16.7,3.9c-3.9,0.5-6,0.3-9,1.5c-7.4,3.1-12.7,7.1-18.9,11.9
	c-0.7,0.5-1.4,1.1-2.1,1.6c3,1.4,18.3,8.8,22.7,16.7l-0.1,0c0,0,0,0,0,0c1.3-0.7,2.7-1.4,4.4-1.9c9.2-2.7,21.9-0.9,27.2,7
	c7,10.3,19.8,9.4,19.9,9.4l1.4-0.1l-0.4,1.4c-0.9,3.3-3.1,6.2-6.6,8.6c18.2,9.6,28.1,33.2,33.2,51.5c4.5,16.2,6.1,31.2,6.6,36.8
	c3.7-0.3,7.5,0,10.3,1.7h0.2c0.7,0,2.1,0.4,3.2,0.8c1.3,0.5,2.8,0.8,4.5,0.8c4.4,0,7.6-1.7,9.8-4.3c0.7-0.8,1.3-1.6,1.6-1.6h0.4
	c5.6,0,9.4-2.8,11.4-6.7c0.5-0.9,1.6-2,2.7-2.4c2.1-0.8,3.7-2.1,5.1-3.7c0.7-0.8,1.2-1.7,1.2-1.7c0.1,0,0.1-0.1,0.1-0.1
	c0.1-0.3,0.3-0.5,0.4-0.8c0.1-0.5,0.5-1.7,0.8-2.8c0-0.3,0.1-0.4,0.1-0.7c0.3-1.1,1.1-2.4,2-2.9c1.9-1.2,3.3-2.8,4.3-4.7
	c0.5-1.1,1.1-2.5,1.3-3.3c0.1-0.5,0.1-1.1,0.3-1.6v-0.9c0-0.5-0.1-1.9-0.3-2.9v-0.1c-0.1-1.1-0.4-2-0.4-2.1c0-0.1,0.8-0.7,1.6-1.5
	c4.4-4.3,5.1-11.5,2.3-16.9c-0.5-1.1-0.4-2.4,0.1-3.3c0.3-0.3,0.5-0.7,0.7-1.1c0.4-0.9,0.8-2,0.8-2.1c0.1,0,0.1-0.1,0.1-0.3
	c0,0,0-0.1,0-0.3c0-0.2,0.1-0.9,0.3-1.7c0.1-0.8,0.9-2,1.7-2.7c5.2-4.7,5.8-13.5,1.6-19C96.6,415.8,96.6,414.6,97.4,413.8z"/>
<path class="st1" d="M-20.4,419.4c2.8-0.8,5.2-1.9,7.3-3c3.4-1.9,5.7-4.3,6.8-7c-3.8-0.1-13.9-1.1-20.2-10.3
	c-3.4-5-10.4-7.3-17.2-7.3c-2.7,0-5.4,0.4-7.8,1.1c-4.1,1.2-7,3.3-8.2,6c-1,2.3-3.1,8.3,0.5,13.8c2.7,4.2,9.3,9.1,26,9.2
	C-33.3,421.7-27,421.4-20.4,419.4z"/>
<path class="st1" d="M-12.6,418.3c-2.1,1.1-4.5,2.1-7.2,3c-6.8,2-13.1,2.4-13.4,2.4c-7.6,0-13.2-1-17.4-2.6
	c-0.1,4.4-0.7,18.3-2.7,33.6c-3.2,24.4-8.2,41-15,49.2c4.1,0.4,8.4,0.6,13.3,0.5c1.1-0.1,2.7,0.4,3.3,1.3c0.9,1.6,1.5,3.6,1.6,5.5
	c0.7,9.1-0.4,20.1-5.6,24.5c-5.2,4.4-16.7,2.5-23.3,4.8c-1.6,0.5-3.6,1.9-4.7,3.5c-0.5,0.9,0.1,2.4,1.2,2.3c1.2-0.1,2.7-0.5,3.5,0.1
	c0.7,0.4,0.8,1.6,0.9,2.7c0.1,1.1,1.7,1.9,2.8,1.6c3.5-0.8,5.8-4.7,9.1-5.2c2.5-0.4,5.2,0.8,8,0.9c2.1,0.1,4.1-0.3,6.2,0
	c1.1,0.1,2.3,1.2,2.1,2.1c-0.1,0.5-0.3,1.1,0.1,1.6c0.5,0.8,1.7,0.9,2.7,1.2c0.9,0.3,1.5,2,1.5,2.9s0.9,1.7,2,1.7h4
	c1.1,0,2-0.9,2.8-1.7c1.3-1.3,4.3-0.8,7-0.9c4.8-0.3,9.6-1.5,12.7-3.1c0.9-0.5,2-2,2-3.1c0-1.5-0.7-2.9-0.3-4.3
	c0.3-1.2,1.2-1.6,2-2.1c0.8-0.7,0.5-2.4,0.1-3.5c-0.1-0.7-0.3-1.3-0.3-2c0.1-0.6,0.5-0.9,1.1-1c-0.5-8.6-2.5-20.6,5.4-25.6
	C4.9,482.3,5.8,456.5-5,444c-6.3-7.3-16.1-9.1-28.3-5.3c-6.8,2.1-11.4,6.3-13.8,12.4c-8.7,22.1,14.2,62.8,14.5,63.2l-0.2,0.1
	c2.8,4,5.5,7.9,9.3,11.9c1.3,1.5,4,2.5,4.4,4.1c0.9,3.7-1.9,10.4-3.6,11.9c-1.5,1.3-6.8,3.2-9.9,3.3c-1.7,0-4-0.9-6.3-0.9
	c-2.8,0-4,0.9-6,0c-2.2-0.9-3.8-4-2.7-6c0.4-1.1,1.1-2.5,1.2-3.6c0.5-9.1,5.6-15.5,9.6-21.9c0.2-0.4,0.5-0.8,0.8-1.1
	c-2.1-4.1-5.8-11.6-9-20.4c-6.4-17.7-7.7-31.6-3.9-41.3c2.6-6.7,7.7-11.2,15.1-13.6c16.5-5.2,25.6,0.4,30.4,5.9
	C7.5,455.4,7,481-4.4,507.5c0,0,0.1,0,0.1,0c4.5-1.5,9.2-0.5,13.7,0.1c4,0.6,6.9,0.1,10.9-0.7c2-0.4,4.4-0.9,6.8-1.2
	C26.1,493.4,19.2,433.7-12.6,418.3z"/>
<path class="st1" d="M-96.7,381.2c1.1-14,6.4-24.1,10.7-34.6c2.1-5.6,5.2-12.7,5.6-17.9c0.5-6.4-0.7-11.1-2.4-15.2
	c-0.4-0.9-1.5-2.4-2.3-3.2c-3.5-3.5-6.6-7.2-12.7-8c-1.1-0.1-2.7-0.3-2.9-1.2c-0.3-0.9-1.7-1.6-2.8-1.3c-0.1,0-0.1,0-0.3,0
	c-1.1,0.4-1.5,1.7-2.5,1.9c-9.9,1.1-12.4,9.5-19,13.8c-0.9,0.5-1.9,1.9-2.1,2.9c-1.5,5.1-5.1,7.8-7.2,12c-0.4,0.6-1.9,1.4-2.4,2.4
	v0.1c-0.4,0.9,0.9,1.9,1.9,1.3c2.1-1.1,4.3-2.9,7.1-2.4c4.5,0.9,4.3,9.1,3.6,13.8c-0.8,5.5-4.7,10.7-3.9,16.2
	c0.1,1.1,1.2,2.3,1.5,3.6c0.3,1.7-0.3,4.1,0.3,6c0.8,3.1,2.8,4,2.7,6c-0.1,1.7-1.7,2.9-2.4,4.4c-0.5,1.1-0.4,2.5-0.9,3.6
	c-0.5,1.1-1.7,1.9-2.1,2.9c-1,2.6-2.1,5.8-2.7,8.8c21.4-1.9,31.5-6.1,35.6-8.4C-97,386.3-96.9,383.5-96.7,381.2z"/>
</svg>
