<svg id="Layer_1" xmlns="http://www.w3.org/2000/svg" viewBox="0 0 130 250"><style>.st0{fill:#519E38;} .st1{fill:#F4F4F4;} .st2{fill:#D6D6D6;} .st3{fill:#EAEAEA;} .st4{fill:#FFFFFF;} .st5{fill:#0455A4;} .st6{fill:#62BA47;} .st7{fill-rule:evenodd;clip-rule:evenodd;fill:#0455A4;} .st8{fill-rule:evenodd;clip-rule:evenodd;fill:#62BA47;} .st9{fill:#62BA46;}</style><path class="st0" d="M106.2 212.6v-95.1c0-33.5-13.9-46.3-13.9-46.3 3.7-20.7-6.2-27-6.2-27v-7.5h2.1V26c0-2.6-3.7-2.4-3.7-2.4H56s-3.7-.3-3.7 2.4v10.7h2.2v7.5h-.1s-9.9 6.2-6.2 27c0 0-13.9 12.8-13.9 46.3v95.1S32.9 233 47.9 233H92.7c14.9 0 13.5-20.4 13.5-20.4z"/><path class="st1" d="M98.3 207.7v-95.1c0-33.5-13.9-46.3-13.9-46.3 3.7-20.7-6.2-27-6.2-27v-7.7H46.6v7.7h-.1s-9.9 6.2-6.2 27c0 0-13.9 12.8-13.9 46.3v95.1S25 228.1 40 228.1h44.5c15.2.1 13.8-20.4 13.8-20.4z"/><path class="st2" d="M76.5 18.9H48.1s-3.7-.3-3.7 2.4V32h35.8V21.3c0-2.7-3.7-2.4-3.7-2.4z"/><path class="st3" d="M98.2 207.7v-95.1c0-33.5-13.9-46.3-13.9-46.3 3.7-20.7-6.2-27-6.2-27v-7.7H62.2V228h22.3c15.1.2 13.7-20.3 13.7-20.3z"/><path class="st4" d="M38.1 101.6h-.5c-2.2-.3-3.7-2.3-3.4-4.5C36 83.4 42.6 75 42.9 74.7c1.4-1.7 3.9-2 5.6-.6 1.7 1.4 2 3.9.6 5.6-.1.1-5.5 7.1-7 18.5-.4 2-2.1 3.4-4 3.4z"/><circle class="st5" cx="63.8" cy="144.6" r="18.7"/><circle class="st6" cx="48.9" cy="161.2" r="5.9"/><path class="st7" d="M55 121.7c0 1.3-1.1 2.4-2.4 2.4-1.3 0-2.4-1.1-2.4-2.4 0-1.3 1.1-2.4 2.4-2.4 1.3 0 2.4 1.1 2.4 2.4z"/><path class="st8" d="M55.1 129.7c0 1.7-1.4 3.1-3.1 3.1s-3.1-1.4-3.1-3.1c0-1.7 1.4-3.1 3.1-3.1s3.1 1.4 3.1 3.1zM46.8 125c0 1-.8 1.8-1.8 1.8s-1.8-.8-1.8-1.8.8-1.8 1.8-1.8 1.8.8 1.8 1.8z"/><circle class="st6" cx="79.8" cy="127.5" r="10.3"/><path class="st4" d="M77.3 126c-.8.1-1.1 1.1-1.1 1.8v.3c0 .3 0 .6-.1.9 0 .1-.1.4-.1.4-.3 0-.5-.4-.6-.7-.2-.5-.4-1.1-.5-1.6-.1-.6-.2-1.2-.2-1.8v-.8-.3-.2c.1-.5-.6 0-.7.2-.7 1.2-.5 2.6-.5 3.9 0 .4 0 .7-.1 1.1 0 .2-.1.7-.3.9-.1.1-.4 0-.5 0-.2-.1-.3-.3-.3-.5s-.2-.1-.4 0c-.1.1-.3.4-.3.6.1.5.5.9 1 .7.8-.2 1.1-1.1 1.3-1.9.1-.3.1-.7.2-1 .1.5.3 1 .5 1.5.2.3.5.7.9.6.3-.1.5-.4.7-.8.1.3.4.6.8.6s.8-.5.9-.8c.2-.4.2-.9.2-1.3.2-.6 0-1.9-.8-1.8zm.2 3c0 .1 0 .2-.1.3-.2 0-.3-.3-.3-.4-.1-.3-.2-.6-.2-.9v-1c0-.1 0-.2.1-.2.4.3.5.8.6 1.3 0 .3 0 .6-.1.9zM87.5 127.3c-.9-.3-1.4.9-1.6 1.6-.2.7-.3 1.8.4 2.1.4.2.8-.1 1.1-.4.3-.3.5-.7.6-1.1.2-.7.3-1.9-.5-2.2zm-.6 2.9c0 .1-.1.1-.1.2-.1-.1-.2-.4-.2-.5v-1l.3-.9c0-.1.1-.1.1-.2.4.4.3 1 .2 1.5 0 .3-.1.6-.3.9zM85 127.4c.2-.2.3-.5.5-.7.3-.5.7-1.1.6-1.7 0-.6-.8-.6-1.2-.4-.6.3-.9.9-1.1 1.5-.2.8-.4 1.6-.4 2.4-.3.3-.9 1.1-1.4.8-.1-.1-.2-.2-.2-.4.4-.4.7-.8 1-1.3.3-.4.5-1.1-.1-1.4-.4-.3-1 0-1.3.4-.3.4-.4.8-.5 1.3 0 .2-.1.7 0 1.1-.3.2-.6.3-.9.2-.4-.1-.5-.4-.5-.7-.1-.4-.1-.9 0-1.3 0-.1.1-.3.1-.4v-.1c.2.1.3.4.4.6.1.3.9-.2.8-.5-.1-.3-.2-.6-.6-.8-.3-.1-.8.1-1 .3-.5.6-.6 1.4-.6 2.1 0 .5.1 1.1.5 1.3.6.3 1.3 0 1.9-.3.1.3.4.6.8.5.6-.1 1.1-.4 1.5-.8 0 .4.1.9.4 1.1.5.3 1.1 0 1.4-.4.4-.5.7-1.3.4-1.9 0-.4-.2-.5-.5-.5zm-3.1-.3c0-.1.1-.2.1-.3.2.1.3.3.2.5 0 .3-.3.7-.5 1v-.2c0-.4.1-.7.2-1zm3-1.7c.1-.1.1-.2.2-.3.4.4 0 1-.2 1.3-.2.4-.4.7-.7 1.1 0-.4.1-.7.2-1.1.2-.4.3-.7.5-1zm-.2 4.2s-.1.1-.1.2h-.1c-.2-.1-.2-.6-.3-.8v-.5l.3-.3c.2-.1.3.1.4.3.1.3-.1.8-.2 1.1z"/><g><path class="st4" d="M77.5 149.9c-.7.1-.5-1.8-.5-2.1.1-1.2.4-2.3.7-3.4.1-.3-.3-.4-.6-.4-.3.1-.7.3-.8.6-.1.2-.1.4-.2.6 0 .2-.1.4-.2.7-.1.6-.3 1.2-.5 1.8-.1.5-.3.9-.5 1.3v.1c-.1 0-.2-.1-.2-.2-.6-.5-.4-1.8-.3-2.4.1-.9.4-1.8.8-2.6.1-.3 0-.5-.4-.5s-.8.2-.9.5c-.3.7-.6 1.5-.7 2.3-.1.5-.7 2.3-1.2 2-.4-.3-.2-1.5-.4-2.2-.2-.6-.7-.8-1.3-.8.3-1.1.6-1.4.8-1.6.2.1.4.3.5.3.4.4 1.7-.4 1.3-.8-.5-.5-1.1-.6-1.7-.5-.4.1-.7.3-1.1.6l-.2.2c0-.7-.1-1.3-.2-2-.1-.2-.4-.2-.7-.1-.3.2-.7.5-.7.7 0 .5-.2.9-.6 1.2-.2.1-.6.3-.9.2 0 0-.4-.2-.6-.1.3-.6.5-1.2.8-1.8.3-.8.8-2.1.3-3-.6-.9-1.9-.3-2.4.3-.8.9-1 2.2-1.1 3.3-.1 1.2-.1 2.4.1 3.6-.2.6-.4 1.4-.7 1.8-.3-.2-.6-.8-.7-1-.2-.8-.3-1.7-.3-2.5v-1-.9c0-.3-.4-.3-.6-.1-.3.2-.7.5-.7.9v3.3c0 .5-.1 1.1-.2 1.5-1 0-1.1-1.6-1.2-2.2-.1-.9-.1-1.9.1-2.8.1-.3-.1-.5-.5-.3-.3.1-.7.5-.8.9-.1.5-.1 1-.2 1.6-.1 2.1-.2 3-.5 3.4-.2-.1-.3-.3-.3-.3-.2-.3-.4-.8-.5-1.2-.4-1.2-.6-2.5-.7-3.7 0-.1 0-.1-.1-.2h-.1c-.3 0-.7.4-.9.7-.6 1.1-.3 2.5-.3 3.6 0 .6 0 1.2-.1 1.7-.5-.2-.6-.8-.6-1 0-.2-.2-.1-.4 0s-.3.3-.4.4c-.1.2-.2.3-.2.5-.1.4-.1.6-.5.7H52c-.4-.1-.7-.5-1-.8-.7-1-1-2.2-1.1-3.4-.1-.6-.1-1.2 0-1.9 0-.2.1-.5.2-.7 0-.1.1-.3.1-.3s0-.1.1-.1l.1-.1c.1 0 .3-.1.5-.1.9-.1 1.3.7 1.5 1.3.2.5 1.3-.7 1.1-1.2-.3-.8-.8-1.7-1.9-1.5-.7.1-1.4.5-1.8 1-1 1.3-1.2 3.2-1.1 4.8.2 1.5.6 3.1 1.6 4.2.3.4.9.6 1.4.5.7-.1 1.1-.6 1.5-1.1.3.5.8.7 1.4.2.6-.5.9-1.3 1-2.1 0 .1.1.3.1.4.1.4.3.8.7 1.1.4.3 1.2-.3 1.2-.3l.2-.2c.3-.3.5-.6.6-.9v-.1c.2.6.6 1.1 1.3 1.1.7 0 1.2-.5 1.6-1 .1.2.2.4.3.5.6.7 1.7 0 2.1-.5.1-.1.3-.3.4-.5.2.7.5 1.3 1.2 1.3 1 0 1.8-1 2-1.9.2-.6.4-1.7.1-2.5.1-.1.2-.1.3-.2.2-.1.5-.3.7-.5 0 1.7-.1 3.3-.3 4.9-.1.7 1.2-.1 1.3-.5.1-.6.2-1.2.4-1.8.4.2.4 1.1.5 1.5 0 .5 0 1.1.6 1.3.6.3 1.3 0 1.7-.3.1-.1.2-.2.3-.2.1.6.3 1.1.9 1.3.7.3 1.3 0 1.8-.4.1.9.6 1.4 1.5 1.2.3-.1.7-.2.8-.6.2-.5-.1-.6-.4-.5zM65.1 142c.1-.9.2-1.8.6-2.6v-.1c.2.1.3.4.3.6.2.8-.3 1.8-.5 2.6-.1.4-.3.8-.5 1.1.1-.5.1-1 .1-1.6zm1.2 5.5c-.1.1-.1.1 0 0l-.1.1c-.6-.2-.7-1.7-.8-2.1v-.1c.1-.2.3-.5.4-.7.1-.1.2-.1.3 0 .1 0 .2.1.2.2.3.4.3 1 .3 1.4l-.3 1.2z"/></g><g><path class="st4" d="M48.9 159.5c-.8.1-1.1 1-1.2 1.6-.1.5-.1 2 .7 2 .8.1 1.1-1 1.2-1.6.1-.5.1-1.9-.7-2zm0 3.1c-.4.2-.6-.8-.6-1 0-.2 0-1.5.2-1.5.4.1.5.7.6 1 0 .2.1 1.4-.2 1.5z"/><path class="st4" d="M47.4 162.4c-.3.2-.7.1-1.1.1h-.4l.1-.1.6-.6c.4-.5.6-1 .5-1.6-.2-1.3-1.7-.3-1.9.4-.1.4.5 0 .5-.2.2-.6.7-.2.8.1.2.4 0 .9-.3 1.2-.2.3-.5.5-.8.7-.2.1-.3.2-.4.3 0 .1-.1.2 0 .2.2.2.7.1.9.2.5 0 .9 0 1.3-.2.4-.1.6-.7.2-.5zM52.3 159.9c-.6 1-1.4 2-2.1 2.9-.3.4.2.4.4.1.8-1 1.6-2 2.2-3.1.3-.4-.3-.1-.5.1zM51 161c.7 0 1.1-1.3.3-1.3-.4 0-.7.4-.7.7-.2.3 0 .6.4.6zm.2-.4zm-.3-.6zm0 0s.1 0 0 0c.2 0 .3.2.4.3v.2h-.1c-.2 0-.3-.2-.3-.3v-.2zM52.3 161.8c-.4 0-.7.4-.7.7-.1.3.1.6.5.6.6.1 1-1.3.2-1.3zm-.3.4zm.3.6zm0-.1c-.3 0-.4-.1-.4-.3v-.2h.1c.2 0 .3.2.3.3.1.1.1.2 0 .2z"/></g><g><path class="st9" d="M41.1 136.7c-.1 0-.2-.2-.3-.2-.4-.1-.7.1-1.1.1-.9 0-1.2 0-2.3-.3 0-.9.5-1.5.8-2.2.2-.6-.1-1.4-.1-2.1v-1.3c-.3.3-.2 1.1-.2 1.5-.1-.5-.1-1.3-.3-1.7-.1.5 0 1.3 0 1.7-.2-.5-.2-1.1-.4-1.5-.2.5.2 1.2.1 1.7-.2-.4-.3-1-.5-1.4-.1.6.2 1.1.2 1.5-.2-.4-.3-.8-.6-1 0 .4.2.8.4 1.2-.3-.1-.3-.4-.6-.5 0 .3.2.5.3.7-.2-.1-.3-.3-.5-.4 0 .3.2.3.3.6-.1-.1-.2-.2-.4-.3 0 .2.3.3.3.5 0 0-.2-.1-.2 0 0 0 .2.1.1.2h-.2c0 .1.2.1.1.2-.1 0-.1-.1-.1 0s.1.1.1.2c-.8.8-.3 1.7-.4 2.6 0-.1-.6-.3-1.2-.5-.3-.1-.3-.4-.6-.6 0-.1.1 0 .1-.1-.1 0-.2-.1-.2-.2.1 0 .3.1.3 0-.1-.1-.5-.2-.4-.3.2 0 .4.1.5.1-.2-.1-.6-.3-.6-.5.2.1.5.3.7.2-.3-.2-.8-.4-.9-.7.2.1.5.4.8.4-.4-.1-.7-.5-1.1-.5.2.3.7.5.9.8-.3-.2-.6-.3-.9-.5.1.4.5.5.8.7-.3 0-.4-.2-.7-.2.1.3.5.2.7.5-.1-.1-.3 0-.5 0 0 .2.3.1.5.2-.2 0-.3 0-.4.1.1.1.3.1.4.2-.1 0-.2 0-.2.1s.2 0 .3.1c-.1 0-.1.1-.1.1h.2s-.1 0-.1.1c.4.2.6.9 1.2 1.1-.3.2.3.4-3.3 1.7.1 0 1.6-.4 2-.5.4-.2.9-.3 1.3-.4.1 0 .2-.1.3-.1.8-.1 1.4.1 2.1-.4-.6.1-1.5.2-1.9-.1.5-.8.2-2.7.5-3.1.4-.4 1-1.6 1.7-.6.1.2.1.4-.1.9-.3.5-.5.8-.5 2 0 .2 0 .5-.4.5 1.6.3 2 .2 2.9 0 .3 0 .7-.3.8 0 0 .1-.3.1-.6.1-.4 0 .2.2.4.1.1 0 .9-.1 1.4-.2-.1-.2-.3-.2-.6-.3z"/><path class="st9" d="M36.6 128.7c-3.6 0-6.5 2.9-6.5 6.5s2.9 6.5 6.5 6.5 6.5-2.9 6.5-6.5c-.1-3.6-3-6.5-6.5-6.5m0 .2c3.4 0 6.2 2.8 6.2 6.2 0 3.4-2.8 6.2-6.2 6.2-3.4 0-6.2-2.8-6.2-6.2-.1-3.4 2.7-6.2 6.2-6.2"/></g></svg>