<?xml version="1.0" encoding="utf-8"?>
<!-- Generator: Adobe Illustrator 19.0.0, SVG Export Plug-In . SVG Version: 6.00 Build 0)  -->
<svg version="1.1" id="Layer_1" xmlns="http://www.w3.org/2000/svg" xmlns:xlink="http://www.w3.org/1999/xlink" x="0px" y="0px"
	 viewBox="0 0 130 89.9" style="enable-background:new 0 0 130 89.9;" xml:space="preserve">
<style type="text/css">
	.st0{fill:#FFCC66;}
	.st1{fill:#EAB353;}
	.st2{fill:#FCD597;}
	.st3{fill:#F7F2EB;}
	.st4{fill:#F05E24;}
	.st5{fill-rule:evenodd;clip-rule:evenodd;fill:#F05E24;}
	.st6{fill-rule:evenodd;clip-rule:evenodd;fill:#62BA47;}
	.st7{fill:#62BA47;}
	.st8{fill:#FFFFFF;}
	.st9{fill-rule:evenodd;clip-rule:evenodd;fill:#F05B24;}
	.st10{fill-rule:evenodd;clip-rule:evenodd;fill:#F8A78A;}
	.st11{fill-rule:evenodd;clip-rule:evenodd;fill:#FFFFFF;}
	.st12{fill-rule:evenodd;clip-rule:evenodd;}
	.st13{fill:#62BA46;}
</style>
<g>
	<polygon class="st0" points="65.7,80.5 4.2,59.8 4.2,33.7 65.7,54.4 	"/>
	<polygon class="st1" points="65.7,80.5 127.2,59.8 127.2,33.7 65.7,54.4 	"/>
	<polygon class="st2" points="65.5,12.9 3.9,33.7 65.7,54.4 127.2,33.7 	"/>
	<g>
		<polygon class="st3" points="67.4,22.6 34.7,33.7 67.5,44.7 100.2,33.7 		"/>
		<path class="st4" d="M67.5,45.5L32.5,33.7l34.9-11.8l35.1,11.8L67.5,45.5z M36.9,33.7l30.6,10.3L98,33.7L67.4,23.4L36.9,33.7z"/>
	</g>
	<g>
		
			<ellipse transform="matrix(0.9998 1.782650e-02 -1.782650e-02 0.9998 1.0685 -1.675)" class="st4" cx="94.5" cy="59.1" rx="5.2" ry="6.7"/>
		<path class="st5" d="M92.2,50.8c0,0.5-0.3,0.9-0.7,0.8c-0.4,0-0.7-0.4-0.6-0.9c0-0.5,0.3-0.9,0.7-0.9
			C91.9,49.9,92.2,50.3,92.2,50.8L92.2,50.8z"/>
		<path class="st6" d="M92.2,53.7c0,0.6-0.4,1.1-0.9,1.1c-0.5,0-0.8-0.5-0.8-1.1c0-0.6,0.4-1.1,0.9-1.1
			C91.8,52.6,92.2,53.1,92.2,53.7L92.2,53.7z"/>
		<path class="st6" d="M89.9,52c0,0.4-0.2,0.7-0.5,0.6c-0.3,0-0.5-0.3-0.5-0.7c0-0.4,0.2-0.7,0.5-0.6C89.7,51.3,89.9,51.6,89.9,52
			L89.9,52z"/>
		<g>
			
				<ellipse transform="matrix(0.9998 1.782650e-02 -1.782650e-02 0.9998 0.961 -1.7564)" class="st7" cx="99" cy="53" rx="2.8" ry="3.7"/>
			<g>
				<path class="st8" d="M98.3,52.5c-0.2,0-0.3,0.4-0.3,0.6l0,0v0c0,0,0,0.1,0,0.1c0,0.1,0,0.2,0,0.3c0,0,0,0.1,0,0.1
					c-0.1,0-0.1-0.2-0.2-0.2c-0.1-0.2-0.1-0.4-0.1-0.6c0-0.2,0-0.4,0-0.7c0-0.1,0-0.2,0-0.3c0,0,0-0.1,0-0.1c0,0,0-0.1,0-0.1
					c0-0.2-0.2,0-0.2,0.1c-0.2,0.4-0.1,0.9-0.2,1.4c0,0.1,0,0.3,0,0.4c0,0.1,0,0.2-0.1,0.3c0,0-0.1,0-0.1,0c0,0-0.1-0.1-0.1-0.2
					c0-0.1-0.1,0-0.1,0c0,0.1-0.1,0.1-0.1,0.2c0,0.2,0.1,0.3,0.3,0.3c0.2-0.1,0.3-0.4,0.4-0.7c0-0.1,0-0.2,0.1-0.4
					c0,0.2,0.1,0.4,0.1,0.5c0,0.1,0.1,0.3,0.2,0.2c0.1,0,0.2-0.1,0.2-0.3c0,0.1,0.1,0.2,0.2,0.2c0.1,0,0.2-0.2,0.3-0.3
					c0.1-0.1,0.1-0.3,0.1-0.5C98.6,52.9,98.5,52.5,98.3,52.5z M98.4,53.6C98.4,53.6,98.3,53.6,98.4,53.6c-0.1,0.1-0.1,0-0.1,0
					c0-0.1,0-0.2-0.1-0.3c0-0.1,0-0.2,0-0.3c0,0,0-0.1,0-0.1c0.1,0.1,0.1,0.3,0.1,0.5C98.4,53.3,98.4,53.4,98.4,53.6z"/>
				<path class="st8" d="M101.1,53c-0.3-0.1-0.4,0.3-0.5,0.6c0,0.2-0.1,0.6,0.1,0.8c0.1,0.1,0.2,0,0.3-0.1c0.1-0.1,0.1-0.3,0.2-0.4
					C101.3,53.5,101.4,53.1,101.1,53z M100.9,54C100.9,54.1,100.9,54.1,100.9,54c-0.1,0-0.1-0.1-0.1-0.1c0-0.1,0-0.2,0-0.3
					c0-0.1,0-0.2,0.1-0.3c0,0,0-0.1,0-0.1c0.1,0.1,0.1,0.4,0,0.5C101,53.8,101,53.9,100.9,54z"/>
				<path class="st8" d="M100.4,53c0-0.1,0.1-0.2,0.1-0.3c0.1-0.2,0.2-0.4,0.2-0.6c0-0.2-0.2-0.2-0.3-0.2c-0.2,0.1-0.3,0.3-0.3,0.5
					c-0.1,0.3-0.1,0.6-0.1,0.9c0,0,0,0,0,0c-0.1,0.1-0.3,0.4-0.4,0.3c0,0,0-0.1-0.1-0.1c0.1-0.1,0.2-0.3,0.3-0.5
					c0.1-0.1,0.1-0.4,0-0.5c-0.1-0.1-0.3,0-0.4,0.1c-0.1,0.1-0.1,0.3-0.1,0.5c0,0.1,0,0.2,0,0.4c-0.1,0.1-0.2,0.1-0.3,0.1
					c-0.1,0-0.1-0.2-0.1-0.3c0-0.2,0-0.3,0-0.5c0,0,0-0.1,0-0.1c0,0,0,0,0,0c0.1,0,0.1,0.2,0.1,0.2c0,0.1,0.2-0.1,0.2-0.2
					c0-0.1-0.1-0.2-0.2-0.3c-0.1-0.1-0.2,0-0.3,0.1c-0.2,0.2-0.2,0.5-0.2,0.8c0,0.2,0,0.4,0.1,0.5c0.1,0.1,0.4,0,0.5-0.1
					c0,0.1,0.1,0.2,0.2,0.2c0.2,0,0.3-0.1,0.4-0.3c0,0.1,0,0.3,0.1,0.4c0.1,0.1,0.3,0,0.4-0.2c0.1-0.2,0.2-0.5,0.1-0.7
					C100.6,53.1,100.5,53,100.4,53z M99.6,52.9c0,0,0-0.1,0-0.1l0,0c0.1,0,0.1,0.1,0.1,0.2c0,0.1-0.1,0.2-0.2,0.4c0,0,0,0,0-0.1
					C99.5,53.1,99.5,53,99.6,52.9z M100.4,52.3c0,0,0-0.1,0.1-0.1c0,0,0,0,0,0c0.1,0.1,0,0.3-0.1,0.5c-0.1,0.1-0.1,0.3-0.2,0.4
					c0-0.1,0-0.3,0.1-0.4C100.3,52.5,100.4,52.4,100.4,52.3z M100.3,53.8C100.3,53.8,100.3,53.8,100.3,53.8
					C100.3,53.9,100.3,53.9,100.3,53.8c-0.1,0-0.1-0.2-0.1-0.2c0-0.1,0-0.1,0-0.2c0,0,0.1-0.1,0.1-0.1c0.1,0,0.1,0,0.1,0.1
					C100.4,53.5,100.4,53.7,100.3,53.8z"/>
			</g>
		</g>
		<g>
			<g>
				<path class="st8" d="M94.6,63.7c0,0-0.1,0-0.1,0c0-0.1,0-0.1,0-0.2c0-0.1-0.1,0-0.1,0.1c0,0.1,0,0.2,0,0.3l0,0c0,0,0,0,0,0
					c0,0.1,0,0.1,0,0.2c0,0-0.1,0.1-0.1,0.1c0-0.2,0-0.4,0-0.6c0,0,0,0,0,0c0,0,0,0,0,0c0,0,0,0,0,0c0,0,0,0,0,0c0,0-0.1,0-0.1,0.1
					c0,0,0,0,0,0c0,0.2-0.1,0.3-0.1,0.5c0,0.1,0,0.2-0.1,0.1c-0.1-0.1,0-0.3,0-0.3c0-0.1,0-0.2,0.1-0.3c0-0.1-0.1,0-0.1,0.1
					c0,0.1-0.1,0.3-0.1,0.5c-0.1,0-0.2,0.1-0.2,0.1c0-0.1,0-0.1,0-0.2c0-0.1-0.1-0.2-0.1-0.2l0,0c0,0,0-0.1,0.1-0.1
					c0,0,0.1-0.1,0.1,0c0,0.1,0.2,0,0.1-0.1c-0.1-0.1-0.2-0.1-0.3,0c0-0.1,0-0.2,0-0.3c0-0.1-0.1,0-0.1,0.1c0,0.3-0.1,0.5-0.2,0.8
					c0,0.1,0.1,0,0.2,0c0-0.1,0.1-0.1,0.1-0.2c0.1,0.1,0,0.3,0,0.3c0.1,0.1,0.2,0,0.3,0c0,0.1,0,0.2,0.1,0.2c0.1,0,0.2,0,0.2-0.1
					c0,0,0,0,0,0c-0.1,0.1-0.1,0.1-0.2,0.2c-0.1,0.1-0.3,0.4-0.1,0.5c0.2,0.1,0.3-0.1,0.4-0.3c0-0.1,0.1-0.3,0.1-0.5
					c0,0,0.1-0.1,0.1-0.1c0,0,0,0,0,0c0,0,0,0,0,0c0,0,0,0,0,0c0,0.2,0,0.4-0.1,0.6c0,0.1,0.2,0,0.2-0.1c0-0.1,0-0.3,0-0.4
					c0,0,0.1,0,0.1-0.1c0.1-0.1,0.1-0.3,0.1-0.4C94.7,63.9,94.7,63.7,94.6,63.7z M93.9,65c-0.2,0,0-0.2,0.1-0.4
					C94,64.8,94,65,93.9,65z M94.6,64.3C94.6,64.4,94.6,64.4,94.6,64.3C94.6,64.4,94.6,64.4,94.6,64.3c-0.1,0.1-0.1,0-0.1,0
					c0-0.1,0-0.3,0-0.4c0-0.1,0-0.1,0.1,0c0,0.1,0,0.1,0,0.2C94.6,64.2,94.6,64.2,94.6,64.3z"/>
				<path class="st8" d="M95.9,63.2C95.8,63.3,95.8,63.3,95.9,63.2c-0.1,0.1-0.1,0.3-0.1,0.5c0,0,0,0.1,0,0.2c0,0.1-0.1,0.2-0.2,0.2
					c-0.2,0,0-0.3,0-0.5c0-0.3-0.2-0.3-0.3-0.1c0,0.1,0,0.2,0,0.1c0.1-0.1,0.1,0,0.1,0.1c0,0.1-0.1,0.2-0.1,0.3c0,0,0,0.1,0,0.1
					c-0.1,0.1-0.1,0.1-0.2,0c0-0.1,0-0.2-0.1-0.3c0-0.1,0-0.1,0-0.2c0,0,0,0,0-0.1c0,0,0,0,0,0c-0.1-0.2-0.2,0-0.3,0.1
					c-0.1,0.2-0.1,0.4,0,0.6c0,0.2,0.2,0.2,0.3,0.1c0,0,0,0,0,0c0,0,0,0,0,0.1c0.1,0.1,0.2,0,0.3-0.1c0,0,0,0,0,0
					c0.1,0.1,0.3-0.1,0.4-0.3c0,0.1,0.1,0.1,0.2,0.1c0.2-0.1,0.1-0.4,0.1-0.5C96.1,63.5,96,63.2,95.9,63.2z M95,64.3
					C95,64.3,95,64.3,95,64.3c-0.1-0.1-0.1-0.2-0.1-0.3c0-0.1,0-0.1,0-0.2c0,0,0-0.1,0-0.1c0-0.1,0.1,0,0.1,0c0,0.1,0,0.3,0,0.4
					C95.1,64.2,95.1,64.3,95,64.3z M96,63.8C96,63.8,96.1,63.8,96,63.8c0,0.1,0,0.1,0,0.1s-0.2-0.1-0.2-0.2c0-0.1,0-0.1-0.1-0.2
					c0,0,0-0.1,0-0.1c0,0,0,0,0,0c0.1,0,0.1,0.1,0.2,0.2C96,63.7,96,63.7,96,63.8z"/>
				<path class="st8" d="M96.2,62.9c0.1-0.1,0.1-0.2,0.1-0.3c0,0,0-0.1,0,0c0,0,0,0.1,0,0.1c0,0,0,0,0,0c0,0,0,0,0,0c0,0,0,0,0,0
					c0,0,0,0,0,0c0,0,0,0,0,0c0,0,0,0,0,0s0,0-0.1,0.1C96.1,62.8,96.1,62.9,96.2,62.9C96.1,62.9,96.1,63,96.2,62.9z"/>
				<path class="st8" d="M96.7,63.3c0,0.1-0.2-0.1-0.2-0.1c0,0,0-0.1-0.1-0.1c0-0.1-0.1-0.2-0.1-0.2c0,0,0,0,0,0
					c0-0.1-0.1,0.1-0.1,0.2c0,0.1,0.1,0.2,0.1,0.3c0,0.1,0,0.1,0.1,0.2c0,0.1,0,0.1,0,0.1c-0.2,0-0.2-0.4-0.3-0.5
					c0-0.1-0.1,0.1-0.1,0.1c0,0.1,0.1,0.8,0.4,0.6c0.1-0.1,0.1-0.1,0.1-0.2C96.7,63.7,96.8,63.5,96.7,63.3
					C96.8,63.2,96.7,63.2,96.7,63.3z"/>
				<path class="st8" d="M92.6,63.6c-0.1,0-0.2,0-0.2-0.1c-0.1-0.1,0-0.2,0-0.2c0-0.1,0.1-0.2,0.1-0.2c0,0,0,0,0,0c0,0,0,0,0,0
					c0,0,0,0.1,0,0.1c0,0.1,0.1,0.1,0.2,0c0-0.1,0-0.3-0.1-0.3c-0.1,0-0.3,0.2-0.3,0.3c-0.1,0.1-0.1,0.2,0,0.4
					c0.1,0.2,0.3,0.2,0.4,0.1C92.7,63.7,92.7,63.6,92.6,63.6z"/>
			</g>
		</g>
		<g>
			<path class="st9" d="M100.2,64.4c0,0.3-0.2,0.6-0.5,0.6c-0.3,0-0.5-0.3-0.5-0.6c0-0.3,0.2-0.6,0.5-0.6
				C100,63.8,100.2,64,100.2,64.4"/>
			<path class="st6" d="M100.3,63.2c0,0,0.2-0.7-0.6-1.2C99.7,62.1,99.1,63,100.3,63.2"/>
			<path class="st5" d="M99.3,65.4c0,0-0.8-1.1,0.1-2.2c0,0,0.4-0.5,0.9,0C100.3,63.2,99.4,63.9,99.3,65.4"/>
			<path class="st10" d="M99.7,65.5c-0.2,0-0.8,0-0.4-1.2c0.1-0.2,0.2-0.4,0.3-0.6c0.5-0.7,1.1-0.8,1.3,0.1
				C101.1,65.1,100.2,65.5,99.7,65.5"/>
			<path class="st11" d="M99.6,65.3c0,0,1-0.1,1-0.9C100.6,64.4,100.3,65.3,99.6,65.3"/>
			<path class="st11" d="M99.2,64.5c0,0,0.1-1.1,0.7-1.3C99.9,63.2,99.2,63.2,99.2,64.5"/>
			<path class="st6" d="M100.3,63.2c0,0,0.7,0.4,1.2-1C101.6,62.2,100.2,61.6,100.3,63.2 M100.4,63.1c0.4,0.1,1-0.8,1-0.8
				C100.8,63.5,100.4,63.1,100.4,63.1z"/>
			<path class="st5" d="M101.3,63.8c0.1,0,0.1,0.1,0.2,0.1c0.2,0.2-0.1,0.3,0,0.3c0.1,0.1,0.4-0.1,0.5,0.6c0.1,0.6-0.5,1.1-1,1.1
				c-0.5,0-1-0.5-1-1.1c0-0.6,0.5-1.1,1-1.1C101.2,63.7,101.3,63.8,101.3,63.8"/>
			<path class="st10" d="M100.3,65.5c0,0-0.6-0.9,0.2-1.5c0,0,0.6-0.4,0.9,0c0,0,0.1,0.1,0,0.2c-0.1,0.1,0,0.2,0,0.2
				c0,0,0.4,0,0.5,0.5C102,65.4,101,66.2,100.3,65.5"/>
			<path class="st12" d="M100.5,65.1c0,0-0.1-0.4,0.1-0.7c0.2-0.3,0.7-0.3,0.8,0C101.4,64.3,101.9,65.2,100.5,65.1L100.5,65.1z"/>
		</g>
		<g>
			<g>
				<g>
					<path class="st8" d="M94.6,57.1C94.6,57.1,94.6,57.1,94.6,57.1C94.6,57.1,94.6,57.1,94.6,57.1c-0.3,0-0.4,0.5-0.4,0.8
						c0,0.2,0,0.7,0.3,0.7c0.1,0,0.2-0.1,0.3-0.3c0.1-0.1,0.1-0.3,0.1-0.5C94.9,57.6,94.8,57.1,94.6,57.1z M94.6,58.2
						C94.6,58.2,94.6,58.2,94.6,58.2c0,0.1,0,0.1,0,0.1c0,0,0,0,0,0c-0.1,0-0.2-0.4-0.2-0.5c0-0.1,0-0.2,0-0.4c0,0,0-0.1,0-0.1
						c0.1,0,0.2,0.4,0.2,0.5C94.6,57.9,94.6,58.1,94.6,58.2z"/>
					<path class="st8" d="M93.9,57.1c-0.1-0.1-0.2,0-0.3,0.1c0-0.1,0-0.2,0-0.3c0-0.1-0.1,0-0.1,0c0,0-0.1,0.1-0.1,0.1c0,0,0,0,0,0
						c0,0.1,0,0.1,0,0.2c0,0,0,0,0,0c-0.1,0-0.1,0-0.2,0c0,0,0,0,0,0c0,0-0.1,0-0.1,0c0,0,0,0,0,0c0,0,0,0,0,0
						c-0.3,0.1-0.3,0.6-0.3,0.8c0,0.2,0.1,0.7,0.3,0.7c0.1,0,0.2-0.2,0.3-0.3c0.1-0.2,0.1-0.3,0.1-0.5c0-0.1,0-0.2-0.1-0.4
						c0,0,0.1-0.1,0.1-0.1c0.1,0.4,0.1,0.7,0.1,1.1c0,0.3,0,0.7,0,1c0,0.1,0.1,0.1,0.1,0c0,0,0.1-0.1,0.1-0.2c0-0.2,0-0.5,0-0.7
						c0.1,0,0.2-0.1,0.2-0.1c0.1-0.2,0.2-0.5,0.2-0.7C94.1,57.5,94.1,57.2,93.9,57.1z M93.1,58.3C93.1,58.3,93.1,58.3,93.1,58.3
						c0,0.1,0,0.1,0,0.1c0,0,0,0,0,0c-0.1,0-0.2-0.4-0.2-0.5c0-0.1,0-0.2,0-0.4c0,0,0-0.1,0-0.1c0,0,0,0,0,0c0,0,0,0,0,0
						c0,0,0,0,0,0c0.1,0.1,0.1,0.3,0.1,0.4C93.2,58,93.2,58.2,93.1,58.3z M93.7,57.3C93.7,57.3,93.7,57.3,93.7,57.3L93.7,57.3z
						 M93.9,58.3C93.9,58.3,93.9,58.3,93.9,58.3L93.9,58.3z M93.9,58.3C93.9,58.3,93.9,58.3,93.9,58.3
						C93.9,58.3,93.9,58.3,93.9,58.3c-0.1,0-0.1-0.1-0.1-0.1c0,0,0,0,0,0c0-0.2,0-0.4,0-0.6c0,0,0,0,0,0c0-0.1,0-0.1,0-0.2l0,0
						c0,0,0,0,0,0c0,0,0.1,0,0.1,0.1c0.1,0.1,0.1,0.3,0.1,0.4C93.9,58,93.9,58.2,93.9,58.3z"/>
					<path class="st8" d="M92.3,57.7c0-0.1,0-0.3,0.1-0.4c0-0.2,0.1-0.5,0-0.7c-0.1-0.2-0.3,0-0.4,0.1c-0.1,0.2-0.1,0.5-0.1,0.8
						c0,0.3,0.1,0.6,0.1,0.8c0,0.1-0.1,0.3-0.1,0.4c0,0,0,0,0,0c0,0,0,0,0,0c0,0,0-0.1,0-0.2c-0.1-0.4-0.1-0.9-0.3-1.3
						c0-0.1-0.1-0.3-0.3-0.2c-0.1,0.1-0.2,0.2-0.2,0.3c-0.1-0.1-0.2-0.2-0.3-0.1c-0.1,0-0.1,0.1-0.1,0.2c0-0.1,0-0.1-0.1-0.2
						c-0.1-0.1-0.3,0.2-0.2,0.3c0.1,0,0.1,0.1,0.1,0.2c0,0.1,0.1,0.3,0.1,0.4c0,0.1,0,0.2,0.1,0.2c0.1,0.3,0.2,0.6,0.2,1
						c0,0,0,0,0,0c0.1,0,0.2-0.2,0.1-0.3c-0.1-0.3-0.1-0.6-0.2-0.8c0-0.1,0-0.2-0.1-0.4c0-0.1,0-0.3,0-0.4c0,0,0,0,0-0.1
						c0.1-0.1,0.2,0.4,0.3,0.5c0,0.2,0.1,0.3,0.1,0.5c0.1,0.2,0.1,0.5,0.2,0.7c0,0,0,0,0,0c0.1,0,0.1-0.2,0.1-0.3
						c-0.1-0.3-0.1-0.5-0.2-0.8c0-0.1,0-0.1,0-0.2c0-0.2-0.1-0.4-0.1-0.7c0,0,0,0,0,0c0,0,0.1,0.1,0.1,0.1c0.1,0.2,0.2,0.5,0.2,0.7
						c0,0.2,0.1,0.3,0.1,0.5c0,0.1,0,0.2,0.1,0.3c0.1,0.1,0.2,0,0.2-0.1c0.1-0.1,0.1-0.2,0.1-0.3c0,0.1,0.1,0.3,0.2,0.3
						c0.2,0,0.3-0.3,0.3-0.5c0-0.2,0-0.6-0.1-0.7C92.4,57.6,92.4,57.6,92.3,57.7z M92.1,57.4c0-0.2,0-0.4,0-0.6c0,0,0,0,0,0
						c0,0,0.1,0.1,0.1,0.1c0,0.2,0,0.4,0,0.6c0,0.1,0,0.2,0,0.2C92.1,57.7,92.1,57.5,92.1,57.4z M92.4,58.3c0,0.1,0,0.2,0,0.3
						c0,0,0,0,0,0c0,0,0,0,0,0c0,0-0.1-0.1-0.1-0.1c0-0.1-0.1-0.2-0.1-0.3c0-0.1,0-0.1,0-0.2c0,0,0,0,0.1,0
						C92.4,58,92.4,58.2,92.4,58.3z"/>
					<path class="st8" d="M98.3,59.4c0-0.1-0.1,0-0.1,0c0,0,0,0,0,0c0,0,0,0,0-0.1c0-0.1,0-0.1,0-0.2c0-0.1,0.1-0.3,0.1-0.4
						c0,0,0,0,0,0c0-0.1,0.1-0.2,0.1-0.3c0,0,0,0,0,0c0,0,0,0,0,0c0-0.1,0.1-0.1,0.1-0.2c0-0.1-0.1-0.1-0.1-0.1c0,0,0,0,0,0
						c0-0.1-0.1-0.1-0.2-0.1c-0.2,0-0.4,0.3-0.4,0.6c0,0.2,0,0.3,0.2,0.4c0,0,0,0,0.1,0c0,0.1-0.1,0.1-0.1,0.2c0,0-0.1-0.1-0.1-0.1
						c0,0,0-0.1-0.1-0.1c0,0,0,0,0,0c0,0-0.1,0-0.1,0.1c0,0,0,0,0,0c0-0.1,0-0.2,0-0.2c0-0.3,0.1-0.5,0.2-0.7c0,0,0,0,0,0
						c0-0.2,0-0.3-0.2-0.3c-0.1,0-0.3,0.1-0.3,0.2c-0.1,0.1-0.2,0.4-0.2,0.6l0,0c0,0.1,0,0.2-0.1,0.2c0,0,0,0,0,0c0,0,0,0,0,0
						c0-0.1,0-0.2,0-0.3c0-0.2,0.1-0.5,0.1-0.7c0-0.1,0-0.1,0.1-0.2c0-0.1,0-0.1-0.1-0.1c-0.1,0-0.1,0.1-0.2,0.1
						c0,0.1-0.1,0.1-0.1,0.2c0,0.1-0.1,0.1-0.1,0.2c0,0.1-0.1,0.1-0.1,0.1c0,0,0,0,0,0c0-0.2,0.1-0.5,0.1-0.7c0,0,0-0.1,0-0.1
						c0,0,0,0,0,0c0,0,0,0,0,0c0,0,0,0,0,0c0,0,0,0,0,0l0,0c0,0,0,0-0.1,0c0,0-0.1,0-0.1,0.1c0,0,0,0,0,0c-0.1,0.3-0.2,0.7-0.3,0.9
						c0,0,0,0,0,0c0,0,0,0,0,0l0,0c0,0,0,0,0,0c0,0-0.1-0.1-0.1-0.2c0-0.2,0-0.4,0-0.6c0,0,0-0.1,0-0.1c0,0,0-0.1,0-0.1c0,0,0,0,0,0
						c0,0,0,0,0,0c0,0,0,0.1,0.1,0.1c0,0.1,0.3-0.1,0.2-0.2c-0.1-0.2-0.2-0.2-0.3-0.1c-0.1,0.1-0.1,0.1-0.2,0.2c0,0,0,0,0,0
						c0,0,0,0,0,0c0,0,0,0,0,0.1c0,0,0,0,0,0c0,0.1,0,0.1-0.1,0.2c0-0.2,0-0.4,0.1-0.6c0-0.2-0.2,0-0.2,0.1c0,0.1-0.1,0.2-0.1,0.2
						c0-0.1,0-0.2,0-0.3c-0.1-0.2-0.2-0.2-0.4-0.1c0,0-0.1,0.1-0.1,0.2c0,0,0.1,0,0.1,0c0,0,0,0,0,0c0,0,0,0,0,0c0,0,0,0.1,0,0.1
						c0,0.1,0,0.3,0,0.4c0,0.1,0,0.3-0.1,0.4c0,0,0,0,0,0c0,0,0,0,0,0c0,0,0-0.1-0.1-0.1c0-0.1-0.2,0.1-0.2,0.2
						c0.1,0.2,0.3,0.1,0.4-0.1c0-0.1,0.1-0.1,0.1-0.2c0-0.1,0-0.1,0.1-0.2c0,0.2,0,0.4-0.1,0.6c0,0.1,0.1,0.1,0.1,0.1
						c0.1,0,0.1-0.1,0.1-0.2c0-0.1,0-0.1,0.1-0.2c0,0.1,0,0.2,0,0.2c0,0.1,0.1,0.2,0.1,0.2c0.1,0.1,0.2,0,0.3-0.1
						c0.1-0.1,0.1-0.1,0.2-0.2c0,0.1,0,0.3-0.1,0.4c0,0.1,0.1,0.1,0.1,0.1c0.1,0,0.1-0.1,0.1-0.1c0-0.1,0.1-0.2,0.1-0.3
						c0-0.1,0.1-0.1,0.1-0.1c0,0,0,0,0,0c0,0.2-0.1,0.4-0.1,0.6c0,0.2,0.1,0.2,0.2,0.2c0.1,0,0.1,0,0.1-0.1c0,0.1,0,0.1,0.1,0.2
						c0.1,0.1,0.2,0.1,0.3,0c0,0,0,0,0,0c0,0,0,0.1,0,0.1c0,0.2,0.1,0.2,0.2,0.2c0.1,0.2,0.2,0.2,0.4,0.1c0,0,0,0,0.1,0
						c0,0,0,0.1,0,0.1c0,0.2,0.2,0.2,0.3,0.2C98.3,59.5,98.4,59.5,98.3,59.4z M97.2,58.9C97.2,58.9,97.2,58.9,97.2,58.9
						c-0.1-0.1-0.1-0.1-0.1-0.2c0-0.1,0-0.2,0-0.2c0,0,0,0,0,0c0,0,0,0,0,0c0-0.1,0.1-0.2,0.1-0.3c0-0.1,0.1-0.1,0.1-0.2
						c0,0,0,0,0,0c0,0,0,0,0,0c0.1,0,0.1,0.1,0.1,0.1C97.4,58.3,97.3,58.6,97.2,58.9C97.2,58.8,97.2,58.8,97.2,58.9z M97.5,59.1
						L97.5,59.1L97.5,59.1L97.5,59.1z M98,58.6c0-0.1,0.1-0.3,0.1-0.3c0,0,0,0,0,0c0,0,0,0.1,0,0.2c0,0.1-0.1,0.2-0.1,0.3
						C98,58.7,98,58.7,98,58.6z M98.2,59.4C98.2,59.4,98.2,59.4,98.2,59.4L98.2,59.4z"/>
				</g>
			</g>
			<g>
				<path class="st8" d="M98.1,61.4c0,0.1-0.1,0.2-0.2,0.2c0,0,0,0,0,0c0,0,0-0.2,0-0.2c0-0.2,0.1-0.3,0.1-0.5c0,0,0-0.1,0-0.1
					c0-0.1,0-0.1,0.1-0.2c0,0,0,0,0,0c0-0.1,0-0.3-0.2-0.3c-0.1,0-0.3,0-0.3,0.1c-0.1,0.1-0.2,0.3-0.2,0.5c0,0,0,0,0,0
					c0,0.1-0.1,0.1-0.1,0.2c0,0,0,0,0,0c-0.1,0,0-0.1,0-0.2c0-0.1,0-0.2,0-0.3c0-0.1-0.1-0.1-0.2-0.1c0,0,0,0,0,0c0,0,0,0,0,0
					c0-0.1,0.1-0.2,0.1-0.2c0,0,0,0,0,0c0,0,0,0,0,0c0,0,0.1,0.1,0.1,0.1c0.1,0.1,0.3,0,0.2-0.1c-0.1-0.1-0.2-0.2-0.3-0.1
					c-0.1,0-0.1,0.1-0.2,0.1c0,0,0,0,0,0c0-0.1,0-0.3,0-0.4c0-0.1-0.2,0-0.2,0.1c0,0.2,0,0.4-0.1,0.6c0,0,0,0,0,0
					c-0.1,0.2-0.1,0.3-0.3,0.4c0,0,0,0-0.1,0c0,0,0,0,0,0c0,0,0,0,0,0c0,0,0-0.1,0-0.1c0-0.2,0-0.3,0.1-0.5c0-0.1,0-0.2,0.1-0.3
					c0,0,0-0.1,0.1-0.1c0-0.1,0-0.1-0.1-0.1c-0.1,0-0.1,0.1-0.2,0.1c0,0.1,0,0.1-0.1,0.2c0,0.1-0.1,0.1-0.1,0.2
					c0,0.1-0.1,0.1-0.1,0.1c0,0,0,0,0,0c0-0.2,0-0.4,0.1-0.7c0-0.1-0.2,0-0.2,0.1c0,0.1,0,0.2,0,0.3c0,0,0,0,0,0
					c0,0.2-0.1,0.4-0.2,0.6c0,0,0,0,0,0c0,0,0-0.2-0.1-0.2c0-0.2,0-0.3,0-0.5c0,0,0-0.1,0-0.1c0-0.1,0-0.1,0-0.2c0,0,0,0,0,0
					c0-0.2-0.1-0.2-0.2-0.2c-0.1,0-0.2,0.1-0.3,0.3c-0.1,0.2-0.1,0.4-0.1,0.6c0,0,0,0,0,0c0,0.1,0,0.2-0.1,0.2c0,0,0,0,0,0
					c-0.1,0-0.1-0.1-0.1-0.2c0-0.1,0-0.2-0.1-0.3c0-0.1-0.1-0.1-0.2,0c0,0,0,0,0,0c0,0,0,0,0-0.1c0-0.1,0-0.2,0.1-0.3c0,0,0,0,0,0
					c0,0,0,0,0,0c0,0,0.1,0,0.1,0c0.1,0.1,0.3-0.1,0.2-0.2c-0.1-0.1-0.2-0.1-0.3,0c-0.1,0-0.1,0.1-0.2,0.2c0,0,0,0,0,0
					c0-0.1,0-0.3,0-0.4c0-0.1-0.2,0.1-0.2,0.2c0,0.1,0,0.3,0.1,0.4c0,0.2-0.1,0.4-0.2,0.5c0,0.1-0.1,0.2-0.2,0.2
					c-0.1,0.1-0.2,0.1-0.2-0.1c0,0,0,0,0,0c0.1-0.2,0.2-0.5,0.3-0.7c0-0.2-0.1-0.3-0.2-0.3c-0.2,0-0.2,0.2-0.3,0.4
					c-0.1,0.2-0.1,0.4,0,0.5c0,0.1,0,0.1,0,0.2c0,0,0,0-0.1,0.1c0,0-0.1,0.1-0.1,0.1c0,0,0,0,0,0c-0.1-0.1-0.1-0.3-0.1-0.5
					c0-0.2,0-0.3-0.1-0.5c0-0.1-0.1-0.2-0.2-0.2c-0.1,0-0.2,0.2-0.2,0.3c0,0,0,0,0,0c0-0.1,0-0.1-0.1-0.2c0-0.1-0.2,0.1-0.2,0.2
					c0.1,0.1,0.1,0.3,0.1,0.5l0,0c0,0,0,0,0,0l0,0c0,0.1,0,0.1,0,0.2c0,0.1,0,0.2-0.1,0.3c0,0,0,0,0,0c0,0,0,0,0-0.1
					c0-0.1-0.1-0.1-0.1-0.2c-0.1-0.2-0.1-0.4-0.1-0.6c0,0,0,0,0,0c0-0.2-0.1-0.2-0.3-0.1c-0.1,0.1-0.2,0.2-0.2,0.4
					c-0.1,0.2,0,0.5,0,0.7c-0.1,0.1-0.1,0.2-0.1,0.3c0-0.1-0.1-0.1-0.1-0.1c0-0.2,0-0.5-0.1-0.7c0-0.1-0.1-0.3-0.3-0.2
					c-0.1,0-0.2,0.2-0.2,0.3c-0.1,0.1,0,0.3,0,0.4c0,0.1,0.2-0.1,0.2-0.2c0,0,0-0.1,0-0.1c0,0,0,0,0,0c0,0,0,0,0,0c0,0,0,0,0,0
					c0.1,0,0.1,0.1,0.2,0.2c0,0.1,0.1,0.2,0.1,0.4c0,0,0,0.1,0,0.1c0,0,0,0-0.1,0.1c0,0,0,0,0,0.1c0,0.1,0,0.1,0,0.2c0,0,0,0,0,0
					c0,0,0,0,0,0c0,0,0.1-0.1,0.1-0.1c0,0,0.1,0,0.1,0.1c-0.1,0.2-0.1,0.4-0.2,0.6c0,0.2,0,0.5,0.1,0.6c0.1,0.1,0.2,0,0.3-0.1
					c0.2-0.2,0.2-0.6,0.1-0.9c0-0.1,0-0.2-0.1-0.3c0-0.1,0.1-0.2,0.1-0.2c0,0.1,0.1,0.2,0.2,0.2c0.1,0,0.2-0.1,0.2-0.2c0,0,0,0,0,0
					c0,0.1,0.1,0.2,0.2,0.1c0.1-0.1,0.1-0.2,0.2-0.3c0,0.1,0,0.1,0,0.2c0,0.1,0.2-0.1,0.2-0.2c0-0.2,0-0.5,0-0.7c0-0.1,0-0.2,0-0.2
					c0,0,0-0.1,0-0.1c0,0,0,0,0,0c0,0,0,0,0,0c0,0,0.1,0.1,0.1,0.2c0,0.1,0,0.3,0.1,0.4c0,0.2,0,0.6,0.3,0.5
					c0.1-0.1,0.2-0.2,0.3-0.2c0,0,0,0.1,0.1,0.1c0.1,0.2,0.3,0,0.4-0.1c0.1-0.1,0.2-0.3,0.3-0.5c0,0.2,0,0.3,0,0.5
					c0,0.1,0.1,0.1,0.1,0c0,0,0.1-0.1,0.1-0.2c0-0.1,0-0.3,0-0.4c0.1,0,0.1,0.5,0.1,0.5c0.1,0.1,0.2,0,0.2-0.1c0,0,0,0,0.1-0.1
					c0,0.1,0,0.1,0.1,0.2c0.1,0.1,0.2,0,0.3-0.1c0,0,0,0,0,0c0,0.1,0,0.2,0.1,0.2c0.1,0,0.2,0,0.2-0.1c0,0,0.1-0.1,0.1-0.1
					c0,0.1,0,0.1,0,0.2c0,0.1,0.1,0.1,0.1,0.1c0.1,0,0.1-0.1,0.1-0.1c0-0.1,0.1-0.2,0.1-0.3c0-0.1,0.1-0.1,0.1-0.1c0,0,0,0,0,0
					c0,0,0,0,0,0.1c0,0.2-0.1,0.4,0,0.6c0,0.2,0.3,0,0.3,0c0.1,0,0.1-0.1,0.1-0.1c0,0.1,0,0.2-0.1,0.3c0,0.1,0,0.1,0.1,0.1
					c0.1,0,0.1-0.1,0.1-0.1c0-0.1,0.1-0.2,0.1-0.4c0.1,0.1,0,0.5,0,0.6c0.1,0.1,0.2,0.1,0.2,0c0,0,0.1,0,0.1,0c0,0.1,0,0.2,0.1,0.2
					c0.1,0.1,0.2,0.1,0.3,0c0,0,0,0,0,0c0,0.1,0,0.2,0.1,0.2c0.1,0.1,0.2,0,0.2,0c0.1,0,0.2-0.1,0.2-0.2
					C98.2,61.5,98.2,61.4,98.1,61.4z M91.5,62.6L91.5,62.6C91.5,62.6,91.5,62.6,91.5,62.6c0,0-0.1,0-0.1,0c-0.1-0.1-0.1-0.3-0.1-0.5
					c0-0.1,0-0.2,0.1-0.3c0,0,0,0,0,0.1c0,0.1,0.1,0.2,0.1,0.4C91.5,62.4,91.5,62.5,91.5,62.6z M92,61.2C92,61.2,91.9,61.2,92,61.2
					c-0.1,0-0.1-0.1-0.1-0.1c-0.1-0.2-0.1-0.4-0.1-0.6c0-0.1,0-0.2,0-0.2c0,0,0,0,0,0c0,0,0,0,0,0c0.1,0,0.1,0,0.1,0.1
					C91.9,60.6,92,60.9,92,61.2C92,61.2,92,61.2,92,61.2z M93.6,60.5c0-0.1,0-0.3,0-0.4c0-0.1,0-0.1,0-0.2c0,0,0,0,0,0c0,0,0,0,0,0
					c0,0,0.1,0.1,0.1,0.1C93.7,60.2,93.6,60.3,93.6,60.5z M95.2,60.7C95.2,60.7,95.2,60.8,95.2,60.7C95.2,60.8,95.2,60.8,95.2,60.7
					c-0.1,0-0.1-0.1-0.1-0.1c0-0.2,0-0.4,0-0.6c0-0.1,0-0.1,0.1-0.2c0,0,0,0,0,0c0,0,0,0,0,0c0.1,0,0.1,0.1,0.1,0.1
					C95.3,60.2,95.3,60.5,95.2,60.7z M97.8,60.7c-0.1,0.2-0.1,0.5-0.2,0.7c0,0,0,0,0,0c0,0,0,0,0,0c0,0,0-0.1,0-0.2
					c0-0.2,0.1-0.4,0.1-0.5c0,0,0.1-0.1,0.1-0.1c0,0,0,0,0,0c0,0,0,0,0,0C97.8,60.6,97.8,60.7,97.8,60.7z"/>
				<polygon class="st8" points="91.5,62.6 91.5,62.6 91.5,62.6 				"/>
				<path class="st8" d="M91.5,62.6C91.5,62.6,91.5,62.6,91.5,62.6L91.5,62.6z"/>
				<path class="st8" d="M93.6,59.9C93.6,59.9,93.6,59.9,93.6,59.9L93.6,59.9z"/>
			</g>
		</g>
		<g>
			<path class="st13" d="M88.3,56.1C88.3,56.1,88.2,56.1,88.3,56.1c-0.2-0.1-0.3,0-0.4,0c-0.2,0-0.3,0-0.6-0.1
				c0-0.3,0.2-0.5,0.2-0.8c0.1-0.2,0-0.5,0-0.8c0-0.2,0-0.3,0-0.5c-0.1,0.1-0.1,0.4-0.1,0.6c0-0.2,0-0.5-0.1-0.6c0,0.2,0,0.5,0,0.6
				c0-0.2,0-0.4-0.1-0.6c-0.1,0.2,0,0.4,0,0.6c-0.1-0.2-0.1-0.4-0.1-0.5c0,0.2,0,0.4,0,0.5c0-0.1-0.1-0.3-0.1-0.4
				c0,0.1,0.1,0.3,0.1,0.4c-0.1,0-0.1-0.2-0.2-0.2c0,0.1,0.1,0.2,0.1,0.3c0,0-0.1-0.1-0.1-0.1c0,0.1,0.1,0.1,0.1,0.2
				c0,0-0.1-0.1-0.1-0.1c0,0.1,0.1,0.1,0.1,0.2c0,0-0.1,0-0.1,0c0,0,0.1,0.1,0,0.1c0,0,0,0,0,0c0,0.1,0,0,0,0.1c0,0,0,0,0,0
				c0,0,0,0,0,0.1c-0.2,0.3-0.1,0.6-0.1,0.9c0,0-0.2-0.1-0.3-0.2c-0.1,0-0.1-0.2-0.2-0.2c0,0,0,0,0,0c0,0,0,0-0.1-0.1
				c0,0,0.1,0,0.1,0c0,0-0.1-0.1-0.1-0.1c0.1,0,0.1,0,0.1,0c-0.1,0-0.2-0.1-0.2-0.2c0,0,0.1,0.1,0.2,0.1c-0.1-0.1-0.2-0.2-0.2-0.2
				c0.1,0,0.1,0.1,0.2,0.1c-0.1,0-0.2-0.2-0.3-0.2c0,0.1,0.2,0.2,0.2,0.3c-0.1-0.1-0.2-0.1-0.2-0.2c0,0.1,0.1,0.2,0.2,0.3
				c-0.1,0-0.1-0.1-0.2-0.1c0,0.1,0.1,0.1,0.2,0.2c0,0-0.1,0-0.1,0c0,0.1,0.1,0.1,0.1,0.1c0,0-0.1,0-0.1,0c0,0,0.1,0,0.1,0.1
				c0,0-0.1,0-0.1,0c0,0,0.1,0,0.1,0c0,0,0,0,0,0c0,0,0,0,0,0c0,0,0,0,0,0c0.1,0.1,0.2,0.3,0.3,0.4c-0.1,0.1,0.1,0.2-0.9,0.6
				c0,0,0.4-0.1,0.6-0.2c0.1-0.1,0.2-0.1,0.4-0.1c0,0,0.1,0,0.1,0c0.2,0,0.4,0,0.6-0.1c-0.2,0-0.4,0.1-0.5-0.1
				c0.1-0.3,0.1-1,0.2-1.1c0.1-0.1,0.3-0.6,0.5-0.2c0,0.1,0,0.2,0,0.3c-0.1,0.2-0.2,0.3-0.1,0.7c0,0.1,0,0.2-0.1,0.2
				c0.4,0.1,0.6,0.1,0.8,0c0.1,0,0.2-0.1,0.2,0c0,0-0.1,0-0.2,0c-0.1,0,0,0.1,0.1,0.1c0,0,0.3,0,0.4-0.1
				C88.4,56.2,88.4,56.2,88.3,56.1z"/>
			<path class="st13" d="M87.1,53.2c-1,0-1.8,1-1.8,2.3c0,1.3,0.8,2.3,1.7,2.4c1,0,1.8-1,1.8-2.3C88.8,54.3,88.1,53.3,87.1,53.2
				 M87.1,53.3c0.9,0,1.7,1,1.7,2.3c0,1.2-0.8,2.2-1.8,2.2c-0.9,0-1.7-1-1.7-2.3C85.3,54.3,86.1,53.3,87.1,53.3"/>
		</g>
	</g>
	<g>
		
			<ellipse transform="matrix(0.9997 -2.410225e-02 2.410225e-02 0.9997 -1.4212 0.8746)" class="st4" cx="35.6" cy="59.4" rx="5.2" ry="6.7"/>
		<path class="st5" d="M32.9,51.2c0,0.5-0.3,0.9-0.6,0.9c-0.4,0-0.7-0.4-0.7-0.8c0-0.5,0.3-0.9,0.6-0.9
			C32.6,50.4,32.9,50.7,32.9,51.2L32.9,51.2z"/>
		<path class="st6" d="M33,54.1c0,0.6-0.4,1.1-0.8,1.1c-0.5,0-0.9-0.5-0.9-1.1c0-0.6,0.4-1.1,0.8-1.1C32.6,53,33,53.5,33,54.1
			L33,54.1z"/>
		<path class="st6" d="M30.7,52.5c0,0.4-0.2,0.7-0.5,0.7c-0.3,0-0.5-0.3-0.5-0.6c0-0.4,0.2-0.7,0.5-0.7
			C30.5,51.8,30.7,52.1,30.7,52.5L30.7,52.5z"/>
		<g>
			
				<ellipse transform="matrix(0.9997 -2.410225e-02 2.410225e-02 0.9997 -1.2693 0.9754)" class="st7" cx="39.8" cy="53.1" rx="2.8" ry="3.7"/>
			<g>
				<path class="st8" d="M39.1,52.6c-0.2,0-0.3,0.4-0.3,0.7l0,0l0,0c0,0,0,0.1,0,0.1c0,0.1,0,0.2,0,0.3c0,0,0,0.1,0,0.1
					c-0.1,0-0.2-0.2-0.2-0.2c-0.1-0.2-0.1-0.4-0.1-0.6c0-0.2-0.1-0.4-0.1-0.7c0-0.1,0-0.2,0-0.3c0,0,0-0.1,0-0.1c0,0,0-0.1,0-0.1
					c0-0.2-0.2,0-0.2,0.1c-0.2,0.4-0.1,0.9-0.1,1.4c0,0.1,0,0.3,0,0.4c0,0.1,0,0.2-0.1,0.3c0,0-0.1,0-0.1,0c0,0-0.1-0.1-0.1-0.2
					c0-0.1-0.1,0-0.1,0c0,0.1-0.1,0.1-0.1,0.2c0,0.2,0.1,0.3,0.3,0.3c0.2-0.1,0.3-0.4,0.3-0.7c0-0.1,0-0.3,0-0.4
					c0,0.2,0.1,0.4,0.1,0.5c0.1,0.1,0.1,0.2,0.3,0.2c0.1,0,0.1-0.1,0.2-0.3c0,0.1,0.1,0.2,0.2,0.2c0.1,0,0.2-0.2,0.3-0.3
					c0-0.2,0.1-0.3,0.1-0.5C39.4,53.1,39.4,52.6,39.1,52.6z M39.2,53.7C39.2,53.7,39.2,53.8,39.2,53.7c-0.1,0.1-0.1,0-0.1,0
					c0-0.1-0.1-0.2-0.1-0.3c0-0.1,0-0.2,0-0.4c0,0,0-0.1,0-0.1c0.1,0.1,0.1,0.3,0.2,0.5C39.2,53.5,39.2,53.6,39.2,53.7z"/>
				<path class="st8" d="M41.9,53c-0.3-0.1-0.4,0.3-0.4,0.6c0,0.2-0.1,0.6,0.1,0.8c0.1,0.1,0.2-0.1,0.3-0.1c0.1-0.1,0.1-0.3,0.1-0.4
					C42.1,53.5,42.2,53.1,41.9,53z M41.8,54.1C41.8,54.1,41.8,54.1,41.8,54.1c-0.1,0-0.1-0.1-0.1-0.1c0-0.1,0-0.2,0-0.3
					c0-0.1,0-0.2,0.1-0.3c0,0,0-0.1,0-0.1c0.1,0.1,0.1,0.4,0.1,0.5C41.9,53.9,41.9,54,41.8,54.1z"/>
				<path class="st8" d="M41.3,53.1c0-0.1,0.1-0.2,0.1-0.3c0.1-0.2,0.2-0.4,0.2-0.6c0-0.2-0.2-0.2-0.3-0.1c-0.2,0.1-0.2,0.3-0.3,0.6
					c-0.1,0.3-0.1,0.6-0.1,0.9l0,0c-0.1,0.1-0.2,0.4-0.4,0.3c0,0-0.1-0.1-0.1-0.1c0.1-0.1,0.2-0.3,0.3-0.5c0.1-0.2,0.1-0.4,0-0.5
					c-0.1-0.1-0.3,0-0.4,0.2c-0.1,0.1-0.1,0.3-0.1,0.5c0,0.1,0,0.2,0,0.4c-0.1,0.1-0.2,0.1-0.3,0.1c-0.1,0-0.1-0.2-0.2-0.3
					c0-0.2,0-0.3,0-0.5c0,0,0-0.1,0-0.1c0,0,0,0,0,0c0.1,0,0.1,0.2,0.1,0.2c0,0.1,0.2-0.1,0.2-0.2c0-0.1-0.1-0.2-0.2-0.3
					c-0.1-0.1-0.2,0-0.3,0.1c-0.1,0.2-0.2,0.5-0.1,0.8c0,0.2,0,0.4,0.2,0.5c0.2,0.1,0.4,0,0.5-0.1c0,0.1,0.1,0.2,0.2,0.2
					c0.2,0,0.3-0.1,0.4-0.3c0,0.1,0,0.3,0.1,0.4c0.1,0.1,0.3,0,0.4-0.2c0.1-0.2,0.2-0.5,0.1-0.7C41.4,53.1,41.3,53.1,41.3,53.1z
					 M40.4,53c0,0,0-0.1,0-0.1c0,0,0,0,0,0c0.1,0,0.1,0.1,0.1,0.2c0,0.1-0.1,0.2-0.1,0.4c0,0,0,0,0-0.1C40.4,53.2,40.4,53.1,40.4,53
					z M41.2,52.3c0,0,0-0.1,0.1-0.1c0,0,0,0,0,0c0.1,0.1,0,0.3,0,0.5c-0.1,0.1-0.1,0.3-0.2,0.4c0-0.1,0-0.3,0-0.4
					C41.1,52.6,41.2,52.5,41.2,52.3z M41.2,53.9C41.2,53.9,41.2,53.9,41.2,53.9C41.2,53.9,41.1,53.9,41.2,53.9
					c-0.1,0-0.1-0.2-0.1-0.2c0-0.1,0-0.1,0-0.2c0,0,0.1-0.1,0.1-0.1c0.1-0.1,0.1,0,0.1,0.1C41.3,53.6,41.2,53.7,41.2,53.9z"/>
			</g>
		</g>
		<g>
			<g>
				<path class="st8" d="M35.9,64c0,0-0.1,0-0.1,0c0-0.1,0-0.1,0-0.2c0-0.1-0.1,0-0.1,0.1c0,0.1,0,0.2,0,0.3c0,0,0,0,0,0s0,0,0,0
					c0,0.1,0,0.1,0,0.2c0,0-0.1,0.1-0.1,0.1c0-0.2,0-0.4,0-0.6c0,0,0,0,0,0c0,0,0,0,0,0c0,0,0,0,0,0c0,0,0,0,0,0c0,0-0.1,0-0.1,0.1
					c0,0,0,0,0,0c0,0.2,0,0.3-0.1,0.5c0,0.1,0,0.2-0.1,0.1c-0.1-0.1,0-0.3,0-0.3c0-0.1,0-0.2,0-0.3c0-0.1-0.1,0-0.1,0.1
					c0,0.1-0.1,0.3-0.1,0.5c-0.1,0-0.2,0.1-0.2,0.1c0-0.1,0-0.1,0-0.2c0-0.1-0.1-0.2-0.1-0.2c0,0,0,0,0,0c0,0,0-0.1,0.1-0.1
					c0,0,0.1-0.1,0.1,0c0,0.1,0.2-0.1,0.1-0.1c-0.1-0.1-0.2-0.1-0.3,0c0-0.1,0-0.2,0-0.3c0-0.1-0.1,0-0.1,0.1c0,0.3-0.1,0.6-0.2,0.8
					c0,0.1,0.1,0,0.2,0c0-0.1,0-0.1,0.1-0.2c0.1,0.1,0,0.3,0.1,0.3c0.1,0.1,0.2,0,0.3-0.1c0,0.1,0.1,0.1,0.1,0.2
					c0.1,0,0.2,0,0.2-0.1c0,0,0,0,0,0c-0.1,0.1-0.1,0.1-0.2,0.2c-0.1,0.1-0.3,0.5,0,0.5c0.2,0.1,0.3-0.1,0.3-0.3c0-0.1,0-0.3,0-0.5
					c0,0,0.1-0.1,0.1-0.1c0,0,0,0,0,0c0,0,0,0,0,0c0,0,0,0,0,0c0,0.2,0,0.4,0,0.6c0,0.1,0.2,0,0.2-0.1c0-0.1,0-0.3,0-0.4
					c0,0,0.1,0,0.1-0.1c0.1-0.1,0.1-0.3,0.1-0.4C36,64.2,36,64,35.9,64z M35.3,65.3c-0.2,0,0-0.2,0.1-0.4
					C35.4,65.2,35.3,65.3,35.3,65.3z M35.9,64.6C35.9,64.6,35.9,64.7,35.9,64.6C35.9,64.7,35.9,64.7,35.9,64.6c-0.1,0.1-0.1,0-0.1,0
					c0-0.1,0-0.3,0-0.4c0-0.1,0-0.1,0.1,0c0,0.1,0,0.1,0,0.2C35.9,64.5,35.9,64.5,35.9,64.6z"/>
				<path class="st8" d="M37.1,63.5C37.1,63.5,37.1,63.5,37.1,63.5C37,63.6,37,63.8,37,64c0,0,0,0.1,0.1,0.2c0,0.1-0.1,0.2-0.2,0.2
					c-0.2,0,0-0.3,0-0.5c0-0.3-0.2-0.3-0.3-0.1c0,0.1,0,0.2,0,0.1c0.1-0.1,0.1,0,0.1,0c0,0.1-0.1,0.2-0.1,0.3c0,0,0,0.1,0,0.1
					c-0.1,0.1-0.1,0.1-0.2,0c0-0.1-0.1-0.2-0.1-0.3c0-0.1,0-0.1,0-0.2c0,0,0,0,0-0.1c0,0,0,0,0,0c-0.1-0.2-0.2,0-0.3,0.1
					c-0.1,0.2-0.1,0.4,0,0.6c0,0.2,0.2,0.2,0.3,0c0,0,0,0,0,0c0,0,0,0,0,0.1c0.1,0.1,0.2-0.1,0.3-0.2c0,0,0,0,0,0
					c0.1,0.1,0.3-0.1,0.4-0.3c0,0.1,0.1,0.1,0.2,0.1c0.2-0.1,0.1-0.4,0.1-0.5C37.4,63.7,37.2,63.4,37.1,63.5z M36.3,64.6
					C36.3,64.6,36.3,64.6,36.3,64.6c-0.1-0.1-0.1-0.2-0.1-0.3c0-0.1,0-0.1,0-0.2c0,0,0-0.1,0-0.1c0-0.1,0.1,0,0.1,0
					c0,0.1,0,0.2,0,0.4C36.4,64.5,36.4,64.6,36.3,64.6z M37.3,64C37.3,64,37.3,64.1,37.3,64c0,0.1,0,0.1,0,0.1S37.2,64,37.2,64
					c0-0.1,0-0.1-0.1-0.2c0,0,0-0.1,0-0.1c0,0,0,0,0,0c0.1,0,0.1,0.1,0.2,0.2C37.3,63.9,37.3,63.9,37.3,64z"/>
				<path class="st8" d="M37.4,63.2c0.1-0.1,0.1-0.2,0.1-0.3c0,0,0-0.1,0,0c0,0,0,0.1,0,0.1c0,0,0,0,0,0c0,0,0,0,0,0c0,0,0,0,0,0
					c0,0,0,0,0,0c0,0,0,0,0,0c0,0,0,0,0,0s0,0-0.1,0.1C37.3,63.1,37.3,63.1,37.4,63.2C37.4,63.2,37.4,63.2,37.4,63.2z"/>
				<path class="st8" d="M38,63.5c0,0.1-0.2-0.1-0.2-0.1c0,0,0-0.1-0.1-0.1c0-0.1-0.1-0.1-0.1-0.2c0,0,0,0,0,0
					c0-0.1-0.1,0.1-0.1,0.2c0,0.1,0.1,0.2,0.1,0.3c0,0.1,0,0.1,0.1,0.2c0,0.1,0,0.1,0,0.1c-0.2,0-0.2-0.4-0.3-0.5
					c0-0.1-0.1,0.1-0.1,0.1c0,0.1,0.2,0.8,0.4,0.6c0.1-0.1,0.1-0.1,0.1-0.2C37.9,63.9,38,63.7,38,63.5C38.1,63.4,38,63.4,38,63.5z"
					/>
				<path class="st8" d="M33.9,64c-0.1,0-0.2,0-0.2-0.1c-0.1-0.1,0-0.2,0-0.2c0-0.1,0.1-0.2,0.1-0.2c0,0,0,0,0-0.1c0,0,0,0,0,0
					c0,0,0,0.1,0,0.1c0,0.1,0.2,0.1,0.2,0c0-0.1,0-0.3-0.1-0.3c-0.1,0-0.3,0.2-0.3,0.3c-0.1,0.1-0.1,0.2,0,0.4
					c0.1,0.2,0.3,0.1,0.4,0.1C34,64,34,63.9,33.9,64z"/>
			</g>
		</g>
		<g>
			<path class="st9" d="M41.5,64.4c0,0.3-0.2,0.6-0.5,0.6c-0.3,0-0.5-0.3-0.5-0.6c0-0.3,0.2-0.6,0.5-0.6
				C41.2,63.8,41.5,64.1,41.5,64.4"/>
			<path class="st6" d="M41.5,63.3c0,0,0.2-0.7-0.6-1.2C40.9,62.1,40.3,63.1,41.5,63.3"/>
			<path class="st5" d="M40.6,65.5c0,0-0.8-1.1,0-2.2c0,0,0.4-0.5,0.9,0C41.6,63.3,40.7,64,40.6,65.5"/>
			<path class="st10" d="M41.1,65.6c-0.2,0-0.8,0.1-0.4-1.2c0.1-0.2,0.1-0.4,0.2-0.6c0.5-0.7,1.1-0.8,1.3,0
				C42.4,65.1,41.5,65.5,41.1,65.6"/>
			<path class="st11" d="M40.9,65.4c0,0,1-0.1,1-1C41.9,64.4,41.6,65.3,40.9,65.4"/>
			<path class="st11" d="M40.5,64.5c0,0,0.1-1.1,0.6-1.3C41.1,63.2,40.5,63.3,40.5,64.5"/>
			<path class="st6" d="M41.6,63.3c0,0,0.7,0.4,1.2-1.1C42.8,62.2,41.4,61.6,41.6,63.3 M41.7,63.1c0.4,0.1,1-0.9,1-0.9
				C42.1,63.5,41.6,63.1,41.7,63.1z"/>
			<path class="st5" d="M42.6,63.8c0.1,0,0.1,0.1,0.2,0.1c0.2,0.2-0.1,0.3,0,0.3c0.1,0.1,0.4-0.1,0.5,0.6c0.1,0.6-0.4,1.1-0.9,1.1
				c-0.5,0-1-0.5-1-1.1c0-0.6,0.4-1.1,1-1.1C42.5,63.8,42.5,63.8,42.6,63.8"/>
			<path class="st10" d="M41.7,65.5c0,0-0.6-0.8,0.2-1.5c0,0,0.6-0.4,0.9-0.1c0,0,0.1,0.1,0,0.2c-0.1,0.1,0,0.2,0,0.2
				c0,0,0.4,0,0.5,0.5C43.4,65.4,42.4,66.2,41.7,65.5"/>
			<path class="st12" d="M41.8,65.1c0,0-0.1-0.4,0.1-0.7c0.2-0.3,0.7-0.3,0.8,0C42.7,64.3,43.2,65.2,41.8,65.1L41.8,65.1z"/>
		</g>
		<g>
			<g>
				<g>
					<path class="st8" d="M35.6,57.4C35.6,57.4,35.6,57.4,35.6,57.4C35.6,57.4,35.6,57.4,35.6,57.4c-0.3,0-0.4,0.5-0.4,0.8
						c0,0.2,0,0.7,0.3,0.7c0.1,0,0.2-0.2,0.3-0.3c0.1-0.1,0.1-0.3,0.1-0.5C35.9,57.9,35.8,57.4,35.6,57.4z M35.6,58.5
						C35.6,58.5,35.6,58.5,35.6,58.5c0,0.1,0,0.1,0,0.1c0,0,0,0,0,0c-0.1,0-0.2-0.4-0.2-0.5c0-0.1,0-0.2,0-0.4c0,0,0-0.1,0-0.1
						c0.1,0,0.2,0.4,0.2,0.5C35.7,58.2,35.7,58.4,35.6,58.5z"/>
					<path class="st8" d="M34.9,57.4c-0.1-0.1-0.2,0-0.3,0.1c0-0.1,0-0.2-0.1-0.3c0-0.1-0.1,0-0.1,0c0,0-0.1,0.1-0.1,0.1
						c0,0,0,0,0,0c0,0.1,0,0.1,0,0.2c0,0,0,0,0,0c-0.1,0-0.1,0-0.2,0c0,0,0,0,0,0c0,0-0.1,0-0.1,0c0,0,0,0,0,0c0,0,0,0,0,0
						c-0.3,0.1-0.3,0.6-0.3,0.8c0,0.2,0.1,0.7,0.4,0.7c0.1,0,0.2-0.2,0.3-0.3c0-0.2,0.1-0.3,0-0.5c0-0.1,0-0.2-0.1-0.4
						c0,0,0.1-0.1,0.1-0.1c0.1,0.4,0.1,0.7,0.1,1.1c0,0.3,0.1,0.7,0.1,1c0,0.1,0.1,0.1,0.1,0c0,0,0.1-0.1,0.1-0.2c0-0.2,0-0.5,0-0.7
						c0.1,0,0.2-0.1,0.2-0.2c0.1-0.2,0.1-0.5,0.1-0.7C35.1,57.8,35.1,57.5,34.9,57.4z M34.2,58.6C34.2,58.7,34.2,58.7,34.2,58.6
						c0,0.1,0,0.1,0,0.1c0,0,0,0,0,0c-0.1,0-0.2-0.3-0.2-0.5c0-0.1,0-0.2,0-0.4c0,0,0-0.1,0-0.1c0,0,0,0,0,0c0,0,0,0,0,0
						c0,0,0,0,0,0c0.1,0.1,0.1,0.3,0.2,0.4C34.2,58.4,34.2,58.5,34.2,58.6z M34.7,57.7C34.7,57.7,34.7,57.7,34.7,57.7L34.7,57.7z
						 M34.9,58.6C34.9,58.6,34.9,58.6,34.9,58.6L34.9,58.6z M34.9,58.6C34.9,58.6,34.9,58.6,34.9,58.6
						C34.9,58.6,34.9,58.6,34.9,58.6c-0.1,0-0.1,0-0.1-0.1c0,0,0,0,0,0c0-0.2,0-0.4-0.1-0.6c0,0,0,0,0,0c0-0.1,0-0.1,0-0.2l0,0
						c0,0,0,0,0,0c0,0,0.1,0,0.1,0.1c0.1,0.1,0.1,0.3,0.1,0.4C35,58.3,35,58.5,34.9,58.6z"/>
					<path class="st8" d="M33.3,58.1c0-0.1,0-0.3,0-0.4c0-0.2,0-0.5-0.1-0.7c-0.1-0.2-0.3,0-0.4,0.1c-0.1,0.2-0.1,0.5-0.1,0.8
						c0,0.3,0.1,0.6,0.2,0.8c0,0.1,0,0.3-0.1,0.4c0,0,0,0,0,0c0,0,0,0,0,0c0,0,0-0.1-0.1-0.2c-0.1-0.4-0.2-0.9-0.3-1.2
						c-0.1-0.1-0.2-0.3-0.3-0.2c-0.1,0.1-0.2,0.2-0.2,0.3c-0.1-0.1-0.2-0.2-0.3-0.1c-0.1,0.1-0.1,0.1-0.1,0.2c0-0.1,0-0.1-0.1-0.2
						c-0.1-0.1-0.2,0.2-0.2,0.3c0.1,0,0.1,0.1,0.1,0.2c0.1,0.1,0.1,0.3,0.1,0.4c0,0.1,0,0.2,0.1,0.2c0.1,0.3,0.2,0.6,0.3,0.9
						c0,0,0,0,0,0c0.1,0,0.1-0.2,0.1-0.3c-0.1-0.3-0.2-0.5-0.2-0.8c0-0.1-0.1-0.2-0.1-0.4c0-0.1,0-0.3,0-0.4c0,0,0,0,0-0.1
						c0.1-0.1,0.3,0.4,0.3,0.4c0.1,0.2,0.1,0.3,0.1,0.5c0.1,0.2,0.1,0.5,0.2,0.7c0,0,0,0,0,0c0.1,0,0.1-0.2,0.1-0.3
						c-0.1-0.3-0.1-0.5-0.2-0.8c0-0.1,0-0.1,0-0.2c0-0.2-0.1-0.4-0.1-0.7c0,0,0,0,0,0c0,0,0.1,0.1,0.1,0.1c0.1,0.2,0.2,0.5,0.3,0.7
						c0,0.2,0.1,0.3,0.1,0.5c0,0.1,0.1,0.2,0.1,0.3c0.1,0.1,0.2,0,0.2-0.1c0.1-0.1,0.1-0.2,0.1-0.3c0.1,0.1,0.1,0.3,0.2,0.3
						c0.2,0,0.3-0.3,0.3-0.5c0-0.2,0-0.6-0.2-0.7C33.4,58,33.4,58,33.3,58.1z M33.1,57.8c0-0.2,0-0.4,0-0.6c0,0,0,0,0,0
						c0,0,0.1,0.1,0.1,0.1c0,0.2,0,0.4,0,0.6c0,0.1,0,0.2,0,0.2C33.1,58.1,33.1,57.9,33.1,57.8z M33.5,58.6c0,0.1,0,0.2,0,0.3
						c0,0,0,0,0,0c0,0,0,0,0,0c0,0-0.1-0.1-0.1-0.1c0-0.1-0.1-0.2-0.1-0.3c0-0.1,0-0.1,0-0.2c0,0,0,0,0.1,0
						C33.4,58.4,33.5,58.6,33.5,58.6z"/>
					<path class="st8" d="M39.4,59.6c0-0.1-0.1,0-0.1,0c0,0,0,0,0,0c0,0,0,0,0-0.1c0-0.1,0-0.1,0-0.2c0-0.1,0-0.3,0.1-0.4
						c0,0,0,0,0,0c0-0.1,0.1-0.2,0.1-0.3c0,0,0,0,0,0c0,0,0,0,0,0c0-0.1,0.1-0.1,0.1-0.2c0-0.1-0.1-0.1-0.1-0.1c0,0,0,0,0,0
						c0-0.1-0.1-0.1-0.2-0.1c-0.2,0-0.4,0.3-0.4,0.6c0,0.2,0,0.3,0.2,0.4c0,0,0,0,0.1,0c0,0.1-0.1,0.1-0.1,0.2c0,0-0.1-0.1-0.1-0.1
						c0,0,0-0.1-0.1-0.1c0,0,0,0,0,0c0,0-0.1,0-0.1,0.1c0,0,0,0,0,0c0-0.1,0-0.2,0-0.2c0-0.3,0.1-0.5,0.1-0.7c0,0,0,0,0,0
						c0-0.2-0.1-0.3-0.2-0.3c-0.1,0-0.3,0.1-0.3,0.2c-0.1,0.2-0.2,0.4-0.2,0.6l0,0c0,0.1,0,0.2-0.1,0.2c0,0,0,0,0,0c0,0,0,0,0,0
						c0-0.1,0-0.2,0-0.3c0-0.2,0-0.5,0.1-0.7c0-0.1,0-0.1,0.1-0.2c0-0.1,0-0.1-0.1-0.1c-0.1,0-0.1,0.1-0.2,0.1c0,0.1,0,0.1-0.1,0.2
						c0,0.1-0.1,0.1-0.1,0.2c0,0.1-0.1,0.1-0.1,0.1c0,0,0,0,0,0c0-0.2,0-0.5,0.1-0.7c0,0,0-0.1,0-0.1c0,0,0,0,0,0l0,0c0,0,0,0,0,0
						c0,0,0,0,0,0l0,0c0,0,0,0-0.1,0c0,0-0.1,0.1-0.1,0.1c0,0,0,0,0,0.1c-0.1,0.3-0.1,0.7-0.3,0.9c0,0,0,0,0,0c0,0,0,0,0,0l0,0
						c0,0,0,0,0,0c0,0-0.1-0.1-0.1-0.2c0-0.2,0-0.4,0-0.6c0,0,0-0.1,0-0.1c0,0,0-0.1,0-0.1c0,0,0,0,0,0c0,0,0,0,0,0
						c0,0,0,0.1,0.1,0.1c0,0.1,0.3-0.1,0.2-0.2c-0.1-0.2-0.2-0.2-0.3-0.1c-0.1,0.1-0.1,0.1-0.2,0.2c0,0,0,0,0,0c0,0,0,0,0,0
						c0,0,0,0,0,0.1c0,0,0,0,0,0c0,0.1,0,0.1-0.1,0.2c0-0.2,0-0.4,0-0.6c0-0.2-0.2,0-0.2,0.1c0,0.1,0,0.2-0.1,0.3
						c0-0.1,0-0.2-0.1-0.3c-0.1-0.2-0.2-0.2-0.4-0.1c0,0-0.1,0.1,0,0.2c0,0,0.1,0,0.1,0c0,0,0,0,0,0c0,0,0,0,0,0c0,0,0,0.1,0.1,0.1
						c0,0.1,0,0.3,0,0.4c0,0.1,0,0.3,0,0.4c0,0,0,0,0,0c0,0,0,0,0,0c0,0,0-0.1-0.1-0.1c0-0.1-0.2,0.1-0.2,0.2
						c0.1,0.2,0.3,0.1,0.4-0.1c0-0.1,0.1-0.1,0.1-0.2c0-0.1,0-0.1,0.1-0.2c0,0.2,0,0.4,0,0.6c0,0.1,0.1,0.1,0.1,0
						c0.1,0,0.1-0.1,0.1-0.2c0-0.1,0-0.2,0.1-0.2c0,0.1,0,0.2,0,0.2c0,0.1,0.1,0.2,0.1,0.2c0.1,0.1,0.2-0.1,0.3-0.1
						c0.1-0.1,0.1-0.1,0.2-0.2c0,0.1,0,0.3,0,0.4c0,0.1,0.1,0.1,0.1,0.1c0.1,0,0.1-0.1,0.1-0.2c0-0.1,0.1-0.2,0.1-0.3
						c0-0.1,0.1-0.1,0.1-0.1c0,0,0,0,0,0c0,0.2-0.1,0.4,0,0.6c0,0.2,0.1,0.2,0.2,0.2c0.1,0,0.1,0,0.1-0.1c0,0.1,0,0.1,0.1,0.2
						c0.1,0.1,0.2,0,0.3,0c0,0,0,0,0,0c0,0,0,0.1,0,0.1c0,0.2,0.1,0.2,0.2,0.1c0.1,0.1,0.2,0.2,0.4,0.1c0,0,0,0,0.1,0
						c0,0,0,0.1,0,0.1c0,0.2,0.2,0.2,0.3,0.2C39.4,59.7,39.5,59.6,39.4,59.6z M38.3,59.1C38.3,59,38.3,59,38.3,59.1
						c-0.1-0.1-0.1-0.1-0.1-0.2c0-0.1,0-0.2,0-0.2c0,0,0,0,0,0c0,0,0,0,0,0c0-0.1,0.1-0.2,0.1-0.3c0-0.1,0.1-0.1,0.1-0.2
						c0,0,0,0,0,0c0,0,0,0,0,0c0.1,0,0.1,0.1,0.1,0.1C38.4,58.5,38.4,58.8,38.3,59.1C38.3,59,38.3,59,38.3,59.1z M38.6,59.2
						L38.6,59.2L38.6,59.2L38.6,59.2z M39,58.7c0-0.1,0.1-0.3,0.1-0.3c0,0,0,0,0,0c0,0,0,0.1,0,0.2c0,0.1-0.1,0.2-0.1,0.3
						C39,58.9,39,58.8,39,58.7z M39.3,59.5C39.3,59.5,39.3,59.5,39.3,59.5L39.3,59.5z"/>
				</g>
			</g>
			<g>
				<path class="st8" d="M39.3,61.6c0,0.1-0.1,0.2-0.2,0.2c0,0,0,0,0,0c0,0,0-0.2,0-0.2c0-0.2,0-0.3,0.1-0.5c0,0,0-0.1,0-0.1
					c0-0.1,0-0.1,0-0.2c0,0,0,0,0,0c0-0.2-0.1-0.3-0.2-0.3c-0.1,0-0.3,0.1-0.3,0.2c-0.1,0.1-0.2,0.3-0.2,0.5c0,0,0,0,0,0
					c0,0.1-0.1,0.1-0.1,0.2c0,0,0,0,0,0c-0.1,0,0-0.1,0-0.2c0-0.1,0-0.2,0-0.3c0-0.1-0.1-0.1-0.2-0.1c0,0,0,0,0,0c0,0,0,0,0-0.1
					c0-0.1,0.1-0.2,0.1-0.2c0,0,0,0,0,0c0,0,0,0,0,0c0,0,0.1,0.1,0.1,0.1c0.1,0.1,0.3-0.1,0.2-0.1c-0.1-0.1-0.2-0.2-0.3-0.1
					c-0.1,0-0.1,0.1-0.2,0.1c0,0,0,0,0,0c0-0.1,0-0.3,0-0.4c0-0.1-0.2,0-0.2,0.1c0,0.2,0,0.4,0,0.6c0,0,0,0,0,0
					c0,0.2-0.1,0.3-0.3,0.4c0,0,0,0-0.1,0c0,0,0,0,0,0c0,0,0,0,0,0c0,0,0-0.1,0-0.1c0-0.2,0-0.3,0-0.5c0-0.1,0-0.2,0.1-0.3
					c0,0,0-0.1,0-0.1c0-0.1,0-0.1-0.1-0.1c-0.1,0-0.1,0.1-0.2,0.1c0,0.1,0,0.1-0.1,0.2c0,0.1-0.1,0.1-0.1,0.2c0,0.1-0.1,0.1-0.1,0.1
					c0,0,0,0,0,0c0-0.2,0-0.4,0-0.7c0-0.1-0.2,0-0.2,0.1c0,0.1,0,0.2,0,0.3c0,0,0,0,0,0c0,0.2-0.1,0.4-0.2,0.6c0,0,0,0,0,0
					c0,0-0.1-0.1-0.1-0.2c0-0.2,0-0.3,0-0.5c0,0,0-0.1,0-0.1c0-0.1,0-0.1,0-0.2c0,0,0,0,0,0c0-0.2-0.1-0.2-0.2-0.2
					c-0.1,0-0.2,0.1-0.3,0.3C36,60.3,36,60.5,36,60.7c0,0,0,0,0,0c0,0.1,0,0.2-0.1,0.2c0,0,0,0,0,0c-0.1,0-0.1-0.1-0.1-0.2
					c0-0.1,0-0.2-0.1-0.3c0-0.1-0.1-0.1-0.2,0c0,0,0,0,0,0c0,0,0,0,0-0.1c0-0.1,0-0.2,0.1-0.3c0,0,0,0,0,0c0,0,0,0,0,0
					c0,0,0.1,0,0.1,0c0.1,0.1,0.3-0.2,0.2-0.2c-0.1-0.1-0.2-0.1-0.3,0c-0.1,0-0.1,0.1-0.2,0.2c0,0,0,0,0,0c0-0.1,0-0.3-0.1-0.4
					c0-0.1-0.2,0.1-0.2,0.2c0,0.1,0.1,0.3,0.1,0.4c0,0.2-0.1,0.4-0.2,0.5c0,0.1-0.1,0.2-0.1,0.2c-0.1,0.1-0.2,0.1-0.2-0.1
					c0,0,0,0,0,0c0.1-0.2,0.2-0.5,0.2-0.7c0-0.2-0.1-0.3-0.2-0.3c-0.2,0-0.2,0.2-0.3,0.4c0,0.2,0,0.4,0,0.5c0,0.1,0,0.1,0,0.2
					c0,0,0,0-0.1,0.1c0,0-0.1,0.1-0.1,0.1c0,0,0,0,0,0c-0.1-0.1-0.1-0.3-0.1-0.4c0-0.2,0-0.3-0.1-0.5c0-0.1-0.1-0.2-0.2-0.2
					c-0.1,0-0.2,0.2-0.2,0.3c0,0,0,0,0,0c0-0.1,0-0.1-0.1-0.2c0-0.1-0.2,0.2-0.2,0.2c0.1,0.1,0.1,0.3,0.1,0.5l0,0c0,0,0,0,0,0l0,0
					c0,0.1,0,0.1,0,0.2c0,0.1,0,0.2-0.1,0.3c0,0,0,0,0,0c0,0,0,0,0-0.1c0-0.1-0.1-0.1-0.1-0.2c-0.1-0.2-0.1-0.4-0.1-0.6c0,0,0,0,0,0
					c0-0.2-0.2-0.2-0.3-0.1c-0.1,0.1-0.2,0.2-0.2,0.4c0,0.2,0,0.5,0.1,0.7c0,0.1-0.1,0.2-0.1,0.3c0,0-0.1-0.1-0.1-0.1
					c0-0.2,0-0.5-0.1-0.7c-0.1-0.1-0.1-0.3-0.3-0.2c-0.1,0-0.2,0.2-0.2,0.3c0,0.1,0,0.3,0,0.4c0,0.1,0.2-0.2,0.2-0.2
					c0,0,0-0.1,0-0.1c0,0,0,0,0,0c0,0,0,0,0,0c0,0,0,0,0,0c0.1,0,0.1,0.1,0.2,0.2c0,0.1,0.1,0.2,0.1,0.4c0,0,0,0.1,0,0.1
					c0,0,0,0-0.1,0.1c0,0,0,0,0,0.1c0,0.1,0,0.1,0,0.2c0,0,0,0,0,0c0,0,0,0,0,0c0,0,0.1-0.1,0.1-0.1c0,0,0.1,0,0.1,0.1
					c-0.1,0.2-0.1,0.4-0.1,0.6c0,0.2,0,0.5,0.1,0.6c0.1,0.1,0.2,0,0.3-0.1c0.2-0.2,0.1-0.6,0.1-0.9c0-0.1-0.1-0.2-0.1-0.3
					c0-0.1,0.1-0.2,0.1-0.2c0,0.1,0.1,0.2,0.2,0.2c0.1,0,0.2-0.1,0.2-0.2c0,0,0,0,0,0c0,0.1,0.1,0.2,0.2,0.1
					c0.1-0.1,0.1-0.2,0.2-0.3c0,0.1,0,0.1,0,0.2c0,0.1,0.2-0.1,0.2-0.2c0-0.2-0.1-0.4,0-0.7c0-0.1,0-0.2,0-0.2c0,0,0-0.1,0-0.1
					c0,0,0,0,0,0c0,0,0,0,0,0c0,0,0.1,0.1,0.1,0.2c0,0.1,0.1,0.3,0.1,0.4c0,0.2,0.1,0.6,0.3,0.5c0.1-0.1,0.2-0.2,0.3-0.2
					c0,0,0,0.1,0.1,0.1c0.1,0.2,0.3,0,0.4-0.1c0.1-0.1,0.2-0.3,0.3-0.5c0,0.2,0,0.3,0,0.5c0,0.1,0.1,0.1,0.1,0c0,0,0.1-0.1,0.1-0.2
					c0-0.1,0-0.3,0-0.4c0.1,0,0.1,0.4,0.2,0.5c0.1,0.1,0.2,0,0.2-0.1c0,0,0,0,0.1-0.1c0,0.1,0,0.1,0.1,0.2c0.1,0.1,0.2,0,0.3-0.1
					c0,0,0,0,0,0c0,0.1,0,0.2,0.1,0.2c0.1,0,0.2,0,0.2-0.1c0,0,0.1-0.1,0.1-0.1c0,0.1,0,0.1,0,0.2c0,0.1,0.1,0.1,0.1,0
					c0.1,0,0.1-0.1,0.1-0.2c0-0.1,0-0.2,0.1-0.3c0-0.1,0-0.1,0.1-0.1c0,0,0,0,0,0c0,0,0,0,0,0.1c0,0.2,0,0.4,0,0.6
					c0.1,0.2,0.3,0,0.3,0c0.1,0,0.1-0.1,0.1-0.1c0,0.1,0,0.2,0,0.3c0,0.1,0,0.1,0.1,0.1c0.1,0,0.1-0.1,0.1-0.1
					c0-0.1,0.1-0.2,0.1-0.4c0.1,0.1,0,0.5,0.1,0.6c0.1,0.1,0.2,0.1,0.3,0c0,0,0.1,0,0.1-0.1c0,0.1,0,0.2,0.1,0.2
					c0.1,0.1,0.2,0.1,0.3,0c0,0,0,0,0,0c0,0.1,0,0.2,0.1,0.2c0.1,0.1,0.2,0,0.2,0c0.1,0,0.2-0.1,0.2-0.2
					C39.4,61.6,39.4,61.5,39.3,61.6z M32.7,63C32.7,63,32.7,63,32.7,63C32.7,63,32.7,63,32.7,63c0,0-0.1,0-0.1,0
					c-0.1-0.1-0.1-0.3-0.1-0.5c0-0.1,0-0.2,0.1-0.3c0,0,0,0,0,0.1c0,0.1,0.1,0.2,0.1,0.4C32.7,62.8,32.7,62.9,32.7,63z M33.1,61.6
					C33.1,61.6,33.1,61.6,33.1,61.6c-0.1,0-0.1-0.1-0.1-0.1c-0.1-0.2-0.1-0.4-0.1-0.5c0-0.1,0-0.2,0-0.2c0,0,0,0,0,0c0,0,0,0,0,0
					c0,0,0.1,0,0.1,0.1C33.1,61,33.1,61.3,33.1,61.6C33.1,61.6,33.1,61.6,33.1,61.6z M34.7,60.8c0-0.1,0-0.3,0-0.4
					c0-0.1,0-0.1,0-0.2c0,0,0,0,0,0c0,0,0,0,0,0c0,0,0.1,0.1,0.1,0.1C34.8,60.5,34.8,60.6,34.7,60.8z M36.3,61
					C36.3,61,36.3,61,36.3,61C36.3,61,36.3,61.1,36.3,61c-0.1,0-0.1-0.1-0.1-0.1c0-0.2,0-0.4,0-0.6c0-0.1,0-0.1,0.1-0.2c0,0,0,0,0,0
					c0,0,0,0,0,0c0.1,0,0.1,0.1,0.1,0.1C36.4,60.5,36.4,60.8,36.3,61z M39,60.9c-0.1,0.2-0.1,0.5-0.2,0.7c0,0,0,0,0,0.1c0,0,0,0,0,0
					c0,0,0-0.1,0-0.2c0-0.2,0-0.4,0.1-0.5c0,0,0.1-0.1,0.1-0.1c0,0,0,0,0,0c0,0,0,0,0,0C39,60.8,39,60.8,39,60.9z"/>
				<polygon class="st8" points="32.7,63 32.7,63 32.7,63 				"/>
				<path class="st8" d="M32.7,63C32.7,63,32.7,63,32.7,63L32.7,63z"/>
				<path class="st8" d="M34.7,60.2C34.7,60.2,34.7,60.2,34.7,60.2L34.7,60.2z"/>
			</g>
		</g>
		<g>
			<path class="st13" d="M29.2,56.7C29.2,56.7,29.2,56.6,29.2,56.7c-0.2-0.1-0.3,0-0.4,0c-0.2,0-0.3,0-0.6-0.1
				c0-0.3,0.1-0.5,0.2-0.8c0.1-0.2,0-0.5-0.1-0.8c0-0.2,0-0.3,0-0.5c-0.1,0.1,0,0.4,0,0.6c0-0.2,0-0.5-0.1-0.6c0,0.2,0,0.5,0,0.6
				c0-0.2-0.1-0.4-0.1-0.6c-0.1,0.2,0.1,0.4,0,0.6c-0.1-0.2-0.1-0.3-0.2-0.5c0,0.2,0.1,0.4,0.1,0.5c-0.1-0.1-0.1-0.3-0.2-0.4
				c0,0.1,0.1,0.3,0.1,0.4c-0.1,0-0.1-0.2-0.2-0.2c0,0.1,0.1,0.2,0.1,0.3c-0.1,0-0.1-0.1-0.1-0.1c0,0.1,0.1,0.1,0.1,0.2
				c0,0-0.1-0.1-0.1-0.1c0,0.1,0.1,0.1,0.1,0.2c0,0-0.1,0-0.1,0c0,0,0.1,0,0,0.1c0,0,0,0,0,0c0,0.1,0,0,0,0.1c0,0,0,0,0,0
				c0,0,0,0,0,0.1c-0.2,0.3-0.1,0.6-0.1,0.9c0,0-0.2-0.1-0.3-0.2c-0.1,0-0.1-0.2-0.2-0.2c0,0,0,0,0,0c0,0-0.1,0-0.1-0.1
				c0,0,0.1,0,0.1,0c0,0-0.1-0.1-0.1-0.1c0.1,0,0.1,0,0.1,0c-0.1,0-0.2-0.1-0.2-0.2c0.1,0,0.1,0.1,0.2,0.1c-0.1-0.1-0.2-0.1-0.2-0.2
				c0.1,0,0.1,0.1,0.2,0.1c-0.1,0-0.2-0.2-0.3-0.2c0,0.1,0.2,0.2,0.2,0.3c-0.1-0.1-0.2-0.1-0.3-0.2c0,0.1,0.2,0.2,0.2,0.2
				C27.2,56,27.1,56,27,56c0,0.1,0.1,0.1,0.2,0.2c0,0-0.1,0-0.1,0c0,0.1,0.1,0,0.1,0.1c0,0-0.1,0-0.1,0c0,0,0.1,0,0.1,0.1
				c0,0-0.1,0-0.1,0c0,0,0.1,0,0.1,0c0,0,0,0,0,0c0,0,0,0,0,0c0,0,0,0,0,0c0.1,0.1,0.2,0.3,0.3,0.4c-0.1,0.1,0.1,0.1-0.9,0.6
				c0,0,0.4-0.1,0.6-0.2c0.1-0.1,0.2-0.1,0.4-0.2c0,0,0.1,0,0.1,0c0.2,0,0.4,0,0.6-0.2c-0.2,0-0.4,0.1-0.5,0c0.1-0.3,0-1,0.1-1.1
				c0.1-0.1,0.3-0.6,0.5-0.2c0,0.1,0,0.1,0,0.3c-0.1,0.2-0.1,0.3-0.1,0.7c0,0.1,0,0.2-0.1,0.2c0.4,0.1,0.6,0,0.8,0
				c0.1,0,0.2-0.1,0.2,0c0,0-0.1,0-0.2,0c-0.1,0,0.1,0.1,0.1,0c0,0,0.3,0,0.4-0.1C29.4,56.7,29.3,56.7,29.2,56.7z"/>
			<path class="st13" d="M27.9,53.9c-1,0-1.8,1.1-1.7,2.4c0,1.3,0.9,2.3,1.8,2.3c1,0,1.8-1.1,1.7-2.4C29.7,54.9,28.9,53.8,27.9,53.9
				 M27.9,53.9c0.9,0,1.7,1,1.8,2.2c0,1.2-0.7,2.3-1.7,2.3c-0.9,0-1.7-1-1.8-2.2C26.2,55,27,54,27.9,53.9"/>
		</g>
	</g>
</g>
</svg>
