<?xml version="1.0" encoding="utf-8"?>
<!-- Generator: Adobe Illustrator 19.0.0, SVG Export Plug-In . SVG Version: 6.00 Build 0)  -->
<svg version="1.1" id="Layer_1" xmlns="http://www.w3.org/2000/svg" xmlns:xlink="http://www.w3.org/1999/xlink" x="0px" y="0px"
	 viewBox="-183 298.9 227.6 244" style="enable-background:new -183 298.9 227.6 244;" xml:space="preserve">
<style type="text/css">
	.st0{fill:#2D2D2D;}
	.st1{fill:#4D4C4B;}
	.st2{fill:#F9DDC5;}
	.st3{fill:#EC145A;}
	.st4{fill:#62BA47;}
	.st5{fill:#FFFFFF;}
	.st6{fill:#231F20;}
	.st7{fill:#E5D8CF;}
	.st8{fill:#FCF1E8;}
</style>
<g id="Layer_2">
</g>
<g id="kolba_4">
</g>
<g id="kolba_3">
</g>
<g id="kolby">
</g>
<g id="doma">
</g>
<g id="butylka_3">
</g>
<g id="butylka_2">
</g>
<g id="butylka_1">
</g>
<g id="vanna_2">
</g>
<g id="sneg">
</g>
<g id="vanna_1">
</g>
<g id="shariki_2">
</g>
<g id="shariki_1">
</g>
<g id="voronka">
</g>
<g id="gradusnik">
</g>
<g id="kolba_2">
</g>
<g id="kolba_1">
</g>
<g id="probirki">
</g>
<g id="potato">
</g>
<g id="zavod">
</g>
<g id="blank">
</g>
<g id="ticks">
</g>
<g id="car">
</g>
<path class="st0" d="M-4.1,507.4h-122.2c-4.3,0-7.9-3.5-7.9-7.9V342.2c0-4.3,3.5-7.9,7.9-7.9H-4c4.3,0,7.9,3.5,7.9,7.9v157.3
	C3.8,503.8,0.3,507.4-4.1,507.4z"/>
<path class="st1" d="M-7.7,334.5c6.3,0,11.4,5.1,11.4,11.4v150.2c0,6.3-5.1,11.4-11.4,11.4h-115.1c-6.3,0-11.4-5.1-11.4-11.4V345.9
	c0-6.3,5.1-11.4,11.4-11.4H-7.7 M-7.7,327.9h-115.1c-9.9,0-18,8.1-18,18v150.2c0,9.9,8.1,18,18,18H-7.6c9.9,0,18-8.1,18-18V345.9
	C10.4,336,2.3,327.9-7.7,327.9L-7.7,327.9z"/>
<path class="st2" d="M-140.9,441v55c0,9.9,8.1,18,18,18H-7.6c9.9,0,18-8.1,18-18v-55L-140.9,441L-140.9,441z"/>
<path class="st3" d="M-53,466c-0.2,0-0.4,0-0.6,0c-1.7-3.9-5.6-6.6-10.1-6.6s-8.4,2.7-10.1,6.6c-0.1,0-0.2,0-0.3,0
	c-5.4,0-10.6,5.4-10.6,10.8c0,4.3,3.5,10,7.3,11.3c1.2-0.3,3-0.8,5.3-1.2c-2.6-0.9-2.8-2.7-2.8-2.7c0-0.2,0.1-0.4,0.4-0.4
	c0.2,0,0.4,0.1,0.4,0.4c0,0.1,0.3,2,4.1,2.5h0.1c0.9-0.1,1.8-0.2,2.8-0.3c-0.8-1.1-1.3-3-1.3-3.3c0-0.2,0.1-0.4,0.3-0.5
	c0.2,0,0.4,0.1,0.5,0.3c0.2,0.7,0.7,2.7,1.5,3.3c0,0,0,0,0.1,0.1c2.9-0.1,6-0.1,9.5,0.4c0.2-0.1,0.3-0.1,0.4-0.1
	c3.4-0.7,3.6-2.4,3.6-2.5c0-0.2,0.2-0.4,0.4-0.4s0.4,0.2,0.4,0.4c0,0.1-0.2,1.8-2.8,2.8c1.7,0.3,3.4,0.6,5.1,1.1c3.7-1.4,7-7,7-11.1
	C-42.5,471.6-47.6,466-53,466z"/>
<g>
	<circle class="st4" cx="-45.2" cy="461.1" r="11.9"/>
	<g>
		<path class="st5" d="M-48.1,459.4c-1,0.1-1.3,1.3-1.3,2.1l0,0l0,0c0,0.1,0,0.2,0,0.3c0,0.4,0,0.7-0.1,1.1c0,0.2-0.1,0.5-0.1,0.5
			c-0.4,0-0.6-0.5-0.7-0.7c-0.2-0.6-0.4-1.2-0.5-1.9c-0.1-0.7-0.2-1.4-0.2-2.1c0-0.3,0-0.6,0-0.9c0-0.1,0-0.2,0-0.3s0-0.2,0-0.2
			c0.1-0.5-0.6,0-0.8,0.2c-0.8,1.4-0.6,3-0.5,4.5c0,0.4,0,0.8-0.1,1.2c0,0.3-0.1,0.8-0.3,1c-0.1,0.1-0.4,0-0.5,0
			c-0.2-0.1-0.3-0.3-0.3-0.5s-0.3-0.1-0.4,0c-0.2,0.2-0.4,0.5-0.3,0.7c0.1,0.5,0.6,1,1.1,0.8c0.9-0.3,1.3-1.3,1.5-2.1
			c0.1-0.4,0.2-0.8,0.2-1.2c0.1,0.6,0.3,1.2,0.6,1.7c0.2,0.4,0.5,0.8,1,0.7c0.4-0.1,0.6-0.5,0.8-0.9c0.2,0.4,0.4,0.7,0.9,0.6
			c0.5,0,0.9-0.6,1.1-1c0.2-0.5,0.3-1,0.3-1.5C-46.9,460.8-47.1,459.3-48.1,459.4z M-47.8,462.8c0,0.1,0,0.2-0.1,0.3
			c-0.2,0-0.3-0.3-0.4-0.4c-0.2-0.3-0.2-0.7-0.3-1c0-0.4,0-0.7,0-1.1c0-0.1,0-0.2,0.1-0.3c0.5,0.3,0.6,0.9,0.6,1.5
			C-47.7,462.1-47.7,462.4-47.8,462.8z"/>
		<path class="st5" d="M-36.3,460.8c-1.1-0.4-1.7,1-1.9,1.8s-0.4,2.1,0.5,2.4c0.4,0.2,1-0.1,1.2-0.4c0.3-0.4,0.5-0.8,0.7-1.3
			C-35.6,462.5-35.4,461.2-36.3,460.8z M-37,464.2c0,0.1-0.1,0.2-0.1,0.2c-0.2-0.1-0.2-0.4-0.2-0.6c-0.1-0.4,0-0.7,0-1.1
			c0.1-0.4,0.2-0.7,0.3-1c0-0.1,0.1-0.2,0.1-0.2c0.4,0.5,0.3,1.1,0.2,1.7C-36.7,463.5-36.8,463.9-37,464.2z"/>
		<path class="st5" d="M-39.2,461c0.2-0.3,0.4-0.5,0.6-0.8c0.4-0.6,0.8-1.3,0.7-2c0-0.7-1-0.7-1.4-0.5c-0.7,0.3-1.1,1.1-1.3,1.8
			c-0.3,0.9-0.4,1.8-0.4,2.8l0,0c-0.3,0.4-1,1.2-1.6,0.9c-0.1-0.1-0.2-0.3-0.3-0.4c0.4-0.5,0.8-0.9,1.2-1.5c0.3-0.5,0.5-1.3-0.1-1.6
			c-0.5-0.3-1.2,0-1.5,0.5c-0.3,0.4-0.5,1-0.6,1.5c0,0.3-0.1,0.8,0,1.2c-0.3,0.2-0.7,0.3-1.1,0.2c-0.4-0.1-0.6-0.5-0.6-0.8
			c-0.1-0.5-0.1-1,0-1.5c0-0.2,0.1-0.3,0.1-0.5v-0.1c0.3,0.1,0.4,0.5,0.4,0.7c0.1,0.4,1-0.2,0.9-0.6s-0.3-0.7-0.6-0.9
			c-0.4-0.2-0.9,0.1-1.1,0.4c-0.6,0.6-0.7,1.6-0.7,2.4c0,0.5,0.1,1.2,0.6,1.5c0.6,0.4,1.5,0,2.1-0.3c0.2,0.4,0.5,0.7,1,0.6
			c0.6-0.1,1.2-0.4,1.7-0.9c0,0.5,0.1,1,0.5,1.2c0.6,0.3,1.3,0,1.6-0.5c0.5-0.6,0.7-1.5,0.5-2.2C-38.6,461.1-38.9,461-39.2,461z
			 M-42.8,460.6c0-0.1,0.1-0.3,0.2-0.4l0,0c0.3,0.1,0.3,0.4,0.3,0.6c-0.1,0.4-0.3,0.8-0.6,1.1c0-0.1,0-0.1,0-0.2
			C-43,461.3-42.9,460.9-42.8,460.6z M-39.4,458.6c0.1-0.1,0.2-0.3,0.3-0.4l0,0c0.4,0.5,0,1.1-0.2,1.5s-0.5,0.9-0.8,1.2
			c0.1-0.4,0.1-0.8,0.2-1.2C-39.7,459.4-39.6,459-39.4,458.6z M-39.6,463.5c0,0-0.1,0.1-0.1,0.2h-0.1c-0.3-0.1-0.3-0.7-0.3-0.9
			c0-0.2,0-0.4,0-0.6c0.1-0.1,0.2-0.3,0.3-0.4c0.2-0.2,0.4,0.1,0.5,0.4C-39.2,462.5-39.4,463.1-39.6,463.5z"/>
	</g>
</g>
<g>
	<path class="st4" d="M-98.4,469.1c-0.1,0.1,0.3,0.2,0.4,0.3c0,0.1-0.2,0-0.3,0c0,0.1,0.1,0.1,0.2,0.2c0,0-0.1,0-0.1,0.1
		c0.2,0.1,0.3,0.5,0.6,0.6c0.5,0.2,1.2,0.4,1.2,0.5c0.1-1-0.4-1.9,0.4-2.7c0-0.1-0.1-0.1-0.1-0.2c0.1,0,0.1,0,0.1,0
		c0-0.2-0.2-0.1-0.1-0.3c0,0,0.1,0,0.2,0s-0.1-0.1-0.1-0.2s0.2,0,0.2,0c0-0.1-0.3-0.3-0.3-0.5c0.2,0.1,0.3,0.2,0.4,0.3
		c-0.1-0.2-0.3-0.3-0.3-0.6c0.2,0.1,0.3,0.3,0.5,0.4c-0.1-0.3-0.3-0.4-0.4-0.7c0.3,0.1,0.4,0.4,0.6,0.6c-0.2-0.4-0.4-0.9-0.4-1.3
		c0.3,0.3,0.4,0.7,0.6,1.1c0-0.4-0.3-0.9-0.2-1.6c0.2,0.4,0.3,1,0.5,1.4c0.1-0.5-0.3-1.3-0.1-1.8c0.2,0.5,0.2,1.1,0.4,1.6
		c0-0.5-0.1-1.3,0-1.8c0.2,0.5,0.2,1.2,0.3,1.8c0.1-0.4-0.1-1.3,0.2-1.6c0,0.5,0,0.9,0,1.4c0,0.8,0.4,1.5,0.1,2.2s-0.8,1.3-0.8,2.3
		c1.1,0.3,1.4,0.4,2.4,0.3c0.4,0,0.7-0.2,1.1-0.1c0.1,0,0.2,0.2,0.3,0.2c0.3,0.1,0.5,0.1,0.8,0.1c-0.5,0.1-1.3,0.2-1.4,0.2
		c-0.2,0-0.9-0.1-0.4-0.1c0.3,0,0.6,0,0.6-0.1c0-0.3-0.5-0.1-0.8,0c-1,0.1-1.4,0.3-3,0c0.4,0,0.4-0.3,0.4-0.5
		c-0.1-1.2,0.1-1.5,0.5-2c0.6-1-0.2-1-0.5-1.4c-0.1,0.1,0,0.4,0,0.5c-0.1-0.1-0.2-0.4-0.4-0.5c-0.1,0.1,0.1,0.3,0.1,0.5
		c-0.1-0.1-0.2-0.2-0.3-0.3c-0.1,0.1,0.1,0.3,0.1,0.4c-0.1,0-0.2-0.2-0.3-0.2c-0.1,0.1,0.1,0.1,0,0.3c-0.1,0-0.1-0.1-0.2,0
		c0,0.1,0,0.2,0.1,0.2c0,0.1-0.1,0-0.1,0c-0.1,0,0,0.1,0,0.2c-0.8-0.1-0.2,2.4-0.8,3.3c0.4,0.3,1.4,0.2,2,0.1
		c-0.8,0.5-1.4,0.3-2.2,0.4c-0.1,0-0.2,0.1-0.3,0.1c-0.4,0.1-0.9,0.3-1.4,0.4c-0.5,0.2-2,0.5-2.1,0.5c3.7-1.3,3.1-1.5,3.4-1.7
		c-0.6-0.2-0.8-0.9-1.2-1.1c0,0,0-0.1,0.1-0.1c0-0.1-0.1,0-0.2,0c0-0.1,0-0.1,0.1-0.1c0-0.1-0.2,0-0.3-0.1c0-0.1,0.1-0.1,0.2-0.1
		c-0.1-0.1-0.3-0.1-0.4-0.2c0.1-0.1,0.2-0.1,0.4-0.1c-0.1-0.1-0.4-0.1-0.5-0.3c0.2,0,0.4,0,0.5,0c-0.2-0.2-0.6-0.2-0.7-0.5
		c0.3,0,0.5,0.1,0.8,0.2c-0.3-0.2-0.7-0.3-0.8-0.7c0.3,0.2,0.7,0.3,0.9,0.5c-0.1-0.3-0.7-0.5-0.9-0.8c0.4,0,0.7,0.4,1.1,0.6
		c-0.3,0-0.6-0.3-0.8-0.4c0.1,0.3,0.6,0.5,0.9,0.7c-0.2,0.1-0.5-0.1-0.7-0.2c0,0.2,0.4,0.4,0.6,0.5C-98,469.2-98.2,469.1-98.4,469.1
		"/>
	<path class="st4" d="M-95.1,462.4c-4.1,0-7.5,3.3-7.5,7.5c0,4.1,3.3,7.5,7.5,7.5c4.1,0,7.5-3.3,7.5-7.5
		C-87.6,465.8-91,462.4-95.1,462.4 M-95.1,462.7c4,0,7.2,3.2,7.2,7.2s-3.2,7.2-7.2,7.2s-7.2-3.2-7.2-7.2
		C-102.3,465.9-99.1,462.7-95.1,462.7"/>
</g>
<g>
	<g>
		<g>
			<path class="st5" d="M-79.5,482.5c0.8,1.5,2.5,0.2,2.7-1.1c0.2-1.9-1-3.9-2-5.5c-0.1-0.2-0.4,0.1-0.5,0.1c-1,0.9-2,2.4-1.3,3.4
				c0.2,0.3,0.9-0.7,0.7-1c-0.3-0.5,0.4-1.3,0.8-1.7c-0.2,0-0.3,0.1-0.5,0.1c0.4,0.7,0.8,1.3,1.2,2c0.2,0.4,0.3,0.8,0.5,1.2
				c0.1,0.3,0.2,0.5,0.3,0.8c-0.3,1.3-0.7,1.6-1.2,0.7C-79,481.3-79.7,482.2-79.5,482.5L-79.5,482.5z"/>
			<path class="st5" d="M-74.5,480.6c-0.3,0.9-0.8-0.7-0.9-0.9c-0.1-0.3-0.3-0.6-0.5-0.8c-0.5-0.5-1.1-0.2-1.7,0.2
				c0.1,0,0.2,0,0.4,0c-0.3-0.8-0.8-2.9,0.9-2.2c0.4,0.2,1-0.8,0.6-1c-1-0.5-1.7-0.1-2.3,0.8c-0.6,1-0.3,2.2,0.1,3.1
				c0.1,0.2,0.2,0.2,0.4,0c1.4-1.1,1.5,1.3,2.3,1.8c0.6,0.5,1.2-0.9,1.3-1.3C-73.6,479.9-74.3,480.1-74.5,480.6L-74.5,480.6z"/>
		</g>
		<path class="st5" d="M-70.9,480.1c0.3,1,1.4,0.6,1.8-0.1c0.3-0.5,0.3-1.1,0.3-1.7c0-0.9,0-1.7,0.3-2.5c-0.3,0.2-0.7,0.3-1,0.5
			c0.2,1.2,0.3,3.1,1.3,4c0.7,0.6,1.7-0.8,1.9-1.2c0.3-0.7-0.6-0.2-0.8,0.1c-0.3,0.8-0.8-0.4-0.9-0.6c-0.3-0.9-0.5-1.9-0.6-2.8
			c-0.1-0.5-0.9,0.3-1,0.5c-0.2,0.6-0.3,1.1-0.3,1.7c0,0.3,0,0.7,0,1c0,0.2,0,0.4,0,0.5c0,0.5-0.3,0.2-0.4,0
			C-70.2,479-71,479.8-70.9,480.1L-70.9,480.1z"/>
		<path class="st5" d="M-63.6,475.7c0.1,1.3,0.2,2.7,0.1,4c0,0.5,0.8-0.2,0.8-0.5c0.1-0.8,0.3-1.2,0.8-1.7c0.6-0.6,0.9-1.3,1.2-2.1
			c0.2-0.6-0.8-0.1-0.9,0.2c-0.4,1-0.4,2.3-0.4,3.4c0,0.3,0,0.7,0.3,0.9c0.4,0.3,1-0.2,1.3-0.4c0.5-0.4,0.1-0.8-0.4-0.4
			c-0.4,0.3-0.4-1.3-0.3-1.5c0-0.7,0.1-1.5,0.4-2.2c-0.3,0.1-0.6,0.1-0.9,0.2c-0.2,0.8-0.6,1.3-1.1,1.9c-0.6,0.6-0.7,1.4-0.8,2.2
			c0.3-0.2,0.6-0.3,0.8-0.5c0.1-1.3,0-2.7-0.1-4.1C-62.7,474.7-63.6,475.4-63.6,475.7L-63.6,475.7z"/>
		<g>
			<path class="st5" d="M-57,479.6c-0.1,1,0.8,1.4,1.7,0.9c0.8-0.5,1.1-1.4,1.3-2.2c0.1-0.7,0.3-1.7-0.4-2.2
				c-0.3-0.2-0.9-0.1-1.2,0.1c-0.7,0.3-1,0.9-1.1,1.5c-0.1,0.5,1,0,1.1-0.3c0.1-0.6,0.4-0.7,0.6-0.1c0.1,0.4,0.1,0.7,0.1,1.1
				s-0.1,0.9-0.3,1.3c-0.1,0.1-0.1,0.3-0.3,0.4c0.1-0.1,0-0.1-0.1-0.1c-0.3-0.1-0.3-0.4-0.3-0.6C-55.9,478.8-57,479.3-57,479.6
				L-57,479.6z"/>
			<path class="st5" d="M-56.6,475.7c0,2.5-0.5,5.1-1.1,7.5c-0.1,0.5,0.8,0,0.9-0.3c0.7-2.5,1.3-5.1,1.3-7.6
				C-55.5,474.9-56.6,475.3-56.6,475.7L-56.6,475.7z"/>
		</g>
		<g>
			<path class="st5" d="M-47.7,478.7c-0.5,0.9-0.9,1.8-1.2,2.7c-0.1,0.4-0.2,1,0.1,1.3c0.4,0.5,1.2,0.3,1.7,0.1
				c0.7-0.3,0-0.6-0.5-0.4c-0.3,0.1-0.3-0.8-0.3-0.8c0.1-0.4,0.2-0.9,0.4-1.3c0.2-0.6,0.5-1.1,0.9-1.7
				C-46.3,478.3-47.5,478.4-47.7,478.7L-47.7,478.7z"/>
			<path class="st5" d="M-50.9,481.4c0,0.8,0.8,0.9,1.4,0.8c0.9-0.3,1.5-1.1,1.9-1.9c0.2-0.4-0.9-0.2-1.1,0.1c-0.1,0.2,0,0,0.1,0
				c-0.1,0-0.1-0.1-0.2-0.1c-0.2-0.1-0.2-0.3-0.2-0.5c0-0.3,0.2-0.7,0.4-0.9c0.3-0.5,0.5,0.2,0.4,0.5c-0.2,0.5,1,0.3,1.1,0
				c0.3-0.7-0.2-1.3-1.1-1.3c-1,0-1.7,0.9-1.9,1.7c-0.4,1.6,1.8,1.7,2.4,0.6c-0.4,0-0.7,0-1.1,0.1c-0.2,0.4-0.4,0.7-0.7,1.1
				c-0.3,0.3-0.6,0-0.6-0.3C-49.8,480.7-50.9,481.1-50.9,481.4L-50.9,481.4z"/>
		</g>
		<path class="st5" d="M-63.7,479.1c-0.5,0.5-0.7-1.3-0.7-1.5c-0.1-0.8-0.1-1.5-0.1-2.3c0-0.5-0.9,0.2-0.9,0.5c0,0.7,0,1.3,0,2
			c0,0.3,0,0.7-0.1,1c-0.1,0.4,0,0.5-0.4,0.3c-0.9-0.5-0.6-2.7-0.4-3.5c0.1-0.6-0.8,0-0.9,0.4c-0.2,0.8-0.5,4.4,1.2,4.1
			c1.9-0.4,1.5-3.5,1.5-4.8c-0.3,0.2-0.6,0.3-0.9,0.5c0,1.2,0,2.5,0.4,3.6c0.3,1,1.2,0.6,1.7,0C-62.8,479-63.2,478.7-63.7,479.1
			L-63.7,479.1z"/>
		<path class="st5" d="M-50.8,481c-0.6,0.3-0.2-1.5-0.2-1.6c0.2-0.7,0.5-1.5,0.7-2.2c0.2-0.5-0.9-0.1-1,0.2
			c-0.2,0.6-0.4,1.2-0.7,1.9c-0.1,0.3-0.3,0.7-0.4,1c-0.2,0.4-0.2,0.5-0.4,0.2c-0.6-0.8,0.4-2.7,0.8-3.5c0.3-0.5-0.8-0.3-0.9,0
			c-0.4,0.7-1.9,4-0.3,4.3c1.9,0.3,2.5-2.8,3-4c-0.4,0.1-0.7,0.1-1,0.2c-0.4,1.1-0.8,2.3-0.8,3.5c0,1,0.9,0.9,1.6,0.6
			C-50,481.2-50.2,480.7-50.8,481L-50.8,481z"/>
		<path class="st5" d="M-57.4,476.3c0.1-1.3-1.8-0.8-2.3-0.2c-0.7,0.8-0.9,2-0.8,3s0.9,1.3,1.7,0.7
			C-57.7,479.1-57.6,477.5-57.4,476.3c-0.4,0.1-0.7,0.2-1.1,0.3c-0.1,0.7-1,4.6,1.1,3.6c0.5-0.2,0.6-0.9-0.1-0.6
			c-0.2,0.1-0.2-1.1-0.2-1.1C-57.7,477.8-57.5,477.1-57.4,476.3c0.1-0.5-1,0-1.1,0.3c-0.1,0.7-0.2,1.4-0.4,2.1
			c-0.1,0.2-0.2,0.7-0.3,0.7c-0.2,0-0.3-0.3-0.3-0.4c-0.2-0.5-0.1-1,0-1.5c0-0.3,0.1-0.5,0.3-0.8c0.1-0.1,0.1-0.3,0.2-0.4
			c0.2-0.2,0.5,0.3,0.5,0.4C-58.5,477.2-57.4,476.7-57.4,476.3L-57.4,476.3z"/>
		<g>
			<path class="st5" d="M-74.8,477.4c0.3,0.8,0.5,4.4,1.9,3.9c1.7-0.7,1-3.8,0.9-5c0-0.5-0.9,0.3-0.8,0.7c0.1,0.9,0.2,1.7,0.3,2.6
				c0,0.3,0.1,1-0.3,0.8c-0.5-0.2-0.6-1.3-0.7-1.7c-0.1-0.6-0.2-1.3-0.4-1.9C-74.2,476.2-74.9,477-74.8,477.4L-74.8,477.4z"/>
			<path class="st5" d="M-72.8,476.9c0.4,1.7,0.9,3.4,1.3,5c0.1,0.4,0.5,2-0.1,1.9c-1.1-0.1,0.1-3,0.3-3.3c0.4-0.6-0.4-0.5-0.6,0
				c-0.6,1.1-1.1,2.6-0.5,3.9c0.2,0.5,0.9,0.5,1.2,0.1c0.7-0.8,0.7-1.7,0.5-2.7c-0.2-1.9-0.9-3.7-1.3-5.6
				C-72.1,475.7-72.9,476.5-72.8,476.9L-72.8,476.9z"/>
		</g>
		<path class="st5" d="M-55.2,476.7c0.8,0.8,1.8,1,2.8,0.6c0.1-0.1,0.4-0.2,0.3-0.4c-0.1-0.2-0.4,0-0.5,0c-0.6,0.3-1.3-0.2-1.7-0.6
			C-54.7,476-55.5,476.4-55.2,476.7L-55.2,476.7z"/>
	</g>
</g>
<g>
	<path class="st3" d="M-49.5,497.2v-8.3c-13-3.6-24-1.1-27.8,0v8.6C-73.7,496.4-62.6,493.8-49.5,497.2z"/>
	<path class="st3" d="M-76,497.9c2.1,0.6,6.5,1.6,12.3,1.6c5.9,0,10.6-1.2,12.8-1.9C-62.2,495-71.8,496.8-76,497.9z"/>
</g>
<path class="st6" d="M-0.6,368.1c-0.2-8.4-12.3-15.2-27.1-15.2s-26.8,6.8-27.1,15.2l0,0v9.2l0,0c0.6,8.2,12.4,14.8,27,14.8
	s26.5-6.6,27-14.8l0,0L-0.6,368.1L-0.6,368.1z"/>
<g>
	<ellipse class="st7" cx="-32.7" cy="372.6" rx="27.1" ry="15.4"/>
	<rect x="-59.7" y="364" class="st7" width="54.1" height="9.2"/>
	<ellipse class="st8" cx="-32.7" cy="364.3" rx="27.1" ry="15.4"/>
</g>
<path class="st6" d="M-65.7,368.1c-0.2-8.4-12.3-15.2-27.1-15.2s-26.8,6.8-27.1,15.2l0,0v9.2l0,0c0.6,8.2,12.4,14.8,27,14.8
	s26.5-6.6,27-14.8l0,0L-65.7,368.1L-65.7,368.1z"/>
<g>
	<ellipse class="st7" cx="-97.8" cy="372.6" rx="27.1" ry="15.4"/>
	<rect x="-124.8" y="364" class="st7" width="54.1" height="9.2"/>
	<ellipse class="st8" cx="-97.8" cy="364.3" rx="27.1" ry="15.4"/>
</g>
<path class="st6" d="M-65.7,415.1c-0.2-8.4-12.3-15.2-27.1-15.2s-26.8,6.8-27.1,15.2l0,0v9.2l0,0c0.6,8.2,12.4,14.8,27,14.8
	s26.5-6.6,27-14.8l0,0L-65.7,415.1L-65.7,415.1z"/>
<g>
	<ellipse class="st7" cx="-97.8" cy="419.6" rx="27.1" ry="15.4"/>
	<rect x="-124.8" y="411" class="st7" width="54.1" height="9.2"/>
	<ellipse class="st8" cx="-97.8" cy="411.3" rx="27.1" ry="15.4"/>
</g>
<path class="st6" d="M-1.3,415.1c-0.2-8.4-12.3-15.2-27.1-15.2s-26.8,6.8-27.1,15.2l0,0v9.2l0,0c0.6,8.2,12.4,14.8,27,14.8
	s26.5-6.6,27-14.8l0,0L-1.3,415.1L-1.3,415.1z"/>
<g>
	<ellipse class="st7" cx="-33.4" cy="419.6" rx="27.1" ry="15.4"/>
	<rect x="-60.4" y="411" class="st7" width="54.1" height="9.2"/>
	<ellipse class="st8" cx="-33.4" cy="411.3" rx="27.1" ry="15.4"/>
</g>
<path class="st5" d="M-117.4,392.6h-1.7c-2,0-3.6-1.6-3.6-3.6v-26.4c0-2,1.6-3.6,3.6-3.6h1.7c2,0,3.6,1.6,3.6,3.6V389
	C-113.9,390.9-115.5,392.6-117.4,392.6z"/>
<circle class="st5" cx="-118.3" cy="349.2" r="4.7"/>
</svg>
