<svg xmlns="http://www.w3.org/2000/svg" viewBox="126 -29 381 309"><style>.st0{fill:#519E38;} .st1{fill:#FCF3E0;} .st2{fill:#FFFFFF;} .st3{fill:url(#SVGID_1_);} .st4{fill:url(#SVGID_2_);} .st5{fill:url(#SVGID_3_);} .st6{fill:url(#SVGID_4_);} .st7{fill:url(#SVGID_5_);}</style><g id="Layer_1"><g id="kolba_3"><path class="st0" d="M294.8 80.6h-78c-8.4 0-15.3-6.9-15.3-15.3V52.1c0-8.4 6.9-15.3 15.3-15.3h78.1c8.4 0 15.3 6.9 15.3 15.3v13.2c0 8.4-6.9 15.3-15.4 15.3z"/><path class="st1" d="M290.8 75.3h-78.1c-8.4 0-15.3-6.9-15.3-15.3V46.8c0-8.4 6.9-15.3 15.3-15.3h78.1c8.4 0 15.3 6.9 15.3 15.3V60c0 8.4-6.9 15.3-15.3 15.3z"/><path class="st0" d="M417.6 80.6h-78.1c-8.4 0-15.3-6.9-15.3-15.3V52.1c0-8.4 6.9-15.3 15.3-15.3h78.1c8.4 0 15.3 6.9 15.3 15.3v13.2c0 8.4-6.9 15.3-15.3 15.3z"/><path class="st1" d="M413.5 75.3h-78.1c-8.4 0-15.3-6.9-15.3-15.3V46.8c0-8.4 6.9-15.3 15.3-15.3h78.1c8.4 0 15.3 6.9 15.3 15.3V60c0 8.4-6.9 15.3-15.3 15.3z"/><path class="st0" d="M294.8 149.7h-78c-8.4 0-15.3-6.9-15.3-15.3v-13.2c0-8.4 6.9-15.3 15.3-15.3h78.1c8.4 0 15.3 6.9 15.3 15.3v13.2c0 8.4-6.9 15.3-15.4 15.3z"/><path class="st1" d="M290.8 144.4h-78.1c-8.4 0-15.3-6.9-15.3-15.3v-13.2c0-8.4 6.9-15.3 15.3-15.3h78.1c8.4 0 15.3 6.9 15.3 15.3v13.2c0 8.4-6.9 15.3-15.3 15.3z"/><path class="st0" d="M417.6 149.7h-78.1c-8.4 0-15.3-6.9-15.3-15.3v-13.2c0-8.4 6.9-15.3 15.3-15.3h78.1c8.4 0 15.3 6.9 15.3 15.3v13.2c0 8.4-6.9 15.3-15.3 15.3z"/><path class="st1" d="M413.5 144.4h-78.1c-8.4 0-15.3-6.9-15.3-15.3v-13.2c0-8.4 6.9-15.3 15.3-15.3h78.1c8.4 0 15.3 6.9 15.3 15.3v13.2c0 8.4-6.9 15.3-15.3 15.3z"/><path class="st0" d="M294.8 216.3h-78c-8.4 0-15.3-6.9-15.3-15.3v-13.2c0-8.4 6.9-15.3 15.3-15.3h78.1c8.4 0 15.3 6.9 15.3 15.3V201c0 8.4-6.9 15.3-15.4 15.3z"/><path class="st1" d="M290.8 211h-78.1c-8.4 0-15.3-6.9-15.3-15.3v-13.2c0-8.4 6.9-15.3 15.3-15.3h78.1c8.4 0 15.3 6.9 15.3 15.3v13.2c0 8.4-6.9 15.3-15.3 15.3z"/><path class="st0" d="M417.6 216.3h-78.1c-8.4 0-15.3-6.9-15.3-15.3v-13.2c0-8.4 6.9-15.3 15.3-15.3h78.1c8.4 0 15.3 6.9 15.3 15.3V201c0 8.4-6.9 15.3-15.3 15.3z"/></g></g><g id="snow"><g id="kolby"><path class="st2" d="M216.3 46.3h-5.6c-1.5 0-2.6-1.2-2.6-2.6v-1.2c0-1.5 1.2-2.6 2.6-2.6h5.6c1.5 0 2.6 1.2 2.6 2.6v1.2c0 1.4-1.2 2.6-2.6 2.6zM339 46.3h-5.6c-1.5 0-2.6-1.2-2.6-2.6v-1.2c0-1.5 1.2-2.6 2.6-2.6h5.6c1.5 0 2.6 1.2 2.6 2.6v1.2c.1 1.4-1.1 2.6-2.6 2.6zM216.3 115.5h-5.6c-1.5 0-2.6-1.2-2.6-2.6v-1.2c0-1.5 1.2-2.6 2.6-2.6h5.6c1.5 0 2.6 1.2 2.6 2.6v1.2c0 1.4-1.2 2.6-2.6 2.6zM339 115.5h-5.6c-1.5 0-2.6-1.2-2.6-2.6v-1.2c0-1.5 1.2-2.6 2.6-2.6h5.6c1.5 0 2.6 1.2 2.6 2.6v1.2c.1 1.4-1.1 2.6-2.6 2.6zM216.3 182h-5.6c-1.5 0-2.6-1.2-2.6-2.6v-1.2c0-1.5 1.2-2.6 2.6-2.6h5.6c1.5 0 2.6 1.2 2.6 2.6v1.2c0 1.5-1.2 2.6-2.6 2.6z"/><path class="st1" d="M413.5 211h-78.1c-8.4 0-15.3-6.9-15.3-15.3v-13.2c0-8.4 6.9-15.3 15.3-15.3h78.1c8.4 0 15.3 6.9 15.3 15.3v13.2c0 8.4-6.9 15.3-15.3 15.3z"/><path class="st2" d="M339 182h-5.6c-1.5 0-2.6-1.2-2.6-2.6v-1.2c0-1.5 1.2-2.6 2.6-2.6h5.6c1.5 0 2.6 1.2 2.6 2.6v1.2c.1 1.5-1.1 2.6-2.6 2.6z"/><g><linearGradient id="SVGID_1_" gradientUnits="userSpaceOnUse" x1="411.214" y1="218.72" x2="428.989" y2="168.356" gradientTransform="matrix(1 0 0 -1 0 252)"><stop offset="0" stop-color="#404B71"/><stop offset=".604" stop-color="#3C476E"/><stop offset="1" stop-color="#354169"/></linearGradient><path class="st3" d="M415.3 78.8l-1.9-7.1 1.7-3 .2.9c.3.9 1.2 1.5 2.2 1.2.2 0 .3-.1.4-.2.7-.4 1-1.2.8-2l-1.1-4.3 2.1-3.7 2.1 3.7-1.2 4.3c-.3.9.3 1.9 1.2 2.2.5.1.9 0 1.3-.2s.7-.6.8-1.1l.2-.9 1.7 3-1.9 7.1c-.3.9.3 1.9 1.2 2.2.5.1.9 0 1.3-.2s.7-.6.8-1.1l1-3.7 2.8 4.8c.5.8 1.6 1.1 2.4.6s1.1-1.6.6-2.4l-2.8-4.8 3.7 1c.5.1.9 0 1.3-.2s.7-.6.8-1.1c.3-.9-.3-1.9-1.2-2.2l-7.1-1.9-1.7-3 .9.2c.5.1.9.1 1.3-.2.4-.2.7-.6.8-1.1.3-.9-.3-1.9-1.2-2.2l-4.3-1.1-2.1-3.7h4.2l3.1 3.1c.6.6 1.5.7 2.1.3.1-.1.3-.2.4-.3.7-.7.7-1.8 0-2.5l-.6-.6h3.5l5.2 5.2c.6.6 1.5.7 2.1.3.1-.1.3-.2.4-.3.7-.7.7-1.8 0-2.5l-2.7-2.7h5.6c.3 0 .6-.1.9-.2.5-.3.9-.9.9-1.5 0-1-.8-1.8-1.8-1.8h-5.6l2.7-2.7c.7-.7.7-1.8 0-2.5s-1.8-.7-2.5 0l-5.2 5.2h-3.5l.6-.6c.7-.7.7-1.8 0-2.5s-1.8-.7-2.5 0l-3.1 3.1h-4.2l2.1-3.7 4.3-1.1c.2 0 .3-.1.4-.2.7-.4 1-1.2.8-2-.3-.9-1.2-1.5-2.2-1.2l-.9.2 1.7-3 7.1-1.9c.2 0 .3-.1.4-.2.7-.4 1-1.2.8-2-.3-.9-1.2-1.5-2.2-1.2l-3.7 1 2.8-4.8c.5-.8.2-1.9-.6-2.4s-1.9-.2-2.4.6L428 38l-1-3.7c-.3-.9-1.2-1.5-2.2-1.2-.9.3-1.5 1.2-1.2 2.2l1.9 7.1-1.7 3-.2-.9c-.3-.9-1.2-1.5-2.2-1.2-.9.3-1.5 1.2-1.2 2.2l1.1 4.3-2.1 3.7-2.1-3.7 1.1-4.3c.3-.9-.3-1.9-1.2-2.2-.9-.3-1.9.3-2.2 1.2l-.2.9-1.7-3 1.9-7.1c.3-.9-.3-1.9-1.2-2.2-.9-.3-1.9.3-2.2 1.2l-1 3.7-2.8-4.8c-.5-.8-1.6-1.1-2.4-.6s-1.1 1.6-.6 2.4l2.8 4.8-3.7-1c-.9-.3-1.9.3-2.2 1.2-.3.9.3 1.9 1.2 2.2l7.1 1.9 1.7 3-.9-.2c-.9-.3-1.9.3-2.2 1.2-.3.9.3 1.9 1.2 2.2l4.3 1.1 2.1 3.7h-4.2l-3.1-3.1c-.7-.7-1.8-.7-2.5 0s-.7 1.8 0 2.5l.6.6H404l-5.2-5.2c-.7-.7-1.8-.7-2.5 0s-.7 1.8 0 2.5l2.7 2.7h-5.6c-1 0-1.8.8-1.8 1.8s.8 1.8 1.8 1.8h5.6l-2.7 2.7c-.7.7-.7 1.8 0 2.5.6.6 1.5.7 2.1.3.1-.1.3-.2.4-.3l5.2-5.2h3.5l-.6.6c-.7.7-.7 1.8 0 2.5.6.6 1.5.7 2.1.3.1-.1.3-.2.4-.3l3.1-3.1h4.2l-2.1 3.7-4.3 1.1c-.9.3-1.5 1.2-1.2 2.2.3.9 1.2 1.5 2.2 1.2l.9-.2-1.7 3-7.1 1.9c-.9.3-1.5 1.2-1.2 2.2.3.9 1.2 1.5 2.2 1.2l3.7-1-2.8 4.8c-.5.8-.2 1.9.6 2.4.6.3 1.2.3 1.8 0 .3-.1.5-.4.6-.6l2.8-4.8 1 3.7c.3.9 1.2 1.5 2.2 1.2.2 0 .3-.1.4-.2.5-.1.8-1 .6-1.7z"/><linearGradient id="SVGID_2_" gradientUnits="userSpaceOnUse" x1="279.443" y1="147.804" x2="284.817" y2="132.576" gradientTransform="matrix(1 0 0 -1 0 252)"><stop offset="0" stop-color="#404B71"/><stop offset=".604" stop-color="#3C476E"/><stop offset="1" stop-color="#354169"/></linearGradient><path class="st4" d="M280.7 118l-.6-2.1.5-.9.1.3c.1.3.4.5.7.4 0 0 .1 0 .1-.1.2-.1.3-.4.2-.6l-.3-1.3.6-1.1.6 1.1-.3 1.3c-.1.3.1.6.4.7.1 0 .3 0 .4-.1.1-.1.2-.2.2-.3l.1-.3.5.9-.6 2.1c-.1.3.1.6.4.7.1 0 .3 0 .4-.1.1-.1.2-.2.2-.3l.3-1.1.8 1.5c.1.3.5.3.7.2.3-.1.3-.5.2-.7l-.8-1.5 1.1.3c.1 0 .3 0 .4-.1s.2-.2.2-.3c.1-.3-.1-.6-.4-.7l-2.1-.6-.5-.9.3.1c.1 0 .3 0 .4-.1.1-.1.2-.2.2-.3.1-.3-.1-.6-.4-.7l-1.3-.3-.6-1.1h1.3l.9.9c.2.2.4.2.6.1l.1-.1c.2-.2.2-.5 0-.8l-.2-.2h1.1l1.6 1.6c.2.2.4.2.6.1 0 0 .1 0 .1-.1.2-.2.2-.5 0-.8l-.8-.8h1.7c.1 0 .2 0 .3-.1.2-.1.3-.3.3-.5 0-.3-.2-.5-.5-.5h-1.7l.8-.8c.2-.2.2-.5 0-.8-.2-.2-.5-.2-.8 0l-1.6 1.6h-1.1l.2-.2c.2-.2.2-.5 0-.8-.2-.2-.5-.2-.8 0l-.9.9h-1.3l.6-1.1 1.3-.3s.1 0 .1-.1c.2-.1.3-.4.2-.6-.1-.3-.4-.5-.7-.4l-.3.1.5-.9 2.1-.6s.1 0 .1-.1c.2-.1.3-.4.2-.6-.1-.3-.4-.5-.7-.4l-1.1.3.8-1.5c.1-.3.1-.6-.2-.7-.3-.1-.6-.1-.7.2l-.8 1.5-.3-1.1c-.1-.3-.4-.5-.7-.4s-.5.4-.4.7l.6 2.1-.5.9-.1-.3c-.1-.3-.4-.5-.7-.4-.3.1-.5.4-.4.7l.3 1.3-.6 1.1-.6-1.1.3-1.3c.1-.3-.1-.6-.4-.7-.3-.1-.6.1-.7.4l-.1.3-.5-.9.6-2.1c.1-.3-.1-.6-.4-.7-.3-.1-.6.1-.7.4l-.3 1.1-.8-1.5c-.1-.3-.5-.3-.7-.2-.3.1-.3.5-.2.7l.8 1.5-1.1-.3c-.3-.1-.6.1-.7.4-.1.3.1.6.4.7l2.1.6.5.9-.3-.1c-.3-.1-.6.1-.7.4-.1.3.1.6.4.7l1.3.3.6 1.1h-1.3l-.9-.9c-.2-.2-.5-.2-.8 0-.2.2-.2.5 0 .8l.2.2h-1.1l-1.6-1.6c-.2-.2-.5-.2-.8 0-.2.2-.2.5 0 .8l.8.8h-.6c-.3 0-.5.2-.5.5s.2.5.5.5h1.7l-.8.8c-.2.2-.2.5 0 .8.2.2.4.2.6.1 0 0 .1 0 .1-.1l1.6-1.6h1.1l-.2.2c-.2.2-.2.5 0 .8.2.2.4.2.6.1l.1-.1.9-.9h1.3l-.6 1.1-1.3.3c-.3.1-.5.4-.4.7.1.3.4.5.7.4l.3-.1-.5.9-2.1.6c-.3.1-.5.4-.4.7.1.3.4.5.7.4l1.1-.3-.8 1.5c-.1.3-.1.6.2.7.2.1.4.1.5 0 .1 0 .1-.1.2-.2l.8-1.5.3 1.1c.1.3.4.5.7.4 0 0 .1 0 .1-.1.1-.1.2-.3.2-.5z"/><linearGradient id="SVGID_3_" gradientUnits="userSpaceOnUse" x1="207.357" y1="120.518" x2="218.943" y2="87.692" gradientTransform="matrix(1 0 0 -1 0 252)"><stop offset="0" stop-color="#404B71"/><stop offset=".604" stop-color="#3C476E"/><stop offset="1" stop-color="#354169"/></linearGradient><path class="st5" d="M209.9 161.2l-1.2-4.6 1.1-2 .2.6c.2.6.8 1 1.4.8.1 0 .2-.1.3-.1.4-.3.7-.8.5-1.3l-.7-2.8 1.4-2.4 1.4 2.4-.8 2.8c-.2.6.2 1.2.8 1.4.3.1.6 0 .9-.1s.5-.4.5-.7l.2-.6 1.1 2-1.2 4.6c-.2.6.2 1.2.8 1.4.3.1.6 0 .9-.1s.5-.4.5-.7l.6-2.4 1.8 3.2c.3.5 1 .7 1.6.4.5-.3.7-1 .4-1.6l-1.8-3.2 2.4.6c.3.1.6 0 .9-.1.3-.1.5-.4.5-.7.2-.6-.2-1.2-.8-1.4l-4.6-1.2-1.1-2 .6.2c.3.1.6 0 .9-.1.3-.1.5-.4.5-.7.2-.6-.2-1.2-.8-1.4l-2.8-.7-1.4-2.4h2.8l2 2c.4.4.9.4 1.4.2.1-.1.2-.1.2-.2.4-.4.4-1.2 0-1.6l-.4-.4h2.3l3.4 3.4c.4.4.9.4 1.4.2.1-.1.2-.1.2-.2.4-.4.4-1.2 0-1.6l-1.8-1.8h3.6c.2 0 .4-.1.6-.2.3-.2.6-.6.6-1 0-.6-.5-1.2-1.2-1.2h-3.6l1.8-1.8c.4-.4.4-1.2 0-1.6-.4-.5-1.2-.4-1.6 0l-3.4 3.4h-2.3l.4-.4c.4-.4.4-1.2 0-1.6-.5-.4-1.2-.4-1.6 0l-2 2h-2.8l1.4-2.4 2.8-.7c.1 0 .2-.1.3-.1.4-.3.7-.8.5-1.3-.2-.6-.8-1-1.4-.8l-.6.2 1.1-2 4.6-1.2c.1 0 .2-.1.3-.1.4-.3.7-.8.5-1.3-.2-.6-.8-1-1.4-.8l-2.4.6 1.8-3.2c.3-.6.1-1.3-.4-1.6s-1.3-.1-1.6.4l-1.8 3.2-.6-2.4c-.2-.6-.8-1-1.4-.8-.6.2-1 .8-.8 1.4l1.2 4.6-1.1 2-.2-.6c-.2-.6-.8-1-1.4-.8-.6.2-1 .8-.8 1.4l.7 2.8-1.4 2.4-1.4-2.4.7-2.8c.2-.6-.2-1.2-.8-1.4-.6-.2-1.2.2-1.4.8l-.2.6-1.1-2 1.2-4.6c.2-.6-.2-1.2-.8-1.4s-1.2.2-1.4.8l-.6 2.4-1.8-3.2c-.3-.5-1-.7-1.6-.4s-.7 1-.4 1.6l1.8 3.2-2.4-.6c-.6-.2-1.2.2-1.4.8-.2.6.2 1.2.8 1.4l4.6 1.2 1.1 2-.6-.2c-.6-.2-1.2.2-1.4.8-.2.6.2 1.2.8 1.4l2.8.7 1.4 2.4h-2.8l-2-2c-.4-.5-1.2-.4-1.6 0-.4.5-.4 1.2 0 1.6l.4.4h-2.3l-3.4-3.4c-.4-.4-1.2-.4-1.6 0s-.4 1.2 0 1.6l1.8 1.8h-3.6c-.6 0-1.1.5-1.1 1.1s.5 1.1 1.1 1.1h3.6l-1.8 1.8c-.4.5-.4 1.2 0 1.6.4.4.9.4 1.4.2.1 0 .2-.1.2-.2l3.4-3.4h2.3l-.4.4c-.4.4-.4 1.2 0 1.6.4.4.9.4 1.4.2.1 0 .2-.1.2-.2l2-2h2.8l-1.4 2.4-2.8.7c-.6.2-1 .8-.8 1.4.2.6.8 1 1.4.8l.6-.2-1.1 2-4.6 1.2c-.6.2-1 .8-.8 1.4.2.6.8 1 1.4.8l2.4-.6-1.8 3.2c-.3.6-.1 1.3.4 1.6.4.2.8.2 1.2 0 .2-.1.3-.2.4-.4l1.8-3.2.6 2.4c.2.6.8 1 1.4.8.1 0 .2-.1.3-.1.5-.1.7-.6.6-1.1z"/><linearGradient id="SVGID_4_" gradientUnits="userSpaceOnUse" x1="337.583" y1="117.896" x2="369.935" y2="42.177" gradientTransform="matrix(1 0 0 -1 0 252)"><stop offset="0" stop-color="#404B71"/><stop offset=".604" stop-color="#3C476E"/><stop offset="1" stop-color="#354169"/></linearGradient><path class="st6" d="M390.3 168.1h-7l3.4-3.4c.9-.9.9-2.3 0-3.1-.9-.9-2.3-.9-3.1 0l-6.5 6.5h-4.4l1.9-1.9c.9-.9.9-2.3 0-3.1-.9-.9-2.3-.9-3.1 0l-5.1 5.1h-4.3l.1-.1c.8-.8.9-2.2.1-3-.3-1.1-1.5-1.8-2.7-1.5l-.2.1 2.1-3.7 6.9-1.9c.2 0 .4-.1.5-.2.8-.5 1.3-1.5 1-2.5-.3-1.2-1.5-1.9-2.7-1.6l-2.6.7 2.2-3.8 8.9-2.4c.2-.1.4-.1.5-.2.8-.5 1.3-1.5 1-2.5-.3-1.2-1.5-1.9-2.7-1.6l-4.6 1.2 3.5-6.1c.6-1.1.2-2.4-.8-3-1.1-.6-2.4-.2-3 .8l-3.5 6.1-1.2-4.6c-.3-1.2-1.5-1.9-2.7-1.6-1.2.3-1.9 1.5-1.6 2.7l2.4 8.9-2.2 3.8-.7-2.6c-.3-1.2-1.5-1.9-2.7-1.6-1.2.3-1.9 1.5-1.6 2.7l1.9 6.9-2.1 3.7v-.2c-.3-1.2-1.5-1.8-2.6-1.6-1.1-.2-2.3.4-2.6 1.6v.2l-2.1-3.7 1.9-6.9c.3-1.2-.4-2.4-1.6-2.7s-2.4.4-2.7 1.6l-.7 2.6-2.2-3.8 2.4-8.9c.3-1.2-.4-2.4-1.6-2.7s-2.4.4-2.7 1.6l-1.2 4.6-3.5-6.1c-.6-1.1-2-1.4-3-.8-1.1.6-1.4 2-.8 3l3.5 6.1-4.6-1.2c-1.2-.3-2.4.4-2.7 1.6-.3 1.2.4 2.4 1.6 2.7l8.9 2.4 2.2 3.8-2.6-.7c-1.2-.3-2.4.4-2.7 1.6-.3 1.2.4 2.4 1.6 2.7l6.9 1.9 2.1 3.7h-.2c-1.1-.3-2.3.3-2.6 1.4-.9.9-.8 2.3 0 3.1l.1.1h-4.3l-5.1-5.1c-.9-.9-2.3-.9-3.1 0-.9.9-.9 2.3 0 3.1l1.9 1.9h-4.4l-6.5-6.5c-.9-.9-2.3-.9-3.1 0-.9.9-.9 2.3 0 3.1l3.4 3.4h-7c-1.2 0-2.2 1-2.2 2.2s1 2.2 2.2 2.2h7l-3.4 3.4c-.9.9-.9 2.3 0 3.1.7.7 1.8.8 2.7.4.2-.1.3-.2.5-.4l6.5-6.5h4.4l-1.9 1.9c-.9.9-.9 2.3 0 3.1.7.7 1.8.8 2.7.4.2-.1.3-.2.5-.4l5.1-5.1h4.3l-.1.1c-.8.8-.9 2.2-.1 3 .3 1.1 1.5 1.8 2.7 1.5h.2l-2.1 3.7-6.9 1.9c-1.2.3-1.9 1.5-1.6 2.7.3 1.2 1.5 1.9 2.7 1.6l2.6-.7-2.2 3.8-8.9 2.4c-1.2.3-1.9 1.5-1.6 2.7s1.5 1.9 2.7 1.6l4.6-1.2-3.5 6.1c-.6 1.1-.2 2.4.8 3 .7.4 1.6.4 2.2 0 .3-.2.6-.5.8-.8l3.5-6.1 1.2 4.6c.3 1.2 1.5 1.9 2.7 1.6.2-.1.4-.1.5-.2.8-.5 1.3-1.5 1-2.5l-2.4-8.9 2.2-3.8.7 2.6c.3 1.2 1.5 1.9 2.7 1.6.2 0 .4-.1.5-.2.8-.5 1.3-1.5 1-2.5l-1.9-6.9 2.1-3.7v.2c.3 1.2 1.5 1.8 2.6 1.6.6.1 1.1 0 1.6-.2.5-.3.9-.8 1-1.3v-.2l2.1 3.7-1.9 6.9c-.3 1.2.4 2.4 1.6 2.7.6.2 1.2.1 1.7-.2s.9-.8 1-1.3l.7-2.6 2.2 3.8-2.4 8.9c-.3 1.2.4 2.4 1.6 2.7.6.2 1.2.1 1.7-.2s.9-.8 1-1.3l1.2-4.6 3.5 6.1c.6 1.1 2 1.4 3 .8 1.1-.6 1.4-2 .8-3l-3.5-6.1 4.6 1.2c.6.2 1.2.1 1.7-.2s.9-.8 1-1.3c.3-1.2-.4-2.4-1.6-2.7l-8.9-2.4-2.2-3.8 2.6.7c.6.2 1.2.1 1.7-.2s.9-.8 1-1.3c.3-1.2-.4-2.4-1.6-2.7l-6.9-1.9-2.1-3.7h.2c.6.2 1.2.1 1.7-.2.4-.3.8-.7 1-1.2.9-.9.8-2.3 0-3.1l-.1-.1h4.3l5.1 5.1c.7.7 1.8.8 2.7.4.2-.1.3-.2.5-.4.9-.9.9-2.3 0-3.1l-1.9-1.9h4.4l6.5 6.5c.7.7 1.8.8 2.7.4.2-.1.3-.2.5-.4.9-.9.9-2.3 0-3.1l-3.4-3.4h7c.4 0 .8-.1 1.1-.3.7-.4 1.1-1.1 1.1-1.9-.1-1.8-1.1-2.8-2.3-2.8zm-36 4.7c-1.4.8-3.1.3-3.9-1-.8-1.4-.3-3.1 1-3.9 1.4-.8 3.1-.3 3.9 1 .8 1.3.4 3.1-1 3.9z"/><linearGradient id="SVGID_5_" gradientUnits="userSpaceOnUse" x1="292.407" y1="211.679" x2="305.774" y2="180.389" gradientTransform="matrix(1 0 0 -1 0 252)"><stop offset="0" stop-color="#404B71"/><stop offset=".604" stop-color="#3C476E"/><stop offset="1" stop-color="#354169"/></linearGradient><path class="st7" d="M316.3 56.3h-1.1l.4-.6c.3-.4.2-.9-.2-1.1-.4-.3-.9-.2-1.1.2l-1 1.5h-1.6l2.2-3.2c.3-.4.2-.9-.2-1.1-.4-.3-.9-.2-1.1.2l-2.8 4.1h-1.5l1.3-1.9c.3-.4.2-.9-.2-1.1-.4-.3-.9-.2-1.1.2l-1.9 2.8h-1l.4-.6c.3-.4.2-.9-.2-1.1-.4-.3-.9-.2-1.1.2l-1 1.5h-.4l-.9-1.6.2-.3 1.8-.2c.4 0 .8-.4.7-.9 0-.4-.4-.8-.9-.7l-.7.1.5-.9 3.4-.3c.4 0 .8-.4.7-.9 0-.4-.4-.8-.9-.7l-2.3.2.7-1.3 5-.4c.4 0 .8-.4.7-.9 0-.4-.4-.8-.9-.7l-3.8.3.8-1.4 1.8-.2c.4 0 .8-.4.7-.9 0-.4-.4-.8-.9-.7l-.7.1.6-1c.2-.4.1-.9-.3-1.1s-.9-.1-1.1.3l-.6 1-.3-.6c-.2-.4-.7-.6-1.1-.4-.4.2-.6.7-.4 1.1l.8 1.7-.8 1.4-1.6-3.5c-.2-.4-.7-.6-1.1-.4-.4.2-.6.7-.4 1.1l2.1 4.5-.7 1.3-1-2.1c-.2-.4-.7-.6-1.1-.4-.4.2-.6.7-.4 1.1l1.4 3.1-.5.9-.3-.6c-.2-.4-.7-.6-1.1-.4-.4.2-.6.7-.4 1.1l.8 1.7-.2.3h-1.9l-.2-.3.8-1.7c.2-.4 0-.9-.4-1.1-.4-.2-.9 0-1.1.4l-.3.6-.3-1 1.4-3.1c.2-.4 0-.9-.4-1.1s-.9 0-1.1.4l-1 2.1-.7-1.3 2.1-4.5c.2-.4 0-.9-.4-1.1-.4-.2-.9 0-1.1.4l-1.6 3.5-.8-1.4.8-1.7c.2-.4 0-.9-.4-1.1-.4-.2-.9 0-1.1.4l-.3.6-.6-1c-.2-.4-.7-.5-1.1-.3s-.5.7-.3 1.1l.6 1-.7-.1c-.4 0-.8.3-.9.7 0 .4.3.8.7.9l1.8.2.8 1.4-3.8-.3c-.4 0-.8.3-.9.7 0 .4.3.8.7.9l5 .4.7 1.3-2.3-.2c-.4 0-.8.3-.9.7 0 .4.3.8.7.9l3.4.3.5.9-.7-.1c-.4 0-.8.3-.9.7 0 .4.3.8.7.9l1.8.2.2.3-.9 1.6h-.4l-1-1.5c-.3-.4-.8-.5-1.1-.2-.4.3-.5.8-.2 1.1l.4.6h-1l-1.9-2.8c-.3-.4-.8-.5-1.1-.2-.4.3-.5.8-.2 1.1l1.3 1.9h-1.5l-2.8-4.1c-.3-.4-.8-.5-1.1-.2-.4.3-.5.8-.2 1.1l2.2 3.2h-1.6l-1-1.5c-.3-.4-.8-.5-1.1-.2-.4.3-.5.8-.2 1.1l.4.6h-1.1c-.4 0-.8.4-.8.8s.4.8.8.8h1.1l-.4.6c-.3.4-.2.9.2 1.1.1.1.3.1.5.1.3 0 .5-.1.7-.3l1-1.5h1.6l-2.2 3.2c-.3.4-.2.9.2 1.1.1.1.3.1.5.1.3 0 .5-.1.7-.3l2.8-4.1h1.5l-1.3 1.9c-.3.4-.2.9.2 1.1.1.1.3.1.5.1.3 0 .5-.1.7-.3l1.9-2.8h1l-.4.6c-.3.4-.2.9.2 1.1.1.1.3.1.5.1.3 0 .5-.1.7-.3l1-1.5h.4l.9 1.6-.2.3-1.8.2c-.4 0-.8.4-.7.9 0 .4.4.7.8.7h.1l.7-.1-.5.9-3.4.3c-.4 0-.8.4-.7.9 0 .4.4.7.8.7h.1l2.3-.2-.7 1.3-5 .4c-.4 0-.8.4-.7.9 0 .4.4.7.8.7h.1l3.8-.3-.8 1.4-1.8.2c-.4 0-.8.4-.7.9 0 .4.4.7.8.7h.1l.7-.1-.6 1c-.2.4-.1.9.3 1.1.1.1.3.1.4.1.3 0 .6-.1.7-.4l.6-1 .3.6c.1.3.4.5.7.5.1 0 .2 0 .3-.1.4-.2.6-.7.4-1.1l-.8-1.7.8-1.4 1.6 3.5c.1.3.4.5.7.5.1 0 .2 0 .3-.1.4-.2.6-.7.4-1.1l-2.1-4.5.6-1 1 2.1c.1.3.4.5.7.5.1 0 .2 0 .3-.1.4-.2.6-.7.4-1.1l-1.4-3.1.5-.9.3.6c.1.3.4.5.7.5.1 0 .2 0 .3-.1.4-.2.6-.7.4-1.1l-.8-1.7.2-.3h1.9l.2.3-.8 1.7c-.2.4 0 .9.4 1.1.1.1.2.1.3.1.3 0 .6-.2.7-.5l.3-.6.5.9-1.4 3.1c-.2.4 0 .9.4 1.1.1.1.2.1.3.1.3 0 .6-.2.7-.5l1-2.1.7 1.3-2.1 4.5c-.2.4 0 .9.4 1.1.1.1.2.1.3.1.3 0 .6-.2.7-.5l1.6-3.5.8 1.4-.8 1.7c-.2.4 0 .9.4 1.1.1.1.2.1.3.1.3 0 .6-.2.7-.5l.3-.6.6 1c.2.3.4.4.7.4.1 0 .3 0 .4-.1.4-.2.5-.7.3-1.1l-.6-1 .7.1h.1c.4 0 .8-.3.8-.7 0-.4-.3-.8-.7-.9l-1.8-.2-.8-1.4 3.8.3h.1c.4 0 .8-.3.8-.7 0-.4-.3-.8-.7-.9l-5-.4-.7-1.3 2.3.2h.1c.4 0 .8-.3.8-.7 0-.4-.3-.8-.7-.9l-3.4-.3-.5-.9.7.1h.1c.4 0 .8-.3.8-.7 0-.4-.3-.8-.7-.9l-1.8-.2-.2-.3.9-1.6h.4l1 1.5c.2.2.4.3.7.3.2 0 .3 0 .5-.1.4-.3.5-.8.2-1.1l-.4-.6h1l1.9 2.8c.2.2.4.3.7.3.2 0 .3 0 .5-.1.4-.3.5-.8.2-1.1l-1.3-1.9h1.5l2.8 4.1c.2.2.4.3.7.3.2 0 .3 0 .5-.1.4-.3.5-.8.2-1.1l-2.2-3.2h1.6l1 1.5c.2.2.4.3.7.3.2 0 .3 0 .5-.1.4-.3.5-.8.2-1.1l-.4-.6h1.1c.4 0 .8-.4.8-.8-.1-.6-.5-1-.9-1zm-17.7 2.4l-.9-1.6.9-1.6h1.9l.9 1.6-.9 1.6h-1.9z"/><circle class="st2" cx="330.4" cy="36.3" r="3.8"/><circle class="st2" cx="190.7" cy="107.8" r="3.8"/><circle class="st2" cx="196.2" cy="122.3" r="1.7"/><circle class="st2" cx="183" cy="131" r="1.7"/><circle class="st2" cx="317.1" cy="32.5" r="1.7"/><circle class="st2" cx="347.8" cy="72.4" r="4.2"/><circle class="st2" cx="379.9" cy="210" r="4.2"/><circle class="st2" cx="371" cy="83.4" r="3.1"/><circle class="st2" cx="365" cy="92.8" r="1.7"/><circle class="st2" cx="335.9" cy="81.7" r="1.7"/><circle class="st2" cx="424.3" cy="107.8" r="1.7"/><circle class="st2" cx="390" cy="83.4" r="1.7"/><circle class="st2" cx="383.3" cy="96.2" r="1.7"/><circle class="st2" cx="381.6" cy="83.2" r="1.7"/><circle class="st2" cx="390" cy="72.4" r="1.7"/><circle class="st2" cx="434.7" cy="85.1" r="1.7"/><circle class="st2" cx="439.7" cy="78.3" r="1.7"/><circle class="st2" cx="386.7" cy="200.5" r="1.7"/><circle class="st2" cx="399.3" cy="198.8" r="1.7"/><circle class="st2" cx="391.7" cy="208.3" r="1.7"/><circle class="st2" cx="356.1" cy="70.7" r="1.7"/><circle class="st2" cx="363.3" cy="78.3" r="1.7"/></g></g></g></svg>