<svg xmlns="http://www.w3.org/2000/svg" viewBox="0 0 290 188"><style>.st0{fill:#EFEFEF;} .st1{fill:#DDDDDD;} .st2{fill:#FFFFFF;} .st3{fill:#FCFCFC;} .st4{fill:#F499A8;} .st5{fill-rule:evenodd;clip-rule:evenodd;fill:#F499A8;} .st6{fill-rule:evenodd;clip-rule:evenodd;fill:#62BA47;} .st7{fill:#62BA47;} .st8{fill:#62BA46;}</style><g id="kolby"><path class="st0" d="M243.7 91.8H50.4L63.1 139c1.2 4.7 8.3 8.2 16.9 8.2h134.1c9.2 0 16.7-4.1 17.1-9.2l12.5-46.2z"/><path class="st1" d="M214.1 91.8H147v55.4h67.1c9.2 0 16.7-4.1 17.1-9.2l12.5-46.1h-29.6z"/><path class="st2" d="M75.6 119.7c.8 2.6-.6 5.4-3.2 6.2-2.6.8-5.4-.6-6.2-3.2L62.3 110c-.8-2.6.6-5.4 3.2-6.2 2.6-.8 5.4.6 6.2 3.2l3.9 12.7z"/><path class="st0" d="M243.6 85.1H49l16.9-30.4h159.6z"/><path class="st3" d="M225.5 54.7l18 30.4H49l16.9-30.4h159.6m0-8.6H65.9c-3.1 0-6 1.7-7.5 4.4L41.5 80.9c-1.5 2.7-1.4 5.9.1 8.5 1.5 2.6 4.4 4.2 7.4 4.2h194.5c3.1 0 5.9-1.7 7.5-4.3 1.5-2.7 1.5-6-.1-8.6l-18-30.4c-1.6-2.6-4.4-4.2-7.4-4.2z"/><path class="st4" d="M215.3 146.9c0-5.6-4.6-10.2-10.2-10.2s-10.2 4.6-10.2 10.2v.3h20.4v-.3z"/><circle class="st4" cx="85.3" cy="106.6" r="6.5"/><path class="st4" d="M201.2 104.1c4.2 0 7.6-3.4 7.6-7.6 0-1-.2-2-.6-2.8h-14c-.4.9-.6 1.8-.6 2.8 0 4.2 3.4 7.6 7.6 7.6z"/><g><path class="st4" d="M151.4 116.7c.8 3.4.4 7 .2 10.5 0 1.1 1.8-.3 1.9-1 .2-1.6.4-3.2.7-4.8.2-1 .5-3.4 1.8-2.5l1.7-1.7c-3.4-2.3-5.1 3.5-5.5 5.9-.1.6.6.4.9.3 2.1-.9 1.1 3.5 2.5 4.1 1.9.9 3.7-1.9 4.4-3.2.8-1.4-1.2-.6-1.6.1-1.8 3.1-1.7-.5-2.1-1.9-.4-1.6-1.9-1.2-3.1-.7l.9.3c.2-1 .4-4.1 1.9-3.1.7.5 2.4-1.2 1.7-1.7-4.5-3.3-5.9 7.8-6.1 10 .6-.3 1.3-.7 1.9-1 .1-3.6.5-7.3-.3-10.9-.1-1-1.9.5-1.8 1.3zM187.2 118.1c.2 3 .4 6 .2 9-.1 1.1 1.8-.3 1.9-1 .2-1.7.6-2.7 1.7-3.9 1.3-1.4 1.8-3.1 2.2-4.9.3-1.4-1.6-.1-1.8.6-.8 2.6-.9 5.8-.3 8.4.6 3.1 4.3-.6 5.1-1.9.8-1.3-1.2-.6-1.6.1-1.7 2.7-1.8-.7-1.9-1.9-.1-1.8 0-3.7.5-5.4l-1.8.6c-.4 1.9-1 3-2.2 4.4-1.2 1.4-1.6 3.1-1.8 4.8.6-.3 1.3-.7 1.9-1 .2-3-.1-6-.2-9 0-1.1-1.9.3-1.9 1.1zM103.8 115.4c-.5-2.6-2.8-4.3-5-2.1-2.1 2.1-2.6 5.3-2.7 8.1-.1 2.2.3 5.7 2.7 6.6 3 1.1 5.5-3.4 6.1-5.6.4-1.3-1.5-.1-1.7.6-.6 2-2.3 4.5-4.1 2.3-1-1.3-1.1-3.4-1.1-4.9 0-1.6.3-3.2.8-4.7 1-2.8 2.9-1 3.3 1.1 0 .8 1.8-.6 1.7-1.4zM114 125.7c.1 2.2 2.2 2.7 3.7 1.3 1.5-1.4 1.8-3.5 1.7-5.4 0-1.5-.3-3.8-1.8-4.6-.7-.4-1.7.2-2.2.6-1.1.8-1.5 2.2-1.5 3.6 0 1.1 1.9-.3 1.9-1 0-1.4.5-1.6 1.1-.4.3.7.5 1.6.6 2.4.1.9.1 2-.1 2.9-.1.3-.2.7-.4 1 .1-.2 0-.2-.2-.1-.6-.1-.8-.7-.9-1.2 0-1.3-1.9.2-1.9.9z"/><path class="st4" d="M113.6 117c.7 5.5.6 11.3.1 16.9-.1 1.1 1.8-.3 1.9-1 .6-5.7.7-11.6-.1-17.3-.2-.9-2 .5-1.9 1.4zM166.3 125.7c.1 2.2 2.2 2.7 3.8 1.3 1.5-1.4 1.8-3.5 1.7-5.4 0-1.5-.3-3.8-1.8-4.6-.7-.4-1.7.2-2.2.6-1.1.8-1.5 2.2-1.5 3.6 0 1.1 1.9-.3 1.9-1 0-1.4.5-1.6 1.1-.4.3.7.5 1.6.6 2.4.1.9.1 2-.1 2.9-.1.3-.2.7-.4 1 .1-.2 0-.2-.2-.1-.6-.1-.8-.7-.9-1.2-.2-1.3-2.1.2-2 .9z"/><path class="st4" d="M165.8 117c.7 5.5.6 11.3.1 16.9-.1 1.1 1.8-.3 1.9-1 .6-5.7.7-11.6-.1-17.3-.1-.9-2 .5-1.9 1.4zM110.2 118c-.9 2.6-1 6.3-.2 8.9.9 2.8 5.3-2.1 5.9-3.1.8-1.4-1.2-.6-1.6.1-.2.3-1.7 2.2-2.2 1.8-.5-.3-.5-1.8-.5-2.2-.2-2-.2-4.3.5-6.2.3-1.2-1.7 0-1.9.7zM104 124.9c.8-.3 2.6-1.1 3 .2.4 1.1-.8.7-1.2.1-1.4-1.8-.6-5.8 0-7.9.4-1.4-1.7-.1-1.9.6-.5 2.1-2 11.3 2.6 9.6 1.4-.5 2.6-2.1 2.5-3.6-.1-2.3-3.1-1.5-4.4-1-.6.2-1.1.7-1.3 1.3-.1.5.2.9.7.7zM196.5 124.8c1.4-1.6 4.3-5.4 2.5-7.6-1.3-1.6-3.4.9-3.9 2-.8 2-1 4.6-.3 6.7.8 2.7 3.4 1.6 5 .2.9-.7.9-2.3-.4-1.3-3 2.5-3.2-2.1-3-4.1.1-.6.2-1.1.3-1.7.2-.8.1-.6.5-.2 1.5 1.3-1.2 4.6-2 5.5-1.1 1.4.6 1.3 1.3.5zM125.2 125.2c.1 3.3 3.1 2.9 4.7.8 3-3.9 1-9.5 3.4-13.5l-1.8.6c-.9 4.4-.1 9.5.2 14 .1 1.2 1.8-.4 1.9-1 .5-3.7.9-8.1 2.4-11.5l-1.8.6c-.5 3.4-.7 7.5.3 10.8 1.2 4 4.2-.4 4.9-2.2.5-1.2-1.5-.1-1.8.6-.9 2.2-1.1.6-1.4-.7-.3-1.2-.3-2.5-.3-3.8 0-1.9 0-3.9.3-5.8.2-1.1-1.6.2-1.8.6-1.7 3.7-2.2 8.4-2.8 12.4.6-.3 1.3-.7 1.9-1-.2-4.5-1.1-9.6-.2-14 .2-1.1-1.6.3-1.8.6-1.1 1.9-1.4 3.9-1.6 6-.1 1.3-.3 2.7-.5 4-.1.7-.3 1.4-.6 2-.9 2.7-2 .1-2-.6.2-1.1-1.7.3-1.6 1.1z"/><path class="st4" d="M143.5 118.3c-.2-2.9-3.4-1.3-4.4.2-1.3 1.9-1.5 4.6-1.1 6.9.4 2.1 2.1 2.8 3.7 1.2 2-2.1 1.6-5.7 1.8-8.3-.6.3-1.3.7-1.9 1-.1 1.6-.1 3.3 0 4.9.1 1 .1 2.2.8 3 1.2 1.5 4-1.6 4.5-2.3 1-1.3-.6-1.3-1.3-.4-1.2 1.6-1.7 1.1-1.9-.4-.4-1.9-.3-3.9-.2-5.8 0-1.1-1.9.3-1.9 1-.1 1.6-.1 3.1-.3 4.7-.1.5-.2 1.6-.5 1.6-.4 0-.6-.5-.7-.8-.4-1-.4-2.3-.3-3.4 0-.6.2-1.3.4-1.9.1-.3.2-.6.4-.9.4-.6 1.1.5 1.1.7-.1 1.1 1.8-.3 1.8-1zM164.2 118.3c-.2-2.9-3.4-1.3-4.4.2-1.3 1.9-1.5 4.6-1.1 6.9.4 2.1 2.1 2.8 3.7 1.2 2-2.1 1.6-5.7 1.8-8.3-.6.3-1.3.7-1.9 1-.1 1.6-.1 3.3 0 4.9.1 1 .1 2.2.8 3 1.2 1.5 4-1.6 4.5-2.3 1-1.3-.6-1.3-1.3-.4-1.2 1.6-1.7 1.1-1.9-.4-.4-1.9-.3-3.9-.2-5.8 0-1.1-1.9.3-1.9 1-.1 1.6-.1 3.1-.3 4.7-.1.5-.2 1.6-.5 1.6-.4 0-.6-.5-.7-.8-.4-1-.4-2.3-.3-3.4 0-.6.2-1.3.4-1.9.1-.3.2-.6.4-.9.4-.6 1.1.5 1.1.7-.1 1.1 1.8-.3 1.8-1zM168.5 119c.8 1 1.9 1.7 3.2 1.3 1.1-.3 2.1-1.1 2.9-2 .2-.2.8-.9.4-1.3s-1 .2-1.3.4c-.4.4-.8.9-1.4 1-.9.2-1.6-.6-2.1-1.2-.5-.5-2.3 1.2-1.7 1.8z"/><path class="st4" d="M150.5 118.7c-.7-2.1-2.4-2.9-3.9-.9s-1.5 5.3-1 7.6c.5 1.9 2.3 2.4 4 1.6 2-1 3.6-3 4.1-5.1.4-1.3-1.6-.1-1.8.6-.5 1.7-2.9 4.8-4.3 1.9-.5-1-.4-2.3-.4-3.3 0-.9.2-1.9.6-2.8-.2.4.6 1.4.8 1.9.3.8 2.1-.7 1.9-1.5zM173.2 118.3c.6 2.9.2 6 .2 9 0 1.1 1.9-.3 1.9-1 .1-2.5.2-5.8 1.7-7.9-.4.5-.1.3.2.8.2.5.3 1.1.3 1.6.1 1.1 0 2.1 0 3.2 0 1-.2 3.5 1.3 3.6 1.7.2 3.2-1.6 3.9-3 .8-1.4-1.2-.6-1.6.1-1.8 3.2-1.7-2.8-1.7-3.8 0-1.2.2-4-1.5-4.3-1.4-.3-2.5 1.5-3 2.6-1.1 2.5-1.4 5.3-1.5 7.9.6-.3 1.3-.7 1.9-1 0-3.1.3-6.3-.3-9.4-.1-.7-2 .8-1.8 1.6z"/><path class="st4" d="M184.2 116.5c-2.3.2-3.2 3.1-3.4 5-.2 1.6-.2 5.7 2.2 5.9 2.5.2 3.5-3.1 3.7-5 .2-1.6.1-5.7-2.2-5.9-.8-.1-2.2 1.8-1.4 1.9 1.3.1 1.6 1.9 1.7 3 .1.8.1 1.7 0 2.5 0 .3-.1.7-.2 1-.1.3-.5.8-.1.7-1.2.5-1.6-2.3-1.7-2.9-.1-.8 0-1.7.1-2.5.1-.4.2-.9.3-1.3.1-.4.3-.4.1-.4.7-.2 2-2.1.9-2z"/></g><g><path class="st5" d="M153.2 61.9c-.3.8-1.6 1.3-3.1 1.3-1.7 0-3.1-.7-3.2-1.6-8.8.5-15.7 4.3-15.7 8.9 0 .9.3 1.8.8 2.6h.2c1.7 0 3.1.7 3.1 1.6 0 .4-.3.8-.7 1 2.9 2.1 7.5 3.5 12.7 3.7 1.3.1 4.2 0 5.8-.2 4.2-.6 7.8-1.9 10.2-3.7-.2-.2-.3-.4-.3-.7 0-.7 1-1.4 2.4-1.5.6-.9.9-1.8.9-2.8-.1-4.1-5.6-7.6-13.1-8.6zm-18.5 6.2c-.9 0-1.7-.4-1.7-.9s.8-.9 1.7-.9c.9 0 1.7.4 1.7.9s-.7.9-1.7.9zm27.7 3c-1.1 0-2-.5-2-1 0-.6.9-1 2-1s2 .5 2 1c.1.5-.8 1-2 1zM140.3 59.5c0 .6-1 1.1-2.3 1.1-1.2 0-2.3-.5-2.3-1.1 0-.6 1-1.2 2.3-1.2 1.3.1 2.3.6 2.3 1.2z"/><path class="st6" d="M140.4 63.4c0 .8-1.3 1.5-2.9 1.5-1.6 0-2.9-.7-2.9-1.5s1.3-1.5 2.9-1.5c1.6 0 2.9.7 2.9 1.5zM132.7 61.1c0 .5-.8.9-1.7.9-1 0-1.7-.4-1.7-.9s.8-.9 1.7-.9c.9.1 1.7.5 1.7.9z"/><path class="st7" d="M173.3 62.3c0 2.7-4.3 5-9.7 5-5.4 0-9.7-2.2-9.7-5 0-2.7 4.3-5 9.7-5 5.4.1 9.7 2.3 9.7 5z"/><path class="st2" d="M161.2 61.6c-.8 0-1 .5-1 .9v.1c0 .2 0 .3-.1.4 0 .1-.1.2-.1.2-.3 0-.5-.2-.6-.3-.2-.3-.3-.5-.4-.8-.1-.3-.2-.6-.2-.9v-.4-.1-.1c.1-.2-.5 0-.6.1-.6.6-.4 1.3-.4 1.9 0 .2 0 .3-.1.5 0 .1-.1.3-.3.4-.1.1-.3 0-.4 0-.2 0-.3-.1-.3-.2s-.2 0-.3 0c-.1.1-.3.2-.3.3.1.2.5.4.9.4.7-.1 1-.5 1.2-.9.1-.2.1-.3.1-.5.1.2.2.5.5.7.2.2.4.3.9.3.3 0 .5-.2.7-.4.1.2.4.3.7.3.4 0 .7-.2.9-.4.2-.2.2-.4.2-.6 0-.3-.1-.9-1-.9zm.3 1.5s0 .1-.1.1c-.2 0-.3-.1-.3-.2-.1-.1-.2-.3-.2-.4v-.5s0-.1.1-.1c.4.1.5.4.5.6 0 .2.1.3 0 .5zM170.9 62.2c-.9-.2-1.4.4-1.5.8-.1.3-.3.9.4 1 .4.1.8-.1 1-.2.3-.1.4-.3.5-.6.2-.2.4-.8-.4-1zm-.5 1.4l-.1.1c-.1 0-.2-.2-.2-.2V63c.1-.2.1-.3.3-.4l.1-.1c.3.2.2.5.2.7-.1.2-.2.3-.3.4zM168.5 62.3c.2-.1.3-.2.5-.3.3-.2.6-.5.6-.8 0-.3-.8-.3-1.2-.2-.6.1-.9.4-1 .7-.2.4-.3.8-.4 1.2-.3.2-.8.5-1.3.4-.1 0-.2-.1-.2-.2.4-.2.7-.4 1-.6.3-.2.4-.5-.1-.7-.4-.1-1 0-1.2.2-.3.2-.4.4-.5.6v.5c-.3.1-.6.1-.9.1-.3 0-.5-.2-.5-.4-.1-.2-.1-.4 0-.6 0-.1.1-.1.1-.2.2 0 .3.2.3.3.1.1.8-.1.7-.2-.1-.1-.2-.3-.5-.4-.3-.1-.7.1-.9.2-.5.3-.6.7-.5 1 0 .2.1.5.5.6.5.2 1.2 0 1.8-.1.1.2.4.3.8.3.5 0 1-.2 1.4-.4 0 .2.1.4.4.5.5.1 1 0 1.3-.2.4-.3.6-.6.4-.9-.1-.3-.3-.4-.6-.4zm-2.9-.2c0-.1.1-.1.1-.2.2 0 .2.2.2.2 0 .2-.3.3-.5.5v-.1c.1 0 .1-.2.2-.4zm2.8-.8l.2-.2c.3.2 0 .5-.2.6-.2.2-.4.4-.6.5 0-.2.1-.3.2-.5l.4-.4zm-.2 2c0 .1 0 .1 0 0-.1.1-.1.1-.2.1-.2-.1-.2-.3-.2-.4v-.3c.1-.1.2-.1.3-.2.2-.1.3.1.4.2 0 .3-.1.5-.3.6z"/><ellipse class="st7" cx="134.7" cy="78.5" rx="5.5" ry="2.8"/><path class="st2" d="M156.6 69.3c.3-.4.4-1-.2-1.3-.4-.2-1-.2-1.5-.2.1-.2.1-.4.1-.5 0-.1-.6-.1-.8-.1-.3 0-.6.1-.7.3 0 .7-.3 1.4-.6 2-.3.1-.6.1-.9.2-.2 0-.3.1-.6.1-.3-.1-.3-.3-.4-.5-.1-.6.1-1.3.7-1.8.2-.1-.1-.2-.4-.2-.4 0-.8.1-1 .3-.6.7-.7 1.4-.5 2.2 0 .3.2.4.8.5.7.1 1.4-.1 2-.3 0 0 0 .1-.1.1-.3.6-.6 1.2-1 1.9-.1.1.2.2.3.1.2 0 .4-.1.5-.3.3-.4.6-.8.8-1.3.3.1.7.1 1.2 0 1.3-.2 2-.7 2.3-1.2zm-1.6-1.1zm-.6 1.9c.1 0 .1 0 0 0zm.1 0c-.1 0-.1 0 0 0-.1 0-.1 0 0 0-.5 0-.5-.3-.5-.4v-.1c.2-.4.4-.7.6-1.1.1-.1.1-.2.3-.3.1 0 .3.1.3.2.2.3.1.6 0 .9-.1.3-.3.6-.7.8z"/><path class="st2" d="M148.6 67.8h-.1-.1c-.3 0-.6.1-.8.2 0-.2-.1-.5-.2-.7 0-.1-.5 0-.6 0-.4.1-.7.2-.7.4l-.3.9c-.1.2-.2.5-.3.7-.1.1-.1.2-.2.3l-.1.1c-.2.1-.6.2-1 .1s-.7-.2-1-.3c-.7-.4-1.1-.9-1.3-1.4-.1-.3-.1-.5 0-.8 0-.1.1-.2.1-.3 0-.1.1-.1.1-.1l.1-.1h.1c.1 0 .3-.1.5-.1.9-.1 1.3.3 1.5.6.2.2 1.4-.3 1.3-.5-.3-.4-1.1-.7-2-.7-.8 0-1.4.2-1.9.5-1 .6-1.2 1.4-.9 2.1.3.7 1 1.3 2.1 1.7.4.1.9.2 1.4.2 1-.1 1.7-.7 2.1-1.2v-.1c.1.5.7 1 1.6 1 1 0 1.7-.7 1.8-1.2.2-.6-.1-1.2-1.2-1.3zm.2 1.7s-.1.1 0 0c-.1.1-.1.1-.2.1-.6 0-.9-.4-.9-.6v-.1-.1c0-.1 0-.2.1-.3l.1-.1h.1c.7 0 .9.4 1 .6-.1.2-.1.3-.2.5z"/><g><path class="st2" d="M160.8 74.1c-.1-.1-.3 0-.4 0h-.6c-.1-.1-.1-.1-.1-.2.5-.1.9-.3 1.3-.5.2-.1.4-.3.2-.4-.4-.3-1.2-.1-1.5.1-.2.1-.4.3-.5.5h-.1c-.2.1-.3.2-.5.2v-.2c0-.2.2-.4.3-.6l.3-.3c.1 0 .1-.1.2-.1.1-.1 0-.1-.1-.1-.2 0-.4 0-.5.1-.1.1-.2.1-.2.2-.1.1-.2.2-.4.2-.1.1-.2.1-.4.1.1-.3.2-.5.3-.8v-.1h-.1-.1c-.1 0-.2 0-.3.1-.1 0-.1 0-.1.1-.1.1-.3 0-.5 0-.1 0-.2-.1-.3-.2-.1-.1-.2-.1-.3-.2h-.1c-.8 0-1.1.4-1.3.7 0 .1-.1.2-.1.3-.1.1-.2.1-.3.1h-.1c-.2-.1-.1-.3 0-.4.1-.3.3-.6.1-.9-.1-.1-.4-.1-.6-.1-.2 0-.4.1-.6.2v-.3c0-.1-.6 0-.7.1-.1.1-.3.1-.5 0-.1 0-.2-.1-.3-.1-.1-.1-.1-.1-.2-.1-.2-.1-.5 0-.7 0v-.3c0-.1-.3 0-.4 0-.1 0-.3.1-.3.2.1.4.1.7.1 1.1-.1.1-.2.2-.4.3h-.1c-.1-.1-.1-.2-.2-.3v-.8c0-.2-.3-.3-.7-.2-.4 0-.6.2-.8.3-.2.2-.3.5-.3.7 0 .1-.1.3-.4.3-.2 0-.3 0-.4-.1-.1-.1-.1-.3-.3-.4-.2-.1-.4-.1-.6-.1v-.1-.1c0-.1.1-.2.1-.3 0 0 .1 0 .1-.1h.2c.2.1.7-.2.5-.3-.3-.1-.6-.1-.8 0-.2 0-.3.1-.4.2h-.1c-.1-.2-.1-.3-.3-.5-.1-.1-.7.1-.6.3.4.5.4 1 .5 1.6 0 .2.6-.1.6-.2v-.4c.2 0 .3.2.3.3.1.1.1.3.4.3.3 0 .6-.1.9-.1.1 0 .2-.1.2-.1.1.1.2.2.3.2.3.1.6 0 .8-.1 0 .1.1.1.2.2s.3 0 .5 0c.2-.1.3-.1.5-.2v.1c0 .4-.1.8-.2 1.2 0 .1.1.1.2 0 .1 0 .3-.1.3-.2.1-.3.1-.6.2-.9.2 0 .4 0 .6-.1.4-.2.6-.5.6-.8V72c.3 0 .5 0 .7-.1 0 .1 0 .3-.1.4-.1.3-.1.5-.2.8 0 .2.6 0 .7-.1.1-.4.3-.8.8-1.1l.1.1c.1.1 0 .3 0 .5-.1.2-.1.3-.2.5 0 .1 0 .3.2.3.2.1.4 0 .6 0 .1 0 .3-.1.4-.1 0 .1.2.2.4.3.3 0 .7-.1.9-.2.2-.1.4-.3.5-.5 0-.1.1-.1.1-.2h.7c-.1.4-.3.8-.5 1.1-.1.1.1.1.2.1.2 0 .3-.1.4-.1.1-.1.2-.3.4-.4.1-.1.2-.1.3-.1-.1.2-.3.4-.3.7 0 .1.2.1.2.1h.2c.3 0 .6-.1.9-.2v.1c0 .1 0 .2.2.3.3.1 1 .1 1.3 0-.1.1.1 0 .1-.1zM148.5 73c-.1 0-.1 0 0 0-.2 0-.3-.1-.3-.2-.1-.1-.1-.2-.1-.3 0-.1 0-.2.1-.3 0-.1.1-.2.2-.2h.1c.1 0 .2.1.2.1-.1.2-.1.5-.2.9 0-.1 0-.1 0 0zm2.1-1.1zm.2 1.1zm0 0c-.3 0-.4-.1-.4-.2 0-.2 0-.4.1-.7 0-.1 0-.1.1-.2.1 0 .1 0 .2.1s.2.3.2.4c0 .2 0 .4-.2.6zm4.6.4zm.1-.1l-.1.1c-.1 0-.1-.1-.2-.2v-.4c0-.1.1-.3.2-.4l.1-.1c.3.1.2.5.1.6.1.1.1.3-.1.4zm2.9.6zm1.6-.7c.1 0 .2-.1.2-.2 0 0 .1 0 .1.1.1.1-.1.2-.2.3-.1.1-.3.2-.5.2.2-.1.3-.2.4-.4zM144.9 72.9c-.2 0-.3.1-.4.1-.2.1-.5.1-.7 0-.2-.1-.3-.3-.4-.4-.1-.2-.1-.4 0-.5h.2c.2 0 .3.1.4.2.1.1.7-.1.6-.3-.1-.1-.3-.2-.6-.3-.3 0-.6 0-.8.1-.5.2-.5.6-.3.9v.1c0 .1 0 .2-.1.4-.2 0-.3-.3-.3-.3-.2-.3-.2-.5-.3-.8-.1-.2-.4-.2-.8-.1-.3.1-.5.3-.6.4-.2.3-.1.7.2 1-.1 0-.2.1-.4.1-.1 0-.2-.1-.3-.1-.3-.2-.4-.4-.5-.6-.2-.4-.4-.8-.5-1.1 0-.1-.2-.1-.2 0-.1 0-.2.1-.3.2-.1.3-.1.6 0 .9l-.1-.1c-.2-.2-.3-.4-.4-.7-.1-.1-.2-.3-.2-.4 0-.2-.4 0-.5.1-.4.6.1 1.1.3 1.7.1.1.1.3.1.4 0 .1 0 .3-.1.4-.1.1-.3 0-.4 0-.2 0-.3-.1-.3-.2-.1-.1-.2 0-.3 0-.1.1-.2.2-.2.3.1.2.5.4 1 .3.6-.1.8-.5.8-.8 0-.2 0-.4-.1-.6.2.3.5.7.7 1 .1.2.5-.2.4-.3-.1-.2-.2-.5-.2-.7l.2.2c.2.2.4.4.7.6.1.1.4 0 .5 0 .2 0 .3-.1.5-.2.1 0 .2.1.2.1.3 0 .6-.1.7-.2 0 0 .1.1.2.1h.4c.2 0 .4-.2.5-.3.1 0 .2.1.3.1.6.1 1.2-.1 1.5-.3 0-.2.1-.4-.1-.4zm-3.1.5c-.2 0-.3-.1-.3-.1-.2-.2-.3-.4-.3-.7 0-.1 0-.2.1-.2h.1c.1 0 .2 0 .3.1 0 .2.2.5.1.9 0-.1 0 0 0 0z"/></g><g><path class="st2" d="M132.7 78.4h-2.2c-.2 0 .1 0-.1.1.1-.1.2-.1.3-.2.2-.1.4-.3.6-.4.1 0 .1-.1.2-.1-.2 0-.3 0-.2.1v.2c0 .4 0 .8-.1 1.3 0 .2.6 0 .6-.2.1-.3.1-.5.1-.8v-.6-.3c-.2-.3-1.1.4-1.2.5-.2.1-1.1.7-.5.7h2.2c.2 0 .6-.3.3-.3zM135.6 78.4h-2.2c-.2 0 .1 0-.1.1.1-.1.2-.1.3-.2.2-.1.4-.3.6-.4.1 0 .1-.1.2-.1-.2 0-.3 0-.2.1v.2c0 .4 0 .8-.1 1.3 0 .2.6 0 .6-.2.1-.3.1-.5.1-.8v-.6-.3c-.2-.3-1.1.4-1.2.5-.2.1-1.1.7-.5.7h2.2c.3 0 .7-.3.3-.3zM138.4 77.7c-.6.5-1.4 1-2.2 1.5-.3.2.2.2.4.1.8-.5 1.6-1.1 2.3-1.6.3-.2-.3-.1-.5 0zM137.3 77.6c-.4 0-.7.2-.7.4-.1.2.1.3.5.3.6 0 1-.7.2-.7-.2 0-.5.2-.2.2.2 0 .3.1.3.2v.1h-.1c-.2 0-.3-.1-.3-.2v-.1h.1c.1 0 .4-.2.2-.2zM138.4 78.7c-.4 0-.7.2-.7.4-.1.2.1.3.5.3.6 0 1-.7.2-.7-.2 0-.5.2-.2.2.2 0 .3.1.3.2v.1h-.1c-.2 0-.3-.1-.3-.2v-.1h.1c.1 0 .4-.2.2-.2z"/></g><g><path class="st8" d="M127.3 66.8c-.1 0-.2-.1-.3-.1-.4-.1-.7 0-1 0-.8 0-1.1 0-2.1-.2 0-.4.5-.7.7-1.1.2-.3-.1-.7-.1-1v-.6c-.3.1-.2.5-.2.7-.1-.3-.1-.6-.3-.8-.1.3 0 .6 0 .8-.1-.2-.2-.5-.4-.7-.2.2.1.6.1.8-.2-.2-.3-.5-.5-.7-.1.3.2.5.2.7-.2-.2-.3-.4-.5-.5 0 .2.2.4.4.6-.2-.1-.3-.2-.6-.3 0 .1.2.2.3.3-.2 0-.2-.1-.4-.2 0 .1.2.2.3.3-.1 0-.2-.1-.4-.1 0 .1.3.2.2.2h-.2s.2.1.1.1h-.2c0 .1.1 0 .1.1h-.1c0 .1.1 0 .1.1-.7.4-.3.8-.4 1.2 0-.1-.6-.1-1.1-.2-.3-.1-.3-.2-.5-.3h.1c-.1 0-.2 0-.2-.1h.3c-.1 0-.5-.1-.4-.1.2 0 .3.1.5 0-.2-.1-.6-.1-.6-.2.2 0 .4.1.6.1-.3-.1-.7-.2-.8-.3.2.1.5.2.7.2-.4-.1-.7-.3-1-.3.2.2.7.3.8.4-.3-.1-.6-.2-.8-.2.1.2.5.2.8.3-.3 0-.4-.1-.7-.1.1.1.5.1.6.2h-.4c0 .1.3.1.4.1h-.4c.1 0 .3 0 .4.1h-.2.2c-.1 0-.1 0-.1.1h.1c.4.1.6.4 1.1.5-.3.1.3.2-3.1.8.1 0 1.5-.2 1.9-.2.4-.1.8-.1 1.2-.2h.3c.7 0 1.3 0 2-.2-.5 0-1.4.1-1.8-.1.5-.4.1-1.3.5-1.5.4-.2.9-.8 1.6-.3.1.1.1.2-.1.4-.3.3-.5.4-.4.9 0 .1 0 .2-.3.2 1.5.2 1.9.1 2.8 0 .3 0 .7-.1.7 0s-.3.1-.5.1c-.4 0 .2.1.4.1.1 0 .9 0 1.3-.1-.3.3-.4.3-.7.3z"/><path class="st8" d="M123 62.9c-3.4 0-6.1 1.4-6.1 3.1 0 1.7 2.7 3.1 6.1 3.1 3.4 0 6.1-1.4 6.1-3.1 0-1.7-2.7-3.1-6.1-3.1m0 .1c3.2 0 5.9 1.3 5.9 3s-2.6 3-5.9 3c-3.2 0-5.9-1.3-5.9-3 0-1.6 2.7-3 5.9-3"/></g></g></g></svg>