<svg id="Layer_1" xmlns="http://www.w3.org/2000/svg" viewBox="42 -58 141 173"><style>.st0{fill:#519E38;} .st1{fill:#FFFFFF;} .st2{fill:#EFEFEF;} .st3{fill:none;} .st4{fill:#EDEDED;} .st5{fill:#CA0000;} .st6{fill:#B00000;} .st7{opacity:0.6;fill:none;stroke:#FFFFFF;stroke-width:2;stroke-linecap:round;enable-background:new ;}</style><g id="bottle"><path id="XMLID_38_" class="st0" d="M109.4-35H85.9c-1.3 0-2.4 1.1-2.4 2.4 0 1.3 1.1 2.4 2.4 2.4h23.5c1.3 0 2.3-1.1 2.3-2.4 0-1.4-1-2.4-2.3-2.4z"/><g id="XMLID_2_"><path id="XMLID_3_" class="st0" d="M77.7 48.7l10.6-23.3V-34l-4.1.6.4 52.4 1.1 5.4-12.6 24.3z"/><path id="XMLID_4_" class="st0" d="M142.2 89.2c-.2-1.1-.5-1.8-.5-1.8l-31.3-63.5.1-54.2-.1-2h-2.3l-1.6 2 .3 55.4 15.4 30.2 8.8 26.5-6.4 7.7-23.9 2-10-.5s-35.7.4-35.5 2.5c0 .6.3 1.1.7 1.6 0 0-.2 3.2 6.7 3.2h61.1l4.7-1.2h3.4l-3 .8 8.3.8c7-1.8 5.1-9.5 5.1-9.5z"/></g><path id="XMLID_5_" class="st0" d="M140.6 95c0 2-1.6 3.6-3.6 3.6H59.4c-2 0-3.6-1.6-3.6-3.6s1.6-3.6 3.6-3.6h77.7c1.9.1 3.5 1.7 3.5 3.6z"/><g id="XMLID_6_"><g id="XMLID_7_"><path id="XMLID_8_" class="st1" d="M115.8 47H74L53.7 86.8c-2.2 4.6.1 8.3 5.1 8.3h72.7c5 0 7.3-3.8 5.1-8.3L115.8 47z"/></g></g><g id="XMLID_12_"><g id="XMLID_13_"><path id="XMLID_14_" class="st1" d="M104.5-33.6v58c0 .5.1.9.4 1.3s.6.9.8 1.3l15.8 32.1 14.4 29.2c.7 1.5.8 2.8.3 3.7s-1.8 1.4-3.4 1.4H57.5c-1.6 0-2.9-.5-3.4-1.4-.5-.9-.4-2.2.3-3.7l14.4-29.2L84.6 27c.2-.4.5-.9.8-1.3s.4-.9.4-1.3v-58h18.7zm2.4-2.4H83.4v60.3c-.4.5-.7 1.1-.9 1.6L66.7 58 52.3 87.2c-2.3 4.6.1 8.4 5.3 8.4h75.2c5.2 0 7.5-3.8 5.3-8.4L123.7 58l-15.9-32c-.3-.5-.6-1.1-.9-1.6V-36z"/></g></g><path id="XMLID_17_" class="st1" d="M85.4 41.2c-.3 0-.6-.1-.9-.2-1.1-.5-1.6-1.8-1.1-2.9l3.8-8.7c.5-1.1 1.8-1.6 2.9-1.1 1.1.5 1.6 1.8 1.1 2.9l-3.8 8.7c-.3.8-1.1 1.3-2 1.3z"/><path id="XMLID_18_" class="st1" d="M91.5 22c-1.1 0-2-.9-2-2v-44.8c0-1.1.9-2 2-2s2 .9 2 2V20c0 1.1-.9 2-2 2z"/><path id="XMLID_39_" class="st2" d="M106.9-37H83.4c-1.3 0-2.4 1.1-2.4 2.4 0 1.3 1.1 2.4 2.4 2.4h23.5c1.3 0 2.3-1.1 2.3-2.4s-1-2.4-2.3-2.4z"/><g id="mask_x5F_test-tube"><path id="XMLID_41_" class="st3" d="M104.5-34.3v58c0 .5.1.9.4 1.3s.6.9.8 1.3l15.8 32.1 14.4 29.2c.7 1.5.8 2.8.3 3.7s-1.8 1.4-3.4 1.4H57.5c-1.6 0-2.9-.5-3.4-1.4-.5-.9-.4-2.2.3-3.7l14.3-29.1 15.8-32.1c.2-.4.5-.9.8-1.3s.4-.9.4-1.3v-58l18.8-.1z"/></g></g><g id="thermometr"><path id="XMLID_37_" class="st0" d="M166.5 24.4v-54.7c0-.5-.1-.9-.2-1.4 0 0-.8-5.5-6.2-6.1 0 0-3.8-.1-6 1.1-2.2 1.2 6.9 5.4 6.9 5.4s1.7.9 2.5 1.3v56.1l.8.4c.1 0 6.9 3.9 6.4 11.5-.4 5.9-3.8 10.3-8.9 12l-6.3-1.8s-7.5-.2-4.8 2.8c1.7 1.9 4.6 2.5 6.5 2.6.2.1.4.1.6.1.3 0 .6 0 .9-.1h.3c8.1-.7 14.1-6.9 14.6-15.3.6-7.9-5-12.4-7.1-13.9z"/><path id="XMLID_36_" class="st1" d="M163.5 25.1v-54.9c0-4-3.2-7.2-7.2-7.2s-7.2 3.2-7.2 7.2V25c-4.4 2.5-7.3 7.2-7.3 12.6 0 8 6.5 14.4 14.4 14.4 8 0 14.4-6.5 14.4-14.4.1-5.3-2.8-10-7.1-12.5z"/><path id="XMLID_35_" class="st4" d="M163.5 25.1v-54.9c0-4-3.2-7.2-7.2-7.2h-.1v89c8 0 14.4-6.5 14.4-14.4.1-5.3-2.8-10-7.1-12.5z"/><path id="XMLID_34_" class="st5" d="M160.8 27.3v-44.4h-9.5v44.6c-3.9 1.9-6.6 5.8-6.6 10.4 0 6.4 5.2 11.5 11.5 11.5 6.4 0 11.5-5.2 11.5-11.5.1-4.7-2.8-8.8-6.9-10.6z"/><path id="XMLID_33_" class="st6" d="M160.8 27.3v-44.4h-4.5v66.5c6.4 0 11.5-5.2 11.5-11.5 0-4.7-2.9-8.8-7-10.6z"/><path id="XMLID_32_" class="st7" d="M149.3 40.3s1.2 2.8 4 4"/><path id="XMLID_31_" class="st1" d="M157.7-9.9h-2.9c-.1 0-.2-.1-.2-.2s.1-.2.2-.2h2.9c.1 0 .2.1.2.2.1.1 0 .2-.2.2z"/><path id="XMLID_30_" class="st1" d="M157.7-8.2h-2.9c-.1 0-.2-.1-.2-.2s.1-.2.2-.2h2.9c.1 0 .2.1.2.2s0 .2-.2.2z"/><path id="XMLID_29_" class="st1" d="M159.5-6.6H153c-.1 0-.2-.1-.2-.2s.1-.2.2-.2h6.5c.1 0 .2.1.2.2s-.1.2-.2.2z"/><path id="XMLID_28_" class="st1" d="M157.7-4.9h-2.9c-.1 0-.2-.1-.2-.2s.1-.2.2-.2h2.9c.1 0 .2.1.2.2s0 .2-.2.2z"/><path id="XMLID_27_" class="st1" d="M157.7-3.3h-2.9c-.1 0-.2-.1-.2-.2s.1-.2.2-.2h2.9c.1 0 .2.1.2.2s0 .2-.2.2z"/><path id="XMLID_26_" class="st1" d="M159.5-1.6H153c-.1 0-.2-.1-.2-.2s.1-.2.2-.2h6.5c.1 0 .2.1.2.2s-.1.2-.2.2z"/><path id="XMLID_25_" class="st1" d="M157.7 0h-2.9c-.1 0-.2-.1-.2-.2s.1-.2.2-.2h2.9c.1 0 .2.1.2.2s0 .2-.2.2z"/><path id="XMLID_24_" class="st1" d="M157.7 1.6h-2.9c-.1 0-.2-.1-.2-.2s.1-.2.2-.2h2.9c.1 0 .2.1.2.2s0 .2-.2.2z"/><path id="XMLID_23_" class="st1" d="M159.5 3.3H153c-.1 0-.2-.1-.2-.2s.1-.2.2-.2h6.5c.1 0 .2.1.2.2s-.1.2-.2.2z"/><path id="XMLID_22_" class="st1" d="M157.7 4.9h-2.9c-.1 0-.2-.1-.2-.2s.1-.2.2-.2h2.9c.1 0 .2.1.2.2.1.1 0 .2-.2.2z"/><path id="XMLID_21_" class="st1" d="M157.7 6.6h-2.9c-.1 0-.2-.1-.2-.2s.1-.2.2-.2h2.9c.1 0 .2.1.2.2.1.1 0 .2-.2.2z"/><path id="XMLID_20_" class="st1" d="M159.5 8.2H153c-.1 0-.2-.1-.2-.2s.1-.2.2-.2h6.5c.1 0 .2.1.2.2s-.1.2-.2.2z"/><g id="thermometer_x5F_mask_2_"><path id="XMLID_9_" class="st3" d="M160.8 27.3v-44.4h-9.5v44.6c-3.9 1.9-6.6 5.8-6.6 10.4 0 6.4 5.2 11.5 11.5 11.5 6.4 0 11.5-5.2 11.5-11.5.1-4.7-2.8-8.8-6.9-10.6z"/></g></g><g id="mask"><path id="XMLID_15_" class="st3" d="M160.8 27.3v-44.4h-9.5v44.6c-3.9 1.9-6.6 5.8-6.6 10.4 0 6.4 5.2 11.5 11.5 11.5 6.4 0 11.5-5.2 11.5-11.5.1-4.7-2.8-8.8-6.9-10.6z"/></g></svg>