<svg id="Layer_1" xmlns="http://www.w3.org/2000/svg" viewBox="-232 295.9 130 250"><style>.st0{fill:#519E38;} .st1{fill:#F4F4F4;} .st2{fill:#D6D6D6;} .st3{fill:#EAEAEA;} .st4{fill:#FFFFFF;} .st5{fill:#164988;} .st6{fill:#62BA47;} .st7{fill:#63B746;}</style><g id="_x33_"><g id="butylka_3_1_"><path class="st0" d="M-125.7 510.2v-98.5l-14.3-47.9c3.7-21.5-6.5-27.8-6.5-27.8v-7.8h2.1v-11.1l-3.7-2.4h-29.7s-3.7-.3-3.7 2.4v11.1h2.3v7.8h-.2s-10.3 6.5-6.5 27.8c0 0-14.3 13.2-14.3 47.9v98.5s-1.5 21.2 14.2 21.2h46c15.8-.1 14.3-21.2 14.3-21.2z"/><path class="st1" d="M-133.8 505.3v-98.5l-14.3-47.9c3.7-21.5-6.5-27.8-6.5-27.8v-8h-32.6v8h-.2s-10.3 6.5-6.5 27.8c0 0-14.3 13.2-14.3 47.9v98.5s-1.5 21.2 14.2 21.2h46.2c15.4 0 14-21.2 14-21.2z"/><path class="st2" d="M-156.3 309.8H-186s-3.7-.3-3.7 2.4v11.1H-152.6v-11.1c0-2.7-3.7-2.4-3.7-2.4z"/><path class="st3" d="M-134 505.3v-98.5l-14.3-47.9c3.7-21.5-6.5-27.8-6.5-27.8v-8h-16.4v203.3h23.1c15.6.1 14.1-21.1 14.1-21.1z"/><path class="st4" d="M-196.2 395.4h-.5c-2.3-.3-3.9-2.4-3.6-4.6 1.8-14.2 8.8-22.8 9-23.3 1.5-1.8 4.1-2.1 5.9-.7 1.8 1.5 2.1 4.1.7 5.7 0 .2-5.7 7.3-7.3 19-.4 2.5-2.2 3.9-4.2 3.9z"/><circle class="st5" cx="-170.6" cy="444.2" r="18.1"/><circle class="st6" cx="-185" cy="460.4" r="5.7"/><path class="st5" d="M-179.1 422.3c0 1.3-1 2.3-2.3 2.3s-2.3-1-2.3-2.3 1-2.3 2.3-2.3c1.2-.2 2.3 1 2.3 2.3z"/><path class="st6" d="M-179.1 429.9c0 1.6-1.3 2.9-2.9 2.9s-2.9-1.3-2.9-2.9c0-1.6 1.3-2.9 2.9-2.9s2.9 1.3 2.9 2.9zM-186.9 425.4c0 1-.8 1.8-1.8 1.8s-1.8-.8-1.8-1.8.8-1.8 1.8-1.8 1.8.8 1.8 1.8z"/><path class="st4" d="M-157.3 444.2c-1.5-.5-2.3 1.3-2.4 2.4-.3 1.1-.7 1.6-.8 1.6-.3-.2-.2-.7-.2-.8 0-.5 0-1-.2-1.5-.2-.3-.7-.5-1-.5v-.2s0-.2.2-.2c.2-.3.3-.7.7-1 .2 0 .3.3.3.3.3.3 1.6-.2 1.3-.7-.5-.5-1-.7-1.5-.5-.3 0-.7.2-1 .5l-.2.2v-2c0-.3-.8-.2-1.1.2l-.2.2c-.2.5-1 .7-1.6.2-.2-.2-.3-.2-.7-.3-1.5-.2-2.1 1.6-2.1 2.8 0 .8-.5 1.8-1 2-.2-.2-.2-.2-.2-.3-.2-.3-.2-.8-.3-1.1-.2-1.1-.2-2.3-.2-3.3 0-.2-.2-.3-.5-.2-.3.2-.7.3-.8.7-.5 1-.7 2.1-.8 3.1 0 .3 0 .7-.2.8v.3c-.2 0-.5-.3-.5-.5 0-.3-.5-.2-.8.2.2-.5.3-1.1.3-1.6 0-1-.3-2.9-1.6-2.9-1.5.2-1.8 2-1.8 3.1s-.2 2-.2 2.1c-.7.2-1-.7-1.1-1-.3-.8-.5-1.5-.5-2.3-.2-1.3-.3-2.6-.2-4.1 0-.2-.3-.2-.5-.2-.3.2-.7.5-.7.7-.5 1-.5 2.1-.7 3.1v-.3c-.2-.8-.3-1.6-.3-2.4 0-.5-.2-1.1 0-1.6.2-.7-.8 0-1 .3-1 2-.7 4.1-.7 6.2 0 .5 0 1.1-.2 1.6 0 .3-.2 1-.5 1.3-.2.2-.5 0-.7 0-.3-.2-.5-.5-.5-.7 0-.3-.3-.2-.5 0s-.5.7-.5 1c.2.7.8 1.3 1.5 1.1 1.3-.3 1.8-1.8 2-3.1.2-.7.2-1.3.2-2.1.3 1.3.5 2.4.8 3.7.2.7 1-.5 1-.8 0-.8 0-1.8.2-2.6.2 1.1.5 3.6 2 3.3.7-.2 1-.7 1.3-1.1.2.5.7.8 1.1.8.5 0 1-.5 1.3-1 0 .5.3.8.8.8.7 0 1.3-.3 1.6-.8.2-.2.3-.5.3-.7v.3c0 .3.2.8.5 1 .3.3.8.2 1.1-.2.3-.2.7-.7.8-1 .2.7.3 1.3 1.1 1.5.7.2 1.3-.5 1.6-1 .3-.5.5-1.3.7-2 0-.3.2-1.1 0-1.8.5 0 .8-.2 1.1-.3 0 1.8-.3 3.4-.7 5.2 0 .3.3.3.5.3.3 0 .7-.3.7-.7.2-.5.3-1 .5-1.6.7.8 0 1.8.5 2.4.3.3 1 .3 1.5.2.2-.2.3-.2.3-.3.2.5.3 1 .8 1.3.7.3 1.3-.2 1.6-.7.5-.5.7-1.1.8-1.8 1.2-.7 1.5-2.6.2-3zm-16.4 2.3c0 .2 0 .3-.2.3-.3 0-.5-.5-.5-.7-.2-.5-.3-1-.3-1.5s0-1 .2-1.5c0-.2 0-.3.2-.3.7.2.8 1.6.8 2-.1.8-.1 1.2-.2 1.7zm7.8.4c0 .2-.2.3-.2.3-.3-.2-.3-.5-.5-.7-.2-.5-.2-1-.2-1.5s.2-1 .3-1.5c0-.2.2-.2.2-.3.7.5.7 1.5.5 2.1.2.6 0 1.1-.1 1.6zm7.8 1.9c0 .2-.2.2-.2.3-.2-.2-.3-.7-.3-.8v-1.5c.2-.5.2-1 .5-1.5 0-.2.2-.2.2-.3.5.7.3 1.5.2 2.3-.1.5-.2 1-.4 1.5z"/><circle class="st6" cx="-155.2" cy="427.8" r="9.9"/><path class="st4" d="M-157.6 426.5c-.8.2-1 1.1-1.1 1.8v1.1s0 .3-.2.3c-.3 0-.5-.5-.7-.7-.2-.5-.3-1-.5-1.6-.2-.7-.2-1.1-.2-1.8v-.7-.5c0-.5-.5 0-.7.2-.7 1.1-.5 2.4-.5 3.7v1c0 .2 0 .7-.3.8-.2.2-.3 0-.5 0-.2-.2-.3-.3-.3-.5s-.2-.2-.3 0-.3.3-.3.7c0 .5.5.8 1 .7.8-.2 1.1-1.1 1.3-1.8.2-.3.2-.7.2-1 .2.5.3 1 .5 1.5.2.3.5.7.8.7.3 0 .5-.3.7-.8.2.3.3.5.8.5s.8-.5 1-.8c.2-.3.2-.8.2-1.3.1-.4-.1-1.7-.9-1.5zm.2 2.8c-.2.2-.3-.2-.3-.2-.2-.3-.2-.7-.2-.8v-1.2c.5.3.5.8.5 1.3.1.2.1.5 0 .9zM-147.7 427.6c-.8-.3-1.5.8-1.6 1.5s-.3 1.8.5 2.1c.3.2.8-.2 1-.3.3-.3.5-.7.5-1.1.1-.7.4-1.8-.4-2.2zm-.6 2.8s0 .2-.2.2c-.2-.2-.2-.3-.2-.5v-1s.2-.7.3-.8c0 0 0-.2.2-.2.3.3.3 1 .2 1.5 0 .3-.2.7-.3.8z"/><path class="st4" d="M-150.1 427.8c.2-.2.3-.5.5-.7.3-.5.7-1.1.7-1.6 0-.7-.8-.7-1.1-.5-.5.3-.8.8-1.1 1.5-.2.8-.3 1.5-.3 2.3-.3.3-.8 1-1.3.7-.2 0-.2-.2-.2-.3.3-.3.7-.8 1-1.3.3-.3.5-1.1 0-1.3s-1 0-1.3.3c-.3.3-.5.8-.5 1.3v1c-.3.2-.7.3-.8.2-.3 0-.5-.5-.5-.7-.2-.5 0-.8 0-1.3 0-.2 0-.3.2-.3v-.2c.2.2.3.5.3.5.2.3.8-.2.8-.5-.2-.3-.2-.7-.5-.8-.3-.2-.8.2-1 .3-.5.5-.7 1.3-.5 2.1 0 .5.2 1 .5 1.3.5.3 1.3 0 1.8-.3.2.3.3.7.8.5.5 0 1-.3 1.5-.8 0 .3.2.8.3 1 .5.3 1 0 1.3-.5.3-.5.7-1.3.3-1.8-.4-.1-.8-.1-.9-.1zm-3.1-.3c0-.2 0-.2.2-.3.2 0 .3.3.2.5 0 .3-.3.7-.5 1v-.2c-.1-.4.1-.9.1-1zm2.9-1.6c0-.2.2-.2.2-.3.3.3 0 1-.2 1.3s-.3.7-.7 1c0-.3.2-.7.2-1 .2-.6.4-.9.5-1zm-.1 4s-.2 0 0 0l-.2.2c-.2-.2-.2-.7-.3-.8v-.5l.3-.3c.2-.2.3.2.3.3.2.3 0 .8-.1 1.1z"/><g><path class="st4" d="M-188.9 459.4c.2-.3.5-.3.7-.2.3.2-.2.7-.3.7-.2.2-.5.3-.3.7 0 .2.5.2.7.2.3 0 .3.2.3.5-.2.5-.8.2-1 0s-.7.3-.5.5c.7.7 1.5.2 1.8-.5.2-.2.2-.7 0-.8-.2-.2-.7-.2-.8-.2h-.2l.3-.3s.3-.3.3-.5c.2-.3.2-.7-.2-.8-.7-.5-1.3.3-1.5.8.1.4.6.1.7-.1zM-185.9 461.5c.5 1.3 2.6.5 2.3-.8-.2-.7-.8-.5-1.3-.7-.3 0-.3-.3-.3-.5.2-.3 0-.3-.2-.2h.2c.5 0 .8 0 1.3.2.2.2.7-.3.3-.5-.5-.3-1.1-.2-1.6 0s-.7.7-.7 1.1c0 .7.5.7 1 .8.3 0 .7.2.7.5 0 .7-.7.5-1 .3-.2-.2-.2-.3-.3-.5.1-.3-.4.1-.4.3zM-181.1 458.9c-.7 1-1.3 2-2 2.8-.3.3.2.3.3.2.7-1 1.5-2 2.1-2.9.3-.4-.2-.3-.4-.1zM-182.2 458.7c-.3 0-.7.3-.7.7 0 .3.2.7.5.7.7-.1 1-1.4.2-1.4-.2 0-.5.3-.2.3.2 0 .3.2.3.3v.2h-.2c-.2 0-.3-.2-.3-.3v-.2c.4.1.6-.3.4-.3zM-181.2 460.7c-.3 0-.7.3-.7.7s.2.7.5.7c.7-.1 1-1.2.2-1.4-.2 0-.5.3-.2.3.2 0 .3.2.3.3v.2h-.2s-.3-.2-.3-.3v-.2c.4.2.7-.3.4-.3zM-186.9 462.6c.3-.2.5-.7.5-1v-.3c-.2-.2-.3 0-.5 0s-.3.2-.3.3.2.2.3.2v.4l-.2.3c-.1.5 0 .3.2.1z"/></g><g><path class="st7" d="M-192.4 436.8c-.2 0-.2-.2-.3-.2-.3-.2-.7.2-1 .2-.8 0-1.1 0-2.1-.3 0-1 .5-1.5.8-2.1.2-.7 0-1.3-.2-2.1V431c-.3.3-.2 1.1-.2 1.5-.2-.5-.2-1.3-.3-1.6-.2.5 0 1.1 0 1.6-.2-.5-.2-1-.3-1.5-.2.5.2 1.1.2 1.6-.2-.5-.3-1-.5-1.3 0 .7.2 1 .2 1.5-.2-.3-.3-.8-.5-1 0 .3.2.8.3 1.1-.3-.2-.3-.5-.7-.5 0 .3.2.5.3.7-.2-.2-.3-.3-.5-.3 0 .3.2.3.3.5-.2-.2-.2-.2-.3-.2 0 .2.3.3.3.5 0 0-.2-.2-.2 0l.2.2h-.2c0 .2.2.2.2.2h-.2c0 .2.2 0 0 .2-.8.8-.3 1.6-.5 2.4 0-.2-.7-.3-1.1-.5-.3-.2-.3-.5-.5-.5h.2c-.2 0-.2 0-.2-.2h.3c-.2 0-.5-.2-.5-.3.2 0 .3.2.5 0-.2-.2-.7-.3-.7-.5.2 0 .5.3.7.2-.3-.2-.8-.3-.8-.7.2.2.5.3.8.3-.3-.2-.7-.5-1-.5.2.3.7.5.8.8-.3-.2-.7-.3-.8-.5.2.3.5.5.8.7-.3 0-.5-.2-.7-.2 0 .3.5.2.7.5h-.5c0 .2.3.2.5.2h-.3c.2.2.3 0 .3.2h-.2.3s-.2 0 0 .2h0c.3.2.7.8 1.1 1-.3.2.3.3-3.3 1.6.2 0 1.5-.3 2-.5s.8-.3 1.3-.3c.2 0 .2 0 .3-.2.7 0 1.3 0 2.1-.3-.5.2-1.5.2-1.8-.2.5-.8.2-2.6.5-2.9.3-.3 1-1.6 1.6-.5.2.2.2.3-.2.8-.3.5-.5.8-.5 2 0 .2 0 .5-.3.5 1.5.3 2 .2 2.8 0 .3 0 .7-.3.8 0 0 .2-.3.2-.5.2-.2-.2.5-.1.7-.2.2.2.8 0 1.3 0h-1.3z"/><path class="st7" d="M-197 428.9c-3.4 0-6.2 2.8-6.2 6.2s2.8 6.2 6.2 6.2c3.4 0 6.2-2.8 6.2-6.2.1-3.4-2.6-6.2-6.2-6.2m0 .4c3.3 0 6 2.8 6 6s-2.8 6-6 6-6-2.8-6-6c.1-3.4 2.7-6 6-6"/></g></g></g></svg>