<svg id="Layer_1" xmlns="http://www.w3.org/2000/svg" viewBox="0 0 272.5 194.6"><style>.st0{fill:#62BA47;} .st1{fill:#FFFFFF;} .st2{fill:#D3D3D3;} .st3{fill:#4C6887;} .st4{fill:#04BCE6;} .st5{fill:#FC315B;} .st6{fill:#D6D6D6;}</style><path class="st0" d="M99.5 93.5s-3.9 9.5.7 22.1"/><path class="st1" d="M100.8 118.6c-1.5.3-3-.5-3.6-2-5-13.5-.8-23.9-.7-24.3.7-1.6 2.5-2.3 4.1-1.7 1.6.7 2.3 2.5 1.7 4-.1.2-3.4 8.7.7 19.8.6 1.6-.2 3.4-1.8 4-.1.2-.2.2-.4.2z"/><g id="XMLID_137_"><circle id="XMLID_165_" class="st2" cx="80.2" cy="51.4" r="2.6"/><path id="XMLID_141_" class="st2" d="M246.2 89.5h-51.3-.1c-.1 0-.1 0-.2-.1-.1 0-.1 0-.2-.1h-1c-.1 0-.1 0-.2.1h-.1s-.1 0-.1.1h-11.4c.3-.4.7-.7 1.3-.7-.1-1.5-.4-3-.8-4.5-.8.3-1.7-.1-2.1-.9-.3-.8.1-1.7.8-2.1-.6-1.3-1.4-2.5-2.3-3.5-.6.6-1.6.5-2.3-.1-.6-.6-.6-1.6 0-2.3-1.2-1-2.4-1.9-3.8-2.6-.4.8-1.3 1.1-2.1.8-.8-.3-1.2-1.3-.9-2.1-1.3-.4-2.7-.7-4.1-.9 0 .9-.8 1.5-1.7 1.5-.9 0-1.6-.7-1.6-1.6-1.5.1-3 .4-4.5.8.3.8-.1 1.7-.9 2.1-.8.3-1.7 0-2.1-.8-1.3.6-2.5 1.4-3.5 2.3.6.7.5 1.7-.1 2.3-.6.6-1.6.6-2.2 0-1 1.2-1.9 2.4-2.6 3.8.8.4 1.1 1.3.8 2.1-.3.8-1.3 1.2-2.1.9 0 .1-.1.2-.1.4l-4.3-3.3c.4-.4.7-.8 1-1.3l-1.6-1.5c.3-.4.6-.8.8-1.2l2 .8c.6-1.1 1.1-2.3 1.4-3.6l-2-.8c.1-.6.2-1.1.3-1.7l2.2-.1c.1-1.3.1-2.6-.1-3.8l-2.2.1c-.1-.5-.2-1-.3-1.4l2-.9c-.4-1.2-.9-2.4-1.5-3.5l-2 .9c-.3-.5-.6-1-1-1.4l1.5-1.6c-.4-.5-.8-1-1.3-1.4-.5-.4-1-.9-1.5-1.2l-1.5 1.6c-.4-.3-.8-.6-1.2-.8l.8-2c-1.1-.6-2.3-1.1-3.6-1.4l-.8 2c-.6-.1-1.1-.2-1.7-.3l-.1-2.2c-1.3-.1-2.6-.1-3.8.1l.1 2.2c-.5.1-1 .2-1.4.3l-.9-2c-1.2.4-2.4.9-3.5 1.5l.9 2c-.5.3-1 .6-1.4 1l-1.6-1.5c-.5.4-1 .8-1.4 1.3-.4.5-.9 1-1.2 1.5l1.6 1.5c-.1.2-.3.4-.4.6l-6.1-4.7c.5-.3.7-.9.6-1.5 0-.2-.1-.5-.2-.8.5-.2 1.1-.4 1.6-.7.2.3.4.5.5.7.4.6 1.3.8 1.9.4.6-.4.8-1.3.4-1.9-.1-.1-.3-.4-.5-.7l1.2-1.2.7.4c.6.4 1.5.2 1.9-.4.4-.6.2-1.5-.4-1.9l-.7-.4c.3-.5.5-1.1.6-1.6.3.1.6.1.8.2.8.1 1.5-.4 1.6-1.1.1-.8-.4-1.5-1.1-1.6-.2 0-.5-.1-.8-.2v-1.7c.3-.1.6-.1.8-.2.8-.2 1.2-.9 1.1-1.7-.2-.8-.9-1.2-1.7-1.1-.2 0-.5.1-.8.2-.2-.5-.4-1.1-.7-1.6.3-.2.5-.4.7-.5.6-.4.8-1.3.4-1.9-.4-.6-1.3-.8-2-.4-.1.1-.4.3-.7.5l-1.2-1.2.4-.7c.4-.6.2-1.5-.4-1.9-.6-.4-1.5-.2-1.9.4l-.4.7c-.5-.3-1.1-.5-1.6-.7.1-.3.1-.6.1-.8.1-.8-.4-1.5-1.1-1.6-.8-.1-1.5.4-1.6 1.1 0 .2-.1.5-.2.8h-1.7c-.1-.3-.1-.6-.2-.8-.2-.8-.9-1.2-1.7-1.1-.8.2-1.2.9-1.1 1.7 0 .2.1.5.2.8-.5.2-1.1.4-1.6.7-.2-.3-.4-.5-.4-.7-.4-.6-1.3-.8-2-.4-.6.4-.8 1.3-.4 2 .1.1.3.4.4.7l-1.2 1.2-.7-.4c-.6-.4-1.5-.2-1.9.4-.4.6-.2 1.5.4 1.9l.7.4c-.3.5-.5 1.1-.6 1.6-.3-.1-.6-.1-.8-.2-.8-.1-1.5.4-1.6 1.1-.1.8.4 1.5 1.1 1.6.2 0 .5.1.8.2V46c-.3.1-.6.1-.8.2-.8.2-1.3.9-1.1 1.7.2.8.9 1.2 1.7 1.1.2 0 .5-.1.8-.2.2.5.4 1.1.7 1.6-.3.2-.5.4-.7.5-.6.4-.8 1.3-.4 1.9.4.6 1.3.8 1.9.4.1-.1.4-.3.7-.5l1.2 1.2-.4.7c-.3.4-.3 1-.1 1.4h-7.5c.3-.3.8-.4 1.2-.3.3-1 .5-2.1.5-3.2-.6 0-1.1-.5-1.1-1.1 0-.6.5-1.1 1.1-1.2-.1-1-.3-2-.6-2.9-.6.2-1.2 0-1.5-.6-.2-.6 0-1.2.5-1.5-.5-.9-1.1-1.8-1.9-2.6-.4.4-1.1.4-1.6 0-.4-.4-.5-1.1-.1-1.6-.8-.6-1.6-1.2-2.5-1.6-.2.6-.9.8-1.5.6-.6-.2-.9-.9-.7-1.4-1-.3-2.1-.5-3.2-.6 0 .6-.5 1.1-1.1 1.1-.6 0-1.1-.5-1.2-1.1-1 .1-1.9.3-2.9.6.2.6 0 1.2-.6 1.5-.6.2-1.2 0-1.5-.6-.9.5-1.8 1.1-2.6 1.9.4.4.4 1.1 0 1.6-.4.4-1.1.5-1.6.1-.6.8-1.2 1.6-1.6 2.5.6.2.8.9.6 1.5-.2.6-.9.9-1.4.7-.3 1-.5 2.1-.6 3.2.6 0 1.1.5 1.1 1.1 0 .6-.5 1.1-1.1 1.2.1.9.3 1.8.6 2.7h-5.5l-3.7 3.7v26.2l3.7 3.7h13.7v6.1h3.7v32.4h-6.2v7.9h7.6c3.6 0 6.5-2.9 6.5-6.5V95.3h3.7v-6.1h4.2l6.5 4.9v3.3l7.8 5.9v46.5c0 12 9.5 21.7 21.2 21.7 7.2 0 13.5-3.9 17-9.8 7.3-2.1 12.7-8.6 12.7-16.2V123h19.8l.3.2c-.3.5-.5 1.1-.6 1.6-.3-.1-.6-.1-.8-.2-.8-.1-1.5.4-1.6 1.1-.1.8.4 1.5 1.1 1.6.2 0 .5.1.8.2v1.7c-.3.1-.6.1-.8.2-.8.2-1.3.9-1.1 1.7.2.8.9 1.2 1.7 1.1.2 0 .5-.1.8-.2.2.5.4 1.1.7 1.6-.3.2-.5.4-.7.5-.6.4-.8 1.3-.4 1.9.4.6 1.3.8 1.9.4.1-.1.4-.3.7-.5l1.2 1.2-.4.7c-.4.6-.2 1.5.4 1.9.6.4 1.5.2 1.9-.4l.4-.7c.5.3 1.1.5 1.6.6-.1.3-.1.6-.2.8-.1.8.4 1.5 1.1 1.6.8.1 1.5-.4 1.6-1.1 0-.2.1-.5.1-.8h1.7c.1.3.1.6.2.8.2.8.9 1.2 1.7 1.1.8-.2 1.3-.9 1.1-1.7 0-.2-.1-.5-.2-.8.5-.2 1.1-.4 1.6-.7.2.3.4.5.5.7.4.6 1.3.8 1.9.4.6-.4.8-1.3.4-1.9-.1-.1-.3-.4-.5-.7l1.2-1.2.7.4c.6.4 1.5.2 1.9-.4.4-.6.2-1.5-.4-1.9l-.7-.4c.3-.5.5-1.1.6-1.6.3.1.6.1.8.2.8.1 1.5-.4 1.6-1.1.1-.8-.4-1.5-1.1-1.6-.2 0-.5-.1-.8-.2v-1.7c.3-.1.6-.1.8-.2.8-.2 1.2-.9 1.1-1.7-.2-.8-.9-1.2-1.7-1.1-.2 0-.5.1-.8.2-.2-.5-.4-1.1-.7-1.6 0 0 .1 0 .1-.1h4l.3 1.2c.8-.3 1.7.1 2.1.9.3.8-.1 1.7-.8 2.1.6 1.3 1.4 2.5 2.3 3.5.6-.6 1.6-.5 2.3.1.6.6.6 1.6 0 2.3 1.2 1 2.4 1.9 3.8 2.6.4-.8 1.3-1.1 2.1-.8.8.3 1.2 1.3.9 2.1 1.3.4 2.7.7 4.1.9 0-.9.8-1.5 1.7-1.5.9 0 1.6.7 1.6 1.6 1.5-.1 3-.4 4.5-.8-.3-.8.1-1.7.9-2.1.8-.3 1.7 0 2.1.8 1.3-.6 2.5-1.4 3.5-2.3-.6-.7-.5-1.7.1-2.3.6-.6 1.6-.6 2.2 0 1-1.2 1.9-2.4 2.6-3.8-.8-.4-1.1-1.3-.8-2.1.3-.8 1.3-1.2 2.1-.9.2-.5.3-1.1.5-1.7h3.3l3.7-3.7V93.2l-2.9-3.7zm-169-34.9c-1.8-1.7-1.8-4.4-.2-6.2 1.7-1.8 4.4-1.8 6.2-.2 1.8 1.7 1.8 4.4.2 6.2-.6.6-1.3 1-2.1 1.2h-2.1c-.8-.1-1.5-.5-2-1zM73 44.7c3.7-4 10-4.1 13.9-.4 3.2 3 3.9 7.6 2.1 11.4h-4.5c2.3-2.4 2.2-6.3-.3-8.6-2.4-2.3-6.3-2.2-8.6.3-2.2 2.4-2.2 6.1.1 8.4h-4.5c-1.6-3.7-1.1-8.1 1.8-11.1zm112.4 79.7l-2-1.3h3.4c-.6.3-1 .8-1.4 1.3zm-60.8-9.5l4 3 2.7-1.3 8.7 6.5h9v28.1c0 3.4-.9 6.6-2.4 9.4-1.4.3-2.8.5-4.3.5-9.7 0-17.6-7.5-17.6-16.7v-29.5zm51.8-27.7c.1.3.1.6.2.9v.4c0 .3.1.6.1.9v.1h-7.8v-.3c0-.2-.1-.4-.1-.5 0-.2-.1-.3-.1-.5V88c0-.1-.1-.2-.2-.3-.1-.2-.2-.3-.3-.5-.1-.2-.2-.3-.3-.4-.1-.1-.2-.3-.3-.4v-.1l4.9-6.2.5.5.4.4.5.5c.1.2.2.3.4.5.1.2.3.4.4.6.1.2.2.3.3.5.1.2.2.4.4.6l.3.6.3.6c.1.2.2.4.3.7.1.2.1.4.2.5.1.3.2.5.2.8-.3 0-.3.2-.3.3zm-26 .3c0-.2.1-.3.1-.5.1-.3.1-.5.2-.8 0-.1.1-.3.1-.4l.3-.9c0-.1.1-.2.1-.3.1-.3.3-.6.4-.8.1-.1.1-.2.2-.4s.3-.5.4-.7c.1-.1.2-.3.3-.4.1-.2.3-.4.4-.6.1-.2.3-.3.4-.5.1-.2.3-.3.5-.5s.3-.3.5-.4c.2-.2.3-.3.5-.4.2-.1.3-.3.5-.4.2-.1.4-.3.5-.4l.6-.3.6-.3.6-.3 3 7.3h-.1c-.2.1-.3.2-.4.3-.1.1-.3.2-.4.3l-.4.4c-.1.1-.2.2-.2.3l-.1.1c-.1.1-.2.3-.3.5-.1.2-.2.3-.3.5-.1.1-.1.3-.2.5s-.1.4-.2.5c0 .2-.1.4-.1.5v.2h-6.3l-1.5-1.1v-.2c.2-.4.2-.6.3-.8zm9.8-10.4c.1 0 .3-.1.4-.1.3-.1.6-.1.9-.2.1 0 .3 0 .4-.1.3 0 .6-.1.9-.1H164.6c.2 0 .4 0 .6.1.2 0 .5.1.7.1.2 0 .3.1.5.1.3.1.6.1.8.2.1 0 .2.1.3.1l.9.3c.1 0 .2.1.3.1.3.1.6.3.9.4.1.1.2.1.3.2.3.1.5.3.8.5l-4.9 6.2c-.1 0-.1-.1-.2-.1-.1-.1-.3-.1-.4-.2-.2-.1-.4-.1-.6-.2-.2 0-.3-.1-.5-.1s-.4-.1-.5-.1h-1.3l-3-7.3h.1c.3.3.6.2.8.2zm6.7 12c0 .1.1.2.1.3h-7.1c0-.1 0-.2.1-.3 0-.1.1-.2.1-.3 0-.1.1-.2.1-.3 0-.1.1-.2.2-.3.1-.1.1-.2.2-.3.1-.1.1-.2.2-.3l.3-.3c.1-.1.2-.1.3-.2.1-.1.2-.1.3-.2.1-.1.2-.1.3-.2.1 0 .2-.1.3-.1.1 0 .2-.1.3-.1.1 0 .2-.1.4-.1h1c.1 0 .2 0 .3.1.1 0 .2.1.4.1.1 0 .2.1.3.1.1.1.2.1.3.2.1.1.2.1.3.2.1.1.2.1.3.2l.3.3c.1.1.2.2.2.3.1.1.1.2.2.3.1.1.1.2.2.4 0 .1.1.2.1.3v.2zM236 124c-.1.3-.3.6-.4.8-.1.1-.1.2-.2.4s-.3.5-.4.7c-.1.1-.2.3-.3.4-.1.2-.3.4-.4.6-.1.2-.3.3-.4.5-.1.2-.3.3-.5.5s-.3.3-.5.4c-.2.2-.3.3-.5.4-.2.1-.3.3-.5.4-.2.1-.3.3-.5.4l-.6.3-.6.3-.6.3-3.1-7.5h9.8c-.1.2-.1.4-.2.6 0 .2 0 .4-.1.5zm-8.9 7.5c-.1 0-.3.1-.4.1-.3.1-.6.1-.9.2-.1 0-.3 0-.4.1-.3 0-.6.1-.9.1H222.7c-.2 0-.4 0-.6-.1-.2 0-.5-.1-.7-.1-.2 0-.3-.1-.5-.1-.3-.1-.6-.1-.8-.2-.1 0-.2-.1-.3-.1l-.9-.3c-.1 0-.2-.1-.3-.1-.3-.1-.6-.3-.9-.4-.1-.1-.2-.1-.3-.2-.3-.1-.5-.3-.8-.5l5.2-6.6h2.8v.1l3.3 8h-.1c-.2-.1-.4 0-.7.1zm-12.9-3.9l-.5-.5c-.1-.2-.2-.3-.4-.5-.1-.2-.3-.4-.4-.6-.1-.2-.2-.3-.3-.5-.1-.2-.2-.4-.4-.6l-.3-.6-.3-.6c-.1-.2-.2-.4-.3-.7h8l-4.3 5.5-.5-.5c-.1-.1-.2-.2-.3-.4zm-92.7-64.3c3.7-4 9.9-4.1 13.9-.4 4 3.7 4.1 9.9.4 13.9l-.2.2-2-1.5.4-.4c2.8-3 2.6-7.6-.3-10.4-2.9-2.8-7.6-2.6-10.4.3-.5.5-.9 1.1-1.2 1.7l-2-1.5c.4-.7.9-1.3 1.4-1.9zm-18.6-10.5l1.5-2.3c2.8 1.5 6.3.8 8.3-1.7l2.3 1.5c-2.8 3.8-8 4.8-12.1 2.5zm12.6-3.4l-2.3-1.5c1.5-2.8.8-6.3-1.7-8.3l1.5-2.3c3.8 2.9 4.9 8.1 2.5 12.1zm-3.3-12.6l-1.5 2.3c-2.8-1.5-6.3-.8-8.3 1.7l-2.3-1.5c2.8-3.8 8-4.9 12.1-2.5zm-12.6 3.3l2.3 1.5c-1.5 2.8-.8 6.3 1.7 8.3l-1.5 2.3c-3.8-2.8-4.9-8-2.5-12.1zm2.8 15c.4.2.9.4 1.3.5H102l.4-.5zm28 115c-10.9 0-19.8-9.1-19.8-20.3v-45.5l12.6 9.5v30.6c0 10 8.5 18.1 19 18.1 1.1 0 2.2-.1 3.2-.3-3.3 4.8-8.8 7.9-15 7.9zm28.3-24.6c0 6.5-4.3 12.1-10.3 14.4 1.3-2.7 2-5.6 2-8.8V123h8.4v22.5zm23.8-21.8l2.3 1.5c-1.5 2.8-.8 6.3 1.7 8.3l-1.5 2.3c-3.8-2.8-4.8-8-2.5-12.1zm3.4 12.7l1.5-2.3c2.8 1.5 6.3.8 8.3-1.7l2.3 1.5c-2.9 3.8-8.1 4.8-12.1 2.5zm12.6-3.4l-2.3-1.5c1.5-2.8.8-6.3-1.7-8.3l.1-.2h3.4c2.1 2.9 2.4 6.8.5 10z"/><path id="XMLID_140_" class="st2" d="M66.4 110.2l-4.5-4.5H39.3l-4.8 4.8v36.2l4.8 4.8h22.3l4.8-4.8v-7.4h6.5v-15.4h-6.5z"/><path id="XMLID_139_" class="st2" d="M208.4 89.3h17.8c15.3-19.5 7.6-35.3 2.7-42.1h.4c1.1 0 2.1-.9 2.1-2.1 0-1.1-.9-2.1-2.1-2.1h-24.8c-1.1 0-2.1.9-2.1 2.1 0 1.1.9 2.1 2.1 2.1h1c-4.7 6.8-12.3 22.6 2.9 42.1z"/><path id="XMLID_138_" class="st2" d="M204.7 42.9h24.8c1.1 0 2.1-.9 2.1-2.1 0-1.1-.9-2.1-2.1-2.1h-24.8c-1.1 0-2.1.9-2.1 2.1 0 1.2 1 2.1 2.1 2.1z"/></g><path id="XMLID_136_" class="st3" d="M133.5 155.8c-10.5 0-19-8.1-19-18.1V71.2c0-.4.3-.7.7-.7.4 0 .7.3.7.7v66.5c0 9.2 7.9 16.7 17.6 16.7 9.1 0 16.5-7 16.5-15.6v-30.6c0-.4.3-.7.7-.7.4 0 .7.3.7.7v30.6c0 9.4-8 17-17.9 17z"/><path id="XMLID_135_" class="st3" d="M121.7 164.8c-11.7 0-21.2-9.7-21.2-21.7V71.8c0-.4.3-.7.7-.7s.7.3.7.7v71.3c0 11.2 8.9 20.3 19.8 20.3 10.2 0 18.5-8.5 18.5-19v-39.8c0-.4.3-.7.7-.7s.7.3.7.7v39.8c0 11.3-8.9 20.4-19.9 20.4z"/><path id="XMLID_132_" class="st3" d="M113.8 90.7c.8.7.8 1.9.2 2.7.8.5 1.6.8 2.5.9.1-1 .9-1.8 2-1.8 1 0 1.9.7 2.1 1.7.9-.2 1.7-.6 2.4-1.1-.7-.8-.6-1.9.1-2.7.7-.8 1.9-.8 2.7-.2.5-.8.8-1.6 1-2.5-1-.1-1.8-.9-1.8-2 0-1 .7-1.9 1.7-2.1-.2-.9-.6-1.7-1.1-2.4-.8.7-1.9.6-2.7-.1-.8-.7-.8-1.9-.2-2.7-.8-.5-1.6-.8-2.5-.9-.1 1-.9 1.8-2 1.8-1 0-1.9-.7-2.1-1.7-.9.2-1.7.6-2.4 1.1.7.8.6 1.9-.1 2.7-.7.8-1.9.8-2.7.2-.5.8-.8 1.6-.9 2.5 1 .1 1.8.9 1.8 2 0 1-.7 1.9-1.7 2.1.2.9.6 1.7 1.1 2.4.6-.7 1.8-.7 2.6.1zm3-6.2c.7-.8 2-.8 2.8-.1.8.8.8 2 .1 2.8-.8.8-2 .8-2.8.1-.8-.7-.8-2-.1-2.8z"/><path id="XMLID_129_" class="st3" d="M89.4 30.2c-.6-.4-1.5-.2-1.9.4-.4.6-.2 1.5.4 1.9l.7.4c-.3.5-.5 1.1-.6 1.6-.3-.1-.6-.1-.8-.2-.8-.1-1.5.4-1.6 1.1-.1.8.4 1.5 1.1 1.6.2 0 .5.1.8.2v1.7c-.3.1-.6.1-.8.2-.8.2-1.3.9-1.1 1.7.2.8.9 1.2 1.7 1.1.2 0 .5-.1.8-.2.2.5.4 1.1.7 1.6-.3.2-.5.4-.7.5-.6.4-.8 1.3-.4 1.9.4.6 1.3.8 1.9.4.1-.1.4-.3.7-.5l1.2 1.2-.5.7c-.4.6-.2 1.5.4 1.9.6.4 1.5.2 1.9-.4l.4-.7c.5.3 1.1.5 1.6.6-.1.3-.1.6-.2.8-.1.8.4 1.5 1.1 1.6.8.1 1.5-.4 1.6-1.1 0-.2.1-.5.1-.8h1.7c.1.3.1.6.2.8.2.8.9 1.2 1.7 1.1.8-.2 1.3-.9 1.1-1.7 0-.2-.1-.5-.2-.8.5-.2 1.1-.4 1.6-.7.2.3.4.5.5.7.4.6 1.3.8 1.9.4.6-.4.8-1.3.4-1.9-.1-.1-.3-.4-.5-.7l1.2-1.2.7.4c.6.4 1.5.2 1.9-.4.4-.6.2-1.5-.4-1.9l-.7-.4c.3-.5.5-1.1.6-1.6.3.1.6.1.8.2.8.1 1.5-.4 1.6-1.1.1-.8-.4-1.5-1.1-1.6-.2 0-.5-.1-.8-.2v-1.7c.3-.1.6-.1.8-.2.8-.2 1.2-.9 1.1-1.7-.2-.8-.9-1.2-1.7-1.1-.2 0-.5.1-.8.2-.2-.5-.4-1.1-.7-1.6.3-.2.5-.4.7-.5.6-.4.8-1.3.4-1.9-.4-.6-1.3-.8-2-.4-.1.1-.4.3-.7.5l-1.2-1.2.4-.7c.4-.6.2-1.5-.4-1.9-.6-.4-1.5-.2-1.9.4l-.4.7c-.5-.3-1.1-.5-1.6-.7.1-.3.1-.6.1-.8.1-.8-.4-1.5-1.1-1.6-.8-.1-1.5.4-1.6 1.1 0 .2-.1.5-.2.8h-1.7c-.1-.3-.1-.6-.2-.8-.2-.8-.9-1.2-1.7-1.1-.8.2-1.2.9-1.1 1.7 0 .2.1.5.2.8-.5.2-1.1.4-1.6.7-.2-.3-.4-.5-.4-.7-.4-.6-1.3-.8-2-.4-.6.4-.8 1.3-.4 2 .1.1.3.4.4.7l-1.2 1.2-.2-.4zm14.6.1c4.3 2.8 5.4 8.6 2.6 12.8-2.8 4.3-8.6 5.5-12.8 2.6-4.3-2.8-5.5-8.6-2.6-12.8 2.7-4.2 8.5-5.4 12.8-2.6z"/><circle id="XMLID_128_" class="st3" cx="98.9" cy="38.1" r="6.5"/><path id="XMLID_127_" class="st3" d="M93.807 46.632l-.834-.55 2.313-3.506.834.55z"/><path id="XMLID_126_" class="st3" d="M102.426 33.632l-.835-.55 2.313-3.507.835.55z"/><path id="XMLID_125_" class="st3" d="M90.362 33.042l.55-.835 3.506 2.313-.55.835z"/><path id="XMLID_124_" class="st3" d="M103.254 41.62l.55-.834 3.507 2.31-.55.836z"/><path id="XMLID_121_" class="st3" d="M172.4 113.8c-.6-.4-1.5-.2-1.9.4-.4.6-.2 1.5.4 1.9l.7.4c-.3.5-.5 1.1-.6 1.6-.3-.1-.6-.1-.8-.2-.8-.1-1.5.4-1.6 1.1-.1.8.4 1.5 1.1 1.6.2 0 .5.1.8.2v1.7c-.3.1-.6.1-.8.2-.8.2-1.3.9-1.1 1.7.2.8.9 1.2 1.7 1.1.2 0 .5-.1.8-.2.2.5.4 1.1.7 1.6-.3.2-.5.4-.7.5-.6.4-.8 1.3-.4 1.9.4.6 1.3.8 1.9.4.1-.1.4-.3.7-.5l1.2 1.2-.4.7c-.4.6-.2 1.5.4 1.9.6.4 1.5.2 1.9-.4l.4-.7c.5.3 1.1.5 1.6.6-.1.3-.1.6-.2.8-.1.8.4 1.5 1.1 1.6.8.1 1.5-.4 1.6-1.1 0-.2.1-.5.1-.8h1.7c.1.3.1.6.2.8.2.8.9 1.2 1.7 1.1.8-.2 1.3-.9 1.1-1.7 0-.2-.1-.5-.2-.8.5-.2 1.1-.4 1.6-.7.2.3.4.5.5.7.4.6 1.3.8 1.9.4.6-.4.8-1.3.4-1.9-.1-.1-.3-.4-.5-.7l1.2-1.2.7.4c.6.4 1.5.2 1.9-.4.4-.6.2-1.5-.4-1.9l-.7-.4c.3-.5.5-1.1.6-1.6.3.1.6.1.8.2.8.1 1.5-.4 1.6-1.1.1-.8-.4-1.5-1.1-1.6-.2 0-.5-.1-.8-.2v-1.7c.3-.1.6-.1.8-.2.8-.2 1.2-.9 1.1-1.7-.2-.8-.9-1.2-1.7-1.1-.2 0-.5.1-.8.2-.2-.5-.4-1.1-.7-1.6.3-.2.5-.4.7-.5.6-.4.8-1.3.4-1.9-.4-.6-1.3-.8-2-.4-.1.1-.4.3-.7.5l-1.2-1.2.4-.7c.4-.6.2-1.5-.4-1.9-.6-.4-1.5-.2-1.9.4l-.4.7c-.5-.3-1.1-.5-1.6-.7.1-.3.1-.6.1-.8.1-.8-.4-1.5-1.1-1.6-.8-.1-1.5.4-1.6 1.1 0 .2-.1.5-.2.8h-1.7c-.1-.3-.1-.6-.2-.8-.2-.8-.9-1.2-1.7-1.1-.8.2-1.2.9-1.1 1.7 0 .2.1.5.2.8-.5.2-1.1.4-1.6.7-.2-.3-.4-.5-.4-.7-.4-.6-1.3-.8-2-.4-.6.4-.8 1.3-.4 2 .1.1.3.4.4.7l-1.2 1.2-.3-.4zm14.5.1c4.3 2.8 5.4 8.6 2.6 12.8-2.8 4.3-8.6 5.5-12.8 2.6-4.3-2.8-5.5-8.6-2.6-12.8 2.8-4.2 8.6-5.4 12.8-2.6z"/><circle id="XMLID_120_" class="st3" cx="181.8" cy="121.7" r="6.5"/><path id="XMLID_119_" class="st3" d="M176.85 130.265l-.835-.55 2.313-3.507.835.55z"/><path id="XMLID_118_" class="st3" d="M185.386 117.208l-.835-.55 2.313-3.507.835.552z"/><path id="XMLID_117_" class="st3" d="M173.306 116.703l.55-.834 3.506 2.312-.55.835z"/><path id="XMLID_116_" class="st3" d="M186.25 125.2l.55-.835 3.508 2.31-.55.836z"/><path id="XMLID_113_" class="st3" d="M75.9 48.9c2.3-2.4 2.2-6.3-.3-8.6-2.4-2.3-6.3-2.2-8.6.3-2.3 2.4-2.2 6.3.3 8.6 2.4 2.2 6.3 2.1 8.6-.3zm-7.6-7.2c1.7-1.8 4.4-1.8 6.2-.2 1.8 1.7 1.8 4.4.2 6.2-1.7 1.8-4.4 1.8-6.2.2-1.8-1.7-1.9-4.4-.2-6.2z"/><circle id="XMLID_112_" class="st3" cx="71.5" cy="44.7" r="2.6"/><path id="XMLID_109_" class="st3" d="M62.8 53.9c.5.4.5 1.1.1 1.6.8.6 1.6 1.2 2.5 1.6.2-.6.9-.8 1.5-.6.6.2.9.9.7 1.4 1 .3 2.1.5 3.2.6 0-.6.5-1.1 1.1-1.1.6 0 1.1.5 1.2 1.1 1-.1 1.9-.3 2.9-.6-.2-.6 0-1.2.6-1.5.6-.2 1.2 0 1.5.5.9-.5 1.8-1.1 2.6-1.9-.4-.4-.4-1.1 0-1.6.4-.4 1.1-.5 1.6-.1.6-.8 1.2-1.6 1.6-2.5-.6-.2-.8-.9-.6-1.5.2-.6.9-.9 1.4-.7.3-1 .5-2.1.5-3.2-.6 0-1.1-.5-1.1-1.1 0-.6.5-1.1 1.1-1.2-.1-1-.3-2-.6-2.9-.6.2-1.2 0-1.5-.6-.2-.6 0-1.2.5-1.5-.5-.9-1.1-1.8-1.9-2.6-.4.4-1.1.4-1.6 0-.4-.4-.5-1.1-.1-1.6-.8-.6-1.6-1.2-2.5-1.6-.2.6-.9.8-1.5.6-.6-.2-.9-.9-.7-1.4-1-.3-2.1-.5-3.2-.6 0 .6-.5 1.1-1.1 1.1-.6 0-1.1-.5-1.2-1.1-1 .1-1.9.3-2.9.6.2.6 0 1.2-.6 1.5-.6.2-1.2 0-1.5-.6-.9.5-1.8 1.1-2.6 1.9.4.4.4 1.1 0 1.6-.4.4-1.1.5-1.6.1-.6.8-1.2 1.6-1.6 2.5.6.2.8.9.6 1.5-.2.6-.9.9-1.4.7-.3 1-.5 2.1-.6 3.2.6 0 1.1.5 1.1 1.1 0 .6-.5 1.1-1.1 1.2.1 1 .3 2 .6 2.9.6-.2 1.2 0 1.5.6.2.6 0 1.2-.6 1.5.5.9 1.1 1.8 1.9 2.6.7-.3 1.4-.3 1.8.1zM64.3 38c3.7-4 10-4.1 13.9-.4 4 3.7 4.1 10 .4 13.9-3.7 4-10 4.1-13.9.4-3.9-3.7-4.1-10-.4-13.9z"/><path id="XMLID_106_" class="st3" d="M107.6 73.6c.4.5.8 1 1.3 1.4.5.4 1 .9 1.5 1.2l1.5-1.6c.4.3.8.6 1.3.8l-.8 2c1.1.6 2.3 1.1 3.6 1.4l.8-2c.6.1 1.1.2 1.7.3l.1 2.2c1.3.1 2.6.1 3.8-.1l-.1-2.2c.5-.1 1-.2 1.4-.3l.9 2c1.2-.4 2.4-.9 3.5-1.5l-.9-2c.5-.3 1-.6 1.4-1l1.6 1.5c.5-.4.9-.8 1.4-1.3.4-.5.9-1 1.2-1.5l-1.6-1.5c.3-.4.6-.8.8-1.2l2 .8c.6-1.1 1.1-2.3 1.4-3.6l-2-.8c.1-.6.2-1.1.3-1.7l2.2-.1c.1-1.3.1-2.6-.1-3.8l-2.2.1c-.1-.5-.2-1-.3-1.4l2-.9c-.4-1.2-.9-2.4-1.5-3.5l-2 .9c-.3-.5-.6-1-1-1.4l1.5-1.6c-.4-.5-.8-1-1.3-1.4-.5-.4-1-.9-1.5-1.2L128 52c-.4-.3-.8-.6-1.2-.8l.8-2c-1.1-.6-2.3-1.1-3.6-1.4l-.8 2c-.6-.1-1.1-.2-1.7-.3l-.1-2.2c-1.3-.1-2.6-.1-3.8.1l.1 2.2c-.5.1-1 .2-1.4.3l-.9-2c-1.2.4-2.4.9-3.5 1.5l.9 2c-.5.3-1 .6-1.4 1l-1.6-1.5c-.5.4-1 .8-1.4 1.3-.4.5-.9 1-1.2 1.5l1.6 1.5c-.3.4-.6.8-.8 1.3l-2-.8c-.6 1.1-1.1 2.3-1.4 3.6l2 .8c-.1.6-.2 1.1-.3 1.7l-2.2.1c-.1 1.3-.1 2.6.1 3.8l2.2-.1c.1.5.2 1 .3 1.4l-2 .9c.4 1.2.9 2.4 1.5 3.5l2-.9c.3.5.6 1 1 1.4l-1.6 1.7zm5.2-17c3.7-4 9.9-4.1 13.9-.4 4 3.7 4.1 9.9.4 13.9-3.7 4-9.9 4.1-13.9.4-3.9-3.7-4.1-9.9-.4-13.9z"/><path id="XMLID_105_" class="st3" d="M114.9 68.7c-2.9-2.8-3.1-7.4-.3-10.4 2.8-3 7.4-3.1 10.4-.3 3 2.8 3.1 7.4.3 10.4-2.8 2.9-7.4 3.1-10.4.3z"/><path id="XMLID_102_" class="st3" d="M138.1 89.9c.3.8-.1 1.7-.8 2.1.6 1.3 1.4 2.5 2.3 3.5.6-.6 1.6-.5 2.3.1.6.6.6 1.6 0 2.3 1.2 1 2.4 1.9 3.8 2.6.4-.8 1.3-1.1 2.1-.8.8.3 1.2 1.3.9 2.1 1.3.4 2.7.7 4.1.9 0-.9.8-1.5 1.7-1.5.9 0 1.6.7 1.6 1.6 1.5-.1 3-.4 4.5-.8-.3-.8.1-1.7.9-2.1.8-.3 1.7.1 2.1.8 1.3-.6 2.5-1.4 3.5-2.3-.6-.7-.5-1.6.1-2.3.6-.6 1.6-.6 2.2 0 1-1.2 1.9-2.4 2.6-3.8-.8-.4-1.1-1.3-.8-2.1.3-.8 1.3-1.2 2.1-.9.4-1.3.7-2.7.9-4.1-.9 0-1.5-.8-1.5-1.6 0-.9.7-1.6 1.6-1.6-.1-1.5-.4-3-.8-4.5-.8.3-1.7-.1-2.1-.9-.3-.8.1-1.7.8-2.1-.6-1.3-1.4-2.5-2.3-3.5-.6.6-1.6.5-2.3-.1-.6-.6-.6-1.6 0-2.3-1.2-1-2.4-1.9-3.8-2.6-.4.8-1.3 1.1-2.1.8-.8-.3-1.2-1.3-.9-2.1-1.3-.4-2.7-.7-4.1-.9 0 .9-.8 1.5-1.7 1.5-.9 0-1.6-.7-1.6-1.6-1.5.1-3 .4-4.5.8.3.8-.1 1.7-.9 2.1-.8.3-1.7 0-2.1-.8-1.3.6-2.5 1.4-3.5 2.3.6.7.5 1.7-.1 2.3-.6.6-1.6.6-2.2 0-1 1.2-1.9 2.4-2.6 3.8.8.4 1.1 1.3.8 2.1-.3.8-1.3 1.2-2.1.9-.4 1.3-.7 2.7-.9 4.1.9 0 1.5.8 1.5 1.6 0 .9-.7 1.6-1.6 1.6.1 1.5.4 3 .8 4.5.9-.3 1.8.1 2.1.9zm11.4-19.6c7.2-2.9 15.3.6 18.2 7.8 2.9 7.2-.6 15.3-7.8 18.2-7.2 2.9-15.3-.6-18.2-7.8-2.8-7.2.7-15.3 7.8-18.2z"/><path id="XMLID_99_" class="st3" d="M149.1 69.2c7.8-3.1 16.6.7 19.7 8.5 3.1 7.8-.7 16.6-8.5 19.7-7.8 3.1-16.6-.7-19.7-8.5-3.1-7.8.7-16.6 8.5-19.7zm10.6 26.4c6.8-2.7 10.1-10.5 7.4-17.3-2.7-6.8-10.5-10.1-17.3-7.4-6.8 2.7-10.1 10.5-7.4 17.3 2.7 6.8 10.5 10.2 17.3 7.4z"/><path id="XMLID_98_" class="st3" d="M186.6 88c.5-.2 1 0 1.2.5l3.6 9c.2.5 0 1-.5 1.2-.5.2-1 0-1.2-.5l-3.6-9c-.2-.4 0-1 .5-1.2z"/><path id="XMLID_97_" class="st3" d="M163.1 71.1c.3-.1.7-.1.9.1.4.3.5.9.2 1.3l-6 7.6c-.3.4-.9.5-1.3.2s-.5-.9-.2-1.3l6-7.6c.1-.1.2-.2.4-.3z"/><path id="XMLID_96_" class="st3" d="M163.1 71.1c.3-.1.7-.1.9.1.4.3.5.9.2 1.3l-6 7.6c-.3.4-.9.5-1.3.2s-.5-.9-.2-1.3l6-7.6c.1-.1.2-.2.4-.3z"/><path id="XMLID_93_" class="st3" d="M152.7 78.2c2.8-1.1 6 .2 7.1 3.1 1.1 2.8-.2 6-3.1 7.1-2.8 1.1-6-.2-7.1-3.1-1.1-2.8.3-6 3.1-7.1zm3.4 8.4c1.9-.7 2.8-2.9 2-4.7-.7-1.9-2.9-2.8-4.7-2-1.9.7-2.8 2.9-2 4.7.7 1.9 2.8 2.8 4.7 2z"/><circle id="XMLID_92_" class="st3" cx="185.3" cy="84.7" r="2.1"/><path id="XMLID_89_" class="st3" d="M164 71.3c6.6 5.1 7.9 14.7 2.7 21.3-5.1 6.6-14.7 7.9-21.3 2.7-6.6-5.1-7.9-14.7-2.7-21.3 5.1-6.6 14.7-7.9 21.3-2.7zm-17.4 22.5c5.8 4.5 14.2 3.4 18.7-2.4s3.4-14.2-2.4-18.7-14.2-3.4-18.7 2.4-3.4 14.2 2.4 18.7z"/><path id="XMLID_88_" class="st3" d="M183.1 87.5c.4.3.5.9.2 1.3l-5.9 7.7c-.3.4-.9.5-1.3.2s-.5-.9-.2-1.3l5.9-7.7c.3-.4.8-.5 1.3-.2z"/><path id="XMLID_87_" class="st3" d="M150 69.3c.1.1.2.2.3.4l3.7 9c.1.3.1.7-.1.9-.1.1-.2.2-.4.3-.5.2-1 0-1.2-.5l-3.7-9c-.1-.3-.1-.7.1-.9.1-.1.2-.2.4-.3.3-.2.7-.1.9.1z"/><path id="XMLID_84_" class="st3" d="M231.8 105.2c-.3-.8.1-1.7.8-2.1-.6-1.3-1.4-2.5-2.3-3.5-.6.6-1.6.5-2.3-.1-.6-.6-.6-1.6 0-2.3-1.2-1-2.4-1.9-3.8-2.6-.4.8-1.3 1.1-2.1.8-.8-.3-1.2-1.3-.9-2.1-1.3-.4-2.7-.7-4.1-.9 0 .9-.8 1.5-1.7 1.5-.9 0-1.6-.7-1.6-1.6-1.5.1-3 .4-4.5.8.3.8-.1 1.7-.9 2.1-.8.3-1.7-.1-2.1-.8-1.3.6-2.5 1.4-3.5 2.3.6.7.5 1.6-.1 2.3-.6.6-1.6.6-2.2 0-1 1.2-1.9 2.4-2.6 3.8.8.4 1.1 1.3.8 2.1-.3.8-1.3 1.2-2.1.9-.4 1.3-.7 2.7-.9 4.1.9 0 1.5.8 1.5 1.6 0 .9-.7 1.6-1.6 1.6.1 1.5.4 3 .8 4.5.8-.3 1.7.1 2.1.9.3.8-.1 1.7-.8 2.1.6 1.3 1.4 2.5 2.3 3.5.6-.6 1.6-.5 2.3.1.6.6.6 1.6 0 2.3 1.2 1 2.4 1.9 3.8 2.6.4-.8 1.3-1.1 2.1-.8.8.3 1.2 1.3.9 2.1 1.3.4 2.7.7 4.1.9 0-.9.8-1.5 1.7-1.5.9 0 1.6.7 1.6 1.6 1.5-.1 3-.4 4.5-.8-.3-.8.1-1.7.9-2.1.8-.3 1.7 0 2.1.8 1.3-.6 2.5-1.4 3.5-2.3-.6-.7-.5-1.7.1-2.3.6-.6 1.6-.6 2.2 0 1-1.2 1.9-2.4 2.6-3.8-.8-.4-1.1-1.3-.8-2.1.3-.8 1.3-1.2 2.1-.9.4-1.3.7-2.7.9-4.1-.9 0-1.5-.8-1.5-1.6 0-.9.7-1.6 1.6-1.6-.1-1.5-.4-3-.8-4.5-.9.3-1.8-.1-2.1-.9zm-11.4 19.6c-7.2 2.9-15.3-.6-18.2-7.8-2.9-7.2.6-15.3 7.8-18.2 7.2-2.9 15.3.6 18.2 7.8 2.9 7.2-.6 15.4-7.8 18.2z"/><path id="XMLID_81_" class="st3" d="M220.8 125.9c-7.8 3.1-16.6-.7-19.7-8.5-3.1-7.8.7-16.6 8.5-19.7 7.8-3.1 16.6.7 19.7 8.5 3.1 7.8-.7 16.6-8.5 19.7zm-10.5-26.4c-6.8 2.7-10.1 10.5-7.4 17.3 2.7 6.8 10.5 10.1 17.3 7.4 6.8-2.7 10.1-10.5 7.4-17.3-2.8-6.8-10.5-10.1-17.3-7.4z"/><path id="XMLID_80_" class="st3" d="M206.9 124c-.3.1-.7.1-.9-.1-.4-.3-.5-.9-.2-1.3l6-7.6c.3-.4.9-.5 1.3-.2s.5.9.2 1.3l-6 7.6c-.2.2-.3.2-.4.3z"/><path id="XMLID_79_" class="st3" d="M206.9 124c-.3.1-.7.1-.9-.1-.4-.3-.5-.9-.2-1.3l6-7.6c.3-.4.9-.5 1.3-.2s.5.9.2 1.3l-6 7.6c-.2.2-.3.2-.4.3z"/><path id="XMLID_76_" class="st3" d="M205.9 123.9c-6.6-5.1-7.9-14.7-2.7-21.3 5.1-6.6 14.7-7.9 21.3-2.7 6.6 5.1 7.9 14.7 2.7 21.3-5.1 6.6-14.6 7.8-21.3 2.7zm17.4-22.6c-5.8-4.5-14.2-3.4-18.7 2.4s-3.4 14.2 2.4 18.7 14.2 3.4 18.7-2.4 3.4-14.2-2.4-18.7z"/><path id="XMLID_75_" class="st3" d="M219.9 125.8c-.1-.1-.2-.2-.3-.4l-3.7-9c-.1-.3-.1-.7.1-.9.1-.1.2-.2.4-.3.5-.2 1 0 1.2.5l3.7 9c.1.3.1.7-.1.9-.1.1-.2.2-.4.3-.3.2-.6.1-.9-.1z"/><path id="XMLID_74_" class="st3" d="M200 85.7c.3.2.4.5.4.9-.1.5-.5.9-1.1.8l-9.6-1.3c-.5-.1-.9-.5-.8-1.1.1-.5.5-.9 1.1-.8l9.6 1.3c.1 0 .3.1.4.2z"/><path id="XMLID_73_" class="st3" d="M200 85.7c.3.2.4.5.4.9-.1.5-.5.9-1.1.8l-9.6-1.3c-.5-.1-.9-.5-.8-1.1.1-.5.5-.9 1.1-.8l9.6 1.3c.1 0 .3.1.4.2z"/><path id="XMLID_70_" class="st3" d="M158.1 78.9c2.4 1.9 2.8 5.3 1 7.7-1.8 2.4-5.3 2.8-7.7 1-2.4-1.8-2.8-5.3-1-7.7 1.8-2.4 5.3-2.8 7.7-1zm-5.6 7.2c1.6 1.2 3.9.9 5.1-.7 1.2-1.6.9-3.9-.7-5.1-1.6-1.2-3.9-.9-5.1.7-1.1 1.6-.8 3.9.7 5.1z"/><circle id="XMLID_69_" class="st3" cx="185.3" cy="84.7" r="2.1"/><path id="XMLID_68_" class="st1" d="M237.5 82.8l3.7 3.7v26.2l-3.7 3.6H131.2l-9.1-6.9-22.3-16.7-13.6-10.2H52.9l-3.7-3.7V52.6l3.7-3.7h46.2L143 82.8z"/><circle id="XMLID_67_" class="st3" cx="232.2" cy="91.1" r="2.8"/><circle id="XMLID_66_" class="st3" cx="232.2" cy="108" r="2.8"/><circle id="XMLID_65_" class="st3" cx="57.7" cy="57.4" r="2.8"/><circle id="XMLID_64_" class="st3" cx="57.7" cy="74.2" r="2.8"/><path id="XMLID_63_" class="st4" d="M125.8 104.4v3.8l-5.9 3-27.1-20.5v-3.8l5.8-2.9z"/><circle id="XMLID_62_" class="st3" cx="97.5" cy="88.6" r="1.7"/><circle id="XMLID_61_" class="st3" cx="120" cy="105.8" r="1.7"/><circle id="XMLID_60_" class="st3" cx="210.5" cy="99.3" r="7.2"/><path id="XMLID_59_" class="st1" d="M216.1 99.4c0 1.1-.3 2.1-.9 3-1.2-1.3-2.9-2.1-4.7-2.1-1.9 0-3.5.8-4.7 2.1-.6-.9-.9-1.9-.9-3 0-3.1 2.5-5.6 5.6-5.6 3.1 0 5.6 2.5 5.6 5.6z"/><path id="XMLID_58_" class="st4" d="M215.2 102.5c-.1.2-.2.3-.4.5-1 1.3-2.6 2.1-4.4 2.1-1.8 0-3.3-.8-4.4-2.1-.1-.2-.2-.3-.4-.5 1.2-1.3 2.8-2.1 4.7-2.1 2.1 0 3.7.8 4.9 2.1z"/><path id="XMLID_57_" class="st4" d="M210.5 97.2v3.3-3.3z"/><path id="XMLID_56_" class="st4" d="M211 97.2v3.3c0 .3-.2.5-.5.5s-.5-.2-.5-.5v-3.3c0-.3.2-.5.5-.5s.5.2.5.5z"/><circle id="XMLID_55_" class="st3" cx="192.5" cy="99.3" r="7.2"/><path id="XMLID_54_" class="st1" d="M198.1 99.4c0 1.1-.3 2.1-.9 3-1.2-1.3-2.9-2.1-4.7-2.1-1.9 0-3.5.8-4.7 2.1-.6-.9-.9-1.9-.9-3 0-3.1 2.5-5.6 5.6-5.6 3.1 0 5.6 2.5 5.6 5.6z"/><path id="XMLID_53_" class="st4" d="M197.2 102.5c-.1.2-.2.3-.4.5-1 1.3-2.6 2.1-4.4 2.1-1.8 0-3.3-.8-4.4-2.1-.1-.2-.2-.3-.4-.5 1.2-1.3 2.8-2.1 4.7-2.1 2 0 3.7.8 4.9 2.1z"/><path id="XMLID_52_" class="st4" d="M192.5 97.2v3.3-3.3z"/><path id="XMLID_51_" class="st4" d="M193 97.2v3.3c0 .3-.2.5-.5.5s-.5-.2-.5-.5v-3.3c0-.3.2-.5.5-.5s.5.2.5.5z"/><path id="XMLID_50_" class="st4" d="M78.3 84.4v38.1c0 3.6-2.9 6.5-6.5 6.5h-7.6v-8h6.2V84.4h7.9z"/><path id="XMLID_49_" class="st1" d="M57.8 140l-4.9 4.8H30.7l-4.9-4.8v-36.2l4.9-4.8h22.5l4.6 4.5z"/><path id="XMLID_48_" class="st3" d="M53 118.6c-1.6.7-20.5.7-22 0-1.6-.7-1.6-14.4 0-15.1 1.6-.7 20.5-.7 22 0s1.5 14.4 0 15.1z"/><path id="XMLID_47_" class="st3" d="M30.7 121.7h22.5v1.5H30.7z"/><path id="XMLID_46_" class="st3" d="M30.7 124.9h22.5v1.5H30.7z"/><path id="XMLID_45_" class="st3" d="M30.7 128.1h22.5v1.5H30.7z"/><circle id="XMLID_44_" class="st4" cx="50.1" cy="135.8" r="4"/><circle id="XMLID_43_" class="st3" cx="36" cy="136.1" r="1.6"/><circle id="XMLID_42_" class="st3" cx="40.5" cy="136.1" r="1.6"/><circle id="XMLID_41_" class="st3" cx="31.5" cy="136.1" r="1.6"/><path id="XMLID_40_" class="st3" d="M57.8 117.2h6.4v15.4h-6.4z"/><path id="XMLID_39_" class="st3" d="M66.6 82.2H82v6.4H66.6z"/><circle id="XMLID_38_" class="st1" cx="50.1" cy="135.8" r="2.1"/><path id="XMLID_37_" class="st4" d="M34.1 110.8h2.6v6.5h-2.6z"/><path id="XMLID_36_" class="st4" d="M38.4 106.5h2.5v10.7h-2.5z"/><path id="XMLID_35_" class="st4" d="M42.6 114.1h2.6v3.1h-2.6z"/><path id="XMLID_34_" class="st4" d="M46.9 109.9h2.6v7.3h-2.6z"/><g id="XMLID_19_"><path id="XMLID_33_" class="st1" d="M217.3 36.8H200s-20.8 19.6-.3 45.7h17.8c20.6-26.1-.2-45.7-.2-45.7z"/><path id="XMLID_32_" class="st5" d="M216 39.9h-15.1s-18.2 17.1-.3 40H216.3c17.9-22.9-.3-40-.3-40z"/><path id="XMLID_31_" class="st6" d="M221.1 40.4h-25.4c-1 0-1.7-.8-1.7-1.7v-.6c0-1 .8-1.7 1.7-1.7h25.4c1 0 1.7.8 1.7 1.7v.6c0 1-.8 1.7-1.7 1.7z"/><path id="XMLID_30_" class="st1" d="M221.1 36.2h-25.4c-1 0-1.7-.8-1.7-1.7v-.6c0-1 .8-1.7 1.7-1.7h25.4c1 0 1.7.8 1.7 1.7v.6c0 1-.8 1.7-1.7 1.7z"/><path id="XMLID_29_" class="st1" d="M199.4 59.9c-.8 0-1.6-.6-1.7-1.5-1.2-6.8 1.7-9.9 2-10.2.7-.7 1.8-.7 2.5 0s.7 1.8 0 2.5c-.1.1-1.9 2.2-1.1 7.1.2 1-.5 1.9-1.4 2.1h-.3z"/></g></svg>