<svg xmlns="http://www.w3.org/2000/svg" viewBox="0 0 307.5 255"><style>.st0{fill:#519E38;} .st1{fill:#F9E0B2;} .st2{fill:none;stroke:#FFFFFF;stroke-width:4;stroke-miterlimit:10;} .st3{fill:#EFEFEF;} .st4{fill:#FFFFFF;} .st5{fill:#431C51;} .st6{fill:#EDEDED;} .st7{fill:none;stroke:#636363;stroke-width:0.75;} .st8{fill:#636363;} .st9{fill:#1E1E1E;}</style><g id="vanna_1"><path class="st0" d="M60 79.1h5.3v105.1H60zM243.1 79.1l-.1 104.8s1.3 11.2-7.7 11.2H68s-5-.3-5-5.8 166.2-2.7 166.2-2.7l7-18.8 1.4-70.8.3-18.1h5.2z"/><path class="st1" d="M60 125.3h177.7v64.1H60z"/><path class="st0" d="M247 76.4c0 2.2-1.8 4-4 4H60c-2.2 0-4-1.8-4-4s1.8-4 4-4h183c2.2 0 4 1.8 4 4z"/><path class="st2" d="M238 185.7c0 2-1.6 3.7-3.7 3.7H63.7c-2 0-3.7-1.6-3.7-3.7V79.1c0-2 1.6-3.7 3.7-3.7h170.6c2 0 3.7 1.6 3.7 3.7v106.6z"/><path class="st3" d="M244 73.4c0 2.2-1.8 4-4 4H57c-2.2 0-4-1.8-4-4s1.8-4 4-4h183c2.2 0 4 1.8 4 4z"/><path class="st4" d="M76.8 111.3c0 1.7-1.4 3.1-3.1 3.1-1.7 0-3.1-1.4-3.1-3.1V88.5c0-1.7 1.4-3.1 3.1-3.1 1.7 0 3.1 1.4 3.1 3.1v22.8z"/></g><g id="clock"><circle class="st0" cx="237" cy="190.8" r="36.2"/><circle class="st5" cx="233" cy="188" r="36.2"/><circle class="st6" cx="233" cy="188" r="29.9"/><ellipse class="st7" cx="233" cy="188" rx="27.4" ry="27.7"/><path class="st8" d="M231.9 160.6h2.3v6.1h-2.3zM217.337 165.754l1.867-1.344 3.562 4.952-1.867 1.344zM209 175.487l1.074-2.035 5.396 2.844-1.072 2.035zM245.485 170.328l-1.868-1.342 3.56-4.954 1.87 1.343zM252.374 178.407l-1.072-2.035 5.397-2.844 1.07 2.035zM220.915 205.705l1.867 1.343-3.56 4.953-1.868-1.34zM213.518 196.712l1.073 2.035-5.394 2.846-1.073-2.034zM249.578 210.213l-1.867 1.342-3.56-4.952 1.867-1.343zM257.955 199.982l-1.073 2.034-5.395-2.847 1.073-2.035zM231.9 210h2.3v6.1h-2.3zM254.7 186.9h6.1v2.3h-6.1zM205.3 186.9h6.1v2.3h-6.1z"/><circle class="st9" cx="233.4" cy="187.2" r="2.1"/><path class="st9" d="M240.045 166.603l1.502.552-7.55 20.557-1.503-.55z"/><path class="st9" d="M247.58 187.94l-.173 1.59-13.917-1.513.173-1.59z"/></g></svg>