<svg id="Layer_1" xmlns="http://www.w3.org/2000/svg" viewBox="-232 295.9 130 250"><style>.st0{fill:#519E38;} .st1{fill:#F4F4F4;} .st2{fill:#D6D6D6;} .st3{fill:#EAEAEA;} .st4{fill:#86D2E0;} .st5{fill:#62BA47;} .st6{fill:#FFFFFF;} .st7{fill:#63B746;}</style><g id="_x31_"><g id="butylka_1_1_"><path class="st0" d="M-125.7 511v-99.4l-14.5-48.3c3.8-21.7-6.6-28.1-6.6-28.1v-7.9h2.1v-11.2l-3.8-2.5H-178.4s-3.8-.3-3.8 2.5v11.2h2.3v7.9h-.2s-10.3 6.6-6.6 28.1c0 0-14.5 13.3-14.5 48.3V511s-1.5 21.4 14.3 21.4H-140.5c16.3-.1 14.8-21.4 14.8-21.4z"/><path class="st1" d="M-133.1 506.1v-99.4l-14.5-48.3c3.8-21.7-6.6-28.1-6.6-28.1v-8H-187v8h-.2s-10.3 6.6-6.6 28.1c0 0-14.5 13.3-14.5 48.3v99.4s-1.5 21.4 14.3 21.4H-147.4c15.8-.1 14.3-21.4 14.3-21.4z"/><path class="st2" d="M-155.9 308.8H-185.8s-3.8-.3-3.8 2.5v11.2h37.5v-11.2c.1-2.8-3.8-2.5-3.8-2.5z"/><path class="st3" d="M-133.2 506.1v-99.4l-14.5-48.3c3.8-21.7-6.6-28.1-6.6-28.1v-8h-16.6v205.2h23.3c15.8-.1 14.4-21.4 14.4-21.4z"/><circle class="st4" cx="-170.5" cy="446.3" r="18.9"/><circle class="st5" cx="-185.6" cy="463" r="5.9"/><path class="st4" d="M-179.6 423.1c0 1.3-1.1 2.5-2.5 2.5-1.3 0-2.5-1.1-2.5-2.5 0-1.3 1.1-2.5 2.5-2.5 1.5 0 2.5 1.2 2.5 2.5z"/><path class="st5" d="M-179.4 431.2c0 1.6-1.3 3.1-3.1 3.1-1.6 0-3.1-1.3-3.1-3.1 0-1.6 1.3-3.1 3.1-3.1 1.6.1 3.1 1.4 3.1 3.1zM-187.8 426.4c0 1-.8 1.8-1.8 1.8s-1.8-.8-1.8-1.8.8-1.8 1.8-1.8 1.8.8 1.8 1.8z"/><path class="st6" d="M-156.7 446.1c-1.5-.5-2.3 1.5-2.6 2.6-.3 1.1-.7 1.6-.8 1.6-.3-.2-.2-.7-.2-1 0-.5 0-1-.2-1.5-.2-.3-.7-.5-1-.5v-.2s0-.2.2-.2c.2-.3.3-.8.7-1 .2 0 .3.3.5.3.3.5 1.6-.2 1.3-.7-.5-.5-1-.7-1.6-.5-.3 0-.7.3-1 .5l-.2.2v-2c0-.3-.8-.2-1.1.2l-.2.2c-.2.5-1 .7-1.6.2-.2-.2-.3-.3-.7-.3-1.6-.2-2.1 1.6-2.3 3 0 .8-.5 1.8-1 2-.2-.2-.2-.2-.2-.3-.2-.3-.2-.8-.3-1.1-.2-1.1-.2-2.3-.2-3.4 0-.2-.2-.3-.5-.2-.3.2-.7.3-.8.7-.5 1-.7 2.1-.8 3.3 0 .3 0 .7-.2 1v.3c-.2 0-.5-.3-.5-.5 0-.3-.5-.2-.8.2.2-.5.3-1.1.3-1.8 0-1-.3-3.1-1.6-3-1.5.2-1.8 2-1.8 3.1s-.2 2.1-.2 2.3c-.7.2-1-.7-1.1-1-.3-.8-.5-1.6-.5-2.5-.2-1.5-.3-2.8-.2-4.1 0-.2-.3-.2-.5-.2-.3.2-.7.5-.7.7-.5 1-.5 2.1-.7 3.3v-.3c-.2-.8-.3-1.8-.3-2.6 0-.5-.2-1.3 0-1.6.2-.7-1 0-1.1.3-1 2-.7 4.3-.7 6.4 0 .5 0 1.1-.2 1.6 0 .3-.2 1.1-.5 1.5-.2.2-.7 0-.8 0-.3-.2-.5-.5-.5-.8 0-.3-.3-.2-.7 0-.2.2-.5.7-.5 1 .2.8.8 1.5 1.6 1.1 1.3-.5 1.8-2 2.1-3.1.2-.7.2-1.5.2-2.1.3 1.3.5 2.6.8 3.9.2.7 1.1-.5 1.1-.8 0-1 0-1.8.2-2.8.2 1.1.5 3.6 2.1 3.4.7-.2 1-.7 1.3-1.1.2.5.7.8 1.1.8.5 0 1-.5 1.3-1 0 .5.3.8.8.8.7 0 1.3-.3 1.6-.8.2-.2.3-.5.3-.7v.3c0 .3.2.8.5 1.1.3.3.8.2 1.1-.2.3-.3.7-.7.8-1 .2.8.5 1.5 1.1 1.6s1.3-.5 1.6-1c.3-.7.7-1.3.7-2 0-.5.2-1.1 0-1.8.5 0 .8-.2 1.1-.3 0 1.8-.3 3.6-.7 5.4 0 .3.3.3.5.3.3-.2.7-.3.7-.7.2-.5.3-1.1.5-1.6.7.8 0 1.8.5 2.6.3.3 1.1.3 1.5.2.2-.2.3-.2.5-.3.2.5.3 1 .8 1.3.7.3 1.3-.2 1.8-.7.5-.5.8-1.1 1-1.8 1-1.7 1.3-3.7-.1-4.2zm-17.1 2.5c0 .2 0 .3-.2.3-.3 0-.5-.5-.5-.7-.2-.5-.3-1-.3-1.5s0-1 .2-1.6c0-.2 0-.3.2-.3.7.2.8 1.6.8 2.1-.1.5-.1 1-.2 1.7zm8.2.1c0 .2-.2.3-.2.3-.3-.2-.3-.5-.5-.8-.2-.5-.2-1-.2-1.5s.2-1 .3-1.5c0-.2.2-.3.2-.3.7.5.7 1.5.7 2.3-.1.5-.1 1-.3 1.5zm8 2.2c0 .2-.2.2-.2.3-.2-.2-.3-.7-.3-.8v-1.5c.2-.5.3-1 .5-1.5 0-.2.2-.2.2-.3.5.7.5 1.6.3 2.3-.1.5-.3 1-.5 1.5z"/><circle class="st5" cx="-154.4" cy="429" r="10.3"/><path class="st6" d="M-157.1 427.5c-.8.2-1.1 1.1-1.1 1.8v1.3c0 .2 0 .3-.2.3-.3 0-.5-.5-.7-.7-.2-.5-.3-1.1-.5-1.6-.2-.7-.2-1.1-.2-1.8v-.8-.5c0-.5-.5 0-.7.2-.7 1.1-.5 2.6-.5 3.9v1.1c0 .2-.2.7-.3.8-.2.2-.3 0-.5 0-.2-.2-.3-.3-.3-.5s-.3-.2-.3 0c-.2.2-.3.5-.3.7 0 .5.5.8 1 .7.8-.2 1.1-1.1 1.3-1.8.2-.3.2-.7.2-1 .2.5.3 1 .5 1.5.2.3.5.7 1 .7.3 0 .5-.3.7-.8.2.3.3.7.8.5.5 0 .8-.5 1-.8.2-.5.3-.8.2-1.3.1-.7-.1-2-1.1-1.9zm.4 3v.3c-.2 0-.3-.3-.3-.3-.2-.3-.2-.7-.2-1v-1-.3c.5.3.5.8.5 1.3v1zM-146.7 428.7c-1-.3-1.5 1-1.6 1.6s-.3 1.8.5 2.1c.3.2.8-.2 1.1-.3.3-.3.5-.7.5-1.1.1-.8.3-2-.5-2.3zm-.5 3l-.2.2c-.2-.2-.2-.3-.2-.5v-1s.2-.7.3-1l.2-.2c.3.3.3 1 .2 1.5-.1.5-.1.8-.3 1z"/><path class="st6" d="M-149.2 428.9c.2-.2.3-.5.5-.7.3-.5.7-1.1.7-1.8s-.8-.7-1.3-.5c-.7.3-1 1-1.1 1.5-.2.8-.3 1.6-.3 2.5-.3.3-.8 1.1-1.3.8-.2 0-.2-.2-.2-.3.3-.3.7-.8 1-1.3.3-.5.5-1.1 0-1.5-.5-.3-1 0-1.3.3-.3.3-.5.8-.5 1.3v1.1c-.3.2-.7.3-1 .2-.3 0-.5-.5-.5-.7-.2-.5 0-.8 0-1.3 0-.2 0-.3.2-.3v-.2c.2.2.3.5.3.7.2.3.8-.2.8-.5-.2-.3-.2-.7-.5-.8-.3-.2-.8.2-1 .3-.5.5-.7 1.5-.7 2.1 0 .5.2 1.1.5 1.3.5.3 1.3 0 1.8-.3.2.3.3.7.8.5.5 0 1-.3 1.5-.8 0 .5.2.8.5 1 .5.3 1.1 0 1.5-.5.5-.5.7-1.3.5-2-.4 0-.7-.1-.9-.1zm-3.1-.4c0-.2.2-.2.2-.3.2 0 .3.3.2.5 0 .3-.3.7-.5 1v-.2c-.1-.3-.1-.6.1-1zm3-1.6c0-.2.2-.2.2-.3.3.3 0 1-.2 1.3s-.5.8-.7 1.1c0-.3.2-.7.2-1 .1-.5.3-.8.5-1.1zm-.2 4.1c0 .2-.2.2 0 0l-.2.2c-.2-.2-.2-.7-.3-.8v-.5l.3-.3c.2-.2.3.2.3.3.2.4.1.8-.1 1.1z"/><g><path class="st6" d="M-188.4 462.7c.2-.2.3-.5.5-.8l.3-.3c.2-.2.2-.2 0 0v.5c0 1 0 2-.2 3.1 0 .3.7-.2.7-.3 0-.7.2-1.3.2-2 0-.3.2-1.8-.2-2-.7-.2-1.3 1.3-1.6 1.8-.6.3-.1.3.3 0zM-183.2 461.4c-.7 1.1-1.6 2.3-2.5 3.4-.3.5.2.5.5.2.8-1.1 1.8-2.3 2.6-3.6.2-.7-.4-.3-.6 0zM-184.5 461.1c-.5 0-.8.5-.8.8 0 .3.2.7.5.7.8-.1 1.3-1.5.3-1.5-.2 0-.5.5-.3.5s.3.2.3.3v.2h-.2s-.3-.2-.3-.3v-.2h.2c.1-.2.5-.7.3-.5zM-183.3 463.5c-.5 0-.8.5-.8.8 0 .3.2.7.5.7.9.2 1.2-1.5.3-1.5-.2 0-.5.5-.3.5s.3.2.3.3v.2h-.2s-.3-.2-.3-.3v-.2h.2c.3 0 .6-.5.3-.5z"/></g><g><path class="st7" d="M-193.5 438.2c-.2 0-.2-.2-.3-.2-.3-.2-.7.2-1.1.2-.8 0-1.1 0-2.3-.3 0-1 .5-1.5.8-2.3.2-.7-.2-1.3-.2-2.1v-1.3c-.3.3-.2 1.1-.2 1.5-.2-.5-.2-1.3-.3-1.8-.2.5 0 1.3 0 1.8-.2-.5-.2-1.1-.3-1.5-.3.5.2 1.3.2 1.6-.2-.5-.3-1-.5-1.3 0 .7.2 1.1.2 1.5-.2-.3-.3-.8-.5-1 0 .3.2.8.3 1.1-.3-.2-.3-.5-.7-.5 0 .3.2.5.3.7-.2-.2-.3-.3-.5-.3 0 .3.3.3.3.7l-.3-.3c0 .2.3.3.3.5 0 0-.2-.2-.2 0l.2.2h-.2c0 .2.2.2.2.3h-.2c0 .2.2 0 .2.2-.8.8-.3 1.6-.5 2.6 0-.2-.7-.3-1.1-.5-.3-.2-.3-.5-.5-.5l.2-.2c-.2 0-.2 0-.2-.2h.3c-.2 0-.5-.2-.5-.3.2 0 .3.2.5.2-.2-.2-.7-.3-.7-.5.2 0 .5.3.7.2-.3-.2-.8-.5-.8-.7.2.2.5.3.8.3-.3-.2-.7-.5-1.1-.5.2.3.7.5.8.8-.3-.2-.7-.3-1-.5.2.3.5.5.8.7-.3 0-.5-.2-.7-.2.2.3.5.2.7.5h-.5c0 .2.3.2.5.3-.2 0-.3 0-.3.2.2.2.3 0 .3.2-.2 0-.2 0-.2.2 0 0 .2 0 .3.2 0 0-.2 0-.2.2h.2l-.2.2c.5.2.7.8 1.1 1.1-.3.2.3.5-3.3 1.6.2 0 1.6-.3 2-.5.5-.2.8-.3 1.3-.5.2 0 .2 0 .3-.2.8 0 1.5 0 2.1-.3-.5.2-1.5.2-2-.2.5-.8.2-2.6.5-3.1.3-.3 1-1.6 1.8-.5.2.2.2.5-.2.8-.3.5-.5.8-.5 2 0 .2 0 .5-.3.5 1.6.3 2 .2 3 0 .3 0 .7-.3.8 0 0 .2-.3.2-.5.2-.5 0 .2.2.3.2.2 0 1-.2 1.3-.2 0-.8-.2-.8-.5-1z"/><path class="st7" d="M-198.1 430.2c-3.6 0-6.6 3-6.6 6.6 0 3.6 3 6.6 6.6 6.6s6.6-3 6.6-6.6c-.1-3.7-3-6.6-6.6-6.6m0 .1c3.4 0 6.2 2.8 6.2 6.2s-2.8 6.2-6.2 6.2-6.2-2.8-6.2-6.2c-.1-3.2 2.7-6.2 6.2-6.2"/></g><path class="st6" d="M-196 395.2h-.5c-2.3-.3-3.9-2.5-3.6-4.6 1.8-14.3 8.9-23 9-23.5 1.5-1.8 4.1-2.1 5.9-.7s2.1 4.1.7 5.7c0 .2-5.7 7.4-7.4 19.2-.3 2.4-2.1 3.9-4.1 3.9z"/></g></g></svg>