<svg xmlns="http://www.w3.org/2000/svg" viewBox="108 -86.5 274.5 229.5"><style>.st0{fill:#519E38;} .st1{fill:#F4F4F4;} .st2{fill:#D6D6D6;} .st3{fill:#EAEAEA;} .st4{fill:#86D2E0;} .st5{fill:#62BA47;} .st6{fill:#FFFFFF;} .st7{fill:#63B746;} .st8{fill:#119BD7;} .st9{fill:#164988;}</style><g id="_x31_"><g id="butylka_1"><path class="st0" d="M209.6 78.5V18l-8.8-29.4c2.3-13.2-4-17.1-4-17.1v-4.8h1.3v-6.8l-2.3-1.5h-18.2s-2.3-.2-2.3 1.5v6.8h1.4v4.8h-.1s-6.3 4-4 17.1c0 0-8.8 8.1-8.8 29.4v60.5s-.9 13 8.7 13h28.2c9.8 0 8.9-13 8.9-13z"/><path class="st1" d="M205.1 75.5V15l-8.8-29.4c2.3-13.2-4-17.1-4-17.1v-4.9h-20v4.9h-.1s-6.3 4-4 17.1c0 0-8.8 8.1-8.8 29.4v60.5s-.9 13 8.7 13h28.4c9.5 0 8.6-13 8.6-13z"/><path class="st2" d="M191.2-44.6H173s-2.3-.2-2.3 1.5v6.8h22.8v-6.8c.1-1.7-2.3-1.5-2.3-1.5z"/><path class="st3" d="M205 75.5V15l-8.8-29.4c2.3-13.2-4-17.1-4-17.1v-4.9h-10.1V88.5h14.2c9.6 0 8.7-13 8.7-13z"/><circle class="st4" cx="182.3" cy="39.1" r="11.5"/><circle class="st5" cx="173.1" cy="49.3" r="3.6"/><path class="st4" d="M176.8 25c0 .8-.7 1.5-1.5 1.5s-1.5-.7-1.5-1.5.7-1.5 1.5-1.5c.9 0 1.5.7 1.5 1.5z"/><path class="st5" d="M176.9 29.9c0 1-.8 1.9-1.9 1.9-1 0-1.9-.8-1.9-1.9 0-1 .8-1.9 1.9-1.9 1 .1 1.9.9 1.9 1.9zM171.8 27c0 .6-.5 1.1-1.1 1.1-.6 0-1.1-.5-1.1-1.1s.5-1.1 1.1-1.1c.6 0 1.1.5 1.1 1.1z"/><path class="st6" d="M190.7 39c-.9-.3-1.4.9-1.6 1.6-.2.7-.4 1-.5 1-.2-.1-.1-.4-.1-.6 0-.3 0-.6-.1-.9-.1-.2-.4-.3-.6-.3v-.1s0-.1.1-.1c.1-.2.2-.5.4-.6.1 0 .2.2.3.2.2.3 1-.1.8-.4-.3-.3-.6-.4-1-.3-.2 0-.4.2-.6.3l-.1.1v-1.2c0-.2-.5-.1-.7.1l-.1.1c-.1.3-.6.4-1 .1-.1-.1-.2-.2-.4-.2-1-.1-1.3 1-1.4 1.8 0 .5-.3 1.1-.6 1.2-.1-.1-.1-.1-.1-.2-.1-.2-.1-.5-.2-.7-.1-.7-.1-1.4-.1-2.1 0-.1-.1-.2-.3-.1-.2.1-.4.2-.5.4-.3.6-.4 1.3-.5 2 0 .2 0 .4-.1.6v.2c-.1 0-.3-.2-.3-.3 0-.2-.3-.1-.5.1.1-.3.2-.7.2-1.1 0-.6-.2-1.9-1-1.8-.9.1-1.1 1.2-1.1 1.9s-.1 1.3-.1 1.4c-.4.1-.6-.4-.7-.6-.2-.5-.3-1-.3-1.5-.1-.9-.2-1.7-.1-2.5 0-.1-.2-.1-.3-.1-.2.1-.4.3-.4.4-.3.6-.3 1.3-.4 2v-.2c-.1-.5-.2-1.1-.2-1.6 0-.3-.1-.8 0-1 .1-.4-.6 0-.7.2-.6 1.2-.4 2.6-.4 3.9 0 .3 0 .7-.1 1 0 .2-.1.7-.3.9-.1.1-.4 0-.5 0-.2-.1-.3-.3-.3-.5s-.2-.1-.4 0c-.1.1-.3.4-.3.6.1.5.5.9 1 .7.8-.3 1.1-1.2 1.3-1.9.1-.4.1-.9.1-1.3.2.8.3 1.6.5 2.4.1.4.7-.3.7-.5 0-.6 0-1.1.1-1.7.1.7.3 2.2 1.3 2.1.4-.1.6-.4.8-.7.1.3.4.5.7.5.3 0 .6-.3.8-.6 0 .3.2.5.5.5.4 0 .8-.2 1-.5.1-.1.2-.3.2-.4v.2c0 .2.1.5.3.7.2.2.5.1.7-.1.2-.2.4-.4.5-.6.1.5.3.9.7 1 .4.1.8-.3 1-.6.2-.4.4-.8.4-1.2 0-.3.1-.7 0-1.1.3 0 .5-.1.7-.2 0 1.1-.2 2.2-.4 3.3 0 .2.2.2.3.2.2-.1.4-.2.4-.4.1-.3.2-.7.3-1 .4.5 0 1.1.3 1.6.2.2.7.2.9.1.1-.1.2-.1.3-.2.1.3.2.6.5.8.4.2.8-.1 1.1-.4.3-.3.5-.7.6-1.1.3-1.2.5-2.4-.4-2.7zm-10.4 1.5c0 .1 0 .2-.1.2-.2 0-.3-.3-.3-.4-.1-.3-.2-.6-.2-.9s0-.6.1-1c0-.1 0-.2.1-.2.4.1.5 1 .5 1.3s0 .6-.1 1zm5 .1c0 .1-.1.2-.1.2-.2-.1-.2-.3-.3-.5-.1-.3-.1-.6-.1-.9s.1-.6.2-.9c0-.1.1-.2.1-.2.4.3.4.9.4 1.4-.1.3-.1.6-.2.9zm4.9 1.3c0 .1-.1.1-.1.2-.1-.1-.2-.4-.2-.5v-.9l.3-.9c0-.1.1-.1.1-.2.3.4.3 1 .2 1.4l-.3.9z"/><circle class="st5" cx="192.1" cy="28.6" r="6.3"/><path class="st6" d="M190.5 27.7c-.5.1-.7.7-.7 1.1v.8c0 .1 0 .2-.1.2-.2 0-.3-.3-.4-.4-.1-.3-.2-.7-.3-1-.1-.4-.1-.7-.1-1.1v-.5V26.5c0-.3-.3 0-.4.1-.4.7-.3 1.6-.3 2.4v.7c0 .1-.1.4-.2.5s-.2 0-.3 0c-.1-.1-.2-.2-.2-.3 0-.1-.2-.1-.2 0-.1.1-.2.3-.2.4 0 .3.3.5.6.4.5-.1.7-.7.8-1.1.1-.2.1-.4.1-.6l.3.9c.1.2.3.4.6.4.2 0 .3-.2.4-.5.1.2.2.4.5.3.3 0 .5-.3.6-.5.1-.3.2-.5.1-.8.1-.4 0-1.2-.6-1.1zm.2 1.8v.2c-.1 0-.2-.2-.2-.2-.1-.2-.1-.4-.1-.6v-.6-.2c.3.2.3.5.3.8v.6zM196.8 28.4c-.6-.2-.9.6-1 1s-.2 1.1.3 1.3c.2.1.5-.1.7-.2.2-.2.3-.4.3-.7.1-.5.2-1.2-.3-1.4zm-.3 1.8l-.1.1c-.1-.1-.1-.2-.1-.3v-.6s.1-.4.2-.6l.1-.1c.2.2.2.6.1.9s-.1.5-.2.6z"/><path class="st6" d="M195.3 28.5c.1-.1.2-.3.3-.4.2-.3.4-.7.4-1.1s-.5-.4-.8-.3c-.4.2-.6.6-.7.9-.1.5-.2 1-.2 1.5-.2.2-.5.7-.8.5-.1 0-.1-.1-.1-.2.2-.2.4-.5.6-.8.2-.3.3-.7 0-.9-.3-.2-.6 0-.8.2-.2.2-.3.5-.3.8v.7c-.2.1-.4.2-.6.1-.2 0-.3-.3-.3-.4-.1-.3 0-.5 0-.8 0-.1 0-.2.1-.2V28c.1.1.2.3.2.4.1.2.5-.1.5-.3-.1-.2-.1-.4-.3-.5-.2-.1-.5.1-.6.2-.3.3-.4.9-.4 1.3 0 .3.1.7.3.8.3.2.8 0 1.1-.2.1.2.2.4.5.3.3 0 .6-.2.9-.5 0 .3.1.5.3.6.3.2.7 0 .9-.3.3-.3.4-.8.3-1.2-.2 0-.4-.1-.5-.1zm-1.9-.2c0-.1.1-.1.1-.2.1 0 .2.2.1.3 0 .2-.2.4-.3.6v-.1c0-.2 0-.4.1-.6zm1.8-1c0-.1.1-.1.1-.2.2.2 0 .6-.1.8-.1.2-.3.5-.4.7 0-.2.1-.4.1-.6.1-.3.2-.5.3-.7zm-.1 2.5c0 .1-.1.1 0 0l-.1.1c-.1-.1-.1-.4-.2-.5v-.3l.2-.2s.2.1.2.2c.1.3 0 .5-.1.7z"/><g><path class="st6" d="M171.4 49.1c.1-.1.2-.3.3-.5l.2-.2c.1-.1.1-.1 0 0v.3c0 .6 0 1.2-.1 1.9 0 .2.4-.1.4-.2 0-.4.1-.8.1-1.2 0-.2.1-1.1-.1-1.2-.4-.1-.8.8-1 1.1-.3.2 0 .2.2 0zM174.6 48.3c-.4.7-1 1.4-1.5 2.1-.2.3.1.3.3.1.5-.7 1.1-1.4 1.6-2.2.1-.4-.3-.2-.4 0zM173.8 48.1c-.3 0-.5.3-.5.5s.1.4.3.4c.5 0 .8-.9.2-.9-.1 0-.3.3-.2.3s.2.1.2.2v.1h-.1c-.1 0-.2-.1-.2-.2v-.1h.1c.1-.1.3-.4.2-.3zM174.5 49.6c-.3 0-.5.3-.5.5s.1.4.3.4c.6.1.8-.9.2-.9-.1 0-.3.3-.2.3.1 0 .2.1.2.2v.1h-.1c-.1 0-.2-.1-.2-.2v-.1h.1c.2 0 .4-.3.2-.3z"/></g><g><path class="st7" d="M168.3 34.2c-.1 0-.1-.1-.2-.1-.2-.1-.4.1-.7.1-.5 0-.7 0-1.4-.2 0-.6.3-.9.5-1.4.1-.4-.1-.8-.1-1.3v-.8c-.2.2-.1.7-.1.9-.1-.3-.1-.8-.2-1.1-.1.3 0 .8 0 1.1-.1-.3-.1-.7-.2-.9-.2.3.1.8.1 1-.1-.3-.2-.6-.3-.8 0 .4.1.7.1.9-.1-.2-.2-.5-.3-.6 0 .2.1.5.2.7-.2-.1-.2-.3-.4-.3 0 .2.1.3.2.4-.1-.1-.2-.2-.3-.2 0 .2.2.2.2.4l-.2-.2c0 .1.2.2.2.3 0 0-.1-.1-.1 0l.1.1h-.1c0 .1.1.1.1.2h-.1c0 .1.1 0 .1.1-.5.5-.2 1-.3 1.6 0-.1-.4-.2-.7-.3-.2-.1-.2-.3-.3-.3l.1-.1c-.1 0-.1 0-.1-.1h.2c-.1 0-.3-.1-.3-.2.1 0 .2.1.3.1-.1-.1-.4-.2-.4-.3.1 0 .3.2.4.1-.2-.1-.5-.3-.5-.4.1.1.3.2.5.2-.2-.1-.4-.3-.7-.3.1.2.4.3.5.5l-.6-.3c.1.2.3.3.5.4-.2 0-.3-.1-.4-.1.1.2.3.1.4.3h-.3c0 .1.2.1.3.2-.1 0-.2 0-.2.1.1.1.2 0 .2.1-.1 0-.1 0-.1.1 0 0 .1 0 .2.1 0 0-.1 0-.1.1h.1l-.1.1c.3.1.4.5.7.7-.2.1.2.3-2 1 .1 0 1-.2 1.2-.3.3-.1.5-.2.8-.3.1 0 .1 0 .2-.1.5 0 .9 0 1.3-.2-.3.1-.9.1-1.2-.1.3-.5.1-1.6.3-1.9.2-.2.6-1 1.1-.3.1.1.1.3-.1.5-.2.3-.3.5-.3 1.2 0 .1 0 .3-.2.3 1 .2 1.2.1 1.8 0 .2 0 .4-.2.5 0 0 .1-.2.1-.3.1-.3 0 .1.1.2.1s.6-.1.8-.1c-.2-.4-.3-.4-.5-.5z"/><path class="st7" d="M165.5 29.3c-2.2 0-4 1.8-4 4s1.8 4 4 4 4-1.8 4-4-1.8-4-4-4m0 .1c2.1 0 3.8 1.7 3.8 3.8 0 2.1-1.7 3.8-3.8 3.8s-3.8-1.7-3.8-3.8c0-2 1.7-3.8 3.8-3.8"/></g><path class="st6" d="M166.8 8h-.3c-1.4-.2-2.4-1.5-2.2-2.8 1.1-8.7 5.4-14 5.5-14.3.9-1.1 2.5-1.3 3.6-.4s1.3 2.5.4 3.5c0 .1-3.5 4.5-4.5 11.7-.2 1.4-1.3 2.3-2.5 2.3z"/></g></g><g id="_x32_"><g id="butylka_2"><path class="st0" d="M277.4 78.5V18l-8.8-29.4c2.3-13.2-4-17.1-4-17.1v-4.8h1.3v-6.8l-2.3-1.5h-18.2s-2.3-.2-2.3 1.5v6.8h1.4v4.8h-.1s-6.3 4-4 17.1c0 0-8.8 8.1-8.8 29.4v60.5s-.9 13 8.7 13h28.2c9.8 0 8.9-13 8.9-13z"/><path class="st1" d="M272.7 75.5V15l-8.8-29.4c2.3-13.2-4-17.1-4-17.1v-4.9h-20v4.9h-.1s-6.3 4-4 17.1c0 0-8.8 8.1-8.8 29.4v60.5s-.9 13 8.7 13h28.4c9.5 0 8.6-13 8.6-13z"/><path class="st2" d="M258.9-44.6h-18.2s-2.3-.2-2.3 1.5v6.8h22.8v-6.8l-2.3-1.5z"/><path class="st3" d="M272.7 75.5V15l-8.8-29.4c2.3-13.2-4-17.1-4-17.1v-4.9h-10.1V88.5H264c9.6 0 8.7-13 8.7-13z"/><path class="st6" d="M234.4 8h-.3c-1.4-.2-2.4-1.5-2.2-2.8 1.1-8.7 5.4-14 5.5-14.3.9-1.1 2.5-1.3 3.6-.4s1.3 2.5.4 3.5c0 .1-3.5 4.5-4.5 11.7-.1 1.4-1.2 2.3-2.5 2.3z"/><circle class="st8" cx="250" cy="39.1" r="11.6"/><circle class="st5" cx="240.7" cy="49.5" r="3.7"/><path class="st8" d="M244.5 24.9c0 .8-.7 1.5-1.5 1.5s-1.5-.7-1.5-1.5.7-1.5 1.5-1.5 1.5.7 1.5 1.5z"/><path class="st5" d="M244.5 29.9c0 1.1-.9 1.9-1.9 1.9-1.1 0-1.9-.9-1.9-1.9 0-1.1.9-1.9 1.9-1.9 1.1 0 1.9.9 1.9 1.9zM239.4 27c0 .6-.5 1.1-1.1 1.1s-1.1-.5-1.1-1.1.5-1.1 1.1-1.1c.6-.1 1.1.5 1.1 1.1z"/><path class="st6" d="M258.5 39c-.9-.3-1.4.9-1.6 1.6-.2.7-.4 1-.5 1-.2-.1-.1-.4-.1-.6 0-.3 0-.6-.1-.9-.1-.2-.4-.3-.6-.3v-.1s0-.1.1-.1c.1-.2.2-.5.4-.6.1 0 .2.2.3.2.2.3 1-.2.8-.4-.3-.3-.7-.4-1-.3-.2 0-.4.2-.6.3l-.1.1v-1.2c0-.2-.5-.1-.7.1l-.1.1c-.1.3-.6.4-1 .1-.1-.1-.2-.2-.4-.2-1-.1-1.3 1-1.4 1.8 0 .5-.3 1.1-.6 1.2-.1-.1-.1-.1-.1-.2-.1-.2-.1-.5-.2-.8-.1-.7-.1-1.4-.1-2.1 0-.1-.1-.2-.3-.1s-.4.2-.5.4c-.3.6-.4 1.3-.5 2 0 .2 0 .4-.1.6v.2c-.1 0-.3-.2-.3-.3 0-.3-.3-.1-.5.1.1-.4.2-.7.2-1.1 0-.6-.2-1.9-1-1.8-.9.1-1.1 1.2-1.2 2 0 .7-.1 1.3-.1 1.4-.4.1-.6-.4-.7-.6-.2-.5-.3-1-.4-1.5-.1-.9-.2-1.7-.1-2.6 0-.1-.2-.1-.3-.1-.2.1-.4.3-.4.4-.3.6-.3 1.3-.4 2v-.2c-.1-.5-.2-1.1-.2-1.6 0-.3-.1-.8 0-1 .1-.5-.6 0-.7.2-.6 1.2-.4 2.6-.4 4 0 .3 0 .7-.1 1.1 0 .2-.1.7-.3.9-.1.1-.4 0-.5 0-.2-.1-.3-.3-.3-.5s-.2-.1-.4 0c-.1.1-.3.4-.3.6.1.5.5.9 1 .7.8-.3 1.1-1.2 1.3-1.9.1-.4.1-.9.1-1.3.2.8.3 1.6.5 2.4.1.4.7-.3.7-.5 0-.6 0-1.1.1-1.7.1.7.3 2.3 1.3 2.1.4-.1.7-.4.8-.7.1.3.4.6.7.5.3 0 .6-.3.8-.6 0 .3.2.5.5.5.4 0 .8-.2 1-.5.1-.1.2-.3.2-.4v.2c0 .2.1.5.3.7.2.2.5.1.7-.1.2-.2.4-.4.5-.6.1.5.3.9.7 1 .4.1.8-.3 1-.6.2-.4.4-.8.4-1.2 0-.3.1-.7 0-1.1.3 0 .5-.1.7-.2 0 1.1-.2 2.2-.4 3.3 0 .2.2.2.3.2.2-.1.4-.2.5-.4.1-.3.2-.7.3-1 .4.5 0 1.1.3 1.6.2.2.7.2.9.1.1-.1.2-.1.3-.2.1.4.2.7.5.8.4.2.9-.1 1.1-.4.3-.3.5-.7.6-1.1.4-1.2.6-2.5-.3-2.8zM248 40.6c0 .1 0 .2-.1.2-.2 0-.3-.3-.3-.4-.1-.3-.2-.6-.2-.9s0-.7.1-1c0-.1 0-.2.1-.2.4.1.5 1 .5 1.3-.1.3-.1.6-.1 1zm5 .1c0 .1-.1.2-.1.2-.2-.1-.2-.3-.3-.5-.1-.3-.1-.6-.1-.9s.1-.6.2-.9c0-.1.1-.2.1-.2.4.3.4.9.4 1.4 0 .3-.1.6-.2.9zm5 1.3c0 .1-.1.1-.1.2-.1-.1-.2-.4-.2-.5v-1l.3-.9c0-.1.1-.1.1-.2.3.4.3 1 .2 1.5l-.3.9z"/><circle class="st5" cx="259.9" cy="28.5" r="6.4"/><path class="st6" d="M258.3 27.6c-.5.1-.7.7-.7 1.1v.8c0 .1 0 .2-.1.3-.2 0-.3-.3-.4-.4-.1-.3-.2-.7-.3-1-.1-.4-.1-.8-.1-1.1v-.5V26.5c0-.3-.3 0-.4.1-.4.7-.3 1.6-.3 2.4v.7c0 .1-.1.4-.2.5-.1.1-.2 0-.3 0-.1-.1-.2-.2-.2-.3 0-.1-.2-.1-.2 0-.1.1-.2.3-.2.4 0 .3.3.5.6.5.5-.1.7-.7.8-1.2.1-.2.1-.4.1-.6l.3.9c.1.2.3.4.6.4.2 0 .3-.3.4-.5.1.2.2.4.5.3.3 0 .5-.3.6-.5.1-.3.2-.5.1-.8.1-.4 0-1.2-.6-1.2zm.2 1.9v.2c-.1 0-.2-.2-.2-.2-.1-.2-.1-.4-.1-.6v-.6-.2c.3.2.3.5.3.8v.6zM264.7 28.4c-.6-.2-.9.6-1 1-.1.4-.2 1.1.3 1.3.2.1.5-.1.7-.2.2-.2.3-.4.4-.7 0-.5.1-1.2-.4-1.4zm-.4 1.8c-.2 0-.2-.1-.2-.2v-.6s.1-.4.2-.6l.1-.1c.2.3.2.6.1.9 0 .2-.1.4-.2.6z"/><path class="st6" d="M263.1 28.5c.1-.1.2-.3.3-.4.2-.3.4-.7.4-1.1s-.5-.4-.8-.3c-.4.2-.6.6-.7.9-.1.5-.2 1-.2 1.5-.2.2-.6.7-.8.5-.1 0-.1-.1-.1-.2.2-.3.4-.5.6-.8s.3-.7 0-.9c-.3-.2-.6 0-.8.2s-.3.5-.3.8v.7c-.2.1-.4.2-.6.1-.2 0-.3-.3-.3-.5-.1-.3 0-.5 0-.8 0-.1 0-.2.1-.2v-.1c.1.1.2.3.2.4.1.2.5-.1.5-.3-.1-.2-.1-.4-.3-.5s-.5.1-.6.2c-.3.3-.4.9-.4 1.3 0 .3.1.7.3.8.3.2.8 0 1.2-.2.1.2.3.4.5.3.3 0 .7-.2.9-.5 0 .3.1.6.3.7.3.2.7 0 .9-.3.3-.3.4-.8.3-1.2-.3 0-.4-.1-.6-.1zm-1.9-.2c0-.1 0-.1.1-.2.1 0 .2.2.1.3 0 .2-.2.4-.3.6v-.1c0-.2 0-.4.1-.6zm1.8-1.1c0-.1.1-.1.1-.2.2.2 0 .6-.1.8-.1.2-.3.5-.4.7 0-.2.1-.4.1-.7l.3-.6zm-.1 2.6c0 .1 0 .1 0 0l-.1.1c-.1-.1-.2-.4-.2-.5v-.3l.2-.2c.1-.1.2.1.2.2.1.2 0 .5-.1.7z"/><g><path class="st6" d="M238.2 48.9c.1-.4.4-.1.5.1.1.2 0 .5-.2.7-.1.2-.3.3-.5.4-.1.1-.2.1-.2.2v.1c.1.1.4.1.5.1.3 0 .6 0 .8-.1.1-.1.3-.4 0-.3-.2.1-.4.1-.6.1-.1 0-.3 0-.4-.1v.1c-.1.2 0 .1 0 0 .1-.1.2-.1.2-.2.1-.1.3-.2.4-.4.2-.3.4-.6.3-1-.1-.8-1-.2-1.2.2 0 .4.4.2.4.1zM240.3 50.2c.3.9 1.6.3 1.4-.5-.1-.4-.6-.3-.9-.4-.2-.1-.2-.2-.2-.4.1-.2 0-.2-.1-.1h.2c.3-.1.6 0 .8.1.1.1.4-.2.2-.3-.3-.2-.7-.1-1-.1-.3.1-.4.4-.4.7 0 .4.3.4.6.5.2 0 .4.1.4.4 0 .4-.4.4-.6.2-.1-.1-.1-.2-.2-.3 0-.2-.3.1-.2.2zM243.3 48.6c-.4.6-.8 1.2-1.3 1.8-.2.3.1.2.2.1.5-.6.9-1.2 1.3-1.9.3-.3-.1-.1-.2 0zM242.6 48.4c-.2 0-.4.2-.4.4s.1.4.3.4c.4.1.6-.7.1-.8-.1 0-.3.2-.1.2.1 0 .2.1.2.2v.1h-.1s-.2-.1-.2-.2v-.1h.1c.1.1.3-.2.1-.2zM243.3 49.7c-.2 0-.4.2-.4.4s.1.4.3.4c.4.1.6-.7.1-.8-.1 0-.3.2-.1.2.1 0 .2.1.2.2v.1h-.1s-.2-.1-.2-.2v-.1h.1c0 .1.2-.2.1-.2zM239.7 51c.2-.1.3-.4.3-.6v-.2c-.1-.1-.2 0-.3 0s-.2.2-.2.3.1.1.2.1v.2s-.2.2-.1.2c0 .1.1 0 .1 0z"/></g><g><path class="st7" d="M235.8 34.2c-.1 0-.1-.1-.2-.1-.2-.1-.4.1-.7.1-.6 0-.8 0-1.4-.2 0-.6.3-.9.5-1.4.1-.4-.1-.9-.1-1.3v-.8c-.2.2-.1.7-.1 1-.1-.3-.1-.8-.2-1.1-.1.3 0 .8 0 1.1-.1-.3-.1-.7-.2-1-.2.3.1.8.1 1.1l-.3-.9c0 .4.1.7.1.9-.1-.2-.2-.5-.3-.6 0 .2.2.5.2.7-.2-.1-.2-.3-.4-.3 0 .2.1.3.2.4-.1-.1-.2-.2-.3-.2 0 .2.2.2.2.4l-.2-.2c0 .1.2.2.2.3 0 0-.1-.1-.1 0l.1.1h-.1c0 .1.1.1.1.2h-.1c0 .1.1.1.1.1-.5.5-.2 1-.3 1.6 0-.1-.4-.2-.7-.3-.2-.1-.2-.3-.4-.3l.1-.1c-.1 0-.1 0-.1-.1h.2c-.1 0-.3-.1-.3-.2.1 0 .2.1.3.1-.1-.1-.4-.2-.4-.3.1 0 .3.2.4.1-.2-.1-.5-.3-.5-.4.1.1.3.2.5.2-.2-.1-.4-.3-.7-.3.1.2.5.3.5.5l-.6-.3c.1.2.3.3.5.4-.2 0-.3-.1-.5-.1.1.2.3.1.4.3h-.3c0 .1.2.1.3.2-.1 0-.2 0-.2.1.1.1.2 0 .2.1-.1 0-.1 0-.1.1 0 0 .1 0 .2.1 0 0-.1 0-.1.1h.1l-.1.1c.3.1.4.6.7.7-.2.1.2.3-2 1 .1 0 1-.2 1.3-.3.3-.1.6-.2.8-.3.1 0 .1 0 .2-.1.5 0 .9 0 1.3-.3-.3.1-.9.1-1.2-.1.3-.5.1-1.7.3-1.9.3-.2.6-1 1.1-.4.1.1.1.3-.1.5-.2.3-.3.5-.3 1.2 0 .1 0 .3-.2.3 1 .2 1.3.1 1.8 0 .2 0 .5-.2.5 0 0 .1-.2.1-.3.1-.3 0 .1.1.2.1s.6-.1.8-.1c-.1-.2-.2-.2-.4-.3z"/><path class="st7" d="M233 29.3c-2.2 0-4 1.8-4 4s1.8 4 4 4 4-1.8 4-4-1.8-4-4-4m0 .1c2.1 0 3.9 1.7 3.9 3.9 0 2.1-1.7 3.9-3.9 3.9-2.1 0-3.9-1.7-3.9-3.9 0-2.1 1.7-3.9 3.9-3.9"/></g></g></g><g id="_x33_"><g id="butylka_3"><path class="st0" d="M343.8 78.5V18L335-11.4c2.3-13.2-4-17.1-4-17.1v-4.8h1.3v-6.8l-2.3-1.5h-18.2s-2.3-.2-2.3 1.5v6.8h1.4v4.8h-.1s-6.3 4-4 17.1c0 0-8.8 8.1-8.8 29.4v60.5s-.9 13 8.7 13h28.2c9.8 0 8.9-13 8.9-13z"/><path class="st1" d="M338.8 75.5V15L330-14.4c2.3-13.2-4-17.1-4-17.1v-4.9h-20v4.9h-.1s-6.3 4-4 17.1c0 0-8.8 8.1-8.8 29.4v60.5s-.9 13 8.7 13h28.4c9.5 0 8.6-13 8.6-13z"/><path class="st2" d="M325-44.6h-18.2s-2.3-.2-2.3 1.5v6.8h22.8v-6.8l-2.3-1.5z"/><path class="st3" d="M338.7 75.5V15l-8.8-29.4c2.3-13.2-4-17.1-4-17.1v-4.9h-10.1V88.5H330c9.6 0 8.7-13 8.7-13z"/><path class="st6" d="M300.5 8h-.3c-1.4-.2-2.4-1.5-2.2-2.8 1.1-8.7 5.4-14 5.5-14.3.9-1.1 2.5-1.3 3.6-.4s1.3 2.5.4 3.5c0 .1-3.5 4.5-4.5 11.7-.2 1.4-1.3 2.3-2.5 2.3z"/><circle class="st9" cx="316.2" cy="38" r="11.1"/><circle class="st5" cx="307.4" cy="47.9" r="3.5"/><path class="st9" d="M311 24.5c0 .8-.6 1.4-1.4 1.4-.8 0-1.4-.6-1.4-1.4s.6-1.4 1.4-1.4c.7-.1 1.4.6 1.4 1.4z"/><path class="st5" d="M311 29.2c0 1-.8 1.8-1.8 1.8s-1.8-.8-1.8-1.8.8-1.8 1.8-1.8 1.8.8 1.8 1.8zM306.2 26.4c0 .6-.5 1.1-1.1 1.1-.6 0-1.1-.5-1.1-1.1s.5-1.1 1.1-1.1c.6 0 1.1.5 1.1 1.1z"/><path class="st6" d="M324.4 38c-.9-.3-1.4.8-1.5 1.5-.2.7-.4 1-.5 1-.2-.1-.1-.4-.1-.5 0-.3 0-.6-.1-.9-.1-.2-.4-.3-.6-.3v-.1s0-.1.1-.1c.1-.2.2-.4.4-.6.1 0 .2.2.2.2.2.2 1-.1.8-.4-.3-.3-.6-.4-.9-.3-.2 0-.4.1-.6.3l-.1.1v-1.2c0-.2-.5-.1-.7.1l-.1.1c-.1.3-.6.4-1 .1-.1-.1-.2-.1-.4-.2-.9-.1-1.3 1-1.3 1.7 0 .5-.3 1.1-.6 1.2-.1-.1-.1-.1-.1-.2-.1-.2-.1-.5-.2-.7-.1-.7-.1-1.4-.1-2 0-.1-.1-.2-.3-.1s-.4.2-.5.4c-.3.6-.4 1.3-.5 1.9 0 .2 0 .4-.1.5v.2c-.1 0-.3-.2-.3-.3 0-.2-.3-.1-.5.1.1-.3.2-.7.2-1 0-.6-.2-1.8-1-1.8-.9.1-1.1 1.2-1.1 1.9s-.1 1.2-.1 1.3c-.4.1-.6-.4-.7-.6-.2-.5-.3-.9-.3-1.4-.1-.8-.2-1.6-.1-2.5 0-.1-.2-.1-.3-.1-.2.1-.4.3-.4.4-.3.6-.3 1.3-.4 1.9v-.2c-.1-.5-.2-1-.2-1.5 0-.3-.1-.7 0-1 .1-.4-.5 0-.6.2-.6 1.2-.4 2.5-.4 3.8 0 .3 0 .7-.1 1 0 .2-.1.6-.3.8-.1.1-.3 0-.4 0-.2-.1-.3-.3-.3-.4 0-.2-.2-.1-.3 0-.1.1-.3.4-.3.6.1.4.5.8.9.7.8-.2 1.1-1.1 1.2-1.9.1-.4.1-.8.1-1.3.2.8.3 1.5.5 2.3.1.4.6-.3.6-.5 0-.5 0-1.1.1-1.6.1.7.3 2.2 1.2 2 .4-.1.6-.4.8-.7.1.3.4.5.7.5s.6-.3.8-.6c0 .3.2.5.5.5.4 0 .8-.2 1-.5.1-.1.2-.3.2-.4v.2c0 .2.1.5.3.6.2.2.5.1.7-.1.2-.1.4-.4.5-.6.1.4.2.8.7.9.4.1.8-.3 1-.6.2-.3.3-.8.4-1.2 0-.2.1-.7 0-1.1.3 0 .5-.1.7-.2 0 1.1-.2 2.1-.4 3.2 0 .2.2.2.3.2.2 0 .4-.2.4-.4.1-.3.2-.6.3-1 .4.5 0 1.1.3 1.5.2.2.6.2.9.1.1-.1.2-.1.2-.2.1.3.2.6.5.8.4.2.8-.1 1-.4.3-.3.4-.7.5-1.1.4-.6.6-1.8-.2-2zm-10.1 1.4c0 .1 0 .2-.1.2-.2 0-.3-.3-.3-.4-.1-.3-.2-.6-.2-.9s0-.6.1-.9c0-.1 0-.2.1-.2.4.1.5 1 .5 1.2 0 .4 0 .7-.1 1zm4.8.2c0 .1-.1.2-.1.2-.2-.1-.2-.3-.3-.4-.1-.3-.1-.6-.1-.9s.1-.6.2-.9c0-.1.1-.1.1-.2.4.3.4.9.3 1.3.1.3 0 .6-.1.9zm4.8 1.2c0 .1-.1.1-.1.2-.1-.1-.2-.4-.2-.5v-.9c.1-.3.1-.6.3-.9 0-.1.1-.1.1-.2.3.4.2.9.1 1.4 0 .3-.1.6-.2.9z"/><circle class="st5" cx="325.7" cy="27.9" r="6.1"/><path class="st6" d="M324.2 27.1c-.5.1-.6.7-.7 1.1v.7s0 .2-.1.2c-.2 0-.3-.3-.4-.4-.1-.3-.2-.6-.3-1-.1-.4-.1-.7-.1-1.1v-.4V25.9c0-.3-.3 0-.4.1-.4.7-.3 1.5-.3 2.3v.6c0 .1 0 .4-.2.5-.1.1-.2 0-.3 0-.1-.1-.2-.2-.2-.3 0-.1-.1-.1-.2 0s-.2.2-.2.4c0 .3.3.5.6.4.5-.1.7-.7.8-1.1.1-.2.1-.4.1-.6l.3.9c.1.2.3.4.5.4s.3-.2.4-.5c.1.2.2.3.5.3s.5-.3.6-.5c.1-.2.1-.5.1-.8.1-.2 0-1-.5-.9zm.1 1.7c-.1.1-.2-.1-.2-.1-.1-.2-.1-.4-.1-.5v-.7c.3.2.3.5.3.8.1.1.1.3 0 .5zM330.3 27.8c-.5-.2-.9.5-1 .9-.1.4-.2 1.1.3 1.3.2.1.5-.1.6-.2.2-.2.3-.4.3-.7.1-.4.3-1.1-.2-1.3zm-.4 1.7s0 .1-.1.1c-.1-.1-.1-.2-.1-.3v-.6s.1-.4.2-.5c0 0 0-.1.1-.1.2.2.2.6.1.9 0 .2-.1.4-.2.5z"/><path class="st6" d="M328.8 27.9c.1-.1.2-.3.3-.4.2-.3.4-.7.4-1 0-.4-.5-.4-.7-.3-.3.2-.5.5-.7.9-.1.5-.2.9-.2 1.4-.2.2-.5.6-.8.4-.1 0-.1-.1-.1-.2.2-.2.4-.5.6-.8.2-.2.3-.7 0-.8-.3-.1-.6 0-.8.2-.2.2-.3.5-.3.8v.6c-.2.1-.4.2-.5.1-.2 0-.3-.3-.3-.4-.1-.3 0-.5 0-.8 0-.1 0-.2.1-.2v-.1c.1.1.2.3.2.3.1.2.5-.1.5-.3-.1-.2-.1-.4-.3-.5-.2-.1-.5.1-.6.2-.3.3-.4.8-.3 1.3 0 .3.1.6.3.8.3.2.8 0 1.1-.2.1.2.2.4.5.3.3 0 .6-.2.9-.5 0 .2.1.5.2.6.3.2.6 0 .8-.3.2-.3.4-.8.2-1.1h-.5zm-1.9-.2c0-.1 0-.1.1-.2.1 0 .2.2.1.3 0 .2-.2.4-.3.6v-.1c0-.2.1-.5.1-.6zm1.8-1c0-.1.1-.1.1-.2.2.2 0 .6-.1.8-.1.2-.2.4-.4.6 0-.2.1-.4.1-.6.1-.3.2-.5.3-.6zm-.1 2.5s-.1 0 0 0l-.1.1c-.1-.1-.1-.4-.2-.5v-.3l.2-.2c.1-.1.2.1.2.2.1.2 0 .5-.1.7z"/><g><path class="st6" d="M305 47.3c.1-.2.3-.2.4-.1.2.1-.1.4-.2.4-.1.1-.3.2-.2.4 0 .1.3.1.4.1.2 0 .2.1.2.3-.1.3-.5.1-.6 0-.1-.1-.4.2-.3.3.4.4.9.1 1.1-.3.1-.1.1-.4 0-.5s-.4-.1-.5-.1h-.1l.2-.2c.1-.1.2-.2.2-.3.1-.2.1-.4-.1-.5-.4-.3-.8.2-.9.5 0 .3.3.1.4 0zM306.8 48.6c.3.8 1.6.3 1.4-.5-.1-.4-.5-.3-.8-.4-.2 0-.2-.2-.2-.3.1-.2 0-.2-.1-.1h.1c.3 0 .5 0 .8.1.1.1.4-.2.2-.3-.3-.2-.7-.1-1 0-.3.1-.4.4-.4.7 0 .4.3.4.6.5.2 0 .4.1.4.3 0 .4-.4.3-.6.2-.1-.1-.1-.2-.2-.3.1-.3-.2 0-.2.1zM309.8 47c-.4.6-.8 1.2-1.2 1.7-.2.2.1.2.2.1.4-.6.9-1.2 1.3-1.8.1-.2-.2-.1-.3 0zM309.1 46.9c-.2 0-.4.2-.4.4s.1.4.3.4c.4 0 .6-.8.1-.8-.1 0-.3.2-.1.2.1 0 .2.1.2.2v.1h-.1c-.1 0-.2-.1-.2-.2v-.1c.2 0 .3-.2.2-.2zM309.7 48.1c-.2 0-.4.2-.4.4s.1.4.3.4c.4 0 .6-.7.1-.8-.1 0-.3.2-.1.2.1 0 .2.1.2.2v.1h-.1s-.2-.1-.2-.2v-.1c.2.1.4-.2.2-.2zM306.2 49.3c.2-.1.3-.4.3-.6v-.2c-.1-.1-.2 0-.3 0-.1 0-.2.1-.2.2s.1.1.2.1v.2l-.1.2c-.1.3 0 .2.1.1z"/></g><g><path class="st7" d="M302.8 33.4c-.1 0-.1-.1-.2-.1-.2-.1-.4.1-.6.1-.5 0-.7 0-1.3-.2 0-.6.3-.9.5-1.3.1-.4 0-.8-.1-1.3v-.8c-.2.2-.1.7-.1.9-.1-.3-.1-.8-.2-1-.1.3 0 .7 0 1-.1-.3-.1-.6-.2-.9-.1.3.1.7.1 1-.1-.3-.2-.6-.3-.8 0 .4.1.6.1.9-.1-.2-.2-.5-.3-.6 0 .2.1.5.2.7-.2-.1-.2-.3-.4-.3 0 .2.1.3.2.4-.1-.1-.2-.2-.3-.2 0 .2.1.2.2.3-.1-.1-.1-.1-.2-.1 0 .1.2.2.2.3 0 0-.1-.1-.1 0l.1.1h-.1c0 .1.1.1.1.1h-.1c0 .1.1 0 0 .1-.5.5-.2 1-.3 1.5 0-.1-.4-.2-.7-.3-.2-.1-.2-.3-.3-.3h.1c-.1 0-.1 0-.1-.1h.2c-.1 0-.3-.1-.3-.2.1 0 .2.1.3 0-.1-.1-.4-.2-.4-.3.1 0 .3.2.4.1-.2-.1-.5-.2-.5-.4.1.1.3.2.5.2-.2-.1-.4-.3-.6-.3.1.2.4.3.5.5-.2-.1-.4-.2-.5-.3.1.2.3.3.5.4-.2 0-.3-.1-.4-.1 0 .2.3.1.4.3h-.3c0 .1.2.1.3.1h-.2c.1.1.2 0 .2.1h-.1.2s-.1 0 0 .1h0c.2.1.4.5.7.6-.2.1.2.2-2 1 .1 0 .9-.2 1.2-.3.3-.1.5-.2.8-.2.1 0 .1 0 .2-.1.4 0 .8 0 1.3-.2-.3.1-.9.1-1.1-.1.3-.5.1-1.6.3-1.8.2-.2.6-1 1-.3.1.1.1.2-.1.5s-.3.5-.3 1.2c0 .1 0 .3-.2.3.9.2 1.2.1 1.7 0 .2 0 .4-.2.5 0 0 .1-.2.1-.3.1-.3 0 .1.1.2 0 .1.1.5 0 .8 0h-.8z"/><path class="st7" d="M300 28.6c-2.1 0-3.8 1.7-3.8 3.8 0 2.1 1.7 3.8 3.8 3.8s3.8-1.7 3.8-3.8c.1-2.1-1.6-3.8-3.8-3.8m0 .2c2 0 3.7 1.7 3.7 3.7s-1.7 3.7-3.7 3.7-3.7-1.7-3.7-3.7c.1-2.1 1.7-3.7 3.7-3.7"/></g></g></g></svg>