<svg id="Layer_1" xmlns="http://www.w3.org/2000/svg" viewBox="-232 295.9 130 250"><style>.st0{fill:#519E38;} .st1{fill:#F4F4F4;} .st2{fill:#D6D6D6;} .st3{fill:#EAEAEA;} .st4{fill:#FFFFFF;} .st5{fill:#119BD7;} .st6{fill:#62BA47;} .st7{fill:#63B746;}</style><g id="_x32_"><g id="butylka_2"><path class="st0" d="M-125.2 510.2v-98.5l-14.3-47.9c3.7-21.5-6.5-27.8-6.5-27.8v-7.8h2.1v-11.1l-3.7-2.4h-29.7s-3.7-.3-3.7 2.4v11.1h2.3v7.8h-.2s-10.3 6.5-6.5 27.8c0 0-14.3 13.2-14.3 47.9v98.5s-1.5 21.2 14.2 21.2h46c15.8-.1 14.3-21.2 14.3-21.2z"/><path class="st1" d="M-132.9 505.3v-98.5l-14.3-47.9c3.7-21.5-6.5-27.8-6.5-27.8v-8h-32.6v8h-.2s-10.3 6.5-6.5 27.8c0 0-14.3 13.2-14.3 47.9v98.5s-1.5 21.2 14.2 21.2h46.2c15.5 0 14-21.2 14-21.2z"/><path class="st2" d="M-155.3 309.8H-185s-3.7-.3-3.7 2.4v11.1H-151.6v-11.1c0-2.7-3.7-2.4-3.7-2.4z"/><path class="st3" d="M-132.9 505.3v-98.5l-14.3-47.9c3.7-21.5-6.5-27.8-6.5-27.8v-8h-16.4v203.3h23.1c15.6.1 14.1-21.1 14.1-21.1z"/><path class="st4" d="M-195.2 395.4h-.5c-2.3-.3-3.9-2.4-3.6-4.6 1.8-14.2 8.8-22.8 9-23.3 1.5-1.8 4.1-2.1 5.9-.7 1.8 1.5 2.1 4.1.7 5.7 0 .2-5.7 7.3-7.3 19-.3 2.5-2.1 3.9-4.2 3.9z"/><circle class="st5" cx="-169.8" cy="446" r="18.9"/><circle class="st6" cx="-184.9" cy="463" r="6"/><path class="st5" d="M-178.8 422.9c0 1.3-1.1 2.4-2.4 2.4s-2.4-1.1-2.4-2.4c0-1.3 1.1-2.4 2.4-2.4s2.4 1.1 2.4 2.4z"/><path class="st6" d="M-178.8 431.1c0 1.8-1.5 3.1-3.1 3.1-1.8 0-3.1-1.5-3.1-3.1 0-1.8 1.5-3.1 3.1-3.1 1.8 0 3.1 1.4 3.1 3.1zM-187.1 426.3c0 1-.8 1.8-1.8 1.8s-1.8-.8-1.8-1.8.8-1.8 1.8-1.8c1-.1 1.8.9 1.8 1.8z"/><path class="st4" d="M-156 445.9c-1.5-.5-2.3 1.5-2.6 2.6-.3 1.1-.7 1.6-.8 1.6-.3-.2-.2-.7-.2-1 0-.5 0-1-.2-1.5-.2-.3-.7-.5-1-.5v-.1s0-.2.2-.2c.2-.3.3-.8.7-1 .2 0 .3.3.5.3.3.5 1.6-.3 1.3-.7-.5-.5-1.1-.7-1.6-.5-.3 0-.7.3-1 .5l-.2.2v-2c0-.3-.8-.2-1.1.2l-.2.2c-.2.5-1 .7-1.6.2-.2-.2-.3-.3-.7-.3-1.6-.2-2.1 1.6-2.3 2.9 0 .8-.5 1.8-1 2-.2-.2-.2-.2-.2-.3-.2-.3-.2-.8-.3-1.3-.2-1.1-.2-2.3-.2-3.4 0-.2-.2-.3-.5-.2s-.7.3-.8.7c-.5 1-.7 2.1-.8 3.3 0 .3 0 .7-.2 1v.3c-.2 0-.5-.3-.5-.5 0-.5-.5-.2-.8.2.2-.7.3-1.1.3-1.8 0-1-.3-3.1-1.6-2.9-1.5.2-1.8 2-2 3.3 0 1.1-.2 2.1-.2 2.3-.7.2-1-.7-1.1-1-.3-.8-.5-1.6-.7-2.4-.2-1.5-.3-2.8-.2-4.2 0-.2-.3-.2-.5-.2-.3.2-.7.5-.7.7-.5 1-.5 2.1-.7 3.3v-.3c-.2-.8-.3-1.8-.3-2.6 0-.5-.2-1.3 0-1.6.2-.8-1 0-1.1.3-1 2-.7 4.2-.7 6.5 0 .5 0 1.1-.2 1.8 0 .3-.2 1.1-.5 1.5-.2.2-.7 0-.8 0-.3-.2-.5-.5-.5-.8s-.3-.2-.7 0c-.2.2-.5.7-.5 1 .2.8.8 1.5 1.6 1.1 1.3-.5 1.8-2 2.1-3.1.2-.7.2-1.5.2-2.1.3 1.3.5 2.6.8 3.9.2.7 1.1-.5 1.1-.8 0-1 0-1.8.2-2.8.2 1.1.5 3.7 2.1 3.4.7-.2 1.1-.7 1.3-1.1.2.5.7 1 1.1.8.5 0 1-.5 1.3-1 0 .5.3.8.8.8.7 0 1.3-.3 1.6-.8.2-.2.3-.5.3-.7v.3c0 .3.2.8.5 1.1s.8.2 1.1-.2.7-.7.8-1c.2.8.5 1.5 1.1 1.6s1.3-.5 1.6-1c.3-.7.7-1.3.7-2 0-.5.2-1.1 0-1.8.5 0 .8-.2 1.1-.3 0 1.8-.3 3.6-.7 5.4 0 .3.3.3.5.3.3-.2.7-.3.8-.7.2-.5.3-1.1.5-1.6.7.8 0 1.8.5 2.6.3.3 1.1.3 1.5.2.2-.2.3-.2.5-.3.2.7.3 1.1.8 1.3.7.3 1.5-.2 1.8-.7.5-.5.8-1.1 1-1.8 1.4-2 1.7-4.1.2-4.6zm-17.1 2.6c0 .2 0 .3-.2.3-.3 0-.5-.5-.5-.7-.2-.5-.3-1-.3-1.5s0-1.1.2-1.6c0-.2 0-.3.2-.3.7.2.8 1.6.8 2.1-.2.5-.2 1-.2 1.7zm8.2.1c0 .2-.2.3-.2.3-.3-.2-.3-.5-.5-.8-.2-.5-.2-1-.2-1.5s.2-1 .3-1.5c0-.2.2-.3.2-.3.7.5.7 1.5.7 2.3 0 .6-.2 1.1-.3 1.5zm8.1 2.2c0 .2-.2.2-.2.3-.2-.2-.3-.7-.3-.8v-1.6c.2-.5.3-1 .5-1.5 0-.2.2-.2.2-.3.5.7.5 1.6.3 2.4-.2.5-.3 1-.5 1.5z"/><circle class="st6" cx="-153.7" cy="428.8" r="10.4"/><path class="st4" d="M-156.3 427.3c-.8.2-1.1 1.1-1.1 1.8v1.3c0 .2 0 .3-.2.5-.3 0-.5-.5-.7-.7-.2-.5-.3-1.1-.5-1.6-.2-.7-.2-1.3-.2-1.8v-.8-.5c0-.5-.5 0-.7.2-.7 1.1-.5 2.6-.5 3.9v1.1c0 .2-.2.7-.3.8-.2.2-.3 0-.5 0-.2-.2-.3-.3-.3-.5s-.3-.2-.3 0c-.2.2-.3.5-.3.7 0 .5.5.8 1 .8.8-.2 1.1-1.1 1.3-2 .2-.3.2-.7.2-1 .2.5.3 1 .5 1.5.2.3.5.7 1 .7.3 0 .5-.5.7-.8.2.3.3.7.8.5.5 0 .8-.5 1-.8.2-.5.3-.8.2-1.3 0-.7-.1-2-1.1-2zm.3 3.1v.3c-.2 0-.3-.3-.3-.3-.2-.3-.2-.7-.2-1v-1-.3c.5.3.5.8.5 1.3v1zM-145.9 428.6c-1-.3-1.5 1-1.6 1.6s-.3 1.8.5 2.1c.3.2.8-.2 1.1-.3.3-.3.5-.7.7-1.1 0-.8.1-2-.7-2.3zm-.6 3c-.3 0-.3-.2-.3-.3v-1s.2-.7.3-1l.2-.2c.3.5.3 1 .2 1.5-.1.3-.3.6-.4 1z"/><path class="st4" d="M-148.5 428.8c.2-.2.3-.5.5-.7.3-.5.7-1.1.7-1.8s-.8-.7-1.3-.5c-.7.3-1 1-1.1 1.5-.2.8-.3 1.6-.3 2.4-.3.3-1 1.1-1.3.8-.2 0-.2-.2-.2-.3.3-.5.7-.8 1-1.3.3-.5.5-1.1 0-1.5-.5-.3-1 0-1.3.3s-.5.8-.5 1.3v1.1c-.3.2-.7.3-1 .2-.3 0-.5-.5-.5-.8-.2-.5 0-.8 0-1.3 0-.2 0-.3.2-.3v-.2c.2.2.3.5.3.7.2.3.8-.2.8-.5-.2-.3-.2-.7-.5-.8-.3-.2-.8.2-1 .3-.5.5-.7 1.5-.7 2.1 0 .5.2 1.1.5 1.3.5.3 1.3 0 2-.3.2.3.5.7.8.5.5 0 1.1-.3 1.5-.8 0 .5.2 1 .5 1.1.5.3 1.1 0 1.5-.5.5-.5.7-1.3.5-2-.6.1-.8 0-1.1 0zm-3.1-.3c0-.2 0-.2.2-.3.2 0 .3.3.2.5 0 .3-.3.7-.5 1v-.2c0-.4 0-.7.1-1zm3-1.8c0-.2.2-.2.2-.3.3.3 0 1-.2 1.3-.2.3-.5.8-.7 1.1 0-.3.2-.7.2-1.1.1-.4.3-.7.5-1zm-.2 4.2c0 .2 0 .2 0 0l-.2.2c-.2-.2-.3-.7-.3-.8v-.5l.3-.3c.2-.2.3.2.3.3.2.3.1.8-.1 1.1z"/><g><path class="st4" d="M-189 462c.2-.7.7-.2.8.2.2.3 0 .8-.3 1.1-.2.3-.5.5-.8.7-.2.2-.3.2-.3.3v.2c.2.2.7.2.8.2.5 0 1 0 1.3-.2.2-.2.5-.7 0-.5-.3.2-.7.2-1 .2-.2 0-.5 0-.7-.2v.2c-.2.3 0 .2 0 0 .2-.2.3-.2.3-.3.2-.2.5-.3.7-.7.3-.5.7-1 .5-1.6-.2-1.3-1.6-.3-2 .3 0 .6.7.3.7.1zM-185.6 464.1c.5 1.5 2.6.5 2.3-.8-.2-.7-1-.5-1.5-.7-.3-.2-.3-.3-.3-.7.2-.3 0-.3-.2-.2h.3c.5-.2 1 0 1.3.2.2.2.7-.3.3-.5-.5-.3-1.1-.2-1.6-.2-.5.2-.7.7-.7 1.1 0 .7.5.7 1 .8.3 0 .7.2.7.7 0 .7-.7.7-1 .3-.2-.2-.2-.3-.3-.5 0-.1-.5.3-.3.5zM-180.7 461.5c-.7 1-1.3 2-2.1 2.9-.3.5.2.3.3.2.8-1 1.5-2 2.1-3.1.5-.5-.1-.2-.3 0zM-181.8 461.2c-.3 0-.7.3-.7.7s.2.7.5.7c.6 0 1-1.3.2-1.4-.2 0-.5.3-.2.3.2 0 .3.2.3.3v.2h-.2c-.2 0-.3-.2-.3-.3v-.2h.2c.2.2.5-.3.2-.3zM-180.7 463.3c-.3 0-.7.3-.7.7s.2.7.5.7c.7.1 1-1.2.2-1.4-.2 0-.5.3-.2.3.2 0 .3.2.3.3v.2h-.2s-.3-.2-.3-.3v-.2h.2c0 .2.4-.3.2-.3zM-186.6 465.4c.3-.2.5-.7.5-1v-.3c-.2-.2-.3 0-.5 0s-.3.3-.3.5.2.2.3.2v.4s-.3.3-.2.3c.1.1.2-.1.2-.1z"/></g><g><path class="st7" d="M-192.9 438.1c-.2 0-.2-.2-.3-.2-.3-.2-.7.2-1.1.2-1 0-1.3 0-2.3-.3 0-1 .5-1.5.8-2.3.2-.7-.2-1.5-.2-2.1v-1.3c-.3.3-.2 1.1-.2 1.6-.2-.5-.2-1.3-.3-1.8-.2.5 0 1.3 0 1.8-.2-.5-.2-1.1-.3-1.6-.3.5.2 1.3.2 1.8-.2-.5-.3-1-.5-1.5 0 .7.2 1.1.2 1.5-.2-.3-.3-.8-.5-1 0 .3.3.8.3 1.1-.3-.2-.3-.5-.7-.5 0 .3.2.5.3.7-.2-.2-.3-.3-.5-.3 0 .3.3.3.3.7l-.3-.3c0 .2.3.3.3.5 0 0-.2-.2-.2 0l.2.2h-.2c0 .2.2.2.2.3h-.2c0 .2.2.2.2.2-.8.8-.3 1.6-.5 2.6 0-.2-.7-.3-1.1-.5-.3-.2-.3-.5-.7-.5l.2-.2c-.2 0-.2 0-.2-.2h.3c-.2 0-.5-.2-.5-.3.2 0 .3.2.5.2-.2-.2-.7-.3-.7-.5.2 0 .5.3.7.2-.3-.2-.8-.5-.8-.7.2.2.5.3.8.3-.3-.2-.7-.5-1.1-.5.2.3.8.5.8.8-.3-.2-.7-.3-1-.5.2.3.5.5.8.7-.3 0-.5-.2-.8-.2.2.3.5.2.7.5h-.5c0 .2.3.2.5.3-.2 0-.3 0-.3.2.2.2.3 0 .3.2-.2 0-.2 0-.2.2 0 0 .2 0 .3.2 0 0-.2 0-.2.2h.2l-.2.2c.5.2.7 1 1.1 1.1-.3.2.3.5-3.3 1.6.2 0 1.6-.3 2.1-.5s1-.3 1.3-.5c.2 0 .2 0 .3-.2.8 0 1.5 0 2.1-.5-.5.2-1.5.2-2-.2.5-.8.2-2.8.5-3.1.5-.3 1-1.6 1.8-.7.2.2.2.5-.2.8-.3.5-.5.8-.5 2 0 .2 0 .5-.3.5 1.6.3 2.1.2 2.9 0 .3 0 .8-.3.8 0 0 .2-.3.2-.5.2-.5 0 .2.2.3.2.2 0 1-.2 1.3-.2.3-.5.1-.5-.2-.6z"/><path class="st7" d="M-197.5 430.1c-3.6 0-6.5 2.9-6.5 6.5s2.9 6.5 6.5 6.5 6.5-2.9 6.5-6.5-2.9-6.5-6.5-6.5m0 .2c3.4 0 6.3 2.8 6.3 6.3 0 3.4-2.8 6.3-6.3 6.3-3.4 0-6.3-2.8-6.3-6.3 0-3.4 2.7-6.3 6.3-6.3"/></g></g></g></svg>