<?xml version="1.0" encoding="utf-8"?>
<!-- Generator: Adobe Illustrator 19.0.0, SVG Export Plug-In . SVG Version: 6.00 Build 0)  -->
<svg version="1.1" id="Layer_1" xmlns="http://www.w3.org/2000/svg" xmlns:xlink="http://www.w3.org/1999/xlink" x="0px" y="0px"
	 viewBox="0 0 130 250" style="enable-background:new 0 0 130 250;" xml:space="preserve">
<style type="text/css">
	.st0{fill:#519E38;}
	.st1{fill:#F4F4F4;}
	.st2{fill:#D6D6D6;}
	.st3{fill:#EAEAEA;}
	.st4{fill:#FFFFFF;}
	.st5{fill:#62BA47;}
	.st6{fill:#483290;}
	.st7{fill:#712F8F;}
	.st8{fill:#99C5E9;}
	.st9{fill:#62BA46;}
</style>
<g>
	<path class="st0" d="M106.8,216c0,0,0-64.5,0-99.6S92.2,68,92.2,68c3.9-21.7-6.5-28.2-6.5-28.2V32h2.2c0,0,0-8.4,0-11.2
		S84,18.3,84,18.3H69.7h-1.3H54.1c0,0-3.9-0.3-3.9,2.5s0,11.2,0,11.2h2.3v7.8h-0.1c0,0-10.4,6.5-6.5,28.2c0,0-14.6,13.4-14.6,48.4
		c0,35.1,0,99.6,0,99.6s-1.5,21.4,14.3,21.4c4.3,0,7.8,0,10.8,0c8.1,0,11.8,0,11.8,0h0.7h0.8h0.1h11.7h0.1c3,0,6.5,0,10.8,0
		c0,0,0,0,0.1,0C108.3,237.4,106.8,216,106.8,216z"/>
	<path class="st1" d="M99.2,211c0,0,0-64.5,0-99.6S84.6,63,84.6,63c3.9-21.7-6.5-28.2-6.5-28.2v-8h-33v8H45c0,0-10.4,6.5-6.5,28.2
		c0,0-14.6,13.4-14.6,48.4c0,35.1,0,99.6,0,99.6s-1.5,21.4,14.3,21.4c4.3,0,7.8,0,10.8,0c8.1,0,11.8,0,11.8,0h1.6h11.8
		c3,0,6.6,0,10.8,0C100.6,232.4,99.2,211,99.2,211z"/>
	<path class="st2" d="M76.4,13.3H62.1h-1.3H46.6c0,0-3.9-0.3-3.9,2.5s0,11.2,0,11.2h18.1h1.3h18.1c0,0,0-8.4,0-11.2
		C80.3,13,76.4,13.3,76.4,13.3z"/>
	<path class="st3" d="M99.1,211c0,0,0-64.5,0-99.6S84.5,63,84.5,63C88.4,41.3,78,34.8,78,34.8v-8H61.4v205.6h0.8H74
		c3,0,6.6,0,10.8,0C100.6,232.4,99.1,211,99.1,211z"/>
	<path class="st4" d="M36.1,99.9c-0.2,0-0.4,0-0.5,0c-2.3-0.3-3.9-2.4-3.6-4.7c1.9-14.4,8.8-23.1,9.1-23.5c1.4-1.8,4.1-2.1,5.9-0.6
		c1.8,1.4,2.1,4.1,0.6,5.8c-0.1,0.1-5.8,7.4-7.4,19.3C40,98.3,38.2,99.9,36.1,99.9z"/>
</g>
<g>
	<g>
		<g>
			<path class="st5" d="M89.6,150c-0.7-1.5-1.8-1.1-2.3,0c-1.4,3.2,0.7,3.7,0.9,3.7c0-0.1-0.3-0.4-0.3-1c-0.1-0.1-0.6-0.6-0.6-1
				v-0.2l0.1,0.2c0.1,0.2,0.2,0.6,0.6,0.9c0-0.1,0.1-0.2,0.1-0.4c-0.1-0.1-0.6-0.5-0.6-1v-0.1v-0.3l0.1,0.4c0,0.2,0.2,0.6,0.6,0.9
				l0,0c0.1-0.1,0.1-0.3,0.2-0.4c-0.1-0.1-0.6-0.4-0.7-1.1v-0.1v-0.1l0.1,0.3c0,0.2,0.2,0.8,0.7,0.9c0-0.2,0.1-0.3,0.1-0.5l0,0
				c0,0-0.5-0.2-0.6-1c0,0,0-0.1,0-0.2v-0.1v0.3c0.1,0.2,0.2,0.7,0.5,0.9c0.1-0.8-0.2-1.5-0.2-1.5l-0.1-0.2l0.1,0.1
				c0,0,0.1,0.3,0.2,0.7c0.2-0.3,0.2-0.6,0.2-0.6v-0.1l0.1,0.1c0.1,0.3-0.2,0.7-0.2,0.8c0,0.4,0,0.7,0,1c0.8-0.3,0.9-0.9,0.9-0.9
				v-0.2l0.1,0.2c0,0.7-0.8,1-1,1.1c0,0,0,0,0,0.1l0,0c0,0.1-0.1,0.2-0.1,0.2c0.7,0,1.3-0.8,1.3-0.8l0.1-0.1c0,0,0,0.2-0.1,0.4
				c-0.5,0.7-1.3,0.8-1.3,0.8c-0.1,0.2-0.1,0.3-0.2,0.5c0.2,0,0.9-0.2,1.4-0.6l0,0l0,0l0,0l0.1-0.1l-0.1,0.2
				c-0.2,0.2-0.8,0.7-1.4,0.7c0,0.2,0,0.4,0,0.5c0.1,0,0.1,0,0.2,0c0.6,0,1-0.4,1.2-0.7l0.2-0.2l-0.1,0.3c-0.5,0.8-1.1,0.8-1.3,0.8
				c0,0,0,0-0.1,0c0,0.2,0.2,0.4,0.2,0.5h0.1C90.2,152.4,90.1,151.1,89.6,150z"/>
			<path class="st5" d="M93.7,152.7c1-0.9,0.4-1.7-0.6-1.7c-2.8-0.2-2.6,1.5-2.6,1.6c0,0,0.2-0.4,0.7-0.5c0-0.1,0.3-0.6,0.6-0.8
				l0.2-0.1l-0.2,0.1c-0.1,0.1-0.4,0.3-0.5,0.7c0.1,0,0.2,0,0.3,0c0-0.1,0.2-0.6,0.6-0.7h0.1l0.2-0.1l-0.3,0.2
				c-0.2,0.1-0.4,0.3-0.5,0.7l0,0c0.1,0,0.2,0,0.4,0c0-0.1,0.1-0.6,0.6-0.8h0.1h0.1l-0.2,0.1c-0.2,0.1-0.5,0.3-0.5,0.8
				c0.1,0,0.3,0,0.4-0.1l0,0c0,0,0.1-0.4,0.6-0.7c0,0,0,0,0.1,0h0.1l-0.2,0.1c-0.2,0.1-0.5,0.4-0.5,0.6c0.6-0.2,1.1-0.5,1.1-0.5
				l0.1-0.1l-0.1,0.1c0,0-0.2,0.2-0.5,0.4c0.2,0.1,0.5,0,0.5,0l0.1-0.1l-0.1,0.1c-0.2,0.1-0.6,0-0.7,0c-0.3,0.1-0.5,0.2-0.8,0.2
				c0.5,0.6,0.9,0.4,0.9,0.4h0.1l-0.1,0.1c-0.5,0.2-1-0.4-1.1-0.5c0,0,0,0-0.1,0l0,0c-0.1,0-0.1,0-0.2,0c0.2,0.6,1,0.8,1,0.8h0.1
				c0,0-0.1,0-0.3,0c-0.6-0.2-0.9-0.8-1-0.8s-0.3,0-0.4,0c0.1,0.1,0.4,0.7,0.8,0.9l0,0l0,0l0,0l0.1,0.1h-0.2
				c-0.2-0.1-0.7-0.4-0.9-0.9c-0.1,0-0.3,0.1-0.4,0.1v0.1c0.1,0.4,0.6,0.6,0.8,0.7l0.2,0.1h-0.2c-0.7-0.2-0.9-0.6-1-0.8l0,0
				c-0.1,0.1-0.3,0.3-0.3,0.3v0.1C91.9,153.7,92.9,153.4,93.7,152.7z"/>
			<path class="st5" d="M90.6,154.2c0.7-0.3,0.5-0.8,0-1c-1.4-0.6-1.6,0.3-1.6,0.3s0.2-0.1,0.4-0.1c0,0,0.3-0.2,0.5-0.3H90h-0.1
				c-0.1,0-0.2,0.1-0.4,0.3c0.1,0,0.1,0,0.2,0c0,0,0.2-0.2,0.5-0.3c0,0,0,0,0.1,0h0.1h-0.2c-0.1,0-0.3,0.1-0.4,0.3l0,0
				c0.1,0,0.1,0.1,0.2,0.1c0,0,0.2-0.3,0.5-0.3h0.1h0.1h-0.1c-0.1,0-0.3,0.1-0.4,0.3c0.1,0,0.1,0,0.2,0l0,0c0,0,0.1-0.2,0.4-0.2
				c0,0,0,0,0.1,0H91h-0.1c-0.1,0-0.3,0.1-0.4,0.2c0.4,0,0.6-0.1,0.6-0.1h0.1c0,0,0,0-0.1,0.1c0,0-0.1,0.1-0.3,0.1
				c0.1,0.1,0.3,0.1,0.3,0.1h0.1h-0.1c-0.1,0-0.3-0.1-0.3-0.1c-0.2,0-0.3,0-0.4,0c0.1,0.4,0.4,0.4,0.4,0.4L90.6,154.2l-0.1-0.1
				c-0.3,0-0.4-0.4-0.5-0.4l0,0l0,0h-0.1c0,0.3,0.3,0.6,0.4,0.6h0.1c0,0-0.1,0-0.2-0.1c-0.3-0.2-0.3-0.6-0.3-0.6
				c-0.1,0-0.1-0.1-0.2-0.1c0,0.1,0.1,0.4,0.2,0.6l0,0l0,0l0,0l0.1,0.1l-0.1-0.1c-0.1-0.1-0.3-0.3-0.3-0.6c-0.1,0-0.2,0-0.2,0v0.1
				c0,0.3,0.2,0.4,0.3,0.5l0.1,0.1l-0.1-0.1c-0.3-0.2-0.4-0.5-0.4-0.6l0,0c-0.1,0-0.2,0.1-0.2,0.1v0.1
				C89.5,154.4,90.1,154.4,90.6,154.2z"/>
			<path class="st5" d="M89.5,156.4c1.3-0.6,1-1.5,0-1.9c-2.7-1.2-3.1,0.5-3.1,0.7c0,0,0.4-0.3,0.9-0.2c0.1-0.1,0.5-0.4,0.9-0.5h0.2
				l-0.2,0.1c-0.2,0-0.5,0.2-0.7,0.5c0.1,0,0.2,0.1,0.3,0.1c0.1-0.1,0.4-0.5,0.9-0.5h0.1h0.3l-0.4,0.1c-0.2,0-0.5,0.2-0.7,0.5l0,0
				c0.1,0.1,0.2,0.1,0.4,0.2c0.1-0.1,0.3-0.5,0.9-0.6h0.1h0.1l-0.2,0.1c-0.2,0-0.6,0.1-0.8,0.5c0.1,0,0.3,0.1,0.4,0.1l0,0
				c0,0,0.2-0.4,0.8-0.5h0.1h0.1h-0.2c-0.2,0-0.6,0.2-0.7,0.4c0.7,0.1,1.2-0.1,1.2-0.1l0.1-0.1l-0.1,0.1c0,0-0.3,0.1-0.6,0.2
				c0.2,0.2,0.5,0.2,0.5,0.2h0.1l-0.1,0.1c-0.3,0-0.6-0.2-0.7-0.2c-0.3,0-0.6,0-0.8-0.1C88.9,156.3,89.4,156.3,89.5,156.4
				L89.5,156.4L89.5,156.4c-0.7-0.1-0.9-0.8-1-0.9c0,0,0,0-0.1,0l0,0c-0.1,0-0.1-0.1-0.2-0.1c0,0.6,0.7,1.1,0.7,1.1l0.1,0.1
				c0,0-0.1,0-0.3-0.1c-0.6-0.4-0.6-1.1-0.6-1.1c-0.1-0.1-0.3-0.1-0.4-0.2c0,0.2,0.2,0.8,0.5,1.2l0,0l0,0l0,0l0.1,0.1l-0.2-0.1
				c-0.1-0.1-0.5-0.7-0.6-1.2c-0.1,0-0.3,0-0.4,0v0.1c0,0.5,0.3,0.8,0.6,1l0.2,0.1l-0.2-0.1c-0.6-0.5-0.7-0.9-0.7-1.1l0,0
				c-0.2,0-0.4,0.2-0.4,0.2v0.1C87.4,156.8,88.5,156.8,89.5,156.4z"/>
			<path class="st5" d="M85.5,153c-0.7-1.4-1.7-1-2.1,0.1c-1.2,3,0.7,3.4,0.8,3.4c0,0-0.3-0.4-0.3-0.9c-0.1-0.1-0.5-0.5-0.6-1v-0.2
				l0.1,0.2c0.1,0.2,0.2,0.5,0.6,0.8c0-0.1,0-0.2,0.1-0.3c-0.1-0.1-0.5-0.5-0.6-0.9v-0.1v-0.3l0.1,0.4c0,0.2,0.2,0.5,0.6,0.8l0,0
				c0.1-0.1,0.1-0.3,0.2-0.4c-0.1-0.1-0.6-0.3-0.6-1v-0.1v-0.1l0.1,0.2c0,0.2,0.2,0.7,0.6,0.8c0-0.1,0.1-0.3,0.1-0.4l0,0
				c0,0-0.4-0.2-0.5-0.9V153v-0.1v0.3c0.1,0.2,0.2,0.7,0.5,0.8c0.1-0.8-0.2-1.3-0.2-1.4l-0.1-0.2l0.1,0.1c0,0,0.1,0.3,0.2,0.7
				c0.2-0.2,0.2-0.6,0.2-0.6v-0.1l0.1,0.1c0.1,0.3-0.2,0.7-0.2,0.7c0,0.3,0,0.6,0,0.9c0.8-0.3,0.8-0.9,0.8-0.9v-0.2l0.1,0.2
				c0,0.6-0.8,1-0.9,1c0,0,0,0,0,0.1l0,0c0,0.1-0.1,0.1-0.1,0.2c0.7,0,1.2-0.8,1.2-0.8l0.1-0.1c0,0,0,0.2-0.1,0.3
				c-0.5,0.6-1.2,0.7-1.2,0.8c-0.1,0.1-0.1,0.3-0.2,0.5c0.2,0,0.9-0.2,1.3-0.6l0,0l0,0l0,0l0.1-0.1l-0.1,0.2
				c-0.2,0.1-0.7,0.6-1.3,0.7c0,0.2,0,0.3,0,0.5c0.1,0,0.1,0,0.2,0c0.5,0,0.9-0.4,1.1-0.7l0.1-0.2l-0.1,0.2c-0.5,0.7-1,0.8-1.2,0.8
				c0,0,0,0-0.1,0c0,0.2,0.2,0.4,0.2,0.4h0.1C86.1,155.2,86,154,85.5,153z"/>
			<path class="st5" d="M85.3,156.6c-0.4-0.9-1-0.6-1.3,0c-0.8,1.9,0.4,2.1,0.5,2.2c0,0-0.2-0.2-0.2-0.6c0,0-0.3-0.3-0.4-0.6v-0.1
				v0.1c0,0.1,0.1,0.3,0.4,0.5c0-0.1,0-0.1,0.1-0.2c-0.1-0.1-0.3-0.3-0.4-0.6v-0.1V157l0.1,0.2c0,0.1,0.1,0.3,0.4,0.5l0,0
				c0-0.1,0.1-0.2,0.1-0.3c-0.1,0-0.4-0.2-0.4-0.6v-0.1v-0.1l0.1,0.1c0,0.1,0.1,0.4,0.4,0.5c0-0.1,0-0.2,0.1-0.3l0,0
				c0,0-0.3-0.1-0.3-0.6c0,0,0,0,0-0.1v-0.1v0.2c0,0.1,0.1,0.4,0.3,0.5c0-0.5-0.1-0.8-0.1-0.9v-0.1l0.1,0.1c0,0,0.1,0.2,0.1,0.4
				c0.1-0.1,0.1-0.4,0.1-0.4v-0.1l0.1,0.1c0,0.2-0.1,0.4-0.1,0.5c0,0.2,0,0.4,0,0.6c0.5-0.2,0.5-0.5,0.5-0.5v-0.1v0.1
				c0,0.4-0.5,0.6-0.6,0.6l0,0l0,0c0,0,0,0.1-0.1,0.1c0.4,0,0.8-0.5,0.8-0.5v-0.1c0,0,0,0.1-0.1,0.2c-0.3,0.4-0.7,0.5-0.8,0.5
				c0,0.1-0.1,0.2-0.1,0.3c0.1,0,0.5-0.1,0.8-0.4l0,0l0,0l0,0l0.1-0.1l-0.1,0.1c-0.1,0.1-0.4,0.4-0.8,0.4c0,0.1,0,0.2,0,0.3h0.1
				c0.3,0,0.6-0.3,0.7-0.4l0.1-0.1l-0.1,0.2c-0.3,0.4-0.6,0.5-0.8,0.5l0,0c0,0.1,0.1,0.3,0.1,0.3h0.1
				C85.6,158,85.6,157.3,85.3,156.6z"/>
			<path class="st5" d="M87.4,160.4c1.3-0.6,1-1.5,0-2c-2.7-1.2-3.2,0.5-3.2,0.7c0,0,0.4-0.3,0.9-0.2c0.1-0.1,0.5-0.5,0.9-0.5h0.2
				l-0.2,0.1c-0.2,0-0.5,0.2-0.8,0.5c0.1,0,0.2,0.1,0.3,0.1c0.1-0.1,0.4-0.5,0.9-0.5h0.1h0.3l-0.4,0.1c-0.2,0-0.5,0.2-0.8,0.5l0,0
				c0.1,0.1,0.2,0.1,0.4,0.2c0.1-0.1,0.3-0.5,0.9-0.6H87h0.1l-0.2,0.1c-0.2,0-0.7,0.1-0.8,0.6c0.1,0,0.3,0.1,0.4,0.1l0,0
				c0,0,0.2-0.4,0.8-0.5h0.1h0.1h-0.2c-0.2,0-0.6,0.2-0.7,0.4c0.7,0.1,1.3-0.1,1.3-0.1l0.1-0.1l-0.1,0.1c0,0-0.3,0.1-0.6,0.2
				c0.2,0.2,0.5,0.2,0.5,0.2h0.1l-0.1,0.1c-0.3,0-0.6-0.2-0.7-0.2c-0.3,0-0.6,0-0.8,0c0.3,0.7,0.8,0.8,0.8,0.8h0.1l-0.1,0.1
				c-0.6,0-0.9-0.7-0.9-0.9c0,0,0,0-0.1,0l0,0c-0.1,0-0.1-0.1-0.2-0.1c0,0.6,0.7,1.1,0.7,1.1l0.1,0.1c0,0-0.1,0-0.3-0.1
				c-0.6-0.4-0.7-1.1-0.7-1.1c-0.1-0.1-0.3-0.1-0.4-0.2c0,0.2,0.2,0.8,0.5,1.2l0,0l0,0l0,0l0.1,0.1l-0.2-0.1
				c-0.1-0.1-0.6-0.7-0.6-1.3c-0.2,0-0.3,0-0.5,0c0,0.1,0,0.1,0,0.1c0,0.5,0.4,0.9,0.6,1l0.2,0.1l-0.2-0.1c-0.6-0.5-0.7-1-0.7-1.1
				c0,0,0,0,0-0.1c-0.2,0-0.4,0.2-0.4,0.2v0.1C85.3,160.9,86.4,160.9,87.4,160.4z"/>
			<path class="st5" d="M86.6,162.7c1.4-0.1,1.3-1,0.4-1.6c-2.4-1.7-3.2-0.4-3.2-0.2c0.1,0,0.4-0.1,0.9,0c0.1,0,0.6-0.3,1-0.2h0.2
				h-0.2c-0.2,0-0.5,0-0.8,0.2c0.1,0,0.2,0.1,0.3,0.2c0.1-0.1,0.5-0.3,1-0.2h0.1l0.3,0.1h-0.4c-0.2,0-0.5,0-0.8,0.3l0,0
				c0.1,0.1,0.2,0.2,0.3,0.2c0.1-0.1,0.4-0.3,1-0.2h0.1h0.1h-0.2c-0.2,0-0.7,0-0.9,0.3c0.1,0.1,0.2,0.1,0.4,0.2l0,0
				c0,0,0.3-0.3,0.9-0.2h0.1l0.1,0.1h-0.2c-0.2,0-0.7,0-0.8,0.2c0.7,0.2,1.2,0.2,1.2,0.2h0.2c0,0-0.1,0-0.1,0.1c0,0-0.3,0-0.7,0
				c0.2,0.2,0.5,0.3,0.5,0.3h0.1h-0.1c-0.3,0-0.6-0.3-0.6-0.4c-0.3,0-0.6-0.1-0.8-0.3C86.1,162.5,86.6,162.6,86.6,162.7l0.1-0.1
				L86.6,162.7c-0.7-0.3-0.8-0.9-0.8-1l0,0l0,0c-0.1,0-0.1-0.1-0.2-0.1c-0.1,0.5,0.4,1.1,0.4,1.1l0.1,0.1c0,0-0.1,0-0.3-0.2
				c-0.5-0.5-0.4-1.1-0.4-1.1c-0.1-0.1-0.2-0.2-0.4-0.2c0,0.1,0,0.7,0.2,1.1l0,0l0,0l0,0l0.1,0.1l-0.2-0.1c-0.1-0.2-0.4-0.7-0.3-1.2
				c-0.1-0.1-0.3-0.1-0.4-0.1v0.1c-0.1,0.4,0.2,0.8,0.3,1l0.2,0.2l-0.2-0.1c-0.5-0.6-0.5-1-0.4-1.1l0,0c-0.2,0-0.4,0-0.4,0.1v0.1
				C84.5,162.5,85.5,162.8,86.6,162.7z"/>
			<path class="st5" d="M80.5,154.3c-1.7-0.7-2.1,0.3-1.5,1.6c1.7,3.5,3.5,2.5,3.6,2.3c-0.1,0-0.6-0.1-1-0.6c-0.1,0-0.9-0.1-1.3-0.4
				l-0.2-0.2l0.2,0.1c0.2,0.1,0.6,0.3,1.1,0.3c-0.1-0.1-0.2-0.2-0.2-0.4c-0.1,0-0.8,0-1.3-0.4l-0.1-0.1l-0.3-0.2l0.4,0.3
				c0.2,0.2,0.6,0.3,1.1,0.2l0,0c-0.1-0.2-0.1-0.3-0.2-0.5c-0.1,0-0.7,0.1-1.3-0.4l-0.1-0.1l-0.1-0.1l0.3,0.1
				c0.2,0.2,0.7,0.5,1.2,0.3c-0.1-0.2-0.2-0.3-0.3-0.5l0,0c0,0-0.5,0.2-1.2-0.4c0,0-0.1,0-0.1-0.1l-0.1-0.1l0.2,0.2
				c0.2,0.1,0.8,0.4,1.1,0.3c-0.6-0.7-1.3-1-1.3-1l-0.2-0.1h0.2c0,0,0.3,0.2,0.8,0.4c-0.1-0.4-0.4-0.6-0.4-0.6l-0.1-0.1h0.2
				c0.3,0.2,0.5,0.7,0.5,0.8c0.3,0.3,0.6,0.5,0.8,0.8c0.3-0.8-0.2-1.4-0.2-1.4L80.5,154.3l0.3,0c0.5,0.5,0.3,1.4,0.2,1.5
				c0,0,0,0,0,0.1l0,0c0,0.1,0.1,0.2,0.1,0.3c0.5-0.5,0.2-1.6,0.2-1.6l-0.1-0.1c0,0,0.1,0.1,0.2,0.4c0.2,0.9-0.2,1.5-0.2,1.6
				c0.1,0.2,0.2,0.4,0.3,0.5c0.1-0.2,0.5-0.8,0.4-1.4v-0.1l0,0l0,0v-0.2l0.1,0.3c0,0.2,0,1.1-0.4,1.6c0.1,0.2,0.3,0.3,0.4,0.4
				l0.1-0.1c0.4-0.4,0.3-1,0.2-1.4l-0.1-0.3l0.1,0.3c0.3,1-0.1,1.4-0.2,1.6l0,0c0.2,0.1,0.5,0.2,0.5,0.2l0.1-0.1
				C82.8,155.9,81.8,154.9,80.5,154.3z"/>
			<path class="st5" d="M83.2,162.8c0.8,0.4,1.1-0.1,0.8-0.7c-0.7-1.8-1.6-1.4-1.7-1.3c0,0,0.3,0.1,0.5,0.4c0.1,0,0.4,0.1,0.6,0.3
				l0.1,0.1l-0.1-0.1c-0.1-0.1-0.3-0.2-0.5-0.2c0,0.1,0.1,0.1,0.1,0.2c0.1,0,0.4,0,0.6,0.2c0,0,0,0,0.1,0l0.1,0.1l-0.2-0.2
				c-0.1-0.1-0.3-0.2-0.6-0.2l0,0c0,0.1,0.1,0.2,0.1,0.2c0.1,0,0.4,0,0.6,0.2l0,0l0.1,0.1l-0.1-0.1c-0.1-0.1-0.3-0.3-0.6-0.2
				c0,0.1,0.1,0.2,0.1,0.2l0,0c0,0,0.3-0.1,0.6,0.2c0,0,0,0,0.1,0.1v0.1l-0.1-0.1c-0.1-0.1-0.4-0.3-0.5-0.2c0.3,0.4,0.6,0.6,0.6,0.6
				H84h-0.1c0,0-0.2-0.1-0.4-0.3c0,0.2,0.1,0.3,0.1,0.3h0.1h-0.1c-0.1-0.1-0.2-0.4-0.2-0.4c-0.1-0.1-0.3-0.3-0.3-0.4
				c-0.2,0.4,0,0.7,0,0.7l0.1,0.1l-0.1-0.1c-0.2-0.3-0.1-0.7,0-0.8l0,0l0,0v-0.1c-0.3,0.2-0.2,0.8-0.2,0.8v0.1c0,0-0.1-0.1-0.1-0.2
				c-0.1-0.4,0.2-0.7,0.2-0.8s-0.1-0.2-0.1-0.3c-0.1,0.1-0.3,0.4-0.3,0.7l0,0l0,0l0,0v0.1v-0.1c0-0.1,0-0.5,0.3-0.8
				c-0.1-0.1-0.1-0.2-0.2-0.2c0,0,0,0-0.1,0c-0.2,0.2-0.2,0.5-0.2,0.7v0.1l-0.1-0.1c-0.1-0.5,0.1-0.7,0.2-0.8l0,0
				c-0.1-0.1-0.2-0.1-0.3-0.1l0,0C82.1,161.9,82.6,162.5,83.2,162.8z"/>
		</g>
		<path class="st5" d="M83.8,157.4c0-0.1,0.1-0.2,0.1-0.3c-2.5,2.6-3.8,5.1-3.8,5.1l0.2,0.1c0,0,1.1-2.3,3.4-4.7
			C83.7,157.5,83.7,157.5,83.8,157.4z"/>
		<path class="st5" d="M90.4,152.7c-0.1,0,0.2-0.3,0.2-0.3l-0.1,0.1c-2.3,1-4.2,2.3-5.7,3.7c0.1,0,0.1,0.1,0.2,0.2
			c1.5-1.4,3.3-2.7,5.6-3.7C91.1,152.5,90.5,152.7,90.4,152.7z"/>
		<g>
			<circle class="st6" cx="83.6" cy="159.6" r="1.6"/>
			<ellipse transform="matrix(0.6789 -0.7343 0.7343 0.6789 -89.7056 112.9139)" class="st7" cx="84.2" cy="159" rx="0.7" ry="1"/>
			
				<ellipse transform="matrix(0.6786 -0.7345 0.7345 0.6786 -89.6114 113.0756)" class="st6" cx="84.4" cy="158.9" rx="0.4" ry="0.6"/>
		</g>
		<g>
			<circle class="st7" cx="81.3" cy="160.9" r="1.5"/>
			
				<ellipse transform="matrix(-0.3195 -0.9476 0.9476 -0.3195 -44.652 288.3245)" class="st6" cx="81.2" cy="160.2" rx="0.6" ry="0.9"/>
			
				<ellipse transform="matrix(-0.3197 -0.9475 0.9475 -0.3197 -44.5744 287.9955)" class="st7" cx="81.1" cy="160" rx="0.3" ry="0.5"/>
		</g>
		<g>
			<circle class="st6" cx="80.6" cy="158.3" r="1.1"/>
			
				<ellipse transform="matrix(-0.3192 -0.9477 0.9477 -0.3192 -43.2687 284.3082)" class="st7" cx="80.5" cy="157.7" rx="0.4" ry="0.7"/>
			
				<ellipse transform="matrix(-0.3202 -0.9473 0.9473 -0.3202 -43.1737 284.2295)" class="st6" cx="80.4" cy="157.6" rx="0.3" ry="0.4"/>
		</g>
		<g>
			<circle class="st7" cx="82.7" cy="156.2" r="1.1"/>
			
				<ellipse transform="matrix(-0.3198 -0.9475 0.9475 -0.3198 -38.4187 283.6361)" class="st6" cx="82.6" cy="155.6" rx="0.4" ry="0.7"/>
			
				<ellipse transform="matrix(-0.3186 -0.9479 0.9479 -0.3186 -38.4796 283.3448)" class="st7" cx="82.6" cy="155.5" rx="0.3" ry="0.4"/>
		</g>
		<g>
			<circle class="st6" cx="85.9" cy="153.1" r="1.1"/>
			
				<ellipse transform="matrix(-0.8931 -0.4498 0.4498 -0.8931 92.954 327.6459)" class="st7" cx="85.4" cy="152.8" rx="0.4" ry="0.7"/>
			
				<ellipse transform="matrix(-0.8925 -0.451 0.451 -0.8925 92.5139 327.4871)" class="st6" cx="85.3" cy="152.7" rx="0.3" ry="0.4"/>
		</g>
		<g>
			<circle class="st7" cx="86" cy="157.4" r="1.3"/>
			
				<ellipse transform="matrix(0.9498 -0.3128 0.3128 0.9498 -44.8388 35.0004)" class="st6" cx="86.7" cy="157.2" rx="0.6" ry="0.8"/>
			
				<ellipse transform="matrix(0.9499 -0.3126 0.3126 0.9499 -44.8062 35.0485)" class="st7" cx="86.9" cy="157.3" rx="0.3" ry="0.4"/>
		</g>
	</g>
	<circle class="st8" cx="61.7" cy="142.9" r="20"/>
	<circle class="st5" cx="45.8" cy="160.7" r="6.3"/>
	<path class="st8" d="M52.3,118.5c0,1.4-1.1,2.5-2.6,2.5c-1.4,0-2.6-1.1-2.6-2.5s1.1-2.6,2.6-2.6C51.1,115.9,52.3,117.1,52.3,118.5
		L52.3,118.5z"/>
	<path class="st5" d="M52.4,127.1c0,1.8-1.5,3.3-3.3,3.3s-3.3-1.5-3.3-3.3s1.5-3.3,3.3-3.3S52.4,125.3,52.4,127.1L52.4,127.1z"/>
	<path class="st5" d="M43.6,122c0,1.1-0.9,1.9-1.9,1.9c-1.1,0-2-0.9-2-1.9c0-1.1,0.9-2,2-2C42.7,120.1,43.6,120.9,43.6,122L43.6,122
		z"/>
	<g>
		<circle class="st5" cx="78.8" cy="124.7" r="11"/>
		<g>
			<path class="st4" d="M76,123.1c-0.9,0.1-1.2,1.2-1.2,1.9l0,0l0,0c0,0.1,0,0.2,0,0.3c0,0.4,0,0.6-0.1,1c0,0.1-0.1,0.4-0.1,0.4
				c-0.3,0-0.6-0.5-0.7-0.7c-0.2-0.6-0.4-1.2-0.5-1.7c-0.1-0.6-0.2-1.3-0.2-1.9c0-0.3,0-0.5,0-0.8c0-0.1,0-0.2,0-0.3s0-0.2,0-0.2
				c0.1-0.5-0.6,0-0.7,0.2c-0.7,1.3-0.5,2.8-0.5,4.2c0,0.4,0,0.8-0.1,1.1c0,0.3-0.1,0.7-0.3,0.9c-0.1,0.1-0.4,0-0.5,0
				c-0.2-0.1-0.3-0.3-0.3-0.5s-0.3-0.1-0.4,0c-0.2,0.2-0.3,0.4-0.3,0.6c0.1,0.5,0.5,0.9,1,0.8c0.8-0.2,1.2-1.2,1.4-2
				c0.1-0.4,0.1-0.7,0.2-1.1c0.1,0.5,0.3,1.1,0.5,1.6c0.2,0.4,0.5,0.7,1,0.7c0.3-0.1,0.6-0.4,0.8-0.8c0.2,0.4,0.4,0.6,0.8,0.6
				c0.5,0,0.8-0.5,1-0.9s0.3-0.9,0.3-1.4C77.2,124.4,77,123,76,123.1z M76.3,126.3c0,0.1,0,0.2-0.1,0.3c-0.2,0-0.3-0.3-0.4-0.4
				c-0.1-0.3-0.2-0.6-0.2-1c0-0.3,0-0.7,0-1c0-0.1,0-0.2,0.1-0.3c0.5,0.3,0.6,0.9,0.6,1.4C76.4,125.6,76.4,126,76.3,126.3z"/>
			<path class="st4" d="M87,124.4c-1-0.4-1.5,1-1.7,1.7s-0.4,1.9,0.5,2.3c0.4,0.2,0.9-0.1,1.2-0.4c0.3-0.3,0.5-0.8,0.6-1.2
				C87.7,126.1,87.9,124.8,87,124.4z M86.4,127.6c0,0.1-0.1,0.2-0.1,0.2c-0.2-0.1-0.2-0.4-0.2-0.5c-0.1-0.3,0-0.7,0-1
				c0.1-0.3,0.2-0.7,0.3-1c0-0.1,0.1-0.2,0.1-0.2c0.4,0.4,0.3,1,0.2,1.6C86.6,126.9,86.5,127.3,86.4,127.6z"/>
			<path class="st4" d="M84.3,124.6c0.2-0.2,0.4-0.5,0.5-0.8c0.4-0.6,0.7-1.2,0.7-1.9c0-0.6-0.9-0.7-1.3-0.5c-0.6,0.3-1,1-1.2,1.6
				c-0.2,0.9-0.4,1.7-0.4,2.6l0,0c-0.3,0.4-1,1.1-1.5,0.8c-0.1-0.1-0.2-0.2-0.2-0.4c0.4-0.4,0.8-0.9,1.1-1.4
				c0.3-0.4,0.5-1.2-0.1-1.5c-0.5-0.3-1.1,0-1.4,0.4c-0.3,0.4-0.5,0.9-0.5,1.4c0,0.3-0.1,0.7,0,1.1c-0.3,0.2-0.6,0.3-1,0.2
				s-0.5-0.5-0.6-0.8c-0.1-0.5-0.1-0.9,0-1.4c0-0.1,0.1-0.3,0.1-0.4v-0.1c0.2,0.1,0.3,0.5,0.4,0.6c0.1,0.3,0.9-0.2,0.8-0.5
				c-0.1-0.3-0.2-0.7-0.6-0.8c-0.3-0.2-0.8,0.1-1,0.3c-0.6,0.6-0.7,1.5-0.6,2.3c0,0.5,0.1,1.1,0.6,1.4c0.6,0.4,1.4,0,2-0.3
				c0.2,0.4,0.4,0.6,0.9,0.6c0.6-0.1,1.1-0.4,1.6-0.8c0,0.4,0.1,0.9,0.4,1.1c0.5,0.3,1.2,0,1.5-0.5c0.4-0.6,0.7-1.4,0.4-2.1
				C84.9,124.7,84.6,124.6,84.3,124.6z M81,124.2c0-0.1,0.1-0.3,0.2-0.4l0,0c0.2,0.1,0.3,0.4,0.3,0.6c-0.1,0.4-0.3,0.7-0.6,1.1
				c0-0.1,0-0.1,0-0.2C80.8,124.9,80.9,124.6,81,124.2z M84.2,122.4c0.1-0.1,0.1-0.3,0.2-0.4l0,0c0.4,0.4,0,1-0.2,1.4
				s-0.4,0.8-0.7,1.2c0.1-0.4,0.1-0.8,0.2-1.1C83.9,123.1,84,122.8,84.2,122.4z M84,126.9c0,0-0.1,0.1-0.1,0.2h-0.1
				c-0.2-0.1-0.3-0.7-0.3-0.9s0-0.4,0-0.6c0.1-0.1,0.2-0.2,0.3-0.4c0.2-0.1,0.4,0.1,0.4,0.4C84.3,126.1,84.1,126.6,84,126.9z"/>
		</g>
	</g>
	<g>
		<path class="st4" d="M50.7,159.3c-0.6,1-1.3,1.8-2,2.7c-0.3,0.4,0.2,0.4,0.4,0.1c0.7-0.9,1.5-1.9,2.1-2.9
			C51.4,158.9,50.8,159.1,50.7,159.3L50.7,159.3z"/>
		<path class="st4" d="M49.6,159.1c-0.4,0-0.6,0.3-0.7,0.7c-0.1,0.3,0.1,0.6,0.4,0.6C50.1,160.4,50.4,159.1,49.6,159.1
			c-0.2,0-0.4,0.4-0.2,0.4c0.2,0,0.3,0.2,0.3,0.3s0,0.1,0,0.2l0,0h-0.1c-0.2,0-0.3-0.1-0.3-0.3c0-0.1,0-0.1,0-0.2l0,0h0.1
			C49.6,159.5,49.8,159.1,49.6,159.1z"/>
		<path class="st4" d="M50.6,161.1c-0.4,0-0.6,0.3-0.7,0.7c-0.1,0.3,0.1,0.6,0.4,0.6C51.1,162.4,51.4,161.1,50.6,161.1
			c-0.2,0-0.4,0.4-0.2,0.4c0.2,0,0.3,0.2,0.3,0.3s0,0.1,0,0.2l0,0h-0.1c-0.2,0-0.3-0.1-0.3-0.3c0-0.1,0-0.1,0-0.2l0,0h0.1
			C50.6,161.5,50.8,161.1,50.6,161.1z"/>
	</g>
	<g>
		<g>
			<g>
				<path class="st4" d="M77,146.4c-0.2,0-0.4,0.1-0.5,0.2c-0.3-1.1,0-2.2,0.3-3.1l0,0c0.1-0.5-0.3-0.9-0.8-1s-1,0.2-1.3,0.5
					c-0.4,0.4-0.7,1.1-0.8,1.7c-0.1,0.5-0.4,0.8-0.5,0.8c-0.3-0.1-0.2-0.5-0.2-0.7c0-0.4,0-0.8-0.2-1.1c-0.1-0.3-0.4-0.3-0.7-0.3
					c0.3-0.9,0.5-1,0.6-1.1c0.2,0.1,0.3,0.2,0.3,0.2c0.3,0.3,1.2-0.2,0.9-0.5c-0.3-0.4-0.7-0.5-1.1-0.4c-0.3,0-0.5,0.2-0.7,0.4
					l-0.1,0.1c0-0.5,0-1,0-1.4s-1,0-1,0.4c0,0.2,0.1,0.5,0.1,0.7c0,1-0.3,2.1-1.1,2.9c0-0.1,0-0.2,0-0.3c0-0.7,0.2-1.3,0.2-2
					c0-0.4,0.1-1-0.2-1.4c-0.3-0.4-1,0-1.2,0.2l-0.1,0.1c0-0.2-0.1-0.5-0.3-0.7c-0.2-0.2-0.6-0.1-0.8,0c-0.2,0.1-0.3,0.2-0.4,0.3
					c0-0.1,0-0.2,0-0.2c0-0.2,0-0.3-0.1-0.3c-0.2,0-0.3,0-0.4,0.1c-0.2,0.1-0.2,0.2-0.3,0.3c-0.1,0.1-0.2,0.1-0.4,0.1
					c-0.7-0.1-0.7-0.7-1.3-0.7c-1-0.1-1.4,1.1-1.5,2l0,0c-0.1,0.4-0.3,1-0.7,1.3c0.2-0.5,0.2-1,0.2-1.5c0-0.6-0.1-1.6-0.8-1.8
					c-0.4-0.2-0.8,0-1.1,0.2c0-0.3-0.1-0.8-0.1-0.9c0-0.1-0.2-0.1-0.3-0.1c-0.3,0.1-0.5,0.3-0.6,0.5s-0.1,0.6-0.5,0.5
					c-0.3,0-0.5-0.3-1-0.3c-1.1,0.3-1.3,1.5-1.3,2.5c0,0.7,0.1,2.2,1.1,2.1c0.5,0,0.9-0.6,1.1-1c0.2-0.5,0.3-1,0.3-1.5
					c0-0.3,0-0.7-0.1-1.2c0.2-0.1,0.4-0.2,0.5-0.4c0.1,0.3,0.1,0.7,0.1,1l0,0c0,0,0,0,0,0.1c0.1,0.8,0.1,1.5,0.1,2.3c0,1,0,2,0,3.1
					c0,0.2,0.3,0.2,0.4,0.1c0.2-0.1,0.4-0.3,0.4-0.6c0.1-0.7,0.1-1.5,0.1-2.2c0.9,0,1.7-0.6,2.1-1.1c0.1,0.6,0.3,1.2,0.9,1.3
					c0.5,0.1,1-0.4,1.2-0.8c0.3-0.5,0.4-1,0.4-1.5c0-0.2,0-0.5,0-0.8c0.2,0,0.4-0.1,0.6-0.2c-0.1,1.1-0.2,2.2-0.2,3.3
					c0,0.5,0.9,0,0.9-0.3c0.1-1,0.2-2.1,0.7-3c0.2,0.2,0.1,1.2,0.1,1.7c0,0.3-0.1,0.6-0.1,0.9c0,0.3-0.1,0.5-0.1,0.8
					c0,0.5,0.8,0,0.9-0.3c0-0.3,0.1-0.5,0.1-0.8c0.1-0.5,0.3-2,0.7-2.1c0.2,0.1,0.1,1,0,1.3c0,0.6-0.2,1.3-0.1,1.9
					c0.1,1,1.1,0.3,1.5-0.1c0.1-0.1,0.2-0.2,0.3-0.3c-0.1,0.3-0.1,0.6-0.2,0.9c-0.1,0.5,0.8,0.1,0.9-0.2c0.1-0.4,0.2-0.8,0.3-1.2
					c0.5,0.3,0,1.5,0.4,1.9c0.3,0.3,0.8,0.2,1.1,0.1c0.1,0,0.2-0.1,0.3-0.2c0,0.3,0.1,0.5,0.3,0.7c0.4,0.3,0.9,0.2,1.2,0
					c0,0,0.1,0,0.1-0.1c0,0.1,0,0.2,0,0.2c0.2,1,1.4,0.5,1.7,0C77.3,146.6,77.2,146.5,77,146.4z M58.7,143.8c0,0.1,0,0.2-0.1,0.3
					c-0.2,0-0.3-0.3-0.4-0.5c-0.2-0.3-0.2-0.7-0.2-1.1c0-0.4,0-0.8,0.1-1.2c0-0.1,0-0.2,0.1-0.3c0,0,0,0,0.1,0l0,0l0.1,0.1
					c0.3,0.3,0.4,1.2,0.4,1.4C58.8,143,58.8,143.4,58.7,143.8z M61.2,143.3c0-0.6,0-1.3-0.1-1.9c0-0.4,0.1-0.4,0.1-0.5
					c0.2,0,0.3,0.1,0.4,0.2c0.3,0.3,0.4,0.9,0.4,1.3c0,0.5-0.1,1.3-0.2,1.5C61.4,144,61.2,143.7,61.2,143.3z M64.8,143.8
					c0,0.1-0.1,0.2-0.1,0.3c-0.2-0.1-0.3-0.4-0.4-0.5c-0.1-0.4-0.1-0.7-0.1-1.1c0-0.4,0-0.8,0.2-1.1c0-0.1,0.1-0.2,0.1-0.3
					c0.5,0.2,0.5,1.3,0.5,1.6C64.9,143,64.9,143.4,64.8,143.8z M75.1,146.1c0,0-0.1,0-0.1-0.1c-0.2-0.1-0.2-0.4-0.2-0.6
					c-0.1-0.6,0.1-1.3,0.4-1.8c0.1-0.2,0.3-0.4,0.4-0.5c0,0,0.1,0,0.2,0c0.2,0.1,0.3,0.3,0.2,0.5c-0.2,0.8-0.3,1.6-0.7,2.3
					C75.2,146,75.1,146.1,75.1,146.1z"/>
				<path class="st4" d="M56.2,141.6c-0.2-0.1-0.4-0.1-0.6,0c0.1-0.4,0.3-0.8,0.4-1.3c0.1-0.6,0.4-1.5,0-2.1s-1.2,0-1.5,0.4
					c-0.5,0.7-0.5,1.5-0.5,2.3c0,0.9,0.1,1.7,0.3,2.6c-0.1,0.3-0.2,1-0.5,1.4c-0.2,0-0.3-0.4-0.3-0.6c-0.3-0.9-0.4-2-0.2-2.9
					c0-0.2-0.1-0.3-0.3-0.2c-0.2,0.1-0.5,0.4-0.5,0.6c0,0.2-0.1,0.8-0.4,0.9c-0.2,0.1-0.4,0.1-0.7,0c-0.3-0.1-0.8,0.1-1.1,0.4
					c-0.1-0.4-0.1-0.8-0.3-1.1c-0.1-0.2-0.4,0.1-0.5,0.2c-0.1,0.1-0.2,0.3-0.3,0.5c0,0.5,0.1,1.6-0.2,2.9c-0.1,0.2-0.3,0.7-0.6,0.8
					c-0.4,0.1-0.7-0.2-0.9-0.5c-0.6-0.9-0.8-2-0.8-3.1c0-0.4,0.1-1,0.3-1.3c0,0,0,0,0-0.1l0,0l0,0c0,0,0.4-0.1,0.6-0.1
					c0.4,0,0.5,0.5,0.6,0.8c0.1,0.5,0.9-0.4,0.8-0.7c-0.1-0.6-0.4-1.2-1.2-1.1c-0.5,0.1-1,0.4-1.3,0.9c-0.6,1-0.7,2.2-0.6,3.3
					c0.1,1,0.4,2.2,1.2,2.8c0.9,0.7,2-0.5,2.3-1.3c0.1-0.2,0.1-0.4,0.2-0.6c0.1,0.7,0.5,1.4,1.3,1.2c0.9-0.2,1.3-1.5,1.2-2.2
					c0-0.2-0.1-0.5-0.2-0.8c0.1-0.1,0.2-0.2,0.3-0.3c0,0.2,0,0.4,0.1,0.5c0.1,0.6,0.2,1.3,0.4,1.8c0.2,0.4,0.6,0.4,1,0.1
					c0.3-0.3,0.5-0.6,0.7-1c0.2,0.5,0.5,0.9,1,0.8c0.7-0.1,1.2-0.8,1.3-1.5C56.9,143.1,57,141.9,56.2,141.6z M51.5,145.1
					c0,0.1,0,0.1,0,0.2c0,0,0,0-0.1,0c-0.5,0.1-0.8-0.5-0.9-0.8v-0.1l0,0c0-0.1,0-0.1,0-0.2c0-0.1,0-0.3,0-0.5c0,0,0-0.1,0-0.2
					c0,0,0,0,0.1,0c0.5-0.1,0.8,0.5,0.9,0.8C51.5,144.6,51.5,144.9,51.5,145.1z M54.8,140.6c0-0.6,0.2-1.8,0.2-1.8l0,0l0,0
					c0.2,0,0.2,0.3,0.3,0.4c0.1,0.6-0.1,1.3-0.2,1.9c-0.1,0.2-0.1,0.5-0.2,0.7C54.8,141.5,54.8,141,54.8,140.6z M56,144.3
					C56,144.3,56,144.4,56,144.3C55.9,144.4,55.9,144.4,56,144.3c-0.3,0-0.4-0.2-0.5-0.4c-0.2-0.3-0.3-0.6-0.4-1
					c0.1-0.2,0.1-0.3,0.2-0.5c0,0,0,0,0-0.1l0,0c0.1,0,0.2,0,0.3,0.1c0.3,0.2,0.3,0.6,0.3,0.9C56,143.7,56,144,56,144.3z"/>
			</g>
		</g>
	</g>
	<g>
		<path class="st4" d="M41.5,159c-0.7,0.1-1,0.9-1,1.5c-0.1,0.5-0.1,1.7,0.7,1.8c0.8,0.1,1.1-0.9,1.1-1.5
			C42.3,160.3,42.3,159.1,41.5,159c-0.2,0-0.6,0.6-0.4,0.6c0.4,0,0.5,0.6,0.5,0.9c0,0.2,0,0.5,0,0.8c0,0.1,0,0.2-0.1,0.3
			c0,0.1-0.1,0.3,0,0.2c-0.4,0.2-0.5-0.7-0.5-0.9s0-0.5,0-0.8c0-0.1,0-0.3,0.1-0.4c0-0.1,0.1-0.1,0-0.1
			C41.4,159.6,41.8,159,41.5,159z"/>
		<path class="st4" d="M44.9,159c-0.7,0.1-1,0.9-1,1.5c-0.1,0.5-0.1,1.7,0.7,1.8c0.8,0.1,1.1-0.9,1.1-1.5
			C45.6,160.3,45.6,159.1,44.9,159c-0.2,0-0.6,0.6-0.4,0.6c0.4,0,0.5,0.6,0.5,0.9c0,0.2,0,0.5,0,0.8c0,0.1,0,0.2-0.1,0.3
			c0,0.1-0.1,0.3,0,0.2c-0.4,0.2-0.5-0.7-0.5-0.9s0-0.5,0-0.8c0-0.1,0-0.3,0.1-0.4c0-0.1,0.1-0.1,0-0.1
			C44.8,159.6,45.2,159,44.9,159z"/>
		<path class="st4" d="M45.9,161.7c0.4,1.3,2.4,0.4,2.1-0.8c-0.2-0.6-0.8-0.5-1.3-0.7c-0.3-0.1-0.3-0.3-0.3-0.5
			c0.1-0.3,0.1-0.3-0.1-0.1c0.1,0,0.1,0,0.2-0.1c0.4-0.1,0.9-0.1,1.2,0.1c0.2,0.1,0.6-0.4,0.4-0.5c-0.5-0.2-1.1-0.2-1.6-0.1
			c-0.5,0.1-0.6,0.6-0.6,1c0,0.6,0.5,0.6,1,0.7c0.3,0.1,0.6,0.1,0.7,0.5c0.1,0.6-0.6,0.5-0.9,0.4c-0.1-0.1-0.2-0.3-0.3-0.4
			C46.3,161.1,45.8,161.5,45.9,161.7L45.9,161.7z"/>
		<path class="st4" d="M42.8,162.9c0.3-0.2,0.4-0.6,0.5-0.9c0-0.1,0-0.2-0.1-0.3s-0.3,0-0.5,0c-0.1,0.1-0.3,0.2-0.3,0.4
			s0.2,0.1,0.3,0.1l0,0l0,0v0.1c0,0.1,0,0.1-0.1,0.2c0,0,0,0,0,0.1l0,0l0,0c0.1-0.1,0,0,0,0c-0.1,0.1-0.2,0.3-0.1,0.4
			C42.5,163.2,42.7,163,42.8,162.9L42.8,162.9z"/>
	</g>
	<g>
		<path class="st9" d="M37.5,134.5c-0.1,0-0.2-0.2-0.3-0.2c-0.4-0.2-0.7,0.1-1.1,0.1c-0.9,0-1.3,0-2.4-0.3c0-1,0.6-1.6,0.8-2.4
			c0.2-0.7-0.1-1.5-0.1-2.3c0-0.5,0-0.9,0-1.4c-0.3,0.3-0.2,1.2-0.2,1.6c-0.1-0.6-0.1-1.4-0.3-1.9c-0.1,0.6,0,1.3,0,1.9
			c-0.2-0.5-0.2-1.2-0.4-1.6c-0.3,0.5,0.2,1.3,0.1,1.8c-0.2-0.5-0.3-1-0.5-1.5c-0.1,0.6,0.2,1.2,0.2,1.6c-0.2-0.4-0.3-0.8-0.6-1.1
			c0,0.4,0.3,0.9,0.4,1.3c-0.3-0.1-0.4-0.5-0.6-0.6c0,0.3,0.3,0.5,0.4,0.8c-0.2-0.1-0.3-0.3-0.5-0.4c0,0.3,0.3,0.4,0.3,0.6
			c-0.1-0.1-0.3-0.2-0.4-0.3c0,0.2,0.3,0.4,0.3,0.5c0,0-0.2-0.1-0.2,0c0,0,0.2,0.1,0.1,0.2c-0.1,0-0.1,0-0.2,0
			c0,0.2,0.2,0.1,0.1,0.3c-0.1,0-0.1-0.1-0.1,0s0.1,0.1,0.1,0.2c-0.8,0.8-0.4,1.8-0.5,2.8c0.1-0.1-0.7-0.3-1.2-0.5
			c-0.3-0.1-0.4-0.5-0.6-0.6c0-0.1,0.1,0,0.1-0.1c-0.1,0-0.2-0.1-0.2-0.2c0.1,0,0.3,0.1,0.3,0c-0.1-0.1-0.5-0.2-0.5-0.3
			c0.2,0,0.4,0.1,0.5,0.1c-0.2-0.1-0.6-0.3-0.6-0.5c0.2,0.1,0.5,0.3,0.7,0.2c-0.3-0.2-0.8-0.4-0.9-0.7c0.3,0.1,0.6,0.4,0.8,0.4
			c-0.4-0.1-0.7-0.6-1.1-0.6c0.2,0.4,0.8,0.6,0.9,0.8c-0.3-0.2-0.6-0.3-1-0.5c0.1,0.4,0.6,0.5,0.9,0.8c-0.3,0-0.5-0.2-0.8-0.2
			c0.1,0.3,0.6,0.2,0.7,0.5c-0.1-0.1-0.3,0-0.5,0c0,0.2,0.4,0.2,0.5,0.3c-0.2,0-0.3,0-0.4,0.1c0.1,0.1,0.3,0.1,0.4,0.2
			c-0.1,0-0.2,0-0.2,0.1s0.3,0,0.3,0.1c-0.1,0-0.1,0.1-0.1,0.1c0.1,0,0.2,0,0.2,0c-0.1,0-0.1,0-0.1,0.1c0.4,0.2,0.7,0.9,1.3,1.2
			c-0.3,0.2,0.3,0.4-3.5,1.8c0.1,0,1.7-0.4,2.2-0.5c0.5-0.2,0.9-0.3,1.4-0.4c0.1,0,0.2-0.1,0.3-0.1c0.8-0.1,1.5,0.1,2.3-0.4
			c-0.6,0.1-1.6,0.2-2-0.1c0.5-0.8,0.2-2.9,0.6-3.3c0.4-0.4,1.1-1.7,1.9-0.6c0.1,0.2,0.2,0.4-0.1,0.9c-0.4,0.6-0.6,0.8-0.5,2.1
			c0,0.3,0,0.5-0.4,0.5c1.7,0.4,2.2,0.2,3.1,0c0.3,0,0.8-0.3,0.8,0c0,0.1-0.3,0.1-0.6,0.1c-0.5,0,0.2,0.2,0.4,0.2
			c0.1,0,1-0.1,1.5-0.2C38,134.6,37.8,134.6,37.5,134.5z"/>
		<path class="st9" d="M32.6,125.9c-3.8,0-6.9,3.1-6.9,6.9c0,3.8,3.1,6.9,6.9,6.9s6.9-3.1,6.9-6.9S36.4,125.9,32.6,125.9
			 M32.6,126.2c3.7,0,6.7,3,6.7,6.7s-3,6.7-6.7,6.7s-6.7-3-6.7-6.7S28.9,126.2,32.6,126.2"/>
	</g>
	<g>
		<g>
			<path class="st4" d="M56.2,153.6c0.4-0.2,1.7-1.1,1-1.6c-0.4-0.3-0.9,0.4-1.1,0.6c-0.2,0.4-0.6,1.1-0.2,1.5
				c0.2,0.2,0.5,0.1,0.8,0.1c0.5-0.1,0.9-0.3,1.2-0.6c0.3-0.3-0.3-0.2-0.4-0.1c-0.2,0.2-0.7,0.6-1,0.4c-0.2-0.2-0.1-0.7,0-0.9
				c0.1-0.1,0.1-0.3,0.2-0.4c0-0.1,0.1-0.1,0.1-0.2l0.1-0.1l0,0c0.5,0.2-0.7,1-0.8,1.1C55.6,153.6,56,153.8,56.2,153.6L56.2,153.6z"
				/>
			<g>
				<path class="st4" d="M57.3,154.1c-0.1,0.5,0.5,0.8,1,0.6s0.6-0.7,0.7-1.1c0.1-0.3,0.1-0.9-0.2-1.1c-0.1-0.1-0.4,0-0.6,0
					c-0.3,0.1-0.5,0.4-0.6,0.7c-0.1,0.2,0.5,0.1,0.5-0.1c0.1-0.3,0.2-0.3,0.3,0c0,0.2,0,0.4,0,0.6c0,0.2-0.1,0.5-0.2,0.6
					c0,0.1-0.1,0.1-0.2,0.2c0,0,0,0-0.1,0c-0.2-0.1-0.2-0.2-0.2-0.3C57.9,153.8,57.3,154,57.3,154.1L57.3,154.1z"/>
				<path class="st4" d="M57.7,152.1c-0.2,1.3-0.6,2.6-1.1,3.8c-0.1,0.2,0.6,0.1,0.6-0.1c0.5-1.2,0.8-2.6,1-3.9
					C58.3,151.8,57.7,152,57.7,152.1L57.7,152.1z"/>
			</g>
			<path class="st4" d="M69.9,152.4c0.2,0.2,0.5,0.5,0.8,0.2c0.2-0.2,0.2-0.5,0.2-0.8c-0.1-0.3-0.2-0.6-0.4-0.9
				c-0.1-0.2-0.3-0.5-0.4-0.8c-0.1,0.1-0.2,0.2-0.3,0.3c0.2,0.7,0.9,1.1,1.4,1.6c0.2,0.2,0.4-0.4,0.3-0.5c-0.4-0.5-0.6-1.2-0.8-1.8
				c-0.1,0.1-0.2,0.2-0.3,0.4c0.2,0.4,1.4,2.3,1.9,1.1c0.1-0.2,0-0.7-0.2-0.3c-0.1,0.2-0.7-0.3-0.8-0.4c-0.2-0.2-0.5-0.5-0.6-0.9
				c-0.1-0.3-0.3,0.2-0.3,0.4c0.2,0.7,0.4,1.5,0.8,2.1c0.1-0.2,0.2-0.4,0.3-0.5c-0.2-0.3-0.5-0.5-0.8-0.7c-0.2-0.2-0.5-0.5-0.6-0.8
				s-0.3,0.2-0.3,0.3c0,0.4,0.3,0.7,0.4,1c0.1,0.2,0.2,0.4,0.3,0.7v0.1c0.1-0.1,0.1-0.1-0.1-0.1c-0.1,0-0.2-0.2-0.3-0.3
				C70,151.7,69.8,152.2,69.9,152.4L69.9,152.4z"/>
			<path class="st4" d="M65,152.7c0.2,0.7,0.4,1.3,0.6,2c0,0.3,0.5-0.2,0.5-0.4c-0.1-0.4,0-0.6,0.2-1s0.2-0.8,0.2-1.2
				c0-0.3-0.4,0.1-0.4,0.3c0,0.4,0.1,0.8,0.2,1.1s0.2,0.7,0.4,0.9c0.2,0.2,0.6-0.2,0.7-0.4c0.2-0.4,0.3-0.9,0.2-1.3
				c-0.1-0.2-0.4,0.2-0.3,0.4c0.1,0.3,0,0.6-0.2,0.9c0,0-0.3-0.3-0.3-0.4c-0.2-0.4-0.4-1-0.4-1.5c-0.1,0.1-0.2,0.2-0.4,0.3
				c0,0.4,0,0.7-0.3,1.1c-0.2,0.4-0.2,0.8-0.2,1.2c0.2-0.1,0.3-0.2,0.5-0.4c-0.1-0.7-0.4-1.3-0.6-2C65.3,152.1,65,152.5,65,152.7
				L65,152.7z"/>
			<path class="st4" d="M59.3,152.8c-0.1,0.7-0.1,1.4-0.3,2.1c-0.1,0.3,0.5,0,0.5-0.2c0.1-0.4,0.2-0.6,0.5-0.8
				c0.3-0.3,0.5-0.7,0.6-1.1c0.1-0.3-0.4-0.1-0.4,0.1c-0.2,0.4-0.2,0.7-0.3,1.1c0,0.3-0.1,0.7,0,1c0.1,0.2,0.4,0.1,0.6,0.1
				c0.5-0.1,0.7-0.5,0.9-0.9c0.2-0.3-0.3-0.2-0.4,0s-0.2,0.5-0.5,0.5c-0.1,0-0.1-0.3-0.1-0.4c0-0.5,0-1.1,0.2-1.5
				c-0.1,0-0.3,0.1-0.4,0.1c-0.1,0.4-0.3,0.7-0.7,0.9c-0.3,0.3-0.5,0.6-0.6,1c0.2,0,0.4-0.1,0.5-0.2c0.1-0.7,0.2-1.4,0.2-2.1
				C59.8,152.4,59.4,152.7,59.3,152.8L59.3,152.8z"/>
			<path class="st4" d="M63.1,154.6c-0.2,0.3-0.4-0.7-0.4-0.7c-0.1-0.4-0.1-0.8-0.1-1.2c0-0.3-0.4,0.1-0.4,0.3c0,0.3,0,0.7,0,1
				c0,0.2,0,0.4-0.1,0.5c0,0.2,0,0.3-0.2,0.1c-0.5-0.3-0.2-1.4-0.1-1.8c0.1-0.3-0.4,0-0.4,0.1c-0.1,0.4-0.5,2.3,0.4,2.2
				c1.1-0.1,0.8-1.8,0.8-2.5c-0.1,0.1-0.3,0.2-0.4,0.3c0,0.6,0,1.3,0.2,1.8s0.7,0.3,1,0C63.6,154.5,63.3,154.4,63.1,154.6
				L63.1,154.6z"/>
			<g>
				<path class="st4" d="M68.4,151.3c0.1,0.6,0.4,1.1,0.7,1.6c0.1,0.1,0.2,0.3,0.4,0.3c0.3,0,0.5-0.4,0.5-0.6
					c0.1-0.3-0.2-0.4-0.3-0.1c-0.1,0.3-0.5-0.4-0.6-0.5c-0.2-0.3-0.4-0.7-0.5-1.1C68.6,150.6,68.3,151.1,68.4,151.3L68.4,151.3z"/>
				<path class="st4" d="M67.6,153.4c0.2-0.2,0.5-0.5,0.7-0.3s-0.1,0.2-0.3,0.2c-0.5-0.2-0.7-1.2-0.7-1.7c-0.1-0.3-0.4,0.1-0.3,0.3
					c0.1,0.5,0.5,2.7,1.5,1.8c0.3-0.3,0.4-0.7,0.2-1c-0.3-0.5-0.8,0-1.1,0.3c-0.1,0.1-0.2,0.2-0.2,0.4
					C67.4,153.4,67.5,153.5,67.6,153.4L67.6,153.4z"/>
			</g>
			<path class="st4" d="M65,154.4c-0.5,0.1-0.4-1.6-0.4-1.9c0-0.2-0.4,0.1-0.4,0.3c0,0.1,0,0.2-0.1,0.4s-0.2,0.1-0.3,0
				c-0.1-0.1-0.1-0.3-0.1-0.5c0-0.3-0.3,0-0.4,0.1s-0.2,0.3-0.3,0.4c-0.2,0.3,0.2,0.3,0.3,0c0.1-0.1,0.2-0.3,0.3-0.4
				c-0.1,0-0.2,0.1-0.4,0.1c-0.1,0.4,0.1,1.1,0.7,0.8c0.4-0.2,0.5-0.7,0.5-1.1c-0.1,0.1-0.3,0.2-0.4,0.3c0,0.4-0.2,2.1,0.5,2.1
				C64.9,154.9,65.2,154.4,65,154.4L65,154.4z"/>
			<path class="st4" d="M64.8,154.9c0.2-0.1,0.4-0.3,0.6-0.4c0.2-0.2,0.4-0.5,0.6-0.7c0-0.1,0.1-0.3,0-0.3c-0.1-0.1-0.3,0.1-0.3,0.2
				c-0.1,0.2-0.2,0.3-0.4,0.5c-0.1,0.1-0.2,0.2-0.2,0.2l-0.1,0.1c-0.2,0-0.3,0.2-0.3,0.3C64.6,154.8,64.6,154.9,64.8,154.9
				L64.8,154.9z"/>
			<path class="st4" d="M55.2,153.4c-0.4-0.2,0.6-1.5,0.8-1.8c0.1-0.2-0.3-0.1-0.4,0s-0.2,0.2-0.3,0.3c-0.1,0.1-0.2-0.1-0.2-0.2
				c0-0.2,0.1-0.3,0.2-0.4c0.2-0.2-0.2-0.2-0.3-0.1c-0.1,0.1-0.3,0.1-0.4,0.2c-0.3,0.1,0,0.3,0.2,0.2c0.1-0.1,0.3-0.1,0.4-0.2
				c-0.1,0-0.2-0.1-0.3-0.1c-0.3,0.3-0.6,1,0,1c0.4,0,0.7-0.3,1-0.6c-0.1,0-0.3,0-0.4,0c-0.2,0.3-1.3,1.6-0.8,2
				C54.9,153.7,55.4,153.5,55.2,153.4L55.2,153.4z"/>
			<path class="st4" d="M54.8,153.6c0.2,0.1,0.4,0,0.6,0s0.5-0.1,0.7-0.2c0.1,0,0.3-0.1,0.2-0.2c0-0.1-0.2-0.1-0.3,0
				c-0.1,0.1-0.3,0.1-0.5,0.2c-0.1,0-0.2,0.1-0.3,0C55.1,153.4,54.9,153.4,54.8,153.6C54.8,153.5,54.7,153.6,54.8,153.6L54.8,153.6z
				"/>
			<path class="st4" d="M58.2,152.7c0.4,0.3,1.1,0.3,1.5,0.1c0.2-0.1,0.2-0.4,0-0.2c-0.2,0.1-0.8,0.1-1-0.1
				C58.5,152.4,58.1,152.6,58.2,152.7L58.2,152.7z"/>
			<path class="st4" d="M53.5,150.4c0.1-0.3,0.2-0.7-0.3-0.8s-0.9,0.2-1.2,0.5c-0.3,0.3-0.6,0.7-0.5,1.1c0.2,0.5,0.7,0.6,1.1,0.6
				s0.3-0.3-0.1-0.3c-0.6,0-0.4-0.8-0.2-1c0.1-0.2,0.3-0.3,0.4-0.5c0.1,0,0.1-0.1,0.2-0.1c0.2-0.1,0.2-0.1,0.1,0
				c0,0.1,0,0.3-0.1,0.4C52.9,150.5,53.4,150.6,53.5,150.4L53.5,150.4z"/>
		</g>
	</g>
	<g>
		<g>
			<path class="st4" d="M63.9,158.3c0.1,0.2,0.3,0.6,0.6,0.4c0.2-0.1,0.3-0.4,0.4-0.6c0-0.3,0-0.6,0-1c0-0.3-0.1-0.6-0.1-0.9
				c-0.1,0.1-0.2,0.1-0.3,0.2c0,0.7,0.4,1.4,0.6,2c0.1,0.3,0.4-0.2,0.4-0.4c-0.1-0.6-0.2-1.3-0.1-1.9c-0.1,0.1-0.2,0.1-0.3,0.2
				c0,0.4,0.4,2.6,1.2,1.7c0.2-0.2,0.2-0.6-0.1-0.4c-0.2,0.2-0.5-0.5-0.5-0.6c-0.1-0.3-0.3-0.7-0.3-1s-0.3,0.1-0.3,0.2
				c-0.1,0.7-0.1,1.5,0,2.2c0.1-0.1,0.3-0.2,0.4-0.4c-0.1-0.3-0.3-0.6-0.4-0.9c-0.1-0.3-0.3-0.6-0.3-1c0-0.3-0.3,0.1-0.3,0.2
				c-0.1,0.3,0,0.7,0,1.1c0,0.2,0,0.5,0,0.7v0.1c0.1-0.1,0.1-0.1,0-0.1c-0.1-0.1-0.1-0.3-0.2-0.4C64.2,157.8,63.8,158.2,63.9,158.3
				L63.9,158.3z"/>
			<path class="st4" d="M58.9,156.7c0-0.5-0.2-0.8-0.7-0.5s-0.7,0.9-0.8,1.4c-0.3,1.3,1.5,0.9,1.9,0.3c0.1-0.1,0-0.2-0.1-0.2
				s-0.2,0.1-0.3,0.2c-0.3,0.5-0.9,0.2-0.9-0.4c0-0.2,0.1-0.5,0.2-0.7s0.1-0.3,0.3-0.4c-0.1,0.1,0,0.4,0,0.5
				C58.4,157.1,58.9,156.9,58.9,156.7L58.9,156.7z"/>
			<path class="st4" d="M60,156.4c-0.5,0-0.8,0.5-0.9,1c-0.1,0.4-0.3,1.3,0.2,1.4c0.6,0.2,1-0.6,1.1-1
				C60.5,157.5,60.6,156.6,60,156.4c-0.1,0-0.5,0.3-0.3,0.4c0.3,0.1,0.3,0.5,0.3,0.7s0,0.4-0.1,0.6c0,0.1,0,0.1-0.1,0.2
				c0,0.1-0.1,0.2-0.1,0.1c-0.3,0.1-0.3-0.6-0.3-0.7c0-0.2,0.1-0.4,0.1-0.6c0-0.1,0.1-0.2,0.1-0.3s0.1-0.1,0-0.1
				C59.9,156.8,60.3,156.5,60,156.4z"/>
			<path class="st4" d="M63,156.5c-0.5,0.1-0.6,0.8-0.7,1.2c0,0.4,0,1.3,0.6,1.3c0.7,0,0.8-0.8,0.8-1.2
				C63.7,157.4,63.6,156.5,63,156.5c-0.1,0-0.4,0.5-0.2,0.5c0.3,0,0.4,0.4,0.5,0.6c0.1,0.2,0.1,0.4,0.1,0.6c0,0.1,0,0.2,0,0.2
				c0,0.1-0.1,0.2,0,0.2c-0.3,0.2-0.5-0.5-0.5-0.6c0-0.2,0-0.4,0-0.6c0-0.1,0-0.2,0-0.3s0.1-0.1,0-0.1C63,156.9,63.3,156.5,63,156.5
				z"/>
			<path class="st4" d="M60.8,156.6c0.1,0.8-0.1,1.6-0.1,2.4c0,0.3,0.5,0,0.5-0.2c0.1-0.4,0.1-0.7,0.2-1.1c0.1-0.2,0.1-0.8,0.4-0.5
				c0.1-0.1,0.2-0.3,0.3-0.4c-0.7-0.5-1.1,0.8-1.2,1.3c0,0.1,0.1,0.1,0.2,0.1c0.5-0.2,0.2,0.7,0.5,0.9s0.8-0.3,1-0.5
				c0.3-0.2,0-0.4-0.2-0.2c-0.3,0.2-0.4,0.3-0.5,0c0-0.2,0-0.3-0.1-0.5c-0.1-0.3-0.4-0.2-0.6-0.1c0.1,0,0.1,0,0.2,0.1
				c0-0.2,0.1-0.9,0.4-0.7c0.1,0.1,0.5-0.3,0.3-0.4c-0.9-0.7-1.3,1.7-1.4,2.2c0.2-0.1,0.3-0.1,0.5-0.2c0.1-0.8,0.2-1.7,0.1-2.5
				C61.2,156.1,60.8,156.4,60.8,156.6L60.8,156.6z"/>
			<path class="st4" d="M59.9,156.8c0.3,0.3,0.9,0.2,1.2,0c0.2-0.1,0.2-0.4,0-0.2c-0.2,0.1-0.6,0.1-0.8,0
				C60.1,156.4,59.8,156.7,59.9,156.8L59.9,156.8z"/>
		</g>
	</g>
</g>
</svg>
