<svg xmlns="http://www.w3.org/2000/svg" viewBox="105 -52 340.5 354"><style>.st0{fill:#519E38;} .st1{fill:#F4F4F4;} .st2{fill:#D6D6D6;} .st3{fill:#EAEAEA;} .st4{fill:#FFFFFF;} .st5{fill:#00AA55;} .st6{fill:#62BA47;} .st7{fill:#63B746;} .st8{fill:#009373;} .st9{fill:url(#SVGID_1_);} .st10{fill:url(#SVGID_2_);} .st11{fill:url(#SVGID_3_);} .st12{fill:url(#SVGID_4_);} .st13{fill:url(#SVGID_5_);}</style><g id="Layer_1"><path class="st0" d="M372.5 210.9v-99.6l-14.6-48.4c3.9-21.7-6.5-28.2-6.5-28.2v-7.8h2.2V15.7c0-2.8-3.9-2.5-3.9-2.5H319.8s-3.9-.3-3.9 2.5v11.2h2.3v7.8h-.1s-10.4 6.5-6.5 28.2c0 0-14.6 13.4-14.6 48.4v99.6s-1.5 21.4 14.3 21.4H358.2c15.7 0 14.3-21.4 14.3-21.4z"/><path class="st1" d="M364.8 205.9v-99.6l-14.6-48.4c3.9-21.7-6.5-28.2-6.5-28.2v-8h-33v8h-.1s-10.4 6.5-6.5 28.2c0 0-14.6 13.4-14.6 48.4v99.6s-1.5 21.4 14.3 21.4h46.8c15.7 0 14.2-21.4 14.2-21.4z"/><path class="st2" d="M342.1 8.2H312.2s-3.9-.3-3.9 2.5v11.2h37.5V10.7l-3.7-2.5z"/><path class="st3" d="M364.7 205.9v-99.6l-14.6-48.4c3.9-21.7-6.5-28.2-6.5-28.2v-8H327v205.6H350.4c15.8 0 14.3-21.4 14.3-21.4z"/><path class="st4" d="M301.8 94.8h-.5c-2.3-.3-3.9-2.4-3.6-4.7 1.9-14.4 8.8-23.1 9.1-23.5 1.4-1.8 4.1-2.1 5.9-.6 1.8 1.4 2.1 4.1.6 5.8-.1.1-5.8 7.4-7.4 19.3-.3 2.2-2.1 3.7-4.1 3.7z"/><g><path class="st0" d="M259.7 210.9v-99.6l-14.6-48.4c3.9-21.7-6.5-28.2-6.5-28.2v-7.8h2.2V15.7c0-2.8-3.9-2.5-3.9-2.5H207s-3.9-.3-3.9 2.5v11.2h2.3v7.8h-.1s-10.4 6.5-6.5 28.2c0 0-14.6 13.4-14.6 48.4v99.6s-1.5 21.4 14.3 21.4H245.4c15.8 0 14.3-21.4 14.3-21.4z"/><path class="st1" d="M252.1 205.9v-99.6l-14.6-48.4c3.9-21.7-6.5-28.2-6.5-28.2v-8h-33v8h-.1s-10.4 6.5-6.5 28.2c0 0-14.6 13.4-14.6 48.4v99.6s-1.5 21.4 14.3 21.4h46.7c15.8 0 14.3-21.4 14.3-21.4z"/><path class="st2" d="M229.3 8.2h-29.8s-3.9-.3-3.9 2.5v11.2h37.5V10.7l-3.8-2.5z"/><path class="st3" d="M252 205.9v-99.6l-14.6-48.4c3.9-21.7-6.5-28.2-6.5-28.2v-8h-16.6v205.6H237.7c15.8 0 14.3-21.4 14.3-21.4z"/><path class="st4" d="M189 94.8h-.5c-2.3-.3-3.9-2.4-3.6-4.7 1.9-14.4 8.8-23.1 9.1-23.5 1.4-1.8 4.1-2.1 5.9-.6 1.8 1.4 2.1 4.1.6 5.8-.1.1-5.8 7.4-7.4 19.3-.2 2.2-2 3.7-4.1 3.7z"/></g><g><circle class="st5" cx="214.4" cy="141.5" r="19.4"/><circle class="st6" cx="198.9" cy="158.7" r="6.1"/><path class="st5" d="M205.2 117.8c0 1.4-1.1 2.5-2.5 2.5s-2.5-1.1-2.5-2.5 1.1-2.5 2.5-2.5 2.5 1.1 2.5 2.5z"/><path class="st6" d="M205.3 126.1c0 1.8-1.4 3.2-3.2 3.2-1.8 0-3.2-1.4-3.2-3.2s1.4-3.2 3.2-3.2c1.8 0 3.2 1.4 3.2 3.2zM196.8 121.2c0 1-.8 1.9-1.9 1.9-1.1 0-1.9-.8-1.9-1.9 0-1.1.8-1.9 1.9-1.9 1 0 1.9.8 1.9 1.9z"/><circle class="st6" cx="231" cy="123.8" r="10.7"/><path class="st4" d="M228.3 122.3c-.9.1-1.1 1.2-1.2 1.9v.3c0 .3 0 .6-.1.9 0 .1-.1.4-.1.4-.3 0-.6-.4-.7-.7-.2-.5-.4-1.1-.5-1.7-.1-.6-.2-1.3-.2-1.9v-.8-.3-.2c.1-.5-.6 0-.7.2-.7 1.2-.5 2.7-.5 4.1 0 .4 0 .7-.1 1.1 0 .2-.1.7-.3.9-.1.1-.4 0-.5 0-.2-.1-.3-.3-.3-.5s-.3-.1-.4 0c-.2.2-.3.4-.3.6.1.5.5.9 1 .8.8-.2 1.1-1.2 1.3-1.9.1-.4.1-.7.2-1.1.1.5.3 1.1.5 1.5s.5.7.9.6c.3-.1.6-.4.7-.8.2.4.4.6.8.6s.8-.5 1-.9c.2-.4.3-.9.2-1.4.4-.5.2-1.8-.7-1.7zm.3 3.1c0 .1 0 .2-.1.3-.2 0-.3-.3-.4-.4-.1-.3-.2-.6-.2-.9v-1c0-.1 0-.2.1-.3.4.3.5.8.6 1.3.1.3.1.6 0 1zM238.9 123.5c-1-.4-1.5.9-1.7 1.7-.2.7-.4 1.9.5 2.2.4.2.9-.1 1.1-.4.3-.3.5-.8.6-1.2.2-.7.4-1.9-.5-2.3zm-.5 3.1c0 .1-.1.2-.1.2-.1-.1-.2-.4-.2-.5-.1-.3 0-.7 0-1 .1-.3.2-.7.3-.9 0-.1.1-.1.1-.2.4.4.3 1 .2 1.5l-.3.9zM236.4 123.7c.2-.2.3-.5.5-.7.4-.5.7-1.2.7-1.8s-.9-.7-1.3-.4c-.6.3-1 .9-1.1 1.6-.2.8-.4 1.7-.4 2.5-.3.4-.9 1.1-1.4.8-.1-.1-.2-.2-.2-.4.4-.4.7-.8 1.1-1.3.3-.4.5-1.2-.1-1.5-.5-.3-1.1 0-1.4.4-.3.4-.5.9-.5 1.4 0 .3-.1.7 0 1.1-.3.2-.6.3-1 .2-.4-.1-.5-.5-.6-.8-.1-.4-.1-.9 0-1.4 0-.1.1-.3.1-.4v-.1c.2.1.3.4.4.6.1.3.9-.2.8-.5s-.2-.6-.6-.8c-.3-.2-.8.1-1 .3-.6.6-.6 1.4-.6 2.2 0 .5.1 1.1.6 1.4.6.4 1.4 0 1.9-.3.1.4.4.6.9.6.6-.1 1.1-.4 1.5-.8 0 .4.1.9.4 1.1.5.3 1.1 0 1.5-.5.4-.6.7-1.3.4-2-.1-.4-.4-.5-.6-.5zm-3.3-.4c0-.1.1-.2.1-.3.2.1.3.4.2.5 0 .4-.3.7-.6 1v-.2c.2-.3.2-.6.3-1zm3.1-1.7c.1-.1.1-.2.2-.4.4.4 0 1-.2 1.4s-.4.8-.7 1.1c.1-.4.1-.7.2-1.1.2-.3.3-.7.5-1zm-.2 4.4s-.1.1-.1.2h-.1c-.2-.1-.3-.6-.3-.8v-.5l.3-.3c.2-.1.4.1.4.3.1.2 0 .7-.2 1.1z"/><g><path class="st4" d="M196 158.5c.2-.2.4-.5.6-.8.1-.1.2-.2.3-.4.1-.1.1-.1 0 0v.6c0 1.1 0 2.1-.1 3.2 0 .4.7-.1.7-.4.1-.7.1-1.4.1-2.1 0-.3.2-1.9-.1-2-.7-.2-1.4 1.4-1.8 1.8-.6.4 0 .4.3.1zM201.4 157c-.7 1.2-1.7 2.4-2.5 3.5-.4.5.2.5.5.1.9-1.2 1.9-2.4 2.7-3.7.2-.4-.5-.2-.7.1zM200.1 156.7c-.5 0-.8.4-.9.9-.1.4.2.7.6.7.8 0 1.3-1.6.3-1.6-.2 0-.6.5-.3.5.2 0 .3.2.4.4v.2c0 .1 0 0 0 0h-.1c-.2 0-.3-.2-.4-.4v-.3h.1c.2.1.5-.4.3-.4zM201.3 159.3c-.5 0-.8.4-.9.9-.1.4.2.7.6.7.9.1 1.3-1.5.3-1.6-.2 0-.6.5-.3.5.2 0 .3.2.4.4v.2c0 .1 0 0 0 0h-.1c-.2 0-.3-.2-.4-.4v-.3h.1c.3.1.6-.4.3-.4z"/></g><g><path class="st4" d="M229.8 144.1c.2-1 .3-2.3-.5-3.2-.4-.5-1.2-.4-1.7-.3 0-.4.1-.8.1-1.3 0-.4-.7-.3-.9-.2-.3.1-.7.4-.7.7 0 1.4-.2 2.9-.4 4.3-.1.4-.3 1.1-.7 1.3s-.6-1.2-.6-1.4c0-1.4.3-2.9.6-4.3.1-.3-.4-.4-.6-.3-.4.1-.8.3-.9.7-.2 1.1-.4 2.2-.7 3.3-.1.5-.3.9-.5 1.4v.1c-.1 0-.2-.1-.3-.1-.7-.4-.6-1.9-.5-2.4.1-.9.3-1.9.7-2.7.1-.3 0-.5-.4-.5-.2 0-.4.1-.6.2-.1.1-.4.2-.4.2-.1 0-.2.1-.3.1-.8.3-1.4-.1-1.8-.7-.1-.2-.3-.3-.4-.4-.6-.3-1.2-.1-1.8.1 0-.4-.1-.8-.1-1.3-.1-.3-.7-.1-.9 0-.3.2-.6.5-.6.8-.4 0-.9.3-1.1.5-.9.7-1.2 1.9-1.2 3-.1 1-.7 2.5-1.8 2.4-.2 0-.5-.4-.6-.6.4-.5.7-1.1 1-1.6.6-.9 1-2.3.3-3.2-.5-.6-1.7-.1-2.2.4-.7.7-.9 1.6-.9 2.4 0 .6 0 1.6.3 2.5-.2.2-.4.6-.7.4-.2-.1-.3-.4-.4-.7-.3-.8-.3-1.6-.6-2.4-.5-1.1-1.6-1.1-2.7-.6-.1-1-.2-2 .3-2.9.5-1.1 1.7-.7 2.4-.2.5.3 1.7-1 1.2-1.3-.7-.5-1.5-.9-2.5-.5-.8.3-1.5.9-1.9 1.6-.1.1-.2.2-.2.4-.2-.7-.5-1.4-.8-2.1-.1-.3-.6 0-.7.1-1.5 1-4 3.2-3 5.2.2.5 1.4-.9 1.2-1.4-.4-.8.5-1.7 1.3-2.4.6 1.7 1.1 3.4 1.5 5.1.2 1.1.4 2.3-.1 3.2-.5 1-1.8.4-2-.4-.1-.7-1.2.7-1.1 1.1.1.6.4 1 1 1.3.5.2 1.1-.1 1.6-.4 1.2-.8 1.9-2.1 2-3.5.1-.6 0-1.1 0-1.7.4-.1.8-.1 1 .3.6.6.6 1.7.8 2.5.2.6.4 1.3 1.2 1.2.6-.1 1.1-.5 1.5-1 .3.3.6.6 1 .6.8.1 1.7-.6 2.2-1l.6-.6c.1.4.3.7.6 1s.8.4 1.2.4c.2 0 .4-.1.5-.1-.1 1.3-.1 2.7-.3 4 0 .4.4.3.6.2.3-.2.6-.5.7-.8.1-1.1.2-2.1.3-3.2.5 0 1.1-.2 1.5-.5 1-.8 1.3-2.1 1.3-3.3v-.7c.4 0 .9-.1 1.3-.2-.3.8-.4 1.7-.5 2.6 0 .9 0 2.3 1.2 2.6.8.2 1.4-.1 1.9-.5 0 .2.1.3.2.5.4 1 1.4.7 2.1.4-.3 1.4-.6 2.9-1 4.3-.1.3.3.4.5.3.3-.1.7-.3.8-.6.3-1 .6-2.1.8-3.1.5.1 1 .1 1.5-.1 1.1-.6 1.6-1.9 1.8-3zm-20.3-2.7c0-.5 0-1.1.2-1.6.1 0 .2 0 .3.1.7.4.2 1.5 0 2l-.3.6c-.1-.3-.2-.7-.2-1.1zm5.5 2.6c-.1 0-.2 0-.2-.1-.2-.1-.4-.4-.5-.6-.3-.7-.4-1.4-.4-2.1 0-.6.1-1.2.4-1.8l.1.1c.5.3.7 1 .8 1.5-.1 1.1-.1 2.1-.2 3 .1 0 0 0 0 0zm2.3 0c0 .1 0 .1 0 0 0 .1 0 .1 0 0-.6.1-.9-.3-.9-.7 0-1 .1-2 0-3 0-.5.1-.7.1-.7.1 0 .4.1.5.3.5.6.5 1.4.6 2 .1.7.1 1.5-.3 2.1zm10.3 2.2c0 .1 0 .1 0 0-.6 0-.8-.6-.7-1 0 0 .4-1.8.5-2.8 0-.1.2-.6.3-.8.2 0 .3.2.4.4.3.7.3 1.5.2 2.2 0 .6-.2 1.5-.7 2z"/></g><g><path class="st7" d="M190.9 133.3c-.1 0-.2-.2-.3-.2-.4-.1-.7.1-1.1.1-.9 0-1.3 0-2.4-.3 0-1 .5-1.5.8-2.3.2-.7-.1-1.4-.1-2.2V127c-.3.3-.2 1.2-.2 1.6-.1-.6-.1-1.3-.3-1.8-.1.5 0 1.3 0 1.8-.2-.5-.2-1.1-.4-1.6-.3.5.2 1.3.1 1.8-.2-.5-.3-1-.5-1.4-.1.6.2 1.1.2 1.6-.2-.4-.3-.8-.6-1.1 0 .4.3.9.4 1.3-.3-.1-.3-.4-.6-.6 0 .3.3.5.4.7-.2-.1-.3-.3-.5-.4 0 .3.3.4.3.6-.1-.1-.2-.2-.4-.3 0 .2.3.4.3.5 0 0-.2-.1-.2 0 0 0 .2.1.1.2h-.2c0 .2.2.1.1.3-.1 0-.1-.1-.1 0s.1.1.1.2c-.8.8-.4 1.7-.4 2.7.1-.1-.7-.3-1.2-.5-.3-.1-.4-.5-.6-.6 0-.1.1 0 .1-.1-.1 0-.2-.1-.2-.2.1 0 .3.1.3 0-.1-.1-.5-.2-.4-.3.2 0 .4.1.5.1-.2-.1-.6-.3-.6-.5.2.1.5.3.7.2-.3-.2-.8-.4-.9-.7.2.1.6.4.8.4-.4-.1-.7-.6-1.1-.6.2.4.8.6.9.8-.3-.2-.6-.3-.9-.5.1.4.6.5.8.7-.3 0-.5-.2-.8-.2.1.3.6.2.7.5-.1-.1-.3 0-.5 0 0 .2.3.2.5.3-.2 0-.3 0-.4.1.1.1.3.1.4.2-.1 0-.2 0-.2.1s.2 0 .3.1c-.1 0-.1.1-.1.1h.2c-.1 0-.1 0-.1.1.4.2.7.9 1.2 1.1-.3.2.3.4-3.4 1.7.1 0 1.6-.4 2.1-.5.5-.2.9-.3 1.4-.4.1 0 .2-.1.3-.1.8-.1 1.5.1 2.2-.4-.6.1-1.6.2-2-.1.5-.8.2-2.8.5-3.2.4-.4 1-1.7 1.8-.6.1.2.1.4-.1.9-.3.6-.6.8-.5 2 0 .2 0 .5-.4.5 1.6.3 2.1.2 3 0 .3 0 .8-.3.8 0 0 .1-.3.1-.6.1-.4 0 .2.2.4.1.1 0 1-.1 1.4-.2-.4-.1-.6-.1-.8-.2z"/><path class="st7" d="M186.1 125c-3.7 0-6.7 3-6.7 6.7s3 6.7 6.7 6.7 6.7-3 6.7-6.7-3-6.7-6.7-6.7m0 .3c3.6 0 6.5 2.9 6.5 6.5s-2.9 6.5-6.5 6.5-6.5-2.9-6.5-6.5 2.9-6.5 6.5-6.5"/></g></g><g><circle class="st8" cx="329.4" cy="141.3" r="21.1"/><circle class="st6" cx="312.6" cy="160" r="6.6"/><path class="st8" d="M319.4 115.5c0 1.5-1.2 2.7-2.7 2.7s-2.7-1.2-2.7-2.7 1.2-2.7 2.7-2.7 2.7 1.2 2.7 2.7z"/><path class="st6" d="M319.5 124.6c0 1.9-1.5 3.5-3.5 3.5-1.9 0-3.5-1.5-3.5-3.5 0-1.9 1.6-3.5 3.5-3.5 2 0 3.5 1.6 3.5 3.5zM310.3 119.2c0 1.1-.9 2.1-2.1 2.1-1.1 0-2.1-.9-2.1-2.1 0-1.1.9-2.1 2.1-2.1 1.1.1 2.1 1 2.1 2.1z"/><circle class="st6" cx="347.4" cy="122.1" r="11.6"/><path class="st4" d="M344.5 120.4c-1 .1-1.2 1.3-1.3 2v.3c0 .4 0 .7-.1 1 0 .2-.1.5-.1.5-.3 0-.6-.5-.7-.7-.2-.6-.4-1.2-.5-1.8-.1-.7-.2-1.4-.2-2.1v-.8-.3-.2c.1-.5-.6 0-.8.2-.8 1.3-.5 2.9-.5 4.4 0 .4 0 .8-.1 1.2 0 .3-.1.8-.3 1-.1.1-.4 0-.5 0-.2-.1-.3-.3-.3-.5s-.3-.1-.4 0c-.2.2-.3.5-.3.7.1.5.6 1 1.1.8.9-.3 1.2-1.3 1.4-2.1.1-.4.2-.8.2-1.2.1.6.3 1.1.6 1.7.2.4.5.8 1 .7.4-.1.6-.5.8-.9.2.4.4.7.9.6.5 0 .9-.6 1.1-.9.2-.5.3-1 .3-1.5-.1-.8-.3-2.2-1.3-2.1zm.3 3.4c0 .1 0 .2-.1.3-.2 0-.3-.3-.4-.4-.2-.3-.2-.7-.3-1v-1.1c0-.1 0-.2.1-.3.5.3.6.9.6 1.4.2.3.2.7.1 1.1zM356.1 121.8c-1-.4-1.6 1-1.8 1.8-.2.7-.4 2 .5 2.4.4.2 1-.1 1.2-.4.3-.4.5-.8.6-1.3.2-.8.4-2.2-.5-2.5zm-.6 3.3c0 .1-.1.2-.1.2-.2-.1-.2-.4-.2-.6-.1-.4 0-.7 0-1.1.1-.4.2-.7.3-1 0-.1.1-.2.1-.2.4.5.3 1.1.2 1.6-.1.4-.2.8-.3 1.1zM353.3 122c.2-.3.4-.5.6-.8.4-.6.8-1.3.7-2 0-.7-.9-.7-1.4-.5-.7.3-1 1-1.2 1.7-.3.9-.4 1.8-.4 2.7-.3.4-1 1.2-1.5.9-.1-.1-.2-.3-.3-.4.4-.5.8-.9 1.1-1.4s.5-1.3-.1-1.6c-.5-.3-1.1 0-1.5.5-.3.4-.5.9-.5 1.5 0 .3-.1.8 0 1.2-.3.2-.7.3-1 .2-.4-.1-.5-.5-.6-.8-.1-.5-.1-1 0-1.5 0-.1.1-.3.1-.4v-.1c.2.1.4.5.4.7.1.3 1-.2.9-.5s-.2-.7-.6-.9c-.4-.2-.9.1-1.1.4-.6.6-.7 1.6-.7 2.4 0 .5.1 1.2.6 1.5.6.4 1.5 0 2.1-.3.2.4.5.7 1 .6.6-.1 1.2-.4 1.6-.9 0 .5.1 1 .5 1.2.5.3 1.2 0 1.6-.5.5-.6.7-1.4.5-2.2-.2-.6-.5-.7-.8-.7zm-3.5-.4c0-.1.1-.3.2-.4.2.1.3.4.3.6-.1.4-.3.8-.6 1.1v-.2c-.1-.4-.1-.8.1-1.1zm3.3-2c.1-.1.2-.3.3-.4.4.5 0 1.1-.2 1.5s-.5.8-.8 1.2c.1-.4.1-.8.2-1.2.2-.3.3-.7.5-1.1zm-.2 4.8s-.1.1-.1.2h-.1c-.3-.1-.3-.7-.3-.9v-.6c.1-.1.2-.2.3-.4.2-.2.4.1.4.4.1.4 0 .9-.2 1.3z"/><g><path class="st4" d="M308.1 159c.2-.6.7-.2.9.1.2.5 0 .9-.3 1.3-.2.3-.5.6-.9.8-.2.1-.3.2-.4.4 0 .1-.1.2 0 .3.2.2.7.2 1 .2.5 0 1 0 1.5-.2.3-.1.5-.7 0-.5-.4.2-.8.1-1.2.1-.2 0-.6 0-.8-.1v.3c-.2.4-.1.2.1.1.1-.1.3-.2.4-.3.2-.2.5-.4.7-.7.4-.5.7-1.1.5-1.7-.3-1.4-1.8-.4-2.1.4-.1.1.5-.3.6-.5zM311.8 161.4c.5 1.6 2.9.5 2.5-.9-.2-.7-1-.6-1.6-.8-.3-.1-.3-.4-.3-.6.1-.3.1-.4-.1-.2.1 0 .2-.1.3-.1.5-.1 1-.1 1.5.1.2.1.7-.4.4-.6-.6-.3-1.3-.2-1.9-.1-.6.1-.7.7-.8 1.2 0 .7.6.8 1.1.9.4.1.8.2.8.6.1.7-.7.7-1.1.4-.2-.1-.3-.3-.3-.5 0-.1-.6.3-.5.6zM317.4 158.5c-.7 1.1-1.5 2.2-2.3 3.2-.3.5.2.4.4.1.8-1.1 1.7-2.2 2.4-3.4.3-.5-.4-.2-.5.1zM316.1 158.2c-.4 0-.7.4-.8.8-.1.4.1.7.5.7.8 0 1.2-1.5.3-1.5-.2 0-.5.4-.2.4.2 0 .3.2.3.4v.2c0 .1 0 0 0 0h-.1c-.2 0-.3-.2-.3-.3v-.2h.1c.2-.1.5-.6.2-.5zM317.3 160.6c-.4 0-.7.4-.8.8-.1.4.1.7.5.7.8-.1 1.2-1.5.3-1.5-.2 0-.5.4-.2.4.2 0 .3.2.3.4v.2c0 .1 0 0 0 0h-.1c-.2 0-.3-.2-.3-.3v-.2h.1c.1-.1.4-.6.2-.5zM310.8 162.8c.3-.3.5-.7.6-1 0-.1 0-.3-.1-.4-.1-.1-.4 0-.5 0-.2.1-.3.3-.4.5 0 .2.2.2.3.1v.2c0 .1-.1.2-.1.2v.2c.1-.1 0 0 0 0-.1.1-.3.3-.2.4.1.1.4-.1.4-.2z"/></g><g><path class="st4" d="M346.4 144.1c.2-1.1.3-2.5-.5-3.4-.4-.5-1.3-.5-1.9-.3 0-.5.1-.9.1-1.4 0-.4-.8-.3-.9-.2-.4.1-.8.4-.8.8-.1 1.5-.2 3.1-.4 4.7-.1.5-.3 1.2-.8 1.4s-.7-1.3-.7-1.5c0-1.6.3-3.1.6-4.7.1-.4-.4-.4-.7-.4-.4.1-.9.4-1 .7-.2 1.2-.4 2.4-.7 3.5-.1.5-.3 1-.6 1.5v.1c-.1 0-.2-.1-.3-.1-.8-.5-.6-2-.5-2.7.1-1 .4-2 .8-3 .1-.3 0-.5-.5-.5-.2 0-.5.1-.7.2-.1.1-.4.3-.5.3-.1.1-.2.1-.4.1-.9.3-1.5-.1-2-.7-.1-.2-.3-.3-.5-.4-.6-.4-1.3-.1-1.9.1 0-.5-.1-.9-.2-1.4-.1-.4-.8-.1-1 0-.3.2-.7.5-.7.9-.5.1-.9.3-1.2.6-.9.8-1.3 2-1.3 3.3-.1 1.1-.7 2.7-2 2.6-.3 0-.5-.4-.7-.7.4-.6.8-1.2 1.1-1.7.6-1 1.1-2.5.3-3.5-.5-.6-1.8-.1-2.4.5-.8.7-1 1.7-1 2.6 0 .6 0 1.8.3 2.7-.2.3-.5.6-.8.4-.3-.1-.4-.5-.4-.7-.3-.8-.3-1.8-.6-2.6-.5-1.2-1.7-1.2-2.9-.7-.2-1-.2-2.2.3-3.2.5-1.2 1.8-.7 2.6-.2.5.3 1.9-1 1.3-1.4-.7-.5-1.7-.9-2.7-.5-.9.3-1.6 1-2.1 1.7-.1.1-.2.3-.3.4-.3-.8-.5-1.6-.8-2.3-.1-.3-.6 0-.8.1-1.6 1.1-4.3 3.5-3.3 5.7.2.5 1.5-1 1.3-1.5-.4-.8.5-1.9 1.5-2.6.6 1.8 1.2 3.7 1.6 5.5.3 1.1.5 2.5-.1 3.5-.6 1.1-2 .4-2.2-.5-.1-.8-1.3.7-1.2 1.2.1.6.5 1.1 1.1 1.4.6.2 1.2-.1 1.8-.4 1.3-.8 2-2.3 2.2-3.8.1-.6 0-1.2 0-1.9.4-.1.8-.1 1.1.3.6.7.6 1.8.9 2.7.2.6.5 1.4 1.3 1.3.7-.1 1.2-.6 1.7-1.1.3.4.6.6 1.1.7.9.1 1.8-.6 2.4-1.1.2-.2.4-.4.6-.7.1.4.4.8.6 1.1.3.4.8.5 1.4.4.2 0 .4-.1.6-.2-.1 1.5-.2 2.9-.3 4.4 0 .4.4.3.6.2.3-.2.7-.5.7-.9.2-1.2.3-2.3.3-3.5.5 0 1.2-.2 1.6-.5 1.1-.9 1.4-2.3 1.4-3.6v-.8c.5 0 1-.1 1.4-.2-.3.9-.5 1.9-.5 2.8 0 .9 0 2.5 1.3 2.9.8.2 1.5-.1 2.1-.6 0 .2.1.4.2.5.4 1 1.6.8 2.3.5-.3 1.6-.7 3.1-1.1 4.7-.1.4.3.4.6.4.4-.1.7-.3.9-.7.3-1.1.6-2.2.9-3.4.5.2 1.1.1 1.6-.1 1.6-.5 2.1-1.9 2.4-3.1zm-22.1-2.9c0-.6 0-1.1.2-1.7.1 0 .2 0 .3.1.7.4.2 1.6 0 2.2-.1.2-.2.5-.3.7-.1-.5-.2-.9-.2-1.3zm5.9 2.9c-.1 0-.2 0-.3-.1-.3-.1-.4-.4-.6-.6-.4-.7-.5-1.5-.4-2.3 0-.6.1-1.3.4-1.9.1 0 .1.1.1.1.5.4.8 1.1.8 1.7.1.9.2 2 0 3.1.1 0 .1 0 0 0 .1 0 .1 0 0 0zm2.6 0l-.1.1c-.6 0-.9-.4-.9-.9 0-1.1.1-2.2 0-3.3 0-.6.2-.8.2-.8.1 0 .4.1.6.3.5.6.6 1.5.6 2.2 0 .8 0 1.7-.4 2.4zm11.2 2.3l-.1.1c-.6-.1-.7-.7-.7-1.2 0 0 .4-2 .5-3 0-.1.2-.7.3-.9.2 0 .3.3.5.5.4.7.3 1.7.2 2.4 0 .6-.2 1.5-.7 2.1z"/></g><g><path class="st7" d="M303.8 132.4c-.1 0-.2-.2-.3-.2-.4-.2-.8.1-1.2.1-1 0-1.4 0-2.6-.4 0-1.1.6-1.7.9-2.5.2-.7-.1-1.5-.1-2.4v-1.5c-.3.3-.2 1.3-.2 1.7-.2-.6-.1-1.4-.3-2-.2.6 0 1.4 0 2-.2-.6-.2-1.2-.4-1.7-.3.6.2 1.4.1 1.9-.2-.5-.3-1.1-.6-1.5-.1.7.2 1.2.2 1.7-.2-.4-.3-.9-.6-1.2 0 .4.3 1 .4 1.4-.3-.1-.4-.5-.7-.6.1.3.3.5.4.8-.2-.1-.3-.3-.5-.4 0 .3.3.4.3.7-.1-.1-.3-.2-.4-.3 0 .2.3.4.3.5 0 0-.2-.1-.2 0 .1 0 .2.2.1.2h-.2c0 .2.2.1.1.3-.1 0-.1-.1-.1 0s.1.1.1.2c-.9.9-.4 1.9-.5 2.9.1-.1-.7-.3-1.3-.5-.3-.1-.4-.5-.6-.6 0-.1.1 0 .1-.1-.1 0-.2-.1-.2-.2.1 0 .3.1.3 0-.2-.1-.6-.2-.5-.3.2 0 .4.1.6.1-.2-.1-.7-.3-.7-.5.2.1.5.3.8.2-.4-.2-.9-.5-1-.7.3.1.6.5.9.4-.4-.1-.8-.6-1.2-.6.2.4.8.6 1 .9-.3-.2-.7-.3-1-.5.1.4.6.5.9.8-.3 0-.5-.2-.8-.2.1.3.6.3.8.5-.1-.1-.4 0-.5 0 0 .2.4.2.5.3-.2 0-.3 0-.4.1.1.1.4.1.4.2-.1 0-.2 0-.2.1s.3 0 .3.1c-.1 0-.1.1-.1.1h.2c-.1 0-.1.1-.1.1.5.2.7 1 1.4 1.2-.4.3.3.5-3.7 1.9.1 0 1.8-.4 2.3-.6.5-.2 1-.3 1.5-.5.1 0 .2-.1.4-.1.8-.1 1.6.1 2.4-.5-.6.1-1.7.2-2.1-.1.6-.9.2-3 .6-3.5.5-.4 1.1-1.8 2-.6.1.2.2.5-.1 1-.4.6-.6.9-.5 2.2 0 .3 0 .6-.4.5 1.8.4 2.3.2 3.3 0 .3 0 .8-.3.9 0 0 .1-.3.1-.6.1-.5 0 .2.2.4.2.1 0 1-.1 1.5-.2-.9-.3-1.2-.3-1.5-.4z"/><path class="st7" d="M298.7 123.4c-4 0-7.3 3.3-7.3 7.3s3.3 7.3 7.3 7.3 7.3-3.3 7.3-7.3c0-4.1-3.3-7.3-7.3-7.3m0 .3c3.9 0 7 3.2 7 7 0 3.9-3.2 7-7 7-3.9 0-7-3.2-7-7-.1-3.9 3.1-7 7-7"/></g></g></g><g id="snow"><linearGradient id="SVGID_1_" gradientUnits="userSpaceOnUse" x1="376.726" y1="204.843" x2="394.501" y2="154.479" gradientTransform="matrix(1 0 0 -1 0 250)"><stop offset="0" stop-color="#404B71"/><stop offset=".604" stop-color="#3C476E"/><stop offset="1" stop-color="#354169"/></linearGradient><path class="st9" d="M381.1 90.5l-1.9-7.1 1.7-3 .2.9c.3.9 1.2 1.5 2.2 1.2.2 0 .3-.1.4-.2.7-.4 1-1.2.8-2l-1.1-4.3 2.1-3.7 2.1 3.7-1.2 4.3c-.3.9.3 1.9 1.2 2.2.5.1.9 0 1.3-.2s.7-.6.8-1.1l.2-.9 1.7 3-1.9 7.1c-.3.9.3 1.9 1.2 2.2.5.1.9 0 1.3-.2s.7-.6.8-1.1l1-3.7 2.8 4.8c.5.8 1.6 1.1 2.4.6s1.1-1.6.6-2.4l-2.8-4.8 3.7 1c.5.1.9 0 1.3-.2s.7-.6.8-1.1c.3-.9-.3-1.9-1.2-2.2l-7.1-1.9-1.7-3 .9.2c.5.1.9.1 1.3-.2.4-.2.7-.6.8-1.1.3-.9-.3-1.9-1.2-2.2l-4.3-1.1-2.1-3.7h4.2l3.1 3.1c.6.6 1.5.7 2.1.3.1-.1.3-.2.4-.3.7-.7.7-1.8 0-2.5l-.6-.6h3.5l5.2 5.2c.6.6 1.5.7 2.1.3.1-.1.3-.2.4-.3.7-.7.7-1.8 0-2.5l-2.7-2.7h5.6c.3 0 .6-.1.9-.2.5-.3.9-.9.9-1.5 0-1-.8-1.8-1.8-1.8h-5.6l2.7-2.7c.7-.7.7-1.8 0-2.5s-1.8-.7-2.5 0l-5.2 5.2h-3.5l.6-.6c.7-.7.7-1.8 0-2.5s-1.8-.7-2.5 0l-3.1 3.1h-4.2l2.1-3.7 4.3-1.1c.2 0 .3-.1.4-.2.7-.4 1-1.2.8-2-.3-.9-1.2-1.5-2.2-1.2l-.9.2 1.7-3 7.1-1.9c.2 0 .3-.1.4-.2.7-.4 1-1.2.8-2-.3-.9-1.2-1.5-2.2-1.2l-3.7 1 2.8-4.8c.5-.8.2-1.9-.6-2.4s-1.9-.2-2.4.6l-2.8 4.8-1-3.7c-.3-.9-1.2-1.5-2.2-1.2-.9.3-1.5 1.2-1.2 2.2l1.9 7.1-1.7 3-.2-.9c-.3-.9-1.2-1.5-2.2-1.2-.9.3-1.5 1.2-1.2 2.2l1.1 4.3-2.1 3.7-2.1-3.7 1.1-4.3c.3-.9-.3-1.9-1.2-2.2-.9-.3-1.9.3-2.2 1.2l-.2.9-1.7-3 1.9-7.1c.3-.9-.3-1.9-1.2-2.2-.9-.3-1.9.3-2.2 1.2l-1 3.7-2.8-4.8c-.5-.8-1.6-1.1-2.4-.6s-1.1 1.6-.6 2.4l2.8 4.8-3.7-1c-.9-.3-1.9.3-2.2 1.2-.3.9.3 1.9 1.2 2.2l7.1 1.9 1.7 3-.9-.2c-.9-.3-1.9.3-2.2 1.2-.3.9.3 1.9 1.2 2.2l4.3 1.1 2.1 3.7h-4.2l-3.1-3.1c-.7-.7-1.8-.7-2.5 0s-.7 1.8 0 2.5l.6.6h-3.5l-5.2-5.2c-.7-.7-1.8-.7-2.5 0s-.7 1.8 0 2.5l2.7 2.7h-5.6c-1 0-1.8.8-1.8 1.8s.8 1.8 1.8 1.8h5.6l-2.7 2.7c-.7.7-.7 1.8 0 2.5.6.6 1.5.7 2.1.3.1-.1.3-.2.4-.3l5.2-5.2h3.5l-.6.6c-.7.7-.7 1.8 0 2.5.6.6 1.5.7 2.1.3.1-.1.3-.2.4-.3l3.1-3.1h4.2l-2.1 3.7-4.3 1.1c-.9.3-1.5 1.2-1.2 2.2.3.9 1.2 1.5 2.2 1.2l.9-.2-1.7 3-7.1 1.9c-.9.3-1.5 1.2-1.2 2.2.3.9 1.2 1.5 2.2 1.2l3.7-1-2.8 4.8c-.5.8-.2 1.9.6 2.4.6.3 1.2.3 1.8 0 .3-.1.5-.4.6-.6l2.8-4.8 1 3.7c.3.9 1.2 1.5 2.2 1.2.2 0 .3-.1.4-.2 1.2-.1 1.6-.9 1.3-1.7z"/><linearGradient id="SVGID_2_" gradientUnits="userSpaceOnUse" x1="244.778" y1="133.864" x2="250.152" y2="118.636" gradientTransform="matrix(1 0 0 -1 0 250)"><stop offset="0" stop-color="#404B71"/><stop offset=".604" stop-color="#3C476E"/><stop offset="1" stop-color="#354169"/></linearGradient><path class="st10" d="M246.5 129.7l-.6-2.1.5-.9.1.3c.1.3.4.5.7.4 0 0 .1 0 .1-.1.2-.1.3-.4.2-.6l-.3-1.3.6-1.1.6 1.1-.3 1.3c-.1.3.1.6.4.7.1 0 .3 0 .4-.1.1-.1.2-.2.2-.3l.1-.3.5.9-.6 2.1c-.1.3.1.6.4.7.1 0 .3 0 .4-.1.1-.1.2-.2.2-.3l.3-1.1.8 1.5c.1.3.5.3.7.2.3-.1.3-.5.2-.7l-.8-1.5 1.1.3c.1 0 .3 0 .4-.1.1-.1.2-.2.2-.3.1-.3-.1-.6-.4-.7l-2.1-.6-.5-.9.3.1c.1 0 .3 0 .4-.1.1-.1.2-.2.2-.3.1-.3-.1-.6-.4-.7l-1.3-.3-.6-1.1h1.3l.9.9c.2.2.4.2.6.1l.1-.1c.2-.2.2-.5 0-.8l-.2-.2h1.1l1.6 1.6c.2.2.4.2.6.1 0 0 .1 0 .1-.1.2-.2.2-.5 0-.8l-.8-.8h1.7c.1 0 .2 0 .3-.1.2-.1.3-.3.3-.5 0-.3-.2-.5-.5-.5H254l.8-.8c.2-.2.2-.5 0-.8-.2-.2-.5-.2-.8 0l-1.6 1.6h-1.1l.2-.2c.2-.2.2-.5 0-.8-.2-.2-.5-.2-.8 0l-.9.9h-1.3l.6-1.1 1.3-.3s.1 0 .1-.1c.2-.1.3-.4.2-.6-.1-.3-.4-.5-.7-.4l-.3.1.5-.9 2.1-.6s.1 0 .1-.1c.2-.1.3-.4.2-.6-.1-.3-.4-.5-.7-.4l-1.1.3.8-1.5c.1-.3.1-.6-.2-.7-.3-.1-.6-.1-.7.2l-.8 1.5-.3-1.1c-.1-.3-.4-.5-.7-.4s-.5.4-.4.7l.6 2.1-.5.9-.1-.3c-.1-.3-.4-.5-.7-.4s-.5.4-.4.7l.3 1.3-.6 1.1-.6-1.1.3-1.3c.1-.3-.1-.6-.4-.7-.3-.1-.6.1-.7.4l-.1.3-.5-.9.6-2.1c.1-.3-.1-.6-.4-.7-.3-.1-.6.1-.7.4l-.3 1.1-.8-1.5c-.1-.3-.5-.3-.7-.2-.3.1-.3.5-.2.7l.8 1.5-1.1-.3c-.3-.1-.6.1-.7.4-.1.3.1.6.4.7l2.1.6.5.9-.3-.1c-.3-.1-.6.1-.7.4-.1.3.1.6.4.7l1.3.3.6 1.1h-1.3l-.9-.9c-.2-.2-.5-.2-.8 0-.2.2-.2.5 0 .8l.2.2H242l-1.6-1.6c-.2-.2-.5-.2-.8 0-.2.2-.2.5 0 .8l.8.8h-1.7c-.3 0-.5.2-.5.5s.2.5.5.5h1.7l-.8.8c-.2.2-.2.5 0 .8.2.2.4.2.6.1 0 0 .1 0 .1-.1l1.6-1.6h1.1l-.2.2c-.2.2-.2.5 0 .8.2.2.4.2.6.1l.1-.1.9-.9h1.3l-.6 1.1-1.3.3c-.3.1-.5.4-.4.7s.4.5.7.4l.3-.1.6 1-2.1.6c-.3.1-.5.4-.4.7s.4.5.7.4l1.1-.3-.8 1.5c-.1.3-.1.6.2.7.2.1.4.1.5 0 .1 0 .1-.1.2-.2l.8-1.5.3 1.1c.1.3.4.5.7.4 0 0 .1 0 .1-.1.1-.1.3-.3.2-.6z"/><linearGradient id="SVGID_3_" gradientUnits="userSpaceOnUse" x1="173.181" y1="106.751" x2="184.767" y2="73.924" gradientTransform="matrix(1 0 0 -1 0 250)"><stop offset="0" stop-color="#404B71"/><stop offset=".604" stop-color="#3C476E"/><stop offset="1" stop-color="#354169"/></linearGradient><path class="st11" d="M175.7 172.9l-1.2-4.6 1.1-2 .2.6c.2.6.8 1 1.4.8.1 0 .2-.1.3-.1.4-.3.7-.8.5-1.3l-.7-2.8 1.4-2.4 1.4 2.4-.8 2.8c-.2.6.2 1.2.8 1.4.3.1.6 0 .9-.1.3-.1.5-.4.5-.7l.2-.6 1.1 2-1.2 4.6c-.2.6.2 1.2.8 1.4.3.1.6 0 .9-.1.3-.1.5-.4.5-.7l.6-2.4 1.8 3.2c.3.5 1 .7 1.6.4.5-.3.7-1 .4-1.6l-1.8-3.2 2.4.6c.3.1.6 0 .9-.1s.5-.4.5-.7c.2-.6-.2-1.2-.8-1.4l-4.6-1.2-1.1-2 .6.2c.3.1.6 0 .9-.1s.5-.4.5-.7c.2-.6-.2-1.2-.8-1.4l-2.8-.7-1.4-2.4h2.8l2 2c.4.4.9.4 1.4.2.1 0 .2-.1.2-.2.4-.4.4-1.2 0-1.6l-.4-.4h2.3l3.4 3.4c.4.4.9.4 1.4.2.1-.1.2-.1.2-.2.4-.4.4-1.2 0-1.6l-1.8-1.8h3.6c.2 0 .4-.1.6-.2.3-.2.6-.6.6-1 0-.6-.5-1.2-1.2-1.2h-3.6l1.8-1.8c.4-.4.4-1.2 0-1.6-.4-.5-1.2-.4-1.6 0l-3.4 3.4h-2.3l.4-.4c.4-.4.4-1.2 0-1.6-.5-.4-1.2-.4-1.6 0l-2 2h-2.8l1.4-2.4 2.8-.7c.1 0 .2-.1.3-.1.4-.3.7-.8.5-1.3-.2-.6-.8-1-1.4-.8l-.6.2 1.1-2 4.6-1.2c.1 0 .2-.1.3-.1.4-.3.7-.8.5-1.3-.2-.6-.8-1-1.4-.8l-2.4.6 1.8-3.2c.3-.6.1-1.3-.4-1.6s-1.3-.1-1.6.4l-1.8 3.2-.6-2.4c-.2-.6-.8-1-1.4-.8s-1 .8-.8 1.4l1.2 4.6-1.1 2-.2-.6c-.2-.6-.8-1-1.4-.8s-1 .8-.8 1.4l.7 2.8-1.4 2.4-1.4-2.4.7-2.8c.2-.6-.2-1.2-.8-1.4-.6-.2-1.2.2-1.4.8l-.2.6-1.1-2 1.2-4.6c.2-.6-.2-1.2-.8-1.4s-1.2.2-1.4.8l-.6 2.4-1.8-3.2c-.3-.5-1-.7-1.6-.4-.6.3-.7 1-.4 1.6l1.8 3.2-2.4-.6c-.6-.2-1.2.2-1.4.8s.2 1.2.8 1.4l4.6 1.2 1.1 2-.6-.2c-.6-.2-1.2.2-1.4.8s.2 1.2.8 1.4l2.8.7 1.4 2.4h-2.8l-2-2c-.4-.5-1.2-.4-1.6 0-.4.5-.4 1.2 0 1.6l.4.4h-2.3l-3.4-3.4c-.4-.4-1.2-.4-1.6 0-.4.4-.4 1.2 0 1.6l1.8 1.8h-3.6c-.6 0-1.1.5-1.1 1.1s.5 1.1 1.1 1.1h3.6l-1.8 1.8c-.4.5-.4 1.2 0 1.6.4.4.9.4 1.4.2.1 0 .2-.1.2-.2l3.4-3.4h2.3l-.4.4c-.4.4-.4 1.2 0 1.6.4.4.9.4 1.4.2.1 0 .2-.1.2-.2l2-2h2.8l-1.4 2.4-2.8.7c-.6.2-1 .8-.8 1.4.2.6.8 1 1.4.8l.6-.2-1.1 2-4.6 1.2c-.6.2-1 .8-.8 1.4.2.6.8 1 1.4.8l2.4-.6-1.8 3.2c-.3.6-.1 1.3.4 1.6.4.2.8.2 1.2 0 .2-.1.3-.2.4-.4l1.8-3.2.6 2.4c.2.6.8 1 1.4.8.1 0 .2-.1.3-.1.5 0 .8-.6.6-1.1z"/><linearGradient id="SVGID_4_" gradientUnits="userSpaceOnUse" x1="303.382" y1="104.119" x2="335.735" y2="28.399" gradientTransform="matrix(1 0 0 -1 0 250)"><stop offset="0" stop-color="#404B71"/><stop offset=".604" stop-color="#3C476E"/><stop offset="1" stop-color="#354169"/></linearGradient><path class="st12" d="M356.1 179.9h-7l3.4-3.4c.9-.9.9-2.3 0-3.1-.9-.9-2.3-.9-3.1 0l-6.5 6.5h-4.4l1.9-1.9c.9-.9.9-2.3 0-3.1-.9-.9-2.3-.9-3.1 0l-5.1 5.1h-4.3l.1-.1c.8-.8.9-2.2.1-3-.3-1.1-1.5-1.8-2.7-1.5l-.2.1 2.1-3.7 6.9-1.9c.2 0 .4-.1.5-.2.8-.5 1.3-1.5 1-2.5-.3-1.2-1.5-1.9-2.7-1.6l-2.6.7 2.2-3.8 8.9-2.4c.2-.1.4-.1.5-.2.8-.5 1.3-1.5 1-2.5-.3-1.2-1.5-1.9-2.7-1.6l-4.6 1.2 3.5-6.1c.6-1.1.2-2.4-.8-3-1.1-.6-2.4-.2-3 .8l-3.5 6.1-1.2-4.6c-.3-1.2-1.5-1.9-2.7-1.6-1.2.3-1.9 1.5-1.6 2.7l2.4 8.9-2.2 3.8-.7-2.6c-.3-1.2-1.5-1.9-2.7-1.6-1.2.3-1.9 1.5-1.6 2.7l1.9 6.9-2.1 3.7v-.2c-.3-1.2-1.5-1.8-2.6-1.6-1.1-.2-2.3.4-2.6 1.6v.2l-2.1-3.7 1.9-6.9c.3-1.2-.4-2.4-1.6-2.7-1.2-.3-2.4.4-2.7 1.6l-.7 2.6-2.2-3.8 2.4-8.9c.3-1.2-.4-2.4-1.6-2.7-1.2-.3-2.4.4-2.7 1.6l-1.2 4.6-3.5-6.1c-.6-1.1-2-1.4-3-.8-1.1.6-1.4 2-.8 3l3.5 6.1-4.6-1.2c-1.2-.3-2.4.4-2.7 1.6-.3 1.2.4 2.4 1.6 2.7l8.9 2.4 2.2 3.8-2.6-.7c-1.2-.3-2.4.4-2.7 1.6-.3 1.2.4 2.4 1.6 2.7l6.9 1.9 2.1 3.7h-.2c-1.1-.3-2.3.3-2.6 1.4-.9.9-.8 2.3 0 3.1l.1.1h-4.3l-5.1-5.1c-.9-.9-2.3-.9-3.1 0-.9.9-.9 2.3 0 3.1l1.9 1.9h-4.4l-6.5-6.5c-.9-.9-2.3-.9-3.1 0-.9.9-.9 2.3 0 3.1l3.4 3.4h-7c-1.2 0-2.2 1-2.2 2.2s1 2.2 2.2 2.2h7l-3.4 3.4c-.9.9-.9 2.3 0 3.1.7.7 1.8.8 2.7.4.2-.1.3-.2.5-.4l6.5-6.5h4.4l-1.9 1.9c-.9.9-.9 2.3 0 3.1.7.7 1.8.8 2.7.4.2-.1.3-.2.5-.4l5.1-5.1h4.3l-.1.1c-.8.8-.9 2.2-.1 3 .3 1.1 1.5 1.8 2.7 1.5h.2l-2.1 3.7-6.9 1.9c-1.2.3-1.9 1.5-1.6 2.7s1.5 1.9 2.7 1.6l2.6-.7-2.2 3.8-8.9 2.4c-1.2.3-1.9 1.5-1.6 2.7.3 1.2 1.5 1.9 2.7 1.6l4.6-1.2-3.5 6.1c-.6 1.1-.2 2.4.8 3 .7.4 1.6.4 2.2 0 .3-.2.6-.5.8-.8l3.5-6.1 1.2 4.6c.3 1.2 1.5 1.9 2.7 1.6.2-.1.4-.1.5-.2.8-.5 1.3-1.5 1-2.5l-2.4-8.9 2.2-3.8.7 2.6c.3 1.2 1.5 1.9 2.7 1.6.2 0 .4-.1.5-.2.8-.5 1.3-1.5 1-2.5l-1.9-6.9 2.1-3.7v.2c.3 1.2 1.5 1.8 2.6 1.6.6.1 1.1 0 1.6-.2.5-.3.9-.8 1-1.3v-.2l2.1 3.7-1.9 6.9c-.3 1.2.4 2.4 1.6 2.7.6.2 1.2.1 1.7-.2.5-.3.9-.8 1-1.3l.7-2.6 2.2 3.8-2.4 8.9c-.3 1.2.4 2.4 1.6 2.7.6.2 1.2.1 1.7-.2.5-.3.9-.8 1-1.3l1.2-4.6 3.5 6.1c.6 1.1 2 1.4 3 .8 1.1-.6 1.4-2 .8-3l-3.5-6.1 4.6 1.2c.6.2 1.2.1 1.7-.2.5-.3.9-.8 1-1.3.3-1.2-.4-2.4-1.6-2.7l-8.9-2.4-2.2-3.8 2.6.7c.6.2 1.2.1 1.7-.2s.9-.8 1-1.3c.3-1.2-.4-2.4-1.6-2.7l-6.9-1.9-2.1-3.7h.2c.6.2 1.2.1 1.7-.2.4-.3.8-.7 1-1.2.9-.9.8-2.3 0-3.1l-.1-.1h4.3l5.1 5.1c.7.7 1.8.8 2.7.4.2-.1.3-.2.5-.4.9-.9.9-2.3 0-3.1l-1.9-1.9h4.4l6.5 6.5c.7.7 1.8.8 2.7.4.2-.1.3-.2.5-.4.9-.9.9-2.3 0-3.1l-3.4-3.4h7c.4 0 .8-.1 1.1-.3.7-.4 1.1-1.1 1.1-1.9-.1-1.9-1.1-2.8-2.3-2.8zm-36 4.6c-1.4.8-3.1.3-3.9-1-.8-1.4-.3-3.1 1-3.9 1.4-.8 3.1-.3 3.9 1 .9 1.4.4 3.1-1 3.9z"/><linearGradient id="SVGID_5_" gradientUnits="userSpaceOnUse" x1="258.159" y1="197.88" x2="271.525" y2="166.591" gradientTransform="matrix(1 0 0 -1 0 250)"><stop offset="0" stop-color="#404B71"/><stop offset=".604" stop-color="#3C476E"/><stop offset="1" stop-color="#354169"/></linearGradient><path class="st13" d="M282.1 68.1H281l.4-.6c.3-.4.2-.9-.2-1.1-.4-.3-.9-.2-1.1.2l-1 1.5h-1.6l2.2-3.2c.3-.4.2-.9-.2-1.1-.4-.3-.9-.2-1.1.2l-2.8 4.1H274l1.3-1.9c.3-.4.2-.9-.2-1.1-.4-.3-.9-.2-1.1.2l-1.9 2.8h-1l.4-.6c.3-.4.2-.9-.2-1.1-.4-.3-.9-.2-1.1.2l-1 1.5h-.4l-.9-1.6.2-.3 1.8-.2c.4 0 .8-.4.7-.9 0-.4-.4-.8-.9-.7l-.7.1.5-.9 3.4-.3c.4 0 .8-.4.7-.9 0-.4-.4-.8-.9-.7l-2.3.2.7-1.3 5-.4c.4 0 .8-.4.7-.9 0-.4-.4-.8-.9-.7l-3.8.3.8-1.4 1.8-.2c.4 0 .8-.4.7-.9 0-.4-.4-.8-.9-.7l-.7.1.6-1c.2-.4.1-.9-.3-1.1-.4-.2-.9-.1-1.1.3l-.6 1-.3-.6c-.2-.4-.7-.6-1.1-.4-.4.2-.6.7-.4 1.1l.8 1.7-.8 1.4-1.6-3.5c-.2-.4-.7-.6-1.1-.4s-.6.7-.4 1.1l2.1 4.5-.6 1.1-1-2.1c-.2-.4-.7-.6-1.1-.4s-.6.7-.4 1.1l1.4 3.1-.5.9-.3-.6c-.2-.4-.7-.6-1.1-.4-.4.2-.6.7-.4 1.1l.8 1.7-.2.3h-1.9l-.2-.3.8-1.7c.2-.4 0-.9-.4-1.1-.4-.2-.9 0-1.1.4l-.3.6-.5-.9 1.4-3.1c.2-.4 0-.9-.4-1.1s-.9 0-1.1.4l-1 2.1-.7-1.3 2.1-4.5c.2-.4 0-.9-.4-1.1-.4-.2-.9 0-1.1.4l-1.6 3.5-.8-1.4.8-1.7c.2-.4 0-.9-.4-1.1-.4-.2-.9 0-1.1.4l-.3.6-.6-1c-.2-.4-.7-.5-1.1-.3-.4.2-.5.7-.3 1.1l.6 1-.7-.1c-.4 0-.8.3-.9.7 0 .4.3.8.7.9l1.8.2.8 1.4-3.8-.3c-.4 0-.8.3-.9.7 0 .4.3.8.7.9l5 .4.7 1.3-2.3-.2c-.4 0-.8.3-.9.7 0 .4.3.8.7.9l3.4.3.5.9-.7-.1c-.4 0-.8.3-.9.7 0 .4.3.8.7.9l1.8.2.2.3-.9 1.6h-.4l-1-1.5c-.3-.4-.8-.5-1.1-.2-.4.3-.5.8-.2 1.1l.4.6h-1l-1.9-2.8c-.3-.4-.8-.5-1.1-.2-.4.3-.5.8-.2 1.1l1.3 1.9h-1.5l-2.8-4.1c-.3-.4-.8-.5-1.1-.2-.4.3-.5.8-.2 1.1l2.2 3.2h-1.6l-1-1.5c-.3-.4-.8-.5-1.1-.2-.4.3-.5.8-.2 1.1l.4.6h-1.1c-.4 0-.8.4-.8.8s.4.8.8.8h1.1l-.4.6c-.3.4-.2.9.2 1.1.1.1.3.1.5.1.3 0 .5-.1.7-.3l1-1.5h1.6l-2.2 3.2c-.3.4-.2.9.2 1.1.1.1.3.1.5.1.3 0 .5-.1.7-.3l2.8-4.1h1.5l-1.3 1.9c-.3.4-.2.9.2 1.1.1.1.3.1.5.1.3 0 .5-.1.7-.3l1.9-2.8h1l-.4.6c-.3.4-.2.9.2 1.1.1.1.3.1.5.1.3 0 .5-.1.7-.3l1-1.5h.4l.9 1.6-.2.3-1.8.2c-.4 0-.8.4-.7.9 0 .4.4.7.8.7h.1l.7-.1-.5.9-3.4.3c-.4 0-.8.4-.7.9 0 .4.4.7.8.7h.1l2.3-.2-.7 1.3-5 .4c-.4 0-.8.4-.7.9 0 .4.4.7.8.7h.1l3.8-.3-.8 1.4-1.8.2c-.4 0-.8.4-.7.9 0 .4.4.7.8.7h.1l.7-.1-.6 1c-.2.4-.1.9.3 1.1.1.1.3.1.4.1.3 0 .6-.1.7-.4l.6-1 .3.6c.1.3.4.5.7.5.1 0 .2 0 .3-.1.4-.2.6-.7.4-1.1l-.8-1.7.8-1.4 1.6 3.5c.1.3.4.5.7.5.1 0 .2 0 .3-.1.4-.2.6-.7.4-1.1l-2.1-4.5.7-1.3 1 2.1c.1.3.4.5.7.5.1 0 .2 0 .3-.1.4-.2.6-.7.4-1.1l-1.4-3.1.5-.9.3.6c.1.3.4.5.7.5.1 0 .2 0 .3-.1.4-.2.6-.7.4-1.1l-.8-1.7.2-.3h1.9l.2.3-.8 1.7c-.2.4 0 .9.4 1.1.1.1.2.1.3.1.3 0 .6-.2.7-.5l.3-.6.5.9-1.4 3.1c-.2.4 0 .9.4 1.1.1.1.2.1.3.1.3 0 .6-.2.7-.5l1-2.1.7 1.3-2.1 4.5c-.2.4 0 .9.4 1.1.1.1.2.1.3.1.3 0 .6-.2.7-.5l1.6-3.5.8 1.4-.8 1.7c-.2.4 0 .9.4 1.1.1.1.2.1.3.1.3 0 .6-.2.7-.5l.3-.6.6 1c.2.3.4.4.7.4.1 0 .3 0 .4-.1.4-.2.5-.7.3-1.1l-.6-1 .7.1h.1c.4 0 .8-.3.8-.7s-.3-.8-.7-.9l-1.8-.2-.8-1.4 3.8.3h.1c.4 0 .8-.3.8-.7s-.3-.8-.7-.9l-5-.4-.7-1.3 2.3.2h.1c.4 0 .8-.3.8-.7 0-.4-.3-.8-.7-.9l-3.4-.3-.5-.9.7.1h.1c.4 0 .8-.3.8-.7 0-.4-.3-.8-.7-.9l-1.8-.2-.2-.3.9-1.6h.4l1 1.5c.2.2.4.3.7.3.2 0 .3 0 .5-.1.4-.3.5-.8.2-1.1l-.4-.6h1l1.9 2.8c.2.2.4.3.7.3.2 0 .3 0 .5-.1.4-.3.5-.8.2-1.1l-1.3-1.9h1.5l2.8 4.1c.2.2.4.3.7.3.2 0 .3 0 .5-.1.4-.3.5-.8.2-1.1l-2.2-3.2h1.6l1 1.5c.2.2.4.3.7.3.2 0 .3 0 .5-.1.4-.3.5-.8.2-1.1l-.4-.6h1.1c.4 0 .8-.4.8-.8 0-.3-.3-.6-.8-.6zm-17.6 2.4l-.9-1.6.9-1.6h1.9l.9 1.6-.9 1.6h-1.9z"/><circle class="st4" cx="296.3" cy="48.1" r="3.8"/><circle class="st4" cx="156.5" cy="119.6" r="3.8"/><circle class="st4" cx="162" cy="134.1" r="1.7"/><circle class="st4" cx="148.9" cy="142.8" r="1.7"/><circle class="st4" cx="282.9" cy="44.3" r="1.7"/><circle class="st4" cx="313.6" cy="84.2" r="4.2"/><circle class="st4" cx="345.8" cy="221.8" r="4.2"/><circle class="st4" cx="336.8" cy="95.2" r="3.1"/><circle class="st4" cx="330.8" cy="104.6" r="1.7"/><circle class="st4" cx="301.7" cy="93.5" r="1.7"/><circle class="st4" cx="390.1" cy="119.6" r="1.7"/><circle class="st4" cx="355.8" cy="95.2" r="1.7"/><circle class="st4" cx="349.1" cy="108" r="1.7"/><circle class="st4" cx="347.4" cy="95" r="1.7"/><circle class="st4" cx="355.8" cy="84.2" r="1.7"/><circle class="st4" cx="400.5" cy="96.8" r="1.7"/><circle class="st4" cx="405.5" cy="90.1" r="1.7"/><circle class="st4" cx="352.5" cy="212.3" r="1.7"/><circle class="st4" cx="365.1" cy="210.6" r="1.7"/><circle class="st4" cx="357.5" cy="220.1" r="1.7"/><circle class="st4" cx="321.9" cy="82.5" r="1.7"/><circle class="st4" cx="329.1" cy="90.1" r="1.7"/></g></svg>