<svg xmlns="http://www.w3.org/2000/svg" viewBox="0 0 340.5 301.5"><style>.st0{fill:#519E38;} .st1{fill:#F4F4F4;} .st2{fill:#D6D6D6;} .st3{fill:#EAEAEA;} .st4{fill:#FFFFFF;} .st5{fill:#00AA55;} .st6{fill:#62BA47;} .st7{fill-rule:evenodd;clip-rule:evenodd;fill:#00AA55;} .st8{fill-rule:evenodd;clip-rule:evenodd;fill:#62BA47;} .st9{fill:#63B746;} .st10{fill:#009373;} .st11{fill-rule:evenodd;clip-rule:evenodd;fill:#009373;}</style><g id="clock"><path class="st0" d="M267.5 237v-99.6L252.9 89c3.9-21.7-6.5-28.2-6.5-28.2V53h2.2V41.8c0-2.8-3.9-2.5-3.9-2.5H214.8s-3.9-.3-3.9 2.5V53h2.3v7.8h-.1s-10.4 6.5-6.5 28.2c0 0-14.6 13.4-14.6 48.4V237s-1.5 21.4 14.3 21.4H253.2c15.7 0 14.3-21.4 14.3-21.4z"/><path class="st1" d="M259.8 232v-99.6c0-35.1-14.6-48.4-14.6-48.4 3.9-21.7-6.5-28.2-6.5-28.2v-8h-33v8h-.1s-10.4 6.5-6.5 28.2c0 0-14.6 13.4-14.6 48.4V232s-1.5 21.4 14.3 21.4h46.8c15.7 0 14.2-21.4 14.2-21.4z"/><path class="st2" d="M237.1 34.2H207.2s-3.9-.3-3.9 2.5v11.2h37.5V36.7l-3.7-2.5z"/><path class="st3" d="M259.7 232v-99.6c0-35.1-14.6-48.4-14.6-48.4 3.9-21.7-6.5-28.2-6.5-28.2v-8H222v205.6H245.4c15.8 0 14.3-21.4 14.3-21.4z"/><path class="st4" d="M196.8 120.9h-.5c-2.3-.3-3.9-2.4-3.6-4.7 1.9-14.4 8.8-23.1 9.1-23.5 1.4-1.8 4.1-2.1 5.9-.6 1.8 1.4 2.1 4.1.6 5.8-.1.1-5.8 7.4-7.4 19.3-.3 2.1-2.1 3.7-4.1 3.7z"/><g><path class="st0" d="M154.7 237v-99.6L140.1 89c3.9-21.7-6.5-28.2-6.5-28.2V53h2.2V41.8c0-2.8-3.9-2.5-3.9-2.5H102s-3.9-.3-3.9 2.5V53h2.3v7.8h-.1S89.9 67.3 93.8 89c0 0-14.6 13.4-14.6 48.4V237s-1.5 21.4 14.3 21.4H140.4c15.8 0 14.3-21.4 14.3-21.4z"/><path class="st1" d="M147.1 232v-99.6c0-35.1-14.6-48.4-14.6-48.4 3.9-21.7-6.5-28.2-6.5-28.2v-8H93v8h-.1S82.5 62.3 86.4 84c0 0-14.6 13.4-14.6 48.4V232s-1.5 21.4 14.3 21.4h46.7c15.8 0 14.3-21.4 14.3-21.4z"/><path class="st2" d="M124.3 34.2H94.5s-3.9-.3-3.9 2.5v11.2h37.5V36.7l-3.8-2.5z"/><path class="st3" d="M147 232v-99.6c0-35.1-14.6-48.4-14.6-48.4 3.9-21.7-6.5-28.2-6.5-28.2v-8h-16.6v205.6H132.7c15.8 0 14.3-21.4 14.3-21.4z"/><path class="st4" d="M84 120.9h-.5c-2.3-.3-3.9-2.4-3.6-4.7 1.9-14.4 8.8-23.1 9.1-23.5 1.4-1.8 4.1-2.1 5.9-.6 1.8 1.4 2.1 4.1.6 5.8-.1.1-5.8 7.4-7.4 19.3-.2 2.1-2 3.7-4.1 3.7z"/></g><g><circle class="st5" cx="109.4" cy="167.6" r="19.4"/><circle class="st6" cx="93.9" cy="184.8" r="6.1"/><path class="st7" d="M100.2 143.8c0 1.4-1.1 2.5-2.5 2.5s-2.5-1.1-2.5-2.5 1.1-2.5 2.5-2.5 2.5 1.1 2.5 2.5z"/><path class="st8" d="M100.3 152.2c0 1.8-1.4 3.2-3.2 3.2-1.8 0-3.2-1.4-3.2-3.2 0-1.8 1.4-3.2 3.2-3.2 1.8 0 3.2 1.4 3.2 3.2zM91.8 147.3c0 1-.8 1.9-1.9 1.9-1.1 0-1.9-.8-1.9-1.9 0-1.1.8-1.9 1.9-1.9 1 0 1.9.8 1.9 1.9z"/><circle class="st6" cx="126" cy="149.9" r="10.7"/><path class="st4" d="M123.3 148.3c-.9.1-1.1 1.2-1.2 1.9v.3c0 .3 0 .6-.1.9 0 .1-.1.4-.1.4-.3 0-.6-.4-.7-.7-.2-.5-.4-1.1-.5-1.7-.1-.6-.2-1.3-.2-1.9v-.8-.3-.2c.1-.5-.6 0-.7.2-.7 1.2-.5 2.7-.5 4.1 0 .4 0 .7-.1 1.1 0 .2-.1.7-.3.9-.1.1-.4 0-.5 0-.2-.1-.3-.3-.3-.5s-.3-.1-.4 0c-.2.2-.3.4-.3.6.1.5.5.9 1 .8.8-.2 1.1-1.2 1.3-1.9.1-.4.1-.7.2-1.1.1.5.3 1.1.5 1.5.2.4.5.7.9.6.3-.1.6-.4.7-.8.2.4.4.6.8.6s.8-.5 1-.9c.2-.4.3-.9.2-1.4.4-.4.2-1.8-.7-1.7zm.3 3.1c0 .1 0 .2-.1.3-.2 0-.3-.3-.4-.4-.1-.3-.2-.6-.2-.9v-1c0-.1 0-.2.1-.3.4.3.5.8.6 1.3.1.3.1.7 0 1zM133.9 149.6c-1-.4-1.5.9-1.7 1.7-.2.7-.4 1.9.5 2.2.4.2.9-.1 1.1-.4.3-.3.5-.8.6-1.2.2-.7.4-2-.5-2.3zm-.5 3.1c0 .1-.1.2-.1.2-.1-.1-.2-.4-.2-.5-.1-.3 0-.7 0-1 .1-.3.2-.7.3-.9 0-.1.1-.1.1-.2.4.4.3 1 .2 1.5-.1.2-.2.6-.3.9zM131.4 149.8c.2-.2.3-.5.5-.7.4-.5.7-1.2.7-1.8 0-.6-.9-.7-1.3-.4-.6.3-1 .9-1.1 1.6-.2.8-.4 1.7-.4 2.5-.3.4-.9 1.1-1.4.8-.1-.1-.2-.2-.2-.4.4-.4.7-.8 1.1-1.3.3-.4.5-1.2-.1-1.5-.5-.3-1.1 0-1.4.4-.3.4-.5.9-.5 1.4 0 .3-.1.7 0 1.1-.3.2-.6.3-1 .2-.4-.1-.5-.5-.6-.8-.1-.4-.1-.9 0-1.4 0-.1.1-.3.1-.4v-.1c.2.1.3.4.4.6.1.3.9-.2.8-.5-.1-.3-.2-.6-.6-.8-.3-.2-.8.1-1 .3-.6.6-.6 1.4-.6 2.2 0 .5.1 1.1.6 1.4.6.4 1.4 0 1.9-.3.1.4.4.6.9.6.6-.1 1.1-.4 1.5-.8 0 .4.1.9.4 1.1.5.3 1.1 0 1.5-.5.4-.6.7-1.3.4-2-.1-.4-.4-.5-.6-.5zm-3.3-.4c0-.1.1-.2.1-.3.2.1.3.4.2.5 0 .4-.3.7-.6 1v-.2c.2-.3.2-.7.3-1zm3.1-1.8c.1-.1.1-.2.2-.4.4.4 0 1-.2 1.4-.2.4-.4.8-.7 1.1.1-.4.1-.7.2-1.1.2-.3.3-.6.5-1zm-.2 4.4s-.1.1-.1.2h-.1c-.2-.1-.3-.6-.3-.8v-.5l.3-.3c.2-.1.4.1.4.3.1.3 0 .8-.2 1.1z"/><g><path class="st4" d="M91 184.5c.2-.2.4-.5.6-.8.1-.1.2-.2.3-.4.1-.1.1-.1 0 0v.6c0 1.1 0 2.1-.1 3.2 0 .4.7-.1.7-.4.1-.7.1-1.4.1-2.1 0-.3.2-1.9-.1-2-.7-.2-1.4 1.4-1.8 1.8-.6.4 0 .4.3.1zM96.4 183.1c-.7 1.2-1.7 2.4-2.5 3.5-.4.5.2.5.5.1.9-1.2 1.9-2.4 2.7-3.7.2-.5-.5-.2-.7.1zM95.1 182.8c-.5 0-.8.4-.9.9-.1.4.2.7.6.7.8 0 1.3-1.6.3-1.6-.2 0-.6.5-.3.5.2 0 .3.2.4.4v.2c0 .1 0 0 0 0h-.1c-.2 0-.3-.2-.4-.4v-.3c0-.1 0 0 0 0h.1c.2 0 .5-.5.3-.4zM96.3 185.4c-.5 0-.8.4-.9.9-.1.4.2.7.6.7.9 0 1.3-1.6.3-1.6-.2 0-.6.5-.3.5.2 0 .3.2.4.4v.2c0 .1 0 0 0 0h-.1c-.2 0-.3-.2-.4-.4v-.3c0-.1 0 0 0 0h.1c.3.1.6-.4.3-.4z"/></g><g><path class="st4" d="M124.8 170.2c.2-1 .3-2.3-.5-3.2-.4-.5-1.2-.4-1.7-.3 0-.4.1-.8.1-1.3 0-.4-.7-.3-.9-.2-.3.1-.7.4-.7.7 0 1.4-.2 2.9-.4 4.3-.1.4-.3 1.1-.7 1.3-.4.2-.6-1.2-.6-1.4 0-1.4.3-2.9.6-4.3.1-.3-.4-.4-.6-.3-.4.1-.8.3-.9.7-.2 1.1-.4 2.2-.7 3.3-.1.5-.3.9-.5 1.4v.1c-.1 0-.2-.1-.3-.1-.7-.4-.6-1.9-.5-2.4.1-.9.3-1.9.7-2.7.1-.3 0-.5-.4-.5-.2 0-.4.1-.6.2-.1.1-.4.2-.4.2-.1 0-.2.1-.3.1-.8.3-1.4-.1-1.8-.7-.1-.2-.3-.3-.4-.4-.6-.3-1.2-.1-1.8.1 0-.4-.1-.8-.1-1.3-.1-.3-.7-.1-.9 0-.3.2-.6.5-.6.8-.4 0-.9.3-1.1.5-.9.7-1.2 1.9-1.2 3-.1 1-.7 2.5-1.8 2.4-.2 0-.5-.4-.6-.6.4-.5.7-1.1 1-1.6.6-.9 1-2.3.3-3.2-.5-.6-1.7-.1-2.2.4-.7.7-.9 1.6-.9 2.4 0 .6 0 1.6.3 2.5-.2.2-.4.6-.7.4-.2-.1-.3-.4-.4-.7-.3-.8-.3-1.6-.6-2.4-.5-1.1-1.6-1.1-2.7-.6-.1-1-.2-2 .3-2.9.5-1.1 1.7-.7 2.4-.2.5.3 1.7-1 1.2-1.3-.7-.5-1.5-.9-2.5-.5-.8.3-1.5.9-1.9 1.6-.1.1-.2.2-.2.4-.2-.7-.5-1.4-.8-2.1-.1-.3-.6 0-.7.1-1.5 1-4 3.2-3 5.2.2.5 1.4-.9 1.2-1.4-.4-.8.5-1.7 1.3-2.4.6 1.7 1.1 3.4 1.5 5.1.2 1.1.4 2.3-.1 3.2-.5 1-1.8.4-2-.4-.1-.7-1.2.7-1.1 1.1.1.6.4 1 1 1.3.5.2 1.1-.1 1.6-.4 1.2-.8 1.9-2.1 2-3.5.1-.6 0-1.1 0-1.7.4-.1.8-.1 1 .3.6.6.6 1.7.8 2.5.2.6.4 1.3 1.2 1.2.6-.1 1.1-.5 1.5-1 .3.3.6.6 1 .6.8.1 1.7-.6 2.2-1l.6-.6c.1.4.3.7.6 1 .3.3.8.4 1.2.4.2 0 .4-.1.5-.1-.1 1.3-.1 2.7-.3 4 0 .4.4.3.6.2.3-.2.6-.5.7-.8.1-1.1.2-2.1.3-3.2.5 0 1.1-.2 1.5-.5 1-.8 1.3-2.1 1.3-3.3v-.7c.4 0 .9-.1 1.3-.2-.3.8-.4 1.7-.5 2.6 0 .9 0 2.3 1.2 2.6.8.2 1.4-.1 1.9-.5 0 .2.1.3.2.5.4 1 1.4.7 2.1.4-.3 1.4-.6 2.9-1 4.3-.1.3.3.4.5.3.3-.1.7-.3.8-.6.3-1 .6-2.1.8-3.1.5.1 1 .1 1.5-.1 1.1-.7 1.6-1.9 1.8-3zm-20.3-2.7c0-.5 0-1.1.2-1.6.1 0 .2 0 .3.1.7.4.2 1.5 0 2l-.3.6c-.1-.4-.2-.8-.2-1.1zm5.5 2.6c-.1 0-.2 0-.2-.1-.2-.1-.4-.4-.5-.6-.3-.7-.4-1.4-.4-2.1 0-.6.1-1.2.4-1.8l.1.1c.5.3.7 1 .8 1.5-.1 1-.1 2-.2 3 .1 0 0 0 0 0zm2.3 0s0 .1 0 0c0 .1 0 .1 0 0-.6.1-.9-.3-.9-.7 0-1 .1-2 0-3 0-.5.1-.7.1-.7.1 0 .4.1.5.3.5.6.5 1.4.6 2 .1.7.1 1.5-.3 2.1zm10.3 2.1c0 .1 0 .1 0 0 0 .1 0 .1 0 0-.6 0-.8-.6-.7-1 0 0 .4-1.8.5-2.8 0-.1.2-.6.3-.8.2 0 .3.2.4.4.3.7.3 1.5.2 2.2 0 .7-.2 1.5-.7 2z"/></g><g><path class="st9" d="M85.9 159.4c-.1 0-.2-.2-.3-.2-.4-.1-.7.1-1.1.1-.9 0-1.3 0-2.4-.3 0-1 .5-1.5.8-2.3.2-.7-.1-1.4-.1-2.2v-1.4c-.3.3-.2 1.2-.2 1.6-.1-.6-.1-1.3-.3-1.8-.1.5 0 1.3 0 1.8-.2-.5-.2-1.1-.4-1.6-.3.5.2 1.3.1 1.8-.2-.5-.3-1-.5-1.4-.1.6.2 1.1.2 1.6-.2-.4-.3-.8-.6-1.1 0 .4.3.9.4 1.3-.3-.1-.3-.4-.6-.6 0 .3.3.5.4.7-.2-.1-.3-.3-.5-.4 0 .3.3.4.3.6-.1-.1-.2-.2-.4-.3 0 .2.3.4.3.5 0 0-.2-.1-.2 0 0 0 .2.1.1.2h-.2c0 .2.2.1.1.3-.1 0-.1-.1-.1 0s.1.1.1.2c-.8.8-.4 1.7-.4 2.7.1-.1-.7-.3-1.2-.5-.3-.1-.4-.5-.6-.6 0-.1.1 0 .1-.1-.1 0-.2-.1-.2-.2.1 0 .3.1.3 0-.1-.1-.5-.2-.4-.3.2 0 .4.1.5.1-.2-.1-.6-.3-.6-.5.2.1.5.3.7.2-.3-.2-.8-.4-.9-.7.2.1.6.4.8.4-.4-.1-.7-.6-1.1-.6.2.4.8.6.9.8-.3-.2-.6-.3-.9-.5.1.4.6.5.8.7-.3 0-.5-.2-.8-.2.1.3.6.2.7.5-.1-.1-.3 0-.5 0 0 .2.3.2.5.3-.2 0-.3 0-.4.1.1.1.3.1.4.2-.1 0-.2 0-.2.1s.2 0 .3.1c-.1 0-.1.1-.1.1h.2c-.1 0-.1 0-.1.1.4.2.7.9 1.2 1.1-.3.2.3.4-3.4 1.7.1 0 1.6-.4 2.1-.5.5-.2.9-.3 1.4-.4.1 0 .2-.1.3-.1.8-.1 1.5.1 2.2-.4-.6.1-1.6.2-2-.1.5-.8.2-2.8.5-3.2.4-.4 1-1.7 1.8-.6.1.2.1.4-.1.9-.3.6-.6.8-.5 2 0 .2 0 .5-.4.5 1.6.3 2.1.2 3 0 .3 0 .8-.3.8 0 0 .1-.3.1-.6.1-.4 0 .2.2.4.1.1 0 1-.1 1.4-.2-.4-.1-.6-.1-.8-.2z"/><path class="st9" d="M81.1 151.1c-3.7 0-6.7 3-6.7 6.7s3 6.7 6.7 6.7 6.7-3 6.7-6.7-3-6.7-6.7-6.7m0 .2c3.6 0 6.5 2.9 6.5 6.5s-2.9 6.5-6.5 6.5-6.5-2.9-6.5-6.5 2.9-6.5 6.5-6.5"/></g></g><g><circle class="st10" cx="224.4" cy="167.4" r="21.1"/><circle class="st6" cx="207.6" cy="186.1" r="6.6"/><path class="st11" d="M214.4 141.6c0 1.5-1.2 2.7-2.7 2.7-1.5 0-2.7-1.2-2.7-2.7 0-1.5 1.2-2.7 2.7-2.7 1.5 0 2.7 1.2 2.7 2.7z"/><path class="st8" d="M214.5 150.6c0 1.9-1.5 3.5-3.5 3.5-1.9 0-3.5-1.5-3.5-3.5 0-1.9 1.6-3.5 3.5-3.5 2 .1 3.5 1.6 3.5 3.5zM205.3 145.3c0 1.1-.9 2.1-2.1 2.1-1.1 0-2.1-.9-2.1-2.1 0-1.1.9-2.1 2.1-2.1 1.1 0 2.1 1 2.1 2.1z"/><circle class="st6" cx="242.4" cy="148.1" r="11.6"/><path class="st4" d="M239.5 146.5c-1 .1-1.2 1.3-1.3 2v.3c0 .4 0 .7-.1 1 0 .2-.1.5-.1.5-.3 0-.6-.5-.7-.7-.2-.6-.4-1.2-.5-1.8-.1-.7-.2-1.4-.2-2.1v-.8-.3-.2c.1-.5-.6 0-.8.2-.8 1.3-.5 2.9-.5 4.4 0 .4 0 .8-.1 1.2 0 .3-.1.8-.3 1-.1.1-.4 0-.5 0-.2-.1-.3-.3-.3-.5s-.3-.1-.4 0c-.2.2-.3.5-.3.7.1.5.6 1 1.1.8.9-.3 1.2-1.3 1.4-2.1.1-.4.2-.8.2-1.2.1.6.3 1.1.6 1.7.2.4.5.8 1 .7.4-.1.6-.5.8-.9.2.4.4.7.9.6.5 0 .9-.6 1.1-.9.2-.5.3-1 .3-1.5-.1-.8-.3-2.2-1.3-2.1zm.3 3.3c0 .1 0 .2-.1.3-.2 0-.3-.3-.4-.4-.2-.3-.2-.7-.3-1v-1.1c0-.1 0-.2.1-.3.5.3.6.9.6 1.4.2.4.2.8.1 1.1zM251.1 147.8c-1-.4-1.6 1-1.8 1.8-.2.7-.4 2 .5 2.4.4.2 1-.1 1.2-.4.3-.4.5-.8.6-1.3.2-.7.4-2.1-.5-2.5zm-.6 3.4c0 .1-.1.2-.1.2-.2-.1-.2-.4-.2-.6-.1-.4 0-.7 0-1.1.1-.4.2-.7.3-1 0-.1.1-.2.1-.2.4.5.3 1.1.2 1.6-.1.4-.2.8-.3 1.1zM248.3 148c.2-.3.4-.5.6-.8.4-.6.8-1.3.7-2 0-.7-.9-.7-1.4-.5-.7.3-1 1-1.2 1.7-.3.9-.4 1.8-.4 2.7-.3.4-1 1.2-1.5.9-.1-.1-.2-.3-.3-.4.4-.5.8-.9 1.1-1.4.3-.5.5-1.3-.1-1.6-.5-.3-1.1 0-1.5.5-.3.4-.5.9-.5 1.5 0 .3-.1.8 0 1.2-.3.2-.7.3-1 .2-.4-.1-.5-.5-.6-.8-.1-.5-.1-1 0-1.5 0-.1.1-.3.1-.4v-.1c.2.1.4.5.4.7.1.3 1-.2.9-.5-.1-.3-.2-.7-.6-.9-.4-.2-.9.1-1.1.4-.6.6-.7 1.6-.7 2.4 0 .5.1 1.2.6 1.5.6.4 1.5 0 2.1-.3.2.4.5.7 1 .6.6-.1 1.2-.4 1.6-.9 0 .5.1 1 .5 1.2.5.3 1.2 0 1.6-.5.5-.6.7-1.4.5-2.2-.2-.5-.5-.7-.8-.7zm-3.5-.4c0-.1.1-.3.2-.4.2.1.3.4.3.6-.1.4-.3.8-.6 1.1v-.2c-.1-.3-.1-.7.1-1.1zm3.3-1.9c.1-.1.2-.3.3-.4.4.5 0 1.1-.2 1.5-.2.4-.5.8-.8 1.2.1-.4.1-.8.2-1.2.2-.3.3-.7.5-1.1zm-.2 4.8s-.1.1-.1.2h-.1c-.3-.1-.3-.7-.3-.9v-.6c.1-.1.2-.2.3-.4.2-.2.4.1.4.4.1.4 0 .9-.2 1.3z"/><g><path class="st4" d="M203.1 185.1c.2-.6.7-.2.9.1.2.5 0 .9-.3 1.3-.2.3-.5.6-.9.8-.2.1-.3.2-.4.4 0 .1-.1.2 0 .3.2.2.7.2 1 .2.5 0 1 0 1.5-.2.3-.1.5-.7 0-.5-.4.2-.8.1-1.2.1-.2 0-.6 0-.8-.1v.3c-.2.4-.1.2.1.1.1-.1.3-.2.4-.3.2-.2.5-.4.7-.7.4-.5.7-1.1.5-1.7-.3-1.4-1.8-.4-2.1.4-.1.1.5-.3.6-.5zM206.8 187.4c.5 1.6 2.9.5 2.5-.9-.2-.7-1-.6-1.6-.8-.3-.1-.3-.4-.3-.6.1-.3.1-.4-.1-.2.1 0 .2-.1.3-.1.5-.1 1-.1 1.5.2.2.1.7-.4.4-.6-.6-.3-1.3-.2-1.9-.1-.6.1-.7.7-.8 1.2 0 .7.6.8 1.1.9.4.1.8.2.8.6.1.7-.7.7-1.1.4-.2-.1-.3-.3-.3-.5s-.6.3-.5.5zM212.4 184.5c-.7 1.1-1.5 2.2-2.3 3.2-.3.5.2.4.4.1.8-1.1 1.7-2.2 2.4-3.4.3-.4-.4-.1-.5.1zM211.1 184.2c-.4 0-.7.4-.8.8-.1.4.1.7.5.7.8 0 1.2-1.4.3-1.5-.2 0-.5.4-.2.4.2 0 .3.2.3.4v.2c0 .1 0 0 0 0h-.1c-.2 0-.3-.2-.3-.3v-.2h.1c.2 0 .5-.5.2-.5zM212.3 186.6c-.4 0-.7.4-.8.8-.1.4.1.7.5.7.8 0 1.2-1.4.3-1.5-.2 0-.5.4-.2.4.2 0 .3.2.3.4v.2c0 .1 0 0 0 0h-.1c-.2 0-.3-.2-.3-.3v-.2h.1c.1 0 .4-.5.2-.5zM205.8 188.9c.3-.3.5-.7.6-1 0-.1 0-.3-.1-.4-.1-.1-.4 0-.5 0-.2.1-.3.3-.4.5 0 .2.2.2.3.1v.2c0 .1-.1.2-.1.2v.2c.1-.1 0 0 0 0-.1.1-.3.3-.2.4.1 0 .4-.1.4-.2z"/></g><g><path class="st4" d="M241.4 170.2c.2-1.1.3-2.5-.5-3.4-.4-.5-1.3-.5-1.9-.3 0-.5.1-.9.1-1.4 0-.4-.8-.3-.9-.2-.4.1-.8.4-.8.8-.1 1.5-.2 3.1-.4 4.7-.1.5-.3 1.2-.8 1.4-.5.2-.7-1.3-.7-1.5 0-1.6.3-3.1.6-4.7.1-.4-.4-.4-.7-.4-.4.1-.9.4-1 .7-.2 1.2-.4 2.4-.7 3.5-.1.5-.3 1-.6 1.5v.1c-.1 0-.2-.1-.3-.1-.8-.5-.6-2-.5-2.7.1-1 .4-2 .8-3 .1-.3 0-.5-.5-.5-.2 0-.5.1-.7.2-.1.1-.4.3-.5.3-.1.1-.2.1-.4.1-.9.3-1.5-.1-2-.7-.1-.2-.3-.3-.5-.4-.6-.4-1.3-.1-1.9.1 0-.5-.1-.9-.2-1.4-.1-.4-.8-.1-1 0-.3.2-.7.5-.7.9-.5.1-.9.3-1.2.6-.9.8-1.3 2-1.3 3.3-.1 1.1-.7 2.7-2 2.6-.3 0-.5-.4-.7-.7.4-.6.8-1.2 1.1-1.7.6-1 1.1-2.5.3-3.5-.5-.6-1.8-.1-2.4.5-.8.7-1 1.7-1 2.6 0 .6 0 1.8.3 2.7-.2.3-.5.6-.8.4-.3-.1-.4-.5-.4-.7-.3-.8-.3-1.8-.6-2.6-.5-1.2-1.7-1.2-2.9-.7-.2-1-.2-2.2.3-3.2.5-1.2 1.8-.7 2.6-.2.5.3 1.9-1 1.3-1.4-.7-.5-1.7-.9-2.7-.5-.9.3-1.6 1-2.1 1.7-.1.1-.2.3-.3.4-.3-.8-.5-1.6-.8-2.3-.1-.3-.6 0-.8.1-1.6 1.1-4.3 3.5-3.3 5.7.2.5 1.5-1 1.3-1.5-.4-.8.5-1.9 1.5-2.6.6 1.8 1.2 3.7 1.6 5.5.3 1.1.5 2.5-.1 3.5-.6 1.1-2 .4-2.2-.5-.1-.8-1.3.7-1.2 1.2.1.6.5 1.1 1.1 1.4.6.2 1.2-.1 1.8-.4 1.3-.8 2-2.3 2.2-3.8.1-.6 0-1.2 0-1.9.4-.1.8-.1 1.1.3.6.7.6 1.8.9 2.7.2.6.5 1.4 1.3 1.3.7-.1 1.2-.6 1.7-1.1.3.4.6.6 1.1.7.9.1 1.8-.6 2.4-1.1.2-.2.4-.4.6-.7.1.4.4.8.6 1.1.3.4.8.5 1.4.4.2 0 .4-.1.6-.2-.1 1.5-.2 2.9-.3 4.4 0 .4.4.3.6.2.3-.2.7-.5.7-.9.2-1.2.3-2.3.3-3.5.5 0 1.2-.2 1.6-.5 1.1-.9 1.4-2.3 1.4-3.6v-.8c.5 0 1-.1 1.4-.2-.3.9-.5 1.9-.5 2.8 0 .9 0 2.5 1.3 2.9.8.2 1.5-.1 2.1-.6 0 .2.1.4.2.5.4 1 1.6.8 2.3.5-.3 1.6-.7 3.1-1.1 4.7-.1.4.3.4.6.4.4-.1.7-.3.9-.7.3-1.1.6-2.2.9-3.4.5.2 1.1.1 1.6-.1 1.6-.5 2.1-1.9 2.4-3.1zm-22.1-3c0-.6 0-1.1.2-1.7.1 0 .2 0 .3.1.7.4.2 1.6 0 2.2-.1.2-.2.5-.3.7-.1-.4-.2-.8-.2-1.3zm5.9 2.9c-.1 0-.2 0-.3-.1-.3-.1-.4-.4-.6-.6-.4-.7-.5-1.5-.4-2.3 0-.6.1-1.3.4-1.9.1 0 .1.1.1.1.5.4.8 1.1.8 1.7.1 1 .2 2.1 0 3.1.1 0 .1 0 0 0 .1 0 .1 0 0 0zm2.6 0c0 .1 0 .1 0 0l-.1.1c-.6 0-.9-.4-.9-.9 0-1.1.1-2.2 0-3.3 0-.6.2-.8.2-.8.1 0 .4.1.6.3.5.6.6 1.5.6 2.2 0 .8 0 1.8-.4 2.4zm11.2 2.4l-.1.1c-.6-.1-.7-.7-.7-1.2 0 0 .4-2 .5-3 0-.1.2-.7.3-.9.2 0 .3.3.5.5.4.7.3 1.7.2 2.4 0 .6-.2 1.5-.7 2.1z"/></g><g><path class="st9" d="M198.8 158.5c-.1 0-.2-.2-.3-.2-.4-.2-.8.1-1.2.1-1 0-1.4 0-2.6-.4 0-1.1.6-1.7.9-2.5.2-.7-.1-1.5-.1-2.4v-1.5c-.3.3-.2 1.3-.2 1.7-.2-.6-.1-1.4-.3-2-.2.6 0 1.4 0 2-.2-.6-.2-1.2-.4-1.7-.3.6.2 1.4.1 1.9-.2-.5-.3-1.1-.6-1.5-.1.7.2 1.2.2 1.7-.2-.4-.3-.9-.6-1.2 0 .4.3 1 .4 1.4-.3-.1-.4-.5-.7-.6.1.3.3.5.4.8-.2-.1-.3-.3-.5-.4 0 .3.3.4.3.7-.1-.1-.3-.2-.4-.3 0 .2.3.4.3.5 0 0-.2-.1-.2 0 .1 0 .2.2.1.2h-.2c0 .2.2.1.1.3-.1 0-.1-.1-.1 0s.1.1.1.2c-.9.9-.4 1.9-.5 2.9.1-.1-.7-.3-1.3-.5-.3-.1-.4-.5-.6-.6 0-.1.1 0 .1-.1-.1 0-.2-.1-.2-.2.1 0 .3.1.3 0-.2-.1-.6-.2-.5-.3.2 0 .4.1.6.1-.2-.1-.7-.3-.7-.5.2.1.5.3.8.2-.4-.2-.9-.5-1-.7.3.1.6.5.9.4-.4-.1-.8-.6-1.2-.6.2.4.8.6 1 .9-.3-.2-.7-.3-1-.5.1.4.6.5.9.8-.3 0-.5-.2-.8-.2.1.3.6.3.8.5-.1-.1-.4 0-.5 0 0 .2.4.2.5.3-.2 0-.3 0-.4.1.1.1.4.1.4.2-.1 0-.2 0-.2.1s.3 0 .3.1c-.1 0-.1.1-.1.1h.2c-.1 0-.1.1-.1.1.5.2.7 1 1.4 1.2-.4.3.3.5-3.7 1.9.1 0 1.8-.4 2.3-.6.5-.2 1-.3 1.5-.5.1 0 .2-.1.4-.1.8-.1 1.6.1 2.4-.5-.6.1-1.7.2-2.1-.1.6-.9.2-3 .6-3.5.5-.4 1.1-1.8 2-.6.1.2.2.5-.1 1-.4.6-.6.9-.5 2.2 0 .3 0 .6-.4.5 1.8.4 2.3.2 3.3 0 .3 0 .8-.3.9 0 0 .1-.3.1-.6.1-.5 0 .2.2.4.2.1 0 1-.1 1.5-.2-.9-.3-1.2-.3-1.5-.4z"/><path class="st9" d="M193.7 149.4c-4 0-7.3 3.3-7.3 7.3s3.3 7.3 7.3 7.3 7.3-3.3 7.3-7.3-3.3-7.3-7.3-7.3m0 .3c3.9 0 7 3.2 7 7 0 3.9-3.2 7-7 7-3.9 0-7-3.2-7-7-.1-3.8 3.1-7 7-7"/></g></g></g></svg>