<svg xmlns="http://www.w3.org/2000/svg" viewBox="0 0 436 240"><style>.st0{fill:#00A296;} .st1{fill:#3C505E;} .st2{fill:#DEDDDB;} .st3{fill:#EAC558;} .st4{fill:#FFFFFF;} .st5{fill:#62BA47;} .st6{fill:#F4E1AB;} .st7{fill:#DE504D;} .st8{fill:#686868;} .st9{fill:#FFC000;} .st10{fill:#98505E;} .st11{fill:#DC5E68;} .st12{fill:#AFAFAF;} .st13{fill:#333333;} .st14{fill:#B5B5B5;} .st15{fill:#D86C23;} .st16{fill:#EDA370;} .st17{fill:#E5DFD1;}</style><g id="houses"><path class="st0" d="M262 82h108.2v67.2H262z"/><path class="st1" d="M305.4 107.6h22.7v41.7h-22.7z"/><path class="st2" d="M312.1 131.9c0 1-.8 1.9-1.8 1.9s-1.8-.8-1.8-1.9c0-1 .8-1.9 1.8-1.9 1 .1 1.8.9 1.8 1.9z"/><path class="st3" d="M307.3 149.9c0 1.5-1.2 2.7-2.7 2.7-1.5 0-2.7-1.2-2.7-2.7V109c0-1.5 1.2-2.7 2.7-2.7 1.5 0 2.7 1.2 2.7 2.7v40.9zM332.1 149.9c0 1.5-1.2 2.7-2.7 2.7-1.5 0-2.7-1.2-2.7-2.7V109c0-1.5 1.2-2.7 2.7-2.7 1.5 0 2.7 1.2 2.7 2.7v40.9z"/><path class="st3" d="M332.1 107.4c0 1.7-1.4 3.1-3.1 3.1h-24c-1.7 0-3.1-1.4-3.1-3.1 0-1.7 1.4-3.1 3.1-3.1h24c1.7 0 3.1 1.3 3.1 3.1z"/><path class="st1" d="M271.8 111.8v4.8h10v-6.1h-8.7c-.7 0-1.3.6-1.3 1.3zm19.7-1.3h-8.7v6.1h10v-4.8c-.1-.7-.6-1.3-1.3-1.3zm-8.8 13.2h8.7c.7 0 1.3-.6 1.3-1.4v-4.8h-10v6.2zm-10.9-1.4c0 .8.6 1.4 1.3 1.4h8.7v-6.1h-10v4.7zM340.2 111.8v4.8h10v-6.1h-8.7c-.7 0-1.3.6-1.3 1.3zm19.7-1.3h-8.7v6.1h10v-4.8c-.1-.7-.6-1.3-1.3-1.3zm-8.8 13.2h8.7c.7 0 1.3-.6 1.3-1.4v-4.8h-10v6.2zm-10.9-1.4c0 .8.6 1.4 1.3 1.4h8.7v-6.1h-10v4.7z"/><path class="st4" d="M269.5 82.4h-17l12-25.6h50.1z"/><path class="st4" d="M267 56.8h56.2v25.6H267z"/><path class="st4" d="M361.8 82.4h17l-12-25.6h-50.1z"/><path class="st4" d="M308.1 56.8h56.2v25.6h-56.2z"/><path class="st5" d="M332.5 79.9c0 9-7.3 16.4-16.4 16.4-9.1 0-16.4-7.3-16.4-16.4 0-9.1 7.3-16.4 16.4-16.4 9 0 16.4 7.3 16.4 16.4z"/><path class="st4" d="M312 77.5c-1.3.1-1.7 1.8-1.8 2.9v.5c0 .5 0 .9-.1 1.5 0 .2-.1.6-.1.6-.5 0-.9-.7-1-1-.3-.8-.6-1.7-.7-2.6-.2-.9-.3-1.9-.3-2.9v-1.2-.5-.3c.1-.7-.9 0-1.1.3-1.1 1.9-.8 4.1-.7 6.2 0 .6 0 1.1-.1 1.7-.1.4-.1 1.1-.5 1.4-.2.2-.6 0-.7 0-.3-.1-.4-.4-.5-.7-.1-.3-.4-.1-.6 0-.2.2-.5.6-.4 1 .1.7.8 1.4 1.6 1.2 1.2-.4 1.7-1.8 2-2.9.1-.5.2-1.1.3-1.7.2.8.4 1.6.8 2.3.3.5.7 1.1 1.4 1 .5-.1.9-.6 1.1-1.3.2.5.6.9 1.2.9.7-.1 1.2-.8 1.5-1.3.3-.7.4-1.4.4-2.1 0-1.1-.3-3.1-1.7-3zm.4 4.8c0 .1-.1.3-.1.4-.3 0-.5-.4-.5-.6-.2-.4-.3-.9-.4-1.4 0-.5 0-1 .1-1.5 0-.1.1-.3.1-.4.7.4.8 1.3.9 2 0 .4 0 1-.1 1.5zM328.3 79.5c-1.5-.5-2.3 1.4-2.6 2.5-.3 1-.6 2.8.7 3.4.6.3 1.3-.2 1.7-.6.4-.5.7-1.1.9-1.8.4-1.1.6-3-.7-3.5zm-.9 4.7c-.1.1-.1.2-.2.3-.2-.1-.3-.6-.3-.8-.1-.5 0-1 .1-1.5s.2-1 .5-1.4c.1-.1.1-.2.2-.3.6.6.4 1.6.3 2.3-.2.4-.4.9-.6 1.4zM324.3 79.7c.3-.4.5-.8.8-1.1.5-.8 1.1-1.8 1-2.8-.1-.9-1.3-1-2-.7-.9.5-1.5 1.4-1.7 2.4-.4 1.3-.6 2.5-.6 3.8-.5.5-1.4 1.7-2.2 1.2-.2-.1-.3-.4-.4-.6.6-.6 1.1-1.3 1.6-2 .4-.7.7-1.8-.1-2.2-.7-.4-1.6 0-2.1.6s-.7 1.3-.8 2.1c0 .4-.1 1.1 0 1.7-.4.3-1 .4-1.5.3-.6-.1-.8-.7-.9-1.2-.2-.7-.1-1.4 0-2.1 0-.2.1-.4.2-.6 0-.1 0-.1.1-.2.4.1.5.7.6.9.2.5 1.4-.3 1.3-.8-.1-.5-.3-1-.9-1.2-.5-.2-1.2.2-1.5.5-.9.9-1 2.2-.9 3.4 0 .7.2 1.7.9 2.1.9.5 2.1.1 3-.5.2.6.6.9 1.3.8.9-.1 1.7-.6 2.3-1.2 0 .7.2 1.4.7 1.7.8.4 1.7-.1 2.2-.7.7-.8 1-2 .7-3.1-.2-.3-.7-.5-1.1-.5zm-4.9-.5c.1-.2.1-.4.2-.5.3.1.4.6.4.8-.1.6-.4 1.1-.8 1.6v-.3c-.1-.6 0-1.1.2-1.6zm4.7-2.7c.1-.2.2-.4.4-.5.6.6 0 1.5-.3 2.1-.3.6-.7 1.2-1.1 1.7.1-.6.2-1.1.3-1.7.2-.6.4-1.1.7-1.6zm-.3 6.7c0 .1-.1.2-.1.2h-.1c-.4-.2-.4-1-.4-1.3v-.8l.5-.5c.3-.2.6.2.6.5 0 .6-.3 1.3-.5 1.9zM378.8 142.9h-.3c.7-1.2 1.2-2.5 1.2-4 0-4-3.2-7.2-7.1-7.2-3 0-5.5 1.9-6.5 4.6-1.2-3.9-5-6.8-9.5-6.8-5.5 0-9.9 4.2-9.9 9.5v.4c-.4-.1-.9-.1-1.4-.1-3.9 0-7.1 3.2-7.1 7.2 0 1.9.7 3.7 1.9 5H356c-.9-2.1-2.9-5.4-5.8-5.4 0 0 9.4-3.4 11.2 4.1 0 0 1.5-6.1 8.4-6.2 0 0-3 2.7-3.2 7.5H383c.6-.9 1-1.9 1-3.1 0-3-2.3-5.5-5.2-5.5z"/><path class="st4" d="M397 147.6h-.1c.3-.5.5-1.2.5-1.8 0-1.8-1.4-3.3-3.2-3.3-1.3 0-2.5.9-3 2.1-.6-1.8-2.3-3.1-4.3-3.1-2.5 0-4.5 1.9-4.5 4.3v.2c-.2 0-.4-.1-.6-.1-1.8 0-3.2 1.5-3.2 3.3 0 .9.3 1.7.9 2.2h7.2c-.4-1-1.3-2.5-2.6-2.4 0 0 4.3-1.5 5.1 1.9 0 0 .7-2.8 3.8-2.8 0 0-1.4 1.2-1.4 3.4h7.4c.3-.4.4-.9.4-1.4-.1-1.4-1.1-2.5-2.4-2.5z"/><path class="st6" d="M44.6 82.8h108.2V150H44.6z"/><path class="st1" d="M88 108.4h22.7v41.7H88z"/><path class="st2" d="M94.6 132.7c0 1-.8 1.9-1.8 1.9s-1.8-.8-1.8-1.9c0-1 .8-1.9 1.8-1.9 1.1.1 1.8.9 1.8 1.9z"/><path class="st3" d="M89.9 150.7c0 1.5-1.2 2.7-2.7 2.7-1.5 0-2.7-1.2-2.7-2.7v-40.9c0-1.5 1.2-2.7 2.7-2.7 1.5 0 2.7 1.2 2.7 2.7v40.9zM114.7 150.7c0 1.5-1.2 2.7-2.7 2.7-1.5 0-2.7-1.2-2.7-2.7v-40.9c0-1.5 1.2-2.7 2.7-2.7 1.5 0 2.7 1.2 2.7 2.7v40.9z"/><path class="st3" d="M114.7 108.2c0 1.7-1.4 3.1-3.1 3.1h-24c-1.7 0-3.1-1.4-3.1-3.1 0-1.7 1.4-3.1 3.1-3.1h24c1.7 0 3.1 1.4 3.1 3.1z"/><path class="st1" d="M54.4 112.7v4.8h10v-6.1h-8.7c-.7-.1-1.3.5-1.3 1.3zm19.7-1.4h-8.7v6.1h10v-4.8c-.1-.7-.6-1.3-1.3-1.3zm-8.8 13.2H74c.7 0 1.3-.6 1.3-1.4v-4.8h-10v6.2zm-10.9-1.4c0 .8.6 1.4 1.3 1.4h8.7v-6.1h-10v4.7zM122.8 112.7v4.8h10v-6.1h-8.7c-.7-.1-1.3.5-1.3 1.3zm19.7-1.4h-8.7v6.1h10v-4.8c-.1-.7-.6-1.3-1.3-1.3zm-8.8 13.2h8.7c.7 0 1.3-.6 1.3-1.4v-4.8h-10v6.2zm-10.9-1.4c0 .8.6 1.4 1.3 1.4h8.7v-6.1h-10v4.7z"/><path class="st7" d="M52 83.2H35.1l12-25.6h50.1z"/><path class="st7" d="M49.6 57.6h56.2v25.6H49.6z"/><path class="st7" d="M144.4 83.2h17l-12-25.6H99.3z"/><path class="st7" d="M90.7 57.6h56.2v25.6H90.7z"/><path class="st5" d="M115.1 80.7c0 9-7.3 16.4-16.4 16.4-9.1 0-16.4-7.3-16.4-16.4 0-9.1 7.3-16.4 16.4-16.4 9 0 16.4 7.3 16.4 16.4z"/><path class="st4" d="M94.6 78.4c-1.3.1-1.7 1.8-1.8 2.9v.5c0 .5 0 .9-.1 1.5 0 .2-.1.6-.1.6-.5 0-.9-.7-1-1-.3-.8-.6-1.7-.7-2.6-.2-.9-.3-1.9-.3-2.9v-1.2-.5-.3c.1-.7-.9 0-1.1.3-1.1 1.9-.8 4.1-.7 6.2 0 .6 0 1.1-.1 1.7-.1.4-.1 1.1-.5 1.4-.2.2-.6 0-.7 0-.3-.1-.4-.4-.5-.7 0-.3-.4-.1-.6 0-.2.2-.5.6-.4 1 .1.7.8 1.4 1.6 1.2 1.2-.4 1.7-1.8 2-2.9.1-.5.2-1.1.3-1.7.2.8.4 1.6.8 2.3.3.5.7 1.1 1.4 1 .5-.1.9-.6 1.1-1.3.2.5.6.9 1.2.9.7-.1 1.2-.8 1.5-1.3.3-.7.4-1.4.4-2.1 0-1.2-.3-3.2-1.7-3zm.4 4.7c0 .1-.1.3-.1.4-.3 0-.5-.4-.5-.6-.2-.4-.3-.9-.4-1.4 0-.5 0-1 .1-1.5 0-.1.1-.3.1-.4.7.4.8 1.3.9 2 0 .4 0 1-.1 1.5zM110.9 80.3c-1.5-.5-2.3 1.4-2.6 2.5-.3 1-.6 2.8.7 3.4.6.3 1.3-.2 1.7-.6.4-.5.7-1.1.9-1.8.3-1.1.6-3-.7-3.5zM110 85c-.1.1-.1.2-.2.3-.2-.1-.3-.6-.3-.8-.1-.5 0-1 .1-1.5s.2-1 .5-1.4c.1-.1.1-.2.2-.3.6.6.4 1.6.3 2.3-.2.4-.4.9-.6 1.4zM106.9 80.5c.3-.4.5-.8.8-1.1.5-.8 1.1-1.8 1-2.8-.1-.9-1.3-1-2-.7-.9.5-1.5 1.4-1.7 2.4-.4 1.3-.6 2.5-.6 3.8-.5.5-1.4 1.7-2.2 1.2-.2-.1-.3-.4-.4-.6.6-.6 1.1-1.3 1.6-2 .4-.7.7-1.8-.1-2.2-.7-.4-1.6 0-2.1.6s-.7 1.3-.8 2.1c0 .4-.1 1.1 0 1.7-.4.3-1 .4-1.5.3-.6-.1-.8-.7-.9-1.2-.2-.7-.1-1.4 0-2.1 0-.2.1-.4.2-.6 0-.1 0-.1.1-.2.4.1.5.7.6.9.2.5 1.4-.3 1.3-.8-.1-.5-.3-1-.9-1.2-.5-.2-1.2.2-1.5.5-.9.9-1 2.2-.9 3.4 0 .7.2 1.7.9 2.1.9.5 2.1.1 3-.5.2.6.6.9 1.3.8.9-.1 1.7-.6 2.3-1.2 0 .7.2 1.4.7 1.7.8.4 1.7-.1 2.2-.7.7-.8 1-2 .7-3.1-.2-.2-.7-.4-1.1-.5zM102 80c.1-.2.1-.4.2-.5.3.1.4.6.4.8-.1.6-.4 1.1-.8 1.6v-.3c-.1-.6 0-1.1.2-1.6zm4.7-2.7c.1-.2.2-.4.4-.5.6.6 0 1.5-.3 2.1-.3.6-.7 1.2-1.1 1.7.1-.6.2-1.1.3-1.7.2-.6.4-1.1.7-1.6zm-.3 6.7c0 .1-.1.2-.1.2h-.1c-.4-.2-.4-1-.4-1.3v-.8l.5-.5c.3-.2.6.2.6.5 0 .6-.3 1.4-.5 1.9zM153 74.8h108.9v74.5H153z"/><path class="st8" d="M164.1 138.9h13.7v10.4h-13.7z"/><path class="st9" d="M161.4 137.8h19.1v2.6h-19.1z"/><path class="st8" d="M187.8 139h13.7v10.4h-13.7z"/><path class="st9" d="M185.1 137.9h19.1v2.6h-19.1z"/><path class="st8" d="M237.1 139h13.7v10.4h-13.7z"/><path class="st9" d="M234.4 137.9h19.1v2.6h-19.1z"/><path class="st8" d="M212.3 138.7H226v10.4h-13.7z"/><path class="st9" d="M209.6 137.6h19.1v2.6h-19.1z"/><path class="st10" d="M164.8 44.8l-17.7 29.4-.5.8h121.3l-14.2-30.2h-5.3z"/><path class="st2" d="M171.4 102.3h5.8v-3.4h-5.8v3.4zm-6.5 0h5.8v-3.4h-5.8v3.4zm0-4.1h5.8v-3.9h-5.8v3.9zm0-6.4v1.8h5.8v-3.9h-5.5c.1-.2.1-.5.2-.7h5.3v-4h.3c-3.3 0-6.1 3.1-6.1 6.8zm6.5 6.4h5.8v-3.9h-5.8v3.9zm-.3-13.2h.3v4h5.3c.1.2.2.5.2.7h-5.5v3.9h5.8v-1.8c0-3.7-2.7-6.8-6.1-6.8zM244.1 102.3h5.8v-3.4h-5.8v3.4zm-6.5 0h5.8v-3.4h-5.8v3.4zm0-4.1h5.8v-3.9h-5.8v3.9zm0-6.4v1.8h5.8v-3.9H238c.1-.2.1-.5.2-.7h5.3v-4h.3c-3.4 0-6.2 3.1-6.2 6.8zm6.5 6.4h5.8v-3.9h-5.8v3.9zm-.3-13.2h.3v4h5.3c.1.2.2.5.2.7h-5.5v3.9h5.8v-1.8c0-3.7-2.7-6.8-6.1-6.8zM171.4 132.7h5.8v-3.4h-5.8v3.4zm-6.5 0h5.8v-3.4h-5.8v3.4zm0-4.1h5.8v-3.9h-5.8v3.9zm0-6.4v1.8h5.8v-3.9h-5.5c.1-.2.1-.5.2-.7h5.3v-4h.3c-3.3 0-6.1 3-6.1 6.8zm6.5 6.4h5.8v-3.9h-5.8v3.9zm-.3-13.2h.3v4h5.3c.1.2.2.5.2.7h-5.5v3.9h5.8v-1.8c0-3.8-2.7-6.8-6.1-6.8zM195.6 132.7h5.8v-3.4h-5.8v3.4zm-6.4 0h5.8v-3.4h-5.8v3.4zm0-4.1h5.8v-3.9h-5.8v3.9zm0-6.4v1.8h5.8v-3.9h-5.5c.1-.2.1-.5.2-.7h5.3v-4h.3c-3.4 0-6.1 3-6.1 6.8zm6.4 6.4h5.8v-3.9h-5.8v3.9zm-.3-13.2h.3v4h5.3c.1.2.2.5.2.7h-5.5v3.9h5.8v-1.8c0-3.8-2.7-6.8-6.1-6.8zM219.9 132.7h5.8v-3.4h-5.8v3.4zm-6.5 0h5.8v-3.4h-5.8v3.4zm0-4.1h5.8v-3.9h-5.8v3.9zm0-6.4v1.8h5.8v-3.9h-5.5c.1-.2.1-.5.2-.7h5.3v-4h.3c-3.3 0-6.1 3-6.1 6.8zm6.5 6.4h5.8v-3.9h-5.8v3.9zm-.4-13.2h.3v4h5.3c.1.2.2.5.2.7h-5.5v3.9h5.8v-1.8c.1-3.8-2.7-6.8-6.1-6.8zM244.1 132.7h5.8v-3.4h-5.8v3.4zm-6.5 0h5.8v-3.4h-5.8v3.4zm0-4.1h5.8v-3.9h-5.8v3.9zm0-6.4v1.8h5.8v-3.9H238c.1-.2.1-.5.2-.7h5.3v-4h.3c-3.4 0-6.2 3-6.2 6.8zm6.5 6.4h5.8v-3.9h-5.8v3.9zm-.3-13.2h.3v4h5.3c.1.2.2.5.2.7h-5.5v3.9h5.8v-1.8c0-3.8-2.7-6.8-6.1-6.8z"/><path class="st9" d="M152.2 107.8h110.4v5.3H152.2z"/><path class="st11" d="M195.9 60.7h22.6v9.5h-22.6z"/><path class="st11" d="M195.4 61.1l11.8-12.5 12 12.6-12 2.1z"/><path class="st9" d="M207.2 50.2l-12.7 12.9-2.1-2.1 14.8-15.1L222 61l-2.1 2.1-12.7-12.9z"/><g><path class="st2" d="M201.7 60.2h5v-5c-2.6.1-4.8 2.3-5 5zm6-5.1v5h5c-.2-2.6-2.3-4.8-5-5zm-1 11v-5h-5c.2 2.7 2.4 4.8 5 5zm1 0c2.7-.2 4.8-2.4 5-5h-5v5z"/></g><g><path class="st5" d="M222.7 102.3c0 8.4-6.8 15.2-15.2 15.2-8.4 0-15.2-6.8-15.2-15.2 0-8.4 6.8-15.2 15.2-15.2 8.3 0 15.2 6.8 15.2 15.2z"/><path class="st4" d="M203.6 100.2c-1.3.1-1.6 1.6-1.6 2.7v.4c0 .5 0 .9-.1 1.4 0 .2-.1.6-.1.6-.5 0-.8-.6-.9-1-.3-.8-.5-1.6-.7-2.4-.2-.9-.2-1.8-.3-2.7v-1.1-.4-.2c.1-.7-.8 0-1 .3-1 1.8-.7 3.9-.7 5.8 0 .5 0 1-.1 1.6-.1.4-.1 1-.4 1.3-.2.2-.5 0-.7 0-.2-.1-.4-.4-.4-.7 0-.3-.4-.1-.5 0-.2.2-.4.6-.4.9.1.7.7 1.3 1.5 1.1 1.1-.3 1.6-1.7 1.9-2.7.1-.5.2-1 .2-1.5.2.8.4 1.5.7 2.2.3.5.7 1 1.3.9.5-.1.8-.6 1-1.2.2.5.6.9 1.1.8.6 0 1.2-.7 1.4-1.2.3-.6.4-1.3.3-1.9.1-1.3-.1-3.2-1.5-3zm.4 4.3c0 .1-.1.3-.1.4-.2 0-.4-.4-.5-.6-.2-.4-.3-.9-.3-1.3 0-.5 0-1 .1-1.4 0-.1.1-.2.1-.4.6.4.8 1.2.8 1.9 0 .5 0 1-.1 1.4zM218.8 102c-1.4-.5-2.1 1.3-2.4 2.4-.2 1-.5 2.6.7 3.1.6.2 1.3-.2 1.6-.6.4-.5.7-1.1.8-1.7.3-1 .5-2.8-.7-3.2zm-.8 4.3c-.1.1-.1.2-.2.3-.2-.1-.3-.6-.3-.8-.1-.5 0-1 .1-1.4.1-.5.2-.9.4-1.3.1-.1.1-.2.2-.3.5.6.4 1.5.2 2.2-.1.4-.2.9-.4 1.3zM215.1 102.2c.3-.3.5-.7.7-1.1.5-.8 1-1.7 1-2.6 0-.9-1.2-.9-1.8-.6-.9.4-1.4 1.3-1.6 2.2-.3 1.2-.5 2.4-.6 3.6-.4.5-1.3 1.6-2 1.1-.2-.1-.3-.3-.3-.6.6-.6 1.1-1.2 1.5-1.9.4-.6.7-1.7-.1-2.1-.7-.4-1.5 0-1.9.6-.4.5-.6 1.2-.7 1.9 0 .4-.1 1 0 1.6-.4.2-.9.4-1.4.3-.5-.1-.7-.7-.8-1.1-.1-.6-.1-1.3 0-1.9 0-.2.1-.4.2-.6 0 0 0-.1.1-.1.3.1.5.6.5.9.1.5 1.3-.3 1.2-.7-.1-.5-.3-.9-.8-1.1-.5-.2-1.1.2-1.4.5-.8.8-.9 2-.9 3.1 0 .7.2 1.6.8 1.9.8.5 2 .1 2.7-.4.2.5.6.9 1.3.8.8-.1 1.6-.6 2.1-1.1 0 .6.2 1.3.6 1.6.7.4 1.6-.1 2.1-.7.6-.8 1-1.9.6-2.9-.3-.4-.7-.6-1.1-.6zm-4.6-.5c.1-.2.1-.3.2-.5.3.1.4.5.3.8-.1.5-.4 1-.8 1.5v-.3c.1-.6.1-1.1.3-1.5zm4.4-2.5c.1-.2.2-.4.3-.5.5.6 0 1.4-.3 2-.3.5-.6 1.1-1 1.6.1-.5.2-1 .3-1.6.3-.6.4-1.1.7-1.5zm-.3 6.2c0 .1-.1.2-.1.2h-.1c-.3-.2-.4-.9-.4-1.2v-.8c.1-.2.3-.3.4-.5.3-.2.5.2.6.5 0 .6-.2 1.3-.4 1.8z"/></g><g><path class="st1" d="M25.9 151.1c2 3.2 51.3 2.5 51.9-1.9.5-4.4-2.3-6-5.3-5.2 0 0-.1-9.1-9.3-5.6 0 0-4.4-5.7-8.1-3.1-3.7 2.6-5.6 2.3-7.2.9-1.6-1.4-8.3.5-7.9 4.5 0 0-2.1-3.1-7.2-1.2-5.2 1.8-2.7 7.3-2.7 7.3s-7.3-.7-4.2 4.3zM120.5 151.7c.2-3.1 1.8-9.6 8.2-8.9 0 0 2.6-11.6 12.4-5.3 0 0 1.9-3.9 7.1-3.3 5.2.6 1.6 5.3 4.9 4.3 3.3-1 5.6-3.4 7.9-1 2.3 2.4 1.4 3.8 1.4 3.8s3.7-3.3 7.2-.5 4.8 12.1-4.6 12.4c-9.4.1-44.6.2-44.5-1.5z"/></g></g><g id="car"><path class="st12" d="M298.6 164h112.1v21H298.6z"/><circle class="st13" cx="396.6" cy="182.8" r="12.4"/><path class="st4" d="M329 112.4h87.5v56.5H329z"/><circle class="st13" cx="299.3" cy="182.8" r="12.4"/><path class="st4" d="M277.1 168.7v11h7.2c1.5-7 7.6-12.2 15-12.2s13.6 5.2 15 12.2h12.2v-55.9s-49.4 11.2-49.4 44.9z"/><circle class="st14" cx="299.3" cy="182.8" r="5.7"/><circle class="st14" cx="396.6" cy="182.8" r="5.7"/><path class="st4" d="M296 183.1h-.3c-.4-.2-.7-.6-.5-1.1 1-3 3.1-3.3 3.2-3.3.5-.1.9.2 1 .7.1.5-.2.9-.7 1-.1 0-1.2.3-1.8 2.2-.3.3-.6.5-.9.5zM393.3 183.1h-.3c-.4-.2-.7-.6-.5-1.1 1-3 3.1-3.3 3.2-3.3.5-.1.9.2 1 .7.1.5-.2.9-.7 1-.1 0-1.2.3-1.8 2.2-.3.3-.6.5-.9.5z"/><path class="st12" d="M326.5 130.8s-17 .6-27.3 12.8c0 0-2.2 2.9-2.1 4.5h29.4v-17.3z"/><path class="st15" d="M319.3 156.9c0 .5-.4.9-.9.9h-2.2c-.5 0-.9-.4-.9-.9s.4-.9.9-.9h2.2c.5 0 .9.4.9.9zM397.5 168c0 .5-.4.9-.9.9h-2.3c-.5 0-.9-.4-.9-.9s.4-.9.9-.9h2.3c.5 0 .9.4.9.9zM352.1 168c0 .5-.4.9-.9.9h-2.3c-.5 0-.9-.4-.9-.9s.4-.9.9-.9h2.3c.5 0 .9.4.9.9z"/><circle class="st16" cx="316.1" cy="156.8" r=".6"/><circle class="st16" cx="349" cy="168" r=".6"/><circle class="st16" cx="394.4" cy="168" r=".6"/><path class="st5" d="M390.5 139c0 9.7-7.9 17.6-17.6 17.6-9.7 0-17.6-7.9-17.6-17.6 0-9.7 7.9-17.6 17.6-17.6 9.7-.1 17.6 7.8 17.6 17.6z"/><path class="st4" d="M368.5 136.5c-1.5.2-1.9 1.9-1.9 3.1v.5c0 .6 0 1-.1 1.6 0 .2-.1.7-.2.7-.5.1-.9-.7-1.1-1.1-.4-.9-.6-1.8-.8-2.8-.2-1-.3-2.1-.4-3.1v-1.3-.5-.3c.1-.8-1 0-1.2.3-1.2 2-.8 4.5-.8 6.7 0 .6 0 1.2-.1 1.8-.1.4-.1 1.1-.5 1.5-.2.2-.6.1-.8-.1-.3-.2-.5-.5-.5-.8-.1-.3-.4-.2-.6 0-.3.3-.5.7-.5 1 .1.8.9 1.5 1.7 1.2 1.3-.4 1.9-2 2.2-3.2.2-.6.2-1.2.3-1.8.2.9.4 1.7.8 2.5.3.6.8 1.2 1.6 1 .5-.1.9-.7 1.2-1.4.3.6.7 1 1.3 1 .7-.1 1.3-.9 1.6-1.4.3-.7.4-1.5.4-2.2.2-.9-.1-3.1-1.6-2.9zm.5 5c0 .1-.1.3-.1.4-.3 0-.5-.5-.6-.7-.2-.5-.3-1-.4-1.5 0-.5 0-1.1.1-1.7 0-.1.1-.3.1-.4.7.5.9 1.4 1 2.2 0 .6 0 1.2-.1 1.7zM386 138.5c-1.6-.6-2.5 1.6-2.8 2.7-.3 1.1-.6 3.1.8 3.6.7.3 1.5-.2 1.8-.7.5-.5.8-1.2 1-2 .4-1 .7-3-.8-3.6zm-.9 5.1c-.1.1-.1.2-.2.4-.2-.2-.3-.6-.4-.9-.1-.6 0-1.1.1-1.6s.3-1.1.5-1.5c.1-.1.1-.2.2-.4.6.7.4 1.7.3 2.5-.1.5-.3 1-.5 1.5zM381.7 138.8c.3-.4.6-.8.8-1.2.6-.9 1.2-1.9 1.1-3-.1-1-1.4-1.1-2.1-.7-1 .5-1.6 1.6-1.9 2.6-.4 1.4-.6 2.7-.7 4.1-.5.6-1.5 1.8-2.3 1.3-.2-.1-.3-.4-.4-.6.6-.7 1.2-1.4 1.7-2.2.5-.7.8-1.9-.1-2.4-.8-.4-1.7 0-2.2.7-.5.6-.7 1.4-.8 2.2 0 .4-.1 1.2 0 1.8-.5.3-1 .5-1.6.4-.6-.1-.8-.8-.9-1.2-.2-.7-.1-1.5 0-2.2 0-.2.1-.5.2-.7 0-.1 0-.1.1-.2.4.2.5.7.6 1 .2.5 1.5-.3 1.4-.8-.2-.5-.4-1-1-1.3-.6-.3-1.3.2-1.6.5-.9.9-1.1 2.4-1 3.6 0 .8.2 1.8.9 2.3.9.6 2.3.1 3.2-.5.2.6.7 1 1.5.9.9-.1 1.8-.6 2.5-1.3 0 .7.2 1.5.7 1.8.8.5 1.9-.1 2.4-.8.7-.9 1.1-2.2.7-3.3-.3-.6-.7-.8-1.2-.8zm-5.3-.6c.1-.2.1-.4.2-.6.4.1.4.6.4.9-.1.6-.5 1.2-.9 1.7v-.3c.1-.5.1-1.1.3-1.7zm5.1-2.9c.1-.2.2-.4.4-.6.6.7 0 1.6-.3 2.3-.3.6-.7 1.3-1.1 1.9.1-.6.2-1.2.4-1.8.1-.7.3-1.2.6-1.8zm-.3 7.2c0 .1-.1.2-.2.3h-.1c-.4-.2-.4-1.1-.4-1.4v-.9c.2-.2.3-.4.5-.6.3-.2.6.2.7.6 0 .6-.3 1.5-.5 2z"/><path class="st1" d="M410.7 171.9h7.8v2.6h-7.8z"/><path class="st17" d="M287.4 160.3s-9.2.8-9.2 8.3h8.8l.4-8.3z"/></g></svg>