<?xml version="1.0" encoding="utf-8"?>
<!-- Generator: Adobe Illustrator 19.0.0, SVG Export Plug-In . SVG Version: 6.00 Build 0)  -->
<svg version="1.1" id="Layer_1" xmlns="http://www.w3.org/2000/svg" xmlns:xlink="http://www.w3.org/1999/xlink" x="0px" y="0px"
	 viewBox="0 0 324 325" style="enable-background:new 0 0 324 325;" xml:space="preserve">
<style type="text/css">
	.st0{fill:#FFFFFF;}
</style>
<g id="XMLID_6_">
	<path id="XMLID_391_" class="st0" d="M109.5,165.5c0.2,8.1,9.8,8.1,14.3,3.4c9.1-9.6,0.7-21.2,0.6-32c-0.1-3.1-5.3,0.8-5.3,2.9
		c0.1,5.9,2.3,11,3.4,16.7c0.5,2.6,1.3,9.8-2.5,10.6c-2.3,0.6-5-2.4-5.1-4.5C114.7,159.5,109.4,163.3,109.5,165.5L109.5,165.5z"/>
	<path id="XMLID_390_" class="st0" d="M114.8,139.2c2.1-6.4,11.6-7,15.2-1.4c2,3.1,3.5,13.7-3,11.9c-2.1-0.6-6.3,4.6-4,5.2
		c10.9,3.1,16.6-12.6,12.4-20.6c-2.5-4.8-7.9-6.3-12.9-5.3c-6.2,1.2-10.9,6.1-12.8,11.9C108.6,144.4,114.1,141.2,114.8,139.2
		L114.8,139.2z"/>
	<path id="XMLID_389_" class="st0" d="M125.8,156.2c3.8-2,10.4-4.7,13.5-0.4c1.8,2.3,2.3,6.6,1.3,9.4c-1.4,4-7.2,1.1-9.7-0.2
		c-1.9-1-6.3,4-4,5.2c5.3,2.8,10.9,3.2,15.3-1.2c3.6-3.6,4.6-8.7,3.6-13.7c-2.1-10.2-13.2-7-19.9-3.6
		C123.9,152.9,121.9,158.2,125.8,156.2L125.8,156.2z"/>
	<path id="XMLID_388_" class="st0" d="M199.2,165.2c2.6-3.1,14.9-21.1,4.4-22.3c-7-0.8-9.6,9.5-10,14.5c-0.4,5.9,0.7,16.8,9,15.9
		c8.2-0.8,11.1-10.5,14.4-16.5c2.1-3.8-3.3-1.8-4.4,0.3c-1.7,3.1-3.3,10-7,10.9c-4.5,1-5.9-5-6.4-8.1c-0.3-1.9-1-11.3,1.4-12.3
		c-1,0.4,0.8,1,1,1.5c0.5,1.2,0.7,2.1,0.5,3.4c-0.5,4.4-3.8,8.5-6.5,11.7C192.7,167.7,197.2,167.6,199.2,165.2L199.2,165.2z"/>
	<path id="XMLID_387_" class="st0" d="M288.4,165.2c3.3-3.8,13-16.7,6.4-21.6c-4.3-3.2-9,2.9-10.4,6.3c-2.1,5.4-2.7,12.8-0.8,18.3
		c2.5,7.2,9.2,4.6,13.9,0.7c2.4-2,2.5-6.5-1-3.6c-8.5,7.1-9.1-6.3-8.4-11.9c0.2-1.6,0.6-3.1,1-4.6c0.1-0.3,0.3-1.3,0.7-1.5
		c-1.4,0.7,0.5,0.8,0.7,1.2c2.4,5.5-2.2,11.3-5.7,15.4C281.9,167.7,286.4,167.6,288.4,165.2L288.4,165.2z"/>
	<path id="XMLID_386_" class="st0" d="M212.2,168.3c0.4,6.3,6.1,7.5,10.4,3.6c4.2-3.8,5-10.1,4.7-15.5c-0.2-3.6-0.8-11-5.1-12.4
		c-6.4-2-10.2,7.2-10.2,11.8c-0.1,3,5.3-0.8,5.3-2.9c0-1.5-0.1-4,1.6-3.3c0.7,0.3,1.2,1.6,1.5,2.2c1,2.2,1.4,4.9,1.6,7.3
		c0.2,2.5,0.1,5.3-0.5,7.8c-0.2,0.7-0.7,2.1-0.9,2.2c-1.6,0.6-3.1-2.5-3.1-3.7C217.3,162.3,212.1,166.2,212.2,168.3L212.2,168.3z"/>
	<path id="XMLID_385_" class="st0" d="M210.8,144c2.1,15.4,1.8,31.6,0.2,47c-0.3,2.9,5.1-0.8,5.3-2.9c1.6-15.8,1.8-32.3-0.3-48.1
		C215.8,137.8,210.6,141.7,210.8,144L210.8,144z"/>
	<path id="XMLID_384_" class="st0" d="M154.4,219.9c0.4,6.3,6.1,7.5,10.4,3.6c4.2-3.8,5-10.1,4.7-15.5c-0.2-3.6-0.8-11-5.1-12.4
		c-6.4-2-10.2,7.2-10.2,11.8c-0.1,3,5.3-0.8,5.3-2.9c0-1.5-0.1-4,1.6-3.3c0.7,0.3,1.2,1.6,1.5,2.2c1,2.2,1.4,4.9,1.6,7.3
		c0.2,2.5,0.1,5.3-0.5,7.8c-0.2,0.7-0.7,2.1-0.9,2.2c-1.6,0.6-3.1-2.5-3.1-3.7C159.6,213.9,154.3,217.8,154.4,219.9L154.4,219.9z"/>
	<path id="XMLID_383_" class="st0" d="M153.1,195.5c2.1,15.4,1.8,31.6,0.2,47c-0.3,2.9,5.1-0.8,5.3-2.9c1.6-15.8,1.8-32.3-0.3-48.1
		C158.1,189.4,152.8,193.2,153.1,195.5L153.1,195.5z"/>
	<path id="XMLID_382_" class="st0" d="M252.8,145.8c0.6,8.3,0,16.8,0,25.1c0,3.1,5.3-0.8,5.3-2.9c0.2-5.9,0.6-11.9,2.2-17.7
		c0.3-0.9,0.5-1.8,0.9-2.7c1.1-1.8,0.8-2-0.7-0.4c0.1,1,0.8,2.2,1,3.2c1.5,6.5,0.8,13.9,0.5,20.5c1.8-1,3.5-2,5.3-2.9
		c0-4.4,0.5-8.9,1.2-13.2c0.4-2,0.8-4,1.5-6c0.3-1,0.7-1.9,1.1-2.7c-0.5,0.3-1,0.6-1.6,0.9c0.3,3.5,1.8,6.8,1.8,10.6
		c0.1,3.1-0.3,6.3,0.4,9.4c0.7,3.2,2,6.4,5.6,5.5c4-1,8.6-5.3,11.5-8c2.9-2.8,0.6-5.1-2.4-2.4c-1.4,1.3-5.9,5.5-7.9,5.5
		c0.9,0,0-0.5-0.4-1c-1.5-2-1.6-5.3-1.6-7.6c-0.1-3.6,1.1-14.6-2.7-16.9c-9.8-5.8-12.1,26-12.1,28.9c0,3.1,5.2-0.8,5.3-2.9
		c0.3-4.4,2.8-25.1-3.5-26.4c-3.2-0.7-6,3.9-7,6.2c-3.3,7-3.7,15.5-4,23.1c1.8-1,3.5-2,5.3-2.9c0-8.3,0.6-16.8,0-25.1
		C257.9,139.8,252.6,143.6,252.8,145.8L252.8,145.8z"/>
	<path id="XMLID_381_" class="st0" d="M256,198.6c0.6,8.3,0,16.8,0,25.1c0,3.1,5.3-0.8,5.3-2.9c0.2-5.9,0.6-11.8,2.1-17.5
		c0.3-0.9,0.7-1.9,0.9-2.8c0.1-0.3,0.3-0.7,0.4-1c0.6-0.9,0.1-0.8-1.3,0.3c-0.1,0.3,1.1,2.6,1.2,3.1c1.4,6.6,0.8,14.1,0.5,20.9
		c1.8-1,3.5-2,5.3-2.9c0-6.5,0.7-13.7,3-19.9c0.2-0.5,0.4-1,0.7-1.5c0.5-1,0.3-0.7-1,0.8c-0.1,0.5,0.7,2.3,0.8,2.7
		c0.7,2.9,0.7,5.9,0.8,8.9c0,3.1-1.2,9.4,1.3,11.9c2.3,2.4,5.9-0.9,7.8-2.5c3-2.7,0.6-5.1-2.4-2.4c-1.3,1.2-1.4-4.5-1.4-5.3
		c-0.1-3,0.1-6-0.1-9.1c-0.2-2.7-0.1-10.1-4.2-10c-3.7,0-6.2,5.5-7.2,8.3c-2.4,6.6-3.3,14.1-3.3,21c0,3.1,5.2-0.8,5.3-2.9
		c0.3-5.5,0.5-11,0.1-16.5c-0.2-2.5,0-8.8-3.2-9.8c-3.4-1.1-6.4,3.9-7.4,6.3c-3.1,7-3.6,15.4-3.9,22.9c1.8-1,3.5-2,5.3-2.9
		c0-8.3,0.6-16.8,0-25.1C261.1,192.6,255.8,196.5,256,198.6L256,198.6z"/>
	<path id="XMLID_380_" class="st0" d="M181.7,195.8c-6.8,0.6-9.1,9.2-9.5,14.8c-0.3,4.6-0.2,15.3,6.4,15.6c6.7,0.3,9.5-8.7,9.9-13.9
		c0.4-4.5,0.2-16-6.3-16.5c-2.3-0.2-6.1,5-4,5.2c3.5,0.3,4.4,5.5,4.8,8.2c0.3,2.3,0.3,4.6,0.1,6.9c-0.1,1.2-0.6,2.4-0.7,3.6
		c-0.2,1.3-0.7,1.2-0.3,1.1c-3.6,0.2-4.3-6.4-4.5-8.8c-0.2-2.2-0.1-4.5,0.3-6.7c0.2-1.1,0.5-2.1,0.7-3.1c0.3-1.2,1-1.2,0.3-1.2
		C180.9,200.9,184.7,195.5,181.7,195.8z"/>
	<path id="XMLID_379_" class="st0" d="M187.3,142c-8.6,2-11.5,11.9-11,19.7c0.4,6,4.1,15.6,11.1,9.1c7.4-7,5.1-22.4,0.7-30.2
		c-1.4-2.4-3.3-4.2-4.9-6.4c-0.7-1-1.2-3.5-1.8-4c0-1.8-0.6-1.6-1.9,0.5c0.7,0.1,1.4,0.1,2,0.3c3.3,2.2,11.1,2.9,14.7,1.4
		c2-0.8,5.1-6.4,1.7-5.1c-6.3,2.5-13.4-5-19.3-0.5c-4.5,3.5-2.7,8.9,0.2,12.6c3.3,4.2,6.1,8.1,7.2,13.5c0.4,2,1.6,13.9-0.5,14.7
		c-3.1,1-7.2-18.9,0.1-20.6C187.7,146.6,191,141.2,187.3,142L187.3,142z"/>
	<path id="XMLID_378_" class="st0" d="M200.2,195.6c-6.8,0.6-9.1,9.2-9.6,14.8c-0.3,4.6-0.2,15.3,6.4,15.6c6.7,0.3,9.5-8.7,9.9-13.9
		c0.4-4.5,0.2-16-6.3-16.5c-2.3-0.2-6.1,5-4,5.2c3.5,0.3,4.4,5.5,4.8,8.2c0.3,2.3,0.3,4.6,0.1,6.9c-0.1,1.2-0.6,2.4-0.8,3.6
		c-0.2,1.3-0.7,1.2-0.3,1.1c-3.6,0.2-4.3-6.4-4.5-8.8c-0.2-2.2-0.1-4.5,0.3-6.7c0.2-1.1,0.5-2.1,0.7-3.1c0.3-1.2,1-1.2,0.3-1.2
		C199.4,200.7,203.1,195.3,200.2,195.6z"/>
	<path id="XMLID_181_" class="st0" d="M202,197.9c0,11.1,0.7,22.3,0.5,33.5c-0.1,2.9,0.5,13.1-3.6,12.2c-7-1.5,5.7-19,6.8-20.3
		c2.9-3.5-1.6-3.5-3.6-1c-4,4.9-14,17.2-9.3,24.5c1.9,2.9,4.9,2.7,7.8,1.2c5.7-3.1,6.9-10.4,7.2-16.2c0.8-12.2-0.5-24.6-0.5-36.8
		C207.3,192,202,195.7,202,197.9L202,197.9z"/>
	<path id="XMLID_84_" class="st0" d="M132.2,199.8c1.6,8.1,0.7,16.8,0.6,24.9c0,3.1,5.3-0.8,5.3-2.9c0.1-4.5,0.5-9,1.6-13.4
		c0.3-1.6,1.3-7.6,3-8.4c-1.2,0.6,0.4,2.1,0.8,3.1c0.5,1.1,0.5,2.5,0.6,3.6c0.2,2.8,0,5.7-0.1,8.5c-0.1,2.8-0.6,9.2,3.1,10.4
		c3.1,1,7.6-3.2,9.7-4.8c2.5-2,2.6-6.3-1-3.6c-1,0.7-1.9,1.4-2.9,2.1c-1.2,0.8-1.5,1.3-2.1,0.9c-2.2-1.5-1.4-6.7-1.3-8.9
		c0.1-3.8,1.4-12.8-2.6-15.4c-3.6-2.4-7.5,2.4-8.9,5.1c-3.8,7-4.7,15.8-5,23.6c1.8-1,3.5-2,5.3-2.9c0-8.5,0.9-17.6-0.7-26.1
		C137,193.6,131.8,197.6,132.2,199.8L132.2,199.8z"/>
	<path id="XMLID_83_" class="st0" d="M252.8,163.2c-0.5,0.7-1.7,3.3-2.4,3.5c-2,0.7-3.3-3.1-3.6-4.6c-1.3-6.2-0.7-12.9-0.5-19.1
		c0.1-3-5.1,0.8-5.3,2.9c-0.3,4.5-0.3,9-0.7,13.5c-0.2,2-0.4,4.2-1,6.2c-0.6,1.7-0.9,2.1-2.3,0.4c-4.2-5.2-2.2-15.7-0.7-21.7
		c1-3.6-4.5-0.4-5.1,1.7c-1.4,5.4-5.5,26.4,4.7,26.2c11.8-0.2,10-22.1,10.5-29.2c-1.8,1-3.5,2-5.3,2.9c-0.3,5.4-0.5,10.9,0.1,16.3
		c0.3,3,0.5,6.8,3,8.9c5.3,4.3,9.6-3.2,12.3-6.7C259.1,160.6,254.7,160.6,252.8,163.2L252.8,163.2z"/>
	<path id="XMLID_81_" class="st0" d="M168.2,145.4c-2.2,6.8-2.3,15.2-1.2,22.3c0.3,1.8,0.7,4.2,2.7,4.7c2.9,0.7,7.3-3.6,9.1-5.4
		c2.8-2.9,0.5-5.3-2.4-2.4c-2,2.1-3.1,3.4-4,0.3c-0.6-2.1-0.7-4.6-0.7-6.8c-0.1-4.8-0.1-9.8,1.4-14.4
		C174.4,140.2,168.9,143.4,168.2,145.4L168.2,145.4z"/>
	<path id="XMLID_80_" class="st0" d="M149.7,164.5c2.5-1,7.4-3.1,8.5,0.7c0.9,2.9-2.4,1.6-3.5,0.1c-3.8-5.3-1.6-16.1-0.1-21.9
		c1-3.8-4.7-0.5-5.3,1.8c-1.5,5.7-5.6,31.7,7.4,26.8c3.8-1.4,7.4-5.9,7-10.1c-0.6-6.4-8.5-4.2-12.3-2.7c-1.3,0.6-3.3,2-3.5,3.5
		C147.8,163.9,148.1,165.1,149.7,164.5L149.7,164.5z"/>
	<path id="XMLID_79_" class="st0" d="M212.1,199.3c0.2,5-4.5,27.9,5.3,26.2c11.1-2,10.7-21.2,11.4-29.1c0.3-2.9-5.1,0.8-5.3,2.9
		c-0.5,5.8-0.8,11.9-2.3,17.5c-0.6,2.1-0.7,4.7-2.9,3c-2.4-1.8-1.4-8.7-1.3-11.2c0.2-4,0.7-8.1,0.5-12.2
		C217.3,193.3,212,197.1,212.1,199.3L212.1,199.3z"/>
	<path id="XMLID_75_" class="st0" d="M223.5,199.3c0,10.7,0.7,21.5,0.5,32.3c0,1.8,0,13.8-3.5,11.6c-6.3-3.9,4.2-16.6,6.6-19.5
		c2.9-3.5-1.6-3.5-3.6-1c-3.9,4.7-13.7,16.6-9.1,23.7c1.9,2.9,4.9,2.7,7.7,1.1c5.5-3,6.7-10,7.1-15.6c0.7-11.7-0.4-23.7-0.5-35.5
		C228.8,193.3,223.5,197.1,223.5,199.3L223.5,199.3z"/>
	<path id="XMLID_35_" class="st0" d="M232.8,195.5c2.1,9.5,1,19.5,0.7,29.2c-0.1,3.1,5.1-0.9,5.3-2.9c0.4-4.4,1-8.9,2-13.2
		c0.7-2.7,1.4-9.5,5-6.8c1.6-1.6,3.2-3.2,4.8-4.8c-9.5-6.3-14.2,9.8-15.3,16.3c-0.3,1.6,1.7,1.1,2.5,0.8c6.2-2.7,2.3,11.3,8.3,11.7
		c6.1,0.3,11.3-10,14.7-13.5c2.8-2.9,0.5-5.3-2.4-2.4c-2.6,2.7-4.6,6.5-7.4,8.9c-3.7,3.1-3.3-1.7-3.8-4.6c-1-5.7-4-6.7-9.1-4.4
		c0.8,0.3,1.6,0.5,2.5,0.8c0.5-2.7,1.1-11.3,5.2-8.6c2,1.3,6.5-3.5,4.8-4.8c-12.5-9.3-16.5,21.8-17.1,27.7c1.8-1,3.5-2,5.3-2.9
		c0.3-10,1.4-20.4-0.7-30.3C237.6,189.3,232.4,193.3,232.8,195.5L232.8,195.5z"/>
	
		<rect id="XMLID_34_" x="207.1" y="204.2" transform="matrix(-0.8912 -0.4536 0.4536 -0.8912 298.4021 501.2386)" class="st0" width="4.5" height="21.4"/>
	
		<rect id="XMLID_24_" x="229.5" y="202.6" transform="matrix(-0.8949 -0.4462 0.4462 -0.8949 343.7104 508.2637)" class="st0" width="4.5" height="22.1"/>
</g>
<g id="XMLID_2_">
	<path id="XMLID_5_" class="st0" d="M44.8,47.1c-2.8-1.3-5.6-2.1-8.4-3.4c-0.3-0.2-4.8-1.8-9.1-1.1c0.2,4.1,4.1,7,8,8.6
		c2.2,0.9,4.3,1.7,6.3,2.7c1.7,0.8,3,1.6,3.7,2.1c25.4,11,47.1,44.3,50.5,58.5c1,2.1,1.5,4.3,1.6,6.6c0.7-0.8,1.9-1.9,1.8-3.6
		C97.8,96.3,73.6,59.9,44.8,47.1z"/>
	<path id="XMLID_4_" class="st0" d="M26,47.7c1.8,7.7,6.5,15.9,11.6,21.9c0.4,0.5,0.9,1,1.4,1.5c0.1,0,0.1,0.1,0.2,0.1
		c0.3,0.2,0.6,0.4,1,0.6c0.1,0.1,0.5,0.2,0.4,0.2c0.1,0,0.1,0,0.1,0c0.3-0.1,0.7-0.1,1-0.2c0.9-0.3,1.6-0.9,1.9-1.8
		c0.9-2.2-1.2-4.4-2.5-6.1c-1.8-1.7-3.2-4-4.5-6.1c-2.8-4.5-5.7-9.3-6.9-14.6C29,39.2,25.5,45.4,26,47.7z"/>
	<path id="XMLID_3_" class="st0" d="M27.8,42.3c6.1-5.1,14.7-8.8,22.5-10.5c0.6-0.1,1.3-0.3,2-0.4c0.1,0,0.1,0,0.2,0
		c0.4,0,0.7,0.1,1.1,0.1c0.1,0,0.5,0.1,0.4,0.1c0,0,0.1,0.1,0.1,0.1c0.2,0.3,0.5,0.5,0.7,0.8c0.5,0.8,0.7,1.7,0.5,2.6
		c-0.6,2.3-3.6,2.7-5.7,3.4c-2.5,0.3-5,1.2-7.2,2.1c-5,1.8-10.2,4-14.3,7.5C25,50.9,26,43.8,27.8,42.3z"/>
</g>
</svg>
