<?xml version="1.0" encoding="utf-8"?>
<!-- Generator: Adobe Illustrator 19.0.0, SVG Export Plug-In . SVG Version: 6.00 Build 0)  -->
<svg version="1.1" id="Layer_1" xmlns="http://www.w3.org/2000/svg" xmlns:xlink="http://www.w3.org/1999/xlink" x="0px" y="0px"
	 viewBox="0 0 86 86" style="enable-background:new 0 0 86 86;" xml:space="preserve">
<style type="text/css">
	.st0{fill:#99C5E9;}
	.st1{fill:#62BA47;}
	.st2{fill:#FFFFFF;}
</style>
<circle id="XMLID_127_" class="st0" cx="46.8" cy="39.1" r="38.7"/>
<circle id="XMLID_126_" class="st1" cx="15.9" cy="73.4" r="12.2"/>
<g id="XMLID_105_">
	<path id="XMLID_108_" class="st2" d="M25.4,70.9c-1.1,1.8-2.5,3.6-3.8,5.3c-0.6,0.8,0.3,0.7,0.7,0.2c1.4-1.8,2.8-3.6,4-5.6
		C26.8,70,25.7,70.4,25.4,70.9L25.4,70.9z"/>
	<path id="XMLID_107_" class="st2" d="M23.4,70.4c-0.7,0-1.2,0.7-1.3,1.3c-0.1,0.6,0.2,1.1,0.8,1.1C24.2,72.8,24.9,70.4,23.4,70.4
		c-0.3,0-0.8,0.7-0.4,0.7c0.3,0,0.5,0.3,0.5,0.6c0,0.1,0,0.3,0,0.4c0,0.1,0,0,0,0c-0.1,0-0.1,0-0.2,0c-0.3,0-0.5-0.3-0.5-0.6
		c0-0.1,0-0.3,0.1-0.4c0-0.1,0,0,0,0c0,0,0.1,0,0.2,0C23.3,71.1,23.8,70.4,23.4,70.4z"/>
	<path id="XMLID_106_" class="st2" d="M25.3,74.3c-0.7,0-1.2,0.7-1.3,1.3c-0.1,0.6,0.2,1.1,0.8,1.1C26.1,76.8,26.8,74.4,25.3,74.3
		c-0.3,0-0.8,0.7-0.4,0.7c0.3,0,0.5,0.3,0.5,0.6c0,0.1,0,0.3,0,0.4c0,0.1,0,0,0,0c-0.1,0-0.1,0-0.2,0c-0.3,0-0.5-0.3-0.5-0.6
		c0-0.1,0-0.3,0.1-0.4c0-0.1,0,0,0,0c0,0,0.1,0,0.2,0C25.2,75,25.7,74.3,25.3,74.3z"/>
</g>
<g id="XMLID_91_">
	<g id="XMLID_92_">
		<g id="XMLID_93_">
			<path id="XMLID_99_" class="st2" d="M76.5,45.9c-0.4,0-0.7,0.1-1,0.4c-0.5-2.1,0-4.2,0.6-6.1c0,0,0-0.1,0-0.1
				c0.2-1-0.5-1.7-1.6-1.8c-1-0.1-1.9,0.4-2.6,1c-0.8,0.8-1.3,2-1.6,3.3c-0.2,1-0.8,1.6-1,1.6c-0.5-0.2-0.3-0.9-0.3-1.3
				c0-0.7,0.1-1.5-0.3-2.2c-0.3-0.5-0.8-0.6-1.4-0.6c0.5-1.7,1-1.9,1.2-2c0.3,0.1,0.5,0.4,0.6,0.5c0.6,0.6,2.2-0.4,1.8-1
				c-0.7-0.8-1.4-0.9-2.1-0.8c-0.5,0.1-1,0.4-1.4,0.7c-0.1,0.1-0.1,0.1-0.2,0.2c0.1-0.9,0.1-1.9-0.1-2.8c-0.1-0.7-2,0.1-1.9,0.8
				c0.1,0.4,0.1,0.9,0.1,1.3c-0.1,2-0.6,4.1-2.2,5.5c0-0.2-0.1-0.3-0.1-0.5c-0.1-1.3,0.3-2.6,0.3-3.8c0-0.9,0.1-2-0.4-2.8
				c-0.6-0.8-1.9,0.1-2.3,0.4c-0.1,0.1-0.2,0.2-0.2,0.3c-0.1-0.5-0.2-0.9-0.5-1.3c-0.4-0.4-1.1-0.3-1.5,0c-0.3,0.2-0.6,0.4-0.8,0.6
				c0-0.2,0-0.3,0-0.5c0-0.3,0-0.7-0.3-0.7c-0.3,0-0.6,0.1-0.8,0.2c-0.3,0.2-0.5,0.4-0.6,0.7c-0.2,0.3-0.4,0.3-0.8,0.2
				c-1.3-0.3-1.3-1.4-2.4-1.4c-1.9-0.1-2.6,2.2-2.9,3.8c0,0,0,0,0,0c-0.2,0.8-0.6,1.9-1.3,2.6c0.3-0.9,0.4-2,0.4-2.9
				c-0.1-1.1-0.2-3-1.5-3.6c-0.7-0.3-1.5,0.1-2.1,0.4c-0.1-0.5-0.2-1.5-0.3-1.7c-0.1-0.2-0.3-0.2-0.6-0.1c-0.5,0.2-0.9,0.6-1.1,1
				c-0.1,0.3-0.2,1.1-1.1,1c-0.6-0.1-0.9-0.7-1.9-0.5c-2.1,0.7-2.6,3-2.5,4.9c0.1,1.3,0.3,4.2,2.2,4.2c1,0,1.8-1.1,2.1-1.9
				c0.4-0.9,0.5-2,0.5-3c0-0.6,0-1.4-0.3-2.3c0.4-0.2,0.7-0.4,1.1-0.7c0.1,0.7,0.2,1.4,0.3,2c0,0,0,0.1,0,0.1c0,0,0,0.1,0,0.1
				c0.1,1.5,0.2,2.9,0.2,4.4c0.1,2,0.1,4-0.1,5.9c0,0.5,0.5,0.4,0.8,0.2c0.4-0.2,0.8-0.7,0.8-1.1c0.1-1.4,0.2-2.9,0.2-4.2
				c1.7,0,3.2-1.2,4.1-2.2c0.2,1.2,0.6,2.3,1.8,2.4c1,0.1,1.9-0.8,2.3-1.5c0.5-0.9,0.7-1.9,0.8-2.9c0-0.4,0.1-1,0-1.6
				c0.4,0,0.8-0.2,1.2-0.3c-0.1,2.1-0.3,4.2-0.5,6.3c-0.1,0.9,1.7-0.1,1.7-0.7c0.2-1.9,0.3-4,1.4-5.7c0.3,0.3,0.2,2.3,0.1,3.4
				c0,0.6-0.1,1.2-0.2,1.8c-0.1,0.5-0.2,1-0.2,1.6c-0.1,0.9,1.6,0,1.7-0.6c0.1-0.5,0.2-1,0.2-1.5c0.2-1,0.6-3.8,1.3-4.1
				c0.3,0.2,0.1,2,0.1,2.6c-0.1,1.2-0.4,2.4-0.2,3.7c0.2,1.9,2.2,0.5,2.9-0.1c0.2-0.2,0.3-0.4,0.5-0.6c-0.1,0.6-0.2,1.2-0.3,1.8
				c-0.1,0.9,1.6,0.1,1.7-0.5c0.2-0.8,0.4-1.5,0.6-2.3c0.9,0.5,0.1,2.9,0.8,3.6c0.6,0.6,1.5,0.4,2.1,0.2c0.2-0.1,0.4-0.2,0.6-0.3
				c0.1,0.5,0.2,1,0.6,1.3c0.7,0.6,1.8,0.4,2.4,0c0.1,0,0.1-0.1,0.2-0.1c0,0.2,0,0.3,0.1,0.5c0.4,1.9,2.7,0.9,3.3,0
				C77.1,46.2,76.9,45.9,76.5,45.9z M41,40.7c0,0.2-0.1,0.4-0.2,0.6c-0.4-0.1-0.6-0.6-0.8-0.9c-0.3-0.7-0.4-1.4-0.5-2.1
				c-0.1-0.7,0-1.5,0.1-2.2c0-0.2,0.1-0.4,0.2-0.6c0,0,0.1,0,0.1,0c0,0,0,0,0,0c0.1,0.1,0.1,0.1,0.2,0.1c0.6,0.6,0.8,2.2,0.8,2.8
				C41.1,39.2,41.1,40,41,40.7z M45.7,39.9c0-1.2-0.1-2.5-0.2-3.7c0-0.7,0.1-0.9,0.1-0.9c0.3-0.1,0.5,0.1,0.7,0.3
				c0.6,0.7,0.7,1.8,0.8,2.6c0.1,0.9-0.1,2.6-0.4,2.9C46.1,41.1,45.8,40.6,45.7,39.9z M52.7,40.7c-0.1,0.2-0.1,0.4-0.2,0.5
				c-0.4-0.1-0.6-0.7-0.7-1c-0.2-0.7-0.3-1.4-0.3-2.1c0-0.7,0.1-1.5,0.3-2.2c0.1-0.2,0.1-0.4,0.2-0.5c0.9,0.3,0.9,2.5,0.9,3.1
				C53,39.2,52.9,40,52.7,40.7z M72.7,45.2c0,0-0.2,0-0.2-0.1c-0.3-0.2-0.3-0.8-0.4-1.1c-0.1-1.2,0.2-2.5,0.7-3.5
				c0.2-0.3,0.5-0.8,0.7-1c0.1,0,0.3,0,0.3,0c0.4,0.1,0.6,0.5,0.5,0.9c-0.4,1.5-0.7,3.2-1.4,4.5C72.8,45,72.8,45.1,72.7,45.2z"/>
			<path id="XMLID_94_" class="st2" d="M36.2,36.4c-0.4-0.2-0.7-0.1-1.1,0c0.3-0.8,0.5-1.6,0.7-2.4c0.3-1.2,0.7-3,0-4.1
				c-0.8-1.2-2.4-0.1-3,0.8c-0.9,1.3-1,3-1.1,4.4c0,1.7,0.2,3.4,0.6,5c-0.1,0.7-0.4,1.9-1,2.6c-0.4,0-0.5-0.9-0.6-1.2
				c-0.6-1.8-0.8-3.8-0.4-5.7c0.1-0.4-0.2-0.6-0.6-0.4c-0.5,0.2-0.9,0.8-1,1.2c-0.1,0.4-0.2,1.5-0.7,1.8c-0.4,0.2-0.9,0.1-1.4,0
				c-0.6-0.1-1.6,0.2-2.1,0.7c-0.1-0.8-0.3-1.5-0.5-2.2c-0.1-0.4-0.8,0.2-1,0.3c-0.3,0.3-0.5,0.7-0.5,1c0,1,0.3,3.1-0.4,5.5
				c-0.1,0.5-0.5,1.4-1.2,1.5c-0.8,0.2-1.4-0.4-1.8-1c-1.2-1.7-1.6-4-1.6-6.1c0-0.8,0.2-1.9,0.5-2.6c0,0,0-0.1,0.1-0.1
				c0,0,0,0,0.1-0.1c0,0,0.1-0.1,0.1-0.1s0.8-0.2,1.2-0.2c0.7,0.1,1,1,1.1,1.5c0.2,0.9,1.7-0.8,1.5-1.4c-0.2-1.2-0.8-2.3-2.3-2.1
				c-1.1,0.2-1.9,0.8-2.4,1.7c-1.2,1.9-1.4,4.3-1.1,6.5c0.2,1.9,0.9,4.2,2.4,5.4c1.7,1.3,3.8-0.9,4.5-2.5c0.2-0.4,0.3-0.8,0.4-1.1
				c0.2,1.3,1,2.7,2.6,2.3c1.8-0.4,2.5-2.8,2.4-4.3c0-0.5-0.2-1-0.4-1.5c0.2-0.2,0.4-0.3,0.6-0.5c0,0.3,0.1,0.7,0.1,1
				c0.1,1.2,0.3,2.5,0.8,3.5c0.4,0.8,1.2,0.8,2,0.2c0.6-0.5,1.1-1.2,1.4-2c0.4,0.9,0.9,1.8,1.9,1.6c1.4-0.3,2.2-1.6,2.5-2.9
				C37.5,39.5,37.6,37,36.2,36.4z M26.9,43.3c0,0.1,0,0.2-0.1,0.3c0,0-0.1,0-0.2,0.1c-0.9,0.3-1.5-1-1.7-1.6c0-0.1,0-0.2-0.1-0.2
				c0,0,0,0,0,0c0-0.1,0-0.2-0.1-0.4c0-0.3,0-0.6,0-0.9c0-0.1,0.1-0.2,0.1-0.3c0,0,0.1,0,0.1,0c1-0.2,1.5,1,1.7,1.6
				C27,42.3,27,42.8,26.9,43.3z M33.4,34.6c0-1.1,0.4-3.5,0.4-3.5s0,0,0,0c0,0,0,0,0,0c0.3,0.1,0.5,0.6,0.5,0.8
				c0.2,1.2-0.1,2.5-0.4,3.7c-0.1,0.5-0.2,0.9-0.4,1.4C33.5,36.2,33.4,35.4,33.4,34.6z M35.7,41.8c0,0,0,0.1,0,0.1c0,0-0.1,0-0.1,0
				c-0.4,0-0.6-0.6-0.8-0.8c-0.3-0.6-0.5-1.3-0.7-1.9c0.1-0.3,0.3-0.6,0.4-1c0,0,0-0.1,0.1-0.1c0,0,0,0,0,0c0.2-0.1,0.4,0.1,0.6,0.2
				c0.5,0.4,0.5,1.2,0.6,1.8C35.8,40.6,35.8,41.2,35.7,41.8z"/>
		</g>
	</g>
</g>
<g id="XMLID_86_">
	<path id="XMLID_90_" class="st2" d="M7.6,70.2c-1.4,0.1-1.9,1.8-2,2.9c-0.1,1-0.1,3.4,1.3,3.5c1.5,0.1,2-1.8,2.2-2.9
		c0.1-1,0-3.4-1.3-3.5c-0.5,0-1.3,1.1-0.8,1.1c0.8,0.1,0.9,1.1,1,1.7c0.1,0.5,0.1,1,0,1.5c0,0.2-0.1,0.4-0.1,0.6
		c0,0.2-0.3,0.5-0.1,0.4c-0.7,0.3-1-1.4-1-1.7c-0.1-0.5,0-1,0-1.5c0-0.3,0.1-0.5,0.2-0.8C7,71.3,7.2,71.3,7,71.3
		C7.5,71.3,8.3,70.2,7.6,70.2z"/>
	<path id="XMLID_89_" class="st2" d="M14.1,70.2c-1.4,0.1-1.9,1.8-2,2.9c-0.1,1-0.1,3.4,1.3,3.5c1.5,0.1,2-1.8,2.2-2.9
		c0.1-1,0-3.4-1.3-3.5c-0.5,0-1.3,1.1-0.8,1.1c0.8,0.1,0.9,1.1,1,1.7c0.1,0.5,0.1,1,0,1.5c0,0.2-0.1,0.4-0.1,0.6
		c0,0.2-0.3,0.5-0.1,0.4c-0.7,0.3-1-1.4-1-1.7c-0.1-0.5,0-1,0-1.5c0-0.3,0.1-0.5,0.2-0.8c0.1-0.3,0.2-0.3,0.1-0.2
		C14,71.3,14.8,70.2,14.1,70.2z"/>
	<path id="XMLID_88_" class="st2" d="M16.2,75.5c0.8,2.6,4.7,0.8,4.1-1.5c-0.3-1.1-1.6-1-2.6-1.3c-0.5-0.2-0.6-0.6-0.5-1
		c0.2-0.5,0.1-0.6-0.2-0.3c0.1,0,0.3-0.1,0.4-0.1c0.8-0.2,1.7-0.1,2.4,0.2c0.3,0.2,1.1-0.7,0.7-0.9c-0.9-0.5-2.1-0.4-3.1-0.2
		c-1,0.2-1.2,1.1-1.2,2c-0.1,1.1,1,1.3,1.8,1.4c0.7,0.1,1.2,0.3,1.3,1c0.1,1.2-1.2,1.1-1.7,0.7c-0.3-0.2-0.4-0.5-0.5-0.8
		C16.9,74.3,16,75.1,16.2,75.5L16.2,75.5z"/>
	<path id="XMLID_87_" class="st2" d="M10.1,77.8c0.5-0.4,0.8-1.1,0.9-1.7c0-0.2,0-0.5-0.1-0.6c-0.2-0.2-0.7,0-0.9,0.1
		c-0.3,0.1-0.6,0.5-0.6,0.8c0,0.3,0.3,0.3,0.5,0.2c0,0,0.1,0,0,0c0,0,0,0,0,0c0.1,0.1,0,0.2,0,0.3c0,0.2-0.1,0.3-0.1,0.4
		c0,0,0,0.1-0.1,0.1c0-0.1,0-0.1,0,0c0,0,0,0.1-0.1,0.1c0.1-0.1,0,0,0,0c-0.1,0.1-0.5,0.5-0.3,0.8C9.6,78.3,10,78,10.1,77.8
		L10.1,77.8z"/>
</g>
<g id="XMLID_17_">
	<g id="XMLID_18_">
		<g id="XMLID_52_">
			<path id="XMLID_53_" class="st2" d="M62.9,56.6c0.3,0.4,0.9,1,1.5,0.3c0.3-0.4,0.4-1.1,0.3-1.5c-0.1-0.6-0.4-1.2-0.7-1.8
				c-0.2-0.5-0.7-1-0.7-1.5c-0.2,0.2-0.4,0.4-0.5,0.7c0.4,1.3,1.8,2.2,2.6,3.2c0.3,0.4,0.7-0.8,0.5-1.1c-0.7-1-1.2-2.4-1.5-3.6
				c-0.2,0.2-0.4,0.5-0.6,0.7c0.3,0.8,2.6,4.4,3.7,2.1c0.2-0.5,0-1.4-0.4-0.6c-0.2,0.5-1.4-0.6-1.5-0.7c-0.5-0.5-1-1-1.2-1.7
				c-0.2-0.6-0.6,0.4-0.6,0.7c0.3,1.4,0.8,3,1.5,4.1c0.2-0.3,0.4-0.7,0.5-1.1c-0.5-0.5-1-0.9-1.4-1.4c-0.5-0.4-1-0.9-1.2-1.5
				c-0.2-0.6-0.6,0.4-0.5,0.7c0.1,0.7,0.5,1.4,0.8,2c0.2,0.4,0.4,0.9,0.5,1.3c0,0.1,0,0.2,0.1,0.3c0.2-0.2,0.1-0.3-0.1-0.2
				c-0.2,0-0.5-0.3-0.6-0.5C63.1,55.3,62.7,56.3,62.9,56.6L62.9,56.6z"/>
		</g>
		<g id="XMLID_50_">
			<path id="XMLID_51_" class="st2" d="M42.6,58.4c-0.1-0.8-0.6-1.5-1.5-0.9c-1,0.6-1.4,1.7-1.5,2.7c-0.1,0.7,0.2,1.8,1.3,1.9
				c1.1,0.1,2.2-0.6,2.9-1.1c0.5-0.4,0.2-0.8-0.4-0.4c-0.7,0.5-2.5,1.4-2.8-0.1c-0.1-0.5,0.1-1.1,0.2-1.6c0.1-0.3,0.2-0.6,0.4-0.9
				c-0.1,0.2,0.2,0.7,0.2,0.9C41.7,59.3,42.7,58.7,42.6,58.4L42.6,58.4z"/>
		</g>
		<g id="XMLID_48_">
			<path id="XMLID_49_" class="st2" d="M29.2,52.6c0.2-0.7,0.2-1.4-0.7-1.6c-1-0.2-1.8,0.4-2.4,1c-0.6,0.5-1.2,1.3-0.8,2.3
				c0.4,0.9,1.4,1.2,2.2,1.2c0.7,0,0.6-0.6-0.1-0.6c-1.2,0-0.8-1.6-0.5-2c0.2-0.3,0.5-0.6,0.8-0.9c0.1-0.1,0.2-0.2,0.3-0.2
				c0.3-0.2,0.4-0.2,0.2,0c0.1,0.3,0,0.6-0.1,0.8C27.9,52.9,29.1,53,29.2,52.6L29.2,52.6z"/>
		</g>
		<g id="XMLID_46_">
			<path id="XMLID_47_" class="st2" d="M54,57.4c0.4,1.3,0.9,2.6,1.2,3.9c0.1,0.5,0.9-0.4,0.9-0.7c-0.1-0.8-0.1-1.3,0.3-2
				c0.4-0.8,0.4-1.6,0.2-2.4c-0.1-0.6-0.7,0.2-0.7,0.5c0,0.8,0.2,1.5,0.4,2.2c0.2,0.6,0.4,1.3,0.9,1.7c0.5,0.4,1.1-0.4,1.3-0.8
				c0.4-0.8,0.5-1.8,0.3-2.6c-0.1-0.5-0.7,0.5-0.6,0.8c0,0.1,0.1,1.7-0.3,1.6c-0.3-0.1-0.5-0.7-0.6-0.9c-0.4-0.8-0.7-1.8-0.8-2.7
				c-0.2,0.2-0.4,0.4-0.7,0.5c0.1,0.9,0,1.4-0.4,2.2c-0.4,0.8-0.4,1.6-0.3,2.4c0.3-0.2,0.6-0.5,0.9-0.7c-0.3-1.3-0.8-2.6-1.3-3.9
				C54.6,56.3,53.9,57.1,54,57.4L54,57.4z"/>
		</g>
		<g id="XMLID_44_">
			<path id="XMLID_45_" class="st2" d="M43.4,58.3c-0.1,1.4-0.1,2.7-0.4,4c-0.1,0.5,0.9,0,1-0.4c0.2-0.8,0.4-1.2,0.9-1.7
				c0.6-0.6,0.8-1.3,1-2.1c0.1-0.6-0.6-0.1-0.7,0.2c-0.3,0.7-0.3,1.5-0.4,2.2c0,0.6-0.1,1.4,0.1,1.9c0.2,0.4,0.7,0.2,1,0.1
				c0.8-0.3,1.3-1.1,1.6-1.8c0.3-0.7-0.5-0.3-0.7,0.1c-0.2,0.4-0.4,1-0.9,1c-0.2,0-0.2-0.6-0.2-0.8c-0.1-1,0-2.1,0.3-3
				c-0.2,0.1-0.5,0.2-0.7,0.2c-0.2,0.8-0.5,1.3-1.1,1.9c-0.6,0.6-0.9,1.3-1.1,2.1c0.3-0.1,0.6-0.2,1-0.4c0.2-1.3,0.2-2.7,0.3-4.1
				C44.2,57.4,43.4,57.9,43.4,58.3L43.4,58.3z"/>
		</g>
		<g id="XMLID_39_">
			<g id="XMLID_42_">
				<path id="XMLID_43_" class="st2" d="M32.2,58.3c-0.4,0.9,0.5,1.6,1.4,1.3c0.9-0.3,1.4-1.1,1.7-1.9c0.2-0.6,0.5-1.6,0-2.2
					c-0.2-0.3-0.7-0.2-1-0.2c-0.6,0.1-1,0.6-1.3,1.1c-0.2,0.4,0.8,0.3,1,0c0.3-0.6,0.5-0.5,0.5,0.1c0,0.4-0.1,0.7-0.2,1.1
					c-0.1,0.4-0.3,0.8-0.5,1.1c-0.1,0.1-0.2,0.3-0.4,0.4c0.1,0,0-0.1-0.1-0.1c-0.3-0.2-0.2-0.4-0.1-0.7C33.4,57.8,32.3,58,32.2,58.3
					L32.2,58.3z"/>
			</g>
			<g id="XMLID_40_">
				<path id="XMLID_41_" class="st2" d="M33.7,54.7c-0.8,2.4-2,4.7-3.4,6.8c-0.3,0.4,0.9,0.3,1.1,0.1c1.4-2.2,2.4-4.6,3.2-7.1
					C34.8,54.1,33.9,54.3,33.7,54.7L33.7,54.7z"/>
			</g>
		</g>
		<g id="XMLID_37_">
			<path id="XMLID_38_" class="st2" d="M33,54.1c-1.3-0.4-2.5,0.6-3.1,1.7c-0.5,0.8-0.6,2.7,0.9,2.3c1.7-0.4,2.5-2.8,2.4-4.3
				c0-0.4-0.1-0.8-0.1-1.3c0-0.2,0-0.4,0-0.5c0-0.1,0.1-0.2,0.1-0.3c-0.4,0-0.4,0.1-0.1,0.3c0.5,0.5,0.9,1.3,1.7,1.3
				c0.3,0,1.1-0.6,0.6-0.6c-0.9,0-1.2-1.5-2.2-1.5c-0.8,0-1.2,0.9-1.2,1.7c0.1,0.8,0.1,1.5,0,2.4c0,0.2-1.1,2.5-1.3,2.3
				c-0.9-0.7,0.8-3.2,1.6-2.9C32.7,54.8,33.6,54.3,33,54.1L33,54.1z"/>
		</g>
		<g id="XMLID_35_">
			<path id="XMLID_36_" class="st2" d="M50.2,61.4c-0.4,0.5-0.8-1.3-0.8-1.4c-0.1-0.8-0.2-1.5-0.2-2.3c0-0.5-0.7,0.2-0.7,0.6
				c0,0.7,0,1.3,0,2c0,0.3,0,0.7-0.1,1c-0.1,0.4,0,0.5-0.4,0.3c-0.8-0.6-0.4-2.7-0.3-3.5c0.1-0.6-0.6,0-0.7,0.3
				c-0.2,0.8-0.8,4.5,0.8,4.2c2-0.3,1.4-3.6,1.3-4.9c-0.2,0.2-0.5,0.4-0.7,0.6c0,1.2,0,2.5,0.4,3.6c0.4,0.9,1.3,0.5,1.8-0.1
				C51.1,61.2,50.6,60.8,50.2,61.4L50.2,61.4z"/>
		</g>
		<g id="XMLID_30_">
			<g id="XMLID_33_">
				<path id="XMLID_34_" class="st2" d="M60,54.5c0.2,1.1,0.8,2.2,1.4,3.1c0.2,0.2,0.4,0.6,0.7,0.6c0.5,0,0.8-0.8,0.9-1.2
					c0.2-0.7-0.4-0.8-0.5-0.1c-0.1,0.5-1-0.8-1.1-1c-0.4-0.6-0.8-1.3-0.9-2.1C60.4,53.2,60,54.2,60,54.5L60,54.5z"/>
			</g>
			<g id="XMLID_31_">
				<path id="XMLID_32_" class="st2" d="M58.9,58.7c0.3-0.3,0.9-1,1.3-0.6c0.4,0.4-0.2,0.5-0.5,0.3c-0.9-0.5-1.3-2.3-1.5-3.2
					c-0.1-0.6-0.6,0.2-0.6,0.6c0.2,1,1.2,5.2,2.8,3.4c0.5-0.5,0.6-1.5,0.3-2c-0.5-0.9-1.5,0.1-1.9,0.6c-0.2,0.2-0.3,0.5-0.3,0.8
					C58.5,58.8,58.7,58.9,58.9,58.7L58.9,58.7z"/>
			</g>
		</g>
		<g id="XMLID_28_">
			<path id="XMLID_29_" class="st2" d="M54,60.8c-1,0.2-0.9-3.1-0.9-3.7c0-0.5-0.8,0.3-0.8,0.6c0,0.2-0.1,0.5-0.1,0.7
				c-0.1,0.3-0.5,0.2-0.6,0c-0.2-0.2-0.2-0.6-0.1-0.9c0.1-0.6-0.6,0-0.7,0.2c-0.2,0.3-0.3,0.6-0.5,0.9c-0.4,0.6,0.3,0.5,0.6,0.1
				c0.2-0.3,0.3-0.6,0.5-0.9c-0.2,0.1-0.5,0.1-0.7,0.2c-0.1,0.8,0.2,2.2,1.5,1.4c0.7-0.4,1-1.4,1.1-2.2c-0.3,0.2-0.6,0.4-0.9,0.6
				c0,0.7-0.3,4.2,1.2,4C53.8,61.7,54.4,60.7,54,60.8L54,60.8z"/>
		</g>
		<g id="XMLID_26_">
			<path id="XMLID_27_" class="st2" d="M53.5,61.8c0.5-0.2,0.9-0.6,1.2-0.9c0.4-0.4,0.8-0.9,1.1-1.4c0.1-0.1,0.3-0.5,0-0.6
				c-0.2-0.1-0.5,0.2-0.6,0.4c-0.2,0.3-0.4,0.7-0.7,1c-0.1,0.2-0.3,0.3-0.5,0.5c-0.1,0.1-0.2,0.1-0.2,0.1c-0.3,0.1-0.5,0.4-0.6,0.6
				C53.2,61.6,53.2,61.9,53.5,61.8L53.5,61.8z"/>
		</g>
		<g id="XMLID_21_">
			<g id="XMLID_24_">
				<path id="XMLID_25_" class="st2" d="M36.6,56.4c-0.2,0.8-2.3,3.9-0.5,4.3c2.2,0.5,3-2.7,3.4-3.9c0.2-0.5-0.9-0.1-1.1,0.2
					c-0.3,0.8-0.7,1.6-1.1,2.4c-0.2,0.3-0.4,0.9-0.8,0.5c-0.4-0.4,0.2-1.4,0.3-1.8c0.2-0.6,0.5-1.2,0.7-1.8
					C37.8,55.8,36.7,56.1,36.6,56.4L36.6,56.4z"/>
			</g>
			<g id="XMLID_22_">
				<path id="XMLID_23_" class="st2" d="M38.5,57.1c-0.3,0.9-1.6,7-2.5,6.7c-1.4-0.6,1.5-2.4,1.9-2.6c0.8-0.3,1.7-0.7,2.5-1.1
					c0.6-0.3,0.3-0.8-0.4-0.5c-1.5,0.7-3,1.2-4.3,2.2c-0.6,0.4-2.1,1.9-0.6,2.6c1.2,0.5,2.3-0.4,2.8-1.1c1.2-1.8,1.2-4.4,1.7-6.4
					C39.7,56.4,38.6,56.7,38.5,57.1L38.5,57.1z"/>
			</g>
		</g>
		<g id="XMLID_19_">
			<path id="XMLID_20_" class="st2" d="M34.6,56c0.5,0.7,1.8,0.9,2.6,0.7c0.4-0.1,0.6-0.6,0-0.5c-0.5,0.1-1.5-0.1-1.8-0.5
				C35.2,55.4,34.5,55.8,34.6,56L34.6,56z"/>
		</g>
	</g>
</g>
<g id="XMLID_3_">
	<g id="XMLID_4_">
		<g id="XMLID_15_">
			<path id="XMLID_16_" class="st2" d="M50.9,68.3c0.1,0.4,0.6,1.2,1.3,0.8c0.5-0.2,0.7-0.8,0.7-1.2c0.1-0.6,0-1.2-0.1-1.8
				c-0.1-0.5-0.3-1.1-0.2-1.6c-0.2,0.1-0.4,0.3-0.6,0.4c0,1.3,0.9,2.6,1.4,3.8c0.2,0.5,0.8-0.4,0.8-0.7c-0.3-1.1-0.5-2.6-0.4-3.8
				c-0.2,0.2-0.4,0.3-0.6,0.4c0.1,0.8,1.1,5,2.7,3.2c0.3-0.3,0.3-1.3-0.2-0.7c-0.3,0.4-1.1-1-1.2-1.1c-0.3-0.6-0.6-1.3-0.7-2
				c-0.1-0.6-0.6,0.2-0.6,0.4c-0.1,1.3-0.1,2.9,0.3,4.2c0.3-0.2,0.5-0.5,0.8-0.7c-0.3-0.6-0.6-1.2-0.9-1.8c-0.3-0.5-0.6-1.2-0.6-1.8
				c0-0.6-0.5,0.1-0.6,0.4c-0.1,0.6,0.1,1.4,0.1,2c0.1,0.4,0.1,0.9,0.1,1.3c0,0.1,0,0.2,0,0.3c0.2-0.1,0.2-0.2-0.1-0.2
				c-0.2-0.1-0.3-0.5-0.4-0.7C51.5,67.2,50.8,68,50.9,68.3L50.9,68.3z"/>
		</g>
		<g id="XMLID_13_">
			<path id="XMLID_14_" class="st2" d="M41.2,65.2c0-0.9-0.3-1.4-1.3-0.9c-1,0.5-1.6,1.7-1.9,2.6c-0.7,2.4,2.9,1.5,3.8,0.4
				c0.1-0.2,0-0.3-0.2-0.3c-0.3,0-0.5,0.2-0.7,0.4c-0.7,0.8-1.9,0.4-1.8-0.6c0-0.4,0.3-0.9,0.5-1.3c0.1-0.3,0.3-0.6,0.6-0.8
				c-0.1,0.1,0,0.7,0,0.9C40.2,65.9,41.1,65.5,41.2,65.2L41.2,65.2z"/>
		</g>
		<g id="XMLID_11_">
			<path id="XMLID_12_" class="st2" d="M43.1,64.8c-1-0.1-1.6,1-1.9,1.8c-0.3,0.6-0.8,2.3,0.3,2.6c1.2,0.3,2-1,2.3-1.8
				C44,66.8,44.1,65.1,43.1,64.8c-0.3-0.1-1,0.6-0.7,0.7c0.5,0.1,0.5,0.9,0.5,1.3c0,0.3-0.1,0.7-0.2,1c0,0.1-0.1,0.3-0.2,0.4
				c-0.1,0.1-0.3,0.3-0.1,0.3c-0.6,0.1-0.6-1.1-0.5-1.3c0-0.3,0.1-0.7,0.3-1c0.1-0.2,0.2-0.3,0.2-0.5c0.1-0.2,0.2-0.2,0.1-0.2
				C42.8,65.6,43.6,64.8,43.1,64.8z"/>
		</g>
		<g id="XMLID_9_">
			<path id="XMLID_10_" class="st2" d="M49.1,64.9c-1.1,0.2-1.3,1.5-1.4,2.3c-0.1,0.7,0,2.5,1.2,2.4c1.4-0.1,1.7-1.6,1.7-2.4
				C50.6,66.6,50.3,64.9,49.1,64.9c-0.3,0-0.8,0.9-0.5,0.9c0.6,0,0.8,0.7,1,1.1c0.1,0.3,0.1,0.7,0.1,1c0,0.1,0,0.3,0,0.4
				c0,0.1-0.2,0.4,0,0.3c-0.6,0.3-0.9-0.9-1-1.1c-0.1-0.3-0.1-0.7-0.1-1c0-0.2,0-0.4,0.1-0.6c0-0.2,0.1-0.2,0-0.2
				C49.1,65.8,49.6,64.8,49.1,64.9z"/>
		</g>
		<g id="XMLID_7_">
			<path id="XMLID_8_" class="st2" d="M44.7,65.2c0.2,1.5-0.2,2.9-0.4,4.4c-0.1,0.5,1-0.1,1-0.4c0.1-0.7,0.3-1.3,0.5-2
				c0.1-0.4,0.3-1.4,0.8-1c0.2-0.2,0.5-0.5,0.7-0.7c-1.4-0.9-2.2,1.4-2.5,2.4c-0.1,0.2,0.3,0.2,0.4,0.2c1.1-0.3,0.5,1.3,1,1.7
				c0.6,0.4,1.7-0.5,2.1-0.9c0.5-0.5,0.1-0.8-0.4-0.3c-0.5,0.5-0.9,0.7-1,0c-0.1-0.3-0.1-0.6-0.2-0.9c-0.2-0.6-0.9-0.4-1.3-0.2
				c0.1,0,0.3,0.1,0.4,0.1c0.1-0.4,0.3-1.7,0.9-1.3c0.3,0.2,1-0.6,0.7-0.7c-1.9-1.3-2.8,3.1-3,4.1c0.4-0.1,0.7-0.2,1-0.4
				c0.2-1.6,0.4-3,0.2-4.6C45.5,64.3,44.7,64.8,44.7,65.2L44.7,65.2z"/>
		</g>
		<g id="XMLID_5_">
			<path id="XMLID_6_" class="st2" d="M42.8,65.4c0.5,0.5,1.7,0.4,2.4,0.1c0.4-0.2,0.4-0.7-0.1-0.4c-0.4,0.2-1.3,0.2-1.6-0.1
				C43.2,64.7,42.6,65.3,42.8,65.4L42.8,65.4z"/>
		</g>
	</g>
</g>
<polygon id="XMLID_1_" class="st2" points="15.4,74.7 14.9,75.7 13.9,75.9 14.3,75.1 "/>
</svg>
