<?xml version="1.0" encoding="utf-8"?>
<!-- Generator: Adobe Illustrator 19.0.0, SVG Export Plug-In . SVG Version: 6.00 Build 0)  -->
<svg version="1.1" id="Layer_1" xmlns="http://www.w3.org/2000/svg" xmlns:xlink="http://www.w3.org/1999/xlink" x="0px" y="0px"
	 viewBox="-142 311.9 311 218" style="enable-background:new -142 311.9 311 218;" xml:space="preserve">
<style type="text/css">
	.st0{fill:#519E38;}
	.st1{fill:#F9BD82;}
	.st2{fill:#FFD6A8;}
	.st3{fill:#F7F3A4;}
	.st4{fill:#D98A5A;}
	.st5{fill:#40AE77;}
	.st6{fill:#FFFFFF;}
	.st7{fill:url(#SVGID_1_);}
	.st8{fill:url(#SVGID_2_);}
	.st9{fill:url(#SVGID_3_);}
	.st10{fill:url(#SVGID_4_);}
	.st11{fill:url(#SVGID_5_);}
</style>
<path class="st0" d="M-25.5,384.8c-0.3-9.2-13.5-16.7-29.7-16.7c-16.3,0-29.5,7.4-29.7,16.7l0,0v10.1l0,0
	c0.6,9.1,13.7,16.3,29.7,16.3s29.1-7.2,29.7-16.3l0,0V384.8L-25.5,384.8z"/>
<path class="st0" d="M52.6,384.8c-0.3-9.2-13.5-16.7-29.7-16.7c-16.3,0-29.5,7.4-29.7,16.7l0,0v10.1l0,0
	c0.6,9.1,13.7,16.3,29.7,16.3S52,404,52.6,394.9l0,0V384.8L52.6,384.8z"/>
<path class="st0" d="M127.9,384.8c-0.3-9.2-13.5-16.7-29.7-16.7c-16.3,0-29.5,7.4-29.7,16.7l0,0v10.1l0,0
	c0.6,9.1,13.7,16.3,29.7,16.3s29.1-7.2,29.7-16.3l0,0V384.8L127.9,384.8z"/>
<path class="st0" d="M-25.5,451c-0.3-9.2-13.5-16.7-29.7-16.7c-16.3,0-29.5,7.4-29.7,16.7l0,0v10.1l0,0c0.6,9.1,13.7,16.3,29.7,16.3
	s29.1-7.2,29.7-16.3l0,0V451L-25.5,451z"/>
<path class="st0" d="M52.6,451c-0.3-9.2-13.5-16.7-29.7-16.7c-16.3,0-29.5,7.4-29.7,16.7l0,0v10.1l0,0c0.6,9.1,13.7,16.3,29.7,16.3
	s29.1-7.2,29.7-16.3l0,0V451L52.6,451z"/>
<path class="st0" d="M127.9,451c-0.3-9.2-13.5-16.7-29.7-16.7c-16.3,0-29.5,7.4-29.7,16.7l0,0v10.1l0,0c0.6,9.1,13.7,16.3,29.7,16.3
	s29.1-7.2,29.7-16.3l0,0V451L127.9,451z"/>
<ellipse class="st1" cx="-60.5" cy="455.9" rx="29.7" ry="17"/>
<rect x="-90.3" y="446.4" class="st1" width="59.5" height="10.1"/>
<ellipse class="st2" cx="-60.5" cy="446.7" rx="29.7" ry="17"/>
<ellipse class="st1" cx="18.5" cy="455.9" rx="29.7" ry="17"/>
<rect x="-11.3" y="446.4" class="st1" width="59.5" height="10.1"/>
<ellipse class="st2" cx="18.5" cy="446.7" rx="29.7" ry="17"/>
<ellipse class="st1" cx="92.6" cy="455.9" rx="29.7" ry="17"/>
<rect x="62.9" y="446.4" class="st1" width="59.5" height="10.1"/>
<ellipse class="st2" cx="92.6" cy="446.7" rx="29.7" ry="17"/>
<ellipse class="st1" cx="-60.5" cy="389.7" rx="29.7" ry="17"/>
<rect x="-90.3" y="380.2" class="st1" width="59.5" height="10.1"/>
<ellipse class="st2" cx="-60.5" cy="380.5" rx="29.7" ry="17"/>
<ellipse class="st1" cx="18.5" cy="389.7" rx="29.7" ry="17"/>
<rect x="-11.3" y="380.2" class="st1" width="59.5" height="10.1"/>
<ellipse class="st2" cx="18.5" cy="380.5" rx="29.7" ry="17"/>
<ellipse class="st1" cx="92.6" cy="389.7" rx="29.7" ry="17"/>
<rect x="62.9" y="380.2" class="st1" width="59.5" height="10.1"/>
<ellipse class="st2" cx="92.6" cy="380.5" rx="29.7" ry="17"/>
<polygon class="st3" points="92.6,367.3 99.4,373.3 88.7,378.1 "/>
<polygon class="st3" points="-77.7,370.3 -70.9,376.3 -81.6,381.1 "/>
<polygon class="st3" points="-60.8,379.5 -65.7,371.9 -54,370.1 "/>
<polygon class="st3" points="8.8,370.3 15.6,376.3 4.9,381.1 "/>
<polygon class="st3" points="33.3,379.3 40.1,385.3 29.4,390.1 "/>
<polygon class="st4" points="76.9,384.7 78,375.7 88,381.8 "/>
<polygon class="st4" points="8.4,389.2 9.5,380.2 19.5,386.3 "/>
<polygon class="st4" points="-51.3,389.2 -50.3,380.2 -40.2,386.3 "/>
<polygon class="st5" points="104.4,374.5 112.4,378.8 103.1,385.9 "/>
<polygon class="st5" points="24.1,369.7 32.1,374 22.8,381.1 "/>
<polygon class="st3" points="-47.9,456.3 -54.7,450.4 -44,445.5 "/>
<polygon class="st3" points="-72.4,447.3 -79.2,441.3 -68.5,436.5 "/>
<polygon class="st4" points="-47.6,437.4 -48.6,446.4 -58.7,440.4 "/>
<polygon class="st5" points="-63.2,456.9 -71.3,452.7 -61.9,445.5 "/>
<polygon class="st5" points="-68.6,379.6 -60.5,383.8 -69.9,391 "/>
<polygon class="st3" points="109.4,457.6 102.6,451.6 113.3,446.8 "/>
<polygon class="st3" points="92.5,448.4 97.4,456 85.7,457.7 "/>
<polygon class="st4" points="83,438.7 82,447.7 71.9,441.6 "/>
<polygon class="st5" points="100.3,448.3 92.2,444.1 101.6,436.9 "/>
<polygon class="st5" points="96.9,387.1 92.1,394.8 85.6,385.1 "/>
<polygon class="st3" points="20.3,460.4 13.5,454.4 24.2,449.6 "/>
<polygon class="st4" points="36,443 35,452 24.9,445.9 "/>
<polygon class="st5" points="8.5,453.2 0.5,448.9 9.8,441.7 "/>
<polygon class="st5" points="16,440.6 20.8,432.9 27.4,442.6 "/>
<g id="snow">
	<g>
		<circle class="st6" cx="125.7" cy="382.4" r="1.5"/>
		<g>
			
				<linearGradient id="SVGID_1_" gradientUnits="userSpaceOnUse" x1="100.3712" y1="499.8699" x2="116.3587" y2="454.5721" gradientTransform="matrix(1 0 0 -1 0 841.67)">
				<stop  offset="0" style="stop-color:#404B71"/>
				<stop  offset="0.6044" style="stop-color:#3C476E"/>
				<stop  offset="1" style="stop-color:#354169"/>
			</linearGradient>
			<path class="st7" d="M103.8,382.8l-1.7-6.4l1.6-2.7l0.2,0.8c0.2,0.8,1.1,1.3,1.9,1.1c0.1,0,0.3-0.1,0.4-0.2
				c0.6-0.3,0.9-1.1,0.7-1.8l-1-3.9l1.9-3.3l1.9,3.3l-1,3.9c-0.2,0.8,0.3,1.7,1.1,1.9c0.4,0.1,0.9,0,1.2-0.2c0.4-0.2,0.6-0.5,0.7-1
				l0.2-0.8l1.6,2.7l-1.7,6.4c-0.2,0.8,0.3,1.7,1.1,1.9c0.4,0.1,0.9,0,1.2-0.2c0.4-0.2,0.6-0.5,0.7-1l0.9-3.3l2.5,4.4
				c0.4,0.8,1.4,1,2.2,0.6c0.8-0.4,1-1.4,0.6-2.2l-2.5-4.4l3.3,0.9c0.4,0.1,0.9,0,1.2-0.2c0.4-0.2,0.6-0.5,0.7-1
				c0.2-0.8-0.3-1.7-1.1-1.9l-6.4-1.7l-1.6-2.7l0.8,0.2c0.4,0.1,0.9,0,1.2-0.2c0.4-0.2,0.6-0.5,0.7-1c0.2-0.8-0.3-1.7-1.1-1.9
				l-3.8-1l-1.9-3.3h3.8l2.8,2.8c0.5,0.5,1.3,0.6,1.9,0.3c0.1-0.1,0.2-0.2,0.3-0.3c0.6-0.6,0.6-1.6,0-2.2l-0.6-0.6h3.1l4.7,4.7
				c0.5,0.5,1.3,0.6,1.9,0.3c0.1-0.1,0.2-0.2,0.3-0.3c0.6-0.6,0.6-1.6,0-2.2l-2.4-2.4h5c0.3,0,0.6-0.1,0.8-0.2
				c0.5-0.3,0.8-0.8,0.8-1.4c0-0.9-0.7-1.6-1.6-1.6h-5l2.4-2.4c0.6-0.6,0.6-1.6,0-2.2c-0.6-0.6-1.6-0.6-2.2,0l-4.7,4.7h-3.1l0.6-0.6
				c0.6-0.6,0.6-1.6,0-2.2s-1.6-0.6-2.2,0l-2.8,2.8h-3.8l1.9-3.3l3.9-1c0.1,0,0.3-0.1,0.4-0.2c0.6-0.3,0.9-1.1,0.7-1.8
				c-0.2-0.8-1.1-1.3-1.9-1.1l-0.8,0.2l1.6-2.7l6.4-1.7c0.1,0,0.3-0.1,0.4-0.2c0.6-0.4,0.9-1.1,0.7-1.8c-0.2-0.8-1.1-1.3-1.9-1.1
				l-3.3,0.9l2.5-4.4c0.4-0.8,0.2-1.7-0.6-2.2c-0.8-0.4-1.7-0.2-2.2,0.6l-2.5,4.4l-0.9-3.3c-0.2-0.8-1.1-1.3-1.9-1.1
				c-0.8,0.2-1.4,1.1-1.1,1.9l1.7,6.4l-1.6,2.7l-0.2-0.8c-0.2-0.8-1.1-1.3-1.9-1.1c-0.8,0.2-1.3,1.1-1.1,1.9l1,3.9l-1.9,3.3
				l-1.9-3.3l1-3.9c0.2-0.8-0.3-1.7-1.1-1.9c-0.8-0.2-1.7,0.3-1.9,1.1l-0.2,0.8l-1.6-2.7l1.7-6.4c0.2-0.8-0.3-1.7-1.1-1.9
				c-0.8-0.2-1.7,0.3-1.9,1.1l-0.9,3.3l-2.5-4.4c-0.4-0.8-1.4-1-2.2-0.6s-1,1.4-0.6,2.2l2.5,4.4l-3.3-0.9c-0.8-0.2-1.7,0.3-1.9,1.1
				c-0.2,0.8,0.3,1.7,1.1,1.9l6.4,1.7l1.6,2.7l-0.8-0.2c-0.8-0.2-1.7,0.3-1.9,1.1c-0.2,0.8,0.3,1.7,1.1,1.9l3.8,1l1.9,3.3h-3.8
				l-2.8-2.8c-0.6-0.6-1.6-0.6-2.2,0c-0.6,0.6-0.6,1.6,0,2.2l0.6,0.6h-3.1l-4.7-4.7c-0.6-0.6-1.6-0.6-2.2,0c-0.6,0.6-0.6,1.6,0,2.2
				l2.4,2.4h-5c-0.9,0-1.6,0.7-1.6,1.6s0.7,1.6,1.6,1.6h5l-2.4,2.4c-0.6,0.6-0.6,1.6,0,2.2c0.5,0.5,1.3,0.6,1.9,0.3
				c0.1-0.1,0.2-0.2,0.3-0.3l4.7-4.7H97l-0.6,0.6c-0.6,0.6-0.6,1.6,0,2.2c0.5,0.5,1.3,0.6,1.9,0.3c0.1-0.1,0.2-0.2,0.3-0.3l2.8-2.8
				h3.8l-1.9,3.3l-3.9,1c-0.8,0.2-1.3,1.1-1.1,1.9c0.2,0.8,1.1,1.3,1.9,1.1l0.8-0.2l-1.6,2.7l-6.4,1.7c-0.8,0.2-1.3,1.1-1.1,1.9
				c0.2,0.8,1.1,1.3,1.9,1.1l3.3-0.9l-2.5,4.4c-0.4,0.8-0.2,1.7,0.6,2.2c0.5,0.3,1.1,0.3,1.6,0c0.2-0.1,0.4-0.3,0.6-0.6l2.5-4.4
				l0.9,3.3c0.2,0.8,1.1,1.3,1.9,1.1c0.1,0,0.3-0.1,0.4-0.2C103.6,384.3,104,383.5,103.8,382.8z"/>
			
				<linearGradient id="SVGID_2_" gradientUnits="userSpaceOnUse" x1="-18.3739" y1="436.006" x2="-13.5401" y2="422.3102" gradientTransform="matrix(1 0 0 -1 0 841.67)">
				<stop  offset="0" style="stop-color:#404B71"/>
				<stop  offset="0.6044" style="stop-color:#3C476E"/>
				<stop  offset="1" style="stop-color:#354169"/>
			</linearGradient>
			<path class="st8" d="M-17.3,418.1l-0.5-1.9l0.5-0.8l0.1,0.2c0.1,0.3,0.3,0.4,0.6,0.3h0.1c0.2-0.1,0.3-0.3,0.2-0.5l-0.3-1.2l0.6-1
				l0.6,1l-0.3,1.2c-0.1,0.3,0.1,0.5,0.3,0.6c0.1,0,0.3,0,0.4,0c0.1-0.1,0.2-0.2,0.2-0.3l0.1-0.2l0.5,0.8l-0.5,1.9
				c-0.1,0.3,0.1,0.5,0.3,0.6c0.1,0,0.3,0,0.4,0c0.1-0.1,0.2-0.2,0.2-0.3l0.3-1l0.8,1.3c0.1,0.2,0.4,0.3,0.7,0.2
				c0.2-0.1,0.3-0.4,0.2-0.7l-0.8-1.3l1,0.3c0.1,0,0.3,0,0.4,0c0.1-0.1,0.2-0.2,0.2-0.3c0.1-0.3-0.1-0.5-0.3-0.6l-1.9-0.5l-0.5-0.8
				l0.2,0.1c0.1,0,0.3,0,0.4,0c0.1-0.1,0.2-0.2,0.2-0.3c0.1-0.3-0.1-0.5-0.3-0.6l-1.2-0.3l-0.6-1h1.2l0.9,0.9
				c0.2,0.2,0.4,0.2,0.6,0.1c0,0,0.1,0,0.1-0.1c0.2-0.2,0.2-0.5,0-0.7l-0.2-0.2h0.9l1.4,1.4c0.2,0.2,0.4,0.2,0.6,0.1
				c0,0,0.1,0,0.1-0.1c0.2-0.2,0.2-0.5,0-0.7l-0.7-0.7h1.5c0.1,0,0.2,0,0.2-0.1c0.1-0.1,0.2-0.2,0.2-0.4c0-0.3-0.2-0.5-0.5-0.5h-1.5
				l0.7-0.7c0.2-0.2,0.2-0.5,0-0.7c-0.2-0.2-0.5-0.2-0.7,0l-1.4,1.4h-0.9l0.2-0.2c0.2-0.2,0.2-0.5,0-0.7c-0.2-0.2-0.5-0.2-0.7,0
				l-0.9,0.9h-1.2l0.6-1l1.2-0.3h0.1c0.2-0.1,0.3-0.3,0.2-0.5c-0.1-0.3-0.3-0.4-0.6-0.3l-0.2,0.1l0.5-0.8l1.9-0.5h0.1
				c0.2-0.1,0.3-0.3,0.2-0.5c-0.1-0.3-0.3-0.4-0.6-0.3l-1,0.3l0.8-1.3c0.1-0.2,0.1-0.5-0.2-0.7c-0.2-0.1-0.5-0.1-0.7,0.2l-0.8,1.3
				l-0.3-1c-0.1-0.3-0.3-0.4-0.6-0.3c-0.3,0.1-0.4,0.3-0.3,0.6l0.5,1.9l-0.5,0.8l-0.1-0.2c-0.1-0.3-0.3-0.4-0.6-0.3
				c-0.3,0.1-0.4,0.3-0.3,0.6l0.3,1.2l-0.6,1l-0.6-1l0.3-1.2c0.1-0.3-0.1-0.5-0.3-0.6c-0.3-0.1-0.5,0.1-0.6,0.3l-0.1,0.2l-0.5-0.8
				l0.5-1.9c0.1-0.3-0.1-0.5-0.3-0.6c-0.3-0.1-0.5,0.1-0.6,0.3l-0.3,1l-0.8-1.3c-0.1-0.2-0.4-0.3-0.7-0.2c-0.2,0.1-0.3,0.4-0.2,0.7
				l0.8,1.3l-1-0.3c-0.3-0.1-0.5,0.1-0.6,0.3c-0.1,0.3,0.1,0.5,0.3,0.6l1.9,0.5l0.5,0.8l-0.2-0.1c-0.3-0.1-0.5,0.1-0.6,0.3
				c-0.1,0.3,0.1,0.5,0.3,0.6l1.2,0.3l0.6,1h-1.2l-0.7-1.3c-0.2-0.2-0.5-0.2-0.7,0c-0.2,0.2-0.2,0.5,0,0.7l0.2,0.2h-0.9l-1.4-1.4
				c-0.2-0.2-0.5-0.2-0.7,0c-0.2,0.2-0.2,0.5,0,0.7l0.7,0.7h-1.5c-0.3,0-0.5,0.2-0.5,0.5c0,0.3,0.2,0.5,0.5,0.5h1.5l-0.7,0.7
				c-0.2,0.2-0.2,0.5,0,0.7c0.2,0.2,0.4,0.2,0.6,0.1c0,0,0.1,0,0.1-0.1l1.4-1.4h0.9l-0.2,0.2c-0.2,0.2-0.2,0.5,0,0.7
				c0.2,0.2,0.4,0.2,0.6,0.1c0,0,0.1,0,0.1-0.1l0.9-0.9h1.2l-0.6,1l-1.2,0.3c-0.3,0.1-0.4,0.3-0.3,0.6c0.1,0.3,0.3,0.4,0.6,0.3
				l0.2-0.1l-0.5,0.8l-1.9,0.5c-0.3,0.1-0.4,0.3-0.3,0.6c0.1,0.3,0.3,0.4,0.6,0.3l1-0.3l-0.8,1.3c-0.1,0.2-0.1,0.5,0.2,0.7
				c0.2,0.1,0.3,0.1,0.5,0c0.1,0,0.1-0.1,0.2-0.2l0.8-1.3l0.3,1c0.1,0.3,0.3,0.4,0.6,0.3h0.1C-17.4,418.5-17.3,418.3-17.3,418.1z"/>
			
				<linearGradient id="SVGID_3_" gradientUnits="userSpaceOnUse" x1="-83.5258" y1="411.3531" x2="-73.1055" y2="381.829" gradientTransform="matrix(1 0 0 -1 0 841.67)">
				<stop  offset="0" style="stop-color:#404B71"/>
				<stop  offset="0.6044" style="stop-color:#3C476E"/>
				<stop  offset="1" style="stop-color:#354169"/>
			</linearGradient>
			<path class="st9" d="M-81,456.9l-1.1-4.2l1-1.8l0.1,0.5c0.1,0.6,0.7,0.9,1.3,0.7c0.1,0,0.2-0.1,0.2-0.1c0.4-0.2,0.6-0.7,0.5-1.2
				l-0.7-2.5l1.2-2.2l1.2,2.2l-0.7,2.5c-0.1,0.6,0.2,1.1,0.7,1.3c0.3,0.1,0.6,0,0.8-0.1c0.2-0.1,0.4-0.4,0.5-0.6l0.1-0.5l1,1.8
				l-1.1,4.2c-0.1,0.6,0.2,1.1,0.7,1.3c0.3,0.1,0.6,0,0.8-0.1c0.2-0.1,0.4-0.4,0.5-0.6l0.6-2.2l1.6,2.8c0.3,0.5,0.9,0.7,1.4,0.4
				c0.5-0.3,0.7-0.9,0.4-1.4l-1.6-2.8l2.2,0.6c0.3,0.1,0.6,0,0.8-0.1c0.2-0.1,0.4-0.4,0.5-0.6c0.1-0.6-0.2-1.1-0.7-1.3l-4.2-1.1
				l-1-1.8l0.5,0.1c0.3,0.1,0.6,0,0.8-0.1c0.2-0.1,0.4-0.4,0.5-0.6c0.1-0.6-0.2-1.1-0.7-1.3l-2.5-0.7l-1.2-2.2h2.5l1.8,1.8
				c0.3,0.3,0.9,0.4,1.2,0.2c0.1,0,0.1-0.1,0.2-0.2c0.4-0.4,0.4-1.1,0-1.5l-0.4-0.4h2l3,3c0.3,0.3,0.9,0.4,1.2,0.2
				c0.1,0,0.1-0.1,0.2-0.2c0.4-0.4,0.4-1.1,0-1.5l-1.6-1.6h3.3c0.2,0,0.4,0,0.5-0.1c0.3-0.2,0.5-0.5,0.5-0.9c0-0.6-0.5-1-1-1h-3.3
				l1.6-1.6c0.4-0.4,0.4-1.1,0-1.5s-1.1-0.4-1.5,0l-3,3h-2l0.4-0.4c0.4-0.4,0.4-1.1,0-1.5s-1.1-0.4-1.5,0l-1.8,1.8h-2.5l1.2-2.2
				l2.5-0.7c0.1,0,0.2-0.1,0.2-0.1c0.4-0.2,0.6-0.7,0.5-1.2c-0.1-0.6-0.7-0.9-1.3-0.7l-0.5,0.1l1-1.8l4.2-1.1c0.1,0,0.2-0.1,0.2-0.1
				c0.4-0.2,0.6-0.7,0.5-1.2c-0.1-0.6-0.7-0.9-1.3-0.7l-2.2,0.6l1.6-2.8c0.3-0.5,0.1-1.1-0.4-1.4c-0.5-0.3-1.1-0.1-1.4,0.4l-1.6,2.8
				l-0.6-2.2c-0.1-0.6-0.7-0.9-1.3-0.7c-0.5,0.1-0.9,0.7-0.7,1.3l1.1,4.2l-1,1.8l-0.1-0.5c-0.1-0.6-0.7-0.9-1.3-0.7
				c-0.6,0.2-0.9,0.7-0.7,1.3l0.7,2.5l-1.2,2.2l-1.2-2.2l0.7-2.5c0.1-0.6-0.2-1.1-0.7-1.3c-0.6-0.1-1.1,0.2-1.3,0.7l-0.1,0.5l-1-1.8
				l1.1-4.2c0.1-0.6-0.2-1.1-0.7-1.3c-0.6-0.1-1.1,0.2-1.3,0.7l-0.6,2.2l-1.6-2.8c-0.3-0.5-0.9-0.7-1.4-0.4s-0.7,0.9-0.4,1.4
				l1.6,2.8l-2.2-0.6c-0.6-0.1-1.1,0.2-1.3,0.7c-0.1,0.6,0.2,1.1,0.7,1.3l4.2,1.1l1,1.8l-0.5-0.1c-0.6-0.1-1.1,0.2-1.3,0.7
				c-0.1,0.6,0.2,1.1,0.7,1.3l2.5,0.7l1.2,2.2h-2.5l-1.8-1.8c-0.4-0.4-1.1-0.4-1.5,0c-0.4,0.4-0.4,1.1,0,1.5l0.4,0.4h-2l-3-3
				c-0.4-0.4-1.1-0.4-1.5,0c-0.4,0.4-0.4,1.1,0,1.5l1.6,1.6h-3.3c-0.6,0-1,0.5-1,1c0,0.6,0.5,1,1,1h3.3l-1.6,1.6
				c-0.4,0.4-0.4,1.1,0,1.5c0.3,0.3,0.9,0.4,1.2,0.2c0.1,0,0.1-0.1,0.2-0.2l3-3h2l-0.4,0.4c-0.4,0.4-0.4,1.1,0,1.5
				c0.3,0.3,0.9,0.4,1.2,0.2c0.1,0,0.2-0.1,0.2-0.2l1.8-1.8h2.5l-1.2,2.2l-2.5,0.7c-0.5,0.2-0.9,0.7-0.7,1.3
				c0.1,0.6,0.7,0.9,1.3,0.7l0.5-0.1l-1,1.8l-3.6,1.1c-0.5,0.2-0.9,0.7-0.7,1.3c0.1,0.6,0.7,0.9,1.3,0.7l2.2-0.6l-1.6,2.8
				c-0.3,0.5-0.1,1.1,0.4,1.4c0.3,0.2,0.7,0.2,1,0c0.2-0.1,0.3-0.2,0.4-0.4l1.6-2.8l0.6,2.2c0.1,0.6,0.7,0.9,1.3,0.7
				c0.1,0,0.2-0.1,0.3-0.1C-81.1,457.9-80.9,457.4-81,456.9z"/>
			
				<linearGradient id="SVGID_4_" gradientUnits="userSpaceOnUse" x1="33.6476" y1="408.9969" x2="62.7459" y2="340.8948" gradientTransform="matrix(1 0 0 -1 0 841.67)">
				<stop  offset="0" style="stop-color:#404B71"/>
				<stop  offset="0.6044" style="stop-color:#3C476E"/>
				<stop  offset="1" style="stop-color:#354169"/>
			</linearGradient>
			<path class="st10" d="M81.2,463.2h-6.3l3-3c0.8-0.8,0.8-2,0-2.8c-0.8-0.8-2-0.8-2.8,0l-5.9,5.9h-3.9l1.7-1.7c0.8-0.8,0.8-2,0-2.8
				c-0.8-0.8-2-0.8-2.8,0l-4.6,4.6h-3.8l0.1-0.1c0.8-0.8,0.8-2,0.1-2.7c-0.3-1-1.4-1.6-2.4-1.3h-0.2l1.9-3.3l6.2-1.7
				c0.2,0,0.3-0.1,0.5-0.2c0.8-0.4,1.2-1.4,0.9-2.2c-0.3-1.1-1.4-1.7-2.4-1.4l-2.4,0.6l2-3.4l8-2.1c0.2,0,0.3-0.1,0.5-0.2
				c0.8-0.4,1.2-1.4,0.9-2.2c-0.3-1.1-1.4-1.7-2.4-1.4l-4.2,1.1l3.2-5.5c0.6-1,0.2-2.2-0.7-2.7c-1-0.5-2.2-0.2-2.7,0.7l-3.2,5.5
				l-1.1-4.2c-0.3-1.1-1.4-1.7-2.4-1.4c-1.1,0.3-1.7,1.4-1.4,2.4l2.1,8l-2,3.4l-0.6-2.4c-0.3-1.1-1.4-1.7-2.4-1.4
				c-1.1,0.3-1.7,1.4-1.4,2.4l1.7,6.2l-1.9,3.3V457c-0.3-1-1.3-1.7-2.4-1.4c-1-0.2-2.1,0.4-2.3,1.4v0.2l-1.9-3.3l1.7-6.2
				c0.3-1.1-0.3-2.2-1.4-2.4c-1.1-0.3-2.2,0.3-2.4,1.4l-0.6,2.4l-2-3.4l2.1-8c0.3-1.1-0.3-2.2-1.4-2.4c-1.1-0.3-2.2,0.3-2.4,1.4
				l-1.1,4.2l-3.2-5.5c-0.5-1-1.8-1.3-2.7-0.7c-1,0.5-1.3,1.8-0.7,2.7l3.2,5.5l-4.2-1.1c-1.1-0.3-2.2,0.3-2.4,1.4
				c-0.3,1.1,0.3,2.2,1.4,2.4l8,2.1l2,3.4l-2.4-0.6c-1.1-0.3-2.2,0.3-2.4,1.4c-0.3,1.1,0.3,2.2,1.4,2.4l6.2,1.7l1.9,3.3h-0.2
				c-1-0.3-2,0.3-2.4,1.3c-0.8,0.8-0.8,2,0,2.8l0.1,0.1h-3.8l-4.6-4.6c-0.8-0.8-2-0.8-2.8,0c-0.8,0.8-0.8,2,0,2.8l1.7,1.7h-3.9
				l-5.9-5.9c-0.8-0.8-2-0.8-2.8,0c-0.8,0.8-0.8,2,0,2.8l3,3H14c-1.1,0-2,0.9-2,2s0.9,2,2,2h6.3l-3,3c-0.8,0.8-0.8,2,0,2.8
				c0.7,0.7,1.6,0.8,2.4,0.3c0.1-0.1,0.3-0.2,0.4-0.3l5.9-5.9h3.9l-1.7,1.7c-0.8,0.8-0.8,2,0,2.8c0.7,0.7,1.6,0.8,2.4,0.3
				c0.1-0.1,0.3-0.2,0.4-0.3l4.6-4.6h3.8l-0.1,0.1c-0.8,0.8-0.8,2-0.1,2.7c0.3,1,1.4,1.6,2.4,1.3h0.2l-1.9,3.3l-6.2,1.7
				c-1.1,0.3-1.7,1.4-1.4,2.4c0.3,1.1,1.4,1.7,2.4,1.4l2.4-0.6l-2,3.4l-8,2.1c-1.1,0.3-1.7,1.4-1.4,2.4c0.3,1.1,1.4,1.7,2.4,1.4
				l4.2-1.1l-3.2,5.5c-0.5,1-0.2,2.2,0.7,2.7c0.6,0.4,1.4,0.3,2,0c0.3-0.2,0.5-0.4,0.7-0.7l3.2-5.5l1.1,4.2c0.3,1.1,1.4,1.7,2.4,1.4
				c0.2,0,0.3-0.1,0.5-0.2c0.8-0.4,1.2-1.3,0.9-2.2l-2.1-8l2-3.4l0.6,2.4c0.3,1.1,1.4,1.7,2.4,1.4c0.2,0,0.3-0.1,0.5-0.2
				c0.8-0.4,1.2-1.3,0.9-2.2l-1.7-6.2l1.9-3.3v0.2c0.3,1,1.3,1.7,2.4,1.4c0.5,0.1,1,0,1.4-0.2c0.4-0.3,0.8-0.7,0.9-1.2v-0.2l1.9,3.3
				l-1.7,6.2c-0.3,1.1,0.3,2.2,1.4,2.4c0.5,0.1,1.1,0.1,1.5-0.2c0.4-0.3,0.8-0.7,0.9-1.2l0.6-2.4l2,3.4l-2.1,8
				c-0.3,1.1,0.3,2.2,1.4,2.4c0.5,0.1,1.1,0.1,1.5-0.2c0.4-0.3,0.8-0.7,0.9-1.2l1.1-4.2l3.2,5.5c0.5,1,1.8,1.3,2.7,0.7
				c1-0.6,1.3-1.8,0.7-2.7l-3.2-5.5l4.2,1.1c0.5,0.1,1.1,0.1,1.5-0.2c0.4-0.3,0.8-0.7,0.9-1.2c0.3-1.1-0.3-2.2-1.4-2.4l-8-2.1
				l-2-3.4l2.4,0.6c0.5,0.1,1.1,0.1,1.5-0.2c0.4-0.3,0.8-0.7,0.9-1.2c0.3-1.1-0.3-2.2-1.4-2.4l-6.2-1.7l-1.9-3.3h0.2
				c0.5,0.1,1.1,0.1,1.5-0.2c0.4-0.2,0.7-0.6,0.9-1.1c0.8-0.8,0.8-2,0-2.8l-0.1-0.1h3.8l4.6,4.6c0.7,0.7,1.6,0.8,2.4,0.3
				c0.1-0.1,0.3-0.2,0.4-0.3c0.8-0.8,0.8-2,0-2.8l-1.7-1.7H69l5.9,5.9c0.7,0.7,1.6,0.8,2.4,0.3c0.1-0.1,0.3-0.2,0.4-0.3
				c0.8-0.8,0.8-2,0-2.8l-3-3H81c0.4,0,0.7-0.1,1-0.3c0.6-0.3,1-1,1-1.7C83.2,464.1,82.3,463.2,81.2,463.2z M48.9,467.4
				c-1.2,0.7-2.8,0.3-3.5-0.9c-0.7-1.2-0.3-2.8,0.9-3.5c1.2-0.7,2.8-0.3,3.5,0.9C50.5,465.1,50.1,466.7,48.9,467.4z"/>
			
				<linearGradient id="SVGID_5_" gradientUnits="userSpaceOnUse" x1="-6.9165" y1="493.3737" x2="5.1054" y2="465.2315" gradientTransform="matrix(1 0 0 -1 0 841.67)">
				<stop  offset="0" style="stop-color:#404B71"/>
				<stop  offset="0.6044" style="stop-color:#3C476E"/>
				<stop  offset="1" style="stop-color:#354169"/>
			</linearGradient>
			<path class="st11" d="M14.7,362.6h-1l0.4-0.5c0.2-0.3,0.1-0.8-0.2-1c-0.3-0.2-0.8-0.1-1,0.2l-0.9,1.3h-1.5l2-2.8
				c0.2-0.3,0.1-0.8-0.2-1c-0.3-0.2-0.8-0.1-1,0.2l-2.6,3.7H7.4l1.2-1.7c0.2-0.3,0.1-0.8-0.2-1c-0.3-0.2-0.8-0.1-1,0.2l-1.7,2.5H4.8
				l0.4-0.5c0.2-0.3,0.1-0.8-0.2-1s-0.8-0.1-1,0.2l-0.9,1.3H2.8L2,361.2l0.2-0.3l1.6-0.1c0.4,0,0.7-0.4,0.7-0.8
				c0-0.4-0.4-0.7-0.8-0.7l-0.6,0.1l0.4-0.8l3-0.3c0.4,0,0.7-0.4,0.7-0.8c0-0.4-0.4-0.7-0.8-0.7l-2,0.2l0.7-1.1l4.5-0.4
				c0.4,0,0.7-0.4,0.7-0.8S9.9,354,9.5,354l-3.4,0.3l0.7-1.3l1.6-0.1c0.4,0,0.7-0.4,0.7-0.8c0-0.4-0.4-0.7-0.8-0.7l-0.6,0.1l0.5-0.9
				c0.2-0.3,0.1-0.8-0.3-1c-0.3-0.2-0.8-0.1-1,0.3l-0.5,0.9l-0.3-0.6c-0.2-0.4-0.6-0.5-1-0.4c-0.4,0.2-0.5,0.6-0.4,1l0.7,1.5
				l-0.7,1.3l-1.5-3.1c-0.2-0.4-0.6-0.5-1-0.3c-0.4,0.2-0.5,0.6-0.4,1l1.9,4.1L3,356.4l-0.9-1.8c-0.2-0.4-0.6-0.5-1-0.4
				c-0.4,0.2-0.5,0.6-0.4,1L2,358l-0.4,0.8l-0.3-0.6c-0.2-0.4-0.6-0.5-1-0.3c-0.4,0.2-0.5,0.6-0.4,1l0.7,1.5l-0.2,0.3h-1.7l-0.2-0.3
				l0.7-1.5c0.2-0.4,0-0.8-0.4-1c-0.4-0.2-0.8,0-1,0.3l-0.3,0.6l-0.4-0.8l1.3-2.8c0.2-0.4,0-0.8-0.4-1s-0.8,0-1,0.3l-0.9,1.8
				l-0.7-1.1l1.9-4.1c0.2-0.4,0-0.8-0.4-1c-0.4-0.2-0.8,0-1,0.4l-1.5,3.1l-0.7-1.3l0.7-1.5c0.2-0.4,0-0.8-0.4-1s-0.8,0-1,0.4
				l-0.3,0.6l-0.5-0.9c-0.2-0.3-0.6-0.5-1-0.3c-0.3,0.2-0.5,0.6-0.3,1l0.5,0.9l-0.6-0.1c-0.4,0-0.8,0.3-0.8,0.7
				c0,0.4,0.3,0.8,0.7,0.8l1.6,0.1l0.7,1.3l-3.4-0.3c-0.4,0-0.8,0.3-0.8,0.7s0.3,0.8,0.7,0.8l4.5,0.4l0.7,1.1l-2-0.2
				c-0.4,0-0.8,0.3-0.8,0.7c0,0.4,0.3,0.8,0.7,0.8l3,0.3l0.4,0.8l-0.6-0.1c-0.4,0-0.8,0.3-0.8,0.7c0,0.4,0.3,0.8,0.7,0.8l1.6,0.1
				l0.2,0.3l-0.8,1.5H-4l-0.9-1.3c-0.2-0.3-0.7-0.4-1-0.2s-0.4,0.7-0.2,1l0.4,0.5h-0.9l-1.7-2.5c-0.2-0.3-0.7-0.4-1-0.2
				c-0.3,0.2-0.4,0.7-0.2,1l1.2,1.7h-1.3l-2.6-3.7c-0.2-0.3-0.7-0.4-1-0.2c-0.3,0.2-0.4,0.7-0.2,1l2,2.8h-1.5l-0.9-1.3
				c-0.2-0.3-0.7-0.4-1-0.2c-0.3,0.2-0.4,0.7-0.2,1l0.4,0.5h-1c-0.4,0-0.7,0.3-0.7,0.7s0.3,0.7,0.7,0.7h1l-0.4,0.5
				c-0.2,0.3-0.1,0.8,0.2,1c0.1,0.1,0.3,0.1,0.4,0.1c0.2,0,0.5-0.1,0.6-0.3l0.9-1.3h1.5l-2,2.8c-0.2,0.3-0.1,0.8,0.2,1
				c0.1,0.1,0.3,0.1,0.4,0.1c0.2,0,0.5-0.1,0.6-0.3l2.6-3.7h1.3l-1.2,1.7c-0.2,0.3-0.1,0.8,0.2,1c0.1,0.1,0.3,0.1,0.4,0.1
				c0.2,0,0.5-0.1,0.6-0.3l1.7-2.5h0.9l-0.4,0.5c-0.2,0.3-0.1,0.8,0.2,1c0.1,0.1,0.3,0.1,0.4,0.1c0.2,0,0.5-0.1,0.6-0.3l0.9-1.3h0.3
				l0.8,1.5l-0.2,0.3l-1.6,0.1c-0.4,0-0.7,0.4-0.7,0.8s0.4,0.7,0.7,0.7c0,0,0,0,0.1,0l0.6-0.1l-0.4,0.8l-3,0.3
				c-0.4,0-0.7,0.4-0.7,0.8s0.4,0.7,0.7,0.7c0,0,0,0,0.1,0l2-0.2l-0.7,1.1l-4.5,0.4c-0.4,0-0.7,0.4-0.7,0.8c0,0.4,0.4,0.7,0.7,0.7
				c0,0,0,0,0.1,0l3.4-0.3l-0.7,1.3l-1.6,0.1c-0.4,0-0.7,0.4-0.7,0.8s0.4,0.7,0.7,0.7c0,0,0,0,0.1,0l0.6-0.1l-0.5,0.9
				c-0.2,0.3-0.1,0.8,0.3,1c0.1,0.1,0.2,0.1,0.4,0.1c0.3,0,0.5-0.1,0.6-0.4l0.5-0.9l0.3,0.6c0.1,0.3,0.4,0.4,0.7,0.4
				c0.1,0,0.2,0,0.3-0.1c0.4-0.2,0.5-0.6,0.4-1l-0.7-1.5l0.7-1.3l1.5,3.1c0.1,0.3,0.4,0.4,0.7,0.4c0.1,0,0.2,0,0.3-0.1
				c0.4-0.2,0.5-0.6,0.4-1l-1.9-4.1l0.7-1.1l0.9,1.8c0.1,0.3,0.4,0.4,0.7,0.4c0.1,0,0.2,0,0.3-0.1c0.4-0.2,0.5-0.6,0.4-1l-1.3-2.8
				l0.4-0.8l0.3,0.6c0.1,0.3,0.4,0.4,0.7,0.4c0.1,0,0.2,0,0.3-0.1c0.4-0.2,0.5-0.6,0.4-1l-0.7-1.5l0.2-0.3h1.7l0.2,0.3l-0.7,1.5
				c-0.2,0.4,0,0.8,0.4,1c0.1,0,0.2,0.1,0.3,0.1c0.3,0,0.5-0.2,0.7-0.4l0.3-0.6l0.4,1.3l-1.3,2.8c-0.2,0.4,0,0.8,0.4,1
				c0.1,0,0.2,0.1,0.3,0.1c0.3,0,0.5-0.2,0.7-0.4l0.9-1.8l0.7,1.1l-1.9,4.1c-0.2,0.4,0,0.8,0.4,1c0.1,0,0.2,0.1,0.3,0.1
				c0.3,0,0.5-0.2,0.7-0.4l1.5-3.1l0.7,1.3l-0.7,1.5c-0.2,0.4,0,0.8,0.4,1c0.1,0,0.2,0.1,0.3,0.1c0.3,0,0.5-0.2,0.7-0.4l-0.1-1
				l0.5,0.9c0.1,0.2,0.4,0.4,0.6,0.4c0.1,0,0.2,0,0.4-0.1c0.3-0.2,0.5-0.6,0.3-1l-0.5-0.9l0.6,0.1c0,0,0,0,0.1,0
				c0.4,0,0.7-0.3,0.7-0.7s-0.3-0.8-0.7-0.8l-1.6-0.1l-0.7-1.3l3.4,0.3c0,0,0,0,0.1,0c0.4,0,0.7-0.3,0.7-0.7c0-0.4-0.3-0.8-0.7-0.8
				l-4.5-0.4L4,369.7l2,0.2c0,0,0,0,0.1,0c0.4,0,0.7-0.3,0.7-0.7s-0.3-0.8-0.7-0.8l-3-0.3l-0.4-0.8l0.6,0.1c0,0,0,0,0.1,0
				c0.4,0,0.7-0.3,0.7-0.7s-0.3-0.8-0.7-0.8l-1.6-0.1l-0.2-0.3l0.8-1.5h0.3l0.9,1.3c0.1,0.2,0.4,0.3,0.6,0.3c0.1,0,0.3,0,0.4-0.1
				c0.3-0.2,0.4-0.7,0.2-1L4.4,364h0.9l1.7,2.5c0.1,0.2,0.4,0.3,0.6,0.3c0.1,0,0.3,0,0.4-0.1c0.3-0.2,0.4-0.7,0.2-1L7,364h1.3
				l2.6,3.7c0.1,0.2,0.4,0.3,0.6,0.3c0.1,0,0.3,0,0.4-0.1c0.3-0.2,0.4-0.7,0.2-1l-2-2.8h1.5l0.9,1.3c0.1,0.2,0.4,0.3,0.6,0.3
				c0.1,0,0.3,0,0.4-0.1c0.3-0.2,0.4-0.7,0.2-1l-0.4-0.5h1c0.4,0,0.7-0.3,0.7-0.7C15.4,363,15.1,362.6,14.7,362.6z M-1.2,364.8
				l-0.8-1.5l0.8-1.5h1.7l0.8,1.5l-0.8,1.5H-1.2z"/>
			<circle class="st6" cx="27.4" cy="344.7" r="3.4"/>
			<circle class="st6" cx="-98.3" cy="408.9" r="3.4"/>
			<circle class="st6" cx="-93.3" cy="422" r="1.5"/>
			<circle class="st6" cx="-105.2" cy="429.8" r="1.5"/>
			<circle class="st6" cx="15.4" cy="341.2" r="1.5"/>
			<circle class="st6" cx="43" cy="377.1" r="3.8"/>
			<circle class="st6" cx="71.9" cy="500.9" r="3.8"/>
			<circle class="st6" cx="63.9" cy="387" r="2.8"/>
			<circle class="st6" cx="58.5" cy="395.5" r="1.5"/>
			<circle class="st6" cx="32.4" cy="385.5" r="1.5"/>
			<circle class="st6" cx="111.8" cy="408.9" r="1.5"/>
			<circle class="st6" cx="81" cy="387" r="1.5"/>
			<circle class="st6" cx="75" cy="398.5" r="1.5"/>
			<circle class="st6" cx="73.5" cy="386.9" r="1.5"/>
			<circle class="st6" cx="81" cy="377.1" r="1.5"/>
			<circle class="st6" cx="121.2" cy="388.5" r="1.5"/>
			<circle class="st6" cx="78" cy="492.3" r="1.5"/>
			<circle class="st6" cx="89.3" cy="490.8" r="1.5"/>
			<circle class="st6" cx="82.5" cy="499.3" r="1.5"/>
			<circle class="st6" cx="50.5" cy="375.6" r="1.5"/>
			<circle class="st6" cx="57" cy="382.4" r="1.5"/>
		</g>
	</g>
</g>
</svg>
