<?xml version="1.0" encoding="utf-8"?>
<!-- Generator: Adobe Illustrator 19.0.0, SVG Export Plug-In . SVG Version: 6.00 Build 0)  -->
<svg version="1.1" id="Layer_1" xmlns="http://www.w3.org/2000/svg" xmlns:xlink="http://www.w3.org/1999/xlink" x="0px" y="0px"
	 viewBox="-148 326.9 299 188" style="enable-background:new -148 326.9 299 188;" xml:space="preserve">
<style type="text/css">
	.st0{fill:#519E38;}
	.st1{fill:#F9BD82;}
	.st2{fill:#FFD6A8;}
	.st3{fill:#F7F3A4;}
	.st4{fill:#D98A5A;}
	.st5{fill:#40AE77;}
</style>
<g id="Layer_2">
</g>
<g id="kolba_4">
</g>
<g id="kolba_3">
</g>
<g id="kolby">
</g>
<g id="doma">
</g>
<g id="butylka_3">
</g>
<g id="butylka_2">
</g>
<g id="butylka_1">
</g>
<g id="vanna_2">
</g>
<g id="sneg">
</g>
<g id="vanna_1">
</g>
<g id="shariki_2">
</g>
<g id="shariki_1">
</g>
<g id="voronka">
</g>
<g id="gradusnik">
</g>
<g id="kolba_2">
</g>
<g id="kolba_1">
</g>
<g id="probirki">
</g>
<g id="potato">
</g>
<g id="zavod">
</g>
<g id="blank">
</g>
<g id="ticks">
</g>
<g id="car">
</g>
<g id="lupa">
	<g>
		<path class="st0" d="M-43.5,384.7C-43.8,375.5-57,368-73.2,368c-16.3,0-29.5,7.4-29.7,16.7l0,0v10.1l0,0
			c0.6,9.1,13.7,16.3,29.7,16.3s29.1-7.2,29.7-16.3l0,0V384.7L-43.5,384.7z"/>
		<path class="st0" d="M34.6,384.7C34.3,375.5,21.1,368,4.9,368c-16.3,0-29.5,7.4-29.7,16.7l0,0v10.1l0,0
			c0.6,9.1,13.7,16.3,29.7,16.3s29.1-7.2,29.7-16.3l0,0V384.7L34.6,384.7z"/>
		<path class="st0" d="M109.9,384.7c-0.3-9.2-13.5-16.7-29.7-16.7c-16.3,0-29.5,7.4-29.7,16.7l0,0v10.1l0,0
			c0.6,9.1,13.7,16.3,29.7,16.3s29.1-7.2,29.7-16.3l0,0V384.7L109.9,384.7z"/>
		<path class="st0" d="M-43.5,450.9c-0.3-9.2-13.5-16.7-29.7-16.7c-16.3,0-29.5,7.4-29.7,16.7l0,0V461l0,0
			c0.6,9.1,13.7,16.3,29.7,16.3s29.1-7.2,29.7-16.3l0,0V450.9L-43.5,450.9z"/>
		<path class="st0" d="M34.6,450.9c-0.3-9.2-13.5-16.7-29.7-16.7c-16.3,0-29.5,7.4-29.7,16.7l0,0V461l0,0
			c0.6,9.1,13.7,16.3,29.7,16.3S34,470.1,34.6,461l0,0V450.9L34.6,450.9z"/>
		<path class="st0" d="M109.9,450.9c-0.3-9.2-13.5-16.7-29.7-16.7c-16.3,0-29.5,7.4-29.7,16.7l0,0V461l0,0
			c0.6,9.1,13.7,16.3,29.7,16.3s29.1-7.2,29.7-16.3l0,0V450.9L109.9,450.9z"/>
		<ellipse class="st1" cx="-78.5" cy="455.7" rx="29.7" ry="17"/>
		<rect x="-108.3" y="446.3" class="st1" width="59.5" height="10.1"/>
		<ellipse class="st2" cx="-78.5" cy="446.6" rx="29.7" ry="17"/>
		<ellipse class="st1" cx="0.5" cy="455.7" rx="29.7" ry="17"/>
		<rect x="-29.3" y="446.3" class="st1" width="59.5" height="10.1"/>
		<ellipse class="st2" cx="0.5" cy="446.6" rx="29.7" ry="17"/>
		<ellipse class="st1" cx="74.6" cy="455.7" rx="29.7" ry="17"/>
		<rect x="44.9" y="446.3" class="st1" width="59.5" height="10.1"/>
		<ellipse class="st2" cx="74.6" cy="446.6" rx="29.7" ry="17"/>
		<ellipse class="st1" cx="-78.5" cy="389.5" rx="29.7" ry="17"/>
		<rect x="-108.3" y="380.1" class="st1" width="59.5" height="10.1"/>
		<ellipse class="st2" cx="-78.5" cy="380.4" rx="29.7" ry="17"/>
		<ellipse class="st1" cx="0.5" cy="389.5" rx="29.7" ry="17"/>
		<rect x="-29.3" y="380.1" class="st1" width="59.5" height="10.1"/>
		<ellipse class="st2" cx="0.5" cy="380.4" rx="29.7" ry="17"/>
		<ellipse class="st1" cx="74.6" cy="389.5" rx="29.7" ry="17"/>
		<rect x="44.9" y="380.1" class="st1" width="59.5" height="10.1"/>
		<ellipse class="st2" cx="74.6" cy="380.4" rx="29.7" ry="17"/>
		<polygon class="st3" points="74.6,367.2 81.4,373.2 70.7,378 		"/>
		<polygon class="st3" points="-95.7,370.2 -88.9,376.2 -99.6,381 		"/>
		<polygon class="st3" points="-78.8,379.4 -83.7,371.7 -72,370 		"/>
		<polygon class="st3" points="-9.2,370.2 -2.4,376.2 -13.1,381 		"/>
		<polygon class="st3" points="15.3,379.2 22.1,385.2 11.4,390 		"/>
		<polygon class="st4" points="58.9,384.6 60,375.6 70,381.6 		"/>
		<polygon class="st4" points="-9.6,389.1 -8.5,380.1 1.5,386.1 		"/>
		<polygon class="st4" points="-69.3,389.1 -68.3,380.1 -58.2,386.1 		"/>
		<polygon class="st5" points="86.4,374.4 94.4,378.6 85.1,385.8 		"/>
		<polygon class="st5" points="6.1,369.6 14.1,373.8 4.8,381 		"/>
		<polygon class="st3" points="-65.9,456.2 -72.7,450.2 -62,445.4 		"/>
		<polygon class="st3" points="-90.4,447.2 -97.2,441.2 -86.5,436.4 		"/>
		<polygon class="st4" points="-65.6,437.3 -66.6,446.3 -76.7,440.3 		"/>
		<polygon class="st5" points="-81.2,456.8 -89.3,452.6 -79.9,445.4 		"/>
		<polygon class="st5" points="-86.6,379.4 -78.5,383.7 -87.9,390.9 		"/>
		<polygon class="st3" points="91.4,457.5 84.6,451.5 95.3,446.6 		"/>
		<polygon class="st3" points="74.5,448.3 79.4,455.9 67.7,457.6 		"/>
		<polygon class="st4" points="65,438.5 64,447.5 53.9,441.5 		"/>
		<polygon class="st5" points="82.3,448.2 74.2,444 83.6,436.8 		"/>
		<polygon class="st5" points="78.9,387 74.1,394.7 67.6,384.9 		"/>
		<polygon class="st3" points="2.3,460.3 -4.5,454.3 6.2,449.4 		"/>
		<polygon class="st4" points="18,442.8 17,451.8 6.9,445.8 		"/>
		<polygon class="st5" points="-9.5,453.1 -17.5,448.8 -8.2,441.6 		"/>
		<polygon class="st5" points="-2,440.4 2.8,432.7 9.4,442.5 		"/>
	</g>
</g>
</svg>
