<?xml version="1.0" encoding="utf-8"?>
<!-- Generator: Adobe Illustrator 19.0.0, SVG Export Plug-In . SVG Version: 6.00 Build 0)  -->
<svg version="1.1" id="Layer_1" xmlns="http://www.w3.org/2000/svg" xmlns:xlink="http://www.w3.org/1999/xlink" x="0px" y="0px"
	 viewBox="-183 298.9 227.6 244" style="enable-background:new -183 298.9 227.6 244;" xml:space="preserve">
<style type="text/css">
	.st0{fill:#2D2D2D;}
	.st1{fill:#4D4C4B;}
	.st2{fill:#F9DDC5;}
	.st3{fill:#EC145A;}
	.st4{fill:#62BA47;}
	.st5{fill:#FFFFFF;}
	.st6{fill:#231F20;}
	.st7{fill:#F9BD82;}
	.st8{fill:#FFD6A8;}
	.st9{fill:#F7F3A4;}
	.st10{fill:#D98A5A;}
	.st11{fill:#40AE77;}
</style>
<g id="Layer_2">
</g>
<g id="kolba_4">
</g>
<g id="kolba_3">
</g>
<g id="kolby">
</g>
<g id="doma">
</g>
<g id="butylka_3">
</g>
<g id="butylka_2">
</g>
<g id="butylka_1">
</g>
<g id="vanna_2">
</g>
<g id="sneg">
</g>
<g id="vanna_1">
</g>
<g id="shariki_2">
</g>
<g id="shariki_1">
</g>
<g id="voronka">
</g>
<g id="gradusnik">
</g>
<g id="kolba_2">
</g>
<g id="kolba_1">
</g>
<g id="probirki">
</g>
<g id="potato">
</g>
<g id="zavod">
</g>
<g id="blank">
</g>
<g id="ticks">
</g>
<g id="car">
</g>
<g id="lupa">
	<path class="st0" d="M-8.1,508.5h-122.2c-4.3,0-7.9-3.5-7.9-7.9V343.3c0-4.3,3.5-7.9,7.9-7.9H-8c4.3,0,7.9,3.5,7.9,7.9v157.3
		C-0.2,504.9-3.7,508.5-8.1,508.5z"/>
	<path class="st1" d="M-11.6,335.4c6.3,0,11.4,5.1,11.4,11.4v150.3c0,6.3-5.1,11.4-11.4,11.4h-115.2c-6.3,0-11.4-5.1-11.4-11.4
		V346.8c0-6.3,5.1-11.4,11.4-11.4H-11.6 M-11.6,328.8h-115.2c-9.9,0-18,8.1-18,18v150.3c0,9.9,8.1,18,18,18h115.3
		c9.9,0,18-8.1,18-18V346.8C6.5,336.9-1.6,328.8-11.6,328.8L-11.6,328.8z"/>
	<path class="st2" d="M-144.9,442.1v55c0,9.9,8.1,18,18,18h115.3c9.9,0,18-8.1,18-18v-55H-144.9z"/>
	<path class="st3" d="M-57,467.1c-0.2,0-0.4,0-0.6,0c-1.7-3.9-5.6-6.6-10.1-6.6s-8.4,2.7-10.1,6.6c-0.1,0-0.2,0-0.3,0
		c-5.4,0-10.6,5.4-10.6,10.8c0,4.3,3.5,10,7.3,11.3c1.2-0.3,3-0.8,5.3-1.2c-2.6-0.9-2.8-2.7-2.8-2.7c0-0.2,0.1-0.4,0.4-0.4
		c0.2,0,0.4,0.1,0.4,0.4c0,0.1,0.3,2,4.1,2.5h0.1c0.9-0.1,1.8-0.2,2.8-0.3c-0.8-1.1-1.3-3-1.3-3.3c0-0.2,0.1-0.4,0.3-0.5
		c0.2,0,0.4,0.1,0.5,0.3c0.2,0.7,0.7,2.7,1.5,3.3c0,0,0,0,0.1,0.1c2.9-0.1,6-0.1,9.5,0.4c0.2-0.1,0.3-0.1,0.4-0.1
		c3.4-0.7,3.6-2.4,3.6-2.5c0-0.2,0.2-0.4,0.4-0.4c0.2,0,0.4,0.2,0.4,0.4c0,0.1-0.2,1.8-2.8,2.8c1.7,0.3,3.4,0.6,5.1,1.1
		c3.7-1.4,7-7,7-11.1C-46.5,472.7-51.6,467.1-57,467.1z"/>
	<g>
		<circle class="st4" cx="-49.2" cy="462.2" r="11.9"/>
		<g>
			<path class="st5" d="M-52.1,460.5c-1,0.1-1.3,1.3-1.3,2.1l0,0l0,0c0,0.1,0,0.2,0,0.3c0,0.4,0,0.7-0.1,1.1c0,0.2-0.1,0.5-0.1,0.5
				c-0.4,0-0.6-0.5-0.7-0.7c-0.2-0.6-0.4-1.2-0.5-1.9c-0.1-0.7-0.2-1.4-0.2-2.1c0-0.3,0-0.6,0-0.9c0-0.1,0-0.2,0-0.3s0-0.2,0-0.2
				c0.1-0.5-0.6,0-0.8,0.2c-0.8,1.4-0.6,3-0.5,4.5c0,0.4,0,0.8-0.1,1.2c0,0.3-0.1,0.8-0.3,1c-0.1,0.1-0.4,0-0.5,0
				c-0.2-0.1-0.3-0.3-0.3-0.5c0-0.2-0.3-0.1-0.4,0c-0.2,0.2-0.4,0.5-0.3,0.7c0.1,0.5,0.6,1,1.1,0.8c0.9-0.3,1.3-1.3,1.5-2.1
				c0.1-0.4,0.2-0.8,0.2-1.2c0.1,0.6,0.3,1.2,0.6,1.7c0.2,0.4,0.5,0.8,1,0.7c0.4-0.1,0.6-0.5,0.8-0.9c0.2,0.4,0.4,0.7,0.9,0.6
				c0.5,0,0.9-0.6,1.1-1c0.2-0.5,0.3-1,0.3-1.5C-50.9,461.9-51.1,460.4-52.1,460.5z M-51.8,463.9c0,0.1,0,0.2-0.1,0.3
				c-0.2,0-0.3-0.3-0.4-0.4c-0.2-0.3-0.2-0.7-0.3-1c0-0.4,0-0.7,0-1.1c0-0.1,0-0.2,0.1-0.3c0.5,0.3,0.6,0.9,0.6,1.5
				C-51.7,463.2-51.7,463.5-51.8,463.9z"/>
			<path class="st5" d="M-40.3,461.9c-1.1-0.4-1.7,1-1.9,1.8c-0.2,0.8-0.4,2.1,0.5,2.4c0.4,0.2,1-0.1,1.2-0.4
				c0.3-0.4,0.5-0.8,0.7-1.3C-39.6,463.6-39.4,462.3-40.3,461.9z M-41,465.3c0,0.1-0.1,0.2-0.1,0.2c-0.2-0.1-0.2-0.4-0.2-0.6
				c-0.1-0.4,0-0.7,0-1.1c0.1-0.4,0.2-0.7,0.3-1c0-0.1,0.1-0.2,0.1-0.2c0.4,0.5,0.3,1.1,0.2,1.7C-40.7,464.6-40.8,465-41,465.3z"/>
			<path class="st5" d="M-43.2,462.1c0.2-0.3,0.4-0.5,0.6-0.8c0.4-0.6,0.8-1.3,0.7-2c0-0.7-1-0.7-1.4-0.5c-0.7,0.3-1.1,1.1-1.3,1.8
				c-0.3,0.9-0.4,1.8-0.4,2.8l0,0c-0.3,0.4-1,1.2-1.6,0.9c-0.1-0.1-0.2-0.3-0.3-0.4c0.4-0.5,0.8-0.9,1.2-1.5
				c0.3-0.5,0.5-1.3-0.1-1.6c-0.5-0.3-1.2,0-1.5,0.5c-0.3,0.4-0.5,1-0.6,1.5c0,0.3-0.1,0.8,0,1.2c-0.3,0.2-0.7,0.3-1.1,0.2
				c-0.4-0.1-0.6-0.5-0.6-0.8c-0.1-0.5-0.1-1,0-1.5c0-0.2,0.1-0.3,0.1-0.5v-0.1c0.3,0.1,0.4,0.5,0.4,0.7c0.1,0.4,1-0.2,0.9-0.6
				s-0.3-0.7-0.6-0.9c-0.4-0.2-0.9,0.1-1.1,0.4c-0.6,0.6-0.7,1.6-0.7,2.4c0,0.5,0.1,1.2,0.6,1.5c0.6,0.4,1.5,0,2.1-0.3
				c0.2,0.4,0.5,0.7,1,0.6c0.6-0.1,1.2-0.4,1.7-0.9c0,0.5,0.1,1,0.5,1.2c0.6,0.3,1.3,0,1.6-0.5c0.5-0.6,0.7-1.5,0.5-2.2
				C-42.6,462.2-42.9,462.1-43.2,462.1z M-46.8,461.7c0-0.1,0.1-0.3,0.2-0.4l0,0c0.3,0.1,0.3,0.4,0.3,0.6c-0.1,0.4-0.3,0.8-0.6,1.1
				c0-0.1,0-0.1,0-0.2C-47,462.4-46.9,462-46.8,461.7z M-43.4,459.7c0.1-0.1,0.2-0.3,0.3-0.4l0,0c0.4,0.5,0,1.1-0.2,1.5
				s-0.5,0.9-0.8,1.2c0.1-0.4,0.1-0.8,0.2-1.2C-43.7,460.5-43.6,460.1-43.4,459.7z M-43.6,464.6c0,0-0.1,0.1-0.1,0.2h-0.1
				c-0.3-0.1-0.3-0.7-0.3-0.9c0-0.2,0-0.4,0-0.6c0.1-0.1,0.2-0.3,0.3-0.4c0.2-0.2,0.4,0.1,0.5,0.4
				C-43.2,463.6-43.4,464.2-43.6,464.6z"/>
		</g>
	</g>
	<g>
		<path class="st4" d="M-102.4,470.2c-0.1,0.1,0.3,0.2,0.4,0.3c0,0.1-0.2,0-0.3,0c0,0.1,0.1,0.1,0.2,0.2c0,0-0.1,0-0.1,0.1
			c0.2,0.1,0.3,0.5,0.6,0.6c0.5,0.2,1.2,0.4,1.2,0.5c0.1-1-0.4-1.9,0.4-2.7c0-0.1-0.1-0.1-0.1-0.2c0.1,0,0.1,0,0.1,0
			c0-0.2-0.2-0.1-0.1-0.3c0,0,0.1,0,0.2,0s-0.1-0.1-0.1-0.2s0.2,0,0.2,0c0-0.1-0.3-0.3-0.3-0.5c0.2,0.1,0.3,0.2,0.4,0.3
			c-0.1-0.2-0.3-0.3-0.3-0.6c0.2,0.1,0.3,0.3,0.5,0.4c-0.1-0.3-0.3-0.4-0.4-0.7c0.3,0.1,0.4,0.4,0.6,0.6c-0.2-0.4-0.4-0.9-0.4-1.3
			c0.3,0.3,0.4,0.7,0.6,1.1c0-0.4-0.3-0.9-0.2-1.6c0.2,0.4,0.3,1,0.5,1.4c0.1-0.5-0.3-1.3-0.1-1.8c0.2,0.5,0.2,1.1,0.4,1.6
			c0-0.5-0.1-1.3,0-1.8c0.2,0.5,0.2,1.2,0.3,1.8c0.1-0.4-0.1-1.3,0.2-1.6c0,0.5,0,0.9,0,1.4c0,0.8,0.4,1.5,0.1,2.2
			c-0.3,0.7-0.8,1.3-0.8,2.3c1.1,0.3,1.4,0.4,2.4,0.3c0.4,0,0.7-0.2,1.1-0.1c0.1,0,0.2,0.2,0.3,0.2c0.3,0.1,0.5,0.1,0.8,0.1
			c-0.5,0.1-1.3,0.2-1.4,0.2c-0.2,0-0.9-0.1-0.4-0.1c0.3,0,0.6,0,0.6-0.1c0-0.3-0.5-0.1-0.8,0c-1,0.1-1.4,0.3-3,0
			c0.4,0,0.4-0.3,0.4-0.5c-0.1-1.2,0.1-1.5,0.5-2c0.6-1-0.2-1-0.5-1.4c-0.1,0.1,0,0.4,0,0.5c-0.1-0.1-0.2-0.4-0.4-0.5
			c-0.1,0.1,0.1,0.3,0.1,0.5c-0.1-0.1-0.2-0.2-0.3-0.3c-0.1,0.1,0.1,0.3,0.1,0.4c-0.1,0-0.2-0.2-0.3-0.2c-0.1,0.1,0.1,0.1,0,0.3
			c-0.1,0-0.1-0.1-0.2,0c0,0.1,0,0.2,0.1,0.2c0,0.1-0.1,0-0.1,0c-0.1,0,0,0.1,0,0.2c-0.8-0.1-0.2,2.4-0.8,3.3c0.4,0.3,1.4,0.2,2,0.1
			c-0.8,0.5-1.4,0.3-2.2,0.4c-0.1,0-0.2,0.1-0.3,0.1c-0.4,0.1-0.9,0.3-1.4,0.4c-0.5,0.2-2,0.5-2.1,0.5c3.7-1.3,3.1-1.5,3.4-1.7
			c-0.6-0.2-0.8-0.9-1.2-1.1c0,0,0-0.1,0.1-0.1c0-0.1-0.1,0-0.2,0c0-0.1,0-0.1,0.1-0.1c0-0.1-0.2,0-0.3-0.1c0-0.1,0.1-0.1,0.2-0.1
			c-0.1-0.1-0.3-0.1-0.4-0.2c0.1-0.1,0.2-0.1,0.4-0.1c-0.1-0.1-0.4-0.1-0.5-0.3c0.2,0,0.4,0,0.5,0c-0.2-0.2-0.6-0.2-0.7-0.5
			c0.3,0,0.5,0.1,0.8,0.2c-0.3-0.2-0.7-0.3-0.8-0.7c0.3,0.2,0.7,0.3,0.9,0.5c-0.1-0.3-0.7-0.5-0.9-0.8c0.4,0,0.7,0.4,1.1,0.6
			c-0.3,0-0.6-0.3-0.8-0.4c0.1,0.3,0.6,0.5,0.9,0.7c-0.2,0.1-0.5-0.1-0.7-0.2c0,0.2,0.4,0.4,0.6,0.5
			C-102,470.3-102.2,470.2-102.4,470.2"/>
		<path class="st4" d="M-99.1,463.5c-4.1,0-7.5,3.3-7.5,7.5c0,4.1,3.3,7.5,7.5,7.5c4.1,0,7.5-3.3,7.5-7.5
			C-91.6,466.9-95,463.5-99.1,463.5 M-99.1,463.8c4,0,7.2,3.2,7.2,7.2s-3.2,7.2-7.2,7.2s-7.2-3.2-7.2-7.2
			C-106.3,467-103.1,463.8-99.1,463.8"/>
	</g>
	<g>
		<g>
			<g>
				<path class="st5" d="M-83.5,483.6c0.8,1.5,2.5,0.2,2.7-1.1c0.2-1.9-1-3.9-2-5.5c-0.1-0.2-0.4,0.1-0.5,0.1c-1,0.9-2,2.4-1.3,3.4
					c0.2,0.3,0.9-0.7,0.7-1c-0.3-0.5,0.4-1.3,0.8-1.7c-0.2,0-0.3,0.1-0.5,0.1c0.4,0.7,0.8,1.3,1.2,2c0.2,0.4,0.3,0.8,0.5,1.2
					c0.1,0.3,0.2,0.5,0.3,0.8c-0.3,1.3-0.7,1.6-1.2,0.7C-83,482.4-83.7,483.3-83.5,483.6L-83.5,483.6z"/>
				<path class="st5" d="M-78.5,481.7c-0.3,0.9-0.8-0.7-0.9-0.9c-0.1-0.3-0.3-0.6-0.5-0.8c-0.5-0.5-1.1-0.2-1.7,0.2
					c0.1,0,0.2,0,0.4,0c-0.3-0.8-0.8-2.9,0.9-2.2c0.4,0.2,1-0.8,0.6-1c-1-0.5-1.7-0.1-2.3,0.8c-0.6,1-0.3,2.2,0.1,3.1
					c0.1,0.2,0.2,0.2,0.4,0c1.4-1.1,1.5,1.3,2.3,1.8c0.6,0.5,1.2-0.9,1.3-1.3C-77.6,481-78.3,481.2-78.5,481.7L-78.5,481.7z"/>
			</g>
			<path class="st5" d="M-74.9,481.2c0.3,1,1.4,0.6,1.8-0.1c0.3-0.5,0.3-1.1,0.3-1.7c0-0.9,0-1.7,0.3-2.5c-0.3,0.2-0.7,0.3-1,0.5
				c0.2,1.2,0.3,3.1,1.3,4c0.7,0.6,1.7-0.8,1.9-1.2c0.3-0.7-0.6-0.2-0.8,0.1c-0.3,0.8-0.8-0.4-0.9-0.6c-0.3-0.9-0.5-1.9-0.6-2.8
				c-0.1-0.5-0.9,0.3-1,0.5c-0.2,0.6-0.3,1.1-0.3,1.7c0,0.3,0,0.7,0,1c0,0.2,0,0.4,0,0.5c0,0.5-0.3,0.2-0.4,0
				C-74.2,480.1-75,480.9-74.9,481.2L-74.9,481.2z"/>
			<path class="st5" d="M-67.6,476.8c0.1,1.3,0.2,2.7,0.1,4c0,0.5,0.8-0.2,0.8-0.5c0.1-0.8,0.3-1.2,0.8-1.7c0.6-0.6,0.9-1.3,1.2-2.1
				c0.2-0.6-0.8-0.1-0.9,0.2c-0.4,1-0.4,2.3-0.4,3.4c0,0.3,0,0.7,0.3,0.9c0.4,0.3,1-0.2,1.3-0.4c0.5-0.4,0.1-0.8-0.4-0.4
				c-0.4,0.3-0.4-1.3-0.3-1.5c0-0.7,0.1-1.5,0.4-2.2c-0.3,0.1-0.6,0.1-0.9,0.2c-0.2,0.8-0.6,1.3-1.1,1.9c-0.6,0.6-0.7,1.4-0.8,2.2
				c0.3-0.2,0.6-0.3,0.8-0.5c0.1-1.3,0-2.7-0.1-4.1C-66.7,475.8-67.6,476.5-67.6,476.8L-67.6,476.8z"/>
			<g>
				<path class="st5" d="M-61,480.7c-0.1,1,0.8,1.4,1.7,0.9c0.8-0.5,1.1-1.4,1.3-2.2c0.1-0.7,0.3-1.7-0.4-2.2
					c-0.3-0.2-0.9-0.1-1.2,0.1c-0.7,0.3-1,0.9-1.1,1.5c-0.1,0.5,1,0,1.1-0.3c0.1-0.6,0.4-0.7,0.6-0.1c0.1,0.4,0.1,0.7,0.1,1.1
					c0,0.4-0.1,0.9-0.3,1.3c-0.1,0.1-0.1,0.3-0.3,0.4c0.1-0.1,0-0.1-0.1-0.1c-0.3-0.1-0.3-0.4-0.3-0.6
					C-59.9,479.9-61,480.4-61,480.7L-61,480.7z"/>
				<path class="st5" d="M-60.6,476.8c0,2.5-0.5,5.1-1.1,7.5c-0.1,0.5,0.8,0,0.9-0.3c0.7-2.5,1.3-5.1,1.3-7.6
					C-59.5,476-60.6,476.4-60.6,476.8L-60.6,476.8z"/>
			</g>
			<g>
				<path class="st5" d="M-51.7,479.8c-0.5,0.9-0.9,1.8-1.2,2.7c-0.1,0.4-0.2,1,0.1,1.3c0.4,0.5,1.2,0.3,1.7,0.1
					c0.7-0.3,0-0.6-0.5-0.4c-0.3,0.1-0.3-0.8-0.3-0.8c0.1-0.4,0.2-0.9,0.4-1.3c0.2-0.6,0.5-1.1,0.9-1.7
					C-50.3,479.4-51.5,479.5-51.7,479.8L-51.7,479.8z"/>
				<path class="st5" d="M-54.9,482.5c0,0.8,0.8,0.9,1.4,0.8c0.9-0.3,1.5-1.1,1.9-1.9c0.2-0.4-0.9-0.2-1.1,0.1c-0.1,0.2,0,0,0.1,0
					c-0.1,0-0.1-0.1-0.2-0.1c-0.2-0.1-0.2-0.3-0.2-0.5c0-0.3,0.2-0.7,0.4-0.9c0.3-0.5,0.5,0.2,0.4,0.5c-0.2,0.5,1,0.3,1.1,0
					c0.3-0.7-0.2-1.3-1.1-1.3c-1,0-1.7,0.9-1.9,1.7c-0.4,1.6,1.8,1.7,2.4,0.6c-0.4,0-0.7,0-1.1,0.1c-0.2,0.4-0.4,0.7-0.7,1.1
					c-0.3,0.3-0.6,0-0.6-0.3C-53.8,481.8-54.9,482.2-54.9,482.5L-54.9,482.5z"/>
			</g>
			<path class="st5" d="M-67.7,480.2c-0.5,0.5-0.7-1.3-0.7-1.5c-0.1-0.8-0.1-1.5-0.1-2.3c0-0.5-0.9,0.2-0.9,0.5c0,0.7,0,1.3,0,2
				c0,0.3,0,0.7-0.1,1c-0.1,0.4,0,0.5-0.4,0.3c-0.9-0.5-0.6-2.7-0.4-3.5c0.1-0.6-0.8,0-0.9,0.4c-0.2,0.8-0.5,4.4,1.2,4.1
				c1.9-0.4,1.5-3.5,1.5-4.8c-0.3,0.2-0.6,0.3-0.9,0.5c0,1.2,0,2.5,0.4,3.6c0.3,1,1.2,0.6,1.7,0C-66.8,480.1-67.2,479.8-67.7,480.2
				L-67.7,480.2z"/>
			<path class="st5" d="M-54.8,482.1c-0.6,0.3-0.2-1.5-0.2-1.6c0.2-0.7,0.5-1.5,0.7-2.2c0.2-0.5-0.9-0.1-1,0.2
				c-0.2,0.6-0.4,1.2-0.7,1.9c-0.1,0.3-0.3,0.7-0.4,1c-0.2,0.4-0.2,0.5-0.4,0.2c-0.6-0.8,0.4-2.7,0.8-3.5c0.3-0.5-0.8-0.3-0.9,0
				c-0.4,0.7-1.9,4-0.3,4.3c1.9,0.3,2.5-2.8,3-4c-0.4,0.1-0.7,0.1-1,0.2c-0.4,1.1-0.8,2.3-0.8,3.5c0,1,0.9,0.9,1.6,0.6
				C-54,482.3-54.2,481.8-54.8,482.1L-54.8,482.1z"/>
			<path class="st5" d="M-61.4,477.4c0.1-1.3-1.8-0.8-2.3-0.2c-0.7,0.8-0.9,2-0.8,3s0.9,1.3,1.7,0.7
				C-61.7,480.2-61.6,478.6-61.4,477.4c-0.4,0.1-0.7,0.2-1.1,0.3c-0.1,0.7-1,4.6,1.1,3.6c0.5-0.2,0.6-0.9-0.1-0.6
				c-0.2,0.1-0.2-1.1-0.2-1.1C-61.7,478.9-61.5,478.2-61.4,477.4c0.1-0.5-1,0-1.1,0.3c-0.1,0.7-0.2,1.4-0.4,2.1
				c-0.1,0.2-0.2,0.7-0.3,0.7c-0.2,0-0.3-0.3-0.3-0.4c-0.2-0.5-0.1-1,0-1.5c0-0.3,0.1-0.5,0.3-0.8c0.1-0.1,0.1-0.3,0.2-0.4
				c0.2-0.2,0.5,0.3,0.5,0.4C-62.5,478.3-61.4,477.8-61.4,477.4L-61.4,477.4z"/>
			<g>
				<path class="st5" d="M-78.8,478.5c0.3,0.8,0.5,4.4,1.9,3.9c1.7-0.7,1-3.8,0.9-5c0-0.5-0.9,0.3-0.8,0.7c0.1,0.9,0.2,1.7,0.3,2.6
					c0,0.3,0.1,1-0.3,0.8c-0.5-0.2-0.6-1.3-0.7-1.7c-0.1-0.6-0.2-1.3-0.4-1.9C-78.2,477.3-78.9,478.1-78.8,478.5L-78.8,478.5z"/>
				<path class="st5" d="M-76.8,478c0.4,1.7,0.9,3.4,1.3,5c0.1,0.4,0.5,2-0.1,1.9c-1.1-0.1,0.1-3,0.3-3.3c0.4-0.6-0.4-0.5-0.6,0
					c-0.6,1.1-1.1,2.6-0.5,3.9c0.2,0.5,0.9,0.5,1.2,0.1c0.7-0.8,0.7-1.7,0.5-2.7c-0.2-1.9-0.9-3.7-1.3-5.6
					C-76.1,476.8-76.9,477.6-76.8,478L-76.8,478z"/>
			</g>
			<path class="st5" d="M-59.2,477.8c0.8,0.8,1.8,1,2.8,0.6c0.1-0.1,0.4-0.2,0.3-0.4c-0.1-0.2-0.4,0-0.5,0c-0.6,0.3-1.3-0.2-1.7-0.6
				C-58.7,477.1-59.5,477.5-59.2,477.8L-59.2,477.8z"/>
		</g>
	</g>
	<g>
		<path class="st3" d="M-53.5,498.3V490c-13-3.6-24-1.1-27.8,0v8.6C-77.7,497.5-66.6,494.9-53.5,498.3z"/>
		<path class="st3" d="M-80,499c2.1,0.6,6.5,1.6,12.3,1.6c5.9,0,10.6-1.2,12.8-1.9C-66.2,496.1-75.8,497.9-80,499z"/>
	</g>
	<g>
		<path class="st6" d="M-4.6,369.2c-0.2-8.4-12.3-15.2-27.1-15.2s-26.8,6.8-27.1,15.2l0,0v9.2l0,0c0.6,8.2,12.4,14.8,27,14.8
			c14.6,0,26.5-6.6,27-14.8l0,0L-4.6,369.2L-4.6,369.2z"/>
		<ellipse class="st7" cx="-36.7" cy="373.7" rx="27.1" ry="15.4"/>
		<rect x="-63.7" y="365.1" class="st7" width="54.1" height="9.2"/>
		<ellipse class="st8" cx="-36.7" cy="365.4" rx="27.1" ry="15.4"/>
		<polygon class="st9" points="-21.4,375.2 -27.6,369.8 -17.8,365.4 		"/>
		<polygon class="st9" points="-36.8,366.9 -32.3,373.8 -42.9,375.4 		"/>
		<polygon class="st10" points="-45.4,358 -46.3,366.2 -55.5,360.7 		"/>
		<polygon class="st11" points="-29.7,366.8 -37,363 -28.5,356.4 		"/>
	</g>
	<g>
		<path class="st6" d="M-68.7,369.2C-68.9,360.8-81,354-95.8,354s-26.8,6.8-27.1,15.2l0,0v9.2l0,0c0.6,8.2,12.4,14.8,27,14.8
			s26.5-6.6,27-14.8l0,0L-68.7,369.2L-68.7,369.2z"/>
		<ellipse class="st7" cx="-100.7" cy="373.7" rx="27.1" ry="15.4"/>
		<rect x="-127.8" y="365.1" class="st7" width="54.1" height="9.2"/>
		<ellipse class="st8" cx="-100.7" cy="365.4" rx="27.1" ry="15.4"/>
		<polygon class="st9" points="-85.5,375.2 -91.7,369.8 -81.9,365.4 		"/>
		<polygon class="st9" points="-100.9,366.9 -96.4,373.8 -107,375.4 		"/>
		<polygon class="st10" points="-109.5,358 -110.4,366.2 -119.6,360.7 		"/>
		<polygon class="st11" points="-93.8,366.8 -101.1,363 -92.6,356.4 		"/>
	</g>
	<g>
		<path class="st6" d="M-4.6,412.6c-0.2-8.4-12.3-15.2-27.1-15.2s-26.8,6.8-27.1,15.2l0,0v9.2l0,0c0.6,8.2,12.4,14.8,27,14.8
			c14.6,0,26.5-6.6,27-14.8l0,0L-4.6,412.6L-4.6,412.6z"/>
		<ellipse class="st7" cx="-36.7" cy="417" rx="27.1" ry="15.4"/>
		<rect x="-63.7" y="408.4" class="st7" width="54.1" height="9.2"/>
		<ellipse class="st8" cx="-36.7" cy="408.7" rx="27.1" ry="15.4"/>
		<polygon class="st9" points="-21.4,418.5 -27.6,413.1 -17.8,408.7 		"/>
		<polygon class="st9" points="-36.8,410.2 -32.3,417.1 -42.9,418.7 		"/>
		<polygon class="st10" points="-45.4,401.3 -46.3,409.5 -55.5,404 		"/>
		<polygon class="st11" points="-29.7,410.1 -37,406.3 -28.5,399.7 		"/>
	</g>
	<g>
		<path class="st6" d="M-68.7,412.6c-0.2-8.4-12.3-15.2-27.1-15.2s-26.8,6.8-27.1,15.2l0,0v9.2l0,0c0.6,8.2,12.4,14.8,27,14.8
			s26.5-6.6,27-14.8l0,0L-68.7,412.6L-68.7,412.6z"/>
		<ellipse class="st7" cx="-100.7" cy="417" rx="27.1" ry="15.4"/>
		<rect x="-127.8" y="408.4" class="st7" width="54.1" height="9.2"/>
		<ellipse class="st8" cx="-100.7" cy="408.7" rx="27.1" ry="15.4"/>
		<polygon class="st9" points="-85.5,418.5 -91.7,413.1 -81.9,408.7 		"/>
		<polygon class="st9" points="-100.9,410.2 -96.4,417.1 -107,418.7 		"/>
		<polygon class="st10" points="-109.5,401.3 -110.4,409.5 -119.6,404 		"/>
		<polygon class="st11" points="-93.8,410.1 -101.1,406.3 -92.6,399.7 		"/>
	</g>
	<path class="st5" d="M-121.4,393.7h-1.7c-2,0-3.6-1.6-3.6-3.6v-26.4c0-2,1.6-3.6,3.6-3.6h1.7c2,0,3.6,1.6,3.6,3.6v26.4
		C-117.9,392-119.5,393.7-121.4,393.7z"/>
	<circle class="st5" cx="-122.3" cy="350.3" r="4.7"/>
</g>
</svg>
