<?xml version="1.0" encoding="utf-8"?>
<!-- Generator: Adobe Illustrator 19.0.0, SVG Export Plug-In . SVG Version: 6.00 Build 0)  -->
<svg version="1.1" id="Layer_1" xmlns="http://www.w3.org/2000/svg" xmlns:xlink="http://www.w3.org/1999/xlink" x="0px" y="0px"
	 viewBox="-144 319.9 306 202" style="enable-background:new -144 319.9 306 202;" xml:space="preserve">
<style type="text/css">
	.st0{fill:#FFD6A8;}
	.st1{fill:#EFEFEF;}
	.st2{fill:#DDDDDD;}
	.st3{fill:#FFFFFF;}
	.st4{fill:#D98A5A;}
	.st5{fill:#F7F3A4;}
	.st6{fill:#40AE77;}
</style>
<g id="Layer_2">
</g>
<g id="kolba_4">
</g>
<g id="kolba_3">
</g>
<g id="kolby">
</g>
<g id="doma">
</g>
<g id="butylka_3">
</g>
<g id="butylka_2">
</g>
<g id="butylka_1">
</g>
<g id="vanna_2">
</g>
<g id="sneg">
</g>
<g id="vanna_1">
</g>
<g id="shariki_2">
</g>
<g id="shariki_1">
</g>
<g id="voronka">
</g>
<g id="gradusnik">
</g>
<g id="kolba_2">
</g>
<g id="kolba_1">
</g>
<g id="probirki">
</g>
<g id="potato">
</g>
<g id="zavod">
</g>
<g id="blank">
</g>
<g id="ticks">
</g>
<g id="car">
</g>
<ellipse class="st0" cx="13.9" cy="417.4" rx="79.2" ry="55"/>
<path class="st1" d="M-85.6,417.4c14.4,41,53.5,70.5,99.5,70.5s85.1-29.4,99.5-70.5H-85.6z"/>
<path class="st2" d="M114.5,417.4H-86.7c-2.1,0-3.9-1.7-3.9-3.9l0,0c0-2.1,1.7-3.9,3.9-3.9h201.2c2.1,0,3.9,1.7,3.9,3.9l0,0
	C118.4,415.6,116.7,417.4,114.5,417.4z"/>
<path class="st3" d="M-49.7,451.9c-0.9,0-1.8-0.2-2.7-0.7c-12.1-7.1-17.8-20.2-18-20.7c-1.2-2.7,0.1-5.9,2.8-7
	c2.7-1.2,5.9,0.1,7,2.8c0.1,0.1,4.6,10.4,13.6,15.7c2.6,1.5,3.4,4.8,1.9,7.3C-46.1,450.9-47.9,451.9-49.7,451.9z"/>
<polygon class="st4" points="-21.7,378.9 -13,376.2 -14.5,387.9 "/>
<polygon class="st5" points="-15.5,395.9 -6.9,393.2 -8.4,404.9 "/>
<polygon class="st5" points="54.2,386.4 61,392.4 50.2,397.2 "/>
<polygon class="st5" points="35.9,368.2 41.9,375 30.6,378.4 "/>
<polygon class="st5" points="-52.4,399.1 -46.4,405.9 -57.6,409.3 "/>
<polygon class="st4" points="30.4,394.8 31.5,385.8 41.5,391.9 "/>
<polygon class="st4" points="11.5,397.1 16.8,404.4 5.3,406.7 "/>
<polygon class="st4" points="7.6,376.2 8.6,367.2 18.7,373.3 "/>
<polygon class="st4" points="-32.8,406.5 -31.8,397.5 -21.7,403.5 "/>
<polygon class="st6" points="13,379.3 21,383.5 11.7,390.7 "/>
<polygon class="st6" points="69.4,391.8 77.4,396 68.1,403.2 "/>
<polygon class="st6" points="-50.6,394.2 -46.6,386 -39.2,395.2 "/>
<polygon class="st6" points="32.6,405.6 36.6,397.4 44,406.6 "/>
</svg>
