<?xml version="1.0" encoding="utf-8"?>
<!-- Generator: Adobe Illustrator 19.0.0, SVG Export Plug-In . SVG Version: 6.00 Build 0)  -->
<svg version="1.1" id="Layer_1" xmlns="http://www.w3.org/2000/svg" xmlns:xlink="http://www.w3.org/1999/xlink" x="0px" y="0px"
	 viewBox="-157 267.9 281 307" style="enable-background:new -157 267.9 281 307;" xml:space="preserve">
<style type="text/css">
	.st0{fill:#FFFFFF;}
</style>
<g id="XMLID_46_">
	<path id="XMLID_5_" class="st0" d="M-20.5,379.9L-20.5,379.9c0-0.1,0-0.2,0-0.3c0-0.2,0-0.4-0.1-0.6c0-0.5-0.1-0.8-0.1-1.1l0,0
		c-2.4-26.7-14.7-36.5-14.7-36.5s4.8-4.8,4.3-5.4c-0.4-0.5-4.9,1.5-5.4,1.1c-0.5-0.4,1.6-5.7,1.1-6c-0.5-0.3-4.3,3.6-4.7,3.4
		c-0.4-0.3,0.6-5.1-0.2-5.6c-0.9-0.4-2.4,5-3.2,4.9c-0.8-0.2-2.3-5.5-3-5.5c-1.3,0-0.5,5.4-1.2,5.4c-0.8,0-3.8-3-4.5-2.6
		s1.9,5,1.9,5s-3,3.7-3.1,5.8c-0.1,2.1-7.9,4.2-7.5,5.6c0.5,1.3,6.9,0.1,6.9,0.1s-2,5.8,0.4,8.7c2.8,3.2,4.8,1.2,4.6-1
		c1.6,11.1-3.7,21.9-8.5,33.7l-0.5,1.4c20.7-0.8,34.8-6.6,37.7-8C-20.5,381.4-20.5,380.6-20.5,379.9z"/>
	<path id="XMLID_4_" class="st0" d="M5.7,445c-2.5-3.5-6.7-5.1-12.6-4.9c-6.1,0.2-10.3,2.3-12.5,5.9c-5,8.4,1.8,23.4,2.9,25.6l2,0.2
		c0,0.1,0.1,0.2,0.1,0.3c0.7,0,1.8,0,2.7-0.1h2.3c0.9,4.1,3.1,15.2-0.2,19.9c-3.4,3.4-14.8,2.3-17.3,2.3s-0.5,2.6,1.4,2.6
		c1.9,0,10.5-0.3,11,0.6c0.5,0.9-3.1,2.6-5,2.9c-1.9,0.4-3.1,0.6-1.9,1.4S1.1,500.5-1,490.1c2.2,0.2,4.4,1.5,5.8,2.1
		s2.3-1.1,0.9-2.1c-1.4-1-8.8-5.8-8.8-5.8l0.5-12.3c1.2,0,2.4,0,3.5-0.1H5C6.4,468.5,11.4,453,5.7,445z"/>
	<path id="XMLID_3_" class="st0" d="M48.7,371.3c-3-9.8-23-2.7-29.5,10.9s-23.4,15.7-29.1,13.2c-5.8-2.3-6.9-8.5-10.3-8.7
		c0-1-0.1-2-0.1-3c-4.1,1.7-18.2,7.2-38.4,7.9c-0.5,1.2-0.9,2.5-1.4,3.8l-0.1,0.2l0,0c-2.2,6.1-3.9,12.5-4.3,19.3
		c-0.9,16.5,16.9,31.5,28.6,39.9c9.4-4.9,13.3-27,14-31.7c-9.5-3.9-12.9-8.8-14-12.5c-1.2-4.3,0-8.8,3.2-12.5
		c1.9-2.2,5.1-3.4,9.2-3.4c7.7,0,17.1,4.4,19.5,11.8c2.8,8.8,11.8,10.9,12.2,11l2.1,0.5l-1.2,1.9c-0.8,1.2-1.8,2.3-3,3.1
		c5.1,3,22,13.4,26.4,23.1c0.5-0.9,1.2-1.9,1.8-3.1c0,0,0,0.1,0.1,0.1c0.4-0.8,0.8-1.6,1-2.3c0.2-0.4,0.3-0.7,0.4-1v-0.1
		c1.4-4.1,1.2-7.5-0.2-13c8.7-11.3,6.9-23,4.7-22.4C52.9,398.2,51.7,381.1,48.7,371.3z"/>
	<path id="XMLID_2_" class="st0" d="M4.7,424.1c-2.7,1.5-6.4,2.3-10.9,2.3c-5.6,0-10.5-1.2-10.8-1.2l0,0l0,0
		c-1.2-0.4-2.4-0.8-3.5-1.2c-0.9,5.5-4.7,26.3-14.2,32.1c2.9,2,5.2,3.6,6.8,4.6c0.9,0.7,1.8,1.4,2.4,2c1.7,2.1,3.7,5.8,6.8,8
		c-2.1-4.8-6.8-17.5-2.1-25.4c2.4-4.1,7.1-6.4,13.7-6.6c6.5-0.2,11.1,1.6,14,5.5c5.5,7.6,2,20.9,0.2,26.5l2.1-1.6l0,0
		c5.8-3.5,16.1-11.3,22.3-21C28.1,438,8.7,426.4,4.7,424.1z"/>
	<path id="XMLID_1_" class="st0" d="M-6.1,424.8c5.4,0,11.3-1.2,14-5.6c0,0-10.2-2.2-13.3-12c-2.1-6.7-10.9-10.8-18-10.8
		c-3.4,0-6.3,0.9-8,2.9c-5.4,6.2-6.5,17.8,15,24.3C-16.5,423.6-11.6,424.8-6.1,424.8z"/>
</g>
</svg>
