<?xml version="1.0" encoding="utf-8"?>
<!-- Generator: Adobe Illustrator 19.0.0, SVG Export Plug-In . SVG Version: 6.00 Build 0)  -->
<svg version="1.1" id="Layer_1" xmlns="http://www.w3.org/2000/svg" xmlns:xlink="http://www.w3.org/1999/xlink" x="0px" y="0px"
	 viewBox="0 0 86 86" style="enable-background:new 0 0 86 86;" xml:space="preserve">
<style type="text/css">
	.st0{fill:#99C5E9;}
	.st1{fill:#62BA47;}
	.st2{fill:#FFFFFF;}
</style>
<circle id="XMLID_54_" class="st0" cx="45.4" cy="39.1" r="38.9"/>
<circle id="XMLID_53_" class="st1" cx="14.1" cy="73.6" r="12.3"/>
<g id="XMLID_87_">
	<path id="XMLID_40_" class="st2" d="M23.7,71.1c-1.1,1.9-2.5,3.6-3.8,5.3c-0.6,0.8,0.3,0.7,0.7,0.2c1.4-1.8,2.8-3.6,4-5.6
		C25.1,70.2,24,70.6,23.7,71.1L23.7,71.1z"/>
	<path id="XMLID_39_" class="st2" d="M21.7,70.5c-0.7,0-1.2,0.7-1.3,1.3c-0.1,0.6,0.2,1.1,0.9,1.1C22.5,73,23.2,70.6,21.7,70.5
		c-0.3,0-0.8,0.7-0.4,0.7c0.3,0,0.5,0.3,0.5,0.6c0,0.1,0,0.3,0,0.4c0,0.1,0,0,0,0c-0.1,0-0.1,0-0.2,0c-0.3,0-0.5-0.3-0.5-0.6
		c0-0.1,0-0.3,0.1-0.4c0-0.1,0,0,0,0c0,0,0.1,0,0.2,0C21.5,71.3,22.1,70.5,21.7,70.5z"/>
	<path id="XMLID_38_" class="st2" d="M23.6,74.5c-0.7,0-1.2,0.7-1.3,1.3c-0.1,0.6,0.2,1.1,0.9,1.1C24.4,77,25.1,74.6,23.6,74.5
		c-0.3,0-0.8,0.7-0.4,0.7c0.3,0,0.5,0.3,0.5,0.6c0,0.1,0,0.3,0,0.4c0,0.1,0,0,0,0c-0.1,0-0.1,0-0.2,0c-0.3,0-0.5-0.3-0.5-0.6
		c0-0.1,0-0.3,0.1-0.4c0-0.1,0,0,0,0c0,0,0.1,0,0.2,0C23.5,75.2,24,74.5,23.6,74.5z"/>
</g>
<g id="XMLID_73_">
	<g id="XMLID_74_">
		<g id="XMLID_75_">
			<path id="XMLID_81_" class="st2" d="M75.2,45.8c-0.4,0-0.8,0.1-1,0.4c-0.5-2.1,0-4.2,0.6-6.1c0,0,0-0.1,0-0.1
				c0.2-1-0.5-1.7-1.6-1.9c-1-0.1-1.9,0.4-2.6,1c-0.8,0.8-1.3,2.1-1.6,3.3c-0.2,1-0.8,1.6-1,1.6c-0.5-0.2-0.3-0.9-0.3-1.3
				c0-0.7,0.1-1.5-0.3-2.2c-0.3-0.5-0.9-0.7-1.4-0.7c0.5-1.7,1-1.9,1.2-2.1c0.3,0.1,0.5,0.4,0.6,0.5c0.6,0.6,2.3-0.4,1.8-1
				c-0.7-0.8-1.4-0.9-2.1-0.8c-0.5,0.1-1,0.4-1.4,0.7c-0.1,0.1-0.1,0.1-0.2,0.2c0.1-0.9,0.1-1.9-0.1-2.8c-0.1-0.7-2,0.1-1.9,0.8
				c0.1,0.4,0.1,0.9,0.1,1.3c-0.1,2-0.6,4.1-2.2,5.6c0-0.2-0.1-0.3-0.1-0.5c-0.1-1.3,0.3-2.6,0.3-3.9c0-0.9,0.1-2-0.4-2.8
				c-0.6-0.8-1.9,0.1-2.3,0.5c-0.1,0.1-0.2,0.2-0.2,0.3c-0.1-0.5-0.2-0.9-0.5-1.3c-0.4-0.4-1.1-0.3-1.5,0c-0.3,0.2-0.6,0.4-0.8,0.6
				c0-0.2,0-0.3,0-0.5c0-0.3,0-0.7-0.3-0.7c-0.3,0-0.6,0.1-0.9,0.2c-0.3,0.2-0.5,0.4-0.6,0.7c-0.2,0.3-0.4,0.3-0.8,0.2
				c-1.4-0.3-1.3-1.4-2.5-1.5c-1.9-0.1-2.7,2.2-2.9,3.8c0,0,0,0,0,0c-0.2,0.8-0.6,1.9-1.3,2.6c0.3-0.9,0.4-2,0.4-2.9
				c-0.1-1.1-0.2-3.1-1.5-3.6c-0.7-0.3-1.5,0.1-2.1,0.5c-0.1-0.5-0.2-1.5-0.3-1.7c-0.1-0.2-0.3-0.2-0.6-0.1c-0.5,0.2-0.9,0.6-1.1,1
				c-0.1,0.3-0.2,1.1-1.1,1c-0.6-0.1-0.9-0.7-1.9-0.5c-2.1,0.7-2.6,3-2.5,5c0.1,1.3,0.3,4.3,2.2,4.2c1,0,1.8-1.1,2.2-1.9
				c0.4-1,0.5-2,0.5-3c0-0.6,0-1.4-0.3-2.3c0.4-0.2,0.8-0.4,1.1-0.7c0.1,0.7,0.2,1.4,0.3,2.1c0,0,0,0.1,0,0.1c0,0,0,0.1,0,0.1
				c0.1,1.5,0.2,3,0.2,4.4c0.1,2,0.1,4-0.1,6c0,0.5,0.5,0.4,0.8,0.2c0.4-0.2,0.8-0.7,0.8-1.1c0.1-1.4,0.2-2.9,0.2-4.3
				c1.7,0,3.3-1.2,4.1-2.2c0.2,1.2,0.6,2.3,1.8,2.5c1,0.1,1.9-0.8,2.3-1.6c0.5-0.9,0.7-1.9,0.8-2.9c0-0.4,0.1-1,0-1.6
				c0.4,0,0.8-0.2,1.2-0.4c-0.1,2.1-0.3,4.3-0.5,6.4c-0.1,0.9,1.7-0.1,1.7-0.7c0.2-1.9,0.3-4,1.4-5.8c0.3,0.3,0.2,2.3,0.1,3.4
				c0,0.6-0.1,1.2-0.2,1.8c-0.1,0.5-0.2,1-0.2,1.6c-0.1,0.9,1.6,0,1.7-0.6c0.1-0.5,0.2-1,0.2-1.6c0.2-1,0.6-3.8,1.3-4.2
				c0.3,0.2,0.1,2,0.1,2.6c-0.1,1.2-0.4,2.4-0.2,3.7c0.2,1.9,2.2,0.6,2.9-0.1c0.2-0.2,0.4-0.4,0.5-0.6c-0.1,0.6-0.2,1.2-0.3,1.9
				c-0.1,0.9,1.6,0.1,1.8-0.5c0.2-0.8,0.4-1.6,0.6-2.3c0.9,0.5,0.1,3,0.8,3.7c0.6,0.6,1.5,0.4,2.1,0.2c0.2-0.1,0.4-0.2,0.6-0.3
				c0.1,0.5,0.2,1,0.6,1.3c0.7,0.6,1.8,0.4,2.4,0c0.1,0,0.1-0.1,0.2-0.1c0,0.2,0,0.3,0.1,0.5c0.4,1.9,2.7,0.9,3.4,0
				C75.8,46.2,75.6,45.9,75.2,45.8z M39.4,40.7c0,0.2-0.1,0.4-0.2,0.6c-0.4-0.1-0.7-0.6-0.8-0.9c-0.3-0.7-0.4-1.4-0.5-2.1
				c-0.1-0.7,0-1.5,0.1-2.2c0-0.2,0.1-0.4,0.2-0.6c0,0,0.1,0,0.1,0c0,0,0,0,0,0c0.1,0.1,0.1,0.1,0.2,0.1c0.6,0.6,0.8,2.3,0.8,2.8
				C39.6,39.1,39.6,39.9,39.4,40.7z M44.2,39.8c0-1.3-0.1-2.5-0.2-3.8c0-0.7,0.1-0.9,0.1-1c0.3-0.1,0.5,0.1,0.7,0.3
				c0.6,0.7,0.7,1.8,0.8,2.6c0.1,0.9-0.1,2.6-0.4,3C44.6,41.1,44.3,40.5,44.2,39.8z M51.2,40.6c-0.1,0.2-0.1,0.4-0.2,0.6
				c-0.4-0.1-0.6-0.7-0.7-1C50.1,39.5,50,38.7,50,38c0-0.7,0.1-1.5,0.3-2.2c0.1-0.2,0.1-0.4,0.2-0.5c0.9,0.3,0.9,2.5,0.9,3.2
				C51.5,39.1,51.4,39.9,51.2,40.6z M71.4,45.2c0,0-0.2,0-0.3-0.1c-0.3-0.2-0.3-0.8-0.4-1.1c-0.1-1.2,0.2-2.5,0.7-3.6
				c0.2-0.3,0.5-0.8,0.7-1c0.1,0,0.3,0,0.3,0c0.4,0.1,0.6,0.5,0.5,0.9c-0.4,1.5-0.7,3.2-1.4,4.5C71.5,44.9,71.4,45.1,71.4,45.2z"/>
			<path id="XMLID_76_" class="st2" d="M34.6,36.3c-0.4-0.2-0.7-0.1-1.1,0c0.3-0.8,0.5-1.6,0.7-2.5c0.3-1.2,0.7-3,0-4.1
				c-0.8-1.2-2.4-0.1-3,0.8c-0.9,1.3-1,3-1.1,4.5c0,1.7,0.2,3.4,0.6,5c-0.1,0.7-0.4,1.9-1,2.6c-0.4,0-0.6-0.9-0.7-1.2
				c-0.6-1.8-0.8-3.8-0.4-5.7c0.1-0.4-0.2-0.6-0.6-0.4c-0.5,0.2-0.9,0.8-1,1.2c-0.1,0.4-0.2,1.5-0.7,1.8c-0.4,0.2-0.9,0.1-1.4,0
				c-0.6-0.1-1.6,0.2-2.1,0.8c-0.1-0.8-0.3-1.5-0.5-2.2c-0.1-0.4-0.9,0.2-1,0.3c-0.3,0.3-0.5,0.7-0.5,1c0,1,0.3,3.1-0.4,5.6
				c-0.1,0.5-0.5,1.4-1.2,1.5c-0.8,0.2-1.4-0.4-1.8-1c-1.2-1.8-1.7-4-1.6-6.1c0-0.9,0.2-1.9,0.5-2.6c0,0,0-0.1,0.1-0.1
				c0,0,0,0,0.1-0.1c0,0,0.1-0.1,0.1-0.1s0.8-0.2,1.2-0.2c0.8,0.1,1,1,1.1,1.5c0.2,0.9,1.7-0.8,1.6-1.4c-0.2-1.2-0.8-2.3-2.3-2.1
				c-1.1,0.2-1.9,0.8-2.5,1.7c-1.2,1.9-1.4,4.3-1.1,6.5c0.2,2,0.9,4.3,2.4,5.4c1.7,1.3,3.8-0.9,4.5-2.5c0.2-0.4,0.3-0.8,0.4-1.2
				c0.2,1.3,1,2.7,2.6,2.3c1.8-0.4,2.5-2.8,2.4-4.3c0-0.5-0.2-1-0.4-1.5c0.2-0.2,0.4-0.3,0.6-0.5c0,0.4,0.1,0.7,0.1,1
				c0.1,1.2,0.3,2.5,0.9,3.6c0.4,0.8,1.3,0.8,2,0.2c0.6-0.5,1.1-1.3,1.4-2c0.4,0.9,0.9,1.8,1.9,1.7c1.4-0.3,2.3-1.6,2.5-2.9
				C35.9,39.4,36,37,34.6,36.3z M25.2,43.3c0,0.1,0,0.2-0.1,0.3c0,0-0.1,0-0.2,0.1c-1,0.3-1.5-1-1.7-1.6c0-0.1,0-0.2-0.1-0.2
				c0,0,0,0,0,0c0-0.1,0-0.2-0.1-0.4c0-0.3,0-0.6,0-0.9c0-0.1,0.1-0.2,0.1-0.3c0,0,0.1,0,0.1,0c1-0.2,1.5,1,1.7,1.7
				C25.3,42.3,25.3,42.8,25.2,43.3z M31.7,34.5c0-1.1,0.4-3.5,0.4-3.5s0,0,0,0c0,0,0,0,0,0c0.3,0.1,0.5,0.6,0.5,0.8
				c0.2,1.2-0.1,2.5-0.4,3.7c-0.1,0.5-0.2,0.9-0.4,1.4C31.8,36.1,31.8,35.3,31.7,34.5z M34.1,41.7c0,0,0,0.1,0,0.1c0,0-0.1,0-0.1,0
				c-0.4,0-0.6-0.6-0.8-0.8c-0.3-0.6-0.5-1.3-0.7-1.9c0.1-0.3,0.3-0.6,0.4-1c0,0,0-0.1,0.1-0.1c0,0,0,0,0,0c0.2-0.1,0.4,0.1,0.6,0.2
				c0.5,0.4,0.6,1.2,0.6,1.8C34.2,40.5,34.2,41.1,34.1,41.7z"/>
		</g>
	</g>
</g>
<g id="XMLID_68_">
	<path id="XMLID_28_" class="st2" d="M5.8,70.4c-1.4,0.1-1.9,1.8-2,3c-0.1,1-0.1,3.4,1.3,3.5c1.5,0.1,2.1-1.8,2.2-2.9
		c0.1-1,0-3.4-1.3-3.5c-0.5,0-1.3,1.1-0.8,1.1c0.8,0.1,0.9,1.2,1,1.8c0.1,0.5,0.1,1,0,1.5c0,0.2-0.1,0.4-0.1,0.6
		c0,0.2-0.3,0.5-0.1,0.4c-0.7,0.3-1-1.4-1-1.7c-0.1-0.5,0-1,0-1.5C5,72.3,5,72,5.1,71.8c0.1-0.3,0.2-0.3,0.1-0.2
		C5.6,71.5,6.4,70.3,5.8,70.4z"/>
	<path id="XMLID_27_" class="st2" d="M12.3,70.4c-1.4,0.1-1.9,1.8-2,3c-0.1,1-0.1,3.4,1.3,3.5c1.5,0.1,2.1-1.8,2.2-2.9
		c0.1-1,0-3.4-1.3-3.5c-0.5,0-1.3,1.1-0.8,1.1c0.8,0.1,0.9,1.2,1,1.8c0.1,0.5,0.1,1,0,1.5c0,0.2-0.1,0.4-0.1,0.6
		c0,0.2-0.3,0.5-0.1,0.4c-0.7,0.3-1-1.4-1-1.7c-0.1-0.5,0-1,0-1.5c0-0.3,0.1-0.5,0.2-0.8c0.1-0.3,0.2-0.3,0.1-0.2
		C12.2,71.5,13,70.3,12.3,70.4z"/>
	<path id="XMLID_26_" class="st2" d="M14.4,75.7c0.8,2.6,4.8,0.8,4.1-1.5c-0.3-1.2-1.6-1-2.6-1.3c-0.5-0.2-0.6-0.6-0.5-1
		c0.2-0.5,0.1-0.6-0.2-0.3c0.1,0,0.3-0.1,0.4-0.1c0.8-0.2,1.7-0.1,2.4,0.2c0.3,0.2,1.1-0.7,0.7-0.9c-1-0.5-2.1-0.4-3.1-0.2
		c-1,0.2-1.2,1.1-1.2,2c-0.1,1.1,1,1.3,1.9,1.4c0.7,0.1,1.2,0.3,1.3,1.1c0.1,1.2-1.2,1.1-1.7,0.7c-0.3-0.2-0.4-0.5-0.5-0.8
		C15.2,74.6,14.3,75.3,14.4,75.7L14.4,75.7z"/>
	<path id="XMLID_25_" class="st2" d="M8.3,78.1c0.5-0.4,0.8-1.1,0.9-1.8c0-0.2,0-0.5-0.1-0.6c-0.2-0.2-0.7,0-0.9,0.1
		c-0.3,0.1-0.6,0.5-0.6,0.8c0,0.3,0.3,0.3,0.5,0.2c0,0,0.1,0,0,0c0,0,0,0,0,0c0.1,0.1,0,0.2,0,0.3c0,0.2-0.1,0.3-0.1,0.4
		c0,0,0,0.1-0.1,0.1c0-0.1,0-0.1,0,0c0,0,0,0.1-0.1,0.1c0.1-0.1,0,0,0,0c-0.2,0.1-0.5,0.6-0.3,0.8C7.8,78.5,8.1,78.2,8.3,78.1
		L8.3,78.1z"/>
</g>
<g id="XMLID_47_">
	<g id="XMLID_48_">
		<path id="XMLID_21_" class="st2" d="M34.6,59.9c0.7-0.4,3.2-2.2,2-3.1c-0.8-0.6-1.8,0.7-2.2,1.3c-0.4,0.7-1.2,2.2-0.4,2.9
			c0.3,0.3,1.1,0.2,1.5,0.1c0.9-0.1,1.7-0.6,2.3-1.2c0.5-0.5-0.5-0.5-0.8-0.2c-0.4,0.4-1.4,1.1-2,0.7c-0.5-0.3-0.1-1.3,0-1.7
			c0.1-0.3,0.2-0.6,0.4-0.8c0.1-0.1,0.2-0.3,0.3-0.4c0.1-0.1,0.1-0.1,0.2-0.2c0.1-0.1,0.1-0.1,0,0c0.9,0.5-1.3,2-1.6,2.2
			C33.4,59.9,34.1,60.1,34.6,59.9L34.6,59.9z"/>
		<g id="XMLID_64_">
			<path id="XMLID_20_" class="st2" d="M36.6,60.9c-0.2,1,0.9,1.5,1.9,1.1c0.9-0.4,1.2-1.3,1.4-2.2c0.1-0.7,0.2-1.7-0.4-2.2
				c-0.3-0.2-0.8-0.1-1.1,0c-0.6,0.2-1,0.8-1.2,1.4c-0.1,0.5,1,0.1,1.1-0.2c0.2-0.6,0.4-0.6,0.6,0c0.1,0.4,0.1,0.8,0,1.1
				c0,0.4-0.2,0.9-0.4,1.3c-0.1,0.1-0.2,0.3-0.3,0.4c0.1-0.1,0-0.1-0.1-0.1c-0.3-0.1-0.4-0.4-0.3-0.7C37.8,60.2,36.6,60.5,36.6,60.9
				L36.6,60.9z"/>
			<path id="XMLID_19_" class="st2" d="M37.4,57c-0.4,2.5-1.1,5-2.1,7.3c-0.2,0.4,1.1,0.2,1.2-0.2c1-2.4,1.6-5,1.9-7.6
				C38.5,56.2,37.5,56.6,37.4,57L37.4,57z"/>
		</g>
		<path id="XMLID_18_" class="st2" d="M61.3,57.4c0.3,0.4,1,1,1.5,0.3c0.4-0.4,0.4-1,0.3-1.5c-0.1-0.6-0.4-1.2-0.7-1.8
			c-0.2-0.4-0.7-1-0.7-1.5c-0.2,0.2-0.4,0.4-0.6,0.6c0.4,1.3,1.8,2.2,2.7,3.2c0.3,0.4,0.7-0.8,0.5-1c-0.7-1-1.3-2.4-1.5-3.6
			c-0.2,0.2-0.4,0.5-0.6,0.7c0.3,0.8,2.7,4.4,3.7,2.1c0.2-0.5,0-1.4-0.4-0.6c-0.2,0.5-1.4-0.6-1.5-0.7c-0.5-0.5-1-1-1.3-1.7
			c-0.2-0.6-0.6,0.4-0.6,0.7c0.3,1.3,0.8,2.9,1.6,4c0.2-0.3,0.4-0.7,0.5-1c-0.5-0.5-1-0.9-1.5-1.4c-0.5-0.4-1.1-0.9-1.2-1.5
			c-0.2-0.6-0.6,0.4-0.5,0.6c0,0.7,0.5,1.4,0.8,2c0.2,0.4,0.4,0.9,0.5,1.3c0,0.1,0,0.2,0.1,0.3c0.2-0.2,0.1-0.3-0.2-0.2
			c-0.3,0-0.5-0.3-0.6-0.5C61.5,56.1,61,57.2,61.3,57.4L61.3,57.4z"/>
		<path id="XMLID_17_" class="st2" d="M51.7,58c0.4,1.3,0.9,2.6,1.1,3.9c0.1,0.5,1-0.4,0.9-0.7c-0.1-0.8,0-1.3,0.4-2
			c0.4-0.8,0.4-1.6,0.3-2.4c-0.1-0.6-0.7,0.2-0.7,0.5c0,0.8,0.2,1.5,0.4,2.2c0.2,0.6,0.4,1.3,0.9,1.7c0.5,0.4,1.2-0.4,1.4-0.7
			c0.5-0.8,0.6-1.7,0.4-2.6c-0.1-0.5-0.7,0.4-0.7,0.8c0.1,0.6,0,1.2-0.3,1.7c0,0-0.5-0.6-0.5-0.7c-0.4-0.9-0.8-2-0.8-2.9
			c-0.2,0.2-0.5,0.3-0.7,0.5c0.1,0.9,0,1.4-0.5,2.2c-0.4,0.8-0.5,1.6-0.4,2.4c0.3-0.2,0.6-0.5,0.9-0.7c-0.3-1.3-0.8-2.6-1.2-3.9
			C52.4,56.8,51.6,57.7,51.7,58L51.7,58z"/>
		<path id="XMLID_16_" class="st2" d="M40.6,58.4c-0.2,1.4-0.3,2.7-0.6,4c-0.1,0.5,1,0,1.1-0.3c0.2-0.8,0.5-1.2,1.1-1.7
			c0.7-0.5,1-1.3,1.2-2.1c0.2-0.6-0.7-0.1-0.8,0.2c-0.3,0.7-0.4,1.5-0.5,2.2c-0.1,0.6-0.2,1.4,0.1,1.9c0.2,0.4,0.8,0.3,1.1,0.2
			c0.9-0.3,1.4-1,1.8-1.7c0.3-0.6-0.6-0.3-0.8,0c-0.2,0.4-0.5,1-1.1,0.9c-0.2,0-0.2-0.6-0.2-0.8c-0.1-1,0.1-2.1,0.4-3
			c-0.3,0.1-0.5,0.1-0.8,0.2c-0.3,0.8-0.6,1.3-1.3,1.8c-0.7,0.5-1,1.2-1.2,2c0.4-0.1,0.7-0.2,1.1-0.3c0.3-1.3,0.3-2.7,0.4-4.1
			C41.6,57.5,40.7,58,40.6,58.4L40.6,58.4z"/>
		<path id="XMLID_15_" class="st2" d="M47.9,61.8c-0.5,0.5-0.8-1.3-0.8-1.4C47,59.6,47,58.9,47,58.1c0-0.5-0.8,0.2-0.8,0.5
			c0,0.7,0,1.3,0,2c0,0.4,0,0.7-0.1,1.1c-0.1,0.4-0.1,0.5-0.4,0.3c-0.9-0.6-0.4-2.7-0.2-3.6c0.1-0.6-0.7-0.1-0.8,0.3
			c-0.2,0.8-1.1,4.4,0.8,4.3c2.2-0.2,1.6-3.5,1.6-4.8c-0.3,0.2-0.5,0.4-0.8,0.5c0,1.2-0.1,2.5,0.3,3.6c0.4,1,1.4,0.5,1.9-0.1
			C48.9,61.6,48.4,61.3,47.9,61.8L47.9,61.8z"/>
		<g id="XMLID_57_">
			<path id="XMLID_14_" class="st2" d="M58.3,55.3c0.2,1.1,0.8,2.2,1.4,3.1c0.2,0.2,0.4,0.6,0.8,0.6c0.5,0,0.9-0.8,1-1.2
				c0.2-0.7-0.4-0.8-0.6-0.1c-0.2,0.5-1-0.9-1.1-1c-0.4-0.6-0.8-1.3-0.9-2.1C58.7,54,58.2,54.9,58.3,55.3L58.3,55.3z"/>
			<path id="XMLID_13_" class="st2" d="M56.8,59.4c0.3-0.3,1-1,1.4-0.5c0.4,0.4-0.2,0.5-0.5,0.3c-1-0.5-1.3-2.3-1.5-3.2
				c-0.1-0.6-0.7,0.2-0.7,0.6c0.1,1,1,5.2,2.9,3.5c0.6-0.5,0.8-1.4,0.4-2c-0.5-0.9-1.6,0-2.1,0.5c-0.2,0.2-0.4,0.5-0.4,0.8
				C56.4,59.5,56.6,59.6,56.8,59.4L56.8,59.4z"/>
		</g>
		<path id="XMLID_12_" class="st2" d="M51.7,61.4c-1,0.1-0.8-3.1-0.9-3.7c0-0.5-0.8,0.3-0.8,0.5c0,0.2-0.1,0.5-0.1,0.7
			c-0.1,0.3-0.4,0.2-0.6-0.1c-0.2-0.2-0.2-0.6-0.1-0.9c0.1-0.6-0.6,0-0.7,0.2c-0.2,0.3-0.3,0.6-0.5,0.8c-0.4,0.6,0.3,0.5,0.6,0.1
			c0.2-0.3,0.4-0.6,0.5-0.9c-0.2,0.1-0.5,0.1-0.7,0.2c-0.1,0.8,0.2,2.2,1.4,1.5c0.7-0.4,1-1.4,1-2.1c-0.3,0.2-0.5,0.4-0.8,0.5
			c0,0.7-0.3,4.2,1.1,4C51.5,62.3,52.1,61.3,51.7,61.4L51.7,61.4z"/>
		<path id="XMLID_11_" class="st2" d="M51.2,62.3c0.5-0.1,0.9-0.5,1.2-0.9c0.4-0.4,0.8-0.9,1.1-1.4c0.1-0.1,0.3-0.5,0.1-0.6
			c-0.2-0.1-0.5,0.2-0.6,0.4c-0.2,0.3-0.5,0.7-0.8,1c-0.1,0.2-0.3,0.3-0.5,0.4c-0.1,0-0.2,0.1-0.2,0.1c-0.3,0.1-0.5,0.4-0.6,0.6
			C50.9,62.1,50.9,62.4,51.2,62.3L51.2,62.3z"/>
		<path id="XMLID_10_" class="st2" d="M32.6,59.4c-0.7-0.4,1.2-3,1.5-3.5c0.3-0.4-0.7-0.2-0.8,0c-0.1,0.2-0.3,0.4-0.5,0.5
			c-0.3,0.2-0.4-0.1-0.4-0.4c0-0.3,0.2-0.6,0.4-0.8c0.4-0.4-0.4-0.4-0.6-0.3c-0.3,0.1-0.6,0.2-0.9,0.4c-0.7,0.3-0.1,0.6,0.4,0.4
			c0.3-0.1,0.6-0.2,0.9-0.4c-0.2-0.1-0.4-0.2-0.6-0.3c-0.6,0.6-1.1,1.9,0.1,2c0.7,0.1,1.5-0.6,1.9-1.1c-0.3,0-0.6,0-0.8,0
			c-0.4,0.6-2.6,3.2-1.6,3.9C32,60.1,32.9,59.6,32.6,59.4L32.6,59.4z"/>
		<path id="XMLID_9_" class="st2" d="M31.8,59.9c0.3,0.1,0.8,0.1,1.1,0c0.5-0.1,0.9-0.3,1.4-0.5c0.1-0.1,0.5-0.3,0.4-0.5
			c-0.1-0.2-0.5-0.1-0.6,0c-0.3,0.1-0.6,0.3-0.9,0.3c-0.1,0-0.5,0.1-0.5,0.1c-0.2-0.1-0.6,0-0.7,0.1C31.7,59.6,31.5,59.8,31.8,59.9
			L31.8,59.9z"/>
		<path id="XMLID_8_" class="st2" d="M38.3,58.1c0.7,0.6,2.1,0.6,2.9,0.2c0.4-0.2,0.5-0.7-0.1-0.5c-0.4,0.2-1.6,0.2-2-0.2
			C38.9,57.4,38.1,57.9,38.3,58.1L38.3,58.1z"/>
		<path id="XMLID_7_" class="st2" d="M29.2,53.5c0.2-0.7,0.3-1.4-0.6-1.6c-0.9-0.2-1.8,0.4-2.4,1c-0.6,0.5-1.2,1.3-0.9,2.2
			c0.3,0.9,1.4,1.2,2.1,1.2c0.7,0,0.6-0.6-0.1-0.6c-1.2,0-0.7-1.5-0.4-2c0.2-0.3,0.5-0.6,0.8-0.9c0.1-0.1,0.2-0.2,0.3-0.2
			c0.3-0.2,0.4-0.2,0.2,0c0.1,0.3-0.1,0.6-0.1,0.8C28,53.8,29.1,53.9,29.2,53.5L29.2,53.5z"/>
	</g>
</g>
<g id="XMLID_23_">
	<g id="XMLID_24_">
		<path id="XMLID_6_" class="st2" d="M49.5,69.1c0.1,0.5,0.5,1.3,1.2,0.9c0.4-0.2,0.7-0.8,0.7-1.2c0.1-0.6,0-1.3,0-1.9
			c-0.1-0.5-0.2-1.2-0.1-1.7c-0.2,0.1-0.4,0.2-0.6,0.4c-0.1,1.3,0.8,2.7,1.2,3.9c0.2,0.5,0.8-0.4,0.7-0.7c-0.3-1.1-0.3-2.6-0.2-3.8
			c-0.2,0.1-0.4,0.3-0.6,0.4c0,0.8,0.8,5,2.4,3.4c0.3-0.3,0.4-1.3-0.2-0.7c-0.3,0.3-1-1.1-1-1.2c-0.3-0.6-0.5-1.3-0.5-2
			c0-0.6-0.6,0.1-0.6,0.4c-0.1,1.3-0.2,2.9,0.1,4.2c0.3-0.2,0.5-0.5,0.7-0.7c-0.2-0.6-0.5-1.2-0.8-1.8c-0.2-0.6-0.6-1.2-0.5-1.9
			c0-0.6-0.5,0.1-0.6,0.4c-0.2,0.6,0,1.4,0,2.1c0,0.5,0.1,0.9,0,1.4c0,0.1,0,0.2,0,0.3c0.2-0.1,0.2-0.2-0.1-0.2
			c-0.2-0.1-0.3-0.5-0.4-0.7C50.1,68,49.4,68.8,49.5,69.1L49.5,69.1z"/>
		<path id="XMLID_5_" class="st2" d="M39.8,65.8c0-1-0.4-1.5-1.3-1c-0.9,0.5-1.5,1.8-1.7,2.8c-0.5,2.5,2.9,1.7,3.7,0.5
			c0.1-0.2,0-0.3-0.2-0.3c-0.3,0-0.5,0.2-0.6,0.4c-0.7,0.9-1.8,0.4-1.8-0.7c0-0.5,0.2-1,0.4-1.4c0.1-0.3,0.3-0.6,0.5-0.9
			c-0.1,0.1,0.1,0.7,0.1,0.9C38.8,66.6,39.8,66.2,39.8,65.8L39.8,65.8z"/>
		<path id="XMLID_4_" class="st2" d="M42,65.4c-1-0.1-1.5,1.1-1.8,1.9c-0.2,0.7-0.7,2.5,0.4,2.8c1.2,0.3,1.9-1.1,2.1-1.9
			C42.9,67.5,43,65.7,42,65.4c-0.3-0.1-1,0.6-0.6,0.7c0.5,0.2,0.5,1,0.5,1.4c0,0.4-0.1,0.7-0.2,1.1c0,0.1-0.1,0.3-0.2,0.4
			c0,0.1-0.3,0.3-0.1,0.3c-0.6,0.1-0.6-1.2-0.6-1.4c0-0.4,0.1-0.7,0.2-1.1c0.1-0.2,0.1-0.4,0.2-0.5c0.1-0.2,0.2-0.2,0.1-0.2
			C41.7,66.2,42.4,65.4,42,65.4z"/>
		<path id="XMLID_3_" class="st2" d="M47.8,65.5c-1,0.2-1.3,1.5-1.3,2.3c-0.1,0.7,0,2.6,1.2,2.6c1.3,0,1.6-1.6,1.6-2.4
			C49.2,67.3,48.9,65.5,47.8,65.5c-0.3,0-0.8,0.9-0.5,0.9c0.6,0,0.8,0.8,0.9,1.2c0.1,0.4,0.1,0.7,0.1,1.1c0,0.2,0,0.3,0,0.5
			c0,0.1-0.2,0.4,0,0.3c-0.6,0.3-0.9-1-1-1.2c-0.1-0.4-0.1-0.7-0.1-1.1c0-0.2,0-0.4,0.1-0.6c0-0.2,0.1-0.2,0-0.2
			C47.8,66.4,48.3,65.4,47.8,65.5z"/>
		<path id="XMLID_2_" class="st2" d="M43.6,65.8c0.2,1.5-0.1,3.1-0.3,4.7c-0.1,0.5,0.9-0.1,1-0.4c0.1-0.7,0.2-1.4,0.4-2.1
			c0.1-0.4,0.2-1.5,0.7-1.1c0.2-0.3,0.4-0.5,0.7-0.8c-1.4-1-2.1,1.5-2.3,2.5c-0.1,0.3,0.3,0.2,0.4,0.2c1-0.4,0.5,1.4,0.9,1.7
			c0.6,0.4,1.6-0.5,2-0.9c0.5-0.5,0.1-0.8-0.4-0.4c-0.5,0.5-0.8,0.7-0.9,0c0-0.3-0.1-0.6-0.2-0.9c-0.2-0.6-0.8-0.4-1.3-0.2
			c0.1,0,0.3,0.1,0.4,0.1c0.1-0.4,0.2-1.8,0.8-1.4c0.3,0.2,0.9-0.6,0.7-0.8c-1.8-1.4-2.6,3.4-2.8,4.3c0.3-0.1,0.7-0.3,1-0.4
			c0.1-1.6,0.4-3.2,0.1-4.8C44.3,64.8,43.5,65.4,43.6,65.8L43.6,65.8z"/>
		<path id="XMLID_1_" class="st2" d="M41.6,66c0.6,0.5,1.7,0.4,2.3,0c0.3-0.2,0.4-0.7-0.1-0.5c-0.4,0.2-1.2,0.2-1.6-0.1
			C42.1,65.3,41.5,65.9,41.6,66L41.6,66z"/>
	</g>
</g>
</svg>
