<svg xmlns="http://www.w3.org/2000/svg" viewBox="121 -129 300 315"><style>.st0{fill:#519E38;} .st1{fill:#F4F4F4;} .st2{fill:#D6D6D6;} .st3{fill:#EAEAEA;} .st4{fill:#FFFFFF;} .st5{fill:#EB008B;} .st6{fill:#62BA47;} .st7{fill:#E90E8A;} .st8{fill:#62BA46;} .st9{fill:url(#SVGID_1_);} .st10{fill:url(#SVGID_2_);} .st11{fill:url(#SVGID_3_);} .st12{fill:url(#SVGID_4_);} .st13{fill:url(#SVGID_5_);}</style><g id="bottle"><g id="butylka_2"><path class="st0" d="M322 126.7v-112c0-39.4-16.4-54.5-16.4-54.5 4.3-24.4-7.4-31.8-7.4-31.8v-8.8h2.5V-93l-4.3-2.8H263s-4.3-.3-4.3 2.8v12.6h2.6v8.8h-.3s-11.7 7.4-7.4 31.8c0 0-16.4 15-16.4 54.5v112s-1.7 24.1 16 24.1h52.6c17.9 0 16.2-24.1 16.2-24.1z"/><path class="st1" d="M313.4 121.1V9.1c0-39.4-16.4-54.5-16.4-54.5 4.3-24.4-7.4-31.8-7.4-31.8v-9h-37.1v9h-.1s-11.7 7.4-7.4 31.8c0 0-16.4 15-16.4 54.5v112s-1.7 24.1 16 24.1H297.2c17.9-.1 16.2-24.1 16.2-24.1z"/><path class="st2" d="M287.8-101.3h-33.4s-4.3-.3-4.3 2.8v12.6H292.3v-12.6c-.1-3.1-4.5-2.8-4.5-2.8z"/><path class="st3" d="M313.3 121.1V9.1c0-39.4-16.4-54.5-16.4-54.5 4.3-24.4-7.4-31.8-7.4-31.8v-9H271v231.3H297.3c17.7 0 16-24 16-24z"/><path class="st4" d="M242.5-3.9h-.6c-2.6-.3-4.4-2.7-4-5.2 2.1-16.2 9.9-26 10.3-26.4 1.6-2 4.6-2.3 6.6-.7 2 1.6 2.3 4.6.7 6.6-.1.1-6.5 8.4-8.3 21.7-.4 2.3-2.4 4-4.7 4z"/><g><circle class="st5" cx="271.6" cy="51.1" r="23.3"/><circle class="st6" cx="253" cy="71.8" r="7.3"/><path class="st7" d="M260.6 22.5c0 1.6-1.3 3-3 3s-3-1.3-3-3 1.3-3 3-3c1.6 0 3 1.4 3 3z"/><path class="st6" d="M260.7 32.6c0 2.1-1.7 3.8-3.8 3.8s-3.8-1.7-3.8-3.8 1.7-3.8 3.8-3.8c2.1-.1 3.8 1.7 3.8 3.8zM250.4 26.7c0 1.3-1 2.3-2.3 2.3s-2.3-1-2.3-2.3 1-2.3 2.3-2.3 2.3 1 2.3 2.3zM304.5 29.8c0 7.1-5.8 12.9-12.9 12.9s-12.9-5.8-12.9-12.9c0-7.1 5.8-12.9 12.9-12.9 7.1 0 12.9 5.8 12.9 12.9z"/><path class="st4" d="M288.4 28c-1.1.1-1.4 1.4-1.4 2.3v.4c0 .4 0 .7-.1 1.1 0 .2-.1.5-.1.5-.4 0-.7-.5-.8-.8-.3-.7-.4-1.3-.6-2-.1-.7-.2-1.5-.3-2.3v-.9-.4-.2c.1-.6-.7 0-.8.2-.9 1.5-.6 3.3-.6 4.9 0 .4 0 .9-.1 1.3 0 .3-.1.8-.4 1.1-.2.2-.4 0-.6 0-.2-.1-.3-.3-.4-.6 0-.2-.3-.1-.4 0-.2.2-.4.5-.3.8.1.6.6 1.1 1.2.9 1-.3 1.4-1.4 1.6-2.3.1-.4.2-.9.2-1.3.1.6.3 1.3.6 1.8.2.4.6.9 1.1.8.4-.1.7-.5.9-1 .2.4.5.7 1 .7s1-.6 1.2-1c.2-.5.3-1.1.3-1.6.1-1-.1-2.6-1.2-2.4zm.3 3.7c0 .1 0 .2-.1.3-.2 0-.4-.3-.4-.5-.2-.3-.2-.7-.3-1.1v-1.2c0-.1 0-.2.1-.3.5.3.6 1 .7 1.6.1.3.1.8 0 1.2zM301.2 29.5c-1.2-.4-1.8 1.1-2 2-.2.8-.4 2.2.6 2.6.5.2 1.1-.2 1.3-.5.4-.4.6-.9.7-1.4.2-.8.4-2.3-.6-2.7zm-.7 3.7c0 .1-.1.2-.2.3-.2-.1-.2-.5-.3-.6-.1-.4 0-.8 0-1.2.1-.4.2-.8.4-1.1 0-.1.1-.2.2-.3.4.5.3 1.2.2 1.8 0 .3-.1.7-.3 1.1zM298.1 29.7l.6-.9c.4-.6.8-1.4.8-2.2 0-.7-1-.8-1.5-.5-.7.4-1.2 1.1-1.4 1.9-.3 1-.4 2-.5 3-.4.4-1.1 1.3-1.7.9-.1-.1-.2-.3-.3-.5.5-.5.9-1 1.3-1.6.3-.5.6-1.4-.1-1.8-.6-.3-1.3 0-1.6.5-.4.5-.5 1-.6 1.6 0 .3-.1.8 0 1.3-.3.2-.8.3-1.1.3-.4-.1-.6-.6-.7-.9-.1-.5-.1-1.1 0-1.6 0-.2.1-.3.1-.5 0 0 0-.1.1-.1.3.1.4.5.4.7.1.4 1.1-.2 1-.6-.1-.4-.3-.8-.7-1s-1 .2-1.2.4c-.7.7-.8 1.7-.7 2.6 0 .6.2 1.3.7 1.6.7.4 1.7 0 2.3-.4.2.4.5.7 1.1.7.7-.1 1.3-.5 1.8-.9 0 .5.1 1.1.5 1.3.6.3 1.4-.1 1.8-.6.5-.7.8-1.6.5-2.4-.3-.2-.6-.3-.9-.3zm-3.9-.5c0-.1.1-.3.2-.4.3.1.3.4.3.6-.1.4-.3.9-.7 1.2v-.2c0-.3 0-.8.2-1.2zm3.7-2.1c.1-.2.2-.3.3-.4.4.5 0 1.2-.2 1.7-.2.4-.5.9-.8 1.4.1-.4.2-.9.3-1.3 0-.6.2-1 .4-1.4zm-.3 5.3s-.1.1-.1.2h-.1c-.3-.1-.3-.8-.3-1v-.7c.1-.1.2-.3.4-.4.3-.2.4.2.5.4 0 .5-.2 1.1-.4 1.5z"/><g><path class="st4" d="M247.8 70.7c.3-.7.8-.2 1 .1.3.5 0 1-.3 1.4l-.9.9c-.2.1-.3.2-.5.4 0 .1-.1.2 0 .3.3.2.8.2 1.1.2.6 0 1.1 0 1.6-.3.3-.1.6-.8 0-.6-.4.2-.9.2-1.3.1-.2 0-.7 0-.9-.1v.3c-.2.4-.1.2.1.1s.3-.2.5-.4c.3-.2.5-.5.7-.8.5-.5.7-1.2.6-1.9-.3-1.6-2-.4-2.4.5-.2.5.6.1.7-.2zM251.9 73.3c.6 1.8 3.2.5 2.8-1-.2-.8-1.1-.7-1.8-.9-.3-.1-.4-.4-.4-.7.1-.3.1-.4-.1-.2.1 0 .2-.1.3-.1.5-.1 1.1-.1 1.6.2.2.1.8-.5.5-.6-.6-.3-1.4-.3-2.1-.1-.7.2-.8.8-.8 1.4 0 .8.7.9 1.3 1 .5.1.8.2.9.7.1.8-.8.7-1.2.5-.2-.1-.3-.3-.4-.5-.1-.5-.7 0-.6.3zM258 70.1c-.7 1.2-1.7 2.4-2.6 3.6-.4.5.2.5.5.1.9-1.2 1.9-2.4 2.7-3.7.3-.6-.4-.3-.6 0zM256.6 69.8c-.5 0-.8.4-.9.9-.1.4.2.7.6.8.9-.1 1.3-1.7.3-1.7-.2 0-.6.5-.3.5.2 0 .3.2.4.4v.2c0 .1 0 0 0 0h-.1c-.2 0-.3-.2-.4-.4v-.3h.1c.3 0 .6-.4.3-.4zM257.9 72.4c-.5 0-.8.4-.9.9-.1.4.2.7.6.8.9 0 1.3-1.6.3-1.7-.2 0-.6.5-.3.5.2 0 .3.2.4.4v.2c0 .1 0 0 0 0h-.1c-.2 0-.3-.2-.4-.4v-.3h.1c.3.1.6-.4.3-.4zM250.8 74.9c.3-.3.5-.7.6-1.2 0-.1 0-.3-.1-.4-.2-.2-.4 0-.6 0-.2.1-.4.3-.4.5s.2.2.3.1v.2c0 .1-.1.2-.1.2v.2c.1-.1 0 0 0 0-.1.1-.3.4-.2.5.1.2.4 0 .5-.1z"/></g><g><path class="st4" d="M290.2 50.6c-.3-.4-.8-.3-1.2-.2 0-.3.1-.7.1-1s-.5-.2-.6-.2c-.2.1-.5.2-.5.5-.3-.1-.6 0-.9.2-.8.4-1.1 1.3-1.3 2.1 0 .2-.1.4-.1.5-.1.3-.2.8-.5 1-.3.1-.4-.9-.4-1.1-.1-1.1.2-2.3.4-3.3.1-.3-.3-.3-.5-.3-.3.1-.6.3-.7.5-.2.8-.3 1.7-.5 2.5-.1.4-.2.7-.4 1.1-.1 0-.2-.1-.2-.1-.5-.4-.4-1.5-.3-1.9.1-.7.3-1.4.6-2.1.1-.2 0-.4-.3-.4s-.6.2-.7.5c-.3.6-.4 1.2-.6 1.8-.1.6-.4 1.1-.8 1.6l-.1.1v-.1c-.1-.5-.1-1 0-1.5 0-.7.1-1.4.2-2.1v-.1c0-.6-.4-1-1.1-.9-.6 0-1.2.4-1.5.9-.4.6-.6 1.4-.6 1.5-.1.6-.4 1.2-.7 1.7-.1 0-.1-.2-.1-.2-.1-.3-.2-.7-.2-1-.1-1-.1-2.1 0-3.1v-.1l-.1-.1c-.3-.1-.6.2-.8.3-.6.7-.6 1.6-.8 2.4-.1.5-.2.9-.3 1.4 0 0 0 .1-.1.2-.1-.1-.2-.2-.2-.4s-.1-.3-.3-.2c-.3.1-.6.3-.7.6-.2-.1-.3-.2-.4-.4-.1-.3-.1-.7-.2-1v-.7c.1-.6.1-1.1.1-1.7v-.5c0-.3-.3-.2-.5-.1-.3.1-.6.4-.6.7v1.8c0 .3 0 .5-.1.8 0 .4-.1.8-.2 1.1-.1 0-.2 0-.2-.1-.6-.2-.6-1.3-.6-1.8 0-.7 0-1.5.3-2.1 0-.1.1-.2 0-.3s-.4 0-.5.1-.5.4-.7.5c-.5.2-.9.1-1.3-.2-.1-.2-.3-.3-.4-.4-.4-.2-.9.1-1.3.3-.1-.3-.1-.6-.2-1-.1-.3-.5 0-.6.1-.2.2-.4.4-.4.7-.3.1-.6.3-.8.5-.6.7-.7 1.7-.7 2.5 0 .2 0 .3.1.5 0 .2 0 .9-.3 1.2-.3.3-.7-.7-.7-.8-.3-1-.4-2.2-.5-3.3 0-.3-.3-.2-.5 0s-.5.5-.5.8c0 .9.2 1.7.2 2.6 0 .4 0 .8-.1 1.2v.1h-.2c-.6-.1-.7-1.2-.8-1.7-.1-.7-.1-1.5 0-2.2 0-.2-.1-.4-.4-.2-.3.1-.5.5-.6.8-.1 1-.1 1.9.1 2.8.1.6.4 1.7 1.3 1.6.6-.1 1-.5 1.3-1 .1.1.1.2.2.3.5.6 1.3 0 1.7-.5l.2-.2c.1.1.2.3.3.4.3.2.6.3 1 .2.1 0 .3-.1.4-.2.1 1 .1 2.1.1 3.1 0 .3.3.2.5.1.2-.2.5-.4.5-.7v-2.5c.4 0 .8-.2 1.1-.6.7-.7.8-1.8.7-2.7 0-.2 0-.3-.1-.5l.9-.3c-.1.7-.2 1.4-.1 2.1.1.7.2 1.8 1.1 1.9.5 0 .9-.2 1.2-.6.2.4.6.6 1.1.5.2 0 .3-.1.5-.2.4.4.9.3 1.4 0 .3-.3.6-.7.7-1.1 0 .1 0 .2.1.4.1.3.1.7.4 1s.7.2 1 0c.3-.1.5-.4.7-.5.1.3.2.7.5.8.5.3 1.1 0 1.4-.2 0 .3.1.5.4.6.6.2 1.2-.3 1.5-.6v-.1c.1.5.3.9.8 1.1.6.2 1.1 0 1.4-.4 0 .1.1.3.1.4.3.8 1.2.5 1.7.2.1 0 .1-.1.2-.1 0 .2.1.3.2.5.2.3.5.5.8.6h.4c-.2 1-.5 2-.8 3-.1.3.2.3.4.3.3 0 .5-.2.6-.5.3-.8.5-1.6.7-2.4.4.1.8.1 1.1-.1.8-.4 1.2-1.4 1.4-2.3-.2-.6-.1-1.8-.7-2.4zm-24.4 1.5h-.2c-.2-.1-.3-.2-.4-.4-.3-.5-.4-1.1-.4-1.6s0-1 .2-1.4c0 0 .1 0 .1.1.4.2.6.7.6 1.1 0 .6.1 1.4.1 2.2zm1.7-.3c0 .1 0 .1 0 0 0 .1 0 .1 0 0-.4.2-.7-.1-.7-.5 0-.8-.1-1.6-.2-2.3v-.6c.1 0 .2 0 .3.1l.1.1c.3.4.4 1 .5 1.4.2.7.3 1.3 0 1.8zm12.3-2.6c-.2.9-.2 1.9-.5 2.8 0 0-.1.1-.1.2h-.2c-.2-.1-.3-.4-.3-.6-.2-.7-.1-1.5.2-2.2.1-.2.2-.5.3-.6h.2c.3 0 .4.2.4.4zm7.9 2.7c-.1.7-.2 1.5-.4 2.2 0 0-.1-.1-.2-.1-.2-.2-.2-.4-.3-.6-.1-.6-.1-1.2 0-1.7.1-.4.2-.9.5-1.3l.1.1c.3.5.3 1 .3 1.4zm1.8 1.2c-.1.5-.2 1.2-.6 1.6l-.1.1c-.4-.1-.5-.5-.5-.8.2-.8.3-1.5.4-2.3 0-.2.1-.4.2-.5.1 0 .2.2.3.3.4.4.3 1.1.3 1.6z"/><path class="st4" d="M285.6 47.7c.1-.1.5-.3.3-.6-.2-.2-.6-.1-.7 0-.4.2-.7.3-1.1.1-.2-.1-.3-.2-.4-.4-.2-.4-1.3.2-1.1.6.7 1.2 2.2.8 3 .3zM256 49.5c-.1-.4-.2-.9-.4-1.3.9-.3 1.8-.5 2.6-1 .3-.1.5-.5.6-.8s-.1-.3-.4-.2c-1.6.7-3.3 1-4.8 1.6-.6.2-1.2.7-1.6 1.3-.4.8-.3 1.4.1 2 .2.4 1-.7.8-1.1-.1-.2-.3-.4-.3-.7v-.1c.3-.3 1-.5 1.4-.6.1 0 .3-.1.4-.1.2.5.4.9.5 1.4-.5.4-1 .9-1.2 1.5-.6 1.2-.7 4.3 1.4 4 1.4-.2 1.5-1.9 1.4-3-.1-.6-.2-1.2-.3-1.9h.4c.8.1 1.2.8 1.3 1.5.1.6 0 1.4-.4 1.9-.2.2-.4.6-.3.8.1.2.5-.1.6-.2 1.1-1.2 1.6-3.2.5-4.5-.5-.6-1.5-.7-2.3-.5zm-.5 4.8c-.3 0-.6-.1-.9-.3-.5-.5-.7-1.8-.2-2.6.2-.3.5-.5.8-.7.2.8.3 1.5.4 2.3.1.3.1.7.1 1v.2c-.1.1-.1.1-.2.1z"/></g><g><path class="st8" d="M243.3 41.2c-.1 0-.2-.2-.3-.3-.5-.2-.9.1-1.3.1-1.1 0-1.5 0-2.8-.4 0-1.2.7-1.9 1-2.8.3-.8-.1-1.7-.2-2.6v-1.7c-.4.4-.2 1.4-.3 1.9-.2-.7-.1-1.6-.4-2.2-.2.7 0 1.6 0 2.2-.2-.6-.2-1.4-.5-1.9-.3.6.2 1.6.1 2.1-.2-.5-.4-1.2-.6-1.7-.1.8.2 1.4.2 1.9-.2-.4-.3-1-.7-1.3 0 .5.3 1.1.5 1.5-.3-.2-.4-.5-.7-.7.1.4.3.6.4.9-.2-.1-.3-.4-.6-.5 0 .4.3.4.4.7-.2-.1-.3-.2-.5-.3 0 .3.4.4.3.6 0 0-.3-.1-.3 0 .1 0 .3.2.2.2h-.2c0 .2.2.1.2.3-.1 0-.1-.1-.2-.1 0 .2.1.1.1.3-1 1-.4 2.1-.5 3.2.1-.2-.8-.3-1.4-.6-.4-.1-.4-.6-.7-.7 0-.1.1 0 .1-.1-.1-.1-.2-.1-.3-.2.1 0 .4.1.4-.1-.2-.1-.6-.2-.5-.4.2 0 .5.1.6.1-.3-.1-.7-.3-.7-.6.2.1.6.3.9.2-.4-.2-1-.5-1.1-.8.3.1.7.5 1 .5-.5-.1-.9-.7-1.3-.7.2.4.9.7 1.1 1-.3-.2-.7-.4-1.1-.6.2.5.7.6 1 .9-.3 0-.5-.2-.9-.2.1.4.7.3.9.6-.1-.1-.4 0-.6 0 .1.2.4.2.6.3-.2 0-.4 0-.5.1.1.1.4.1.5.2-.1 0-.3 0-.3.1s.3 0 .3.1c-.1 0-.1.1-.1.2.1 0 .2 0 .2.1-.1 0-.1.1-.1.1.5.3.8 1.1 1.5 1.3-.4.3.4.5-4.1 2.1.2 0 2-.4 2.5-.6.5-.2 1.1-.4 1.6-.5.1 0 .2-.1.4-.1.9-.1 1.8.1 2.7-.5-.7.1-1.9.2-2.4-.2.6-.9.2-3.3.7-3.9.5-.5 1.2-2 2.2-.7.2.2.2.5-.2 1.1-.4.7-.7 1-.6 2.5 0 .3.1.6-.5.6 1.9.4 2.5.2 3.7 0 .4-.1.9-.3 1 0 0 .1-.4.1-.7.1-.5 0 .2.2.5.2.1 0 1.1-.1 1.7-.2-.7 0-1 0-1.3-.1z"/><path class="st8" d="M237.6 31.2c-4.5 0-8.1 3.6-8.1 8.1s3.6 8.1 8.1 8.1 8.1-3.6 8.1-8.1c0-4.4-3.7-8.1-8.1-8.1m0 .3c4.3 0 7.8 3.5 7.8 7.8s-3.5 7.8-7.8 7.8-7.8-3.5-7.8-7.8 3.5-7.8 7.8-7.8"/></g></g></g></g><g id="snow"><g id="clock"><linearGradient id="SVGID_1_" gradientUnits="userSpaceOnUse" x1="348.35" y1="104.001" x2="364.337" y2="58.703" gradientTransform="matrix(1 0 0 -1 0 57)"><stop offset="0" stop-color="#404B71"/><stop offset=".604" stop-color="#3C476E"/><stop offset="1" stop-color="#354169"/></linearGradient><path class="st9" d="M351.8-6l-1.7-6.4 1.6-2.7.2.8c.2.8 1.1 1.3 1.9 1.1.1 0 .3-.1.4-.2.6-.3.9-1.1.7-1.8l-1-3.9 1.9-3.3 1.9 3.3-1 3.9c-.2.8.3 1.7 1.1 1.9.4.1.9 0 1.2-.2.4-.2.6-.5.7-1l.2-.8 1.6 2.7-1.7 6.4c-.2.8.3 1.7 1.1 1.9.4.1.9 0 1.2-.2.4-.2.6-.5.7-1l.9-3.3 2.5 4.4c.4.8 1.4 1 2.2.6.8-.4 1-1.4.6-2.2l-2.5-4.4 3.3.9c.4.1.9 0 1.2-.2.4-.2.6-.5.7-1 .2-.8-.3-1.7-1.1-1.9l-6.4-1.7-1.6-2.7.8.2c.4.1.9 0 1.2-.2.4-.2.6-.5.7-1 .2-.8-.3-1.7-1.1-1.9l-3.8-1-1.9-3.3h3.8l2.8 2.8c.5.5 1.3.6 1.9.3l.3-.3c.6-.6.6-1.6 0-2.2l-.6-.6h3.1l4.7 4.7c.5.5 1.3.6 1.9.3l.3-.3c.6-.6.6-1.6 0-2.2l-2.4-2.4h5c.3 0 .6-.1.8-.2.5-.3.8-.8.8-1.4 0-.9-.7-1.6-1.6-1.6h-5l2.4-2.4c.6-.6.6-1.6 0-2.2s-1.6-.6-2.2 0l-4.7 4.7h-3.1l.6-.6c.6-.6.6-1.6 0-2.2s-1.6-.6-2.2 0l-2.8 2.8h-3.8l1.9-3.3 3.9-1c.1 0 .3-.1.4-.2.6-.3.9-1.1.7-1.8-.2-.8-1.1-1.3-1.9-1.1l-.8.2 1.6-2.7 6.4-1.7c.1 0 .3-.1.4-.2.6-.4.9-1.1.7-1.8-.2-.8-1.1-1.3-1.9-1.1l-3.3.9 2.5-4.4c.4-.8.2-1.7-.6-2.2-.8-.4-1.7-.2-2.2.6l-2.5 4.4-.9-3.3c-.2-.8-1.1-1.3-1.9-1.1-.8.2-1.4 1.1-1.1 1.9l1.7 6.4L360-36l-.2-.8c-.2-.8-1.1-1.3-1.9-1.1-.8.2-1.3 1.1-1.1 1.9l1 3.9-1.9 3.3L354-32l1-3.9c.2-.8-.3-1.7-1.1-1.9-.8-.2-1.7.3-1.9 1.1l-.2.8-1.6-2.7 1.7-6.4c.2-.8-.3-1.7-1.1-1.9-.8-.2-1.7.3-1.9 1.1l-.9 3.3-2.5-4.4c-.4-.8-1.4-1-2.2-.6-.8.4-1 1.4-.6 2.2l2.5 4.4-3.3-.9c-.8-.2-1.7.3-1.9 1.1-.2.8.3 1.7 1.1 1.9l6.4 1.7 1.6 2.7-.8-.2c-.8-.2-1.7.3-1.9 1.1-.2.8.3 1.7 1.1 1.9l3.8 1 1.9 3.3h-3.8l-2.8-2.8c-.6-.6-1.6-.6-2.2 0-.6.6-.6 1.6 0 2.2l.6.6h-3.1l-4.7-4.7c-.6-.6-1.6-.6-2.2 0-.6.6-.6 1.6 0 2.2l2.4 2.4h-5c-.9 0-1.6.7-1.6 1.6s.7 1.6 1.6 1.6h5l-2.4 2.4c-.6.6-.6 1.6 0 2.2.5.5 1.3.6 1.9.3l.3-.3 4.7-4.7h3.1l-.6.6c-.6.6-.6 1.6 0 2.2.5.5 1.3.6 1.9.3l.3-.3 2.8-2.8h3.8l-1.9 3.3-3.9 1c-.8.2-1.3 1.1-1.1 1.9s1.1 1.3 1.9 1.1l.8-.2-1.6 2.7-6.4 1.7c-.8.2-1.3 1.1-1.1 1.9.2.8 1.1 1.3 1.9 1.1l3.3-.9-2.5 4.4c-.4.8-.2 1.7.6 2.2.5.3 1.1.3 1.6 0 .2-.1.4-.3.6-.6l2.5-4.4.9 3.3c.2.8 1.1 1.3 1.9 1.1.1 0 .3-.1.4-.2.6.3.9-.4.7-1.1z"/><linearGradient id="SVGID_2_" gradientUnits="userSpaceOnUse" x1="229.563" y1="40.123" x2="234.396" y2="26.427" gradientTransform="matrix(1 0 0 -1 0 57)"><stop offset="0" stop-color="#404B71"/><stop offset=".604" stop-color="#3C476E"/><stop offset="1" stop-color="#354169"/></linearGradient><path class="st10" d="M230.7 29.2l-.5-1.9.5-.8.1.2c.1.3.3.4.6.3h.1c.2-.1.3-.3.2-.5l-.3-1.2.6-1 .6 1-.3 1.2c-.1.3.1.5.3.6h.4c.1-.1.2-.2.2-.3l.1-.2.5.8-.5 1.9c-.1.3.1.5.3.6h.4c.1-.1.2-.2.2-.3l.3-1 .8 1.3c.1.2.4.3.7.2.2-.1.3-.4.2-.7l-.8-1.3 1 .3h.4c.1-.1.2-.2.2-.3.1-.3-.1-.5-.3-.6l-1.9-.5-.8-1 .2.1h.4c.1-.1.2-.2.2-.3.1-.3-.1-.5-.3-.6l-1.2-.3-.6-1h1.2l.9.9c.2.2.4.2.6.1 0 0 .1 0 .1-.1.2-.2.2-.5 0-.7l-.2-.2h.9l1.4 1.4c.2.2.4.2.6.1 0 0 .1 0 .1-.1.2-.2.2-.5 0-.7l-.7-.7h1.5c.1 0 .2 0 .2-.1.1-.1.2-.2.2-.4 0-.3-.2-.5-.5-.5h-1.5l.7-.7c.2-.2.2-.5 0-.7-.2-.2-.5-.2-.7 0l-1.4 1.4h-.9l.2-.2c.2-.2.2-.5 0-.7-.2-.2-.5-.2-.7 0l-.9.9h-1.2l.6-1 1.2-.3h.1c.2-.1.3-.3.2-.5-.1-.3-.3-.4-.6-.3l-.2.1.5-.8 1.9-.5h.1c.2-.1.3-.3.2-.5-.1-.3-.3-.4-.6-.3l-1 .3.8-1.3c.1-.2.1-.5-.2-.7-.2-.1-.5-.1-.7.2l-.8 1.3-.3-1c-.1-.3-.3-.4-.6-.3-.3.1-.4.3-.3.6l.5 1.9-.5.8-.1-.2c-.1-.3-.3-.4-.6-.3-.3.1-.4.3-.3.6l.3 1.2-.6 1-.6-1 .3-1.2c.1-.3-.1-.5-.3-.6-.3-.1-.5.1-.6.3l-.1.2-.5-.8.5-1.9c.1-.3-.1-.5-.3-.6-.3-.1-.5.1-.6.3l-.3 1-.8-1.3c-.1-.2-.4-.3-.7-.2-.2.1-.3.4-.2.7l.8 1.3-1-.3c-.3-.1-.5.1-.6.3-.1.3.1.5.3.6l1.9.5.5.8-.2-.1c-.3-.1-.5.1-.6.3-.1.3.1.5.3.6l1.2.3.6 1h-.6l-.9-.9c-.2-.2-.5-.2-.7 0-.2.2-.2.5 0 .7l.2.2h-.9l-1.4-1.4c-.2-.2-.5-.2-.7 0-.2.2-.2.5 0 .7l.7.7h-1.5c-.3 0-.5.2-.5.5s.2.5.5.5h1.5l-.7.7c-.2.2-.2.5 0 .7.2.2.4.2.6.1 0 0 .1 0 .1-.1l1.4-1.4h.9l-.2.2c-.2.2-.2.5 0 .7.2.2.4.2.6.1 0 0 .1 0 .1-.1l.9-.9h1.2l-.6 1-1.2.3c-.3.1-.4.3-.3.6.1.3.3.4.6.3l.2-.1-.5.8-1.9.5c-.3.1-.4.3-.3.6.1.3.3.4.6.3l1-.3-.8 1.3c-.1.2-.1.5.2.7.2.1.3.1.5 0 .1 0 .1-.1.2-.2l.8-1.3.3 1c.1.3.3.4.6.3h.1c0-.2.1-.5 0-.7z"/><linearGradient id="SVGID_3_" gradientUnits="userSpaceOnUse" x1="164.557" y1="15.521" x2="174.977" y2="-14.003" gradientTransform="matrix(1 0 0 -1 0 57)"><stop offset="0" stop-color="#404B71"/><stop offset=".604" stop-color="#3C476E"/><stop offset="1" stop-color="#354169"/></linearGradient><path class="st11" d="M167.1 68.1l-1.1-4.2 1-1.8.1.5c.1.6.7.9 1.3.7.1 0 .2-.1.2-.1.4-.2.6-.7.5-1.2l-.7-2.5 1.2-2.2 1.2 2.2-.7 2.5c-.1.6.2 1.1.7 1.3.3.1.6 0 .8-.1.2-.1.4-.4.5-.6l.1-.5 1 1.8-1.1 4.2c-.1.6.2 1.1.7 1.3.3.1.6 0 .8-.1.2-.1.4-.4.5-.6l.6-2.2 1.6 2.8c.3.5.9.7 1.4.4s.7-.9.4-1.4l-1.6-2.8 2.2.6c.3.1.6 0 .8-.1s.4-.4.5-.6c.1-.6-.2-1.1-.7-1.3l-4.2-1.1-1-1.8.5.1c.3.1.6 0 .8-.1.2-.1.4-.4.5-.6.1-.6-.2-1.1-.7-1.3l-2.5-.7-1.2-2.2h2.5l1.8 1.8c.3.3.9.4 1.2.2.1 0 .1-.1.2-.2.4-.4.4-1.1 0-1.5l-.4-.4h2l3 3c.3.3.9.4 1.2.2.1 0 .1-.1.2-.2.4-.4.4-1.1 0-1.5l-1.6-1.6h3.3c.2 0 .4 0 .5-.1.3-.2.5-.5.5-.9 0-.6-.5-1-1-1h-3.3l1.6-1.6c.4-.4.4-1.1 0-1.5-.4-.4-1.1-.4-1.5 0l-3 3h-2l.4-.4c.4-.4.4-1.1 0-1.5-.4-.4-1.1-.4-1.5 0l-1.8 1.8h-2.5l1.2-2.2 2.5-.7c.1 0 .2-.1.2-.1.4-.2.6-.7.5-1.2-.1-.6-.7-.9-1.3-.7l-.5.1 1-1.8 4.2-1.1c.1 0 .2-.1.2-.1.4-.2.6-.7.5-1.2-.1-.6-.7-.9-1.3-.7l-2.2.6 1.6-2.8c.3-.5.1-1.1-.4-1.4-.5-.3-1.1-.1-1.4.4l-1.6 2.8-.6-2.2c-.1-.6-.7-.9-1.3-.7-.5.1-.9.7-.7 1.3l1.1 4.2-1 1.8-.1-.5c-.1-.6-.7-.9-1.3-.7s-.9.7-.7 1.3l.7 2.5-1.2 2.2-1.2-2.2.7-2.5c.1-.6-.2-1.1-.7-1.3-.6-.1-1.1.2-1.3.7l-.1.5-1-1.8 1.1-4.2c.1-.6-.2-1.1-.7-1.3-.6-.1-1.1.2-1.3.7l-.6 2.2-1.6-2.8c-.3-.5-.9-.7-1.4-.4s-.7.9-.4 1.4l1.6 2.8-2.2-.6c-.6-.1-1.1.2-1.3.7-.1.6.2 1.1.7 1.3l4.2 1.1 1 1.8-.5-.1c-.6-.1-1.1.2-1.3.7-.1.6.2 1.1.7 1.3l2.5.7 1.2 2.2H165l-1.8-1.8c-.4-.4-1.1-.4-1.5 0-.4.4-.4 1.1 0 1.5l.4.4h-2l-3-3c-.4-.4-1.1-.4-1.5 0-.4.4-.4 1.1 0 1.5l1.6 1.6h-3.3c-.6 0-1 .5-1 1 0 .6.5 1 1 1h3.3L156 58c-.4.4-.4 1.1 0 1.5.3.3.9.4 1.2.2.1 0 .1-.1.2-.2l3-3h2l-.4.4c-.4.4-.4 1.1 0 1.5.3.3.9.4 1.2.2.1 0 .2-.1.2-.2l1.8-1.8h2.5l-1.2 2.2-2.5.7c-.5.2-.9.7-.7 1.3.1.6.7.9 1.3.7l.5-.1-1 1.8-4.1.8c-.5.2-.9.7-.7 1.3.1.6.7.9 1.3.7l2.2-.6-1.6 2.8c-.3.5-.1 1.1.4 1.4.3.2.7.2 1 0 .2-.1.3-.2.4-.4l1.6-2.8.6 2.2c.1.6.7.9 1.3.7.1 0 .2-.1.3-.1.2-.2.4-.6.3-1.1z"/><linearGradient id="SVGID_4_" gradientUnits="userSpaceOnUse" x1="281.941" y1="13.255" x2="311.039" y2="-54.847" gradientTransform="matrix(1 0 0 -1 0 57)"><stop offset="0" stop-color="#404B71"/><stop offset=".604" stop-color="#3C476E"/><stop offset="1" stop-color="#354169"/></linearGradient><path class="st12" d="M329.3 74.3H323l3-3c.8-.8.8-2 0-2.8s-2-.8-2.8 0l-5.9 5.9h-3.9l1.7-1.7c.8-.8.8-2 0-2.8s-2-.8-2.8 0l-4.6 4.6H304l.1-.1c.8-.8.8-2 .1-2.7-.3-1-1.4-1.6-2.4-1.3h-.2l1.9-3.3 6.2-1.7c.2 0 .3-.1.5-.2.8-.4 1.2-1.4.9-2.2-.3-1.1-1.4-1.7-2.4-1.4l-2.4.6 2-3.4 8-2.1c.2 0 .3-.1.5-.2.8-.4 1.2-1.4.9-2.2-.3-1.1-1.4-1.7-2.4-1.4l-4.2 1.1 3.2-5.5c.6-1 .2-2.2-.7-2.7-1-.5-2.2-.2-2.7.7l-3.2 5.5-1.1-4.2c-.3-1.1-1.4-1.7-2.4-1.4-1.1.3-1.7 1.4-1.4 2.4l2.1 8-2 3.4-.6-2.4c-.3-1.1-1.4-1.7-2.4-1.4-1.1.3-1.7 1.4-1.4 2.4l1.7 6.2-1.9 3.3v-.2c-.3-1-1.3-1.7-2.4-1.4-1-.2-2.1.4-2.3 1.4v.2l-1.9-3.3 1.7-6.2c.3-1.1-.3-2.2-1.4-2.4-1.1-.3-2.2.3-2.4 1.4l-.6 2.4-2-3.4 2.1-8c.3-1.1-.3-2.2-1.4-2.4-1.1-.3-2.2.3-2.4 1.4l-1.1 4.2-3.2-5.5c-.5-1-1.8-1.3-2.7-.7-1 .5-1.3 1.8-.7 2.7l3.2 5.5-4.2-1.1c-1.1-.3-2.2.3-2.4 1.4-.3 1.1.3 2.2 1.4 2.4l8 2.1 2 3.4-2.4-.6c-1.1-.3-2.2.3-2.4 1.4-.3 1.1.3 2.2 1.4 2.4l6.2 1.7 1.9 3.3h-.2c-1-.3-2 .3-2.4 1.3-.8.8-.8 2 0 2.8l.1.1H284l-4.6-4.6c-.8-.8-2-.8-2.8 0-.8.8-.8 2 0 2.8l1.7 1.7h-3.9l-5.9-5.9c-.8-.8-2-.8-2.8 0-.8.8-.8 2 0 2.8l3 3h-6.3c-1.1 0-2 .9-2 2s.9 2 2 2h6.3l-3 3c-.8.8-.8 2 0 2.8.7.7 1.6.8 2.4.3.1-.1.3-.2.4-.3l5.9-5.9h3.9l-1.7 1.7c-.8.8-.8 2 0 2.8.7.7 1.6.8 2.4.3.1-.1.3-.2.4-.3l4.6-4.6h3.8l-.1.1c-.8.8-.8 2-.1 2.7.3 1 1.4 1.6 2.4 1.3h.2l-1.9 3.3-6.2 1.7c-1.1.3-1.7 1.4-1.4 2.4.3 1.1 1.4 1.7 2.4 1.4l2.4-.6-2 3.4-8 2.1c-1.1.3-1.7 1.4-1.4 2.4.3 1.1 1.4 1.7 2.4 1.4l4.2-1.1-3.2 5.5c-.5 1-.2 2.2.7 2.7.6.4 1.4.3 2 0 .3-.2.5-.4.7-.7l3.2-5.5 1.1 4.2c.3 1.1 1.4 1.7 2.4 1.4.2 0 .3-.1.5-.2.8-.4 1.2-1.3.9-2.2l-2.1-8 2-3.4.6 2.4c.3 1.1 1.4 1.7 2.4 1.4.2 0 .3-.1.5-.2.8-.4 1.2-1.3.9-2.2l-1.7-6.2 1.9-3.3v.2c.3 1 1.3 1.7 2.4 1.4.5.1 1 0 1.4-.2.4-.3.8-.7.9-1.2v-.2l1.9 3.3-1.7 6.2c-.3 1.1.3 2.2 1.4 2.4.5.1 1.1.1 1.5-.2s.8-.7.9-1.2l.6-2.4 2 3.4-2.1 8c-.3 1.1.3 2.2 1.4 2.4.5.1 1.1.1 1.5-.2s.8-.7.9-1.2l1.1-4.2 3.2 5.5c.5 1 1.8 1.3 2.7.7 1-.6 1.3-1.8.7-2.7l-3.2-5.5 4.2 1.1c.5.1 1.1.1 1.5-.2.4-.3.8-.7.9-1.2.3-1.1-.3-2.2-1.4-2.4l-8-2.1-2-3.4 2.4.6c.5.1 1.1.1 1.5-.2.4-.3.8-.7.9-1.2.3-1.1-.3-2.2-1.4-2.4l-6.2-1.7-1.9-3.3h.2c.5.1 1.1.1 1.5-.2.4-.2.7-.6.9-1.1.8-.8.8-2 0-2.8l-.1-.1h3.8l4.6 4.6c.7.7 1.6.8 2.4.3.1-.1.3-.2.4-.3.8-.8.8-2 0-2.8l-1.7-1.7h3.9l5.9 5.9c.7.7 1.6.8 2.4.3.1-.1.3-.2.4-.3.8-.8.8-2 0-2.8l-3-3h6.3c.4 0 .7-.1 1-.3.6-.3 1-1 1-1.7-.1-1.1-1-2-2.1-2zM297 78.5c-1.2.7-2.8.3-3.5-.9s-.3-2.8.9-3.5 2.8-.3 3.5.9c.7 1.2.3 2.8-.9 3.5z"/><linearGradient id="SVGID_5_" gradientUnits="userSpaceOnUse" x1="241.177" y1="97.547" x2="253.199" y2="69.404" gradientTransform="matrix(1 0 0 -1 0 57)"><stop offset="0" stop-color="#404B71"/><stop offset=".604" stop-color="#3C476E"/><stop offset="1" stop-color="#354169"/></linearGradient><path class="st13" d="M262.8-26.2h-1l.4-.5c.2-.3.1-.8-.2-1s-.8-.1-1 .2l-.9 1.3h-1.5l2-2.8c.2-.3.1-.8-.2-1-.3-.2-.8-.1-1 .2l-2.6 3.7h-1.3l1.2-1.7c.2-.3.1-.8-.2-1s-.8-.1-1 .2l-1.7 2.5h-.9l.4-.5c.2-.3.1-.8-.2-1s-.8-.1-1 .2l-.9 1.3h-.3l-.8-1.5.2-.3 1.6-.1c.4 0 .7-.4.7-.8s-.4-.7-.8-.7l-.6.1.4-.8 3-.3c.4 0 .7-.4.7-.8s-.4-.7-.8-.7l-2 .2.7-1.1 4.5-.4c.4 0 .7-.4.7-.8s-.4-.7-.8-.7l-3.4.3.7-1.3 1.6-.1c.4 0 .7-.4.7-.8s-.4-.7-.8-.7l-.6.1.5-.9c.2-.3.1-.8-.3-1-.3-.2-.8-.1-1 .3l-.5.9-.3-.6c-.2-.4-.6-.5-1-.4-.4.2-.5.6-.4 1l.7 1.5-.7 1.3-1.5-3.1c-.2-.4-.6-.5-1-.3s-.5.6-.4 1l1.9 4.1-.7 1.1-.9-1.8c-.2-.4-.6-.5-1-.4-.4.2-.5.6-.4 1l1.3 2.8-.4.8-.3-.6c-.2-.4-.6-.5-1-.3s-.5.6-.4 1l.7 1.5-.2.3h-1.7l-.2-.3.7-1.5c.2-.4 0-.8-.4-1s-.8 0-1 .3l-.3.6-.4-.8 1.3-2.8c.2-.4 0-.8-.4-1s-.8 0-1 .3l-.9 1.8-.7-1.1 1.9-4.1c.2-.4 0-.8-.4-1-.4-.2-.8 0-1 .4l-1.5 3.1-.7-1.3.7-1.5c.2-.4 0-.8-.4-1s-.8 0-1 .4l-.3.6-.5-.9c-.2-.3-.6-.5-1-.3-.3.2-.5.6-.3 1l.5.9-.6-.1c-.4 0-.8.3-.8.7 0 .4.3.8.7.8l1.6.1.7 1.3-3.4-.3c-.4 0-.8.3-.8.7 0 .4.3.8.7.8l4.5.4.7 1.1-2-.2c-.4 0-.8.3-.8.7 0 .4.3.8.7.8l3 .3.4.8-.6-.1c-.4 0-.8.3-.8.7 0 .4.3.8.7.8l1.6.1.2.3-.8 1.5h-.3l-.9-1.3c-.2-.3-.7-.4-1-.2-.3.2-.4.7-.2 1l.4.5h-.9l-1.7-2.5c-.2-.3-.7-.4-1-.2-.3.2-.4.7-.2 1l1.2 1.7h-1.3l-2.6-3.7c-.2-.3-.7-.4-1-.2-.3.2-.4.7-.2 1l2 2.8h-1.5l-.9-1.3c-.2-.3-.7-.4-1-.2-.3.2-.4.7-.2 1l.4.5h-1c-.4 0-.7.3-.7.7 0 .4.3.7.7.7h1l-.4.5c-.2.3-.1.8.2 1 .1.1.3.1.4.1.2 0 .5-.1.6-.3l.9-1.3h1.5l-2 2.8c-.2.3-.1.8.2 1 .1.1.3.1.4.1.2 0 .5-.1.6-.3l2.6-3.7h1.3l-1.2 1.7c-.2.3-.1.8.2 1 .1.1.3.1.4.1.2 0 .5-.1.6-.3l1.7-2.5h.9l-.4.5c-.2.3-.1.8.2 1 .1.1.3.1.4.1.2 0 .5-.1.6-.3l.9-1.3h.3l.8 1.5-.2.3-1.6.1c-.4 0-.7.4-.7.8s.4.7.7.7h.1l.6-.1-.4.8-3 .3c-.4 0-.7.4-.7.8s.4.7.7.7h.1l2-.2-.7 1.1-4.5.4c-.4 0-.7.4-.7.8s.4.7.7.7h.1l3.4-.3-.7 1.3-1.6.1c-.4 0-.7.4-.7.8s.4.7.7.7h.1l.6-.1-.5.9c-.2.3-.1.8.3 1 .1.1.2.1.4.1.3 0 .5-.1.6-.4l.5-.9.3.6c.1.3.4.4.7.4.1 0 .2 0 .3-.1.4-.2.5-.6.4-1l-.7-1.5.7-1.3 1.5 3.1c.1.3.4.4.7.4.1 0 .2 0 .3-.1.4-.2.5-.6.4-1l-1.9-4.1.7-1.1.9 1.8c.1.3.4.4.7.4.1 0 .2 0 .3-.1.4-.2.5-.6.4-1l-1.3-2.8.4-.8.3.6c.1.3.4.4.7.4.1 0 .2 0 .3-.1.4-.2.5-.6.4-1l-.7-1.5.2-.3h1.7l.2.3-.7 1.5c-.2.4 0 .8.4 1 .1 0 .2.1.3.1.3 0 .5-.2.7-.4l.3-.6.4.8-1.3 2.8c-.2.4 0 .8.4 1 .1 0 .2.1.3.1.3 0 .5-.2.7-.4l.9-1.8.7 1.1-1.9 4.1c-.2.4 0 .8.4 1 .1 0 .2.1.3.1.3 0 .5-.2.7-.4l1.5-3.1.7 1.3-.7 1.5c-.2.4 0 .8.4 1 .1 0 .2.1.3.1.3 0 .5-.2.7-.4l.3-.6.5.9c.1.2.4.4.6.4.1 0 .2 0 .4-.1.3-.2.5-.6.3-1l-.5-.9.6.1h.1c.4 0 .7-.3.7-.7 0-.4-.3-.8-.7-.8l-1.6-.1-.7-1.3 3.4.3h.1c.4 0 .7-.3.7-.7 0-.4-.3-.8-.7-.8l-4.5-.4-.7-1.1 2 .2h.1c.4 0 .7-.3.7-.7 0-.4-.3-.8-.7-.8l-3-.3-.4-.8.6.1h.1c.4 0 .7-.3.7-.7 0-.4-.3-.8-.7-.8H250l-.2-.3.8-1.5h.3l.9 1.3c.1.2.4.3.6.3.1 0 .3 0 .4-.1.3-.2.4-.7.2-1l-.4-.5h.9l1.7 2.5c.1.2.4.3.6.3.1 0 .3 0 .4-.1.3-.2.4-.7.2-1l-1.2-1.7h1.3l2.6 3.7c.1.2.4.3.6.3.1 0 .3 0 .4-.1.3-.2.4-.7.2-1l-2-2.8h1.5l.9 1.3c.1.2.4.3.6.3.1 0 .3 0 .4-.1.3-.2.4-.7.2-1l-.4-.5h1c.4 0 .7-.3.7-.7.3-.5 0-.8-.4-.8zM246.9-24l-.8-1.5.8-1.5h1.7l.8 1.5-.8 1.5h-1.7z"/><circle class="st4" cx="275.5" cy="-44.2" r="3.4"/><circle class="st4" cx="149.8" cy="20.1" r="3.4"/><circle class="st4" cx="154.8" cy="33.1" r="1.5"/><circle class="st4" cx="142.9" cy="41" r="1.5"/><circle class="st4" cx="263.5" cy="-47.6" r="1.5"/><circle class="st4" cx="291.1" cy="-11.7" r="3.8"/><circle class="st4" cx="320" cy="112" r="3.8"/><circle class="st4" cx="312" cy="-1.9" r="2.8"/><circle class="st4" cx="306.6" cy="6.6" r="1.5"/><circle class="st4" cx="280.4" cy="-3.4" r="1.5"/><circle class="st4" cx="359.9" cy="20.1" r="1.5"/><circle class="st4" cx="329.1" cy="-1.9" r="1.5"/><circle class="st4" cx="323.1" cy="9.6" r="1.5"/><circle class="st4" cx="321.5" cy="-2" r="1.5"/><circle class="st4" cx="329.1" cy="-11.7" r="1.5"/><circle class="st4" cx="369.3" cy="-.4" r="1.5"/><circle class="st4" cx="373.8" cy="-6.4" r="1.5"/><circle class="st4" cx="326.1" cy="103.5" r="1.5"/><circle class="st4" cx="337.4" cy="102" r="1.5"/><circle class="st4" cx="330.6" cy="110.5" r="1.5"/><circle class="st4" cx="298.6" cy="-13.2" r="1.5"/><circle class="st4" cx="305.1" cy="-6.4" r="1.5"/></g></g></svg>