<svg xmlns="http://www.w3.org/2000/svg" viewBox="0 0 231 337.7"><style>.st0{fill:#519E38;} .st1{fill:#F4F4F4;} .st2{fill:#D6D6D6;} .st3{fill:#EAEAEA;} .st4{fill:#FFFFFF;} .st5{fill:#EB008B;} .st6{fill:#62BA47;} .st7{fill-rule:evenodd;clip-rule:evenodd;fill:#E90E8A;} .st8{fill-rule:evenodd;clip-rule:evenodd;fill:#62BA47;} .st9{fill:#62BA46;}</style><g id="butylka_2"><path class="st0" d="M157.2 273.7v-112c0-39.4-16.4-54.5-16.4-54.5 4.3-24.4-7.4-31.8-7.4-31.8v-8.8h2.5V54c0-3.1-4.3-2.8-4.3-2.8H98.2s-4.3-.3-4.3 2.8v12.6h2.6v8.8h-.1s-11.7 7.4-7.4 31.8c0 0-16.4 15-16.4 54.5v112s-1.7 24.1 16 24.1h52.6c17.7 0 16-24.1 16-24.1z"/><path class="st1" d="M148.6 268V156c0-39.4-16.4-54.5-16.4-54.5 4.3-24.4-7.4-31.8-7.4-31.8v-9h-37v9h-.1s-11.7 7.4-7.4 31.8c0 0-16.4 15-16.4 54.5v112s-1.7 24.1 16 24.1H132.5c17.8 0 16.1-24.1 16.1-24.1z"/><path class="st2" d="M123 45.7H89.6s-4.3-.3-4.3 2.8v12.6H127.5V48.5c-.1-3.2-4.5-2.8-4.5-2.8z"/><path class="st3" d="M148.5 268V156c0-39.4-16.4-54.5-16.4-54.5 4.3-24.4-7.4-31.8-7.4-31.8v-9h-18.6V292H132.4c17.8.1 16.1-24 16.1-24z"/><path class="st4" d="M77.7 143.1h-.6c-2.6-.3-4.4-2.7-4-5.2 2.1-16.2 9.9-26 10.3-26.4 1.6-2 4.6-2.3 6.6-.7 2 1.6 2.3 4.6.7 6.6-.1.1-6.5 8.4-8.3 21.7-.4 2.3-2.4 4-4.7 4z"/><g><circle class="st5" cx="106.8" cy="198.1" r="23.3"/><circle class="st6" cx="88.2" cy="218.8" r="7.3"/><path class="st7" d="M95.8 169.5c0 1.6-1.3 3-3 3s-3-1.3-3-3 1.3-3 3-3c1.6 0 3 1.3 3 3z"/><path class="st8" d="M95.9 179.6c0 2.1-1.7 3.8-3.8 3.8-2.1 0-3.8-1.7-3.8-3.8 0-2.1 1.7-3.8 3.8-3.8 2.1-.1 3.8 1.6 3.8 3.8zM85.6 173.6c0 1.3-1 2.3-2.3 2.3-1.3 0-2.3-1-2.3-2.3 0-1.3 1-2.3 2.3-2.3 1.3 0 2.3 1.1 2.3 2.3z"/><path class="st6" d="M139.7 176.8c0 7.1-5.8 12.9-12.9 12.9-7.1 0-12.9-5.8-12.9-12.9 0-7.1 5.8-12.9 12.9-12.9 7.1 0 12.9 5.7 12.9 12.9z"/><path class="st4" d="M123.6 174.9c-1.1.1-1.4 1.4-1.4 2.3v.4c0 .4 0 .7-.1 1.1 0 .2-.1.5-.1.5-.4 0-.7-.5-.8-.8-.3-.7-.4-1.3-.6-2-.1-.7-.2-1.5-.3-2.3v-.9-.4-.2c.1-.6-.7 0-.8.2-.9 1.5-.6 3.3-.6 4.9 0 .4 0 .9-.1 1.3 0 .3-.1.8-.4 1.1-.2.2-.4 0-.6 0-.2-.1-.3-.3-.4-.6 0-.2-.3-.1-.4 0-.2.2-.4.5-.3.8.1.6.6 1.1 1.2.9 1-.3 1.4-1.4 1.6-2.3.1-.4.2-.9.2-1.3.1.6.3 1.3.6 1.8.2.4.6.9 1.1.8.4-.1.7-.5.9-1 .2.4.5.7 1 .7s1-.6 1.2-1c.2-.5.3-1.1.3-1.6.1-.9-.1-2.5-1.2-2.4zm.3 3.7c0 .1 0 .2-.1.3-.2 0-.4-.3-.4-.5-.2-.3-.2-.7-.3-1.1v-1.2c0-.1 0-.2.1-.3.5.3.6 1 .7 1.6.1.4.1.8 0 1.2zM136.4 176.4c-1.2-.4-1.8 1.1-2 2-.2.8-.4 2.2.6 2.6.5.2 1.1-.2 1.3-.5.4-.4.6-.9.7-1.4.2-.8.4-2.3-.6-2.7zm-.7 3.7c0 .1-.1.2-.2.3-.2-.1-.2-.5-.3-.6-.1-.4 0-.8 0-1.2.1-.4.2-.8.4-1.1 0-.1.1-.2.2-.3.4.5.3 1.2.2 1.8 0 .4-.1.8-.3 1.1zM133.3 176.6l.6-.9c.4-.6.8-1.4.8-2.2 0-.7-1-.8-1.5-.5-.7.4-1.2 1.1-1.4 1.9-.3 1-.4 2-.5 3-.4.4-1.1 1.3-1.7.9-.1-.1-.2-.3-.3-.5.5-.5.9-1 1.3-1.6.3-.5.6-1.4-.1-1.8-.6-.3-1.3 0-1.6.5-.4.5-.5 1-.6 1.6 0 .3-.1.8 0 1.3-.3.2-.8.3-1.1.3-.4-.1-.6-.6-.7-.9-.1-.5-.1-1.1 0-1.6 0-.2.1-.3.1-.5 0 0 0-.1.1-.1.3.1.4.5.4.7.1.4 1.1-.2 1-.6-.1-.4-.3-.8-.7-1-.4-.2-1 .2-1.2.4-.7.7-.8 1.7-.7 2.6 0 .6.2 1.3.7 1.6.7.4 1.7 0 2.3-.4.2.4.5.7 1.1.7.7-.1 1.3-.5 1.8-.9 0 .5.1 1.1.5 1.3.6.3 1.4-.1 1.8-.6.5-.7.8-1.6.5-2.4-.3-.1-.6-.3-.9-.3zm-3.9-.4c0-.1.1-.3.2-.4.3.1.3.4.3.6-.1.4-.3.9-.7 1.2v-.2c0-.4 0-.8.2-1.2zm3.7-2.1c.1-.2.2-.3.3-.4.4.5 0 1.2-.2 1.7-.2.4-.5.9-.8 1.4.1-.4.2-.9.3-1.3 0-.6.2-1 .4-1.4zm-.3 5.3s-.1.1-.1.2h-.1c-.3-.1-.3-.8-.3-1v-.7c.1-.1.2-.3.4-.4.3-.2.4.2.5.4 0 .4-.2 1-.4 1.5z"/><g><path class="st4" d="M83 217.7c.3-.7.8-.2 1 .1.3.5 0 1-.3 1.4l-.9.9c-.2.1-.3.2-.5.4 0 .1-.1.2 0 .3.3.2.8.2 1.1.2.6 0 1.1 0 1.6-.3.3-.1.6-.8 0-.6-.4.2-.9.2-1.3.1-.2 0-.7 0-.9-.1v.3c-.2.4-.1.2.1.1s.3-.2.5-.4c.3-.2.5-.5.7-.8.5-.5.7-1.2.6-1.9-.3-1.6-2-.4-2.4.5-.2.4.6 0 .7-.2zM87.1 220.3c.6 1.8 3.2.5 2.8-1-.2-.8-1.1-.7-1.8-.9-.3-.1-.4-.4-.4-.7.1-.3.1-.4-.1-.2.1 0 .2-.1.3-.1.5-.1 1.1-.1 1.6.2.2.1.8-.5.5-.6-.6-.3-1.4-.3-2.1-.1-.7.2-.8.8-.8 1.4 0 .8.7.9 1.3 1 .5.1.8.2.9.7.1.8-.8.7-1.2.5-.2-.1-.3-.3-.4-.5-.1-.5-.7 0-.6.3zM93.2 217.1c-.7 1.2-1.7 2.4-2.6 3.6-.4.5.2.5.5.1.9-1.2 1.9-2.4 2.7-3.7.3-.6-.4-.3-.6 0zM91.8 216.7c-.5 0-.8.4-.9.9-.1.4.2.7.6.8.9 0 1.3-1.6.3-1.7-.2 0-.6.5-.3.5.2 0 .3.2.4.4v.2c0 .1 0 0 0 0h-.1c-.2 0-.3-.2-.4-.4v-.3c0-.1 0 0 0 0h.1c.3.1.6-.4.3-.4zM93.1 219.4c-.5 0-.8.4-.9.9-.1.4.2.7.6.8.9-.1 1.3-1.7.3-1.7-.2 0-.6.5-.3.5.2 0 .3.2.4.4v.2c0 .1 0 0 0 0h-.1c-.2 0-.3-.2-.4-.4v-.3c0-.1 0 0 0 0h.1c.3.1.6-.4.3-.4zM86 221.9c.3-.3.5-.7.6-1.2 0-.1 0-.3-.1-.4-.2-.2-.4 0-.6 0-.2.1-.4.3-.4.5s.2.2.3.1v.2c0 .1-.1.2-.1.2v.2c.1-.1 0 0 0 0-.1.1-.3.4-.2.5.1.2.4 0 .5-.1z"/></g><g><path class="st4" d="M125.4 197.5c-.3-.4-.8-.3-1.2-.2 0-.3.1-.7.1-1 0-.3-.5-.2-.6-.2-.2.1-.5.2-.5.5-.3-.1-.6 0-.9.2-.8.4-1.1 1.3-1.3 2.1 0 .2-.1.4-.1.5-.1.3-.2.8-.5 1-.3.1-.4-.9-.4-1.1-.1-1.1.2-2.3.4-3.3.1-.3-.3-.3-.5-.3-.3.1-.6.3-.7.5-.2.8-.3 1.7-.5 2.5-.1.4-.2.7-.4 1.1-.1 0-.2-.1-.2-.1-.5-.4-.4-1.5-.3-1.9.1-.7.3-1.4.6-2.1.1-.2 0-.4-.3-.4s-.6.2-.7.5c-.3.6-.4 1.2-.6 1.8-.1.6-.4 1.1-.8 1.6l-.1.1v-.1c-.1-.5-.1-1 0-1.5 0-.7.1-1.4.2-2.1v-.1c0-.6-.4-1-1.1-.9-.6 0-1.2.4-1.5.9-.4.6-.6 1.4-.6 1.5-.1.6-.4 1.2-.7 1.7-.1 0-.1-.2-.1-.2-.1-.3-.2-.7-.2-1-.1-1-.1-2.1 0-3.1v-.1l-.1-.1c-.3-.1-.6.2-.8.3-.6.7-.6 1.6-.8 2.4-.1.5-.2.9-.3 1.4 0 0 0 .1-.1.2-.1-.1-.2-.2-.2-.4s-.1-.3-.3-.2c-.3.1-.6.3-.7.6-.2-.1-.3-.2-.4-.4-.1-.3-.1-.7-.2-1v-.7c.1-.6.1-1.1.1-1.7v-.5c0-.3-.3-.2-.5-.1-.3.1-.6.4-.6.7v1.8c0 .3 0 .5-.1.8 0 .4-.1.8-.2 1.1-.1 0-.2 0-.2-.1-.6-.2-.6-1.3-.6-1.8 0-.7 0-1.5.3-2.1 0-.1.1-.2 0-.3-.1-.1-.4 0-.5.1-.1.1-.5.4-.7.5-.5.2-.9.1-1.3-.2-.1-.2-.3-.3-.4-.4-.4-.2-.9.1-1.3.3-.1-.3-.1-.6-.2-1-.1-.3-.5 0-.6.1-.2.2-.4.4-.4.7-.3.1-.6.3-.8.5-.6.7-.7 1.7-.7 2.5 0 .2 0 .3.1.5 0 .2 0 .9-.3 1.2-.3.3-.7-.7-.7-.8-.3-1-.4-2.2-.5-3.3 0-.3-.3-.2-.5 0s-.5.5-.5.8c0 .9.2 1.7.2 2.6 0 .4 0 .8-.1 1.2v.1h-.2c-.6-.1-.7-1.2-.8-1.7-.1-.7-.1-1.5 0-2.2 0-.2-.1-.4-.4-.2-.3.1-.5.5-.6.8-.1 1-.1 1.9.1 2.8.1.6.4 1.7 1.3 1.6.6-.1 1-.5 1.3-1 .1.1.1.2.2.3.5.6 1.3 0 1.7-.5l.2-.2c.1.1.2.3.3.4.3.2.6.3 1 .2.1 0 .3-.1.4-.2.1 1 .1 2.1.1 3.1 0 .3.3.2.5.1.2-.2.5-.4.5-.7v-2.5c.4 0 .8-.2 1.1-.6.7-.7.8-1.8.7-2.7 0-.2 0-.3-.1-.5l.9-.3c-.1.7-.2 1.4-.1 2.1.1.7.2 1.8 1.1 1.9.5 0 .9-.2 1.2-.6.2.4.6.6 1.1.5.2 0 .3-.1.5-.2.4.4.9.3 1.4 0 .3-.3.6-.7.7-1.1 0 .1 0 .2.1.4.1.3.1.7.4 1 .3.3.7.2 1 0 .3-.1.5-.4.7-.5.1.3.2.7.5.8.5.3 1.1 0 1.4-.2 0 .3.1.5.4.6.6.2 1.2-.3 1.5-.6v-.1c.1.5.3.9.8 1.1.6.2 1.1 0 1.4-.4 0 .1.1.3.1.4.3.8 1.2.5 1.7.2.1 0 .1-.1.2-.1 0 .2.1.3.2.5.2.3.5.5.8.6h.4c-.2 1-.5 2-.8 3-.1.3.2.3.4.3.3 0 .5-.2.6-.5.3-.8.5-1.6.7-2.4.4.1.8.1 1.1-.1.8-.4 1.2-1.4 1.4-2.3-.2-.6-.1-1.7-.7-2.4zm-24.4 1.6h-.2c-.2-.1-.3-.2-.4-.4-.3-.5-.4-1.1-.4-1.6s0-1 .2-1.4c0 0 .1 0 .1.1.4.2.6.7.6 1.1 0 .6.1 1.4.1 2.2 0-.1 0 0 0 0zm1.7-.3s0 .1 0 0c0 .1 0 .1 0 0-.4.2-.7-.1-.7-.5 0-.8-.1-1.6-.2-2.3v-.6c.1 0 .2 0 .3.1l.1.1c.3.4.4 1 .5 1.4.2.6.3 1.3 0 1.8zm12.3-2.6c-.2.9-.2 1.9-.5 2.8 0 0-.1.1-.1.2h-.2c-.2-.1-.3-.4-.3-.6-.2-.7-.1-1.5.2-2.2.1-.2.2-.5.3-.6h.2c.3-.1.4.2.4.4zm7.9 2.7c-.1.7-.2 1.5-.4 2.2 0 0-.1-.1-.2-.1-.2-.2-.2-.4-.3-.6-.1-.6-.1-1.2 0-1.7.1-.4.2-.9.5-1.3l.1.1c.3.4.3 1 .3 1.4zm1.8 1.1c-.1.5-.2 1.2-.6 1.6l-.1.1c-.4-.1-.5-.5-.5-.8.2-.8.3-1.5.4-2.3 0-.2.1-.4.2-.5.1 0 .2.2.3.3.4.5.3 1.1.3 1.6z"/><path class="st4" d="M120.8 194.7c.1-.1.5-.3.3-.6-.2-.2-.6-.1-.7 0-.4.2-.7.3-1.1.1-.2-.1-.3-.2-.4-.4-.2-.4-1.3.2-1.1.6.7 1.2 2.2.8 3 .3zM91.2 196.5c-.1-.4-.2-.9-.4-1.3.9-.3 1.8-.5 2.6-1 .3-.1.5-.5.6-.8.1-.3-.1-.3-.4-.2-1.6.7-3.3 1-4.8 1.6-.6.2-1.2.7-1.6 1.3-.4.8-.3 1.4.1 2 .2.4 1-.7.8-1.1-.1-.2-.3-.4-.3-.7v-.1c.3-.3 1-.5 1.4-.6.1 0 .3-.1.4-.1.2.5.4.9.5 1.4-.5.4-1 .9-1.2 1.5-.6 1.2-.7 4.3 1.4 4 1.4-.2 1.5-1.9 1.4-3-.1-.6-.2-1.2-.3-1.9h.4c.8.1 1.2.8 1.3 1.5.1.6 0 1.4-.4 1.9-.2.2-.4.6-.3.8.1.2.5-.1.6-.2 1.1-1.2 1.6-3.2.5-4.5-.5-.6-1.5-.7-2.3-.5zm-.5 4.8c-.3 0-.6-.1-.9-.3-.5-.5-.7-1.8-.2-2.6.2-.3.5-.5.8-.7.2.8.3 1.5.4 2.3.1.3.1.7.1 1v.2c-.1.1-.1.1-.2.1z"/></g><g><path class="st9" d="M78.5 188.2c-.1 0-.2-.2-.3-.3-.5-.2-.9.1-1.3.1-1.1 0-1.5 0-2.8-.4 0-1.2.7-1.9 1-2.8.3-.8-.1-1.7-.2-2.6v-1.7c-.4.4-.2 1.4-.3 1.9-.2-.7-.1-1.6-.4-2.2-.2.7 0 1.6 0 2.2-.2-.6-.2-1.4-.5-1.9-.3.6.2 1.6.1 2.1-.2-.5-.4-1.2-.6-1.7-.1.8.2 1.4.2 1.9-.2-.4-.3-1-.7-1.3 0 .5.3 1.1.5 1.5-.3-.2-.4-.5-.7-.7.1.4.3.6.4.9-.2-.1-.3-.4-.6-.5 0 .4.3.4.4.7-.2-.1-.3-.2-.5-.3 0 .3.4.4.3.6 0 0-.3-.1-.3 0 .1 0 .3.2.2.2h-.2c0 .2.2.1.2.3-.1 0-.1-.1-.2-.1 0 .2.1.1.1.3-1 1-.4 2.1-.5 3.2.1-.2-.8-.3-1.4-.6-.4-.1-.4-.6-.7-.7 0-.1.1 0 .1-.1-.1-.1-.2-.1-.3-.2.1 0 .4.1.4-.1-.2-.1-.6-.2-.5-.4.2 0 .5.1.6.1-.3-.1-.7-.3-.7-.6.2.1.6.3.9.2-.4-.2-1-.5-1.1-.8.3.1.7.5 1 .5-.5-.1-.9-.7-1.3-.7.2.4.9.7 1.1 1-.3-.2-.7-.4-1.1-.6.2.5.7.6 1 .9-.3 0-.5-.2-.9-.2.1.4.7.3.9.6-.1-.1-.4 0-.6 0 .1.2.4.2.6.3-.2 0-.4 0-.5.1.1.1.4.1.5.2-.1 0-.3 0-.3.1s.3 0 .3.1c-.1 0-.1.1-.1.2.1 0 .2 0 .2.1-.1 0-.1.1-.1.1.5.3.8 1.1 1.5 1.3-.4.3.4.5-4.1 2.1.2 0 2-.4 2.5-.6.5-.2 1.1-.4 1.6-.5.1 0 .2-.1.4-.1.9-.1 1.8.1 2.7-.5-.7.1-1.9.2-2.4-.2.6-.9.2-3.3.7-3.9.5-.5 1.2-2 2.2-.7.2.2.2.5-.2 1.1-.4.7-.7 1-.6 2.5 0 .3.1.6-.5.6 1.9.4 2.5.2 3.7 0 .4-.1.9-.3 1 0 0 .1-.4.1-.7.1-.5 0 .2.2.5.2.1 0 1.1-.1 1.7-.2-.7 0-1 0-1.3-.1z"/><path class="st9" d="M72.8 178.2c-4.5 0-8.1 3.6-8.1 8.1s3.6 8.1 8.1 8.1 8.1-3.6 8.1-8.1-3.7-8.1-8.1-8.1m0 .3c4.3 0 7.8 3.5 7.8 7.8s-3.5 7.8-7.8 7.8-7.8-3.5-7.8-7.8 3.5-7.8 7.8-7.8"/></g></g></g></svg>