<svg xmlns="http://www.w3.org/2000/svg" xmlns:xlink="http://www.w3.org/1999/xlink" viewBox="168 -173 394.5 402"><style>.st0{fill:#54A4AF;} .st1{fill:#519E38;} .st2{fill:#FFFFFF;} .st3{fill:#EFEFEF;} .st4{clip-path:url(#SVGID_2_);fill:#FFFFFF;} .st5{clip-path:url(#SVGID_4_);fill:#F2EDCD;} .st6{clip-path:url(#SVGID_6_);fill:#FFFFFF;} .st7{clip-path:url(#SVGID_8_);fill:#F2EDCD;} .st8{fill:none;}</style><g id="Layer_1"><g id="Layer_1_2_"><g id="Layer_1_1_"><g id="milkk_bottle"><path class="st0" d="M410.1 40.9l2.6 5.3c-.7-1.9-1.6-3.6-2.6-5.3z"/><path class="st1" d="M419 51.2c-.1-1.2-.4-2.3-1-3.4l-14.3-29.1c0-.1-.1-.1-.1-.2l-15.7-32c-.2-.5-.5-1-.8-1.5v-53.5c1.1-.2 2-1.1 2-2.3 0-1.3-1.1-2.4-2.3-2.4h-22c-.9-.2-1.7-.4-2.6-.6v.9c-.7.4-1.2 1.2-1.2 2.1s.5 1.7 1.2 2.1v54.2c-.3.5-.6 1-.8 1.5l-15.7 32c0 .1-.1.1-.1.2l-14.3 28.6h-.3l-.7 2.2v.2l-.8 2.7.7.8c.1.5.4 1 .6 1.5.1.1.1.2.2.3l.4-.4.6.7s3.8 1 2.4-1c-.8-1-.2-3.1.5-4.9l1.4-2.9 12.8-26v-.1l15.8-32c.2-.4.4-.8.7-1.2.4-.6.6-1.2.6-1.9v-54.3h16.3v53.8c0 .7.2 1.3.6 1.9.3.4.5.8.7 1.2l15.8 32L414 49.6c.2.4.4.9.4 1.3l-.4.4-.4 2.3-1.1 1.6-15.2.8h-63.5l-1.8.8s0 4 2.9 4h76.9s6.4.1 7.1-8.3c.1-.4.1-.8.1-1.3z"/><path class="st2" d="M381.6-72.1v58c0 .5.1.9.4 1.3s.6.9.8 1.3l15.8 32.1L413 49.8c.7 1.5.8 2.8.3 3.7s-1.8 1.4-3.4 1.4h-75.2c-1.6 0-2.9-.5-3.4-1.4s-.4-2.2.3-3.7L346 20.6l15.8-32.1c.2-.4.5-.9.8-1.3s.4-.9.4-1.3v-58h18.6zm2.3-2.4h-23.5v60.3c-.4.5-.7 1.1-.9 1.6l-15.8 32.1-14.4 29.2c-2.3 4.6.1 8.4 5.3 8.4h75.2c5.2 0 7.5-3.8 5.3-8.4l-14.4-29.2-15.9-32c-.3-.5-.6-1.1-.9-1.6v-60.4z"/><path class="st3" d="M383.9-75.5h-23.5c-1.3 0-2.4 1.1-2.4 2.4s1.1 2.4 2.4 2.4h23.5c1.3 0 2.3-1.1 2.3-2.4.1-1.3-1-2.4-2.3-2.4z"/><path class="st2" d="M368.5-16.9c-1.1 0-2-.9-2-2v-44.8c0-1.1.9-2 2-2s2 .9 2 2v44.8c0 1.1-.9 2-2 2zM362.4 2.2c-.3 0-.6-.1-.9-.2-1.1-.5-1.6-1.8-1.1-2.9l3.8-8.7c.5-1.1 1.8-1.6 2.9-1.1s1.6 1.8 1.1 2.9L364.4.9c-.3.9-1.1 1.3-2 1.3z"/><path class="st1" d="M311.7 54.1c-.1-.8-.3-1.6-.7-2.4l-9.9-20.1c0-.1-.1-.1-.1-.1L290.1 9.4c-.1-.3-.3-.7-.6-1v-37c.8-.1 1.4-.8 1.4-1.6 0-.9-.8-1.7-1.6-1.7h-15.2c-.6-.1-1.2-.3-1.8-.4v.6c-.5.3-.8.8-.8 1.5 0 .6.3 1.2.8 1.5V8.8c-.2.3-.4.7-.6 1l-10.9 22.1c0 .1-.1.1-.1.1l-9.9 19.8h-.2l-.5 1.5v.1l-.6 1.9.5.6c.1.3.3.7.4 1 .1.1.1.1.1.2l.3-.3.4.5s2.6.7 1.7-.7c-.6-.7-.1-2.1.3-3.4l1-2 8.9-18v-.1L274.3 11c.1-.3.3-.6.5-.8.3-.4.4-.8.4-1.3v-37.6h11.3V8.5c0 .5.1.9.4 1.3.2.3.3.6.5.8l10.9 22.2 10 20.2c.1.3.3.6.3.9l-.3.3-.3 1.6-.8 1.1-10.5.6h-43.9l-1.2.6s0 2.8 2 2.8h53.2s4.4.1 4.9-5.7v-1.1z"/><path class="st2" d="M285.8-31.2V9c0 .3.1.6.3.9l.6.9L297.6 33l10 20.2c.5 1 .6 1.9.2 2.6-.3.6-1.2 1-2.4 1h-52c-1.1 0-2-.3-2.4-1s-.3-1.5.2-2.6l10-20.2 10.9-22.2c.1-.3.3-.6.6-.9.2-.3.3-.6.3-.9v-40.2h12.8zm1.6-1.6h-16.3V8.9c-.3.3-.5.8-.6 1.1l-10.9 22.2-10 20.2c-1.6 3.2.1 5.8 3.7 5.8h52c3.6 0 5.2-2.6 3.7-5.8l-10-20.2-11-22.1c-.2-.3-.4-.8-.6-1.1v-41.8z"/><path class="st3" d="M287.4-33.5h-16.3c-.9 0-1.7.8-1.7 1.7 0 .9.8 1.7 1.7 1.7h16.3c.9 0 1.6-.8 1.6-1.7.1-1-.7-1.7-1.6-1.7z"/><path class="st2" d="M276.8 7c-.8 0-1.4-.6-1.4-1.4v-31c0-.8.6-1.4 1.4-1.4s1.4.6 1.4 1.4v31c0 .8-.7 1.4-1.4 1.4zM272.6 20.2c-.2 0-.4-.1-.6-.1-.8-.3-1.1-1.2-.8-2l2.6-6c.3-.8 1.2-1.1 2-.8s1.1 1.2.8 2l-2.6 6c-.3.7-.8.9-1.4.9z"/></g><g id="milk"><defs><path id="SVGID_1_" d="M381.6-72.1v58c0 .5.1.9.4 1.3s.6.9.8 1.3l15.8 32.1L413 49.8c.7 1.5.8 2.8.3 3.7s-1.8 1.4-3.4 1.4h-75.2c-1.6 0-2.9-.5-3.4-1.4s-.4-2.2.3-3.7L346 20.6l15.8-32.1c.2-.4.5-.9.8-1.3s.4-.9.4-1.3v-58h18.6z"/></defs><clipPath id="SVGID_2_"><use xlink:href="#SVGID_1_" overflow="visible"/></clipPath><path class="st4" d="M321.1 20.4h102.3V59H321.1z"/><g><defs><path id="SVGID_3_" d="M381.6-72.1v58c0 .5.1.9.4 1.3s.6.9.8 1.3l15.8 32.1L413 49.8c.7 1.5.8 2.8.3 3.7s-1.8 1.4-3.4 1.4h-75.2c-1.6 0-2.9-.5-3.4-1.4s-.4-2.2.3-3.7L346 20.6l15.8-32.1c.2-.4.5-.9.8-1.3s.4-.9.4-1.3v-58h18.6z"/></defs><clipPath id="SVGID_4_"><use xlink:href="#SVGID_3_" overflow="visible"/></clipPath><path class="st5" d="M321.1 11.2h102.3v9.2H321.1z"/></g></g><g id="milk_2_bottle"><path class="st1" d="M502.1 54.1c-.1-.8-.3-1.6-.7-2.4l-9.9-20.1c0-.1-.1-.1-.1-.1L480.5 9.4c-.1-.3-.3-.7-.6-1v-37c.8-.1 1.4-.8 1.4-1.6 0-.9-.8-1.7-1.6-1.7h-15.2c-.6-.1-1.2-.3-1.8-.4v.6c-.5.3-.8.8-.8 1.5 0 .6.3 1.2.8 1.5V8.8c-.2.3-.4.7-.6 1l-10.8 22.1c0 .1-.1.1-.1.1l-9.9 19.8h-.2l-.5 1.5v.1l-.6 1.9.5.6c.1.3.3.7.4 1 .1.1.1.1.1.2l.3-.3.4.5s2.6.7 1.7-.7c-.6-.7-.1-2.1.3-3.4l1-2 8.9-18v-.1l11-22.1c.1-.3.3-.6.5-.8.3-.4.4-.8.4-1.3v-37.6h11.3V8.5c0 .5.1.9.4 1.3.2.3.3.6.5.8l10.9 22.1 10 20.2c.1.3.3.6.3.9l-.3.3-.3 1.6-.8 1.1-10.5.6h-43.9l-1.2.6s0 2.8 2 2.8h53.2s4.4.1 4.9-5.7c.1-.3.1-.6.1-1z"/><path class="st2" d="M476.2-31.2V9c0 .3.1.6.3.9l.6.9L487.9 33l10 20.2c.5 1 .6 1.9.2 2.6-.3.6-1.2 1-2.4 1h-52c-1.1 0-2-.3-2.4-1s-.3-1.5.2-2.6l10-20.2 10.9-22.2c.1-.3.3-.6.6-.9.2-.3.3-.6.3-.9v-40.2h12.9zm1.6-1.6h-16.3V8.9c-.3.3-.5.8-.6 1.1L450 32.2l-10 20.2c-1.6 3.2.1 5.8 3.7 5.8h52c3.6 0 5.2-2.6 3.7-5.8l-10-20.2-11-22.1c-.2-.3-.4-.8-.6-1.1v-41.8z"/><path class="st3" d="M477.8-33.5h-16.3c-.9 0-1.7.8-1.7 1.7 0 .9.8 1.7 1.7 1.7h16.3c.9 0 1.6-.8 1.6-1.7 0-1-.7-1.7-1.6-1.7z"/><path class="st2" d="M467.1 7c-.8 0-1.4-.6-1.4-1.4v-31c0-.8.6-1.4 1.4-1.4s1.4.6 1.4 1.4v31c0 .8-.6 1.4-1.4 1.4zM462.9 20.2c-.2 0-.4-.1-.6-.1-.8-.3-1.1-1.2-.8-2l2.6-6c.3-.8 1.2-1.1 2-.8s1.1 1.2.8 2l-2.6 6c-.2.7-.8.9-1.4.9z"/></g><g id="milk_2"><defs><path id="SVGID_5_" d="M476.2-31.2V9c0 .3.1.6.3.9l.6.9L487.9 33l10 20.2c.5 1 .6 1.9.2 2.6-.3.6-1.2 1-2.4 1h-52c-1.1 0-2-.3-2.4-1s-.3-1.5.2-2.6l10-20.2 10.9-22.2c.1-.3.3-.6.6-.9.2-.3.3-.6.3-.9v-40.2h12.9z"/></defs><clipPath id="SVGID_6_"><use xlink:href="#SVGID_5_" overflow="visible"/></clipPath><path class="st6" d="M434.4 26.6h70.7v33h-70.7z"/></g><g id="slivki"><defs><path id="SVGID_7_" d="M285.8-31.2V9c0 .3.1.6.3.9l.6.9L297.6 33l10 20.2c.5 1 .6 1.9.2 2.6-.3.6-1.2 1-2.4 1h-52c-1.1 0-2-.3-2.4-1s-.3-1.5.2-2.6l10-20.2 10.9-22.2c.1-.3.3-.6.6-.9.2-.3.3-.6.3-.9v-40.2h12.8z"/></defs><clipPath id="SVGID_8_"><use xlink:href="#SVGID_7_" overflow="visible"/></clipPath><path class="st7" d="M243.9 48.9h70.7v7.8h-70.7z"/></g><path class="st8" d="M476.2-31.2V9c0 .3.1.6.3.9l.6.9L487.9 33l10 20.2c.5 1 .6 1.9.2 2.6-.3.6-1.2 1-2.4 1h-52c-1.1 0-2-.3-2.4-1s-.3-1.5.2-2.6l10-20.2 10.9-22.2c.1-.3.3-.6.6-.9.2-.3.3-.6.3-.9v-40.2h12.9z" id="milk_2_mask"/><path class="st8" d="M381.6-72.2v58c0 .5.1.9.4 1.3s.6.9.8 1.3l15.8 32.1L413 49.7c.7 1.5.8 2.8.3 3.7s-1.8 1.4-3.4 1.4h-75.2c-1.6 0-2.9-.5-3.4-1.4s-.4-2.2.3-3.7L346 20.5l15.8-32.1c.2-.4.5-.9.8-1.3s.4-.9.4-1.3v-58h18.6z" id="milk_mask"/><path class="st8" d="M285.7-31.2V9c0 .3.1.6.3.9l.6.9L297.5 33l10 20.2c.5 1 .6 1.9.2 2.6-.3.6-1.2 1-2.4 1h-52c-1.1 0-2-.3-2.4-1-.3-.6-.3-1.5.2-2.6l10-20.2L272 10.8c.1-.3.3-.6.6-.9.2-.3.3-.6.3-.9v-40.2h12.8z" id="slivki_mask"/></g></g></g></svg>