<svg xmlns="http://www.w3.org/2000/svg" viewBox="0 0 311.2 230"><style>.st0{fill:#519E38;} .st1{fill:#F4B19A;} .st2{fill:#C3ABCE;} .st3{fill:#F4E9CE;} .st4{fill:#EFA49A;} .st5{fill:none;stroke:#FFFFFF;stroke-width:4;stroke-miterlimit:10;} .st6{fill:#EFEFEF;} .st7{fill:#FFFFFF;} .st8{fill:#E1D0EA;} .st9{fill:#F4CCC1;} .st10{fill:#F9C7C2;} .st11{fill:#FFF8E9;} .st12{fill:url(#SVGID_1_);} .st13{fill:url(#SVGID_2_);} .st14{fill:url(#SVGID_3_);} .st15{fill:url(#SVGID_4_);} .st16{fill:url(#SVGID_5_);}</style><g id="vanna_1"><path class="st0" d="M253.5 54.4c0-2.2-1.8-4-4-4h-183c-2.2 0-4 1.8-4 4s1.8 4 4 4v103.8h5.3V58.4h172.7l-.3 16.7-1.4 70.7-7 18.8s-166.2-2.8-166.2 2.7 5 5.8 5 5.8h167.2c9 0 7.7-11.2 7.7-11.2l.1-103.5c2.1 0 3.9-1.8 3.9-4z"/><path class="st1" d="M111.7 105.2h43.8v60.1h-43.8z"/><path class="st2" d="M67.8 105.2h43.8v60.1H67.8z"/><path class="st3" d="M198.8 105.2h43.8v60.1h-43.8z"/><path class="st4" d="M155 105.2h43.8v60.1H155z"/><path class="st5" d="M244.5 163.7c0 2-1.6 3.7-3.7 3.7H70.2c-2 0-3.7-1.6-3.7-3.7V57.1c0-2 1.6-3.7 3.7-3.7h170.6c2 0 3.7 1.6 3.7 3.7v106.6z"/><path class="st6" d="M250.5 51.4c0 2.2-1.8 4-4 4h-183c-2.2 0-4-1.8-4-4s1.8-4 4-4h183c2.2 0 4 1.8 4 4z"/><path class="st7" d="M83.3 92c0 1.7-1.4 3.1-3.1 3.1-1.7 0-3.1-1.4-3.1-3.1V69.2c0-1.7 1.4-3.1 3.1-3.1 1.7 0 3.1 1.4 3.1 3.1V92zM111.3 55.4h1v112h-1zM153.5 55.4h1v112h-1zM199.3 55.8h1v112h-1z"/><circle class="st8" cx="82.5" cy="126.9" r="3.5"/><circle class="st8" cx="82.6" cy="135.3" r="2"/><circle class="st8" cx="101.8" cy="149.4" r="2"/><circle class="st8" cx="93.3" cy="157.4" r="2"/><circle class="st8" cx="93.3" cy="140.6" r="2"/><circle class="st8" cx="99.8" cy="119.7" r="2"/><circle class="st9" cx="139" cy="125.2" r="3.5"/><circle class="st9" cx="124.8" cy="135.3" r="2"/><circle class="st9" cx="135.1" cy="140.6" r="2"/><circle class="st9" cx="145.5" cy="155.4" r="2"/><circle class="st9" cx="126.8" cy="153.4" r="2"/><circle class="st9" cx="126.9" cy="115.7" r="2"/><circle class="st10" cx="162.7" cy="144.8" r="3.5"/><circle class="st10" cx="168.2" cy="122.5" r="2"/><circle class="st10" cx="191.7" cy="117.7" r="2"/><circle class="st10" cx="187.7" cy="155.4" r="2"/><circle class="st10" cx="189.7" cy="142.6" r="2"/><circle class="st10" cx="176.1" cy="132.4" r="2"/><circle class="st11" cx="225.1" cy="111.8" r="3.5"/><circle class="st11" cx="212.1" cy="122.5" r="2"/><circle class="st11" cx="219.6" cy="157.4" r="2"/><circle class="st11" cx="233.6" cy="133.3" r="2"/><circle class="st11" cx="224.3" cy="132.4" r="2"/><circle class="st11" cx="230.6" cy="153.4" r="2"/></g><g id="sneg"><linearGradient id="SVGID_1_" gradientUnits="userSpaceOnUse" x1="247.689" y1="31.666" x2="263.676" y2="76.964"><stop offset="0" stop-color="#404B71"/><stop offset=".604" stop-color="#3C476E"/><stop offset="1" stop-color="#354169"/></linearGradient><path class="st12" d="M251.3 72.6l-1.7-6.4 1.6-2.7.2.8c.2.8 1.1 1.3 1.9 1.1.1 0 .3-.1.4-.2.6-.3.9-1.1.7-1.8l-1-3.9 1.9-3.3 1.9 3.3-1 3.9c-.2.8.3 1.7 1.1 1.9.4.1.9 0 1.2-.2.4-.2.6-.5.7-1l.2-.8L261 66l-1.7 6.4c-.2.8.3 1.7 1.1 1.9.4.1.9 0 1.2-.2.4-.2.6-.5.7-1l.9-3.3 2.5 4.4c.4.8 1.4 1 2.2.6.8-.4 1-1.4.6-2.2l-2.5-4.4 3.3.9c.4.1.9 0 1.2-.2.4-.2.6-.5.7-1 .2-.8-.3-1.7-1.1-1.9l-6.4-1.7-1.6-2.7.8.2c.4.1.9 0 1.2-.2.4-.2.6-.5.7-1 .2-.8-.3-1.7-1.1-1.9l-3.8-1-1.9-3.3h3.8l2.8 2.8c.5.5 1.3.6 1.9.3l.3-.3c.6-.6.6-1.6 0-2.2l-.6-.6h3.1l4.7 4.7c.5.5 1.3.6 1.9.3l.3-.3c.6-.6.6-1.6 0-2.2l-2.4-2.4h5c.3 0 .6-.1.8-.2.5-.3.8-.8.8-1.4 0-.9-.7-1.6-1.6-1.6h-5l2.4-2.4c.6-.6.6-1.6 0-2.2-.6-.6-1.6-.6-2.2 0l-4.7 4.7h-3.1l.6-.6c.6-.6.6-1.6 0-2.2-.6-.6-1.6-.6-2.2 0l-2.8 2.8H258l1.9-3.3 3.9-1c.1 0 .3-.1.4-.2.6-.3.9-1.1.7-1.8-.2-.8-1.1-1.3-1.9-1.1l-.8.2 1.6-2.7 6.4-1.7c.1 0 .3-.1.4-.2.6-.4.9-1.1.7-1.8-.2-.8-1.1-1.3-1.9-1.1l-3.3.9 2.5-4.4c.4-.8.2-1.7-.6-2.2-.8-.4-1.7-.2-2.2.6l-2.5 4.4-.9-3.3c-.2-.8-1.1-1.3-1.9-1.1-.8.2-1.4 1.1-1.1 1.9l1.7 6.4-1.6 2.7-.2-.8c-.2-.8-1.1-1.3-1.9-1.1-.8.2-1.3 1.1-1.1 1.9l1 3.9-1.9 3.3-1.9-3.3 1-3.9c.2-.8-.3-1.7-1.1-1.9-.8-.2-1.7.3-1.9 1.1l-.2.8-1.6-2.7 1.7-6.4c.2-.8-.3-1.7-1.1-1.9-.8-.2-1.7.3-1.9 1.1l-.9 3.3-2.5-4.4c-.4-.8-1.4-1-2.2-.6-.8.4-1 1.4-.6 2.2l2.5 4.4-3.3-.9c-.8-.2-1.7.3-1.9 1.1-.2.8.3 1.7 1.1 1.9l6.4 1.7 1.6 2.7-.8-.2c-.8-.2-1.7.3-1.9 1.1-.2.8.3 1.7 1.1 1.9l3.8 1 1.9 3.3h-3.8l-2.8-2.8c-.6-.6-1.6-.6-2.2 0-.6.6-.6 1.6 0 2.2l.6.6h-3.1l-4.7-4.7c-.6-.6-1.6-.6-2.2 0-.6.6-.6 1.6 0 2.2l2.4 2.4h-5c-.9 0-1.6.7-1.6 1.6 0 .9.7 1.6 1.6 1.6h5l-2.4 2.4c-.6.6-.6 1.6 0 2.2.5.5 1.3.6 1.9.3l.3-.3 4.7-4.7h3.1l-.6.6c-.6.6-.6 1.6 0 2.2.5.5 1.3.6 1.9.3l.3-.3 2.8-2.8h3.8l-1.9 3.3-3.9 1c-.8.2-1.3 1.1-1.1 1.9.2.8 1.1 1.3 1.9 1.1l.8-.2-1.6 2.7-6.4 1.7c-.8.2-1.3 1.1-1.1 1.9.2.8 1.1 1.3 1.9 1.1l3.3-.9-2.5 4.4c-.4.8-.2 1.7.6 2.2.5.3 1.1.3 1.6 0 .2-.1.4-.3.6-.6l2.5-4.4.9 3.3c.2.8 1.1 1.3 1.9 1.1.1 0 .3-.1.4-.2.5.4.8-.3.7-1z"/><linearGradient id="SVGID_2_" gradientUnits="userSpaceOnUse" x1="129.071" y1="95.484" x2="133.905" y2="109.18"><stop offset="0" stop-color="#404B71"/><stop offset=".604" stop-color="#3C476E"/><stop offset="1" stop-color="#354169"/></linearGradient><path class="st13" d="M130.1 107.9l-.5-1.9.5-.8.1.2c.1.3.3.4.6.3h.1c.2-.1.3-.3.2-.5l-.3-1.2.6-1 .6 1-.3 1.2c-.1.3.1.5.3.6h.4c.1-.1.2-.2.2-.3l.1-.2.5.8-.5 1.9c-.1.3.1.5.3.6h.4c.1-.1.2-.2.2-.3l.3-1 .8 1.3c.1.2.4.3.7.2.2-.1.3-.4.2-.7l-.8-1.3 1 .3h.4c.1-.1.2-.2.2-.3.1-.3-.1-.5-.3-.6l-1.9-.5-.5-.8.2.1h.4c.1-.1.2-.2.2-.3.1-.3-.1-.5-.3-.6l-1.2-.3-.6-1h1.2l.9.9c.2.2.4.2.6.1 0 0 .1 0 .1-.1.2-.2.2-.5 0-.7l-.2-.2h.9l1.4 1.4c.2.2.4.2.6.1 0 0 .1 0 .1-.1.2-.2.2-.5 0-.7l-.7-.7h1.5c.1 0 .2 0 .2-.1.1-.1.2-.2.2-.4 0-.3-.2-.5-.5-.5H137l.7-.7c.2-.2.2-.5 0-.7-.2-.2-.5-.2-.7 0l-1.4 1.4h-.9l.2-.2c.2-.2.2-.5 0-.7-.2-.2-.5-.2-.7 0l-.9.9h-1.2l.6-1 1.2-.3h.1c.2-.1.3-.3.2-.5-.1-.3-.3-.4-.6-.3l-.2.1.5-.8 1.9-.5h.1c.2-.1.3-.3.2-.5-.1-.3-.3-.4-.6-.3l-1 .3.8-1.3c.1-.2.1-.5-.2-.7-.2-.1-.5-.1-.7.2l-.8 1.3-.3-1c-.1-.3-.3-.4-.6-.3-.3.1-.4.3-.3.6l.5 1.9-.5.8-.1-.2c-.1-.3-.3-.4-.6-.3-.3.1-.4.3-.3.6l.3 1.2-.6 1-.6-1 .3-1.2c.1-.3-.1-.5-.3-.6-.3-.1-.5.1-.6.3l-.1.2-.5-.8.5-1.9c.1-.3-.1-.5-.3-.6-.3-.1-.5.1-.6.3l-.3 1-.8-1.3c-.1-.2-.4-.3-.7-.2-.2.1-.3.4-.2.7l.8 1.3-1-.3c-.3-.1-.5.1-.6.3-.1.3.1.5.3.6l1.9.5.5.8-.2-.1c-.3-.1-.5.1-.6.3-.1.3.1.5.3.6l1.2.3.6 1h-1.2l-.9-.9c-.2-.2-.5-.2-.7 0-.2.2-.2.5 0 .7l.2.2h-.9l-1.4-1.4c-.2-.2-.5-.2-.7 0-.2.2-.2.5 0 .7l.7.7h-1.5c-.3 0-.5.2-.5.5s.2.5.5.5h1.5l-.7.7c-.2.2-.2.5 0 .7.2.2.4.2.6.1 0 0 .1 0 .1-.1l1.4-1.4h.9l-.2.2c-.2.2-.2.5 0 .7.2.2.4.2.6.1 0 0 .1 0 .1-.1l.9-.9h1.2l-.6 1-1.2.3c-.3.1-.4.3-.3.6.1.3.3.4.6.3l.2-.1-.5.8-1.9.5c-.3.1-.4.3-.3.6.1.3.3.4.6.3l1-.3-.8 1.3c-.1.2-.1.5.2.7.2.1.3.1.5 0 .1 0 .1-.1.2-.2l.8-1.3.3 1c.1.3.3.4.6.3h.1c.5-.5.6-.7.5-.9z"/><linearGradient id="SVGID_3_" gradientUnits="userSpaceOnUse" x1="64.182" y1="120.045" x2="74.602" y2="149.569"><stop offset="0" stop-color="#404B71"/><stop offset=".604" stop-color="#3C476E"/><stop offset="1" stop-color="#354169"/></linearGradient><path class="st14" d="M66.5 146.7l-1.1-4.2 1-1.8.1.5c.1.6.7.9 1.3.7.1 0 .2-.1.2-.1.4-.2.6-.7.5-1.2l-.7-2.5 1.2-2.2 1.2 2.2-.7 2.5c-.1.6.2 1.1.7 1.3.3.1.6 0 .8-.1.2-.1.4-.4.5-.6l.1-.5 1 1.8-1.1 4.2c-.1.6.2 1.1.7 1.3.3.1.6 0 .8-.1.2-.1.4-.4.5-.6l.6-2.2 1.6 2.8c.3.5.9.7 1.4.4.5-.3.7-.9.4-1.4l-1.6-2.8 2.2.6c.3.1.6 0 .8-.1.2-.1.4-.4.5-.6.1-.6-.2-1.1-.7-1.3l-4.2-1.1-1-1.8.5.1c.3.1.6 0 .8-.1.2-.1.4-.4.5-.6.1-.6-.2-1.1-.7-1.3l-2.5-.7-1.2-2.2h2.5l1.8 1.8c.3.3.9.4 1.2.2.1 0 .1-.1.2-.2.4-.4.4-1.1 0-1.5l-.4-.4h2l3 3c.3.3.9.4 1.2.2.1 0 .1-.1.2-.2.4-.4.4-1.1 0-1.5l-1.6-1.6h3.3c.2 0 .4 0 .5-.1.3-.2.5-.5.5-.9 0-.6-.5-1-1-1H81l1.6-1.6c.4-.4.4-1.1 0-1.5-.4-.4-1.1-.4-1.5 0l-3 3h-2l.4-.4c.4-.4.4-1.1 0-1.5-.4-.4-1.1-.4-1.5 0l-1.8 1.8h-2.5l1.2-2.2 2.5-.7c.1 0 .2-.1.2-.1.4-.2.6-.7.5-1.2-.1-.6-.7-.9-1.3-.7l-.5.1 1-1.8 4.2-1.1c.1 0 .2-.1.2-.1.4-.2.6-.7.5-1.2-.1-.6-.7-.9-1.3-.7l-2.2.6 1.6-2.8c.3-.5.1-1.1-.4-1.4-.5-.3-1.1-.1-1.4.4l-1.6 2.8-.6-2.2c-.1-.6-.7-.9-1.3-.7-.5.1-.9.7-.7 1.3l1.1 4.2-1 1.8-.1-.5c-.1-.6-.7-.9-1.3-.7-.6.2-.9.7-.7 1.3l.7 2.5-1.2 2.2-1.2-2.2.7-2.5c.1-.6-.2-1.1-.7-1.3-.6-.1-1.1.2-1.3.7l-.1.5-1-1.8 1.1-4.2c.1-.6-.2-1.1-.7-1.3-.6-.1-1.1.2-1.3.7l-.6 2.2-1.6-2.8c-.3-.5-.9-.7-1.4-.4-.5.3-.7.9-.4 1.4l1.6 2.8-2.2-.6c-.6-.1-1.1.2-1.3.7-.1.6.2 1.1.7 1.3l4.2 1.1 1 1.8-.5-.1c-.6-.1-1.1.2-1.3.7-.1.6.2 1.1.7 1.3l2.5.7 1.2 2.2h-2.5l-1.8-1.8c-.4-.4-1.1-.4-1.5 0-.4.4-.4 1.1 0 1.5l.4.4h-2l-3-3c-.4-.4-1.1-.4-1.5 0-.4.4-.4 1.1 0 1.5l1.6 1.6h-3.3c-.6 0-1 .5-1 1 0 .6.5 1 1 1h3.3l-1.6 1.6c-.4.4-.4 1.1 0 1.5.3.3.9.4 1.2.2.1 0 .1-.1.2-.2l3-3h2l-.4.4c-.4.4-.4 1.1 0 1.5.3.3.9.4 1.2.2.1 0 .2-.1.2-.2l1.8-1.8h2.5l-1.2 2.2-2.5.7c-.5.2-.9.7-.7 1.3.1.6.7.9 1.3.7l.5-.1-1 1.8-4.2 1.1c-.5.2-.9.7-.7 1.3.1.6.7.9 1.3.7l2.2-.6-1.6 2.8c-.3.5-.1 1.1.4 1.4.3.2.7.2 1 0 .2-.1.3-.2.4-.4l1.6-2.8.6 2.2c.1.6.7.9 1.3.7.1 0 .2-.1.3-.1.7-.2.9-.7.8-1.2z"/><linearGradient id="SVGID_4_" gradientUnits="userSpaceOnUse" x1="181.23" y1="122.438" x2="210.328" y2="190.54"><stop offset="0" stop-color="#404B71"/><stop offset=".604" stop-color="#3C476E"/><stop offset="1" stop-color="#354169"/></linearGradient><path class="st15" d="M228.7 153h-6.3l3-3c.8-.8.8-2 0-2.8-.8-.8-2-.8-2.8 0l-5.9 5.9h-3.9l1.7-1.7c.8-.8.8-2 0-2.8-.8-.8-2-.8-2.8 0l-4.6 4.6h-3.8l.1-.1c.8-.8.8-2 .1-2.7-.3-1-1.4-1.6-2.4-1.3h-.2l1.9-3.3 6.2-1.7c.2 0 .3-.1.5-.2.8-.4 1.2-1.4.9-2.2-.3-1.1-1.4-1.7-2.4-1.4l-2.4.6 2-3.4 8-2.1c.2 0 .3-.1.5-.2.8-.4 1.2-1.4.9-2.2-.3-1.1-1.4-1.7-2.4-1.4l-4.2 1.1 3.2-5.5c.6-1 .2-2.2-.7-2.7-1-.5-2.2-.2-2.7.7l-3.2 5.5-1.1-4.2c-.3-1.1-1.4-1.7-2.4-1.4-1.1.3-1.7 1.4-1.4 2.4l2.1 8-2 3.4-.6-2.4c-.3-1.1-1.4-1.7-2.4-1.4-1.1.3-1.7 1.4-1.4 2.4l1.7 6.2-1.9 3.3v-.2c-.3-1-1.3-1.7-2.4-1.4-1-.2-2.1.4-2.3 1.4v.2l-1.9-3.3 1.7-6.2c.3-1.1-.3-2.2-1.4-2.4-1.1-.3-2.2.3-2.4 1.4l-.6 2.4-2-3.4 2.1-8c.3-1.1-.3-2.2-1.4-2.4-1.1-.3-2.2.3-2.4 1.4l-1.1 4.2-3.2-5.5c-.5-1-1.8-1.3-2.7-.7-1 .5-1.3 1.8-.7 2.7l3.2 5.5-4.2-1.1c-1.1-.3-2.2.3-2.4 1.4-.3 1.1.3 2.2 1.4 2.4l8 2.1 2 3.4-2.4-.6c-1.1-.3-2.2.3-2.4 1.4-.3 1.1.3 2.2 1.4 2.4l6.2 1.7 1.9 3.3h-.2c-1-.3-2 .3-2.4 1.3-.8.8-.8 2 0 2.8l.1.1h-3.8l-4.6-4.6c-.8-.8-2-.8-2.8 0-.8.8-.8 2 0 2.8l1.7 1.7h-3.9l-5.9-5.9c-.8-.8-2-.8-2.8 0-.8.8-.8 2 0 2.8l3 3h-6.3c-1.1 0-2 .9-2 2s.9 2 2 2h6.3l-3 3c-.8.8-.8 2 0 2.8.7.7 1.6.8 2.4.3.1-.1.3-.2.4-.3l5.9-5.9h3.9l-1.7 1.7c-.8.8-.8 2 0 2.8.7.7 1.6.8 2.4.3.1-.1.3-.2.4-.3l4.6-4.6h3.8l-.1.1c-.8.8-.8 2-.1 2.7.3 1 1.4 1.6 2.4 1.3h.2l-1.9 3.3-6.2 1.7c-1.1.3-1.7 1.4-1.4 2.4.3 1.1 1.4 1.7 2.4 1.4l2.4-.6-2 3.4-8 2.1c-1.1.3-1.7 1.4-1.4 2.4.3 1.1 1.4 1.7 2.4 1.4l4.2-1.1-3.2 5.5c-.5 1-.2 2.2.7 2.7.6.4 1.4.3 2 0 .3-.2.5-.4.7-.7l3.2-5.5 1.1 4.2c.3 1.1 1.4 1.7 2.4 1.4.2 0 .3-.1.5-.2.8-.4 1.2-1.3.9-2.2l-2.1-8 2-3.4.6 2.4c.3 1.1 1.4 1.7 2.4 1.4.2 0 .3-.1.5-.2.8-.4 1.2-1.3.9-2.2l-1.7-6.2 1.9-3.3v.2c.3 1 1.3 1.7 2.4 1.4.5.1 1 0 1.4-.2.4-.3.8-.7.9-1.2v-.2l1.9 3.3-1.7 6.2c-.3 1.1.3 2.2 1.4 2.4.5.1 1.1.1 1.5-.2.4-.3.8-.7.9-1.2l.6-2.4 2 3.4-2.1 8c-.3 1.1.3 2.2 1.4 2.4.5.1 1.1.1 1.5-.2.4-.3.8-.7.9-1.2l1.1-4.2 3.2 5.5c.5 1 1.8 1.3 2.7.7 1-.6 1.3-1.8.7-2.7l-3.2-5.5 4.2 1.1c.5.1 1.1.1 1.5-.2.4-.3.8-.7.9-1.2.3-1.1-.3-2.2-1.4-2.4l-8-2.1-2-3.4 2.4.6c.5.1 1.1.1 1.5-.2.4-.3.8-.7.9-1.2.3-1.1-.3-2.2-1.4-2.4l-6.2-1.7-1.9-3.3h.2c.5.1 1.1.1 1.5-.2.4-.2.7-.6.9-1.1.8-.8.8-2 0-2.8l-.1-.1h3.8l4.6 4.6c.7.7 1.6.8 2.4.3.1-.1.3-.2.4-.3.8-.8.8-2 0-2.8l-1.7-1.7h3.9l5.9 5.9c.7.7 1.6.8 2.4.3.1-.1.3-.2.4-.3.8-.8.8-2 0-2.8l-3-3h6.3c.4 0 .7-.1 1-.3.6-.3 1-1 1-1.7 0-1.2-.9-2-2-2zm-32.3 4.1c-1.2.7-2.8.3-3.5-.9-.7-1.2-.3-2.8.9-3.5 1.2-.7 2.8-.3 3.5.9.7 1.3.3 2.8-.9 3.5z"/><linearGradient id="SVGID_5_" gradientUnits="userSpaceOnUse" x1="140.696" y1="38.049" x2="152.718" y2="66.191"><stop offset="0" stop-color="#404B71"/><stop offset=".604" stop-color="#3C476E"/><stop offset="1" stop-color="#354169"/></linearGradient><path class="st16" d="M162.2 52.4h-1l.4-.5c.2-.3.1-.8-.2-1-.3-.2-.8-.1-1 .2l-.9 1.3H158l2-2.8c.2-.3.1-.8-.2-1-.3-.2-.8-.1-1 .2l-2.6 3.7h-1.3l1.2-1.7c.2-.3.1-.8-.2-1-.3-.2-.8-.1-1 .2l-1.7 2.5h-.9l.4-.5c.2-.3.1-.8-.2-1-.3-.2-.8-.1-1 .2l-.9 1.3h-.3l-.8-1.5.2-.3 1.6-.1c.4 0 .7-.4.7-.8s-.4-.7-.8-.7l-.6.1.4-.8 3-.3c.4 0 .7-.4.7-.8s-.4-.7-.8-.7l-2 .2.7-1.1 4.5-.4c.4 0 .7-.4.7-.8s-.4-.7-.8-.7l-3.4.3.7-1.3 1.6-.1c.4 0 .7-.4.7-.8s-.4-.7-.8-.7l-.6.1.5-.9c.2-.3.1-.8-.3-1-.3-.2-.8-.1-1 .3l-.5.9-.3-.6c-.2-.4-.6-.5-1-.4-.4.2-.5.6-.4 1l.7 1.5-.7 1.3-1.5-3.1c-.2-.4-.6-.5-1-.3s-.5.6-.4 1l1.7 4-.7 1.1-.9-1.8c-.2-.4-.6-.5-1-.4-.4.2-.5.6-.4 1l1.3 2.8-.4.8-.3-.6c-.2-.4-.6-.5-1-.3s-.5.6-.4 1l.7 1.5-.2.3H146l-.2-.3.7-1.5c.2-.4 0-.8-.4-1-.4-.2-.8 0-1 .3l-.3.6-.4-.8 1.3-2.8c.2-.4 0-.8-.4-1-.4-.2-.8 0-1 .3l-.9 1.8-.7-1.1 1.9-4.1c.2-.4 0-.8-.4-1-.4-.2-.8 0-1 .4l-1.5 3.1-.7-1.3.7-1.5c.2-.4 0-.8-.4-1-.4-.2-.8 0-1 .4l-.3.6-.5-.9c-.2-.3-.6-.5-1-.3-.3.2-.5.6-.3 1l.5.9-.6-.1c-.4 0-.8.3-.8.7 0 .4.3.8.7.8l1.6.1.7 1.3-3.4-.3c-.4 0-.8.3-.8.7 0 .4.3.8.7.8l4.5.4.7 1.1-2-.2c-.4 0-.8.3-.8.7 0 .4.3.8.7.8l3 .3.4.8-.6-.1c-.4 0-.8.3-.8.7 0 .4.3.8.7.8l1.6.1.8.4-.8 1.5h-.3l-.9-1.3c-.2-.3-.7-.4-1-.2-.3.2-.4.7-.2 1l.4.5h-.9l-1.7-2.5c-.2-.3-.7-.4-1-.2-.3.2-.4.7-.2 1l1.2 1.7h-1.3l-2.6-3.7c-.2-.3-.7-.4-1-.2-.3.2-.4.7-.2 1l2 2.8H135l-.9-1.3c-.2-.3-.7-.4-1-.2-.3.2-.4.7-.2 1l.4.5h-1c-.4 0-.7.3-.7.7 0 .4.3.7.7.7h1l-.4.5c-.2.3-.1.8.2 1 .1.1.3.1.4.1.2 0 .5-.1.6-.3l.9-1.3h1.5l-2 2.8c-.2.3-.1.8.2 1 .1.1.3.1.4.1.2 0 .5-.1.6-.3l2.6-3.7h1.3l-1.2 1.7c-.2.3-.1.8.2 1 .1.1.3.1.4.1.2 0 .5-.1.6-.3l1.7-2.5h.9l-.4.5c-.2.3-.1.8.2 1 .1.1.3.1.4.1.2 0 .5-.1.6-.3l.9-1.3h.3l.8 1.5-.2.3-1.6.1c-.4 0-.7.4-.7.8s.4.7.7.7h.1l.6-.1-.4.8-3 .3c-.4 0-.7.4-.7.8s.4.7.7.7h.1l2-.2-.7 1.1-4.5.4c-.4 0-.7.4-.7.8s.4.7.7.7h.1l3.4-.3-.7 1.3-1.6.1c-.4 0-.7.4-.7.8s.4.7.7.7h.1l.6-.1-.5.9c-.2.3-.1.8.3 1 .1.1.2.1.4.1.3 0 .5-.1.6-.4l.5-.9.3.6c.1.3.4.4.7.4.1 0 .2 0 .3-.1.4-.2.5-.6.4-1l-.7-1.5.7-1.3 1.5 3.1c.1.3.4.4.7.4.1 0 .2 0 .3-.1.4-.2.5-.6.4-1l-1.9-4.1.7-1.1.9 1.8c.1.3.4.4.7.4.1 0 .2 0 .3-.1.4-.2.5-.6.4-1l-1.3-2.8.4-.8.3.6c.1.3.4.4.7.4.1 0 .2 0 .3-.1.4-.2.5-.6.4-1l-.7-1.5.2-.3h1.7l.2.3-.7 1.5c-.2.4 0 .8.4 1 .1 0 .2.1.3.1.3 0 .5-.2.7-.4l.3-.6.4.8-1.3 2.8c-.2.4 0 .8.4 1 .1 0 .2.1.3.1.3 0 .5-.2.7-.4l.9-1.8.7 1.1-1.9 4.1c-.2.4 0 .8.4 1 .1 0 .2.1.3.1.3 0 .5-.2.7-.4l1.5-3.1.7 1.3-.7 1.5c-.2.4 0 .8.4 1 .1 0 .2.1.3.1.3 0 .5-.2.7-.4l.3-.6.5.9c.1.2.4.4.6.4.1 0 .2 0 .4-.1.3-.2.5-.6.3-1l-.5-.9.6.1h.1c.4 0 .7-.3.7-.7 0-.4-.3-.8-.7-.8l-1.6-.1-.7-1.3 3.4.3h.1c.4 0 .7-.3.7-.7 0-.4-.3-.8-.7-.8l-4.5-.4-.7-1.1 2 .2h.1c.4 0 .7-.3.7-.7 0-.4-.3-.8-.7-.8l-3-.3-.4-.8.6.1h.1c.4 0 .7-.3.7-.7 0-.4-.3-.8-.7-.8l-1.6-.1-.2-.3.8-1.5h.3l.9 1.3c.1.2.4.3.6.3.1 0 .3 0 .4-.1.3-.2.4-.7.2-1l-.4-.5h.9l1.7 2.5c.1.2.4.3.6.3.1 0 .3 0 .4-.1.3-.2.4-.7.2-1l-1.2-1.7h1.3l2.6 3.7c.1.2.4.3.6.3.1 0 .3 0 .4-.1.3-.2.4-.7.2-1l-2-2.8h1.5l.9 1.3c.1.2.4.3.6.3.1 0 .3 0 .4-.1.3-.2.4-.7.2-1l-.4-.5h1c.4 0 .7-.3.7-.7-.4-.4-.7-.7-1.1-.7zm-15.9 2.2l-.8-1.5.8-1.5h1.7l.8 1.5-.8 1.5h-1.7z"/><circle class="st7" cx="174.9" cy="34.5" r="3.4"/><circle class="st7" cx="49.2" cy="98.7" r="3.4"/><circle class="st7" cx="54.2" cy="111.8" r="1.5"/><circle class="st7" cx="42.3" cy="119.6" r="1.5"/><circle class="st7" cx="162.9" cy="31" r="1.5"/><circle class="st7" cx="190.5" cy="66.9" r="3.8"/><circle class="st7" cx="219.4" cy="190.6" r="3.8"/><circle class="st7" cx="211.4" cy="76.8" r="2.8"/><circle class="st7" cx="206" cy="85.3" r="1.5"/><circle class="st7" cx="179.8" cy="75.3" r="1.5"/><circle class="st7" cx="259.3" cy="98.7" r="1.5"/><circle class="st7" cx="228.5" cy="76.8" r="1.5"/><circle class="st7" cx="222.5" cy="88.3" r="1.5"/><circle class="st7" cx="220.9" cy="76.6" r="1.5"/><circle class="st7" cx="228.5" cy="66.9" r="1.5"/><circle class="st7" cx="268.7" cy="78.3" r="1.5"/><circle class="st7" cx="255.3" cy="202" r="1.5"/><circle class="st7" cx="225.5" cy="182.1" r="1.5"/><circle class="st7" cx="236.8" cy="180.6" r="1.5"/><circle class="st7" cx="230" cy="189.1" r="1.5"/><circle class="st7" cx="198" cy="65.4" r="1.5"/><circle class="st7" cx="204.5" cy="72.2" r="1.5"/></g></svg>