<?xml version="1.0" encoding="utf-8"?>
<!-- Generator: Adobe Illustrator 19.0.0, SVG Export Plug-In . SVG Version: 6.00 Build 0)  -->
<svg version="1.1" id="Layer_1" xmlns="http://www.w3.org/2000/svg" xmlns:xlink="http://www.w3.org/1999/xlink" x="0px" y="0px"
	 viewBox="0 0 130 250" style="enable-background:new 0 0 130 250;" xml:space="preserve">
<style type="text/css">
	.st0{fill:#519E38;}
	.st1{fill:#F4F4F4;}
	.st2{fill:#D6D6D6;}
	.st3{fill:#EAEAEA;}
	.st4{fill:#FFFFFF;}
	.st5{fill:#62BA47;}
	.st6{fill:#DA1B51;}
	.st7{fill:#F1788A;}
	.st8{fill:#62BA46;}
</style>
<g id="_x32_">
	<g id="XMLID_154_">
		<path id="XMLID_159_" class="st0" d="M108.7,215.9c0,0,0-64.1,0-99.1c0-35-14.4-48.1-14.4-48.1c3.9-21.6-6.4-28.1-6.4-28.1v-7.8
			h2.2c0,0,0-8.3,0-11.1c0-2.8-3.9-2.5-3.9-2.5H71.9h-1.3H56.4c0,0-3.9-0.3-3.9,2.5c0,2.8,0,11.1,0,11.1h2.4v7.8h-0.2
			c0,0-10.4,6.6-6.4,28.1c0,0-14.4,13.3-14.4,48.1s0,99.1,0,99.1s-1.4,21.3,14.3,21.3c4.2,0,7.8,0,10.8,0c8,0,11.8,0,11.8,0h0.8h0.8
			l0,0h11.6l0,0c3,0,6.4,0,10.7,0l0,0C110.1,237.2,108.7,215.9,108.7,215.9z"/>
		<path id="XMLID_158_" class="st1" d="M101,210.8c0,0,0-64.1,0-99.1S86.6,63.6,86.6,63.6C90.5,41.9,80,35.5,80,35.5v-8H47.3v8h-0.2
			c0,0-10.4,6.6-6.4,28.1c0,0-14.4,13.3-14.4,48.1c0,35,0,99.1,0,99.1s-1.4,21.3,14.3,21.3c4.2,0,7.8,0,10.8,0c8,0,11.8,0,11.8,0
			h1.6h11.8c3,0,6.6,0,10.8,0C102.5,232.2,101,210.8,101,210.8z"/>
		<path id="XMLID_157_" class="st2" d="M78.5,14H64.2h-1.3H48.7c0,0-3.9-0.3-3.9,2.5c0,2.8,0,11.1,0,11.1h18.2h1.3h18
			c0,0,0-8.3,0-11.1C82.2,13.7,78.5,14,78.5,14z"/>
		<path id="XMLID_156_" class="st3" d="M101,210.8c0,0,0-64.1,0-99.1S86.6,63.6,86.6,63.6C90.5,41.9,80,35.5,80,35.5v-8H63.6v204.7
			h0.8h11.8c3,0,6.6,0,10.8,0C102.5,232.2,101,210.8,101,210.8z"/>
		<path id="XMLID_155_" class="st4" d="M38.3,100.1c-0.2,0-0.3,0-0.5,0c-2.2-0.3-3.9-2.4-3.6-4.7C36.1,81.1,43,72.4,43.3,72
			c1.4-1.7,4.1-2,5.8-0.6s2,4.1,0.6,5.8c-0.2,0.2-5.8,7.4-7.4,19.3C42.1,98.7,40.4,100.1,38.3,100.1z"/>
	</g>
	<g id="XMLID_73_">
		<g id="XMLID_143_">
			<path id="XMLID_153_" class="st5" d="M93.2,149.7c-0.6-1.6-1.7-1.1-2.2,0c-1.4,3.1,0.6,3.6,0.9,3.8c0,0-0.3-0.5-0.3-0.9
				c0,0-0.6-0.6-0.6-1.1v-0.3l0.2,0.2c0,0.2,0.2,0.6,0.6,0.9c0-0.2,0-0.3,0.2-0.3c-0.2-0.2-0.6-0.5-0.6-0.9v-0.2v-0.3l0.2,0.5
				c0,0.3,0.2,0.6,0.6,0.9l0,0c0-0.2,0.2-0.3,0.2-0.5c-0.2,0-0.6-0.3-0.6-1.1v-0.2V150l0.2,0.3c0,0.2,0.2,0.8,0.6,0.9
				c0-0.2,0-0.3,0.2-0.5l0,0c0,0-0.5-0.2-0.6-0.9c0,0,0,0,0-0.2v-0.2v0.3c0,0.2,0.2,0.8,0.5,0.8c0-0.8-0.2-1.4-0.2-1.4V149l0.2,0.2
				c0,0,0.2,0.3,0.2,0.8c0.2-0.3,0.2-0.6,0.2-0.6v-0.2l0.2,0.2c0,0.3-0.2,0.8-0.3,0.8c0,0.3,0,0.6,0,0.9c0.8-0.3,0.9-0.9,0.9-0.9
				V150v0.2c0,0.6-0.8,1.1-0.9,1.1l0,0l0,0c0,0,0,0.2-0.2,0.3c0.8,0,1.3-0.8,1.3-0.8v-0.2c0,0,0,0.2-0.2,0.3
				c-0.5,0.6-1.3,0.8-1.3,0.8c0,0.2-0.2,0.3-0.2,0.5c0.2,0,0.9-0.2,1.4-0.6l0,0l0,0l0,0l0.2-0.2l-0.2,0.2c-0.2,0.2-0.8,0.6-1.4,0.8
				c0,0.2,0,0.3,0,0.5h0.2c0.6,0,0.9-0.5,1.1-0.6l0.2-0.2l-0.2,0.3c-0.5,0.8-1.1,0.8-1.3,0.8l0,0c0,0.2,0.2,0.5,0.2,0.5h0.2
				C93.7,152,93.7,150.8,93.2,149.7z"/>
			<path id="XMLID_152_" class="st5" d="M97.1,152.3c0.9-0.9,0.5-1.7-0.6-1.7c-2.8-0.2-2.7,1.4-2.7,1.6c0,0,0.3-0.3,0.6-0.5
				c0,0,0.3-0.6,0.6-0.8h0.2l-0.2,0.2c-0.2,0.2-0.3,0.3-0.5,0.6c0.2,0,0.2,0,0.3,0c0-0.2,0.3-0.6,0.6-0.8c0,0,0,0,0.2,0l0.2-0.2
				l-0.3,0.2c-0.2,0.2-0.5,0.3-0.5,0.8l0,0c0.2,0,0.3,0,0.3,0c0-0.2,0.2-0.6,0.6-0.8h0.2h0.2l-0.2,0.2c-0.2,0.2-0.5,0.3-0.5,0.8
				c0.2,0,0.3,0,0.5,0l0,0c0,0,0-0.5,0.6-0.6c0,0,0,0,0.2,0h0.2l-0.2,0.2c-0.2,0.2-0.5,0.3-0.5,0.6c0.6-0.2,1.1-0.5,1.1-0.5l0.2-0.2
				v0.2c0,0-0.2,0.2-0.5,0.3c0.3,0.2,0.5,0,0.5,0h0.2v0.2c-0.2,0.2-0.6,0-0.6,0c-0.3,0.2-0.5,0.2-0.8,0.2c0.5,0.6,0.9,0.5,0.9,0.5
				L97.1,152.3h-0.3c-0.5,0.2-0.9-0.3-1.1-0.5l0,0l0,0h-0.2c0.2,0.6,0.9,0.8,0.9,0.8h0.2c0,0-0.2,0-0.3,0c-0.6-0.2-0.9-0.8-0.9-0.8
				c-0.2,0-0.3,0-0.5,0c0,0.2,0.5,0.6,0.8,0.9l0,0l0,0l0,0h0.2h-0.2c-0.2-0.2-0.8-0.5-0.9-0.9c-0.2,0-0.3,0-0.5,0.2v0.2
				c0.2,0.5,0.6,0.6,0.8,0.8h0.2h-0.2c-0.8-0.2-0.9-0.6-0.9-0.8l0,0c-0.2,0.2-0.3,0.3-0.3,0.3v0.2C95.4,153.4,96.3,153.1,97.1,152.3
				z"/>
			<path id="XMLID_151_" class="st5" d="M94.1,153.9c0.6-0.3,0.5-0.8,0-0.9c-1.4-0.6-1.6,0.3-1.6,0.3s0.2-0.2,0.5-0.2
				c0,0,0.3-0.2,0.5-0.3h0.2h-0.2c-0.2,0-0.3,0.2-0.3,0.3h0.2c0,0,0.2-0.2,0.5-0.3l0,0H94h-0.2c-0.2,0-0.3,0.2-0.3,0.3l0,0
				c0,0,0.2,0,0.2,0.2c0,0,0.2-0.3,0.5-0.3l0,0l0,0H94c-0.2,0-0.3,0-0.5,0.3h0.2l0,0c0,0,0.2-0.2,0.5-0.3l0,0l0,0H94
				c-0.2,0-0.3,0.2-0.3,0.2c0.3,0,0.6,0,0.6,0l0,0l0,0c0,0-0.2,0-0.3,0.2c0.2,0.2,0.3,0.2,0.3,0.2l0,0l0,0c-0.2,0-0.3-0.2-0.3-0.2
				c-0.2,0-0.3,0-0.5,0C93.7,153.8,94,153.8,94.1,153.9L94.1,153.9L94.1,153.9c-0.5,0-0.6-0.5-0.6-0.5l0,0l0,0c0,0,0,0-0.2,0
				c0,0.3,0.3,0.6,0.3,0.6l0,0c0,0,0,0-0.2,0c-0.3-0.2-0.3-0.6-0.3-0.6s-0.2,0-0.2-0.2c0,0.2,0.2,0.5,0.3,0.6l0,0l0,0l0,0l0,0h-0.2
				c0,0-0.3-0.3-0.3-0.6h-0.2l0,0c0,0.3,0.2,0.5,0.3,0.5h0.2h-0.2c-0.3-0.3-0.3-0.5-0.3-0.6l0,0c-0.2,0-0.2,0.2-0.2,0.2l0,0
				C93.1,154.1,93.7,154.1,94.1,153.9z"/>
			<path id="XMLID_150_" class="st5" d="M93.1,156.1c1.3-0.6,0.9-1.4,0-1.9c-2.7-1.3-3.1,0.5-3.1,0.6c0,0,0.3-0.3,0.8-0.2
				c0,0,0.5-0.5,0.9-0.5h0.2h-0.2c-0.2,0-0.5,0.2-0.8,0.5c0.2,0,0.2,0,0.3,0.2c0.2-0.2,0.5-0.5,0.8-0.5c0,0,0,0,0.2,0h0.3h-0.3
				c-0.2,0-0.5,0.2-0.8,0.5l0,0c0.2,0,0.2,0.2,0.3,0.2c0-0.2,0.3-0.5,0.9-0.5h0.2h0.2h-0.2c-0.2,0-0.6,0.2-0.8,0.5
				c0.2,0,0.3,0,0.5,0.2l0,0c0,0,0.2-0.5,0.8-0.5c0,0,0,0,0.2,0h0.2h-0.2c-0.2,0-0.6,0.2-0.8,0.5c0.6,0,1.3-0.2,1.3-0.2H94l-0.2,0.2
				c0,0-0.3,0.2-0.6,0.2c0.2,0.2,0.5,0.2,0.5,0.2h0.2h-0.2c-0.3,0-0.6-0.2-0.6-0.2c-0.3,0-0.6,0-0.8,0
				C92.6,155.9,93.1,156.1,93.1,156.1h0.2H93.1c-0.6,0-0.8-0.8-0.9-0.8l0,0l0,0c0,0-0.2,0-0.2-0.2c0,0.6,0.6,1.1,0.6,1.1h0.2
				c0,0-0.2,0-0.3-0.2c-0.6-0.5-0.6-1.1-0.6-1.1c-0.2,0-0.3-0.2-0.5-0.2c0,0.2,0.2,0.8,0.5,1.1l0,0l0,0l0,0l0.2,0.2l-0.2-0.2
				c-0.2-0.2-0.5-0.6-0.6-1.3c-0.2,0-0.3,0-0.5,0v0.2c0,0.5,0.3,0.8,0.6,0.9l0.2,0.2l-0.2-0.2c-0.6-0.5-0.6-0.9-0.6-1.1l0,0
				c-0.2,0-0.3,0.2-0.5,0.2v0.2C91,156.4,92.1,156.4,93.1,156.1z"/>
			<path id="XMLID_149_" class="st5" d="M89.1,152.7c-0.6-1.4-1.6-1.1-2,0c-1.3,3,0.6,3.3,0.8,3.5c0,0-0.3-0.3-0.3-0.9
				c0,0-0.5-0.5-0.6-0.9v-0.2v0.2c0,0.2,0.2,0.5,0.6,0.8c0-0.2,0-0.2,0.2-0.3c-0.2-0.2-0.5-0.5-0.6-0.9v-0.2v-0.3l0.2,0.3
				c0,0.2,0.2,0.5,0.6,0.8l0,0c0-0.2,0.2-0.3,0.2-0.5c-0.2,0-0.6-0.3-0.6-0.9v-0.2v-0.2l0.2,0.2c0,0.2,0.2,0.6,0.6,0.8
				c0-0.2,0-0.3,0.2-0.5l0,0c0,0-0.5-0.2-0.5-0.9c0,0,0,0,0-0.2v-0.2v0.3c0,0.2,0.2,0.6,0.5,0.8c0-0.8-0.2-1.4-0.2-1.4v-0.2l0.2,0.2
				c0,0,0.2,0.3,0.2,0.6c0.2-0.2,0.2-0.6,0.2-0.6v-0.2l0.2,0.2c0,0.3-0.2,0.6-0.2,0.8c0,0.3,0,0.6,0,0.9c0.8-0.3,0.8-0.9,0.8-0.9
				v-0.2v0.2c0,0.6-0.8,0.9-0.9,0.9l0,0l0,0c0,0,0,0.2-0.2,0.2c0.6,0,1.3-0.8,1.3-0.8v-0.2c0,0,0,0.2-0.2,0.3
				c-0.5,0.6-1.1,0.8-1.3,0.8c0,0.2-0.2,0.3-0.2,0.5c0.2,0,0.8-0.2,1.3-0.6l0,0l0,0l0,0l0.2-0.2l-0.2,0.2c-0.2,0.2-0.8,0.6-1.3,0.6
				c0,0.2,0,0.3,0,0.5h0.2c0.5,0,0.9-0.5,1.1-0.6l0.2-0.2l-0.2,0.3c-0.5,0.8-0.9,0.8-1.3,0.8l0,0c0,0.2,0.2,0.5,0.2,0.5h0.2
				C89.6,154.9,89.6,153.8,89.1,152.7z"/>
			<path id="XMLID_148_" class="st5" d="M88.8,156.3c-0.5-0.9-1.1-0.6-1.3,0c-0.8,1.9,0.5,2.2,0.5,2.2s-0.2-0.3-0.2-0.6
				c0,0-0.3-0.3-0.3-0.6V157v0.2c0,0.2,0.2,0.3,0.3,0.5v-0.2c0,0-0.3-0.3-0.3-0.6l0,0v-0.2v0.3c0,0.2,0.2,0.3,0.3,0.5l0,0
				c0-0.2,0-0.2,0.2-0.3c0,0-0.3-0.2-0.5-0.6l0,0v-0.2v0.2c0,0.2,0.2,0.5,0.3,0.5c0-0.2,0-0.2,0-0.3l0,0c0,0-0.3-0.2-0.3-0.6
				c0,0,0,0,0-0.2v-0.2v0.2c0,0.2,0.2,0.5,0.3,0.5c0-0.5-0.2-0.8-0.2-0.8v-0.2c0,0,0,0,0,0.2c0,0,0.2,0.2,0.2,0.5
				c0.2-0.2,0.2-0.3,0.2-0.3l0,0l0,0c0,0.2-0.2,0.5-0.2,0.5c0,0.2,0,0.5,0,0.6c0.5-0.2,0.5-0.5,0.5-0.5L88.8,156.3v0.2
				c0,0.3-0.5,0.6-0.6,0.6l0,0l0,0v0.2c0.5,0,0.8-0.5,0.8-0.5l0,0v0.2c-0.3,0.5-0.8,0.5-0.8,0.5c0,0.2-0.2,0.2-0.2,0.3
				c0.2,0,0.5-0.2,0.8-0.3l0,0l0,0l0,0l0,0v0.2c-0.2,0.2-0.5,0.3-0.8,0.5c0,0.2,0,0.2,0,0.3c0,0,0,0,0.2,0c0.3,0,0.6-0.3,0.6-0.5
				l0.2-0.2v0.2c-0.3,0.5-0.6,0.5-0.8,0.5l0,0c0,0.2,0.2,0.3,0.2,0.3l0,0C89.1,157.7,89.1,156.9,88.8,156.3z"/>
			<path id="XMLID_147_" class="st5" d="M91,160c1.3-0.6,0.9-1.6,0-1.9c-2.7-1.3-3.1,0.5-3.1,0.6c0,0,0.3-0.3,0.9-0.2
				c0,0,0.5-0.5,0.9-0.5h0.2h-0.2c-0.2,0-0.5,0.2-0.8,0.5c0.2,0,0.2,0,0.3,0.2c0.2-0.2,0.5-0.5,0.9-0.5h0.2h0.3h-0.3
				c-0.2,0-0.5,0.2-0.8,0.5l0,0c0.2,0,0.3,0.2,0.3,0.2c0-0.2,0.3-0.5,0.9-0.6H91h0.2H91c-0.2,0-0.6,0.2-0.8,0.6c0.2,0,0.3,0,0.5,0.2
				l0,0c0,0,0.2-0.5,0.8-0.5c0,0,0,0,0.2,0h0.2h-0.3c-0.2,0-0.6,0.2-0.8,0.5c0.6,0,1.3-0.2,1.3-0.2h0.2l-0.2,0.2
				c0,0-0.3,0.2-0.6,0.2c0.2,0.2,0.5,0.2,0.5,0.2H92h-0.2c-0.3,0-0.6-0.2-0.6-0.2c-0.3,0-0.6,0-0.8,0c0.3,0.8,0.8,0.8,0.8,0.8h0.2
				h-0.2c-0.6,0-0.9-0.8-0.9-0.8l0,0l0,0c0,0-0.2,0-0.2-0.2c0,0.6,0.6,1.1,0.6,1.1h0.2c0,0-0.2,0-0.3-0.2c-0.6-0.5-0.6-1.1-0.6-1.1
				c-0.2,0-0.3-0.2-0.5-0.2c0,0.2,0.2,0.8,0.5,1.3l0,0l0,0l0,0l0.2,0.2l-0.2-0.2c-0.2-0.2-0.6-0.6-0.6-1.3c-0.2,0-0.3,0-0.5,0v0.2
				c0,0.5,0.3,0.8,0.6,1.1l0.2,0.2l-0.2-0.2c-0.6-0.5-0.6-0.9-0.6-1.1l0,0c-0.2,0-0.3,0.2-0.5,0.2v0.2C89,160.5,89.9,160.5,91,160z"
				/>
			<path id="XMLID_146_" class="st5" d="M90.1,162.4c1.4-0.2,1.3-0.9,0.5-1.6c-2.4-1.7-3.1-0.3-3.3-0.3c0,0,0.5-0.2,0.9,0
				c0,0,0.6-0.3,0.9-0.2h0.2h-0.2c-0.2,0-0.5,0-0.8,0.2c0.2,0,0.2,0.2,0.3,0.2c0.2,0,0.5-0.3,0.9-0.2h0.2h0.3h-0.3
				c-0.2,0-0.5,0-0.8,0.3l0,0c0.2,0,0.2,0.2,0.3,0.2c0,0,0.5-0.3,0.9-0.3h0.2h0.2h-0.2c-0.2,0-0.6,0-0.9,0.3c0.2,0,0.3,0.2,0.3,0.2
				l0,0c0,0,0.3-0.3,0.9-0.2c0,0,0,0,0.2,0H91h-0.2c-0.2,0-0.6,0-0.8,0.2c0.6,0.2,1.3,0.2,1.3,0.2h0.2h-0.2c0,0-0.3,0-0.6,0
				c0.2,0.2,0.5,0.3,0.5,0.3h0.2h-0.2c-0.3,0-0.6-0.3-0.6-0.3c-0.3,0-0.6-0.2-0.8-0.3c0.2,0.6,0.6,0.8,0.6,0.8h0.2h-0.2
				c-0.5-0.2-0.6-0.8-0.6-0.9l0,0l0,0c0,0-0.2,0-0.2-0.2c-0.2,0.5,0.5,1.1,0.5,1.1h0.2c0,0-0.2,0-0.3-0.2c-0.5-0.5-0.5-1.1-0.5-1.1
				c-0.2-0.2-0.3-0.2-0.3-0.3c0,0.2,0,0.8,0.2,1.1l0,0l0,0l0,0l0.2,0.2l-0.2-0.2c-0.2-0.2-0.3-0.6-0.3-1.3c-0.2,0-0.3-0.2-0.5-0.2
				c0,0,0,0,0,0.2c-0.2,0.5,0.2,0.8,0.3,0.9l0.2,0.2l-0.2-0.2c-0.5-0.6-0.5-0.9-0.5-1.1l0,0c-0.2,0-0.5,0-0.5,0v0.2
				C88,162.2,89.1,162.4,90.1,162.4z"/>
			<path id="XMLID_145_" class="st5" d="M84.1,154.1c-1.7-0.8-2.2,0.3-1.6,1.6c1.7,3.5,3.5,2.5,3.6,2.4c0,0-0.6-0.2-0.9-0.6
				c-0.2,0-0.8-0.2-1.3-0.3l-0.2-0.2l0.3,0.2c0.2,0.2,0.6,0.3,1.1,0.3c-0.2-0.2-0.2-0.2-0.2-0.3c-0.2,0-0.8,0-1.3-0.3
				c0,0-0.2,0-0.2-0.2l-0.3-0.3l0.5,0.3c0.2,0.2,0.6,0.3,1.1,0.3l0,0c0-0.2-0.2-0.3-0.2-0.5c-0.2,0-0.8,0.2-1.3-0.3l-0.2-0.2
				l-0.2-0.2l0.3,0.2c0.2,0.2,0.8,0.5,1.3,0.3c-0.2-0.2-0.2-0.3-0.3-0.5l0,0c0,0-0.5,0.2-1.3-0.3c0,0,0,0-0.2-0.2l-0.2-0.2l0.3,0.2
				c0.2,0.2,0.8,0.5,1.1,0.3c-0.6-0.6-1.3-1.1-1.3-1.1l-0.2-0.2H83c0,0,0.3,0.2,0.8,0.5c0-0.3-0.3-0.6-0.3-0.6l-0.2-0.2h0.2
				c0.3,0.2,0.5,0.8,0.5,0.8c0.3,0.3,0.6,0.5,0.8,0.8c0.3-0.8-0.2-1.4-0.2-1.4l-0.2-0.2l0.2,0.2c0.5,0.5,0.3,1.4,0.2,1.6l0,0l0,0
				c0,0,0.2,0.2,0.2,0.3c0.5-0.5,0.2-1.6,0.2-1.6v-0.2c0,0,0.2,0.2,0.2,0.3c0.2,0.9-0.2,1.6-0.3,1.6c0.2,0.2,0.2,0.3,0.3,0.5
				c0.2-0.2,0.5-0.8,0.5-1.4l0,0l0,0l0,0v-0.2l0.2,0.3c0,0.3,0,1.1-0.5,1.6c0.2,0.2,0.3,0.3,0.5,0.5c0,0,0.2,0,0.2-0.2
				c0.3-0.5,0.3-1.1,0.2-1.4v-0.3l0.2,0.3c0.3,0.9,0,1.4-0.2,1.6l0,0c0.2,0.2,0.5,0.2,0.5,0.2l0.2-0.2
				C86.5,155.5,85.4,154.5,84.1,154.1z"/>
			<path id="XMLID_144_" class="st5" d="M86.8,162.4c0.8,0.5,1.1,0,0.8-0.8c-0.6-1.9-1.6-1.4-1.7-1.3c0,0,0.3,0.2,0.5,0.3
				c0,0,0.5,0.2,0.6,0.3l0.2,0.2h-0.2c-0.2,0-0.3-0.2-0.5-0.2c0,0,0,0.2,0.2,0.2c0,0,0.3,0,0.6,0.3l0,0l0.2,0.2l-0.2-0.2
				c-0.2-0.2-0.3-0.2-0.6-0.2l0,0c0,0.2,0,0.2,0.2,0.3c0,0,0.3,0,0.6,0.3l0,0l0,0l-0.2-0.2c-0.2-0.2-0.3-0.3-0.6-0.2
				c0,0.2,0.2,0.2,0.2,0.3l0,0c0,0,0.3,0,0.6,0.3l0,0l0,0l-0.2-0.2c-0.2,0-0.3-0.3-0.5-0.2c0.3,0.3,0.6,0.6,0.6,0.6h0.2
				c0,0,0,0-0.2,0c0,0-0.2-0.2-0.3-0.3c0,0.2,0.2,0.3,0.2,0.3l0,0h-0.2c-0.2-0.2-0.2-0.3-0.2-0.5c-0.2-0.2-0.3-0.3-0.3-0.5
				c-0.2,0.5,0,0.6,0,0.6L86.8,162.4v-0.2c-0.3-0.3,0-0.8,0-0.8l0,0l0,0v-0.2c-0.3,0.3-0.2,0.8-0.2,0.8l0,0c0,0,0,0,0-0.2
				c0-0.5,0.2-0.8,0.2-0.8c0-0.2,0-0.2-0.2-0.3c0,0-0.3,0.3-0.3,0.6l0,0l0,0l0,0v0.2v-0.2c0-0.2,0-0.5,0.3-0.8
				c0-0.2-0.2-0.2-0.2-0.2l0,0c-0.2,0.2-0.2,0.5-0.2,0.6v0.2v-0.2c0-0.5,0.2-0.6,0.2-0.8l0,0c-0.2,0-0.2-0.2-0.3-0.2l0,0
				C85.7,161.6,86.1,162.1,86.8,162.4z"/>
		</g>
		<g id="XMLID_128_">
			<path id="XMLID_142_" class="st5" d="M87.4,157c0-0.2,0-0.2,0.2-0.3c-2.5,2.7-3.8,5-3.8,5.2l0.2,0.2c0,0,1.1-2.4,3.5-4.7
				C87.2,157.2,87.2,157,87.4,157z"/>
			<path id="XMLID_141_" class="st5" d="M94,152.3l0.2-0.3L94,152.3c-2.2,0.8-4.1,2.2-5.6,3.6l0.2,0.2C90.1,154.7,92,153.3,94,152.3
				C94.6,152.2,94,152.3,94,152.3z"/>
			<path id="XMLID_140_" class="st6" d="M88.5,160c-0.3,0.8-1.3,1.1-2.2,0.8c-0.8-0.3-1.1-1.3-0.8-2.2c0.3-0.8,1.3-1.1,2.2-0.8
				C88.7,158.1,89,159.1,88.5,160"/>
			<path id="XMLID_139_" class="st7" d="M88.3,158.9c-0.2,0.2-0.5,0.2-0.6-0.2c-0.2-0.2-0.3-0.5-0.2-0.6c0.2-0.2,0.5-0.2,0.6,0.2
				C88.3,158.5,88.5,158.8,88.3,158.9"/>
			<path id="XMLID_138_" class="st6" d="M86.1,159.7c0.5,0.6,0.3,1.6-0.3,2c-0.6,0.5-1.6,0.3-2-0.3s-0.3-1.6,0.3-2
				C84.7,158.9,85.7,159.1,86.1,159.7"/>
			<path id="XMLID_137_" class="st7" d="M85.2,159.6c0,0.2-0.2,0.5-0.3,0.5c-0.3,0.2-0.5,0-0.6-0.2c0-0.2,0.2-0.5,0.3-0.5
				C84.9,159.2,85.2,159.4,85.2,159.6"/>
			<path id="XMLID_136_" class="st6" d="M85.1,157.4c0.3,0.5,0.3,1.1-0.2,1.4c-0.5,0.3-1.1,0.3-1.4-0.2c-0.3-0.5-0.3-1.1,0.2-1.4
				C84,156.7,84.7,156.9,85.1,157.4"/>
			<path id="XMLID_135_" class="st7" d="M84.4,157.2c0,0.2,0,0.3-0.3,0.3c-0.2,0-0.3,0-0.5-0.2c0-0.2,0-0.3,0.3-0.3
				C84.1,156.9,84.3,157,84.4,157.2"/>
			<path id="XMLID_134_" class="st6" d="M87.1,155.2c0.3,0.5,0.3,1.1-0.2,1.4c-0.5,0.3-1.1,0.3-1.4-0.2c-0.3-0.5-0.3-1.1,0.2-1.4
				S86.8,154.7,87.1,155.2"/>
			<path id="XMLID_133_" class="st7" d="M86.5,155c0,0.2,0,0.3-0.3,0.3c-0.2,0-0.3,0-0.5-0.2c0-0.2,0-0.3,0.3-0.3
				S86.5,154.9,86.5,155"/>
			<path id="XMLID_132_" class="st6" d="M89.6,151.7c0.6,0.2,0.9,0.6,0.9,1.3c-0.2,0.6-0.6,0.9-1.3,0.9c-0.6-0.2-0.9-0.6-0.9-1.3
				C88.5,152,89,151.7,89.6,151.7"/>
			<path id="XMLID_131_" class="st7" d="M89,152c0.2,0,0.2,0.3,0,0.5c-0.2,0.2-0.3,0.3-0.3,0.2c-0.2,0-0.2-0.3,0-0.5
				C88.8,152,89,152,89,152"/>
			<path id="XMLID_130_" class="st6" d="M90.4,158.1c-0.6,0.5-1.4,0.3-1.9-0.3s-0.3-1.4,0.3-1.9c0.6-0.5,1.4-0.3,1.9,0.3
				C91,156.9,91,157.7,90.4,158.1"/>
			<path id="XMLID_129_" class="st7" d="M90.5,157.4c-0.2,0-0.3-0.2-0.5-0.3c0-0.2,0-0.5,0.2-0.5s0.3,0.2,0.5,0.3
				C90.9,157,90.7,157.2,90.5,157.4"/>
		</g>
		<circle id="XMLID_127_" class="st6" cx="65.1" cy="142.6" r="19.9"/>
		<circle id="XMLID_126_" class="st5" cx="49.3" cy="160.2" r="6.3"/>
		<g id="XMLID_118_">
			<path id="XMLID_125_" class="st4" d="M45.1,159.2c0.2-0.6,0.6-0.2,0.8,0.2c0.2,0.5,0,0.9-0.3,1.3c-0.2,0.3-0.5,0.5-0.8,0.8
				c-0.2,0.2-0.3,0.2-0.5,0.3c0,0-0.2,0.2,0,0.3c0.2,0.2,0.6,0.2,0.9,0.2c0.5,0,0.9,0,1.4-0.2c0.3-0.2,0.5-0.8,0-0.5
				c-0.3,0.2-0.8,0.2-1.1,0.2c-0.2,0-0.6,0-0.8-0.2c0,0.2,0,0.2,0,0.3c-0.2,0.3,0,0.2,0.2,0c0.2-0.2,0.3-0.2,0.5-0.3
				c0.2-0.2,0.5-0.5,0.6-0.6c0.3-0.5,0.6-1.1,0.5-1.6c-0.3-1.4-1.7-0.3-2,0.3C44.4,159.9,45.1,159.4,45.1,159.2L45.1,159.2z"/>
			<path id="XMLID_124_" class="st4" d="M48.5,161.4c0.5,1.6,2.8,0.5,2.4-0.9c-0.2-0.6-0.9-0.6-1.6-0.8c-0.3-0.2-0.3-0.3-0.3-0.6
				c0.2-0.3,0.2-0.3-0.2-0.2c0.2,0,0.2,0,0.3,0c0.5-0.2,0.9,0,1.4,0.2c0.2,0.2,0.6-0.5,0.5-0.5c-0.6-0.3-1.3-0.2-1.7-0.2
				c-0.6,0.2-0.6,0.6-0.8,1.1c0,0.6,0.6,0.8,1.1,0.8c0.3,0,0.8,0.2,0.8,0.6c0,0.8-0.6,0.6-0.9,0.5c-0.2-0.2-0.3-0.3-0.3-0.5
				C49,160.8,48.5,161.3,48.5,161.4L48.5,161.4z"/>
			<g id="XMLID_120_">
				<path id="XMLID_123_" class="st4" d="M53.8,158.8c-0.6,1.1-1.4,2-2.2,3c-0.3,0.5,0.2,0.5,0.5,0.2c0.8-1.1,1.6-2,2.4-3.1
					C54.6,158.1,54,158.5,53.8,158.8L53.8,158.8z"/>
				<path id="XMLID_122_" class="st4" d="M52.6,158.5c-0.5,0-0.6,0.3-0.8,0.8c0,0.3,0.2,0.6,0.5,0.6
					C53.1,159.9,53.5,158.5,52.6,158.5c-0.2,0-0.5,0.5-0.2,0.5c0.2,0,0.3,0.2,0.3,0.3v0.2l0,0c0,0,0,0-0.2,0s-0.3-0.2-0.3-0.3v-0.2
					l0,0c0,0,0,0,0.2,0C52.6,158.8,52.9,158.5,52.6,158.5z"/>
				<path id="XMLID_121_" class="st4" d="M53.7,160.7c-0.5,0-0.6,0.3-0.8,0.8c0,0.3,0.2,0.6,0.5,0.6
					C54.2,162.1,54.6,160.7,53.7,160.7c-0.2,0-0.5,0.5-0.2,0.5c0.2,0,0.3,0.2,0.3,0.3v0.2l0,0c0,0,0,0-0.2,0s-0.3-0.2-0.3-0.3v-0.2
					l0,0c0,0,0,0,0.2,0S54,160.7,53.7,160.7z"/>
			</g>
			<path id="XMLID_119_" class="st4" d="M47.7,162.8c0.3-0.3,0.5-0.6,0.5-0.9c0-0.2,0-0.3,0-0.3c-0.2-0.2-0.3,0-0.5,0
				c-0.2,0-0.3,0.3-0.3,0.5c0,0.2,0.2,0.2,0.3,0.2l0,0l0,0v0.2c0,0.2,0,0.2-0.2,0.2l0,0l0,0l0,0c0-0.2,0,0,0,0
				c-0.2,0-0.3,0.3-0.2,0.5C47.4,163,47.6,162.8,47.7,162.8L47.7,162.8z"/>
		</g>
		<g id="XMLID_109_">
			<g id="XMLID_110_">
				<g id="XMLID_111_">
					<path id="XMLID_113_" class="st4" d="M80.7,146.4c-0.3-0.2-0.6,0-0.9,0.3c-0.2-0.5,0.2-1.4,0.2-1.9c0.3-1.6,0.3-2.7,0-3.1
						c-0.3-0.5-0.9-0.2-1.3-0.2c-0.2,0.2-0.3,0.2-0.5,0.3c0-0.3-0.2-0.6-0.3-0.9c-0.3-0.3-0.8-0.3-1.1-0.2c-0.2,0.2-0.5,0.2-0.6,0.3
						c0-0.2,0-0.3,0-0.5s0-0.2,0-0.2s-0.2,0-0.2-0.2h-0.2c-0.2,0-0.5,0.2-0.6,0.2c-0.2,0.2-0.2,0.2-0.3,0.3c-0.3,0.3-0.6,0.2-0.9,0
						c-0.3-0.2-0.5-0.3-0.6-0.6c-0.2-0.2-0.2-0.3-0.3-0.5c-0.5-0.3-1.1-0.2-1.4,0c0-0.3,0-0.8,0-1.1c0-0.3-0.6-0.2-0.8,0
						c-0.2,0.2-0.5,0.3-0.5,0.5c0,0-0.5,1.7-1.4,3.1c0-0.9,0.2-1.9,0.2-3c0-0.2,0-0.2-0.2-0.3c-0.2,0-0.3,0-0.5,0
						c-0.3,0.2-0.6,0.5-0.6,0.6c-0.2,1.4-0.3,4.2-1.1,4.2s-0.5-3.3-0.3-4.9c0-0.2-0.2-0.3-0.3-0.2c-0.2,0-0.3,0-0.3,0
						c-0.3,0.2-0.6,0.5-0.6,0.8c-0.2,0.9-0.3,1.9-0.6,2.8c-0.2,0.5-0.5,1.4-1.1,1.4c-0.6,0-0.6-0.6-0.5-1.1c0.2-0.5,0.5-0.9,0.8-1.4
						c0.3-0.6,0.5-0.9,0.6-1.3c0-0.6-0.3-1.1-1.1-1.3c-0.8,0-1.3,0.3-1.7,0.8c-0.2,0.2-0.3,0.3-0.5,0.3c-0.5,0-0.9-0.3-0.9-0.3
						c-0.2-0.2-0.5-0.3-0.9-0.2c-1.4,0.5-1.7,2-1.6,3.5c0,0.8,0,1.6-0.2,1.7c-0.5,0-0.8-0.6-1.1-0.9c-0.3-0.8-0.5-1.6-0.6-2.5
						c-0.2-1.3-0.2-2.5-0.2-3.6c0-0.3-0.5-0.2-0.6,0c-0.3,0.3-0.6,0.6-0.6,0.9c0,1.4,0.2,3,0.2,4.5c0,0.8,0,1.6-0.2,2.2
						c-0.2,0.3-0.3,0.3-0.5,0.3c-0.5-0.2-0.6-0.6-0.8-1.1c-0.2-0.6-0.3-1.4-0.3-2.2c0-0.8,0-1.4-0.2-2.2c0-0.5,0-1.1-0.3-1.4
						c-0.5-0.8-1.7,0.5-2,0.9c-0.6,0.8-0.9,1.7-0.9,2.5c0,0.3,0.2,0.5,0.5,0.2c0.3-0.3,0.6-0.6,0.6-1.1c0-0.3,0.2-1.1,0.5-1.3l0,0
						l0,0c0,0,0,0,0,0.2c0,0.2,0.2,0.3,0.2,0.6c0.2,1.4,0.2,3,0.5,4.4c0.2,1.1,0.6,2.5,2,2c0.8-0.2,1.3-1.1,1.6-1.7c0,0,0,0,0-0.2
						c0.3,0.6,0.9,1.1,1.7,0.9c0.6-0.2,0.8-0.8,0.9-1.3c0.3,0.5,0.6,0.8,1.3,0.8c0.6-0.2,1.3-0.8,1.4-1.4c0.3-0.6,0.3-1.4,0.3-2
						c0-0.3,0-0.8-0.2-1.1c0.2,0,0.3,0,0.5-0.2c0.3-0.2,0.6-0.6,0.9-0.8c0.2,0,0.3,0,0.5,0c0.9,0.5-0.5,1.6-0.9,2.5
						c-0.3,0.6-0.6,1.6,0,2.2c0.8,0.9,2.4,0.3,3-0.6c0.2-0.2,0.3-0.5,0.5-0.6c0,0.8,0.3,1.6,1.3,1.6c0.5,0,0.8-0.2,1.1-0.5
						c-0.5,0.6-0.8,1.4-1.3,2.2c-0.3,0.6-0.6,1.3-0.6,2c0,0.8,0.9,1.3,1.6,0.8c0.6-0.3,1.1-1.1,1.3-1.9c0.3-1.3,0.3-2.5,0.3-3.8
						c0.6-0.9,1.1-1.7,1.6-2.8c0,1.3-0.2,2.7-0.2,3.9c-0.2,1.4-0.3,2.8-0.5,4.2c0,0.3,0.3,0.3,0.5,0.2c0.3-0.2,0.6-0.3,0.6-0.6
						c0.2-1.1,0.3-2.2,0.5-3.1c0.5,0,0.9,0,1.3-0.3c0.9-0.6,1.3-1.7,1.3-2.8c0-0.2,0-0.3,0-0.5c0.5,0.2,0.8,0,1.3-0.2
						c-0.2,1.4-0.5,2.7-0.6,4.1c-0.2,0.6,1.1,0.2,1.3-0.3c0.2-1.3,0.6-2.4,1.1-3.5c0-0.2,0.2-0.2,0.2-0.3l0,0c0.2,0.8,0,1.6-0.2,2.2
						c0,0.3-0.2,0.6-0.2,0.9c-0.2,0.5-0.2,0.8-0.3,1.3c-0.2,0.6,1.1,0.2,1.3-0.3c0.2-0.3,0.2-0.8,0.3-1.1c0.3-0.9,0.6-1.7,1.1-2.5
						c0.2,0.5,0,0.9,0,1.4c0,0.6-0.2,1.1-0.3,1.7c-0.2,0.5-0.2,0.9,0,1.4c0.3,1.1,1.7,0.2,2.2-0.2C80.8,146.9,81,146.5,80.7,146.4z
						 M59.5,144.2c0,0.2,0,0.3-0.2,0.3c-0.3,0-0.5-0.3-0.6-0.6c-0.2-0.5-0.3-0.9-0.3-1.4c0-0.5,0-0.9,0-1.6c0-0.2,0-0.3,0.2-0.3
						s0.2,0.2,0.3,0.2c0.3,0.3,0.6,1.4,0.6,1.7C59.6,143.2,59.6,143.7,59.5,144.2z M67.5,146.7c0,0.5,0,1.1-0.2,1.6
						c0,0.2,0,0.3-0.2,0.5c0,0-0.2,0-0.3-0.2c-0.3-0.3-0.2-0.8,0-1.1c0.2-0.5,0.5-1.1,0.8-1.6C67.5,146.2,67.5,146.4,67.5,146.7z
						 M72.2,144.7L72.2,144.7C72.2,144.7,72,144.7,72.2,144.7c-0.5,0-0.8-0.5-0.6-0.8c0-0.8,0.2-1.6,0.2-2.4l0,0
						c0-0.3,0-0.5,0.2-0.8l0,0l0,0c0.2,0,0.3,0.2,0.5,0.3c0.3,0.5,0.3,1.3,0.3,1.9C72.7,143.4,72.5,144.2,72.2,144.7z"/>
					<path id="XMLID_112_" class="st4" d="M53.1,137.6c0.8-0.3,1.4-0.9,1.9-1.6c0.2-0.2,0.5-0.6,0.2-0.8c-0.3-0.2-0.8,0.3-0.8,0.5
						c-0.2,0.3-0.3,0.6-0.6,0.8c-0.3,0.2-0.8,0-0.9-0.2c-0.3-0.3-1.4,0.8-1.1,1.1C52,137.8,52.4,137.9,53.1,137.6z"/>
				</g>
			</g>
		</g>
		<path id="XMLID_108_" class="st6" d="M55.9,118.2c0,1.4-1.1,2.5-2.5,2.5c-1.4,0-2.5-1.1-2.5-2.5c0-1.4,1.1-2.5,2.5-2.5
			C54.6,115.6,55.9,116.7,55.9,118.2L55.9,118.2z"/>
		<path id="XMLID_107_" class="st5" d="M55.9,126.8c0,1.7-1.4,3.3-3.3,3.3c-1.7,0-3.3-1.4-3.3-3.3c0-1.9,1.4-3.3,3.3-3.3
			S55.9,124.9,55.9,126.8L55.9,126.8z"/>
		<path id="XMLID_106_" class="st5" d="M47.3,121.8c0,1.1-0.9,1.9-1.9,1.9c-1.1,0-1.9-0.9-1.9-1.9c0-1.1,0.9-1.9,1.9-1.9
			C46.3,119.7,47.3,120.7,47.3,121.8L47.3,121.8z"/>
		<g id="XMLID_92_">
			<circle id="XMLID_105_" class="st5" cx="82.2" cy="124.4" r="11"/>
			<g id="XMLID_93_">
				<path id="XMLID_102_" class="st4" d="M79.6,122.9c-0.9,0.2-1.1,1.3-1.3,1.9l0,0l0,0c0,0.2,0,0.2,0,0.3c0,0.3,0,0.6,0,0.9
					c0,0.2,0,0.5-0.2,0.5c-0.3,0-0.6-0.5-0.6-0.6c-0.2-0.6-0.3-1.1-0.5-1.7s-0.2-1.3-0.2-1.9c0-0.3,0-0.5,0-0.8c0-0.2,0-0.2,0-0.3
					V121c0.2-0.5-0.6,0-0.8,0.2c-0.8,1.3-0.5,2.8-0.5,4.2c0,0.3,0,0.8,0,1.1s-0.2,0.8-0.3,0.9c-0.2,0.2-0.3,0-0.5,0
					c-0.2-0.2-0.3-0.3-0.3-0.5s-0.3-0.2-0.3,0c-0.2,0.2-0.3,0.5-0.3,0.6c0.2,0.5,0.5,0.9,1.1,0.8c0.8-0.3,1.1-1.3,1.4-2
					c0.2-0.3,0.2-0.8,0.2-1.1c0.2,0.5,0.3,1.1,0.5,1.6c0.2,0.3,0.5,0.8,0.9,0.6c0.3,0,0.6-0.5,0.8-0.8c0.2,0.3,0.5,0.6,0.8,0.6
					c0.5,0,0.8-0.5,0.9-0.9c0.2-0.5,0.3-0.9,0.3-1.4C80.7,124.1,80.5,122.7,79.6,122.9z M79.7,126c0,0.2,0,0.2,0,0.3
					c-0.2,0-0.3-0.3-0.3-0.5c-0.2-0.3-0.2-0.6-0.3-0.9c0-0.3,0-0.6,0-1.1c0-0.2,0-0.2,0-0.3c0.5,0.3,0.6,0.9,0.6,1.4
					C79.9,125.4,79.9,125.7,79.7,126z"/>
				<path id="XMLID_99_" class="st4" d="M90.4,124.1c-0.9-0.3-1.6,0.9-1.7,1.7c-0.2,0.6-0.3,1.9,0.5,2.2c0.5,0.2,0.9-0.2,1.1-0.5
					c0.3-0.3,0.5-0.8,0.6-1.3C91.2,125.7,91.3,124.4,90.4,124.1z M89.8,127.2l-0.2,0.2c-0.2-0.2-0.2-0.5-0.2-0.5c0-0.3,0-0.6,0-0.9
					s0.2-0.6,0.3-0.9l0.2-0.2c0.3,0.5,0.3,1.1,0.2,1.6C90.1,126.6,89.9,126.9,89.8,127.2z"/>
				<path id="XMLID_94_" class="st4" d="M87.7,124.3c0.2-0.3,0.3-0.5,0.5-0.8c0.3-0.5,0.8-1.3,0.6-1.9c0-0.6-0.9-0.6-1.3-0.5
					c-0.6,0.3-0.9,0.9-1.1,1.6c-0.3,0.8-0.3,1.7-0.5,2.5l0,0c-0.3,0.3-0.9,1.1-1.4,0.8c-0.2,0-0.2-0.3-0.3-0.5
					c0.5-0.5,0.8-0.8,1.1-1.4c0.3-0.5,0.5-1.3,0-1.6c-0.5-0.3-1.1,0-1.4,0.5c-0.3,0.3-0.5,0.9-0.5,1.4c0,0.3,0,0.8,0,1.1
					c-0.3,0.2-0.6,0.3-0.9,0.2c-0.3,0-0.5-0.5-0.6-0.8c-0.2-0.5,0-0.9,0-1.4c0-0.2,0-0.3,0.2-0.5c0,0,0,0,0-0.2
					c0.2,0.2,0.3,0.5,0.3,0.6c0.2,0.3,0.9-0.2,0.8-0.5c-0.2-0.3-0.2-0.6-0.6-0.8c-0.3-0.2-0.8,0.2-0.9,0.3c-0.6,0.6-0.6,1.4-0.6,2.2
					c0,0.5,0.2,1.1,0.6,1.4c0.6,0.3,1.4,0,2-0.3c0.2,0.3,0.5,0.6,0.9,0.6c0.6-0.2,1.1-0.5,1.6-0.8c0,0.5,0.2,0.9,0.5,1.1
					c0.5,0.3,1.1,0,1.6-0.5c0.5-0.6,0.6-1.4,0.5-2C88.3,124.4,88,124.3,87.7,124.3z M84.4,124c0-0.2,0.2-0.3,0.2-0.3l0,0
					c0.2,0,0.3,0.3,0.3,0.6c0,0.3-0.3,0.8-0.6,1.1v-0.2C84.3,124.6,84.3,124.3,84.4,124z M87.6,122.1c0-0.2,0.2-0.3,0.3-0.3l0,0
					c0.3,0.5,0,0.9-0.2,1.4c-0.2,0.3-0.5,0.8-0.8,1.1c0-0.3,0.2-0.8,0.2-1.1C87.2,122.9,87.4,122.4,87.6,122.1z M87.4,126.6
					c0,0,0,0.2-0.2,0.2c0,0,0,0-0.2,0c-0.3-0.2-0.3-0.6-0.3-0.8s0-0.3,0-0.6c0.2-0.2,0.2-0.2,0.3-0.3c0.2-0.2,0.3,0.2,0.5,0.3
					C87.7,125.7,87.6,126.3,87.4,126.6z"/>
			</g>
		</g>
		<g id="XMLID_79_">
			<g id="XMLID_80_">
				<path id="XMLID_91_" class="st4" d="M72.5,154.4c-0.3-0.5-0.9,0.2-1.1,0.6c-0.2,0.5,0,1.1,0.3,1.6c0.3,0.3,0.9,0.3,1.1-0.3
					C73.3,155.5,72.7,154.9,72.5,154.4c-0.2,0.2-0.2,0.3-0.3,0.5c0.2,0.3,0.9,2.2,1.6,1.1c0.2-0.3,0-0.6-0.3-0.2
					c0,0.2-0.5-0.5-0.5-0.5C72.8,155,72.7,154.7,72.5,154.4c-0.2-0.2-0.5,0.3-0.3,0.5c0.2,0.3,0.3,0.6,0.5,0.9c0,0.2,0.2,0.3,0,0.3
					s-0.2,0-0.3,0c-0.2-0.2-0.3-0.5-0.5-0.6c0-0.2,0-0.3-0.2-0.5v-0.2c0-0.2,0.3,0,0.3,0C72.2,155,72.5,154.5,72.5,154.4L72.5,154.4
					z"/>
				<path id="XMLID_90_" class="st4" d="M58.9,154.4c-0.8-0.2-1.4,0.3-1.7,0.8c-0.2,0.5-0.2,1.4,0.6,1.3
					C58.9,156.3,59.2,155.2,58.9,154.4c0-0.3,0-0.5,0-0.8c0-0.2,0-0.2,0-0.3v-0.2c-0.3,0-0.3,0,0,0.2c0.3,0.3,0.6,0.6,1.1,0.6
					c0.2,0,0.6-0.3,0.3-0.3c-0.6,0-0.8-0.8-1.4-0.8c-0.5,0-0.6,0.5-0.6,0.8c0.2,0.5,0.2,0.8,0.2,1.3c0,0.2-0.5,1.3-0.6,1.1
					c-0.5-0.3,0.3-1.6,0.8-1.4C58.7,154.9,59.2,154.5,58.9,154.4L58.9,154.4z"/>
				<path id="XMLID_89_" class="st4" d="M69.1,155.5c0.5,0.6,0.5,1.4,0.6,2.2c0,0.3,0.5-0.2,0.5-0.3c0-0.3-0.2-0.6-0.2-1.1
					c0-0.2-0.2-0.8,0.3-0.6c0.2-0.2,0.2-0.3,0.3-0.5c-1.1-0.2-1.1,1.3-0.9,1.7c0,0.2,0.2,0,0.3,0c0.6-0.5,0.5,1.1,1.3,0.5
					c0.5-0.3,0.8-1.1,0.8-1.6c0-0.3-0.3,0-0.5,0.2c0,0.3-0.2,0.6-0.3,0.8c-0.2,0.2-0.5-0.5-0.5-0.5c-0.3-0.3-0.6-0.2-0.9,0.2
					c0.2,0,0.2,0,0.3,0c0-0.2-0.2-0.9,0.3-0.8c0.2,0,0.5-0.5,0.3-0.5c-1.4-0.2-0.9,2.2-0.9,2.7c0.2-0.2,0.3-0.3,0.5-0.3
					c-0.2-0.8-0.3-1.6-0.8-2.2C69.4,155,68.9,155.3,69.1,155.5L69.1,155.5z"/>
				<path id="XMLID_88_" class="st4" d="M65,156.3c0,0.6,0.2,1.4,0,2c0,0.3,0.6-0.2,0.6-0.3c0-0.5,0.2-0.6,0.5-0.9s0.5-0.8,0.5-1.1
					s-0.5,0-0.5,0.2c-0.2,0.6-0.2,1.4,0,1.9c0.2,0.6,1.3-0.2,1.4-0.5c0.3-0.3,0-0.5-0.3-0.2c0,0-0.5,0.5-0.5,0.3
					c-0.2-0.2-0.2-0.3-0.2-0.6c0-0.5-0.2-0.9,0-1.4c-0.2,0-0.3,0.2-0.5,0.2c-0.2,0.5-0.2,0.8-0.6,1.1c-0.3,0.3-0.5,0.8-0.5,1.1
					c0.2-0.2,0.3-0.2,0.6-0.3c0-0.6,0-1.4-0.2-2C65.4,155.8,65,156.1,65,156.3L65,156.3z"/>
				<path id="XMLID_87_" class="st4" d="M69.5,157c0,0.2-0.2,0.2-0.2,0.3c-0.2,0.2,0,0,0,0c-0.2,0-0.3-0.2-0.5-0.3
					c-0.3-0.5-0.3-0.9-0.5-1.4c0-0.3-0.5,0.2-0.5,0.3c0,0.3,0.2,0.6,0.2,0.9c0,0.2,0,0.3,0,0.5c0,0.2,0,0.3-0.2,0.2
					c-0.6-0.2-0.5-1.3-0.5-1.7c0-0.3-0.5,0-0.5,0.2c0,0.5-0.3,2.2,0.8,2c1.3-0.3,0.6-1.9,0.5-2.5c-0.2,0.2-0.3,0.2-0.5,0.3
					c0.2,0.6,0.2,1.6,0.8,1.9C69.1,158,69.5,157,69.5,157C70.2,156.7,69.7,156.9,69.5,157L69.5,157z"/>
				<path id="XMLID_86_" class="st4" d="M61.4,155.9c-0.2,0.5-1.1,2,0,2.2c1.3,0.2,1.4-1.4,1.6-2c0-0.2-0.5,0-0.5,0.2
					c-0.2,0.5-0.3,0.8-0.5,1.3c0,0.2-0.2,0.5-0.3,0.3c-0.3-0.2,0-0.8,0-0.9c0.2-0.3,0.2-0.6,0.3-0.9C62,155.5,61.4,155.8,61.4,155.9
					L61.4,155.9z"/>
				<path id="XMLID_85_" class="st4" d="M62.5,156.1c-0.2,0.5-0.5,3.5-0.9,3.5c-1.3-0.3,1.7-1.7,2-2c0.3-0.2,0.2-0.5-0.2-0.2
					c-0.6,0.3-1.4,0.6-1.9,1.1c-0.3,0.3-1.3,1.1-0.3,1.4c0.6,0.2,1.3-0.3,1.4-0.6c0.5-0.9,0.3-2.2,0.5-3.3
					C62.9,155.8,62.5,155.9,62.5,156.1L62.5,156.1z"/>
				<path id="XMLID_84_" class="st4" d="M64.8,156.4c-0.2-0.5-0.5-0.6-0.9-0.3c-0.5,0.3-0.6,1.1-0.5,1.6c0,0.5,0.3,0.8,0.9,0.8
					c0.6-0.2,1.1-0.5,1.4-0.8s-0.2-0.3-0.3,0c-0.3,0.3-1.1,0.9-1.4,0.2c-0.2-0.2,0-0.5,0-0.8c0-0.2,0.2-0.5,0.2-0.6
					c0,0.2,0.2,0.3,0.2,0.5C64.4,156.9,64.8,156.6,64.8,156.4L64.8,156.4z"/>
				<path id="XMLID_83_" class="st4" d="M58.4,154.7c0.2,0.6,0.9,0.8,1.6,0.6c0.3,0,0.5-0.3,0-0.3s-0.8,0-0.9-0.5
					C58.9,154.4,58.4,154.5,58.4,154.7L58.4,154.7z"/>
				<path id="XMLID_82_" class="st4" d="M59,156.7c-0.2,0.5,0.5,0.8,0.9,0.6c0.5-0.2,0.8-0.6,0.8-0.9c0.2-0.3,0.2-0.8-0.2-1.1
					c-0.2-0.2-0.5-0.2-0.6,0c-0.3,0-0.6,0.3-0.6,0.6c-0.2,0.2,0.5,0.2,0.6,0c0.2-0.3,0.3-0.3,0.3,0c0,0.2,0,0.3,0,0.6
					c0,0.2-0.2,0.5-0.3,0.6l-0.2,0.2l0,0c-0.2-0.2-0.2-0.2-0.2-0.3C59.8,156.4,59.2,156.6,59,156.7L59,156.7z"/>
				<path id="XMLID_81_" class="st4" d="M59.6,154.9c-0.3,1.3-0.8,2.4-1.4,3.5c-0.2,0.2,0.6,0.2,0.6,0c0.6-1.1,1.1-2.4,1.3-3.6
					C60.3,154.7,59.6,154.7,59.6,154.9L59.6,154.9z"/>
			</g>
		</g>
		<g id="XMLID_74_">
			<path id="XMLID_78_" class="st8" d="M41.1,134.1c-0.2,0-0.2-0.2-0.3-0.2c-0.5-0.2-0.8,0.2-1.1,0.2c-0.9,0-1.3,0-2.4-0.3
				c0-0.9,0.6-1.6,0.8-2.4c0.2-0.6-0.2-1.4-0.2-2.2c0-0.5,0-0.9,0-1.4c-0.3,0.3-0.2,1.3-0.2,1.6c-0.2-0.6-0.2-1.4-0.3-1.9
				c-0.2,0.6,0,1.4,0,1.9c-0.2-0.5-0.2-1.1-0.5-1.6c-0.3,0.5,0.2,1.3,0.2,1.9c-0.2-0.5-0.3-1.1-0.5-1.4c-0.2,0.6,0.2,1.1,0.2,1.6
				c-0.2-0.3-0.3-0.8-0.6-1.1c0,0.5,0.3,0.9,0.5,1.3c-0.3-0.2-0.3-0.5-0.6-0.6c0,0.3,0.3,0.5,0.3,0.8c-0.2-0.2-0.3-0.3-0.5-0.5
				c0,0.3,0.3,0.3,0.3,0.6c-0.2-0.2-0.3-0.2-0.5-0.3c0,0.2,0.3,0.3,0.3,0.5c0,0-0.2-0.2-0.2,0l0.2,0.2c-0.2,0-0.2,0-0.2,0
				c0,0.2,0.2,0.2,0.2,0.3c0,0,0,0-0.2,0c0,0.2,0.2,0.2,0.2,0.2c-0.8,0.8-0.3,1.7-0.5,2.7c0-0.2-0.6-0.3-1.3-0.5
				c-0.3-0.2-0.3-0.5-0.6-0.6c0,0,0.2,0,0.2-0.2c-0.2,0-0.2,0-0.2-0.2c0.2,0,0.3,0,0.3,0c-0.2-0.2-0.5-0.2-0.5-0.3
				c0.2,0,0.3,0.2,0.5,0.2c-0.2-0.2-0.6-0.3-0.6-0.5c0.2,0.2,0.5,0.3,0.8,0.2c-0.3-0.2-0.8-0.5-0.9-0.8c0.3,0.2,0.6,0.5,0.8,0.5
				c-0.5-0.2-0.8-0.6-1.1-0.6c0.2,0.3,0.8,0.6,0.9,0.8c-0.3-0.2-0.6-0.3-0.9-0.5c0.2,0.5,0.6,0.5,0.9,0.8c-0.3,0-0.5-0.2-0.8-0.2
				c0.2,0.3,0.6,0.3,0.8,0.5c-0.2-0.2-0.3,0-0.5,0c0,0.2,0.3,0.2,0.5,0.3c-0.2,0-0.3,0-0.5,0.2c0.2,0.2,0.3,0,0.5,0.2
				c-0.2,0-0.2,0-0.2,0.2c0,0.2,0.3,0,0.3,0.2c0,0-0.2,0-0.2,0.2h0.2c0,0,0,0-0.2,0.2c0.5,0.2,0.6,0.9,1.3,1.1
				c-0.3,0.3,0.3,0.5-3.5,1.7c0.2,0,1.7-0.3,2.2-0.5s0.9-0.3,1.4-0.5c0.2,0,0.2-0.2,0.3-0.2c0.8,0,1.6,0,2.4-0.5
				c-0.6,0.2-1.6,0.2-2-0.2c0.5-0.8,0.2-2.8,0.6-3.3c0.5-0.5,1.1-1.7,1.9-0.6c0.2,0.2,0.2,0.5-0.2,0.9c-0.3,0.6-0.6,0.8-0.5,2
				c0,0.3,0,0.5-0.3,0.5c1.7,0.3,2.2,0.2,3.1,0c0.3,0,0.8-0.3,0.8,0c0,0.2-0.3,0.2-0.6,0.2c-0.5,0,0.2,0.2,0.5,0.2
				c0.2,0,0.9-0.2,1.4-0.2C41.6,134.3,41.5,134.3,41.1,134.1z"/>
			<path id="XMLID_75_" class="st8" d="M36.3,125.7c-3.8,0-6.9,3.1-6.9,6.9s3.1,6.9,6.9,6.9c3.8,0,6.9-3.1,6.9-6.9
				C43.2,128.7,40,125.7,36.3,125.7 M36.3,125.8c3.6,0,6.6,3,6.6,6.6c0,3.6-3,6.6-6.6,6.6c-3.6,0-6.6-3-6.6-6.6
				C29.5,128.8,32.5,125.8,36.3,125.8"/>
		</g>
	</g>
</g>
</svg>
