<svg xmlns="http://www.w3.org/2000/svg" viewBox="0 0 130 250"><style>.st0{fill:#519E38;} .st1{fill:#F4F4F4;} .st2{fill:#D6D6D6;} .st3{fill:#EAEAEA;} .st4{fill:#FFFFFF;} .st5{fill:#99C5E9;} .st6{fill:#62BA47;} .st7{fill-rule:evenodd;clip-rule:evenodd;fill:#99C5E9;} .st8{fill-rule:evenodd;clip-rule:evenodd;fill:#62BA47;} .st9{fill:#62BA46;}</style><g id="butylka_2"><path class="st0" d="M110.1 218.5v-99.6c0-35.1-14.6-48.4-14.6-48.4C99.4 48.8 89 42.3 89 42.3v-7.8h2.2V23.3l-3.9-2.5H57.6s-3.9-.3-3.9 2.5v11.2H56v7.8h-.1s-10.4 6.5-6.5 28.2c0 0-14.6 13.4-14.6 48.4v99.6s-1.5 21.4 14.3 21.4H96c15.6 0 14.1-21.4 14.1-21.4z"/><path class="st1" d="M102.5 213.5v-99.6c0-35.1-14.6-48.4-14.6-48.4 3.9-21.7-6.5-28.2-6.5-28.2v-8h-33v8h-.1s-10.4 6.5-6.5 28.2c0 0-14.6 13.4-14.6 48.4v99.6s-1.5 21.4 14.3 21.4h46.8c15.7 0 14.2-21.4 14.2-21.4z"/><path class="st2" d="M79.8 15.8H49.9s-3.9-.3-3.9 2.5v11.2h37.5V18.3l-3.7-2.5z"/><path class="st3" d="M102.4 213.5v-99.6c0-35.1-14.6-48.4-14.6-48.4 3.9-21.7-6.5-28.2-6.5-28.2v-8H64.8v205.6H88.2c15.7 0 14.2-21.4 14.2-21.4z"/><path class="st4" d="M39.5 102.4H39c-2.3-.3-3.9-2.4-3.6-4.7 1.9-14.4 8.8-23.1 9.1-23.5 1.4-1.8 4.1-2.1 5.9-.6 1.8 1.4 2.1 4.1.6 5.8-.1.1-5.8 7.4-7.4 19.3-.3 2.1-2.1 3.7-4.1 3.7z"/><g><circle class="st5" cx="64.3" cy="142.5" r="20.2"/><circle class="st6" cx="48.2" cy="160.4" r="6.4"/><path class="st7" d="M54.7 117.7c0 1.4-1.2 2.6-2.6 2.6-1.4 0-2.6-1.2-2.6-2.6 0-1.4 1.2-2.6 2.6-2.6 1.5 0 2.6 1.2 2.6 2.6z"/><path class="st8" d="M54.8 126.4c0 1.8-1.5 3.3-3.3 3.3-1.8 0-3.3-1.5-3.3-3.3 0-1.8 1.5-3.3 3.3-3.3 1.9 0 3.3 1.5 3.3 3.3zM46 121.3c0 1.1-.9 2-2 2s-2-.9-2-2 .9-2 2-2 2 .9 2 2z"/><circle class="st6" cx="81.6" cy="124" r="11.1"/><path class="st4" d="M78.8 122.4c-.9.1-1.2 1.2-1.2 2v.3c0 .4 0 .6-.1 1 0 .1-.1.4-.1.4-.3 0-.6-.5-.7-.7-.2-.6-.4-1.2-.5-1.8-.1-.6-.2-1.3-.2-2v-.8-.3-.2c.1-.5-.6 0-.7.2-.7 1.3-.5 2.8-.5 4.2 0 .4 0 .8-.1 1.2 0 .3-.1.7-.3.9-.1.1-.4 0-.5 0-.2-.1-.3-.3-.3-.5s-.3-.1-.4 0c-.2.2-.3.4-.3.7.1.5.5.9 1.1.8.8-.2 1.2-1.2 1.4-2 .1-.4.1-.8.2-1.1.1.6.3 1.1.5 1.6.2.4.5.8 1 .7.3-.1.6-.4.8-.9.2.4.4.6.8.6.5 0 .9-.5 1-.9.2-.4.3-.9.3-1.4 0-.7-.2-2.1-1.2-2zm.3 3.2c0 .1 0 .2-.1.3-.2 0-.3-.3-.4-.4-.1-.3-.2-.6-.2-1v-1.1c0-.1 0-.2.1-.3.5.3.6.9.6 1.4.1.4.1.8 0 1.1zM89.9 123.8c-1-.4-1.6 1-1.7 1.7-.2.7-.4 1.9.5 2.3.4.2.9-.1 1.2-.4.3-.3.5-.8.6-1.2.1-.8.3-2.1-.6-2.4zm-.6 3.1c0 .1-.1.2-.1.2-.2-.1-.2-.4-.2-.6-.1-.4 0-.7 0-1 .1-.3.2-.7.3-1 0-.1.1-.2.1-.2.4.4.3 1.1.2 1.6-.1.4-.1.7-.3 1zM87.2 123.9c.2-.2.4-.5.5-.8.4-.6.7-1.2.7-1.9 0-.6-.9-.7-1.3-.5-.6.3-1 1-1.2 1.6-.2.9-.4 1.7-.4 2.6-.3.4-1 1.2-1.5.8-.1-.1-.2-.2-.2-.4.4-.4.8-.9 1.1-1.4.3-.5.5-1.2-.1-1.5-.5-.3-1.1 0-1.4.4-.3.4-.5.9-.5 1.4 0 .3-.1.7 0 1.1-.3.2-.7.3-1 .2-.4-.1-.5-.5-.6-.8-.1-.5-.1-1 0-1.4 0-.1.1-.3.1-.4v-.1c.2.1.3.5.4.6.1.3.9-.2.9-.5-.1-.3-.2-.7-.6-.8-.4-.2-.8.1-1 .3-.6.6-.7 1.5-.6 2.3 0 .5.1 1.2.6 1.4.6.4 1.4 0 2-.3.2.4.4.6.9.6.6-.1 1.1-.4 1.6-.8 0 .5.1 1 .4 1.1.5.3 1.2 0 1.5-.5.5-.6.7-1.4.4-2.1-.1 0-.4-.2-.7-.2zm-3.4-.4c0-.1.1-.3.2-.4.2.1.3.4.3.6-.1.4-.3.7-.6 1.1v-.2c0-.3 0-.7.1-1.1zm3.2-1.8c.1-.1.1-.3.2-.4.4.4 0 1-.2 1.4-.2.4-.4.8-.7 1.2.1-.4.1-.8.2-1.1.2-.4.4-.7.5-1.1zm-.2 4.6s-.1.1-.1.2h-.1c-.2-.1-.3-.7-.3-.9v-.6c.1-.1.2-.2.3-.4.2-.1.4.1.4.4.2.4 0 .9-.2 1.3zM53.1 159.1c-.6 1-1.3 1.9-2 2.8-.3.4.2.4.4.1.7-.9 1.5-1.9 2.1-2.9.3-.5-.3-.2-.5 0zM52.1 158.8c-.4 0-.6.3-.7.7-.1.3.1.6.4.6.7 0 1.1-1.2.3-1.3-.2 0-.4.4-.2.4s.3.2.3.3v.2h-.1c-.2 0-.3-.1-.3-.3v-.2h.1c.1 0 .4-.4.2-.4zM53.1 160.9c-.4 0-.6.3-.7.7-.1.3.1.6.4.6.7 0 1.1-1.3.3-1.3-.2 0-.4.4-.2.4s.3.2.3.3v.2h-.1c-.2 0-.3-.1-.3-.3v-.2h.1c.1-.1.4-.4.2-.4z"/><g><path class="st4" d="M79.8 146c-.2 0-.4.1-.5.2-.3-1.1 0-2.2.3-3.2.1-.5-.3-.9-.8-1-.5-.1-1 .2-1.3.5-.4.4-.7 1.1-.8 1.7-.1.5-.4.8-.5.8-.3-.1-.2-.5-.2-.7 0-.4 0-.8-.2-1.1-.1-.3-.4-.3-.7-.3.3-.9.5-1 .6-1.1.2.1.3.2.3.2.3.3 1.2-.2.9-.5-.3-.4-.7-.5-1.1-.4-.3 0-.5.2-.7.4l-.1.1v-1.5c0-.4-1 0-1 .4 0 .2.1.5.1.7 0 1.1-.3 2.1-1.1 2.9v-.3c0-.7.2-1.3.2-2 0-.4.1-1-.2-1.5-.3-.4-1 0-1.2.2l-.1.1c0-.3-.1-.5-.3-.7-.2-.2-.6-.1-.8 0-.2.1-.3.2-.4.3v-.3c0-.2 0-.3-.1-.3-.2 0-.3 0-.4.1-.2.1-.2.2-.3.3-.1.1-.2.1-.4.1-.7-.1-.7-.7-1.3-.8-1-.1-1.4 1.2-1.5 2-.1.4-.3 1-.7 1.3.2-.5.2-1 .2-1.5 0-.6-.1-1.6-.8-1.9-.4-.2-.8 0-1.1.2 0-.3-.1-.8-.1-.9 0-.1-.2-.1-.3-.1-.3.1-.5.3-.6.5-.1.2-.1.6-.6.5-.3 0-.5-.3-1-.3-1.1.3-1.4 1.6-1.3 2.6 0 .7.1 2.2 1.1 2.2.5 0 .9-.6 1.1-1 .2-.5.3-1 .3-1.6 0-.3 0-.8-.1-1.2.2-.1.4-.2.6-.4.1.4.1.7.1 1.1v.1c.1.8.1 1.5.1 2.3v3.1c0 .2.3.2.4.1.2-.1.4-.3.4-.6.1-.7.1-1.5.1-2.2.9 0 1.7-.6 2.1-1.1.1.6.3 1.2.9 1.3.5.1 1-.4 1.2-.8.3-.5.4-1 .4-1.5v-.8c.2 0 .4-.1.6-.2-.1 1.1-.2 2.2-.2 3.3 0 .5.9 0 .9-.3.1-1 .2-2.1.7-3 .2.2.1 1.2.1 1.8 0 .3-.1.6-.1 1 0 .3-.1.5-.1.8 0 .5.9 0 .9-.3s.1-.5.1-.8c.1-.5.3-2 .7-2.2.2.1.1 1 0 1.3 0 .6-.2 1.3-.1 1.9.1 1 1.2.3 1.5-.1l.3-.3c-.1.3-.1.6-.2 1-.1.5.8.1.9-.2l.3-1.2c.5.3 0 1.5.4 1.9.3.3.8.2 1.1.1.1 0 .2-.1.3-.2 0 .3.1.5.3.7.4.3.9.2 1.2 0 0 0 .1 0 .1-.1v.2c.2 1 1.4.5 1.7 0 .1.4 0 .2-.2.2zm-18.5-2.7c0 .1 0 .2-.1.3-.2 0-.3-.3-.4-.5-.2-.3-.2-.7-.2-1.1 0-.4 0-.8.1-1.2 0-.1 0-.2.1-.3h.1l.1.1c.3.3.4 1.2.4 1.4 0 .6 0 1-.1 1.3zm2.5-.4c0-.6 0-1.3-.1-1.9 0-.4.1-.5.1-.5.2 0 .3.1.4.2.3.4.4.9.4 1.3 0 .5-.1 1.4-.2 1.5-.4 0-.6-.2-.6-.6zm3.6.4c0 .1-.1.2-.1.3-.2-.1-.3-.4-.4-.5-.1-.4-.1-.7-.1-1.1 0-.4 0-.8.2-1.1 0-.1.1-.2.1-.3.5.2.5 1.3.5 1.6-.1.3-.1.7-.2 1.1zm10.4 2.4s-.1 0-.1-.1c-.2-.1-.2-.4-.2-.6-.1-.6.1-1.3.4-1.8.1-.2.3-.4.4-.5h.2c.2.1.3.3.2.5-.2.8-.4 1.6-.7 2.4-.1 0-.1 0-.2.1zM58.8 141.1c-.2-.1-.4-.1-.6 0 .1-.4.3-.8.4-1.3.1-.6.4-1.6 0-2.1-.4-.6-1.2 0-1.6.4-.5.7-.5 1.6-.6 2.3 0 .9.1 1.7.3 2.6-.1.3-.2 1-.5 1.4-.2 0-.3-.4-.3-.6-.3-1-.4-2-.2-3 0-.2-.1-.3-.3-.2-.2.1-.5.4-.5.6 0 .2-.1.8-.4.9-.2.1-.5.1-.7 0-.3-.1-.8.1-1.1.4-.1-.4-.1-.8-.3-1.2-.1-.2-.4.1-.5.2-.1.1-.2.3-.3.5 0 .5.1 1.6-.2 2.9-.1.2-.3.7-.6.8-.4.1-.7-.2-.9-.5-.6-.9-.9-2.1-.8-3.2 0-.4.1-1 .3-1.4v-.1s.4-.1.6-.1c.4 0 .5.5.6.8.1.5.9-.4.8-.7-.1-.6-.4-1.2-1.2-1.1-.5.1-1 .4-1.3.9-.6 1-.7 2.2-.6 3.4.1 1 .5 2.2 1.2 2.8.9.7 2-.5 2.3-1.3.1-.2.1-.4.2-.6.1.7.5 1.4 1.3 1.2.9-.2 1.3-1.5 1.3-2.2 0-.2-.1-.5-.2-.8l.3-.3c0 .2 0 .4.1.5.1.6.2 1.3.4 1.8.2.4.6.4 1 .1.3-.3.5-.7.7-1 .2.5.5.9 1 .9.7-.1 1.2-.9 1.3-1.5.3-.6.3-1.9-.4-2.2zm-4.9 3.6v.2h-.1c-.5.1-.8-.5-.9-.8v-.1-.2-.5-.2h.1c.5-.1.8.5.9.9.1.2.1.4 0 .7zm3.4-4.6c0-.6.2-1.8.2-1.8.2 0 .2.3.3.4.1.6-.1 1.3-.2 1.9-.1.2-.1.5-.2.7 0-.3-.1-.7-.1-1.2zm1.2 3.8c-.3 0-.4-.2-.5-.4-.2-.3-.3-.7-.4-1 .1-.2.1-.3.2-.5v-.1c.1 0 .2 0 .3.1.3.2.3.6.3.9.2.4.2.7.1 1z"/></g><g><path class="st4" d="M43.9 158.7c-.7.1-1 .9-1 1.5-.1.5-.1 1.8.7 1.8.8.1 1.1-.9 1.1-1.5 0-.4-.1-1.7-.8-1.8-.2 0-.6.6-.4.6.4 0 .5.6.5.9v.8c0 .1 0 .2-.1.3 0 .1-.1.3 0 .2-.4.2-.5-.7-.5-.9v-.8c0-.1 0-.3.1-.4 0-.1.1-.1 0-.1.3 0 .7-.6.4-.6zM47.3 158.7c-.7.1-1 .9-1 1.5-.1.5-.1 1.8.7 1.8.8.1 1.1-.9 1.1-1.5 0-.4-.1-1.7-.8-1.8-.2 0-.6.6-.4.6.4 0 .5.6.5.9v.8c0 .1 0 .2-.1.3 0 .1-.1.3 0 .2-.4.2-.5-.7-.5-.9v-.8c0-.1 0-.3.1-.4 0-.1.1-.1 0-.1.3 0 .7-.6.4-.6zM48.3 161.5c.4 1.3 2.5.4 2.1-.8-.2-.6-.9-.5-1.3-.7-.3-.1-.3-.3-.3-.5.1-.3.1-.3-.1-.1.1 0 .2 0 .2-.1.4-.1.9-.1 1.2.1.2.1.6-.4.4-.5-.5-.2-1.1-.2-1.6-.1s-.6.6-.6 1c0 .6.5.7 1 .7.3.1.6.1.7.5.1.6-.6.6-.9.4-.1-.1-.2-.3-.3-.4-.1-.1-.5.3-.5.5zM45.2 162.7c.3-.2.4-.6.5-.9 0-.1 0-.2-.1-.3-.1-.1-.3 0-.5 0-.1.1-.3.2-.3.4s.2.1.3.1v.1c0 .1 0 .1-.1.2v.1c.1-.1 0 0 0 0-.1.1-.2.3-.1.4 0 .2.2 0 .3-.1z"/></g><g><path class="st9" d="M39.8 133.9c-.1 0-.2-.2-.3-.2-.4-.2-.7.1-1.2.1-1 0-1.3 0-2.5-.3 0-1 .6-1.6.8-2.4.2-.7-.1-1.5-.1-2.3v-1.4c-.3.3-.2 1.2-.2 1.7-.1-.6-.1-1.4-.3-1.9-.1.6 0 1.4 0 1.9-.2-.5-.2-1.2-.4-1.7-.3.5.2 1.3.1 1.8-.2-.5-.3-1.1-.6-1.5-.1.6.2 1.2.2 1.6-.2-.4-.3-.8-.6-1.1 0 .4.3.9.4 1.3-.3-.1-.4-.5-.6-.6 0 .3.3.5.4.8-.2-.1-.3-.3-.5-.4 0 .3.3.4.3.6-.1-.1-.3-.2-.4-.3 0 .2.3.4.3.5 0 0-.2-.1-.2 0 0 0 .2.1.1.2h-.2c0 .2.2.1.1.3-.1 0-.1-.1-.1 0s.1.1.1.2c-.8.9-.4 1.8-.5 2.8.1-.1-.7-.3-1.2-.5-.3-.1-.4-.5-.6-.6 0-.1.1 0 .1-.1-.1 0-.2-.1-.2-.2.1 0 .3.1.3 0-.1-.1-.5-.2-.5-.3.2 0 .4.1.6.1-.2-.1-.6-.3-.6-.5.2.1.5.3.7.2-.3-.2-.8-.5-.9-.7.3.1.6.4.8.4-.4-.1-.7-.6-1.2-.6.2.4.8.6.9.9-.3-.2-.6-.3-1-.5.1.4.6.5.9.8-.3 0-.5-.2-.8-.2.1.3.6.2.7.5-.1-.1-.3 0-.5 0 0 .2.4.2.5.3-.2 0-.3 0-.4.1.1.1.3.1.4.2-.1 0-.2 0-.2.1s.3 0 .3.1c-.1 0-.1.1-.1.1h.2c-.1 0-.1.1-.1.1.4.2.7 1 1.3 1.2-.3.2.3.5-3.6 1.8.1 0 1.7-.4 2.2-.6.5-.2 1-.3 1.4-.4.1 0 .2-.1.3-.1.8-.1 1.5.1 2.3-.4-.6.1-1.6.2-2-.1.5-.8.2-2.9.6-3.4.4-.4 1.1-1.8 1.9-.6.1.2.2.4-.1.9-.4.6-.6.9-.5 2.1 0 .3 0 .5-.4.5 1.7.4 2.2.2 3.2 0 .3 0 .8-.3.8 0 0 .1-.3.1-.6.1-.5 0 .2.2.4.2.1 0 1-.1 1.5-.2-.4-.3-.6-.3-.9-.4z"/><path class="st9" d="M34.8 125.3c-3.9 0-7 3.1-7 7s3.1 7 7 7 7-3.1 7-7-3.1-7-7-7m0 .2c3.7 0 6.7 3 6.7 6.7s-3 6.7-6.7 6.7-6.7-3-6.7-6.7 3-6.7 6.7-6.7"/></g></g></g></svg>