<svg xmlns="http://www.w3.org/2000/svg" viewBox="0 0 239.8 176"><style>.st0{fill:#519E38;} .st1{fill:#FCF3E0;} .st2{fill:#FFFFFF;}</style><g id="car"><path class="st0" d="M163.7 130.4H92.3c-14.8 0-26.9-12.1-26.9-26.9V91.7c0-14.8 12.1-26.9 26.9-26.9h71.4c14.8 0 26.9 12.1 26.9 26.9v11.8c0 14.8-12.1 26.9-26.9 26.9z"/><path class="st1" d="M155.4 124.3H84c-14.8 0-26.9-12.1-26.9-26.9V85.6c0-14.8 12.1-26.9 26.9-26.9h71.4c14.8 0 26.9 12.1 26.9 26.9v11.8c0 14.8-12.1 26.9-26.9 26.9z"/><path class="st2" d="M83.6 80.9h-7.3c-1.5 0-2.6-1.2-2.6-2.6v-4.4c0-1.5 1.2-2.6 2.6-2.6h7.3c1.5 0 2.6 1.2 2.6 2.6v4.4c.1 1.4-1.1 2.6-2.6 2.6z"/></g></svg>