<svg xmlns="http://www.w3.org/2000/svg" viewBox="0 0 380 260"><style>.st0{fill:#9DD887;} .st1{fill:#FCF3E0;} .st2{fill:#FFFFFF;} .st3{fill:#EFEFEF;}</style><g id="car"><path class="st0" d="M64.2 66.7h255.1v145.7H64.2z"/><path class="st1" d="M190.4 192.6l-84.3-12.3c-8.3-1.2-14.2-9-12.9-17.4l.8-5.2c1.2-8.3 9-14.2 17.4-12.9l84.3 12.3c8.3 1.2 14.2 9 12.9 17.4l-.8 5.2c-1.3 8.3-9.1 14.1-17.4 12.9z"/><path class="st2" d="M114.4 157.5l-6.3-.9c-1.4-.2-2.4-1.6-2.2-3 .2-1.4 1.6-2.4 3-2.2l6.3.9c1.4.2 2.4 1.6 2.2 3-.2 1.4-1.5 2.4-3 2.2z"/><path class="st1" d="M199.6 109.9L116 126c-8.3 1.6-16.3-3.9-17.9-12.1l-1-5.2c-1.6-8.3 3.9-16.3 12.1-17.9l83.6-16.1c8.3-1.6 16.3 3.9 17.9 12.1l1 5.2c1.7 8.2-3.8 16.3-12.1 17.9z"/><path class="st2" d="M116.4 101.7l-6.2 1.2c-1.4.3-2.8-.7-3.1-2.1-.3-1.4.7-2.8 2.1-3.1l6.2-1.2c1.4-.3 2.8.7 3.1 2.1.3 1.4-.7 2.8-2.1 3.1z"/><path class="st1" d="M280 178.5l-80-29.3c-7.9-2.9-12-11.7-9.1-19.6l1.8-5c2.9-7.9 11.7-12 19.6-9.1l80 29.3c7.9 2.9 12 11.7 9.1 19.6l-1.8 5c-2.9 7.9-11.7 12-19.6 9.1z"/><path class="st2" d="M212.8 128.6l-6-2.2c-1.4-.5-2.1-2-1.6-3.4s2-2.1 3.4-1.6l6 2.2c1.4.5 2.1 2 1.6 3.4s-2 2.1-3.4 1.6z"/><path class="st2" d="M313.1 215.3H69.6c-4.4 0-7.9-3.6-7.9-7.9V55.2c0-4.4 3.6-7.9 7.9-7.9h243.5c4.4 0 7.9 3.6 7.9 7.9v152.2c0 4.3-3.5 7.9-7.9 7.9zM69.6 52.6c-1.4 0-2.6 1.2-2.6 2.6v152.2c0 1.4 1.2 2.6 2.6 2.6h243.5c1.4 0 2.6-1.2 2.6-2.6V55.2c0-1.4-1.2-2.6-2.6-2.6H69.6z"/><path class="st3" d="M326.9 48.1c0 3.2-2.6 5.7-5.7 5.7H60.1c-3.2 0-5.7-2.6-5.7-5.7 0-3.2 2.6-5.7 5.7-5.7h261.2c3.1 0 5.6 2.6 5.6 5.7z"/><path class="st2" d="M91.5 117.6c-2.1 0-3.9-1.7-3.9-3.9 0-2.1 1.7-3.9 3.9-3.9 2.1 0 3.9 1.7 3.9 3.9s-1.7 3.9-3.9 3.9zm0-6.4c-1.4 0-2.5 1.1-2.5 2.5s1.1 2.5 2.5 2.5 2.5-1.1 2.5-2.5c.1-1.3-1.1-2.5-2.5-2.5zM175.7 148.5c-2.1 0-3.9-1.7-3.9-3.9 0-2.1 1.7-3.9 3.9-3.9 2.1 0 3.9 1.7 3.9 3.9 0 2.1-1.8 3.9-3.9 3.9zm0-6.4c-1.4 0-2.5 1.1-2.5 2.5s1.1 2.5 2.5 2.5 2.5-1.1 2.5-2.5-1.1-2.5-2.5-2.5zM299.9 125.2c-1.8 0-3.2-1.4-3.2-3.2s1.4-3.2 3.2-3.2c1.8 0 3.2 1.5 3.2 3.2s-1.4 3.2-3.2 3.2zm0-5.2c-1 0-1.9.9-1.9 1.9 0 1 .9 1.9 1.9 1.9 1 0 1.9-.9 1.9-1.9 0-1-.8-1.9-1.9-1.9zM297.3 89.3c-1.8 0-3.2-1.4-3.2-3.2s1.4-3.2 3.2-3.2c1.8 0 3.2 1.5 3.2 3.2s-1.4 3.2-3.2 3.2zm0-5.1c-1 0-1.9.9-1.9 1.9 0 1 .9 1.9 1.9 1.9 1 0 1.9-.9 1.9-1.9 0-1.1-.8-1.9-1.9-1.9zM299.8 99.1c-1.8 0-3.2-1.5-3.2-3.2s1.4-3.2 3.2-3.2c1.8 0 3.2 1.5 3.2 3.2s-1.4 3.2-3.2 3.2zm0-5.1c-1 0-1.9.9-1.9 1.9 0 1 .9 1.9 1.9 1.9 1 0 1.9-.9 1.9-1.9 0-1.1-.9-1.9-1.9-1.9zM221.8 189.8c-1.8 0-3.2-1.5-3.2-3.2 0-1.8 1.4-3.2 3.2-3.2 1.8 0 3.2 1.4 3.2 3.2 0 1.8-1.4 3.2-3.2 3.2zm0-5.1c-1 0-1.9.9-1.9 1.9 0 1 .9 1.9 1.9 1.9 1 0 1.9-.9 1.9-1.9 0-1.1-.9-1.9-1.9-1.9zM99.4 134.5c-1.8 0-3.2-1.4-3.2-3.2 0-1.8 1.4-3.2 3.2-3.2 1.8 0 3.2 1.5 3.2 3.2.1 1.8-1.4 3.2-3.2 3.2zm0-5.1c-1 0-1.9.9-1.9 1.9 0 1 .9 1.9 1.9 1.9 1 0 1.9-.9 1.9-1.9 0-1-.8-1.9-1.9-1.9zM87 200.9c-1.8 0-3.2-1.5-3.2-3.2 0-1.8 1.4-3.2 3.2-3.2 1.8 0 3.2 1.5 3.2 3.2 0 1.7-1.5 3.2-3.2 3.2zm0-5.1c-1 0-1.9.9-1.9 1.9s.9 1.9 1.9 1.9c1 0 1.9-.9 1.9-1.9s-.9-1.9-1.9-1.9zM132.2 85.4c-1.8 0-3.2-1.4-3.2-3.2s1.4-3.2 3.2-3.2c1.8 0 3.2 1.5 3.2 3.2s-1.5 3.2-3.2 3.2zm0-5.2c-1 0-1.9.9-1.9 1.9 0 1 .9 1.9 1.9 1.9 1 0 1.9-.9 1.9-1.9 0-1-.9-1.9-1.9-1.9zM281.2 198.3c-1.8 0-3.2-1.5-3.2-3.2 0-1.8 1.4-3.2 3.2-3.2 1.8 0 3.2 1.5 3.2 3.2 0 1.8-1.4 3.2-3.2 3.2zm0-5.1c-1 0-1.9.9-1.9 1.9s.9 1.9 1.9 1.9c1 0 1.9-.9 1.9-1.9s-.9-1.9-1.9-1.9zM88.3 133.1c-3.3 0-5.9-2.7-5.9-5.9 0-3.3 2.7-5.9 5.9-5.9 3.3 0 5.9 2.7 5.9 5.9.1 3.3-2.6 5.9-5.9 5.9zm0-10.5c-2.5 0-4.6 2.1-4.6 4.6 0 2.5 2.1 4.6 4.6 4.6s4.6-2.1 4.6-4.6c0-2.5-2-4.6-4.6-4.6zM291.6 111.4c-3.3 0-5.9-2.7-5.9-5.9 0-3.3 2.7-5.9 5.9-5.9 3.3 0 5.9 2.7 5.9 5.9.1 3.2-2.6 5.9-5.9 5.9zm0-10.6c-2.5 0-4.6 2.1-4.6 4.6 0 2.5 2.1 4.6 4.6 4.6 2.5 0 4.6-2.1 4.6-4.6 0-2.5-2-4.6-4.6-4.6zM81.8 89.5h-1.7c-1.4 0-2.6-1.2-2.6-2.6V65.2c0-1.4 1.2-2.6 2.6-2.6h1.7c1.4 0 2.6 1.2 2.6 2.6v21.6c0 1.5-1.2 2.7-2.6 2.7z"/></g></svg>