<svg xmlns="http://www.w3.org/2000/svg" viewBox="0 0 282.9 180"><style>.st0{fill:#EFEFEF;} .st1{fill:#DDDDDD;} .st2{fill:#FFFFFF;} .st3{fill:#FCFCFC;} .st4{fill:#80CDC7;} .st5{fill-rule:evenodd;clip-rule:evenodd;fill:#80CDC7;} .st6{fill-rule:evenodd;clip-rule:evenodd;fill:#62B947;} .st7{fill:#62B947;} .st8{fill:#63B946;}</style><g id="kolby"><path class="st0" d="M239.4 87.5H46.1l12.7 47.1c1.2 4.7 8.3 8.2 16.9 8.2h134.1c9.2 0 16.7-4.1 17.1-9.2l12.5-46.1z"/><path class="st1" d="M209.8 87.5h-67.1v55.4h67.1c9.2 0 16.7-4.1 17.1-9.2l12.5-46.1h-29.6z"/><path class="st2" d="M71.3 115.3c.8 2.6-.6 5.4-3.2 6.2-2.6.8-5.4-.6-6.2-3.2L58 105.6c-.8-2.6.6-5.4 3.2-6.2 2.6-.8 5.4.6 6.2 3.2l3.9 12.7z"/><path class="st0" d="M239.2 80.7H44.7l16.9-30.4h159.6z"/><path class="st3" d="M221.2 50.3l18 30.4H44.7l16.9-30.4h159.6m0-8.6H61.6c-3.1 0-6 1.7-7.5 4.4L37.2 76.6c-1.5 2.7-1.4 5.9.1 8.5 1.5 2.6 4.4 4.2 7.4 4.2h194.5c3.1 0 5.9-1.7 7.5-4.3 1.5-2.7 1.5-6-.1-8.6l-18-30.4c-1.6-2.7-4.4-4.3-7.4-4.3z"/><path class="st4" d="M211 142.6c0-5.6-4.6-10.2-10.2-10.2s-10.2 4.6-10.2 10.2v.3H211v-.3z"/><circle class="st4" cx="81" cy="102.3" r="6.5"/><path class="st4" d="M196.9 99.7c4.2 0 7.6-3.4 7.6-7.6 0-1-.2-2-.6-2.8h-14c-.4.9-.6 1.8-.6 2.8 0 4.2 3.4 7.6 7.6 7.6z"/><g><path class="st5" d="M147.1 101.8c-.3 1.4-1.5 2.5-3 2.5-1.6 0-3-1.3-3-2.9-8.4.9-14.9 7.9-14.9 16.6 0 1.7.3 3.3.7 4.8h.2c1.6 0 3 1.3 3 3 0 .7-.3 1.4-.7 1.9 2.8 3.8 7.1 6.4 12.1 6.8 1.3.2 4 0 5.5-.4 4-1 7.5-3.5 9.7-6.9-.2-.4-.3-.8-.3-1.3 0-1.4 1-2.5 2.3-2.8.5-1.6.8-3.4.8-5.2 0-7.7-5.3-14.2-12.4-16.1zm-17.5 11.6c-.9 0-1.6-.7-1.6-1.6 0-.9.7-1.6 1.6-1.6.9 0 1.6.7 1.6 1.6-.1.9-.8 1.6-1.6 1.6zm26.3 5.6c-1.1 0-1.9-.9-1.9-1.9 0-1.1.9-1.9 1.9-1.9 1.1 0 1.9.9 1.9 1.9 0 1.1-.8 1.9-1.9 1.9zM134.9 97.6c0 1.2-1 2.1-2.1 2.1-1.2 0-2.1-1-2.1-2.1 0-1.2 1-2.1 2.1-2.1 1.2-.1 2.1.9 2.1 2.1z"/><path class="st6" d="M135 104.8c0 1.5-1.2 2.7-2.7 2.7-1.5 0-2.7-1.2-2.7-2.7 0-1.5 1.2-2.7 2.7-2.7 1.5-.1 2.7 1.1 2.7 2.7zM127.7 100.5c0 .9-.7 1.6-1.6 1.6-.9 0-1.6-.7-1.6-1.6 0-.9.7-1.6 1.6-1.6.9 0 1.6.7 1.6 1.6z"/><circle class="st7" cx="157.1" cy="102.8" r="9.2"/><path class="st2" d="M154.9 101.4c-.8.1-1 1-1 1.6v1.1c0 .1-.1.4-.1.4-.3 0-.5-.4-.6-.6-.2-.5-.3-1-.4-1.5-.1-.5-.1-1.1-.2-1.6v-.7-.3-.2c.1-.4-.5 0-.6.2-.6 1.1-.4 2.3-.4 3.5 0 .3 0 .6-.1 1 0 .2-.1.6-.3.8-.1.1-.3 0-.4 0-.1-.1-.2-.2-.3-.4 0-.2-.2-.1-.3 0-.1.1-.3.4-.2.5.1.4.4.8.9.7.7-.2 1-1 1.1-1.7.1-.3.1-.6.1-.9.1.5.2.9.4 1.3.2.3.4.6.8.5.3-.1.5-.4.6-.7.1.3.3.5.7.5.4 0 .7-.4.8-.7.2-.4.2-.8.2-1.2.2-.5.1-1.6-.7-1.6zm.2 2.7c0 .1 0 .2-.1.2s-.3-.2-.3-.3c-.1-.3-.2-.5-.2-.8v-.9c0-.1 0-.1.1-.2.4.2.5.7.5 1.1.1.3.1.6 0 .9zM164 102.5c-.8-.3-1.3.8-1.4 1.4-.1.6-.3 1.6.4 1.9.3.1.8-.1 1-.3.3-.3.4-.6.5-1 .1-.6.3-1.7-.5-2zm-.5 2.7c0 .1-.1.1-.1.2-.1-.1-.2-.3-.2-.5v-.9c.1-.3.1-.6.3-.8 0-.1.1-.1.1-.2.3.4.2.9.1 1.3 0 .3 0 .6-.2.9z"/><path class="st2" d="M161.8 102.7c.2-.2.3-.4.4-.6.3-.5.6-1 .6-1.6 0-.5-.7-.6-1.1-.4-.5.3-.8.8-1 1.4-.2.7-.3 1.4-.3 2.2-.3.3-.8 1-1.2.7-.1-.1-.2-.2-.2-.3.3-.4.6-.7.9-1.1.2-.4.4-1-.1-1.3-.4-.2-.9 0-1.2.4-.3.3-.4.8-.4 1.2v1c-.2.1-.5.2-.8.2-.3-.1-.4-.4-.5-.7-.1-.4-.1-.8 0-1.2 0-.1 0-.2.1-.4v-.1c.2.1.3.4.3.5.1.3.8-.2.7-.4-.1-.3-.2-.5-.5-.7-.3-.1-.7.1-.9.3-.5.5-.6 1.2-.5 1.9 0 .4.1 1 .5 1.2.5.3 1.2 0 1.7-.3.1.3.4.5.8.5.5-.1.9-.3 1.3-.7 0 .4.1.8.4.9.4.2 1 0 1.3-.4.4-.5.6-1.1.4-1.7-.2-.4-.5-.5-.7-.5zm-2.8-.3c0-.1.1-.2.1-.3.2.1.2.3.2.5 0 .3-.2.6-.5.9v-.2c.1-.3.1-.7.2-.9zm2.7-1.6c.1-.1.1-.2.2-.3.3.4 0 .9-.2 1.2-.2.3-.4.7-.6 1 0-.3.1-.6.2-.9.1-.4.2-.7.4-1zm-.2 3.8l-.1.1h-.1c-.2-.1-.2-.6-.2-.7v-.5l.3-.3c.2-.1.3.1.4.3 0 .4-.2.8-.3 1.1zM150.5 115.7c.3-.8.4-1.8-.2-2.5-.4-.4-1-.4-1.4-.4 0-.3.1-.7.1-1 0-.3-.6-.2-.7-.2-.3.1-.6.3-.6.5 0 1.3-.2 2.5-.5 3.7-.3.1-.5.3-.8.4-.2.1-.3.2-.5.1-.3-.1-.3-.6-.3-.9-.1-1.1 0-2.3.7-3.3.1-.2-.1-.4-.4-.4-.4 0-.8.3-.9.5-.6 1.3-.6 2.6-.5 4.1 0 .5.2.8.7.9.7.1 1.4-.3 1.9-.6 0 .1 0 .2-.1.3-.3 1.2-.6 2.3-.9 3.5-.1.3.2.3.3.2.2-.1.4-.2.5-.5.3-.8.6-1.6.8-2.4.3.1.7.1 1.1 0 .8-.2 1.4-1.1 1.7-2zm-1.6-2.1c.1 0 .1 0 0 0zm-.4 3.6zm0 0s-.1 0 0 0c-.1 0-.1 0 0 0-.5-.1-.5-.5-.4-.8v-.1c.2-.7.4-1.4.5-2 .1-.2.1-.4.3-.6.1 0 .2.2.3.4.2.5.1 1.2 0 1.7-.1.4-.3 1-.7 1.4zM142.9 113h-.1-.1c-.3 0-.6.1-.8.3 0-.5-.1-.9-.2-1.4 0-.2-.5-.1-.6 0-.3.2-.6.5-.7.7-.1.6-.2 1.1-.3 1.7-.1.5-.2.9-.3 1.4 0 .2-.1.4-.2.6 0 .1-.1.1-.1.2-.2.3-.6.3-.9.2-.4-.1-.7-.3-.9-.6-.7-.7-1-1.7-1.2-2.6-.1-.5-.1-1 0-1.5 0-.2.1-.4.1-.6 0-.1.1-.2.1-.2s0-.1.1-.1l.1-.1s.3-.1.5-.1c.8-.1 1.2.5 1.4 1 .2.4 1.4-.6 1.2-1-.3-.8-1.1-1.4-1.9-1.2-.7.1-1.3.4-1.8 1-.9 1.1-1.1 2.6-.9 3.9.3 1.2.9 2.4 2 3.1.4.3.9.4 1.3.3 1-.2 1.6-1.3 2-2.2v-.1-.1c.1.9.7 1.8 1.6 1.8 1 0 1.6-1.3 1.7-2.2.3-1-.1-2.1-1.1-2.2zm.2 3c0 .1 0 .1-.1.2h-.1c-.5 0-.8-.8-.9-1.2v-.1-.2c0-.2 0-.3.1-.5 0-.1.1-.1.1-.2h.1c.7 0 .8.8.9 1.2 0 .3 0 .6-.1.8z"/><g><path class="st2" d="M154.7 122.3c-.1 0-.1-.1-.1-.1-.9-.3-1.4.7-1.7 1.3-.1.1-.1.3-.2.6-.2.1-.3.3-.5.4v-.4l.3-1.2c.1-.2.2-.5.3-.7.1-.1.1-.2.2-.3.1-.1 0-.3-.1-.3-.2 0-.4.1-.5.2-.1.1-.2.3-.2.4-.1.2-.2.3-.4.5-.1.1-.2.1-.4.2.1-.6.2-1.1.4-1.7.1-.4-.7-.1-.7.1-.1.6-.2 1.2-.4 1.8-.2.2-.4.3-.5.5h-.1v-.2c0-.4.1-.9.1-1.3 0-.2.1-.4.1-.7.1-.2.2-.5.2-.7.1-.2-.2-.2-.3-.2-.2 0-.4.2-.4.3-.1.2-.1.4-.2.6-.2.5-.3 1-.6 1.4 0 .1-.1.1-.1.2l-.1.1h-.1c-.1 0-.1-.4 0-.9v-.1-.1c.1-.6.3-1.1.4-1.7.1-.4-.7 0-.8.2-.1.6-.2 1.2-.4 1.8-.1.3-.2.5-.6.5-.3 0-.4-.1-.4-.4 0-.3 0-.6-.1-.9-.1-.2-.4-.3-.6-.2v-.1-.1c.1-.2.2-.4.3-.5l.1-.1c.1 0 .2.1.3.2.3.2 1-.3.7-.5-.3-.3-.7-.3-.9-.2-.2.1-.4.2-.6.4l-.1.1c0-.4 0-.7-.1-1.1-.1-.3-.8.2-.7.4.1.7.1 1.5 0 2.3v.1c-.1.3-.2.6-.5.6s-.3 0-.4-.3c0-.3 0-.7-.2-1-.1-.2-.4-.2-.6-.2v-.1-.1c.1-.2.1-.4.2-.5l.1-.1c.1 0 .2.1.2.1.2.2.8-.4.6-.5-.3-.2-.6-.2-.9-.1-.2.1-.4.2-.5.4 0 0 0 .1-.1.1 0-.4-.1-.7-.2-1.1-.1-.3-.7.2-.7.5.2.8.2 1.5.2 2.4-.1.2-.2.4-.3.5-.1.1-.1.2-.2.2h-.1c-.2-.1-.2-.5-.2-.7-.1-.6-.1-1.1-.1-1.7 0-.4-.4-.6-.8-.5h-.2c-.2.1-.3.2-.4.4-.1.1-.2.2-.2.3-.3.1-.9 0-1.2-.2-.1-.1-.2-.1-.3-.2-.3-.1-.6.1-.9.3-.1-.2-.1-.4-.2-.6-.1-.2-.4 0-.4.1-.1.1-.3.3-.2.5.3.8.4 1.6.6 2.4-.1.2-.2.6-.4.6h-.1l-.1-.1c-.2-.3-.2-.8-.3-1.2-.1-.4-.2-.8-.4-1.2-.1-.2-.3-.5-.6-.3-.2.1-.4.4-.5.7-.1-.2-.2-.3-.3-.4-.2-.1-.4.1-.5.2-.1.1-.1.2-.2.4 0-.1-.1-.2-.1-.3-.1-.3-.6.3-.5.6.1.2.1.4.2.6 0 .6 0 1.2-.2 1.8-.1.3-.2.4-.5.4-.7 0-1-.8-1.3-1.4-.3-.7-.5-1.5-.3-2.2v-.1-.1h.1s.1 0 .1-.1c.6-.2.8.2 1.1.6.1.2.6-.4.5-.7-.2-.4-.6-.9-1.2-.7-.4.1-.7.4-1 .7-.5.8-.4 1.7-.2 2.6.2.8.6 1.6 1.3 2.1.3.2.6.2.9.1.4-.2.7-.8.8-1.2.1-.2.1-.3.1-.5.1.4.2.7.3 1 .1.4.5-.3.5-.5-.2-.7-.3-1.5-.3-2.2v-.2c.3.4.4.8.5 1.2.1.2.1.4.1.6.1.3.1.5.2.8.1.4.5-.3.5-.5s-.1-.4-.1-.6c-.1-.3-.1-.6-.1-1v-.9c.1.1.1.2.1.3.2.4.3.8.4 1.2.1.4.2 1.3.7 1.2.3-.1.6-.3.8-.7v.2c.1.8.3 1.7.3 2.5 0 .2.2.1.3 0 .1-.1.3-.3.2-.5 0-.6-.1-1.3-.2-1.9.2 0 .5-.2.7-.4.4-.5.5-1.2.4-1.8 0-.1 0-.2-.1-.3h.1c.1 0 .3 0 .4-.1-.1.6-.1 1.2.1 1.7.1.2.2.5.5.6.3.1.7-.2.9-.4 0 .1.1.3.2.3.2.1.4 0 .6-.1.2-.1.3-.3.5-.5v.4c0 .4.6-.1.6-.4 0-.3.1-.6.1-1 .2.1.2.4.3.6 0 .3 0 .7.3.8.3.1.7 0 1-.2.1 0 .1-.1.2-.1v.3c0 .4.6-.1.7-.3.1-.3.1-.6.2-.9.2.1.2.4.2.6 0 .3 0 .7.3.8.3.2.8.1 1.1-.1.1 0 .2-.1.2-.1 0 .3.1.5.4.5.4 0 .8-.2 1-.5 0 .2 0 .5.1.6l.1.1c.1.1.2 0 .4 0s.4-.2.6-.3c0 .1-.1.2-.1.4-.1.2.1.2.2.2.2 0 .4-.2.4-.3.1-.3.2-.6.4-.8.1-.1.2-.1.4-.2-.1.5-.3 1-.3 1.5 0 .1.2.3.2.3H151.5c.3 0 .5-.1.8-.2 0 .3.1.6.4.7.4.2.8-.1 1.1-.3.3-.3.5-.6.7-1 .6-.4.9-1.4.2-1.8zm-23.2-1.3zm6.5-.1zm.7 2.3zm0 0c-.3.1-.5-.1-.5-.3v-.1c-.1-.5-.2-.9-.2-1.4v-.4c.1 0 .2 0 .3.1.3.2.4.7.5 1 0 .3 0 .7-.1 1.1zm2.2-.2h-.1c-.1 0-.2-.3-.3-.4-.2-.4-.2-1-.1-1.5 0-.1 0-.2.1-.3l.2-.2h.1c.2 0 .3.1.3.2 0 .6.1 1.3 0 1.9-.1.1-.2.2-.2.3zm11.3 1.6zm1.3.5c0 .1 0 .1 0 0zm.2-.2c0 .1-.1.1-.2.2-.1-.1-.1-.4-.1-.5 0-.3.1-.6.2-.9.1-.3.2-.6.4-.8 0-.1.1-.1.1-.2.3.2 0 1.1 0 1.3-.1.4-.2.7-.4.9z"/></g><g><circle class="st7" cx="129.6" cy="132.8" r="5.3"/><path class="st2" d="M126.1 132.4c.2-.2.3-.5.5-.7.1-.1.2-.2.2-.3.1-.1.1-.1 0 0v.5c0 .9 0 1.8-.1 2.8 0 .3.6-.1.6-.3.1-.6.1-1.2.1-1.8 0-.3.2-1.7-.1-1.7-.6-.2-1.3 1.2-1.6 1.6-.3.2.2.2.4-.1zM129 132.5c-.2-.1-.9-.7-.4-1 .2-.1.4-.1.6 0 .5.1.1.5-.1.7-.1.1-.9.7-.6 1 .4.3 1.2 0 1.2.6 0 .5-.7.5-1 .3-.4-.3-.4-.7.1-1 .2-.1.5-.7 0-.5-.5.3-1 .7-1 1.4 0 .4.4.8.8.9.6.1 1.2-.3 1.5-.8.3-.5.3-1.1-.3-1.2-.2 0-.6-.2-.7 0 .2-.3.5-.4.7-.7.4-.5.2-1.1-.4-1.2-.6-.1-1.1.3-1.4.8-.4.6 0 1.1.6 1.4.2 0 .7-.6.4-.7zM133 131.2c-.7 1.1-1.5 2.2-2.3 3.2-.3.5.2.4.4.1.8-1.1 1.7-2.2 2.4-3.4.3-.4-.3-.2-.5.1zM131.8 130.9c-.4 0-.7.4-.8.8-.1.4.1.7.5.7.8 0 1.2-1.5.3-1.5-.2 0-.5.4-.2.4.2 0 .3.2.3.4v.2c0 .1 0 0 0 0h-.1c-.2 0-.3-.2-.3-.3v-.2h.1c.1-.1.4-.5.2-.5zM132.9 133.3c-.4 0-.7.4-.8.8-.1.4.1.7.5.7.9 0 1.2-1.5.3-1.5-.2 0-.5.4-.2.4.2 0 .3.2.3.4v.2c0 .1 0 0 0 0h-.1c-.2 0-.3-.2-.3-.3v-.2h.1c.2-.1.5-.5.2-.5z"/></g><g><path class="st8" d="M122.6 110.9c-.1 0-.2-.2-.2-.2-.4-.1-.6.1-1 .1-.8 0-1.1 0-2-.3 0-.8.5-1.3.7-2 .2-.6-.1-1.2-.1-1.9v-1.2c-.3.3-.1 1-.2 1.4-.1-.5-.1-1.1-.3-1.6-.1.5 0 1.1 0 1.6-.1-.4-.2-1-.3-1.4-.2.4.1 1.1.1 1.5-.2-.4-.3-.9-.5-1.2-.1.5.2 1 .2 1.3-.2-.3-.2-.7-.5-.9 0 .3.2.8.3 1.1-.2-.1-.3-.4-.5-.5 0 .3.2.4.3.6-.2-.1-.2-.3-.4-.3 0 .3.2.3.3.5-.1-.1-.2-.2-.3-.2 0 .2.3.3.2.4 0 0-.2-.1-.2 0 0 0 .2.1.1.1h-.2c0 .1.1.1.1.2h-.1c0 .1.1.1.1.2-.7.7-.3 1.5-.4 2.3 0-.1-.6-.2-1-.4-.3-.1-.3-.4-.5-.5 0 0 .1 0 .1-.1-.1 0-.2-.1-.2-.1h.3c-.1-.1-.4-.1-.4-.3.2 0 .3.1.5.1-.2-.1-.5-.3-.5-.4.2.1.4.2.6.1-.3-.1-.7-.4-.8-.6.2.1.5.4.7.3-.4-.1-.6-.5-1-.5.2.3.7.5.8.7-.2-.2-.5-.3-.8-.4.1.3.5.4.7.6-.2 0-.4-.1-.7-.1.1.3.5.2.6.4-.1-.1-.3 0-.4 0 0 .2.3.1.4.2-.1 0-.3 0-.3.1.1.1.3.1.3.1-.1 0-.2 0-.2.1s.2 0 .2.1c0 0-.1 0-.1.1h.2s-.1 0-.1.1c.4.2.6.8 1.1 1-.3.2.3.4-2.9 1.5.1 0 1.4-.3 1.8-.5.4-.1.8-.3 1.2-.4.1 0 .2-.1.3-.1.7-.1 1.3.1 1.9-.4-.5.1-1.3.2-1.7-.1.4-.7.1-2.4.5-2.8.4-.3.9-1.5 1.6-.5.1.2.1.4-.1.8-.3.5-.5.7-.4 1.8 0 .2 0 .4-.3.4 1.4.3 1.8.1 2.6 0 .3 0 .7-.2.7 0 0 .1-.3.1-.5.1-.4 0 .2.1.4.1.1 0 .8-.1 1.2-.2-.6.2-.8.2-1 .1z"/><path class="st8" d="M118.5 103.8c-3.2 0-5.8 2.6-5.8 5.8 0 3.2 2.6 5.8 5.8 5.8 3.2 0 5.8-2.6 5.8-5.8 0-3.2-2.6-5.8-5.8-5.8m0 .2c3.1 0 5.6 2.5 5.6 5.6 0 3.1-2.5 5.6-5.6 5.6-3.1 0-5.6-2.5-5.6-5.6 0-3.1 2.5-5.6 5.6-5.6"/></g></g><g><path class="st5" d="M146.7 56c-.3 1-1.6 1.7-3.2 1.7-1.8 0-3.2-.9-3.2-2-9 .6-16 5.4-16 11.3 0 1.2.3 2.3.8 3.3h.2c1.8 0 3.2.9 3.2 2 0 .5-.3 1-.8 1.3 3 2.6 7.7 4.4 13 4.7 1.4.1 4.3 0 5.9-.3 4.3-.7 8-2.4 10.4-4.7-.2-.3-.3-.6-.3-.9 0-.9 1.1-1.7 2.4-1.9.6-1.1.9-2.3.9-3.6-.1-5.2-5.7-9.6-13.3-10.9zm-18.9 7.9c-.9 0-1.7-.5-1.7-1.1 0-.6.8-1.1 1.7-1.1.9 0 1.7.5 1.7 1.1 0 .6-.8 1.1-1.7 1.1zm28.3 3.9c-1.1 0-2.1-.6-2.1-1.3 0-.7.9-1.3 2.1-1.3 1.1 0 2.1.6 2.1 1.3 0 .7-1 1.3-2.1 1.3zM133.6 53.1c0 .8-1 1.5-2.3 1.5-1.3 0-2.3-.7-2.3-1.5s1-1.5 2.3-1.5c1.3 0 2.3.7 2.3 1.5z"/><path class="st6" d="M133.7 58c0 1-1.3 1.9-2.9 1.9-1.6 0-3-.8-3-1.9 0-1 1.3-1.9 3-1.9 1.6 0 2.9.9 2.9 1.9zM125.8 55.1c0 .6-.8 1.1-1.7 1.1-1 0-1.8-.5-1.8-1.1 0-.6.8-1.1 1.8-1.1.9 0 1.7.5 1.7 1.1z"/><ellipse class="st7" cx="157.4" cy="56.6" rx="9.9" ry="6.3"/><path class="st2" d="M155 55.7c-.8.1-1 .7-1.1 1.1v.2c0 .2 0 .4-.1.6 0 .1-.1.2-.1.2-.3 0-.5-.3-.6-.4-.2-.3-.3-.7-.4-1-.1-.4-.2-.7-.2-1.1v-.5-.2-.1c.1-.3-.5 0-.7.1-.7.7-.5 1.6-.4 2.4 0 .2 0 .4-.1.7 0 .1-.1.4-.3.5-.1.1-.3 0-.4 0-.2-.1-.3-.2-.3-.3 0-.1-.2-.1-.3 0-.1.1-.3.3-.3.4.1.3.5.5.9.4.7-.1 1.1-.7 1.2-1.1.1-.2.1-.4.2-.6.1.3.3.6.5.9.2.2.5.4.9.4.3 0 .5-.2.7-.5.1.2.4.4.7.3.4 0 .8-.3.9-.5.2-.3.2-.5.2-.8.1-.3-.1-1.1-.9-1.1zm.2 1.8c0 .1 0 .1-.1.2-.2 0-.3-.2-.3-.2-.1-.2-.2-.4-.2-.6v-.6s0-.1.1-.1c.4.2.5.5.5.8.1.1.1.4 0 .5zM164.8 56.5c-.9-.2-1.4.6-1.5 1-.2.4-.3 1.1.4 1.3.4.1.8-.1 1-.2.3-.2.4-.4.5-.7.3-.5.4-1.2-.4-1.4zm-.5 1.8l-.1.1c-.1-.1-.2-.2-.2-.3v-.6c.1-.2.1-.4.3-.6l.1-.1c.3.2.2.6.2.9l-.3.6zM162.4 56.6c.2-.1.3-.3.5-.4.3-.3.6-.7.6-1.1 0-.4-.8-.4-1.2-.3-.6.2-.9.6-1.1.9-.2.5-.3 1-.4 1.5-.3.2-.9.7-1.3.5-.1 0-.2-.1-.2-.2.4-.2.7-.5 1-.8.3-.3.4-.7-.1-.9-.4-.2-1 0-1.3.2-.3.2-.4.5-.5.8 0 .2-.1.4 0 .7-.3.1-.6.2-.9.1-.3 0-.5-.3-.5-.4-.1-.3-.1-.5 0-.8 0-.1.1-.2.1-.2v-.1c.2.1.3.3.3.4.1.2.8-.1.8-.3-.1-.2-.2-.4-.5-.5-.3-.1-.7.1-.9.2-.5.3-.6.8-.6 1.3 0 .3.1.7.5.8.5.2 1.3 0 1.8-.2.1.2.4.4.8.3.5 0 1-.2 1.4-.5 0 .3.1.5.4.6.5.2 1 0 1.3-.3.4-.3.6-.8.4-1.2.1-.1-.1-.1-.4-.1zm-3-.2c0-.1.1-.1.1-.2.2 0 .2.2.2.3 0 .2-.3.4-.5.6V57c.1-.2.1-.4.2-.6zm2.9-1.1l.2-.2c.3.2 0 .6-.2.8-.2.2-.4.5-.6.7 0-.2.1-.4.2-.6.1-.3.2-.5.4-.7zm-.2 2.6s-.1.1 0 0c-.1.1-.1.1-.2.1-.2-.1-.2-.4-.3-.5v-.3c.1-.1.2-.1.3-.2.2-.1.3.1.4.2.1.2-.1.5-.2.7zM150.3 65.5c.3-.5.4-1.2-.2-1.7-.4-.3-1.1-.3-1.5-.2.1-.2.1-.4.1-.7 0-.2-.6-.2-.8-.1-.3.1-.7.2-.7.4 0 .9-.3 1.7-.6 2.6l-.9.3c-.2 0-.3.1-.6.1-.4-.1-.3-.4-.4-.6-.1-.8.1-1.6.7-2.2.2-.1-.1-.3-.5-.2-.4 0-.8.2-1 .3-.6.9-.7 1.8-.5 2.8.1.3.2.5.8.6.7.1 1.5-.2 2-.4 0 .1 0 .1-.1.2-.3.8-.6 1.6-1 2.4-.1.2.2.2.3.2.2 0 .5-.2.6-.3.3-.5.6-1.1.9-1.6.3.1.8.1 1.2 0 1.2-.7 1.9-1.3 2.2-1.9zm-1.7-1.5s.1 0 0 0zm-.5 2.5zm0 0s-.1 0 0 0c-.5 0-.6-.3-.5-.5v-.1c.2-.5.4-.9.6-1.4.1-.1.1-.3.3-.4.2 0 .3.1.3.2.3.4.1.8 0 1.1 0 .4-.3.8-.7 1.1z"/><path class="st2" d="M142.1 63.6h-.1-.1c-.3 0-.6.1-.9.2 0-.3-.1-.6-.2-.9 0-.1-.5 0-.7 0-.4.1-.7.3-.7.5-.1.4-.2.8-.3 1.1l-.3.9c-.1.1-.1.3-.2.4 0 .1-.1.1-.1.1-.2.2-.6.2-1 .1s-.7-.2-1-.4c-.7-.5-1.1-1.1-1.3-1.8-.1-.3-.1-.7 0-1 0-.1.1-.3.1-.4 0-.1.1-.1.1-.2 0 0 0-.1.1-.1h.1c.1 0 .4-.1.5-.1.9-.1 1.3.4 1.5.7.2.3 1.5-.4 1.3-.7-.3-.6-1.1-.9-2.1-.9-.8.1-1.4.3-1.9.7-1 .7-1.2 1.8-.9 2.7.3.8 1 1.6 2.1 2.1.4.2 1 .3 1.4.2 1.1-.1 1.8-.9 2.2-1.5v-.1c.1.6.7 1.2 1.7 1.2 1.1 0 1.7-.9 1.8-1.5.4-.5 0-1.2-1.1-1.3zm.2 2.1s0 .1-.1.1h-.1c-.6 0-.9-.5-.9-.8v-.1-.2c0-.1 0-.2.1-.4l.1-.1h.1c.7 0 .9.5 1 .8-.1.3-.1.5-.2.7z"/><g><path class="st2" d="M154.8 70h-.1c-.9-.2-1.5.5-1.8.9-.1.1-.1.2-.2.4-.2.1-.3.2-.5.3v-.2c.1-.3.2-.6.4-.8.1-.2.2-.3.3-.5.1-.1.2-.1.2-.2.1-.1 0-.2-.2-.2s-.4.1-.6.2l-.3.3c-.1.1-.3.2-.4.3-.1.1-.2.1-.4.2.1-.4.3-.8.4-1.1.1-.3-.7-.1-.8.1-.1.4-.2.8-.4 1.2l-.6.3h-.1v-.1c0-.3.1-.6.2-.9 0-.1.1-.3.2-.4.1-.2.2-.3.2-.5.1-.1-.2-.1-.3-.1-.2 0-.4.1-.5.2-.1.1-.2.3-.2.4-.2.3-.4.7-.6 1l-.1.1-.1.1h-.1c-.1 0-.1-.3 0-.6v-.1-.1c.1-.4.3-.8.4-1.2.1-.2-.8 0-.8.1-.1.4-.2.8-.4 1.2-.1.2-.2.4-.6.4-.3 0-.4-.1-.4-.3 0-.2 0-.4-.2-.6-.2-.2-.4-.2-.7-.2v-.1-.1c.1-.1.2-.3.3-.4l.1-.1c.1 0 .2.1.3.1.3.1 1-.2.8-.3-.3-.2-.7-.2-1-.1-.2 0-.4.1-.6.2 0 0-.1 0-.1.1 0-.3 0-.5-.1-.8-.1-.2-.8.1-.8.3.1.5.1 1 0 1.5-.1.2-.2.4-.5.4s-.4 0-.4-.2c-.1-.2 0-.5-.2-.7-.1-.2-.4-.2-.6-.1v-.1-.1c.1-.1.1-.3.2-.4l.1-.1c.1 0 .2.1.3.1.3.1.9-.2.7-.4-.3-.2-.6-.2-.9-.1-.2.1-.4.2-.5.3l-.1.1c0-.3-.1-.5-.2-.7-.1-.2-.8.2-.7.3.2.5.2 1.1.2 1.6l-.4.4c-.1.1-.2.1-.2.1h-.1c-.2-.1-.2-.3-.2-.5-.1-.4-.1-.8-.1-1.2 0-.3-.4-.4-.8-.3h-.2c-.2 0-.3.1-.4.2-.1.1-.2.1-.2.2-.3.1-1 0-1.3-.1-.1 0-.2-.1-.3-.1-.3-.1-.7.1-.9.2-.1-.1-.1-.3-.2-.4-.1-.1-.4 0-.5.1-.1.1-.3.2-.2.3.3.5.5 1.1.6 1.6-.1.2-.3.4-.4.4h-.1s-.1 0-.1-.1c-.2-.2-.2-.5-.3-.8-.1-.3-.2-.5-.4-.8-.1-.2-.3-.3-.6-.2-.3.1-.4.3-.5.5-.1-.1-.2-.2-.4-.3-.2-.1-.5.1-.6.2-.1.1-.2.2-.2.3 0-.1-.1-.1-.1-.2-.1-.2-.7.2-.6.4.1.1.2.3.2.4 0 .4 0 .8-.3 1.2-.1.2-.2.3-.5.3-.7 0-1.1-.6-1.4-.9-.3-.5-.5-1-.3-1.5 0-.1 0 0 .1-.1h.2c.6-.1.9.1 1.1.4.1.2.7-.3.5-.5-.2-.3-.6-.6-1.3-.5-.5.1-.8.3-1 .5-.5.5-.4 1.2-.2 1.7s.7 1.1 1.4 1.4c.3.1.7.1 1 0 .5-.1.7-.5.9-.8.1-.1.1-.2.2-.3.1.2.2.5.3.7.1.2.6-.2.5-.4-.2-.5-.3-1-.4-1.5v-.1c.3.2.4.6.5.8.1.1.1.3.2.4.1.2.1.4.2.5.1.2.6-.2.5-.4 0-.1-.1-.3-.1-.4-.1-.2-.1-.4-.1-.7v-.6c.1.1.1.1.1.2.2.3.3.5.4.8.1.2.2.9.7.8.4-.1.6-.2.9-.5v.1c.2.6.3 1.2.4 1.7 0 .1.2.1.3 0 .1-.1.3-.2.3-.3 0-.4-.1-.9-.2-1.3.3 0 .5-.1.7-.3.5-.3.5-.8.4-1.3 0-.1 0-.1-.1-.2h.5c-.1.4-.1.8.1 1.2.1.2.2.4.5.4.4.1.7-.1.9-.3 0 .1.1.2.3.2.2.1.5 0 .6-.1.2-.1.4-.2.5-.3v.3c0 .3.6-.1.6-.2 0-.2.1-.4.1-.7.2 0 .2.3.3.4 0 .2 0 .4.3.5.3.1.7 0 1.1-.1.1 0 .1 0 .2-.1v.2c0 .3.7 0 .7-.2.1-.2.1-.4.2-.6.2.1.2.3.2.4 0 .2 0 .4.3.6.3.1.8 0 1.1-.1.1 0 .2-.1.2-.1 0 .2.1.3.5.4.4 0 .8-.1 1.1-.3 0 .2 0 .3.1.4l.1.1h.4c.2 0 .4-.1.7-.2 0 .1-.1.2-.1.3-.1.1.1.1.3.1.2 0 .4-.1.5-.2.1-.2.2-.4.5-.5.1-.1.2-.1.4-.2-.2.3-.3.7-.3 1 0 .1.2.2.2.2H151.8c.3 0 .6-.1.9-.2 0 .2.1.4.4.5.4.1.9-.1 1.2-.2.3-.2.6-.4.8-.7.1.1.5-.6-.3-.9zm-24.9-.9zm6.9 0c0-.1 0-.1 0 0zm.9 1.5zm-.1 0c-.3.1-.5-.1-.5-.2-.1-.3-.2-.6-.3-1v-.3c.1 0 .2 0 .3.1.3.2.4.4.5.7.1.2.2.5 0 .7zm2.4-.1h-.1c-.1 0-.2-.2-.3-.3-.2-.3-.2-.7-.1-1 0-.1.1-.1.1-.2.1 0 .1-.1.2-.1h.1c.2 0 .3.1.3.2 0 .4.1.9 0 1.3-.2 0-.2 0-.2.1zm12.1 1zm1.4.4zm.2-.1s-.1.1-.2.1c-.1-.1-.1-.2-.1-.3 0-.2.1-.4.2-.6.1-.2.2-.4.4-.5 0 0 .1-.1.2-.1.3.2.1.7 0 .9l-.5.5z"/></g><g><ellipse class="st7" cx="127.9" cy="77.2" rx="5.6" ry="3.6"/><path class="st2" d="M124.1 76.9c.2-.1.4-.3.5-.5.1-.1.2-.1.2-.2.1-.1.1-.1 0 0v.3c0 .6 0 1.3-.1 1.9 0 .2.6-.1.6-.2.1-.4.1-.8.1-1.2 0-.2.2-1.1-.1-1.2-.7-.1-1.3.8-1.7 1.1-.2.2.3.2.5 0zM127.2 76.9c-.3-.1-.9-.5-.4-.7.2-.1.4 0 .6 0 .5.1.1.4-.1.5-.1.1-1 .5-.6.7.4.2 1.2 0 1.2.4 0 .3-.8.3-1.1.2-.5-.2-.5-.5.1-.7.2-.1.5-.5 0-.3s-1.1.5-1.1.9c0 .3.4.6.9.6.6 0 1.3-.2 1.6-.5.3-.3.3-.7-.3-.8-.2 0-.7-.1-.8 0 .2-.2.6-.3.8-.5.4-.4.3-.7-.5-.8-.6-.1-1.2.2-1.5.5-.4.4 0 .8.6 1 .3 0 .9-.4.6-.5zM131.5 76.1c-.7.8-1.6 1.5-2.5 2.2-.4.3.2.3.5.1.9-.8 1.8-1.5 2.6-2.3.3-.4-.4-.2-.6 0zM130.2 75.9c-.4 0-.8.3-.8.5-.1.2.2.5.6.5.7 0 1.2-1 .2-1-.2 0-.5.3-.3.3s.3.1.4.2v.2h-.1c-.2 0-.3-.1-.3-.2v-.2h.1c.1 0 .5-.3.2-.3zM131.4 77.5c-.4 0-.8.3-.8.5-.1.2.2.5.6.5.8 0 1.2-1 .2-1-.2 0-.5.3-.3.3s.3.1.4.2v.1h-.1c-.2 0-.3-.1-.3-.2v-.2h.1c.2.1.5-.2.2-.2z"/></g><g><path class="st8" d="M120.3 62.2c-.1 0-.2-.1-.3-.1-.4-.1-.7.1-1 .1-.9 0-1.2 0-2.2-.2 0-.6.5-.9.7-1.3.2-.4-.1-.8-.1-1.3v-.8c-.3.2-.2.7-.2.9-.1-.3-.1-.8-.3-1.1-.1.3 0 .8 0 1.1-.1-.3-.2-.7-.4-.9-.2.3.1.8.1 1-.2-.3-.3-.6-.5-.8-.1.4.2.7.2.9-.2-.2-.3-.5-.5-.6 0 .2.2.5.4.7-.2-.1-.3-.3-.6-.3 0 .2.2.3.3.4-.2-.1-.3-.2-.5-.2 0 .2.2.2.3.4-.1-.1-.2-.1-.4-.2 0 .1.3.2.2.3 0 0-.2-.1-.2 0 0 0 .2.1.1.1h-.2c0 .1.1.1.1.2h-.1c0 .1.1 0 .1.1-.7.5-.3 1-.4 1.6 0-.1-.6-.2-1.1-.3-.3-.1-.3-.3-.5-.3 0 0 .1 0 .1-.1-.1 0-.2 0-.2-.1h.3c-.1 0-.5-.1-.4-.2.2 0 .4.1.5.1-.2-.1-.6-.2-.6-.3.2 0 .5.2.7.1-.3-.1-.7-.3-.8-.4.2.1.5.2.7.2-.4-.1-.7-.3-1-.3.2.2.7.3.8.5l-.9-.3c.1.2.5.3.8.4-.3 0-.4-.1-.7-.1.1.2.5.1.7.3h-.5c0 .1.3.1.5.2-.2 0-.3 0-.4.1.1.1.3 0 .4.1-.1 0-.2 0-.2.1h.2c-.1 0-.1 0-.1.1h.2s-.1 0-.1.1c.4.1.6.5 1.2.7-.3.1.3.3-3.2 1 .1 0 1.5-.2 1.9-.3.4-.1.9-.2 1.3-.3.1 0 .2 0 .3-.1.7 0 1.4 0 2.1-.2-.5.1-1.4.1-1.8-.1.5-.5.1-1.6.5-1.9.4-.2 1-1 1.7-.3.1.1.1.3-.1.5-.3.3-.5.5-.5 1.2 0 .1 0 .3-.4.3 1.5.2 1.9.1 2.8 0 .3 0 .7-.2.7 0 0 .1-.3.1-.5.1-.4 0 .2.1.4.1.1 0 .9-.1 1.3-.1-.3-.4-.4-.4-.7-.5z"/><path class="st8" d="M115.9 57.3c-3.4 0-6.2 1.8-6.2 4s2.8 4 6.2 4c3.4 0 6.2-1.8 6.2-4s-2.8-4-6.2-4m0 .2c3.3 0 6 1.7 6 3.8 0 2.1-2.7 3.8-6 3.8s-6-1.7-6-3.8c0-2.1 2.7-3.8 6-3.8"/></g></g></g></svg>