<svg xmlns="http://www.w3.org/2000/svg" viewBox="0 0 368.5 194.6"><style>.st0{fill:#AF1D00;} .st1{fill:#8D1D00;} .st2{fill:#971D00;} .st3{fill:#761200;} .st4{fill:#FFC7A1;} .st5{fill:#FFB200;} .st6{fill:#FF9C00;} .st7{fill:#FFFFFF;} .st8{fill:#F9963D;} .st9{fill:#493240;} .st10{fill:#331713;} .st11{fill:#492F2C;} .st12{fill:#A5133C;} .st13{fill:#E8E8E8;} .st14{fill:#E07E33;} .st15{fill:#62BA47;} .st16{fill:#000003;} .st17{fill:#E5DFDA;} .st18{fill:#F05A33;} .st19{fill:#E2DED5;} .st20{fill:#2E2B33;} .st21{fill:#BBBDBF;} .st22{fill:#1A3B51;} .st23{opacity:0.15;fill:#264575;} .st24{opacity:0.44;} .st25{fill:#8CB596;} .st26{opacity:0.33;fill:#E2DED5;} .st27{opacity:0.33;} .st28{fill:#F7FCEF;} .st29{opacity:0.55;fill:#000003;} .st30{fill:#D0D2D3;} .st31{fill:#E6E7E8;} .st32{opacity:0.15;} .st33{fill:#264575;} .st34{fill:#A6A8AB;}</style><g id="factory"><g id="XMLID_152_"><path id="XMLID_380_" class="st0" d="M170.6 42.4h176.2v121.1H170.6z"/><path id="XMLID_379_" class="st1" d="M104.5 73.2h66.1v90.3h-66.1z"/><path id="XMLID_378_" class="st2" d="M238.2 143.9c0 .9-.7 1.6-1.6 1.6h-9.3c-.9 0-1.6-.7-1.6-1.6V141c0-.9.7-1.6 1.6-1.6h9.3c.9 0 1.6.7 1.6 1.6v2.9z"/><path id="XMLID_377_" class="st2" d="M265 143.9c0 .9-.7 1.6-1.6 1.6h-9.3c-.9 0-1.6-.7-1.6-1.6V141c0-.9.7-1.6 1.6-1.6h9.3c.9 0 1.6.7 1.6 1.6v2.9z"/><path id="XMLID_376_" class="st2" d="M318.6 143.9c0 .9-.7 1.6-1.6 1.6h-9.3c-.9 0-1.6-.7-1.6-1.6V141c0-.9.7-1.6 1.6-1.6h9.3c.9 0 1.6.7 1.6 1.6v2.9z"/><path id="XMLID_375_" class="st2" d="M349.1 151.9c0 .9-.7 1.6-1.6 1.6h-9.3c-.9 0-1.6-.7-1.6-1.6V149c0-.9.7-1.6 1.6-1.6h9.3c.9 0 1.6.7 1.6 1.6v2.9z"/><path id="XMLID_374_" class="st2" d="M186.2 136.5c0 .9-.7 1.6-1.6 1.6h-9.3c-.9 0-1.6-.7-1.6-1.6v-2.9c0-.9.7-1.6 1.6-1.6h9.3c.9 0 1.6.7 1.6 1.6v2.9z"/><path id="XMLID_373_" class="st2" d="M179.9 136.5c0 .9-.7 1.6-1.6 1.6H169c-.9 0-1.6-.7-1.6-1.6v-2.9c0-.9.7-1.6 1.6-1.6h9.3c.9 0 1.6.7 1.6 1.6v2.9z"/><path id="XMLID_372_" class="st2" d="M218.8 136.5c0 .9-.7 1.6-1.6 1.6h-9.3c-.9 0-1.6-.7-1.6-1.6v-2.9c0-.9.7-1.6 1.6-1.6h9.3c.9 0 1.6.7 1.6 1.6v2.9z"/><path id="XMLID_371_" class="st2" d="M289.9 137.3c0 .9-.7 1.6-1.6 1.6H279c-.9 0-1.6-.7-1.6-1.6v-2.9c0-.9.7-1.6 1.6-1.6h9.3c.9 0 1.6.7 1.6 1.6v2.9z"/><path id="XMLID_370_" class="st2" d="M312.7 136.5c0 .9-.7 1.6-1.6 1.6h-9.3c-.9 0-1.6-.7-1.6-1.6v-2.9c0-.9.7-1.6 1.6-1.6h9.3c.9 0 1.6.7 1.6 1.6v2.9z"/><path id="XMLID_369_" class="st2" d="M339.2 136.8c0 .9-.7 1.6-1.6 1.6h-9.3c-.9 0-1.6-.7-1.6-1.6v-2.9c0-.9.7-1.6 1.6-1.6h9.3c.9 0 1.6.7 1.6 1.6v2.9z"/><path id="XMLID_368_" class="st2" d="M211.2 129.2c0 .9-.7 1.6-1.6 1.6h-9.3c-.9 0-1.6-.7-1.6-1.6v-2.9c0-.9.7-1.6 1.6-1.6h9.3c.9 0 1.6.7 1.6 1.6v2.9z"/><path id="XMLID_367_" class="st3" d="M114.2 129.2c0 .9-.7 1.6-1.6 1.6h-9.3c-.9 0-1.6-.7-1.6-1.6v-2.9c0-.9.7-1.6 1.6-1.6h9.3c.9 0 1.6.7 1.6 1.6v2.9z"/><path id="XMLID_366_" class="st3" d="M164.5 102.4c0 .9-.7 1.6-1.6 1.6h-9.3c-.9 0-1.6-.7-1.6-1.6v-2.9c0-.9.7-1.6 1.6-1.6h9.3c.9 0 1.6.7 1.6 1.6v2.9z"/><path id="XMLID_365_" class="st3" d="M128.2 88.1c0 .9-.7 1.6-1.6 1.6h-9.3c-.9 0-1.6-.7-1.6-1.6v-2.9c0-.9.7-1.6 1.6-1.6h9.3c.9 0 1.6.7 1.6 1.6v2.9z"/><path id="XMLID_364_" class="st3" d="M114.2 151.9c0 .9-.7 1.6-1.6 1.6h-9.3c-.9 0-1.6-.7-1.6-1.6V149c0-.9.7-1.6 1.6-1.6h9.3c.9 0 1.6.7 1.6 1.6v2.9z"/><path id="XMLID_363_" class="st3" d="M114.2 110c0 .9-.7 1.6-1.6 1.6h-9.3c-.9 0-1.6-.7-1.6-1.6v-2.9c0-.9.7-1.6 1.6-1.6h9.3c.9 0 1.6.7 1.6 1.6v2.9z"/><path id="XMLID_362_" class="st3" d="M114.2 100.8c0 .9-.7 1.6-1.6 1.6h-9.3c-.9 0-1.6-.7-1.6-1.6v-2.9c0-.9.7-1.6 1.6-1.6h9.3c.9 0 1.6.7 1.6 1.6v2.9z"/><path id="XMLID_361_" class="st3" d="M123.3 100.8c0 .9-.7 1.6-1.6 1.6h-9.3c-.9 0-1.6-.7-1.6-1.6v-2.9c0-.9.7-1.6 1.6-1.6h9.3c.9 0 1.6.7 1.6 1.6v2.9z"/><path id="XMLID_360_" class="st3" d="M145.1 100.8c0 .9-.7 1.6-1.6 1.6h-9.3c-.9 0-1.6-.7-1.6-1.6v-2.9c0-.9.7-1.6 1.6-1.6h9.3c.9 0 1.6.7 1.6 1.6v2.9z"/><path id="XMLID_359_" class="st2" d="M331.6 129.5c0 .9-.7 1.6-1.6 1.6h-9.3c-.9 0-1.6-.7-1.6-1.6v-2.9c0-.9.7-1.6 1.6-1.6h9.3c.9 0 1.6.7 1.6 1.6v2.9z"/><path id="XMLID_358_" class="st2" d="M179.9 121.8c0 .9-.7 1.6-1.6 1.6H169c-.9 0-1.6-.7-1.6-1.6v-2.9c0-.9.7-1.6 1.6-1.6h9.3c.9 0 1.6.7 1.6 1.6v2.9z"/><path id="XMLID_357_" class="st2" d="M312.7 121.8c0 .9-.7 1.6-1.6 1.6h-9.3c-.9 0-1.6-.7-1.6-1.6v-2.9c0-.9.7-1.6 1.6-1.6h9.3c.9 0 1.6.7 1.6 1.6v2.9z"/><path id="XMLID_356_" class="st2" d="M349 122.1c0 .9-.7 1.6-1.6 1.6H338c-.9 0-1.6-.7-1.6-1.6v-2.9c0-.9.7-1.6 1.6-1.6h9.3c.9 0 1.6.7 1.6 1.6v2.9z"/><path id="XMLID_355_" class="st2" d="M224.6 114.3c0 .9-.7 1.6-1.6 1.6h-9.3c-.9 0-1.6-.7-1.6-1.6v-2.9c0-.9.7-1.6 1.6-1.6h9.3c.9 0 1.6.7 1.6 1.6v2.9z"/><path id="XMLID_354_" class="st2" d="M318.6 114.3c0 .9-.7 1.6-1.6 1.6h-9.3c-.9 0-1.6-.7-1.6-1.6v-2.9c0-.9.7-1.6 1.6-1.6h9.3c.9 0 1.6.7 1.6 1.6v2.9z"/><path id="XMLID_353_" class="st2" d="M180.8 92.5c0 .9-.7 1.6-1.6 1.6h-9.3c-.9 0-1.6-.7-1.6-1.6v-2.9c0-.9.7-1.6 1.6-1.6h9.3c.9 0 1.6.7 1.6 1.6v2.9z"/><path id="XMLID_352_" class="st2" d="M218.8 106.9c0 .9-.7 1.6-1.6 1.6h-9.3c-.9 0-1.6-.7-1.6-1.6V104c0-.9.7-1.6 1.6-1.6h9.3c.9 0 1.6.7 1.6 1.6v2.9z"/><path id="XMLID_351_" class="st2" d="M259.2 106.9c0 .9-.7 1.6-1.6 1.6h-9.3c-.9 0-1.6-.7-1.6-1.6V104c0-.9.7-1.6 1.6-1.6h9.3c.9 0 1.6.7 1.6 1.6v2.9z"/><path id="XMLID_350_" class="st2" d="M211.2 154.9c0 .9-.7 1.6-1.6 1.6h-9.3c-.9 0-1.6-.7-1.6-1.6V152c0-.9.7-1.6 1.6-1.6h9.3c.9 0 1.6.7 1.6 1.6v2.9z"/><path id="XMLID_349_" class="st2" d="M334.2 107.2c0 .9-.7 1.6-1.6 1.6h-9.3c-.9 0-1.6-.7-1.6-1.6v-2.9c0-.9.7-1.6 1.6-1.6h9.3c.9 0 1.6.7 1.6 1.6v2.9z"/><path id="XMLID_348_" class="st2" d="M349 107.2c0 .9-.7 1.6-1.6 1.6H338c-.9 0-1.6-.7-1.6-1.6v-2.9c0-.9.7-1.6 1.6-1.6h9.3c.9 0 1.6.7 1.6 1.6v2.9z"/><path id="XMLID_347_" class="st2" d="M188.8 151.4c0 .9-.7 1.6-1.6 1.6h-9.3c-.9 0-1.6-.7-1.6-1.6v-2.9c0-.9.7-1.6 1.6-1.6h9.3c.9 0 1.6.7 1.6 1.6v2.9z"/><path id="XMLID_346_" class="st2" d="M305.1 99.6c0 .9-.7 1.6-1.6 1.6h-9.3c-.9 0-1.6-.7-1.6-1.6v-2.9c0-.9.7-1.6 1.6-1.6h9.3c.9 0 1.6.7 1.6 1.6v2.9z"/><path id="XMLID_345_" class="st2" d="M340.5 107.2c0 .9-.7 1.6-1.6 1.6h-9.3c-.9 0-1.6-.7-1.6-1.6v-2.9c0-.9.7-1.6 1.6-1.6h9.3c.9 0 1.6.7 1.6 1.6v2.9z"/><path id="XMLID_344_" class="st2" d="M188.8 85.1c0 .9-.7 1.6-1.6 1.6h-9.3c-.9 0-1.6-.7-1.6-1.6v-2.9c0-.9.7-1.6 1.6-1.6h9.3c.9 0 1.6.7 1.6 1.6v2.9z"/><path id="XMLID_343_" class="st2" d="M259.2 92.2c0 .9-.7 1.6-1.6 1.6h-9.3c-.9 0-1.6-.7-1.6-1.6v-2.9c0-.9.7-1.6 1.6-1.6h9.3c.9 0 1.6.7 1.6 1.6v2.9z"/><path id="XMLID_342_" class="st2" d="M312.7 92.2c0 .9-.7 1.6-1.6 1.6h-9.3c-.9 0-1.6-.7-1.6-1.6v-2.9c0-.9.7-1.6 1.6-1.6h9.3c.9 0 1.6.7 1.6 1.6v2.9z"/><path id="XMLID_341_" class="st2" d="M339.2 92.5c0 .9-.7 1.6-1.6 1.6h-9.3c-.9 0-1.6-.7-1.6-1.6v-2.9c0-.9.7-1.6 1.6-1.6h9.3c.9 0 1.6.7 1.6 1.6v2.9z"/><path id="XMLID_340_" class="st2" d="M180.8 85.1c0 .9-.7 1.6-1.6 1.6h-9.3c-.9 0-1.6-.7-1.6-1.6v-2.9c0-.9.7-1.6 1.6-1.6h9.3c.9 0 1.6.7 1.6 1.6v2.9z"/><path id="XMLID_339_" class="st2" d="M238.2 85.1c0 .9-.7 1.6-1.6 1.6h-9.3c-.9 0-1.6-.7-1.6-1.6v-2.9c0-.9.7-1.6 1.6-1.6h9.3c.9 0 1.6.7 1.6 1.6v2.9z"/><path id="XMLID_338_" class="st2" d="M331.6 85.4c0 .9-.7 1.6-1.6 1.6h-9.3c-.9 0-1.6-.7-1.6-1.6v-2.9c0-.9.7-1.6 1.6-1.6h9.3c.9 0 1.6.7 1.6 1.6v2.9z"/><path id="XMLID_337_" class="st2" d="M205.4 77.7c0 .9-.7 1.6-1.6 1.6h-9.3c-.9 0-1.6-.7-1.6-1.6v-2.9c0-.9.7-1.6 1.6-1.6h9.3c.9 0 1.6.7 1.6 1.6v2.9z"/><path id="XMLID_336_" class="st2" d="M245.7 77.7c0 .9-.7 1.6-1.6 1.6h-9.3c-.9 0-1.6-.7-1.6-1.6v-2.9c0-.9.7-1.6 1.6-1.6h9.3c.9 0 1.6.7 1.6 1.6v2.9z"/><path id="XMLID_335_" class="st2" d="M299.3 77.7c0 .9-.7 1.6-1.6 1.6h-9.3c-.9 0-1.6-.7-1.6-1.6v-2.9c0-.9.7-1.6 1.6-1.6h9.3c.9 0 1.6.7 1.6 1.6v2.9z"/><path id="XMLID_334_" class="st2" d="M325.8 78c0 .9-.7 1.6-1.6 1.6h-9.3c-.9 0-1.6-.7-1.6-1.6v-2.9c0-.9.7-1.6 1.6-1.6h9.3c.9 0 1.6.7 1.6 1.6V78z"/><path id="XMLID_333_" class="st2" d="M349 78c0 .9-.7 1.6-1.6 1.6H338c-.9 0-1.6-.7-1.6-1.6v-2.9c0-.9.7-1.6 1.6-1.6h9.3c.9 0 1.6.7 1.6 1.6V78z"/><path id="XMLID_332_" class="st2" d="M197.8 70.3c0 .9-.7 1.6-1.6 1.6h-9.3c-.9 0-1.6-.7-1.6-1.6v-2.9c0-.9.7-1.6 1.6-1.6h9.3c.9 0 1.6.7 1.6 1.6v2.9z"/><path id="XMLID_331_" class="st2" d="M224.6 70.3c0 .9-.7 1.6-1.6 1.6h-9.3c-.9 0-1.6-.7-1.6-1.6v-2.9c0-.9.7-1.6 1.6-1.6h9.3c.9 0 1.6.7 1.6 1.6v2.9z"/><path id="XMLID_330_" class="st2" d="M278.4 70.3c0 .9-.7 1.6-1.6 1.6h-9.3c-.9 0-1.6-.7-1.6-1.6v-2.9c0-.9.7-1.6 1.6-1.6h9.3c.9 0 1.6.7 1.6 1.6v2.9z"/><path id="XMLID_329_" class="st2" d="M305.1 70.3c0 .9-.7 1.6-1.6 1.6h-9.3c-.9 0-1.6-.7-1.6-1.6v-2.9c0-.9.7-1.6 1.6-1.6h9.3c.9 0 1.6.7 1.6 1.6v2.9z"/><path id="XMLID_328_" class="st2" d="M318.6 70.3c0 .9-.7 1.6-1.6 1.6h-9.3c-.9 0-1.6-.7-1.6-1.6v-2.9c0-.9.7-1.6 1.6-1.6h9.3c.9 0 1.6.7 1.6 1.6v2.9z"/><path id="XMLID_327_" class="st2" d="M345 70.7c0 .9-.7 1.6-1.6 1.6h-9.3c-.9 0-1.6-.7-1.6-1.6v-2.9c0-.9.7-1.6 1.6-1.6h9.3c.9 0 1.6.7 1.6 1.6v2.9z"/><path id="XMLID_326_" class="st2" d="M205.4 63c0 .9-.7 1.6-1.6 1.6h-9.3c-.9 0-1.6-.7-1.6-1.6v-2.9c0-.9.7-1.6 1.6-1.6h9.3c.9 0 1.6.7 1.6 1.6V63z"/><path id="XMLID_325_" class="st2" d="M232.3 63c0 .9-.7 1.6-1.6 1.6h-9.3c-.9 0-1.6-.7-1.6-1.6v-2.9c0-.9.7-1.6 1.6-1.6h9.3c.9 0 1.6.7 1.6 1.6V63z"/><path id="XMLID_324_" class="st2" d="M259.2 63c0 .9-.7 1.6-1.6 1.6h-9.3c-.9 0-1.6-.7-1.6-1.6v-2.9c0-.9.7-1.6 1.6-1.6h9.3c.9 0 1.6.7 1.6 1.6V63z"/><path id="XMLID_323_" class="st2" d="M285.9 63c0 .9-.7 1.6-1.6 1.6H275c-.9 0-1.6-.7-1.6-1.6v-2.9c0-.9.7-1.6 1.6-1.6h9.3c.9 0 1.6.7 1.6 1.6V63z"/><path id="XMLID_322_" class="st2" d="M312.7 63c0 .9-.7 1.6-1.6 1.6h-9.3c-.9 0-1.6-.7-1.6-1.6v-2.9c0-.9.7-1.6 1.6-1.6h9.3c.9 0 1.6.7 1.6 1.6V63z"/><path id="XMLID_321_" class="st2" d="M339.2 63.3c0 .9-.7 1.6-1.6 1.6h-9.3c-.9 0-1.6-.7-1.6-1.6v-2.9c0-.9.7-1.6 1.6-1.6h9.3c.9 0 1.6.7 1.6 1.6v2.9z"/><path id="XMLID_320_" class="st2" d="M197.8 55.4c0 .9-.7 1.6-1.6 1.6h-9.3c-.9 0-1.6-.7-1.6-1.6v-2.9c0-.9.7-1.6 1.6-1.6h9.3c.9 0 1.6.7 1.6 1.6v2.9z"/><path id="XMLID_319_" class="st2" d="M219.6 55.8c0 .9-.7 1.6-1.6 1.6h-9.3c-.9 0-1.6-.7-1.6-1.6v-2.9c0-.9.7-1.6 1.6-1.6h9.3c.9 0 1.6.7 1.6 1.6v2.9z"/><path id="XMLID_318_" class="st2" d="M251.6 55.4c0 .9-.7 1.6-1.6 1.6h-9.3c-.9 0-1.6-.7-1.6-1.6v-2.9c0-.9.7-1.6 1.6-1.6h9.3c.9 0 1.6.7 1.6 1.6v2.9z"/><path id="XMLID_317_" class="st2" d="M278.4 55.4c0 .9-.7 1.6-1.6 1.6h-9.3c-.9 0-1.6-.7-1.6-1.6v-2.9c0-.9.7-1.6 1.6-1.6h9.3c.9 0 1.6.7 1.6 1.6v2.9z"/><path id="XMLID_316_" class="st2" d="M318.6 55.4c0 .9-.7 1.6-1.6 1.6h-9.3c-.9 0-1.6-.7-1.6-1.6v-2.9c0-.9.7-1.6 1.6-1.6h9.3c.9 0 1.6.7 1.6 1.6v2.9z"/><path id="XMLID_315_" class="st2" d="M345 55.8c0 .9-.7 1.6-1.6 1.6h-9.3c-.9 0-1.6-.7-1.6-1.6v-2.9c0-.9.7-1.6 1.6-1.6h9.3c.9 0 1.6.7 1.6 1.6v2.9z"/><path id="XMLID_314_" class="st2" d="M205.4 48.1c0 .9-.7 1.6-1.6 1.6h-9.3c-.9 0-1.6-.7-1.6-1.6v-2.9c0-.9.7-1.6 1.6-1.6h9.3c.9 0 1.6.7 1.6 1.6v2.9z"/><path id="XMLID_313_" class="st2" d="M226.3 48.1c0 .9-.7 1.6-1.6 1.6h-9.3c-.9 0-1.6-.7-1.6-1.6v-2.9c0-.9.7-1.6 1.6-1.6h9.3c.9 0 1.6.7 1.6 1.6v2.9z"/><path id="XMLID_312_" class="st2" d="M272.6 48.1c0 .9-.7 1.6-1.6 1.6h-9.3c-.9 0-1.6-.7-1.6-1.6v-2.9c0-.9.7-1.6 1.6-1.6h9.3c.9 0 1.6.7 1.6 1.6v2.9z"/><path id="XMLID_311_" class="st2" d="M312.7 48.1c0 .9-.7 1.6-1.6 1.6h-9.3c-.9 0-1.6-.7-1.6-1.6v-2.9c0-.9.7-1.6 1.6-1.6h9.3c.9 0 1.6.7 1.6 1.6v2.9z"/><path id="XMLID_310_" class="st2" d="M339.2 48.4c0 .9-.7 1.6-1.6 1.6h-9.3c-.9 0-1.6-.7-1.6-1.6v-2.9c0-.9.7-1.6 1.6-1.6h9.3c.9 0 1.6.7 1.6 1.6v2.9z"/><path id="XMLID_309_" class="st4" d="M164.9 35.8h186.8v6.6H164.9z"/><path id="XMLID_308_" class="st4" d="M101 66.4h69.6V73H101z"/><path id="XMLID_307_" class="st5" d="M196.1 15.9h124.4v19.9H196.1z"/><path id="XMLID_306_" class="st6" d="M256.6 15.9h63.9v19.9h-63.9z"/><g id="XMLID_275_"><path id="XMLID_304_" class="st7" d="M221.8 29.7v.1l-.1.1c-.1 0-.1 0-.3.1h-.8c-.1 0-.2 0-.3-.1-.1 0-.1-.1-.1-.1v-7.1l-2.5 7c0 .1 0 .1-.1.1 0 0-.1.1-.2.1h-1.1c-.1 0-.2 0-.3-.1-.1 0-.1-.1-.2-.1l-.1-.1-2.4-7v7.1l-.1.1c-.1 0-.2 0-.3.1h-.8c-.1 0-.2 0-.3-.1-.1 0-.1-.1-.1-.1V22c0-.2.1-.4.2-.5.1-.1.3-.2.5-.2h1.6c.1 0 .3.1.4.2l.3.3c.1.1.1.3.2.5l1.9 5.1 1.9-5.1c.1-.2.1-.3.2-.5.1-.1.1-.2.2-.3.1-.1.2-.1.3-.2H221.3c.1 0 .2.1.2.1.1.1.1.1.1.2v8.1z"/><path id="XMLID_301_" class="st7" d="M231.4 25.5c0 .7-.1 1.3-.3 1.9-.2.6-.4 1-.8 1.4-.3.4-.8.7-1.3.9-.5.2-1.1.3-1.8.3s-1.2-.1-1.7-.3c-.5-.2-.9-.4-1.2-.8-.3-.4-.6-.8-.7-1.4-.2-.6-.2-1.2-.2-2 0-.7.1-1.3.3-1.9.2-.6.4-1 .8-1.4.3-.4.8-.7 1.3-.9.5-.2 1.1-.3 1.8-.3.6 0 1.2.1 1.7.3.5.2.9.4 1.2.8.3.4.6.8.8 1.4 0 .6.1 1.3.1 2zm-1.8.1c0-.5 0-.9-.1-1.2-.1-.4-.2-.7-.4-.9-.2-.3-.4-.5-.7-.6-.3-.1-.6-.2-1.1-.2-.4 0-.8.1-1.1.2-.3.2-.5.4-.7.6-.2.3-.3.6-.4.9-.1.4-.1.7-.1 1.1 0 .5 0 .9.1 1.3s.2.7.4 1c.2.3.4.5.7.6.3.1.6.2 1.1.2.4 0 .8-.1 1.1-.2.3-.2.5-.4.7-.6.2-.3.3-.6.4-1 0-.4.1-.8.1-1.2z"/><path id="XMLID_299_" class="st7" d="M239.2 29.7v.1l-.1.1H237.7c-.1 0-.1 0-.1-.1v-7h-1.8c-.1 1-.2 1.9-.4 2.7-.1.8-.3 1.4-.4 1.9-.1.5-.3 1-.5 1.3-.2.3-.4.6-.6.8-.2.2-.5.3-.8.4-.3.1-.6.1-1 .1h-.2l-.1-.1s-.1-.1-.1-.2v-.3-.5-.3c0-.1.1-.1.1-.1h.1c.1 0 .3 0 .4-.1.1-.1.2-.2.4-.3.1-.2.2-.4.3-.7.1-.3.2-.7.3-1.2.1-.5.2-1.1.3-1.8.1-.7.2-1.5.3-2.5 0-.2.1-.4.2-.5.1-.1.2-.1.4-.1h4.2c.2 0 .3 0 .4.1.1.1.1.2.1.4v7.9z"/><path id="XMLID_296_" class="st7" d="M248.8 25.5c0 .7-.1 1.3-.3 1.9-.2.6-.4 1-.8 1.4-.3.4-.8.7-1.3.9-.5.2-1.1.3-1.8.3s-1.2-.1-1.7-.3c-.5-.2-.9-.4-1.2-.8-.3-.4-.6-.8-.7-1.4-.2-.6-.2-1.2-.2-2 0-.7.1-1.3.3-1.9.2-.6.4-1 .8-1.4.3-.4.8-.7 1.3-.9.5-.2 1.1-.3 1.8-.3.6 0 1.2.1 1.7.3.5.2.9.4 1.2.8.3.4.6.8.8 1.4 0 .6.1 1.3.1 2zm-1.9.1c0-.5 0-.9-.1-1.2-.1-.4-.2-.7-.4-.9-.2-.3-.4-.5-.7-.6-.3-.1-.6-.2-1.1-.2-.4 0-.8.1-1.1.2-.3.2-.5.4-.7.6-.2.3-.3.6-.4.9-.1.4-.1.7-.1 1.1 0 .5 0 .9.1 1.3s.2.7.4 1c.2.3.4.5.7.6.3.1.6.2 1.1.2.4 0 .8-.1 1.1-.2.3-.2.5-.4.7-.6.2-.3.3-.6.4-1 .1-.4.1-.8.1-1.2z"/><path id="XMLID_294_" class="st7" d="M256.6 29.7v.1l-.1.1h-1.2c-.1 0-.2 0-.3-.1-.1 0-.1-.1-.2-.1 0 0-.1-.1-.1-.2l-.7-1.9c-.1-.3-.2-.5-.3-.7-.1-.2-.2-.3-.4-.5-.1-.1-.3-.2-.4-.2-.2 0-.3-.1-.5-.1h-.4v3.5l-.1.1c-.1 0-.2 0-.3.1h-.8c-.1 0-.2 0-.3-.1-.1 0-.1-.1-.1-.1v-8.2-.1l.1-.1H251.9c.1 0 .1 0 .1.1V24.6h.4c.2 0 .4 0 .5-.1.2-.1.3-.1.4-.3.1-.1.2-.3.3-.4.1-.2.2-.4.3-.7l.6-1.7c0-.1 0-.1.1-.2l.1-.1c.1 0 .2 0 .3-.1h1.2c.1 0 .1 0 .1.1V21.4c0 .1-.1.2-.1.3l-.6 1.5c-.1.3-.2.5-.3.7-.1.2-.2.4-.3.5-.1.1-.2.3-.4.3-.1.1-.3.2-.4.2.2.1.3.2.5.3.1.1.3.2.4.4.1.1.2.3.4.5.1.2.2.5.4.8l.7 1.8c.1.2.1.3.1.4-.1.5-.1.5-.1.6z"/><path id="XMLID_291_" class="st7" d="M265.2 25.5c0 .7-.1 1.3-.3 1.9-.2.6-.4 1-.8 1.4-.3.4-.8.7-1.3.9-.5.2-1.1.3-1.8.3s-1.2-.1-1.7-.3c-.5-.2-.9-.4-1.2-.8-.3-.4-.6-.8-.7-1.4-.2-.6-.2-1.2-.2-2 0-.7.1-1.3.3-1.9.2-.6.4-1 .8-1.4.3-.4.8-.7 1.3-.9.5-.2 1.1-.3 1.8-.3.6 0 1.2.1 1.7.3.5.2.9.4 1.2.8.3.4.6.8.8 1.4.1.6.1 1.3.1 2zm-1.8.1c0-.5 0-.9-.1-1.2-.1-.4-.2-.7-.4-.9-.2-.3-.4-.5-.7-.6-.3-.1-.6-.2-1.1-.2-.4 0-.8.1-1.1.2-.3.2-.5.4-.7.6-.2.3-.3.6-.4.9-.1.4-.1.7-.1 1.1 0 .5 0 .9.1 1.3s.2.7.4 1c.2.3.4.5.7.6.3.1.6.2 1.1.2.4 0 .8-.1 1.1-.2.3-.2.5-.4.7-.6.2-.3.3-.6.4-1 .1-.4.1-.8.1-1.2z"/><path id="XMLID_289_" class="st7" d="M271.7 27.4c0 .4-.1.8-.2 1.1-.2.3-.4.6-.7.8-.3.2-.7.4-1.1.5-.4.1-.9.2-1.4.2-.3 0-.5 0-.8-.1-.2 0-.4-.1-.6-.1-.2-.1-.3-.1-.4-.2-.1-.1-.2-.1-.2-.1l-.1-.1s0-.1-.1-.2v-.3-.4-.4c0-.1.1-.1.1-.1.1 0 .1 0 .2.1s.2.1.4.2c.1.1.3.1.5.2s.5.1.7.1c.2 0 .5 0 .6-.1.2-.1.4-.1.5-.2.1-.1.2-.2.3-.4.1-.1.1-.3.1-.5s0-.4-.1-.5c-.1-.2-.2-.3-.3-.4-.1-.1-.3-.2-.6-.3-.2-.1-.5-.1-.8-.1H266.8l-.1-.1v-.2-.3-.3c0-.1 0-.1.1-.2l.1-.1h1c.3 0 .5 0 .7-.1.2-.1.4-.1.5-.2.1-.1.2-.2.3-.4.1-.1.1-.3.1-.5s0-.3-.1-.4c-.1-.1-.1-.2-.2-.3-.1-.1-.2-.2-.4-.2-.2-.1-.4-.1-.6-.1-.3 0-.5 0-.7.1-.2.1-.4.1-.6.2-.2.1-.3.1-.4.2-.1.1-.2.1-.2.1h-.1l-.1-.1V23v-.3-.2-.2c0-.1 0-.1.1-.2l.1-.1s.1-.1.3-.2c.1-.1.3-.1.5-.2s.4-.1.7-.1c.3 0 .5-.1.8-.1.5 0 .9 0 1.2.1.3.1.6.2.9.4.2.2.4.4.5.7.1.3.2.6.2.9 0 .3 0 .5-.1.7l-.3.6c-.1.2-.3.3-.5.4l-.6.3c.3 0 .5.1.7.2.2.1.4.3.6.4.2.2.3.4.4.6.1.2.1.5.1.7z"/><path id="XMLID_286_" class="st7" d="M280 29.3c.1.2.1.3.1.4 0 .1 0 .2-.1.2 0 0-.1.1-.3.1h-1.3c-.1 0-.1 0-.1-.1 0 0 0-.1-.1-.1l-.6-1.7h-3.2l-.5 1.7c0 .1 0 .1-.1.2l-.1.1h-1.3c-.1 0-.2 0-.2-.1s-.1-.1 0-.2c0-.1 0-.2.1-.4l2.6-7.6c0-.1.1-.1.1-.2 0 0 .1-.1.2-.1H277c.1 0 .1.1.2.1 0 0 .1.1.1.2l2.7 7.5zm-3.9-6.3l-1.2 3.6h2.4l-1.2-3.6z"/><path id="XMLID_282_" class="st7" d="M287.5 27.3c0 .3 0 .6-.1.8-.1.2-.2.5-.3.7-.1.2-.3.4-.5.5-.2.1-.4.2-.7.3-.2.1-.5.2-.8.2-.3 0-.6.1-.9.1h-2.3c-.1 0-.3 0-.4-.1-.1-.1-.1-.2-.1-.4v-7.5c0-.2 0-.3.1-.4.1-.1.2-.1.4-.1h2.2c.5 0 1 0 1.3.1.4.1.7.2.9.4.2.2.4.4.6.7.1.3.2.6.2 1 0 .2 0 .4-.1.6-.1.2-.1.4-.2.5-.1.1-.2.3-.4.4-.1.1-.3.2-.5.3.2 0 .5.1.7.2.2.1.4.3.5.4.2.2.3.4.4.6-.1.2 0 .4 0 .7zm-2.3-3.6c0-.2 0-.3-.1-.5-.1-.1-.1-.3-.2-.3-.1-.1-.2-.2-.4-.2s-.4-.1-.6-.1h-.9v2.2h1c.3 0 .5 0 .6-.1.1-.1.3-.1.4-.2.1-.1.2-.2.2-.4v-.4zm.4 3.7c0-.2 0-.4-.1-.5-.1-.2-.2-.3-.3-.4-.1-.1-.3-.2-.5-.2-.2-.1-.5-.1-.8-.1h-1v2.4h1.3c.2 0 .4 0 .6-.1.2-.1.3-.1.4-.2.1-.1.2-.2.3-.4.1-.1.1-.3.1-.5z"/><path id="XMLID_279_" class="st7" d="M296.6 25.5c0 .7-.1 1.3-.3 1.9-.2.6-.4 1-.8 1.4-.3.4-.8.7-1.3.9-.5.2-1.1.3-1.8.3s-1.2-.1-1.7-.3c-.5-.2-.9-.4-1.2-.8-.3-.4-.6-.8-.7-1.4-.2-.6-.2-1.2-.2-2 0-.7.1-1.3.3-1.9.2-.6.4-1 .8-1.4.3-.4.8-.7 1.3-.9.5-.2 1.1-.3 1.8-.3.6 0 1.2.1 1.7.3.5.2.9.4 1.2.8.3.4.6.8.8 1.4 0 .6.1 1.3.1 2zm-1.9.1c0-.5 0-.9-.1-1.2-.1-.4-.2-.7-.4-.9-.2-.3-.4-.5-.7-.6-.3-.1-.6-.2-1.1-.2-.4 0-.8.1-1.1.2-.3.2-.5.4-.7.6-.2.3-.3.6-.4.9-.1.4-.1.7-.1 1.1 0 .5 0 .9.1 1.3s.2.7.4 1c.2.3.4.5.7.6.3.1.6.2 1.1.2.4 0 .8-.1 1.1-.2.3-.2.5-.4.7-.6.2-.3.3-.6.4-1 .1-.4.1-.8.1-1.2z"/><path id="XMLID_276_" class="st7" d="M305.6 31.9v.1l-.1.1h-1.2c-.1 0-.1 0-.1-.1v-2.1h-5.7V32l-.1.1h-1.2c-.1 0-.1 0-.1-.1v-3.2c0-.1 0-.2.1-.3.1-.1.1-.1.2-.1h.4c.1-.1.2-.3.3-.5.1-.2.2-.3.3-.6.1-.2.2-.5.3-.8.1-.3.2-.7.3-1.1.1-.4.2-1 .3-1.6.1-.6.2-1.3.3-2.1 0-.2.1-.3.2-.4.1-.1.2-.1.3-.1h4.4c.2 0 .3 0 .4.1.1.1.1.2.1.4v6.6h.7c.1 0 .2 0 .3.1 0 .1.1.2.1.3v3.2zm-2.8-9.2h-2c-.1.7-.2 1.3-.2 1.8-.1.5-.2 1-.2 1.3-.1.4-.2.7-.2 1-.1.3-.2.5-.2.7-.1.2-.2.4-.3.5-.1.1-.2.3-.3.4h3.5v-5.7z"/></g><circle id="XMLID_274_" class="st7" cx="201.7" cy="66.9" r="9"/><circle id="XMLID_273_" class="st8" cx="201.8" cy="66.9" r="7.6"/><circle id="XMLID_272_" class="st9" cx="201.8" cy="66.9" r="6.2"/><path id="XMLID_271_" class="st8" d="M201.4 60.4h1.1v12.9h-1.1z"/><path id="XMLID_270_" class="st8" d="M195.5 66.4h12.9v1.1h-12.9z"/><circle id="XMLID_269_" class="st7" cx="258.4" cy="66.9" r="9"/><circle id="XMLID_268_" class="st8" cx="258.5" cy="66.9" r="7.6"/><circle id="XMLID_267_" class="st9" cx="258.5" cy="66.9" r="6.2"/><path id="XMLID_266_" class="st8" d="M258 60.4h1.1v12.9H258z"/><path id="XMLID_265_" class="st8" d="M252.1 66.4H265v1.1h-12.9z"/><circle id="XMLID_264_" class="st7" cx="315.3" cy="66.9" r="9"/><circle id="XMLID_263_" class="st8" cx="315.4" cy="66.9" r="7.6"/><circle id="XMLID_262_" class="st9" cx="315.4" cy="66.9" r="6.2"/><path id="XMLID_261_" class="st8" d="M314.9 60.4h1.1v12.9h-1.1z"/><path id="XMLID_260_" class="st8" d="M309 66.4h12.9v1.1H309z"/><path id="XMLID_259_" class="st10" d="M121.9 124.7h42.6v38.8h-42.6z"/><path id="XMLID_258_" class="st11" d="M125.7 128.1h15.6v1.5h-15.6z"/><path id="XMLID_257_" class="st11" d="M125.7 131.7h15.6v1.5h-15.6z"/><path id="XMLID_256_" class="st11" d="M125.7 135.2h15.6v1.5h-15.6z"/><path id="XMLID_255_" class="st11" d="M125.7 138.7h15.6v1.5h-15.6z"/><path id="XMLID_254_" class="st11" d="M125.7 142.2h15.6v1.5h-15.6z"/><path id="XMLID_253_" class="st11" d="M125.7 145.8h15.6v1.5h-15.6z"/><path id="XMLID_252_" class="st11" d="M125.7 149.3h15.6v1.5h-15.6z"/><path id="XMLID_251_" class="st11" d="M125.7 152.8h15.6v1.5h-15.6z"/><path id="XMLID_250_" class="st11" d="M125.7 156.3h15.6v1.5h-15.6z"/><path id="XMLID_249_" class="st11" d="M125.7 159.9h15.6v1.5h-15.6z"/><path id="XMLID_248_" class="st11" d="M145.4 128.1H161v1.5h-15.6z"/><path id="XMLID_247_" class="st11" d="M145.4 131.7H161v1.5h-15.6z"/><path id="XMLID_246_" class="st11" d="M145.4 135.2H161v1.5h-15.6z"/><path id="XMLID_245_" class="st11" d="M145.4 138.7H161v1.5h-15.6z"/><path id="XMLID_244_" class="st11" d="M145.4 142.2H161v1.5h-15.6z"/><path id="XMLID_243_" class="st11" d="M145.4 145.8H161v1.5h-15.6z"/><path id="XMLID_242_" class="st11" d="M145.4 149.3H161v1.5h-15.6z"/><path id="XMLID_241_" class="st11" d="M145.4 152.8H161v1.5h-15.6z"/><path id="XMLID_240_" class="st11" d="M145.4 156.3H161v1.5h-15.6z"/><path id="XMLID_239_" class="st11" d="M145.4 159.9H161v1.5h-15.6z"/><g id="XMLID_223_"><path id="XMLID_238_" class="st7" d="M189.4 106.6H214v2h-24.6z"/><path id="XMLID_237_" class="st7" d="M191.8 108.3h2v33.2h-2z"/><path id="XMLID_236_" class="st7" d="M190.4 139.5h22.9v2h-22.9z"/><path id="XMLID_235_" class="st7" d="M209.8 108.3h2v33.2h-2z"/><path id="XMLID_234_" class="st8" d="M193.8 108.6h16v30.9h-16z"/><path id="XMLID_233_" class="st12" d="M201.7 101.8l-10.8 5.2h21z"/><path id="XMLID_232_" class="st7" d="M201.74 100.26l.898 1.786-12.33 6.197-.898-1.787z"/><path id="XMLID_231_" class="st7" d="M214.046 106.47l-.9 1.787-12.33-6.197.9-1.787z"/><path id="XMLID_230_" class="st9" d="M195.7 110.2h5.6v13.2h-5.6z"/><path id="XMLID_229_" class="st9" d="M195.7 124.9h5.6v12.9h-5.6z"/><path id="XMLID_228_" class="st9" d="M202.4 124.9h5.6v12.9h-5.6z"/><path id="XMLID_227_" class="st9" d="M202.4 110.2h5.6v13.2h-5.6z"/><path id="XMLID_226_" class="st13" d="M191.8 108.6h2v1.6h-2z"/><path id="XMLID_225_" class="st14" d="M193.8 108.6h16v1.6h-16z"/><path id="XMLID_224_" class="st13" d="M209.8 108.6h2v1.6h-2z"/></g><g id="XMLID_207_"><path id="XMLID_222_" class="st7" d="M246.4 106.6H271v2h-24.6z"/><path id="XMLID_221_" class="st7" d="M248.8 108.3h2v33.2h-2z"/><path id="XMLID_220_" class="st7" d="M247.4 139.5h22.9v2h-22.9z"/><path id="XMLID_219_" class="st7" d="M266.8 108.3h2v33.2h-2z"/><path id="XMLID_218_" class="st8" d="M250.8 108.6h16v30.9h-16z"/><path id="XMLID_217_" class="st12" d="M258.7 101.8l-10.8 5.2h21z"/><path id="XMLID_216_" class="st7" d="M258.74 100.26l.9 1.787-12.33 6.197-.9-1.787z"/><path id="XMLID_215_" class="st7" d="M271.053 106.48l-.898 1.787-12.33-6.198.898-1.788z"/><path id="XMLID_214_" class="st9" d="M252.7 110.2h5.6v13.2h-5.6z"/><path id="XMLID_213_" class="st9" d="M252.7 124.9h5.6v12.9h-5.6z"/><path id="XMLID_212_" class="st9" d="M259.4 124.9h5.6v12.9h-5.6z"/><path id="XMLID_211_" class="st9" d="M259.4 110.2h5.6v13.2h-5.6z"/><path id="XMLID_210_" class="st13" d="M248.8 108.6h2v1.6h-2z"/><path id="XMLID_209_" class="st14" d="M250.8 108.6h16v1.6h-16z"/><path id="XMLID_208_" class="st13" d="M266.8 108.6h2v1.6h-2z"/></g><g id="XMLID_153_"><path id="XMLID_206_" class="st7" d="M303 106.6h24.6v2H303z"/><path id="XMLID_205_" class="st7" d="M305.3 108.3h2v33.2h-2z"/><path id="XMLID_204_" class="st7" d="M304 139.5h22.9v2H304z"/><path id="XMLID_165_" class="st7" d="M323.4 108.3h2v33.2h-2z"/><path id="XMLID_164_" class="st8" d="M307.3 108.6h16v30.9h-16z"/><path id="XMLID_163_" class="st12" d="M315.3 101.8l-10.8 5.2h20.9z"/><path id="XMLID_162_" class="st7" d="M315.32 100.316l.898 1.787-12.33 6.198-.9-1.786z"/><path id="XMLID_161_" class="st7" d="M327.615 106.437l-.898 1.787-12.33-6.196.898-1.787z"/><path id="XMLID_160_" class="st9" d="M309.2 110.2h5.6v13.2h-5.6z"/><path id="XMLID_159_" class="st9" d="M309.2 124.9h5.6v12.9h-5.6z"/><path id="XMLID_158_" class="st9" d="M315.9 124.9h5.6v12.9h-5.6z"/><path id="XMLID_157_" class="st9" d="M315.9 110.2h5.6v13.2h-5.6z"/><path id="XMLID_156_" class="st13" d="M305.3 108.6h2v1.6h-2z"/><path id="XMLID_155_" class="st14" d="M307.3 108.6h16v1.6h-16z"/><path id="XMLID_154_" class="st13" d="M323.4 108.6h2v1.6h-2z"/></g></g></g><g id="car"><g id="XMLID_29_"><path id="XMLID_151_" class="st7" d="M101.3 156H31.6c-6.6 0-12-5.4-12-12v-29.6c0-6.6 5.4-12 12-12h69.7c6.6 0 12 5.4 12 12V144c0 6.6-5.4 12-12 12z"/><path id="XMLID_146_" class="st15" d="M88.4 125.9c-2.8-.9-4.3 2.6-4.8 4.7v.1c-.5 2.1-1.2 3.1-1.4 3-.6-.2-.4-1.1-.4-1.7 0-.9.1-1.9-.4-2.8-.4-.7-1.1-.8-1.9-.8 0-.1.1-.2.1-.3.1-.1.1-.3.2-.4.3-.7.7-1.4 1.3-1.9.3.1.6.5.8.6.7.8 3-.5 2.4-1.2-.9-1-2-1.2-2.9-1-.7.1-1.3.5-1.9.9-.1.1-.2.2-.3.2.1-1.2.1-2.4-.1-3.6-.1-.7-1.5-.3-2.2.3-.1.1-.2.2-.3.4-.3.8-1.7 1.3-3 .2-.3-.3-.7-.4-1.2-.5-2.8-.2-3.9 3.1-4.1 5.3-.1 1.4-1 3.4-1.8 3.7-.2-.2-.3-.4-.4-.6-.3-.7-.5-1.5-.5-2.2-.2-2.1-.3-4.2-.2-6.3 0-.4-.4-.5-.8-.4-.7.2-1.3.7-1.5 1.3-.9 1.9-1.3 3.9-1.5 5.9-.1.5-.1 1.1-.2 1.7 0 .2 0 .4-.1.7-.4 0-.8-.5-.8-.8 0-.7-.9-.4-1.6.2.4-1 .5-2.2.5-3.3 0-1.9-.5-5.6-3.1-5.4-2.7.2-3.3 3.7-3.4 5.9 0 2.1-.1 3.8-.2 4.2-1.2.2-1.9-1.1-2.2-1.8-.6-1.4-.9-2.9-1.1-4.4-.3-2.6-.5-5.1-.4-7.6 0-.4-.5-.4-.9-.3-.6.3-1.1.8-1.3 1.3-.8 1.9-1 4-1.2 6v.1c0-.2-.1-.4-.1-.5-.3-1.6-.6-3.2-.8-4.8-.1-1-.3-2.3-.2-3.1.2-1.3-1.7 0-2 .6-1.8 3.7-1.2 7.7-1 11.8 0 1 0 2.1-.1 3.1-.1.7-.2 2-.8 2.6-.4.4-1.1.1-1.4-.1-.5-.3-.8-.8-.9-1.4-.1-.6-.7-.3-1.1.1-.4.4-.9 1.2-.8 1.8.2 1.4 1.5 2.6 2.9 2.1 2.4-.8 3.3-3.6 3.8-5.8.3-1.3.4-2.6.4-3.9.5 2.4 1 4.7 1.5 7.1.3 1.2 2-.9 2-1.6 0-1.7.1-3.4.2-5.1.3 2 .9 6.7 3.9 6.2 1.2-.2 1.9-1.1 2.3-2.2.4.9 1.1 1.6 2.2 1.6 1-.1 1.9-.9 2.5-1.8.1.8.6 1.4 1.6 1.4 1.2 0 2.3-.7 3-1.6.3-.4.5-.8.6-1.3 0 .2.1.4.1.6.2.7.4 1.5.9 2 .6.6 1.6.2 2.2-.2.7-.5 1.2-1.2 1.6-1.9.2 1.4.8 2.6 2.2 2.9 1.3.2 2.5-.9 3.1-1.8.7-1.1 1.1-2.4 1.2-3.7.1-.8.2-2.1-.1-3.4.9 0 1.6-.3 2-.7-.1 3.3-.6 6.6-1.2 9.9-.1.6.6.6 1 .5.6-.2 1.2-.6 1.3-1.1.2-1 .5-2 .8-3 1.2 1.4.2 3.3 1 4.6.5.7 2 .6 2.7.2.3-.2.5-.4.8-.6.2 1 .6 1.9 1.6 2.3 1.2.5 2.5-.4 3.2-1.1.8-.9 1.3-2.2 1.7-3.4 1-2.2 1.6-5.8-1-6.7zm-31.3 4.8c0 .2-.1.5-.2.7-.5-.1-.9-.8-1-1.1-.4-.8-.6-1.8-.6-2.7-.1-.9-.1-1.9.1-2.9.1-.2.1-.5.2-.7 1.2.3 1.5 3 1.6 3.8.1.9.1 1.9-.1 2.9zm15.1.4c-.1.2-.2.5-.3.7-.5-.2-.7-1-.9-1.3-.3-.9-.3-1.9-.3-2.8 0-.9.2-1.9.5-2.8.1-.2.2-.5.3-.7 1.1 1 1.2 2.7 1.1 4.1 0 .9-.1 1.9-.4 2.8zm14.6 3.6c-.1.2-.2.4-.4.6-.4-.3-.6-1.1-.6-1.5-.1-1 0-1.9.1-2.8.2-.9.4-1.9.9-2.7.1-.2.2-.4.4-.6.9 1.3.8 2.9.5 4.3-.2.9-.4 1.8-.9 2.7z"/><path id="XMLID_145_" class="st16" d="M59.447 178l58.916-5.798.186 1.89-58.917 5.8z"/><path id="XMLID_144_" class="st16" d="M167.3 151.8l-28.1-3.5v5.2h-25.8v16.7H28.2v2.6h.1l2.2 1.9h134.2l5.8-1.9z"/><path id="XMLID_143_" class="st16" d="M66 168.2h8.6v2.6H66z"/><path id="XMLID_142_" class="st16" d="M30.5 168.2h6.9v2.6h-6.9z"/><path id="XMLID_141_" class="st16" d="M99 168.2h6.9v2.6H99z"/><path id="XMLID_140_" class="st16" d="M27.2 157.3h94.5v11.4H27.2z"/><path id="XMLID_139_" class="st17" d="M177.3 152.2h-.1v12h.1c1 0 1.9-.8 1.9-1.9v-8.2c0-1-.9-1.9-1.9-1.9z"/><path id="XMLID_138_" class="st17" d="M25 174.3h.1v-7.9H25c-1 0-1.9.8-1.9 1.9v4.2c0 1 .8 1.8 1.9 1.8z"/><path id="XMLID_137_" class="st16" d="M159.7 180.6h-21.1L131 168h38.6z"/><g id="XMLID_134_"><path id="XMLID_136_" class="st18" d="M157.5 119.3c0-.7-.6-1.3-1.3-1.3-.7 0-1.3.6-1.3 1.3v1h2.6v-1z"/><path id="XMLID_135_" class="st19" d="M157.5 119.7h-2.7c-.5.4-.9 1.1-.9 1.8v2.3h4.5v-2.3c.1-.8-.3-1.4-.9-1.8z"/></g><g id="XMLID_128_"><path id="XMLID_133_" class="st20" d="M30.5 160.6h2.2v3.7h-2.2z"/><path id="XMLID_132_" class="st20" d="M51.9 160.6h2.2v3.7h-2.2z"/><path id="XMLID_131_" class="st20" d="M73.3 160.6h2.2v3.7h-2.2z"/><path id="XMLID_130_" class="st20" d="M94.6 160.6h2.2v3.7h-2.2z"/><path id="XMLID_129_" class="st20" d="M116 160.6h2.2v3.7H116z"/></g><path id="XMLID_127_" class="st7" d="M168.3 146.7l-4.3-20-.1-.3c0-3-2.4-5.4-5.4-5.4h-28.7c-3 0-5.4 2.4-5.4 5.4l-1.7 19.8v18h3.1c1.8 0 3.3 1.5 3.3 3.3v5.4h15.3c.6-1.1 1.2-2.1 1.9-3.2 2.3-4.1 6.8-6.6 11.6-6.6 2.7 0 5.3.8 7.5 2.3 2.3 1.6 4 3.9 4.9 6.6l.3.8h7v-22.3l-9.3-3.8z"/><path id="XMLID_126_" class="st21" d="M121.2 160.3c0 .5-.4.9-.9.9s-.9-.4-.9-.9v-32.8c0-.5.4-.9.9-.9s.9.4.9.9v32.8z"/><path id="XMLID_125_" class="st20" d="M24.7 163.6h2.5v11.8h-2.5z"/><g id="XMLID_123_"><path id="XMLID_124_" class="st20" d="M36.2 184c-.1 0-.3 0-.4-.1-.4-.2-.6-.8-.4-1.2 2.9-5.2 4.3-11 4.1-16.9 0-.5.4-.9.9-.9s.9.4.9.9c.2 6.2-1.3 12.3-4.3 17.8-.2.2-.5.4-.8.4z"/></g><path id="XMLID_122_" class="st22" d="M157.6 142.4l-2.2-11.2c-.4-2.1-2.4-3.8-4.6-3.8h-10.1c-2.2 0-4.1 1.8-4.1 4.1v11.1c0 2.2 1.8 4.1 4.1 4.1H154c1.1 0 2.1-.5 2.8-1.3.7-.8 1-1.9.8-3z"/><path id="XMLID_121_" class="st23" d="M127.6 127.4h-3.3l-1.6 18.8v.5h4.8c2.2 0 4.1-1.8 4.1-4.1v-11.1c0-2.3-1.8-4.1-4-4.1z"/><path id="XMLID_120_" class="st22" d="M164.3 127.4h-.4c-1.1 0-2.1.5-2.8 1.3-.7.8-.9 1.9-.7 3l2.2 11.2c.4 2.1 2.4 3.8 4.6 3.8h1.2l-4.1-19.3z"/><g id="XMLID_115_" class="st24"><path id="XMLID_119_" class="st25" d="M157.6 142.4l-1.8-9.2-13.5 13.5h11z"/><path id="XMLID_118_" class="st25" d="M136.7 142.6c0 1 .4 2 1.1 2.7l8.2-8.2c1-1 1-2.7 0-3.8-1-1-2.7-1-3.8 0l-5.5 5.5v3.8z"/><path id="XMLID_117_" class="st25" d="M162.3 141.8l.2 1.1c.3 1.5 1.4 2.8 2.8 3.4l2.4-2.4-1.3-6.2-4.1 4.1z"/><path id="XMLID_116_" class="st25" d="M164.2 127.4h-.4c-1.1 0-2.1.5-2.8 1.3-.7.8-.9 1.9-.7 3l1.3 6.7 4.1-4.1-1.5-6.9z"/></g><path id="XMLID_114_" class="st26" d="M168.3 146.7l-4.3-20-.1-.3c0-3-2.4-5.4-5.4-5.4h-28.7c-3 0-5.4 2.4-5.4 5.4l-1.7 19.8v1.7l1.7-19.8c0-3 2.4-5.4 5.4-5.4h28.7c3 0 5.4 2.4 5.4 5.4l.1.3 4.3 20 9.2 3.8v-1.8l-9.2-3.7z"/><g id="XMLID_111_" class="st27"><path id="XMLID_113_" class="st22" d="M140.8 128.9h10.1c2.2 0 4.2 1.7 4.6 3.8l2.1 11.2c.1-.5.1-.9 0-1.4l-2.2-11.2c-.4-2.1-2.4-3.8-4.6-3.8h-10.1c-2.2 0-4.1 1.8-4.1 4.1v1.5c.1-2.4 1.9-4.2 4.2-4.2z"/><path id="XMLID_112_" class="st22" d="M160.4 131.7c.1-.6.4-1.1.7-1.5.7-.8 1.7-1.3 2.8-1.3h.7l-.3-1.5h-.4c-1.1 0-2.1.5-2.8 1.3-.7.8-1 1.8-.7 3z"/></g><path id="XMLID_110_" class="st17" d="M179.5 161.2h-3.9c-1.6 0-2.9 1.3-2.9 2.9v8.8h6.8c1.6 0 2.9-1.3 2.9-2.9v-5.8c-.1-1.7-1.3-3-2.9-3z"/><path id="XMLID_109_" class="st28" d="M179.5 161.2h-3.9c-1.6 0-2.9 1.3-2.9 2.9v1.3c0-1.6 1.3-2.9 2.9-2.9h3.9c1.6 0 2.9 1.3 2.9 2.9v-1.3c-.1-1.6-1.3-2.9-2.9-2.9z"/><g id="XMLID_86_"><path id="XMLID_107_" class="st20" d="M163.1 187.1c-5.2 3-11.8 1.2-14.8-4s-1.2-11.8 4-14.8 11.8-1.2 14.8 4 1.2 11.8-4 14.8z"/><path id="XMLID_104_" class="st29" d="M161.5 184.2c-3.6 2.1-8.2.8-10.2-2.7-2.1-3.6-.8-8.2 2.7-10.2 3.6-2.1 8.2-.8 10.2 2.7 2.1 3.6.9 8.2-2.7 10.2zm-6-10.4c-2.2 1.2-2.9 4-1.6 6.2 1.2 2.1 4 2.9 6.2 1.6 2.2-1.2 2.9-4 1.6-6.2-1.3-2.1-4.1-2.8-6.2-1.6z"/><path id="XMLID_101_" class="st30" d="M160.9 183.2c-3 1.7-6.9.7-8.6-2.3-1.7-3-.7-6.9 2.3-8.6 3-1.7 6.9-.7 8.6 2.3 1.7 3 .7 6.9-2.3 8.6zm-5.1-8.7c-1.8 1-2.4 3.4-1.4 5.2 1 1.8 3.4 2.4 5.2 1.4 1.8-1 2.4-3.4 1.4-5.2-1-1.9-3.4-2.5-5.2-1.4z"/><circle id="XMLID_100_" class="st28" cx="157.7" cy="177.7" r="4.8"/><circle id="XMLID_99_" class="st31" cx="157.7" cy="177.7" r="3.2"/><g id="XMLID_92_"><circle id="XMLID_98_" class="st21" cx="158.7" cy="179.4" r=".9"/><circle id="XMLID_97_" class="st21" cx="156.8" cy="176.1" r=".9"/><circle id="XMLID_96_" class="st21" cx="159.6" cy="177.7" r=".9"/><circle id="XMLID_95_" class="st21" cx="155.8" cy="177.7" r=".9"/><circle id="XMLID_94_" class="st21" cx="158.7" cy="176.1" r=".9"/><path id="XMLID_93_" class="st21" d="M156 179c.2-.4.8-.6 1.2-.3.4.2.5.8.3 1.2-.2.4-.8.5-1.2.3-.4-.3-.5-.8-.3-1.2z"/></g><g id="XMLID_87_"><path id="XMLID_91_" class="st16" d="M156.1 174.8c.8-.5 1.2-1.2 1.1-1.9-.6.1-1.3.3-1.9.6-.6.3-1.1.8-1.5 1.3.6.5 1.5.5 2.3 0z"/><path id="XMLID_90_" class="st16" d="M159.4 180.6c-.8.5-1.2 1.2-1.1 1.9.6-.1 1.3-.3 1.9-.6.6-.3 1.1-.8 1.5-1.3-.6-.4-1.5-.4-2.3 0z"/><path id="XMLID_89_" class="st16" d="M160.6 173.9c-.4.5-.4 1.4 0 2.2.5.8 1.2 1.2 1.9 1.1-.1-.6-.3-1.3-.6-1.9-.3-.6-.8-1.1-1.3-1.4z"/><path id="XMLID_88_" class="st16" d="M154.8 179.4c-.5-.8-1.2-1.2-1.9-1.1.1.6.3 1.3.6 1.9.3.6.8 1.1 1.3 1.5.5-.6.5-1.5 0-2.3z"/></g></g><g id="XMLID_84_" class="st32"><path id="XMLID_85_" class="st33" d="M172.7 172.7V164c0-1.6 1.3-2.9 2.9-2.9h2v-1.7h-2c-2.5 0-4.6 2.1-4.6 4.6V172.7h1.7z"/></g><g id="XMLID_81_"><circle id="XMLID_83_" class="st21" cx="175.1" cy="170.5" r=".9"/><circle id="XMLID_82_" class="st21" cx="175.1" cy="166.1" r=".9"/></g><path id="XMLID_80_" class="st17" d="M149.1 127.4h1.7v19.3h-1.7z"/><g id="XMLID_73_"><path id="XMLID_79_" class="st30" d="M112.9 166.4H98.8c-2.4 0-4.3 1.9-4.3 4.3v3.3c0 2.4 1.9 4.3 4.3 4.3H113c2.4 0 4.3-1.9 4.3-4.3v-3.3c0-2.3-2-4.3-4.4-4.3z"/><path id="XMLID_78_" class="st21" d="M112.9 166.4H98.8c-2.4 0-4.3 1.9-4.3 4.3v2.4c0-2.4 1.9-4.3 4.3-4.3H113c2.4 0 4.3 1.9 4.3 4.3v-2.4c0-2.3-2-4.3-4.4-4.3z"/><path id="XMLID_77_" class="st21" d="M98.8 178.5H113c2.4 0 4.3-1.9 4.3-4.3v-2.4c0 2.4-1.9 4.3-4.3 4.3H98.8c-2.4 0-4.3-1.9-4.3-4.3v2.4c-.1 2.4 1.9 4.3 4.3 4.3z"/><g id="XMLID_74_"><path id="XMLID_76_" class="st21" d="M99.5 166h2v12.9h-2z"/><path id="XMLID_75_" class="st21" d="M110.2 166h2v12.9h-2z"/></g></g><g id="XMLID_70_"><circle id="XMLID_72_" class="st17" cx="166.5" cy="160.6" r="2.3"/><circle id="XMLID_71_" class="st18" cx="166.5" cy="160.6" r="1.3"/></g><path id="XMLID_69_" class="st21" d="M160.9 150.2h2c1 0 1.7-.8 1.7-1.7 0-1-.8-1.7-1.7-1.7h-2v3.4z"/><path id="XMLID_66_" class="st23" d="M160.9 142.7c0-.3 0-.7-.1-1l-2.2-11.5c-.7-3.6-4-6.4-7.6-6.4h-10.3c-3.9 0-7.2 3.2-7.2 7.2v31.4c0 4 3.2 7.2 7.2 7.2h3.5l.6-1c2.7-4.6 7.8-7.5 13.3-7.5 1 0 2.1.1 3.1.3-.3 0-.3-18.6-.3-18.7zm-17.8 25l-2.5.1c-3 0-5.4-2.4-5.4-5.4V131c0-3 2.4-5.4 5.4-5.4H151c2.8 0 5.4 2.2 5.9 4.9L159 142c0 .3.1.5.1.7v16.5h-1.2c-6.1.1-11.8 3.3-14.8 8.5z"/><g id="XMLID_62_"><path id="XMLID_65_" class="st17" d="M139.2 152.8c0 .4-.3.7-.7.7H136c-.4 0-.7-.3-.7-.7v-4c0-.4.3-.7.7-.7h2.5c.4 0 .7.3.7.7v4z"/><path id="XMLID_64_" class="st21" d="M135.2 148.2h1.7v5.3h-1.7z"/><circle id="XMLID_63_" class="st17" cx="138.5" cy="155.5" r=".8"/></g><circle id="XMLID_61_" class="st21" cx="169.6" cy="151.3" r="1.3"/><g id="XMLID_38_"><path id="XMLID_59_" class="st20" d="M61.7 183.3c-3 5.2-9.6 7-14.8 4-5.2-3-7-9.6-4-14.8 3-5.2 9.6-7 14.8-4 5.2 3 7 9.6 4 14.8z"/><path id="XMLID_56_" class="st29" d="M56.1 184.4c-3.6 2.1-8.2.8-10.2-2.7-2.1-3.6-.8-8.2 2.7-10.2 3.6-2.1 8.2-.8 10.2 2.7 2.1 3.5.8 8.1-2.7 10.2zm-6-10.4c-2.2 1.2-2.9 4-1.6 6.2 1.2 2.1 4 2.9 6.2 1.6 2.1-1.2 2.9-4 1.6-6.2-1.3-2.1-4.1-2.8-6.2-1.6z"/><path id="XMLID_53_" class="st17" d="M57.8 181.1c-1.7 3-5.6 4-8.6 2.3-3-1.7-4-5.6-2.3-8.6 1.7-3 5.6-4 8.6-2.3 3 1.7 4 5.5 2.3 8.6zM49 176c-1 1.8-.4 4.1 1.4 5.2 1.8 1 4.1.4 5.2-1.4 1-1.8.4-4.1-1.4-5.2-1.8-1-4.1-.4-5.2 1.4z"/><circle id="XMLID_52_" class="st34" cx="52.3" cy="177.9" r="4.8"/><circle id="XMLID_51_" class="st31" cx="52.3" cy="177.9" r="3.2"/><g id="XMLID_44_"><circle id="XMLID_50_" class="st21" cx="54" cy="178.9" r=".9"/><circle id="XMLID_49_" class="st21" cx="50.7" cy="176.9" r=".9"/><path id="XMLID_48_" class="st21" d="M53.5 176.2c.4-.2.9-.1 1.2.3.2.4.1.9-.3 1.2-.4.2-.9.1-1.2-.3-.2-.4-.1-1 .3-1.2z"/><circle id="XMLID_47_" class="st21" cx="50.7" cy="178.9" r=".9"/><circle id="XMLID_46_" class="st21" cx="52.3" cy="176" r=".9"/><circle id="XMLID_45_" class="st21" cx="52.3" cy="179.8" r=".9"/></g><g id="XMLID_39_"><path id="XMLID_43_" class="st16" d="M49.4 176.2c.5-.8.4-1.7 0-2.2-.5.4-1 .9-1.3 1.5-.3.6-.5 1.2-.6 1.9.7.1 1.5-.4 1.9-1.2z"/><path id="XMLID_42_" class="st16" d="M55.2 179.6c-.5.8-.4 1.7 0 2.2.5-.4 1-.9 1.3-1.5.3-.6.5-1.2.6-1.9-.7 0-1.4.4-1.9 1.2z"/><path id="XMLID_41_" class="st16" d="M52.9 173.1c-.1.7.3 1.4 1.1 1.9s1.7.4 2.2 0c-.4-.5-.9-1-1.5-1.3-.6-.3-1.2-.5-1.8-.6z"/><path id="XMLID_40_" class="st16" d="M50.6 180.8c-.8-.5-1.7-.4-2.2 0 .4.5.9 1 1.5 1.3.6.3 1.2.5 1.9.6.1-.7-.4-1.4-1.2-1.9z"/></g></g><g id="XMLID_36_"><path id="XMLID_37_" class="st31" d="M163.1 149c-.2 0-.3-.1-.4-.2-.2-.2-.2-.6.1-.8l8.5-7.6c.2-.2.6-.2.8.1.2.2.2.6-.1.8l-8.5 7.6c-.1.1-.2.1-.4.1z"/></g><g id="XMLID_34_"><path id="XMLID_35_" class="st31" d="M169.6 151.9h-.1c-.3-.1-.5-.4-.5-.7l2.9-14.4c.1-.3.4-.5.7-.5.3.1.5.4.5.7l-2.9 14.4c-.1.3-.3.5-.6.5z"/></g><path id="XMLID_33_" class="st21" d="M171.4 133.7h-.1v4.6h.1c1 0 1.9-.8 1.9-1.9v-.8c0-1.1-.9-1.9-1.9-1.9z"/><path id="XMLID_32_" class="st17" d="M168.5 130.5h-.2v10.2h.2c1.6 0 2.9-1.3 2.9-2.9v-4.5c-.1-1.5-1.4-2.8-2.9-2.8z"/><circle id="XMLID_31_" class="st20" cx="123.1" cy="169.7" r="3.9"/><path id="XMLID_30_" class="st21" d="M75.9 162h2.3c.5-.3.8-.9.8-1.5h-3.8c-.1.6.2 1.2.7 1.5z"/></g></g></svg>