<svg id="Layer_1" xmlns="http://www.w3.org/2000/svg" viewBox="143 -117.5 343.5 290.5"><style>.st0{fill:#519E38;} .st1{fill:#FFFFFF;} .st2{fill:#E7DC00;} .st3{fill:#DBCB05;} .st4{fill:#F7E71E;} .st5{fill:#FFF35F;} .st6{fill:#0E3656;} .st7{fill:#446666;}</style><g id="shariki_2"><circle class="st0" cx="296.3" cy="101.6" r="2.1"/><circle class="st1" cx="295.1" cy="100.5" r="2.1"/><circle class="st0" cx="296.3" cy="112" r="2.1"/><circle class="st1" cx="295.1" cy="111" r="2.1"/><g><circle class="st0" cx="296.3" cy="128.5" r="2.1"/><circle class="st1" cx="295.1" cy="127.3" r="2.1"/></g><g><circle class="st0" cx="296.3" cy="93.3" r="2.1"/><circle class="st1" cx="295.1" cy="92.2" r="2.1"/></g></g><g id="shariki_1"><circle class="st0" cx="303" cy="-20.1" r="7"/><circle class="st1" cx="299.1" cy="-23.4" r="7"/><circle class="st0" cx="302.3" cy="-100.4" r="7"/><circle class="st1" cx="299.8" cy="-103.6" r="7"/><circle class="st0" cx="321.7" cy="-36.6" r="7"/><circle class="st1" cx="319" cy="-39.8" r="7"/><g><circle class="st0" cx="281.7" cy="-74.6" r="7"/><circle class="st1" cx="278.9" cy="-77" r="7"/></g><g><circle class="st0" cx="271.9" cy="-38.6" r="7"/><circle class="st1" cx="268.8" cy="-40.9" r="7"/></g><g><circle class="st0" cx="295.7" cy="-52.4" r="7"/><circle class="st1" cx="293.2" cy="-55" r="7"/></g></g><g id="voronka"><path class="st0" d="M245.9-17.4v6.5l48.7 56.8h16.1l48.7-56.8v-6.5zM294.7 45.9h16.1v34.3h-16.1z"/><path class="st2" d="M239.3-14.1l48.6 56.7h8.1v-56.7z"/><path class="st3" d="M352.7-14.1L304 42.6h-8.1v-56.7z"/><path class="st4" d="M239.3-20.6h113.5v6.5H239.3z"/><path class="st2" d="M288 40.3h16.1v39.9H288z"/><path class="st3" d="M296 40.3h8v39.9h-8z"/><path class="st5" d="M269.1 3.7c1.1 1.3.9 3.3-.5 4.3-1.3 1.1-3.3.9-4.3-.5l-8.9-11.1c-1.1-1.3-.9-3.3.5-4.3 1.3-1.1 3.3-.9 4.3.5l8.9 11.1z"/></g><g id="lupa"><path class="st6" d="M283.4 72.2c-22.8 6.7-35.8 30.7-29.1 53.5 6.7 22.8 30.7 35.8 53.5 29.1s35.8-30.7 29.1-53.5c-6.8-22.8-30.7-35.9-53.5-29.1zm43.1 32.1c2.4 8.3 1.5 17-2.6 24.6S313 142 304.7 144.4c-8.3 2.4-17 1.5-24.6-2.6-7.6-4.1-13.1-10.9-15.5-19.2-2.4-8.3-1.5-17 2.6-24.6s10.9-13.1 19.2-15.5 17-1.5 24.6 2.6c7.5 4.1 13.1 10.9 15.5 19.2z"/><path class="st7" d="M376.51 83.883l3.058 10.36-41.242 12.176-3.058-10.36z"/><path class="st6" d="M402.625 70.72l6.09 20.62-55.054 16.256-6.088-20.62z"/><path class="st1" d="M282.6 128.4c-.4 1.4-1.9 2.2-3.3 1.9-3-.8-5.4-2.7-7-5.4-1.5-2.7-1.9-5.8-1.1-8.8.4-1.4 1.9-2.2 3.3-1.9 1.4.4 2.2 1.9 1.9 3.3-.4 1.6-.2 3.3.6 4.7s2.2 2.5 3.7 2.9c1.4.4 2.3 1.9 1.9 3.3z"/></g></svg>