<svg xmlns="http://www.w3.org/2000/svg" viewBox="0 0 130 250"><style>.st0{fill:#519E38;} .st1{fill:#F4F4F4;} .st2{fill:#D6D6D6;} .st3{fill:#EAEAEA;} .st4{fill:#FFFFFF;} .st5{fill:#EC5439;} .st6{fill:#62BA47;} .st7{fill-rule:evenodd;clip-rule:evenodd;fill:#EC5439;} .st8{fill-rule:evenodd;clip-rule:evenodd;fill:#62BA47;} .st9{fill:#62BA46;}</style><g id="butylka_2"><path class="st0" d="M108.2 215.2v-99.6L93.6 67.2C97.5 45.5 87.1 39 87.1 39v-7.8h2.2V20c0-2.8-3.9-2.5-3.9-2.5H55.6s-3.9-.3-3.9 2.5v11.2H54V39h-.1s-10.4 6.5-6.5 28.2c0 0-14.6 13.4-14.6 48.4v99.6s-1.5 21.4 14.3 21.4H94c15.6 0 14.2-21.4 14.2-21.4z"/><path class="st1" d="M100.5 210.1v-99.6c0-35.1-14.6-48.4-14.6-48.4 3.9-21.7-6.5-28.2-6.5-28.2v-8h-33v8h-.1s-10.4 6.5-6.5 28.2c0 0-14.6 13.4-14.6 48.4v99.6s-1.5 21.4 14.3 21.4h46.8c15.7 0 14.2-21.4 14.2-21.4z"/><path class="st2" d="M77.8 12.4H47.9s-3.9-.3-3.9 2.5v11.2h37.5V14.9l-3.7-2.5z"/><path class="st3" d="M100.4 210.1v-99.6c0-35.1-14.6-48.4-14.6-48.4 3.9-21.7-6.5-28.2-6.5-28.2v-8H62.8v205.6H86.2c15.7 0 14.2-21.4 14.2-21.4z"/><path class="st4" d="M37.5 99H37c-2.3-.3-3.9-2.4-3.6-4.7 1.9-14.4 8.8-23.1 9.1-23.5 1.4-1.8 4.1-2.1 5.9-.6 1.8 1.4 2.1 4.1.6 5.8-.1.1-5.8 7.4-7.4 19.3-.3 2.2-2.1 3.7-4.1 3.7z"/><g><circle class="st5" cx="62.5" cy="149.8" r="19.7"/><circle class="st6" cx="46.7" cy="167.3" r="6.2"/><path class="st4" d="M42.6 166.3c.2-.6.7-.2.8.1.2.4 0 .9-.3 1.2-.2.3-.5.5-.8.7-.2.1-.3.2-.4.3 0 .1-.1.2 0 .2.2.2.7.2.9.2.5 0 1 0 1.4-.2.2-.1.5-.7 0-.5-.3.2-.7.1-1.1.1-.2 0-.6 0-.7-.1v.2c-.2.3-.1.2.1.1.1-.1.3-.2.4-.3.2-.2.4-.4.6-.7.4-.5.6-1 .5-1.6-.2-1.3-1.7-.4-2 .4-.1.5.5.1.6-.1zM46 168.5c.5 1.5 2.7.5 2.4-.9-.2-.7-.9-.6-1.5-.7-.3-.1-.3-.3-.3-.6.1-.3.1-.3-.1-.1.1 0 .2 0 .3-.1.5-.1 1-.1 1.4.1.2.1.7-.4.4-.5-.5-.3-1.2-.2-1.8-.1-.6.1-.7.6-.7 1.1 0 .6.6.7 1.1.8.4.1.7.2.7.6.1.7-.7.6-1 .4-.2-.1-.2-.3-.3-.5-.1-.1-.6.3-.6.5zM51.2 165.8c-.6 1.1-1.4 2-2.2 3-.3.4.2.4.4.1.8-1 1.6-2.1 2.3-3.2.3-.4-.3-.1-.5.1zM50.1 165.5c-.4 0-.7.4-.7.7-.1.3.1.6.5.6.7.1 1-1.2.2-1.3-.2 0-.5.4-.2.4.2 0 .3.2.3.3v.2c0 .1 0 0 0 0h-.1c-.2 0-.3-.2-.3-.3v-.2h.1c.1 0 .4-.4.2-.4zM51.2 167.8c-.4 0-.7.4-.7.7-.1.3.1.6.5.6.7.1 1-1.3.2-1.3-.2 0-.5.4-.2.4.2 0 .3.2.3.3v.2c0 .1 0 0 0 0h-.1c-.2 0-.3-.2-.3-.3v-.2h.1c.1 0 .4-.4.2-.4zM45.2 169.9c.3-.2.5-.6.5-1 0-.1 0-.3-.1-.3-.1-.1-.4 0-.5 0-.2.1-.3.3-.3.4 0 .2.2.1.3.1v.1c0 .1 0 .1-.1.2v.2c.1-.1 0 0 0 0-.1.1-.3.3-.1.4-.1.1.2 0 .3-.1z"/><path class="st7" d="M53.2 125.7c0 1.4-1.1 2.5-2.5 2.5s-2.5-1.1-2.5-2.5 1.1-2.5 2.5-2.5c1.3-.1 2.5 1.1 2.5 2.5z"/><path class="st8" d="M53.3 134.2c0 1.8-1.4 3.2-3.2 3.2-1.8 0-3.2-1.4-3.2-3.2 0-1.8 1.5-3.2 3.2-3.2 1.7-.1 3.2 1.4 3.2 3.2zM44.6 129.2c0 1.1-.9 1.9-1.9 1.9-1.1 0-1.9-.9-1.9-1.9 0-1.1.9-1.9 1.9-1.9 1-.1 1.9.8 1.9 1.9z"/><g><circle class="st6" cx="79.3" cy="131.8" r="10.9"/><path class="st4" d="M76.7 130.3c-.9.1-1.1 1.2-1.2 1.9v.3c0 .4 0 .6-.1 1 0 .1-.1.4-.1.4-.3 0-.6-.5-.7-.7-.2-.6-.4-1.1-.5-1.7-.1-.6-.2-1.3-.2-1.9v-.8-.3-.2c.1-.5-.6 0-.7.2-.7 1.3-.5 2.8-.5 4.1 0 .4 0 .7-.1 1.1 0 .3-.1.7-.3.9-.1.1-.4 0-.5 0-.2-.1-.3-.3-.3-.5s-.3-.1-.4 0c-.2.2-.3.4-.3.6.1.5.5.9 1 .8.8-.2 1.2-1.2 1.4-2 .1-.4.1-.7.2-1.1.1.5.3 1.1.5 1.6.2.4.5.7 1 .6.3-.1.6-.4.7-.8.2.4.4.6.8.6.5 0 .8-.5 1-.9.2-.4.3-.9.2-1.4.2-.6 0-1.9-.9-1.8zm.2 3.1c0 .1 0 .2-.1.3-.2 0-.3-.3-.4-.4-.1-.3-.2-.6-.2-1v-1c0-.1 0-.2.1-.3.5.3.5.9.6 1.3.1.4.1.8 0 1.1zM87.5 131.5c-1-.4-1.5 1-1.7 1.7-.2.7-.4 1.9.5 2.2.4.2.9-.1 1.1-.4.3-.3.5-.8.6-1.2.2-.7.3-1.9-.5-2.3zm-.6 3.2c0 .1-.1.2-.1.2-.1-.1-.2-.4-.2-.5-.1-.3 0-.7 0-1 .1-.3.2-.7.3-1 0-.1.1-.1.1-.2.4.4.3 1 .2 1.5-.1.3-.2.7-.3 1zM84.8 131.7c.2-.2.4-.5.5-.8.4-.5.7-1.2.7-1.8 0-.6-.9-.7-1.3-.5-.6.3-1 1-1.2 1.6-.2.8-.4 1.7-.4 2.5-.3.4-.9 1.1-1.4.8-.1-.1-.2-.2-.2-.4.4-.4.8-.9 1.1-1.3.3-.4.5-1.2-.1-1.5-.5-.3-1.1 0-1.4.4-.3.4-.5.9-.5 1.4 0 .3-.1.7 0 1.1-.3.2-.6.3-1 .2-.4-.1-.5-.5-.6-.8-.1-.4-.1-.9 0-1.4 0-.1.1-.3.1-.4v-.1c.2.1.3.4.4.6.1.3.9-.2.8-.5-.1-.3-.2-.6-.6-.8-.3-.2-.8.1-1 .3-.6.6-.7 1.5-.6 2.2 0 .5.1 1.1.6 1.4.6.4 1.4 0 2-.3.1.4.4.6.9.6.6-.1 1.1-.4 1.5-.8 0 .4.1.9.4 1.1.5.3 1.1 0 1.5-.5.4-.6.7-1.4.4-2 0-.2-.3-.3-.6-.3zm-3.3-.4c0-.1.1-.2.2-.4.2.1.3.4.2.5 0 .4-.3.7-.6 1v-.2c.1-.2.1-.5.2-.9zm3.2-1.8c.1-.1.1-.3.2-.4.4.4 0 1-.2 1.4-.2.4-.4.8-.7 1.1.1-.4.1-.7.2-1.1.2-.3.3-.6.5-1zm-.2 4.5s-.1.1-.1.2h-.1c-.2-.1-.3-.7-.3-.8v-.6l.3-.3c.2-.1.4.1.4.4.1.2-.1.7-.2 1.1z"/></g><g><path class="st4" d="M77.9 153.7c-.3-.1-.7.1-.9.3-.2-.4.1-1.4.2-1.9.3-1.5.3-2.6.1-3-.3-.4-.9-.2-1.2-.1-.2.1-.4.2-.5.4 0-.3-.1-.6-.3-.9-.2-.3-.7-.3-1-.2l-.6.3v-.4-.2l-.1-.1h-.2c-.2 0-.4.1-.6.2l-.3.3c-.2.3-.6.2-1 0-.3-.2-.4-.4-.6-.7-.1-.1-.2-.3-.4-.4-.5-.3-1-.2-1.5 0 0-.4 0-.7-.1-1.1 0-.3-.6-.1-.7-.1-.2.1-.5.3-.5.5 0 0-.5 1.8-1.5 3.1.1-1 .1-1.9.2-2.9 0-.2-.1-.2-.2-.2h-.4c-.3.1-.6.4-.7.7-.2 1.3-.4 4.1-1.1 4.1-.8 0-.4-3.3-.3-4.8 0-.2-.1-.2-.3-.2-.1 0-.2 0-.3.1-.3.1-.6.4-.7.7-.2.9-.4 1.9-.7 2.8-.2.5-.5 1.4-1.1 1.4-.6 0-.6-.7-.5-1.1.1-.5.5-.9.8-1.3.4-.5.5-.9.6-1.3.1-.6-.3-1.1-1-1.2-.7-.1-1.3.4-1.7.8-.1.1-.3.2-.5.3-.5.1-.9-.3-1-.4-.2-.1-.5-.3-.9-.2-1.4.5-1.7 2.1-1.6 3.4.1.9 0 1.5-.1 1.8-.4.1-.8-.6-1-.9-.4-.8-.5-1.6-.6-2.5-.1-1.2-.1-2.4-.2-3.6 0-.4-.5-.2-.7 0-.3.2-.6.7-.6 1 .1 1.5.2 3 .2 4.4 0 .7 0 1.5-.2 2.2-.1.3-.3.4-.5.3-.5-.1-.7-.7-.8-1.1-.2-.7-.3-1.4-.3-2.2 0-.7-.1-1.5-.1-2.2 0-.5 0-1-.3-1.4-.4-.7-1.6.5-2 .9-.6.7-.9 1.7-.9 2.5 0 .3.2.4.5.2s.6-.7.7-1c0-.3.1-1.1.5-1.3s0 0 .1.1.1.4.1.6c.2 1.4.2 2.9.4 4.3.2 1 .6 2.5 2 2.1.8-.2 1.3-1.1 1.5-1.7v-.1c.4.7.9 1.2 1.7 1 .6-.1.8-.7 1-1.2.2.5.6.8 1.2.7.7-.1 1.2-.8 1.4-1.3.3-.6.3-1.3.3-2 0-.3-.1-.7-.2-1.2.2 0 .3-.1.5-.2.3-.2.6-.6 1-.7.1 0 .3-.1.5 0 1 .5-.4 1.5-.9 2.4-.3.6-.6 1.6-.1 2.1.8.9 2.3.2 3-.6.2-.2.3-.4.5-.7 0 .7.2 1.6 1.2 1.5.5 0 .8-.2 1.2-.5-.4.7-.9 1.4-1.2 2.1-.3.6-.6 1.3-.6 2 0 .8.9 1.2 1.6.8.7-.3 1.1-1.1 1.3-1.8.3-1.2.3-2.5.3-3.8.6-.9 1.1-1.7 1.6-2.8 0 1.3-.1 2.6-.2 3.8-.1 1.4-.3 2.8-.5 4.2-.1.3.3.3.5.2.3-.1.6-.3.6-.6.2-1 .4-2.1.5-3.2.4.1.9-.1 1.3-.3.9-.6 1.2-1.7 1.3-2.7v-.5c.4.1.8 0 1.2-.1-.2 1.3-.4 2.7-.6 4-.1.6 1.1.1 1.2-.3.2-1.2.6-2.4 1.1-3.4 0-.1.1-.2.1-.3.2.7 0 1.5-.1 2.2-.1.3-.1.7-.2 1l-.3 1.2c-.1.6 1.1.1 1.2-.2.1-.4.2-.7.3-1.1.2-.9.6-1.8 1.1-2.5.1.4 0 .9 0 1.3-.1.6-.2 1.2-.3 1.7-.1.4-.2.9-.1 1.4.3 1 1.7.2 2.1-.1 0-.2.2-.5-.1-.6zm-21-2.2c0 .1-.1.3-.1.4-.3 0-.5-.4-.5-.6-.2-.4-.3-.9-.4-1.4-.1-.5-.1-1 0-1.5 0-.1.1-.3.1-.4.1 0 .2.1.3.2.3.4.6 1.4.6 1.7.1.6.1 1.1 0 1.6zm8 2.4c0 .5-.1 1.1-.2 1.6 0 .1-.1.3-.1.4 0 0-.2 0-.4-.2-.3-.3-.1-.8 0-1.1.2-.5.4-1 .7-1.5v.8zm4.6-2s-.1 0 0 0l-.1.1c-.4 0-.6-.5-.6-.9.1-.8.1-1.6.2-2.3 0-.2.1-.5.2-.7.2 0 .3.2.4.3.3.5.4 1.2.4 1.8-.1.5-.2 1.2-.5 1.7zM50.5 144.9c.8-.3 1.4-1 1.8-1.6.1-.2.5-.6.2-.8-.3-.1-.7.3-.8.4-.2.2-.4.6-.7.7-.4.1-.7.1-.9-.1-.4-.4-1.4.8-1.1 1.1.4.5.9.5 1.5.3z"/></g><g><path class="st9" d="M38.6 141.5c-.1 0-.2-.2-.3-.2-.4-.1-.7.1-1.1.1-.9 0-1.3 0-2.4-.3 0-1 .6-1.6.8-2.3.2-.7-.1-1.4-.1-2.2v-1.4c-.3.3-.2 1.2-.2 1.6-.1-.6-.1-1.3-.3-1.8-.1.6 0 1.3 0 1.8-.2-.5-.2-1.1-.4-1.6-.3.5.2 1.3.1 1.8-.2-.5-.3-1-.5-1.4-.1.6.2 1.1.2 1.6-.2-.4-.3-.8-.6-1.1 0 .4.3.9.4 1.3-.3-.1-.3-.5-.6-.6 0 .3.3.5.4.7-.2-.1-.3-.3-.5-.4 0 .3.3.4.3.6-.1-.1-.2-.2-.4-.3 0 .2.3.4.3.5 0 0-.2-.1-.2 0 0 0 .2.1.1.2h-.2c0 .2.2.1.1.3-.1 0-.1-.1-.1 0s.1.1.1.2c-.8.8-.4 1.7-.5 2.7.1-.1-.7-.3-1.2-.5-.3-.1-.4-.5-.6-.6 0-.1.1 0 .1-.1-.1 0-.2-.1-.2-.2.1 0 .3.1.3 0-.1-.1-.5-.2-.5-.3.2 0 .4.1.5.1-.2-.1-.6-.3-.6-.5.2.1.5.3.7.2-.3-.2-.8-.4-.9-.7.2.1.6.4.8.4-.4-.1-.7-.6-1.1-.6.2.4.8.6.9.8-.3-.2-.6-.3-.9-.5.1.4.6.5.9.7-.3 0-.5-.2-.8-.2.1.3.6.2.7.5-.1-.1-.3 0-.5 0 0 .2.4.2.5.3-.2 0-.3 0-.4.1.1.1.3.1.4.2-.1 0-.2 0-.2.1s.3 0 .3.1c-.1 0-.1.1-.1.1h.2c-.1 0-.1 0-.1.1.4.2.7.9 1.3 1.1-.3.2.3.4-3.5 1.8.1 0 1.7-.4 2.1-.5.5-.2.9-.3 1.4-.4.1 0 .2-.1.3-.1.8-.1 1.5.1 2.3-.4-.6.1-1.6.2-2-.1.5-.8.2-2.8.6-3.3.4-.4 1-1.7 1.8-.6.1.2.1.4-.1.9-.3.6-.6.8-.5 2.1 0 .2 0 .5-.4.5 1.6.3 2.1.2 3.1 0 .3 0 .8-.3.8 0 0 .1-.3.1-.6.1-.5 0 .2.2.4.2.1 0 1-.1 1.4-.2-.5-.4-.7-.4-1-.4z"/><path class="st9" d="M33.8 133c-3.8 0-6.8 3.1-6.8 6.8s3.1 6.8 6.8 6.8 6.8-3.1 6.8-6.8-3.1-6.8-6.8-6.8m0 .3c3.6 0 6.6 2.9 6.6 6.6 0 3.6-2.9 6.6-6.6 6.6-3.6 0-6.6-2.9-6.6-6.6 0-3.7 2.9-6.6 6.6-6.6"/></g></g></g></svg>