<svg id="Layer_1" xmlns="http://www.w3.org/2000/svg" viewBox="0 0 282 211.5"><style>.st0{fill:#9DD887;} .st1{fill:#F9E7B7;} .st2{fill:#FCF3E0;} .st3{fill:#FFFFFF;} .st4{fill:#EFEFEF;}</style><path id="XMLID_14_" class="st0" d="M232 171.3H50.7c-3.4 0-6.2-2.8-6.2-6.2V71.4c0-3.4 2.8-6.2 6.2-6.2H232c3.4 0 6.2 2.8 6.2 6.2v93.8c-.1 3.4-2.8 6.1-6.2 6.1z"/><path class="st1" d="M141 115.6l-29.7-5.1c-9.8-1.7-16.4-11.1-14.7-20.9 1.7-9.8 11.1-16.4 20.9-14.7l29.7 5.1c9.8 1.7 16.4 11.1 14.7 20.9-1.6 9.7-11.1 16.4-20.9 14.7zM109.5 156.1l-30.2.1c-10 0-18.1-8.1-18.1-18.1 0-10 8.1-18.1 18.1-18.1l30.2-.1c10 0 18.1 8.1 18.1 18.1 0 10-8.1 18.1-18.1 18.1zM207.6 140.2l-28.1 11.1c-9.3 3.7-19.8-.9-23.5-10.2-3.7-9.3.9-19.8 10.2-23.5l28.1-11.1c9.3-3.7 19.8.9 23.5 10.2 3.6 9.3-1 19.9-10.2 23.5z"/><path class="st2" d="M116.1 85l-6.3-1.1c-1.4-.2-2.4-1.6-2.2-3.1.2-1.4 1.6-2.4 3.1-2.2l6.3 1.1c1.4.2 2.4 1.6 2.2 3.1-.2 1.5-1.6 2.5-3.1 2.2zM79.7 130.4h-6.4c-1.5 0-2.7-1.2-2.7-2.7 0-1.5 1.2-2.7 2.7-2.7h6.4c1.5 0 2.7 1.2 2.7 2.7 0 1.4-1.2 2.6-2.7 2.7zM170.4 127.2l-5.9 2.4c-1.4.5-2.9-.1-3.5-1.5-.5-1.4.1-2.9 1.5-3.5l5.9-2.4c1.4-.5 2.9.1 3.5 1.5.5 1.4-.2 2.9-1.5 3.5z"/><path class="st3" d="M232.7 171.3H50.2c-3.3 0-5.9-2.7-5.9-5.9v-114c0-3.3 2.7-5.9 5.9-5.9h182.5c3.3 0 5.9 2.7 5.9 5.9v114c.1 3.3-2.6 5.9-5.9 5.9zM50.2 49.5c-1.1 0-1.9.9-1.9 1.9v114c0 1.1.9 1.9 1.9 1.9h182.5c1.1 0 1.9-.9 1.9-1.9v-114c0-1.1-.9-1.9-1.9-1.9H50.2z"/><path class="st4" d="M243.1 45.3c0 2.4-1.9 4.3-4.3 4.3H43.1c-2.4 0-4.3-1.9-4.3-4.3s1.9-4.3 4.3-4.3h195.7c2.4 0 4.3 2 4.3 4.3z"/><path class="st3" d="M66.7 98.2c-1.6 0-2.9-1.3-2.9-2.9s1.3-2.9 2.9-2.9 2.9 1.3 2.9 2.9-1.3 2.9-2.9 2.9zm0-4.9c-1 0-1.9.9-1.9 1.9s.9 1.9 1.9 1.9 1.9-.9 1.9-1.9-.9-1.9-1.9-1.9zM140.9 128.8c-1.6 0-2.9-1.3-2.9-2.9s1.3-2.9 2.9-2.9 2.9 1.3 2.9 2.9-1.3 2.9-2.9 2.9zm0-4.8c-1 0-1.9.9-1.9 1.9s.9 1.9 1.9 1.9 1.9-.9 1.9-1.9-.8-1.9-1.9-1.9zM222.8 103.8c-1.3 0-2.4-1.1-2.4-2.4s1.1-2.4 2.4-2.4c1.3 0 2.4 1.1 2.4 2.4s-1 2.4-2.4 2.4zm0-3.8c-.8 0-1.4.6-1.4 1.4 0 .8.6 1.4 1.4 1.4.8 0 1.4-.6 1.4-1.4 0-.8-.6-1.4-1.4-1.4zM220.9 76.9c-1.3 0-2.4-1.1-2.4-2.4s1.1-2.4 2.4-2.4c1.3 0 2.4 1.1 2.4 2.4s-1.1 2.4-2.4 2.4zm0-3.8c-.8 0-1.4.6-1.4 1.4 0 .8.6 1.4 1.4 1.4.8 0 1.4-.6 1.4-1.4 0-.8-.6-1.4-1.4-1.4zM222.7 84.3c-1.3 0-2.4-1.1-2.4-2.4s1.1-2.4 2.4-2.4 2.4 1.1 2.4 2.4-1 2.4-2.4 2.4zm0-3.9c-.8 0-1.4.6-1.4 1.4s.6 1.4 1.4 1.4 1.4-.6 1.4-1.4-.6-1.4-1.4-1.4zM150.2 145c-1.3 0-2.4-1.1-2.4-2.4s1.1-2.4 2.4-2.4c1.3 0 2.4 1.1 2.4 2.4s-1.1 2.4-2.4 2.4zm0-3.9c-.8 0-1.4.6-1.4 1.4 0 .8.6 1.4 1.4 1.4.8 0 1.4-.6 1.4-1.4 0-.8-.7-1.4-1.4-1.4zM72.6 110.8c-1.3 0-2.4-1.1-2.4-2.4s1.1-2.4 2.4-2.4c1.3 0 2.4 1.1 2.4 2.4s-1.1 2.4-2.4 2.4zm0-3.8c-.8 0-1.4.6-1.4 1.4 0 .8.6 1.4 1.4 1.4.8 0 1.4-.6 1.4-1.4 0-.8-.6-1.4-1.4-1.4zM63.3 160.5c-1.3 0-2.4-1.1-2.4-2.4s1.1-2.4 2.4-2.4c1.3 0 2.4 1.1 2.4 2.4s-1.1 2.4-2.4 2.4zm0-3.8c-.8 0-1.4.6-1.4 1.4s.6 1.4 1.4 1.4c.8 0 1.4-.6 1.4-1.4s-.7-1.4-1.4-1.4zM97.1 74c-1.3 0-2.4-1.1-2.4-2.4s1.1-2.4 2.4-2.4c1.3 0 2.4 1.1 2.4 2.4s-1 2.4-2.4 2.4zm0-3.9c-.8 0-1.4.6-1.4 1.4 0 .8.6 1.4 1.4 1.4.8 0 1.4-.6 1.4-1.4 0-.7-.6-1.4-1.4-1.4zM208.8 158.6c-1.3 0-2.4-1.1-2.4-2.4s1.1-2.4 2.4-2.4c1.3 0 2.4 1.1 2.4 2.4s-1.1 2.4-2.4 2.4zm0-3.8c-.8 0-1.4.6-1.4 1.4s.6 1.4 1.4 1.4c.8 0 1.4-.6 1.4-1.4s-.6-1.4-1.4-1.4zM64.3 109.8c-2.5 0-4.4-2-4.4-4.4s2-4.4 4.4-4.4c2.5 0 4.4 2 4.4 4.4s-2 4.4-4.4 4.4zm0-7.9c-1.9 0-3.4 1.5-3.4 3.4s1.5 3.4 3.4 3.4 3.4-1.5 3.4-3.4-1.5-3.4-3.4-3.4zM216.6 93.5c-2.5 0-4.4-2-4.4-4.4s2-4.4 4.4-4.4c2.5 0 4.4 2 4.4 4.4s-1.9 4.4-4.4 4.4zm0-7.9c-1.9 0-3.4 1.5-3.4 3.4s1.5 3.4 3.4 3.4 3.4-1.5 3.4-3.4-1.5-3.4-3.4-3.4zM58.7 77.1c-1.4 0-2.6-1.2-2.6-2.6V59.6c0-1.4 1.2-2.6 2.6-2.6 1.4 0 2.6 1.2 2.6 2.6v14.9c0 1.4-1.1 2.6-2.6 2.6z"/></svg>