<svg id="Layer_1" xmlns="http://www.w3.org/2000/svg" viewBox="0 0 282 240"><style>.st0{fill:#543222;} .st1{fill:#F9DB6C;} .st2{fill:#FCE9AC;} .st3{fill:#895837;} .st4{fill:#B27D59;}</style><path class="st0" d="M35.3 12.4h213.4v196.8H35.3z"/><path class="st1" d="M90.5 62.1l-24.4.1c-8.1 0-14.7-6.6-14.7-14.6 0-8.1 6.6-14.7 14.6-14.7l24.4-.1c8.1 0 14.7 6.6 14.7 14.6 0 8.1-6.5 14.7-14.6 14.7z"/><path class="st2" d="M67.3 44.6h-4.7c-1.2 0-2.2-1-2.2-2.2 0-1.2 1-2.2 2.2-2.2h4.7c1.2 0 2.2 1 2.2 2.2-.1 1.2-1.1 2.2-2.2 2.2z"/><path class="st1" d="M151.6 62.1l-24.4.1c-8.1 0-14.7-6.6-14.7-14.6 0-8.1 6.6-14.7 14.6-14.7l24.4-.1c8.1 0 14.7 6.6 14.7 14.6 0 8.1-6.6 14.7-14.6 14.7z"/><path class="st2" d="M128.1 44.6h-4.7c-1.2 0-2.2-1-2.2-2.2 0-1.2 1-2.2 2.2-2.2h4.7c1.2 0 2.2 1 2.2 2.2 0 1.2-1 2.2-2.2 2.2z"/><path class="st1" d="M214.1 62.1l-24.4.1c-8.1 0-14.7-6.6-14.7-14.6 0-8.1 6.6-14.7 14.6-14.7l24.4-.1c8.1 0 14.7 6.6 14.7 14.6.1 8.1-6.5 14.7-14.6 14.7z"/><path class="st2" d="M191.4 44.6h-4.7c-1.2 0-2.2-1-2.2-2.2 0-1.2 1-2.2 2.2-2.2h4.7c1.2 0 2.2 1 2.2 2.2-.1 1.2-1.1 2.2-2.2 2.2z"/><path class="st3" d="M31.2 12.4h217.4v4.9H31.2zM31.2 62.4h217.4v4.9H31.2z"/><path class="st3" d="M30.4 12.4h4.9V214h-4.9zM246.2 12.4h4.9V214h-4.9z"/><path class="st1" d="M90.5 108H66.1c-8.1 0-14.7-6.6-14.7-14.6 0-8.1 6.6-14.7 14.6-14.7l24.4-.1c8.1 0 14.7 6.6 14.7 14.6 0 8.2-6.5 14.8-14.6 14.8z"/><path class="st2" d="M67.3 90.4h-4.7c-1.2 0-2.2-1-2.2-2.2 0-1.2 1-2.2 2.2-2.2h4.7c1.2 0 2.2 1 2.2 2.2-.1 1.3-1 2.2-2.2 2.2z"/><path class="st1" d="M151.6 108l-24.4.1c-8.1 0-14.7-6.6-14.7-14.6 0-8.1 6.6-14.7 14.6-14.7l24.4-.1c8.1 0 14.7 6.6 14.7 14.6 0 8.1-6.6 14.7-14.6 14.7z"/><path class="st2" d="M128.1 90.4h-4.7c-1.2 0-2.2-1-2.2-2.2 0-1.2 1-2.2 2.2-2.2h4.7c1.2 0 2.2 1 2.2 2.2 0 1.3-1 2.2-2.2 2.2z"/><path class="st1" d="M214.1 108l-24.4.1c-8.1 0-14.7-6.6-14.7-14.6 0-8.1 6.6-14.7 14.6-14.7l24.4-.1c8.1 0 14.7 6.6 14.7 14.6.1 8.1-6.5 14.7-14.6 14.7z"/><path class="st2" d="M191.4 90.5h-4.7c-1.2 0-2.2-1-2.2-2.2 0-1.2 1-2.2 2.2-2.2h4.7c1.2 0 2.2 1 2.2 2.2-.1 1.2-1 2.1-2.2 2.2z"/><path class="st3" d="M31.2 108.3h217.4v4.9H31.2z"/><path class="st1" d="M90.5 159.2l-24.4.1c-8.1 0-14.7-6.6-14.7-14.6 0-8.1 6.6-14.7 14.6-14.7l24.4-.1c8.1 0 14.7 6.6 14.7 14.6 0 8.1-6.5 14.7-14.6 14.7z"/><path class="st2" d="M67.3 141.7h-4.7c-1.2 0-2.2-1-2.2-2.2 0-1.2 1-2.2 2.2-2.2h4.7c1.2 0 2.2 1 2.2 2.2-.1 1.2-1 2.2-2.2 2.2z"/><path class="st1" d="M151.6 159.2l-24.4.1c-8.1 0-14.7-6.6-14.7-14.6 0-8.1 6.6-14.7 14.6-14.7l24.4-.1c8.1 0 14.7 6.6 14.7 14.6 0 8.1-6.6 14.7-14.6 14.7z"/><path class="st2" d="M128.1 141.7h-4.7c-1.2 0-2.2-1-2.2-2.2 0-1.2 1-2.2 2.2-2.2h4.7c1.2 0 2.2 1 2.2 2.2 0 1.2-1 2.2-2.2 2.2z"/><path class="st1" d="M214.1 159.2l-24.4.1c-8.1 0-14.7-6.6-14.7-14.6 0-8.1 6.6-14.7 14.6-14.7l24.4-.1c8.1 0 14.7 6.6 14.7 14.6.1 8.1-6.5 14.7-14.6 14.7z"/><path class="st2" d="M191.4 141.7h-4.7c-1.2 0-2.2-1-2.2-2.2 0-1.2 1-2.2 2.2-2.2h4.7c1.2 0 2.2 1 2.2 2.2-.1 1.2-1 2.2-2.2 2.2z"/><path class="st3" d="M31.2 159.5h217.4v4.9H31.2z"/><path class="st1" d="M90.5 208.8l-24.4.1c-8.1 0-14.7-6.6-14.7-14.6 0-8.1 6.6-14.7 14.6-14.7l24.4-.1c8.1 0 14.7 6.6 14.7 14.6 0 8.1-6.5 14.7-14.6 14.7z"/><path class="st2" d="M67.3 191.3h-4.7c-1.2 0-2.2-1-2.2-2.2 0-1.2 1-2.2 2.2-2.2h4.7c1.2 0 2.2 1 2.2 2.2-.1 1.2-1 2.2-2.2 2.2z"/><path class="st1" d="M151.6 208.8l-24.4.1c-8.1 0-14.7-6.6-14.7-14.6 0-8.1 6.6-14.7 14.6-14.7l24.4-.1c8.1 0 14.7 6.6 14.7 14.6 0 8.1-6.6 14.7-14.6 14.7z"/><path class="st2" d="M128.1 191.3h-4.7c-1.2 0-2.2-1-2.2-2.2 0-1.2 1-2.2 2.2-2.2h4.7c1.2 0 2.2 1 2.2 2.2 0 1.2-1 2.2-2.2 2.2z"/><path class="st1" d="M214.1 208.8l-24.4.1c-8.1 0-14.7-6.6-14.7-14.6 0-8.1 6.6-14.7 14.6-14.7l24.4-.1c8.1 0 14.7 6.6 14.7 14.6.1 8.1-6.5 14.7-14.6 14.7z"/><path class="st2" d="M191.4 191.3h-4.7c-1.2 0-2.2-1-2.2-2.2 0-1.2 1-2.2 2.2-2.2h4.7c1.2 0 2.2 1 2.2 2.2-.1 1.2-1 2.2-2.2 2.2z"/><path class="st3" d="M35.3 208.9h210.9v17.7H35.3z"/><path class="st4" d="M40 216.9h35v1.6H40zM51 220.9h35v1.6H51zM73.7 213.2h35v1.6h-35zM207.2 213.2h35v1.6h-35zM96.1 216.9H110v1.6H96.1zM204.2 216.9h13.9v1.6h-13.9zM228.7 220.1h13.9v1.6h-13.9zM114 220.9h35v1.6h-35zM126 217.7h69.1v1.6H126z"/></svg>