<svg id="Layer_1" xmlns="http://www.w3.org/2000/svg" viewBox="0 0 282 211.5"><style>.st0{fill:#519E38;} .st1{fill:#F9E7B7;} .st2{fill:#FCF3E0;}</style><path class="st0" d="M191.2 158.3H98.3c-22.8 0-41.5-18.7-41.5-41.5v-12.9c0-22.8 18.7-41.5 41.5-41.5h92.9c22.8 0 41.5 18.7 41.5 41.5v12.9c.1 22.8-18.6 41.5-41.5 41.5z"/><path class="st1" d="M184 149.3H91.1c-22.8 0-41.5-18.7-41.5-41.5V94.9c0-22.8 18.7-41.5 41.5-41.5H184c22.8 0 41.5 18.7 41.5 41.5v12.9c.1 22.9-18.6 41.5-41.5 41.5z"/><path class="st2" d="M98.7 80.8H81.8c-3.9 0-7.1-3.2-7.1-7.1 0-3.9 3.2-7.1 7.1-7.1h16.9c3.9 0 7.1 3.2 7.1 7.1 0 3.9-3.2 7.1-7.1 7.1z"/></svg>