<svg id="butylka_2" xmlns="http://www.w3.org/2000/svg" viewBox="0 0 130 250"><style>.st0{fill:#519E38;} .st1{fill:#EDD096;} .st2{fill:#D6B780;} .st3{fill:#F4E3C3;} .st4{fill:#AA4A47;} .st5{fill:#62BA47;} .st6{fill-rule:evenodd;clip-rule:evenodd;fill:#AA4A47;} .st7{fill-rule:evenodd;clip-rule:evenodd;fill:#62BA47;} .st8{fill:#FFFFFF;} .st9{fill:#63B746;}</style><path class="st0" d="M106.1 207.5v-94.2c0-33.2-13.8-45.8-13.8-45.8C96 47 86.1 40.8 86.1 40.8v-7.4h2.1V22.8l-3.7-2.3H56.3s-3.7-.3-3.7 2.3v10.6h2.2v7.4h-.1s-9.8 6.2-6.2 26.7c0 0-13.8 12.7-13.8 45.8v94.2s-1.4 20.3 13.5 20.3h44.4c14.9 0 13.5-20.3 13.5-20.3z"/><path class="st1" d="M98.2 202.7v-94.2c0-33.2-13.8-45.8-13.8-45.8C88.1 42.2 78.2 36 78.2 36v-7.6H47V36h-.1s-9.8 6.2-6.2 26.7c0 0-13.8 12.7-13.8 45.8v94.2S25.5 223 40.4 223H84.5c15.1 0 13.7-20.3 13.7-20.3z"/><path class="st2" d="M98.1 202.7v-94.2c0-33.2-13.8-45.8-13.8-45.8C88 42.2 78.1 36 78.1 36v-7.6H62.5V223h22.1c15 0 13.5-20.3 13.5-20.3z"/><path class="st3" d="M38.5 97.6H38c-2.2-.3-3.7-2.3-3.4-4.4C36.4 79.6 43 71.3 43.2 71c1.4-1.7 3.8-2 5.5-.6 1.7 1.4 2 3.8.6 5.5-.1.1-5.5 7-7 18.3-.1 1.9-1.8 3.4-3.8 3.4z"/><circle class="st4" cx="64.6" cy="132.3" r="18.9"/><path class="st5" d="M55.4 149.1c0-3.3-2.7-5.9-5.9-5.9-3.3 0-5.9 2.7-5.9 5.9 0 3.3 2.7 5.9 5.9 5.9 3.3 0 5.9-2.7 5.9-5.9z"/><path class="st6" d="M55.6 109.2c0 1.3-1.1 2.4-2.4 2.4-1.3 0-2.4-1.1-2.4-2.4 0-1.3 1.1-2.4 2.4-2.4 1.4-.1 2.4 1 2.4 2.4z"/><path class="st7" d="M55.7 117.3c0 1.7-1.4 3.1-3.1 3.1-1.7 0-3.1-1.4-3.1-3.1 0-1.7 1.4-3.1 3.1-3.1 1.8 0 3.1 1.4 3.1 3.1zM47.4 112.5c0 1-.8 1.8-1.8 1.8s-1.9-.8-1.9-1.8.8-1.9 1.9-1.9c1 .1 1.8.9 1.8 1.9z"/><path class="st5" d="M91.2 115c0 5.8-4.7 10.4-10.4 10.4-5.8 0-10.4-4.7-10.4-10.4 0-5.8 4.7-10.4 10.4-10.4s10.4 4.7 10.4 10.4z"/><path class="st8" d="M78.1 113.6c-.9.1-1.1 1.1-1.1 1.8v.3c0 .3 0 .6-.1.9 0 .1-.1.4-.1.4-.3 0-.6-.4-.6-.7-.2-.5-.4-1.1-.5-1.6-.1-.6-.2-1.2-.2-1.8v-.8-.3-.2c.1-.5-.6 0-.7.2-.7 1.2-.5 2.6-.5 4 0 .4 0 .7-.1 1.1 0 .2-.1.7-.3.9-.1.1-.4 0-.5 0-.2-.1-.3-.3-.3-.5s-.2-.1-.4 0c-.1.2-.3.4-.3.6.1.5.5.9 1 .7.8-.2 1.1-1.2 1.3-1.9.1-.4.1-.7.2-1.1.1.5.3 1 .5 1.5.2.3.5.7.9.6.3-.1.6-.4.7-.8.1.3.4.6.8.6s.8-.5.9-.8c.2-.4.2-.9.2-1.3.3-.6.1-1.9-.8-1.8zm.3 3c0 .1 0 .2-.1.3-.2 0-.3-.3-.3-.4-.1-.3-.2-.6-.2-.9v-1c0-.1 0-.2.1-.2.4.3.5.8.6 1.3 0 .2 0 .5-.1.9zM88.5 114.8c-.9-.3-1.5.9-1.6 1.6-.2.7-.4 1.8.5 2.1.4.2.9-.1 1.1-.4.3-.3.5-.7.6-1.2.1-.6.2-1.8-.6-2.1zm-.6 3c0 .1-.1.1-.1.2-.1-.1-.2-.4-.2-.5v-1l.3-.9c0-.1.1-.1.1-.2.4.4.3 1 .2 1.5 0 .3-.1.6-.3.9zM86 114.9c.2-.2.3-.5.5-.7.3-.5.7-1.1.6-1.8 0-.6-.8-.6-1.3-.4-.6.3-.9.9-1.1 1.5-.2.8-.4 1.6-.4 2.4-.3.4-.9 1.1-1.4.8-.1-.1-.2-.2-.2-.4.4-.4.7-.8 1-1.3.3-.4.5-1.1-.1-1.4-.4-.3-1 0-1.3.4-.3.4-.4.8-.5 1.3 0 .3-.1.7 0 1.1-.3.2-.6.3-.9.2-.4-.1-.5-.4-.6-.7-.1-.4-.1-.9 0-1.3 0-.1.1-.3.1-.4v-.1c.2.1.3.4.4.6.1.3.9-.2.8-.5-.1-.3-.2-.6-.6-.8-.3-.2-.8.1-1 .3-.6.6-.6 1.4-.6 2.1 0 .5.1 1.1.5 1.3.6.3 1.3 0 1.9-.3.1.4.4.6.9.5.6-.1 1.1-.4 1.5-.8 0 .4.1.9.4 1.1.5.3 1.1 0 1.4-.5.4-.5.7-1.3.4-2 .1 0-.2-.1-.4-.2zm-3.2-.3c0-.1.1-.2.1-.3.2.1.3.4.2.5 0 .4-.3.7-.5 1v-.2c.1-.3.1-.7.2-1zm3-1.7c.1-.1.1-.2.2-.3.4.4 0 1-.2 1.3-.2.4-.4.7-.7 1.1 0-.4.1-.7.2-1.1.2-.4.4-.7.5-1zm-.2 4.2s-.1.1-.1.2h-.1c-.2-.1-.2-.6-.3-.8v-.5l.3-.3c.2-.1.3.1.4.3.1.3 0 .8-.2 1.1z"/><g><path class="st8" d="M45.4 148.1c.1-.3.5-.4.7-.2.3.2-.1.6-.3.7-.2.2-.5.4-.4.7.1.2.6.2.7.2.3 0 .4.2.3.5-.1.5-.8.2-1 0-.2-.2-.6.3-.5.5.6.6 1.5.2 1.9-.5.2-.3.2-.7 0-.9-.2-.2-.6-.2-.9-.2-.1 0-.1 0-.1.1.1-.1.2-.2.4-.3.2-.1.3-.3.4-.4.2-.3.2-.7-.1-.9-.6-.4-1.4.4-1.6.9-.1.3.4 0 .5-.2zM48.6 150.2c.5 1.5 2.7.4 2.3-.9-.2-.6-.9-.6-1.4-.7-.3-.1-.3-.3-.3-.6.1-.3.1-.3-.1-.1.1 0 .2-.1.2-.1.4-.1.9-.1 1.3.1.2.1.6-.4.4-.5-.5-.3-1.2-.2-1.7-.1s-.7.6-.7 1.1c0 .6.6.7 1 .8.4.1.7.2.7.6.1.7-.6.6-1 .4-.2-.1-.2-.3-.3-.5 0-.1-.5.3-.4.5zM53.6 147.6c-.6 1-1.4 2-2.1 2.9-.3.4.2.4.4.1.8-1 1.6-2 2.2-3.1.3-.4-.4-.1-.5.1zM52.5 147.3c-.4 0-.7.4-.7.7-.1.3.1.6.5.6.6.1 1-1.2.2-1.3-.2 0-.5.4-.2.4.2 0 .3.2.3.3v.2c0 .1 0 0 0 0h-.1c-.2 0-.3-.2-.3-.3v-.2h.1c.1 0 .4-.4.2-.4zM53.5 149.5c-.4 0-.7.4-.7.7-.1.3.1.6.5.6.7.1 1.1-1.3.2-1.3-.2 0-.5.4-.2.4.2 0 .3.2.3.3v.2c0 .1 0 0 0 0h-.1c-.2 0-.3-.2-.3-.3v-.2h.1c.2 0 .5-.4.2-.4zM47.5 151.5c.3-.2.4-.6.5-.9 0-.1 0-.2-.1-.3-.1-.1-.4 0-.5 0-.1.1-.3.3-.3.4 0 .2.2.1.3.1v.1c0 .1 0 .1-.1.2v.1c.1-.1 0 0 0 0-.1.1-.2.3-.1.4 0 .2.2 0 .3-.1z"/></g><g><path class="st8" d="M75.5 136.5s-.1 0-.1-.1h-.1c-1.4-.4-2.2 1.2-2.5 2-.1.2-.1.4-.2.6-.1.2-.3.5-.5.7-.1.1 0 .1-.1 0-.3-.1-.1-.5-.1-.7 0-.4.1-.8-.1-1.2-.2-.3-.5-.4-.8-.4 0-.1 0-.1.1-.2 0-.1.1-.1.1-.2.2-.3.4-.6.7-.8.1 0 .3.2.3.3.3.3 1.5-.2 1.2-.5-.4-.5-.9-.6-1.4-.5-.3.1-.6.2-.9.4l-.1.1c.1-.5.1-1.1.1-1.6 0-.1-.1-.2-.3-.2h-.1c-.3 0-.6.2-.8.4-.2.3-.4.6-.8.4-.2-.1-.3-.1-.5-.3l-.1-.1c-.1-.1-.2-.1-.3-.1h-.1-.1c-1.4 0-1.8 1.7-1.9 2.6v.1c-.1.3-.2.7-.4 1-.1.1-.1.3-.2.4-.1 0-.1 0-.2.1-.1-.1-.1-.2-.2-.3-.1-.3-.2-.7-.3-1-.2-.9-.2-1.9-.2-2.8 0-.2-.2-.2-.4-.2-.3.1-.6.3-.7.6-.4.9-.5 1.8-.5 2.7v1.1c-.2 0-.4-.2-.4-.4 0-.3-.4-.2-.7.1.1-.5.1-1 .1-1.5 0-.7-.3-2.4-1.4-2.4h-.1-.1c-1.4.3-1.4 2.1-1.2 2.9 0 .1 0 .2.1.3v1.3h-.1c-.1 0-.2-.1-.3-.2-.2-.3-.4-.7-.5-1.1-.2-.7-.5-1.5-.4-2.3 0-.2-.1-.3-.3-.2-.3.1-.6.4-.6.7v.1c-.1.5-.1.9-.2 1.4-.3-.5-.6-1.1-.5-1.7 0-.2-.1-.3-.3-.2-.2.1-.5.3-.5.5-.3.9 0 1.9.1 2.7.1.4.2.9.1 1.3h-.1c-.3-.1-.4-.5-.6-.7-.1-.2-.5.2-.5.2-.1.2-.2.5-.1.7.3.6.9 1.2 1.6.6.4-.4.5-1 .5-1.5.2.3.3.7.5 1.1.2.5.9-.4.8-.8-.1-.2-.1-.4-.1-.7.4.9.9 1.4 1.7.8.2-.2.4-.4.4-.6.2.4.6.7 1 .6.4 0 .8-.5 1-.9.1.4.3.6.7.6.5 0 1-.4 1.2-.8.1-.2.2-.4.2-.6 0 .1 0 .2.1.3.1.3.2.7.4.9.3.2.7 0 .9-.2l.2-.2c.2-.2.3-.4.5-.6.1.6.3 1.1.9 1.2.5.1 1.1-.4 1.4-.8.3-.5.5-1.1.6-1.6.1-.3.1-.8.1-1.3l.9-.3c0 1.4-.5 2.8-.7 4.2-.1.3.2.3.4.2.2-.1.5-.3.6-.5.1-.4.3-.9.5-1.3.5.3-.1 1.7.3 2 .3.3.8.2 1.2.1.1-.1.3-.1.4-.2 0 .4.2.8.6.9.5.2 1.2-.2 1.5-.5.4-.4.8-.9 1-1.4.1-.4.7-1.9-.3-2.5zm-14.6 2.8zm.2-.5c0 .1 0 .2-.1.3-.2 0-.4-.3-.5-.5-.2-.4-.3-.8-.4-1.2-.1-.4-.1-.9-.1-1.3 0-.1 0-.2.1-.3.6.1.8 1.3.9 1.7.1.4.1.9.1 1.3zm6.3.3c0 .1-.1.1 0 0zm.2-.4c0 .1-.1.2-.1.3-.2-.1-.3-.4-.4-.6-.1-.4-.1-.8-.1-1.2 0-.4.1-.9.2-1.3 0-.1.1-.2.1-.3h.1l.1.1c.3.4.3 1.4.3 1.7 0 .5-.1.9-.2 1.3zm6.1 1.9zm.4-.4c-.1.1-.1.2-.2.3-.2-.1-.2-.5-.2-.7 0-.4.1-.8.2-1.2.1-.4.3-.8.5-1.2.1-.1.1-.2.2-.3.5.3.1 1.5 0 1.9-.1.5-.3.9-.5 1.2zM57.5 127.4h-.1-.1c-1.2.4-1.1 2.1-1 3v1.5c0 .1 0 .1-.1.2-.4.1-.6-1.2-.7-1.4-.2-.9-.4-1.7-.7-2.6-.2-.6-.4-1.4-1-1.8-.4-.4-1-.1-1.3.3-.2.2-.3.5-.4.7-.3-.4-.8-.7-1.4-.3-.3.2-.4.4-.6.6-.1-.2-.2-.4-.4-.6-.4-.3-1.1.8-.8 1 .2.1.3.5.4.7l.6 1.5c.1.3.2.5.3.8.3 1.1.8 2.2 1.2 3.3 0 .1.1.1.2.1.3 0 .6-.7.5-1-.3-1-.7-1.9-1-2.9-.1-.4-.2-.8-.3-1.3-.1-.4-.2-.9-.2-1.4v-.2c.7-.2 1.1 1.3 1.3 1.6.2.6.4 1.1.6 1.7.3.8.5 1.7.8 2.5 0 .1.1.1.2.1.2 0 .6-.6.5-.9-.3-.9-.5-1.8-.8-2.7 0-.1-.1-.3-.1-.4-.2-.7-.4-1.5-.3-2.3v-.4h.1c.3.1.4.4.5.6.2.4.3.7.5 1.1.3.8.5 1.7.7 2.5.1.5.3 1.2.7 1.6.5.4 1.1-.4 1.2-.8 0-.1.1-.1.1-.2.2.4.6.7 1 .6.5-.1.9-.7 1-1.2.2-.6.2-1.2.1-1.8.2-.2-.2-1.8-1.2-1.8zm.6 4.4zm.1-.5v.3c-.2 0-.4-.3-.5-.5-.2-.4-.3-.8-.4-1.2 0-.1 0-.2-.1-.3v-.1c0-.3-.1-.6-.1-.9v-.3c.5.1.8 1.3.9 1.6.1.6.2 1 .2 1.4zM75.2 128.2h-.1-.1c-1.3-.2-1.9 1.4-2.2 2.2 0 .2-.1.4-.1.6-.1.3-.2.6-.4.8h-.2s-.1-.7-.1-.9c.1-.8.2-1.7.5-2.4l.3-.6c.1-.2 0-.4-.3-.4s-.6.2-.7.4l-.3.6c-.1.3-.3.5-.5.8-.2.2-.3.2-.6.4l.3-2.4c.1-.5-1.1 0-1.1.3 0 .5-.1 1-.1 1.5-.1.6-.4 1.2-.8 1.5-.2.2-.7.4-1 .3-.3-.1-.4-.3-.5-.6l.8-.8c.5-.6 1.3-1.6.8-2.4-.3-.5-1-.5-1.5-.2-.6.4-.9 1-1 1.7-.1.6-.2 1.2-.1 1.9-.2.1-.4.3-.5.3h-.1c-.1-.1-.1-.2-.2-.2-.1-.3-.2-.6-.2-1-.1-1-.1-1.9-.1-2.9 0-.2-.2-.2-.3-.2-.3.1-.5.3-.6.6-.3.7-.4 1.4-.5 2.1 0 .4-.1.8-.1 1.2-.1-.2-.5.1-.7.4-.1-.1-.1-.1-.1-.2-.2-.5-.2-1-.2-1.5s0-1-.1-1.4c-.1-.3-.2-.8-.5-.9-.7-.3-1.3.4-1.5 1-.1-.3-.1-.5-.2-.8-.1-.4-1.1.4-.9.8.2.6.3 1.2.4 1.9l.3 2.4c.1.5.9-.3.9-.6-.1-1.2-.1-2.5.4-3.6.1 0 .1.1.2.1.3.4.3.9.3 1.3.1.8-.1 1.9.5 2.6.3.3.6.2.9 0 .2.2.4.2.7.1.4-.2.6-.7.7-1.2v.2c.1.3.2.7.4.9.3.2.6 0 .9-.2.2-.1.4-.3.6-.4.1.3.3.6.6.7.6.2 1.3-.2 1.8-.5.2-.1.4-.3.5-.4 0 .3-.1.6-.2 1-.1.3.2.3.4.2.2-.1.5-.3.6-.6.1-.4.2-.9.5-1.2.1-.2.2-.2.5-.4-.1.6-.2 1.3-.2 2 0 .6.4.7 1 .6.3-.1.5-.2.7-.3.1.4.2.7.6.8.5.2 1.1-.3 1.4-.6.4-.4.6-1 .8-1.5.1-.8.5-2.4-.4-2.9zm-8 .8c.1-.4.1-.8.4-1.2.1 0 .2.1.2.2.4.5-.2 1.3-.5 1.7 0 .1-.1.1-.1.2-.1-.4 0-.7 0-.9zm6.6 3.4zm.3-.4c-.1.1-.1.2-.2.3-.2-.1-.2-.5-.2-.6 0-.4 0-.8.1-1.2.1-.4.2-.8.4-1.2.1-.1.1-.2.2-.3.4.3.2 1.5.1 1.9-.1.3-.2.8-.4 1.1zM78.3 133.3c-.1-.2-.5-.1-.7-.1-.2.1-.7.2-.9-.1-.1-.2-.1-.4-.2-.6.7-.4 1.4-.9 2-1.5.3-.4.6-.9.3-1.4-.6-1-2-.1-2.4.4-.6.7-1 1.8-1 2.8 0 .4.1.7.4 1 .5.4 1.5.1 2-.1.2.1.6-.1.5-.4zm-1.2-2.8c.1-.2.3-.4.4-.5.1 0 .1.1.2.2.2.3-.1.7-.3.9-.2.3-.5.5-.8.7.1-.4.3-.9.5-1.3zM66.9 126.4c.3.1.6-.1.8-.3.2-.2.4-.5.5-.9 0-.3-.3-.2-.5-.2-.2.1-.6.3-.6.6V125.9c-.3.2-.4.4-.2.5zM68.4 126.3c.3 0 .6-.2.8-.4.2-.2.3-.4.4-.7.1-.3-.3-.3-.5-.2-.3.1-.6.3-.6.6v.2s0 .1-.1.1c-.2.1-.3.3 0 .4z"/></g><g><path class="st9" d="M41.7 124.3c-.1 0-.2-.2-.3-.2-.4-.1-.7.1-1.1.1-.9 0-1.2 0-2.3-.3 0-.9.5-1.5.8-2.2.2-.6-.1-1.4-.1-2.1v-1.3c-.3.3-.2 1.1-.2 1.6-.1-.6-.1-1.3-.3-1.8-.1.5 0 1.3 0 1.8-.2-.5-.2-1.1-.4-1.6-.2.5.2 1.3.1 1.7-.2-.4-.3-1-.5-1.4-.1.6.2 1.1.2 1.5-.2-.4-.3-.8-.6-1.1 0 .4.2.9.4 1.2-.3-.1-.3-.4-.6-.5 0 .3.2.5.3.7-.2-.1-.3-.3-.5-.4 0 .3.2.3.3.6-.1-.1-.2-.2-.4-.3 0 .2.3.4.3.5 0 0-.2-.1-.2 0 0 0 .2.1.1.2h-.2c0 .1.2.1.1.3-.1 0-.1-.1-.1 0s.1.1.1.2c-.8.8-.4 1.7-.4 2.6 0-.1-.6-.3-1.2-.5-.3-.1-.3-.5-.6-.6 0-.1.1 0 .1-.1-.1 0-.2-.1-.2-.2h.3c-.1-.1-.5-.2-.4-.3.2 0 .4.1.5.1-.2-.1-.6-.3-.6-.5.2.1.5.3.7.2-.3-.2-.8-.4-.9-.7.2.1.5.4.8.4-.4-.1-.7-.6-1.1-.5.2.4.7.5.9.8-.3-.2-.6-.3-.9-.5.1.4.5.5.8.7-.3 0-.4-.2-.7-.2.1.3.5.2.7.5-.1-.1-.3 0-.5 0 0 .2.3.1.5.3-.2 0-.3 0-.4.1.1.1.3.1.4.2-.1 0-.2 0-.2.1s.2 0 .3.1c-.1 0-.1.1-.1.1h.2s-.1 0-.1.1c.4.2.6.9 1.2 1.1-.3.2.3.4-3.3 1.7.1 0 1.6-.4 2-.5.4-.2.9-.3 1.3-.4.1 0 .2-.1.3-.1.8-.1 1.4.1 2.2-.4-.6.1-1.5.2-1.9-.1.5-.8.2-2.7.5-3.1.4-.4 1-1.7 1.8-.6.1.2.1.4-.1.9-.3.6-.5.8-.5 2 0 .2 0 .5-.4.5 1.6.3 2 .2 3 0 .3 0 .7-.3.8 0 0 .1-.3.1-.6.1-.4 0 .2.2.4.1.1 0 .9-.1 1.4-.2-.5-.3-.7-.3-.9-.4z"/><path class="st9" d="M37 116.2c-3.6 0-6.5 2.9-6.5 6.5s2.9 6.5 6.5 6.5 6.5-2.9 6.5-6.5c.1-3.5-2.8-6.5-6.5-6.5m0 .3c3.5 0 6.3 2.8 6.3 6.3s-2.8 6.3-6.3 6.3-6.3-2.8-6.3-6.3 2.9-6.3 6.3-6.3"/></g><path class="st8" d="M76.7 15.6H48.5s-3.7-.3-3.7 2.3v10.6H80.4V17.9c-.1-2.6-3.7-2.3-3.7-2.3z"/></svg>