<svg xmlns="http://www.w3.org/2000/svg" viewBox="82 -29 294.2 308"><style>.st0{fill:#54A4AF;} .st1{fill:#519E38;} .st2{fill:none;stroke:#FFFFFF;stroke-width:4;stroke-miterlimit:10;} .st3{fill:#FFFFFF;} .st4{fill:#EFEFEF;} .st5{fill:#F2F2F2;} .st6{fill:#00A79D;} .st7{fill:#D5D6D7;} .st8{fill:#00B2E7;}</style><g id="bath"><g id="vanna_1"><path class="st1" d="M143.5 107.7h5.3v105.1h-5.3zM326.6 107.7l-.1 104.8s1.3 11.2-7.7 11.2H151.5s-5-.3-5-5.8 166.2-2.7 166.2-2.7l7-18.8 1.4-70.8.3-18.1h5.2v.2z"/><path class="st1" d="M330.5 105c0 2.2-1.8 4-4 4h-183c-2.2 0-4-1.8-4-4s1.8-4 4-4h183c2.2 0 4 1.8 4 4z"/><path class="st2" d="M321.5 214.3c0 2-1.6 3.7-3.7 3.7H147.2c-2 0-3.7-1.6-3.7-3.7V107.7c0-2 1.6-3.7 3.7-3.7h170.6c2 0 3.7 1.6 3.7 3.7v106.6z"/><path class="st3" d="M143.5 153.9h177.7V218H143.5z"/><path class="st4" d="M327.5 102c0 2.2-1.8 4-4 4h-183c-2.2 0-4-1.8-4-4s1.8-4 4-4h183c2.2 0 4 1.8 4 4z"/><path class="st3" d="M160.3 139.9c0 1.7-1.4 3.1-3.1 3.1-1.7 0-3.1-1.4-3.1-3.1v-22.8c0-1.7 1.4-3.1 3.1-3.1 1.7 0 3.1 1.4 3.1 3.1v22.8z"/></g></g><g id="bottle_1"><path class="st5" d="M144.8 43.9c-1.1 1.5-.9 3.6.6 4.7l21.3 16.8c1.5 1.1 3.6.9 4.7-.6l24.2-30.7c1.1-1.5.9-3.6-.6-4.7l-21.3-16.8c-1.5-1.1-3.6-.9-4.7.6l-24.2 30.7z"/><path class="st5" d="M181.018 7.58l17.198 13.558-5.696 7.225-17.198-13.56z"/><circle class="st6" cx="155.3" cy="45.7" r="2.8"/><circle class="st6" cx="159.6" cy="37.5" r="1.7"/><circle class="st6" cx="168.2" cy="33.3" r="2.4"/><circle class="st6" cx="164.1" cy="53" r="2.5"/><circle class="st6" cx="167.5" cy="43.8" r="5.5"/><path class="st7" d="M180.6 5.8c-.4.5-.3 1.2.2 1.6l18 14.2c.5.4 1.2.3 1.6-.2.4-.5.3-1.2-.2-1.6l-18-14.2c-.5-.4-1.2-.3-1.6.2z"/><path class="st3" d="M184.8 37.4c-.6.8-.5 2 .3 2.6.8.6 2 .5 2.6-.3l3.8-4.8c.6-.8.5-2-.3-2.6-.8-.6-2-.5-2.6.3l-3.8 4.8z"/></g><g id="bottle_2"><path class="st5" d="M312.5 45.1c1.1 1.5.9 3.6-.6 4.7l-21.3 16.8c-1.5 1.1-3.6.9-4.7-.6l-24.2-30.7c-1.1-1.5-.9-3.6.6-4.7l21.3-16.8c1.5-1.1 3.6-.9 4.7.6l24.2 30.7z"/><path class="st5" d="M281.95 16.033L264.754 29.59l-5.695-7.224 17.198-13.558z"/><circle class="st8" cx="302" cy="46.8" r="2.8"/><circle class="st8" cx="297.7" cy="38.7" r="1.7"/><circle class="st8" cx="289.1" cy="34.4" r="2.4"/><circle class="st8" cx="293.2" cy="54.2" r="2.5"/><circle class="st8" cx="289.8" cy="44.9" r="5.5"/><path class="st7" d="M276.7 6.9c.4.5.3 1.2-.2 1.6l-18 14.2c-.5.4-1.2.3-1.6-.2-.4-.5-.3-1.2.2-1.6l18-14.2c.5-.4 1.2-.3 1.6.2z"/><path class="st3" d="M272.5 38.6c.6.8.5 2-.3 2.6-.8.6-2 .5-2.6-.3l-3.8-4.8c-.6-.8-.5-2 .3-2.6.8-.6 2-.5 2.6.3l3.8 4.8z"/></g><g id="drop_2"><path class="st5" d="M256.9 61.7l-.3-.6-5.5-11.2-5.6 11.1-.3.6c-.3.8-.5 1.6-.5 2.5 0 3.5 2.8 6.3 6.3 6.3s6.3-2.8 6.3-6.3c.1-.8 0-1.7-.4-2.4z"/><ellipse class="st3" cx="248.4" cy="62.6" rx="1.7" ry="1.8"/></g><g id="drop_1"><path class="st5" d="M200.4 60.5l.3-.6 5.5-11.2 5.5 11.2.3.6c.3.8.5 1.6.5 2.5 0 3.5-2.8 6.3-6.3 6.3s-6.3-2.8-6.3-6.3c0-.9.1-1.7.5-2.5z"/><ellipse class="st3" cx="208.9" cy="61.5" rx="1.7" ry="1.8"/></g></svg>