<?xml version="1.0" encoding="utf-8"?>
<!-- Generator: Adobe Illustrator 19.0.0, SVG Export Plug-In . SVG Version: 6.00 Build 0)  -->
<svg version="1.1" id="Layer_1" xmlns="http://www.w3.org/2000/svg" xmlns:xlink="http://www.w3.org/1999/xlink" x="0px" y="0px"
	 viewBox="0 0 154.3 102.8" style="enable-background:new 0 0 154.3 102.8;" xml:space="preserve">
<style type="text/css">
	.st0{fill:#EFEFEF;}
	.st1{fill:#DDDDDD;}
	.st2{fill:#E0E0E0;}
	.st3{fill:#FFFFFF;}
	.st4{fill:#B66FAD;}
	.st5{fill:#62BA47;}
	.st6{fill:#62BA46;}
</style>
<path id="XMLID_101_" class="st0" d="M135.8,27h-17.6H111H45.1H38H20.3l7.6,49.8l0,0c0.7,4.9,5,8.7,10.1,8.7h80.1
	c5.5,0,10-4.3,10.2-9.8L135.8,27z"/>
<path id="XMLID_100_" class="st1" d="M118.1,27h-7.2H78v58.5h40.1c5.5,0,10-4.3,10.2-9.8l7.4-48.8h-17.6V27z"/>
<path id="XMLID_99_" class="st2" d="M136.6,23.6c0,1.3-1.1,2.4-2.4,2.4H21.7c-1.3,0-2.4-1.1-2.4-2.4l0,0c0-1.3,1.1-2.4,2.4-2.4
	h112.5C135.5,21.3,136.6,22.3,136.6,23.6L136.6,23.6z"/>
<path id="XMLID_98_" class="st3" d="M139.4,27c0,1.3-1.1,2.4-2.4,2.4H18.3c-1.3,0-2.4-1.1-2.4-2.4l0,0c0-1.3,1.1-2.4,2.4-2.4H137
	C138.3,24.6,139.4,25.7,139.4,27L139.4,27z"/>
<g id="XMLID_55_">
	<circle id="XMLID_97_" class="st4" cx="78.5" cy="57.4" r="15.5"/>
	<circle id="XMLID_96_" class="st5" cx="66.1" cy="71.2" r="4.9"/>
	<path id="XMLID_95_" class="st4" d="M71.1,38.5c0,1.1-0.9,2-2,2s-2-0.9-2-2s0.9-2,2-2S71.1,37.4,71.1,38.5L71.1,38.5z"/>
	<path id="XMLID_94_" class="st5" d="M71.2,45.1c0,1.4-1.1,2.5-2.5,2.5s-2.5-1.1-2.5-2.5s1.1-2.5,2.5-2.5S71.2,43.7,71.2,45.1
		L71.2,45.1z"/>
	<path id="XMLID_93_" class="st5" d="M64.4,41.2c0,0.8-0.7,1.5-1.5,1.5s-1.5-0.7-1.5-1.5s0.7-1.5,1.5-1.5
		C63.7,39.7,64.4,40.4,64.4,41.2L64.4,41.2z"/>
	<g id="XMLID_79_">
		<circle id="XMLID_92_" class="st5" cx="91.7" cy="43.3" r="8.5"/>
		<g id="XMLID_80_">
			<path id="XMLID_89_" class="st3" d="M89.6,42.1c-0.7,0.1-0.9,0.9-0.9,1.5l0,0l0,0c0,0.1,0,0.2,0,0.2c0,0.3,0,0.5,0,0.8
				c0,0.1,0,0.3-0.1,0.3c-0.3,0-0.5-0.4-0.5-0.5c-0.2-0.4-0.3-0.9-0.4-1.4s-0.1-1-0.2-1.5c0-0.2,0-0.4,0-0.6c0-0.1,0-0.2,0-0.2
				c0-0.1,0-0.1,0-0.1c0.1-0.4-0.5,0-0.6,0.2c-0.6,1-0.4,2.2-0.4,3.2c0,0.3,0,0.6-0.1,0.9c0,0.2-0.1,0.6-0.2,0.7s-0.3,0-0.4,0
				c-0.1-0.1-0.2-0.2-0.2-0.4c0-0.2-0.2-0.1-0.3,0c-0.1,0.1-0.3,0.3-0.2,0.5c0.1,0.4,0.4,0.7,0.8,0.6c0.6-0.2,0.9-1,1.1-1.5
				c0.1-0.3,0.1-0.6,0.1-0.9c0.1,0.4,0.2,0.8,0.4,1.2c0.1,0.3,0.4,0.6,0.8,0.5c0.3-0.1,0.5-0.3,0.6-0.7c0.1,0.3,0.3,0.5,0.6,0.5
				c0.4,0,0.7-0.4,0.8-0.7c0.2-0.3,0.2-0.7,0.2-1.1C90.5,43.1,90.3,42,89.6,42.1z M89.8,44.5c0,0.1,0,0.1-0.1,0.2
				c-0.1,0-0.2-0.2-0.3-0.3c-0.1-0.2-0.2-0.5-0.2-0.7c0-0.3,0-0.5,0-0.8c0-0.1,0-0.1,0.1-0.2c0.4,0.2,0.4,0.7,0.5,1.1
				C89.9,44,89.9,44.3,89.8,44.5z"/>
			<path id="XMLID_86_" class="st3" d="M98.1,43.1c-0.8-0.3-1.2,0.8-1.3,1.3s-0.3,1.5,0.4,1.8c0.3,0.1,0.7-0.1,0.9-0.3
				c0.2-0.3,0.4-0.6,0.5-0.9C98.6,44.3,98.8,43.3,98.1,43.1z M97.6,45.5c0,0.1-0.1,0.1-0.1,0.2c-0.1-0.1-0.2-0.3-0.2-0.4
				c0-0.3,0-0.5,0-0.8s0.1-0.5,0.2-0.8c0-0.1,0.1-0.1,0.1-0.2c0.3,0.3,0.2,0.8,0.1,1.2C97.8,45,97.7,45.3,97.6,45.5z"/>
			<path id="XMLID_81_" class="st3" d="M96,43.2c0.1-0.2,0.3-0.4,0.4-0.6c0.3-0.4,0.6-0.9,0.5-1.4c0-0.5-0.7-0.5-1-0.4
				c-0.5,0.2-0.8,0.8-0.9,1.3c-0.2,0.7-0.3,1.3-0.3,2l0,0c-0.2,0.3-0.7,0.9-1.1,0.6c-0.1-0.1-0.1-0.2-0.2-0.3
				c0.3-0.3,0.6-0.7,0.8-1.1c0.2-0.3,0.4-0.9,0-1.2c-0.4-0.2-0.8,0-1.1,0.3c-0.2,0.3-0.4,0.7-0.4,1.1c0,0.2,0,0.6,0,0.9
				c-0.2,0.1-0.5,0.2-0.8,0.2c-0.3-0.1-0.4-0.4-0.5-0.6c-0.1-0.3-0.1-0.7,0-1.1c0-0.1,0-0.2,0.1-0.3v-0.1c0.2,0.1,0.3,0.4,0.3,0.5
				c0.1,0.3,0.7-0.2,0.7-0.4c-0.1-0.3-0.2-0.5-0.5-0.6s-0.6,0.1-0.8,0.3c-0.5,0.5-0.5,1.1-0.5,1.8c0,0.4,0.1,0.9,0.4,1.1
				c0.5,0.3,1.1,0,1.5-0.2c0.1,0.3,0.3,0.5,0.7,0.4c0.5-0.1,0.9-0.3,1.2-0.6c0,0.3,0.1,0.7,0.3,0.9c0.4,0.2,0.9,0,1.2-0.4
				c0.4-0.4,0.5-1.1,0.3-1.6C96.4,43.3,96.2,43.2,96,43.2z M93.4,42.9c0-0.1,0.1-0.2,0.1-0.3l0,0c0.2,0,0.2,0.3,0.2,0.4
				c0,0.3-0.2,0.6-0.4,0.8c0-0.1,0-0.1,0-0.1C93.3,43.5,93.3,43.2,93.4,42.9z M95.9,41.5c0.1-0.1,0.1-0.2,0.2-0.3l0,0
				c0.3,0.3,0,0.8-0.1,1.1c-0.2,0.3-0.3,0.6-0.6,0.9c0-0.3,0.1-0.6,0.2-0.9C95.7,42.1,95.8,41.8,95.9,41.5z M95.7,45
				c0,0,0,0.1-0.1,0.1c0,0,0,0-0.1,0c-0.2-0.1-0.2-0.5-0.2-0.7c0-0.1,0-0.3,0-0.4c0.1-0.1,0.2-0.2,0.2-0.3c0.2-0.1,0.3,0.1,0.3,0.3
				C96,44.3,95.9,44.7,95.7,45z"/>
		</g>
	</g>
	<g id="XMLID_75_">
		<path id="XMLID_78_" class="st3" d="M68.1,69.8c-0.6,1-1.3,1.9-2,2.8c-0.3,0.4,0.2,0.4,0.4,0.1c0.7-1,1.5-1.9,2.1-3
			C68.9,69.4,68.3,69.6,68.1,69.8L68.1,69.8z"/>
		<path id="XMLID_77_" class="st3" d="M67,69.6c-0.4,0-0.6,0.4-0.7,0.7c-0.1,0.3,0.1,0.6,0.5,0.6C67.5,70.9,67.8,69.6,67,69.6
			c-0.2,0-0.4,0.4-0.2,0.4c0.2,0,0.3,0.2,0.3,0.3c0,0.1,0,0.1,0,0.2s0,0,0,0H67c-0.2,0-0.3-0.2-0.3-0.3c0-0.1,0-0.1,0-0.2l0,0h0.1
			C67,69.9,67.3,69.5,67,69.6z"/>
		<path id="XMLID_76_" class="st3" d="M68.1,71.6c-0.4,0-0.6,0.4-0.7,0.7c-0.1,0.3,0.1,0.6,0.5,0.6C68.5,73,68.9,71.7,68.1,71.6
			c-0.2,0-0.4,0.4-0.2,0.4c0.2,0,0.3,0.2,0.3,0.3c0,0.1,0,0.1,0,0.2l0,0h-0.1c-0.2,0-0.3-0.2-0.3-0.3c0-0.1,0-0.1,0-0.2l0,0h0.1
			C68,72,68.3,71.6,68.1,71.6z"/>
	</g>
	<g id="XMLID_62_">
		<path id="XMLID_71_" class="st3" d="M83.3,55.7c-0.4-0.3-1-0.2-1.4,0c0-0.3,0-0.7-0.1-1c0-0.3-0.6-0.1-0.7,0
			c-0.1,0-0.1,0.1-0.2,0.1c-0.1,0.1-0.2,0.2-0.3,0.3c-0.4,1-1.1,0.4-1.3,0.3l0,0c-0.2-0.1-0.4-0.2-0.6-0.2c-1.4,0-1.8,1.7-1.8,2.9
			c0,0.9,0,2.6,1.2,2.7c0.6,0,1.2-0.6,1.4-1c0.3-0.5,0.4-1.2,0.5-1.8c0-0.4,0-1-0.1-1.6c0.3-0.1,0.5-0.2,0.8-0.4
			c0,1.4,0,2.9-0.1,4.3c-0.1,1.2-0.2,2.4-0.4,3.6c0,0.3,0.3,0.2,0.4,0.2c0.2-0.1,0.5-0.3,0.6-0.6c0.1-0.8,0.3-1.7,0.4-2.5
			c0.4,0,0.8-0.1,1.2-0.3c0.8-0.6,1.1-1.6,1.2-2.5C84,57.3,84,56.3,83.3,55.7z M78.8,59.5c0,0.1-0.1,0.2-0.1,0.3
			c-0.2-0.1-0.4-0.4-0.4-0.6c-0.2-0.4-0.2-0.9-0.2-1.3c0-0.5,0-0.9,0.2-1.4c0-0.1,0.1-0.2,0.1-0.3c0.6,0.5,0.7,1.2,0.6,1.9
			C79,58.5,79,59,78.8,59.5z M82.4,60C82.4,60,82.4,60.1,82.4,60C82.4,60.1,82.4,60.1,82.4,60c-0.5,0.1-0.7-0.3-0.6-0.7
			c0.1-0.7,0.1-1.4,0.1-2.1l0,0c0-0.2,0-0.4,0.1-0.6l0,0l0,0c0.1,0,0.3,0.1,0.4,0.3c0.3,0.5,0.4,1.1,0.4,1.6
			C82.8,58.9,82.7,59.6,82.4,60z"/>
		<path id="XMLID_68_" class="st3" d="M86.5,56.3c-1.4-0.3-2,1.4-2.2,2.4c-0.2,0.9-0.4,2.6,0.8,2.9c0.6,0.2,1.2-0.3,1.5-0.7
			c0.4-0.5,0.6-1.1,0.7-1.7C87.6,58.3,87.8,56.5,86.5,56.3z M86,60.4c0,0.1-0.1,0.2-0.2,0.3c-0.2-0.1-0.3-0.5-0.4-0.7
			c-0.1-0.4-0.1-0.9,0-1.3s0.2-0.9,0.4-1.3c0-0.1,0.1-0.2,0.2-0.3c0.5,0.5,0.5,1.3,0.4,2C86.2,59.6,86.2,60,86,60.4z"/>
		<path id="XMLID_64_" class="st3" d="M75.1,56.5c0.2-0.5,0.4-0.9,0.6-1.4c0.3-0.9,0.5-1.7,0.3-2.5c-0.2-0.7-1.5-0.2-1.9,0.2
			c-0.7,0.7-0.9,1.7-1,2.7s0,2.1,0.2,3.2c-0.2,0.5-0.4,1-0.7,1.4l-0.1,0.1c0,0-0.1-0.1-0.1-0.2c-0.1-0.2-0.1-0.4-0.1-0.6
			c-0.2-1.6-0.2-3.2-0.7-4.8c-0.1-0.5-0.5-1.3-1.3-1c-0.6,0.2-1,0.6-1.2,1.1c-0.3-0.5-0.7-0.8-1.5-0.4c-0.3,0.2-0.5,0.4-0.7,0.6
			c0-0.2-0.1-0.5-0.3-0.6c-0.4-0.3-1.3,0.8-1,1.1c0.2,0.2,0.2,0.5,0.3,0.8c0.1,0.6,0.2,1.1,0.3,1.7c0.1,0.3,0.1,0.6,0.2,0.9
			c0.2,1.2,0.4,2.5,0.7,3.7c0,0.1,0.1,0.2,0.1,0.2c0.3,0,0.8-0.7,0.7-1c-0.2-1.1-0.4-2.1-0.5-3.2c-0.1-0.5-0.1-0.9-0.1-1.4
			s0-1,0.1-1.5c0-0.1,0-0.2,0.1-0.2c0.8,0.1,0.9,1.1,1,1.8c0.1,0.6,0.2,1.2,0.3,1.9c0.1,0.9,0.3,1.9,0.4,2.8c0,0.1,0.1,0.2,0.2,0.2
			c0.3,0,0.8-0.7,0.8-1c-0.1-1-0.2-2-0.3-3c0-0.2,0-0.5-0.1-0.7c0-0.9,0-1.7,0.1-2.5c0,0,0,0,0-0.1c0.2,0,0.3,0.3,0.4,0.4
			c0.5,0.9,0.6,1.9,0.7,2.9c0.1,0.6,0.1,1.3,0.2,2c0.1,0.4,0.1,0.9,0.3,1.2c0.3,0.4,0.8,0.2,1.1-0.1c0.4-0.3,0.6-0.7,0.9-1.1
			c0.2,0.6,0.5,1.2,1,1.1c0.9-0.1,1.5-0.8,1.8-1.6c0.3-0.9,0.5-2.1-0.3-2.7C75.6,56.5,75.3,56.5,75.1,56.5z M74.1,55.4
			c0-0.7,0.2-1.5,0.5-2.1l0,0c0.2,0.1,0.3,0.4,0.3,0.6c0,0.8-0.2,1.5-0.5,2.2c-0.1,0.3-0.2,0.6-0.3,0.8C74,56.4,74,55.9,74.1,55.4z
			 M75.3,58.8c0,0.4,0,0.7-0.2,1.1c0,0,0,0,0,0.1H75c-0.2,0-0.4-0.4-0.4-0.5c-0.2-0.4-0.3-0.8-0.3-1.2c0.1-0.2,0.2-0.4,0.3-0.6
			c0.1-0.2,0.3-0.1,0.5,0C75.3,57.9,75.3,58.4,75.3,58.8z"/>
		<path id="XMLID_63_" class="st3" d="M90.5,61.8c-0.1-0.3-0.6-0.1-0.7-0.1c-0.3,0.1-0.5,0.1-0.7-0.1c-0.2-0.1-0.3-0.4-0.4-0.6
			c-0.1-0.8,0.9-1.3,1.5-1.7c0.4-0.3,1-1,0.6-1.7s-1.4-0.8-2.1-0.5c-0.2,0.1-0.6,0.3-0.6,0.5c0,0.3,0.5,0.2,0.6,0.2
			c0.3-0.1,0.6,0,0.8,0.3c0.2,0.3,0.1,0.6-0.1,0.8c-0.3,0.4-0.9,0.6-1.2,0.9c-0.3,0.3-0.5,0.6-0.7,0.9c-0.2,0.5,0,1.1,0.4,1.4
			c0.6,0.5,1.4,0.4,2.1,0.1C90.2,62.3,90.6,62.1,90.5,61.8z"/>
	</g>
	<path id="XMLID_61_" class="st3" d="M64.7,69.4c-0.8,0.1-1.1,1.1-1.2,1.7s-0.1,2,0.7,2c0.9,0.1,1.2-1.1,1.3-1.7
		C65.6,70.9,65.5,69.5,64.7,69.4c-0.2,0-0.7,0.6-0.4,0.7c0.4,0,0.5,0.7,0.6,1c0,0.3,0,0.6,0,0.9c0,0.1,0,0.2-0.1,0.3
		c0,0.1-0.2,0.3,0,0.2c-0.4,0.2-0.6-0.8-0.6-1c0-0.3,0-0.6,0-0.9c0-0.2,0.1-0.3,0.1-0.4c0-0.2,0.1-0.2,0-0.1
		C64.6,70,65,69.3,64.7,69.4z"/>
	<g id="XMLID_56_">
		<path id="XMLID_60_" class="st6" d="M59.7,50.9c-0.1,0-0.1-0.1-0.2-0.2c-0.3-0.1-0.6,0.1-0.9,0.1c-0.7,0-1,0-1.9-0.3
			c0-0.8,0.4-1.2,0.6-1.8c0.2-0.5-0.1-1.1-0.1-1.8c0-0.4,0-0.7,0-1.1c-0.3,0.2-0.1,0.9-0.2,1.3c-0.1-0.5-0.1-1.1-0.2-1.4
			c-0.1,0.4,0,1,0,1.4c-0.1-0.4-0.2-0.9-0.3-1.3c-0.2,0.4,0.1,1,0.1,1.4c-0.2-0.4-0.2-0.8-0.4-1.1c-0.1,0.5,0.2,0.9,0.1,1.2
			c-0.1-0.3-0.2-0.6-0.5-0.9c0,0.3,0.2,0.7,0.3,1c-0.2-0.1-0.3-0.4-0.5-0.4c0,0.3,0.2,0.4,0.3,0.6c-0.1-0.1-0.2-0.3-0.4-0.3
			c0,0.2,0.2,0.3,0.2,0.5c-0.1-0.1-0.2-0.2-0.3-0.2c0,0.2,0.2,0.3,0.2,0.4c0,0-0.2-0.1-0.2,0c0,0,0.2,0.1,0.1,0.1s-0.1,0-0.1,0
			c0,0.1,0.1,0.1,0.1,0.2h-0.1c0,0.1,0.1,0.1,0.1,0.2c-0.6,0.7-0.3,1.4-0.4,2.1c0-0.1-0.5-0.2-1-0.4c-0.2-0.1-0.3-0.4-0.5-0.5
			c0,0,0.1,0,0.1-0.1c-0.1,0-0.2-0.1-0.2-0.1c0.1,0,0.2,0,0.2,0c-0.1-0.1-0.4-0.1-0.4-0.2c0.2,0,0.3,0.1,0.4,0.1
			c0.1-0.2-0.2-0.3-0.2-0.5c0.2,0.1,0.4,0.2,0.6,0.1c-0.3-0.1-0.6-0.3-0.7-0.5c0.2,0.1,0.4,0.3,0.6,0.3c-0.3-0.1-0.6-0.5-0.9-0.4
			c0.1,0.3,0.6,0.4,0.7,0.7c-0.2-0.1-0.5-0.3-0.7-0.4c0.1,0.3,0.4,0.4,0.7,0.6c-0.2,0-0.4-0.1-0.6-0.1c0.1,0.2,0.4,0.2,0.6,0.4
			c-0.1-0.1-0.3,0-0.4,0c0,0.2,0.3,0.1,0.4,0.2c-0.1,0-0.3,0-0.3,0.1c0.1,0.1,0.3,0,0.3,0.1c-0.1,0-0.2,0-0.2,0.1s0.2,0,0.2,0.1
			c0,0-0.1,0-0.1,0.1c0.1,0,0.1,0,0.1,0s-0.1,0-0.1,0.1c0.3,0.2,0.5,0.7,1,0.9c-0.3,0.2,0.2,0.3-2.7,1.4c0.1,0,1.3-0.3,1.7-0.4
			c0.4-0.1,0.7-0.2,1.1-0.3c0.1,0,0.2-0.1,0.3-0.1c0.6-0.1,1.2,0.1,1.8-0.3c-0.5,0.1-1.2,0.2-1.6-0.1c0.4-0.6,0.1-2.2,0.4-2.6
			c0.3-0.3,0.8-1.4,1.4-0.5c0.1,0.1,0.1,0.3-0.1,0.7c-0.3,0.5-0.4,0.7-0.4,1.6c0,0.2,0,0.4-0.3,0.4c1.3,0.3,1.7,0.1,2.4,0
			c0.2,0,0.6-0.2,0.6,0c0,0.1-0.2,0.1-0.5,0.1c-0.4,0,0.2,0.1,0.3,0.1c0.1,0,0.8-0.1,1.1-0.2C60.1,51,59.9,51,59.7,50.9z"/>
		<path id="XMLID_57_" class="st6" d="M55.9,44.3c-3,0-5.4,2.4-5.4,5.4s2.4,5.4,5.4,5.4s5.4-2.4,5.4-5.4
			C61.2,46.7,58.8,44.3,55.9,44.3 M55.9,44.5c2.8,0,5.2,2.3,5.2,5.2c0,2.8-2.3,5.2-5.2,5.2c-2.8,0-5.2-2.3-5.2-5.2
			C50.7,46.8,53,44.5,55.9,44.5"/>
	</g>
</g>
<path id="XMLID_54_" class="st3" d="M36,46.7c0.3,2.2-1.2,4.1-3.4,4.5l0,0c-2.2,0.3-4.2-1.2-4.5-3.4l-1.5-10.5
	c-0.3-2.2,1.2-4.2,3.4-4.5l0,0c2.2-0.3,4.2,1.2,4.5,3.4L36,46.7z"/>
</svg>
