<?xml version="1.0" encoding="utf-8"?>
<!-- Generator: Adobe Illustrator 19.0.0, SVG Export Plug-In . SVG Version: 6.00 Build 0)  -->
<svg version="1.1" id="Layer_1" xmlns="http://www.w3.org/2000/svg" xmlns:xlink="http://www.w3.org/1999/xlink" x="0px" y="0px"
	 viewBox="0 0 154.3 102.8" style="enable-background:new 0 0 154.3 102.8;" xml:space="preserve">
<style type="text/css">
	.st0{fill:#EFEFEF;}
	.st1{fill:#DDDDDD;}
	.st2{fill:#E0E0E0;}
	.st3{fill:#FFFFFF;}
	.st4{fill:#712F8F;}
	.st5{fill:#62BA47;}
	.st6{fill:#62BA46;}
</style>
<path id="XMLID_114_" class="st0" d="M134.1,24.8h-17.6h-7.2H43.5h-7.1H18.7l7.6,49.8l0,0c0.7,4.9,5,8.7,10.1,8.7h80.1
	c5.5,0,10-4.3,10.2-9.8L134.1,24.8z"/>
<path id="XMLID_101_" class="st1" d="M116.4,24.8h-7.2H76.3v58.5h40.1c5.5,0,10-4.3,10.2-9.8l7.4-48.8h-17.6V24.8z"/>
<path id="XMLID_100_" class="st2" d="M134.9,21.4c0,1.3-1.1,2.4-2.4,2.4H20c-1.3,0-2.4-1.1-2.4-2.4l0,0c0-1.3,1.1-2.4,2.4-2.4h112.5
	C133.8,19.1,134.9,20.1,134.9,21.4L134.9,21.4z"/>
<path id="XMLID_99_" class="st3" d="M137.6,24.8c0,1.3-1.1,2.4-2.4,2.4H16.5c-1.3,0-2.4-1.1-2.4-2.4l0,0c0-1.3,1.1-2.4,2.4-2.4
	h118.7C136.6,22.4,137.6,23.5,137.6,24.8L137.6,24.8z"/>
<path id="XMLID_98_" class="st3" d="M34.3,44.5c0.3,2.2-1.2,4.1-3.4,4.5l0,0c-2.2,0.3-4.2-1.2-4.5-3.4L25,35.1
	c-0.3-2.2,1.2-4.2,3.4-4.5l0,0c2.2-0.3,4.2,1.2,4.5,3.4L34.3,44.5z"/>
<g id="XMLID_55_">
	<circle id="XMLID_97_" class="st4" cx="77" cy="56" r="15"/>
	<path id="XMLID_96_" class="st5" d="M69.8,69.3c0-2.6-2.1-4.7-4.7-4.7c-2.6,0-4.7,2.1-4.7,4.7s2.1,4.7,4.7,4.7
		C67.6,74,69.8,71.9,69.8,69.3z"/>
	<path id="XMLID_95_" class="st4" d="M69.9,37.6c0,1.1-0.9,1.9-1.9,1.9c-1.1,0-1.9-0.9-1.9-1.9c0-1.1,0.9-1.9,1.9-1.9
		C69.1,35.7,69.9,36.6,69.9,37.6L69.9,37.6z"/>
	<path id="XMLID_94_" class="st5" d="M70,44.1c0,1.4-1.1,2.5-2.5,2.5S65,45.5,65,44.1s1.1-2.5,2.5-2.5S70,42.7,70,44.1L70,44.1z"/>
	<path id="XMLID_93_" class="st5" d="M63.4,40.3c0,0.8-0.7,1.5-1.5,1.5s-1.5-0.7-1.5-1.5c0-0.8,0.7-1.5,1.5-1.5
		C62.8,38.8,63.4,39.5,63.4,40.3L63.4,40.3z"/>
	<g id="XMLID_79_">
		<circle id="XMLID_92_" class="st5" cx="89.8" cy="42.3" r="8.3"/>
		<g id="XMLID_80_">
			<path id="XMLID_89_" class="st3" d="M87.8,41.1c-0.7,0.1-0.9,0.9-0.9,1.5l0,0l0,0c0,0.1,0,0.2,0,0.2c0,0.3,0,0.5,0,0.7
				c0,0.1,0,0.3-0.1,0.3c-0.2,0-0.4-0.3-0.5-0.5c-0.2-0.4-0.3-0.9-0.4-1.3c-0.1-0.5-0.1-1-0.2-1.5c0-0.2,0-0.4,0-0.6
				c0-0.1,0-0.2,0-0.2c0-0.1,0-0.1,0-0.1c0.1-0.4-0.4,0-0.5,0.1c-0.6,1-0.4,2.1-0.4,3.1c0,0.3,0,0.6-0.1,0.9c0,0.2-0.1,0.5-0.2,0.7
				c-0.1,0.1-0.3,0-0.4,0c-0.1-0.1-0.2-0.2-0.2-0.4c0-0.2-0.2-0.1-0.3,0c-0.1,0.1-0.2,0.3-0.2,0.5c0.1,0.4,0.4,0.7,0.8,0.6
				c0.6-0.2,0.9-0.9,1-1.5c0.1-0.3,0.1-0.6,0.1-0.8c0.1,0.4,0.2,0.8,0.4,1.2c0.1,0.3,0.4,0.6,0.7,0.5c0.3,0,0.4-0.3,0.6-0.6
				c0.1,0.3,0.3,0.5,0.6,0.4c0.3,0,0.6-0.4,0.8-0.7c0.2-0.3,0.2-0.7,0.2-1C88.6,42.1,88.5,41.1,87.8,41.1z M88,43.5
				c0,0.1,0,0.1-0.1,0.2c-0.1,0-0.2-0.2-0.3-0.3c-0.1-0.2-0.2-0.5-0.2-0.7c0-0.3,0-0.5,0-0.8c0-0.1,0-0.1,0.1-0.2
				c0.3,0.2,0.4,0.7,0.4,1C88,43,88,43.3,88,43.5z"/>
			<path id="XMLID_86_" class="st3" d="M96,42.1c-0.7-0.3-1.2,0.7-1.3,1.3c-0.1,0.5-0.3,1.4,0.4,1.7c0.3,0.1,0.7-0.1,0.9-0.3
				c0.2-0.2,0.4-0.6,0.5-0.9C96.5,43.3,96.6,42.4,96,42.1z M95.5,44.5c0,0.1-0.1,0.1-0.1,0.2c-0.1-0.1-0.2-0.3-0.2-0.4
				c0-0.3,0-0.5,0-0.8s0.1-0.5,0.2-0.7c0-0.1,0.1-0.1,0.1-0.2c0.3,0.3,0.2,0.8,0.1,1.2C95.7,44,95.6,44.2,95.5,44.5z"/>
			<path id="XMLID_81_" class="st3" d="M94,42.2c0.1-0.2,0.3-0.4,0.4-0.6c0.3-0.4,0.5-0.9,0.5-1.4s-0.7-0.5-1-0.3
				c-0.5,0.2-0.7,0.7-0.9,1.2c-0.2,0.6-0.3,1.3-0.3,1.9l0,0c-0.2,0.3-0.7,0.9-1.1,0.6c-0.1-0.1-0.1-0.2-0.2-0.3
				c0.3-0.3,0.6-0.6,0.8-1c0.2-0.3,0.4-0.9,0-1.1s-0.8,0-1.1,0.3c-0.2,0.3-0.3,0.7-0.4,1c0,0.2,0,0.5,0,0.9
				c-0.2,0.1-0.5,0.2-0.7,0.2c-0.3-0.1-0.4-0.4-0.4-0.6c-0.1-0.3-0.1-0.7,0-1c0-0.1,0-0.2,0.1-0.3v-0.1c0.2,0.1,0.2,0.3,0.3,0.5
				c0.1,0.2,0.7-0.2,0.6-0.4c-0.1-0.2-0.2-0.5-0.4-0.6c-0.3-0.1-0.6,0.1-0.8,0.3c-0.4,0.4-0.5,1.1-0.5,1.7c0,0.4,0.1,0.9,0.4,1.1
				c0.4,0.3,1.1,0,1.5-0.2c0.1,0.3,0.3,0.5,0.7,0.4c0.4-0.1,0.8-0.3,1.2-0.6c0,0.3,0.1,0.7,0.3,0.8c0.4,0.2,0.9,0,1.1-0.4
				c0.3-0.4,0.5-1,0.3-1.6C94.4,42.3,94.2,42.2,94,42.2z M91.5,42c0-0.1,0.1-0.2,0.1-0.3l0,0c0.2,0,0.2,0.3,0.2,0.4
				c0,0.3-0.2,0.6-0.4,0.8v-0.1C91.4,42.5,91.4,42.2,91.5,42z M93.9,40.6c0.1-0.1,0.1-0.2,0.2-0.3l0,0c0.3,0.3,0,0.8-0.1,1.1
				c-0.2,0.3-0.3,0.6-0.5,0.9c0-0.3,0.1-0.6,0.2-0.8C93.6,41.1,93.7,40.8,93.9,40.6z M93.7,44c0,0,0,0.1-0.1,0.1c0,0,0,0-0.1,0
				c-0.2-0.1-0.2-0.5-0.2-0.6s0-0.3,0-0.4c0.1-0.1,0.2-0.2,0.2-0.3c0.2-0.1,0.3,0.1,0.3,0.3C93.9,43.3,93.8,43.7,93.7,44z"/>
		</g>
	</g>
	<g id="XMLID_75_">
		<path id="XMLID_78_" class="st3" d="M67.1,68c-0.6,1-1.3,1.8-2,2.7c-0.3,0.4,0.2,0.4,0.4,0.1c0.7-0.9,1.5-1.9,2-2.9
			C67.8,67.5,67.3,67.7,67.1,68L67.1,68z"/>
		<path id="XMLID_77_" class="st3" d="M66.1,67.7c-0.4,0-0.6,0.3-0.7,0.7c-0.1,0.3,0.1,0.6,0.4,0.6C66.5,69,66.9,67.7,66.1,67.7
			c-0.1,0-0.4,0.4-0.2,0.4c0.2,0,0.3,0.1,0.3,0.3c0,0.1,0,0.1,0,0.2l0,0h-0.1c-0.2,0-0.3-0.1-0.3-0.3c0-0.1,0-0.1,0-0.2l0,0h0.1
			C66,68.1,66.3,67.7,66.1,67.7z"/>
		<path id="XMLID_76_" class="st3" d="M67.1,69.7c-0.4,0-0.6,0.3-0.7,0.7c-0.1,0.3,0.1,0.6,0.4,0.6C67.5,71,67.8,69.8,67.1,69.7
			c-0.1,0-0.4,0.4-0.2,0.4c0.2,0,0.3,0.1,0.3,0.3c0,0.1,0,0.1,0,0.2l0,0h-0.1c-0.2,0-0.3-0.1-0.3-0.3c0-0.1,0-0.1,0-0.2l0,0h0.1
			C67,70.1,67.3,69.7,67.1,69.7z"/>
	</g>
	<g id="XMLID_62_">
		<path id="XMLID_71_" class="st3" d="M81.7,54.3c-0.4-0.3-0.9-0.1-1.3,0c0-0.3,0-0.6-0.1-1c0-0.3-0.5-0.1-0.7,0
			c-0.1,0-0.1,0.1-0.2,0.1c-0.1,0.1-0.2,0.2-0.2,0.3c-0.4,0.9-1.1,0.4-1.3,0.3l0,0c-0.2-0.1-0.3-0.2-0.6-0.2c-1.4,0-1.7,1.7-1.8,2.8
			c0,0.9,0,2.5,1.2,2.6c0.6,0,1.1-0.5,1.4-1s0.4-1.1,0.5-1.7c0-0.3,0-1-0.1-1.5c0.3-0.1,0.5-0.2,0.8-0.4c0,1.4,0,2.8-0.1,4.1
			c-0.1,1.2-0.2,2.3-0.4,3.5c0,0.3,0.3,0.2,0.4,0.2c0.2-0.1,0.5-0.3,0.5-0.6c0.1-0.8,0.3-1.6,0.4-2.4c0.4,0,0.8-0.1,1.1-0.3
			c0.8-0.6,1.1-1.6,1.1-2.5C82.4,55.8,82.4,54.8,81.7,54.3z M77.4,57.9c0,0.1-0.1,0.2-0.1,0.3c-0.2-0.1-0.4-0.4-0.4-0.6
			c-0.2-0.4-0.2-0.8-0.2-1.3c0-0.4,0-0.9,0.2-1.3c0-0.1,0.1-0.2,0.1-0.3c0.5,0.5,0.6,1.2,0.6,1.8C77.5,57,77.5,57.5,77.4,57.9z
			 M80.8,58.5L80.8,58.5L80.8,58.5c-0.5,0.1-0.7-0.3-0.6-0.7c0.1-0.7,0.1-1.4,0.1-2.1l0,0c0-0.2,0-0.4,0.1-0.6l0,0l0,0
			c0.1,0,0.3,0.1,0.4,0.3c0.3,0.4,0.3,1.1,0.3,1.6C81.2,57.4,81.1,58,80.8,58.5z"/>
		<path id="XMLID_68_" class="st3" d="M84.8,54.8c-1.3-0.3-1.9,1.4-2.1,2.4c-0.2,0.9-0.3,2.5,0.8,2.8c0.6,0.2,1.2-0.3,1.5-0.7
			c0.4-0.5,0.6-1,0.7-1.6C85.8,56.8,86,55.1,84.8,54.8z M84.3,58.9c0,0.1-0.1,0.2-0.2,0.3c-0.2-0.1-0.3-0.5-0.3-0.7
			c-0.1-0.4-0.1-0.9,0-1.3s0.2-0.9,0.3-1.3c0-0.1,0.1-0.2,0.2-0.3c0.5,0.5,0.4,1.3,0.4,1.9C84.5,58,84.4,58.5,84.3,58.9z"/>
		<path id="XMLID_64_" class="st3" d="M73.7,55.1c0.2-0.4,0.4-0.9,0.5-1.4c0.3-0.9,0.5-1.6,0.3-2.4c-0.2-0.7-1.4-0.2-1.8,0.2
			c-0.7,0.7-0.9,1.7-1,2.6c-0.1,1,0,2,0.2,3.1c-0.2,0.5-0.4,0.9-0.7,1.4l-0.1,0.1c0,0-0.1-0.1-0.1-0.2c-0.1-0.2-0.1-0.4-0.1-0.6
			c-0.2-1.5-0.2-3.1-0.7-4.6c-0.1-0.5-0.5-1.2-1.3-1c-0.6,0.2-0.9,0.6-1.2,1.1c-0.3-0.5-0.7-0.8-1.4-0.4c-0.3,0.2-0.5,0.4-0.7,0.6
			c0-0.2-0.1-0.5-0.3-0.6c-0.4-0.3-1.2,0.8-0.9,1c0.2,0.2,0.2,0.5,0.3,0.8c0.1,0.5,0.2,1.1,0.3,1.7c0.1,0.3,0.1,0.6,0.2,0.9
			c0.2,1.2,0.4,2.4,0.6,3.6c0,0.1,0.1,0.2,0.1,0.1c0.3,0,0.8-0.7,0.7-1c-0.2-1-0.3-2.1-0.5-3.1C66,56.6,66,56.1,66,55.7
			c0-0.5,0-1,0-1.5c0-0.1,0-0.2,0-0.2c0.8,0.1,0.9,1.1,1,1.7s0.2,1.2,0.3,1.8c0.1,0.9,0.2,1.8,0.4,2.7c0,0.1,0.1,0.2,0.1,0.2
			c0.3,0,0.8-0.6,0.7-0.9c-0.1-1-0.2-1.9-0.3-2.9c0-0.2,0-0.5-0.1-0.7c0-0.8,0-1.6,0.1-2.4c0,0,0,0,0-0.1c0.2,0,0.3,0.3,0.4,0.4
			c0.5,0.8,0.6,1.8,0.7,2.8c0.1,0.6,0.1,1.3,0.2,1.9c0,0.4,0.1,0.8,0.3,1.2c0.3,0.4,0.7,0.1,1.1-0.1c0.3-0.3,0.6-0.7,0.8-1.1
			c0.2,0.5,0.5,1.1,1,1.1c0.8-0.1,1.5-0.8,1.7-1.5c0.3-0.8,0.5-2-0.3-2.7C74.3,55,74,55,73.7,55.1z M72.7,54c0-0.7,0.2-1.4,0.5-2.1
			l0,0c0.2,0.1,0.3,0.4,0.3,0.5c0,0.7-0.2,1.5-0.5,2.1c-0.1,0.3-0.2,0.5-0.3,0.8C72.7,55,72.7,54.5,72.7,54z M73.9,57.3
			c0,0.3,0,0.7-0.1,1c0,0,0,0,0,0.1h-0.1c-0.2,0-0.3-0.4-0.4-0.5c-0.2-0.4-0.2-0.7-0.3-1.1c0.1-0.2,0.2-0.4,0.3-0.6
			c0.1-0.2,0.3-0.1,0.5,0C74,56.5,73.9,56.9,73.9,57.3z"/>
		<path id="XMLID_63_" class="st3" d="M88.6,60.2c-0.1-0.2-0.5-0.1-0.7-0.1c-0.3,0.1-0.4,0.1-0.7-0.1c-0.2-0.1-0.3-0.3-0.4-0.5
			c-0.1-0.8,0.9-1.2,1.4-1.6c0.4-0.3,1-1,0.6-1.6s-1.3-0.7-2-0.5c-0.2,0.1-0.6,0.2-0.5,0.5c0,0.3,0.5,0.2,0.6,0.2
			c0.3-0.1,0.6,0,0.8,0.3c0.2,0.3,0.1,0.6-0.1,0.7c-0.3,0.4-0.8,0.5-1.2,0.9c-0.3,0.3-0.5,0.5-0.6,0.9c-0.2,0.5,0,1,0.4,1.4
			c0.6,0.5,1.4,0.4,2,0.1C88.4,60.7,88.7,60.5,88.6,60.2z"/>
	</g>
	<path id="XMLID_61_" class="st3" d="M64.4,69.1c-0.3,0.2-0.6,0.2-0.9,0.1c-0.5-0.2-0.2-1,0.2-1.1c0.5-0.1,0.6,0.9,0.5,1.2
		c0,0.4-0.2,0.8-0.5,1c-0.3,0.3-0.6-0.2-0.7-0.4c-0.1-0.2-0.6,0.2-0.5,0.4c0.2,0.3,0.5,0.7,0.9,0.5c0.4-0.1,0.7-0.5,0.9-0.8
		c0.3-0.5,0.4-1,0.4-1.5c0-0.4-0.2-0.9-0.6-1c-0.8-0.2-1.5,1-1.3,1.7s1.2,0.4,1.6,0.2C64.6,69.4,64.8,68.9,64.4,69.1L64.4,69.1z"/>
	<g id="XMLID_56_">
		<path id="XMLID_60_" class="st6" d="M58.8,49.7c-0.1,0-0.1-0.1-0.2-0.2c-0.3-0.1-0.6,0.1-0.9,0.1c-0.7,0-1,0-1.8-0.3
			c0-0.7,0.4-1.2,0.6-1.8c0.2-0.5-0.1-1.1-0.1-1.7c0-0.3,0-0.7,0-1.1c-0.2,0.2-0.1,0.9-0.2,1.2c-0.1-0.4-0.1-1-0.2-1.4
			c-0.1,0.4,0,1,0,1.4c-0.1-0.4-0.2-0.9-0.3-1.2c-0.2,0.4,0.1,1,0.1,1.4c-0.2-0.3-0.2-0.8-0.4-1.1c-0.1,0.5,0.2,0.9,0.1,1.2
			c-0.1-0.3-0.2-0.6-0.4-0.8c0,0.3,0.2,0.7,0.3,1c-0.2-0.1-0.3-0.3-0.5-0.4c0,0.2,0.2,0.4,0.3,0.6c-0.1-0.1-0.2-0.2-0.4-0.3
			c0,0.2,0.2,0.3,0.2,0.5c-0.1-0.1-0.2-0.2-0.3-0.2c0,0.2,0.2,0.3,0.2,0.4c0,0-0.2-0.1-0.2,0c0,0,0.2,0.1,0.1,0.1
			c-0.1,0-0.1,0-0.1,0c0,0.1,0.1,0.1,0.1,0.2c0,0,0,0-0.1,0c0,0.1,0.1,0.1,0.1,0.2c-0.6,0.6-0.3,1.3-0.3,2.1c0-0.1-0.5-0.2-0.9-0.4
			c-0.2-0.1-0.3-0.4-0.5-0.4c0,0,0.1,0,0.1-0.1c-0.1,0-0.1-0.1-0.2-0.1c0.1,0,0.2,0,0.2,0c-0.1-0.1-0.4-0.1-0.3-0.2
			c0.2,0,0.3,0.1,0.4,0.1c-0.2-0.1-0.5-0.2-0.5-0.4c0.1,0.1,0.4,0.2,0.5,0.1c-0.3-0.1-0.6-0.3-0.7-0.5c0.2,0.1,0.4,0.3,0.6,0.3
			c-0.3-0.1-0.6-0.4-0.9-0.4c0.1,0.3,0.6,0.4,0.7,0.6c-0.2-0.1-0.5-0.2-0.7-0.4c0.1,0.3,0.4,0.4,0.7,0.6c-0.2,0-0.4-0.1-0.6-0.1
			c0.1,0.2,0.4,0.2,0.5,0.4c-0.1-0.1-0.3,0-0.4,0c0,0.2,0.3,0.1,0.4,0.2c-0.1,0-0.2,0-0.3,0.1c0.1,0.1,0.3,0,0.3,0.1
			c-0.1,0-0.2,0-0.2,0.1s0.2,0,0.2,0.1c0,0-0.1,0-0.1,0.1h0.1c0,0-0.1,0-0.1,0.1c0.3,0.2,0.5,0.7,1,0.9c-0.3,0.2,0.2,0.3-2.6,1.3
			c0.1,0,1.3-0.3,1.6-0.4c0.4-0.1,0.7-0.2,1.1-0.3c0.1,0,0.2-0.1,0.3-0.1c0.6-0.1,1.1,0.1,1.7-0.3c-0.5,0.1-1.2,0.2-1.5-0.1
			c0.4-0.6,0.1-2.1,0.4-2.5c0.3-0.3,0.8-1.3,1.4-0.5c0.1,0.1,0.1,0.3-0.1,0.7c-0.3,0.4-0.4,0.6-0.4,1.6c0,0.2,0,0.4-0.3,0.4
			c1.2,0.3,1.6,0.1,2.3,0c0.2,0,0.6-0.2,0.6,0c0,0.1-0.2,0.1-0.4,0.1c-0.3,0,0.1,0.1,0.3,0.1c0.1,0,0.7-0.1,1.1-0.1
			C59.2,49.7,59.1,49.7,58.8,49.7z"/>
		<path id="XMLID_57_" class="st6" d="M55.2,43.3c-2.9,0-5.2,2.3-5.2,5.2c0,2.9,2.3,5.2,5.2,5.2c2.9,0,5.2-2.3,5.2-5.2
			C60.4,45.6,58,43.3,55.2,43.3 M55.2,43.5c2.8,0,5,2.2,5,5s-2.2,5-5,5c-2.8,0-5-2.2-5-5C50.2,45.7,52.4,43.5,55.2,43.5"/>
	</g>
</g>
</svg>
