<svg xmlns="http://www.w3.org/2000/svg" viewBox="0 0 298.5 283.5"><style>.st0{fill:#54A4AF;} .st1{fill:#F2F2F2;} .st2{fill:#FF1786;} .st3{fill:#D5D6D7;} .st4{fill:#FFFFFF;} .st5{fill:#519E38;} .st6{fill:#F9E0B2;} .st7{fill:none;stroke:#FFFFFF;stroke-width:4;stroke-miterlimit:10;} .st8{fill:#EFEFEF;}</style><g id="butylka_2"><path class="st1" d="M189.5 62.6c1.1 1.5.9 3.6-.6 4.7l-21.3 16.8c-1.5 1.1-3.6.9-4.7-.6l-24.2-30.7c-1.1-1.5-.9-3.6.6-4.7l21.3-16.8c1.5-1.1 3.6-.9 4.7.6l24.2 30.7z"/><path class="st1" d="M135.976 39.858l17.198-13.56 5.696 7.226-17.2 13.558z"/><circle class="st2" cx="178.9" cy="64.4" r="2.8"/><circle class="st2" cx="174.6" cy="56.3" r="1.7"/><circle class="st2" cx="166" cy="52" r="2.4"/><circle class="st2" cx="170.2" cy="71.7" r="2.5"/><circle class="st2" cx="166.8" cy="62.5" r="5.5"/><path class="st3" d="M153.6 24.5c.4.5.3 1.2-.2 1.6l-18 14.2c-.5.4-1.2.3-1.6-.2-.4-.5-.3-1.2.2-1.6l18-14.2c.5-.4 1.2-.3 1.6.2z"/><path class="st4" d="M149.4 56.1c.6.8.5 2-.3 2.6-.8.6-2 .5-2.6-.3l-3.8-4.8c-.6-.8-.5-2 .3-2.6.8-.6 2-.5 2.6.3l3.8 4.8z"/><path class="st1" d="M133.9 79.2l-.3-.6-5.6-11.2-5.5 11.2-.3.6c-.3.8-.5 1.6-.5 2.5 0 3.5 2.8 6.3 6.3 6.3s6.3-2.8 6.3-6.3c.1-.9-.1-1.7-.4-2.5z"/><ellipse class="st4" cx="125.3" cy="80.2" rx="1.7" ry="1.8"/></g><g id="vanna_1"><path class="st5" d="M60 128.6h5.3v105.1H60zM243.1 128.6l-.1 104.9s1.3 11.2-7.7 11.2H68s-5-.3-5-5.8 166.2-2.7 166.2-2.7l7-18.8 1.4-70.8.3-18.1h5.2z"/><path class="st6" d="M60 174.8h177.7v64.1H60z"/><path class="st5" d="M247 126c0 2.2-1.8 4-4 4H60c-2.2 0-4-1.8-4-4s1.8-4 4-4h183c2.2 0 4 1.7 4 4z"/><path class="st7" d="M238 235.2c0 2-1.6 3.7-3.7 3.7H63.7c-2 0-3.7-1.6-3.7-3.7V128.6c0-2 1.6-3.7 3.7-3.7h170.6c2 0 3.7 1.6 3.7 3.7v106.6z"/><path class="st8" d="M244 123c0 2.2-1.8 4-4 4H57c-2.2 0-4-1.8-4-4s1.8-4 4-4h183c2.2 0 4 1.7 4 4z"/><path class="st4" d="M76.8 160.8c0 1.7-1.4 3.1-3.1 3.1-1.7 0-3.1-1.4-3.1-3.1V138c0-1.7 1.4-3.1 3.1-3.1 1.7 0 3.1 1.4 3.1 3.1v22.8z"/></g></svg>