<svg xmlns="http://www.w3.org/2000/svg" viewBox="0 0 130 250"><style>.st0{fill:#519E38;} .st1{fill:#F9E0B2;} .st2{fill:#EACD9D;} .st3{fill:#FFEED4;} .st4{fill:#FFFFFF;} .st5{fill:#F37A20;} .st6{fill:#62BA47;} .st7{fill-rule:evenodd;clip-rule:evenodd;fill:#F37A20;} .st8{fill-rule:evenodd;clip-rule:evenodd;fill:#62BA47;} .st9{fill:#63B746;}</style><g id="butylka_2"><path class="st0" d="M107.8 209.4v-94.2C107.8 82 94 69.3 94 69.3c3.7-20.5-6.2-26.7-6.2-26.7v-7.4h2.1V24.6l-3.7-2.3H58s-3.7-.3-3.7 2.3v10.6h2.2v7.4h-.1s-9.8 6.2-6.2 26.7c0 0-13.8 12.7-13.8 45.8v94.2s-1.4 20.3 13.5 20.3h44.4c14.9.1 13.5-20.2 13.5-20.2z"/><path class="st1" d="M99.9 204.6v-94.2c0-33.2-13.8-45.8-13.8-45.8 3.7-20.5-6.2-26.7-6.2-26.7v-7.6H48.7v7.6h-.1s-9.8 6.2-6.2 26.7c0 0-13.8 12.7-13.8 45.8v94.2s-1.4 20.3 13.5 20.3h44.2c15 0 13.6-20.3 13.6-20.3z"/><path class="st2" d="M99.8 204.6v-94.2C99.8 77.2 86 64.6 86 64.6c3.7-20.5-6.2-26.7-6.2-26.7v-7.6H64.2v194.6h22.1c14.9 0 13.5-20.3 13.5-20.3z"/><path class="st3" d="M40.2 99.5h-.5c-2.2-.3-3.7-2.3-3.4-4.4 1.8-13.6 8.4-21.9 8.6-22.2 1.4-1.7 3.8-2 5.5-.6 1.7 1.4 2 3.8.6 5.5-.1.1-5.5 7-7 18.3-.1 1.9-1.8 3.4-3.8 3.4z"/><path class="st4" d="M78.4 17.5H50.2s-3.7-.3-3.7 2.3v10.6H82V19.8c0-2.6-3.6-2.3-3.6-2.3z"/><circle class="st5" cx="66.4" cy="141.7" r="19"/><circle class="st6" cx="51.2" cy="158.5" r="6"/><path class="st7" d="M57.4 118.4c0 1.3-1.1 2.4-2.4 2.4-1.3 0-2.4-1.1-2.4-2.4 0-1.3 1.1-2.4 2.4-2.4 1.3 0 2.4 1.1 2.4 2.4z"/><path class="st8" d="M57.5 126.6c0 1.7-1.4 3.1-3.1 3.1-1.7 0-3.1-1.4-3.1-3.1 0-1.7 1.4-3.1 3.1-3.1 1.7 0 3.1 1.4 3.1 3.1zM49.2 121.8c0 1-.8 1.8-1.8 1.8s-1.9-.8-1.9-1.8.8-1.9 1.9-1.9c.9 0 1.8.9 1.8 1.9z"/><circle class="st6" cx="82.6" cy="124.3" r="10.5"/><path class="st4" d="M80 122.8c-.9.1-1.1 1.1-1.1 1.8v.3c0 .3 0 .6-.1.9 0 .1-.1.4-.1.4-.3 0-.6-.4-.6-.7-.2-.5-.4-1.1-.5-1.7-.1-.6-.2-1.2-.2-1.9v-.8-.3-.2c.1-.5-.6 0-.7.2-.7 1.2-.5 2.7-.5 4 0 .4 0 .7-.1 1.1 0 .2-.1.7-.3.9-.1.1-.4 0-.5 0-.2-.1-.3-.3-.3-.5s-.3-.1-.4 0c-.1.2-.3.4-.3.6.1.5.5.9 1 .7.8-.2 1.1-1.2 1.3-1.9.1-.4.1-.7.2-1.1.1.5.3 1 .5 1.5.2.3.5.7.9.6.3-.1.6-.4.7-.8.2.3.4.6.8.6s.8-.5 1-.8c.2-.4.2-.9.2-1.3.2-.3 0-1.6-.9-1.6zm.3 3.1c0 .1 0 .2-.1.3-.2 0-.3-.3-.3-.4-.1-.3-.2-.6-.2-.9v-1c0-.1 0-.2.1-.2.4.3.5.8.6 1.3 0 .2 0 .5-.1.9zM90.4 124.1c-.9-.3-1.5.9-1.6 1.6-.2.7-.4 1.8.5 2.2.4.2.9-.1 1.1-.4.3-.3.5-.7.6-1.2.1-.7.3-1.9-.6-2.2zm-.5 3c0 .1-.1.1-.1.2-.1-.1-.2-.4-.2-.5v-1l.3-.9c0-.1.1-.1.1-.2.4.4.3 1 .2 1.5l-.3.9zM87.9 124.2c.2-.2.3-.5.5-.7.3-.5.7-1.1.7-1.8 0-.6-.8-.6-1.3-.4-.6.3-.9.9-1.1 1.5-.2.8-.4 1.6-.4 2.5-.3.4-.9 1.1-1.4.8-.1-.1-.2-.2-.2-.4.4-.4.7-.8 1-1.3.3-.4.5-1.1-.1-1.4-.5-.3-1 0-1.3.4-.3.4-.4.9-.5 1.3 0 .3-.1.7 0 1.1-.3.2-.6.3-.9.2-.4-.1-.5-.5-.6-.7-.1-.4-.1-.9 0-1.3 0-.1.1-.3.1-.4v-.1c.2.1.3.4.4.6.1.3.9-.2.8-.5-.1-.3-.2-.6-.6-.8-.3-.2-.8.1-1 .3-.6.6-.6 1.4-.6 2.2 0 .5.1 1.1.5 1.3.6.3 1.3 0 1.9-.3.1.4.4.6.9.5.6-.1 1.1-.4 1.5-.8 0 .4.1.9.4 1.1.5.3 1.1 0 1.4-.5.4-.5.7-1.3.4-2 0-.2-.2-.4-.5-.4zm-3.2-.3c0-.1.1-.2.1-.3.2.1.3.4.2.5 0 .4-.3.7-.5 1v-.2c.1-.3.1-.7.2-1zm3.1-1.7c.1-.1.1-.2.2-.4.4.4 0 1-.2 1.4-.2.4-.4.7-.7 1.1.1-.4.1-.7.2-1.1.2-.4.3-.7.5-1zm-.2 4.2s-.1.1-.1.2h-.1c-.2-.1-.2-.6-.3-.8v-.5l.3-.3c.2-.1.4.1.4.3.1.3-.1.8-.2 1.1z"/><g><path class="st4" d="M47.1 157.6c.1-.3.5-.4.7-.2.3.2-.1.6-.3.7-.2.1-.5.4-.4.7.1.2.6.2.7.2.3 0 .4.2.3.5-.1.5-.8.2-1 0-.2-.2-.6.3-.5.5.6.7 1.5.2 1.9-.5.2-.3.2-.7 0-.9-.2-.2-.6-.2-.9-.2-.1 0-.1 0-.1.1.1-.1.2-.2.4-.3.2-.1.3-.3.4-.4.2-.3.2-.7-.1-.9-.6-.4-1.4.4-1.6.9-.1.3.4 0 .5-.2zM50.3 159.7c.5 1.5 2.7.4 2.3-.9-.2-.6-.9-.6-1.5-.7-.3-.1-.3-.3-.3-.6.1-.3.1-.3-.1-.1.1 0 .2 0 .2-.1.5-.1.9-.1 1.4.1.2.1.6-.4.4-.5-.5-.3-1.2-.2-1.7-.1s-.7.6-.7 1.1c0 .6.6.7 1 .8.4.1.7.2.7.6.1.7-.7.6-1 .4-.2-.1-.2-.3-.3-.5 0-.1-.5.3-.4.5zM55.4 157.1c-.6 1-1.4 2-2.1 2.9-.3.4.2.4.4.1.8-1 1.6-2 2.2-3.1.2-.4-.4-.2-.5.1zM54.2 156.8c-.4 0-.7.4-.7.7-.1.3.1.6.5.6.7.1 1.1-1.3.2-1.3-.2 0-.5.4-.2.4.2 0 .3.2.3.3v.2c0 .1 0 0 0 0h-.1c-.2 0-.3-.2-.3-.3v-.2h.1c.2 0 .5-.4.2-.4zM55.3 159c-.4 0-.7.4-.7.7-.1.3.1.6.5.6.7.1 1-1.3.2-1.3-.2 0-.5.4-.2.4.2 0 .3.2.3.3v.2c0 .1 0 0 0 0h-.1c-.2 0-.3-.2-.3-.3v-.2h.1c.1 0 .4-.4.2-.4zM49.2 161c.3-.2.4-.6.5-1 0-.1 0-.3-.1-.3-.1-.1-.4 0-.5 0-.1.1-.3.3-.3.4 0 .2.2.1.3.1v.1c0 .1 0 .1-.1.2v.2c.1-.1 0 0 0 0-.1.1-.2.3-.1.4 0 .2.2 0 .3-.1z"/></g><g><path class="st4" d="M81.1 145.5c-.2 0-.5.1-.6.2 0 0 0-.1-.1-.1-.1-.3-.1-.6-.1-.9 0-1 .3-1.9.5-2.8v-.1c.1-.6-.3-1.1-1-1.1-.6-.1-1.2.3-1.6.7-.5.5-.8 1.3-.9 2 0 .2-.3 1.1-.6 1.1h-.1c-.2-.1-.2-.5-.2-.7 0-.5 0-.9-.2-1.4-.2-.4-.5-.4-.9-.4 0-.1 0-.1.1-.2 0-.1.1-.1.1-.2.2-.3.3-.7.6-.9.1.1.3.2.4.3.3.4 1.4-.3 1.1-.6-.4-.5-.9-.6-1.3-.4-.3.1-.6.2-.9.5l-.1.1v-1.7c0-.1 0-.1-.1-.1-.3-.1-1.1.3-1.1.7.1 1.2-.1 2.3-.5 3.5-.1.3-.6.9-.6.9-.1-.2-.1-.4-.1-.6V142c.1-.6.1-1.2.3-1.8.1-.2.2-.4.2-.6.1-.2 0-.4-.3-.4s-.6.3-.7.5c-.1.2-.2.5-.3.7-.1.3-.3.5-.5.8-.2.2-.3.3-.6.5h-.1v-2.6c0-.1 0-.2-.1-.2h-.4c-.2.1-.4.2-.5.4-.1.1-.1.2-.1.3-.3 1.1-.7 2.1-1.2 3-.2.4-.5 1.1-1 .6-.1-.1-.2-.3-.3-.5.7-.7 1.3-1.6 1.5-2.5.2-.6-.1-1.3-.9-1.4-.8-.1-1.3.7-1.6 1.2-.4.8-.4 1.7-.3 2.5 0 .1 0 .2.1.4-.1.1-.2.2-.3.2-.5.4-.8.2-1-.4-.3-.6-.3-1.4-.2-2 0-.2 0-.5.1-.7 0-.1.1-.2.1-.3v-.1c.1.1.3.2.3.3.2.3 1.2-.5 1-.9-.5-.8-1.5-.4-2 .2-.2.3-.4.7-.5 1.1-.1.2-.1.4-.2.6v-2.2c0-.6-1 .2-1 .5-.1.3-.2.7-.3 1-.1-.3-.2-.6-.4-.9-.5-.7-1.3-.6-1.8.1-.1.1-.4.5-.2.7.2.1.5-.1.6-.2h.1c.1 0 .1.1.2.1.1.1.2.3.3.4.2.4.3.9.4 1.4.1.5.1 1 0 1.4V143.5c-.1 0-.2-.1-.3-.2 0 0 0-.1-.1-.1-.1-.2-.5.1-.7.4 0 0 0 .1-.1.1H59.8c-.2-.1-.2-.3-.3-.4-.2-.5-.3-1-.4-1.5-.1-.8-.1-1.6-.1-2.3 0-.3-.4-.2-.5-.1 0 0-.1 0-.1.1-.3-.1-.7 0-1.1.3-.9.7-1.2 1.9-.9 3 .2.6.7.9 1.3.7.1 0 .2-.1.3-.1 0 .3-.1.6-.2.8-.1.3-.6 0-.7-.2-.2-.4-1 .6-.9 1 .4.9 1.5.3 1.9-.3.1-.1.2-.2.2-.3.1.2.2.4.4.5.4.3.9.1 1.3-.2.6.5 1.4-.2 1.7-.9.2-.3.3-.6.3-.9.1-.3.1-.5.2-.8v2.3c0 .3.3.2.5.1.3-.2.5-.4.5-.7 0-.3.1-.6.2-.8.1.8.4 1.5 1.2 1.5.4 0 .8-.3 1-.5.2-.1.3-.2.5-.4.1.3.4.7.7.8 1 .2 1.7-.8 2.2-1.5.1-.2.3-.5.4-.7 0 .7 0 1.4-.1 2.2 0 .3.3.3.5.2.3-.1.5-.3.6-.6.1-.5.2-.9.4-1.3.1-.2.2-.2.5-.5v.8c0 .4-.2 2 .6 2 .5 0 1-.3 1.4-.8 0 .3-.1.5-.1.8 0 .3.3.3.4.2.3-.1.6-.3.6-.6.1-.5.2-1 .4-1.4.6.3.1 1.8.5 2.2.3.4.9.3 1.2.1.1-.1.3-.1.4-.2 0 .3.2.6.4.8.4.4 1.1.2 1.5 0l.1-.1v.3c.3 1.1 1.6.6 2 0 .7-.5.6-.7.4-.8zm-23.4-3.6c-.2-.3-.2-1.1 0-1.4 0 .1.1 0 .3 0 .2.1.3.3.3.5 0 .5 0 .9.1 1.4-.4 0-.6-.2-.7-.5zm9.8-1.7c0-.2.1-.4.2-.6.1 0 .1 0 .1.1.3.2.3.7.2 1-.1.4-.3.8-.6 1.1v-.6c0-.3 0-.6.1-1zm11.2 5s-.1 0-.2-.1c-.2-.1-.2-.5-.2-.7-.1-.8.1-1.6.4-2.2.1-.2.3-.5.4-.6H79.4c.3.1.3.3.3.5-.2 1-.4 1.9-.8 2.8-.1.1-.1.2-.2.3zm1.6.7zM56.4 140.4c.4-1.1.2-2-.4-2.9-.6-.8-2.1-.8-3-.3-1.3.6-2.3 1.9-2.4 3.4 0 .3.2.4.4.2.3-.2.5-.6.5-.9.1-.9.6-1.4 1.5-1.7.7-.3 1.6-.2 2 .2.6.7 1.1 2.7-.3 2.8-.5-.8-.9-1.6-1.1-2.5-.1-.5-1 .5-1 .9.3 1.5 1.5 2.8 1.7 4.3.1.5 0 1.3-.7 1.4-.4.1-1-.1-1.1-.6-.1-.6-.9.5-.8.9.1.7.8 1 1.3.9.9-.1 1.6-.9 1.9-1.8.3-.8.3-1.8.1-2.6.7-.3 1.2-1 1.4-1.7z"/></g><g><path class="st9" d="M43.4 133.6c-.1 0-.2-.2-.3-.2-.4-.1-.7.1-1.1.1-.9 0-1.2 0-2.3-.3 0-.9.5-1.5.8-2.2.2-.6-.1-1.4-.1-2.2v-1.3c-.3.3-.2 1.2-.2 1.6-.1-.6-.1-1.3-.3-1.8-.1.5 0 1.3 0 1.8-.2-.5-.2-1.1-.4-1.6-.2.5.2 1.3.1 1.7-.2-.4-.3-1-.5-1.4-.1.6.2 1.1.2 1.5-.2-.4-.3-.8-.6-1.1 0 .4.2.9.4 1.2-.3-.1-.3-.4-.6-.6 0 .3.2.5.3.7-.2-.1-.3-.3-.5-.4 0 .3.2.3.3.6-.1-.1-.2-.2-.4-.3 0 .2.3.4.3.5 0 0-.2-.1-.2 0 0 0 .2.1.1.2h-.2c0 .1.2.1.1.3-.1 0-.1-.1-.1 0s.1.1.1.2c-.8.8-.4 1.7-.4 2.6 0-.1-.6-.3-1.2-.5-.3-.1-.3-.5-.6-.6 0-.1.1 0 .1-.1-.1 0-.2-.1-.2-.2.1 0 .3.1.3 0-.1-.1-.5-.2-.4-.3.2 0 .4.1.5.1-.2-.1-.6-.3-.6-.5.2.1.5.3.7.2-.3-.2-.8-.4-.9-.7.2.1.5.4.8.4-.4-.1-.7-.6-1.1-.5.2.4.7.5.9.8-.3-.2-.6-.3-.9-.5.1.4.5.5.8.7-.3 0-.4-.2-.7-.2.1.3.5.2.7.5-.1-.1-.3 0-.5 0 0 .2.3.1.5.3-.2 0-.3 0-.4.1.1.1.3.1.4.2-.1 0-.2 0-.2.1s.2 0 .3.1c-.1 0-.1.1-.1.1h.2s-.1 0-.1.1c.4.2.6.9 1.2 1.1-.3.2.3.4-3.4 1.7.1 0 1.6-.4 2-.5.4-.2.9-.3 1.3-.4.1 0 .2-.1.3-.1.8-.1 1.4.1 2.2-.4-.6.1-1.5.2-1.9-.1.5-.8.2-2.7.5-3.2.4-.4 1-1.7 1.8-.6.1.2.1.4-.1.9-.3.6-.5.8-.5 2 0 .2 0 .5-.4.5 1.6.3 2 .2 3 0 .3 0 .7-.3.8 0 0 .1-.3.1-.6.1-.4 0 .2.2.4.1.1 0 .9-.1 1.4-.2-.4 0-.6 0-.8-.1z"/><path class="st9" d="M38.7 125.5c-3.6 0-6.6 2.9-6.6 6.6 0 3.6 2.9 6.6 6.6 6.6 3.6 0 6.6-2.9 6.6-6.6 0-3.6-3-6.6-6.6-6.6m0 .3c3.5 0 6.3 2.8 6.3 6.3s-2.8 6.3-6.3 6.3-6.3-2.8-6.3-6.3 2.8-6.3 6.3-6.3"/></g></g></svg>