<svg xmlns="http://www.w3.org/2000/svg" viewBox="0 0 370.5 300.9"><style>.st0{fill:#519E38;} .st1{fill:#F9E0B2;} .st2{fill:#EACD9D;} .st3{fill:#FFEED4;} .st4{fill:#FFFFFF;} .st5{fill:#F37A20;} .st6{fill:#62BA47;} .st7{fill-rule:evenodd;clip-rule:evenodd;fill:#F37A20;} .st8{fill-rule:evenodd;clip-rule:evenodd;fill:#62BA47;} .st9{fill:#63B746;} .st10{fill:url(#SVGID_1_);} .st11{fill:url(#SVGID_2_);} .st12{fill:url(#SVGID_3_);} .st13{fill:url(#SVGID_4_);} .st14{fill:url(#SVGID_5_);}</style><g id="butylka_2"><path class="st0" d="M224.3 228.7v-94.2c0-33.2-13.8-45.8-13.8-45.8 3.7-20.5-6.2-26.7-6.2-26.7v-7.4h2.1V44l-3.7-2.3h-28.2s-3.7-.3-3.7 2.3v10.6h2.2V62s-9.8 6.2-6.2 26.7c0 0-13.8 12.7-13.8 45.8v94.2s-1.4 20.3 13.5 20.3h44.4c14.8 0 13.4-20.3 13.4-20.3z"/><path class="st1" d="M216.5 223.9v-94.2c0-33.2-13.8-45.8-13.8-45.8 3.7-20.5-6.2-26.7-6.2-26.7v-7.6h-31.2v7.6h-.1s-9.8 6.2-6.2 26.7c0 0-13.8 12.7-13.8 45.8v94.2s-1.4 20.3 13.5 20.3H202.8c15.1 0 13.7-20.3 13.7-20.3z"/><path class="st2" d="M216.4 223.9v-94.2c0-33.2-13.8-45.8-13.8-45.8 3.7-20.5-6.2-26.7-6.2-26.7v-7.6h-15.7v194.6h22.1c15 0 13.6-20.3 13.6-20.3z"/><path class="st3" d="M156.8 118.8h-.5c-2.2-.3-3.7-2.3-3.4-4.4 1.8-13.6 8.4-21.9 8.6-22.2 1.4-1.7 3.8-2 5.5-.6 1.7 1.4 2 3.8.6 5.5-.1.1-5.5 7-7 18.3-.2 1.9-1.9 3.4-3.8 3.4z"/><path class="st4" d="M194.9 36.8h-28.2s-3.7-.3-3.7 2.3v10.6H198.6V39.1c0-2.6-3.7-2.3-3.7-2.3z"/><circle class="st5" cx="183" cy="161" r="19"/><circle class="st6" cx="167.8" cy="177.8" r="6"/><path class="st7" d="M174 137.7c0 1.3-1.1 2.4-2.4 2.4-1.3 0-2.4-1.1-2.4-2.4 0-1.3 1.1-2.4 2.4-2.4 1.3 0 2.4 1.1 2.4 2.4z"/><path class="st8" d="M174.1 145.9c0 1.7-1.4 3.1-3.1 3.1-1.7 0-3.1-1.4-3.1-3.1 0-1.7 1.4-3.1 3.1-3.1 1.7 0 3.1 1.4 3.1 3.1zM165.7 141.1c0 1-.8 1.8-1.8 1.8s-1.9-.8-1.9-1.8.8-1.9 1.9-1.9c1 0 1.8.9 1.8 1.9z"/><circle class="st6" cx="199.2" cy="143.6" r="10.5"/><path class="st4" d="M196.6 142.2c-.9.1-1.1 1.1-1.1 1.8v.3c0 .3 0 .6-.1.9 0 .1-.1.4-.1.4-.3 0-.6-.4-.6-.7-.2-.5-.4-1.1-.5-1.7-.1-.6-.2-1.2-.2-1.9v-.8-.3-.2c.1-.5-.6 0-.7.2-.7 1.2-.5 2.7-.5 4 0 .4 0 .7-.1 1.1 0 .2-.1.7-.3.9-.1.1-.4 0-.5 0-.2-.1-.3-.3-.3-.5s-.3-.1-.4 0c-.1.2-.3.4-.3.6.1.5.5.9 1 .7.8-.2 1.1-1.2 1.3-1.9.1-.4.1-.7.2-1.1.1.5.3 1 .5 1.5.2.3.5.7.9.6.3-.1.6-.4.7-.8.2.3.4.6.8.6s.8-.5 1-.8c.2-.4.2-.9.2-1.3.2-.4 0-1.7-.9-1.6zm.3 3c0 .1 0 .2-.1.3-.2 0-.3-.3-.3-.4-.1-.3-.2-.6-.2-.9v-1c0-.1 0-.2.1-.2.4.3.5.8.6 1.3-.1.2-.1.5-.1.9zM207 143.4c-.9-.3-1.5.9-1.6 1.6-.2.7-.4 1.8.5 2.2.4.2.9-.1 1.1-.4.3-.3.5-.7.6-1.2.1-.7.3-1.9-.6-2.2zm-.6 3c0 .1-.1.1-.1.2-.1-.1-.2-.4-.2-.5v-1l.3-.9c0-.1.1-.1.1-.2.4.4.3 1 .2 1.5 0 .3-.1.6-.3.9zM204.5 143.6c.2-.2.3-.5.5-.7.3-.5.7-1.1.7-1.8 0-.6-.8-.6-1.3-.4-.6.3-.9.9-1.1 1.5-.2.8-.4 1.6-.4 2.5-.3.4-.9 1.1-1.4.8-.1-.1-.2-.2-.2-.4.4-.4.7-.8 1-1.3.3-.4.5-1.1-.1-1.4-.5-.3-1 0-1.3.4-.3.4-.4.9-.5 1.3 0 .3-.1.7 0 1.1-.3.2-.6.3-.9.2-.4-.1-.5-.5-.6-.7-.1-.4-.1-.9 0-1.3 0-.1.1-.3.1-.4v-.1c.2.1.3.4.4.6.1.3.9-.2.8-.5-.1-.3-.2-.6-.6-.8-.3-.2-.8.1-1 .3-.6.6-.6 1.4-.6 2.2 0 .5.1 1.1.5 1.3.6.3 1.3 0 1.9-.3.1.4.4.6.9.5.6-.1 1.1-.4 1.5-.8 0 .4.1.9.4 1.1.5.3 1.1 0 1.4-.5.4-.5.7-1.3.4-2 0-.3-.3-.4-.5-.4zm-3.2-.4c0-.1.1-.2.1-.3.2.1.3.4.2.5 0 .4-.3.7-.5 1v-.2c.1-.3.1-.7.2-1zm3-1.7c.1-.1.1-.2.2-.4.4.4 0 1-.2 1.4-.2.4-.4.7-.7 1.1.1-.4.1-.7.2-1.1.2-.4.4-.7.5-1zm-.2 4.3s-.1.1-.1.2h-.1c-.2-.1-.2-.6-.3-.8v-.5l.3-.3c.2-.1.4.1.4.3.1.2 0 .7-.2 1.1z"/><g><path class="st4" d="M163.7 176.9c.1-.3.5-.4.7-.2.3.2-.1.6-.3.7-.2.1-.5.4-.4.7.1.2.6.2.7.2.3 0 .4.2.3.5-.1.5-.8.2-1 0-.2-.2-.6.3-.5.5.6.7 1.5.2 1.9-.5.2-.3.2-.7 0-.9-.2-.2-.6-.2-.9-.2-.1 0-.1 0-.1.1.1-.1.2-.2.4-.3.2-.1.3-.3.4-.4.2-.3.2-.7-.1-.9-.6-.4-1.4.4-1.6.9-.2.3.4 0 .5-.2zM166.8 179c.5 1.5 2.7.4 2.3-.9-.2-.6-.9-.6-1.5-.7-.3-.1-.3-.3-.3-.6.1-.3.1-.3-.1-.1.1 0 .2 0 .2-.1.5-.1.9-.1 1.4.1.2.1.6-.4.4-.5-.5-.3-1.2-.2-1.7-.1s-.7.6-.7 1.1c0 .6.6.7 1 .8.4.1.7.2.7.6.1.7-.7.6-1 .4-.2-.1-.2-.3-.3-.5.1-.1-.4.3-.4.5zM171.9 176.4c-.6 1-1.4 2-2.1 2.9-.3.4.2.4.4.1.8-1 1.6-2 2.2-3.1.3-.4-.3-.2-.5.1zM170.8 176.1c-.4 0-.7.4-.7.7-.1.3.1.6.5.6.7.1 1-1.3.2-1.3-.2 0-.5.4-.2.4.2 0 .3.2.3.3v.2c0 .1 0 0 0 0h-.1c-.2 0-.3-.2-.3-.3v-.2h.1c.1 0 .4-.4.2-.4zM171.9 178.3c-.4 0-.7.4-.7.7-.1.3.1.6.5.6.6.1 1-1.3.2-1.3-.2 0-.5.4-.2.4.2 0 .3.2.3.3v.2c0 .1 0 0 0 0h-.1c-.2 0-.3-.2-.3-.3v-.2h.1c.1 0 .4-.4.2-.4zM165.8 180.3c.3-.2.4-.6.5-1 0-.1 0-.3-.1-.3-.1-.1-.4 0-.5 0-.1.1-.3.3-.3.4 0 .2.2.1.3.1v.1c0 .1 0 .1-.1.2v.2c.1-.1 0 0 0 0-.1.1-.2.3-.1.4 0 .2.2 0 .3-.1z"/></g><g><path class="st4" d="M197.6 164.8c-.2 0-.5.1-.6.2 0 0 0-.1-.1-.1-.1-.3-.1-.6-.1-.9 0-1 .3-1.9.5-2.8v-.1c.1-.6-.3-1.1-1-1.1-.6-.1-1.2.3-1.6.7-.5.5-.8 1.3-.9 2 0 .2-.3 1.1-.6 1.1h-.1c-.2-.1-.2-.5-.2-.7 0-.5 0-.9-.2-1.4-.2-.4-.5-.4-.9-.4 0-.1 0-.1.1-.2 0-.1.1-.1.1-.2.2-.3.3-.7.6-.9.1.1.3.2.4.3.3.4 1.4-.3 1.1-.6-.4-.5-.9-.6-1.3-.4-.3.1-.6.2-.9.5l-.1.1v-1.7c0-.1 0-.1-.1-.1-.3-.1-1.1.3-1.1.7.1 1.2-.1 2.3-.5 3.5-.1.3-.6.9-.6.9-.1-.2-.1-.4-.1-.6v-1.3c.1-.6.1-1.2.3-1.8.1-.2.2-.4.2-.6.1-.2 0-.4-.3-.4s-.6.3-.7.5c-.1.2-.2.5-.3.7-.1.3-.3.5-.5.8-.2.2-.3.3-.6.5h-.1v-2.6c0-.1 0-.2-.1-.2h-.4c-.2.1-.4.2-.5.4-.1.1-.1.2-.1.3-.3 1.1-.7 2.1-1.2 3-.2.4-.5 1.1-1 .6-.1-.1-.2-.3-.3-.5.7-.7 1.3-1.6 1.5-2.5.2-.6-.1-1.3-.9-1.4-.8-.1-1.3.7-1.6 1.2-.4.8-.4 1.7-.3 2.5 0 .1 0 .2.1.4-.1.1-.2.2-.3.2-.5.4-.8.2-1-.4-.3-.6-.3-1.4-.2-2 0-.2 0-.5.1-.7 0-.1.1-.2.1-.3v-.1c.1.1.3.2.3.3.2.3 1.2-.5 1-.9-.5-.8-1.5-.4-2 .2-.2.3-.4.7-.5 1.1-.1.2-.1.4-.2.6V158c0-.6-1 .2-1 .5-.1.3-.2.7-.3 1-.1-.3-.2-.6-.4-.9-.5-.7-1.3-.6-1.8.1-.1.1-.4.5-.2.7.2.1.5-.1.6-.2h.1c.1 0 .1.1.2.1.1.1.2.3.3.4.2.4.3.9.4 1.4.1.5.1 1 0 1.4V162.8c-.1 0-.2-.1-.3-.2 0 0 0-.1-.1-.1-.1-.2-.5.1-.7.4 0 0 0 .1-.1.1H176.3c-.2-.1-.2-.3-.3-.4-.2-.5-.3-1-.4-1.5-.1-.8-.1-1.6-.1-2.3 0-.3-.4-.2-.5-.1 0 0-.1 0-.1.1-.3-.1-.7 0-1.1.3-.9.7-1.2 1.9-.9 3 .2.6.7.9 1.3.7.1 0 .2-.1.3-.1 0 .3-.1.6-.2.8-.1.3-.6 0-.7-.2-.2-.4-1 .6-.9 1 .4.9 1.5.3 1.9-.3.1-.1.2-.2.2-.3.1.2.2.4.4.5.4.3.9.1 1.3-.2.6.5 1.4-.2 1.7-.9.2-.3.3-.6.3-.9.1-.3.1-.5.2-.8v2.3c0 .3.3.2.5.1.3-.2.5-.4.5-.7 0-.3.1-.6.2-.8.1.8.4 1.5 1.2 1.5.4 0 .8-.3 1-.5.2-.1.3-.2.5-.4.1.3.4.7.7.8 1 .2 1.7-.8 2.2-1.5.1-.2.3-.5.4-.7 0 .7 0 1.4-.1 2.2 0 .3.3.3.5.2.3-.1.5-.3.6-.6.1-.5.2-.9.4-1.3.1-.2.2-.2.5-.5v.8c0 .4-.2 2 .6 2 .5 0 1-.3 1.4-.8 0 .3-.1.5-.1.8 0 .3.3.3.4.2.3-.1.6-.3.6-.6.1-.5.2-1 .4-1.4.6.3.1 1.8.5 2.2.3.4.9.3 1.2.1.1-.1.3-.1.4-.2 0 .3.2.6.4.8.4.4 1.1.2 1.5 0l.1-.1v.3c.3 1.1 1.6.6 2 0 .8-.5.7-.7.4-.8zm-23.4-3.6c-.2-.3-.2-1.1 0-1.4 0 .1.1 0 .3 0 .2.1.3.3.3.5 0 .5 0 .9.1 1.4-.3 0-.6-.2-.7-.5zm9.9-1.7c0-.2.1-.4.2-.6.1 0 .1 0 .1.1.3.2.3.7.2 1-.1.4-.3.8-.6 1.1v-.6c0-.3 0-.6.1-1zm11.2 5s-.1 0-.2-.1c-.2-.1-.2-.5-.2-.7-.1-.8.1-1.6.4-2.2.1-.2.3-.5.4-.6H196c.3.1.3.3.3.5-.2 1-.4 1.9-.8 2.8-.1.1-.2.2-.2.3zm1.6.7z"/><path class="st4" d="M173 159.7c.4-1.1.2-2-.4-2.9-.6-.8-2.1-.8-3-.3-1.3.6-2.3 1.9-2.4 3.4 0 .3.2.4.4.2.3-.2.5-.6.5-.9.1-.9.6-1.4 1.5-1.7.7-.3 1.6-.2 2 .2.6.7 1.1 2.7-.3 2.8-.5-.8-.9-1.6-1.1-2.5-.1-.5-1 .5-1 .9.3 1.5 1.5 2.8 1.7 4.3.1.5 0 1.3-.7 1.4-.4.1-1-.1-1.1-.6-.1-.6-.9.5-.8.9.1.7.8 1 1.3.9.9-.1 1.6-.9 1.9-1.8.3-.8.3-1.8.1-2.6.6-.2 1.2-1 1.4-1.7z"/></g><g><path class="st9" d="M159.9 153c-.1 0-.2-.2-.3-.2-.4-.1-.7.1-1.1.1-.9 0-1.2 0-2.3-.3 0-.9.5-1.5.8-2.2.2-.6-.1-1.4-.1-2.2v-1.3c-.3.3-.2 1.2-.2 1.6-.1-.6-.1-1.3-.3-1.8-.1.5 0 1.3 0 1.8-.2-.5-.2-1.1-.4-1.6-.2.5.2 1.3.1 1.7-.2-.4-.3-1-.5-1.4-.1.6.2 1.1.2 1.5-.2-.4-.3-.8-.6-1.1 0 .4.2.9.4 1.2-.3-.1-.3-.4-.6-.6 0 .3.2.5.3.7-.2-.1-.3-.3-.5-.4 0 .3.2.3.3.6-.1-.1-.2-.2-.4-.3 0 .2.3.4.3.5 0 0-.2-.1-.2 0 0 0 .2.1.1.2h-.2c0 .1.2.1.1.3-.1 0-.1-.1-.1 0s.1.1.1.2c-.8.8-.4 1.7-.4 2.6 0-.1-.6-.3-1.2-.5-.3-.1-.3-.5-.6-.6 0-.1.1 0 .1-.1-.1 0-.2-.1-.2-.2.1 0 .3.1.3 0-.1-.1-.5-.2-.4-.3.2 0 .4.1.5.1-.2-.1-.6-.3-.6-.5.2.1.5.3.7.2-.3-.2-.8-.4-.9-.7.2.1.5.4.8.4-.4-.1-.7-.6-1.1-.5.2.4.7.5.9.8-.3-.2-.6-.3-.9-.5.1.4.5.5.8.7-.3 0-.4-.2-.7-.2.1.3.5.2.7.5-.1-.1-.3 0-.5 0 0 .2.3.1.5.3-.2 0-.3 0-.4.1.1.1.3.1.4.2-.1 0-.2 0-.2.1s.2 0 .3.1c-.1 0-.1.1-.1.1h.2s-.1 0-.1.1c.4.2.6.9 1.2 1.1-.3.2.3.4-3.4 1.7.1 0 1.6-.4 2-.5.4-.2.9-.3 1.3-.4.1 0 .2-.1.3-.1.8-.1 1.4.1 2.2-.4-.6.1-1.5.2-1.9-.1.5-.8.2-2.7.5-3.2.4-.4 1-1.7 1.8-.6.1.2.1.4-.1.9-.3.6-.5.8-.5 2 0 .2 0 .5-.4.5 1.6.3 2 .2 3 0 .3 0 .7-.3.8 0 0 .1-.3.1-.6.1-.4 0 .2.2.4.1.1 0 .9-.1 1.4-.2-.3-.1-.5-.1-.8-.1z"/><path class="st9" d="M155.3 144.8c-3.6 0-6.6 2.9-6.6 6.6 0 3.6 2.9 6.6 6.6 6.6 3.6 0 6.6-2.9 6.6-6.6-.1-3.6-3-6.6-6.6-6.6m0 .3c3.5 0 6.3 2.8 6.3 6.3s-2.8 6.3-6.3 6.3-6.3-2.8-6.3-6.3c-.1-3.5 2.8-6.3 6.3-6.3"/></g></g><g id="sneg_1_"><linearGradient id="SVGID_1_" gradientUnits="userSpaceOnUse" x1="255.621" y1="82.366" x2="271.609" y2="127.664"><stop offset="0" stop-color="#404B71"/><stop offset=".604" stop-color="#3C476E"/><stop offset="1" stop-color="#354169"/></linearGradient><path class="st10" d="M259.2 123.3l-1.7-6.4 1.6-2.7.2.8c.2.8 1.1 1.3 1.9 1.1.1 0 .3-.1.4-.2.6-.3.9-1.1.7-1.8l-1-3.9 1.9-3.3 1.9 3.3-1 3.9c-.2.8.3 1.7 1.1 1.9.4.1.9 0 1.2-.2.4-.2.6-.5.7-1l.2-.8 1.6 2.7-1.7 6.4c-.2.8.3 1.7 1.1 1.9.4.1.9 0 1.2-.2.4-.2.6-.5.7-1l.9-3.3 2.5 4.4c.4.8 1.4 1 2.2.6.8-.4 1-1.4.6-2.2l-2.5-4.4 3.3.9c.4.1.9 0 1.2-.2.4-.2.6-.5.7-1 .2-.8-.3-1.7-1.1-1.9l-6.4-1.7-1.6-2.7.8.2c.4.1.9 0 1.2-.2.4-.2.6-.5.7-1 .2-.8-.3-1.7-1.1-1.9l-3.8-1-1.9-3.3h3.8l2.8 2.8c.5.5 1.3.6 1.9.3l.3-.3c.6-.6.6-1.6 0-2.2l-.6-.6h3.1l4.7 4.7c.5.5 1.3.6 1.9.3l.3-.3c.6-.6.6-1.6 0-2.2l-2.4-2.4h5c.3 0 .6-.1.8-.2.5-.3.8-.8.8-1.4 0-.9-.7-1.6-1.6-1.6h-5l2.4-2.4c.6-.6.6-1.6 0-2.2-.6-.6-1.6-.6-2.2 0l-4.7 4.7h-3.1l.6-.6c.6-.6.6-1.6 0-2.2-.6-.6-1.6-.6-2.2 0l-2.8 2.8H266l1.9-3.3 3.9-1c.1 0 .3-.1.4-.2.6-.3.9-1.1.7-1.8-.2-.8-1.1-1.3-1.9-1.1l-.8.2 1.6-2.7 6.4-1.7c.1 0 .3-.1.4-.2.6-.4.9-1.1.7-1.8-.2-.8-1.1-1.3-1.9-1.1l-3.3.9 2.5-4.4c.4-.8.2-1.7-.6-2.2-.8-.4-1.7-.2-2.2.6l-2.5 4.4-.9-3.3c-.2-.8-1.1-1.3-1.9-1.1-.8.2-1.4 1.1-1.1 1.9l1.7 6.4-1.6 2.7-.2-.8c-.2-.8-1.1-1.3-1.9-1.1-.8.2-1.3 1.1-1.1 1.9l1 3.9-1.9 3.3-1.9-3.3 1-3.9c.2-.8-.3-1.7-1.1-1.9-.8-.2-1.7.3-1.9 1.1l-.2.8-1.6-2.7 1.7-6.4c.2-.8-.3-1.7-1.1-1.9-.8-.2-1.7.3-1.9 1.1l-.9 3.3-2.5-4.4c-.4-.8-1.4-1-2.2-.6-.8.4-1 1.4-.6 2.2l2.5 4.4-3.3-.9c-.8-.2-1.7.3-1.9 1.1-.2.8.3 1.7 1.1 1.9l6.4 1.7 1.6 2.7-.8-.2c-.8-.2-1.7.3-1.9 1.1-.2.8.3 1.7 1.1 1.9l3.8 1 1.9 3.3h-3.8l-2.8-2.8c-.6-.6-1.6-.6-2.2 0-.6.6-.6 1.6 0 2.2l.6.6H249l-4.7-4.7c-.6-.6-1.6-.6-2.2 0-.6.6-.6 1.6 0 2.2l2.4 2.4h-5c-.9 0-1.6.7-1.6 1.6 0 .9.7 1.6 1.6 1.6h5l-2.4 2.4c-.6.6-.6 1.6 0 2.2.5.5 1.3.6 1.9.3l.3-.3 4.7-4.7h3.1l-.6.6c-.6.6-.6 1.6 0 2.2.5.5 1.3.6 1.9.3l.3-.3 2.8-2.8h3.8l-1.9 3.3-3.9 1c-.8.2-1.3 1.1-1.1 1.9.2.8 1.1 1.3 1.9 1.1l.8-.2-1.6 2.7-6.4 1.7c-.8.2-1.3 1.1-1.1 1.9.2.8 1.1 1.3 1.9 1.1l3.3-.9-2.5 4.4c-.4.8-.2 1.7.6 2.2.5.3 1.1.3 1.6 0 .2-.1.4-.3.6-.6l2.5-4.4.9 3.3c.2.8 1.1 1.3 1.9 1.1.1 0 .3-.1.4-.2.9.4 1.2-.3 1-1z"/><linearGradient id="SVGID_2_" gradientUnits="userSpaceOnUse" x1="137.004" y1="146.185" x2="141.838" y2="159.881"><stop offset="0" stop-color="#404B71"/><stop offset=".604" stop-color="#3C476E"/><stop offset="1" stop-color="#354169"/></linearGradient><path class="st11" d="M138.1 158.6l-.5-1.9.5-.8.1.2c.1.3.3.4.6.3h.1c.2-.1.3-.3.2-.5l-.3-1.2.6-1 .6 1-.3 1.2c-.1.3.1.5.3.6h.4c.1-.1.2-.2.2-.3l.1-.2.5.8-.5 1.9c-.1.3.1.5.3.6h.4c.1-.1.2-.2.2-.3l.3-1 .8 1.3c.1.2.4.3.7.2.2-.1.3-.4.2-.7l-.8-1.3 1 .3h.4c.1-.1.2-.2.2-.3.1-.3-.1-.5-.3-.6l-1.9-.5-.5-.8.2.1h.4c.1-.1.2-.2.2-.3.1-.3-.1-.5-.3-.6l-1.2-.3-.6-1h1.2l.9.9c.2.2.4.2.6.1 0 0 .1 0 .1-.1.2-.2.2-.5 0-.7l-.2-.2h.9l1.4 1.4c.2.2.4.2.6.1 0 0 .1 0 .1-.1.2-.2.2-.5 0-.7l-.7-.7h1.5c.1 0 .2 0 .2-.1.1-.1.2-.2.2-.4 0-.3-.2-.5-.5-.5h-1.5l.7-.7c.2-.2.2-.5 0-.7-.2-.2-.5-.2-.7 0l-1.4 1.4h-.9l.2-.2c.2-.2.2-.5 0-.7-.2-.2-.5-.2-.7 0l-.9.9h-1.2l.6-1 1.2-.3h.1c.2-.1.3-.3.2-.5-.1-.3-.3-.4-.6-.3l-.2.1.5-.8 1.9-.5h.1c.2-.1.3-.3.2-.5-.1-.3-.3-.4-.6-.3l-1 .3.8-1.3c.1-.2.1-.5-.2-.7-.2-.1-.5-.1-.7.2l-.8 1.3-.3-1c-.1-.3-.3-.4-.6-.3-.3.1-.4.3-.3.6l.5 1.9-.5.8-.1-.2c-.1-.3-.3-.4-.6-.3-.3.1-.4.3-.3.6l.3 1.2-.6 1-.6-1 .3-1.2c.1-.3-.1-.5-.3-.6-.3-.1-.5.1-.6.3l-.1.2-.5-.8.5-1.9c.1-.3-.1-.5-.3-.6-.3-.1-.5.1-.6.3l-.3 1-.8-1.3c-.1-.2-.4-.3-.7-.2-.2.1-.3.4-.2.7l.8 1.3-1-.3c-.3-.1-.5.1-.6.3-.1.3.1.5.3.6l1.9.5.5.8v-.6c-.3-.1-.5.1-.6.3-.1.3.1.5.3.6l1.2.3.6 1h-1.2l-.9-.9c-.2-.2-.5-.2-.7 0-.2.2-.2.5 0 .7l.2.2h-.9l-1.4-1.4c-.2-.2-.5-.2-.7 0-.2.2-.2.5 0 .7l.7.7h-1.5c-.3 0-.5.2-.5.5s.2.5.5.5h1.5l-.7.7c-.2.2-.2.5 0 .7.2.2.4.2.6.1 0 0 .1 0 .1-.1l1.4-1.4h.9l-.2.2c-.2.2-.2.5 0 .7.2.2.4.2.6.1 0 0 .1 0 .1-.1l.9-.9h1.2l-.6 1-1.2.3c-.3.1-.4.3-.3.6.1.3.3.4.6.3l.2-.1-.5.8-1.9.5c-.3.1-.4.3-.3.6.1.3.3.4.6.3l1-.3-.8 1.3c-.1.2-.1.5.2.7.2.1.3.1.5 0 .1 0 .1-.1.2-.2l.8-1.3.3 1c.1.3.3.4.6.3h.1s.1-.2.1-.4z"/><linearGradient id="SVGID_3_" gradientUnits="userSpaceOnUse" x1="72.114" y1="170.745" x2="82.535" y2="200.269"><stop offset="0" stop-color="#404B71"/><stop offset=".604" stop-color="#3C476E"/><stop offset="1" stop-color="#354169"/></linearGradient><path class="st12" d="M74.4 197.4l-1.1-4.2 1-1.8.1.5c.1.6.7.9 1.3.7.1 0 .2-.1.2-.1.4-.2.6-.7.5-1.2l-.7-2.5 1.2-2.2 1.2 2.2-.7 2.5c-.1.6.2 1.1.7 1.3.3.1.6 0 .8-.1.2-.1.4-.4.5-.6l.1-.5 1 1.8-1.1 4.2c-.1.6.2 1.1.7 1.3.3.1.6 0 .8-.1.2-.1.4-.4.5-.6l.6-2.2 1.6 2.8c.3.5.9.7 1.4.4.5-.3.7-.9.4-1.4l-1.6-2.8 2.2.6c.3.1.6 0 .8-.1.2-.1.4-.4.5-.6.1-.6-.2-1.1-.7-1.3l-4.2-1.1-1-1.8.5.1c.3.1.6 0 .8-.1.2-.1.4-.4.5-.6.1-.6-.2-1.1-.7-1.3l-2.5-.7-1.2-2.2h2.5l1.8 1.8c.3.3.9.4 1.2.2.1 0 .1-.1.2-.2.4-.4.4-1.1 0-1.5l-.4-.4h2l3 3c.3.3.9.4 1.2.2.1 0 .1-.1.2-.2.4-.4.4-1.1 0-1.5l-1.6-1.6h3.3c.2 0 .4 0 .5-.1.3-.2.5-.5.5-.9 0-.6-.5-1-1-1h-3.3l1.6-1.6c.4-.4.4-1.1 0-1.5-.4-.4-1.1-.4-1.5 0l-3 3h-2l.4-.4c.4-.4.4-1.1 0-1.5-.4-.4-1.1-.4-1.5 0l-1.8 1.8h-2.5l1.2-2.2 2.5-.7c.1 0 .2-.1.2-.1.4-.2.6-.7.5-1.2-.1-.6-.7-.9-1.3-.7l-.5.1 1-1.8 4.2-1.1c.1 0 .2-.1.2-.1.4-.2.6-.7.5-1.2-.1-.6-.7-.9-1.3-.7l-2.2.6 1.6-2.8c.3-.5.1-1.1-.4-1.4-.5-.3-1.1-.1-1.4.4l-1.6 2.8-.6-2.2c-.1-.6-.7-.9-1.3-.7-.5.1-.9.7-.7 1.3l1.1 4.2-1 1.8-.1-.5c-.1-.6-.7-.9-1.3-.7-.6.2-.9.7-.7 1.3l.7 2.5-1.2 2.2-1.2-2.2.7-2.5c.1-.6-.2-1.1-.7-1.3-.6-.1-1.1.2-1.3.7l-.1.5-1-1.8 1.1-4.2c.1-.6-.2-1.1-.7-1.3-.6-.1-1.1.2-1.3.7l-.6 2.2-1.6-2.8c-.3-.5-.9-.7-1.4-.4-.5.3-.7.9-.4 1.4l1.6 2.8-2.2-.6c-.6-.1-1.1.2-1.3.7-.1.6.2 1.1.7 1.3l4.2 1.1 1 1.8-.5-.1c-.6-.1-1.1.2-1.3.7-.1.6.2 1.1.7 1.3l2.5.7 1.2 2.2h-2.5l-1.8-1.8c-.4-.4-1.1-.4-1.5 0-.4.4-.4 1.1 0 1.5l.4.4h-2l-3-3c-.4-.4-1.1-.4-1.5 0-.4.4-.4 1.1 0 1.5l1.6 1.6h-3.3c-.6 0-1 .5-1 1 0 .6.5 1 1 1h3.3l-1.6 1.6c-.4.4-.4 1.1 0 1.5.3.3.9.4 1.2.2.1 0 .1-.1.2-.2l3-3h2l-.4.4c-.4.4-.4 1.1 0 1.5.3.3.9.4 1.2.2.1 0 .2-.1.2-.2l1.8-1.8h2.5l-1.2 2.2-2.5.7c-.5.2-.9.7-.7 1.3.1.6.7.9 1.3.7l.5-.1-1 1.8-4.2 1.1c-.5.2-.9.7-.7 1.3.1.6.7.9 1.3.7l2.2-.6-1.6 2.8c-.3.5-.1 1.1.4 1.4.3.2.7.2 1 0 .2-.1.3-.2.4-.4l1.6-2.8.6 2.2c.1.6.7.9 1.3.7.1 0 .2-.1.3-.1.8-.2 1-.7.8-1.2z"/><linearGradient id="SVGID_4_" gradientUnits="userSpaceOnUse" x1="189.163" y1="173.138" x2="218.261" y2="241.241"><stop offset="0" stop-color="#404B71"/><stop offset=".604" stop-color="#3C476E"/><stop offset="1" stop-color="#354169"/></linearGradient><path class="st13" d="M236.7 203.7h-6.3l3-3c.8-.8.8-2 0-2.8-.8-.8-2-.8-2.8 0l-5.9 5.9h-3.9l1.7-1.7c.8-.8.8-2 0-2.8-.8-.8-2-.8-2.8 0l-4.6 4.6h-3.8l.1-.1c.8-.8.8-2 .1-2.7-.3-1-1.4-1.6-2.4-1.3h-.2l1.9-3.3 6.2-1.7c.2 0 .3-.1.5-.2.8-.4 1.2-1.4.9-2.2-.3-1.1-1.4-1.7-2.4-1.4l-2.4.6 2-3.4 8-2.1c.2 0 .3-.1.5-.2.8-.4 1.2-1.4.9-2.2-.3-1.1-1.4-1.7-2.4-1.4l-4.2 1.1 3.2-5.5c.6-1 .2-2.2-.7-2.7-1-.5-2.2-.2-2.7.7L215 181l-1.1-4.2c-.3-1.1-1.4-1.7-2.4-1.4-1.1.3-1.7 1.4-1.4 2.4l2.1 8-2 3.4-.6-2.4c-.3-1.1-1.4-1.7-2.4-1.4-1.1.3-1.7 1.4-1.4 2.4l1.7 6.2-1.9 3.3v-.2c-.3-1-1.3-1.7-2.4-1.4-1-.2-2.1.4-2.3 1.4v.2L199 194l1.7-6.2c.3-1.1-.3-2.2-1.4-2.4-1.1-.3-2.2.3-2.4 1.4l-.6 2.4-2-3.4 2.1-8c.3-1.1-.3-2.2-1.4-2.4-1.1-.3-2.2.3-2.4 1.4l-1.1 4.2-3.2-5.5c-.5-1-1.8-1.3-2.7-.7-1 .5-1.3 1.8-.7 2.7l3.2 5.5-4.2-1.1c-1.1-.3-2.2.3-2.4 1.4-.3 1.1.3 2.2 1.4 2.4l8 2.1 2 3.4-2.4-.6c-1.1-.3-2.2.3-2.4 1.4-.3 1.1.3 2.2 1.4 2.4l6.2 1.7 1.9 3.3h-.2c-1-.3-2 .3-2.4 1.3-.8.8-.8 2 0 2.8l.1.1h-3.8l-4.6-4.6c-.8-.8-2-.8-2.8 0-.8.8-.8 2 0 2.8l1.7 1.7h-3.9l-5.9-5.9c-.8-.8-2-.8-2.8 0-.8.8-.8 2 0 2.8l3 3h-6.3c-1.1 0-2 .9-2 2s.9 2 2 2h6.3l-3 3c-.8.8-.8 2 0 2.8.7.7 1.6.8 2.4.3.1-.1.3-.2.4-.3l5.9-5.9h3.9l-1.7 1.7c-.8.8-.8 2 0 2.8.7.7 1.6.8 2.4.3.1-.1.3-.2.4-.3l4.6-4.6h3.8l-.1.1c-.8.8-.8 2-.1 2.7.3 1 1.4 1.6 2.4 1.3h.2l-1.9 3.3-6.2 1.7c-1.1.3-1.7 1.4-1.4 2.4.3 1.1 1.4 1.7 2.4 1.4l2.4-.6-2 3.4-8 2.1c-1.1.3-1.7 1.4-1.4 2.4.3 1.1 1.4 1.7 2.4 1.4l4.2-1.1-3.2 5.5c-.5 1-.2 2.2.7 2.7.6.4 1.4.3 2 0 .3-.2.5-.4.7-.7l3.2-5.5 1.1 4.2c.3 1.1 1.4 1.7 2.4 1.4.2 0 .3-.1.5-.2.8-.4 1.2-1.3.9-2.2l-2.1-8 2-3.4.6 2.4c.3 1.1 1.4 1.7 2.4 1.4.2 0 .3-.1.5-.2.8-.4 1.2-1.3.9-2.2l-1.7-6.2 1.9-3.3v.2c.3 1 1.3 1.7 2.4 1.4.5.1 1 0 1.4-.2.4-.3.8-.7.9-1.2v-.2l1.9 3.3-1.7 6.2c-.3 1.1.3 2.2 1.4 2.4.5.1 1.1.1 1.5-.2.4-.3.8-.7.9-1.2l.6-2.4 2 3.4-2.1 8c-.3 1.1.3 2.2 1.4 2.4.5.1 1.1.1 1.5-.2.4-.3.8-.7.9-1.2l1.1-4.2 3.2 5.5c.5 1 1.8 1.3 2.7.7 1-.6 1.3-1.8.7-2.7l-3.2-5.5 4.2 1.1c.5.1 1.1.1 1.5-.2.4-.3.8-.7.9-1.2.3-1.1-.3-2.2-1.4-2.4l-8-2.1-2-3.4 2.4.6c.5.1 1.1.1 1.5-.2.4-.3.8-.7.9-1.2.3-1.1-.3-2.2-1.4-2.4l-6.2-1.7-1.9-3.3h.2c.5.1 1.1.1 1.5-.2.4-.2.7-.6.9-1.1.8-.8.8-2 0-2.8l-.1-.1h3.8l4.6 4.6c.7.7 1.6.8 2.4.3.1-.1.3-.2.4-.3.8-.8.8-2 0-2.8l-1.7-1.7h3.9l5.9 5.9c.7.7 1.6.8 2.4.3.1-.1.3-.2.4-.3.8-.8.8-2 0-2.8l-3-3h6.3c.4 0 .7-.1 1-.3.6-.3 1-1 1-1.7-.1-.8-.9-1.6-2-1.6zm-32.4 4.2c-1.2.7-2.8.3-3.5-.9-.7-1.2-.3-2.8.9-3.5 1.2-.7 2.8-.3 3.5.9.8 1.2.3 2.7-.9 3.5z"/><linearGradient id="SVGID_5_" gradientUnits="userSpaceOnUse" x1="148.629" y1="88.749" x2="160.65" y2="116.891"><stop offset="0" stop-color="#404B71"/><stop offset=".604" stop-color="#3C476E"/><stop offset="1" stop-color="#354169"/></linearGradient><path class="st14" d="M170.1 103.1h-1l.4-.5c.2-.3.1-.8-.2-1-.3-.2-.8-.1-1 .2l-.9 1.3h-1.5l2-2.8c.2-.3.1-.8-.2-1-.3-.2-.8-.1-1 .2l-2.6 3.7h-1.3l1.2-1.7c.2-.3.1-.8-.2-1-.3-.2-.8-.1-1 .2l-1.7 2.5h-.9l.4-.5c.2-.3.1-.8-.2-1-.3-.2-.8-.1-1 .2l-.9 1.3h-.5l-.8-1.5.2-.3 1.6-.1c.4 0 .7-.4.7-.8s-.4-.7-.8-.7l-.6.1.4-.8 3-.3c.4 0 .7-.4.7-.8s-.4-.7-.8-.7l-2 .2.7-1.1 4.5-.4c.4 0 .7-.4.7-.8s-.4-.7-.8-.7l-3.4.3.7-1.3 1.6-.1c.4 0 .7-.4.7-.8s-.4-.7-.8-.7l-.6.1.5-.9c.2-.3.1-.8-.3-1-.3-.2-.8-.1-1 .3l-.5.9-.3-.6c-.2-.4-.6-.5-1-.4-.4.2-.5.6-.4 1l.7 1.5-.7 1.3-1.5-3.1c-.2-.4-.6-.5-1-.3s-.5.6-.4 1l1.9 4.1-.7 1.1-.9-1.8c-.2-.4-.6-.5-1-.4-.4.2-.5.6-.4 1l1.3 2.8-.4.8-.3-.6c-.2-.4-.6-.5-1-.3s-.5.6-.4 1l.7 1.5-.2.3h-1.7l-.2-.3.7-1.5c.2-.4 0-.8-.4-1-.4-.2-.8 0-1 .3l-.3.6-.4-.8 1.3-2.8c.2-.4 0-.8-.4-1-.4-.2-.8 0-1 .3l-.9 1.8-.7-1.1 1.9-4.1c.2-.4 0-.8-.4-1-.4-.2-.8 0-1 .4l-1.5 3.1-.7-1.3.7-1.5c.2-.4 0-.8-.4-1-.4-.2-.8 0-1 .4l-.3.6-.5-.9c-.2-.3-.6-.5-1-.3-.3.2-.5.6-.3 1l.5.9-.6-.1c-.4 0-.8.3-.8.7 0 .4.3.8.7.8l1.6.1.7 1.3-3.4-.3c-.4 0-.8.3-.8.7 0 .4.3.8.7.8l4.5.4.7 1.1-2-.2c-.4 0-.8.3-.8.7 0 .4.3.8.7.8l3 .3.4.8-.6-.1c-.4 0-.8.3-.8.7 0 .4.3.8.7.8l1.6.1.2.3-.8 1.5h-.3l-.9-1.3c-.2-.3-.7-.4-1-.2-.3.2-.4.7-.2 1l.4.5h-.9l-1.7-2.5c-.2-.3-.7-.4-1-.2-.3.2-.4.7-.2 1l1.2 1.7h-1.3l-2.6-3.7c-.2-.3-.7-.4-1-.2-.3.2-.4.7-.2 1l2 2.8h-1.5l-.9-1.3c-.2-.3-.7-.4-1-.2-.3.2-.4.7-.2 1l.4.5h-1c-.4 0-.7.3-.7.7 0 .4.3.7.7.7h1l-.4.5c-.2.3-.1.8.2 1 .1.1.3.1.4.1.2 0 .5-.1.6-.3l.9-1.3h1.5l-2 2.8c-.2.3-.1.8.2 1 .1.1.3.1.4.1.2 0 .5-.1.6-.3l2.6-3.7h1.3l-1.2 1.7c-.2.3-.1.8.2 1 .1.1.3.1.4.1.2 0 .5-.1.6-.3l1.7-2.5h.9l-.4.5c-.2.3-.1.8.2 1 .1.1.3.1.4.1.2 0 .5-.1.6-.3l.9-1.3h.3l.8 1.5-.2.3-1.6.1c-.4 0-.7.4-.7.8s.4.7.7.7h.1l.6-.1-.4.8-3 .3c-.4 0-.7.4-.7.8s.4.7.7.7h.1l2-.2-.7 1.1-4.5.4c-.4 0-.7.4-.7.8s.4.7.7.7h.1l3.4-.3-.7 1.3-1.6.1c-.4 0-.7.4-.7.8s.4.7.7.7h.1l.6-.1-.5.9c-.2.3-.1.8.3 1 .1.1.2.1.4.1.3 0 .5-.1.6-.4l.5-.9.3.6c.1.3.4.4.7.4.1 0 .2 0 .3-.1.4-.2.5-.6.4-1l-.7-1.5.7-1.3 1.5 3.1c.1.3.4.4.7.4.1 0 .2 0 .3-.1.4-.2.5-.6.4-1l-1.9-4.1.7-1.1.9 1.8c.1.3.4.4.7.4.1 0 .2 0 .3-.1.4-.2.5-.6.4-1l-1.3-2.8.4-.8.3.6c.1.3.4.4.7.4.1 0 .2 0 .3-.1.4-.2.5-.6.4-1l-.7-1.5.2-.3h1.7l.2.3-.7 1.5c-.2.4 0 .8.4 1 .1 0 .2.1.3.1.3 0 .5-.2.7-.4l.3-.6.4.8-1.3 2.8c-.2.4 0 .8.4 1 .1 0 .2.1.3.1.3 0 .5-.2.7-.4l.9-1.8.7 1.1-1.9 4.1c-.2.4 0 .8.4 1 .1 0 .2.1.3.1.3 0 .5-.2.7-.4l1.5-3.1.7 1.3-.7 1.5c-.2.4 0 .8.4 1 .1 0 .2.1.3.1.3 0 .5-.2.7-.4l.3-.6.5.9c.1.2.4.4.6.4.1 0 .2 0 .4-.1.3-.2.5-.6.3-1l-.5-.9.6.1h.1c.4 0 .7-.3.7-.7 0-.4-.3-.8-.7-.8l-1.6-.1-.7-1.3 3.4.3h.1c.4 0 .7-.3.7-.7 0-.4-.3-.8-.7-.8l-4.5-.4-.7-1.1 2 .2h.1c.4 0 .7-.3.7-.7 0-.4-.3-.8-.7-.8l-3-.3-.4-.8.6.1h.1c.4 0 .7-.3.7-.7 0-.4-.3-.8-.7-.8l-1.6-.1-.2-.3.8-1.5h.3l.9 1.3c.1.2.4.3.6.3.1 0 .3 0 .4-.1.3-.2.4-.7.2-1l-.4-.5h.9l1.7 2.5c.1.2.4.3.6.3.1 0 .3 0 .4-.1.3-.2.4-.7.2-1l-1.2-1.7h1.3l2.6 3.7c.1.2.4.3.6.3.1 0 .3 0 .4-.1.3-.2.4-.7.2-1l-2-2.8h1.5l.9 1.3c.1.2.4.3.6.3.1 0 .3 0 .4-.1.3-.2.4-.7.2-1l-.4-.5h1c.4 0 .7-.3.7-.7.3-.4-.1-.7-.5-.7zm-15.9 2.2l-.8-1.5.8-1.5h1.7l.8 1.5-.8 1.5h-1.7z"/><circle class="st4" cx="182.8" cy="85.2" r="3.4"/><circle class="st4" cx="57.1" cy="149.4" r="3.4"/><circle class="st4" cx="62.1" cy="162.5" r="1.5"/><circle class="st4" cx="50.3" cy="170.3" r="1.5"/><circle class="st4" cx="170.9" cy="81.7" r="1.5"/><circle class="st4" cx="198.4" cy="117.6" r="3.8"/><circle class="st4" cx="227.4" cy="241.3" r="3.8"/><circle class="st4" cx="219.3" cy="127.5" r="2.8"/><circle class="st4" cx="213.9" cy="136" r="1.5"/><circle class="st4" cx="187.8" cy="126" r="1.5"/><circle class="st4" cx="267.3" cy="149.4" r="1.5"/><circle class="st4" cx="236.4" cy="127.5" r="1.5"/><circle class="st4" cx="230.4" cy="139" r="1.5"/><circle class="st4" cx="228.9" cy="127.3" r="1.5"/><circle class="st4" cx="236.4" cy="117.6" r="1.5"/><circle class="st4" cx="276.6" cy="129" r="1.5"/><circle class="st4" cx="281.1" cy="122.9" r="1.5"/><circle class="st4" cx="233.4" cy="232.8" r="1.5"/><circle class="st4" cx="244.8" cy="231.3" r="1.5"/><circle class="st4" cx="237.9" cy="239.8" r="1.5"/><circle class="st4" cx="205.9" cy="116.1" r="1.5"/><circle class="st4" cx="212.4" cy="122.9" r="1.5"/></g></svg>