<svg xmlns="http://www.w3.org/2000/svg" viewBox="0 0 289.5 244.5"><style>.st0{fill:#519E38;} .st1{fill:#F9E0B2;} .st2{fill:none;stroke:#FFFFFF;stroke-width:4;stroke-miterlimit:10;} .st3{fill:#EFEFEF;} .st4{fill:#FFFFFF;} .st5{fill:#431C51;} .st6{fill:#EDEDED;} .st7{fill:none;stroke:#636363;stroke-width:0.75;} .st8{fill:#636363;} .st9{fill:#1E1E1E;}</style><g id="vanna_1"><path class="st0" d="M51 62.1h5.3v105.1H51zM234.1 62.1L234 167s1.3 11.2-7.7 11.2H59s-5-.3-5-5.8 166.2-2.7 166.2-2.7l7-18.8 1.4-70.8.3-18.1h5.2z"/><path class="st1" d="M51 108.3h177.7v64.1H51z"/><path class="st0" d="M238 59.5c0 2.2-1.8 4-4 4H51c-2.2 0-4-1.8-4-4s1.8-4 4-4h183c2.2 0 4 1.7 4 4z"/><path class="st2" d="M229 168.7c0 2-1.6 3.7-3.7 3.7H54.7c-2 0-3.7-1.6-3.7-3.7V62.1c0-2 1.6-3.7 3.7-3.7h170.6c2 0 3.7 1.6 3.7 3.7v106.6z"/><path class="st3" d="M235 56.5c0 2.2-1.8 4-4 4H48c-2.2 0-4-1.8-4-4s1.8-4 4-4h183c2.2 0 4 1.7 4 4z"/><path class="st4" d="M67.8 94.4c0 1.7-1.4 3.1-3.1 3.1-1.7 0-3.1-1.4-3.1-3.1V71.6c0-1.7 1.4-3.1 3.1-3.1 1.7 0 3.1 1.4 3.1 3.1v22.8z"/></g><g id="clock"><circle class="st0" cx="228" cy="168.6" r="36.2"/><circle class="st5" cx="224" cy="165.8" r="36.2"/><circle class="st6" cx="224" cy="165.8" r="29.9"/><ellipse class="st7" cx="224" cy="165.8" rx="27.4" ry="27.7"/><path class="st8" d="M222.9 138.4h2.3v6.1h-2.3zM208.335 143.554l1.868-1.343 3.562 4.953-1.867 1.343zM200 153.29l1.073-2.036 5.397 2.844-1.073 2.035zM236.485 148.13l-1.868-1.343 3.56-4.953 1.868 1.342zM243.374 156.208l-1.073-2.035 5.398-2.844 1.072 2.034zM211.916 183.505l1.867 1.342-3.56 4.953-1.868-1.342zM204.52 174.51l1.072 2.036-5.396 2.846-1.073-2.034zM240.58 188.013l-1.868 1.343-3.56-4.953 1.866-1.343zM248.956 177.78l-1.074 2.035-5.395-2.847 1.074-2.034zM222.9 187.8h2.3v6.1h-2.3zM245.7 164.7h6.1v2.3h-6.1zM196.3 164.7h6.1v2.3h-6.1z"/><circle class="st9" cx="224.4" cy="165" r="2.1"/><path class="st9" d="M231.046 144.402l1.5.552-7.55 20.558-1.502-.552z"/><path class="st9" d="M238.58 165.74l-.173 1.59-13.917-1.513.173-1.59z"/></g></svg>